<?xml version="1.0" encoding="UTF-8"?>
<svg width="128pt" height="128pt" version="1.1" viewBox="0 0 128 128" xmlns="http://www.w3.org/2000/svg">
 <path id="path" d="m101.95 19.387c-3.1953 3.1953-6.2109 6.2148-12.348 6.2148-6.1367 0-9.1523-3.0156-12.348-6.2109-3.2383-3.2422-6.5898-6.5898-13.254-6.5898-6.6641 0-10.012 3.3477-13.25 6.5859-3.1953 3.1953-6.2148 6.2148-12.348 6.2148-6.1328 0-9.1523-3.0156-12.348-6.2109-3.2383-3.2422-6.5859-6.5898-13.25-6.5898v102.4c6.6641 0 10.016-3.3477 13.254-6.5859 3.1953-3.1953 6.2109-6.2148 12.348-6.2148 6.1367 0 9.1523 3.0156 12.348 6.2109 3.2383 3.2422 6.5898 6.5898 13.254 6.5898 6.6641 0 10.012-3.3477 13.25-6.5859 3.1953-3.1953 6.2148-6.2148 12.348-6.2148 6.1328 0 9.1523 3.0156 12.348 6.2109 3.2383 3.2422 6.5859 6.5898 13.25 6.5898v-102.4c-6.6641 0-10.016 3.3477-13.254 6.5859z"/>
</svg>
