<?xml version="1.0" encoding="UTF-8"?>
<svg width="128pt" height="128pt" version="1.1" viewBox="0 0 128 128" xmlns="http://www.w3.org/2000/svg">
 <g>
  <path d="m42.832 66.918c-0.80469-0.75781-1.8125-1.2148-2.7109-1.6211-0.19922-0.089844-0.46094-0.41797-0.69141-0.70703-0.28125-0.35156-0.57422-0.71875-0.94531-0.95312-0.47656-0.85547-1.3906-1.3281-2.0156-1.6484-0.27344-0.14062-0.53125-0.41406-0.79688-0.69922-0.41797-0.44922-0.89453-0.95312-1.6133-1.1211l-2.8438-0.65625c-0.67188-0.15625-1.4375-0.33594-2.2148-0.29297l-0.3125 0.007812c-0.55859 0.011719-1.2344 0.023438-1.7734 0.47266-0.14844-0.054688-0.34766-0.25781-0.45312-0.51562-0.078126-0.19531-0.12891-0.40625-0.17969-0.61328-0.089844-0.35547-0.1875-0.76172-0.40625-1.1406-0.22656-0.39453-0.61328-0.71094-1.0352-0.85938 0-0.046874 0.003906-0.097656 0-0.14453-0.019532-0.60156-0.32031-1.1875-0.78516-1.5273-0.71875-0.52344-1.7812-0.56641-2.7109-0.10156-0.25781 0.12891-0.49219 0.28516-0.71094 0.45703l-0.007812-2.1172c0.55859-0.39453 1.293-0.56641 2.0625-0.47266 0.87109 0.10547 1.6211 0.53516 2.0547 1.1719 0.13281 0.19141 0.35937 0.29687 0.59375 0.27344 0.23437-0.023437 0.43359-0.17578 0.52344-0.39062 1.4258-3.4453 4.2227-6.2305 7.6797-7.6367l0.3125-0.125c0.875-0.34766 1.8672-0.73828 2.4766-1.6211 0.24609-0.35547 0.375-0.80469 0.38281-1.2578 0.039062 0.03125 0.078124 0.0625 0.11328 0.09375 0.72656 0.59766 1.5469 1.2695 2.625 1.1758 0.64844-0.058594 1.2305-0.41016 1.6328-0.99219 0.50391-0.72266 0.67188-1.6992 0.44141-2.543-0.34766-1.2812-1.3086-2.1914-2.3477-3.0938-1.3242-1.1484-2.9141-2.2617-4.6406-1.8203-0.67969 0.17187-1.2422 0.55859-1.7852 0.92969-0.64062 0.4375-1.1836 0.81641-1.7617 0.73438-0.41016-0.054688-0.65625-0.375-0.76953-0.5625-0.24219-0.41016-0.30078-0.93359-0.14844-1.3359 0.34766-0.91406 1.3906-1.3906 2.2734-1.4648 1.0703-0.09375 2.1641 0.26953 3.1836 0.66797 0.6875 0.26953 2.7891 1.0898 3.8555-0.31641 0.67578-0.88672 0.38281-2.1211-0.23828-2.832-0.29297-0.33984-0.64453-0.58984-1.0156-0.78516l5.1133-3.4297c0.26172-0.17578 0.35547-0.51172 0.22656-0.79688-0.12891-0.28516-0.44922-0.43359-0.75391-0.34766l-4.7109 1.3047c-1.8477 0.51172-3.3125 0.78125-5.3672 0.66797-0.1875-0.007812-0.36719 0.058594-0.49609 0.19531-0.12891 0.13281-0.19141 0.32031-0.17578 0.50391 0.066406 0.69531-0.28516 1.5547-0.98828 1.7852-0.67578 0.22266-1.5078-0.15234-2.3008-0.55859-0.76562-0.39062-2.043-1.043-3.2891-0.62891-0.75391 0.25391-1.3359 1.0547-1.3867 1.9062-0.003906 0.078125-0.003906 0.15234 0 0.22656l-6.8203-0.45703c-1.6875-0.11328-3.4336-0.23047-5.1602 0.18359-4.1328 0.98828-6.8867 4.6641-9.3477 8.3438-0.078125 0.11719-0.11328 0.25391-0.10938 0.38672-0.0625 0.33594 0.14844 0.66797 0.48438 0.74219 1.1484 0.26172 2.4414-0.042969 3.8438-0.91406 0.34766-0.21484 0.68359-0.44531 1.0195-0.67969 0.64062-0.44531 1.2461-0.86719 1.9141-1.1484 0.88281-0.37109 1.6133-0.32031 2.5156 0.18359 0.39062 0.21484 0.54688 0.75391 0.52734 1.3203-0.019532 0.59766-0.03125 0.87109-0.23828 1.3555-0.097656 0.22266-0.054687 0.48438 0.10156 0.66797 0.089843 0.10547 0.097656 0.33594 0.015625 0.54297-0.11328 0.28906-0.36719 0.5625-0.60938 0.82813-0.3125 0.33984-0.53906 0.63281-0.76172 0.92187-0.20312 0.26563-0.40234 0.52734-0.6875 0.83594-0.078125 0.085938-0.12891 0.1875-0.15625 0.30078-0.19922 0.95703 0.30859 1.7422 0.76172 2.4336 0.10156 0.15625 0.20312 0.3125 0.29297 0.46484 0.46094 0.79297 1.1406 2.3281 0.49219 3.6797-0.12109 0.25-0.066406 0.55078 0.13672 0.74219l2.4883 2.3711c0.21875 0.21094 0.39844 0.52344 0.58594 0.85937 0.24219 0.42578 0.51953 0.91406 0.94922 1.2695 2.043 1.6875 4.4297 3.1836 6.75 4.2422 0.17188 0.43359 0.58594 0.78516 1.1562 0.96484 0.12891 0.039063 0.26172 0.074219 0.39453 0.10547 0.23438 0.054687 0.4375 0.10547 0.57031 0.19922 0.34375 0.24609 0.34766 0.9375 0.31641 1.5117l-0.027343 0.47266c-0.085938 1.4062-0.17188 2.8594-0.39453 4.2422-0.26172 1.6211 0.32031 3.1562 1.5938 4.207 1.2148 1.0039 2.7266 2.2539 3.2148 3.8828 0.31641 1.0586 0.19141 2.2305 0.050781 3.25-0.19531 1.4375-0.51562 2.9453-1 4.7422-0.050781 0.1875-0.011719 0.38672 0.10156 0.54688 0.11328 0.15625 0.29297 0.25391 0.48828 0.26172 0.79297 0.03125 1.3789 0.97266 1.5898 1.8359 0.089843 0.37109 0.14844 0.75781 0.20312 1.1406 0.11328 0.77344 0.23047 1.5664 0.60547 2.3203 0.66406 1.3281 2.0547 2.2266 3.5391 2.2891h0.082031c0.44922 0 1.0391-0.13672 1.4336-0.52344 0.26172-0.25391 0.39453-0.57422 0.38672-0.92969-0.015625-0.69141-0.53125-1.0625-0.90625-1.332-0.17578-0.125-0.37891-0.26953-0.42188-0.37891-0.050782-0.125 0.039062-0.38672 0.12891-0.64062 0.14453-0.40625 0.32031-0.91406 0.15234-1.457-0.13672-0.43359-0.4375-0.71875-0.68359-0.94531-0.11328-0.10547-0.22266-0.20703-0.29297-0.30469-0.078125-0.10938-0.082031-0.38672 0.070313-0.69922 0.17969-0.37891 0.46484-0.58984 0.64062-0.60156 0.12891-0.007813 0.25391-0.054688 0.35938-0.13281 0.14062-0.11328 0.33594-0.16406 0.51172-0.12891 0.21094 0.035156 0.42969-0.035157 0.57813-0.19531 0.14844-0.16016 0.20312-0.37891 0.15234-0.58984-0.1875-0.76562-0.35938-1.625 0.027344-2.1406 0.21094-0.28125 0.60547-0.46484 1.0195-0.66016 0.56641-0.26562 1.207-0.57031 1.5938-1.2109 0.28906-0.48047 0.34375-0.99609 0.39062-1.457 0.023438-0.20703 0.039063-0.41406 0.089844-0.61328 0.22656-0.92969 1.0703-1.957 1.8711-1.9102 0.20703 0.019531 0.41016-0.074219 0.54297-0.23438 0.12891-0.16406 0.17578-0.37891 0.11719-0.57812-0.37891-1.3359-0.074219-2.8438 0.79297-3.9258 0.074218-0.09375 0.15625-0.1875 0.23438-0.27734 0.32422-0.375 0.69141-0.80078 0.83984-1.3828 0.18359-0.71094-0.042968-1.5-0.56641-2.0117-0.45703-0.47656-1.0703-0.98438-1.7031-1.0312zm0.49219 3.5859c-0.089844 0.10547-0.17969 0.20703-0.26172 0.3125-0.97266 1.2109-1.3984 2.8281-1.1797 4.3594-1.1641 0.35156-2.1016 1.5859-2.3945 2.7891-0.0625 0.25391-0.089843 0.51953-0.11719 0.78125-0.039063 0.37109-0.074219 0.69531-0.21484 0.92578-0.1875 0.3125-0.58594 0.5-1.0469 0.71875-0.51172 0.24219-1.0938 0.51562-1.4922 1.0469-0.58203 0.76562-0.54688 1.7344-0.41016 2.4922-0.16797 0.050781-0.32812 0.125-0.47656 0.21484-0.61328 0.11719-1.1797 0.60156-1.5156 1.3008-0.34766 0.72656-0.33203 1.4727 0.042968 1.9961 0.14453 0.19922 0.3125 0.35938 0.46484 0.5s0.29688 0.27734 0.33203 0.38672c0.042968 0.14062-0.046876 0.40234-0.13672 0.65234-0.15625 0.4375-0.34375 0.98047-0.10547 1.5586 0.1875 0.44531 0.55859 0.71094 0.85938 0.92578 0.12891 0.09375 0.34766 0.25 0.37891 0.29688-0.042969 0.066406-0.28906 0.19141-0.57812 0.16797-1.0117-0.039063-1.9922-0.67578-2.4453-1.582-0.28516-0.56641-0.38281-1.2344-0.48438-1.9336-0.0625-0.42187-0.125-0.84375-0.22656-1.2539-0.26953-1.1016-0.97656-2.2305-2.0156-2.6445 0.40625-1.5742 0.68359-2.9414 0.86328-4.2578 0.16797-1.2383 0.27344-2.5508-0.09375-3.7891-0.59766-2-2.2773-3.3867-3.625-4.5039-0.91406-0.75391-1.3281-1.8516-1.1445-3.0156 0.23047-1.4492 0.32031-2.9336 0.40625-4.3711l0.027344-0.47266c0.035156-0.58203 0.11719-1.9453-0.85156-2.6328-0.33203-0.23828-0.69531-0.32422-1.0117-0.40234-0.10547-0.027343-0.21094-0.050781-0.30859-0.082031-0.21484-0.066406-0.33594-0.17969-0.34766-0.21484-0.003906-0.25-0.15625-0.47266-0.38281-0.57031-2.3086-1.0156-4.7031-2.5039-6.7461-4.1875-0.25-0.20703-0.44531-0.55078-0.65234-0.91406-0.22656-0.39844-0.46094-0.8125-0.81641-1.1523l-2.1719-2.0703c0.44531-1.3125 0.19531-2.8672-0.71875-4.4375-0.10156-0.17188-0.21094-0.34375-0.32812-0.51953-0.30859-0.47266-0.60156-0.92188-0.59375-1.3242 0.24219-0.27734 0.42969-0.51953 0.62109-0.76562 0.20312-0.26562 0.40625-0.52734 0.69141-0.83984 0.30469-0.33594 0.65234-0.71094 0.85547-1.2188 0.20703-0.51563 0.19531-1.0586-0.007812-1.4961 0.1875-0.54297 0.19922-0.97266 0.22266-1.6211 0.039062-1.0117-0.42969-1.9375-1.1875-2.3594-1.2383-0.6875-2.3945-0.76562-3.6367-0.24219-0.78906 0.33203-1.4805 0.8125-2.1484 1.2734-0.31641 0.21875-0.63672 0.44141-0.96094 0.64453-0.69922 0.43359-1.3477 0.69531-1.9297 0.78125 0-0.003906-0.003907-0.003906-0.007813-0.007812 2.25-3.2891 4.625-6.1875 8.0352-7 1.5352-0.36719 3.1836-0.25781 4.7773-0.14844l7.9883 0.53516c0.29687 0.007813 0.58594-0.17969 0.66406-0.48047 0.078125-0.29688-0.070312-0.60938-0.34766-0.73828-0.035156-0.015624-0.13281-0.058593-0.11719-0.29297 0.019532-0.32422 0.25391-0.67578 0.51172-0.76172 0.67969-0.22656 1.5078 0.14844 2.3008 0.55469 0.76562 0.39063 2.0469 1.043 3.2852 0.63281 0.98047-0.32422 1.6953-1.293 1.8438-2.3984 1.8906 0.027343 3.3477-0.25 5.1211-0.73828l0.89453-0.24609-2.8359 1.9023c-0.20312 0.13672-0.3125 0.37891-0.27734 0.625s0.20703 0.44531 0.44531 0.51953c0.57422 0.17578 1.2148 0.41797 1.6055 0.86719 0.28516 0.32812 0.43359 0.88672 0.18359 1.2188-0.32031 0.42188-1.1172 0.38672-2.3711-0.10547-1.1641-0.45312-2.4336-0.86328-3.7539-0.75391-1.5664 0.125-2.8867 1.0195-3.3672 2.2852-0.29297 0.76562-0.19922 1.7031 0.24219 2.4453 0.39062 0.65625 1.0078 1.0859 1.6992 1.1758 1.0508 0.14062 1.9062-0.4375 2.6523-0.94531 0.47266-0.32422 0.92188-0.62891 1.3828-0.74609 1.1562-0.29688 2.3594 0.57031 3.4844 1.5469 0.91406 0.79297 1.6953 1.5273 1.9492 2.4609 0.12891 0.47656 0.027344 1.0703-0.25781 1.4766-0.13281 0.1875-0.35938 0.41797-0.69922 0.44922-0.54297 0.058593-1.1094-0.41016-1.6992-0.89063-0.74219-0.60937-1.582-1.3047-2.6914-1.1562-0.32812 0.042969-0.57031 0.33203-0.55469 0.66406s0.28125 0.59766 0.61719 0.60938c0.046875 0 0.19531 0.007812 0.32031 0.25391 0.16016 0.32031 0.13672 0.78125-0.050781 1.0508-0.39062 0.5625-1.1211 0.85547-1.8984 1.1602l-0.32422 0.12891c-3.4648 1.4102-6.3281 4.0898-7.9727 7.4375-0.61328-0.50391-1.3906-0.83594-2.2422-0.94141-1.2344-0.15234-2.4336 0.19531-3.2852 0.95703-0.13672 0.12109-0.21484 0.29688-0.21484 0.48047l0.011719 3.9297c0 0.26562 0.16406 0.5 0.41016 0.59375 0.24219 0.09375 0.52344 0.03125 0.70312-0.16406 0.44531-0.48047 0.90234-0.98047 1.4492-1.25 0.41406-0.20703 1.0039-0.28906 1.3867-0.007813 0.14844 0.10938 0.25391 0.32031 0.25781 0.53125 0.003906 0.082032-0.007813 0.23047-0.10938 0.31641-0.003906 0.003907-0.007812 0.007813-0.011719 0.011719-0.26562 0.22656-0.30078 0.62891-0.074219 0.89844 0.22656 0.26953 0.625 0.30859 0.89844 0.082031 0.019531-0.015625 0.035156-0.027344 0.050781-0.042969l0.035157 0.035157c0.15234 0.027343 0.33203 0.16016 0.41797 0.3125 0.12891 0.22266 0.19922 0.50781 0.27344 0.80859 0.066406 0.26172 0.13281 0.52344 0.23047 0.77734 0.32422 0.81641 1.1641 1.543 2.0859 1.2891 0.12109-0.035157 0.23438-0.10547 0.31641-0.19922 0.17969-0.21094 0.50781-0.22656 1.0352-0.23828l0.34766-0.007813c0.61719-0.023437 1.2461 0.12109 1.8672 0.26562l2.8438 0.65625c0.33984 0.078125 0.63281 0.39062 0.96875 0.75 0.31641 0.33594 0.67188 0.71875 1.1445 0.96094 0.67578 0.34766 1.3008 0.70312 1.5312 1.2305 0.0625 0.14453 0.17969 0.26172 0.32422 0.32812 0.19922 0.089844 0.46094 0.41797 0.69141 0.70703 0.33594 0.41797 0.68359 0.85547 1.1641 1.0703 0.91406 0.41406 1.8633 0.84375 2.5234 1.5508 0.16406 0.17578 0.39063 0.25391 0.61719 0.18359 0.011719 0 0.26562 0.015625 0.94141 0.66797 0.19531 0.1875 0.28516 0.50781 0.21875 0.77344-0.089844 0.26562-0.33203 0.54688-0.58594 0.84375z"/>
  <path d="m33.582 55.691-0.33984-0.082031c-0.31641-0.074219-0.61328-0.14453-0.8125-0.28516-0.25-0.17578-0.42969-0.50781-0.62109-0.85938-0.26562-0.48438-0.5625-1.0312-1.1328-1.3672-0.74219-0.4375-1.7617-0.35938-2.5898 0.20703-0.66797 0.45312-1.1094 1.1016-1.5 1.6758-0.19922 0.29297-0.125 0.69141 0.16797 0.89062 0.10938 0.074218 0.23828 0.11328 0.35938 0.11328l1.8789 0.76562c0.76562 0.3125 1.5586 0.63281 2.3984 0.84375 0.75391 0.1875 1.5195 0.28516 2.293 0.28516 0.32031 0 0.64062-0.015625 0.96094-0.050781 0.19922-0.019531 0.375-0.13281 0.48047-0.30078 0.10547-0.17188 0.12109-0.37891 0.050781-0.56641-0.22656-0.58984-0.82031-1.0586-1.5938-1.2695zm-4.125-0.14453-1.3242-0.53906c0.19922-0.25391 0.41797-0.48047 0.66797-0.64844 0.33594-0.22656 0.85938-0.375 1.2227-0.16016 0.26562 0.15625 0.44922 0.49219 0.66016 0.87891 0.23047 0.42578 0.49219 0.90625 0.94531 1.25-0.72266-0.19141-1.4219-0.47656-2.1719-0.78125z"/>
  <path d="m52.559 33.035c0.92188-0.81641 1.8164-1.6641 2.7656-2.5586 0.35156-0.33594 0.66406-0.76953 0.96094-1.1875 0.26562-0.37109 0.53516-0.75391 0.80078-1 0.19141-0.18359 0.25391-0.46484 0.15234-0.71094-0.10156-0.24609-0.34375-0.40625-0.60938-0.39453-0.46484 0.011718-0.95312-0.003906-1.4453-0.019532-0.39844-0.015624-0.80078-0.027343-1.1836-0.023437-0.44531-0.51953-1.1406-0.86719-1.9297-0.94531-0.76953-0.078124-1.5195 0.085938-2.1758 0.22656l-3.9453 0.85547c-0.011719-0.023438-0.027344-0.042969-0.039063-0.0625-0.20312-0.28516-0.60156-0.35547-0.89062-0.14844l-2.4102 1.7148c-0.97656 0.69531-1.0234 1.3594-0.88672 1.7891 0.17578 0.57031 0.66797 0.79688 1.0273 0.96094 0.09375 0.042969 0.1875 0.085938 0.26953 0.13281 0.1875 0.11328 0.33594 0.44531 0.35156 0.79297 0.011718 0.29297-0.070313 0.55469-0.20703 0.65625-1 0.73047-1.332 2.2148-0.73437 3.3047 0.44922 0.82422 1.3789 1.3203 2.3008 1.3203 0.29688 0 0.59375-0.050781 0.875-0.16016 0.72266-0.27734 1.2188-0.83984 1.6562-1.3359 0.32031-0.36328 0.62109-0.70313 0.97266-0.91016 0.33984-0.19922 0.76953-0.29297 1.2188-0.39062 0.20703-0.046875 0.41797-0.089844 0.62109-0.14844 0.61719-0.16797 2.0352-0.82812 2.4844-1.7578zm-3.3828 0.65234c-0.53125 0.11328-1.0781 0.23438-1.5938 0.53516-0.53125 0.30859-0.91406 0.74609-1.2852 1.168s-0.72266 0.82422-1.1562 0.98828c-0.55859 0.21875-1.3047-0.054687-1.5938-0.58203s-0.11719-1.3008 0.37109-1.6562c0.48828-0.35938 0.76172-1.0117 0.72656-1.7461-0.035156-0.78906-0.40625-1.4922-0.96484-1.832-0.125-0.074219-0.26172-0.14062-0.40234-0.20312-0.11328-0.050781-0.30859-0.14062-0.33594-0.14062 0 0 0.039063-0.14062 0.40625-0.40625l1.7031-1.2109c0.13281 0.078126 0.29688 0.10938 0.45703 0.074219l4.6562-1.0078c0.59375-0.12891 1.2109-0.26172 1.7773-0.20312 0.53125 0.054687 0.98438 0.29688 1.1836 0.64062 0.11719 0.20312 0.37109 0.35547 0.57031 0.31641 0.46094-0.011719 0.95313 0 1.4453 0.019531 0.058594 0 0.11328 0.003906 0.17188 0.003906-0.023438 0.03125-0.046875 0.0625-0.070312 0.097657-0.26563 0.37109-0.53516 0.75391-0.85547 1.0547-0.92188 0.86719-1.8398 1.7383-2.7891 2.5742-0.085937 0.074219-0.14844 0.17188-0.18359 0.27734-0.10937 0.32812-1.0195 0.92969-1.6797 1.1094-0.18359 0.050781-0.36719 0.089844-0.55859 0.12891z"/>
  <path d="m51.762 37.039c0.011719 0.17188 0.089843 0.33203 0.21875 0.44531 0.11719 0.10156 0.26562 0.15625 0.41797 0.15625h0.050781l1.25-0.10156c0.3125-0.027343 0.55859-0.26953 0.58594-0.58203l0.027344-0.27734c0.28906-0.097657 0.55469-0.28125 0.76562-0.53125 0.36719-0.43359 0.50391-1 0.36328-1.5078-0.019531-0.0625-0.007812-0.19141 0.003906-0.31641 0.011719-0.125 0.023438-0.25391 0.019532-0.375-0.003906-0.28516-0.19922-0.53516-0.47656-0.60547-1.1953-0.32031-2.5078 0.17969-3.2031 1.1953-0.13281 0.19141-0.14453 0.42969-0.050781 0.62891-0.046875 0.097656-0.070313 0.20312-0.0625 0.32031zm2.3867-2.5039c0 0.14062 0.011718 0.29297 0.054687 0.45312 0.027344 0.097657-0.015625 0.22656-0.10547 0.33594-0.089844 0.10547-0.22266 0.16406-0.3125 0.16016-0.16797-0.015625-0.33984 0.035156-0.47266 0.14062-0.13281 0.10938-0.21484 0.26562-0.23047 0.4375l-0.023437 0.24219-0.058594 0.003906-0.054688-0.90234c-0.003906-0.078125-0.023437-0.15234-0.050781-0.21875 0.28906-0.37891 0.76953-0.61719 1.2539-0.65234z"/>
  <path d="m99.059 63.816c0.76172 0.69922 1.5938 0.83203 2.168 0.33203 0.60547-0.53516 0.54297-1.4414-0.16406-2.3633-0.15234-0.19922-0.28906-0.41406-0.42188-0.625 0.066406 0.039063 0.13672 0.078125 0.21484 0.11328 0.71484 0.30469 1.6094 0.003906 1.9961-0.66797 0.41406-0.72266-0.066406-1.3477-0.35547-1.7188l-0.085938-0.11328c-0.3125-0.41406-0.63672-0.84375-0.79297-1.2969-0.14063-0.41016-0.12109-0.82422 0.058593-1.082 0.26172-0.375 0.84375-0.5 1.4648-0.63281 0.24219-0.050781 0.47656-0.10156 0.70703-0.16797 1.2188-0.34766 2.2422-1.1836 2.7383-2.2422 0.46875-1 0.47266-2.1953 0.011718-3.1992-0.35156-0.76953-0.94531-2.0508-2.2578-2.2305 0.0625-0.11328 0.29297-0.16797 0.47266-0.11719 0.24219 0.066406 0.48828 0.26562 0.73438 0.58984l0.13672 0.1875c0.17188 0.23438 0.35938 0.5 0.63672 0.71875 0.51953 0.41406 1.1797 0.49609 1.6797 0.21094 0.82422-0.46875 0.80859-1.5469 0.36719-2.3672-0.60938-1.1328-0.71484-3.1758 0.57422-4.1016-0.078125 0.375-0.070312 0.77734 0.097656 1.1445 0.32031 0.69531 1.0625 1.1875 1.8984 1.2578 0.125 0.011719 0.24219 0.015626 0.35938 0.015626 0.49219 0 0.91016-0.10156 1.3438-0.32031 0.32812-0.039063 0.62109-0.24219 0.78516-0.56641 0.24609-0.49219 0.15234-1.1133-0.22266-1.4766-0.41797-0.40625-0.95703-0.47266-1.3906-0.52734l-0.19531-0.027343c-0.28125-0.039063-0.42578-0.14062-0.45703-0.17969-0.054687-0.34375-0.38672-0.57812-0.72656-0.53125-0.03125 0.003907-0.0625 0.011719-0.09375 0.023438-0.17578-0.082031-0.39062-0.085938-0.57422 0.011719-0.12891 0.066406-0.22266 0.17578-0.32422 0.27344 0.070313-0.89062-0.19922-1.793-0.78906-2.4727-0.085938-0.097657-0.17188-0.20703-0.26172-0.32031-0.5-0.62891-1.3359-1.6797-2.3945-1.0312-0.035156 0.023438-0.13672 0.007813-0.23047-0.058594-0.09375-0.0625-0.14062-0.15234-0.13281-0.19531 0.054688-0.27344 0.60938-0.41406 1.0781-0.35938 0.76562 0.097656 1.7227-0.042969 2.5742-0.36719 0.12891-0.050782 0.36328 0.039062 0.51953 0.19922 0.22656 0.23438 0.37109 0.59375 0.51172 0.94531 0.21094 0.51953 0.58203 0.89453 0.90625 1.2266 0.31641 0.32031 0.58984 0.59375 0.64062 0.91797 0.070313 0.40234 0.34766 0.73828 0.75391 0.90234 0.44531 0.17969 0.95312 0.125 1.3242-0.14453 0.55078-0.40234 0.77344-1.1719 0.5625-1.918-0.16406-0.5625-0.51562-0.98828-0.82422-1.3633-0.11719-0.14062-0.17188-0.25391-0.24609-0.41016-0.050782-0.10547-0.10938-0.22656-0.1875-0.35938 0.125-0.14844 0.38672-0.27734 0.66797-0.3125 0.24609-0.03125 0.5-0.023437 0.75-0.015625 0.33984 0.007813 0.70313 0.019532 1.082-0.042968 0.88672-0.14844 1.9023-1.0547 1.8789-1.9961-0.003906-0.20312-0.10547-0.39062-0.26953-0.50781-1.0703-0.76172-2.7031-1.7109-4.6953-1.2969-0.40234-0.17188-0.80469-0.37109-1.2109-0.57422-1.0898-0.54297-2.2109-1.1055-3.4648-1.1641-1.0117-0.046875-2.0664-0.19922-3.0859-0.34766-0.97656-0.14844-1.9883-0.29297-2.9844-0.35547-0.48437-0.36719-1.1445-0.52734-1.8398-0.44531-0.64062 0.074218-1.2188 0.32812-1.7305 0.55469-0.33594 0.14844-0.58984 0.20703-0.83984 0.26953-0.1875 0.046875-0.39062 0.097656-0.62891 0.17969-0.50391-0.49609-1.1133-1.0156-1.9141-1.207-1.1133-0.26953-2.3359-0.13281-3.3516 0.34766-0.46094-0.71094-1.3086-1.2227-2.2812-1.332-1.0742-0.11328-2.0938 0.20703-2.9883 0.49219-0.80859 0.25781-1.6562 0.39844-2.5547 0.54688-0.84375 0.13672-1.7109 0.28125-2.5508 0.53125-0.82812-0.21484-1.7227-0.19531-2.5352 0.058594-0.25 0.078125-0.42969 0.30078-0.44922 0.5625-0.03125 0.44531-0.26172 0.83594-0.64453 1.0977-0.44531 0.30469-1.0195 0.39062-1.5508 0.23828-0.16016-0.046875-0.32813-0.03125-0.47266 0.042969-1.9648 1.0078-4.668 0.71875-6.1523-0.64844-0.12891-0.12109-0.30078-0.18359-0.48047-0.16797-0.62109 0.042968-1.1797 0.070312-1.7383 0.097656-0.56641 0.027344-1.1367 0.054688-1.7734 0.10156-0.125 0.007813-0.24609 0.054688-0.34766 0.13281-0.57031 0.44141-1.0664 0.83594-1.5664 1.2305-0.44922 0.35547-0.89844 0.71094-1.4023 1.1016-0.49609 0.10156-0.92188 0.39062-1.207 0.82812-0.38672 0.59375-0.47656 1.3828-0.23437 2.1055 0.046874 0.14453 0.14453 0.26562 0.27344 0.34766 0.95312 0.57812 2.25 0.52344 3.1484-0.13672 0.6875-0.50391 1.1016-1.332 1.1445-2.1758 0.16406 0.0625 0.30859 0.17969 0.39062 0.32812 0.27344 0.50391 0.066406 0.66797-0.019531 0.73828-0.13281 0.10547-0.21875 0.26172-0.23828 0.42969-0.082031 0.76562-0.50391 1.4844-1.1328 1.9297-0.37109 0.26172-0.81641 0.27734-1.3828 0.30078-0.32031 0.011719-0.64062 0.027343-0.97266 0.078125-0.74609 0.12109-1.2852 0.33203-1.6758 0.58594 0.007812-0.17188 0.019531-0.32812 0.03125-0.44141l0.023437-0.33203c0.011719-0.19922-0.070312-0.39453-0.22266-0.52344-0.14844-0.12891-0.35156-0.18359-0.55078-0.14062-0.042969 0-0.19922-0.10547-0.30469-0.30859-0.070312-0.13672-0.11719-0.28125-0.17188-0.42578-0.09375-0.25781-0.19922-0.54688-0.38281-0.82031-0.27344-0.41016-0.61328-0.79688-1.418-0.67188-1.1719 0.17969-1.7891 1.3203-2.125 1.9297l-1.0977 2.0273c-0.26953 0.050781-0.48828 0.27344-0.51953 0.56641l-0.10156 0.96484c-0.027344 0.26562 0.11328 0.51953 0.35156 0.63672 0.23828 0.11719 0.52734 0.078125 0.71875-0.10547 0.34375-0.32422 0.92578-0.46094 1.5547-0.37109 0.48438 0.070313 0.95312 0.25781 1.3555 0.53516 0.10547 0.074219 0.14453 0.11719 0.15625 0.11719-0.003907 0.027344-0.027344 0.085938-0.10156 0.21484-0.53516 0.91016-1.1836 1.5195-2.0234 1.9102-0.27344-0.039062-0.55859 0.027344-0.80469 0.19922-0.44141 0.30859-0.70312 0.89844-0.63672 1.4336 0.046876 0.36328 0.1875 0.67578 0.31641 0.94531 0.085937 0.18359 0.16406 0.35547 0.19922 0.51172 0.085937 0.39844-0.074219 0.85156-0.29297 1.4062l-0.72656 1.8359c-0.30078 0.75781-0.51562 0.88281-0.50391 0.88672h-0.007812c-0.96875 0-1.625 0.82031-1.8281 1.5859-0.15234 0.57422-0.10547 1.1484-0.066406 1.6562l0.023438 0.30859c0.039062 0.62891-0.13672 1.3281-0.30469 1.4648-0.71094 0.5625-0.9375 1.6328-0.55078 2.6055 0.30859 0.76953 0.91016 1.3477 1.3945 1.8125 0.98828 0.94531 1.9883 2.2188 2.6523 3.1172 0.49219 0.66797 1.3672 0.76172 2.0195 0.63281 0.28516-0.058594 0.5625-0.15625 0.83594-0.25391 0.20312-0.074219 0.40625-0.14844 0.61719-0.19531 0.85156-0.1875 1.8125 0.21094 2.2812 0.94531 0.12109 0.19141 0.32812 0.28906 0.5625 0.29687 0.36328 0.015626 0.74609 0.22656 1.0117 0.60938 0.29297 0.42187 0.4375 0.97266 0.55469 1.5078 0.27734 1.3008 0.21094 2.4609 0.13672 3.6914-0.046875 0.78516-0.097656 1.5977-0.050781 2.4648 0.058594 1.2227 0.23438 2.7188 1.0195 3.6953 0.039063 1.2031 0.22266 2.832 1.0703 4.2578-0.066406 0.20312-0.082032 0.42969-0.035156 0.65625 0.10547 0.51953 0.48437 0.96094 0.96875 1.125 0.19141 0.066406 0.38672 0.09375 0.57031 0.09375 0.53516 0 1.0234-0.22266 1.3789-0.41406l0.17969-0.097656c1.0469-0.5625 2.2305-1.1953 2.9062-2.3164 0.11719-0.19141 0.29688-0.40234 0.48047-0.61328 0.14844-0.17578 0.29297-0.34766 0.41797-0.51953 0.96875-0.22656 1.5938-1.1992 1.793-2.1445 0.070312-0.33203 0.10547-0.67188 0.14062-1.0117 0.046875-0.47266 0.089844-0.91797 0.24219-1.3008 0.16406-0.40234 0.625-0.84766 1.0781-1.2734 0.65625-0.625 1.3359-1.2695 1.5117-2.125 0.17578-0.83984-0.1875-1.5625-0.50781-2.2031-0.17969-0.35547-0.34766-0.69531-0.41016-1.0195-0.11328-0.57422 0.10937-1.2773 0.59766-1.8711 0.64062-0.78516 1.2266-1.2969 1.7891-1.5586 1.6914-0.78906 2.6836-3.0312 2.2461-4.9805 0.046875-0.20312 0.027344-0.42578-0.058594-0.63281-0.16016-0.37891-0.52734-0.67578-0.9375-0.76172-0.29688-0.058594-0.55859-0.03125-0.79297-0.007813h-0.007813c0.35938-0.18359 0.74219-0.42578 1.1406-0.67578 0.64453-0.41016 1.3164-0.82812 1.8359-0.96484 1.8711-0.48828 2.2891-1.3984 2.3047-2.0742 0.03125-1.1836-1.1445-1.9062-2.25-2.0742-0.79297-0.12109-1.8086-0.46484-2.2188-0.87891-0.11719-0.11719-0.27344-0.1875-0.4375-0.1875-0.12109-0.003906-0.25781-0.070313-0.35938-0.17969s-0.16016-0.25-0.15625-0.37109c0.003906-0.12109 0.074219-0.25391 0.18359-0.35547 0.10938-0.10156 0.23828-0.17969 0.37109-0.15234 0.23828 0.011719 0.38672 0.14453 0.68359 0.47266 0.30469 0.33594 0.75391 0.82422 1.4961 0.82422h0.035156c0.625 0.32031 1.2383 0.55078 1.832 0.77734 0.70313 0.26562 1.3633 0.51953 2.0312 0.89844 0.20703 0.11719 0.42578 0.23047 0.64844 0.34766 0.99219 0.51172 1.6484 0.89453 1.7344 1.5273l0.52344 3.8281c0.058594 0.44531 0.22266 1.6289 1.2227 1.9688 0.5625 0.19141 1.2227 0.019531 1.707-0.45312 0.36719-0.35547 0.57422-0.80469 0.74219-1.168 0.23437-0.50781 0.67578-0.99609 1.1406-1.5156 0.67969-0.75781 1.3828-1.5391 1.5977-2.543 0.023437-0.11328 0.11719-0.22656 0.24609-0.30078 0.12891-0.074218 0.27344-0.097656 0.38672-0.054687 0.20703 0.070313 0.43359 0.29297 0.51953 0.50391 0.03125 0.078125 0.035157 0.13672 0.023438 0.16016-0.082031 0.16797-0.089844 0.36328-0.015625 0.53516l2.1133 4.957c0.375 0.86719 1.1562 1.75 2.1172 1.8945zm11.141-20.617c0.26953 0.3125 0.70312 0.52734 1.2344 0.60547l0.22266 0.03125c0.19531 0.027343 0.39844 0.050781 0.51953 0.10156-0.003906 0.003906-0.007812 0.003906-0.011719 0.007812-0.36719 0.20703-0.64844 0.26172-1.1133 0.22266-0.37891-0.03125-0.71875-0.24219-0.84375-0.51562-0.066406-0.14062-0.0625-0.31641-0.007812-0.45312zm-46.863-6.5859c-0.41797 0.30859-1.0156 0.375-1.5039 0.1875-0.039062-0.28125 0.015625-0.56641 0.14844-0.76953 0.11328-0.17188 0.26172-0.26562 0.46094-0.28125 0.12109-0.011719 0.23438-0.058594 0.33203-0.13281 0.41016-0.32031 0.78125-0.60938 1.1445-0.89453-0.015625 0.085938-0.015625 0.17969 0.007812 0.26953 0.14062 0.58203-0.10547 1.2656-0.58984 1.6211zm32.676 19.168c-0.22656-0.55469-0.72656-1.0352-1.2852-1.2305-0.45703-0.16016-0.98437-0.10547-1.4336 0.14844-0.45312 0.25391-0.76953 0.67188-0.87109 1.1484-0.14062 0.66797-0.70312 1.293-1.2969 1.9531-0.50781 0.56641-1.0312 1.1484-1.3477 1.832-0.13281 0.29297-0.27734 0.59766-0.47266 0.78906-0.12891 0.125-0.3125 0.19141-0.40234 0.16016-0.09375-0.03125-0.26562-0.19531-0.36719-0.93359l-0.52344-3.8281c-0.18359-1.3359-1.418-1.9766-2.4141-2.4883-0.20312-0.10547-0.41016-0.21094-0.60156-0.32031-0.75391-0.42969-1.4922-0.71094-2.2109-0.98438-0.64062-0.24219-1.2422-0.47266-1.8516-0.79688-0.12109-0.0625-0.25781-0.085938-0.39453-0.066407-0.1875 0.027344-0.28906-0.03125-0.625-0.40234-0.32812-0.35938-0.77734-0.85156-1.5703-0.89062-0.43359-0.019532-0.9375 0.15625-1.3008 0.49219-0.35938 0.33203-0.57812 0.78906-0.59766 1.2539-0.015624 0.46484 0.16797 0.93359 0.50391 1.293 0.27344 0.28906 0.625 0.48438 0.99609 0.55469 0.91406 0.76172 2.4453 1.0312 2.7578 1.082 0.56641 0.089844 1.1758 0.41016 1.168 0.77734-0.011719 0.47266-0.94531 0.76953-1.3477 0.87109-0.71484 0.1875-1.4688 0.66016-2.1953 1.1211-0.43359 0.27344-0.84375 0.53125-1.1836 0.69141-0.24219 0.11328-0.88672 0.41406-0.94531 1.1016-0.023438 0.28906 0.074219 0.57031 0.27344 0.79688 0.24609 0.27734 0.63672 0.45312 1.0391 0.46875 0.17188 0.011719 0.33984-0.007812 0.50781-0.027344 0.12109-0.011718 0.24219-0.027344 0.34766-0.011718-0.015626 0.089843-0.007813 0.18359 0.015624 0.27344 0.39453 1.4023-0.30859 3.125-1.5039 3.6836-0.74219 0.34766-1.4727 0.97266-2.2422 1.9102-0.73438 0.90234-1.0469 1.9688-0.85938 2.9297 0.097656 0.49219 0.3125 0.92578 0.51953 1.3438 0.25781 0.51563 0.48438 0.96484 0.39844 1.3711-0.097656 0.46094-0.62891 0.96875-1.1445 1.457-0.55078 0.51953-1.1172 1.0586-1.3828 1.7266-0.22266 0.55078-0.27734 1.1055-0.33203 1.6445-0.03125 0.29297-0.058594 0.58594-0.11719 0.875-0.11719 0.55469-0.48828 1.1562-0.94141 1.1758-0.21484 0.007813-0.41016 0.125-0.51953 0.30859-0.11719 0.19141-0.29687 0.40234-0.48047 0.61328-0.22656 0.26953-0.45312 0.53906-0.59766 0.78125-0.49609 0.82031-1.4727 1.3438-2.418 1.8477l-0.18359 0.097656c-0.41797 0.22656-0.72266 0.30469-0.93359 0.23828-0.050781-0.019531-0.11328-0.10938-0.15234-0.10938-0.003907 0-0.007813 0-0.015626 0.003906 0.24609-0.21484 0.28906-0.57812 0.10547-0.84375-0.70312-1.0117-1.0352-2.2891-1.0742-4.1367-0.003906-0.16406-0.066406-0.31641-0.18359-0.43359-0.64453-0.66406-0.78516-2.0664-0.83203-3.0625-0.039063-0.80078 0.007812-1.5742 0.050781-2.3281 0.074219-1.2617 0.15234-2.5664-0.16406-4.0352-0.14062-0.66406-0.33203-1.3594-0.75391-1.9688-0.43359-0.625-1.0781-1.0352-1.7383-1.1367-0.80078-1.0156-2.168-1.5195-3.4414-1.2383-0.26562 0.058593-0.52344 0.14844-0.77734 0.24219-0.21484 0.078125-0.42969 0.16016-0.65234 0.20312-0.32031 0.066407-0.62891 0.007813-0.73438-0.13672-0.69531-0.9375-1.7422-2.2695-2.7969-3.2812-0.4375-0.41797-0.88672-0.85156-1.0938-1.3633-0.14844-0.375-0.13281-0.89844 0.15625-1.125 0.89453-0.70703 0.79297-2.4727 0.78906-2.5469l-0.023438-0.32812c-0.035156-0.44531-0.066406-0.86719 0.027344-1.2344 0.09375-0.34766 0.35547-0.63281 0.58984-0.63281h0.007812c1.0195 0 1.5273-1.2773 1.6914-1.6953l0.72656-1.8398c0.22266-0.56641 0.52734-1.3359 0.35547-2.1445-0.0625-0.29297-0.18359-0.55469-0.28906-0.78125-0.097656-0.20703-0.1875-0.40234-0.20703-0.57422-0.007813-0.046876 0.019531-0.12109 0.054687-0.17188 0.13281 0.035157 0.27344 0.027344 0.40234-0.027343 1.1914-0.48828 2.1211-1.3164 2.8398-2.5312 0.17188-0.28906 0.35547-0.68359 0.25391-1.1367s-0.43359-0.73047-0.67969-0.89844c-0.56641-0.39453-1.2227-0.65234-1.9023-0.75-0.33203-0.046874-0.65625-0.054687-0.96484-0.019531l0.99219-1.832c0.33594-0.62109 0.71484-1.2031 1.2305-1.3242 0.011719 0.007813 0.039063 0.042969 0.125 0.16797 0.097656 0.14453 0.16797 0.33984 0.24219 0.54297 0.070312 0.19141 0.14062 0.38672 0.23438 0.57031 0.1875 0.37109 0.50391 0.71875 0.89453 0.89062-0.054688 0.75-0.054688 1.6641 0.54297 2.1953 0.17188 0.15234 0.41406 0.19922 0.62891 0.12891 0.21875-0.074219 0.37891-0.25781 0.42188-0.48438 0.10547-0.53906 0.90234-0.77734 1.5508-0.88281 0.27344-0.042969 0.54688-0.054688 0.8125-0.0625 0.65234-0.023438 1.3945-0.050782 2.0742-0.53516 0.85547-0.60547 1.4531-1.5625 1.6289-2.5938 0.52344-0.5625 0.58203-1.3516 0.14062-2.1602-0.40234-0.74609-1.2969-1.1641-2.1289-1.0273 0.34766-0.27344 0.70312-0.55469 1.0898-0.85547 0.54688-0.039062 1.0469-0.0625 1.5469-0.085937 0.48828-0.023437 0.97656-0.046875 1.5039-0.082031 1.8477 1.5273 4.8359 1.8477 7.1719 0.76953 0.82422 0.17188 1.6992 0 2.3867-0.47266 0.5625-0.38672 0.95312-0.94922 1.1172-1.5859 0.53516-0.10156 1.0938-0.066406 1.6094 0.089844 0.125 0.039063 0.25781 0.039063 0.38281 0 0.80859-0.25781 1.6602-0.39844 2.5586-0.54688 0.90625-0.14844 1.8398-0.30469 2.7383-0.58594 0.81641-0.26172 1.6523-0.53125 2.4609-0.4375 0.64062 0.070313 1.3633 0.47266 1.4961 1.1016 0.042969 0.21094 0.19141 0.38672 0.39453 0.46484 0.19531 0.078125 0.42578 0.050781 0.60156-0.074219 0.80859-0.57031 1.9844-0.78125 2.9805-0.53906 0.5625 0.13672 1.0391 0.58594 1.5977 1.1602 0.1875 0.19141 0.47266 0.24609 0.71484 0.13672 0.33594-0.14844 0.58984-0.20703 0.83984-0.26953 0.28906-0.074219 0.61719-0.15234 1.043-0.33984 0.44922-0.19531 0.91406-0.40234 1.3633-0.45313 0.41016-0.050781 0.78125 0.046876 0.99609 0.25781 0.11328 0.10938 0.26172 0.17578 0.41797 0.18359 1.0117 0.046875 2.0664 0.19922 3.0859 0.34766 1.0508 0.15234 2.1367 0.30859 3.207 0.35938 0.98438 0.046875 1.9414 0.52734 2.957 1.0312 0.49609 0.25 0.99219 0.49609 1.4922 0.69531 0.125 0.050782 0.26562 0.058594 0.39453 0.027344 1.0977-0.28516 2.1836-0.039062 3.4609 0.78906-0.15625 0.19531-0.4375 0.41406-0.69531 0.45703-0.25391 0.042969-0.53516 0.035156-0.83203 0.027344-0.3125-0.007813-0.62891-0.015625-0.94141 0.023437-0.82422 0.10156-1.7578 0.64844-1.8633 1.6094-0.019531 0.17188 0.03125 0.34375 0.14062 0.47656 0.11719 0.14062 0.17188 0.25391 0.24609 0.41016 0.085937 0.18359 0.19531 0.41016 0.41406 0.66797 0.24219 0.29297 0.49219 0.59766 0.58203 0.90625 0.0625 0.21094 0.023438 0.44531-0.14453 0.58984-0.12109-0.72266-0.58594-1.1914-0.99609-1.6055-0.26562-0.26562-0.51562-0.52344-0.62891-0.80469-0.17188-0.42188-0.38281-0.94531-0.78516-1.3594-0.52734-0.54297-1.2695-0.74219-1.8906-0.50391-0.65625 0.25-1.4102 0.36328-1.9648 0.29297-1.0742-0.12109-2.2695 0.30078-2.4844 1.3789-0.11328 0.55469 0.14453 1.1406 0.65234 1.4961 0.50781 0.35547 1.1484 0.39844 1.6211 0.097656 0.16797 0.03125 0.55469 0.51172 0.73828 0.74609 0.10156 0.125 0.19922 0.25 0.29297 0.35938 0.34766 0.40234 0.53125 0.94922 0.50391 1.4805-1.7617 1.2617-1.9375 3.9336-0.94922 5.7695 0.16406 0.30859 0.16406 0.59766 0.12891 0.64844-0.027343 0.011719-0.14062-0.011719-0.25-0.097656-0.13672-0.10938-0.26172-0.28516-0.39844-0.46875l-0.15234-0.21094c-0.42188-0.55078-0.89453-0.90234-1.4102-1.0469-0.76562-0.21094-1.5781 0.09375-1.9297 0.72656-0.22266 0.39844-0.21875 0.91016 0.015625 1.332 0.21094 0.38672 0.58203 0.63281 0.99219 0.66016 0.48828 0.03125 0.80078 0.51563 1.207 1.3945 0.30469 0.66406 0.30078 1.457-0.007812 2.1211-0.34375 0.72656-1.0625 1.3086-1.9297 1.5547-0.19922 0.054687-0.41016 0.10156-0.62109 0.14453-0.79688 0.17188-1.6992 0.36328-2.25 1.1562-0.41406 0.59766-0.49609 1.4297-0.21875 2.2305 0.22266 0.64453 0.625 1.1758 0.98047 1.6484l0.097656 0.12891c0.085938 0.10938 0.23047 0.29688 0.25781 0.29688-0.066406 0.11328-0.26172 0.17969-0.38281 0.12891-0.14844-0.0625-0.30078-0.26172-0.46094-0.46875l-0.11328-0.14844c-0.46094-0.58594-0.97266-0.85547-1.5156-0.81641-0.48047 0.039063-0.91016 0.40625-1.043 0.89844-0.11719 0.42969 0.027343 0.85156 0.375 1.0898 0.375 0.26172 0.64062 0.6875 0.92578 1.1406 0.16406 0.26563 0.33594 0.53125 0.52344 0.78125 0.24609 0.32031 0.32422 0.58594 0.37109 0.60547h-0.003906c-0.078125 0-0.33203-0.11719-0.61328-0.41406-0.12109-0.125-0.28906-0.19922-0.46484-0.19922-0.45703 0-0.97656-0.58203-1.2188-1.1484l-2.0195-4.7344c0.058593-0.28516 0.027343-0.59375-0.09375-0.89844z"/>
  <path d="m73.547 49.594c0.38672-0.69922-0.015625-1.543-0.63672-1.8945-0.30078-0.17188-0.67969-0.22656-1.0469-0.28125-0.19141-0.027344-0.40625-0.058594-0.50781-0.10156l-3.1602-1.2344c-0.44531-0.17578-0.88672-0.25781-1.3203-0.33594-0.66016-0.12109-1.2266-0.22656-1.5703-0.63281-1.1875-1.4062-3.3008-1.4102-4.7734-0.69531-1.457 0.71094-2.4766 1.9844-3.3789 3.1133-0.027344 0.035156-0.054688 0.074219-0.074219 0.11328-0.027344 0.019531-0.054687 0.042969-0.082031 0.066407-0.25391 0.24609-0.26172 0.65234-0.015625 0.90625l0.39453 0.40625c0.19141 0.19531 0.48828 0.25 0.73438 0.13281 1.1562-0.55078 2.6211-0.40234 3.6445 0.375 0.19141 0.14453 0.37109 0.30859 0.54688 0.47266 0.29688 0.26953 0.60156 0.55078 0.97656 0.78125 0.35547 0.21484 0.80469 0.32422 1.2539 0.32422 0.46094 0 0.92188-0.11328 1.2773-0.32812l6.1875-0.42578c0.35547-0.027344 1.1719-0.082031 1.5508-0.76172zm-7.9883-0.082031c-0.12891 0.007812-0.25391 0.058593-0.35547 0.14062-0.26953 0.21484-0.92578 0.23828-1.25 0.039062-0.26562-0.16406-0.51172-0.39062-0.77734-0.62891-0.20703-0.1875-0.41406-0.37891-0.64062-0.55078-0.83203-0.63281-1.8828-0.96094-2.9297-0.96094-0.29297 0-0.58984 0.027344-0.87891 0.078125 0.67578-0.8125 1.4414-1.6094 2.3711-2.0625 1.0039-0.48828 2.4766-0.52734 3.2305 0.36719 0.64062 0.75781 1.5312 0.92188 2.3164 1.0664 0.38672 0.070312 0.75391 0.14062 1.0859 0.26953l3.1602 1.2344c0.23438 0.09375 0.51562 0.13281 0.78906 0.17578 0.1875 0.027343 0.50781 0.074218 0.60156 0.12891 0.085938 0.046875 0.14062 0.15234 0.15234 0.15625-0.019532 0.019531-0.10938 0.082031-0.51562 0.10938z"/>
  <path d="m74.145 52.766c-0.97266-1.0977-2.4805-1.6875-3.9414-1.5312-0.35156 0.039063-0.60547 0.35156-0.56641 0.70312 0.035156 0.35156 0.33984 0.60156 0.70312 0.57031h0.007812c0.015625 0.027344 0.035156 0.046876 0.054688 0.070313 0.76953 0.84375 1.2891 1.9258 1.7852 2.9727l1.7227 3.6016c0.085938 0.17969 0.25 0.30859 0.44141 0.34766 0.042969 0.007812 0.089844 0.015625 0.13281 0.015625 0.14844 0 0.29688-0.050781 0.41406-0.15234 1.0117-0.85156 1.2773-2.0391 0.70703-2.9844 0.15625-1.1445-0.32422-2.3281-1.4609-3.6133zm0.45703 4.8633-1.2578-2.6328c-0.32812-0.68359-0.68359-1.4297-1.1289-2.1328 0.36719 0.1875 0.69922 0.44141 0.97656 0.75 0.9375 1.0586 1.3047 1.9648 1.1172 2.7656-0.042969 0.19141 0.003906 0.39453 0.12891 0.54688 0.19141 0.24609 0.21484 0.48438 0.16406 0.70312z"/>
  <path d="m76.074 41.895c-0.78516 0.046875-1.5039 0.39453-1.9727 0.95312-0.22656 0.26953-0.19141 0.67578 0.078126 0.90234 0.26953 0.22656 0.67187 0.19141 0.90234-0.078125 0.027344-0.03125 0.050781-0.058594 0.078125-0.085937 0.39062 0.14453 0.69531 0.68359 0.95703 1.6797 0.42578 1.6016 1.168 2.4688 2.1953 2.5742 0.023438 0.003906 0.042969 0.003906 0.066406 0.003906 0.14453 0 0.28906-0.050781 0.40234-0.14453 0.13281-0.10547 0.21484-0.26172 0.23438-0.42969 0.13672-1.3164 0.36328-3.5234-0.86719-4.668-0.53516-0.49609-1.3125-0.75391-2.0742-0.70703zm1.7578 4.2148c-0.21484-0.32422-0.37109-0.77344-0.47656-1.1719-0.10156-0.37891-0.29688-1.1211-0.73047-1.7266 0.25 0.054687 0.47656 0.16797 0.65234 0.33203 0.55469 0.51172 0.60938 1.5938 0.55469 2.5664z"/>
  <path d="m68.5 45.551c0.20312 0.16406 0.48047 0.17969 0.69922 0.066407 0.73047 0.027343 1.4609 0.21094 2.1094 0.53125l0.16016 0.082031c0.28516 0.14453 0.60938 0.3125 0.99219 0.37109 0.085937 0.011719 0.17187 0.019532 0.25781 0.019532 0.57422 0 1.0938-0.29297 1.3164-0.76562 0.14844-0.3125 0.15625-0.67188 0.027344-1.0078-0.16797-0.42969-0.5625-0.81641-1.0273-1.0078-0.22656-0.089844-0.46484-0.14844-0.70312-0.20703-0.24219-0.054687-0.46875-0.10937-0.63672-0.20703-0.10937-0.0625-0.17969-0.21875-0.21875-0.19531 0.12891-0.11328 0.20703-0.27344 0.21875-0.44922 0.011719-0.17188-0.050781-0.33984-0.16797-0.46875-0.37109-0.40234-0.91797-0.625-1.5391-0.62891h-0.007812c-0.66406 0-1.3047 0.26172-1.7148 0.70312-0.39062 0.42188-0.58984 1.0156-0.54688 1.6289 0.050781 0.62109 0.33203 1.1797 0.78125 1.5352zm0.70703-2.2812c0.16797-0.17969 0.47266-0.29688 0.77734-0.29688 0.070313-0.011718 0.18359 0.011719 0.26562 0.03125-0.011719 0.09375-0.015625 0.19141-0.003906 0.29297 0.050781 0.5 0.36719 0.98828 0.81641 1.2422 0.32812 0.1875 0.67578 0.26953 0.98047 0.34375 0.17188 0.039063 0.34766 0.078126 0.51172 0.14453 0.1875 0.074218 0.32031 0.24219 0.33594 0.26953-0.023437 0.023437-0.12109 0.054687-0.23047 0.039063-0.17969-0.027344-0.38672-0.13281-0.60156-0.24219l-0.17969-0.089844c-0.84375-0.41406-1.7891-0.64453-2.7344-0.66797h-0.015625-0.011718c-0.066407-0.11719-0.10938-0.25781-0.11719-0.40625-0.015625-0.25781 0.058594-0.50391 0.20703-0.66016z"/>
  <path d="m74.883 32.047h0.027344c0.48438-0.007813 1.0156-0.25781 1.3867-0.65234 0.14453-0.15234 0.27344-0.32422 0.40234-0.49609 0.1875-0.25 0.34766-0.46484 0.53906-0.57422 0.10156-0.058594 0.24609-0.10547 0.39844-0.15234 0.19531-0.0625 0.39062-0.12891 0.57031-0.22266 0.58984-0.30469 1.0234-1.0195 0.73438-1.6914-0.3125-0.70703-1.1523-0.89062-2.1445-0.47266-0.61719 0.26172-1.3125 0.55859-1.8945 1.0508-0.67578 0.57812-1.0586 1.3281-1.0703 2.082-0.12891 0.24219-0.089843 0.54688 0.11328 0.75 0.25391 0.25 0.57422 0.37891 0.9375 0.37891zm0.85547-2.2344c0.16016-0.13672 0.33984-0.25781 0.53516-0.36719-0.24609 0.21094-0.42969 0.46094-0.60156 0.6875-0.10156 0.13281-0.19922 0.26563-0.3125 0.38672-0.066406 0.070313-0.13672 0.125-0.21094 0.16406 0.082031-0.30859 0.28906-0.61719 0.58984-0.87109z"/>
  <path d="m79.332 71.93c-0.47266-0.14063-1.2148-0.10938-2.0781 0.87891-1.2852 1.4688-2.7188 3.3672-2.4141 5.0234 0.12891 0.69531 0.70312 1.2266 1.3398 1.2305h0.015624c0.67578 0 1.1172-0.53125 1.3281-0.78906l1.5781-1.8945c0.61328-0.73438 1.3711-1.6445 1.3477-2.8398-0.019531-0.75391-0.48047-1.418-1.1172-1.6094zm-1.2773 3.7109-1.5156 1.8164c-0.22656 0.26953-0.31641 0.32031-0.33203 0.33203-0.027343-0.011718-0.09375-0.085937-0.10938-0.18359-0.23438-1.2617 1.5352-3.2852 2.1172-3.9531 0.32812-0.375 0.57031-0.5 0.70312-0.5 0.015625 0 0.03125 0 0.042969 0.007812 0.09375 0.027344 0.20312 0.20312 0.20703 0.41406 0.015625 0.70703-0.52734 1.3594-1.1133 2.0664z"/>
  <path d="m91.23 61.621c-0.30859-0.16797-0.69922-0.054688-0.86719 0.25391-0.03125 0.054688-0.058593 0.10938-0.089843 0.16797-0.082032 0.050781-0.15625 0.125-0.20703 0.21484-0.074218 0.12109-0.10156 0.25781-0.089844 0.39063-0.19141 0.45312-0.33984 0.96875-0.28516 1.5195 0.058594 0.58594 0.40234 1.1484 0.89453 1.4727 0.27344 0.17969 0.57031 0.26953 0.86719 0.26953 0.15234 0 0.30469-0.023437 0.45312-0.074218 0.20703-0.066407 0.36719-0.23828 0.42188-0.45313 0.26172-1.0391-0.082031-2.168-0.82812-2.9102 0.15234-0.3125 0.035156-0.6875-0.26953-0.85156z"/>
  <path d="m105.79 72.48c0.55078-0.12109 0.88672-0.54688 0.85547-1.0742-0.058594-0.93359-0.99219-1.2344-1.6094-1.4336-0.89844-0.29297-1.6367-0.97656-2.4141-1.6953-0.28125-0.26172-0.5625-0.51953-0.84766-0.76172-1.6133-1.3555-3.3672-1.7578-4.6914-1.0664-0.13672 0.070312-0.24219 0.1875-0.30078 0.33203l-0.097656 0.24609c-0.12891 0.32812 0.03125 0.70312 0.35937 0.82812 0.14844 0.0625 0.30859 0.058593 0.45313 0.007812 0.73047 0.35156 1.3281 0.98828 1.625 1.7422 0.42578 1.0742 4.5273 2.9062 6.2969 2.9062 0.14063 0.003906 0.26563-0.007813 0.37109-0.03125zm-5.4766-3.3398c-0.24219-0.61328-0.62891-1.1758-1.1133-1.6289 0.625 0.18359 1.25 0.56641 1.75 0.98828 0.27344 0.23047 0.53906 0.47656 0.80078 0.71875 0.76562 0.70703 1.5508 1.4375 2.5977 1.8633-1.4727-0.42188-3.7109-1.4805-4.0352-1.9414z"/>
  <path d="m106.89 62.645-0.03125-0.13281c-0.042969-0.1875-0.16797-0.33984-0.33984-0.42578-0.60156-0.29688-1.5664-0.34375-2.7852 1.0938l-1.832 2.1602c-0.082031 0.097656-0.13281 0.21484-0.14453 0.33594-0.14844 0.035157-0.28516 0.12109-0.37891 0.25781-0.19922 0.28906-0.12891 0.6875 0.16016 0.89062 0.54297 0.375 1.5508 1.0742 2.6445 1.0742 0.28906 0 0.58203-0.050782 0.87891-0.16797 0.59375-0.23828 1.0938-0.71875 1.5195-1.4727 0.50781-0.89453 0.8125-1.9102 0.875-2.9375 0.011718-0.17187-0.019532-0.33203-0.13281-0.46094s-0.24609-0.19922-0.41797-0.20703c-0.007812 0-0.011718-0.003906-0.015625-0.007813zm-1.4258 2.9844c-0.28125 0.49219-0.56641 0.79297-0.87891 0.91797-0.50391 0.19922-1.1094-0.027344-1.707-0.375l1.832-2.1602c0.30859-0.36328 0.69922-0.71875 1-0.78906l0.015625 0.0625c0.054687 0.23047 0.19141 0.39844 0.39844 0.45703-0.10547 0.66016-0.32812 1.3047-0.66016 1.8867z"/>
  <path d="m109.03 63.426c0.027344 0 0.050781 0 0.078125-0.003906 0.32031-0.019531 0.60156-0.17188 0.79688-0.42188 0.42188-0.53906 0.3125-1.3438 0.26953-1.582l-0.42969-2.3242c-0.1875-1.0273-0.37891-2.0586-0.61719-3.0742-0.070312-0.29297-0.35938-0.5-0.63281-0.49609-0.33594 0.003906-0.70703 0.10156-1.0703 0.19141-0.27344 0.070312-0.58594 0.15234-0.76562 0.15234-0.34766 0.003906-0.62891 0.28516-0.63281 0.63672l-0.011719 1.4141c-0.15234 0.1875-0.19141 0.44922-0.082031 0.67969l0.078125 0.16016c0.015625 0.15625 0.085937 0.29688 0.19141 0.40234l1.5352 3.2227c0.33594 0.69531 0.76562 1.043 1.293 1.043zm-1.7227-6.3594c0.14453-0.03125 0.29297-0.070312 0.44141-0.10938 0.085938-0.023437 0.17578-0.046875 0.26562-0.066406 0.17578 0.80859 0.32422 1.625 0.47656 2.4531l0.42578 2.3086c0.019531 0.097656 0.027343 0.1875 0.027343 0.26953-0.015624-0.027344-0.027343-0.054687-0.042968-0.085937l-1.6016-3.3633z"/>
  <path d="m111.56 51.594c0.24609 0 0.49609-0.027344 0.74609-0.085938 0.83984-0.19531 1.5508-0.70312 1.9609-1.3906 0.46094-0.78125 0.60547-2.0312 0.34375-2.9688-0.17578-0.625-0.51562-1.0898-0.98438-1.3359-0.33984-0.17969-0.71875-0.18359-1.0703-0.003906-0.46875 0.23828-0.83594 0.78516-0.91797 1.3594-0.019531 0.14453-0.03125 0.29688-0.042969 0.44922-0.023437 0.30859-0.042968 0.60156-0.16016 0.72266-0.085938 0.085937-0.28906 0.14062-0.5 0.19922-0.17188 0.046876-0.34375 0.097657-0.50391 0.16016-0.46875 0.19141-0.84375 0.63672-0.9375 1.1016-0.054688 0.28516-0.003906 0.56641 0.14453 0.79688 0.003906 0.20312 0.10547 0.40234 0.28906 0.51953 0.47656 0.31641 1.0469 0.47656 1.6328 0.47656zm-0.63672-1.707c0.11328-0.046875 0.23438-0.078125 0.35156-0.10938 0.33203-0.089844 0.74609-0.20312 1.0742-0.53516 0.45313-0.45703 0.49609-1.0547 0.52734-1.5352 0.007813-0.12109 0.015625-0.24219 0.03125-0.35938 0.027344-0.18359 0.16406-0.36719 0.11328-0.40625 0.19922 0.10938 0.30859 0.39453 0.35156 0.55469 0.16797 0.60156 0.074219 1.4883-0.21094 1.9727-0.23047 0.39062-0.64844 0.67969-1.1484 0.79297-0.40625 0.09375-0.81641 0.0625-1.1562-0.085938-0.015625-0.0625-0.039063-0.12109-0.074219-0.17969 0.039063-0.042969 0.089844-0.089844 0.14062-0.10938z"/>
  <path d="m112.09 65.18c-0.38281-0.050782-0.96094-0.13281-1.4844 0.16406-0.36328 0.20703-0.62109 0.62109-0.65234 1.0469 0 0.011719 0 0.019531-0.003906 0.027344-0.03125 0.085937-0.042969 0.17969-0.035157 0.27344 0.015626 0.19922 0.12109 0.36719 0.27344 0.47266 0.046875 0.058594 0.10156 0.11328 0.16406 0.16016 0.25 0.19141 0.58984 0.17578 0.82031-0.027344 0.74609 0.12109 1.4414 0.59375 1.8008 1.2617 0.0625 0.11719 0.11328 0.23828 0.16797 0.35547 0.12109 0.26953 0.25781 0.57422 0.48047 0.85156 0.42188 0.52734 1.207 0.87891 1.8945 0.53906 0.83594-0.41797 2.3359 0.69141 3.1445 1.2852 0.11328 0.082031 0.24609 0.125 0.37891 0.125 0.042969 0 0.085938-0.003906 0.13281-0.015625 0.17969-0.039063 0.33203-0.14844 0.42188-0.30469 0.34766-0.60156 0.24219-1.3906-0.25781-1.8789-0.11719-0.11328-0.22266-0.28516-0.33594-0.46875-0.13281-0.21094-0.28125-0.45312-0.48828-0.66797-0.73047-0.75781-1.5547-1.6172-2.5898-2.1797-1.2227-0.65234-2.6055-0.84766-3.832-1.0195zm5.4961 4.0938c0.050781 0.054687 0.10156 0.11719 0.15234 0.19141-0.57812-0.30469-1.1992-0.52734-1.8125-0.52734-0.33594 0-0.66797 0.066406-0.98828 0.23047-0.046875-0.003907-0.20312-0.046875-0.31641-0.19141-0.12109-0.15234-0.21094-0.35937-0.3125-0.57812-0.066406-0.14844-0.13281-0.29688-0.21094-0.4375-0.30078-0.56641-0.76562-1.0391-1.3086-1.3828 0.88281 0.14062 1.7578 0.33984 2.5195 0.75391 0.85938 0.46484 1.5781 1.2148 2.2773 1.9414z"/>
  <path d="m119.78 78.605c0.25-1.0391 0.30469-2.5352-0.35938-3.332-0.31641-0.37891-0.75781-0.56641-1.2539-0.53516-0.20703-0.003906-0.42969-0.26562-0.54687-0.61328-0.0625-0.1875-0.10156-0.375-0.14453-0.56641-0.082031-0.36328-0.17188-0.77734-0.38672-1.168-0.25781-0.46875-0.72266-0.83203-1.2148-0.95312-0.39453-0.097656-0.78906-0.035156-1.1094 0.17969-0.44922 0.29687-0.62891 0.78125-0.77344 1.1719-0.054687 0.14844-0.14844 0.40234-0.125 0.44922-0.050781-0.03125-0.16406-0.21875-0.18359-0.44922-0.007813-0.09375-0.011719-0.19141-0.015626-0.29297-0.019531-0.45703-0.039062-1.0273-0.43359-1.4922-0.26172-0.30859-0.64062-0.49609-1.0703-0.53125-0.51172-0.039062-1.0547 0.13672-1.4531 0.47656-0.12891 0.11328-0.3125 0.21484-0.49609 0.32812-0.41016 0.24609-0.86719 0.51953-1.1367 0.92969-1.4961 0.50391-2.6914 1.5508-3.75 2.4805-0.92188 0.80469-1.9609 1.7148-2.6562 2.8828-0.88281 1.4844-1.1523 3.293-0.73438 4.9688 0.023437 0.085938 0.058594 0.16016 0.10938 0.22656-0.097657 0.14062-0.13672 0.31641-0.10156 0.49609 0.070313 0.34375 0.41797 0.57031 0.75781 0.49609l5.3008-1.1094c0.61328-0.12891 1.1875-0.22266 1.5781-0.003907 0.16406 0.089844 0.32422 0.25391 0.49219 0.42578 0.10156 0.10547 0.19922 0.20703 0.30859 0.30078 0.074219 0.066406 0.21094 0.18359 0.39062 0.29688-0.050781 0.18359-0.066406 0.37109-0.039062 0.55859 0.085937 0.60547 0.57422 1.1328 1.2188 1.3164 0.19141 0.054687 0.39062 0.082031 0.60547 0.082031 0.27734 0 0.57031-0.046875 0.89062-0.13672 1.9375-0.55859 3.2656-2.1719 4.332-3.4727 0.78125-0.95703 1.6719-2.043 2-3.4102zm-6.6914 5.6523c-0.32813 0.097657-0.58594 0.11328-0.79297 0.054688-0.14844-0.042969-0.28125-0.15625-0.3125-0.31641 0.0625-0.007813 0.125-0.023438 0.1875-0.039063 0.30469-0.085937 0.5-0.38281 0.45703-0.69531-0.039062-0.3125-0.30078-0.55078-0.61719-0.5625-0.085937 0-0.16797 0.003906-0.25391 0.023437-0.11328-0.019531-0.32031-0.11328-0.52344-0.29688-0.085938-0.078125-0.17188-0.16406-0.25391-0.24609-0.21484-0.21875-0.45703-0.46875-0.78125-0.64844-0.84375-0.46875-1.8203-0.26562-2.4688-0.12891l-4.543 0.94922c-0.003906-0.039062-0.007813-0.078124-0.019532-0.11719-0.33984-1.3477-0.12109-2.8086 0.58984-4.0039 0.58984-0.99219 1.5117-1.793 2.4023-2.5742 1.0195-0.89453 2.1797-1.9141 3.5273-2.3008 0.19922-0.058594 0.35938-0.20703 0.42578-0.40234 0.054687-0.15625 0.48828-0.41797 0.74609-0.57031 0.25391-0.15234 0.49219-0.30078 0.66797-0.45312 0.13672-0.11719 0.34375-0.1875 0.51953-0.17578 0.089843 0.007813 0.15625 0.035156 0.19531 0.082032 0.10938 0.12891 0.11719 0.41016 0.13281 0.71094 0.003906 0.11719 0.007812 0.23438 0.019531 0.34766 0.035156 0.41406 0.22266 0.98438 0.64062 1.3281 0.26953 0.21875 0.58594 0.3125 0.91406 0.27344 0.79297-0.09375 1.0547-0.79688 1.2266-1.2656 0.082031-0.21484 0.17969-0.48438 0.37891-0.55469 0.14844 0.035157 0.31641 0.17578 0.39844 0.32422 0.125 0.23047 0.1875 0.51953 0.25781 0.82812 0.050781 0.23828 0.10547 0.47266 0.18359 0.69922 0.25781 0.77344 0.92578 1.5078 1.832 1.4805 0.12109-0.003906 0.16797 0.03125 0.20312 0.078126 0.26953 0.32031 0.3125 1.3164 0.097657 2.2148-0.25781 1.082-1.0508 2.0469-1.75 2.8984-1.1641 1.4297-2.25 2.6445-3.6875 3.0586z"/>
  <path d="m112.67 86.988c-0.41797-0.007812-0.76562 0.10547-1.0781 0.25391-0.015625 0.007812-0.035156 0.011718-0.050782 0.019531-1.0234 0.44531-1.7969 1.4453-1.9688 2.543-0.046874 0.30078 0.125 0.58984 0.41016 0.69922 0.26953 0.10156 0.54297 0.14453 0.80859 0.14453 0.96094 0 1.8477-0.55469 2.3789-0.88672 0.28516-0.17969 0.875-0.54688 0.96484-1.2227 0.046876-0.35156-0.058593-0.70312-0.30469-0.99219-0.28125-0.33594-0.71875-0.54297-1.1602-0.55859zm-0.17969 1.6875c-0.48047 0.30078-0.97266 0.57422-1.418 0.66016 0.15234-0.26953 0.35938-0.50781 0.61328-0.69141 0.015625-0.007812 0.03125-0.015625 0.042968-0.023437 0.35547-0.20703 0.64844-0.34766 0.90234-0.35547 0.10938 0.003906 0.22266 0.085937 0.23828 0.097656-0.007813 0.03125-0.058594 0.11719-0.37891 0.3125z"/>
  <path d="m125.36 82.223c-0.41797-0.30078-0.92969-0.35938-1.3594-0.15625-0.62109 0.28906-0.8125 0.91406-0.94922 1.3672-0.039063 0.13281-0.082031 0.26562-0.13281 0.38672-0.23437 0.53906-0.86719 0.89844-1.5508 1.2539l-2.8789 1.4883c-0.16797 0.085938-0.28125 0.23828-0.32812 0.41016-0.0625 0.070313-0.12109 0.14844-0.17969 0.23047-0.34766 0.51562-0.46484 1.1367-0.31641 1.6953 0.0625 0.24219 0.26172 0.42187 0.50391 0.46875 0.54297 0.097656 1.1016 0.19922 1.6836 0.19922 0.13672 0 0.27734-0.007812 0.41797-0.019531 0.90625-0.082031 1.6719-0.46094 2.1484-1.0664 0.26563-0.33984 0.42188-0.71875 0.5625-1.0547 0.10938-0.26562 0.20703-0.51172 0.34766-0.70703 0.22266-0.30859 0.59375-0.54297 0.98828-0.78906l0.34766-0.22266c0.85938-0.56641 1.332-1.2188 1.4102-1.9375 0.066407-0.57031-0.22266-1.1914-0.71484-1.5469zm-3.5664 4.7188c-0.11328 0.28125-0.22266 0.55078-0.37891 0.74609-0.25391 0.32031-0.71484 0.53516-1.2578 0.58203-0.40234 0.035157-0.8125-0.007812-1.2461-0.074219 0.027344-0.09375 0.070312-0.1875 0.12891-0.27734 0.14062-0.20703 0.34766-0.34766 0.55469-0.375 0.23438-0.027344 0.41797-0.17969 0.50781-0.37891l1.8477-0.95703c0.082032-0.042969 0.17578-0.089843 0.26563-0.13672-0.18359 0.28906-0.30859 0.59766-0.42188 0.87109zm2.168-2.3008-0.050781 0.035156c0.070312-0.10938 0.13281-0.22656 0.18359-0.34766 0.070312-0.16406 0.125-0.33984 0.17969-0.51562 0.074219-0.23828 0.16406-0.53125 0.26562-0.58203 0.011719 0 0.074219 0.019531 0.14453 0.10156 0.082031 0.09375 0.12891 0.21484 0.12109 0.30469-0.035156 0.32031-0.32031 0.66016-0.84375 1.0039z"/>
 </g>
</svg>
