<?xml version="1.0" encoding="utf-8"?>
<!-- Generator: Adobe Illustrator 19.1.0, SVG Export Plug-In . SVG Version: 6.00 Build 0)  -->
<svg version="1.1" id="Layer_1" xmlns="http://www.w3.org/2000/svg" xmlns:xlink="http://www.w3.org/1999/xlink" x="0px" y="0px"
	 viewBox="0 0 300 95.7" style="enable-background:new 0 0 300 95.7;" xml:space="preserve">
<style type="text/css">
	.st0{fill:#020202;}
	.st1{fill:#030303;}
	.st2{fill:#119549;}
	.st3{fill:#1D9A52;}
</style>
<g>
	<path class="st0" d="M114.8,24.8c0,0.2-0.1,0.3-0.2,0.3c-0.7,0.4-1.1,1.1-1.4,1.9c-0.3,0.8-0.4,1.7-0.5,2.6
		c-0.2,2.2-0.4,4.3-0.4,6.5c0,1.7,0,3.4,0,5.1c0,0.4,0,0.8-0.2,1.2c-0.1,0.4-0.4,0.8-0.9,0.8c-2.4,0.4-4.6,1.2-6.9,2
		c-3.7,1.2-7.5,1.7-11.3,1.4c-1.7-0.1-3.4-0.4-5.1-1c-0.1,0-0.2-0.1-0.4-0.1c0,0,0,0-0.1,0.1c0.3,0.6,0.7,1.2,1.1,1.8
		c0.9,1.2,2,2.3,3.2,3.2c1.5,1.3,3.2,2.3,4.8,3.5c0.9,0.6,1.8,1.3,2.6,1.9c1.5,1.1,3.1,1.9,4.7,2.9c2.2,1.4,4.3,2.8,6.3,4.6
		c1.4,1.3,2.7,2.7,3.5,4.5c0.9,1.8,1.2,3.7,1.1,5.7c-0.1,2.4-0.6,4.8-1.6,7c-1.7,3.7-4.5,6.2-8.3,7.7c-2.2,0.9-4.5,1.4-6.9,1.6
		c-2.9,0.3-5.8,0-8.7-0.3c-3.1-0.3-6.2-1.1-9.2-1.9c-1.4-0.4-2.3-1.3-2.4-2.8c0-0.4-0.1-0.7-0.1-1.1c0-1.1-0.3-2.2-0.4-3.3
		c-0.1-0.9-0.2-1.8-0.2-2.7c0-0.6,0.1-1.2,0.4-1.7c0.1-0.2,0.2-0.3,0.3-0.4c1-1,1.7-0.7,2.3,0.2c0.1,0.2,0.2,0.5,0.3,0.7
		c0.3,0.9,0.7,1.8,1.1,2.7c0.7,1.4,1.6,2.7,2.8,3.7c0.2,0.2,0.5,0.4,0.7,0.6c1.6,1.2,3.4,2.1,5.5,2.4c1.9,0.3,3.7,0.7,5.6,0.7
		c4.6,0.2,9-2.7,10.5-6.9c1.1-3.2,0.8-6.3-1.1-9.1c-1-1.5-2.2-2.6-3.6-3.7c-1.3-1-2.8-1.9-4.2-2.8c-1.8-1.1-3.7-2.1-5.4-3.3
		c-1.8-1.2-3.6-2.4-5.3-3.7c-1.7-1.3-3.3-2.6-4.6-4.2c-1.4-1.7-2.5-3.6-2.9-5.8c-0.4-1.9-0.4-3.7,0-5.6c0.1-0.5,0-0.8-0.4-1.1
		c-3.5-3.2-5.8-7.1-6.8-11.7c-0.4-2-0.5-3.9-0.5-5.9c0.1-2,0.4-3.9,1-5.7c1.9-6.1,5.7-10.5,11.3-13.5c3.2-1.7,6.6-2.5,10.3-2.7
		c3.7-0.2,7.2,0.4,10.7,1.4c0.9,0.3,1.9,0.5,2.9,0.7c0.7,0.1,1.4,0.1,2.1,0c0.3,0,0.6-0.1,0.8-0.1c0.4,0,0.7,0.2,0.7,0.6
		c0,0.2,0,0.3,0,0.5c-0.1,1.6,0,3.2,0.1,4.7c0,0.6,0,1.1-0.2,1.7c-0.3,0.8-0.8,0.9-1.5,0.3c-0.2-0.2-0.4-0.5-0.6-0.8
		c-0.7-1-1.5-2.1-2.4-3c-0.9-0.9-1.9-1.5-3-2c-2.5-1-5-1.5-7.7-1.4c-2.5,0.1-4.9,0.5-7.2,1.5c-4.7,2.1-7.7,5.6-9.4,10.4
		c-0.8,2.3-1.1,4.7-1.1,7.1c0,4.4,1,8.5,3.2,12.3c0.1,0.2,0.2,0.3,0.3,0.5c0.2-0.1,0.3-0.3,0.4-0.4c2.5-3,5.7-4.7,9.5-5.4
		c2.4-0.4,4.7-0.3,7.1,0.1c1.5,0.3,3,0.5,4.5,0.8c0.7,0.1,1.3,0.1,2-0.1c0.2-0.1,0.4-0.2,0.4-0.5c-0.1-1.9-0.9-3.4-2.5-4.5
		c-0.1-0.1-0.3-0.2-0.4-0.3c-0.1-0.1-0.2-0.1-0.1-0.3c0-0.1,0.2-0.1,0.3-0.1c1,0.1,1.9,0.1,2.9,0.2c2.2,0.2,4.4,0.1,6.6-0.1
		C113.4,24.8,114.1,24.7,114.8,24.8z M95.4,44.1c1.8,0,3.5-0.4,5.2-1c1.3-0.4,2.6-1,3.7-1.9c0.7-0.5,1.2-1.1,1.6-1.9
		c0.1-0.3,0.2-0.5,0-0.7c-0.3-0.4-0.5-0.9-0.8-1.3c-0.6-1-1.5-1.8-2.5-2.4c-2-1.2-4.2-1.9-6.5-2.3c-1.9-0.3-3.7,0-5.4,1
		c-2.1,1.3-3.6,3.1-4.3,5.5c-0.3,1.2-0.3,1.3,0.7,2C89.6,43,92.3,44.1,95.4,44.1z"/>
	<path class="st0" d="M52.6,24.8c0,0.1,0,0.2-0.1,0.2c-1.3,0.8-1.7,2.1-1.9,3.5c-0.3,2.1-0.4,4.2-0.5,6.3c-0.1,2.1,0,4.2,0,6.4
		c0,0.4,0,0.7-0.1,1.1c-0.1,0.6-0.5,1-1.1,1.1c-1.8,0.3-3.6,0.9-5.4,1.5c-2.2,0.7-4.3,1.4-6.6,1.7c-4.8,0.6-9.6,0.3-14-1.9
		c-6.7-3.3-11-8.5-12.7-15.7c-0.5-2.2-0.6-4.5-0.4-6.8c0.3-3.7,1.4-7.1,3.4-10.2c3-4.8,7.3-7.9,12.6-9.7c2.1-0.7,4.2-1,6.4-1.2
		c3.7-0.2,7.3,0.3,10.9,1.4c0.9,0.3,1.9,0.5,2.9,0.7c0.7,0.1,1.4,0.1,2.1,0C48.1,3,48.4,3,48.6,3c0.5,0,0.8,0.2,0.8,0.7
		c0,0.1,0,0.3,0,0.5c-0.1,0.9,0,1.7,0,2.6c0.1,0.8,0.1,1.7,0.1,2.5c0,0.5-0.1,1.1-0.4,1.6c-0.3,0.4-0.6,0.5-1.1,0.3
		c-0.4-0.2-0.6-0.5-0.9-0.9c-0.6-0.9-1.2-1.7-1.9-2.5c-1.1-1.2-2.4-2.2-4-2.8c-0.9-0.3-1.8-0.6-2.7-0.8C34.8,3.2,31,3.4,27.3,4.9
		c-4.6,1.8-7.7,5.2-9.6,9.8c-0.9,2.3-1.4,4.8-1.4,7.3c-0.1,3.9,0.6,7.6,2.2,11.2c1.4,3,3.2,5.5,5.8,7.6c2.1,1.7,4.5,2.9,7.2,3.3
		c1.5,0.2,3,0.1,4.6-0.2c1.8-0.4,3.4-0.9,5-1.9c0.9-0.6,1.8-1.3,2.4-2.2c0.4-0.7,0.7-1.5,0.6-2.4c-0.1-1.4-0.1-2.9-0.1-4.3
		c-0.1-1.4-0.1-2.8-0.4-4.2c-0.2-1.3-0.9-2.2-1.9-3c-0.3-0.2-0.5-0.4-0.8-0.6c-0.1-0.1-0.2-0.1-0.2-0.2c0-0.1,0.1-0.1,0.2-0.1
		c0.3,0,0.6,0,0.9,0.1c1.4,0.1,2.9,0.2,4.3,0.3c1.5,0,2.9-0.1,4.3-0.2C51.2,24.8,51.9,24.7,52.6,24.8z"/>
	<path class="st1" d="M126.4,46.3c-1.7-0.2-3.4-0.4-5-0.4c-1.7,0-3.3,0.1-5,0.4c0-0.3,0.2-0.3,0.3-0.4c2.9-1.2,4.8-3.4,5.9-6.2
		c2.2-5.2,4.3-10.5,6.5-15.7c2-4.7,3.9-9.5,5.9-14.2c0.7-1.6,0.5-3-0.3-4.4c-0.7-1.3-1.7-2.3-2.9-3.2c-0.2-0.1-0.5-0.2-0.5-0.5
		c0-0.1,0-0.2,0.1-0.1c2.6,0.2,5.3,0.3,7.9,0.3c1,0,0.8-0.1,1.1,0.8c3.5,8.8,7,17.6,10.5,26.5c1.5,3.8,3,7.5,4.5,11.3
		c0.4,1,0.9,2,1.5,2.9c0.8,1.1,1.7,1.9,2.9,2.5c0.2,0.1,0.5,0.2,0.4,0.5c-0.1,0.2-0.4,0.1-0.6,0.1c-1.8-0.3-3.7-0.5-5.6-0.5
		c-1.1,0-2.2,0.1-3.3,0.1c-1.1,0.1-2.3,0.3-3.4,0.4c-0.1,0-0.3,0.1-0.5,0c-0.1-0.3,0-0.5,0.1-0.8c0.2-0.3,0.4-0.7,0.7-1
		c0.9-1.1,1-2.3,0.6-3.7c-0.4-1-0.7-2-1.1-3.1c-1-2.7-2-5.4-2.9-8.2c-0.2-0.5-0.5-0.7-1-0.7c-1.6-0.1-3.2-0.2-4.8-0.2
		c-2.3,0-4.6,0-6.8,0.2c-0.1,0-0.2,0-0.2,0c-0.9,0.1-0.9,0.1-1.2,0.9c-1.5,3.8-2.9,7.6-4.4,11.4c-0.3,0.7-0.5,1.4-0.6,2.1
		c-0.2,0.9,0,1.7,0.6,2.5C126.2,45.8,126.4,45.9,126.4,46.3z M137.9,12.4c-0.2,0.1-0.2,0.2-0.3,0.3c-1.8,4.3-3.5,8.5-5.3,12.8
		c-0.1,0.1-0.1,0.3-0.2,0.4c0,0.2,0,0.3,0.2,0.3c0.1,0,0.2,0,0.3,0c1.8,0,3.6,0.1,5.4,0.1c1.4,0,2.7-0.1,4.1-0.1c1,0,1-0.1,0.7-1
		c-1.3-3.2-2.5-6.5-3.8-9.7C138.7,14.6,138.3,13.5,137.9,12.4z"/>
	<path class="st0" d="M227.1,81.6c0-4.5,0-9.1,0-13.6c0-3.2-0.2-6.3-0.3-9.5c0-0.8-0.1-1.5-0.2-2.3c-0.2-1.3-0.8-2.4-1.9-3.2
		c-0.1-0.1-0.2-0.1-0.3-0.3c0.2-0.2,0.4-0.1,0.6-0.1c0.6,0.1,1.2,0.1,1.8,0.3c0.9,0.2,1.8,0.1,2.7,0.1c1.1-0.1,2.2-0.2,3.3-0.2
		c0.1,0,0.2,0,0.3,0.1c0,0.1,0,0.2-0.1,0.2c-1.4,0.9-1.9,2.2-2.1,3.7c-0.3,1.5-0.3,3-0.3,4.6c0,1.5,0,3,0,4.4c0,2.9,0,5.7,0,8.6
		c-0.1,2.9-0.1,5.7-0.1,8.6c0,2.2,0.1,4.3,0.2,6.5c0,0.3,0,0.7,0,1c0,0.8-0.6,1.1-1.3,0.7c-0.3-0.1-0.5-0.3-0.7-0.6
		c-0.6-0.7-1.3-1.4-1.9-2.1c-7-8-13.9-16.1-20.9-24.1c-0.6-0.7-1.2-1.4-1.8-2.1c-0.1-0.1-0.1-0.2-0.4-0.2c0,0.4,0,0.9,0,1.3
		c0,3.7,0,7.4,0,11.1c0.1,3.7,0.1,7.4,0.4,11.1c0,0.7,0.1,1.3,0.3,2c0.4,1.1,1,1.9,2,2.5c0.1,0.1,0.3,0.2,0.4,0.3
		c0.1,0.1,0.1,0.2-0.1,0.2c-0.2,0-0.4,0-0.6,0c-2-0.1-4-0.3-6.1-0.2c-0.7,0-1.4,0.1-2.1,0.1c-0.1,0-0.2,0-0.2-0.1
		c0-0.1,0.1-0.2,0.2-0.2c0.9-0.5,1.5-1.2,2-2.2c0.3-0.7,0.5-1.4,0.5-2.2c0-0.9,0-1.8,0-2.6c0-3.8,0-7.6,0.1-11.3
		c0-3.4,0.1-6.9,0.1-10.3c0-1.3,0-2.6-0.1-3.9c-0.2-1.8-0.9-3.3-2.4-4.4c-0.1-0.1-0.2-0.2-0.3-0.3c0,0,0-0.1,0-0.2
		c0,0,0.1-0.1,0.1-0.1c0.3,0,0.6,0,0.9,0.1c1.3,0.1,2.6,0.3,3.9,0.3c0.3,0,0.4,0.2,0.6,0.4c1.9,2.3,3.8,4.5,5.8,6.8
		c6,7.1,11.9,14.1,17.9,21.2C226.7,81.5,226.8,81.7,227.1,81.6z"/>
	<path class="st1" d="M294.1,74.7c-0.2,0-0.3,0-0.4,0c-0.5,0.1-0.8-0.1-1.1-0.5c-0.5-0.8-1.3-1.2-2.1-1.5c-0.8-0.3-1.7-0.4-2.5-0.5
		c-2.1-0.2-4.2-0.1-6.3,0c-0.5,0-0.5,0-0.5,0.5c0,2.4,0,4.8,0.1,7.1c0.1,1.5,0.1,3,0.2,4.5c0,1.2,0.6,2.1,1.6,2.8
		c0.9,0.6,2,0.9,3.1,1.1c1.8,0.3,3.6,0.3,5.3,0.1c1.8-0.2,3.3-1,4.5-2.4c0.5-0.7,1.1-1.3,1.7-1.9c0.3-0.3,0.6-0.6,0.9-0.9
		c0.3-0.2,0.7-0.3,1-0.2c0.4,0.1,0.5,0.2,0.5,0.6c0,0.3-0.2,0.5-0.3,0.8c-0.4,0.7-0.7,1.3-1.1,2c-0.4,0.7-0.7,1.4-0.9,2.2
		c-0.2,1.1-0.9,1.6-2,1.7c-0.3,0-0.6,0-0.9,0c-3.7,0-7.5,0-11.2,0c-2,0-3.9,0-5.9,0c-1.2,0-2.4,0.2-3.6,0.2c-0.3,0-0.7,0-1,0.1
		c-0.1,0-0.3,0-0.3-0.1c-0.1-0.2-0.1-0.4,0-0.5c0.1-0.1,0.2-0.1,0.2-0.2c1.3-0.9,2.1-2.2,2.7-3.7c0.2-0.6,0.3-1.2,0.4-1.9
		c0.1-4.6,0.1-9.2,0.1-13.8c0-3.6-0.1-7.1-0.3-10.7c0-0.5,0-1.1-0.1-1.6c-0.2-1.9-1.2-3.3-2.8-4.4c-0.2-0.1-0.4-0.2-0.5-0.3
		c-0.1-0.1-0.2-0.2-0.2-0.3c0-0.2,0.2-0.1,0.3-0.1c1.2,0.1,2.4,0.2,3.6,0.3c2,0.1,4,0.2,6,0.1c2.5-0.1,5-0.3,7.5-0.4
		c1.6,0,3.2,0,4.7,0.2c0.2,0,0.4,0.1,0.5,0.1c0.7,0.2,0.7,0.3,0.8,1c0.1,0.7,0.2,1.4,0.2,2.2c0,0.5,0.1,1,0.1,1.5
		c0,0.3-0.1,0.5-0.5,0.5c-0.6,0.1-1-0.1-1.3-0.6c-0.6-1.4-1.7-1.9-3-2.4c-1.1-0.4-2.2-0.4-3.4-0.6c-1.3-0.1-2.6,0.1-4,0.1
		c-0.6,0-1.2,0.1-1.8,0.1c-0.6,0-0.7,0.1-0.8,0.7c-0.1,0.9-0.2,1.8-0.2,2.6c-0.2,3.5-0.2,7.1-0.2,10.6c0,0.3,0,0.5,0.1,0.8
		c0.7,0,1.5,0.1,2.2,0.1c1,0,2.1,0.1,3.1,0.1c1,0,2,0,3-0.2c1.3-0.2,2.4-0.8,3.2-1.9c0.4-0.6,0.9-0.7,1.6-0.5
		C293.9,69.9,294,72.2,294.1,74.7z"/>
	<path class="st1" d="M168.2,90.5c-0.1-0.4,0-0.6,0.3-0.8c1.6-1.3,2.7-2.9,3-5c0-0.2,0-0.5,0-0.7c0-4.5,0.1-9.1,0-13.6
		c0-3.1-0.1-6.3-0.2-9.4c0-0.9-0.1-1.8-0.1-2.7c-0.1-2-1.1-3.5-2.7-4.6c-0.3-0.2-0.5-0.3-0.8-0.5c-0.1-0.1-0.1-0.2-0.1-0.3
		c0,0,0.1-0.1,0.2-0.1c1.1,0.1,2.2,0.1,3.3,0.2c2.4,0.3,4.9,0.3,7.3,0.1c2-0.1,4-0.2,6-0.3c1.4-0.1,2.9-0.1,4.3,0
		c0.6,0,1.1,0.1,1.7,0.3c0.6,0.2,0.6,0.3,0.7,0.9c0.1,1.1,0.2,2.3,0.3,3.4c0,0.3,0.2,0.6-0.2,0.8c-0.3,0.2-1,0.1-1.3-0.2
		c-0.1-0.1-0.2-0.2-0.3-0.4c-0.5-1.4-1.7-2-3-2.4c-1.7-0.5-3.5-0.7-5.3-0.6c-1.3,0.1-2.6,0.2-3.9,0.3c-0.5,0-0.5,0-0.6,0.6
		c-0.2,0.8-0.2,1.7-0.3,2.5c-0.2,3.7-0.2,7.4-0.2,11c0,0.2,0,0.4,0.1,0.6c0.8,0,1.6,0.1,2.4,0.1c1,0,1.9,0.1,2.9,0.1
		c1.1,0,2.2,0,3.2-0.2c1.2-0.3,2.2-0.8,3-1.8c0.2-0.2,0.3-0.4,0.5-0.6c0,0,0.1,0,0.1,0c0.3,0,0.6,0,1,0c-0.3,2.4-0.4,4.8-0.2,7.2
		c-0.1,0.2-0.3,0.1-0.5,0.1c-0.5,0-0.8-0.1-1.1-0.5c-0.5-0.8-1.3-1.2-2.2-1.5c-0.8-0.3-1.6-0.4-2.4-0.4c-2.1-0.2-4.2-0.1-6.4,0
		c-0.5,0-0.5,0-0.5,0.5c0,2.1,0,4.2,0.1,6.3c0.1,1.7,0.1,3.3,0.2,5c0,0.5,0,0.9,0.2,1.4c0.2,0.7,0.7,1.3,1.3,1.7
		c1,0.7,2.1,1,3.3,1.2c1.8,0.3,3.6,0.3,5.4,0c1.7-0.2,3.2-1,4.3-2.3c0.5-0.6,1-1.2,1.6-1.8c0.3-0.3,0.6-0.7,1-1
		c0.3-0.3,0.7-0.4,1.1-0.3c0.4,0.1,0.6,0.3,0.5,0.7c-0.1,0.4-0.3,0.7-0.5,1.1c-0.3,0.5-0.6,1.1-0.9,1.6c-0.4,0.7-0.7,1.5-0.9,2.3
		c-0.2,1-0.8,1.5-1.8,1.7c-0.3,0-0.7,0.1-1,0.1c-3.8,0-7.6,0-11.4,0c-2,0-3.9,0-5.9,0c-1.2,0-2.4,0.2-3.6,0.2
		C169.1,90.5,168.7,90.6,168.2,90.5z"/>
	<path class="st1" d="M137.3,91c-2.6,0.1-5.5-0.4-8.2-1.8c-5.8-2.8-9.6-7.2-10.9-13.5c-1.3-6.5,0.3-12.3,4.8-17.2
		c3.2-3.4,7.2-5.4,11.8-6c1.7-0.3,3.5-0.2,5.3-0.1c2.7,0.2,5.3,0.7,7.9,1.2c0.6,0.1,1.3,0.2,1.9,0c0.7-0.2,1.1,0,1.2,0.7
		c0,0.2,0.1,0.4,0.1,0.6c0.1,1.4,0.1,2.8,0.2,4.3c0,0.1,0,0.3,0,0.4c-0.1,0.7-0.6,0.9-1.2,0.6c-0.3-0.2-0.5-0.4-0.7-0.7
		c-0.4-0.5-0.8-1.1-1.3-1.6c-1-1.2-2.2-2-3.7-2.5c-3.6-1.2-7.2-1.3-10.8-0.1c-4.5,1.4-7.5,4.4-9.1,8.8c-0.7,1.9-1.1,3.8-1.1,5.8
		c-0.2,4.6,1.1,8.7,3.8,12.4c1.6,2.1,3.5,3.9,5.9,5c2,1,4.1,1.3,6.3,1.1c2.7-0.2,5.2-0.8,7.6-1.9c0.5-0.2,1-0.5,1.4-0.8
		c0.9-0.5,1.7-1.1,2.3-2c0.2-0.2,0.3-0.5,0.5-0.7c0.2-0.3,0.5-0.5,0.8-0.5c0.7-0.1,1,0.1,0.7,0.8c-0.4,0.9-0.8,1.7-1.2,2.5
		c-0.1,0.2-0.2,0.4-0.3,0.6c-0.4,1.1-1.2,1.7-2.1,2.1c-1.7,0.8-3.4,1.4-5.3,1.8C142.1,90.9,139.9,91,137.3,91z"/>
	<path class="st0" d="M56.3,1.6c1.3,0.1,2.7,0.2,4,0.3c1.9,0.1,3.8,0,5.7-0.2c0.6-0.1,1.3-0.1,1.9-0.1c0.1,0,0.2,0,0.2,0.1
		c0,0.1,0.1,0.2,0,0.3C68.1,1.9,68,2,68,2c-1.3,0.8-1.9,2.1-2.3,3.6c-0.4,1.6-0.4,3.2-0.5,4.8c-0.2,5.6-0.1,11.2-0.1,16.8
		c0,3.2,0.1,6.4,0.3,9.6c0.1,1.3,0.1,2.7,0.2,4c0.1,1.1,0.3,2.1,0.9,3.1c0.4,0.8,1,1.3,1.8,1.8c0.1,0.1,0.3,0.1,0.4,0.2
		c0,0,0.1,0.1,0.1,0.2c0,0.1-0.1,0.1-0.2,0.1c-0.2,0-0.5,0-0.7,0c-2.5-0.2-5-0.4-7.5-0.2c-1.2,0.1-2.4,0.1-3.6,0.2
		c-0.2,0-0.5,0.2-0.6-0.1c-0.1-0.3,0.2-0.3,0.4-0.4c1.8-1.2,2.7-2.9,2.7-5.1c0-2.2,0-4.4,0-6.5c0.1-3.9,0-7.8,0-11.7
		c0-3.2-0.1-6.4-0.2-9.6c-0.1-1.5-0.1-2.9-0.2-4.4c0-1-0.2-2.1-0.5-3.1c-0.4-1.2-1.1-2.2-2.1-3C56.1,2.2,56,2,55.8,1.9
		c-0.1-0.1-0.1-0.1-0.1-0.3c0-0.1,0.1-0.1,0.2-0.1C56.1,1.6,56.2,1.6,56.3,1.6C56.3,1.6,56.3,1.6,56.3,1.6z"/>
	<path class="st1" d="M188.2,7c0.4-0.2,0.4-0.5,0.6-0.7c1.1-1.7,2.2-3.3,3.8-4.6c0.9-0.7,1.9-1.3,3-1.6c0.9-0.2,1.8-0.2,2.7,0.1
		c1,0.3,1.7,0.9,2,1.9c0.3,0.9,0.4,1.8,0.4,2.7c-0.1,1.4-0.3,2.8-0.5,4.2c-0.3,2.1-0.6,4.2-0.9,6.3c-0.1,0.9-0.2,1.8-0.4,2.8
		c0,0.4-0.1,0.7,0,1.1c0.1,0.9,0.8,1.3,1.6,0.9c0.4-0.2,0.8-0.5,1.1-0.9c0.7-0.7,1.1-1.6,1.6-2.5c0.1-0.2,0.2-0.4,0.3-0.6
		c1.1,0.3,1.1,0.3,0.7,1.3c-0.6,1.5-1.4,2.9-2.7,4c-1.3,1-2.7,1.4-4.3,1.3c-1.7-0.2-2.5-1.2-2.7-2.8c-0.1-0.7-0.1-1.4,0-2.1
		c0.5-3.4,0.9-6.9,1.4-10.3c0.1-0.6,0.1-1.1,0.2-1.7c0.1-0.5,0-0.9-0.1-1.4c-0.2-1.1-1-1.6-2.1-1.3c-0.6,0.2-1,0.5-1.5,0.8
		c-0.9,0.7-1.6,1.5-2.2,2.4c-1.4,1.9-2.4,4-2.8,6.3c-0.2,1.2-0.4,2.5-0.5,3.7c-0.3,1.9-0.5,3.7-0.8,5.6c0,0.3-0.1,0.4-0.4,0.4
		c-1.3,0-2.5,0-3.8,0c-0.1,0-0.1,0-0.2-0.1c0.2-1.6,0.4-3.2,0.6-4.8c0.3-2.1,0.6-4.3,0.9-6.4c0.3-2.1,0.6-4.2,0.8-6.2
		c0.1-0.5,0.1-0.9,0-1.4c-0.1-0.8-0.7-1.1-1.5-0.9c-0.3,0.1-0.6,0.3-0.9,0.6C180.8,4,180.2,5,179.7,6c-0.1,0.2-0.1,0.3-0.2,0.5
		c0,0.1-0.1,0.2-0.1,0.2c-0.3,0-0.6-0.2-0.8-0.3c-0.2-0.1-0.1-0.3-0.1-0.4c0.6-1.6,1.4-3.1,2.7-4.3c1.4-1.3,3-1.8,4.8-1.5
		c1.4,0.2,2.3,1.1,2.5,2.6c0.1,1,0,1.9-0.1,2.9C188.3,5.9,188.2,6.4,188.2,7z"/>
	<path class="st0" d="M155,52.9c0.5,0,1,0.1,1.5,0.1c2.3,0.2,4.6,0.3,6.9,0c0.7-0.1,1.3,0,2-0.2c0.1,0,0.2,0,0.2,0.1
		c0,0,0,0.1,0,0.1c0,0.1-0.1,0.1-0.2,0.1c-0.8,0.5-1.3,1.3-1.7,2.2c-0.4,1-0.5,1.9-0.6,3c-0.2,2.4-0.2,4.9-0.2,7.3
		c0,3.8,0,7.5,0,11.3c0,3,0.2,6.1,0.3,9.1c0,1,0.3,1.9,0.8,2.7c0.4,0.7,1,1.1,1.7,1.5c0.1,0,0.2,0.1,0.2,0.2c0,0.1-0.1,0.1-0.2,0.1
		c-0.4,0-0.9,0-1.3-0.1c-2.7-0.2-5.4-0.2-8.1,0c-0.3,0-0.8,0.2-0.9-0.1c-0.1-0.3,0.4-0.4,0.7-0.6c1.3-1,1.9-2.4,1.9-4
		c0-3.3,0.1-6.5,0.1-9.8c0-3,0-6,0-8.9c0-2.5-0.2-5-0.3-7.5c0-1-0.1-2-0.3-2.9c-0.3-1.4-0.9-2.4-2-3.3C155.2,53.3,155,53.2,155,52.9
		z"/>
	<path class="st2" d="M164.8,0.5c0.8,0,1.7,0,2.6,0c0.3,0,0.4,0.2,0.4,0.4c0.4,0.7,0.7,1.5,1.1,2.3c1.6,3.6,3,7.3,4,11.1
		c0.8,3,1.2,6.1,1.2,9.2c-0.1,3-0.5,5.9-1.1,8.8c-1.1,4.8-2.7,9.3-4.7,13.8c-0.2,0.4-0.2,1.1-0.7,1.3c-0.4,0.2-0.9,0.1-1.4,0.1
		c-0.5,0-0.9,0-1.4,0c-0.2-0.2-0.1-0.3,0-0.5c1.5-3.7,2.4-7.5,2.9-11.5c0.3-2.7,0.6-5.5,0.6-8.2c0-1.8,0.1-3.7,0.1-5.5
		c-0.1-2.9-0.1-5.9-0.5-8.8c-0.5-4.1-1.4-8.2-3.1-12C164.8,0.8,164.7,0.7,164.8,0.5z"/>
	<path class="st2" d="M9.2,47.4c-0.9,0-1.7,0-2.6,0c-0.4,0-0.4-0.2-0.5-0.5c-0.8-1.9-1.6-3.7-2.3-5.6c-1.2-3.3-2.2-6.6-3-10
		c-0.7-3.5-1.1-7-0.8-10.6c0.2-3,0.9-6,1.7-8.9C2.9,8,4.5,4.4,6.2,0.9c0.1-0.2,0.2-0.4,0.5-0.4c0.9,0,1.7,0,2.5,0
		c0.1,0.3,0,0.4-0.1,0.6C7.6,4.5,6.7,7.9,6.2,11.5c-0.4,3.1-0.6,6.3-0.6,9.4c0,2.3,0,4.6,0.1,6.9C5.9,33.2,6.4,38.4,8,43.5
		c0.3,1,0.7,2,1,3C9.1,46.7,9.3,47,9.2,47.4z"/>
	<path class="st3" d="M239.4,59.9c-0.1-0.2,0-0.4,0.1-0.5c0.3-0.5,0.5-1,0.9-1.5c0.5-0.6,1.1-1.1,1.8-1.5c1.2-0.6,2.5-0.9,3.9-1
		c0.3,0,0.6-0.1,0.8-0.3c0.1,0.1,0,0.2,0.1,0.3c0.5,0.3,1.1,0.5,1.8,0.6c-0.2-0.5-0.4-1-0.5-1.4c-0.4,0-0.7,0.3-1,0.5
		c-0.1,0.1-0.2,0.2-0.4,0c1.4-1.7,3.1-2.4,5.3-2.3c0.9,0.1,1.8,0.2,2.6,0.4c0.3,0.1,0.6,0,0.9-0.1c0.7-0.3,1.5-0.6,2.3-0.7
		c1.6-0.3,3,0,4.3,1c0.1,0.1,0.3,0.2,0.4,0.3c0.3,0.3,0.5,0.3,0.9,0.2c1.5-0.3,3-0.3,4.6-0.2c0.2,0,0.3,0.1,0.3,0.3
		c0,0.2-0.1,0.3-0.3,0.3c-0.3-0.1-0.4,0.2-0.5,0.4c-0.2,0.6-0.5,1.2-0.7,1.8c-0.1,0.2-0.2,0.4,0,0.6c0.1,0.1,0,0.2-0.1,0.3
		c-0.1,0.1-0.2,0.1-0.3,0.1c-0.2-0.1-0.3-0.2-0.5-0.3c-1-0.7-2-1.4-2.8-2.4c-0.3,0-0.4,0.2-0.6,0.3c-0.8,0.4-1.5,0.8-2.4,1.1
		c-0.8,0.2-1.5,0.2-2.2-0.1c-0.7-0.3-1.4-0.7-2-1.1c-0.3-0.2-0.7-0.4-1-0.6c-0.3,0.1-0.5,0.4-0.8,0.7c-0.6,0.6-1.2,1.1-1.9,1.5
		c-1,0.7-2,0.9-3.1,0.5c-0.7-0.3-1.4-0.5-2-0.7c-0.2-0.1-0.3-0.1-0.5-0.2c-0.3,0.3-0.4,0.6-0.5,0.9c-0.5,1-1,2-1.4,3
		c-0.1,0.3-0.3,0.4-0.6,0.4c-1.3-0.1-2.5,0.1-3.7,0.5c-0.6,0.2-0.6,0.2-0.6,0.8c0,0.7,0,1.3,0,2c0,0.5,0.2,0.9,0.5,1.1
		c0.1,0.1,0.3,0.2,0.4,0.3c0.3,0.1,0.3,0.3,0.3,0.6c0.2,0.7-0.1,1-0.7,1.3c-1.1,0.6-2.1,1.3-3.1,2.1c-0.2,0.2-0.4,0.4-0.7,0.6
		c0.3,0.6,0.7,0.9,1.2,1.2c1.1,0.7,2.4,1.2,3.7,1.5c-0.1,0.4-0.3,0.6-0.5,0.9c-0.2,0.4-0.2,0.4-0.7,0.3c-0.2,0-0.3-0.1-0.5,0
		c-1.6,0.6-3.2,1.3-4.9,2c0.4,0.9,1,1.7,1.7,2.3c0.2,0.2,0.4,0.1,0.5-0.1c0.8-0.7,1.5-1.5,2.3-2.2c0.1-0.1,0.2-0.3,0.4-0.3l0,0
		c0,0.4-0.2,0.8-0.5,1.1c-0.5,0.5-1,1-1.5,1.5c-0.1,0.1-0.3,0.3-0.4,0.5c0.3,0.3,0.6,0.4,1,0.5c0.2,0.1,0.3,0.2,0.3,0.5
		c-0.1,0.4,0,0.8-0.2,1.2c-1.6-0.9-3-2-3.5-3.8c-0.2-0.8-0.5-1.5-0.6-2.3c-0.1-1.1-0.2-2.3,0.1-3.4c0.1-0.3,0.1-0.5,0.2-0.7
		c0.3-0.6,0.3-1.2,0.2-1.8c0-0.1,0-0.3,0-0.4c0-1.3,0.2-2.6,0.5-3.9c0.3-1.2,1.1-2.1,2.2-2.8c1.3-0.9,2.9-1.3,4.4-1.6
		c0.4-0.1,0.8-0.1,1.2-0.2c-0.2-0.5-0.6-0.7-0.9-1.1c-0.3-0.3-0.6-0.6-1-1c-0.6,0.5-1.1,1.1-1.6,1.7
		C239.8,59.5,239.7,59.8,239.4,59.9L239.4,59.9z M239.9,73.3c-0.9-0.4-1.6-0.8-2.3-1.2c-0.1-0.1-0.3-0.1-0.4-0.1c-0.4,0-0.9,0-1.3,0
		c-0.2,0-0.3,0.1-0.3,0.3c-0.3,0.9-0.3,1.9-0.4,2.9C236.7,74.6,238.2,74,239.9,73.3z M236.3,68.2c0.9-0.7,1.8-1.4,2.8-1.9
		c0.2-0.1,0.4-0.3,0.3-0.5c-0.1-0.3-0.3-0.3-0.5-0.3c-0.9-0.2-1.8-0.4-2.6-0.5c-0.4-0.1-0.6,0-0.7,0.4c-0.1,0.2,0,0.3,0,0.5
		c0.1,0.4,0.2,0.9,0.4,1.3C236,67.4,236,67.8,236.3,68.2z M236.1,64.4c1.1,0.2,2.1,0.4,3.1,0.7c0.1,0,0.2,0,0.2-0.1
		c0-0.4,0.2-0.8-0.2-1.2c-0.5-0.4-1-0.9-1.4-1.3C237,63,236.5,63.6,236.1,64.4z M250.8,56.3c0.6-0.1,1-0.4,1.4-0.7
		c0.1,0,0.1-0.2,0.1-0.3c0.1-0.6,0.4-1.2,0.4-1.8c-0.6-0.2-1.1-0.2-1.7-0.2c-0.4,0-0.4,0.1-0.4,0.5
		C250.7,54.7,250.7,55.5,250.8,56.3z M259.3,55.7c0.2-0.9,0.4-1.8,0.5-2.6c0-0.2,0-0.3-0.2-0.3c-0.3,0-0.7,0-1,0
		c-0.7,0.1-0.7,0.1-0.7,0.7c0,0.2,0,0.5,0,0.7c0,1,0,1,1,1.4C259,55.7,259.1,55.7,259.3,55.7z M244.2,59.5c0.1-1.2,0.1-2.8-0.1-3.3
		c-0.8,0.2-1.5,0.5-2.2,1C242.7,58,243.3,58.8,244.2,59.5z M250.5,56.4c-0.1-0.9,0-1.9-0.2-2.8c-0.1,0-0.2,0-0.3,0.1
		c-0.3,0.1-0.6,0.3-0.9,0.4c-0.8,0.4-0.6,0.3-0.4,1.1C248.9,56.1,249.4,56.5,250.5,56.4z M259.6,55.7c0.9-0.3,1.5-0.7,2.1-1.2
		c0.4-0.3,0.4-0.7,0-1c-0.4-0.3-0.8-0.5-1.3-0.6c-0.2,0-0.3,0-0.3,0.2C260,53.9,259.8,54.7,259.6,55.7z M266.6,56.8
		c0.1-0.2,0.1-0.3,0.2-0.5c0.2-0.6,0.4-1.1,0.6-1.7c0-0.1,0-0.1,0.1-0.2c0-0.1,0-0.2-0.2-0.2c-0.5,0-1-0.1-1.5,0
		c-0.1,0-0.2,0.1-0.2,0.3c-0.4,1.2-0.3,1.4,0.8,2.2C266.4,56.7,266.5,56.8,266.6,56.8z M257.7,54.8c0-0.6,0.1-1.2-0.1-1.8
		c-0.7,0.1-1.3,0.3-2,0.6c0.6,0.4,1.2,0.8,1.8,1.2C257.5,54.9,257.6,54.9,257.7,54.8z M254.5,54c-1.4-0.6-1.4-0.6-1.8,0.8
		c0,0.1-0.1,0.3,0,0.5C253.4,54.9,254,54.5,254.5,54z M238.1,62.2c0.4,0.4,0.8,0.8,1.3,1.1c0-0.7,0-1.3,0-2
		C239,61.6,238.5,61.8,238.1,62.2z M245.7,56.1c-0.3-0.1-0.6,0-0.9,0c-0.2,0-0.3,0.1-0.3,0.3c0,0.3,0,0.7,0,1c0,0.3,0,0.7,0.1,1
		C244.9,57.6,245.3,56.9,245.7,56.1z M264.2,54.6c0.2,0.5,0.6,0.8,1,1.2c0-0.6,0.2-1,0.1-1.5C264.9,54.3,264.5,54.3,264.2,54.6z
		 M235.8,71.6c0.2,0,0.5,0.1,0.9-0.1c-0.2-0.2-0.4-0.3-0.5-0.4c-0.1-0.1-0.2-0.1-0.3,0C235.8,71.3,235.8,71.4,235.8,71.6z"/>
	<path class="st2" d="M248.4,79.3c0.5,0.4,0.7,0.8,0.9,1.1c0.9,1.7,1.5,3.6,1.9,5.5c0.2,1,0.3,1.9,0.4,2.9c0.3,2.2,1,4.2,2.4,5.9
		c0,0.1,0.1,0.1,0.1,0.2c0,0,0,0,0,0.1c0,0-0.1,0-0.1,0c-2.3-0.8-4.1-2.2-4.7-4.7c-0.2-0.6-0.2-1.3-0.3-1.9
		c-0.3-2.6-0.6-5.1-0.7-7.7C248.3,80.3,248.2,79.9,248.4,79.3z"/>
	<path class="st2" d="M258.5,85.4c0.4,0.1,0.7,0.2,0.9,0.4c1.4,0.9,2.5,2,3.5,3.2c0.9,1.1,1.7,2.3,2.4,3.5c0.3,0.6,0.3,0.8-0.1,1.2
		c-0.3,0.4-0.8,0.7-1.2,0.9c-0.5,0.2-0.7,0.2-0.9-0.3c-0.7-1.5-1.4-2.9-2.1-4.4c-0.2-0.4-0.4-0.8-0.6-1.2c-0.3,0.1-0.4,0.3-0.5,0.5
		c-1.3,1.9-2.5,3.8-3.7,5.7c-0.1,0.2-0.2,0.5-0.6,0.6c-0.3-0.4,0.1-0.6,0.2-0.8c1.3-2,2.6-4.1,4-6.1c0.3-0.4,0.3-0.7,0-1
		C259.3,87,259,86.3,258.5,85.4z"/>
	<path class="st3" d="M248.1,79.5c0,0.5,0,1,0,1.5c0,0.3-0.1,0.5-0.3,0.7c-1.7,1.5-3.4,3.1-5,4.6c-0.1,0.1-0.1,0.1-0.2,0.1
		c-0.1,0.1-0.2,0.1-0.3,0c-0.1-0.1-0.1-0.2,0-0.3c0.2-0.2,0.3-0.3,0.5-0.5c1.3-1.2,2.7-2.4,4-3.7c0.1-0.1,0.3-0.2,0.4-0.5
		c-0.4-0.1-2.4-0.2-2.7-0.1c-0.2,0.1-0.3,0.1-0.5,0.2c-0.9,0.5-1.7,1-2.6,1.5c-0.1,0.1-0.3,0.2-0.4,0c-0.1-0.2,0-0.3,0.2-0.4
		c0.5-0.3,1-0.6,1.5-0.9c0.2-0.1,0.4-0.2,0.5-0.4c-0.5,0-1-0.1-1.4-0.1c-0.2,0-0.4,0-0.6,0c-0.3,0-0.4-0.1-0.4-0.4
		c0-0.1,0-0.1,0-0.2c0.1-0.4-0.1-0.9,0.2-1.2c0.3-0.3,0.7-0.1,1.1-0.1c1.8,0,3.6,0,5.3-0.1C247.7,79.4,247.9,79.3,248.1,79.5z"/>
	<path class="st3" d="M242.3,72.7c0.3,0.5,0.4,1,0.7,1.5c0.1,0.2,0,0.4-0.1,0.6c-0.4,0.6-0.8,1.3-1.2,1.9c-1.6,2.7-1.6,5.6-0.5,8.4
		c0.2,0.7,0.6,1.3,0.9,1.9c0.1,0.1,0.1,0.2,0.2,0.4c-0.4-0.1-0.5-0.3-0.7-0.5c-1.4-1.4-2.2-3.1-2.4-5.1c-0.2-2.1,0.1-4.1,1.2-5.9
		c0.5-0.8,0.9-1.7,1.4-2.5C241.9,73.2,242.1,72.9,242.3,72.7z"/>
	<path class="st3" d="M256,87.4c-1.5,0.3-2.8,0.8-4.2,1.1c-0.2-0.5-0.2-1-0.3-1.6c0-0.2,0.1-0.3,0.3-0.4c1.1-0.4,2.3-0.9,3.5-1.2
		c1-0.2,1.9,0,2.8,0.4c0.1,0.1,0.2,0.1,0.3,0.2c0.2,0.2,0.2,0.4,0,0.5c-0.3,0.2-0.7,0.4-1.1,0.5c-0.5,0.1-0.7,0.4-1,0.8
		c-0.9,1.6-1.9,3.2-2.9,4.9c-0.1,0.1-0.2,0.4-0.4,0.3c-0.2-0.1-0.1-0.4,0-0.5c0.8-1.3,1.6-2.7,2.4-4C255.6,88.1,255.7,87.8,256,87.4
		z"/>
	<path class="st3" d="M248.2,84.5c0.2,0.4,0,0.6-0.1,0.9c-0.5,0.6-1,1.2-1.5,1.8c-0.1,0.1-0.2,0.2-0.2,0.4c0.4,0.1,0.8,0,1.2,0
		c1.2-0.2,1.2-0.1,1.3,1.1c0,0.4,0,0.4-0.4,0.5c-1.8,0.2-3.4-0.3-4.8-1.5c-0.1-0.1-0.3-0.2-0.3-0.4c0.3-0.1,0.6,0.1,0.9,0.2
		c1.3,0.3,1.3,0.3,2.1-0.7C247,86.1,247.6,85.3,248.2,84.5z"/>
	<path class="st3" d="M239.4,59.9c0,0.1,0,0.1,0,0.2c0,0-0.1,0-0.1-0.1C239.3,60,239.3,59.9,239.4,59.9
		C239.4,59.9,239.4,59.9,239.4,59.9z"/>
	<path class="st3" d="M240.2,75.3c0,0,0-0.1,0.1-0.1C240.3,75.3,240.3,75.3,240.2,75.3L240.2,75.3z"/>
</g>
</svg>
