<?xml version="1.0" encoding="utf-8"?>
<!-- Generator: Adobe Illustrator 13.0.1, SVG Export Plug-In . SVG Version: 6.00 Build 14948)  -->
<!DOCTYPE svg PUBLIC "-//W3C//DTD SVG 1.1//EN" "http://www.w3.org/Graphics/SVG/1.1/DTD/svg11.dtd">
<svg version="1.1" xmlns="http://www.w3.org/2000/svg" xmlns:xlink="http://www.w3.org/1999/xlink" x="0px" y="0px"
	 width="676.845px" height="165.731px" viewBox="0 0 676.845 165.731" enable-background="new 0 0 676.845 165.731"
	 xml:space="preserve">
<symbol  id="Bush_Left" viewBox="-43.3 -24.308 86.601 48.615">
	<g>
		<g>
			<path fill="#009036" d="M-33.888-3.511c8.299,8.895,13.237,21.557,13.237,21.557c-3.489-10.506-7.56-15.73-14.272-24.22
				L-33.888-3.511z"/>
			<path fill="#009036" d="M-30.487,3.161c0.297,2.265,2.376,11.441,2.376,11.441l-2.153-5.593
				c-0.479-2.881,0.761-5.555,0.447-7.952L-30.487,3.161z"/>
			<path fill="#009036" d="M-27.667,8.564c0.297,2.266,1.726,9.829,1.726,9.829l-0.53-3.791c0-2.44-0.211-5.744-0.526-8.142
				L-27.667,8.564z"/>
			<path fill="#009036" d="M-24.188,13.377c0.216,1.381,3.051,6.613,3.051,6.613l-2.181-2.933c0-1.487-0.154-3.501-0.382-4.963
				L-24.188,13.377z"/>
			<path fill="#009036" d="M-21.167,18.075c0.602,1.176,2.76,6.232,2.76,6.232l-1.281-3.51c-0.313-1.289-0.958-3.02-1.595-4.265
				L-21.167,18.075z"/>
			<path fill="#009036" d="M-26.043,10.332c0.297,2.266,1.726,9.828,1.726,9.828l-1.161-4.837c0-2.441,0.42-4.697,0.105-7.095
				L-26.043,10.332z"/>
			<path fill="#009036" d="M-24.522,3.487c1.421,0.866,6.495,3.396,6.495,3.396l-3.35-2.195c-1.774-1.165-5.323-0.627-6.827-1.544
				L-24.522,3.487z"/>
			<path fill="#009036" d="M-21.855,6.884c1.898,1.261,6.128,5.077,6.128,5.077l-3.163-2.14c-2.187-1.069-5.052-2.709-7.062-4.043
				L-21.855,6.884z"/>
			<path fill="#009036" d="M-21.837,13.088c1.036,0.934,3.865,6.169,3.865,6.169l-1.263-3.432c-1.244-0.811-2.842-2.037-3.939-3.025
				L-21.837,13.088z"/>
			<path fill="#009036" d="M-23.271,9.473c1.577,1.009,5.962,5.851,5.962,5.851l-2.632-3.877c-1.816-0.857-3.47-1.16-5.14-2.229
				L-23.271,9.473z"/>
			<path fill="#009036" d="M-32.966,0.366c0.297,2.265,1.6,12.736,1.6,12.736l-1.376-6.888c-0.479-2.881,0.762-5.555,0.447-7.952
				L-32.966,0.366z"/>
			<path fill="#009036" d="M-34.966-1.264c0.297,2.266,1.599,12.736,1.599,12.736l-1.376-6.887
				c-0.479-2.882,0.761-5.556,0.447-7.953L-34.966-1.264z"/>
			<path fill="#009036" d="M-29.402-0.557c1.549,0.605,10.179,4.284,10.179,4.284l-4.82-3.121c-1.949-0.838-5.362-0.453-7.002-1.095
				L-29.402-0.557z"/>
			<path fill="#009036" d="M-29.97-3.318c1.727,0.743,9.727,4.106,9.727,4.106l-5.13-2.746c-2.171-1.049-4.612-0.291-6.44-1.078
				L-29.97-3.318z"/>
		</g>
		<g>
			<path fill="#009036" d="M-41.108-9.821c17.332-2.827,35.766-10.603,35.766-10.603C-18.811-13.763-28.099-11.68-43.3-8.345
				L-41.108-9.821z"/>
			<path fill="#009036" d="M-29.852-13.562c2.399-1.676,13.091-8.003,13.091-8.003l-7.499,3.39
				c-3.164,2.079-4.231,4.895-6.771,6.668L-29.852-13.562z"/>
			<path fill="#009036" d="M-21.787-16.448c2.399-1.676,10.895-7.041,10.895-7.041l-4.051,2.787
				c-2.23,1.975-5.483,4.535-8.022,6.309L-21.787-16.448z"/>
			<path fill="#009036" d="M-13.531-18.509c1.501-1.004,9.426-3.744,9.426-3.744l-5.098,1.225c-1.36,1.204-3.371,2.751-4.96,3.813
				L-13.531-18.509z"/>
			<path fill="#009036" d="M-5.888-20.719c1.742-0.635,8.756-3.589,8.756-3.589l-4.628,2.165c-1.525,0.878-3.821,1.938-5.666,2.609
				L-5.888-20.719z"/>
			<path fill="#009036" d="M-18.371-17.022c2.399-1.676,10.895-7.041,10.895-7.041l-5.708,3.301
				c-2.23,1.975-3.826,4.021-6.366,5.795L-18.371-17.022z"/>
			<path fill="#009036" d="M-22.937-10.686c2.367,0.047,10.307,0.671,10.307,0.671l-5.722,0.014
				c-3.032,0.008-6.476-2.295-8.982-2.345L-22.937-10.686z"/>
			<path fill="#009036" d="M-16.876-12.029c3.258-0.021,11.436-0.882,11.436-0.882l-5.462,0.066
				c-3.403-0.285-8.078-0.468-11.526-0.445L-16.876-12.029z"/>
			<path fill="#009036" d="M-11.188-17.037c2.003-0.21,9.925-2.956,9.925-2.956L-5.8-17.882c-2.12,0.001-5.014,0.151-7.134,0.374
				L-11.188-17.037z"/>
			<path fill="#009036" d="M-16.082-14.868c2.671,0.014,11.958-1.595,11.958-1.595l-6.461,1.751
				c-2.797-0.263-4.908-0.889-7.736-0.902L-16.082-14.868z"/>
			<path fill="#009036" d="M-35.155-12.604c2.399-1.677,13.411-9.46,13.411-9.46l-7.819,4.846c-3.163,2.079-4.231,4.895-6.771,6.668
				L-35.155-12.604z"/>
			<path fill="#009036" d="M-38.862-12.34c2.399-1.676,13.412-9.46,13.412-9.46l-7.819,4.847c-3.164,2.079-4.231,4.894-6.771,6.668
				L-38.862-12.34z"/>
			<path fill="#009036" d="M-32.045-9.983c2.271,0.326,15.205,1.893,15.205,1.893l-8.198-0.013c-2.927-0.348-6.361-2.455-8.766-2.8
				L-32.045-9.983z"/>
			<path fill="#009036" d="M-35.199-8.048C-32.604-7.74-20.658-6.25-20.658-6.25l-8.2-0.479c-3.366-0.294-5.381-2.191-8.127-2.518
				L-35.199-8.048z"/>
		</g>
		<g>
			<path fill="#009036" d="M-20.024-4.793c13.512-1.991,27.731-7.055,27.731-7.055c-10.5,4.69-17.742,6.158-29.593,8.506
				L-20.024-4.793z"/>
			<path fill="#009036" d="M-11.401-7.015c1.871-1.181,10.206-5.637,10.206-5.637l-5.846,2.388C-9.508-8.8-10.341-6.817-12.32-5.568
				L-11.401-7.015z"/>
			<path fill="#009036" d="M-5.113-9.048c1.87-1.18,8.494-4.958,8.494-4.958l-3.158,1.963c-1.739,1.39-4.275,3.192-6.255,4.442
				L-5.113-9.048z"/>
			<path fill="#009036" d="M1.323-10.499c1.17-0.707,7.349-2.637,7.349-2.637l-3.975,0.862c-1.06,0.848-2.627,1.938-3.867,2.686
				L1.323-10.499z"/>
			<path fill="#009036" d="M7.281-12.056c1.358-0.447,6.827-2.527,6.827-2.527L10.5-13.059c-1.189,0.618-2.979,1.365-4.417,1.838
				L7.281-12.056z"/>
			<path fill="#009036" d="M-2.451-9.452c1.871-1.181,8.494-4.959,8.494-4.959l-4.45,2.325c-1.739,1.391-2.982,2.831-4.962,4.08
				L-2.451-9.452z"/>
			<path fill="#009036" d="M-6.011-4.99c1.846,0.033,8.036,0.473,8.036,0.473l-4.46,0.01c-2.364,0.006-5.049-1.616-7.002-1.651
				L-6.011-4.99z"/>
			<path fill="#009036" d="M-1.285-5.937c2.54-0.015,8.916-0.62,8.916-0.62L3.372-6.511c-2.653-0.2-6.298-0.329-8.986-0.313
				L-1.285-5.937z"/>
			<path fill="#009036" d="M3.15-9.463c1.562-0.148,7.737-2.082,7.737-2.082L7.35-10.058c-1.653,0.001-3.909,0.106-5.562,0.263
				L3.15-9.463z"/>
			<path fill="#009036" d="M-0.666-7.936c2.083,0.01,9.323-1.123,9.323-1.123L3.62-7.825C1.439-8.011-0.207-8.451-2.411-8.461
				L-0.666-7.936z"/>
			<path fill="#009036" d="M-15.536-6.342c1.871-1.18,10.456-6.661,10.456-6.661l-6.096,3.412c-2.466,1.464-3.299,3.446-5.278,4.696
				L-15.536-6.342z"/>
			<path fill="#009036" d="M-18.426-6.154c1.87-1.181,10.456-6.662,10.456-6.662l-6.096,3.413c-2.466,1.464-3.299,3.446-5.279,4.695
				L-18.426-6.154z"/>
			<path fill="#009036" d="M-13.112-4.495c1.771,0.229,11.854,1.332,11.854,1.332l-6.392-0.009
				c-2.282-0.245-4.959-1.729-6.834-1.972L-13.112-4.495z"/>
			<path fill="#009036" d="M-15.57-3.133c2.022,0.217,11.336,1.267,11.336,1.267l-6.393-0.338c-2.625-0.207-4.195-1.543-6.336-1.772
				L-15.57-3.133z"/>
		</g>
		<g>
			<path fill="#009036" d="M1.652-2.056c12.235-1.712,25.111-6.067,25.111-6.067C17.255-4.089,10.698-2.826-0.033-0.807L1.652-2.056
				z"/>
			<path fill="#009036" d="M9.46-3.967c1.694-1.015,9.241-4.848,9.241-4.848l-5.293,2.054c-2.233,1.259-2.987,2.964-4.78,4.039
				L9.46-3.967z"/>
			<path fill="#009036" d="M15.154-5.715c1.694-1.016,7.691-4.266,7.691-4.266l-2.859,1.688c-1.575,1.196-3.871,2.747-5.664,3.821
				L15.154-5.715z"/>
			<path fill="#009036" d="M20.982-6.964c1.06-0.607,6.654-2.268,6.654-2.268L24.038-8.49c-0.96,0.729-2.379,1.667-3.501,2.311
				L20.982-6.964z"/>
			<path fill="#009036" d="M26.378-8.303c1.23-0.385,6.182-2.174,6.182-2.174l-3.268,1.312c-1.076,0.532-2.697,1.174-4,1.581
				L26.378-8.303z"/>
			<path fill="#009036" d="M17.565-6.063c1.694-1.015,7.691-4.266,7.691-4.266l-4.029,2c-1.575,1.196-2.701,2.436-4.494,3.511
				L17.565-6.063z"/>
			<path fill="#009036" d="M14.342-2.225c1.671,0.028,7.276,0.406,7.276,0.406L17.579-1.81C15.438-1.805,13.007-3.2,11.238-3.23
				L14.342-2.225z"/>
			<path fill="#009036" d="M18.621-3.038c2.3-0.013,8.073-0.534,8.073-0.534l-3.856,0.04c-2.402-0.173-5.703-0.283-8.137-0.271
				L18.621-3.038z"/>
			<path fill="#009036" d="M22.637-6.072c1.414-0.127,7.006-1.791,7.006-1.791l-3.204,1.279c-1.496,0.001-3.539,0.092-5.036,0.227
				L22.637-6.072z"/>
			<path fill="#009036" d="M19.182-4.758c1.886,0.008,8.442-0.966,8.442-0.966l-4.562,1.061c-1.975-0.159-3.465-0.539-5.461-0.547
				L19.182-4.758z"/>
			<path fill="#009036" d="M5.717-3.387c1.694-1.016,9.468-5.731,9.468-5.731l-5.52,2.937c-2.233,1.259-2.987,2.964-4.78,4.039
				L5.717-3.387z"/>
			<path fill="#009036" d="M3.1-3.227c1.694-1.015,9.468-5.73,9.468-5.73l-5.52,2.936c-2.233,1.26-2.987,2.965-4.78,4.04L3.1-3.227z
				"/>
			<path fill="#009036" d="M7.912-1.799c1.604,0.197,10.733,1.146,10.733,1.146L12.858-0.66c-2.066-0.211-4.49-1.487-6.188-1.696
				L7.912-1.799z"/>
			<path fill="#009036" d="M5.686-0.627C7.518-0.44,15.951,0.462,15.951,0.462l-5.789-0.29C7.786-0.006,6.364-1.155,4.425-1.353
				L5.686-0.627z"/>
		</g>
		<g>
			<path fill="#009036" d="M14.001,2.836c11.079-1.473,22.738-5.22,22.738-5.22C28.13,1.087,22.192,2.173,12.475,3.91L14.001,2.836z
				"/>
			<path fill="#009036" d="M21.072,1.192c1.534-0.873,8.368-4.171,8.368-4.171l-4.793,1.767c-2.022,1.083-2.705,2.551-4.328,3.475
				L21.072,1.192z"/>
			<path fill="#009036" d="M26.228-0.312c1.534-0.874,6.964-3.67,6.964-3.67l-2.589,1.453c-1.426,1.028-3.505,2.362-5.128,3.287
				L26.228-0.312z"/>
			<path fill="#009036" d="M31.505-1.386c0.96-0.523,6.026-1.951,6.026-1.951l-3.259,0.638c-0.869,0.628-2.154,1.434-3.17,1.987
				L31.505-1.386z"/>
			<path fill="#009036" d="M36.391-2.538c1.114-0.331,5.598-1.87,5.598-1.87l-2.959,1.129c-0.975,0.457-2.442,1.009-3.622,1.359
				L36.391-2.538z"/>
			<path fill="#009036" d="M28.411-0.611c1.534-0.873,6.964-3.669,6.964-3.669l-3.649,1.72c-1.426,1.029-2.446,2.095-4.069,3.02
				L28.411-0.611z"/>
			<path fill="#009036" d="M25.492,2.69c1.513,0.024,6.589,0.35,6.589,0.35l-3.658,0.007c-1.938,0.005-4.14-1.195-5.742-1.222
				L25.492,2.69z"/>
			<path fill="#009036" d="M29.367,1.99c2.083-0.011,7.31-0.459,7.31-0.459l-3.492,0.034c-2.175-0.148-5.164-0.243-7.368-0.232
				L29.367,1.99z"/>
			<path fill="#009036" d="M33.003-0.619c1.28-0.109,6.344-1.54,6.344-1.54l-2.9,1.1c-1.355,0.001-3.205,0.079-4.56,0.195
				L33.003-0.619z"/>
			<path fill="#009036" d="M29.875,0.511c1.708,0.008,7.645-0.83,7.645-0.83l-4.13,0.912c-1.788-0.137-3.138-0.463-4.945-0.471
				L29.875,0.511z"/>
			<path fill="#009036" d="M17.682,1.69c1.534-0.873,8.573-4.93,8.573-4.93l-4.998,2.525c-2.022,1.084-2.705,2.551-4.328,3.475
				L17.682,1.69z"/>
			<path fill="#009036" d="M15.312,1.829c1.533-0.873,8.573-4.93,8.573-4.93l-4.999,2.525c-2.022,1.083-2.705,2.55-4.328,3.475
				L15.312,1.829z"/>
			<path fill="#009036" d="M19.669,3.057c1.452,0.17,9.72,0.986,9.72,0.986l-5.241-0.007c-1.871-0.181-4.066-1.279-5.604-1.459
				L19.669,3.057z"/>
			<path fill="#009036" d="M17.654,4.065c1.658,0.16,9.295,0.937,9.295,0.937l-5.242-0.249C19.556,4.6,18.268,3.61,16.512,3.44
				L17.654,4.065z"/>
		</g>
		<g>
			<path fill="#009036" d="M-16.823,0.146C-9.209,6.411-2.933,16.13-2.933,16.13C-7.012,7.951-10.858,4.172-17.184-1.957
				L-16.823,0.146z"/>
			<path fill="#009036" d="M-12.52,5.146c0.525,1.819,3.334,9.083,3.334,9.083l-2.402-4.317c-0.747-2.303-0.128-4.646-0.684-6.572
				L-12.52,5.146z"/>
			<path fill="#009036" d="M-9.624,9.226c0.525,1.82,2.619,7.842,2.619,7.842l-0.904-3.041c-0.317-2.001-0.91-4.681-1.466-6.607
				L-9.624,9.226z"/>
			<path fill="#009036" d="M-6.292,12.74c0.347,1.105,3.232,5.044,3.232,5.044l-2.078-2.135c-0.193-1.22-0.574-2.851-0.942-4.021
				L-6.292,12.74z"/>
			<path fill="#009036" d="M-3.331,16.218c0.621,0.89,2.957,4.768,2.957,4.768l-1.453-2.719c-0.411-1.018-1.138-2.355-1.795-3.298
				L-3.331,16.218z"/>
			<path fill="#009036" d="M-8.131,10.474c0.525,1.819,2.619,7.841,2.619,7.841l-1.532-3.82c-0.317-2-0.283-3.9-0.839-5.827
				L-8.131,10.474z"/>
			<path fill="#009036" d="M-7.835,4.678C-6.617,5.212-2.339,6.66-2.339,6.66l-2.892-1.387c-1.532-0.735-4.224,0.143-5.514-0.423
				L-7.835,4.678z"/>
			<path fill="#009036" d="M-5.318,7.132c1.641,0.8,5.428,3.405,5.428,3.405l-2.739-1.363C-4.47,8.566-6.913,7.576-8.65,6.73
				L-5.318,7.132z"/>
			<path fill="#009036" d="M-4.499,12.213c0.928,0.638,3.809,4.58,3.809,4.58l-1.429-2.657c-1.073-0.511-2.477-1.318-3.458-1.994
				L-4.499,12.213z"/>
			<path fill="#009036" d="M-6.085,9.428c1.358,0.633,5.4,4.06,5.4,4.06l-2.551-2.853c-1.524-0.479-2.852-0.522-4.29-1.192
				L-6.085,9.428z"/>
			<path fill="#009036" d="M-14.812,3.16c0.525,1.82,2.898,10.24,2.898,10.24l-1.965-5.475c-0.746-2.302-0.128-4.646-0.684-6.572
				L-14.812,3.16z"/>
			<path fill="#009036" d="M-16.581,2.071c0.525,1.82,2.898,10.24,2.898,10.24l-1.965-5.475c-0.747-2.302-0.128-4.646-0.685-6.572
				L-16.581,2.071z"/>
			<path fill="#009036" d="M-12.158,1.965c1.284,0.306,8.479,2.256,8.479,2.256l-4.157-1.964c-1.625-0.445-4.232,0.29-5.592-0.033
				L-12.158,1.965z"/>
			<path fill="#009036" d="M-12.959-0.229c1.441,0.396,8.104,2.166,8.104,2.166l-4.35-1.617c-1.826-0.593-3.627,0.329-5.152-0.09
				L-12.959-0.229z"/>
		</g>
		<g>
			<path fill="#009036" d="M-1.735,1.377c5.016,5.233,8.85,13.008,8.85,13.008C4.747,7.917,2.253,4.807-1.853-0.243L-1.735,1.377z"
				/>
			<path fill="#009036" d="M1.003,5.443c0.254,1.415,1.776,7.109,1.776,7.109l-1.427-3.43C0.972,7.327,1.569,5.584,1.3,4.086
				L1.003,5.443z"/>
			<path fill="#009036" d="M2.798,8.724c0.254,1.415,1.348,6.121,1.348,6.121l-0.443-2.367C3.61,10.938,3.365,8.864,3.096,7.366
				L2.798,8.724z"/>
			<path fill="#009036" d="M4.943,11.601c0.174,0.861,1.972,4.033,1.972,4.033l-1.341-1.751c-0.057-0.938-0.22-2.201-0.405-3.113
				L4.943,11.601z"/>
			<path fill="#009036" d="M6.825,14.427c0.384,0.715,1.793,3.807,1.793,3.807l-0.856-2.156c-0.226-0.799-0.655-1.86-1.062-2.617
				L6.825,14.427z"/>
			<path fill="#009036" d="M3.781,9.765c0.254,1.415,1.348,6.121,1.348,6.121L4.29,12.887c-0.093-1.539,0.057-2.981-0.212-4.479
				L3.781,9.765z"/>
			<path fill="#009036" d="M4.377,5.378c0.834,0.481,3.79,1.847,3.79,1.847L6.195,5.992C5.151,5.339,3.172,5.839,2.289,5.329
				L4.377,5.378z"/>
			<path fill="#009036" d="M6.01,7.399c1.118,0.709,3.647,2.924,3.647,2.924L7.793,9.117C6.52,8.542,4.843,7.639,3.659,6.888
				L6.01,7.399z"/>
			<path fill="#009036" d="M6.257,11.312c0.62,0.542,2.414,3.716,2.414,3.716L7.828,12.92c-0.731-0.455-1.679-1.155-2.335-1.729
				L6.257,11.312z"/>
			<path fill="#009036" d="M5.311,9.097c0.927,0.564,3.583,3.419,3.583,3.419l-1.631-2.326c-1.056-0.457-2-0.573-2.981-1.172
				L5.311,9.097z"/>
			<path fill="#009036" d="M-0.5,3.793c0.254,1.416,1.388,7.961,1.388,7.961l-1.039-4.281c-0.38-1.796,0.217-3.539-0.052-5.037
				L-0.5,3.793z"/>
			<path fill="#009036" d="M-1.69,2.856c0.254,1.415,1.388,7.961,1.388,7.961l-1.039-4.281c-0.38-1.796,0.217-3.539-0.052-5.037
				L-1.69,2.856z"/>
			<path fill="#009036" d="M1.472,3.049c0.896,0.312,5.9,2.239,5.9,2.239L4.537,3.539c-1.13-0.44-3.039-0.042-3.988-0.372
				L1.472,3.049z"/>
			<path fill="#009036" d="M1.047,1.333C2.048,1.724,6.685,3.48,6.685,3.48L3.689,1.981c-1.264-0.562-2.61,0.026-3.67-0.387
				L1.047,1.333z"/>
		</g>
		<g>
			<path fill="#009036" d="M10.392,4.123c5.327,4.498,9.139,10.947,9.139,10.947c-2.24-5.312-4.853-7.954-9.162-12.247L10.392,4.123
				z"/>
			<path fill="#009036" d="M13.217,7.543c0.191,1.146,1.526,5.786,1.526,5.786l-1.382-2.828c-0.307-1.457,0.489-2.809,0.287-4.021
				L13.217,7.543z"/>
			<path fill="#009036" d="M15.027,10.275c0.19,1.146,1.108,4.971,1.108,4.971l-0.34-1.917c0-1.234-0.136-2.904-0.338-4.117
				L15.027,10.275z"/>
			<path fill="#009036" d="M17.261,12.709c0.139,0.698,1.958,3.345,1.958,3.345l-1.399-1.483c0-0.752-0.099-1.771-0.246-2.51
				L17.261,12.709z"/>
			<path fill="#009036" d="M19.2,15.085c0.386,0.595,1.772,3.151,1.772,3.151l-0.822-1.774c-0.201-0.652-0.615-1.526-1.024-2.156
				L19.2,15.085z"/>
			<path fill="#009036" d="M16.07,11.17c0.19,1.145,1.108,4.97,1.108,4.97l-0.746-2.446c0-1.234,0.27-2.375,0.068-3.588L16.07,11.17
				z"/>
			<path fill="#009036" d="M17.046,7.708c0.912,0.438,4.169,1.718,4.169,1.718l-2.15-1.11c-1.139-0.589-3.417-0.316-4.382-0.78
				L17.046,7.708z"/>
			<path fill="#009036" d="M18.758,9.426c1.219,0.638,3.934,2.567,3.934,2.567l-2.03-1.082c-1.404-0.541-3.243-1.369-4.533-2.045
				L18.758,9.426z"/>
			<path fill="#009036" d="M18.77,12.562c0.666,0.473,2.481,3.12,2.481,3.12l-0.811-1.735c-0.798-0.41-1.825-1.03-2.529-1.53
				L18.77,12.562z"/>
			<path fill="#009036" d="M17.849,10.734c1.012,0.511,3.828,2.959,3.828,2.959l-1.689-1.961c-1.166-0.433-2.228-0.586-3.299-1.126
				L17.849,10.734z"/>
			<path fill="#009036" d="M11.626,6.13c0.19,1.146,1.026,6.44,1.026,6.44l-0.883-3.482c-0.307-1.457,0.489-2.81,0.287-4.021
				L11.626,6.13z"/>
			<path fill="#009036" d="M10.342,5.306c0.19,1.146,1.027,6.44,1.027,6.44l-0.884-3.482c-0.307-1.457,0.489-2.81,0.287-4.021
				L10.342,5.306z"/>
			<path fill="#009036" d="M13.914,5.663c0.995,0.307,6.534,2.167,6.534,2.167l-3.094-1.579c-1.251-0.423-3.442-0.229-4.495-0.553
				L13.914,5.663z"/>
			<path fill="#009036" d="M13.549,4.267c1.108,0.376,6.245,2.077,6.245,2.077L16.5,4.954c-1.394-0.53-2.96-0.146-4.134-0.545
				L13.549,4.267z"/>
		</g>
		<g>
			<path fill="#009036" d="M22.362,7.215c9.256,2.037,17.473,6.526,17.473,6.526C34.255,9.674,29.5,8.267,21.691,6.004L22.362,7.215
				z"/>
			<path fill="#009036" d="M27.781,9.267c0.817,0.997,4.87,4.805,4.87,4.805l-3.222-2.087c-1.125-1.242-0.74-2.838-1.605-3.893
				L27.781,9.267z"/>
			<path fill="#009036" d="M31.521,11.089c0.817,0.997,3.916,4.211,3.916,4.211l-1.395-1.66c-0.609-1.158-1.613-2.67-2.478-3.726
				L31.521,11.089z"/>
			<path fill="#009036" d="M35.671,12.457c0.528,0.599,4.237,2.336,4.237,2.336l-2.581-0.817c-0.372-0.707-1.004-1.622-1.563-2.256
				L35.671,12.457z"/>
			<path fill="#009036" d="M39.405,13.892c0.804,0.4,3.896,2.231,3.896,2.231l-1.962-1.328c-0.587-0.53-1.566-1.181-2.417-1.604
				L39.405,13.892z"/>
			<path fill="#009036" d="M33.338,11.5c0.817,0.997,3.916,4.211,3.916,4.211l-2.191-1.99c-0.609-1.159-0.816-2.34-1.681-3.396
				L33.338,11.5z"/>
			<path fill="#009036" d="M32.921,7.851c1.421,0.037,6.354-0.098,6.354-0.098l-3.388-0.16c-1.795-0.086-4.669,1.104-6.174,1.064
				L32.921,7.851z"/>
			<path fill="#009036" d="M36.029,8.761c1.925,0.099,6.463,0.797,6.463,0.797l-3.215-0.183c-2.121,0.067-4.959,0.044-6.997-0.061
				L36.029,8.761z"/>
			<path fill="#009036" d="M37.593,11.701c1.112,0.17,4.817,1.91,4.817,1.91l-1.928-1.297c-1.256-0.057-2.918-0.218-4.095-0.398
				L37.593,11.701z"/>
			<path fill="#009036" d="M35.475,10.362c1.589,0.064,6.515,1.207,6.515,1.207l-3.199-1.146c-1.753,0.071-3.232,0.362-4.914,0.295
				L35.475,10.362z"/>
			<path fill="#009036" d="M24.982,8.593c0.817,0.997,4.534,5.624,4.534,5.624l-2.885-2.907c-1.125-1.241-0.741-2.837-1.605-3.892
				L24.982,8.593z"/>
			<path fill="#009036" d="M22.879,8.346c0.817,0.997,4.534,5.624,4.534,5.624l-2.885-2.906c-1.125-1.242-0.741-2.838-1.605-3.893
				L22.879,8.346z"/>
			<path fill="#009036" d="M27.773,7.216c1.465-0.12,9.7-0.646,9.7-0.646l-4.866-0.212c-1.861,0.115-4.66,1.196-6.21,1.324
				L27.773,7.216z"/>
			<path fill="#009036" d="M26.603,6.055c1.649-0.102,9.272-0.611,9.272-0.611L30.84,5.49c-2.103,0.074-3.983,1.076-5.729,1.185
				L26.603,6.055z"/>
		</g>
	</g>
</symbol>
<g id="Capa_1">
</g>
<g id="Fondo">
</g>
<g id="Guías">
</g>
<g id="Primer_plano">
</g>
<g id="Foreground">
	<circle fill-rule="evenodd" clip-rule="evenodd" fill="#002369" cx="123.785" cy="87.375" r="65.702"/>
	<g>
		<path fill="#002369" d="M217.902,26.416h11.922c5.035,0,6.919,1.754,6.919,5.1c0,2.924-1.462,4.84-4.256,5.587h-0.032v0.065
			c2.144,0.455,3.508,2.501,3.508,4.645c0,5.588-4.483,7.797-9.551,7.797h-13.319L217.902,26.416z M221.216,44.088h4.581
			c1.267,0,3.021-0.455,3.021-2.339c0-1.722-1.267-1.981-2.761-1.981h-3.931L221.216,44.088z M223.002,35.447h4.028
			c1.137,0,2.566-0.422,2.566-1.852c0-1.397-0.942-1.657-2.209-1.657h-3.671L223.002,35.447z"/>
		<path fill="#002369" d="M239.441,37.851c1.007-4.483,4.483-5.523,8.609-5.523c3.054,0,8.187,0.39,8.187,4.483
			c0,2.631-2.047,10.201-2.047,11.305c0.13,1.299,0,0.714,0.26,1.494h-6.302c-0.163-0.52-0.26-1.072-0.228-1.625h-0.065
			c-1.137,1.365-3.313,2.047-5.198,2.047c-2.891,0-5.458-1.267-5.458-4.483c0-4.451,3.313-5.653,8.154-6.01
			c1.819-0.13,4.71,0.13,4.71-1.949c0-1.169-1.04-1.461-2.014-1.461c-1.299,0-2.209,0.455-2.566,1.722H239.441z M245.679,46.232
			c2.177,0,3.054-1.592,3.444-4.093c-1.04,0.52-2.242,0.649-3.411,0.747c-1.072,0.098-2.079,0.65-2.079,1.884
			C243.632,45.94,244.639,46.232,245.679,46.232z"/>
		<path fill="#002369" d="M260.948,32.75h6.237l-0.552,2.631h0.065c1.137-1.787,3.249-3.054,4.906-3.054
			c1.072,0,1.689,0.065,2.274,0.26l-1.202,5.685c-0.78-0.292-1.657-0.422-2.469-0.422c-2.729,0-4.093,1.169-4.84,4.71l-1.462,7.049
			h-6.433L260.948,32.75z"/>
		<path fill="#002369" d="M284.857,39.15c0.033-0.812-0.097-1.332-0.455-1.657c-0.325-0.357-0.877-0.487-1.625-0.487
			c-2.793,0-3.541,3.671-3.541,5.263s0.357,3.086,2.209,3.086c1.754,0,2.469-1.527,2.826-2.469h6.172
			c-1.104,4.808-4.191,7.147-9.063,7.147c-7.147,0-8.577-4.548-8.577-7.699c0-5.75,3.736-10.006,10.168-10.006
			c4.678,0,8.154,2.112,8.056,6.822H284.857z"/>
		<path fill="#002369" d="M309.417,44.706c-0.422,1.137-1.689,5.328-8.966,5.328c-5.977,0-8.381-3.346-8.381-7.439
			c0-7.731,5.913-10.266,10.104-10.266c3.736,0,8.251,2.079,8.251,7.375c0,0.91-0.032,1.884-0.325,2.924h-12.02
			c0,1.787,0.617,3.281,2.631,3.281c1.396,0,2.209-0.617,2.534-1.202H309.417z M304.35,39.28c0.033-0.163,0.065-0.39,0.065-0.552
			c0-1.267-0.812-2.274-2.437-2.274c-1.722,0-2.858,1.04-3.346,2.826H304.35z"/>
		<path fill="#002369" d="M316.598,26.416h6.432l-4.808,23.195h-6.432L316.598,26.416z"/>
		<path fill="#002369" d="M333.166,32.328c4.938,0,8.187,2.274,8.187,7.375c0,4.321-2.404,10.331-10.169,10.331
			c-4.646,0-8.414-2.242-8.414-7.894C322.77,36.747,326.278,32.328,333.166,32.328z M331.477,45.355
			c2.534,0,3.443-3.736,3.443-5.198c0-2.014-0.52-3.151-2.241-3.151c-2.566,0-3.477,3.866-3.477,5.62
			C329.202,43.991,329.657,45.355,331.477,45.355z"/>
		<path fill="#002369" d="M345.836,32.75h6.205l-0.487,2.144h0.064c1.234-1.527,3.184-2.566,5.23-2.566
			c2.956,0,5.49,1.235,5.49,4.548c0,0.747-0.195,1.981-0.455,3.216l-2.047,9.519h-6.432l1.656-7.731
			c0.195-0.975,0.521-2.112,0.521-2.794c0-1.072-0.78-1.625-1.819-1.625c-2.047,0-2.729,1.462-3.119,3.216l-1.884,8.934h-6.433
			L345.836,32.75z"/>
		<path fill="#002369" d="M365.815,37.851c1.007-4.483,4.483-5.523,8.609-5.523c3.053,0,8.186,0.39,8.186,4.483
			c0,2.631-2.046,10.201-2.046,11.305c0.13,1.299,0,0.714,0.26,1.494h-6.303c-0.162-0.52-0.26-1.072-0.228-1.625h-0.064
			c-1.137,1.365-3.313,2.047-5.198,2.047c-2.891,0-5.457-1.267-5.457-4.483c0-4.451,3.313-5.653,8.153-6.01
			c1.819-0.13,4.711,0.13,4.711-1.949c0-1.169-1.039-1.461-2.014-1.461c-1.3,0-2.21,0.455-2.566,1.722H365.815z M372.053,46.232
			c2.177,0,3.054-1.592,3.443-4.093c-1.039,0.52-2.241,0.649-3.411,0.747c-1.071,0.098-2.079,0.65-2.079,1.884
			C370.006,45.94,371.014,46.232,372.053,46.232z"/>
		<path fill="#002369" d="M228.135,70.698c0.033-0.942-0.292-1.527-0.812-1.917c-0.52-0.39-1.267-0.52-2.079-0.52
			c-1.202,0-2.761,0.357-2.761,1.884c0,1.754,3.476,1.852,5.75,2.664c4.028,1.429,5.393,3.638,5.393,6.4
			c0,5.587-5.425,8.219-10.46,8.219c-5.328,0-10.136-2.437-9.843-8.349h6.919c0,1.267,0.292,2.046,0.877,2.631
			c0.617,0.52,1.462,0.584,2.631,0.584c1.397,0,3.119-0.715,3.119-2.242c0-1.689-2.371-1.917-5.587-2.988
			c-2.826-0.942-5.555-2.437-5.555-6.302c0-5.23,5.068-7.634,9.746-7.634c4.938,0,9.388,1.852,9.258,7.569H228.135z"/>
		<path fill="#002369" d="M251.981,86.876h-6.237l0.52-2.144h-0.065c-1.397,1.657-3.249,2.566-5.425,2.566
			c-2.923,0-5.36-1.267-5.36-4.483c0-1.462,0.552-3.509,2.501-12.8h6.432l-1.884,8.804c-0.26,0.877-0.26,1.754-0.26,1.754
			c0,1.04,0.91,1.592,1.852,1.592c2.891,0,3.021-3.151,3.541-5.295l1.462-6.854h6.432L251.981,86.876z"/>
		<path fill="#002369" d="M259.193,70.016h6.237l-0.39,1.917h0.065c1.104-1.56,2.534-2.339,4.516-2.339
			c4.743,0,6.14,3.931,6.14,6.92c0,5.002-2.501,10.785-8.219,10.785c-1.852,0-3.671-0.228-5.068-2.469l-1.527,7.504h-6.432
			L259.193,70.016z M269.329,77.26c0-1.657-0.455-2.989-2.339-2.989c-2.859,0-3.378,4.093-3.378,5.587
			c0,0.617,0.227,2.761,2.339,2.761C268.517,82.62,269.329,79.437,269.329,77.26z"/>
		<path fill="#002369" d="M294.961,81.971c-0.422,1.137-1.689,5.328-8.966,5.328c-5.977,0-8.381-3.346-8.381-7.439
			c0-7.731,5.913-10.266,10.104-10.266c3.736,0,8.251,2.079,8.251,7.375c0,0.91-0.032,1.884-0.325,2.924h-12.02
			c0,1.787,0.617,3.281,2.631,3.281c1.396,0,2.209-0.617,2.534-1.202H294.961z M289.894,76.545c0.033-0.163,0.065-0.39,0.065-0.552
			c0-1.267-0.812-2.274-2.437-2.274c-1.722,0-2.858,1.04-3.346,2.826H289.894z"/>
		<path fill="#002369" d="M300.647,70.016h6.237l-0.552,2.631h0.065c1.137-1.787,3.249-3.054,4.906-3.054
			c1.072,0,1.689,0.065,2.274,0.26l-1.202,5.685c-0.78-0.292-1.657-0.422-2.469-0.422c-2.729,0-4.093,1.169-4.84,4.71l-1.462,7.049
			h-6.433L300.647,70.016z"/>
		<path fill="#002369" d="M324.557,76.416c0.033-0.812-0.097-1.332-0.455-1.657c-0.325-0.357-0.877-0.487-1.625-0.487
			c-2.793,0-3.541,3.671-3.541,5.263s0.357,3.086,2.209,3.086c1.754,0,2.469-1.527,2.826-2.469h6.172
			c-1.104,4.808-4.19,7.147-9.063,7.147c-7.147,0-8.577-4.548-8.577-7.699c0-5.75,3.736-10.006,10.168-10.006
			c4.678,0,8.153,2.112,8.057,6.822H324.557z"/>
		<path fill="#002369" d="M342.165,69.593c4.938,0,8.187,2.274,8.187,7.375c0,4.321-2.404,10.331-10.169,10.331
			c-4.646,0-8.413-2.242-8.413-7.894C331.77,74.012,335.277,69.593,342.165,69.593z M340.476,82.62c2.534,0,3.443-3.736,3.443-5.198
			c0-2.014-0.52-3.151-2.241-3.151c-2.566,0-3.477,3.866-3.477,5.62C338.201,81.256,338.656,82.62,340.476,82.62z"/>
		<path fill="#002369" d="M354.835,70.016h6.237l-0.455,2.209h0.065c1.299-1.592,3.15-2.631,5.295-2.631
			c2.209,0,4.126,0.715,4.548,2.794c1.397-1.754,3.281-2.794,5.522-2.794c3.281,0,5.393,1.527,5.393,5.003
			c0,0.78-0.26,1.917-0.39,2.664l-2.046,9.616h-6.433l1.722-8.057c0.065-0.325,0.39-1.981,0.39-2.469
			c0-1.072-0.617-1.625-1.656-1.625c-1.268,0-2.177,0.715-2.437,1.949l-2.209,10.201h-6.433l1.949-9.031
			c0.098-0.422,0.26-1.104,0.26-1.559c0-1.072-0.585-1.56-1.624-1.56c-1.592,0-2.404,1.04-2.696,2.501l-2.079,9.648h-6.433
			L354.835,70.016z"/>
		<path fill="#002369" d="M386.152,70.016h6.237L392,71.933h0.065c1.104-1.56,2.533-2.339,4.515-2.339
			c4.743,0,6.141,3.931,6.141,6.92c0,5.002-2.502,10.785-8.22,10.785c-1.852,0-3.671-0.228-5.067-2.469l-1.526,7.504h-6.433
			L386.152,70.016z M396.288,77.26c0-1.657-0.455-2.989-2.339-2.989c-2.858,0-3.379,4.093-3.379,5.587
			c0,0.617,0.228,2.761,2.339,2.761C395.476,82.62,396.288,79.437,396.288,77.26z"/>
		<path fill="#002369" d="M421.043,86.876h-6.237l0.521-2.144h-0.065c-1.396,1.657-3.249,2.566-5.425,2.566
			c-2.924,0-5.36-1.267-5.36-4.483c0-1.462,0.552-3.509,2.501-12.8h6.433l-1.885,8.804c-0.26,0.877-0.26,1.754-0.26,1.754
			c0,1.04,0.91,1.592,1.853,1.592c2.891,0,3.021-3.151,3.54-5.295l1.462-6.854h6.433L421.043,86.876z"/>
		<path fill="#002369" d="M435.63,70.016h3.477l-0.91,3.963h-3.41l-1.138,5.425c-0.13,0.552-0.292,1.137-0.292,1.689
			s0.292,1.007,1.299,1.007c1.04,0,1.593-0.065,2.112-0.098l-0.975,4.646c-1.138,0.195-2.307,0.357-3.477,0.422
			c-1.364,0-2.826,0-4.061-0.682c-1.104-0.617-1.754-1.949-1.754-3.184c0-0.91,0.194-1.527,0.357-2.307l1.494-6.919h-2.858
			l0.909-3.963h2.794l1.137-5.1h6.433L435.63,70.016z"/>
		<path fill="#002369" d="M441.608,70.016h6.433l-3.509,16.86h-6.432L441.608,70.016z M448.398,68.197h-6.433l0.942-4.516h6.432
			L448.398,68.197z"/>
		<path fill="#002369" d="M451.68,70.016h6.205l-0.487,2.144h0.064c1.234-1.527,3.184-2.566,5.23-2.566
			c2.956,0,5.49,1.235,5.49,4.548c0,0.747-0.195,1.981-0.455,3.216l-2.047,9.519h-6.432l1.656-7.731
			c0.195-0.975,0.521-2.112,0.521-2.794c0-1.072-0.78-1.625-1.819-1.625c-2.047,0-2.729,1.462-3.119,3.216l-1.884,8.934h-6.433
			L451.68,70.016z"/>
		<path fill="#002369" d="M486.798,83.952c-0.975,4.743-1.852,8.804-10.006,8.804c-1.981,0-8.023-0.228-7.797-5.62h6.367
			c0,0.65,0.163,1.104,0.521,1.462c0.324,0.26,0.845,0.357,1.494,0.357c1.949,0,2.437-1.494,2.761-2.989l0.391-1.787h-0.065
			c-0.975,1.104-2.469,1.689-4.028,1.689c-4.028,0-6.595-2.566-6.595-6.562c0-4.808,2.859-9.713,8.122-9.713
			c2.079,0,3.995,0.617,5.003,2.599h0.064l0.423-2.177h6.204L486.798,83.952z M476.272,79.047c0,1.494,0.747,2.696,2.209,2.696
			c3.054,0,3.573-3.704,3.573-4.84c0-1.04-0.098-2.631-2.404-2.631C477.117,74.271,476.272,77.065,476.272,79.047z"/>
		<path fill="#002369" d="M236.517,115.337c-0.422,2.371-2.242,9.355-11.89,9.355c-6.725,0-9.973-4.354-9.973-10.559
			c0-7.504,4.678-13.741,12.572-13.741c5.166,0,9.778,2.241,9.908,9.194h-6.757c0.065-2.178-0.975-3.412-3.184-3.412
			c-3.963,0-5.393,4.549-5.393,7.83c0,1.916,0.455,4.904,3.736,4.904c2.241,0,3.508-1.526,3.963-3.572H236.517z"/>
		<path fill="#002369" d="M255.847,119.236c-0.422,1.137-1.689,5.327-8.966,5.327c-5.977,0-8.381-3.347-8.381-7.439
			c0-7.731,5.913-10.266,10.104-10.266c3.736,0,8.251,2.079,8.251,7.374c0,0.91-0.032,1.885-0.325,2.924h-12.02
			c0,1.787,0.617,3.281,2.631,3.281c1.396,0,2.209-0.617,2.534-1.201H255.847z M250.779,113.81c0.033-0.162,0.065-0.39,0.065-0.553
			c0-1.267-0.812-2.273-2.437-2.273c-1.722,0-2.858,1.039-3.346,2.826H250.779z"/>
		<path fill="#002369" d="M261.565,107.281h6.205l-0.487,2.144h0.065c1.235-1.526,3.184-2.566,5.23-2.566
			c2.956,0,5.49,1.235,5.49,4.548c0,0.748-0.195,1.982-0.455,3.217l-2.046,9.518h-6.432l1.657-7.73
			c0.195-0.975,0.52-2.112,0.52-2.795c0-1.072-0.78-1.624-1.819-1.624c-2.046,0-2.729,1.462-3.119,3.216l-1.884,8.934h-6.433
			L261.565,107.281z"/>
		<path fill="#002369" d="M290.023,107.281h3.476l-0.91,3.963h-3.411l-1.137,5.426c-0.13,0.552-0.292,1.137-0.292,1.688
			s0.292,1.007,1.299,1.007c1.04,0,1.592-0.064,2.112-0.098l-0.975,4.646c-1.137,0.194-2.307,0.357-3.476,0.422
			c-1.365,0-2.826,0-4.061-0.682c-1.104-0.617-1.754-1.949-1.754-3.184c0-0.91,0.195-1.527,0.357-2.307l1.495-6.92h-2.859
			l0.91-3.963h2.794l1.137-5.101h6.433L290.023,107.281z"/>
		<path fill="#002369" d="M310.587,119.236c-0.422,1.137-1.689,5.327-8.966,5.327c-5.977,0-8.381-3.347-8.381-7.439
			c0-7.731,5.913-10.266,10.104-10.266c3.736,0,8.251,2.079,8.251,7.374c0,0.91-0.032,1.885-0.325,2.924h-12.02
			c0,1.787,0.617,3.281,2.631,3.281c1.396,0,2.209-0.617,2.534-1.201H310.587z M305.52,113.81c0.033-0.162,0.065-0.39,0.065-0.553
			c0-1.267-0.812-2.273-2.437-2.273c-1.722,0-2.858,1.039-3.346,2.826H305.52z"/>
		<path fill="#002369" d="M316.273,107.281h6.237l-0.552,2.631h0.065c1.137-1.787,3.249-3.054,4.906-3.054
			c1.072,0,1.689,0.065,2.273,0.261l-1.201,5.685c-0.78-0.292-1.657-0.423-2.469-0.423c-2.729,0-4.093,1.17-4.84,4.711l-1.462,7.049
			h-6.433L316.273,107.281z"/>
		<path fill="#002369" d="M231.171,148.71c-0.963,4.279-3.745,6.9-8.453,6.9c-5.216,0-8.185-3.103-8.185-8.372
			c0-6.179,3.958-11.636,10.485-11.636c4.119,0,7.275,2.193,7.275,6.607h-2.541c0-2.996-1.953-4.468-4.734-4.468
			c-5.323,0-7.944,4.896-7.944,9.496c0,3.691,1.819,6.232,5.644,6.232c3.129,0,5.082-1.792,5.911-4.761H231.171z"/>
		<path fill="#002369" d="M235.455,148.923c-0.054,0.402-0.081,0.803-0.081,1.204c0,2.14,1.739,3.344,3.584,3.344
			c1.979,0,3.344-0.937,3.985-2.648h2.274c-0.722,3.05-3.237,4.654-6.259,4.654c-4.574,0-5.858-3.156-5.858-5.563
			c0-5.297,3.317-8.907,7.115-8.907c4.065,0,5.858,2.22,5.858,6.126c0,0.722-0.134,1.417-0.214,1.791H235.455z M243.8,146.917
			c0.161-1.953-0.722-3.905-3.236-3.905c-2.675,0-4.12,1.766-4.788,3.905H243.8z"/>
		<path fill="#002369" d="M249.981,141.328h2.193l-0.428,2.086h0.053c1.15-1.551,3.023-2.407,4.922-2.407
			c2.595,0,3.852,1.124,3.852,3.558c0,0.588-0.161,1.631-0.401,2.701l-1.685,7.891h-2.274l1.766-8.078
			c0.107-0.508,0.321-1.658,0.321-2.139c0-1.312-1.07-1.927-2.407-1.927c-1.257,0-2.568,0.696-3.424,1.604
			c-0.803,0.696-1.23,1.793-1.525,2.89l-1.604,7.649h-2.274L249.981,141.328z"/>
		<path fill="#002369" d="M267.987,141.328h2.755l-0.428,2.006h-2.755l-1.712,8.131c-0.027,0.322-0.08,0.589-0.08,0.91
			c0,0.723,0.668,0.936,1.364,0.936c0.455,0,0.882-0.106,1.311-0.24l-0.401,2.086c-0.535,0.107-1.07,0.161-1.605,0.161
			c-1.685,0-3.103-0.481-3.103-2.247c0-0.401,0.053-0.723,0.134-1.15l1.819-8.586h-2.327l0.428-2.006h2.327l0.856-4.093h2.274
			L267.987,141.328z"/>
		<path fill="#002369" d="M273.257,141.328h2.14l-0.669,2.969h0.054c1.07-1.899,2.702-3.29,5.029-3.29c0.268,0,0.535-0.054,0.802,0
			l-0.535,2.435c-0.214-0.027-0.455-0.027-0.669-0.027c-0.562,0-0.829,0-1.364,0.134c-1.257,0.321-2.22,1.15-2.942,2.247
			c-0.615,0.883-0.936,2.193-1.15,3.236l-1.311,6.125h-2.274L273.257,141.328z"/>
		<path fill="#002369" d="M287.597,141.006c3.691,0,5.751,2.032,5.751,5.724c0,4.521-2.809,8.747-7.65,8.747
			c-3.638,0-5.832-2.435-5.832-5.777C279.866,145.179,282.755,141.006,287.597,141.006z M285.938,153.471
			c3.316,0,5.136-3.825,5.136-6.554c0-2.166-1.15-3.905-3.638-3.905c-3.477,0-5.296,3.798-5.296,6.661
			C282.14,151.947,283.451,153.471,285.938,153.471z"/>
		<path fill="#002369" d="M306.433,136.058h2.729l6.821,15.809h0.054l3.183-15.809h2.461l-4.039,19.098h-2.729l-6.768-15.701h-0.053
			l-3.237,15.701h-2.461L306.433,136.058z"/>
		<path fill="#002369" d="M322.94,145.5c0.455-3.076,3.05-4.493,5.992-4.493c2.675,0,5.056,0.722,5.056,3.53
			c0,0.776-0.268,1.766-0.429,2.515l-0.883,3.771c-0.106,0.562-0.374,1.338-0.374,1.979c0,0.643,0.294,0.855,0.669,0.855
			c0.214,0,0.508-0.106,0.722-0.187l-0.348,1.685c-0.348,0.188-0.989,0.321-1.391,0.321c-1.258,0-1.926-0.749-1.792-1.952
			l-0.054-0.054c-0.963,1.284-2.301,2.006-4.627,2.006c-2.301,0-4.227-1.069-4.227-3.905c0-4.012,3.932-4.279,6.982-4.547
			c2.407-0.215,3.477-0.348,3.477-2.193c0-1.498-1.578-1.819-2.781-1.819c-1.739,0-3.451,0.696-3.718,2.487H322.94z
			 M326.017,153.471c1.766,0,3.076-0.589,3.879-1.819c0.749-1.043,0.883-2.273,1.203-3.557h-0.053
			c-0.99,0.588-2.782,0.722-4.44,0.936c-1.632,0.24-3.076,0.749-3.076,2.515C323.529,152.83,324.733,153.471,326.017,153.471z"/>
		<path fill="#002369" d="M346.536,145.714c0-1.686-1.15-2.702-2.916-2.702c-3.504,0-5.377,3.478-5.377,6.5
			c0,2.14,0.883,3.959,3.424,3.959c1.953,0,3.397-1.15,4.039-2.835h2.274c-0.803,3.076-3.13,4.841-6.313,4.841
			c-3.771,0-5.697-2.247-5.697-5.965c0-4.387,2.702-8.506,7.65-8.506c3.13,0,5.082,1.497,5.189,4.708H346.536z"/>
		<path fill="#002369" d="M352.53,141.328h2.273l-2.889,13.828h-2.273L352.53,141.328z M355.339,138.839h-2.3l0.588-2.781h2.301
			L355.339,138.839z"/>
		<path fill="#002369" d="M363.9,141.006c3.69,0,5.751,2.032,5.751,5.724c0,4.521-2.809,8.747-7.65,8.747
			c-3.638,0-5.831-2.435-5.831-5.777C356.17,145.179,359.059,141.006,363.9,141.006z M362.241,153.471
			c3.317,0,5.136-3.825,5.136-6.554c0-2.166-1.149-3.905-3.638-3.905c-3.478,0-5.296,3.798-5.296,6.661
			C358.443,151.947,359.754,153.471,362.241,153.471z"/>
		<path fill="#002369" d="M373.854,141.328h2.193l-0.429,2.086h0.054c1.15-1.551,3.022-2.407,4.922-2.407
			c2.595,0,3.852,1.124,3.852,3.558c0,0.588-0.16,1.631-0.401,2.701l-1.685,7.891h-2.273l1.765-8.078
			c0.107-0.508,0.321-1.658,0.321-2.139c0-1.312-1.07-1.927-2.407-1.927c-1.257,0-2.568,0.696-3.424,1.604
			c-0.803,0.696-1.23,1.793-1.524,2.89l-1.605,7.649h-2.273L373.854,141.328z"/>
		<path fill="#002369" d="M387.365,145.5c0.454-3.076,3.049-4.493,5.991-4.493c2.675,0,5.056,0.722,5.056,3.53
			c0,0.776-0.268,1.766-0.428,2.515l-0.883,3.771c-0.107,0.562-0.375,1.338-0.375,1.979c0,0.643,0.295,0.855,0.669,0.855
			c0.214,0,0.509-0.106,0.723-0.187l-0.348,1.685c-0.348,0.188-0.99,0.321-1.392,0.321c-1.257,0-1.926-0.749-1.792-1.952
			l-0.054-0.054c-0.963,1.284-2.3,2.006-4.627,2.006c-2.301,0-4.227-1.069-4.227-3.905c0-4.012,3.933-4.279,6.981-4.547
			c2.407-0.215,3.478-0.348,3.478-2.193c0-1.498-1.578-1.819-2.782-1.819c-1.738,0-3.45,0.696-3.718,2.487H387.365z
			 M390.441,153.471c1.765,0,3.076-0.589,3.878-1.819c0.749-1.043,0.883-2.273,1.204-3.557h-0.054
			c-0.989,0.588-2.782,0.722-4.44,0.936c-1.632,0.24-3.076,0.749-3.076,2.515C387.953,152.83,389.157,153.471,390.441,153.471z"/>
		<path fill="#002369" d="M403.712,136.058h2.273l-4.013,19.098h-2.273L403.712,136.058z"/>
		<path fill="#002369" d="M425.381,155.156h-2.141l0.482-1.979h-0.054c-1.364,1.792-2.729,2.3-4.574,2.3
			c-3.531,0-5.43-2.3-5.43-5.671c0-4.199,2.835-8.8,7.677-8.8c1.685,0,3.771,0.589,4.307,2.435h0.053l1.472-7.383h2.247
			L425.381,155.156z M419.496,153.471c3.45,0,5.403-3.985,5.403-6.874c0-2.061-1.23-3.585-3.478-3.585
			c-3.611,0-5.483,3.745-5.483,6.794C415.938,152.053,417.008,153.471,419.496,153.471z"/>
		<path fill="#002369" d="M431.696,148.923c-0.053,0.402-0.08,0.803-0.08,1.204c0,2.14,1.738,3.344,3.584,3.344
			c1.979,0,3.344-0.937,3.986-2.648h2.273c-0.723,3.05-3.236,4.654-6.26,4.654c-4.573,0-5.857-3.156-5.857-5.563
			c0-5.297,3.316-8.907,7.115-8.907c4.065,0,5.857,2.22,5.857,6.126c0,0.722-0.134,1.417-0.214,1.791H431.696z M440.042,146.917
			c0.16-1.953-0.722-3.905-3.236-3.905c-2.675,0-4.119,1.766-4.788,3.905H440.042z"/>
		<path fill="#002369" d="M464.763,141.702c0.08-3.022-1.766-3.959-4.387-3.959c-1.873,0-4.414,0.856-4.414,3.13
			c0,1.846,1.364,2.595,3.104,3.076l2.567,0.695c2.381,0.643,4.601,1.738,4.601,5.162c0,3.933-3.985,5.805-7.436,5.805
			c-4.602,0-7.838-2.033-7.517-6.714h2.541c-0.16,3.45,1.979,4.574,5.082,4.574c2.381,0,4.788-1.097,4.788-3.665
			c0-1.952-1.524-2.648-3.396-3.156l-2.595-0.695c-2.274-0.615-4.28-2.006-4.28-4.814c0-3.691,3.558-5.537,6.955-5.537
			c3.771,0,7.062,1.846,6.928,6.099H464.763z"/>
		<path fill="#002369" d="M479.211,155.156h-2.193l0.428-2.086h-0.054c-1.15,1.551-3.022,2.407-4.922,2.407
			c-2.595,0-3.852-1.123-3.852-3.558c0-0.588,0.16-1.631,0.401-2.701l1.685-7.891h2.274l-1.766,8.078
			c-0.107,0.508-0.321,1.658-0.321,2.14c0,1.311,1.07,1.926,2.407,1.926c2.515,0,4.467-2.193,4.948-4.493l1.605-7.65h2.273
			L479.211,155.156z"/>
		<path fill="#002369" d="M485.821,141.328h2.14l-0.481,1.979h0.054c1.364-1.791,2.729-2.3,4.574-2.3c3.53,0,5.43,2.3,5.43,5.671
			c0,4.199-2.835,8.8-7.677,8.8c-1.686,0-3.771-0.589-4.307-2.435H485.5l-1.471,7.41h-2.247L485.821,141.328z M491.706,143.012
			c-3.451,0-5.403,3.985-5.403,6.874c0,2.061,1.23,3.585,3.478,3.585c3.61,0,5.483-3.745,5.483-6.794
			C495.264,144.43,494.193,143.012,491.706,143.012z"/>
		<path fill="#002369" d="M501.579,148.923c-0.053,0.402-0.08,0.803-0.08,1.204c0,2.14,1.738,3.344,3.584,3.344
			c1.979,0,3.344-0.937,3.986-2.648h2.273c-0.723,3.05-3.236,4.654-6.26,4.654c-4.573,0-5.857-3.156-5.857-5.563
			c0-5.297,3.316-8.907,7.115-8.907c4.065,0,5.857,2.22,5.857,6.126c0,0.722-0.134,1.417-0.214,1.791H501.579z M509.925,146.917
			c0.16-1.953-0.722-3.905-3.236-3.905c-2.675,0-4.119,1.766-4.788,3.905H509.925z"/>
		<path fill="#002369" d="M516.08,141.328h2.14l-0.668,2.969h0.053c1.07-1.899,2.702-3.29,5.029-3.29c0.268,0,0.535-0.054,0.803,0
			l-0.535,2.435c-0.214-0.027-0.455-0.027-0.669-0.027c-0.562,0-0.829,0-1.364,0.134c-1.257,0.321-2.22,1.15-2.942,2.247
			c-0.615,0.883-0.936,2.193-1.15,3.236l-1.311,6.125h-2.273L516.08,141.328z"/>
		<path fill="#002369" d="M533.362,145.714c0-1.686-1.15-2.702-2.916-2.702c-3.504,0-5.377,3.478-5.377,6.5
			c0,2.14,0.883,3.959,3.424,3.959c1.953,0,3.397-1.15,4.039-2.835h2.274c-0.803,3.076-3.13,4.841-6.313,4.841
			c-3.771,0-5.697-2.247-5.697-5.965c0-4.387,2.702-8.506,7.65-8.506c3.13,0,5.082,1.497,5.189,4.708H533.362z"/>
		<path fill="#002369" d="M544.787,141.006c3.69,0,5.751,2.032,5.751,5.724c0,4.521-2.809,8.747-7.65,8.747
			c-3.638,0-5.831-2.435-5.831-5.777C537.057,145.179,539.945,141.006,544.787,141.006z M543.128,153.471
			c3.317,0,5.136-3.825,5.136-6.554c0-2.166-1.149-3.905-3.638-3.905c-3.478,0-5.296,3.798-5.296,6.661
			C539.33,151.947,540.641,153.471,543.128,153.471z"/>
		<path fill="#002369" d="M554.767,141.328h2.113l-0.509,2.059l0.054,0.055c1.177-1.445,2.916-2.435,4.815-2.435
			c1.738,0,3.075,0.695,3.477,2.487c1.07-1.471,2.89-2.487,4.734-2.487c1.953,0,3.853,0.856,3.853,3.103
			c0,0.803-0.214,1.979-0.401,2.756l-1.739,8.291h-2.273l1.926-8.773c0.107-0.428,0.215-1.096,0.215-1.498
			c0-1.069-0.91-1.872-2.113-1.872c-1.284,0-2.702,0.909-3.478,1.899c-0.749,0.803-1.043,1.926-1.284,3.103l-1.524,7.142h-2.273
			l1.658-7.891c0.24-1.07,0.428-2.113,0.428-2.434c0-1.15-0.695-1.819-1.926-1.819c-1.257,0-2.595,0.856-3.397,1.766
			c-0.963,0.937-1.177,1.765-1.471,3.13l-1.552,7.248h-2.273L554.767,141.328z"/>
		<path fill="#002369" d="M577.481,141.328h2.14l-0.481,1.979h0.054c1.364-1.791,2.729-2.3,4.574-2.3c3.53,0,5.43,2.3,5.43,5.671
			c0,4.199-2.835,8.8-7.677,8.8c-1.686,0-3.771-0.589-4.307-2.435h-0.054l-1.471,7.41h-2.247L577.481,141.328z M583.366,143.012
			c-3.451,0-5.403,3.985-5.403,6.874c0,2.061,1.23,3.585,3.478,3.585c3.61,0,5.483-3.745,5.483-6.794
			C586.924,144.43,585.854,143.012,583.366,143.012z"/>
		<path fill="#002369" d="M601.612,155.156h-2.193l0.428-2.086h-0.054c-1.15,1.551-3.022,2.407-4.922,2.407
			c-2.595,0-3.852-1.123-3.852-3.558c0-0.588,0.16-1.631,0.401-2.701l1.685-7.891h2.274l-1.766,8.078
			c-0.107,0.508-0.321,1.658-0.321,2.14c0,1.311,1.07,1.926,2.407,1.926c2.515,0,4.467-2.193,4.948-4.493l1.605-7.65h2.273
			L601.612,155.156z"/>
		<path fill="#002369" d="M611.405,141.328h2.756l-0.429,2.006h-2.755l-1.712,8.131c-0.026,0.322-0.08,0.589-0.08,0.91
			c0,0.723,0.669,0.936,1.364,0.936c0.454,0,0.883-0.106,1.311-0.24l-0.401,2.086c-0.535,0.107-1.07,0.161-1.604,0.161
			c-1.686,0-3.104-0.481-3.104-2.247c0-0.401,0.054-0.723,0.134-1.15l1.819-8.586h-2.327l0.428-2.006h2.327l0.856-4.093h2.273
			L611.405,141.328z"/>
		<path fill="#002369" d="M615.34,145.5c0.454-3.076,3.049-4.493,5.991-4.493c2.675,0,5.056,0.722,5.056,3.53
			c0,0.776-0.268,1.766-0.428,2.515l-0.883,3.771c-0.107,0.562-0.375,1.338-0.375,1.979c0,0.643,0.295,0.855,0.669,0.855
			c0.214,0,0.509-0.106,0.723-0.187l-0.348,1.685c-0.348,0.188-0.99,0.321-1.392,0.321c-1.257,0-1.926-0.749-1.792-1.952
			l-0.054-0.054c-0.963,1.284-2.3,2.006-4.627,2.006c-2.301,0-4.227-1.069-4.227-3.905c0-4.012,3.933-4.279,6.981-4.547
			c2.407-0.215,3.478-0.348,3.478-2.193c0-1.498-1.578-1.819-2.782-1.819c-1.738,0-3.45,0.696-3.718,2.487H615.34z M618.416,153.471
			c1.765,0,3.076-0.589,3.878-1.819c0.749-1.043,0.883-2.273,1.204-3.557h-0.054c-0.989,0.588-2.782,0.722-4.44,0.936
			c-1.632,0.24-3.076,0.749-3.076,2.515C615.928,152.83,617.132,153.471,618.416,153.471z"/>
		<path fill="#002369" d="M638.935,145.714c0-1.686-1.149-2.702-2.915-2.702c-3.504,0-5.377,3.478-5.377,6.5
			c0,2.14,0.883,3.959,3.424,3.959c1.953,0,3.397-1.15,4.039-2.835h2.274c-0.803,3.076-3.13,4.841-6.313,4.841
			c-3.771,0-5.697-2.247-5.697-5.965c0-4.387,2.702-8.506,7.65-8.506c3.13,0,5.082,1.497,5.189,4.708H638.935z"/>
		<path fill="#002369" d="M644.93,141.328h2.273l-2.889,13.828h-2.273L644.93,141.328z M647.738,138.839h-2.3l0.588-2.781h2.301
			L647.738,138.839z"/>
		<path fill="#002369" d="M656.3,141.006c3.69,0,5.751,2.032,5.751,5.724c0,4.521-2.81,8.747-7.65,8.747
			c-3.638,0-5.831-2.435-5.831-5.777C648.569,145.179,651.458,141.006,656.3,141.006z M654.641,153.471
			c3.317,0,5.136-3.825,5.136-6.554c0-2.166-1.149-3.905-3.638-3.905c-3.478,0-5.296,3.798-5.296,6.661
			C650.843,151.947,652.153,153.471,654.641,153.471z M658.306,135.603h3.022l-3.638,3.825h-1.873L658.306,135.603z"/>
		<path fill="#002369" d="M666.253,141.328h2.193l-0.429,2.086h0.054c1.15-1.551,3.022-2.407,4.922-2.407
			c2.595,0,3.852,1.124,3.852,3.558c0,0.588-0.16,1.631-0.401,2.701l-1.685,7.891h-2.273l1.765-8.078
			c0.107-0.508,0.321-1.658,0.321-2.139c0-1.312-1.07-1.927-2.407-1.927c-1.257,0-2.568,0.696-3.424,1.604
			c-0.803,0.696-1.23,1.793-1.524,2.89l-1.605,7.649h-2.273L666.253,141.328z"/>
	</g>
	<path fill-rule="evenodd" clip-rule="evenodd" fill="#002369" d="M106.473,11.124c6.556,0,20.343,2.988,25.423,4.422
		C79.733,13.01,46.88,48.368,46.88,88.99c0,28.901,17.269,60.793,58.796,70.359c-48.164,0.852-76.276-38.875-76.276-73.538
		C29.399,41.913,67.042,11.124,106.473,11.124z"/>
	<path fill-rule="evenodd" clip-rule="evenodd" fill="#002369" d="M78.663,0c8.541,0,19.563,2.793,27.412,5.165
		c-3.274-0.409-8.74-0.397-10.727-0.397c-48.171,0-77.073,42.31-77.073,81.441c0,33.669,18.658,69.334,63.563,79.494
		C28.612,167.054,0,120.474,0,82.633C0,38.635,34.962,0,78.663,0z"/>
	<g>
		<path fill="#FFFFFF" d="M85.892,72.566h14.168c5.984,0,8.223,2.085,8.223,6.061c0,3.475-1.737,5.752-5.058,6.64h-0.039v0.077
			c2.548,0.541,4.169,2.973,4.169,5.521c0,6.64-5.327,9.265-11.35,9.265H80.179L85.892,72.566z M89.83,93.567h5.443
			c1.505,0,3.59-0.54,3.59-2.779c0-2.046-1.505-2.355-3.281-2.355h-4.671L89.83,93.567z M91.953,83.298h4.787
			c1.351,0,3.05-0.502,3.05-2.201c0-1.66-1.12-1.969-2.625-1.969h-4.362L91.953,83.298z"/>
		<path fill="#FFFFFF" d="M128.589,80.905c0.039-1.12-0.347-1.814-0.965-2.278s-1.506-0.618-2.471-0.618
			c-1.429,0-3.282,0.425-3.282,2.239c0,2.084,4.131,2.2,6.833,3.166c4.787,1.699,6.409,4.324,6.409,7.605
			c0,6.64-6.447,9.767-12.431,9.767c-6.332,0-12.045-2.896-11.697-9.921h8.223c0,1.505,0.347,2.432,1.042,3.127
			c0.733,0.618,1.737,0.695,3.127,0.695c1.66,0,3.706-0.849,3.706-2.664c0-2.007-2.818-2.278-6.64-3.552
			c-3.359-1.12-6.602-2.896-6.602-7.489c0-6.215,6.022-9.072,11.582-9.072c5.868,0,11.157,2.201,11.002,8.995H128.589z"/>
		<path fill="#FFFFFF" d="M166.229,89.668c-0.502,2.818-2.664,11.118-14.129,11.118c-7.991,0-11.852-5.173-11.852-12.546
			c0-8.918,5.559-16.33,14.94-16.33c6.138,0,11.62,2.664,11.774,10.925h-8.03c0.078-2.586-1.158-4.054-3.783-4.054
			c-4.709,0-6.408,5.405-6.408,9.304c0,2.277,0.541,5.829,4.439,5.829c2.664,0,4.169-1.814,4.71-4.247H166.229z"/>
	</g>
</g>
</svg>
