<?xml version="1.0" encoding="UTF-8"?>
<svg width="102px" height="55px" viewBox="0 0 102 55" version="1.1" xmlns="http://www.w3.org/2000/svg" xmlns:xlink="http://www.w3.org/1999/xlink">
    <!-- Generator: Sketch 49.3 (51167) - http://www.bohemiancoding.com/sketch -->
    <title>header</title>
    <desc>Created with Sketch.</desc>
    <defs>
        <polygon id="path-1" points="0.2515 0.42 13.697 0.42 13.697 26.1746162 0.2515 26.1746162"/>
        <polygon id="path-3" points="0.002 0.2825 27.1274 0.2825 27.1274 27.4096703 0.002 27.4096703"/>
        <polygon id="path-5" points="0.002 60 167.63 60 167.63 0.42 0.002 0.42"/>
    </defs>
    <g id="Symbols" stroke="none" stroke-width="1" fill="none" fill-rule="evenodd">
        <g id="header" transform="translate(0.000000, -38.000000)">
            <g id="Page-1" transform="translate(0.000000, 37.664062)">
                <g id="Group-17" transform="translate(0.000000, 0.581100)">
                    <path d="M23.106,13.2969 C23.106,8.0269 18.834,3.7549 13.564,3.7549 C8.295,3.7549 4.022,8.0269 4.022,13.2969 C4.022,18.5669 8.295,22.8389 13.564,22.8389 C18.834,22.8389 23.106,18.5669 23.106,13.2969" id="Fill-1" fill="#42B7BA"/>
                    <g id="Group-5" transform="translate(27.000000, 0.000000)">
                        <mask id="mask-2" fill="white">
                            <use xlink:href="#path-1"/>
                        </mask>
                        <g id="Clip-4"/>
                        <path d="M0.2515,1.21 L0.2515,25.387 C0.2515,26.087 1.0985,26.438 1.5925,25.943 L13.3115,14.225 C13.8255,13.711 13.8255,12.878 13.3115,12.364 L1.5985,0.652 C1.1015,0.154 0.2515,0.507 0.2515,1.21" id="Fill-3" fill="#5D2B83" mask="url(#mask-2)"/>
                    </g>
                    <g id="Group-8" transform="translate(0.000000, 27.000000)">
                        <mask id="mask-4" fill="white">
                            <use xlink:href="#path-3"/>
                        </mask>
                        <g id="Clip-7"/>
                        <path d="M27.1274,26.8965 L27.1274,1.3225 C27.1274,0.7485 26.6614,0.2825 26.0874,0.2825 L0.5134,0.2825 C0.0564,0.2825 -0.1716,0.8335 0.1514,1.1565 L26.2534,27.2585 C26.5764,27.5815 27.1274,27.3525 27.1274,26.8965" id="Fill-6" fill="#EC662A" mask="url(#mask-4)"/>
                    </g>
                    <path d="M48.3677,53.8291 C48.2147,54.1741 47.8307,54.4041 47.4477,54.4041 C47.0647,54.4041 46.6817,54.1741 46.5287,53.8291 L34.7687,27.8961 C34.6537,27.6271 34.8827,27.2821 35.1897,27.2821 L40.6687,27.2821 C41.0887,27.2821 41.4717,27.5511 41.6257,27.9341 L47.4867,42.4901 L53.3477,27.9341 C53.5007,27.5511 53.8837,27.2821 54.3047,27.2821 L59.7827,27.2821 C60.0897,27.2821 60.3187,27.6271 60.1657,27.8961 L48.3677,53.8291 Z" id="Fill-9" fill="#1B2944"/>
                    <path d="M72.3848,53.4072 C72.3848,53.7922 72.0778,54.0962 71.6958,54.0962 L66.9448,54.0962 C66.5618,54.0962 66.2558,53.7922 66.2558,53.4072 L66.2558,27.9712 C66.2558,27.5892 66.5618,27.2822 66.9448,27.2822 L71.6958,27.2822 C72.0778,27.2822 72.3848,27.5892 72.3848,27.9712 L72.3848,53.4072 Z" id="Fill-11" fill="#1B2944"/>
                    <path d="M95.3535,45.9385 C95.3535,45.1335 94.9715,43.4495 92.3265,43.3725 L87.6925,43.3725 L87.6925,48.3895 L92.2505,48.3895 C94.9325,48.3895 95.3535,46.5505 95.3535,45.9385 M95.3535,35.4805 C95.3535,34.8675 94.9325,32.9525 92.2505,32.9525 L87.6925,32.9525 L87.6925,38.2765 L92.3265,38.2765 C94.9715,38.2005 95.3535,36.2095 95.3535,35.4805 M101.5595,45.9385 C101.5595,49.5775 99.2995,54.0985 91.8675,54.0985 L82.2905,54.0985 C81.9075,54.0985 81.6015,53.7915 81.6015,53.4085 L81.6015,27.9735 C81.6015,27.5885 81.9075,27.2825 82.2905,27.2825 L91.8675,27.2825 C99.2995,27.2825 101.5595,31.8405 101.5595,35.4805 C101.5595,37.3185 100.1415,39.8095 98.1115,40.6515 C100.1045,41.4175 101.5595,43.5245 101.5595,45.9385" id="Fill-13" fill="#1B2944"/>
                    <mask id="mask-6" fill="white">
                        <use xlink:href="#path-5"/>
                    </mask>
                    <g id="Clip-16"/>
                </g>
            </g>
        </g>
    </g>
</svg>