<svg version="1.1" viewBox="0.0 0.0 789.0 575.0" fill="none" stroke="none" stroke-linecap="square" stroke-miterlimit="10" width="789" height="575" xmlns:xlink="http://www.w3.org/1999/xlink" xmlns="http://www.w3.org/2000/svg"><path fill="#000000" d="M0 0L789.0 0L789.0 575.0L0 575.0L0 0Z" fill-rule="nonzero"/><path stroke="#333333" stroke-width="1.0" stroke-linecap="butt" d="M159.5 134.5L159.5 480.5" fill-rule="nonzero"/><path stroke="#333333" stroke-width="1.0" stroke-linecap="butt" d="M238.5 134.5L238.5 480.5" fill-rule="nonzero"/><path stroke="#333333" stroke-width="1.0" stroke-linecap="butt" d="M317.5 134.5L317.5 480.5" fill-rule="nonzero"/><path stroke="#333333" stroke-width="1.0" stroke-linecap="butt" d="M397.5 134.5L397.5 480.5" fill-rule="nonzero"/><path stroke="#333333" stroke-width="1.0" stroke-linecap="butt" d="M476.5 134.5L476.5 480.5" fill-rule="nonzero"/><path stroke="#333333" stroke-width="1.0" stroke-linecap="butt" d="M555.5 134.5L555.5 480.5" fill-rule="nonzero"/><path stroke="#333333" stroke-width="1.0" stroke-linecap="butt" d="M634.5 134.5L634.5 480.5" fill-rule="nonzero"/><path stroke="#333333" stroke-width="1.0" stroke-linecap="butt" d="M714.5 134.5L714.5 480.5" fill-rule="nonzero"/><path stroke="#cccccc" stroke-width="1.0" stroke-linecap="butt" d="M81.5 480.5L760.5 480.5" fill-rule="nonzero"/><path stroke="#333333" stroke-width="1.0" stroke-linecap="butt" d="M81.5 411.5L760.5 411.5" fill-rule="nonzero"/><path stroke="#333333" stroke-width="1.0" stroke-linecap="butt" d="M81.5 342.5L760.5 342.5" fill-rule="nonzero"/><path stroke="#333333" stroke-width="1.0" stroke-linecap="butt" d="M81.5 273.5L760.5 273.5" fill-rule="nonzero"/><path stroke="#333333" stroke-width="1.0" stroke-linecap="butt" d="M81.5 203.5L760.5 203.5" fill-rule="nonzero"/><path stroke="#333333" stroke-width="1.0" stroke-linecap="butt" d="M81.5 134.5L760.5 134.5" fill-rule="nonzero"/><clipPath id="id_0"><path d="M81.75 134.58333L760.25 134.58333L760.25 480.67245L81.75 480.67245L81.75 134.58333Z" clip-rule="nonzero"/></clipPath><path stroke="#ffff00" stroke-width="4.0" stroke-linecap="butt" clip-path="url(#id_0)" d="M162.40092 479.0666C162.40092 479.0666 189.09642 463.39636 201.4675 456.4462C213.8386 449.49606 226.20967 443.2086 238.58076 436.23462C250.95184 429.26065 264.76984 421.01154 277.86438 413.33734C290.95892 405.66318 311.64975 393.22684 323.44205 386.48083C335.23438 379.73483 347.0267 373.11963 358.81903 366.85065C370.61133 360.5817 388.62537 351.78076 401.79227 345.00552C414.95914 338.2303 428.12604 332.30048 441.2929 324.434C454.4598 316.56747 468.7842 305.18146 482.52988 296.6361C496.2755 288.09076 514.6513 276.80167 525.72015 272.04993C536.789 267.2982 547.85785 266.5527 558.92676 262.4425C569.9956 258.33228 584.53705 250.68152 597.3422 245.0273C610.1474 239.37308 624.3994 234.52 637.92804 227.5844C651.45667 220.6488 666.8663 209.75218 679.165 203.02592C691.46375 196.29965 703.7625 189.83107 716.0612 184.64166C728.36 179.45226 753.39154 171.73946 753.39154 171.73946" fill-rule="nonzero"/><path stroke="#4a86e8" stroke-width="4.0" stroke-linecap="butt" clip-path="url(#id_0)" d="M88.60848 480.42328C88.60848 480.42328 109.87807 476.8581 120.51286 474.9135C131.14766 472.96896 149.37872 469.4699 162.40092 466.8289C175.42311 464.18784 189.09642 460.99152 201.4675 458.52274C213.8386 456.054 226.20967 454.59433 238.58076 451.60095C250.95184 448.6076 264.76984 443.64615 277.86438 439.917C290.95892 436.18784 311.64975 431.14816 323.44205 427.51315C335.23438 423.87814 347.0267 419.55313 358.81903 415.3308C370.61133 411.10852 388.62537 404.41922 401.79227 399.35535C414.95914 394.2915 428.12604 389.01816 441.2929 383.65674C454.4598 378.29535 468.7842 372.307 482.52988 366.46304C496.2755 360.61908 514.6513 352.42908 525.72015 347.74655C536.789 343.064 547.85785 339.19754 558.92676 334.0414C569.9956 328.88528 584.53705 320.3861 597.3422 314.1067C610.1474 307.82724 624.3994 301.32053 637.92804 295.3625C651.45667 289.40448 666.8663 282.70633 679.165 278.08572C691.46375 273.46512 703.7625 270.23166 716.0612 265.8203C728.36 261.409 753.39154 251.4507 753.39154 251.4507" fill-rule="nonzero"/><path fill="#ffff00" clip-path="url(#id_0)" d="M166.90092 479.0666C166.90092 481.55188 164.8862 483.5666 162.40092 483.5666C159.91563 483.5666 157.90092 481.55188 157.90092 479.0666C157.90092 476.58133 159.91563 474.5666 162.40092 474.5666C164.8862 474.5666 166.90092 476.58133 166.90092 479.0666Z" fill-rule="nonzero"/><path fill="#ffff00" clip-path="url(#id_0)" d="M205.9675 456.4462C205.9675 458.9315 203.95279 460.9462 201.4675 460.9462C198.98222 460.9462 196.9675 458.9315 196.9675 456.4462C196.9675 453.96094 198.98222 451.9462 201.4675 451.9462C203.95279 451.9462 205.9675 453.96094 205.9675 456.4462Z" fill-rule="nonzero"/><path fill="#ffff00" clip-path="url(#id_0)" d="M243.08076 436.23462C243.08076 438.71988 241.06604 440.73462 238.58076 440.73462C236.09547 440.73462 234.08076 438.71988 234.08076 436.23462C234.08076 433.74933 236.09547 431.73462 238.58076 431.73462C241.06604 431.73462 243.08076 433.74933 243.08076 436.23462Z" fill-rule="nonzero"/><path fill="#ffff00" clip-path="url(#id_0)" d="M282.36438 413.33734C282.36438 415.82263 280.34967 417.83734 277.86438 417.83734C275.3791 417.83734 273.36438 415.82263 273.36438 413.33734C273.36438 410.85208 275.3791 408.83734 277.86438 408.83734C280.34967 408.83734 282.36438 410.85208 282.36438 413.33734Z" fill-rule="nonzero"/><path fill="#ffff00" clip-path="url(#id_0)" d="M327.94205 386.48083C327.94205 388.96613 325.92734 390.98083 323.44205 390.98083C320.9568 390.98083 318.94205 388.96613 318.94205 386.48083C318.94205 383.99554 320.9568 381.98083 323.44205 381.98083C325.92734 381.98083 327.94205 383.99554 327.94205 386.48083Z" fill-rule="nonzero"/><path fill="#ffff00" clip-path="url(#id_0)" d="M363.31903 366.85065C363.31903 369.33594 361.3043 371.35065 358.81903 371.35065C356.33374 371.35065 354.31903 369.33594 354.31903 366.85065C354.31903 364.3654 356.33374 362.35065 358.81903 362.35065C361.3043 362.35065 363.31903 364.3654 363.31903 366.85065Z" fill-rule="nonzero"/><path fill="#ffff00" clip-path="url(#id_0)" d="M406.29227 345.00552C406.29227 347.49078 404.27756 349.50552 401.79227 349.50552C399.30698 349.50552 397.29227 347.49078 397.29227 345.00552C397.29227 342.52023 399.30698 340.50552 401.79227 340.50552C404.27756 340.50552 406.29227 342.52023 406.29227 345.00552Z" fill-rule="nonzero"/><path fill="#ffff00" clip-path="url(#id_0)" d="M445.7929 324.434C445.7929 326.91925 443.7782 328.934 441.2929 328.934C438.80765 328.934 436.7929 326.91925 436.7929 324.434C436.7929 321.9487 438.80765 319.934 441.2929 319.934C443.7782 319.934 445.7929 321.9487 445.7929 324.434Z" fill-rule="nonzero"/><path fill="#ffff00" clip-path="url(#id_0)" d="M487.02988 296.6361C487.02988 299.12137 485.01514 301.1361 482.52988 301.1361C480.0446 301.1361 478.02988 299.12137 478.02988 296.6361C478.02988 294.15082 480.0446 292.1361 482.52988 292.1361C485.01514 292.1361 487.02988 294.15082 487.02988 296.6361Z" fill-rule="nonzero"/><path fill="#ffff00" clip-path="url(#id_0)" d="M530.22015 272.04993C530.22015 274.53522 528.20544 276.54993 525.72015 276.54993C523.23486 276.54993 521.22015 274.53522 521.22015 272.04993C521.22015 269.56464 523.23486 267.54993 525.72015 267.54993C528.20544 267.54993 530.22015 269.56464 530.22015 272.04993Z" fill-rule="nonzero"/><path fill="#ffff00" clip-path="url(#id_0)" d="M563.42676 262.4425C563.42676 264.92776 561.41205 266.9425 558.92676 266.9425C556.44147 266.9425 554.42676 264.92776 554.42676 262.4425C554.42676 259.9572 556.44147 257.9425 558.92676 257.9425C561.41205 257.9425 563.42676 259.9572 563.42676 262.4425Z" fill-rule="nonzero"/><path fill="#ffff00" clip-path="url(#id_0)" d="M601.8422 245.0273C601.8422 247.51257 599.8275 249.5273 597.3422 249.5273C594.85693 249.5273 592.8422 247.51257 592.8422 245.0273C592.8422 242.542 594.85693 240.5273 597.3422 240.5273C599.8275 240.5273 601.8422 242.542 601.8422 245.0273Z" fill-rule="nonzero"/><path fill="#ffff00" clip-path="url(#id_0)" d="M642.42804 227.5844C642.42804 230.06969 640.4133 232.0844 637.92804 232.0844C635.44275 232.0844 633.42804 230.06969 633.42804 227.5844C633.42804 225.09912 635.44275 223.0844 637.92804 223.0844C640.4133 223.0844 642.42804 225.09912 642.42804 227.5844Z" fill-rule="nonzero"/><path fill="#ffff00" clip-path="url(#id_0)" d="M683.665 203.02592C683.665 205.5112 681.65027 207.52592 679.165 207.52592C676.67975 207.52592 674.665 205.5112 674.665 203.02592C674.665 200.54063 676.67975 198.52592 679.165 198.52592C681.65027 198.52592 683.665 200.54063 683.665 203.02592Z" fill-rule="nonzero"/><path fill="#ffff00" clip-path="url(#id_0)" d="M720.5612 184.64166C720.5612 187.12694 718.5465 189.14166 716.0612 189.14166C713.5759 189.14166 711.5612 187.12694 711.5612 184.64166C711.5612 182.15639 713.5759 180.14166 716.0612 180.14166C718.5465 180.14166 720.5612 182.15639 720.5612 184.64166Z" fill-rule="nonzero"/><path fill="#ffff00" clip-path="url(#id_0)" d="M757.89154 171.73946C757.89154 174.22475 755.8768 176.23946 753.39154 176.23946C750.90625 176.23946 748.89154 174.22475 748.89154 171.73946C748.89154 169.25418 750.90625 167.23946 753.39154 167.23946C755.8768 167.23946 757.89154 169.25418 757.89154 171.73946Z" fill-rule="nonzero"/><path fill="#4a86e8" clip-path="url(#id_0)" d="M93.10848 480.42328C93.10848 482.90854 91.093765 484.92328 88.60848 484.92328C86.1232 484.92328 84.10848 482.90854 84.10848 480.42328C84.10848 477.938 86.1232 475.92328 88.60848 475.92328C91.093765 475.92328 93.10848 477.938 93.10848 480.42328Z" fill-rule="nonzero"/><path fill="#4a86e8" clip-path="url(#id_0)" d="M125.01286 474.9135C125.01286 477.3988 122.99814 479.4135 120.51286 479.4135C118.02758 479.4135 116.01286 477.3988 116.01286 474.9135C116.01286 472.42825 118.02758 470.4135 120.51286 470.4135C122.99814 470.4135 125.01286 472.42825 125.01286 474.9135Z" fill-rule="nonzero"/><path fill="#4a86e8" clip-path="url(#id_0)" d="M166.90092 466.8289C166.90092 469.31418 164.8862 471.3289 162.40092 471.3289C159.91563 471.3289 157.90092 469.31418 157.90092 466.8289C157.90092 464.3436 159.91563 462.3289 162.40092 462.3289C164.8862 462.3289 166.90092 464.3436 166.90092 466.8289Z" fill-rule="nonzero"/><path fill="#4a86e8" clip-path="url(#id_0)" d="M205.9675 458.52274C205.9675 461.00803 203.95279 463.02274 201.4675 463.02274C198.98222 463.02274 196.9675 461.00803 196.9675 458.52274C196.9675 456.03748 198.98222 454.02274 201.4675 454.02274C203.95279 454.02274 205.9675 456.03748 205.9675 458.52274Z" fill-rule="nonzero"/><path fill="#4a86e8" clip-path="url(#id_0)" d="M243.08076 451.60095C243.08076 454.08624 241.06604 456.10095 238.58076 456.10095C236.09547 456.10095 234.08076 454.08624 234.08076 451.60095C234.08076 449.1157 236.09547 447.10095 238.58076 447.10095C241.06604 447.10095 243.08076 449.1157 243.08076 451.60095Z" fill-rule="nonzero"/><path fill="#4a86e8" clip-path="url(#id_0)" d="M282.36438 439.917C282.36438 442.40228 280.34967 444.417 277.86438 444.417C275.3791 444.417 273.36438 442.40228 273.36438 439.917C273.36438 437.4317 275.3791 435.417 277.86438 435.417C280.34967 435.417 282.36438 437.4317 282.36438 439.917Z" fill-rule="nonzero"/><path fill="#4a86e8" clip-path="url(#id_0)" d="M327.94205 427.51315C327.94205 429.99844 325.92734 432.01315 323.44205 432.01315C320.9568 432.01315 318.94205 429.99844 318.94205 427.51315C318.94205 425.0279 320.9568 423.01315 323.44205 423.01315C325.92734 423.01315 327.94205 425.0279 327.94205 427.51315Z" fill-rule="nonzero"/><path fill="#4a86e8" clip-path="url(#id_0)" d="M363.31903 415.3308C363.31903 417.8161 361.3043 419.8308 358.81903 419.8308C356.33374 419.8308 354.31903 417.8161 354.31903 415.3308C354.31903 412.84555 356.33374 410.8308 358.81903 410.8308C361.3043 410.8308 363.31903 412.84555 363.31903 415.3308Z" fill-rule="nonzero"/><path fill="#4a86e8" clip-path="url(#id_0)" d="M406.29227 399.35535C406.29227 401.84064 404.27756 403.85535 401.79227 403.85535C399.30698 403.85535 397.29227 401.84064 397.29227 399.35535C397.29227 396.87006 399.30698 394.85535 401.79227 394.85535C404.27756 394.85535 406.29227 396.87006 406.29227 399.35535Z" fill-rule="nonzero"/><path fill="#4a86e8" clip-path="url(#id_0)" d="M445.7929 383.65674C445.7929 386.14203 443.7782 388.15674 441.2929 388.15674C438.80765 388.15674 436.7929 386.14203 436.7929 383.65674C436.7929 381.17148 438.80765 379.15674 441.2929 379.15674C443.7782 379.15674 445.7929 381.17148 445.7929 383.65674Z" fill-rule="nonzero"/><path fill="#4a86e8" clip-path="url(#id_0)" d="M487.02988 366.46304C487.02988 368.94833 485.01514 370.96304 482.52988 370.96304C480.0446 370.96304 478.02988 368.94833 478.02988 366.46304C478.02988 363.97775 480.0446 361.96304 482.52988 361.96304C485.01514 361.96304 487.02988 363.97775 487.02988 366.46304Z" fill-rule="nonzero"/><path fill="#4a86e8" clip-path="url(#id_0)" d="M530.22015 347.74655C530.22015 350.2318 528.20544 352.24655 525.72015 352.24655C523.23486 352.24655 521.22015 350.2318 521.22015 347.74655C521.22015 345.26126 523.23486 343.24655 525.72015 343.24655C528.20544 343.24655 530.22015 345.26126 530.22015 347.74655Z" fill-rule="nonzero"/><path fill="#4a86e8" clip-path="url(#id_0)" d="M563.42676 334.0414C563.42676 336.5267 561.41205 338.5414 558.92676 338.5414C556.44147 338.5414 554.42676 336.5267 554.42676 334.0414C554.42676 331.55612 556.44147 329.5414 558.92676 329.5414C561.41205 329.5414 563.42676 331.55612 563.42676 334.0414Z" fill-rule="nonzero"/><path fill="#4a86e8" clip-path="url(#id_0)" d="M601.8422 314.1067C601.8422 316.59195 599.8275 318.6067 597.3422 318.6067C594.85693 318.6067 592.8422 316.59195 592.8422 314.1067C592.8422 311.6214 594.85693 309.6067 597.3422 309.6067C599.8275 309.6067 601.8422 311.6214 601.8422 314.1067Z" fill-rule="nonzero"/><path fill="#4a86e8" clip-path="url(#id_0)" d="M642.42804 295.3625C642.42804 297.84778 640.4133 299.8625 637.92804 299.8625C635.44275 299.8625 633.42804 297.84778 633.42804 295.3625C633.42804 292.8772 635.44275 290.8625 637.92804 290.8625C640.4133 290.8625 642.42804 292.8772 642.42804 295.3625Z" fill-rule="nonzero"/><path fill="#4a86e8" clip-path="url(#id_0)" d="M683.665 278.08572C683.665 280.571 681.65027 282.58572 679.165 282.58572C676.67975 282.58572 674.665 280.571 674.665 278.08572C674.665 275.60043 676.67975 273.58572 679.165 273.58572C681.65027 273.58572 683.665 275.60043 683.665 278.08572Z" fill-rule="nonzero"/><path fill="#4a86e8" clip-path="url(#id_0)" d="M720.5612 265.8203C720.5612 268.3056 718.5465 270.3203 716.0612 270.3203C713.5759 270.3203 711.5612 268.3056 711.5612 265.8203C711.5612 263.33505 713.5759 261.3203 716.0612 261.3203C718.5465 261.3203 720.5612 263.33505 720.5612 265.8203Z" fill-rule="nonzero"/><path fill="#4a86e8" clip-path="url(#id_0)" d="M757.89154 251.4507C757.89154 253.93599 755.8768 255.9507 753.39154 255.9507C750.90625 255.9507 748.89154 253.93599 748.89154 251.4507C748.89154 248.96542 750.90625 246.9507 753.39154 246.9507C755.8768 246.9507 757.89154 248.96542 757.89154 251.4507Z" fill-rule="nonzero"/><path fill="#d9d9d9" d="M72.828125 481.31308Q72.828125 483.85995 71.953125 485.09433Q71.09375 486.3287 69.25 486.3287Q67.4375 486.3287 66.5625 485.12558Q65.6875 483.90683 65.65625 481.5162L65.65625 479.5787Q65.65625 477.0787 66.515625 475.85995Q67.390625 474.6412 69.234375 474.6412Q71.078125 474.6412 71.9375 475.81308Q72.8125 476.98495 72.828125 479.43808L72.828125 481.31308ZM71.390625 479.34433Q71.390625 477.50058 70.875 476.67245Q70.359375 475.8287 69.234375 475.8287Q68.125 475.8287 67.609375 476.67245Q67.109375 477.50058 67.09375 479.23495L67.09375 481.54745Q67.09375 483.3912 67.625 484.2662Q68.171875 485.1412 69.25 485.1412Q70.328125 485.1412 70.84375 484.31308Q71.359375 483.48495 71.390625 481.7037L71.390625 479.34433Z" fill-rule="nonzero"/><path fill="#d9d9d9" d="M46.15625 416.95462L38.703125 416.95462L38.703125 415.90775L42.640625 411.53275Q43.515625 410.54837 43.84375 409.92337Q44.171875 409.29837 44.171875 408.64212Q44.171875 407.7515 43.625 407.189Q43.09375 406.61087 42.203125 406.61087Q41.125 406.61087 40.515625 407.22025Q39.921875 407.82962 39.921875 408.92337L38.484375 408.92337Q38.484375 407.36087 39.484375 406.39212Q40.5 405.42337 42.203125 405.42337Q43.78125 405.42337 44.703125 406.2515Q45.625 407.07962 45.625 408.47025Q45.625 410.14212 43.484375 412.47025L40.4375 415.76712L46.15625 415.76712L46.15625 416.95462ZM48.359375 411.2515L48.9375 405.57962L54.765625 405.57962L54.765625 406.90775L50.171875 406.90775L49.828125 410.01712Q50.65625 409.51712 51.71875 409.51712Q53.28125 409.51712 54.1875 410.54837Q55.109375 411.57962 55.109375 413.32962Q55.109375 415.07962 54.15625 416.09525Q53.203125 417.11087 51.5 417.11087Q50.0 417.11087 49.046875 416.28275Q48.09375 415.439 47.953125 413.95462L49.328125 413.95462Q49.453125 414.939 50.015625 415.439Q50.578125 415.92337 51.5 415.92337Q52.515625 415.92337 53.078125 415.23587Q53.65625 414.54837 53.65625 413.34525Q53.65625 412.20462 53.03125 411.51712Q52.421875 410.814 51.390625 410.814Q50.4375 410.814 49.90625 411.23587L49.515625 411.54837L48.359375 411.2515ZM63.828125 412.09525Q63.828125 414.64212 62.953125 415.8765Q62.09375 417.11087 60.25 417.11087Q58.4375 417.11087 57.5625 415.90775Q56.6875 414.689 56.65625 412.29837L56.65625 410.36087Q56.65625 407.86087 57.515625 406.64212Q58.390625 405.42337 60.234375 405.42337Q62.078125 405.42337 62.9375 406.59525Q63.8125 407.76712 63.828125 410.22025L63.828125 412.09525ZM62.390625 410.1265Q62.390625 408.28275 61.875 407.45462Q61.359375 406.61087 60.234375 406.61087Q59.125 406.61087 58.609375 407.45462Q58.109375 408.28275 58.09375 410.01712L58.09375 412.32962Q58.09375 414.17337 58.625 415.04837Q59.171875 415.92337 60.25 415.92337Q61.328125 415.92337 61.84375 415.09525Q62.359375 414.26712 62.390625 412.48587L62.390625 410.1265ZM72.828125 412.09525Q72.828125 414.64212 71.953125 415.8765Q71.09375 417.11087 69.25 417.11087Q67.4375 417.11087 66.5625 415.90775Q65.6875 414.689 65.65625 412.29837L65.65625 410.36087Q65.65625 407.86087 66.515625 406.64212Q67.390625 405.42337 69.234375 405.42337Q71.078125 405.42337 71.9375 406.59525Q72.8125 407.76712 72.828125 410.22025L72.828125 412.09525ZM71.390625 410.1265Q71.390625 408.28275 70.875 407.45462Q70.359375 406.61087 69.234375 406.61087Q68.125 406.61087 67.609375 407.45462Q67.109375 408.28275 67.09375 410.01712L67.09375 412.32962Q67.09375 414.17337 67.625 415.04837Q68.171875 415.92337 69.25 415.92337Q70.328125 415.92337 70.84375 415.09525Q71.359375 414.26712 71.390625 412.48587L71.390625 410.1265Z" fill-rule="nonzero"/><path fill="#d9d9d9" d="M39.359375 342.0337L39.9375 336.36182L45.765625 336.36182L45.765625 337.68994L41.171875 337.68994L40.828125 340.79932Q41.65625 340.29932 42.71875 340.29932Q44.28125 340.29932 45.1875 341.33057Q46.109375 342.36182 46.109375 344.11182Q46.109375 345.86182 45.15625 346.87744Q44.203125 347.89307 42.5 347.89307Q41.0 347.89307 40.046875 347.06494Q39.09375 346.2212 38.953125 344.73682L40.328125 344.73682Q40.453125 345.7212 41.015625 346.2212Q41.578125 346.70557 42.5 346.70557Q43.515625 346.70557 44.078125 346.01807Q44.65625 345.33057 44.65625 344.12744Q44.65625 342.98682 44.03125 342.29932Q43.421875 341.5962 42.390625 341.5962Q41.4375 341.5962 40.90625 342.01807L40.515625 342.33057L39.359375 342.0337ZM54.828125 342.87744Q54.828125 345.42432 53.953125 346.6587Q53.09375 347.89307 51.25 347.89307Q49.4375 347.89307 48.5625 346.68994Q47.6875 345.4712 47.65625 343.08057L47.65625 341.14307Q47.65625 338.64307 48.515625 337.42432Q49.390625 336.20557 51.234375 336.20557Q53.078125 336.20557 53.9375 337.37744Q54.8125 338.54932 54.828125 341.00244L54.828125 342.87744ZM53.390625 340.9087Q53.390625 339.06494 52.875 338.23682Q52.359375 337.39307 51.234375 337.39307Q50.125 337.39307 49.609375 338.23682Q49.109375 339.06494 49.09375 340.79932L49.09375 343.11182Q49.09375 344.95557 49.625 345.83057Q50.171875 346.70557 51.25 346.70557Q52.328125 346.70557 52.84375 345.87744Q53.359375 345.04932 53.390625 343.26807L53.390625 340.9087ZM63.828125 342.87744Q63.828125 345.42432 62.953125 346.6587Q62.09375 347.89307 60.25 347.89307Q58.4375 347.89307 57.5625 346.68994Q56.6875 345.4712 56.65625 343.08057L56.65625 341.14307Q56.65625 338.64307 57.515625 337.42432Q58.390625 336.20557 60.234375 336.20557Q62.078125 336.20557 62.9375 337.37744Q63.8125 338.54932 63.828125 341.00244L63.828125 342.87744ZM62.390625 340.9087Q62.390625 339.06494 61.875 338.23682Q61.359375 337.39307 60.234375 337.39307Q59.125 337.39307 58.609375 338.23682Q58.109375 339.06494 58.09375 340.79932L58.09375 343.11182Q58.09375 344.95557 58.625 345.83057Q59.171875 346.70557 60.25 346.70557Q61.328125 346.70557 61.84375 345.87744Q62.359375 345.04932 62.390625 343.26807L62.390625 340.9087ZM72.828125 342.87744Q72.828125 345.42432 71.953125 346.6587Q71.09375 347.89307 69.25 347.89307Q67.4375 347.89307 66.5625 346.68994Q65.6875 345.4712 65.65625 343.08057L65.65625 341.14307Q65.65625 338.64307 66.515625 337.42432Q67.390625 336.20557 69.234375 336.20557Q71.078125 336.20557 71.9375 337.37744Q72.8125 338.54932 72.828125 341.00244L72.828125 342.87744ZM71.390625 340.9087Q71.390625 339.06494 70.875 338.23682Q70.359375 337.39307 69.234375 337.39307Q68.125 337.39307 67.609375 338.23682Q67.109375 339.06494 67.09375 340.79932L67.09375 343.11182Q67.09375 344.95557 67.625 345.83057Q68.171875 346.70557 69.25 346.70557Q70.328125 346.70557 70.84375 345.87744Q71.359375 345.04932 71.390625 343.26807L71.390625 340.9087Z" fill-rule="nonzero"/><path fill="#d9d9d9" d="M46.046875 267.95648L41.328125 278.51898L39.8125 278.51898L44.515625 268.33148L38.359375 268.33148L38.359375 267.14398L46.046875 267.14398L46.046875 267.95648ZM48.359375 272.81586L48.9375 267.14398L54.765625 267.14398L54.765625 268.4721L50.171875 268.4721L49.828125 271.58148Q50.65625 271.08148 51.71875 271.08148Q53.28125 271.08148 54.1875 272.11273Q55.109375 273.14398 55.109375 274.89398Q55.109375 276.64398 54.15625 277.6596Q53.203125 278.67523 51.5 278.67523Q50.0 278.67523 49.046875 277.8471Q48.09375 277.00336 47.953125 275.51898L49.328125 275.51898Q49.453125 276.50336 50.015625 277.00336Q50.578125 277.48773 51.5 277.48773Q52.515625 277.48773 53.078125 276.80023Q53.65625 276.11273 53.65625 274.9096Q53.65625 273.76898 53.03125 273.08148Q52.421875 272.37836 51.390625 272.37836Q50.4375 272.37836 49.90625 272.80023L49.515625 273.11273L48.359375 272.81586ZM63.828125 273.6596Q63.828125 276.20648 62.953125 277.44086Q62.09375 278.67523 60.25 278.67523Q58.4375 278.67523 57.5625 277.4721Q56.6875 276.25336 56.65625 273.86273L56.65625 271.92523Q56.65625 269.42523 57.515625 268.20648Q58.390625 266.98773 60.234375 266.98773Q62.078125 266.98773 62.9375 268.1596Q63.8125 269.33148 63.828125 271.7846L63.828125 273.6596ZM62.390625 271.69086Q62.390625 269.8471 61.875 269.01898Q61.359375 268.17523 60.234375 268.17523Q59.125 268.17523 58.609375 269.01898Q58.109375 269.8471 58.09375 271.58148L58.09375 273.89398Q58.09375 275.73773 58.625 276.61273Q59.171875 277.48773 60.25 277.48773Q61.328125 277.48773 61.84375 276.6596Q62.359375 275.83148 62.390625 274.05023L62.390625 271.69086ZM72.828125 273.6596Q72.828125 276.20648 71.953125 277.44086Q71.09375 278.67523 69.25 278.67523Q67.4375 278.67523 66.5625 277.4721Q65.6875 276.25336 65.65625 273.86273L65.65625 271.92523Q65.65625 269.42523 66.515625 268.20648Q67.390625 266.98773 69.234375 266.98773Q71.078125 266.98773 71.9375 268.1596Q72.8125 269.33148 72.828125 271.7846L72.828125 273.6596ZM71.390625 271.69086Q71.390625 269.8471 70.875 269.01898Q70.359375 268.17523 69.234375 268.17523Q68.125 268.17523 67.609375 269.01898Q67.109375 269.8471 67.09375 271.58148L67.09375 273.89398Q67.09375 275.73773 67.625 276.61273Q68.171875 277.48773 69.25 277.48773Q70.328125 277.48773 70.84375 276.6596Q71.359375 275.83148 71.390625 274.05023L71.390625 271.69086Z" fill-rule="nonzero"/><path fill="#d9d9d9" d="M34.453125 209.30116L33.0 209.30116L33.0 199.66054L30.078125 200.73866L30.078125 199.42616L34.21875 197.86366L34.453125 197.86366L34.453125 209.30116ZM45.828125 204.44179Q45.828125 206.98866 44.953125 208.22304Q44.09375 209.45741 42.25 209.45741Q40.4375 209.45741 39.5625 208.25429Q38.6875 207.03554 38.65625 204.64491L38.65625 202.70741Q38.65625 200.20741 39.515625 198.98866Q40.390625 197.76991 42.234375 197.76991Q44.078125 197.76991 44.9375 198.94179Q45.8125 200.11366 45.828125 202.56679L45.828125 204.44179ZM44.390625 202.47304Q44.390625 200.62929 43.875 199.80116Q43.359375 198.95741 42.234375 198.95741Q41.125 198.95741 40.609375 199.80116Q40.109375 200.62929 40.09375 202.36366L40.09375 204.67616Q40.09375 206.51991 40.625 207.39491Q41.171875 208.26991 42.25 208.26991Q43.328125 208.26991 43.84375 207.44179Q44.359375 206.61366 44.390625 204.83241L44.390625 202.47304ZM54.828125 204.44179Q54.828125 206.98866 53.953125 208.22304Q53.09375 209.45741 51.25 209.45741Q49.4375 209.45741 48.5625 208.25429Q47.6875 207.03554 47.65625 204.64491L47.65625 202.70741Q47.65625 200.20741 48.515625 198.98866Q49.390625 197.76991 51.234375 197.76991Q53.078125 197.76991 53.9375 198.94179Q54.8125 200.11366 54.828125 202.56679L54.828125 204.44179ZM53.390625 202.47304Q53.390625 200.62929 52.875 199.80116Q52.359375 198.95741 51.234375 198.95741Q50.125 198.95741 49.609375 199.80116Q49.109375 200.62929 49.09375 202.36366L49.09375 204.67616Q49.09375 206.51991 49.625 207.39491Q50.171875 208.26991 51.25 208.26991Q52.328125 208.26991 52.84375 207.44179Q53.359375 206.61366 53.390625 204.83241L53.390625 202.47304ZM63.828125 204.44179Q63.828125 206.98866 62.953125 208.22304Q62.09375 209.45741 60.25 209.45741Q58.4375 209.45741 57.5625 208.25429Q56.6875 207.03554 56.65625 204.64491L56.65625 202.70741Q56.65625 200.20741 57.515625 198.98866Q58.390625 197.76991 60.234375 197.76991Q62.078125 197.76991 62.9375 198.94179Q63.8125 200.11366 63.828125 202.56679L63.828125 204.44179ZM62.390625 202.47304Q62.390625 200.62929 61.875 199.80116Q61.359375 198.95741 60.234375 198.95741Q59.125 198.95741 58.609375 199.80116Q58.109375 200.62929 58.09375 202.36366L58.09375 204.67616Q58.09375 206.51991 58.625 207.39491Q59.171875 208.26991 60.25 208.26991Q61.328125 208.26991 61.84375 207.44179Q62.359375 206.61366 62.390625 204.83241L62.390625 202.47304ZM72.828125 204.44179Q72.828125 206.98866 71.953125 208.22304Q71.09375 209.45741 69.25 209.45741Q67.4375 209.45741 66.5625 208.25429Q65.6875 207.03554 65.65625 204.64491L65.65625 202.70741Q65.65625 200.20741 66.515625 198.98866Q67.390625 197.76991 69.234375 197.76991Q71.078125 197.76991 71.9375 198.94179Q72.8125 200.11366 72.828125 202.56679L72.828125 204.44179ZM71.390625 202.47304Q71.390625 200.62929 70.875 199.80116Q70.359375 198.95741 69.234375 198.95741Q68.125 198.95741 67.609375 199.80116Q67.109375 200.62929 67.09375 202.36366L67.09375 204.67616Q67.09375 206.51991 67.625 207.39491Q68.171875 208.26991 69.25 208.26991Q70.328125 208.26991 70.84375 207.44179Q71.359375 206.61366 71.390625 204.83241L71.390625 202.47304Z" fill-rule="nonzero"/><path fill="#d9d9d9" d="M34.453125 140.08333L33.0 140.08333L33.0 130.4427L30.078125 131.52083L30.078125 130.20833L34.21875 128.64583L34.453125 128.64583L34.453125 140.08333ZM46.15625 140.08333L38.703125 140.08333L38.703125 139.03645L42.640625 134.66145Q43.515625 133.67708 43.84375 133.05208Q44.171875 132.42708 44.171875 131.77083Q44.171875 130.8802 43.625 130.3177Q43.09375 129.73958 42.203125 129.73958Q41.125 129.73958 40.515625 130.34895Q39.921875 130.95833 39.921875 132.05208L38.484375 132.05208Q38.484375 130.48958 39.484375 129.52083Q40.5 128.55208 42.203125 128.55208Q43.78125 128.55208 44.703125 129.3802Q45.625 130.20833 45.625 131.59895Q45.625 133.27083 43.484375 135.59895L40.4375 138.89583L46.15625 138.89583L46.15625 140.08333ZM48.359375 134.3802L48.9375 128.70833L54.765625 128.70833L54.765625 130.03645L50.171875 130.03645L49.828125 133.14583Q50.65625 132.64583 51.71875 132.64583Q53.28125 132.64583 54.1875 133.67708Q55.109375 134.70833 55.109375 136.45833Q55.109375 138.20833 54.15625 139.22395Q53.203125 140.23958 51.5 140.23958Q50.0 140.23958 49.046875 139.41145Q48.09375 138.5677 47.953125 137.08333L49.328125 137.08333Q49.453125 138.0677 50.015625 138.5677Q50.578125 139.05208 51.5 139.05208Q52.515625 139.05208 53.078125 138.36458Q53.65625 137.67708 53.65625 136.47395Q53.65625 135.33333 53.03125 134.64583Q52.421875 133.9427 51.390625 133.9427Q50.4375 133.9427 49.90625 134.36458L49.515625 134.67708L48.359375 134.3802ZM63.828125 135.22395Q63.828125 137.77083 62.953125 139.0052Q62.09375 140.23958 60.25 140.23958Q58.4375 140.23958 57.5625 139.03645Q56.6875 137.8177 56.65625 135.42708L56.65625 133.48958Q56.65625 130.98958 57.515625 129.77083Q58.390625 128.55208 60.234375 128.55208Q62.078125 128.55208 62.9375 129.72395Q63.8125 130.89583 63.828125 133.34895L63.828125 135.22395ZM62.390625 133.2552Q62.390625 131.41145 61.875 130.58333Q61.359375 129.73958 60.234375 129.73958Q59.125 129.73958 58.609375 130.58333Q58.109375 131.41145 58.09375 133.14583L58.09375 135.45833Q58.09375 137.30208 58.625 138.17708Q59.171875 139.05208 60.25 139.05208Q61.328125 139.05208 61.84375 138.22395Q62.359375 137.39583 62.390625 135.61458L62.390625 133.2552ZM72.828125 135.22395Q72.828125 137.77083 71.953125 139.0052Q71.09375 140.23958 69.25 140.23958Q67.4375 140.23958 66.5625 139.03645Q65.6875 137.8177 65.65625 135.42708L65.65625 133.48958Q65.65625 130.98958 66.515625 129.77083Q67.390625 128.55208 69.234375 128.55208Q71.078125 128.55208 71.9375 129.72395Q72.8125 130.89583 72.828125 133.34895L72.828125 135.22395ZM71.390625 133.2552Q71.390625 131.41145 70.875 130.58333Q70.359375 129.73958 69.234375 129.73958Q68.125 129.73958 67.609375 130.58333Q67.109375 131.41145 67.09375 133.14583L67.09375 135.45833Q67.09375 137.30208 67.625 138.17708Q68.171875 139.05208 69.25 139.05208Q70.328125 139.05208 70.84375 138.22395Q71.359375 137.39583 71.390625 135.61458L71.390625 133.2552Z" fill-rule="nonzero"/><path fill="#d9d9d9" d="M142.36163 541.72L138.63507 548.17456L137.72844 547.6511L135.90834 542.05365Q135.49335 540.8037 135.11613 540.20703Q134.73894 539.61035 134.17061 539.2822Q133.3993 538.8369 132.63872 539.0293Q131.87242 539.2003 131.42711 539.9716Q130.88805 540.9053 131.1111 541.73773Q131.34196 542.5566 132.28917 543.10345L131.57042 544.3484Q130.21725 543.56714 129.8783 542.21674Q129.54715 540.8528 130.39871 539.37787Q131.18777 538.01117 132.36589 537.62683Q133.544 537.24255 134.74832 537.93787Q136.1962 538.7738 137.1421 541.7917L138.47385 546.0788L141.33322 541.1262L142.36163 541.72ZM142.48923 531.7802Q144.69489 533.05365 145.32639 534.42865Q145.9657 535.79004 145.04382 537.3868Q144.13757 538.9565 142.65813 539.1127Q141.16516 539.26105 139.0792 538.09283L137.40128 537.1241Q135.2362 535.8741 134.61043 534.52045Q133.99246 533.1533 134.91434 531.5566Q135.83621 529.95984 137.28078 529.8015Q138.73314 529.6297 140.86543 530.8427L142.48923 531.7802ZM140.06549 532.0408Q138.46875 531.1189 137.49376 531.15137Q136.50523 531.176 135.94273 532.1503Q135.38805 533.1111 135.86095 533.9795Q136.32812 534.82654 137.82233 535.7073L139.82501 536.8635Q141.42174 537.7854 142.44514 537.7628Q143.47635 537.72675 144.01541 536.793Q144.55447 535.8594 144.09511 534.9987Q143.63574 534.1381 142.10876 533.22046L140.06549 532.0408ZM150.01007 528.4725L149.28351 529.73096L140.93448 524.91064L140.40723 527.9801L139.27057 527.32385L139.98772 522.9567L140.1049 522.7537L150.01007 528.4725ZM155.86163 518.3373L152.13507 524.7919L151.22844 524.26843L149.40834 518.67096Q148.99335 517.421 148.61613 516.82434Q148.23894 516.22766 147.67061 515.89954Q146.8993 515.4542 146.13872 515.6466Q145.37242 515.8176 144.92711 516.5889Q144.38805 517.5226 144.6111 518.35504Q144.84196 519.1739 145.78917 519.72076L145.07042 520.9657Q143.71725 520.18445 143.3783 518.83405Q143.04715 517.4701 143.89871 515.9952Q144.68777 514.6285 145.86589 514.2442Q147.044 513.85986 148.24832 514.5552Q149.6962 515.3911 150.6421 518.409L151.97385 522.6961L154.83322 517.7435L155.86163 518.3373ZM157.70631 517.11096L157.08131 518.1935L148.75278 507.90018L149.36996 506.83118L157.70631 517.11096ZM159.48923 502.33536Q161.69489 503.6088 162.32639 504.98376Q162.9657 506.34518 162.04382 507.94193Q161.13757 509.5116 159.65813 509.66782Q158.16516 509.8162 156.0792 508.64795L154.40128 507.6792Q152.2362 506.4292 151.61043 505.0756Q150.99246 503.70844 151.91434 502.1117Q152.83621 500.51495 154.28078 500.35666Q155.73314 500.18484 157.86543 501.39786L159.48923 502.33536ZM157.06549 502.5959Q155.46875 501.674 154.49376 501.7065Q153.50523 501.73117 152.94273 502.70544Q152.38805 503.6662 152.86095 504.5346Q153.32812 505.38168 154.82233 506.26242L156.82501 507.41867Q158.42174 508.34055 159.44514 508.31796Q160.47635 508.28186 161.01541 507.34818Q161.55447 506.4145 161.09511 505.5539Q160.63574 504.69327 159.10876 503.77557L157.06549 502.5959ZM167.01007 499.02762L166.28351 500.28607L157.93448 495.46576L157.40723 498.53525L156.27057 497.879L156.98772 493.51184L157.1049 493.30887L167.01007 499.02762Z" fill-rule="nonzero"/><path fill="#d9d9d9" d="M221.79701 541.72L218.07045 548.17456L217.16383 547.6511L215.34372 542.05365Q214.92873 540.8037 214.55153 540.20703Q214.17432 539.61035 213.60599 539.2822Q212.83469 538.8369 212.07411 539.0293Q211.30782 539.2003 210.8625 539.9716Q210.32344 540.9053 210.5465 541.73773Q210.77734 542.5566 211.72456 543.10345L211.00581 544.3484Q209.65265 543.56714 209.31369 542.21674Q208.98254 540.8528 209.8341 539.37787Q210.62317 538.01117 211.80128 537.62683Q212.97939 537.24255 214.18372 537.93787Q215.63159 538.7738 216.5775 541.7917L217.90924 546.0788L220.76862 541.1262L221.79701 541.72ZM221.9246 531.7802Q224.13026 533.05365 224.76176 534.4286Q225.40108 535.79004 224.4792 537.3868Q223.57295 538.9564 222.09352 539.1127Q220.60056 539.26105 218.51459 538.09283L216.83667 537.1241Q214.6716 535.8741 214.04582 534.52045Q213.42786 533.1533 214.34973 531.5566Q215.2716 529.95984 216.71616 529.8015Q218.16853 529.6297 220.30081 530.8427L221.9246 531.7802ZM219.50087 532.0408Q217.90414 531.1189 216.92915 531.15137Q215.94063 531.176 215.37813 532.1503Q214.82344 533.1111 215.29634 533.9795Q215.76352 534.82654 217.25772 535.7073L219.2604 536.8635Q220.85713 537.7854 221.88054 537.7628Q222.91174 537.7267 223.4508 536.793Q223.98987 535.8594 223.5305 534.9987Q223.07114 534.1381 221.54416 533.22046L219.50087 532.0408ZM229.44545 528.4725L228.71889 529.73096L220.36987 524.91064L219.8426 527.9801L218.70595 527.32385L219.4231 522.9567L219.54028 522.7537L229.44545 528.4725ZM227.08289 519.7833L227.62976 518.8361Q228.12404 517.9487 227.96657 517.19025Q227.80336 516.41046 227.03206 515.96515Q225.3 514.96515 224.30782 516.68365Q223.83907 517.49554 224.0179 518.2483Q224.19672 519.00104 224.96802 519.44635L224.24927 520.6913Q223.07202 520.0116 222.79291 518.7138Q222.5138 517.416 223.27942 516.0899Q224.0841 514.6961 225.28146 514.341Q226.47311 513.9645 227.78568 514.7223Q228.42168 515.0895 228.7884 515.86053Q229.14162 516.6238 229.02524 517.5128Q229.7511 516.84937 230.6043 516.7466Q231.4575 516.64374 232.32353 517.14374Q233.64963 517.90936 233.93446 519.2285Q234.20576 520.53986 233.40108 521.93365Q232.6042 523.31384 231.35216 523.76373Q230.09439 524.19226 228.863 523.4813L229.58957 522.2229Q230.36087 522.6682 231.12354 522.441Q231.8805 522.1924 232.37268 521.3399Q232.89612 520.4333 232.69595 519.6862Q232.50359 518.92566 231.62404 518.41785Q230.75801 517.91785 229.99324 518.17993Q229.22849 518.4421 228.64464 519.42206L228.09776 520.36926L227.08289 519.7833ZM237.1417 517.11096L236.5167 518.1935L228.18817 507.90018L228.80536 506.83118L237.1417 517.11096ZM238.9246 502.33536Q241.13026 503.6088 241.76176 504.98376Q242.40108 506.34518 241.4792 507.94193Q240.57295 509.5116 239.09352 509.6678Q237.60056 509.8162 235.51459 508.64795L233.83667 507.6792Q231.6716 506.4292 231.04582 505.0756Q230.42786 503.70844 231.34973 502.1117Q232.2716 500.51495 233.71616 500.35666Q235.16853 500.1848 237.30081 501.39786L238.9246 502.33536ZM236.50087 502.5959Q234.90414 501.674 233.92915 501.7065Q232.94063 501.73117 232.37813 502.70544Q231.82344 503.6662 232.29634 504.5346Q232.76352 505.38168 234.25772 506.26242L236.2604 507.41867Q237.85713 508.34055 238.88054 508.31796Q239.91174 508.28186 240.4508 507.34818Q240.98987 506.4145 240.5305 505.55386Q240.07114 504.69327 238.54416 503.77557L236.50087 502.5959ZM246.44545 499.02762L245.71889 500.28607L237.36987 495.46576L236.8426 498.53525L235.70595 497.879L236.4231 493.51184L236.54028 493.30887L246.44545 499.02762Z" fill-rule="nonzero"/><path fill="#d9d9d9" d="M301.01538 541.72L297.28882 548.17456L296.3822 547.6511L294.56207 542.05365Q294.1471 540.8037 293.76987 540.20703Q293.39267 539.61035 292.82434 539.2822Q292.05304 538.8369 291.29248 539.0293Q290.52618 539.2003 290.08087 539.9716Q289.5418 540.9053 289.76483 541.73773Q289.9957 542.5566 290.9429 543.10345L290.22415 544.3484Q288.871 543.56714 288.53204 542.21674Q288.2009 540.8528 289.05246 539.37787Q289.84152 538.01117 291.01962 537.62683Q292.19775 537.24255 293.40207 537.93787Q294.84995 538.7738 295.79584 541.7917L297.1276 546.0788L299.98697 541.1262L301.01538 541.72ZM301.14297 531.7802Q303.34863 533.05365 303.98013 534.4286Q304.61945 535.79004 303.69757 537.3868Q302.79132 538.9564 301.3119 539.1127Q299.8189 539.26105 297.73294 538.09283L296.05502 537.1241Q293.88995 535.8741 293.26416 534.52045Q292.6462 533.1533 293.56808 531.5566Q294.48996 529.95984 295.9345 529.8015Q297.38687 529.6297 299.51917 530.8427L301.14297 531.7802ZM298.71924 532.0408Q297.1225 531.1189 296.1475 531.15137Q295.159 531.176 294.5965 532.1503Q294.0418 533.1111 294.51468 533.9795Q294.98187 534.82654 296.47607 535.7073L298.47876 536.8635Q300.0755 537.7854 301.09888 537.7628Q302.1301 537.7267 302.66916 536.793Q303.20822 535.8593 302.74884 534.9987Q302.2895 534.1381 300.7625 533.22046L298.71924 532.0408ZM308.66382 528.4725L307.93726 529.73096L299.58823 524.91064L299.06097 527.9801L297.92432 527.32385L298.64145 522.9567L298.75864 522.7537L308.66382 528.4725ZM310.52042 517.60046L311.30948 516.23376L312.3379 516.8275L311.54883 518.1942L313.8357 519.5145L313.10913 520.77295L310.82227 519.45264L308.23633 523.93164L307.4921 523.50195L303.21902 515.15314L303.98465 513.827L310.52042 517.60046ZM308.02823 521.91705L309.79385 518.8589L304.96307 516.0698L305.14777 516.37494L308.02823 521.91705ZM316.36005 517.11096L315.73505 518.1935L307.40652 507.90018L308.0237 506.83118L316.36005 517.11096ZM318.14297 502.33536Q320.34863 503.6088 320.98013 504.98376Q321.61945 506.34518 320.69757 507.94193Q319.79132 509.5116 318.3119 509.6678Q316.8189 509.8162 314.73294 508.64795L313.05502 507.6792Q310.88995 506.4292 310.26416 505.07556Q309.6462 503.70844 310.56808 502.1117Q311.48996 500.51495 312.9345 500.35666Q314.38687 500.1848 316.51917 501.39786L318.14297 502.33536ZM315.71924 502.5959Q314.1225 501.674 313.1475 501.70648Q312.159 501.73117 311.5965 502.70544Q311.0418 503.6662 311.51468 504.5346Q311.98187 505.38168 313.47607 506.2624L315.47876 507.41864Q317.0755 508.3405 318.09888 508.31796Q319.1301 508.28186 319.66916 507.34818Q320.20822 506.4145 319.74884 505.55386Q319.2895 504.69327 317.7625 503.77557L315.71924 502.5959ZM325.66382 499.02762L324.93726 500.28607L316.58823 495.46576L316.06097 498.53525L314.92432 497.879L315.64145 493.51184L315.75864 493.30887L325.66382 499.02762Z" fill-rule="nonzero"/><path fill="#d9d9d9" d="M380.23373 541.72L376.50717 548.17456L375.60052 547.6511L373.78043 542.05365Q373.36545 540.8037 372.98822 540.20703Q372.61102 539.61035 372.0427 539.2822Q371.2714 538.8369 370.5108 539.0293Q369.7445 539.2003 369.2992 539.9716Q368.76013 540.9053 368.9832 541.73773Q369.21405 542.5566 370.16125 543.10345L369.4425 544.3484Q368.08936 543.56714 367.7504 542.21674Q367.41925 540.8528 368.2708 539.37787Q369.05988 538.01117 370.23798 537.62683Q371.4161 537.24255 372.62042 537.93787Q374.0683 538.7738 375.0142 541.7917L376.34595 546.0788L379.20532 541.1262L380.23373 541.72ZM380.36133 531.7802Q382.567 533.05365 383.1985 534.4286Q383.8378 535.79004 382.91592 537.3868Q382.00967 538.9564 380.5302 539.1127Q379.03726 539.26105 376.9513 538.0928L375.27338 537.124Q373.1083 535.874 372.4825 534.52045Q371.86456 533.15326 372.78644 531.5566Q373.7083 529.95984 375.15286 529.8015Q376.60522 529.6297 378.73752 530.8427L380.36133 531.7802ZM377.9376 532.0408Q376.34085 531.1189 375.36584 531.15137Q374.37732 531.176 373.81482 532.1503Q373.26013 533.111 373.73303 533.9795Q374.20023 534.82654 375.69443 535.7073L377.6971 536.8635Q379.29382 537.7854 380.31723 537.7628Q381.34845 537.7267 381.8875 536.793Q382.42657 535.8593 381.9672 534.9987Q381.50784 534.1381 379.98087 533.22046L377.9376 532.0408ZM387.88217 528.4725L387.1556 529.7309L378.80658 524.9106L378.27933 527.9801L377.14267 527.32385L377.8598 522.9567L377.977 522.7537L387.88217 528.4725ZM385.39624 521.372L380.77332 518.0354L383.68738 512.9881L384.83755 513.65216L382.54068 517.63043L385.0616 519.48285Q385.04266 518.5156 385.5739 517.5955Q386.35516 516.2423 387.7014 515.97314Q389.0554 515.69037 390.57095 516.56537Q392.0865 517.44037 392.48947 518.7736Q392.8925 520.1069 392.04092 521.5818Q391.29092 522.88086 390.09717 523.29224Q388.8899 523.6958 387.5341 523.0754L388.2216 521.8846Q389.13657 522.2685 389.85083 522.0314Q390.55157 521.78644 391.0125 520.98804Q391.52032 520.1085 391.20618 519.2776Q390.89984 518.43317 389.8579 517.8316Q388.8701 517.2613 387.96222 517.45886Q387.04858 517.635 386.53296 518.5281Q386.0564 519.3535 386.15613 520.02454L386.23145 520.5191L385.39624 521.372ZM395.5784 517.11096L394.9534 518.1935L386.62488 507.90018L387.24207 506.83118L395.5784 517.11096ZM397.36133 502.33536Q399.567 503.6088 400.1985 504.98373Q400.8378 506.34518 399.91592 507.9419Q399.00967 509.51157 397.5302 509.6678Q396.03726 509.8162 393.9513 508.64795L392.27338 507.6792Q390.1083 506.4292 389.4825 505.07556Q388.86456 503.70844 389.78644 502.1117Q390.7083 500.51495 392.15286 500.35666Q393.60522 500.1848 395.73752 501.39786L397.36133 502.33536ZM394.9376 502.5959Q393.34085 501.674 392.36584 501.70648Q391.37732 501.73117 390.81482 502.70544Q390.26013 503.6662 390.73303 504.5346Q391.20023 505.38168 392.69443 506.2624L394.6971 507.41864Q396.29382 508.3405 397.31723 508.31796Q398.34845 508.28183 398.8875 507.34814Q399.42657 506.4145 398.9672 505.55386Q398.50784 504.69327 396.98087 503.77557L394.9376 502.5959ZM404.88217 499.02762L404.1556 500.28607L395.80658 495.46576L395.27933 498.53522L394.14267 497.87897L394.8598 493.51184L394.977 493.30887L404.88217 499.02762Z" fill-rule="nonzero"/><path fill="#d9d9d9" d="M459.4521 541.72L455.72552 548.17456L454.81888 547.6511L452.99878 542.05365Q452.58377 540.8037 452.20657 540.20703Q451.82938 539.61035 451.26105 539.2822Q450.48975 538.8369 449.72916 539.0293Q448.96286 539.2003 448.51755 539.9716Q447.9785 540.9053 448.20154 541.7377Q448.4324 542.5566 449.3796 543.10345L448.66086 544.3484Q447.3077 543.56714 446.96875 542.21674Q446.6376 540.8528 447.48917 539.37787Q448.27823 538.01117 449.45633 537.62683Q450.63446 537.24255 451.83878 537.93787Q453.28665 538.7738 454.23254 541.7917L455.5643 546.0788L458.42368 541.1262L459.4521 541.72ZM459.57968 531.7802Q461.78534 533.05365 462.41684 534.4286Q463.05615 535.79004 462.13428 537.3868Q461.22803 538.9564 459.74857 539.1127Q458.2556 539.26105 456.16965 538.0928L454.49173 537.124Q452.32666 535.874 451.70087 534.52045Q451.08292 533.15326 452.0048 531.5566Q452.92667 529.95984 454.37122 529.8015Q455.82358 529.6297 457.95587 530.8427L459.57968 531.7802ZM457.15594 532.0408Q455.5592 531.1189 454.5842 531.15137Q453.59567 531.176 453.03317 532.1503Q452.4785 533.111 452.9514 533.9795Q453.41858 534.82654 454.91278 535.7073L456.91547 536.8635Q458.51218 537.7854 459.53558 537.7628Q460.5668 537.7267 461.10587 536.793Q461.64493 535.8593 461.18555 534.9987Q460.7262 534.1381 459.19922 533.22046L457.15594 532.0408ZM467.10052 528.4725L466.37396 529.7309L458.02493 524.9106L457.49768 527.9801L456.36102 527.32385L457.07816 522.9567L457.19534 522.7537L467.10052 528.4725ZM462.19687 514.1846L463.26587 514.80176L463.13306 515.0318Q462.31638 516.50885 462.65533 517.85925Q462.9943 519.20966 464.43173 520.22Q463.98395 518.93304 464.7652 517.57983Q465.5074 516.2944 466.8515 516.06Q468.20343 515.81213 469.6378 516.64026Q471.16687 517.5231 471.61044 518.87976Q472.04053 520.22864 471.23584 521.6224Q470.41553 523.0432 468.82516 523.2978Q467.22128 523.54456 465.5163 522.5602L465.02917 522.27893Q462.3093 520.7086 461.5468 518.71674Q460.78436 516.7249 462.06406 514.4146L462.19687 514.1846ZM465.68213 518.39795Q465.31494 519.03394 465.39487 519.80176Q465.46124 520.56177 465.91812 521.1142L466.37817 521.3798Q467.59604 522.08295 468.65277 521.9714Q469.71732 521.84625 470.19388 521.0208Q470.67825 520.1819 470.33707 519.3354Q469.99585 518.48883 468.9945 517.9107Q467.97964 517.32477 467.0681 517.46606Q466.15088 517.58606 465.68213 518.39795ZM474.79675 517.11096L474.17175 518.1935L465.84323 507.90018L466.46042 506.83118L474.79675 517.11096ZM476.57968 502.33536Q478.78534 503.6088 479.41684 504.98373Q480.05615 506.34518 479.13428 507.9419Q478.22803 509.51157 476.74857 509.6678Q475.2556 509.8162 473.16965 508.64795L471.49173 507.6792Q469.32666 506.4292 468.70087 505.07556Q468.08292 503.70844 469.0048 502.1117Q469.92667 500.51495 471.37122 500.35666Q472.82358 500.1848 474.95587 501.39786L476.57968 502.33536ZM474.15594 502.5959Q472.5592 501.674 471.5842 501.70648Q470.59567 501.73117 470.03317 502.70544Q469.4785 503.6662 469.9514 504.5346Q470.41858 505.38168 471.91278 506.2624L473.91547 507.41864Q475.51218 508.3405 476.53558 508.31796Q477.5668 508.28183 478.10587 507.34814Q478.64493 506.41446 478.18555 505.55386Q477.7262 504.69327 476.19922 503.77557L474.15594 502.5959ZM484.10052 499.02762L483.37396 500.28607L475.02493 495.46576L474.49768 498.53522L473.36102 497.87897L474.07816 493.51184L474.19534 493.30887L484.10052 499.02762Z" fill-rule="nonzero"/><path fill="#d9d9d9" d="M538.88745 541.72L535.1609 548.17456L534.2543 547.6511L532.43414 542.05365Q532.01917 540.8037 531.64197 540.20703Q531.2648 539.61035 530.6964 539.2822Q529.9251 538.8369 529.16455 539.0293Q528.39825 539.2003 527.95294 539.9716Q527.4139 540.9053 527.6369 541.73773Q527.8678 542.5566 528.815 543.10345L528.09625 544.3484Q526.7431 543.56714 526.4041 542.21674Q526.073 540.85284 526.92456 539.37787Q527.7136 538.01117 528.8917 537.6269Q530.0698 537.24255 531.2741 537.93787Q532.72205 538.7738 533.6679 541.7917L534.9997 546.0788L537.8591 541.1262L538.88745 541.72ZM539.015 531.7802Q541.2207 533.05365 541.8522 534.42865Q542.4915 535.79004 541.56964 537.3868Q540.6634 538.9565 539.18396 539.1127Q537.691 539.26105 535.60504 538.09283L533.9271 537.1241Q531.762 535.8741 531.1362 534.52045Q530.5183 533.1533 531.4402 531.5566Q532.36206 529.95984 533.8066 529.8015Q535.259 529.6297 537.39124 530.8427L539.015 531.7802ZM536.5913 532.0408Q534.99457 531.1189 534.0196 531.15137Q533.03107 531.176 532.46857 532.1503Q531.9139 533.1111 532.3868 533.9795Q532.85394 534.82654 534.34814 535.7073L536.3508 536.8635Q537.9476 537.7854 538.97095 537.7628Q540.0022 537.72675 540.54126 536.793Q541.0803 535.8594 540.6209 534.9988Q540.16156 534.1381 538.6346 533.22046L536.5913 532.0408ZM546.5359 528.4725L545.8093 529.73096L537.4603 524.91064L536.93304 527.9801L535.7964 527.32385L536.51355 522.9567L536.63074 522.7537L546.5359 528.4725ZM543.18536 513.15076L549.9734 522.51855L549.2156 523.8311L542.7445 514.66437L539.6664 519.99585L538.638 519.4021L542.48175 512.7445L543.18536 513.15076ZM554.2321 517.11096L553.6071 518.1935L545.2786 507.90018L545.8958 506.83118L554.2321 517.11096ZM556.015 502.33536Q558.2207 503.6088 558.8522 504.98376Q559.4915 506.34518 558.56964 507.94193Q557.6634 509.5116 556.18396 509.66782Q554.691 509.8162 552.60504 508.64795L550.9271 507.6792Q548.762 506.4292 548.1362 505.0756Q547.5183 503.70844 548.4402 502.1117Q549.36206 500.51498 550.8066 500.35666Q552.259 500.18484 554.39124 501.39786L556.015 502.33536ZM553.5913 502.59592Q551.99457 501.67404 551.0196 501.7065Q550.03107 501.73117 549.46857 502.70544Q548.9139 503.6662 549.3868 504.53464Q549.85394 505.3817 551.34814 506.26242L553.3508 507.41867Q554.9476 508.34055 555.97095 508.31796Q557.0022 508.28186 557.54126 507.34818Q558.0803 506.4145 557.6209 505.5539Q557.16156 504.69327 555.6346 503.7756L553.5913 502.59592ZM563.5359 499.02765L562.8093 500.28607L554.4603 495.46576L553.93304 498.53525L552.7964 497.879L553.51355 493.51187L553.63074 493.3089L563.5359 499.02765Z" fill-rule="nonzero"/><path fill="#d9d9d9" d="M618.10583 541.72L614.3793 548.17456L613.47266 547.6511L611.6525 542.05365Q611.23755 540.80365 610.86035 540.20703Q610.4831 539.61035 609.9148 539.2822Q609.1435 538.8369 608.38293 539.0293Q607.61664 539.20026 607.1713 539.97156Q606.63226 540.9053 606.8553 541.7377Q607.0861 542.5566 608.0334 543.10345L607.31464 544.3484Q605.9614 543.56714 605.6225 542.21674Q605.2913 540.8528 606.1429 539.3778Q606.93195 538.0111 608.11005 537.62683Q609.2882 537.24255 610.4925 537.93787Q611.94037 538.7738 612.8863 541.7917L614.218 546.0788L617.0774 541.1262L618.10583 541.72ZM618.2334 531.7802Q620.4391 533.05365 621.07056 534.4286Q621.7099 535.79004 620.788 537.3868Q619.8818 538.9564 618.40234 539.1127Q616.90936 539.26105 614.82336 538.0928L613.14545 537.124Q610.9804 535.874 610.3546 534.52045Q609.73663 533.15326 610.6585 531.5565Q611.5804 529.95984 613.02496 529.8015Q614.47736 529.6297 616.6096 530.8427L618.2334 531.7802ZM615.8097 532.0407Q614.21295 531.11884 613.238 531.15137Q612.24945 531.176 611.68695 532.15027Q611.13226 533.111 611.60516 533.97943Q612.0723 534.82654 613.5665 535.7073L615.5692 536.8635Q617.16595 537.7854 618.18933 537.7628Q619.2205 537.7267 619.7596 536.793Q620.29865 535.8593 619.8393 534.9987Q619.37994 534.1381 617.85297 533.2204L615.8097 532.0407ZM625.7543 528.4725L625.0277 529.7309L616.67865 524.9106L616.1514 527.9801L615.0148 527.32385L615.7319 522.9567L615.84906 522.7537L625.7543 528.4725ZM624.04456 514.6213Q624.77527 515.04315 625.13055 515.7715Q625.4801 516.4785 625.42206 517.3291Q626.2057 516.7531 627.0995 516.6737Q627.9933 516.59436 628.7916 517.0553Q630.07715 517.7975 630.3349 519.101Q630.6005 520.391 629.788 521.7983Q628.9677 523.2191 627.7099 523.64764Q626.4464 524.0548 625.17444 523.32043Q624.3761 522.8595 623.9901 522.0593Q623.5984 521.2378 623.71893 520.279Q623.01135 520.7545 622.2243 520.8053Q621.4237 520.8482 620.693 520.42633Q619.44806 519.7076 619.1783 518.48737Q618.9085 517.26715 619.6663 515.9545Q620.4163 514.6555 621.608 514.27905Q622.7996 513.9025 624.04456 514.6213ZM628.04584 518.2846Q627.2204 517.80804 626.4015 518.0389Q625.5691 518.26196 625.0769 519.11444Q624.5925 519.95337 624.8099 520.76447Q625.035 521.562 625.87396 522.0464Q626.7129 522.53076 627.4813 522.3249Q628.24396 522.09766 628.7596 521.2045Q629.2674 520.325 629.0829 519.5509Q628.88477 518.769 628.04584 518.2846ZM620.69476 516.5483Q620.2651 517.29254 620.45953 518.01825Q620.64825 518.7226 621.43304 519.1757Q622.19086 519.6132 622.90875 519.4323Q623.62665 519.2514 624.05634 518.50714Q624.49384 517.7494 624.29156 517.03723Q624.0971 516.3115 623.35284 515.88184Q622.5951 515.44434 621.848 515.6445Q621.1088 515.8311 620.69476 516.5483ZM633.4505 517.11096L632.8255 518.1935L624.49695 507.90015L625.11414 506.83115L633.4505 517.11096ZM635.2334 502.33533Q637.4391 503.60876 638.07056 504.98373Q638.7099 506.34515 637.788 507.9419Q636.8818 509.51157 635.40234 509.6678Q633.90936 509.81616 631.82336 508.64792L630.14545 507.67917Q627.9804 506.42917 627.3546 505.07556Q626.73663 503.7084 627.6585 502.1117Q628.5804 500.51495 630.02496 500.35663Q631.47736 500.1848 633.6096 501.39783L635.2334 502.33533ZM632.8097 502.5959Q631.21295 501.674 630.238 501.70648Q629.24945 501.73114 628.68695 502.70544Q628.13226 503.66617 628.60516 504.5346Q629.0723 505.38168 630.5665 506.2624L632.5692 507.41864Q634.16595 508.3405 635.18933 508.31793Q636.2205 508.28183 636.7596 507.34814Q637.29865 506.41446 636.8393 505.55386Q636.37994 504.69324 634.85297 503.77557L632.8097 502.5959ZM642.7543 499.02762L642.0277 500.28604L633.67865 495.46573L633.1514 498.53522L632.0148 497.87897L632.7319 493.51184L632.84906 493.30887L642.7543 499.02762Z" fill-rule="nonzero"/><path fill="#d9d9d9" d="M697.32416 541.72L693.5976 548.17456L692.691 547.6511L690.87085 542.05365Q690.4559 540.8037 690.0787 540.20703Q689.7015 539.61035 689.1331 539.2822Q688.3618 538.8369 687.60126 539.0293Q686.83496 539.2003 686.38965 539.9716Q685.8506 540.9053 686.0736 541.73773Q686.3045 542.5566 687.2517 543.10345L686.53296 544.3484Q685.1798 543.56714 684.8408 542.21674Q684.50964 540.8528 685.3612 539.37787Q686.15027 538.01117 687.3284 537.62683Q688.50653 537.24255 689.7108 537.93787Q691.15875 538.7738 692.1046 541.7917L693.4364 546.0788L696.2958 541.1262L697.32416 541.72ZM697.4517 531.7802Q699.6574 533.05365 700.2889 534.42865Q700.9282 535.79004 700.00635 537.3868Q699.1001 538.9565 697.62067 539.1127Q696.1277 539.26105 694.04175 538.09283L692.3638 537.1241Q690.1987 535.8741 689.57294 534.52045Q688.95496 533.1533 689.87683 531.5566Q690.7987 529.95984 692.2433 529.8015Q693.6957 529.6297 695.82794 530.8427L697.4517 531.7802ZM695.028 532.0408Q693.4313 531.1189 692.4563 531.15137Q691.4678 531.176 690.9053 532.1503Q690.3506 533.1111 690.8235 533.9795Q691.29065 534.82654 692.78485 535.7073L694.78754 536.8635Q696.3843 537.7854 697.40765 537.7628Q698.4389 537.72675 698.97797 536.793Q699.517 535.8594 699.0576 534.9987Q698.59827 534.1381 697.0713 533.22046L695.028 532.0408ZM704.9726 528.4725L704.24603 529.73096L695.897 524.91064L695.36975 527.9801L694.2331 527.32385L694.95026 522.9567L695.06744 522.7537L704.9726 528.4725ZM705.5331 517.5017Q705.7666 518.1597 705.7383 518.86505Q705.7099 519.5704 705.3349 520.2199Q704.8427 521.0724 704.0561 521.4662Q703.2694 521.86 702.30853 521.7743Q701.3554 521.6751 700.43524 521.14386Q699.44745 520.57355 698.88135 519.7415Q698.30176 518.90173 698.2807 517.9694Q698.25964 517.0371 698.7909 516.11694Q699.63464 514.6555 701.2151 514.4494Q702.78204 514.2354 704.67645 515.32916L705.0418 515.5401Q707.9105 517.19635 708.5804 519.09863Q709.25024 521.0009 707.9705 523.3112L707.8299 523.5548L706.76086 522.9376L706.9093 522.6805Q707.7807 521.10876 707.48596 519.838Q707.1855 518.5459 705.5331 517.5017ZM704.4237 519.42316Q704.7831 518.8007 704.70886 518.05426Q704.62897 517.28644 704.2013 516.7147L703.7006 516.42566Q702.46924 515.7147 701.38544 515.81067Q700.30945 515.89307 699.8329 516.7185Q699.3563 517.54395 699.70325 518.4118Q700.0366 519.27185 701.07855 519.8734Q702.0799 520.45154 703.0242 520.3472Q703.95496 520.23505 704.4237 519.42316ZM712.6688 517.11096L712.0438 518.1935L703.7153 507.90018L704.33246 506.83118L712.6688 517.11096ZM714.4517 502.33536Q716.6574 503.6088 717.2889 504.98376Q717.9282 506.34518 717.00635 507.94193Q716.1001 509.5116 714.62067 509.66782Q713.1277 509.8162 711.04175 508.64795L709.3638 507.6792Q707.1987 506.4292 706.57294 505.0756Q705.95496 503.70844 706.87683 502.1117Q707.7987 500.51498 709.2433 500.35666Q710.6957 500.18484 712.82794 501.39786L714.4517 502.33536ZM712.028 502.5959Q710.4313 501.674 709.4563 501.7065Q708.4678 501.73117 707.9053 502.70544Q707.3506 503.6662 707.8235 504.5346Q708.29065 505.38168 709.78485 506.26242L711.78754 507.41867Q713.3843 508.34055 714.40765 508.31796Q715.4389 508.28186 715.97797 507.34818Q716.517 506.4145 716.0576 505.5539Q715.59827 504.69327 714.0713 503.77557L712.028 502.5959ZM721.9726 499.02762L721.24603 500.28607L712.897 495.46576L712.36975 498.53525L711.2331 497.879L711.95026 493.51184L712.06744 493.30887L721.9726 499.02762Z" fill-rule="nonzero"/><path fill="#ffff00" d="M175.5 94.916664C175.5 98.23038 172.8137 100.916664 169.5 100.916664C166.1863 100.916664 163.5 98.23038 163.5 94.916664C163.5 91.60296 166.1863 88.916664 169.5 88.916664C172.8137 88.916664 175.5 91.60296 175.5 94.916664Z" fill-rule="nonzero"/><path fill="#d9d9d9" d="M194.4375 99.24479Q193.78125 100.166664 192.60938 100.635414Q191.45312 101.08854 189.90625 101.08854Q188.34375 101.08854 187.125 100.354164Q185.92188 99.61979 185.25 98.27604Q184.59375 96.916664 184.57812 95.135414L184.57812 94.010414Q184.57812 91.11979 185.92188 89.541664Q187.26562 87.947914 189.71875 87.947914Q191.71875 87.947914 192.9375 88.979164Q194.15625 89.99479 194.4375 91.86979L192.75 91.86979Q192.26562 89.33854 189.71875 89.33854Q188.03125 89.33854 187.15625 90.52604Q186.28125 91.71354 186.26562 93.979164L186.26562 95.02604Q186.26562 97.166664 187.25 98.447914Q188.23438 99.71354 189.92188 99.71354Q190.85938 99.71354 191.57812 99.510414Q192.29688 99.291664 192.75 98.791664L192.75 95.916664L189.79688 95.916664L189.79688 94.541664L194.4375 94.541664L194.4375 99.24479ZM202.60938 100.916664Q202.46875 100.635414 202.375 99.916664Q201.23438 101.08854 199.67188 101.08854Q198.26562 101.08854 197.35938 100.291664Q196.45312 99.49479 196.45312 98.27604Q196.45312 96.791664 197.57812 95.979164Q198.71875 95.15104 200.76562 95.15104L202.34375 95.15104L202.34375 94.40104Q202.34375 93.55729 201.82812 93.05729Q201.32812 92.541664 200.32812 92.541664Q199.46875 92.541664 198.875 92.979164Q198.28125 93.416664 198.28125 94.041664L196.65625 94.041664Q196.65625 93.33854 197.15625 92.68229Q197.65625 92.010414 198.51562 91.61979Q199.39062 91.229164 200.4375 91.229164Q202.07812 91.229164 203.0 92.05729Q203.9375 92.86979 203.96875 94.322914L203.96875 98.697914Q203.96875 99.99479 204.3125 100.77604L204.3125 100.916664L202.60938 100.916664ZM199.90625 99.68229Q200.67188 99.68229 201.35938 99.291664Q202.04688 98.885414 202.34375 98.260414L202.34375 96.30729L201.07812 96.30729Q198.07812 96.30729 198.07812 98.05729Q198.07812 98.822914 198.59375 99.260414Q199.10938 99.68229 199.90625 99.68229ZM208.5 100.916664L206.875 100.916664L206.875 87.416664L208.5 87.416664L208.5 100.916664ZM216.60938 100.916664Q216.46875 100.635414 216.375 99.916664Q215.23438 101.08854 213.67188 101.08854Q212.26562 101.08854 211.35938 100.291664Q210.45312 99.49479 210.45312 98.27604Q210.45312 96.791664 211.57812 95.979164Q212.71875 95.15104 214.76562 95.15104L216.34375 95.15104L216.34375 94.40104Q216.34375 93.55729 215.82812 93.05729Q215.32812 92.541664 214.32812 92.541664Q213.46875 92.541664 212.875 92.979164Q212.28125 93.416664 212.28125 94.041664L210.65625 94.041664Q210.65625 93.33854 211.15625 92.68229Q211.65625 92.010414 212.51562 91.61979Q213.39062 91.229164 214.4375 91.229164Q216.07812 91.229164 217.0 92.05729Q217.9375 92.86979 217.96875 94.322914L217.96875 98.697914Q217.96875 99.99479 218.3125 100.77604L218.3125 100.916664L216.60938 100.916664ZM213.90625 99.68229Q214.67188 99.68229 215.35938 99.291664Q216.04688 98.885414 216.34375 98.260414L216.34375 96.30729L215.07812 96.30729Q212.07812 96.30729 212.07812 98.05729Q212.07812 98.822914 212.59375 99.260414Q213.10938 99.68229 213.90625 99.68229ZM223.92188 94.885414L226.03125 91.40104L227.92188 91.40104L224.8125 96.104164L228.03125 100.916664L226.14062 100.916664L223.95312 97.354164L221.75 100.916664L219.85938 100.916664L223.0625 96.104164L219.95312 91.40104L221.84375 91.40104L223.92188 94.885414ZM232.84375 98.541664L235.0625 91.40104L236.79688 91.40104L232.96875 102.385414Q232.09375 104.760414 230.15625 104.760414L229.84375 104.729164L229.23438 104.61979L229.23438 103.291664L229.67188 103.33854Q230.5 103.33854 230.95312 102.99479Q231.42188 102.666664 231.71875 101.77604L232.09375 100.80729L228.6875 91.40104L230.46875 91.40104L232.84375 98.541664ZM242.10938 96.15104L237.82812 96.15104L237.82812 94.822914L242.10938 94.822914L242.10938 96.15104ZM251.04688 97.572914L245.6875 97.572914L244.48438 100.916664L242.75 100.916664L247.64062 88.11979L249.10938 88.11979L254.0 100.916664L252.28125 100.916664L251.04688 97.572914ZM246.20312 96.18229L250.54688 96.18229L248.375 90.197914L246.20312 96.18229ZM257.26562 91.40104L257.32812 92.604164Q258.40625 91.229164 260.17188 91.229164Q263.1875 91.229164 263.20312 94.635414L263.20312 100.916664L261.57812 100.916664L261.57812 94.61979Q261.57812 93.58854 261.10938 93.104164Q260.65625 92.604164 259.67188 92.604164Q258.89062 92.604164 258.28125 93.02604Q257.6875 93.447914 257.35938 94.135414L257.35938 100.916664L255.73438 100.916664L255.73438 91.40104L257.26562 91.40104ZM267.26562 91.40104L267.32812 92.604164Q268.40625 91.229164 270.17188 91.229164Q273.1875 91.229164 273.20312 94.635414L273.20312 100.916664L271.57812 100.916664L271.57812 94.61979Q271.57812 93.58854 271.10938 93.104164Q270.65625 92.604164 269.67188 92.604164Q268.89062 92.604164 268.28125 93.02604Q267.6875 93.447914 267.35938 94.135414L267.35938 100.916664L265.73438 100.916664L265.73438 91.40104L267.26562 91.40104ZM275.29688 96.072914Q275.29688 94.68229 275.84375 93.572914Q276.40625 92.447914 277.375 91.83854Q278.35938 91.229164 279.60938 91.229164Q281.5625 91.229164 282.75 92.572914Q283.95312 93.916664 283.95312 96.15104L283.95312 96.260414Q283.95312 97.65104 283.42188 98.760414Q282.89062 99.854164 281.90625 100.479164Q280.92188 101.08854 279.64062 101.08854Q277.70312 101.08854 276.5 99.74479Q275.29688 98.40104 275.29688 96.18229L275.29688 96.072914ZM276.9375 96.260414Q276.9375 97.854164 277.67188 98.80729Q278.40625 99.760414 279.64062 99.760414Q280.875 99.760414 281.59375 98.791664Q282.32812 97.822914 282.32812 96.072914Q282.32812 94.510414 281.57812 93.541664Q280.84375 92.572914 279.60938 92.572914Q278.40625 92.572914 277.67188 93.52604Q276.9375 94.479164 276.9375 96.260414ZM291.60938 99.979164Q290.65625 101.08854 288.8125 101.08854Q287.29688 101.08854 286.5 100.21354Q285.70312 99.322914 285.70312 97.58854L285.70312 91.40104L287.32812 91.40104L287.32812 97.55729Q287.32812 99.71354 289.07812 99.71354Q290.9375 99.71354 291.5625 98.322914L291.5625 91.40104L293.1875 91.40104L293.1875 100.916664L291.64062 100.916664L291.60938 99.979164ZM297.26562 91.40104L297.32812 92.604164Q298.40625 91.229164 300.17188 91.229164Q303.1875 91.229164 303.20312 94.635414L303.20312 100.916664L301.57812 100.916664L301.57812 94.61979Q301.57812 93.58854 301.10938 93.104164Q300.65625 92.604164 299.67188 92.604164Q298.89062 92.604164 298.28125 93.02604Q297.6875 93.447914 297.35938 94.135414L297.35938 100.916664L295.73438 100.916664L295.73438 91.40104L297.26562 91.40104ZM309.54688 99.760414Q310.42188 99.760414 311.0625 99.24479Q311.71875 98.71354 311.78125 97.916664L313.32812 97.916664Q313.28125 98.729164 312.76562 99.479164Q312.25 100.21354 311.375 100.65104Q310.51562 101.08854 309.54688 101.08854Q307.60938 101.08854 306.45312 99.791664Q305.3125 98.49479 305.3125 96.24479L305.3125 95.979164Q305.3125 94.58854 305.8125 93.510414Q306.32812 92.43229 307.28125 91.83854Q308.23438 91.229164 309.53125 91.229164Q311.14062 91.229164 312.1875 92.197914Q313.25 93.15104 313.32812 94.68229L311.78125 94.68229Q311.71875 93.760414 311.07812 93.166664Q310.45312 92.572914 309.53125 92.572914Q308.29688 92.572914 307.60938 93.46354Q306.9375 94.354164 306.9375 96.041664L306.9375 96.33854Q306.9375 97.99479 307.60938 98.885414Q308.28125 99.760414 309.54688 99.760414ZM318.67188 101.08854Q316.75 101.08854 315.53125 99.822914Q314.3125 98.55729 314.3125 96.43229L314.3125 96.11979Q314.3125 94.71354 314.85938 93.604164Q315.40625 92.49479 316.375 91.86979Q317.34375 91.229164 318.46875 91.229164Q320.32812 91.229164 321.35938 92.447914Q322.39062 93.666664 322.39062 95.947914L322.39062 96.61979L315.9375 96.61979Q315.98438 98.02604 316.76562 98.90104Q317.54688 99.760414 318.76562 99.760414Q319.625 99.760414 320.21875 99.416664Q320.82812 99.05729 321.26562 98.479164L322.26562 99.260414Q321.0625 101.08854 318.67188 101.08854ZM318.46875 92.572914Q317.48438 92.572914 316.8125 93.291664Q316.15625 93.99479 316.0 95.291664L320.76562 95.291664L320.76562 95.166664Q320.6875 93.93229 320.09375 93.260414Q319.5 92.572914 318.46875 92.572914ZM331.17188 88.11979L335.34375 98.55729L339.53125 88.11979L341.71875 88.11979L341.71875 100.916664L340.03125 100.916664L340.03125 95.93229L340.1875 90.55729L335.98438 100.916664L334.70312 100.916664L330.5 90.572914L330.67188 95.93229L330.67188 100.916664L328.98438 100.916664L328.98438 88.11979L331.17188 88.11979ZM346.6875 99.541664L352.75 99.541664L352.75 100.916664L344.98438 100.916664L344.98438 88.11979L346.6875 88.11979L346.6875 99.541664ZM362.75 95.21354Q360.57812 94.58854 359.59375 93.68229Q358.60938 92.77604 358.60938 91.43229Q358.60938 89.916664 359.8125 88.93229Q361.03125 87.947914 362.95312 87.947914Q364.28125 87.947914 365.3125 88.46354Q366.34375 88.96354 366.90625 89.86979Q367.46875 90.760414 367.46875 91.822914L365.78125 91.822914Q365.78125 90.666664 365.03125 90.010414Q364.29688 89.33854 362.95312 89.33854Q361.70312 89.33854 361.0 89.885414Q360.3125 90.43229 360.3125 91.40104Q360.3125 92.18229 360.96875 92.729164Q361.64062 93.27604 363.23438 93.729164Q364.82812 94.166664 365.71875 94.71354Q366.625 95.24479 367.0625 95.96354Q367.5 96.68229 367.5 97.666664Q367.5 99.21354 366.28125 100.15104Q365.07812 101.08854 363.04688 101.08854Q361.73438 101.08854 360.57812 100.58854Q359.4375 100.08854 358.8125 99.21354Q358.20312 98.322914 358.20312 97.21354L359.90625 97.21354Q359.90625 98.36979 360.75 99.041664Q361.60938 99.71354 363.04688 99.71354Q364.375 99.71354 365.09375 99.166664Q365.8125 98.61979 365.8125 97.68229Q365.8125 96.74479 365.14062 96.229164Q364.48438 95.71354 362.75 95.21354ZM375.60938 99.979164Q374.65625 101.08854 372.8125 101.08854Q371.29688 101.08854 370.5 100.21354Q369.70312 99.322914 369.70312 97.58854L369.70312 91.40104L371.32812 91.40104L371.32812 97.55729Q371.32812 99.71354 373.07812 99.71354Q374.9375 99.71354 375.5625 98.322914L375.5625 91.40104L377.1875 91.40104L377.1875 100.916664L375.64062 100.916664L375.60938 99.979164ZM387.78125 96.260414Q387.78125 98.447914 386.78125 99.77604Q385.78125 101.08854 384.09375 101.08854Q382.28125 101.08854 381.29688 99.822914L381.21875 100.916664L379.73438 100.916664L379.73438 87.416664L381.35938 87.416664L381.35938 92.447914Q382.34375 91.229164 384.0625 91.229164Q385.79688 91.229164 386.78125 92.541664Q387.78125 93.854164 387.78125 96.11979L387.78125 96.260414ZM386.15625 96.08854Q386.15625 94.416664 385.51562 93.510414Q384.875 92.604164 383.67188 92.604164Q382.0625 92.604164 381.35938 94.104164L381.35938 98.21354Q382.10938 99.71354 383.6875 99.71354Q384.85938 99.71354 385.5 98.80729Q386.15625 97.90104 386.15625 96.08854ZM395.26562 98.40104Q395.26562 97.729164 394.76562 97.36979Q394.28125 97.010414 393.04688 96.74479Q391.8125 96.479164 391.07812 96.11979Q390.35938 95.74479 390.0 95.229164Q389.65625 94.71354 389.65625 94.010414Q389.65625 92.854164 390.64062 92.041664Q391.64062 91.229164 393.17188 91.229164Q394.79688 91.229164 395.79688 92.072914Q396.8125 92.90104 396.8125 94.197914L395.17188 94.197914Q395.17188 93.52604 394.59375 93.05729Q394.03125 92.572914 393.17188 92.572914Q392.28125 92.572914 391.78125 92.96354Q391.28125 93.33854 391.28125 93.96354Q391.28125 94.55729 391.75 94.854164Q392.21875 95.15104 393.4375 95.43229Q394.65625 95.697914 395.40625 96.072914Q396.17188 96.447914 396.53125 96.979164Q396.89062 97.510414 396.89062 98.27604Q396.89062 99.55729 395.875 100.322914Q394.85938 101.08854 393.23438 101.08854Q392.09375 101.08854 391.20312 100.68229Q390.32812 100.27604 389.82812 99.55729Q389.32812 98.83854 389.32812 97.99479L390.96875 97.99479Q391.0 98.80729 391.60938 99.291664Q392.23438 99.760414 393.23438 99.760414Q394.15625 99.760414 394.70312 99.385414Q395.26562 99.010414 395.26562 98.40104ZM402.54688 99.760414Q403.42188 99.760414 404.0625 99.24479Q404.71875 98.71354 404.78125 97.916664L406.32812 97.916664Q406.28125 98.729164 405.76562 99.479164Q405.25 100.21354 404.375 100.65104Q403.51562 101.08854 402.54688 101.08854Q400.60938 101.08854 399.45312 99.791664Q398.3125 98.49479 398.3125 96.24479L398.3125 95.979164Q398.3125 94.58854 398.8125 93.510414Q399.32812 92.43229 400.28125 91.83854Q401.23438 91.229164 402.53125 91.229164Q404.14062 91.229164 405.1875 92.197914Q406.25 93.15104 406.32812 94.68229L404.78125 94.68229Q404.71875 93.760414 404.07812 93.166664Q403.45312 92.572914 402.53125 92.572914Q401.29688 92.572914 400.60938 93.46354Q399.9375 94.354164 399.9375 96.041664L399.9375 96.33854Q399.9375 97.99479 400.60938 98.885414Q401.28125 99.760414 402.54688 99.760414ZM412.32812 92.86979Q411.95312 92.80729 411.53125 92.80729Q409.92188 92.80729 409.35938 94.166664L409.35938 100.916664L407.73438 100.916664L407.73438 91.40104L409.3125 91.40104L409.34375 92.510414Q410.14062 91.229164 411.60938 91.229164Q412.07812 91.229164 412.32812 91.354164L412.32812 92.86979ZM415.5 100.916664L413.875 100.916664L413.875 91.40104L415.5 91.40104L415.5 100.916664ZM413.73438 88.885414Q413.73438 88.49479 413.96875 88.229164Q414.21875 87.947914 414.6875 87.947914Q415.17188 87.947914 415.42188 88.229164Q415.67188 88.49479 415.67188 88.885414Q415.67188 89.27604 415.42188 89.541664Q415.17188 89.80729 414.6875 89.80729Q414.21875 89.80729 413.96875 89.541664Q413.73438 89.27604 413.73438 88.885414ZM425.78125 96.260414Q425.78125 98.447914 424.78125 99.77604Q423.78125 101.08854 422.09375 101.08854Q420.28125 101.08854 419.29688 99.822914L419.21875 100.916664L417.73438 100.916664L417.73438 87.416664L419.35938 87.416664L419.35938 92.447914Q420.34375 91.229164 422.0625 91.229164Q423.79688 91.229164 424.78125 92.541664Q425.78125 93.854164 425.78125 96.11979L425.78125 96.260414ZM424.15625 96.08854Q424.15625 94.416664 423.51562 93.510414Q422.875 92.604164 421.67188 92.604164Q420.0625 92.604164 419.35938 94.104164L419.35938 98.21354Q420.10938 99.71354 421.6875 99.71354Q422.85938 99.71354 423.5 98.80729Q424.15625 97.90104 424.15625 96.08854ZM431.67188 101.08854Q429.75 101.08854 428.53125 99.822914Q427.3125 98.55729 427.3125 96.43229L427.3125 96.11979Q427.3125 94.71354 427.85938 93.604164Q428.40625 92.49479 429.375 91.86979Q430.34375 91.229164 431.46875 91.229164Q433.32812 91.229164 434.35938 92.447914Q435.39062 93.666664 435.39062 95.947914L435.39062 96.61979L428.9375 96.61979Q428.98438 98.02604 429.76562 98.90104Q430.54688 99.760414 431.76562 99.760414Q432.625 99.760414 433.21875 99.416664Q433.82812 99.05729 434.26562 98.479164L435.26562 99.260414Q434.0625 101.08854 431.67188 101.08854ZM431.46875 92.572914Q430.48438 92.572914 429.8125 93.291664Q429.15625 93.99479 429.0 95.291664L433.76562 95.291664L433.76562 95.166664Q433.6875 93.93229 433.09375 93.260414Q432.5 92.572914 431.46875 92.572914ZM442.32812 92.86979Q441.95312 92.80729 441.53125 92.80729Q439.92188 92.80729 439.35938 94.166664L439.35938 100.916664L437.73438 100.916664L437.73438 91.40104L439.3125 91.40104L439.34375 92.510414Q440.14062 91.229164 441.60938 91.229164Q442.07812 91.229164 442.32812 91.354164L442.32812 92.86979ZM449.26562 98.40104Q449.26562 97.729164 448.76562 97.36979Q448.28125 97.010414 447.04688 96.74479Q445.8125 96.479164 445.07812 96.11979Q444.35938 95.74479 444.0 95.229164Q443.65625 94.71354 443.65625 94.010414Q443.65625 92.854164 444.64062 92.041664Q445.64062 91.229164 447.17188 91.229164Q448.79688 91.229164 449.79688 92.072914Q450.8125 92.90104 450.8125 94.197914L449.17188 94.197914Q449.17188 93.52604 448.59375 93.05729Q448.03125 92.572914 447.17188 92.572914Q446.28125 92.572914 445.78125 92.96354Q445.28125 93.33854 445.28125 93.96354Q445.28125 94.55729 445.75 94.854164Q446.21875 95.15104 447.4375 95.43229Q448.65625 95.697914 449.40625 96.072914Q450.17188 96.447914 450.53125 96.979164Q450.89062 97.510414 450.89062 98.27604Q450.89062 99.55729 449.875 100.322914Q448.85938 101.08854 447.23438 101.08854Q446.09375 101.08854 445.20312 100.68229Q444.32812 100.27604 443.82812 99.55729Q443.32812 98.83854 443.32812 97.99479L444.96875 97.99479Q445.0 98.80729 445.60938 99.291664Q446.23438 99.760414 447.23438 99.760414Q448.15625 99.760414 448.70312 99.385414Q449.26562 99.010414 449.26562 98.40104Z" fill-rule="nonzero"/><path fill="#4a86e8" d="M479.5 94.916664C479.5 98.23038 476.81372 100.916664 473.5 100.916664C470.18628 100.916664 467.5 98.23038 467.5 94.916664C467.5 91.60296 470.18628 88.916664 473.5 88.916664C476.81372 88.916664 479.5 91.60296 479.5 94.916664Z" fill-rule="nonzero"/><path fill="#d9d9d9" d="M497.82812 89.510414L493.71875 89.510414L493.71875 100.916664L492.03125 100.916664L492.03125 89.510414L487.9375 89.510414L487.9375 88.11979L497.82812 88.11979L497.82812 89.510414ZM508.15625 98.68229L509.98438 91.40104L511.60938 91.40104L508.84375 100.916664L507.51562 100.916664L505.20312 93.71354L502.95312 100.916664L501.64062 100.916664L498.875 91.40104L500.5 91.40104L502.375 98.52604L504.57812 91.40104L505.89062 91.40104L508.15625 98.68229ZM515.5 100.916664L513.875 100.916664L513.875 91.40104L515.5 91.40104L515.5 100.916664ZM513.7344 88.885414Q513.7344 88.49479 513.96875 88.229164Q514.21875 87.947914 514.6875 87.947914Q515.1719 87.947914 515.4219 88.229164Q515.6719 88.49479 515.6719 88.885414Q515.6719 89.27604 515.4219 89.541664Q515.1719 89.80729 514.6875 89.80729Q514.21875 89.80729 513.96875 89.541664Q513.7344 89.27604 513.7344 88.885414ZM519.9375 89.104164L519.9375 91.40104L521.71875 91.40104L521.71875 92.666664L519.9375 92.666664L519.9375 98.55729Q519.9375 99.135414 520.1719 99.416664Q520.40625 99.697914 520.9844 99.697914Q521.2656 99.697914 521.75 99.604164L521.75 100.916664Q521.1094 101.08854 520.5156 101.08854Q519.4219 101.08854 518.8594 100.43229Q518.3125 99.77604 518.3125 98.55729L518.3125 92.666664L516.5781 92.666664L516.5781 91.40104L518.3125 91.40104L518.3125 89.104164L519.9375 89.104164ZM525.9375 89.104164L525.9375 91.40104L527.71875 91.40104L527.71875 92.666664L525.9375 92.666664L525.9375 98.55729Q525.9375 99.135414 526.1719 99.416664Q526.40625 99.697914 526.9844 99.697914Q527.2656 99.697914 527.75 99.604164L527.75 100.916664Q527.1094 101.08854 526.5156 101.08854Q525.4219 101.08854 524.8594 100.43229Q524.3125 99.77604 524.3125 98.55729L524.3125 92.666664L522.5781 92.666664L522.5781 91.40104L524.3125 91.40104L524.3125 89.104164L525.9375 89.104164ZM533.6719 101.08854Q531.75 101.08854 530.53125 99.822914Q529.3125 98.55729 529.3125 96.43229L529.3125 96.11979Q529.3125 94.71354 529.8594 93.604164Q530.40625 92.49479 531.375 91.86979Q532.34375 91.229164 533.46875 91.229164Q535.3281 91.229164 536.3594 92.447914Q537.3906 93.666664 537.3906 95.947914L537.3906 96.61979L530.9375 96.61979Q530.9844 98.02604 531.7656 98.90104Q532.5469 99.760414 533.7656 99.760414Q534.625 99.760414 535.21875 99.416664Q535.8281 99.05729 536.2656 98.479164L537.2656 99.260414Q536.0625 101.08854 533.6719 101.08854ZM533.46875 92.572914Q532.4844 92.572914 531.8125 93.291664Q531.15625 93.99479 531.0 95.291664L535.7656 95.291664L535.7656 95.166664Q535.6875 93.93229 535.09375 93.260414Q534.5 92.572914 533.46875 92.572914ZM544.3281 92.86979Q543.9531 92.80729 543.53125 92.80729Q541.9219 92.80729 541.3594 94.166664L541.3594 100.916664L539.7344 100.916664L539.7344 91.40104L541.3125 91.40104L541.34375 92.510414Q542.1406 91.229164 543.6094 91.229164Q544.0781 91.229164 544.3281 91.354164L544.3281 92.86979ZM557.0469 95.260414L551.6719 95.260414L551.6719 100.916664L549.9844 100.916664L549.9844 88.11979L557.90625 88.11979L557.90625 89.510414L551.6719 89.510414L551.6719 93.885414L557.0469 93.885414L557.0469 95.260414ZM559.2969 96.072914Q559.2969 94.68229 559.84375 93.572914Q560.40625 92.447914 561.375 91.83854Q562.3594 91.229164 563.6094 91.229164Q565.5625 91.229164 566.75 92.572914Q567.9531 93.916664 567.9531 96.15104L567.9531 96.260414Q567.9531 97.65104 567.4219 98.760414Q566.8906 99.854164 565.90625 100.479164Q564.9219 101.08854 563.6406 101.08854Q561.7031 101.08854 560.5 99.74479Q559.2969 98.40104 559.2969 96.18229L559.2969 96.072914ZM560.9375 96.260414Q560.9375 97.854164 561.6719 98.80729Q562.40625 99.760414 563.6406 99.760414Q564.875 99.760414 565.59375 98.791664Q566.3281 97.822914 566.3281 96.072914Q566.3281 94.510414 565.5781 93.541664Q564.84375 92.572914 563.6094 92.572914Q562.40625 92.572914 561.6719 93.52604Q560.9375 94.479164 560.9375 96.260414ZM571.5 100.916664L569.875 100.916664L569.875 87.416664L571.5 87.416664L571.5 100.916664ZM575.5 100.916664L573.875 100.916664L573.875 87.416664L575.5 87.416664L575.5 100.916664ZM577.2969 96.072914Q577.2969 94.68229 577.84375 93.572914Q578.40625 92.447914 579.375 91.83854Q580.3594 91.229164 581.6094 91.229164Q583.5625 91.229164 584.75 92.572914Q585.9531 93.916664 585.9531 96.15104L585.9531 96.260414Q585.9531 97.65104 585.4219 98.760414Q584.8906 99.854164 583.90625 100.479164Q582.9219 101.08854 581.6406 101.08854Q579.7031 101.08854 578.5 99.74479Q577.2969 98.40104 577.2969 96.18229L577.2969 96.072914ZM578.9375 96.260414Q578.9375 97.854164 579.6719 98.80729Q580.40625 99.760414 581.6406 99.760414Q582.875 99.760414 583.59375 98.791664Q584.3281 97.822914 584.3281 96.072914Q584.3281 94.510414 583.5781 93.541664Q582.84375 92.572914 581.6094 92.572914Q580.40625 92.572914 579.6719 93.52604Q578.9375 94.479164 578.9375 96.260414ZM596.15625 98.68229L597.9844 91.40104L599.6094 91.40104L596.84375 100.916664L595.5156 100.916664L593.2031 93.71354L590.9531 100.916664L589.6406 100.916664L586.875 91.40104L588.5 91.40104L590.375 98.52604L592.5781 91.40104L593.8906 91.40104L596.15625 98.68229ZM605.6719 101.08854Q603.75 101.08854 602.53125 99.822914Q601.3125 98.55729 601.3125 96.43229L601.3125 96.11979Q601.3125 94.71354 601.8594 93.604164Q602.40625 92.49479 603.375 91.86979Q604.34375 91.229164 605.46875 91.229164Q607.3281 91.229164 608.3594 92.447914Q609.3906 93.666664 609.3906 95.947914L609.3906 96.61979L602.9375 96.61979Q602.9844 98.02604 603.7656 98.90104Q604.5469 99.760414 605.7656 99.760414Q606.625 99.760414 607.21875 99.416664Q607.8281 99.05729 608.2656 98.479164L609.2656 99.260414Q608.0625 101.08854 605.6719 101.08854ZM605.46875 92.572914Q604.4844 92.572914 603.8125 93.291664Q603.15625 93.99479 603.0 95.291664L607.7656 95.291664L607.7656 95.166664Q607.6875 93.93229 607.09375 93.260414Q606.5 92.572914 605.46875 92.572914ZM616.3281 92.86979Q615.9531 92.80729 615.53125 92.80729Q613.9219 92.80729 613.3594 94.166664L613.3594 100.916664L611.7344 100.916664L611.7344 91.40104L613.3125 91.40104L613.34375 92.510414Q614.1406 91.229164 615.6094 91.229164Q616.0781 91.229164 616.3281 91.354164L616.3281 92.86979ZM623.2656 98.40104Q623.2656 97.729164 622.7656 97.36979Q622.28125 97.010414 621.0469 96.74479Q619.8125 96.479164 619.0781 96.11979Q618.3594 95.74479 618.0 95.229164Q617.65625 94.71354 617.65625 94.010414Q617.65625 92.854164 618.6406 92.041664Q619.6406 91.229164 621.1719 91.229164Q622.7969 91.229164 623.7969 92.072914Q624.8125 92.90104 624.8125 94.197914L623.1719 94.197914Q623.1719 93.52604 622.59375 93.05729Q622.03125 92.572914 621.1719 92.572914Q620.28125 92.572914 619.78125 92.96354Q619.28125 93.33854 619.28125 93.96354Q619.28125 94.55729 619.75 94.854164Q620.21875 95.15104 621.4375 95.43229Q622.65625 95.697914 623.40625 96.072914Q624.1719 96.447914 624.53125 96.979164Q624.8906 97.510414 624.8906 98.27604Q624.8906 99.55729 623.875 100.322914Q622.8594 101.08854 621.2344 101.08854Q620.09375 101.08854 619.2031 100.68229Q618.3281 100.27604 617.8281 99.55729Q617.3281 98.83854 617.3281 97.99479L618.96875 97.99479Q619.0 98.80729 619.6094 99.291664Q620.2344 99.760414 621.2344 99.760414Q622.15625 99.760414 622.7031 99.385414Q623.2656 99.010414 623.2656 98.40104Z" fill-rule="nonzero"/><path fill="#d9d9d9" d="M147.14062 49.640625Q146.90625 53.09375 144.60938 55.078125Q142.3125 57.046875 138.5625 57.046875Q134.46875 57.046875 132.10938 54.28125Q129.76562 51.515625 129.76562 46.703125L129.76562 45.390625Q129.76562 42.328125 130.84375 39.984375Q131.92188 37.640625 133.9375 36.390625Q135.95312 35.125 138.625 35.125Q142.3125 35.125 144.5625 37.109375Q146.82812 39.078125 147.17188 42.65625L142.78125 42.65625Q142.625 40.59375 141.625 39.671875Q140.64062 38.734375 138.625 38.734375Q136.42188 38.734375 135.32812 40.3125Q134.25 41.875 134.21875 45.1875L134.21875 46.796875Q134.21875 50.265625 135.26562 51.859375Q136.3125 53.453125 138.5625 53.453125Q140.59375 53.453125 141.59375 52.53125Q142.60938 51.59375 142.75 49.640625L147.14062 49.640625ZM149.46875 48.671875Q149.46875 46.3125 150.375 44.46875Q151.28125 42.625 152.98438 41.625Q154.70312 40.609375 156.95312 40.609375Q160.15625 40.609375 162.1875 42.578125Q164.21875 44.53125 164.45312 47.90625L164.48438 48.984375Q164.48438 52.640625 162.4375 54.84375Q160.40625 57.046875 156.96875 57.046875Q153.54688 57.046875 151.5 54.84375Q149.46875 52.640625 149.46875 48.875L149.46875 48.671875ZM153.70312 48.984375Q153.70312 51.234375 154.54688 52.4375Q155.40625 53.625 156.98438 53.625Q158.51562 53.625 159.375 52.453125Q160.25 51.265625 160.25 48.671875Q160.25 46.46875 159.375 45.25Q158.51562 44.03125 156.95312 44.03125Q155.40625 44.03125 154.54688 45.25Q153.70312 46.453125 153.70312 48.984375ZM171.09375 40.90625L171.23438 42.671875Q172.90625 40.609375 175.78125 40.609375Q178.84375 40.609375 179.98438 43.03125Q181.65625 40.609375 184.75 40.609375Q187.32812 40.609375 188.57812 42.109375Q189.84375 43.609375 189.84375 46.625L189.84375 56.75L185.59375 56.75L185.59375 46.640625Q185.59375 45.296875 185.0625 44.671875Q184.54688 44.046875 183.20312 44.046875Q181.3125 44.046875 180.57812 45.859375L180.59375 56.75L176.35938 56.75L176.35938 46.65625Q176.35938 45.28125 175.8125 44.671875Q175.26562 44.046875 173.96875 44.046875Q172.17188 44.046875 171.35938 45.546875L171.35938 56.75L167.125 56.75L167.125 40.90625L171.09375 40.90625ZM197.09375 40.90625L197.23438 42.671875Q198.90625 40.609375 201.78125 40.609375Q204.84375 40.609375 205.98438 43.03125Q207.65625 40.609375 210.75 40.609375Q213.32812 40.609375 214.57812 42.109375Q215.84375 43.609375 215.84375 46.625L215.84375 56.75L211.59375 56.75L211.59375 46.640625Q211.59375 45.296875 211.0625 44.671875Q210.54688 44.046875 209.20312 44.046875Q207.3125 44.046875 206.57812 45.859375L206.59375 56.75L202.35938 56.75L202.35938 46.65625Q202.35938 45.28125 201.8125 44.671875Q201.26562 44.046875 199.96875 44.046875Q198.17188 44.046875 197.35938 45.546875L197.35938 56.75L193.125 56.75L193.125 40.90625L197.09375 40.90625ZM228.625 55.140625Q227.04688 57.046875 224.28125 57.046875Q221.73438 57.046875 220.39062 55.578125Q219.04688 54.109375 219.03125 51.28125L219.03125 40.90625L223.25 40.90625L223.25 51.140625Q223.25 53.609375 225.51562 53.609375Q227.67188 53.609375 228.46875 52.125L228.46875 40.90625L232.71875 40.90625L232.71875 56.75L228.73438 56.75L228.625 55.140625ZM240.01562 40.90625L240.15625 42.734375Q241.85938 40.609375 244.70312 40.609375Q247.23438 40.609375 248.45312 42.09375Q249.6875 43.5625 249.71875 46.515625L249.71875 56.75L245.48438 56.75L245.48438 46.609375Q245.48438 45.265625 244.89062 44.65625Q244.3125 44.046875 242.95312 44.046875Q241.17188 44.046875 240.26562 45.578125L240.26562 56.75L236.03125 56.75L236.03125 40.90625L240.01562 40.90625ZM257.59375 56.75L253.34375 56.75L253.34375 40.90625L257.59375 40.90625L257.59375 56.75ZM253.09375 36.796875Q253.09375 35.84375 253.73438 35.234375Q254.375 34.609375 255.46875 34.609375Q256.54688 34.609375 257.1875 35.234375Q257.84375 35.84375 257.84375 36.796875Q257.84375 37.765625 257.1875 38.390625Q256.54688 39.0 255.46875 39.0Q254.40625 39.0 253.75 38.390625Q253.09375 37.765625 253.09375 36.796875ZM267.71875 53.625Q268.89062 53.625 269.625 52.984375Q270.35938 52.34375 270.39062 51.265625L274.35938 51.265625Q274.34375 52.875 273.46875 54.21875Q272.60938 55.5625 271.10938 56.3125Q269.60938 57.046875 267.79688 57.046875Q264.39062 57.046875 262.42188 54.890625Q260.46875 52.71875 260.46875 48.90625L260.46875 48.640625Q260.46875 44.96875 262.40625 42.796875Q264.35938 40.609375 267.76562 40.609375Q270.73438 40.609375 272.53125 42.296875Q274.32812 43.984375 274.35938 46.796875L270.39062 46.796875Q270.35938 45.578125 269.625 44.8125Q268.89062 44.03125 267.6875 44.03125Q266.20312 44.03125 265.45312 45.109375Q264.70312 46.1875 264.70312 48.609375L264.70312 49.046875Q264.70312 51.484375 265.4375 52.5625Q266.1875 53.625 267.71875 53.625ZM286.3125 56.75Q286.01562 56.171875 285.89062 55.328125Q284.34375 57.046875 281.89062 57.046875Q279.5625 57.046875 278.03125 55.703125Q276.5 54.34375 276.5 52.296875Q276.5 49.78125 278.35938 48.4375Q280.23438 47.078125 283.76562 47.0625L285.70312 47.0625L285.70312 46.15625Q285.70312 45.0625 285.14062 44.40625Q284.57812 43.734375 283.35938 43.734375Q282.29688 43.734375 281.6875 44.25Q281.07812 44.765625 281.07812 45.65625L276.84375 45.65625Q276.84375 44.28125 277.6875 43.109375Q278.54688 41.9375 280.09375 41.28125Q281.65625 40.609375 283.59375 40.609375Q286.51562 40.609375 288.23438 42.078125Q289.95312 43.546875 289.95312 46.21875L289.95312 53.09375Q289.96875 55.34375 290.59375 56.5L290.59375 56.75L286.3125 56.75ZM282.8125 53.8125Q283.75 53.8125 284.53125 53.390625Q285.32812 52.96875 285.70312 52.265625L285.70312 49.546875L284.125 49.546875Q280.95312 49.546875 280.75 51.734375L280.73438 51.984375Q280.73438 52.78125 281.28125 53.296875Q281.84375 53.8125 282.8125 53.8125ZM298.1875 37.0L298.1875 40.90625L300.90625 40.90625L300.90625 44.0L298.1875 44.0L298.1875 51.921875Q298.1875 52.796875 298.53125 53.1875Q298.875 53.5625 299.82812 53.5625Q300.53125 53.5625 301.0625 53.453125L301.0625 56.65625Q299.82812 57.046875 298.5 57.046875Q294.04688 57.046875 293.96875 52.546875L293.96875 44.0L291.64062 44.0L291.64062 40.90625L293.96875 40.90625L293.96875 37.0L298.1875 37.0ZM307.59375 56.75L303.34375 56.75L303.34375 40.90625L307.59375 40.90625L307.59375 56.75ZM303.09375 36.796875Q303.09375 35.84375 303.73438 35.234375Q304.375 34.609375 305.46875 34.609375Q306.54688 34.609375 307.1875 35.234375Q307.84375 35.84375 307.84375 36.796875Q307.84375 37.765625 307.1875 38.390625Q306.54688 39.0 305.46875 39.0Q304.40625 39.0 303.75 38.390625Q303.09375 37.765625 303.09375 36.796875ZM310.46875 48.671875Q310.46875 46.3125 311.375 44.46875Q312.28125 42.625 313.98438 41.625Q315.70312 40.609375 317.95312 40.609375Q321.15625 40.609375 323.1875 42.578125Q325.21875 44.53125 325.45312 47.90625L325.48438 48.984375Q325.48438 52.640625 323.4375 54.84375Q321.40625 57.046875 317.96875 57.046875Q314.54688 57.046875 312.5 54.84375Q310.46875 52.640625 310.46875 48.875L310.46875 48.671875ZM314.70312 48.984375Q314.70312 51.234375 315.54688 52.4375Q316.40625 53.625 317.98438 53.625Q319.51562 53.625 320.375 52.453125Q321.25 51.265625 321.25 48.671875Q321.25 46.46875 320.375 45.25Q319.51562 44.03125 317.95312 44.03125Q316.40625 44.03125 315.54688 45.25Q314.70312 46.453125 314.70312 48.984375ZM332.01562 40.90625L332.15625 42.734375Q333.85938 40.609375 336.70312 40.609375Q339.23438 40.609375 340.45312 42.09375Q341.6875 43.5625 341.71875 46.515625L341.71875 56.75L337.48438 56.75L337.48438 46.609375Q337.48438 45.265625 336.89062 44.65625Q336.3125 44.046875 334.95312 44.046875Q333.17188 44.046875 332.26562 45.578125L332.26562 56.75L328.03125 56.75L328.03125 40.90625L332.01562 40.90625ZM369.14062 49.640625Q368.90625 53.09375 366.60938 55.078125Q364.3125 57.046875 360.5625 57.046875Q356.46875 57.046875 354.10938 54.28125Q351.76562 51.515625 351.76562 46.703125L351.76562 45.390625Q351.76562 42.328125 352.84375 39.984375Q353.92188 37.640625 355.9375 36.390625Q357.95312 35.125 360.625 35.125Q364.3125 35.125 366.5625 37.109375Q368.82812 39.078125 369.17188 42.65625L364.78125 42.65625Q364.625 40.59375 363.625 39.671875Q362.64062 38.734375 360.625 38.734375Q358.42188 38.734375 357.32812 40.3125Q356.25 41.875 356.21875 45.1875L356.21875 46.796875Q356.21875 50.265625 357.26562 51.859375Q358.3125 53.453125 360.5625 53.453125Q362.59375 53.453125 363.59375 52.53125Q364.60938 51.59375 364.75 49.640625L369.14062 49.640625ZM376.25 42.625Q377.9375 40.609375 380.48438 40.609375Q385.64062 40.609375 385.71875 46.59375L385.71875 56.75L381.48438 56.75L381.48438 46.71875Q381.48438 45.359375 380.89062 44.703125Q380.3125 44.046875 378.95312 44.046875Q377.09375 44.046875 376.25 45.484375L376.25 56.75L372.03125 56.75L372.03125 34.25L376.25 34.25L376.25 42.625ZM398.3125 56.75Q398.01562 56.171875 397.89062 55.328125Q396.34375 57.046875 393.89062 57.046875Q391.5625 57.046875 390.03125 55.703125Q388.5 54.34375 388.5 52.296875Q388.5 49.78125 390.35938 48.4375Q392.23438 47.078125 395.76562 47.0625L397.70312 47.0625L397.70312 46.15625Q397.70312 45.0625 397.14062 44.40625Q396.57812 43.734375 395.35938 43.734375Q394.29688 43.734375 393.6875 44.25Q393.07812 44.765625 393.07812 45.65625L388.84375 45.65625Q388.84375 44.28125 389.6875 43.109375Q390.54688 41.9375 392.09375 41.28125Q393.65625 40.609375 395.59375 40.609375Q398.51562 40.609375 400.23438 42.078125Q401.95312 43.546875 401.95312 46.21875L401.95312 53.09375Q401.96875 55.34375 402.59375 56.5L402.59375 56.75L398.3125 56.75ZM394.8125 53.8125Q395.75 53.8125 396.53125 53.390625Q397.32812 52.96875 397.70312 52.265625L397.70312 49.546875L396.125 49.546875Q392.95312 49.546875 392.75 51.734375L392.73438 51.984375Q392.73438 52.78125 393.28125 53.296875Q393.84375 53.8125 394.8125 53.8125ZM409.01562 40.90625L409.15625 42.734375Q410.85938 40.609375 413.70312 40.609375Q416.23438 40.609375 417.45312 42.09375Q418.6875 43.5625 418.71875 46.515625L418.71875 56.75L414.48438 56.75L414.48438 46.609375Q414.48438 45.265625 413.89062 44.65625Q413.3125 44.046875 411.95312 44.046875Q410.17188 44.046875 409.26562 45.578125L409.26562 56.75L405.03125 56.75L405.03125 40.90625L409.01562 40.90625ZM426.01562 40.90625L426.15625 42.734375Q427.85938 40.609375 430.70312 40.609375Q433.23438 40.609375 434.45312 42.09375Q435.6875 43.5625 435.71875 46.515625L435.71875 56.75L431.48438 56.75L431.48438 46.609375Q431.48438 45.265625 430.89062 44.65625Q430.3125 44.046875 428.95312 44.046875Q427.17188 44.046875 426.26562 45.578125L426.26562 56.75L422.03125 56.75L422.03125 40.90625L426.01562 40.90625ZM446.42188 57.046875Q442.9375 57.046875 440.75 54.90625Q438.5625 52.765625 438.5625 49.203125L438.5625 48.796875Q438.5625 46.40625 439.48438 44.53125Q440.40625 42.640625 442.09375 41.625Q443.78125 40.609375 445.95312 40.609375Q449.20312 40.609375 451.0625 42.65625Q452.9375 44.703125 452.9375 48.46875L452.9375 50.203125L442.84375 50.203125Q443.04688 51.75 444.07812 52.6875Q445.125 53.625 446.70312 53.625Q449.14062 53.625 450.51562 51.859375L452.60938 54.1875Q451.65625 55.53125 450.03125 56.296875Q448.40625 57.046875 446.42188 57.046875ZM445.9375 44.03125Q444.67188 44.03125 443.89062 44.890625Q443.10938 45.734375 442.89062 47.3125L448.78125 47.3125L448.78125 46.984375Q448.75 45.578125 448.01562 44.8125Q447.28125 44.03125 445.9375 44.03125ZM459.59375 56.75L455.34375 56.75L455.34375 34.25L459.59375 34.25L459.59375 56.75ZM471.70312 52.375Q471.70312 51.59375 470.9375 51.15625Q470.17188 50.703125 468.46875 50.34375Q462.8125 49.15625 462.8125 45.546875Q462.8125 43.4375 464.5625 42.03125Q466.3125 40.609375 469.14062 40.609375Q472.17188 40.609375 473.96875 42.03125Q475.78125 43.453125 475.78125 45.71875L471.54688 45.71875Q471.54688 44.8125 470.95312 44.21875Q470.375 43.625 469.125 43.625Q468.0625 43.625 467.46875 44.109375Q466.89062 44.59375 466.89062 45.34375Q466.89062 46.046875 467.54688 46.484375Q468.21875 46.90625 469.79688 47.21875Q471.39062 47.53125 472.46875 47.9375Q475.82812 49.15625 475.82812 52.1875Q475.82812 54.359375 473.96875 55.703125Q472.10938 57.046875 469.15625 57.046875Q467.17188 57.046875 465.625 56.34375Q464.07812 55.625 463.20312 54.390625Q462.32812 53.140625 462.32812 51.703125L466.32812 51.703125Q466.39062 52.84375 467.17188 53.453125Q467.95312 54.046875 469.25 54.046875Q470.46875 54.046875 471.07812 53.578125Q471.70312 53.109375 471.70312 52.375ZM478.34375 54.671875Q478.34375 53.65625 479.01562 53.03125Q479.70312 52.40625 480.73438 52.40625Q481.78125 52.40625 482.45312 53.03125Q483.14062 53.65625 483.14062 54.671875Q483.14062 55.671875 482.45312 56.296875Q481.78125 56.90625 480.73438 56.90625Q479.6875 56.90625 479.01562 56.296875Q478.34375 55.671875 478.34375 54.671875ZM478.34375 42.671875Q478.34375 41.65625 479.01562 41.03125Q479.70312 40.40625 480.73438 40.40625Q481.78125 40.40625 482.45312 41.03125Q483.14062 41.65625 483.14062 42.671875Q483.14062 43.671875 482.45312 44.296875Q481.78125 44.90625 480.73438 44.90625Q479.6875 44.90625 479.01562 44.296875Q478.34375 43.671875 478.34375 42.671875ZM499.14062 35.421875L504.625 50.890625L510.07812 35.421875L515.84375 35.421875L515.84375 56.75L511.4375 56.75L511.4375 50.921875L511.875 40.859375L506.125 56.75L503.10938 56.75L497.35938 40.875L497.79688 50.921875L497.79688 56.75L493.40625 56.75L493.40625 35.421875L499.14062 35.421875ZM526.4219 57.046875Q522.9375 57.046875 520.75 54.90625Q518.5625 52.765625 518.5625 49.203125L518.5625 48.796875Q518.5625 46.40625 519.4844 44.53125Q520.40625 42.640625 522.09375 41.625Q523.78125 40.609375 525.9531 40.609375Q529.2031 40.609375 531.0625 42.65625Q532.9375 44.703125 532.9375 48.46875L532.9375 50.203125L522.84375 50.203125Q523.0469 51.75 524.0781 52.6875Q525.125 53.625 526.7031 53.625Q529.1406 53.625 530.5156 51.859375L532.6094 54.1875Q531.65625 55.53125 530.03125 56.296875Q528.40625 57.046875 526.4219 57.046875ZM525.9375 44.03125Q524.6719 44.03125 523.8906 44.890625Q523.1094 45.734375 522.8906 47.3125L528.78125 47.3125L528.78125 46.984375Q528.75 45.578125 528.0156 44.8125Q527.28125 44.03125 525.9375 44.03125ZM539.09375 40.90625L539.2344 42.671875Q540.90625 40.609375 543.78125 40.609375Q546.84375 40.609375 547.9844 43.03125Q549.65625 40.609375 552.75 40.609375Q555.3281 40.609375 556.5781 42.109375Q557.84375 43.609375 557.84375 46.625L557.84375 56.75L553.59375 56.75L553.59375 46.640625Q553.59375 45.296875 553.0625 44.671875Q552.5469 44.046875 551.2031 44.046875Q549.3125 44.046875 548.5781 45.859375L548.59375 56.75L544.3594 56.75L544.3594 46.65625Q544.3594 45.28125 543.8125 44.671875Q543.2656 44.046875 541.96875 44.046875Q540.1719 44.046875 539.3594 45.546875L539.3594 56.75L535.125 56.75L535.125 40.90625L539.09375 40.90625ZM575.40625 48.96875Q575.40625 52.78125 573.78125 54.921875Q572.15625 57.046875 569.2344 57.046875Q566.65625 57.046875 565.125 55.0625L564.9375 56.75L561.125 56.75L561.125 34.25L565.3594 34.25L565.3594 42.328125Q566.8281 40.609375 569.21875 40.609375Q572.1094 40.609375 573.75 42.75Q575.40625 44.875 575.40625 48.734375L575.40625 48.96875ZM571.1719 48.65625Q571.1719 46.265625 570.40625 45.15625Q569.65625 44.046875 568.1406 44.046875Q566.125 44.046875 565.3594 45.703125L565.3594 51.953125Q566.1406 53.625 568.1719 53.625Q570.21875 53.625 570.875 51.609375Q571.1719 50.640625 571.1719 48.65625ZM585.4219 57.046875Q581.9375 57.046875 579.75 54.90625Q577.5625 52.765625 577.5625 49.203125L577.5625 48.796875Q577.5625 46.40625 578.4844 44.53125Q579.40625 42.640625 581.09375 41.625Q582.78125 40.609375 584.9531 40.609375Q588.2031 40.609375 590.0625 42.65625Q591.9375 44.703125 591.9375 48.46875L591.9375 50.203125L581.84375 50.203125Q582.0469 51.75 583.0781 52.6875Q584.125 53.625 585.7031 53.625Q588.1406 53.625 589.5156 51.859375L591.6094 54.1875Q590.65625 55.53125 589.03125 56.296875Q587.40625 57.046875 585.4219 57.046875ZM584.9375 44.03125Q583.6719 44.03125 582.8906 44.890625Q582.1094 45.734375 581.8906 47.3125L587.78125 47.3125L587.78125 46.984375Q587.75 45.578125 587.0156 44.8125Q586.28125 44.03125 584.9375 44.03125ZM603.03125 44.875Q602.1719 44.75 601.5156 44.75Q599.1094 44.75 598.3594 46.375L598.3594 56.75L594.125 56.75L594.125 40.90625L598.125 40.90625L598.25 42.796875Q599.5156 40.609375 601.7656 40.609375Q602.46875 40.609375 603.09375 40.796875L603.03125 44.875ZM613.7031 52.375Q613.7031 51.59375 612.9375 51.15625Q612.1719 50.703125 610.46875 50.34375Q604.8125 49.15625 604.8125 45.546875Q604.8125 43.4375 606.5625 42.03125Q608.3125 40.609375 611.1406 40.609375Q614.1719 40.609375 615.96875 42.03125Q617.78125 43.453125 617.78125 45.71875L613.5469 45.71875Q613.5469 44.8125 612.9531 44.21875Q612.375 43.625 611.125 43.625Q610.0625 43.625 609.46875 44.109375Q608.8906 44.59375 608.8906 45.34375Q608.8906 46.046875 609.5469 46.484375Q610.21875 46.90625 611.7969 47.21875Q613.3906 47.53125 614.46875 47.9375Q617.8281 49.15625 617.8281 52.1875Q617.8281 54.359375 615.96875 55.703125Q614.1094 57.046875 611.15625 57.046875Q609.1719 57.046875 607.625 56.34375Q606.0781 55.625 605.2031 54.390625Q604.3281 53.140625 604.3281 51.703125L608.3281 51.703125Q608.3906 52.84375 609.1719 53.453125Q609.9531 54.046875 611.25 54.046875Q612.46875 54.046875 613.0781 53.578125Q613.7031 53.109375 613.7031 52.375ZM624.25 42.625Q625.9375 40.609375 628.4844 40.609375Q633.6406 40.609375 633.71875 46.59375L633.71875 56.75L629.4844 56.75L629.4844 46.71875Q629.4844 45.359375 628.8906 44.703125Q628.3125 44.046875 626.9531 44.046875Q625.09375 44.046875 624.25 45.484375L624.25 56.75L620.03125 56.75L620.03125 34.25L624.25 34.25L624.25 42.625ZM641.59375 56.75L637.34375 56.75L637.34375 40.90625L641.59375 40.90625L641.59375 56.75ZM637.09375 36.796875Q637.09375 35.84375 637.7344 35.234375Q638.375 34.609375 639.46875 34.609375Q640.5469 34.609375 641.1875 35.234375Q641.84375 35.84375 641.84375 36.796875Q641.84375 37.765625 641.1875 38.390625Q640.5469 39.0 639.46875 39.0Q638.40625 39.0 637.75 38.390625Q637.09375 37.765625 637.09375 36.796875ZM659.3906 48.96875Q659.3906 52.640625 657.71875 54.84375Q656.0625 57.046875 653.2344 57.046875Q650.84375 57.046875 649.3594 55.375L649.3594 62.84375L645.125 62.84375L645.125 40.90625L649.0469 40.90625L649.2031 42.453125Q650.7344 40.609375 653.21875 40.609375Q656.1406 40.609375 657.7656 42.78125Q659.3906 44.9375 659.3906 48.75L659.3906 48.96875ZM655.15625 48.65625Q655.15625 46.453125 654.375 45.25Q653.59375 44.046875 652.09375 44.046875Q650.1094 44.046875 649.3594 45.578125L649.3594 52.0625Q650.1406 53.625 652.125 53.625Q655.15625 53.625 655.15625 48.65625Z" fill-rule="nonzero"/></svg>