<svg version="1.1" viewBox="0.0 0.0 789.0 575.0" fill="none" stroke="none" stroke-linecap="square" stroke-miterlimit="10" width="789" height="575" xmlns:xlink="http://www.w3.org/1999/xlink" xmlns="http://www.w3.org/2000/svg"><path fill="#ffffff" d="M0 0L789.0 0L789.0 575.0L0 575.0L0 0Z" fill-rule="nonzero"/><path fill="#000000" d="M0 0L789.0 0L789.0 575.0L0 575.0L0 0Z" fill-rule="nonzero"/><path stroke="#333333" stroke-width="1.0" stroke-linecap="butt" d="M163.5 134.5L163.5 480.5" fill-rule="nonzero"/><path stroke="#333333" stroke-width="1.0" stroke-linecap="butt" d="M247.5 134.5L247.5 480.5" fill-rule="nonzero"/><path stroke="#333333" stroke-width="1.0" stroke-linecap="butt" d="M331.5 134.5L331.5 480.5" fill-rule="nonzero"/><path stroke="#333333" stroke-width="1.0" stroke-linecap="butt" d="M415.5 134.5L415.5 480.5" fill-rule="nonzero"/><path stroke="#333333" stroke-width="1.0" stroke-linecap="butt" d="M499.5 134.5L499.5 480.5" fill-rule="nonzero"/><path stroke="#333333" stroke-width="1.0" stroke-linecap="butt" d="M583.5 134.5L583.5 480.5" fill-rule="nonzero"/><path stroke="#333333" stroke-width="1.0" stroke-linecap="butt" d="M667.5 134.5L667.5 480.5" fill-rule="nonzero"/><path stroke="#333333" stroke-width="1.0" stroke-linecap="butt" d="M751.5 134.5L751.5 480.5" fill-rule="nonzero"/><path stroke="#cccccc" stroke-width="1.0" stroke-linecap="butt" d="M81.5 480.5L760.5 480.5" fill-rule="nonzero"/><path stroke="#333333" stroke-width="1.0" stroke-linecap="butt" d="M81.5 411.5L760.5 411.5" fill-rule="nonzero"/><path stroke="#333333" stroke-width="1.0" stroke-linecap="butt" d="M81.5 342.5L760.5 342.5" fill-rule="nonzero"/><path stroke="#333333" stroke-width="1.0" stroke-linecap="butt" d="M81.5 273.5L760.5 273.5" fill-rule="nonzero"/><path stroke="#333333" stroke-width="1.0" stroke-linecap="butt" d="M81.5 203.5L760.5 203.5" fill-rule="nonzero"/><path stroke="#333333" stroke-width="1.0" stroke-linecap="butt" d="M81.5 134.5L760.5 134.5" fill-rule="nonzero"/><clipPath id="id_0"><path d="M81.75 134.58333L760.25 134.58333L760.25 480.67245L81.75 480.67245L81.75 134.58333Z" clip-rule="nonzero"/></clipPath><path stroke="#b931ff" stroke-width="4.0" stroke-linecap="butt" clip-path="url(#id_0)" d="M166.7912 479.0666C166.7912 479.0666 195.07495 463.39636 208.18205 456.4462C221.28915 449.49606 234.39626 443.2086 247.50336 436.23462C260.61044 429.26065 275.25055 421.01154 289.12415 413.33734C302.99774 405.66318 324.9196 393.22684 337.41348 386.48083C349.90738 379.73483 362.40128 373.11963 374.8952 366.85065C387.3891 360.5817 406.47488 351.78076 420.42514 345.00552C434.37537 338.2303 448.32562 332.30048 462.27588 324.434C476.22614 316.56747 491.40277 305.18146 505.96622 296.6361C520.52966 288.09076 539.9987 276.80167 551.7261 272.04993C563.4535 267.2982 575.1809 266.5527 586.9083 262.4425C598.63574 258.33228 614.0423 250.68152 627.6093 245.0273C641.17633 239.37308 656.2763 234.52 670.6098 227.5844C684.9433 220.6488 701.2697 209.75218 714.3002 203.02592C727.3306 196.29965 753.39154 184.64166 753.39154 184.64166" fill-rule="nonzero"/><path stroke="#5277ff" stroke-width="4.0" stroke-linecap="butt" clip-path="url(#id_0)" d="M88.60848 480.42328C88.60848 480.42328 111.1435 476.8581 122.41101 474.9135C133.67851 472.96896 152.99425 469.4699 166.7912 466.8289C180.58815 464.18784 195.07495 460.99152 208.18205 458.52274C221.28915 456.054 234.39626 454.59433 247.50336 451.60095C260.61044 448.6076 275.25055 443.64615 289.12415 439.917C302.99774 436.18784 324.9196 431.14816 337.41348 427.51315C349.90738 423.87814 362.40128 419.55313 374.8952 415.3308C387.3891 411.10852 406.47488 404.41922 420.42514 399.35535C434.37537 394.2915 448.32562 389.01816 462.27588 383.65674C476.22614 378.29535 491.40277 372.307 505.96622 366.46304C520.52966 360.61908 539.9987 352.42908 551.7261 347.74655C563.4535 343.064 575.1809 339.19754 586.9083 334.0414C598.63574 328.88528 614.0423 320.3861 627.6093 314.1067C641.17633 307.82724 656.2763 301.32053 670.6098 295.3625C684.9433 289.40448 701.2697 282.70633 714.3002 278.08572C727.3306 273.46512 753.39154 265.8203 753.39154 265.8203" fill-rule="nonzero"/><path fill="#b931ff" clip-path="url(#id_0)" d="M171.2912 479.0666C171.2912 481.55188 169.27647 483.5666 166.7912 483.5666C164.30592 483.5666 162.2912 481.55188 162.2912 479.0666C162.2912 476.58133 164.30592 474.5666 166.7912 474.5666C169.27647 474.5666 171.2912 476.58133 171.2912 479.0666Z" fill-rule="nonzero"/><path fill="#b931ff" clip-path="url(#id_0)" d="M212.68205 456.4462C212.68205 458.9315 210.66733 460.9462 208.18205 460.9462C205.69676 460.9462 203.68205 458.9315 203.68205 456.4462C203.68205 453.96094 205.69676 451.9462 208.18205 451.9462C210.66733 451.9462 212.68205 453.96094 212.68205 456.4462Z" fill-rule="nonzero"/><path fill="#b931ff" clip-path="url(#id_0)" d="M252.00336 436.23462C252.00336 438.71988 249.98863 440.73462 247.50336 440.73462C245.01808 440.73462 243.00336 438.71988 243.00336 436.23462C243.00336 433.74933 245.01808 431.73462 247.50336 431.73462C249.98863 431.73462 252.00336 433.74933 252.00336 436.23462Z" fill-rule="nonzero"/><path fill="#b931ff" clip-path="url(#id_0)" d="M293.62415 413.33734C293.62415 415.82263 291.60944 417.83734 289.12415 417.83734C286.6389 417.83734 284.62415 415.82263 284.62415 413.33734C284.62415 410.85208 286.6389 408.83734 289.12415 408.83734C291.60944 408.83734 293.62415 410.85208 293.62415 413.33734Z" fill-rule="nonzero"/><path fill="#b931ff" clip-path="url(#id_0)" d="M341.91348 386.48083C341.91348 388.96613 339.89877 390.98083 337.41348 390.98083C334.9282 390.98083 332.91348 388.96613 332.91348 386.48083C332.91348 383.99554 334.9282 381.98083 337.41348 381.98083C339.89877 381.98083 341.91348 383.99554 341.91348 386.48083Z" fill-rule="nonzero"/><path fill="#b931ff" clip-path="url(#id_0)" d="M379.3952 366.85065C379.3952 369.33594 377.38046 371.35065 374.8952 371.35065C372.4099 371.35065 370.3952 369.33594 370.3952 366.85065C370.3952 364.3654 372.4099 362.35065 374.8952 362.35065C377.38046 362.35065 379.3952 364.3654 379.3952 366.85065Z" fill-rule="nonzero"/><path fill="#b931ff" clip-path="url(#id_0)" d="M424.92514 345.00552C424.92514 347.49078 422.9104 349.50552 420.42514 349.50552C417.93985 349.50552 415.92514 347.49078 415.92514 345.00552C415.92514 342.52023 417.93985 340.50552 420.42514 340.50552C422.9104 340.50552 424.92514 342.52023 424.92514 345.00552Z" fill-rule="nonzero"/><path fill="#b931ff" clip-path="url(#id_0)" d="M466.77588 324.434C466.77588 326.91925 464.76117 328.934 462.27588 328.934C459.7906 328.934 457.77588 326.91925 457.77588 324.434C457.77588 321.9487 459.7906 319.934 462.27588 319.934C464.76117 319.934 466.77588 321.9487 466.77588 324.434Z" fill-rule="nonzero"/><path fill="#b931ff" clip-path="url(#id_0)" d="M510.46622 296.6361C510.46622 299.12137 508.4515 301.1361 505.96622 301.1361C503.48093 301.1361 501.46622 299.12137 501.46622 296.6361C501.46622 294.15082 503.48093 292.1361 505.96622 292.1361C508.4515 292.1361 510.46622 294.15082 510.46622 296.6361Z" fill-rule="nonzero"/><path fill="#b931ff" clip-path="url(#id_0)" d="M556.2261 272.04993C556.2261 274.53522 554.21136 276.54993 551.7261 276.54993C549.24084 276.54993 547.2261 274.53522 547.2261 272.04993C547.2261 269.56464 549.24084 267.54993 551.7261 267.54993C554.21136 267.54993 556.2261 269.56464 556.2261 272.04993Z" fill-rule="nonzero"/><path fill="#b931ff" clip-path="url(#id_0)" d="M591.4083 262.4425C591.4083 264.92776 589.3936 266.9425 586.9083 266.9425C584.42303 266.9425 582.4083 264.92776 582.4083 262.4425C582.4083 259.9572 584.42303 257.9425 586.9083 257.9425C589.3936 257.9425 591.4083 259.9572 591.4083 262.4425Z" fill-rule="nonzero"/><path fill="#b931ff" clip-path="url(#id_0)" d="M632.1093 245.0273C632.1093 247.51257 630.0946 249.5273 627.6093 249.5273C625.124 249.5273 623.1093 247.51257 623.1093 245.0273C623.1093 242.542 625.124 240.5273 627.6093 240.5273C630.0946 240.5273 632.1093 242.542 632.1093 245.0273Z" fill-rule="nonzero"/><path fill="#b931ff" clip-path="url(#id_0)" d="M675.1098 227.5844C675.1098 230.06969 673.0951 232.0844 670.6098 232.0844C668.1245 232.0844 666.1098 230.06969 666.1098 227.5844C666.1098 225.09912 668.1245 223.0844 670.6098 223.0844C673.0951 223.0844 675.1098 225.09912 675.1098 227.5844Z" fill-rule="nonzero"/><path fill="#b931ff" clip-path="url(#id_0)" d="M718.8002 203.02592C718.8002 205.5112 716.78546 207.52592 714.3002 207.52592C711.8149 207.52592 709.8002 205.5112 709.8002 203.02592C709.8002 200.54063 711.8149 198.52592 714.3002 198.52592C716.78546 198.52592 718.8002 200.54063 718.8002 203.02592Z" fill-rule="nonzero"/><path fill="#b931ff" clip-path="url(#id_0)" d="M757.89154 184.64166C757.89154 187.12694 755.8768 189.14166 753.39154 189.14166C750.90625 189.14166 748.89154 187.12694 748.89154 184.64166C748.89154 182.15639 750.90625 180.14166 753.39154 180.14166C755.8768 180.14166 757.89154 182.15639 757.89154 184.64166Z" fill-rule="nonzero"/><path fill="#5277ff" clip-path="url(#id_0)" d="M93.10848 480.42328C93.10848 482.90854 91.093765 484.92328 88.60848 484.92328C86.1232 484.92328 84.10848 482.90854 84.10848 480.42328C84.10848 477.938 86.1232 475.92328 88.60848 475.92328C91.093765 475.92328 93.10848 477.938 93.10848 480.42328Z" fill-rule="nonzero"/><path fill="#5277ff" clip-path="url(#id_0)" d="M126.91101 474.9135C126.91101 477.3988 124.89629 479.4135 122.41101 479.4135C119.92573 479.4135 117.91101 477.3988 117.91101 474.9135C117.91101 472.42825 119.92573 470.4135 122.41101 470.4135C124.89629 470.4135 126.91101 472.42825 126.91101 474.9135Z" fill-rule="nonzero"/><path fill="#5277ff" clip-path="url(#id_0)" d="M171.2912 466.8289C171.2912 469.31418 169.27647 471.3289 166.7912 471.3289C164.30592 471.3289 162.2912 469.31418 162.2912 466.8289C162.2912 464.3436 164.30592 462.3289 166.7912 462.3289C169.27647 462.3289 171.2912 464.3436 171.2912 466.8289Z" fill-rule="nonzero"/><path fill="#5277ff" clip-path="url(#id_0)" d="M212.68205 458.52274C212.68205 461.00803 210.66733 463.02274 208.18205 463.02274C205.69676 463.02274 203.68205 461.00803 203.68205 458.52274C203.68205 456.03748 205.69676 454.02274 208.18205 454.02274C210.66733 454.02274 212.68205 456.03748 212.68205 458.52274Z" fill-rule="nonzero"/><path fill="#5277ff" clip-path="url(#id_0)" d="M252.00336 451.60095C252.00336 454.08624 249.98863 456.10095 247.50336 456.10095C245.01808 456.10095 243.00336 454.08624 243.00336 451.60095C243.00336 449.1157 245.01808 447.10095 247.50336 447.10095C249.98863 447.10095 252.00336 449.1157 252.00336 451.60095Z" fill-rule="nonzero"/><path fill="#5277ff" clip-path="url(#id_0)" d="M293.62415 439.917C293.62415 442.40228 291.60944 444.417 289.12415 444.417C286.6389 444.417 284.62415 442.40228 284.62415 439.917C284.62415 437.4317 286.6389 435.417 289.12415 435.417C291.60944 435.417 293.62415 437.4317 293.62415 439.917Z" fill-rule="nonzero"/><path fill="#5277ff" clip-path="url(#id_0)" d="M341.91348 427.51315C341.91348 429.99844 339.89877 432.01315 337.41348 432.01315C334.9282 432.01315 332.91348 429.99844 332.91348 427.51315C332.91348 425.0279 334.9282 423.01315 337.41348 423.01315C339.89877 423.01315 341.91348 425.0279 341.91348 427.51315Z" fill-rule="nonzero"/><path fill="#5277ff" clip-path="url(#id_0)" d="M379.3952 415.3308C379.3952 417.8161 377.38046 419.8308 374.8952 419.8308C372.4099 419.8308 370.3952 417.8161 370.3952 415.3308C370.3952 412.84555 372.4099 410.8308 374.8952 410.8308C377.38046 410.8308 379.3952 412.84555 379.3952 415.3308Z" fill-rule="nonzero"/><path fill="#5277ff" clip-path="url(#id_0)" d="M424.92514 399.35535C424.92514 401.84064 422.9104 403.85535 420.42514 403.85535C417.93985 403.85535 415.92514 401.84064 415.92514 399.35535C415.92514 396.87006 417.93985 394.85535 420.42514 394.85535C422.9104 394.85535 424.92514 396.87006 424.92514 399.35535Z" fill-rule="nonzero"/><path fill="#5277ff" clip-path="url(#id_0)" d="M466.77588 383.65674C466.77588 386.14203 464.76117 388.15674 462.27588 388.15674C459.7906 388.15674 457.77588 386.14203 457.77588 383.65674C457.77588 381.17148 459.7906 379.15674 462.27588 379.15674C464.76117 379.15674 466.77588 381.17148 466.77588 383.65674Z" fill-rule="nonzero"/><path fill="#5277ff" clip-path="url(#id_0)" d="M510.46622 366.46304C510.46622 368.94833 508.4515 370.96304 505.96622 370.96304C503.48093 370.96304 501.46622 368.94833 501.46622 366.46304C501.46622 363.97775 503.48093 361.96304 505.96622 361.96304C508.4515 361.96304 510.46622 363.97775 510.46622 366.46304Z" fill-rule="nonzero"/><path fill="#5277ff" clip-path="url(#id_0)" d="M556.2261 347.74655C556.2261 350.2318 554.21136 352.24655 551.7261 352.24655C549.24084 352.24655 547.2261 350.2318 547.2261 347.74655C547.2261 345.26126 549.24084 343.24655 551.7261 343.24655C554.21136 343.24655 556.2261 345.26126 556.2261 347.74655Z" fill-rule="nonzero"/><path fill="#5277ff" clip-path="url(#id_0)" d="M591.4083 334.0414C591.4083 336.5267 589.3936 338.5414 586.9083 338.5414C584.42303 338.5414 582.4083 336.5267 582.4083 334.0414C582.4083 331.55612 584.42303 329.5414 586.9083 329.5414C589.3936 329.5414 591.4083 331.55612 591.4083 334.0414Z" fill-rule="nonzero"/><path fill="#5277ff" clip-path="url(#id_0)" d="M632.1093 314.1067C632.1093 316.59195 630.0946 318.6067 627.6093 318.6067C625.124 318.6067 623.1093 316.59195 623.1093 314.1067C623.1093 311.6214 625.124 309.6067 627.6093 309.6067C630.0946 309.6067 632.1093 311.6214 632.1093 314.1067Z" fill-rule="nonzero"/><path fill="#5277ff" clip-path="url(#id_0)" d="M675.1098 295.3625C675.1098 297.84778 673.0951 299.8625 670.6098 299.8625C668.1245 299.8625 666.1098 297.84778 666.1098 295.3625C666.1098 292.8772 668.1245 290.8625 670.6098 290.8625C673.0951 290.8625 675.1098 292.8772 675.1098 295.3625Z" fill-rule="nonzero"/><path fill="#5277ff" clip-path="url(#id_0)" d="M718.8002 278.08572C718.8002 280.571 716.78546 282.58572 714.3002 282.58572C711.8149 282.58572 709.8002 280.571 709.8002 278.08572C709.8002 275.60043 711.8149 273.58572 714.3002 273.58572C716.78546 273.58572 718.8002 275.60043 718.8002 278.08572Z" fill-rule="nonzero"/><path fill="#5277ff" clip-path="url(#id_0)" d="M757.89154 265.8203C757.89154 268.3056 755.8768 270.3203 753.39154 270.3203C750.90625 270.3203 748.89154 268.3056 748.89154 265.8203C748.89154 263.33505 750.90625 261.3203 753.39154 261.3203C755.8768 261.3203 757.89154 263.33505 757.89154 265.8203Z" fill-rule="nonzero"/><path fill="#d9d9d9" d="M72.828125 481.31308Q72.828125 483.85995 71.953125 485.09433Q71.09375 486.3287 69.25 486.3287Q67.4375 486.3287 66.5625 485.12558Q65.6875 483.90683 65.65625 481.5162L65.65625 479.5787Q65.65625 477.0787 66.515625 475.85995Q67.390625 474.6412 69.234375 474.6412Q71.078125 474.6412 71.9375 475.81308Q72.8125 476.98495 72.828125 479.43808L72.828125 481.31308ZM71.390625 479.34433Q71.390625 477.50058 70.875 476.67245Q70.359375 475.8287 69.234375 475.8287Q68.125 475.8287 67.609375 476.67245Q67.109375 477.50058 67.09375 479.23495L67.09375 481.54745Q67.09375 483.3912 67.625 484.2662Q68.171875 485.1412 69.25 485.1412Q70.328125 485.1412 70.84375 484.31308Q71.359375 483.48495 71.390625 481.7037L71.390625 479.34433Z" fill-rule="nonzero"/><path fill="#d9d9d9" d="M46.15625 416.95462L38.703125 416.95462L38.703125 415.90775L42.640625 411.53275Q43.515625 410.54837 43.84375 409.92337Q44.171875 409.29837 44.171875 408.64212Q44.171875 407.7515 43.625 407.189Q43.09375 406.61087 42.203125 406.61087Q41.125 406.61087 40.515625 407.22025Q39.921875 407.82962 39.921875 408.92337L38.484375 408.92337Q38.484375 407.36087 39.484375 406.39212Q40.5 405.42337 42.203125 405.42337Q43.78125 405.42337 44.703125 406.2515Q45.625 407.07962 45.625 408.47025Q45.625 410.14212 43.484375 412.47025L40.4375 415.76712L46.15625 415.76712L46.15625 416.95462ZM48.359375 411.2515L48.9375 405.57962L54.765625 405.57962L54.765625 406.90775L50.171875 406.90775L49.828125 410.01712Q50.65625 409.51712 51.71875 409.51712Q53.28125 409.51712 54.1875 410.54837Q55.109375 411.57962 55.109375 413.32962Q55.109375 415.07962 54.15625 416.09525Q53.203125 417.11087 51.5 417.11087Q50.0 417.11087 49.046875 416.28275Q48.09375 415.439 47.953125 413.95462L49.328125 413.95462Q49.453125 414.939 50.015625 415.439Q50.578125 415.92337 51.5 415.92337Q52.515625 415.92337 53.078125 415.23587Q53.65625 414.54837 53.65625 413.34525Q53.65625 412.20462 53.03125 411.51712Q52.421875 410.814 51.390625 410.814Q50.4375 410.814 49.90625 411.23587L49.515625 411.54837L48.359375 411.2515ZM63.828125 412.09525Q63.828125 414.64212 62.953125 415.8765Q62.09375 417.11087 60.25 417.11087Q58.4375 417.11087 57.5625 415.90775Q56.6875 414.689 56.65625 412.29837L56.65625 410.36087Q56.65625 407.86087 57.515625 406.64212Q58.390625 405.42337 60.234375 405.42337Q62.078125 405.42337 62.9375 406.59525Q63.8125 407.76712 63.828125 410.22025L63.828125 412.09525ZM62.390625 410.1265Q62.390625 408.28275 61.875 407.45462Q61.359375 406.61087 60.234375 406.61087Q59.125 406.61087 58.609375 407.45462Q58.109375 408.28275 58.09375 410.01712L58.09375 412.32962Q58.09375 414.17337 58.625 415.04837Q59.171875 415.92337 60.25 415.92337Q61.328125 415.92337 61.84375 415.09525Q62.359375 414.26712 62.390625 412.48587L62.390625 410.1265ZM72.828125 412.09525Q72.828125 414.64212 71.953125 415.8765Q71.09375 417.11087 69.25 417.11087Q67.4375 417.11087 66.5625 415.90775Q65.6875 414.689 65.65625 412.29837L65.65625 410.36087Q65.65625 407.86087 66.515625 406.64212Q67.390625 405.42337 69.234375 405.42337Q71.078125 405.42337 71.9375 406.59525Q72.8125 407.76712 72.828125 410.22025L72.828125 412.09525ZM71.390625 410.1265Q71.390625 408.28275 70.875 407.45462Q70.359375 406.61087 69.234375 406.61087Q68.125 406.61087 67.609375 407.45462Q67.109375 408.28275 67.09375 410.01712L67.09375 412.32962Q67.09375 414.17337 67.625 415.04837Q68.171875 415.92337 69.25 415.92337Q70.328125 415.92337 70.84375 415.09525Q71.359375 414.26712 71.390625 412.48587L71.390625 410.1265Z" fill-rule="nonzero"/><path fill="#d9d9d9" d="M39.359375 342.0337L39.9375 336.36182L45.765625 336.36182L45.765625 337.68994L41.171875 337.68994L40.828125 340.79932Q41.65625 340.29932 42.71875 340.29932Q44.28125 340.29932 45.1875 341.33057Q46.109375 342.36182 46.109375 344.11182Q46.109375 345.86182 45.15625 346.87744Q44.203125 347.89307 42.5 347.89307Q41.0 347.89307 40.046875 347.06494Q39.09375 346.2212 38.953125 344.73682L40.328125 344.73682Q40.453125 345.7212 41.015625 346.2212Q41.578125 346.70557 42.5 346.70557Q43.515625 346.70557 44.078125 346.01807Q44.65625 345.33057 44.65625 344.12744Q44.65625 342.98682 44.03125 342.29932Q43.421875 341.5962 42.390625 341.5962Q41.4375 341.5962 40.90625 342.01807L40.515625 342.33057L39.359375 342.0337ZM54.828125 342.87744Q54.828125 345.42432 53.953125 346.6587Q53.09375 347.89307 51.25 347.89307Q49.4375 347.89307 48.5625 346.68994Q47.6875 345.4712 47.65625 343.08057L47.65625 341.14307Q47.65625 338.64307 48.515625 337.42432Q49.390625 336.20557 51.234375 336.20557Q53.078125 336.20557 53.9375 337.37744Q54.8125 338.54932 54.828125 341.00244L54.828125 342.87744ZM53.390625 340.9087Q53.390625 339.06494 52.875 338.23682Q52.359375 337.39307 51.234375 337.39307Q50.125 337.39307 49.609375 338.23682Q49.109375 339.06494 49.09375 340.79932L49.09375 343.11182Q49.09375 344.95557 49.625 345.83057Q50.171875 346.70557 51.25 346.70557Q52.328125 346.70557 52.84375 345.87744Q53.359375 345.04932 53.390625 343.26807L53.390625 340.9087ZM63.828125 342.87744Q63.828125 345.42432 62.953125 346.6587Q62.09375 347.89307 60.25 347.89307Q58.4375 347.89307 57.5625 346.68994Q56.6875 345.4712 56.65625 343.08057L56.65625 341.14307Q56.65625 338.64307 57.515625 337.42432Q58.390625 336.20557 60.234375 336.20557Q62.078125 336.20557 62.9375 337.37744Q63.8125 338.54932 63.828125 341.00244L63.828125 342.87744ZM62.390625 340.9087Q62.390625 339.06494 61.875 338.23682Q61.359375 337.39307 60.234375 337.39307Q59.125 337.39307 58.609375 338.23682Q58.109375 339.06494 58.09375 340.79932L58.09375 343.11182Q58.09375 344.95557 58.625 345.83057Q59.171875 346.70557 60.25 346.70557Q61.328125 346.70557 61.84375 345.87744Q62.359375 345.04932 62.390625 343.26807L62.390625 340.9087ZM72.828125 342.87744Q72.828125 345.42432 71.953125 346.6587Q71.09375 347.89307 69.25 347.89307Q67.4375 347.89307 66.5625 346.68994Q65.6875 345.4712 65.65625 343.08057L65.65625 341.14307Q65.65625 338.64307 66.515625 337.42432Q67.390625 336.20557 69.234375 336.20557Q71.078125 336.20557 71.9375 337.37744Q72.8125 338.54932 72.828125 341.00244L72.828125 342.87744ZM71.390625 340.9087Q71.390625 339.06494 70.875 338.23682Q70.359375 337.39307 69.234375 337.39307Q68.125 337.39307 67.609375 338.23682Q67.109375 339.06494 67.09375 340.79932L67.09375 343.11182Q67.09375 344.95557 67.625 345.83057Q68.171875 346.70557 69.25 346.70557Q70.328125 346.70557 70.84375 345.87744Q71.359375 345.04932 71.390625 343.26807L71.390625 340.9087Z" fill-rule="nonzero"/><path fill="#d9d9d9" d="M46.046875 267.95648L41.328125 278.51898L39.8125 278.51898L44.515625 268.33148L38.359375 268.33148L38.359375 267.14398L46.046875 267.14398L46.046875 267.95648ZM48.359375 272.81586L48.9375 267.14398L54.765625 267.14398L54.765625 268.4721L50.171875 268.4721L49.828125 271.58148Q50.65625 271.08148 51.71875 271.08148Q53.28125 271.08148 54.1875 272.11273Q55.109375 273.14398 55.109375 274.89398Q55.109375 276.64398 54.15625 277.6596Q53.203125 278.67523 51.5 278.67523Q50.0 278.67523 49.046875 277.8471Q48.09375 277.00336 47.953125 275.51898L49.328125 275.51898Q49.453125 276.50336 50.015625 277.00336Q50.578125 277.48773 51.5 277.48773Q52.515625 277.48773 53.078125 276.80023Q53.65625 276.11273 53.65625 274.9096Q53.65625 273.76898 53.03125 273.08148Q52.421875 272.37836 51.390625 272.37836Q50.4375 272.37836 49.90625 272.80023L49.515625 273.11273L48.359375 272.81586ZM63.828125 273.6596Q63.828125 276.20648 62.953125 277.44086Q62.09375 278.67523 60.25 278.67523Q58.4375 278.67523 57.5625 277.4721Q56.6875 276.25336 56.65625 273.86273L56.65625 271.92523Q56.65625 269.42523 57.515625 268.20648Q58.390625 266.98773 60.234375 266.98773Q62.078125 266.98773 62.9375 268.1596Q63.8125 269.33148 63.828125 271.7846L63.828125 273.6596ZM62.390625 271.69086Q62.390625 269.8471 61.875 269.01898Q61.359375 268.17523 60.234375 268.17523Q59.125 268.17523 58.609375 269.01898Q58.109375 269.8471 58.09375 271.58148L58.09375 273.89398Q58.09375 275.73773 58.625 276.61273Q59.171875 277.48773 60.25 277.48773Q61.328125 277.48773 61.84375 276.6596Q62.359375 275.83148 62.390625 274.05023L62.390625 271.69086ZM72.828125 273.6596Q72.828125 276.20648 71.953125 277.44086Q71.09375 278.67523 69.25 278.67523Q67.4375 278.67523 66.5625 277.4721Q65.6875 276.25336 65.65625 273.86273L65.65625 271.92523Q65.65625 269.42523 66.515625 268.20648Q67.390625 266.98773 69.234375 266.98773Q71.078125 266.98773 71.9375 268.1596Q72.8125 269.33148 72.828125 271.7846L72.828125 273.6596ZM71.390625 271.69086Q71.390625 269.8471 70.875 269.01898Q70.359375 268.17523 69.234375 268.17523Q68.125 268.17523 67.609375 269.01898Q67.109375 269.8471 67.09375 271.58148L67.09375 273.89398Q67.09375 275.73773 67.625 276.61273Q68.171875 277.48773 69.25 277.48773Q70.328125 277.48773 70.84375 276.6596Q71.359375 275.83148 71.390625 274.05023L71.390625 271.69086Z" fill-rule="nonzero"/><path fill="#d9d9d9" d="M34.453125 209.30116L33.0 209.30116L33.0 199.66054L30.078125 200.73866L30.078125 199.42616L34.21875 197.86366L34.453125 197.86366L34.453125 209.30116ZM45.828125 204.44179Q45.828125 206.98866 44.953125 208.22304Q44.09375 209.45741 42.25 209.45741Q40.4375 209.45741 39.5625 208.25429Q38.6875 207.03554 38.65625 204.64491L38.65625 202.70741Q38.65625 200.20741 39.515625 198.98866Q40.390625 197.76991 42.234375 197.76991Q44.078125 197.76991 44.9375 198.94179Q45.8125 200.11366 45.828125 202.56679L45.828125 204.44179ZM44.390625 202.47304Q44.390625 200.62929 43.875 199.80116Q43.359375 198.95741 42.234375 198.95741Q41.125 198.95741 40.609375 199.80116Q40.109375 200.62929 40.09375 202.36366L40.09375 204.67616Q40.09375 206.51991 40.625 207.39491Q41.171875 208.26991 42.25 208.26991Q43.328125 208.26991 43.84375 207.44179Q44.359375 206.61366 44.390625 204.83241L44.390625 202.47304ZM54.828125 204.44179Q54.828125 206.98866 53.953125 208.22304Q53.09375 209.45741 51.25 209.45741Q49.4375 209.45741 48.5625 208.25429Q47.6875 207.03554 47.65625 204.64491L47.65625 202.70741Q47.65625 200.20741 48.515625 198.98866Q49.390625 197.76991 51.234375 197.76991Q53.078125 197.76991 53.9375 198.94179Q54.8125 200.11366 54.828125 202.56679L54.828125 204.44179ZM53.390625 202.47304Q53.390625 200.62929 52.875 199.80116Q52.359375 198.95741 51.234375 198.95741Q50.125 198.95741 49.609375 199.80116Q49.109375 200.62929 49.09375 202.36366L49.09375 204.67616Q49.09375 206.51991 49.625 207.39491Q50.171875 208.26991 51.25 208.26991Q52.328125 208.26991 52.84375 207.44179Q53.359375 206.61366 53.390625 204.83241L53.390625 202.47304ZM63.828125 204.44179Q63.828125 206.98866 62.953125 208.22304Q62.09375 209.45741 60.25 209.45741Q58.4375 209.45741 57.5625 208.25429Q56.6875 207.03554 56.65625 204.64491L56.65625 202.70741Q56.65625 200.20741 57.515625 198.98866Q58.390625 197.76991 60.234375 197.76991Q62.078125 197.76991 62.9375 198.94179Q63.8125 200.11366 63.828125 202.56679L63.828125 204.44179ZM62.390625 202.47304Q62.390625 200.62929 61.875 199.80116Q61.359375 198.95741 60.234375 198.95741Q59.125 198.95741 58.609375 199.80116Q58.109375 200.62929 58.09375 202.36366L58.09375 204.67616Q58.09375 206.51991 58.625 207.39491Q59.171875 208.26991 60.25 208.26991Q61.328125 208.26991 61.84375 207.44179Q62.359375 206.61366 62.390625 204.83241L62.390625 202.47304ZM72.828125 204.44179Q72.828125 206.98866 71.953125 208.22304Q71.09375 209.45741 69.25 209.45741Q67.4375 209.45741 66.5625 208.25429Q65.6875 207.03554 65.65625 204.64491L65.65625 202.70741Q65.65625 200.20741 66.515625 198.98866Q67.390625 197.76991 69.234375 197.76991Q71.078125 197.76991 71.9375 198.94179Q72.8125 200.11366 72.828125 202.56679L72.828125 204.44179ZM71.390625 202.47304Q71.390625 200.62929 70.875 199.80116Q70.359375 198.95741 69.234375 198.95741Q68.125 198.95741 67.609375 199.80116Q67.109375 200.62929 67.09375 202.36366L67.09375 204.67616Q67.09375 206.51991 67.625 207.39491Q68.171875 208.26991 69.25 208.26991Q70.328125 208.26991 70.84375 207.44179Q71.359375 206.61366 71.390625 204.83241L71.390625 202.47304Z" fill-rule="nonzero"/><path fill="#d9d9d9" d="M34.453125 140.08333L33.0 140.08333L33.0 130.4427L30.078125 131.52083L30.078125 130.20833L34.21875 128.64583L34.453125 128.64583L34.453125 140.08333ZM46.15625 140.08333L38.703125 140.08333L38.703125 139.03645L42.640625 134.66145Q43.515625 133.67708 43.84375 133.05208Q44.171875 132.42708 44.171875 131.77083Q44.171875 130.8802 43.625 130.3177Q43.09375 129.73958 42.203125 129.73958Q41.125 129.73958 40.515625 130.34895Q39.921875 130.95833 39.921875 132.05208L38.484375 132.05208Q38.484375 130.48958 39.484375 129.52083Q40.5 128.55208 42.203125 128.55208Q43.78125 128.55208 44.703125 129.3802Q45.625 130.20833 45.625 131.59895Q45.625 133.27083 43.484375 135.59895L40.4375 138.89583L46.15625 138.89583L46.15625 140.08333ZM48.359375 134.3802L48.9375 128.70833L54.765625 128.70833L54.765625 130.03645L50.171875 130.03645L49.828125 133.14583Q50.65625 132.64583 51.71875 132.64583Q53.28125 132.64583 54.1875 133.67708Q55.109375 134.70833 55.109375 136.45833Q55.109375 138.20833 54.15625 139.22395Q53.203125 140.23958 51.5 140.23958Q50.0 140.23958 49.046875 139.41145Q48.09375 138.5677 47.953125 137.08333L49.328125 137.08333Q49.453125 138.0677 50.015625 138.5677Q50.578125 139.05208 51.5 139.05208Q52.515625 139.05208 53.078125 138.36458Q53.65625 137.67708 53.65625 136.47395Q53.65625 135.33333 53.03125 134.64583Q52.421875 133.9427 51.390625 133.9427Q50.4375 133.9427 49.90625 134.36458L49.515625 134.67708L48.359375 134.3802ZM63.828125 135.22395Q63.828125 137.77083 62.953125 139.0052Q62.09375 140.23958 60.25 140.23958Q58.4375 140.23958 57.5625 139.03645Q56.6875 137.8177 56.65625 135.42708L56.65625 133.48958Q56.65625 130.98958 57.515625 129.77083Q58.390625 128.55208 60.234375 128.55208Q62.078125 128.55208 62.9375 129.72395Q63.8125 130.89583 63.828125 133.34895L63.828125 135.22395ZM62.390625 133.2552Q62.390625 131.41145 61.875 130.58333Q61.359375 129.73958 60.234375 129.73958Q59.125 129.73958 58.609375 130.58333Q58.109375 131.41145 58.09375 133.14583L58.09375 135.45833Q58.09375 137.30208 58.625 138.17708Q59.171875 139.05208 60.25 139.05208Q61.328125 139.05208 61.84375 138.22395Q62.359375 137.39583 62.390625 135.61458L62.390625 133.2552ZM72.828125 135.22395Q72.828125 137.77083 71.953125 139.0052Q71.09375 140.23958 69.25 140.23958Q67.4375 140.23958 66.5625 139.03645Q65.6875 137.8177 65.65625 135.42708L65.65625 133.48958Q65.65625 130.98958 66.515625 129.77083Q67.390625 128.55208 69.234375 128.55208Q71.078125 128.55208 71.9375 129.72395Q72.8125 130.89583 72.828125 133.34895L72.828125 135.22395ZM71.390625 133.2552Q71.390625 131.41145 70.875 130.58333Q70.359375 129.73958 69.234375 129.73958Q68.125 129.73958 67.609375 130.58333Q67.109375 131.41145 67.09375 133.14583L67.09375 135.45833Q67.09375 137.30208 67.625 138.17708Q68.171875 139.05208 69.25 139.05208Q70.328125 139.05208 70.84375 138.22395Q71.359375 137.39583 71.390625 135.61458L71.390625 133.2552Z" fill-rule="nonzero"/><path fill="#d9d9d9" d="M146.55823 541.72L142.83167 548.17456L141.92503 547.6511L140.10492 542.05365Q139.68993 540.8037 139.31273 540.20703Q138.93553 539.61035 138.3672 539.2822Q137.59589 538.8369 136.83531 539.0293Q136.06902 539.2003 135.6237 539.9716Q135.08464 540.9053 135.3077 541.73773Q135.53854 542.5566 136.48576 543.10345L135.76701 544.3484Q134.41385 543.56714 134.07489 542.21674Q133.74374 540.8528 134.5953 539.37787Q135.38437 538.01117 136.56248 537.62683Q137.7406 537.24255 138.94492 537.93787Q140.39279 538.7738 141.3387 541.7917L142.67044 546.0788L145.52982 541.1262L146.55823 541.72ZM146.68582 531.7802Q148.89148 533.05365 149.52298 534.42865Q150.1623 535.79004 149.24042 537.3868Q148.33417 538.9565 146.85472 539.1127Q145.36176 539.26105 143.27579 538.09283L141.59787 537.1241Q139.4328 535.8741 138.80702 534.52045Q138.18906 533.1533 139.11093 531.5566Q140.0328 529.95984 141.47736 529.8015Q142.92973 529.6297 145.06201 530.8427L146.68582 531.7802ZM144.26208 532.0408Q142.66534 531.1189 141.69035 531.15137Q140.70183 531.176 140.13933 532.1503Q139.58464 533.1111 140.05754 533.9795Q140.52472 534.82654 142.01892 535.7073L144.0216 536.8635Q145.61833 537.7854 146.64174 537.7628Q147.67294 537.72675 148.212 536.793Q148.75107 535.8594 148.2917 534.9987Q147.83234 534.1381 146.30536 533.22046L144.26208 532.0408ZM154.20667 528.4725L153.4801 529.73096L145.13107 524.91064L144.60382 527.9801L143.46716 527.32385L144.18431 522.9567L144.3015 522.7537L154.20667 528.4725ZM160.05823 518.3373L156.33167 524.7919L155.42503 524.26843L153.60492 518.67096Q153.18993 517.421 152.81273 516.82434Q152.43553 516.22766 151.8672 515.89954Q151.09589 515.4542 150.33531 515.6466Q149.56902 515.8176 149.1237 516.5889Q148.58464 517.5226 148.8077 518.35504Q149.03854 519.1739 149.98576 519.72076L149.26701 520.9657Q147.91385 520.18445 147.57489 518.83405Q147.24374 517.4701 148.0953 515.9952Q148.88437 514.6285 150.06248 514.24414Q151.2406 513.85986 152.44492 514.5552Q153.89279 515.3911 154.8387 518.409L156.17044 522.6961L159.02982 517.7435L160.05823 518.3373ZM161.90291 517.11096L161.27791 518.1935L152.94937 507.90018L153.56656 506.83118L161.90291 517.11096ZM163.68582 502.33536Q165.89148 503.6088 166.52298 504.98376Q167.1623 506.34518 166.24042 507.94193Q165.33417 509.5116 163.85472 509.6678Q162.36176 509.8162 160.27579 508.64795L158.59787 507.6792Q156.4328 506.4292 155.80702 505.0756Q155.18906 503.70844 156.11093 502.1117Q157.0328 500.51495 158.47736 500.35666Q159.92973 500.1848 162.06201 501.39786L163.68582 502.33536ZM161.26208 502.5959Q159.66534 501.674 158.69035 501.7065Q157.70183 501.73117 157.13933 502.70544Q156.58464 503.6662 157.05754 504.5346Q157.52472 505.38168 159.01892 506.26242L161.0216 507.41867Q162.61833 508.34055 163.64174 508.31796Q164.67294 508.28186 165.212 507.34818Q165.75107 506.4145 165.2917 505.55386Q164.83234 504.69327 163.30536 503.77557L161.26208 502.5959ZM171.20667 499.02762L170.4801 500.28607L162.13107 495.46576L161.60382 498.53525L160.46716 497.879L161.18431 493.51184L161.3015 493.30887L171.20667 499.02762Z" fill-rule="nonzero"/><path fill="#d9d9d9" d="M230.71962 541.72L226.99306 548.17456L226.08643 547.6511L224.26631 542.05365Q223.85132 540.8037 223.47412 540.20703Q223.09692 539.61035 222.5286 539.2822Q221.75728 538.8369 220.9967 539.0293Q220.23041 539.2003 219.7851 539.9716Q219.24603 540.9053 219.46909 541.73773Q219.69995 542.5566 220.64716 543.10345L219.9284 544.3484Q218.57524 543.56714 218.23628 542.21674Q217.90514 540.8528 218.7567 539.37787Q219.54576 538.01117 220.72388 537.62683Q221.902 537.24255 223.10631 537.93787Q224.55418 538.7738 225.50009 541.7917L226.83183 546.0788L229.69121 541.1262L230.71962 541.72ZM230.8472 531.7802Q233.05286 533.05365 233.68436 534.42865Q234.32367 535.79004 233.40181 537.3868Q232.49556 538.9565 231.01611 539.1127Q229.52315 539.26105 227.43718 538.09283L225.75926 537.1241Q223.5942 535.8741 222.96841 534.52045Q222.35045 533.1533 223.27232 531.5566Q224.19418 529.95984 225.63875 529.8015Q227.09113 529.6297 229.2234 530.8427L230.8472 531.7802ZM228.42346 532.0408Q226.82674 531.1189 225.85175 531.15137Q224.86322 531.176 224.30072 532.1503Q223.74603 533.1111 224.21893 533.9795Q224.68611 534.82654 226.18031 535.7073L228.183 536.8635Q229.77972 537.7854 230.80313 537.7628Q231.83434 537.72675 232.3734 536.793Q232.91246 535.8594 232.4531 534.9988Q231.99373 534.1381 230.46674 533.22046L228.42346 532.0408ZM238.36804 528.47253L237.64148 529.73096L229.29245 524.91064L228.7652 527.9801L227.62854 527.32385L228.34569 522.9567L228.46288 522.7538L238.36804 528.47253ZM236.00548 519.7833L236.55235 518.8361Q237.04663 517.9487 236.88914 517.19025Q236.72595 516.41046 235.95465 515.96515Q234.2226 514.96515 233.23041 516.68365Q232.76166 517.49554 232.94048 518.2483Q233.11931 519.0011 233.89061 519.4464L233.17186 520.6913Q231.99461 520.0116 231.71548 518.7138Q231.43637 517.416 232.202 516.0899Q233.00668 514.69617 234.20406 514.341Q235.3957 513.9645 236.70827 514.7223Q237.34425 515.0895 237.711 515.86053Q238.0642 516.6238 237.94783 517.5128Q238.67369 516.84937 239.52689 516.7466Q240.3801 516.6438 241.24612 517.1438Q242.57222 517.9094 242.85706 519.2286Q243.12836 520.5399 242.32367 521.93365Q241.5268 523.3139 240.27475 523.76373Q239.01697 524.19226 237.7856 523.4813L238.51216 522.2229Q239.28346 522.6682 240.04613 522.441Q240.80309 522.1924 241.29527 521.3399Q241.81871 520.4333 241.61853 519.6862Q241.42618 518.92566 240.54662 518.41785Q239.68059 517.91785 238.91583 518.17993Q238.15106 518.4421 237.56723 519.42206L237.02036 520.36926L236.00548 519.7833ZM246.06429 517.11096L245.43929 518.1935L237.11075 507.9002L237.72794 506.8312L246.06429 517.11096ZM247.8472 502.3354Q250.05286 503.60883 250.68436 504.98376Q251.32367 506.34518 250.4018 507.94193Q249.49554 509.5116 248.01611 509.66782Q246.52315 509.81622 244.43718 508.64795L242.75925 507.6792Q240.5942 506.4292 239.9684 505.0756Q239.35043 503.70844 240.27231 502.11172Q241.19418 500.51498 242.63875 500.3567Q244.09113 500.18484 246.2234 501.3979L247.8472 502.3354ZM245.42346 502.59592Q243.82674 501.67404 242.85175 501.7065Q241.86322 501.7312 241.30072 502.70547Q240.74603 503.6662 241.21893 504.53464Q241.68611 505.3817 243.1803 506.26242L245.18298 507.41867Q246.77972 508.34055 247.80312 508.31796Q248.83434 508.28186 249.3734 507.34818Q249.91246 506.4145 249.4531 505.5539Q248.99373 504.6933 247.46674 503.7756L245.42346 502.59592ZM255.36804 499.02765L254.64148 500.28607L246.29245 495.46576L245.7652 498.53525L244.62854 497.879L245.34569 493.51187L245.46288 493.3089L255.36804 499.02765Z" fill-rule="nonzero"/><path fill="#d9d9d9" d="M314.65106 541.72L310.9245 548.17456L310.01788 547.6511L308.19775 542.05365Q307.78278 540.8037 307.40558 540.20703Q307.02835 539.61035 306.46002 539.2822Q305.68872 538.8369 304.92816 539.0293Q304.16187 539.2003 303.71655 539.9716Q303.1775 540.9053 303.40054 541.73773Q303.63138 542.5566 304.5786 543.10345L303.85986 544.3484Q302.50668 543.56714 302.16772 542.21674Q301.83658 540.8528 302.68814 539.37787Q303.4772 538.01117 304.6553 537.62683Q305.83344 537.24255 307.03775 537.93787Q308.48563 538.7738 309.43155 541.7917L310.76328 546.0788L313.62265 541.1262L314.65106 541.72ZM314.77866 531.7802Q316.9843 533.05365 317.6158 534.42865Q318.25513 535.79004 317.33325 537.3868Q316.427 538.9565 314.94757 539.1127Q313.4546 539.26105 311.36862 538.09283L309.6907 537.1241Q307.52563 535.8741 306.89987 534.52045Q306.2819 533.1533 307.20377 531.5566Q308.12564 529.95984 309.5702 529.8015Q311.02258 529.6297 313.15485 530.8427L314.77866 531.7802ZM312.35492 532.0408Q310.75818 531.1189 309.7832 531.15137Q308.79468 531.176 308.23218 532.1503Q307.6775 533.1111 308.1504 533.9795Q308.61755 534.82654 310.11176 535.7073L312.11444 536.8635Q313.71118 537.7854 314.73456 537.7628Q315.76578 537.72675 316.30484 536.793Q316.8439 535.8594 316.38455 534.9987Q315.92517 534.1381 314.3982 533.22046L312.35492 532.0408ZM322.2995 528.4725L321.57294 529.73096L313.2239 524.91064L312.69666 527.9801L311.56 527.32385L312.27713 522.9567L312.39432 522.7537L322.2995 528.4725ZM324.15613 517.60046L324.9452 516.23376L325.97357 516.8275L325.1845 518.1942L327.47137 519.5145L326.7448 520.773L324.45795 519.4527L321.872 523.93164L321.12778 523.50195L316.8547 515.15314L317.62033 513.827L324.15613 517.60046ZM321.66394 521.91705L323.42957 518.85895L318.59875 516.0699L318.78345 516.37494L321.66394 521.91705ZM329.99573 517.11096L329.37073 518.1935L321.0422 507.90018L321.6594 506.83118L329.99573 517.11096ZM331.77866 502.33536Q333.9843 503.6088 334.6158 504.98376Q335.25513 506.34518 334.33325 507.94193Q333.427 509.5116 331.94757 509.66782Q330.4546 509.8162 328.36862 508.64795L326.6907 507.6792Q324.52563 506.4292 323.89987 505.0756Q323.2819 503.70844 324.20377 502.1117Q325.12564 500.51498 326.5702 500.35666Q328.02258 500.18484 330.15485 501.39786L331.77866 502.33536ZM329.35492 502.5959Q327.75818 501.674 326.7832 501.7065Q325.79468 501.73117 325.23218 502.70544Q324.6775 503.6662 325.1504 504.5346Q325.61755 505.38168 327.11176 506.26242L329.11444 507.41867Q330.71118 508.34055 331.73456 508.31796Q332.76578 508.28186 333.30484 507.34818Q333.8439 506.4145 333.38455 505.5539Q332.92517 504.69327 331.3982 503.77557L329.35492 502.5959ZM339.2995 499.02762L338.57294 500.28607L330.2239 495.46576L329.69666 498.53525L328.56 497.879L329.27713 493.51187L329.39432 493.30887L339.2995 499.02762Z" fill-rule="nonzero"/><path fill="#d9d9d9" d="M398.58252 541.72L394.85596 548.17456L393.9493 547.6511L392.1292 542.05365Q391.71423 540.8037 391.337 540.20703Q390.9598 539.61035 390.39148 539.2822Q389.62018 538.8369 388.8596 539.0293Q388.09332 539.2003 387.648 539.9716Q387.10895 540.9053 387.33197 541.73773Q387.56284 542.5566 388.51004 543.10345L387.7913 544.3484Q386.43814 543.56714 386.09918 542.21674Q385.76804 540.8528 386.6196 539.37787Q387.40866 538.01117 388.58676 537.62683Q389.7649 537.24255 390.9692 537.93787Q392.41708 538.7738 393.36298 541.7917L394.69473 546.0788L397.5541 541.1262L398.58252 541.72ZM398.7101 531.7802Q400.91577 533.05365 401.54727 534.4286Q402.18658 535.79004 401.2647 537.3868Q400.35846 538.9564 398.879 539.1127Q397.38605 539.26105 395.30008 538.0928L393.62216 537.124Q391.4571 535.874 390.8313 534.52045Q390.21335 533.1533 391.13522 531.5566Q392.0571 529.95984 393.50165 529.8015Q394.954 529.6297 397.0863 530.8427L398.7101 531.7802ZM396.28638 532.0408Q394.68964 531.1189 393.71463 531.15137Q392.72614 531.176 392.16364 532.1503Q391.60895 533.111 392.08182 533.9795Q392.549 534.82654 394.0432 535.7073L396.0459 536.8635Q397.64264 537.7854 398.66602 537.7628Q399.69724 537.7267 400.2363 536.793Q400.77536 535.8593 400.31598 534.9987Q399.85663 534.1381 398.32965 533.22046L396.28638 532.0408ZM406.23096 528.4725L405.5044 529.73096L397.15536 524.91064L396.6281 527.9801L395.49146 527.32385L396.2086 522.9567L396.32578 522.7537L406.23096 528.4725ZM403.74503 521.372L399.1221 518.0354L402.03616 512.9881L403.18634 513.65216L400.88947 517.63043L403.4104 519.48285Q403.39145 518.5156 403.9227 517.5955Q404.70395 516.2423 406.05017 515.97314Q407.40417 515.69037 408.91974 516.56537Q410.43527 517.44037 410.83826 518.7736Q411.24127 520.1069 410.3897 521.5818Q409.6397 522.88086 408.44595 523.29224Q407.23868 523.6958 405.88287 523.0754L406.57037 521.8846Q407.48535 522.2685 408.19962 522.0314Q408.90036 521.78644 409.3613 520.98804Q409.8691 520.1085 409.55496 519.2776Q409.24863 518.43317 408.2067 517.8316Q407.21887 517.2613 406.311 517.45886Q405.39737 517.635 404.88174 518.5281Q404.40518 519.3535 404.5049 520.02454L404.58023 520.5191L403.74503 521.372ZM413.9272 517.11096L413.3022 518.1935L404.97366 507.90018L405.59085 506.83118L413.9272 517.11096ZM415.7101 502.33536Q417.91577 503.6088 418.54727 504.98373Q419.18658 506.34518 418.2647 507.94193Q417.35846 509.5116 415.879 509.6678Q414.38605 509.8162 412.30008 508.64795L410.62216 507.6792Q408.4571 506.4292 407.8313 505.07556Q407.21335 503.70844 408.13522 502.1117Q409.0571 500.51495 410.50165 500.35666Q411.954 500.1848 414.0863 501.39786L415.7101 502.33536ZM413.28638 502.5959Q411.68964 501.674 410.71463 501.70648Q409.72614 501.73117 409.16364 502.70544Q408.60895 503.6662 409.08182 504.5346Q409.549 505.38168 411.0432 506.2624L413.0459 507.41864Q414.64264 508.3405 415.66602 508.31796Q416.69724 508.28183 417.2363 507.34818Q417.77536 506.4145 417.31598 505.55386Q416.85663 504.69327 415.32965 503.77557L413.28638 502.5959ZM423.23096 499.02762L422.5044 500.28607L414.15536 495.46576L413.6281 498.53522L412.49146 497.87897L413.2086 493.51184L413.32578 493.30887L423.23096 499.02762Z" fill-rule="nonzero"/><path fill="#d9d9d9" d="M482.51395 541.72L478.78738 548.17456L477.88077 547.6511L476.06064 542.05365Q475.64566 540.8037 475.26846 540.20703Q474.89124 539.61035 474.3229 539.2822Q473.5516 538.8369 472.79105 539.0293Q472.02475 539.2003 471.57944 539.9716Q471.04037 540.9053 471.26343 541.73773Q471.49426 542.5566 472.4415 543.10345L471.72275 544.3484Q470.36957 543.56714 470.0306 542.21674Q469.69946 540.8528 470.55103 539.37787Q471.3401 538.01117 472.5182 537.6269Q473.69632 537.24255 474.90063 537.93787Q476.3485 538.7738 477.29443 541.7917L478.62616 546.0788L481.48553 541.1262L482.51395 541.72ZM482.64154 531.7802Q484.8472 533.05365 485.4787 534.42865Q486.118 535.79004 485.19614 537.3868Q484.2899 538.9565 482.81046 539.1127Q481.31747 539.26105 479.2315 538.09283L477.5536 537.1241Q475.38852 535.8741 474.76276 534.52045Q474.14478 533.1533 475.06665 531.5566Q475.98853 529.95984 477.43307 529.8015Q478.88547 529.6297 481.01773 530.8427L482.64154 531.7802ZM480.2178 532.0408Q478.62106 531.1189 477.6461 531.15137Q476.65756 531.176 476.09506 532.1503Q475.54037 533.1111 476.01328 533.9795Q476.48044 534.82654 477.97464 535.7073L479.97733 536.8635Q481.57407 537.7854 482.59744 537.7628Q483.62866 537.72675 484.16772 536.793Q484.7068 535.8594 484.24744 534.9988Q483.78806 534.1381 482.26108 533.22046L480.2178 532.0408ZM490.16235 528.47253L489.4358 529.73096L481.0868 524.91064L480.5595 527.98016L479.42285 527.3239L480.14 522.9567L480.2572 522.7538L490.16235 528.47253ZM485.25873 514.18463L486.32773 514.8018L486.19492 515.03186Q485.37823 516.5089 485.7172 517.8593Q486.05615 519.2097 487.4936 520.22003Q487.0458 518.93304 487.82706 517.5799Q488.56924 516.29443 489.91336 516.06006Q491.2653 515.8122 492.69965 516.6403Q494.22873 517.52313 494.6723 518.8798Q495.10236 520.2287 494.29767 521.62244Q493.47736 523.0433 491.88702 523.29785Q490.28314 523.54456 488.57816 522.5602L488.09103 522.27893Q485.37115 520.7086 484.60867 518.7168Q483.8462 516.7249 485.12592 514.4147L485.25873 514.18463ZM488.744 518.39795Q488.3768 519.034 488.45673 519.8018Q488.5231 520.5618 488.97998 521.11426L489.44003 521.3799Q490.6579 522.083 491.71463 521.97144Q492.77917 521.8463 493.25574 521.0209Q493.7401 520.18195 493.39893 519.3354Q493.0577 518.4889 492.05637 517.91077Q491.0415 517.3248 490.12997 517.4661Q489.21274 517.58606 488.744 518.39795ZM497.8586 517.11096L497.2336 518.19354L488.9051 507.9002L489.52228 506.8312L497.8586 517.11096ZM499.6415 502.3354Q501.84717 503.60883 502.47867 504.9838Q503.11798 506.3452 502.1961 507.94196Q501.28986 509.51163 499.81042 509.66785Q498.31747 509.81622 496.2315 508.64798L494.55356 507.67923Q492.38852 506.42923 491.76273 505.07562Q491.14478 503.70847 492.06665 502.11172Q492.98853 500.515 494.43307 500.3567Q495.88544 500.18488 498.01773 501.3979L499.6415 502.3354ZM497.21777 502.59592Q495.62106 501.67404 494.64606 501.70654Q493.65753 501.7312 493.09503 502.70547Q492.54034 503.66623 493.01324 504.53464Q493.48044 505.3817 494.97464 506.26245L496.97733 507.4187Q498.57404 508.34058 499.59744 508.318Q500.62866 508.2819 501.16772 507.3482Q501.7068 506.41452 501.2474 505.55392Q500.78806 504.6933 499.26108 503.7756L497.21777 502.59592ZM507.16235 499.02765L506.4358 500.2861L498.0868 495.4658L497.5595 498.53528L496.42285 497.87903L497.14 493.5119L497.2572 493.3089L507.16235 499.02765Z" fill-rule="nonzero"/><path fill="#d9d9d9" d="M566.67535 541.72L562.9488 548.17456L562.0422 547.6511L560.22205 542.05365Q559.80707 540.8037 559.4299 540.20703Q559.0527 539.61035 558.4843 539.2822Q557.713 538.8369 556.95245 539.0293Q556.18616 539.2003 555.74084 539.9716Q555.2018 540.9053 555.4248 541.73773Q555.6557 542.5566 556.6029 543.10345L555.88416 544.3484Q554.531 543.56714 554.192 542.21674Q553.86084 540.8528 554.7124 539.37787Q555.50146 538.01117 556.6796 537.62683Q557.8577 537.24255 559.062 537.93787Q560.50995 538.7738 561.4558 541.7917L562.78754 546.0788L565.6469 541.1262L566.67535 541.72ZM566.8029 531.7802Q569.0086 533.05365 569.6401 534.4286Q570.2794 535.79004 569.35754 537.3868Q568.4513 538.9564 566.97186 539.1127Q565.4789 539.26105 563.3929 538.09283L561.71497 537.1241Q559.5499 535.8741 558.92413 534.52045Q558.30615 533.1533 559.228 531.5566Q560.1499 529.95984 561.5945 529.8015Q563.0469 529.6297 565.17914 530.8427L566.8029 531.7802ZM564.3792 532.0408Q562.7825 531.1189 561.8075 531.15137Q560.819 531.176 560.2565 532.1503Q559.7018 533.1111 560.1747 533.9795Q560.64185 534.82654 562.13605 535.7073L564.13873 536.8635Q565.7355 537.7854 566.75885 537.7628Q567.79004 537.7267 568.3291 536.793Q568.86816 535.8594 568.4088 534.9987Q567.94946 534.1381 566.4225 533.22046L564.3792 532.0408ZM574.3238 528.4725L573.5972 529.73096L565.24817 524.91064L564.72095 527.9801L563.5843 527.32385L564.30145 522.9567L564.41864 522.7537L574.3238 528.4725ZM570.97327 513.15076L577.7613 522.51855L577.0035 523.8311L570.5324 514.66437L567.4543 519.99585L566.42584 519.4021L570.2696 512.7445L570.97327 513.15076ZM582.02 517.11096L581.395 518.1935L573.06647 507.90018L573.68365 506.83118L582.02 517.11096ZM583.8029 502.33536Q586.0086 503.6088 586.6401 504.98376Q587.2794 506.34518 586.35754 507.94193Q585.4513 509.5116 583.97186 509.6678Q582.4789 509.8162 580.3929 508.64795L578.71497 507.6792Q576.5499 506.4292 575.92413 505.0756Q575.30615 503.70844 576.228 502.1117Q577.1499 500.51495 578.5945 500.35666Q580.0469 500.1848 582.17914 501.39786L583.8029 502.33536ZM581.3792 502.5959Q579.7825 501.674 578.8075 501.7065Q577.819 501.73117 577.2565 502.70544Q576.7018 503.6662 577.1747 504.5346Q577.64185 505.38168 579.13605 506.26242L581.13873 507.41867Q582.7355 508.34055 583.75885 508.31796Q584.79004 508.28186 585.3291 507.34818Q585.86816 506.4145 585.4088 505.55386Q584.94946 504.69327 583.4225 503.77557L581.3792 502.5959ZM591.3238 499.02762L590.5972 500.28607L582.24817 495.46576L581.72095 498.53525L580.5843 497.879L581.30145 493.51184L581.41864 493.30887L591.3238 499.02762Z" fill-rule="nonzero"/><path fill="#d9d9d9" d="M650.6068 541.72L646.88025 548.17456L645.97363 547.6511L644.1535 542.05365Q643.7385 540.8037 643.3613 540.20703Q642.98413 539.61035 642.4158 539.2822Q641.6445 538.8369 640.8839 539.0293Q640.1176 539.2003 639.6723 539.9716Q639.13324 540.9053 639.35626 541.7377Q639.5871 542.5566 640.53436 543.10345L639.8156 544.3484Q638.4624 543.56714 638.1235 542.21674Q637.7923 540.8528 638.64386 539.37787Q639.4329 538.01117 640.6111 537.62683Q641.7892 537.24255 642.99347 537.93787Q644.44135 538.7738 645.38727 541.7917L646.719 546.0788L649.57837 541.1262L650.6068 541.72ZM650.7344 531.7802Q652.94006 533.05365 653.57153 534.4286Q654.2109 535.79004 653.289 537.3868Q652.38275 538.9564 650.9033 539.1127Q649.41034 539.26105 647.32434 538.0928L645.6464 537.124Q643.4814 535.874 642.8556 534.52045Q642.2376 533.15326 643.1595 531.5565Q644.08136 529.95984 645.52594 529.8015Q646.97833 529.6297 649.1106 530.8427L650.7344 531.7802ZM648.31067 532.0408Q646.7139 531.1189 645.73895 531.15137Q644.7504 531.176 644.1879 532.15027Q643.63324 533.111 644.10614 533.9795Q644.5733 534.82654 646.0675 535.7073L648.0702 536.8635Q649.66693 537.7854 650.6903 537.7628Q651.7215 537.7267 652.26056 536.793Q652.7996 535.8593 652.3403 534.9987Q651.8809 534.1381 650.35394 533.22046L648.31067 532.0408ZM658.25525 528.4725L657.5287 529.7309L649.1796 524.9106L648.6524 527.9801L647.51575 527.32385L648.2329 522.9567L648.3501 522.7537L658.25525 528.4725ZM656.54553 514.6213Q657.27625 515.04315 657.63153 515.77155Q657.9811 516.4785 657.92303 517.3291Q658.70667 516.7531 659.60046 516.6737Q660.49426 516.59436 661.2926 517.0553Q662.5781 517.7975 662.8359 519.101Q663.1015 520.391 662.289 521.79834Q661.4687 523.2191 660.2109 523.64764Q658.9474 524.0548 657.6754 523.32043Q656.8771 522.8595 656.4911 522.0593Q656.09937 521.2378 656.2199 520.279Q655.5123 520.7545 654.7253 520.8053Q653.9247 520.84827 653.194 520.4264Q651.94904 519.70764 651.67926 518.48737Q651.4095 517.26715 652.1673 515.9546Q652.9173 514.6555 654.10895 514.27905Q655.3006 513.9025 656.54553 514.6213ZM660.5468 518.2846Q659.7214 517.80804 658.90247 518.0389Q658.07007 518.26196 657.5779 519.11444Q657.0935 519.95337 657.31085 520.76447Q657.53595 521.562 658.37494 522.0464Q659.21387 522.53076 659.9823 522.3249Q660.74493 522.09766 661.26056 521.2046Q661.7684 520.325 661.58386 519.5509Q661.38574 518.769 660.5468 518.2846ZM653.19574 516.54834Q652.76605 517.29254 652.9605 518.01825Q653.14923 518.7226 653.934 519.1757Q654.69183 519.6132 655.4097 519.4323Q656.1276 519.2514 656.5573 518.50714Q656.9948 517.7494 656.79254 517.03723Q656.5981 516.3115 655.8538 515.88184Q655.09607 515.44434 654.349 515.6445Q653.6098 515.8311 653.19574 516.54834ZM665.9515 517.11096L665.3265 518.1935L656.9979 507.90018L657.6151 506.83118L665.9515 517.11096ZM667.7344 502.33536Q669.94006 503.6088 670.57153 504.98373Q671.2109 506.34518 670.289 507.9419Q669.38275 509.51157 667.9033 509.6678Q666.41034 509.8162 664.32434 508.64792L662.6464 507.67917Q660.4814 506.42917 659.8556 505.07556Q659.2376 503.7084 660.1595 502.1117Q661.08136 500.51495 662.52594 500.35666Q663.97833 500.1848 666.1106 501.39786L667.7344 502.33536ZM665.31067 502.5959Q663.7139 501.674 662.73895 501.70648Q661.7504 501.73117 661.1879 502.70544Q660.63324 503.66617 661.10614 504.5346Q661.5733 505.38168 663.0675 506.2624L665.0702 507.41864Q666.66693 508.3405 667.6903 508.31793Q668.7215 508.28183 669.26056 507.34814Q669.7996 506.41446 669.3403 505.55386Q668.8809 504.69327 667.35394 503.77557L665.31067 502.5959ZM675.25525 499.02762L674.5287 500.28604L666.1796 495.46573L665.6524 498.53522L664.51575 497.87897L665.2329 493.51184L665.3501 493.30887L675.25525 499.02762Z" fill-rule="nonzero"/><path fill="#d9d9d9" d="M734.53827 541.72L730.8117 548.17456L729.9051 547.6511L728.08496 542.05365Q727.67 540.80365 727.2928 540.20703Q726.9155 539.61035 726.3472 539.2822Q725.5759 538.8369 724.81537 539.02924Q724.0491 539.20026 723.60376 539.97156Q723.0647 540.9053 723.2877 541.7377Q723.51855 542.5566 724.4658 543.10345L723.7471 544.3484Q722.39386 543.56714 722.05493 542.21674Q721.72375 540.8528 722.5753 539.3778Q723.3644 538.0111 724.5425 537.62683Q725.72064 537.24255 726.9249 537.93787Q728.3728 538.7738 729.3187 541.7917L730.65045 546.0788L733.5098 541.1262L734.53827 541.72ZM734.66583 531.7802Q736.8715 533.05365 737.503 534.4286Q738.14233 535.79004 737.22046 537.3868Q736.3142 538.9564 734.8348 539.1126Q733.3418 539.26105 731.2558 538.0928L729.5779 537.124Q727.41284 535.874 726.78705 534.52045Q726.16907 533.15326 727.09094 531.5565Q728.0128 529.9598 729.4574 529.8015Q730.9098 529.62964 733.04205 530.8427L734.66583 531.7802ZM732.2421 532.0407Q730.6454 531.11884 729.6704 531.15137Q728.6819 531.176 728.1194 532.15027Q727.5647 533.111 728.0376 533.97943Q728.50476 534.82654 729.99896 535.7073L732.00165 536.8635Q733.5984 537.7854 734.62177 537.7628Q735.65295 537.7267 736.192 536.793Q736.7311 535.8593 736.2717 534.9987Q735.8124 534.1381 734.2854 533.2204L732.2421 532.0407ZM742.1867 528.4725L741.46014 529.7309L733.1111 524.9106L732.58386 527.9801L731.4472 527.32385L732.1643 522.95667L732.2815 522.7537L742.1867 528.4725ZM742.7472 517.50165Q742.9807 518.15967 742.95233 518.86505Q742.924 519.5704 742.549 520.21985Q742.0568 521.0724 741.27014 521.4662Q740.4835 521.86 739.5226 521.7743Q738.5695 521.6751 737.64935 521.14386Q736.66156 520.57355 736.09546 519.7415Q735.51587 518.9017 735.4948 517.96936Q735.47375 517.0371 736.005 516.11694Q736.84875 514.6555 738.4292 514.44934Q739.9961 514.2354 741.89056 515.32916L742.2559 515.5401Q745.12463 517.19635 745.79443 519.09863Q746.4643 521.0009 745.1846 523.3112L745.04395 523.55475L743.975 522.93756L744.1234 522.6805Q744.99475 521.1087 744.7 519.83795Q744.3996 518.5459 742.7472 517.50165ZM741.6378 519.42316Q741.9972 518.8007 741.923 518.0542Q741.8431 517.2864 741.41534 516.71466L740.9147 516.4256Q739.6833 515.71466 738.5995 515.81067Q737.5235 515.89307 737.04694 516.7185Q736.5704 517.54395 736.9173 518.4118Q737.25073 519.27185 738.29266 519.8734Q739.294 520.45154 740.2383 520.34717Q741.16907 520.23505 741.6378 519.42316ZM749.88293 517.1109L749.25793 518.1935L740.9294 507.90015L741.5466 506.83115L749.88293 517.1109ZM751.66583 502.33533Q753.8715 503.60876 754.503 504.98373Q755.14233 506.34515 754.22046 507.9419Q753.3142 509.51157 751.8348 509.6678Q750.3418 509.81616 748.2558 508.64792L746.5779 507.67917Q744.41284 506.42917 743.78705 505.07556Q743.16907 503.7084 744.09094 502.11166Q745.0128 500.51495 746.4574 500.35663Q747.9098 500.1848 750.04205 501.39783L751.66583 502.33533ZM749.2421 502.59586Q747.6454 501.67398 746.6704 501.70648Q745.6819 501.73114 745.1194 502.7054Q744.5647 503.66617 745.0376 504.53458Q745.50476 505.38165 746.99896 506.2624L749.00165 507.41864Q750.5984 508.3405 751.62177 508.31793Q752.65295 508.28183 753.192 507.34814Q753.7311 506.41446 753.2717 505.55386Q752.8124 504.69324 751.2854 503.77554L749.2421 502.59586ZM759.1867 499.0276L758.46014 500.28604L750.1111 495.46573L749.58386 498.53522L748.4472 497.87897L749.1643 493.51184L749.2815 493.30884L759.1867 499.0276Z" fill-rule="nonzero"/><path fill="#b931ff" d="M175.5 94.916664C175.5 98.23038 172.8137 100.916664 169.5 100.916664C166.1863 100.916664 163.5 98.23038 163.5 94.916664C163.5 91.60296 166.1863 88.916664 169.5 88.916664C172.8137 88.916664 175.5 91.60296 175.5 94.916664Z" fill-rule="nonzero"/><path fill="#d9d9d9" d="M194.4375 99.24479Q193.78125 100.166664 192.60938 100.635414Q191.45312 101.08854 189.90625 101.08854Q188.34375 101.08854 187.125 100.354164Q185.92188 99.61979 185.25 98.27604Q184.59375 96.916664 184.57812 95.135414L184.57812 94.010414Q184.57812 91.11979 185.92188 89.541664Q187.26562 87.947914 189.71875 87.947914Q191.71875 87.947914 192.9375 88.979164Q194.15625 89.99479 194.4375 91.86979L192.75 91.86979Q192.26562 89.33854 189.71875 89.33854Q188.03125 89.33854 187.15625 90.52604Q186.28125 91.71354 186.26562 93.979164L186.26562 95.02604Q186.26562 97.166664 187.25 98.447914Q188.23438 99.71354 189.92188 99.71354Q190.85938 99.71354 191.57812 99.510414Q192.29688 99.291664 192.75 98.791664L192.75 95.916664L189.79688 95.916664L189.79688 94.541664L194.4375 94.541664L194.4375 99.24479ZM202.60938 100.916664Q202.46875 100.635414 202.375 99.916664Q201.23438 101.08854 199.67188 101.08854Q198.26562 101.08854 197.35938 100.291664Q196.45312 99.49479 196.45312 98.27604Q196.45312 96.791664 197.57812 95.979164Q198.71875 95.15104 200.76562 95.15104L202.34375 95.15104L202.34375 94.40104Q202.34375 93.55729 201.82812 93.05729Q201.32812 92.541664 200.32812 92.541664Q199.46875 92.541664 198.875 92.979164Q198.28125 93.416664 198.28125 94.041664L196.65625 94.041664Q196.65625 93.33854 197.15625 92.68229Q197.65625 92.010414 198.51562 91.61979Q199.39062 91.229164 200.4375 91.229164Q202.07812 91.229164 203.0 92.05729Q203.9375 92.86979 203.96875 94.322914L203.96875 98.697914Q203.96875 99.99479 204.3125 100.77604L204.3125 100.916664L202.60938 100.916664ZM199.90625 99.68229Q200.67188 99.68229 201.35938 99.291664Q202.04688 98.885414 202.34375 98.260414L202.34375 96.30729L201.07812 96.30729Q198.07812 96.30729 198.07812 98.05729Q198.07812 98.822914 198.59375 99.260414Q199.10938 99.68229 199.90625 99.68229ZM208.5 100.916664L206.875 100.916664L206.875 87.416664L208.5 87.416664L208.5 100.916664ZM216.60938 100.916664Q216.46875 100.635414 216.375 99.916664Q215.23438 101.08854 213.67188 101.08854Q212.26562 101.08854 211.35938 100.291664Q210.45312 99.49479 210.45312 98.27604Q210.45312 96.791664 211.57812 95.979164Q212.71875 95.15104 214.76562 95.15104L216.34375 95.15104L216.34375 94.40104Q216.34375 93.55729 215.82812 93.05729Q215.32812 92.541664 214.32812 92.541664Q213.46875 92.541664 212.875 92.979164Q212.28125 93.416664 212.28125 94.041664L210.65625 94.041664Q210.65625 93.33854 211.15625 92.68229Q211.65625 92.010414 212.51562 91.61979Q213.39062 91.229164 214.4375 91.229164Q216.07812 91.229164 217.0 92.05729Q217.9375 92.86979 217.96875 94.322914L217.96875 98.697914Q217.96875 99.99479 218.3125 100.77604L218.3125 100.916664L216.60938 100.916664ZM213.90625 99.68229Q214.67188 99.68229 215.35938 99.291664Q216.04688 98.885414 216.34375 98.260414L216.34375 96.30729L215.07812 96.30729Q212.07812 96.30729 212.07812 98.05729Q212.07812 98.822914 212.59375 99.260414Q213.10938 99.68229 213.90625 99.68229ZM223.92188 94.885414L226.03125 91.40104L227.92188 91.40104L224.8125 96.104164L228.03125 100.916664L226.14062 100.916664L223.95312 97.354164L221.75 100.916664L219.85938 100.916664L223.0625 96.104164L219.95312 91.40104L221.84375 91.40104L223.92188 94.885414ZM232.84375 98.541664L235.0625 91.40104L236.79688 91.40104L232.96875 102.385414Q232.09375 104.760414 230.15625 104.760414L229.84375 104.729164L229.23438 104.61979L229.23438 103.291664L229.67188 103.33854Q230.5 103.33854 230.95312 102.99479Q231.42188 102.666664 231.71875 101.77604L232.09375 100.80729L228.6875 91.40104L230.46875 91.40104L232.84375 98.541664ZM242.10938 96.15104L237.82812 96.15104L237.82812 94.822914L242.10938 94.822914L242.10938 96.15104ZM251.04688 97.572914L245.6875 97.572914L244.48438 100.916664L242.75 100.916664L247.64062 88.11979L249.10938 88.11979L254.0 100.916664L252.28125 100.916664L251.04688 97.572914ZM246.20312 96.18229L250.54688 96.18229L248.375 90.197914L246.20312 96.18229ZM257.26562 91.40104L257.32812 92.604164Q258.40625 91.229164 260.17188 91.229164Q263.1875 91.229164 263.20312 94.635414L263.20312 100.916664L261.57812 100.916664L261.57812 94.61979Q261.57812 93.58854 261.10938 93.104164Q260.65625 92.604164 259.67188 92.604164Q258.89062 92.604164 258.28125 93.02604Q257.6875 93.447914 257.35938 94.135414L257.35938 100.916664L255.73438 100.916664L255.73438 91.40104L257.26562 91.40104ZM267.26562 91.40104L267.32812 92.604164Q268.40625 91.229164 270.17188 91.229164Q273.1875 91.229164 273.20312 94.635414L273.20312 100.916664L271.57812 100.916664L271.57812 94.61979Q271.57812 93.58854 271.10938 93.104164Q270.65625 92.604164 269.67188 92.604164Q268.89062 92.604164 268.28125 93.02604Q267.6875 93.447914 267.35938 94.135414L267.35938 100.916664L265.73438 100.916664L265.73438 91.40104L267.26562 91.40104ZM275.29688 96.072914Q275.29688 94.68229 275.84375 93.572914Q276.40625 92.447914 277.375 91.83854Q278.35938 91.229164 279.60938 91.229164Q281.5625 91.229164 282.75 92.572914Q283.95312 93.916664 283.95312 96.15104L283.95312 96.260414Q283.95312 97.65104 283.42188 98.760414Q282.89062 99.854164 281.90625 100.479164Q280.92188 101.08854 279.64062 101.08854Q277.70312 101.08854 276.5 99.74479Q275.29688 98.40104 275.29688 96.18229L275.29688 96.072914ZM276.9375 96.260414Q276.9375 97.854164 277.67188 98.80729Q278.40625 99.760414 279.64062 99.760414Q280.875 99.760414 281.59375 98.791664Q282.32812 97.822914 282.32812 96.072914Q282.32812 94.510414 281.57812 93.541664Q280.84375 92.572914 279.60938 92.572914Q278.40625 92.572914 277.67188 93.52604Q276.9375 94.479164 276.9375 96.260414ZM291.60938 99.979164Q290.65625 101.08854 288.8125 101.08854Q287.29688 101.08854 286.5 100.21354Q285.70312 99.322914 285.70312 97.58854L285.70312 91.40104L287.32812 91.40104L287.32812 97.55729Q287.32812 99.71354 289.07812 99.71354Q290.9375 99.71354 291.5625 98.322914L291.5625 91.40104L293.1875 91.40104L293.1875 100.916664L291.64062 100.916664L291.60938 99.979164ZM297.26562 91.40104L297.32812 92.604164Q298.40625 91.229164 300.17188 91.229164Q303.1875 91.229164 303.20312 94.635414L303.20312 100.916664L301.57812 100.916664L301.57812 94.61979Q301.57812 93.58854 301.10938 93.104164Q300.65625 92.604164 299.67188 92.604164Q298.89062 92.604164 298.28125 93.02604Q297.6875 93.447914 297.35938 94.135414L297.35938 100.916664L295.73438 100.916664L295.73438 91.40104L297.26562 91.40104ZM309.54688 99.760414Q310.42188 99.760414 311.0625 99.24479Q311.71875 98.71354 311.78125 97.916664L313.32812 97.916664Q313.28125 98.729164 312.76562 99.479164Q312.25 100.21354 311.375 100.65104Q310.51562 101.08854 309.54688 101.08854Q307.60938 101.08854 306.45312 99.791664Q305.3125 98.49479 305.3125 96.24479L305.3125 95.979164Q305.3125 94.58854 305.8125 93.510414Q306.32812 92.43229 307.28125 91.83854Q308.23438 91.229164 309.53125 91.229164Q311.14062 91.229164 312.1875 92.197914Q313.25 93.15104 313.32812 94.68229L311.78125 94.68229Q311.71875 93.760414 311.07812 93.166664Q310.45312 92.572914 309.53125 92.572914Q308.29688 92.572914 307.60938 93.46354Q306.9375 94.354164 306.9375 96.041664L306.9375 96.33854Q306.9375 97.99479 307.60938 98.885414Q308.28125 99.760414 309.54688 99.760414ZM318.67188 101.08854Q316.75 101.08854 315.53125 99.822914Q314.3125 98.55729 314.3125 96.43229L314.3125 96.11979Q314.3125 94.71354 314.85938 93.604164Q315.40625 92.49479 316.375 91.86979Q317.34375 91.229164 318.46875 91.229164Q320.32812 91.229164 321.35938 92.447914Q322.39062 93.666664 322.39062 95.947914L322.39062 96.61979L315.9375 96.61979Q315.98438 98.02604 316.76562 98.90104Q317.54688 99.760414 318.76562 99.760414Q319.625 99.760414 320.21875 99.416664Q320.82812 99.05729 321.26562 98.479164L322.26562 99.260414Q321.0625 101.08854 318.67188 101.08854ZM318.46875 92.572914Q317.48438 92.572914 316.8125 93.291664Q316.15625 93.99479 316.0 95.291664L320.76562 95.291664L320.76562 95.166664Q320.6875 93.93229 320.09375 93.260414Q319.5 92.572914 318.46875 92.572914ZM331.17188 88.11979L335.34375 98.55729L339.53125 88.11979L341.71875 88.11979L341.71875 100.916664L340.03125 100.916664L340.03125 95.93229L340.1875 90.55729L335.98438 100.916664L334.70312 100.916664L330.5 90.572914L330.67188 95.93229L330.67188 100.916664L328.98438 100.916664L328.98438 88.11979L331.17188 88.11979ZM346.6875 99.541664L352.75 99.541664L352.75 100.916664L344.98438 100.916664L344.98438 88.11979L346.6875 88.11979L346.6875 99.541664ZM362.75 95.21354Q360.57812 94.58854 359.59375 93.68229Q358.60938 92.77604 358.60938 91.43229Q358.60938 89.916664 359.8125 88.93229Q361.03125 87.947914 362.95312 87.947914Q364.28125 87.947914 365.3125 88.46354Q366.34375 88.96354 366.90625 89.86979Q367.46875 90.760414 367.46875 91.822914L365.78125 91.822914Q365.78125 90.666664 365.03125 90.010414Q364.29688 89.33854 362.95312 89.33854Q361.70312 89.33854 361.0 89.885414Q360.3125 90.43229 360.3125 91.40104Q360.3125 92.18229 360.96875 92.729164Q361.64062 93.27604 363.23438 93.729164Q364.82812 94.166664 365.71875 94.71354Q366.625 95.24479 367.0625 95.96354Q367.5 96.68229 367.5 97.666664Q367.5 99.21354 366.28125 100.15104Q365.07812 101.08854 363.04688 101.08854Q361.73438 101.08854 360.57812 100.58854Q359.4375 100.08854 358.8125 99.21354Q358.20312 98.322914 358.20312 97.21354L359.90625 97.21354Q359.90625 98.36979 360.75 99.041664Q361.60938 99.71354 363.04688 99.71354Q364.375 99.71354 365.09375 99.166664Q365.8125 98.61979 365.8125 97.68229Q365.8125 96.74479 365.14062 96.229164Q364.48438 95.71354 362.75 95.21354ZM375.60938 99.979164Q374.65625 101.08854 372.8125 101.08854Q371.29688 101.08854 370.5 100.21354Q369.70312 99.322914 369.70312 97.58854L369.70312 91.40104L371.32812 91.40104L371.32812 97.55729Q371.32812 99.71354 373.07812 99.71354Q374.9375 99.71354 375.5625 98.322914L375.5625 91.40104L377.1875 91.40104L377.1875 100.916664L375.64062 100.916664L375.60938 99.979164ZM387.78125 96.260414Q387.78125 98.447914 386.78125 99.77604Q385.78125 101.08854 384.09375 101.08854Q382.28125 101.08854 381.29688 99.822914L381.21875 100.916664L379.73438 100.916664L379.73438 87.416664L381.35938 87.416664L381.35938 92.447914Q382.34375 91.229164 384.0625 91.229164Q385.79688 91.229164 386.78125 92.541664Q387.78125 93.854164 387.78125 96.11979L387.78125 96.260414ZM386.15625 96.08854Q386.15625 94.416664 385.51562 93.510414Q384.875 92.604164 383.67188 92.604164Q382.0625 92.604164 381.35938 94.104164L381.35938 98.21354Q382.10938 99.71354 383.6875 99.71354Q384.85938 99.71354 385.5 98.80729Q386.15625 97.90104 386.15625 96.08854ZM395.26562 98.40104Q395.26562 97.729164 394.76562 97.36979Q394.28125 97.010414 393.04688 96.74479Q391.8125 96.479164 391.07812 96.11979Q390.35938 95.74479 390.0 95.229164Q389.65625 94.71354 389.65625 94.010414Q389.65625 92.854164 390.64062 92.041664Q391.64062 91.229164 393.17188 91.229164Q394.79688 91.229164 395.79688 92.072914Q396.8125 92.90104 396.8125 94.197914L395.17188 94.197914Q395.17188 93.52604 394.59375 93.05729Q394.03125 92.572914 393.17188 92.572914Q392.28125 92.572914 391.78125 92.96354Q391.28125 93.33854 391.28125 93.96354Q391.28125 94.55729 391.75 94.854164Q392.21875 95.15104 393.4375 95.43229Q394.65625 95.697914 395.40625 96.072914Q396.17188 96.447914 396.53125 96.979164Q396.89062 97.510414 396.89062 98.27604Q396.89062 99.55729 395.875 100.322914Q394.85938 101.08854 393.23438 101.08854Q392.09375 101.08854 391.20312 100.68229Q390.32812 100.27604 389.82812 99.55729Q389.32812 98.83854 389.32812 97.99479L390.96875 97.99479Q391.0 98.80729 391.60938 99.291664Q392.23438 99.760414 393.23438 99.760414Q394.15625 99.760414 394.70312 99.385414Q395.26562 99.010414 395.26562 98.40104ZM402.54688 99.760414Q403.42188 99.760414 404.0625 99.24479Q404.71875 98.71354 404.78125 97.916664L406.32812 97.916664Q406.28125 98.729164 405.76562 99.479164Q405.25 100.21354 404.375 100.65104Q403.51562 101.08854 402.54688 101.08854Q400.60938 101.08854 399.45312 99.791664Q398.3125 98.49479 398.3125 96.24479L398.3125 95.979164Q398.3125 94.58854 398.8125 93.510414Q399.32812 92.43229 400.28125 91.83854Q401.23438 91.229164 402.53125 91.229164Q404.14062 91.229164 405.1875 92.197914Q406.25 93.15104 406.32812 94.68229L404.78125 94.68229Q404.71875 93.760414 404.07812 93.166664Q403.45312 92.572914 402.53125 92.572914Q401.29688 92.572914 400.60938 93.46354Q399.9375 94.354164 399.9375 96.041664L399.9375 96.33854Q399.9375 97.99479 400.60938 98.885414Q401.28125 99.760414 402.54688 99.760414ZM412.32812 92.86979Q411.95312 92.80729 411.53125 92.80729Q409.92188 92.80729 409.35938 94.166664L409.35938 100.916664L407.73438 100.916664L407.73438 91.40104L409.3125 91.40104L409.34375 92.510414Q410.14062 91.229164 411.60938 91.229164Q412.07812 91.229164 412.32812 91.354164L412.32812 92.86979ZM415.5 100.916664L413.875 100.916664L413.875 91.40104L415.5 91.40104L415.5 100.916664ZM413.73438 88.885414Q413.73438 88.49479 413.96875 88.229164Q414.21875 87.947914 414.6875 87.947914Q415.17188 87.947914 415.42188 88.229164Q415.67188 88.49479 415.67188 88.885414Q415.67188 89.27604 415.42188 89.541664Q415.17188 89.80729 414.6875 89.80729Q414.21875 89.80729 413.96875 89.541664Q413.73438 89.27604 413.73438 88.885414ZM425.78125 96.260414Q425.78125 98.447914 424.78125 99.77604Q423.78125 101.08854 422.09375 101.08854Q420.28125 101.08854 419.29688 99.822914L419.21875 100.916664L417.73438 100.916664L417.73438 87.416664L419.35938 87.416664L419.35938 92.447914Q420.34375 91.229164 422.0625 91.229164Q423.79688 91.229164 424.78125 92.541664Q425.78125 93.854164 425.78125 96.11979L425.78125 96.260414ZM424.15625 96.08854Q424.15625 94.416664 423.51562 93.510414Q422.875 92.604164 421.67188 92.604164Q420.0625 92.604164 419.35938 94.104164L419.35938 98.21354Q420.10938 99.71354 421.6875 99.71354Q422.85938 99.71354 423.5 98.80729Q424.15625 97.90104 424.15625 96.08854ZM431.67188 101.08854Q429.75 101.08854 428.53125 99.822914Q427.3125 98.55729 427.3125 96.43229L427.3125 96.11979Q427.3125 94.71354 427.85938 93.604164Q428.40625 92.49479 429.375 91.86979Q430.34375 91.229164 431.46875 91.229164Q433.32812 91.229164 434.35938 92.447914Q435.39062 93.666664 435.39062 95.947914L435.39062 96.61979L428.9375 96.61979Q428.98438 98.02604 429.76562 98.90104Q430.54688 99.760414 431.76562 99.760414Q432.625 99.760414 433.21875 99.416664Q433.82812 99.05729 434.26562 98.479164L435.26562 99.260414Q434.0625 101.08854 431.67188 101.08854ZM431.46875 92.572914Q430.48438 92.572914 429.8125 93.291664Q429.15625 93.99479 429.0 95.291664L433.76562 95.291664L433.76562 95.166664Q433.6875 93.93229 433.09375 93.260414Q432.5 92.572914 431.46875 92.572914ZM442.32812 92.86979Q441.95312 92.80729 441.53125 92.80729Q439.92188 92.80729 439.35938 94.166664L439.35938 100.916664L437.73438 100.916664L437.73438 91.40104L439.3125 91.40104L439.34375 92.510414Q440.14062 91.229164 441.60938 91.229164Q442.07812 91.229164 442.32812 91.354164L442.32812 92.86979ZM449.26562 98.40104Q449.26562 97.729164 448.76562 97.36979Q448.28125 97.010414 447.04688 96.74479Q445.8125 96.479164 445.07812 96.11979Q444.35938 95.74479 444.0 95.229164Q443.65625 94.71354 443.65625 94.010414Q443.65625 92.854164 444.64062 92.041664Q445.64062 91.229164 447.17188 91.229164Q448.79688 91.229164 449.79688 92.072914Q450.8125 92.90104 450.8125 94.197914L449.17188 94.197914Q449.17188 93.52604 448.59375 93.05729Q448.03125 92.572914 447.17188 92.572914Q446.28125 92.572914 445.78125 92.96354Q445.28125 93.33854 445.28125 93.96354Q445.28125 94.55729 445.75 94.854164Q446.21875 95.15104 447.4375 95.43229Q448.65625 95.697914 449.40625 96.072914Q450.17188 96.447914 450.53125 96.979164Q450.89062 97.510414 450.89062 98.27604Q450.89062 99.55729 449.875 100.322914Q448.85938 101.08854 447.23438 101.08854Q446.09375 101.08854 445.20312 100.68229Q444.32812 100.27604 443.82812 99.55729Q443.32812 98.83854 443.32812 97.99479L444.96875 97.99479Q445.0 98.80729 445.60938 99.291664Q446.23438 99.760414 447.23438 99.760414Q448.15625 99.760414 448.70312 99.385414Q449.26562 99.010414 449.26562 98.40104Z" fill-rule="nonzero"/><path fill="#5277ff" d="M479.5 94.916664C479.5 98.23038 476.81372 100.916664 473.5 100.916664C470.18628 100.916664 467.5 98.23038 467.5 94.916664C467.5 91.60296 470.18628 88.916664 473.5 88.916664C476.81372 88.916664 479.5 91.60296 479.5 94.916664Z" fill-rule="nonzero"/><path fill="#d9d9d9" d="M497.82812 89.510414L493.71875 89.510414L493.71875 100.916664L492.03125 100.916664L492.03125 89.510414L487.9375 89.510414L487.9375 88.11979L497.82812 88.11979L497.82812 89.510414ZM508.15625 98.68229L509.98438 91.40104L511.60938 91.40104L508.84375 100.916664L507.51562 100.916664L505.20312 93.71354L502.95312 100.916664L501.64062 100.916664L498.875 91.40104L500.5 91.40104L502.375 98.52604L504.57812 91.40104L505.89062 91.40104L508.15625 98.68229ZM515.5 100.916664L513.875 100.916664L513.875 91.40104L515.5 91.40104L515.5 100.916664ZM513.7344 88.885414Q513.7344 88.49479 513.96875 88.229164Q514.21875 87.947914 514.6875 87.947914Q515.1719 87.947914 515.4219 88.229164Q515.6719 88.49479 515.6719 88.885414Q515.6719 89.27604 515.4219 89.541664Q515.1719 89.80729 514.6875 89.80729Q514.21875 89.80729 513.96875 89.541664Q513.7344 89.27604 513.7344 88.885414ZM519.9375 89.104164L519.9375 91.40104L521.71875 91.40104L521.71875 92.666664L519.9375 92.666664L519.9375 98.55729Q519.9375 99.135414 520.1719 99.416664Q520.40625 99.697914 520.9844 99.697914Q521.2656 99.697914 521.75 99.604164L521.75 100.916664Q521.1094 101.08854 520.5156 101.08854Q519.4219 101.08854 518.8594 100.43229Q518.3125 99.77604 518.3125 98.55729L518.3125 92.666664L516.5781 92.666664L516.5781 91.40104L518.3125 91.40104L518.3125 89.104164L519.9375 89.104164ZM525.9375 89.104164L525.9375 91.40104L527.71875 91.40104L527.71875 92.666664L525.9375 92.666664L525.9375 98.55729Q525.9375 99.135414 526.1719 99.416664Q526.40625 99.697914 526.9844 99.697914Q527.2656 99.697914 527.75 99.604164L527.75 100.916664Q527.1094 101.08854 526.5156 101.08854Q525.4219 101.08854 524.8594 100.43229Q524.3125 99.77604 524.3125 98.55729L524.3125 92.666664L522.5781 92.666664L522.5781 91.40104L524.3125 91.40104L524.3125 89.104164L525.9375 89.104164ZM533.6719 101.08854Q531.75 101.08854 530.53125 99.822914Q529.3125 98.55729 529.3125 96.43229L529.3125 96.11979Q529.3125 94.71354 529.8594 93.604164Q530.40625 92.49479 531.375 91.86979Q532.34375 91.229164 533.46875 91.229164Q535.3281 91.229164 536.3594 92.447914Q537.3906 93.666664 537.3906 95.947914L537.3906 96.61979L530.9375 96.61979Q530.9844 98.02604 531.7656 98.90104Q532.5469 99.760414 533.7656 99.760414Q534.625 99.760414 535.21875 99.416664Q535.8281 99.05729 536.2656 98.479164L537.2656 99.260414Q536.0625 101.08854 533.6719 101.08854ZM533.46875 92.572914Q532.4844 92.572914 531.8125 93.291664Q531.15625 93.99479 531.0 95.291664L535.7656 95.291664L535.7656 95.166664Q535.6875 93.93229 535.09375 93.260414Q534.5 92.572914 533.46875 92.572914ZM544.3281 92.86979Q543.9531 92.80729 543.53125 92.80729Q541.9219 92.80729 541.3594 94.166664L541.3594 100.916664L539.7344 100.916664L539.7344 91.40104L541.3125 91.40104L541.34375 92.510414Q542.1406 91.229164 543.6094 91.229164Q544.0781 91.229164 544.3281 91.354164L544.3281 92.86979ZM557.0469 95.260414L551.6719 95.260414L551.6719 100.916664L549.9844 100.916664L549.9844 88.11979L557.90625 88.11979L557.90625 89.510414L551.6719 89.510414L551.6719 93.885414L557.0469 93.885414L557.0469 95.260414ZM559.2969 96.072914Q559.2969 94.68229 559.84375 93.572914Q560.40625 92.447914 561.375 91.83854Q562.3594 91.229164 563.6094 91.229164Q565.5625 91.229164 566.75 92.572914Q567.9531 93.916664 567.9531 96.15104L567.9531 96.260414Q567.9531 97.65104 567.4219 98.760414Q566.8906 99.854164 565.90625 100.479164Q564.9219 101.08854 563.6406 101.08854Q561.7031 101.08854 560.5 99.74479Q559.2969 98.40104 559.2969 96.18229L559.2969 96.072914ZM560.9375 96.260414Q560.9375 97.854164 561.6719 98.80729Q562.40625 99.760414 563.6406 99.760414Q564.875 99.760414 565.59375 98.791664Q566.3281 97.822914 566.3281 96.072914Q566.3281 94.510414 565.5781 93.541664Q564.84375 92.572914 563.6094 92.572914Q562.40625 92.572914 561.6719 93.52604Q560.9375 94.479164 560.9375 96.260414ZM571.5 100.916664L569.875 100.916664L569.875 87.416664L571.5 87.416664L571.5 100.916664ZM575.5 100.916664L573.875 100.916664L573.875 87.416664L575.5 87.416664L575.5 100.916664ZM577.2969 96.072914Q577.2969 94.68229 577.84375 93.572914Q578.40625 92.447914 579.375 91.83854Q580.3594 91.229164 581.6094 91.229164Q583.5625 91.229164 584.75 92.572914Q585.9531 93.916664 585.9531 96.15104L585.9531 96.260414Q585.9531 97.65104 585.4219 98.760414Q584.8906 99.854164 583.90625 100.479164Q582.9219 101.08854 581.6406 101.08854Q579.7031 101.08854 578.5 99.74479Q577.2969 98.40104 577.2969 96.18229L577.2969 96.072914ZM578.9375 96.260414Q578.9375 97.854164 579.6719 98.80729Q580.40625 99.760414 581.6406 99.760414Q582.875 99.760414 583.59375 98.791664Q584.3281 97.822914 584.3281 96.072914Q584.3281 94.510414 583.5781 93.541664Q582.84375 92.572914 581.6094 92.572914Q580.40625 92.572914 579.6719 93.52604Q578.9375 94.479164 578.9375 96.260414ZM596.15625 98.68229L597.9844 91.40104L599.6094 91.40104L596.84375 100.916664L595.5156 100.916664L593.2031 93.71354L590.9531 100.916664L589.6406 100.916664L586.875 91.40104L588.5 91.40104L590.375 98.52604L592.5781 91.40104L593.8906 91.40104L596.15625 98.68229ZM605.6719 101.08854Q603.75 101.08854 602.53125 99.822914Q601.3125 98.55729 601.3125 96.43229L601.3125 96.11979Q601.3125 94.71354 601.8594 93.604164Q602.40625 92.49479 603.375 91.86979Q604.34375 91.229164 605.46875 91.229164Q607.3281 91.229164 608.3594 92.447914Q609.3906 93.666664 609.3906 95.947914L609.3906 96.61979L602.9375 96.61979Q602.9844 98.02604 603.7656 98.90104Q604.5469 99.760414 605.7656 99.760414Q606.625 99.760414 607.21875 99.416664Q607.8281 99.05729 608.2656 98.479164L609.2656 99.260414Q608.0625 101.08854 605.6719 101.08854ZM605.46875 92.572914Q604.4844 92.572914 603.8125 93.291664Q603.15625 93.99479 603.0 95.291664L607.7656 95.291664L607.7656 95.166664Q607.6875 93.93229 607.09375 93.260414Q606.5 92.572914 605.46875 92.572914ZM616.3281 92.86979Q615.9531 92.80729 615.53125 92.80729Q613.9219 92.80729 613.3594 94.166664L613.3594 100.916664L611.7344 100.916664L611.7344 91.40104L613.3125 91.40104L613.34375 92.510414Q614.1406 91.229164 615.6094 91.229164Q616.0781 91.229164 616.3281 91.354164L616.3281 92.86979ZM623.2656 98.40104Q623.2656 97.729164 622.7656 97.36979Q622.28125 97.010414 621.0469 96.74479Q619.8125 96.479164 619.0781 96.11979Q618.3594 95.74479 618.0 95.229164Q617.65625 94.71354 617.65625 94.010414Q617.65625 92.854164 618.6406 92.041664Q619.6406 91.229164 621.1719 91.229164Q622.7969 91.229164 623.7969 92.072914Q624.8125 92.90104 624.8125 94.197914L623.1719 94.197914Q623.1719 93.52604 622.59375 93.05729Q622.03125 92.572914 621.1719 92.572914Q620.28125 92.572914 619.78125 92.96354Q619.28125 93.33854 619.28125 93.96354Q619.28125 94.55729 619.75 94.854164Q620.21875 95.15104 621.4375 95.43229Q622.65625 95.697914 623.40625 96.072914Q624.1719 96.447914 624.53125 96.979164Q624.8906 97.510414 624.8906 98.27604Q624.8906 99.55729 623.875 100.322914Q622.8594 101.08854 621.2344 101.08854Q620.09375 101.08854 619.2031 100.68229Q618.3281 100.27604 617.8281 99.55729Q617.3281 98.83854 617.3281 97.99479L618.96875 97.99479Q619.0 98.80729 619.6094 99.291664Q620.2344 99.760414 621.2344 99.760414Q622.15625 99.760414 622.7031 99.385414Q623.2656 99.010414 623.2656 98.40104Z" fill-rule="nonzero"/><path fill="#d9d9d9" d="M147.14062 49.640625Q146.90625 53.09375 144.60938 55.078125Q142.3125 57.046875 138.5625 57.046875Q134.46875 57.046875 132.10938 54.28125Q129.76562 51.515625 129.76562 46.703125L129.76562 45.390625Q129.76562 42.328125 130.84375 39.984375Q131.92188 37.640625 133.9375 36.390625Q135.95312 35.125 138.625 35.125Q142.3125 35.125 144.5625 37.109375Q146.82812 39.078125 147.17188 42.65625L142.78125 42.65625Q142.625 40.59375 141.625 39.671875Q140.64062 38.734375 138.625 38.734375Q136.42188 38.734375 135.32812 40.3125Q134.25 41.875 134.21875 45.1875L134.21875 46.796875Q134.21875 50.265625 135.26562 51.859375Q136.3125 53.453125 138.5625 53.453125Q140.59375 53.453125 141.59375 52.53125Q142.60938 51.59375 142.75 49.640625L147.14062 49.640625ZM149.46875 48.671875Q149.46875 46.3125 150.375 44.46875Q151.28125 42.625 152.98438 41.625Q154.70312 40.609375 156.95312 40.609375Q160.15625 40.609375 162.1875 42.578125Q164.21875 44.53125 164.45312 47.90625L164.48438 48.984375Q164.48438 52.640625 162.4375 54.84375Q160.40625 57.046875 156.96875 57.046875Q153.54688 57.046875 151.5 54.84375Q149.46875 52.640625 149.46875 48.875L149.46875 48.671875ZM153.70312 48.984375Q153.70312 51.234375 154.54688 52.4375Q155.40625 53.625 156.98438 53.625Q158.51562 53.625 159.375 52.453125Q160.25 51.265625 160.25 48.671875Q160.25 46.46875 159.375 45.25Q158.51562 44.03125 156.95312 44.03125Q155.40625 44.03125 154.54688 45.25Q153.70312 46.453125 153.70312 48.984375ZM171.09375 40.90625L171.23438 42.671875Q172.90625 40.609375 175.78125 40.609375Q178.84375 40.609375 179.98438 43.03125Q181.65625 40.609375 184.75 40.609375Q187.32812 40.609375 188.57812 42.109375Q189.84375 43.609375 189.84375 46.625L189.84375 56.75L185.59375 56.75L185.59375 46.640625Q185.59375 45.296875 185.0625 44.671875Q184.54688 44.046875 183.20312 44.046875Q181.3125 44.046875 180.57812 45.859375L180.59375 56.75L176.35938 56.75L176.35938 46.65625Q176.35938 45.28125 175.8125 44.671875Q175.26562 44.046875 173.96875 44.046875Q172.17188 44.046875 171.35938 45.546875L171.35938 56.75L167.125 56.75L167.125 40.90625L171.09375 40.90625ZM197.09375 40.90625L197.23438 42.671875Q198.90625 40.609375 201.78125 40.609375Q204.84375 40.609375 205.98438 43.03125Q207.65625 40.609375 210.75 40.609375Q213.32812 40.609375 214.57812 42.109375Q215.84375 43.609375 215.84375 46.625L215.84375 56.75L211.59375 56.75L211.59375 46.640625Q211.59375 45.296875 211.0625 44.671875Q210.54688 44.046875 209.20312 44.046875Q207.3125 44.046875 206.57812 45.859375L206.59375 56.75L202.35938 56.75L202.35938 46.65625Q202.35938 45.28125 201.8125 44.671875Q201.26562 44.046875 199.96875 44.046875Q198.17188 44.046875 197.35938 45.546875L197.35938 56.75L193.125 56.75L193.125 40.90625L197.09375 40.90625ZM228.625 55.140625Q227.04688 57.046875 224.28125 57.046875Q221.73438 57.046875 220.39062 55.578125Q219.04688 54.109375 219.03125 51.28125L219.03125 40.90625L223.25 40.90625L223.25 51.140625Q223.25 53.609375 225.51562 53.609375Q227.67188 53.609375 228.46875 52.125L228.46875 40.90625L232.71875 40.90625L232.71875 56.75L228.73438 56.75L228.625 55.140625ZM240.01562 40.90625L240.15625 42.734375Q241.85938 40.609375 244.70312 40.609375Q247.23438 40.609375 248.45312 42.09375Q249.6875 43.5625 249.71875 46.515625L249.71875 56.75L245.48438 56.75L245.48438 46.609375Q245.48438 45.265625 244.89062 44.65625Q244.3125 44.046875 242.95312 44.046875Q241.17188 44.046875 240.26562 45.578125L240.26562 56.75L236.03125 56.75L236.03125 40.90625L240.01562 40.90625ZM257.59375 56.75L253.34375 56.75L253.34375 40.90625L257.59375 40.90625L257.59375 56.75ZM253.09375 36.796875Q253.09375 35.84375 253.73438 35.234375Q254.375 34.609375 255.46875 34.609375Q256.54688 34.609375 257.1875 35.234375Q257.84375 35.84375 257.84375 36.796875Q257.84375 37.765625 257.1875 38.390625Q256.54688 39.0 255.46875 39.0Q254.40625 39.0 253.75 38.390625Q253.09375 37.765625 253.09375 36.796875ZM267.71875 53.625Q268.89062 53.625 269.625 52.984375Q270.35938 52.34375 270.39062 51.265625L274.35938 51.265625Q274.34375 52.875 273.46875 54.21875Q272.60938 55.5625 271.10938 56.3125Q269.60938 57.046875 267.79688 57.046875Q264.39062 57.046875 262.42188 54.890625Q260.46875 52.71875 260.46875 48.90625L260.46875 48.640625Q260.46875 44.96875 262.40625 42.796875Q264.35938 40.609375 267.76562 40.609375Q270.73438 40.609375 272.53125 42.296875Q274.32812 43.984375 274.35938 46.796875L270.39062 46.796875Q270.35938 45.578125 269.625 44.8125Q268.89062 44.03125 267.6875 44.03125Q266.20312 44.03125 265.45312 45.109375Q264.70312 46.1875 264.70312 48.609375L264.70312 49.046875Q264.70312 51.484375 265.4375 52.5625Q266.1875 53.625 267.71875 53.625ZM286.3125 56.75Q286.01562 56.171875 285.89062 55.328125Q284.34375 57.046875 281.89062 57.046875Q279.5625 57.046875 278.03125 55.703125Q276.5 54.34375 276.5 52.296875Q276.5 49.78125 278.35938 48.4375Q280.23438 47.078125 283.76562 47.0625L285.70312 47.0625L285.70312 46.15625Q285.70312 45.0625 285.14062 44.40625Q284.57812 43.734375 283.35938 43.734375Q282.29688 43.734375 281.6875 44.25Q281.07812 44.765625 281.07812 45.65625L276.84375 45.65625Q276.84375 44.28125 277.6875 43.109375Q278.54688 41.9375 280.09375 41.28125Q281.65625 40.609375 283.59375 40.609375Q286.51562 40.609375 288.23438 42.078125Q289.95312 43.546875 289.95312 46.21875L289.95312 53.09375Q289.96875 55.34375 290.59375 56.5L290.59375 56.75L286.3125 56.75ZM282.8125 53.8125Q283.75 53.8125 284.53125 53.390625Q285.32812 52.96875 285.70312 52.265625L285.70312 49.546875L284.125 49.546875Q280.95312 49.546875 280.75 51.734375L280.73438 51.984375Q280.73438 52.78125 281.28125 53.296875Q281.84375 53.8125 282.8125 53.8125ZM298.1875 37.0L298.1875 40.90625L300.90625 40.90625L300.90625 44.0L298.1875 44.0L298.1875 51.921875Q298.1875 52.796875 298.53125 53.1875Q298.875 53.5625 299.82812 53.5625Q300.53125 53.5625 301.0625 53.453125L301.0625 56.65625Q299.82812 57.046875 298.5 57.046875Q294.04688 57.046875 293.96875 52.546875L293.96875 44.0L291.64062 44.0L291.64062 40.90625L293.96875 40.90625L293.96875 37.0L298.1875 37.0ZM307.59375 56.75L303.34375 56.75L303.34375 40.90625L307.59375 40.90625L307.59375 56.75ZM303.09375 36.796875Q303.09375 35.84375 303.73438 35.234375Q304.375 34.609375 305.46875 34.609375Q306.54688 34.609375 307.1875 35.234375Q307.84375 35.84375 307.84375 36.796875Q307.84375 37.765625 307.1875 38.390625Q306.54688 39.0 305.46875 39.0Q304.40625 39.0 303.75 38.390625Q303.09375 37.765625 303.09375 36.796875ZM310.46875 48.671875Q310.46875 46.3125 311.375 44.46875Q312.28125 42.625 313.98438 41.625Q315.70312 40.609375 317.95312 40.609375Q321.15625 40.609375 323.1875 42.578125Q325.21875 44.53125 325.45312 47.90625L325.48438 48.984375Q325.48438 52.640625 323.4375 54.84375Q321.40625 57.046875 317.96875 57.046875Q314.54688 57.046875 312.5 54.84375Q310.46875 52.640625 310.46875 48.875L310.46875 48.671875ZM314.70312 48.984375Q314.70312 51.234375 315.54688 52.4375Q316.40625 53.625 317.98438 53.625Q319.51562 53.625 320.375 52.453125Q321.25 51.265625 321.25 48.671875Q321.25 46.46875 320.375 45.25Q319.51562 44.03125 317.95312 44.03125Q316.40625 44.03125 315.54688 45.25Q314.70312 46.453125 314.70312 48.984375ZM332.01562 40.90625L332.15625 42.734375Q333.85938 40.609375 336.70312 40.609375Q339.23438 40.609375 340.45312 42.09375Q341.6875 43.5625 341.71875 46.515625L341.71875 56.75L337.48438 56.75L337.48438 46.609375Q337.48438 45.265625 336.89062 44.65625Q336.3125 44.046875 334.95312 44.046875Q333.17188 44.046875 332.26562 45.578125L332.26562 56.75L328.03125 56.75L328.03125 40.90625L332.01562 40.90625ZM369.14062 49.640625Q368.90625 53.09375 366.60938 55.078125Q364.3125 57.046875 360.5625 57.046875Q356.46875 57.046875 354.10938 54.28125Q351.76562 51.515625 351.76562 46.703125L351.76562 45.390625Q351.76562 42.328125 352.84375 39.984375Q353.92188 37.640625 355.9375 36.390625Q357.95312 35.125 360.625 35.125Q364.3125 35.125 366.5625 37.109375Q368.82812 39.078125 369.17188 42.65625L364.78125 42.65625Q364.625 40.59375 363.625 39.671875Q362.64062 38.734375 360.625 38.734375Q358.42188 38.734375 357.32812 40.3125Q356.25 41.875 356.21875 45.1875L356.21875 46.796875Q356.21875 50.265625 357.26562 51.859375Q358.3125 53.453125 360.5625 53.453125Q362.59375 53.453125 363.59375 52.53125Q364.60938 51.59375 364.75 49.640625L369.14062 49.640625ZM376.25 42.625Q377.9375 40.609375 380.48438 40.609375Q385.64062 40.609375 385.71875 46.59375L385.71875 56.75L381.48438 56.75L381.48438 46.71875Q381.48438 45.359375 380.89062 44.703125Q380.3125 44.046875 378.95312 44.046875Q377.09375 44.046875 376.25 45.484375L376.25 56.75L372.03125 56.75L372.03125 34.25L376.25 34.25L376.25 42.625ZM398.3125 56.75Q398.01562 56.171875 397.89062 55.328125Q396.34375 57.046875 393.89062 57.046875Q391.5625 57.046875 390.03125 55.703125Q388.5 54.34375 388.5 52.296875Q388.5 49.78125 390.35938 48.4375Q392.23438 47.078125 395.76562 47.0625L397.70312 47.0625L397.70312 46.15625Q397.70312 45.0625 397.14062 44.40625Q396.57812 43.734375 395.35938 43.734375Q394.29688 43.734375 393.6875 44.25Q393.07812 44.765625 393.07812 45.65625L388.84375 45.65625Q388.84375 44.28125 389.6875 43.109375Q390.54688 41.9375 392.09375 41.28125Q393.65625 40.609375 395.59375 40.609375Q398.51562 40.609375 400.23438 42.078125Q401.95312 43.546875 401.95312 46.21875L401.95312 53.09375Q401.96875 55.34375 402.59375 56.5L402.59375 56.75L398.3125 56.75ZM394.8125 53.8125Q395.75 53.8125 396.53125 53.390625Q397.32812 52.96875 397.70312 52.265625L397.70312 49.546875L396.125 49.546875Q392.95312 49.546875 392.75 51.734375L392.73438 51.984375Q392.73438 52.78125 393.28125 53.296875Q393.84375 53.8125 394.8125 53.8125ZM409.01562 40.90625L409.15625 42.734375Q410.85938 40.609375 413.70312 40.609375Q416.23438 40.609375 417.45312 42.09375Q418.6875 43.5625 418.71875 46.515625L418.71875 56.75L414.48438 56.75L414.48438 46.609375Q414.48438 45.265625 413.89062 44.65625Q413.3125 44.046875 411.95312 44.046875Q410.17188 44.046875 409.26562 45.578125L409.26562 56.75L405.03125 56.75L405.03125 40.90625L409.01562 40.90625ZM426.01562 40.90625L426.15625 42.734375Q427.85938 40.609375 430.70312 40.609375Q433.23438 40.609375 434.45312 42.09375Q435.6875 43.5625 435.71875 46.515625L435.71875 56.75L431.48438 56.75L431.48438 46.609375Q431.48438 45.265625 430.89062 44.65625Q430.3125 44.046875 428.95312 44.046875Q427.17188 44.046875 426.26562 45.578125L426.26562 56.75L422.03125 56.75L422.03125 40.90625L426.01562 40.90625ZM446.42188 57.046875Q442.9375 57.046875 440.75 54.90625Q438.5625 52.765625 438.5625 49.203125L438.5625 48.796875Q438.5625 46.40625 439.48438 44.53125Q440.40625 42.640625 442.09375 41.625Q443.78125 40.609375 445.95312 40.609375Q449.20312 40.609375 451.0625 42.65625Q452.9375 44.703125 452.9375 48.46875L452.9375 50.203125L442.84375 50.203125Q443.04688 51.75 444.07812 52.6875Q445.125 53.625 446.70312 53.625Q449.14062 53.625 450.51562 51.859375L452.60938 54.1875Q451.65625 55.53125 450.03125 56.296875Q448.40625 57.046875 446.42188 57.046875ZM445.9375 44.03125Q444.67188 44.03125 443.89062 44.890625Q443.10938 45.734375 442.89062 47.3125L448.78125 47.3125L448.78125 46.984375Q448.75 45.578125 448.01562 44.8125Q447.28125 44.03125 445.9375 44.03125ZM459.59375 56.75L455.34375 56.75L455.34375 34.25L459.59375 34.25L459.59375 56.75ZM471.70312 52.375Q471.70312 51.59375 470.9375 51.15625Q470.17188 50.703125 468.46875 50.34375Q462.8125 49.15625 462.8125 45.546875Q462.8125 43.4375 464.5625 42.03125Q466.3125 40.609375 469.14062 40.609375Q472.17188 40.609375 473.96875 42.03125Q475.78125 43.453125 475.78125 45.71875L471.54688 45.71875Q471.54688 44.8125 470.95312 44.21875Q470.375 43.625 469.125 43.625Q468.0625 43.625 467.46875 44.109375Q466.89062 44.59375 466.89062 45.34375Q466.89062 46.046875 467.54688 46.484375Q468.21875 46.90625 469.79688 47.21875Q471.39062 47.53125 472.46875 47.9375Q475.82812 49.15625 475.82812 52.1875Q475.82812 54.359375 473.96875 55.703125Q472.10938 57.046875 469.15625 57.046875Q467.17188 57.046875 465.625 56.34375Q464.07812 55.625 463.20312 54.390625Q462.32812 53.140625 462.32812 51.703125L466.32812 51.703125Q466.39062 52.84375 467.17188 53.453125Q467.95312 54.046875 469.25 54.046875Q470.46875 54.046875 471.07812 53.578125Q471.70312 53.109375 471.70312 52.375ZM478.34375 54.671875Q478.34375 53.65625 479.01562 53.03125Q479.70312 52.40625 480.73438 52.40625Q481.78125 52.40625 482.45312 53.03125Q483.14062 53.65625 483.14062 54.671875Q483.14062 55.671875 482.45312 56.296875Q481.78125 56.90625 480.73438 56.90625Q479.6875 56.90625 479.01562 56.296875Q478.34375 55.671875 478.34375 54.671875ZM478.34375 42.671875Q478.34375 41.65625 479.01562 41.03125Q479.70312 40.40625 480.73438 40.40625Q481.78125 40.40625 482.45312 41.03125Q483.14062 41.65625 483.14062 42.671875Q483.14062 43.671875 482.45312 44.296875Q481.78125 44.90625 480.73438 44.90625Q479.6875 44.90625 479.01562 44.296875Q478.34375 43.671875 478.34375 42.671875ZM499.14062 35.421875L504.625 50.890625L510.07812 35.421875L515.84375 35.421875L515.84375 56.75L511.4375 56.75L511.4375 50.921875L511.875 40.859375L506.125 56.75L503.10938 56.75L497.35938 40.875L497.79688 50.921875L497.79688 56.75L493.40625 56.75L493.40625 35.421875L499.14062 35.421875ZM526.4219 57.046875Q522.9375 57.046875 520.75 54.90625Q518.5625 52.765625 518.5625 49.203125L518.5625 48.796875Q518.5625 46.40625 519.4844 44.53125Q520.40625 42.640625 522.09375 41.625Q523.78125 40.609375 525.9531 40.609375Q529.2031 40.609375 531.0625 42.65625Q532.9375 44.703125 532.9375 48.46875L532.9375 50.203125L522.84375 50.203125Q523.0469 51.75 524.0781 52.6875Q525.125 53.625 526.7031 53.625Q529.1406 53.625 530.5156 51.859375L532.6094 54.1875Q531.65625 55.53125 530.03125 56.296875Q528.40625 57.046875 526.4219 57.046875ZM525.9375 44.03125Q524.6719 44.03125 523.8906 44.890625Q523.1094 45.734375 522.8906 47.3125L528.78125 47.3125L528.78125 46.984375Q528.75 45.578125 528.0156 44.8125Q527.28125 44.03125 525.9375 44.03125ZM539.09375 40.90625L539.2344 42.671875Q540.90625 40.609375 543.78125 40.609375Q546.84375 40.609375 547.9844 43.03125Q549.65625 40.609375 552.75 40.609375Q555.3281 40.609375 556.5781 42.109375Q557.84375 43.609375 557.84375 46.625L557.84375 56.75L553.59375 56.75L553.59375 46.640625Q553.59375 45.296875 553.0625 44.671875Q552.5469 44.046875 551.2031 44.046875Q549.3125 44.046875 548.5781 45.859375L548.59375 56.75L544.3594 56.75L544.3594 46.65625Q544.3594 45.28125 543.8125 44.671875Q543.2656 44.046875 541.96875 44.046875Q540.1719 44.046875 539.3594 45.546875L539.3594 56.75L535.125 56.75L535.125 40.90625L539.09375 40.90625ZM575.40625 48.96875Q575.40625 52.78125 573.78125 54.921875Q572.15625 57.046875 569.2344 57.046875Q566.65625 57.046875 565.125 55.0625L564.9375 56.75L561.125 56.75L561.125 34.25L565.3594 34.25L565.3594 42.328125Q566.8281 40.609375 569.21875 40.609375Q572.1094 40.609375 573.75 42.75Q575.40625 44.875 575.40625 48.734375L575.40625 48.96875ZM571.1719 48.65625Q571.1719 46.265625 570.40625 45.15625Q569.65625 44.046875 568.1406 44.046875Q566.125 44.046875 565.3594 45.703125L565.3594 51.953125Q566.1406 53.625 568.1719 53.625Q570.21875 53.625 570.875 51.609375Q571.1719 50.640625 571.1719 48.65625ZM585.4219 57.046875Q581.9375 57.046875 579.75 54.90625Q577.5625 52.765625 577.5625 49.203125L577.5625 48.796875Q577.5625 46.40625 578.4844 44.53125Q579.40625 42.640625 581.09375 41.625Q582.78125 40.609375 584.9531 40.609375Q588.2031 40.609375 590.0625 42.65625Q591.9375 44.703125 591.9375 48.46875L591.9375 50.203125L581.84375 50.203125Q582.0469 51.75 583.0781 52.6875Q584.125 53.625 585.7031 53.625Q588.1406 53.625 589.5156 51.859375L591.6094 54.1875Q590.65625 55.53125 589.03125 56.296875Q587.40625 57.046875 585.4219 57.046875ZM584.9375 44.03125Q583.6719 44.03125 582.8906 44.890625Q582.1094 45.734375 581.8906 47.3125L587.78125 47.3125L587.78125 46.984375Q587.75 45.578125 587.0156 44.8125Q586.28125 44.03125 584.9375 44.03125ZM603.03125 44.875Q602.1719 44.75 601.5156 44.75Q599.1094 44.75 598.3594 46.375L598.3594 56.75L594.125 56.75L594.125 40.90625L598.125 40.90625L598.25 42.796875Q599.5156 40.609375 601.7656 40.609375Q602.46875 40.609375 603.09375 40.796875L603.03125 44.875ZM613.7031 52.375Q613.7031 51.59375 612.9375 51.15625Q612.1719 50.703125 610.46875 50.34375Q604.8125 49.15625 604.8125 45.546875Q604.8125 43.4375 606.5625 42.03125Q608.3125 40.609375 611.1406 40.609375Q614.1719 40.609375 615.96875 42.03125Q617.78125 43.453125 617.78125 45.71875L613.5469 45.71875Q613.5469 44.8125 612.9531 44.21875Q612.375 43.625 611.125 43.625Q610.0625 43.625 609.46875 44.109375Q608.8906 44.59375 608.8906 45.34375Q608.8906 46.046875 609.5469 46.484375Q610.21875 46.90625 611.7969 47.21875Q613.3906 47.53125 614.46875 47.9375Q617.8281 49.15625 617.8281 52.1875Q617.8281 54.359375 615.96875 55.703125Q614.1094 57.046875 611.15625 57.046875Q609.1719 57.046875 607.625 56.34375Q606.0781 55.625 605.2031 54.390625Q604.3281 53.140625 604.3281 51.703125L608.3281 51.703125Q608.3906 52.84375 609.1719 53.453125Q609.9531 54.046875 611.25 54.046875Q612.46875 54.046875 613.0781 53.578125Q613.7031 53.109375 613.7031 52.375ZM624.25 42.625Q625.9375 40.609375 628.4844 40.609375Q633.6406 40.609375 633.71875 46.59375L633.71875 56.75L629.4844 56.75L629.4844 46.71875Q629.4844 45.359375 628.8906 44.703125Q628.3125 44.046875 626.9531 44.046875Q625.09375 44.046875 624.25 45.484375L624.25 56.75L620.03125 56.75L620.03125 34.25L624.25 34.25L624.25 42.625ZM641.59375 56.75L637.34375 56.75L637.34375 40.90625L641.59375 40.90625L641.59375 56.75ZM637.09375 36.796875Q637.09375 35.84375 637.7344 35.234375Q638.375 34.609375 639.46875 34.609375Q640.5469 34.609375 641.1875 35.234375Q641.84375 35.84375 641.84375 36.796875Q641.84375 37.765625 641.1875 38.390625Q640.5469 39.0 639.46875 39.0Q638.40625 39.0 637.75 38.390625Q637.09375 37.765625 637.09375 36.796875ZM659.3906 48.96875Q659.3906 52.640625 657.71875 54.84375Q656.0625 57.046875 653.2344 57.046875Q650.84375 57.046875 649.3594 55.375L649.3594 62.84375L645.125 62.84375L645.125 40.90625L649.0469 40.90625L649.2031 42.453125Q650.7344 40.609375 653.21875 40.609375Q656.1406 40.609375 657.7656 42.78125Q659.3906 44.9375 659.3906 48.75L659.3906 48.96875ZM655.15625 48.65625Q655.15625 46.453125 654.375 45.25Q653.59375 44.046875 652.09375 44.046875Q650.1094 44.046875 649.3594 45.578125L649.3594 52.0625Q650.1406 53.625 652.125 53.625Q655.15625 53.625 655.15625 48.65625Z" fill-rule="nonzero"/></svg>