<svg version="1.1" viewBox="0.0 0.0 675.0 413.0" fill="none" stroke="none" stroke-linecap="square" stroke-miterlimit="10" width="675" height="413" xmlns:xlink="http://www.w3.org/1999/xlink" xmlns="http://www.w3.org/2000/svg"><path fill="#000000" d="M0 0L675.0 0L675.0 413.0L0 413.0L0 0Z" fill-rule="nonzero"/><path stroke="#333333" stroke-width="1.0" stroke-linecap="butt" d="M80.5 72.5L80.5 326.5" fill-rule="nonzero"/><path stroke="#333333" stroke-width="1.0" stroke-linecap="butt" d="M137.5 72.5L137.5 326.5" fill-rule="nonzero"/><path stroke="#333333" stroke-width="1.0" stroke-linecap="butt" d="M192.5 72.5L192.5 326.5" fill-rule="nonzero"/><path stroke="#333333" stroke-width="1.0" stroke-linecap="butt" d="M249.5 72.5L249.5 326.5" fill-rule="nonzero"/><path stroke="#333333" stroke-width="1.0" stroke-linecap="butt" d="M306.5 72.5L306.5 326.5" fill-rule="nonzero"/><path stroke="#333333" stroke-width="1.0" stroke-linecap="butt" d="M364.5 72.5L364.5 326.5" fill-rule="nonzero"/><path stroke="#333333" stroke-width="1.0" stroke-linecap="butt" d="M420.5 72.5L420.5 326.5" fill-rule="nonzero"/><path stroke="#333333" stroke-width="1.0" stroke-linecap="butt" d="M477.5 72.5L477.5 326.5" fill-rule="nonzero"/><path stroke="#333333" stroke-width="1.0" stroke-linecap="butt" d="M533.5 72.5L533.5 326.5" fill-rule="nonzero"/><path stroke="#333333" stroke-width="1.0" stroke-linecap="butt" d="M590.5 72.5L590.5 326.5" fill-rule="nonzero"/><path stroke="#333333" stroke-width="1.0" stroke-linecap="butt" d="M647.5 72.5L647.5 326.5" fill-rule="nonzero"/><path stroke="#cccccc" stroke-width="1.0" stroke-linecap="butt" d="M73.5 326.5L654.5 326.5" fill-rule="nonzero"/><path stroke="#333333" stroke-width="1.0" stroke-linecap="butt" d="M73.5 276.5L654.5 276.5" fill-rule="nonzero"/><path stroke="#333333" stroke-width="1.0" stroke-linecap="butt" d="M73.5 225.5L654.5 225.5" fill-rule="nonzero"/><path stroke="#333333" stroke-width="1.0" stroke-linecap="butt" d="M73.5 174.5L654.5 174.5" fill-rule="nonzero"/><path stroke="#333333" stroke-width="1.0" stroke-linecap="butt" d="M73.5 123.5L654.5 123.5" fill-rule="nonzero"/><path stroke="#333333" stroke-width="1.0" stroke-linecap="butt" d="M73.5 72.5L654.5 72.5" fill-rule="nonzero"/><clipPath id="id_0"><path d="M73.65 72.916664L654.35 72.916664L654.35 326.77246L73.65 326.77246L73.65 72.916664Z" clip-rule="nonzero"/></clipPath><path stroke="#4285f4" stroke-width="4.0" stroke-linecap="butt" clip-path="url(#id_0)" d="M80.485214 301.9301C80.485214 301.9301 99.1375 252.68347 108.463646 242.06078C117.78979 231.43808 127.73768 237.89078 137.3747 238.06508C147.0117 238.2394 157.58134 245.49045 166.28574 243.10666C174.99014 240.72287 183.69455 227.70253 192.39894 224.25026C201.10335 220.79797 211.98384 223.78564 221.31 222.19402C230.63614 220.6024 239.96228 215.8958 249.28842 214.6342C258.61456 213.37259 268.87332 216.98993 278.19946 214.62404C287.5256 212.25816 296.85175 199.7893 306.17792 200.43858C315.50406 201.08784 325.45193 217.88779 335.08896 219.12236C344.72598 220.35695 354.67386 210.64304 364.0 207.8461C373.32614 205.04915 382.65228 202.2771 391.97842 201.97694C401.30457 201.6768 411.56332 211.55383 420.8895 206.1808C430.21564 200.80777 439.54178 171.62543 448.86792 169.87434C458.19406 168.12326 468.14194 194.90536 477.77896 196.53429C487.416 198.1632 497.67474 188.01016 506.69 179.6478C515.70526 171.28543 524.7206 153.52693 533.73584 145.27065C542.7511 137.01436 553.32074 133.705 562.64685 129.06448C571.973 124.42398 581.2992 121.47324 590.6253 116.9048C599.9515 112.33635 610.2102 106.77584 619.5364 101.14543C628.8625 95.515015 647.5148 82.61396 647.5148 82.61396" fill-rule="nonzero"/><path fill="#4285f4" clip-path="url(#id_0)" d="M84.985214 301.9301C84.985214 304.4154 82.97049 306.4301 80.485214 306.4301C77.99993 306.4301 75.985214 304.4154 75.985214 301.9301C75.985214 299.44485 77.99993 297.4301 80.485214 297.4301C82.97049 297.4301 84.985214 299.44485 84.985214 301.9301Z" fill-rule="nonzero"/><path fill="#4285f4" clip-path="url(#id_0)" d="M112.963646 242.06078C112.963646 244.54605 110.94893 246.56078 108.463646 246.56078C105.97836 246.56078 103.963646 244.54605 103.963646 242.06078C103.963646 239.5755 105.97836 237.56078 108.463646 237.56078C110.94893 237.56078 112.963646 239.5755 112.963646 242.06078Z" fill-rule="nonzero"/><path fill="#4285f4" clip-path="url(#id_0)" d="M141.8747 238.06508C141.8747 240.55037 139.85997 242.56508 137.3747 242.56508C134.8894 242.56508 132.8747 240.55037 132.8747 238.06508C132.8747 235.5798 134.8894 233.56508 137.3747 233.56508C139.85997 233.56508 141.8747 235.5798 141.8747 238.06508Z" fill-rule="nonzero"/><path fill="#4285f4" clip-path="url(#id_0)" d="M170.78574 243.10666C170.78574 245.59195 168.77103 247.60666 166.28574 247.60666C163.80046 247.60666 161.78574 245.59195 161.78574 243.10666C161.78574 240.62138 163.80046 238.60666 166.28574 238.60666C168.77103 238.60666 170.78574 240.62138 170.78574 243.10666Z" fill-rule="nonzero"/><path fill="#4285f4" clip-path="url(#id_0)" d="M196.89894 224.25026C196.89894 226.73553 194.88423 228.75026 192.39894 228.75026C189.91367 228.75026 187.89894 226.73553 187.89894 224.25026C187.89894 221.76497 189.91367 219.75026 192.39894 219.75026C194.88423 219.75026 196.89894 221.76497 196.89894 224.25026Z" fill-rule="nonzero"/><path fill="#4285f4" clip-path="url(#id_0)" d="M225.81 222.19402C225.81 224.6793 223.79527 226.69402 221.31 226.69402C218.8247 226.69402 216.81 224.6793 216.81 222.19402C216.81 219.70874 218.8247 217.69402 221.31 217.69402C223.79527 217.69402 225.81 219.70874 225.81 222.19402Z" fill-rule="nonzero"/><path fill="#4285f4" clip-path="url(#id_0)" d="M253.78842 214.6342C253.78842 217.11948 251.77371 219.1342 249.28842 219.1342C246.80315 219.1342 244.78842 217.11948 244.78842 214.6342C244.78842 212.14891 246.80315 210.1342 249.28842 210.1342C251.77371 210.1342 253.78842 212.14891 253.78842 214.6342Z" fill-rule="nonzero"/><path fill="#4285f4" clip-path="url(#id_0)" d="M282.69946 214.62404C282.69946 217.10933 280.68475 219.12404 278.19946 219.12404C275.7142 219.12404 273.69946 217.10933 273.69946 214.62404C273.69946 212.13876 275.7142 210.12404 278.19946 210.12404C280.68475 210.12404 282.69946 212.13876 282.69946 214.62404Z" fill-rule="nonzero"/><path fill="#4285f4" clip-path="url(#id_0)" d="M310.67792 200.43858C310.67792 202.92386 308.66318 204.93858 306.17792 204.93858C303.69263 204.93858 301.67792 202.92386 301.67792 200.43858C301.67792 197.9533 303.69263 195.93858 306.17792 195.93858C308.66318 195.93858 310.67792 197.9533 310.67792 200.43858Z" fill-rule="nonzero"/><path fill="#4285f4" clip-path="url(#id_0)" d="M339.58896 219.12236C339.58896 221.60765 337.57422 223.62236 335.08896 223.62236C332.60367 223.62236 330.58896 221.60765 330.58896 219.12236C330.58896 216.63708 332.60367 214.62236 335.08896 214.62236C337.57422 214.62236 339.58896 216.63708 339.58896 219.12236Z" fill-rule="nonzero"/><path fill="#4285f4" clip-path="url(#id_0)" d="M368.5 207.8461C368.5 210.33138 366.4853 212.3461 364.0 212.3461C361.5147 212.3461 359.5 210.33138 359.5 207.8461C359.5 205.36081 361.5147 203.3461 364.0 203.3461C366.4853 203.3461 368.5 205.36081 368.5 207.8461Z" fill-rule="nonzero"/><path fill="#4285f4" clip-path="url(#id_0)" d="M396.47842 201.97694C396.47842 204.46223 394.4637 206.47694 391.97842 206.47694C389.49316 206.47694 387.47842 204.46223 387.47842 201.97694C387.47842 199.49167 389.49316 197.47694 391.97842 197.47694C394.4637 197.47694 396.47842 199.49167 396.47842 201.97694Z" fill-rule="nonzero"/><path fill="#4285f4" clip-path="url(#id_0)" d="M425.3895 206.1808C425.3895 208.66608 423.37476 210.6808 420.8895 210.6808C418.4042 210.6808 416.3895 208.66608 416.3895 206.1808C416.3895 203.69551 418.4042 201.6808 420.8895 201.6808C423.37476 201.6808 425.3895 203.69551 425.3895 206.1808Z" fill-rule="nonzero"/><path fill="#4285f4" clip-path="url(#id_0)" d="M453.36792 169.87434C453.36792 172.35962 451.35318 174.37434 448.86792 174.37434C446.38263 174.37434 444.36792 172.35962 444.36792 169.87434C444.36792 167.38907 446.38263 165.37434 448.86792 165.37434C451.35318 165.37434 453.36792 167.38907 453.36792 169.87434Z" fill-rule="nonzero"/><path fill="#4285f4" clip-path="url(#id_0)" d="M482.27896 196.53429C482.27896 199.01956 480.26425 201.03429 477.77896 201.03429C475.29367 201.03429 473.27896 199.01956 473.27896 196.53429C473.27896 194.049 475.29367 192.03429 477.77896 192.03429C480.26425 192.03429 482.27896 194.049 482.27896 196.53429Z" fill-rule="nonzero"/><path fill="#4285f4" clip-path="url(#id_0)" d="M511.19 179.6478C511.19 182.13307 509.1753 184.1478 506.69 184.1478C504.20474 184.1478 502.19 182.13307 502.19 179.6478C502.19 177.1625 504.20474 175.1478 506.69 175.1478C509.1753 175.1478 511.19 177.1625 511.19 179.6478Z" fill-rule="nonzero"/><path fill="#4285f4" clip-path="url(#id_0)" d="M538.23584 145.27065C538.23584 147.75592 536.2211 149.77065 533.73584 149.77065C531.25055 149.77065 529.23584 147.75592 529.23584 145.27065C529.23584 142.78535 531.25055 140.77065 533.73584 140.77065C536.2211 140.77065 538.23584 142.78535 538.23584 145.27065Z" fill-rule="nonzero"/><path fill="#4285f4" clip-path="url(#id_0)" d="M567.14685 129.06448C567.14685 131.54977 565.13214 133.56448 562.64685 133.56448C560.1616 133.56448 558.14685 131.54977 558.14685 129.06448C558.14685 126.57921 560.1616 124.56449 562.64685 124.56449C565.13214 124.56449 567.14685 126.57921 567.14685 129.06448Z" fill-rule="nonzero"/><path fill="#4285f4" clip-path="url(#id_0)" d="M595.1253 116.9048C595.1253 119.390076 593.1106 121.4048 590.6253 121.4048C588.14 121.4048 586.1253 119.390076 586.1253 116.9048C586.1253 114.41952 588.14 112.4048 590.6253 112.4048C593.1106 112.4048 595.1253 114.41952 595.1253 116.9048Z" fill-rule="nonzero"/><path fill="#4285f4" clip-path="url(#id_0)" d="M624.0364 101.14543C624.0364 103.630714 622.02167 105.64543 619.5364 105.64543C617.0511 105.64543 615.0364 103.630714 615.0364 101.14543C615.0364 98.66015 617.0511 96.64543 619.5364 96.64543C622.02167 96.64543 624.0364 98.66015 624.0364 101.14543Z" fill-rule="nonzero"/><path fill="#4285f4" clip-path="url(#id_0)" d="M652.0148 82.61396C652.0148 85.099236 650.00006 87.11396 647.5148 87.11396C645.0295 87.11396 643.0148 85.099236 643.0148 82.61396C643.0148 80.12868 645.0295 78.11396 647.5148 78.11396C650.00006 78.11396 652.0148 80.12868 652.0148 82.61396Z" fill-rule="nonzero"/><path fill="#efefef" d="M64.72813 327.4131Q64.72813 329.95996 63.853127 331.19434Q62.99375 332.4287 61.15 332.4287Q59.3375 332.4287 58.4625 331.2256Q57.5875 330.00684 57.55625 327.6162L57.55625 325.6787Q57.55625 323.1787 58.415627 321.95996Q59.290627 320.7412 61.134377 320.7412Q62.978127 320.7412 63.8375 321.9131Q64.7125 323.08496 64.72813 325.5381L64.72813 327.4131ZM63.290627 325.44434Q63.290627 323.6006 62.775 322.77246Q62.259377 321.9287 61.134377 321.9287Q60.025 321.9287 59.509377 322.77246Q59.009377 323.6006 58.99375 325.33496L58.99375 327.64746Q58.99375 329.4912 59.525 330.3662Q60.071877 331.2412 61.15 331.2412Q62.228127 331.2412 62.74375 330.4131Q63.259377 329.58496 63.290627 327.8037L63.290627 325.44434Z" fill-rule="nonzero"/><path fill="#efefef" d="M26.353125 281.50128L24.9 281.50128L24.9 271.86066L21.978125 272.93878L21.978125 271.62628L26.11875 270.06378L26.353125 270.06378L26.353125 281.50128ZM37.728127 276.6419Q37.728127 279.18878 36.853127 280.42316Q35.99375 281.65753 34.15 281.65753Q32.3375 281.65753 31.4625 280.4544Q30.5875 279.23566 30.55625 276.84503L30.55625 274.90753Q30.55625 272.40753 31.415625 271.18878Q32.290627 269.97003 34.134377 269.97003Q35.978127 269.97003 36.8375 271.1419Q37.7125 272.31378 37.728127 274.7669L37.728127 276.6419ZM36.290627 274.67316Q36.290627 272.8294 35.775 272.00128Q35.259377 271.15753 34.134377 271.15753Q33.025 271.15753 32.509377 272.00128Q32.009377 272.8294 31.99375 274.56378L31.99375 276.87628Q31.99375 278.72003 32.525 279.59503Q33.071877 280.47003 34.15 280.47003Q35.228127 280.47003 35.74375 279.6419Q36.259377 278.81378 36.290627 277.03253L36.290627 274.67316ZM46.728127 276.6419Q46.728127 279.18878 45.853127 280.42316Q44.99375 281.65753 43.15 281.65753Q41.3375 281.65753 40.4625 280.4544Q39.5875 279.23566 39.55625 276.84503L39.55625 274.90753Q39.55625 272.40753 40.415627 271.18878Q41.290627 269.97003 43.134377 269.97003Q44.978127 269.97003 45.8375 271.1419Q46.7125 272.31378 46.728127 274.7669L46.728127 276.6419ZM45.290627 274.67316Q45.290627 272.8294 44.775 272.00128Q44.259377 271.15753 43.134377 271.15753Q42.025 271.15753 41.509377 272.00128Q41.009377 272.8294 40.99375 274.56378L40.99375 276.87628Q40.99375 278.72003 41.525 279.59503Q42.071877 280.47003 43.15 280.47003Q44.228127 280.47003 44.74375 279.6419Q45.259377 278.81378 45.290627 277.03253L45.290627 274.67316ZM55.728127 276.6419Q55.728127 279.18878 54.853127 280.42316Q53.99375 281.65753 52.15 281.65753Q50.3375 281.65753 49.4625 280.4544Q48.5875 279.23566 48.55625 276.84503L48.55625 274.90753Q48.55625 272.40753 49.415627 271.18878Q50.290627 269.97003 52.134377 269.97003Q53.978127 269.97003 54.8375 271.1419Q55.7125 272.31378 55.728127 274.7669L55.728127 276.6419ZM54.290627 274.67316Q54.290627 272.8294 53.775 272.00128Q53.259377 271.15753 52.134377 271.15753Q51.025 271.15753 50.509377 272.00128Q50.009377 272.8294 49.99375 274.56378L49.99375 276.87628Q49.99375 278.72003 50.525 279.59503Q51.071877 280.47003 52.15 280.47003Q53.228127 280.47003 53.74375 279.6419Q54.259377 278.81378 54.290627 277.03253L54.290627 274.67316ZM64.72813 276.6419Q64.72813 279.18878 63.853127 280.42316Q62.99375 281.65753 61.15 281.65753Q59.3375 281.65753 58.4625 280.4544Q57.5875 279.23566 57.55625 276.84503L57.55625 274.90753Q57.55625 272.40753 58.415627 271.18878Q59.290627 269.97003 61.134377 269.97003Q62.978127 269.97003 63.8375 271.1419Q64.7125 272.31378 64.72813 274.7669L64.72813 276.6419ZM63.290627 274.67316Q63.290627 272.8294 62.775 272.00128Q62.259377 271.15753 61.134377 271.15753Q60.025 271.15753 59.509377 272.00128Q59.009377 272.8294 58.99375 274.56378L58.99375 276.87628Q58.99375 278.72003 59.525 279.59503Q60.071877 280.47003 61.15 280.47003Q62.228127 280.47003 62.74375 279.6419Q63.259377 278.81378 63.290627 277.03253L63.290627 274.67316Z" fill-rule="nonzero"/><path fill="#efefef" d="M29.05625 230.73013L21.603125 230.73013L21.603125 229.68326L25.540625 225.30826Q26.415625 224.32388 26.74375 223.69888Q27.071875 223.07388 27.071875 222.41763Q27.071875 221.52701 26.525 220.96451Q25.99375 220.38638 25.103125 220.38638Q24.025 220.38638 23.415625 220.99576Q22.821875 221.60513 22.821875 222.69888L21.384375 222.69888Q21.384375 221.13638 22.384375 220.16763Q23.4 219.19888 25.103125 219.19888Q26.68125 219.19888 27.603125 220.02701Q28.525 220.85513 28.525 222.24576Q28.525 223.91763 26.384375 226.24576L23.3375 229.54263L29.05625 229.54263L29.05625 230.73013ZM37.728127 225.87076Q37.728127 228.41763 36.853127 229.65201Q35.99375 230.88638 34.15 230.88638Q32.3375 230.88638 31.4625 229.68326Q30.5875 228.46451 30.55625 226.07388L30.55625 224.13638Q30.55625 221.63638 31.415625 220.41763Q32.290627 219.19888 34.134377 219.19888Q35.978127 219.19888 36.8375 220.37076Q37.7125 221.54263 37.728127 223.99576L37.728127 225.87076ZM36.290627 223.90201Q36.290627 222.05826 35.775 221.23013Q35.259377 220.38638 34.134377 220.38638Q33.025 220.38638 32.509377 221.23013Q32.009377 222.05826 31.99375 223.79263L31.99375 226.10513Q31.99375 227.94888 32.525 228.82388Q33.071877 229.69888 34.15 229.69888Q35.228127 229.69888 35.74375 228.87076Q36.259377 228.04263 36.290627 226.26138L36.290627 223.90201ZM46.728127 225.87076Q46.728127 228.41763 45.853127 229.65201Q44.99375 230.88638 43.15 230.88638Q41.3375 230.88638 40.4625 229.68326Q39.5875 228.46451 39.55625 226.07388L39.55625 224.13638Q39.55625 221.63638 40.415627 220.41763Q41.290627 219.19888 43.134377 219.19888Q44.978127 219.19888 45.8375 220.37076Q46.7125 221.54263 46.728127 223.99576L46.728127 225.87076ZM45.290627 223.90201Q45.290627 222.05826 44.775 221.23013Q44.259377 220.38638 43.134377 220.38638Q42.025 220.38638 41.509377 221.23013Q41.009377 222.05826 40.99375 223.79263L40.99375 226.10513Q40.99375 227.94888 41.525 228.82388Q42.071877 229.69888 43.15 229.69888Q44.228127 229.69888 44.74375 228.87076Q45.259377 228.04263 45.290627 226.26138L45.290627 223.90201ZM55.728127 225.87076Q55.728127 228.41763 54.853127 229.65201Q53.99375 230.88638 52.15 230.88638Q50.3375 230.88638 49.4625 229.68326Q48.5875 228.46451 48.55625 226.07388L48.55625 224.13638Q48.55625 221.63638 49.415627 220.41763Q50.290627 219.19888 52.134377 219.19888Q53.978127 219.19888 54.8375 220.37076Q55.7125 221.54263 55.728127 223.99576L55.728127 225.87076ZM54.290627 223.90201Q54.290627 222.05826 53.775 221.23013Q53.259377 220.38638 52.134377 220.38638Q51.025 220.38638 50.509377 221.23013Q50.009377 222.05826 49.99375 223.79263L49.99375 226.10513Q49.99375 227.94888 50.525 228.82388Q51.071877 229.69888 52.15 229.69888Q53.228127 229.69888 53.74375 228.87076Q54.259377 228.04263 54.290627 226.26138L54.290627 223.90201ZM64.72813 225.87076Q64.72813 228.41763 63.853127 229.65201Q62.99375 230.88638 61.15 230.88638Q59.3375 230.88638 58.4625 229.68326Q57.5875 228.46451 57.55625 226.07388L57.55625 224.13638Q57.55625 221.63638 58.415627 220.41763Q59.290627 219.19888 61.134377 219.19888Q62.978127 219.19888 63.8375 220.37076Q64.7125 221.54263 64.72813 223.99576L64.72813 225.87076ZM63.290627 223.90201Q63.290627 222.05826 62.775 221.23013Q62.259377 220.38638 61.134377 220.38638Q60.025 220.38638 59.509377 221.23013Q59.009377 222.05826 58.99375 223.79263L58.99375 226.10513Q58.99375 227.94888 59.525 228.82388Q60.071877 229.69888 61.15 229.69888Q62.228127 229.69888 62.74375 228.87076Q63.259377 228.04263 63.290627 226.26138L63.290627 223.90201Z" fill-rule="nonzero"/><path fill="#efefef" d="M23.696875 173.56836L24.790625 173.56836Q25.80625 173.55273 26.384375 173.03711Q26.978125 172.50586 26.978125 171.61523Q26.978125 169.61523 24.99375 169.61523Q24.05625 169.61523 23.49375 170.14648Q22.93125 170.67773 22.93125 171.56836L21.49375 171.56836Q21.49375 170.20898 22.478125 169.31836Q23.4625 168.42773 24.99375 168.42773Q26.603125 168.42773 27.509375 169.28711Q28.43125 170.13086 28.43125 171.64648Q28.43125 172.38086 27.946875 173.08398Q27.4625 173.77148 26.634375 174.11523Q27.571875 174.41211 28.0875 175.09961Q28.603125 175.78711 28.603125 176.78711Q28.603125 178.31836 27.603125 179.22461Q26.603125 180.11523 24.99375 180.11523Q23.4 180.11523 22.384375 179.25586Q21.384375 178.38086 21.384375 176.95898L22.8375 176.95898Q22.8375 177.84961 23.415625 178.39648Q24.009375 178.92773 24.99375 178.92773Q26.040625 178.92773 26.5875 178.38086Q27.15 177.83398 27.15 176.81836Q27.15 175.81836 26.540625 175.28711Q25.93125 174.75586 24.790625 174.74023L23.696875 174.74023L23.696875 173.56836ZM37.728127 175.09961Q37.728127 177.64648 36.853127 178.88086Q35.99375 180.11523 34.15 180.11523Q32.3375 180.11523 31.4625 178.91211Q30.5875 177.69336 30.55625 175.30273L30.55625 173.36523Q30.55625 170.86523 31.415625 169.64648Q32.290627 168.42773 34.134377 168.42773Q35.978127 168.42773 36.8375 169.59961Q37.7125 170.77148 37.728127 173.22461L37.728127 175.09961ZM36.290627 173.13086Q36.290627 171.28711 35.775 170.45898Q35.259377 169.61523 34.134377 169.61523Q33.025 169.61523 32.509377 170.45898Q32.009377 171.28711 31.99375 173.02148L31.99375 175.33398Q31.99375 177.17773 32.525 178.05273Q33.071877 178.92773 34.15 178.92773Q35.228127 178.92773 35.74375 178.09961Q36.259377 177.27148 36.290627 175.49023L36.290627 173.13086ZM46.728127 175.09961Q46.728127 177.64648 45.853127 178.88086Q44.99375 180.11523 43.15 180.11523Q41.3375 180.11523 40.4625 178.91211Q39.5875 177.69336 39.55625 175.30273L39.55625 173.36523Q39.55625 170.86523 40.415627 169.64648Q41.290627 168.42773 43.134377 168.42773Q44.978127 168.42773 45.8375 169.59961Q46.7125 170.77148 46.728127 173.22461L46.728127 175.09961ZM45.290627 173.13086Q45.290627 171.28711 44.775 170.45898Q44.259377 169.61523 43.134377 169.61523Q42.025 169.61523 41.509377 170.45898Q41.009377 171.28711 40.99375 173.02148L40.99375 175.33398Q40.99375 177.17773 41.525 178.05273Q42.071877 178.92773 43.15 178.92773Q44.228127 178.92773 44.74375 178.09961Q45.259377 177.27148 45.290627 175.49023L45.290627 173.13086ZM55.728127 175.09961Q55.728127 177.64648 54.853127 178.88086Q53.99375 180.11523 52.15 180.11523Q50.3375 180.11523 49.4625 178.91211Q48.5875 177.69336 48.55625 175.30273L48.55625 173.36523Q48.55625 170.86523 49.415627 169.64648Q50.290627 168.42773 52.134377 168.42773Q53.978127 168.42773 54.8375 169.59961Q55.7125 170.77148 55.728127 173.22461L55.728127 175.09961ZM54.290627 173.13086Q54.290627 171.28711 53.775 170.45898Q53.259377 169.61523 52.134377 169.61523Q51.025 169.61523 50.509377 170.45898Q50.009377 171.28711 49.99375 173.02148L49.99375 175.33398Q49.99375 177.17773 50.525 178.05273Q51.071877 178.92773 52.15 178.92773Q53.228127 178.92773 53.74375 178.09961Q54.259377 177.27148 54.290627 175.49023L54.290627 173.13086ZM64.72813 175.09961Q64.72813 177.64648 63.853127 178.88086Q62.99375 180.11523 61.15 180.11523Q59.3375 180.11523 58.4625 178.91211Q57.5875 177.69336 57.55625 175.30273L57.55625 173.36523Q57.55625 170.86523 58.415627 169.64648Q59.290627 168.42773 61.134377 168.42773Q62.978127 168.42773 63.8375 169.59961Q64.7125 170.77148 64.72813 173.22461L64.72813 175.09961ZM63.290627 173.13086Q63.290627 171.28711 62.775 170.45898Q62.259377 169.61523 61.134377 169.61523Q60.025 169.61523 59.509377 170.45898Q59.009377 171.28711 58.99375 173.02148L58.99375 175.33398Q58.99375 177.17773 59.525 178.05273Q60.071877 178.92773 61.15 178.92773Q62.228127 178.92773 62.74375 178.09961Q63.259377 177.27148 63.290627 175.49023L63.290627 173.13086Z" fill-rule="nonzero"/><path fill="#efefef" d="M27.696875 125.359695L29.275 125.359695L29.275 126.547195L27.696875 126.547195L27.696875 129.18782L26.24375 129.18782L26.24375 126.547195L21.071875 126.547195L21.071875 125.68782L26.165625 117.81282L27.696875 117.81282L27.696875 125.359695ZM22.7125 125.359695L26.24375 125.359695L26.24375 119.78157L26.071875 120.09407L22.7125 125.359695ZM37.728127 124.328445Q37.728127 126.87532 36.853127 128.1097Q35.99375 129.34407 34.15 129.34407Q32.3375 129.34407 31.4625 128.14095Q30.5875 126.922195 30.55625 124.53157L30.55625 122.59407Q30.55625 120.09407 31.415625 118.87532Q32.290627 117.65657 34.134377 117.65657Q35.978127 117.65657 36.8375 118.828445Q37.7125 120.00032 37.728127 122.453445L37.728127 124.328445ZM36.290627 122.359695Q36.290627 120.515945 35.775 119.68782Q35.259377 118.84407 34.134377 118.84407Q33.025 118.84407 32.509377 119.68782Q32.009377 120.515945 31.99375 122.25032L31.99375 124.56282Q31.99375 126.40657 32.525 127.28157Q33.071877 128.15657 34.15 128.15657Q35.228127 128.15657 35.74375 127.328445Q36.259377 126.50032 36.290627 124.71907L36.290627 122.359695ZM46.728127 124.328445Q46.728127 126.87532 45.853127 128.1097Q44.99375 129.34407 43.15 129.34407Q41.3375 129.34407 40.4625 128.14095Q39.5875 126.922195 39.55625 124.53157L39.55625 122.59407Q39.55625 120.09407 40.415627 118.87532Q41.290627 117.65657 43.134377 117.65657Q44.978127 117.65657 45.8375 118.828445Q46.7125 120.00032 46.728127 122.453445L46.728127 124.328445ZM45.290627 122.359695Q45.290627 120.515945 44.775 119.68782Q44.259377 118.84407 43.134377 118.84407Q42.025 118.84407 41.509377 119.68782Q41.009377 120.515945 40.99375 122.25032L40.99375 124.56282Q40.99375 126.40657 41.525 127.28157Q42.071877 128.15657 43.15 128.15657Q44.228127 128.15657 44.74375 127.328445Q45.259377 126.50032 45.290627 124.71907L45.290627 122.359695ZM55.728127 124.328445Q55.728127 126.87532 54.853127 128.1097Q53.99375 129.34407 52.15 129.34407Q50.3375 129.34407 49.4625 128.14095Q48.5875 126.922195 48.55625 124.53157L48.55625 122.59407Q48.55625 120.09407 49.415627 118.87532Q50.290627 117.65657 52.134377 117.65657Q53.978127 117.65657 54.8375 118.828445Q55.7125 120.00032 55.728127 122.453445L55.728127 124.328445ZM54.290627 122.359695Q54.290627 120.515945 53.775 119.68782Q53.259377 118.84407 52.134377 118.84407Q51.025 118.84407 50.509377 119.68782Q50.009377 120.515945 49.99375 122.25032L49.99375 124.56282Q49.99375 126.40657 50.525 127.28157Q51.071877 128.15657 52.15 128.15657Q53.228127 128.15657 53.74375 127.328445Q54.259377 126.50032 54.290627 124.71907L54.290627 122.359695ZM64.72813 124.328445Q64.72813 126.87532 63.853127 128.1097Q62.99375 129.34407 61.15 129.34407Q59.3375 129.34407 58.4625 128.14095Q57.5875 126.922195 57.55625 124.53157L57.55625 122.59407Q57.55625 120.09407 58.415627 118.87532Q59.290627 117.65657 61.134377 117.65657Q62.978127 117.65657 63.8375 118.828445Q64.7125 120.00032 64.72813 122.453445L64.72813 124.328445ZM63.290627 122.359695Q63.290627 120.515945 62.775 119.68782Q62.259377 118.84407 61.134377 118.84407Q60.025 118.84407 59.509377 119.68782Q59.009377 120.515945 58.99375 122.25032L58.99375 124.56282Q58.99375 126.40657 59.525 127.28157Q60.071877 128.15657 61.15 128.15657Q62.228127 128.15657 62.74375 127.328445Q63.259377 126.50032 63.290627 124.71907L63.290627 122.359695Z" fill-rule="nonzero"/><path fill="#efefef" d="M22.259375 72.71354L22.8375 67.041664L28.665625 67.041664L28.665625 68.36979L24.071875 68.36979L23.728125 71.479164Q24.55625 70.979164 25.61875 70.979164Q27.18125 70.979164 28.0875 72.010414Q29.009375 73.041664 29.009375 74.791664Q29.009375 76.541664 28.05625 77.55729Q27.103125 78.572914 25.4 78.572914Q23.9 78.572914 22.946875 77.74479Q21.99375 76.90104 21.853125 75.416664L23.228125 75.416664Q23.353125 76.40104 23.915625 76.90104Q24.478125 77.385414 25.4 77.385414Q26.415625 77.385414 26.978125 76.697914Q27.55625 76.010414 27.55625 74.80729Q27.55625 73.666664 26.93125 72.979164Q26.321875 72.27604 25.290625 72.27604Q24.3375 72.27604 23.80625 72.697914L23.415625 73.010414L22.259375 72.71354ZM37.728127 73.55729Q37.728127 76.104164 36.853127 77.33854Q35.99375 78.572914 34.15 78.572914Q32.3375 78.572914 31.4625 77.36979Q30.5875 76.15104 30.55625 73.760414L30.55625 71.822914Q30.55625 69.322914 31.415625 68.104164Q32.290627 66.885414 34.134377 66.885414Q35.978127 66.885414 36.8375 68.05729Q37.7125 69.229164 37.728127 71.68229L37.728127 73.55729ZM36.290627 71.58854Q36.290627 69.74479 35.775 68.916664Q35.259377 68.072914 34.134377 68.072914Q33.025 68.072914 32.509377 68.916664Q32.009377 69.74479 31.99375 71.479164L31.99375 73.791664Q31.99375 75.635414 32.525 76.510414Q33.071877 77.385414 34.15 77.385414Q35.228127 77.385414 35.74375 76.55729Q36.259377 75.729164 36.290627 73.947914L36.290627 71.58854ZM46.728127 73.55729Q46.728127 76.104164 45.853127 77.33854Q44.99375 78.572914 43.15 78.572914Q41.3375 78.572914 40.4625 77.36979Q39.5875 76.15104 39.55625 73.760414L39.55625 71.822914Q39.55625 69.322914 40.415627 68.104164Q41.290627 66.885414 43.134377 66.885414Q44.978127 66.885414 45.8375 68.05729Q46.7125 69.229164 46.728127 71.68229L46.728127 73.55729ZM45.290627 71.58854Q45.290627 69.74479 44.775 68.916664Q44.259377 68.072914 43.134377 68.072914Q42.025 68.072914 41.509377 68.916664Q41.009377 69.74479 40.99375 71.479164L40.99375 73.791664Q40.99375 75.635414 41.525 76.510414Q42.071877 77.385414 43.15 77.385414Q44.228127 77.385414 44.74375 76.55729Q45.259377 75.729164 45.290627 73.947914L45.290627 71.58854ZM55.728127 73.55729Q55.728127 76.104164 54.853127 77.33854Q53.99375 78.572914 52.15 78.572914Q50.3375 78.572914 49.4625 77.36979Q48.5875 76.15104 48.55625 73.760414L48.55625 71.822914Q48.55625 69.322914 49.415627 68.104164Q50.290627 66.885414 52.134377 66.885414Q53.978127 66.885414 54.8375 68.05729Q55.7125 69.229164 55.728127 71.68229L55.728127 73.55729ZM54.290627 71.58854Q54.290627 69.74479 53.775 68.916664Q53.259377 68.072914 52.134377 68.072914Q51.025 68.072914 50.509377 68.916664Q50.009377 69.74479 49.99375 71.479164L49.99375 73.791664Q49.99375 75.635414 50.525 76.510414Q51.071877 77.385414 52.15 77.385414Q53.228127 77.385414 53.74375 76.55729Q54.259377 75.729164 54.290627 73.947914L54.290627 71.58854ZM64.72813 73.55729Q64.72813 76.104164 63.853127 77.33854Q62.99375 78.572914 61.15 78.572914Q59.3375 78.572914 58.4625 77.36979Q57.5875 76.15104 57.55625 73.760414L57.55625 71.822914Q57.55625 69.322914 58.415627 68.104164Q59.290627 66.885414 61.134377 66.885414Q62.978127 66.885414 63.8375 68.05729Q64.7125 69.229164 64.72813 71.68229L64.72813 73.55729ZM63.290627 71.58854Q63.290627 69.74479 62.775 68.916664Q62.259377 68.072914 61.134377 68.072914Q60.025 68.072914 59.509377 68.916664Q59.009377 69.74479 58.99375 71.479164L58.99375 73.791664Q58.99375 75.635414 59.525 76.510414Q60.071877 77.385414 61.15 77.385414Q62.228127 77.385414 62.74375 76.55729Q63.259377 75.729164 63.290627 73.947914L63.290627 71.58854Z" fill-rule="nonzero"/><path fill="#efefef" d="M63.70149 387.81998L59.974926 394.27457L59.068306 393.75113L57.248196 388.15366Q56.833202 386.90372 56.455997 386.30704Q56.078796 385.71036 55.510468 385.38223Q54.739162 384.93692 53.978584 385.1293Q53.212288 385.3003 52.766975 386.07162Q52.227913 387.00528 52.45096 387.8377Q52.68182 388.65662 53.629036 389.2035L52.910286 390.4484Q51.55712 389.66714 51.21816 388.31674Q50.88701 386.95282 51.73857 385.47787Q52.527634 384.11118 53.70575 383.72687Q54.883865 383.34256 56.08818 384.03787Q57.536068 384.8738 58.48197 387.8917L59.81371 392.1788L62.673084 387.22623L63.70149 387.81998ZM63.829086 377.88022Q66.034744 379.15366 66.666245 380.52863Q67.30556 381.89005 66.38368 383.4868Q65.47743 385.05646 63.997993 385.21268Q62.505028 385.36105 60.41906 384.1928L58.741135 383.22406Q56.576073 381.97406 55.95029 380.62045Q55.33232 379.2533 56.254196 377.65656Q57.17607 376.05984 58.620632 375.90152Q60.073006 375.7297 62.205288 376.94272L63.829086 377.88022ZM61.405346 378.14078Q59.808613 377.2189 58.833622 377.25137Q57.8451 377.27603 57.2826 378.2503Q56.727913 379.21106 57.20081 380.0795Q57.667988 380.92657 59.16219 381.80728L61.16487 382.96353Q62.76161 383.8854 63.785004 383.86282Q64.816216 383.82672 65.35528 382.89304Q65.89434 381.95935 65.434975 381.09875Q64.97561 380.23813 63.448627 379.32047L61.405346 378.14078ZM71.34993 374.5725L70.62337 375.83093L62.274338 371.01062L61.747086 374.0801L60.610428 373.42386L61.327576 369.05673L61.444763 368.85376L71.34993 374.5725ZM69.64021 360.7213Q70.370926 361.1432 70.72622 361.87155Q71.0758 362.57855 71.017746 363.4291Q71.80135 362.85312 72.69515 362.77374Q73.58895 362.6944 74.38732 363.15533Q75.67282 363.89752 75.930595 365.20105Q76.19618 366.49103 75.38368 367.89832Q74.56337 369.31915 73.305595 369.74768Q72.04211 370.15485 70.770134 369.42047Q69.97176 368.95953 69.58578 368.15933Q69.19407 367.3378 69.31462 366.379Q68.60705 366.85455 67.81997 366.9053Q67.01936 366.94827 66.28865 366.5264Q65.04374 365.80765 64.77397 364.5874Q64.504196 363.36716 65.26201 362.05457Q66.01201 360.75555 67.20366 360.37906Q68.3953 360.00256 69.64021 360.7213ZM73.6415 364.3846Q72.81607 363.90805 71.997185 364.13892Q71.164764 364.36197 70.67258 365.21445Q70.1882 366.0534 70.405525 366.8645Q70.63067 367.66205 71.46963 368.14642Q72.30859 368.6308 73.07698 368.4249Q73.83965 368.19766 74.35528 367.30457Q74.86309 366.42502 74.67854 365.6509Q74.48047 364.869 73.6415 364.3846ZM66.29041 362.64832Q65.860725 363.39258 66.055176 364.1183Q66.24391 364.82263 67.02875 365.27576Q67.786514 365.71326 68.50441 365.53235Q69.2223 365.3514 69.651985 364.60718Q70.089485 363.8494 69.88722 363.13724Q69.692764 362.41153 68.948524 361.98184Q68.19076 361.54434 67.44371 361.7445Q66.704475 361.93115 66.29041 362.64832ZM79.04617 363.21097L78.42117 364.2935L70.092636 354.00018L70.70982 352.93118L79.04617 363.21097ZM83.84993 352.92188L83.12337 354.1803L74.77434 349.36L74.247086 352.42947L73.11043 351.77322L73.827576 347.4061L73.94476 347.20312L83.84993 352.92188ZM88.34993 345.12762L87.62337 346.38608L79.27434 341.56577L78.747086 344.63525L77.61043 343.979L78.327576 339.61185L78.44476 339.40887L88.34993 345.12762Z" fill-rule="nonzero"/><path fill="#efefef" d="M125.09097 380.02576L121.36441 386.48035L120.45779 385.9569L118.63768 380.35944Q118.22268 379.10947 117.84548 378.51282Q117.46828 377.91614 116.89995 377.588Q116.12865 377.1427 115.368065 377.33505Q114.60177 377.50607 114.156456 378.27737Q113.61739 379.21106 113.84044 380.0435Q114.071304 380.86237 115.01852 381.40924L114.29977 382.65417Q112.9466 381.87292 112.60764 380.52252Q112.27649 379.15857 113.12805 377.68362Q113.917114 376.31693 115.09523 375.93262Q116.273346 375.54834 117.47766 376.24365Q118.925545 377.0796 119.87145 380.09747L121.20319 384.38458L124.06257 379.432L125.09097 380.02576ZM125.21857 370.086Q127.424225 371.35944 128.05573 372.7344Q128.69504 374.09583 127.77316 375.69257Q126.86691 377.26224 125.387474 377.41843Q123.89451 377.56683 121.80854 376.3986L120.130615 375.42984Q117.96555 374.17984 117.33977 372.82623Q116.7218 371.45908 117.64368 369.86234Q118.56555 368.2656 120.01012 368.1073Q121.46249 367.93546 123.594765 369.1485L125.21857 370.086ZM122.79483 370.34653Q121.1981 369.42465 120.22311 369.45715Q119.23458 369.4818 118.67208 370.4561Q118.11739 371.41684 118.590294 372.28525Q119.05747 373.13232 120.55167 374.01306L122.55435 375.1693Q124.151085 376.0912 125.174484 376.0686Q126.205696 376.0325 126.74476 375.09882Q127.28382 374.16513 126.824455 373.3045Q126.36509 372.4439 124.838104 371.5262L122.79483 370.34653ZM132.73941 366.77826L132.01285 368.0367L123.66382 363.2164L123.136566 366.2859L121.99991 365.62964L122.71706 361.26248L122.83424 361.0595L132.73941 366.77826ZM133.29991 355.80746Q133.53342 356.46548 133.50508 357.17084Q133.47675 357.87616 133.10175 358.52567Q132.60956 359.37817 131.82289 359.77197Q131.03622 360.16577 130.07533 360.08008Q129.12224 359.9809 128.20209 359.44965Q127.21428 358.87933 126.64819 358.0473Q126.06858 357.2075 126.04753 356.27518Q126.02649 355.3429 126.55774 354.42273Q127.40149 352.9613 128.98193 352.75516Q130.54883 352.5412 132.44327 353.63495L132.80862 353.8459Q135.67732 355.50214 136.34718 357.40442Q137.01703 359.3067 135.73732 361.617L135.5967 361.86057L134.5277 361.24338L134.67613 360.98627Q135.5475 359.41452 135.25276 358.14377Q134.9523 356.85168 133.29991 355.80746ZM132.19054 357.72894Q132.54991 357.1065 132.47571 356.36002Q132.39578 355.5922 131.96808 355.02048L131.4674 354.7314Q130.23604 354.02048 129.15224 354.11646Q128.07623 354.19885 127.59968 355.0243Q127.123116 355.84973 127.47004 356.7176Q127.80344 357.57764 128.84537 358.1792Q129.84671 358.75732 130.79102 358.65298Q131.72179 358.54086 132.19054 357.72894ZM140.43565 355.41672L139.81065 356.49927L131.48212 346.20596L132.0993 345.13696L140.43565 355.41672ZM145.23941 345.12762L144.51285 346.38608L136.16382 341.56577L135.63657 344.63525L134.49991 343.979L135.21706 339.61185L135.33424 339.40887L145.23941 345.12762Z" fill-rule="nonzero"/><path fill="#efefef" d="M180.11522 380.02576L176.38866 386.48035L175.48204 385.9569L173.66193 380.35944Q173.24693 379.10947 172.86974 378.51282Q172.49252 377.91614 171.9242 377.588Q171.1529 377.1427 170.39232 377.33508Q169.62602 377.50607 169.18071 378.27737Q168.64165 379.21106 168.86469 380.0435Q169.09555 380.8624 170.04277 381.40927L169.32402 382.65417Q167.97086 381.87292 167.63188 380.52252Q167.30074 379.1586 168.1523 377.68362Q168.94136 376.31693 170.11948 375.93265Q171.29759 375.54834 172.5019 376.24365Q173.9498 377.0796 174.8957 380.09747L176.22743 384.38458L179.0868 379.432L180.11522 380.02576ZM180.24281 370.086Q182.44847 371.35944 183.07997 372.7344Q183.71928 374.09583 182.79741 375.69257Q181.89116 377.26224 180.41173 377.41846Q178.91876 377.56683 176.8328 376.3986L175.15486 375.42984Q172.9898 374.17984 172.36401 372.82623Q171.74605 371.45908 172.66792 369.86234Q173.5898 368.26562 175.03436 368.1073Q176.48674 367.9355 178.61902 369.1485L180.24281 370.086ZM177.81908 370.34653Q176.22234 369.42465 175.24736 369.45715Q174.25883 369.4818 173.69633 370.4561Q173.14165 371.41684 173.61455 372.28525Q174.08171 373.13232 175.57591 374.01306L177.5786 375.1693Q179.17534 376.0912 180.19873 376.0686Q181.22995 376.0325 181.76901 375.09882Q182.30807 374.16513 181.84871 373.30453Q181.38934 372.4439 179.86235 371.5262L177.81908 370.34653ZM187.76366 366.77826L187.0371 368.0367L178.68806 363.2164L178.16081 366.2859L177.02415 365.62964L177.7413 361.2625L177.85849 361.0595L187.76366 366.77826ZM188.32416 355.80746Q188.55766 356.4655 188.52933 357.17084Q188.50099 357.87616 188.12599 358.52567Q187.6338 359.37817 186.84714 359.77197Q186.06047 360.16577 185.09958 360.0801Q184.14648 359.9809 183.22633 359.44965Q182.23853 358.87933 181.67244 358.0473Q181.09282 357.2075 181.07178 356.27518Q181.05074 355.3429 181.58199 354.42273Q182.42574 352.9613 184.00618 352.75516Q185.57309 352.5412 187.46751 353.63495L187.83287 353.8459Q190.70158 355.50214 191.37143 357.40442Q192.04128 359.3067 190.76157 361.617L190.62094 361.86057L189.55194 361.24338L189.70038 360.98627Q190.57175 359.41452 190.27701 358.14377Q189.97655 356.85168 188.32416 355.80746ZM187.21478 357.72894Q187.57416 357.1065 187.49995 356.36002Q187.42004 355.5922 186.99234 355.02048L186.49167 354.7314Q185.26028 354.02048 184.17648 354.11646Q183.1005 354.19885 182.62393 355.0243Q182.14737 355.84973 182.4943 356.7176Q182.82768 357.57764 183.86961 358.1792Q184.87096 358.75732 185.81526 358.65298Q186.74603 358.54086 187.21478 357.72894ZM195.4599 355.41675L194.8349 356.49927L186.50636 346.20596L187.12355 345.13696L195.4599 355.41675ZM193.4011 344.2327L193.94797 343.2855Q194.44225 342.39813 194.28476 341.63965Q194.12157 340.8598 193.35025 340.4145Q191.61821 339.4145 190.62602 341.13303Q190.15727 341.94492 190.33609 342.6977Q190.51492 343.45044 191.28622 343.89575L190.56747 345.14066Q189.39023 344.46097 189.1111 343.16318Q188.83199 341.86536 189.59761 340.53928Q190.4023 339.1455 191.59967 338.79034Q192.79132 338.41388 194.10388 339.1717Q194.73987 339.53888 195.10661 340.3099Q195.45981 341.07315 195.34344 341.9622Q196.06929 341.29874 196.9225 341.19592Q197.77571 341.09314 198.64174 341.59314Q199.96783 342.35876 200.25267 343.67792Q200.52397 344.98926 199.71928 346.38303Q198.92241 347.76324 197.67036 348.2131Q196.41258 348.64163 195.18121 347.9307L195.90778 346.67227Q196.67908 347.11758 197.44174 346.89035Q198.1987 346.64175 198.69089 345.78928Q199.21432 344.88266 199.01414 344.1356Q198.8218 343.37503 197.94223 342.86722Q197.0762 342.36722 196.31145 342.62933Q195.54668 342.89142 194.96283 343.87143L194.41595 344.81863L193.4011 344.2327Z" fill-rule="nonzero"/><path fill="#efefef" d="M237.0047 380.02576L233.27814 386.48035L232.37152 385.9569L230.5514 380.35944Q230.13641 379.10947 229.75922 378.51282Q229.382 377.91614 228.81367 377.588Q228.04237 377.1427 227.2818 377.33508Q226.5155 377.50607 226.07019 378.27737Q225.53113 379.21106 225.75417 380.0435Q225.98503 380.8624 226.93225 381.40927L226.2135 382.65417Q224.86034 381.87292 224.52136 380.52252Q224.19022 379.1586 225.04178 377.68362Q225.83084 376.31693 227.00896 375.93265Q228.18707 375.54834 229.39139 376.24365Q230.83928 377.0796 231.78519 380.09747L233.11691 384.38458L235.97629 379.432L237.0047 380.02576ZM237.1323 370.086Q239.33795 371.35944 239.96945 372.7344Q240.60876 374.09583 239.68689 375.69257Q238.78064 377.26224 237.30121 377.41846Q235.80824 377.56683 233.72227 376.3986L232.04434 375.42984Q229.87929 374.17984 229.2535 372.82623Q228.63553 371.45908 229.5574 369.86234Q230.47928 368.26562 231.92384 368.1073Q233.37622 367.9355 235.5085 369.1485L237.1323 370.086ZM234.70856 370.34653Q233.11182 369.42465 232.13684 369.45715Q231.14832 369.4818 230.58582 370.4561Q230.03113 371.41684 230.50403 372.28525Q230.97119 373.13232 232.4654 374.01306L234.46808 375.1693Q236.06482 376.0912 237.08821 376.0686Q238.11943 376.0325 238.6585 375.09882Q239.19756 374.16513 238.73819 373.30453Q238.27882 372.4439 236.75183 371.5262L234.70856 370.34653ZM244.65314 366.77826L243.92657 368.0367L235.57755 363.2164L235.0503 366.2859L233.91364 365.62964L234.63078 361.2625L234.74797 361.0595L244.65314 366.77826ZM245.21364 355.80746Q245.44714 356.4655 245.41881 357.17084Q245.39047 357.87616 245.01547 358.52567Q244.52328 359.37817 243.73662 359.77197Q242.94995 360.16577 241.98906 360.0801Q241.03596 359.9809 240.11581 359.44965Q239.128 358.87933 238.56192 358.0473Q237.9823 357.2075 237.96126 356.27518Q237.94022 355.3429 238.47147 354.42273Q239.31522 352.9613 240.89566 352.75516Q242.46257 352.5412 244.357 353.63495L244.72235 353.8459Q247.59106 355.50214 248.26091 357.40442Q248.93076 359.3067 247.65105 361.617L247.51042 361.86057L246.44142 361.24338L246.58986 360.98627Q247.46123 359.41452 247.16649 358.14377Q246.86603 356.85168 245.21364 355.80746ZM244.10426 357.72894Q244.46364 357.1065 244.38943 356.36002Q244.30952 355.5922 243.88182 355.02048L243.38115 354.7314Q242.14977 354.02048 241.06596 354.11646Q239.98997 354.19885 239.51341 355.0243Q239.03685 355.84973 239.38377 356.7176Q239.71716 357.57764 240.7591 358.1792Q241.76044 358.75732 242.70474 358.65298Q243.63551 358.54086 244.10426 357.72894ZM252.34938 355.41675L251.72438 356.49927L243.39584 346.20596L244.01303 345.13696L252.34938 355.41675ZM250.1672 345.82138L245.54428 342.48477L248.45834 337.43744L249.60854 338.1015L247.31166 342.07983L249.83258 343.9322Q249.81363 342.96503 250.34488 342.04486Q251.12613 340.6917 252.47235 340.4225Q253.82637 340.13977 255.34192 341.01477Q256.85745 341.88977 257.26047 343.223Q257.66345 344.55624 256.8119 346.0312Q256.0619 347.33023 254.86815 347.7416Q253.66087 348.14514 252.30507 347.52475L252.99257 346.33395Q253.90756 346.7179 254.62181 346.48077Q255.32256 346.2358 255.7835 345.43744Q256.2913 344.5579 255.97716 343.727Q255.67082 342.88257 254.62889 342.281Q253.64108 341.7107 252.73318 341.9082Q251.81958 342.08438 251.30396 342.97748Q250.8274 343.80292 250.92712 344.4739L251.00244 344.96848L250.1672 345.82138Z" fill-rule="nonzero"/><path fill="#efefef" d="M293.8942 380.02576L290.16763 386.48035L289.26102 385.9569L287.4409 380.35944Q287.0259 379.10947 286.6487 378.5128Q286.27148 377.91614 285.70316 377.588Q284.93185 377.1427 284.1713 377.33505Q283.405 377.50607 282.9597 378.27737Q282.42062 379.21106 282.64365 380.0435Q282.8745 380.86237 283.82175 381.40924L283.103 382.65414Q281.74982 381.8729 281.41086 380.5225Q281.0797 379.15857 281.93127 377.68362Q282.72034 376.31693 283.89844 375.93262Q285.07657 375.5483 286.28088 376.24362Q287.72876 377.07956 288.67468 380.09747L290.0064 384.38458L292.86578 379.432L293.8942 380.02576ZM294.0218 370.086Q296.22745 371.35944 296.85895 372.73438Q297.49826 374.09583 296.5764 375.69254Q295.67014 377.2622 294.1907 377.41843Q292.69772 377.56683 290.61176 376.3986L288.93384 375.42984Q286.76877 374.17984 286.14297 372.8262Q285.52502 371.45908 286.4469 369.86234Q287.36877 368.2656 288.81332 368.1073Q290.26572 367.93546 292.39798 369.1485L294.0218 370.086ZM291.59805 370.34653Q290.0013 369.42465 289.02634 369.45712Q288.0378 369.4818 287.4753 370.4561Q286.92062 371.41684 287.39352 372.28525Q287.8607 373.13232 289.3549 374.01303L291.35757 375.16928Q292.9543 376.09116 293.9777 376.0686Q295.0089 376.03247 295.54797 375.0988Q296.08704 374.16513 295.6277 373.3045Q295.1683 372.4439 293.64133 371.5262L291.59805 370.34653ZM301.54263 366.77826L300.81607 368.0367L292.46704 363.2164L291.9398 366.28586L290.80313 365.6296L291.52026 361.26248L291.63745 361.0595L301.54263 366.77826ZM302.10312 355.80743Q302.33664 356.46548 302.3083 357.1708Q302.27997 357.87616 301.90497 358.52567Q301.41278 359.37817 300.6261 359.77197Q299.83945 360.16577 298.87854 360.08008Q297.92545 359.98087 297.0053 359.44962Q296.0175 358.8793 295.45142 358.0473Q294.8718 357.2075 294.85074 356.27518Q294.8297 355.34286 295.36096 354.42273Q296.2047 352.9613 297.78516 352.75516Q299.35205 352.5412 301.2465 353.63495L301.61185 353.8459Q304.48056 355.50214 305.1504 357.40442Q305.82025 359.3067 304.54053 361.61697L304.3999 361.86057L303.3309 361.24338L303.47934 360.98627Q304.3507 359.4145 304.05597 358.14377Q303.75552 356.85165 302.10312 355.80743ZM300.99374 357.72894Q301.35312 357.10648 301.27893 356.36002Q301.199 355.59216 300.7713 355.02048L300.27063 354.7314Q299.03925 354.02048 297.95544 354.11642Q296.87946 354.19885 296.4029 355.0243Q295.92633 355.8497 296.27325 356.71756Q296.60666 357.5776 297.6486 358.17917Q298.64993 358.7573 299.59424 358.65298Q300.525 358.54083 300.99374 357.72894ZM309.23886 355.41672L308.61386 356.49927L300.28534 346.20593L300.90253 345.13696L309.23886 355.41672ZM306.1921 337.60013L312.98013 346.96793L312.22232 348.2805L305.75125 339.1137L302.67313 344.4452L301.6447 343.85144L305.48846 337.19388L306.1921 337.60013Z" fill-rule="nonzero"/><path fill="#efefef" d="M351.71628 380.02576L347.98972 386.48035L347.0831 385.9569L345.26297 380.35944Q344.848 379.10947 344.4708 378.51282Q344.0936 377.91614 343.52527 377.588Q342.75394 377.1427 341.99338 377.33505Q341.22708 377.50607 340.78177 378.27737Q340.2427 379.21106 340.46576 380.0435Q340.6966 380.86237 341.64383 381.40924L340.92508 382.65417Q339.5719 381.87292 339.23294 380.52252Q338.9018 379.15857 339.75336 377.68362Q340.54242 376.31693 341.72055 375.93265Q342.89865 375.54834 344.10297 376.24365Q345.55084 377.0796 346.49677 380.09747L347.8285 384.38458L350.68787 379.432L351.71628 380.02576ZM351.84387 370.086Q354.04953 371.35944 354.68103 372.7344Q355.32034 374.09583 354.39847 375.69257Q353.49222 377.26224 352.0128 377.41843Q350.5198 377.56683 348.43384 376.3986L346.75592 375.42984Q344.59085 374.17984 343.9651 372.82623Q343.3471 371.45908 344.26898 369.86234Q345.19086 368.2656 346.6354 368.1073Q348.0878 367.93546 350.22006 369.1485L351.84387 370.086ZM349.42014 370.34653Q347.8234 369.42465 346.84842 369.45715Q345.8599 369.4818 345.2974 370.4561Q344.7427 371.41684 345.2156 372.28525Q345.68277 373.13232 347.17697 374.01306L349.17966 375.1693Q350.7764 376.0912 351.7998 376.0686Q352.831 376.0325 353.37006 375.09882Q353.90912 374.16513 353.44977 373.30453Q352.9904 372.4439 351.4634 371.5262L349.42014 370.34653ZM359.36472 366.77826L358.63815 368.0367L350.28912 363.2164L349.76187 366.2859L348.6252 365.62964L349.34238 361.26248L349.45956 361.0595L359.36472 366.77826ZM359.9252 355.80746Q360.15872 356.4655 360.1304 357.17084Q360.10205 357.87616 359.72705 358.52567Q359.23486 359.37817 358.4482 359.77197Q357.66153 360.16577 356.70062 360.0801Q355.74756 359.9809 354.8274 359.44965Q353.8396 358.87933 353.2735 358.0473Q352.69388 357.2075 352.67285 356.27518Q352.6518 355.3429 353.18304 354.42273Q354.0268 352.9613 355.60724 352.75516Q357.17413 352.5412 359.06857 353.63495L359.43393 353.8459Q362.30264 355.50214 362.97247 357.40442Q363.64233 359.3067 362.3626 361.617L362.222 361.86057L361.15298 361.24338L361.30142 360.98627Q362.17282 359.41452 361.87805 358.14377Q361.5776 356.85168 359.9252 355.80746ZM358.81583 357.72894Q359.1752 357.1065 359.101 356.36002Q359.0211 355.5922 358.59338 355.02048L358.0927 354.7314Q356.86133 354.02048 355.77753 354.11646Q354.70154 354.19885 354.22498 355.0243Q353.7484 355.84973 354.09534 356.7176Q354.42874 357.57764 355.47067 358.1792Q356.47202 358.75732 357.41632 358.65298Q358.34708 358.54086 358.81583 357.72894ZM367.06094 355.41675L366.43594 356.49927L358.10742 346.20596L358.7246 345.13696L367.06094 355.41675ZM367.9252 341.95105Q368.15872 342.6091 368.1304 343.31442Q368.10205 344.01974 367.72705 344.66928Q367.23486 345.52176 366.4482 345.91556Q365.66153 346.30936 364.70062 346.2237Q363.74756 346.12448 362.8274 345.59323Q361.8396 345.02292 361.2735 344.19092Q360.69388 343.35107 360.67285 342.4188Q360.6518 341.48648 361.18304 340.5663Q362.0268 339.10492 363.60724 338.89877Q365.17413 338.68478 367.06857 339.77853L367.43393 339.98947Q370.30264 341.64572 370.97247 343.548Q371.64233 345.4503 370.3626 347.7606L370.222 348.00415L369.15298 347.38696L369.30142 347.12988Q370.17282 345.5581 369.87805 344.28735Q369.5776 342.99527 367.9252 341.95105ZM366.81583 343.87256Q367.1752 343.2501 367.101 342.5036Q367.0211 341.73578 366.59338 341.1641L366.0927 340.87503Q364.86133 340.1641 363.77753 340.26004Q362.70154 340.34247 362.22498 341.16788Q361.7484 341.99332 362.09534 342.86118Q362.42874 343.72122 363.47067 344.32278Q364.47202 344.9009 365.41632 344.79657Q366.34708 344.68445 366.81583 343.87256Z" fill-rule="nonzero"/><path fill="#efefef" d="M404.10577 387.81998L400.3792 394.27457L399.4726 393.75113L397.65247 388.15366Q397.2375 386.9037 396.86026 386.30704Q396.48306 385.71036 395.91473 385.38223Q395.14343 384.93692 394.38287 385.12927Q393.61658 385.3003 393.17126 386.0716Q392.6322 387.00528 392.85522 387.8377Q393.0861 388.6566 394.03333 389.20346L393.31458 390.4484Q391.9614 389.66714 391.62244 388.31674Q391.2913 386.9528 392.14285 385.47784Q392.93192 384.11115 394.11002 383.72684Q395.28815 383.34253 396.49246 384.03784Q397.94034 384.87378 398.88623 387.8917L400.218 392.1788L403.07736 387.22623L404.10577 387.81998ZM404.23337 377.88022Q406.43903 379.15366 407.07053 380.52863Q407.70984 381.89005 406.78796 383.4868Q405.8817 385.05646 404.40228 385.21265Q402.9093 385.36105 400.82333 384.1928L399.14542 383.22406Q396.98035 381.97406 396.35455 380.62045Q395.7366 379.2533 396.65848 377.65656Q397.58035 376.0598 399.0249 375.90152Q400.4773 375.72968 402.60956 376.94272L404.23337 377.88022ZM401.80963 378.14075Q400.2129 377.21887 399.23788 377.25137Q398.2494 377.27603 397.6869 378.2503Q397.1322 379.21106 397.60507 380.07947Q398.07227 380.92654 399.56647 381.80728L401.56915 382.96353Q403.1659 383.8854 404.18927 383.86282Q405.2205 383.82672 405.75955 382.89304Q406.2986 381.95935 405.83926 381.09872Q405.37988 380.23813 403.8529 379.32043L401.80963 378.14075ZM411.7542 374.57248L411.02765 375.83093L402.67862 371.01062L402.15137 374.0801L401.0147 373.42386L401.73184 369.0567L401.84903 368.85373L411.7542 374.57248ZM412.3147 363.60168Q412.54822 364.2597 412.51987 364.96506Q412.49155 365.67038 412.11655 366.3199Q411.62436 367.1724 410.83768 367.5662Q410.05103 367.96 409.09012 367.8743Q408.13702 367.77512 407.2169 367.24387Q406.22906 366.67355 405.663 365.84152Q405.08337 365.0017 405.06232 364.0694Q405.0413 363.13712 405.57254 362.21695Q406.4163 360.75552 407.99673 360.54938Q409.56363 360.33542 411.45807 361.42917L411.82343 361.6401Q414.69214 363.29636 415.36197 365.19864Q416.03183 367.10092 414.7521 369.41122L414.61148 369.6548L413.54248 369.0376L413.69092 368.7805Q414.5623 367.20874 414.26755 365.938Q413.9671 364.6459 412.3147 363.60168ZM411.20532 365.52316Q411.5647 364.90073 411.4905 364.15424Q411.41058 363.3864 410.98288 362.8147L410.4822 362.52563Q409.25082 361.8147 408.16702 361.91064Q407.09103 361.99307 406.61447 362.8185Q406.1379 363.64395 406.48483 364.5118Q406.81824 365.37186 407.86017 365.97342Q408.8615 366.55154 409.80582 366.4472Q410.73657 366.33505 411.20532 365.52316ZM419.45044 363.21094L418.82544 364.2935L410.49692 354.00018L411.1141 352.93118L419.45044 363.21094ZM424.2542 352.92184L423.52765 354.1803L415.17862 349.36L414.65137 352.42947L413.5147 351.77322L414.23184 347.40607L414.34903 347.2031L424.2542 352.92184ZM428.7542 345.12762L428.02765 346.38608L419.67862 341.56577L419.15137 344.63522L418.0147 343.97897L418.73184 339.61185L418.84903 339.40887L428.7542 345.12762Z" fill-rule="nonzero"/><path fill="#efefef" d="M465.49524 380.02576L461.76868 386.48035L460.86206 385.9569L459.04193 380.35944Q458.62695 379.10947 458.24976 378.51282Q457.87256 377.91614 457.30423 377.588Q456.5329 377.1427 455.77234 377.33505Q455.00604 377.50607 454.56073 378.27737Q454.02167 379.21106 454.24472 380.0435Q454.47556 380.86237 455.4228 381.40924L454.70404 382.65417Q453.35086 381.87292 453.0119 380.52252Q452.68076 379.15857 453.53232 377.68362Q454.32138 376.31693 455.4995 375.93265Q456.6776 375.54834 457.88193 376.24365Q459.3298 377.0796 460.27573 380.09747L461.60745 384.38458L464.46683 379.432L465.49524 380.02576ZM465.62283 370.086Q467.8285 371.35944 468.46 372.7344Q469.0993 374.09583 468.17743 375.69257Q467.27118 377.26224 465.79175 377.41843Q464.29877 377.56683 462.2128 376.3986L460.53488 375.42984Q458.3698 374.17984 457.74405 372.82623Q457.12607 371.45908 458.04794 369.86234Q458.96982 368.2656 460.41437 368.1073Q461.86676 367.93546 463.99902 369.1485L465.62283 370.086ZM463.1991 370.34653Q461.60236 369.42465 460.62738 369.45715Q459.63885 369.4818 459.07635 370.4561Q458.52167 371.41684 458.99457 372.28525Q459.46173 373.13232 460.95593 374.01306L462.95862 375.1693Q464.55536 376.0912 465.57877 376.0686Q466.60995 376.0325 467.14902 375.09882Q467.68808 374.16513 467.22873 373.30453Q466.76935 372.4439 465.24237 371.5262L463.1991 370.34653ZM474.49524 364.4373L470.76868 370.89188L469.86206 370.36844L468.04193 364.77097Q467.62695 363.52103 467.24976 362.92435Q466.87256 362.3277 466.30423 361.99957Q465.5329 361.55426 464.77234 361.7466Q464.00604 361.91763 463.56073 362.68893Q463.02167 363.62262 463.24472 364.45505Q463.47556 365.27393 464.4228 365.8208L463.70404 367.0657Q462.35086 366.28445 462.0119 364.93405Q461.68076 363.57013 462.53232 362.09518Q463.32138 360.7285 464.4995 360.34418Q465.6776 359.95987 466.88193 360.65518Q468.3298 361.49112 469.27573 364.50903L470.60745 368.79614L473.46683 363.84354L474.49524 364.4373ZM474.62283 354.49756Q476.8285 355.771 477.46 357.14594Q478.0993 358.50735 477.17743 360.1041Q476.27118 361.67377 474.79175 361.83Q473.29877 361.9784 471.2128 360.81012L469.53488 359.84137Q467.3698 358.59137 466.74405 357.23776Q466.12607 355.8706 467.04794 354.2739Q467.96982 352.67715 469.41437 352.51886Q470.86676 352.34702 472.99902 353.56006L474.62283 354.49756ZM472.1991 354.7581Q470.60236 353.8362 469.62738 353.86868Q468.63885 353.89337 468.07635 354.86765Q467.52167 355.82837 467.99457 356.6968Q468.46173 357.54388 469.95593 358.4246L471.95862 359.58084Q473.55536 360.50272 474.57877 360.48013Q475.60995 360.44403 476.14902 359.51035Q476.68808 358.57666 476.22873 357.71606Q475.76935 356.85547 474.24237 355.93777L472.1991 354.7581ZM480.8399 355.41675L480.2149 356.49927L471.88638 346.20596L472.50357 345.13696L480.8399 355.41675ZM485.64368 345.12762L484.9171 346.38608L476.56808 341.56577L476.04083 344.63525L474.90417 343.979L475.62134 339.61185L475.73853 339.40887L485.64368 345.12762Z" fill-rule="nonzero"/><path fill="#efefef" d="M521.4521 380.02576L517.7255 386.48038L516.8189 385.95694L514.9988 380.35947Q514.5838 379.1095 514.2066 378.51282Q513.8294 377.91617 513.26105 377.58804Q512.48975 377.14273 511.7292 377.33508Q510.9629 377.5061 510.51758 378.2774Q509.97852 379.2111 510.20157 380.04352Q510.43243 380.8624 511.37964 381.40927L510.6609 382.65417Q509.30774 381.87292 508.96875 380.52252Q508.6376 379.1586 509.48917 377.68365Q510.27823 376.31696 511.45636 375.93265Q512.63446 375.54834 513.8388 376.24365Q515.2867 377.0796 516.2326 380.0975L517.56433 384.3846L520.4237 379.432L521.4521 380.02576ZM521.5797 370.08603Q523.78534 371.35947 524.4169 372.7344Q525.05615 374.09586 524.1343 375.69257Q523.228 377.26224 521.7486 377.41846Q520.2556 377.56686 518.1697 376.39862L516.49176 375.42987Q514.32666 374.17987 513.70087 372.82623Q513.08295 371.4591 514.0048 369.86237Q514.9267 368.26562 516.3712 368.10733Q517.8236 367.9355 519.9559 369.14853L521.5797 370.08603ZM519.15594 370.34656Q517.5592 369.42468 516.5842 369.45715Q515.5957 369.48184 515.0332 370.45612Q514.4785 371.41687 514.9514 372.28528Q515.4186 373.13235 516.9128 374.01306L518.91547 375.1693Q520.5122 376.0912 521.5356 376.0686Q522.56683 376.0325 523.1059 375.09882Q523.64496 374.16513 523.1856 373.30453Q522.7262 372.44394 521.1992 371.52625L519.15594 370.34656ZM530.4521 364.43732L526.7255 370.8919L525.8189 370.36847L523.9988 364.771Q523.5838 363.52103 523.2066 362.92438Q522.8294 362.3277 522.26105 361.99957Q521.48975 361.55426 520.7292 361.7466Q519.9629 361.91763 519.5176 362.68893Q518.9785 363.62262 519.20154 364.45505Q519.43243 365.27393 520.37964 365.8208L519.6609 367.06573Q518.30774 366.2845 517.96875 364.93408Q517.63763 363.57013 518.4892 362.09518Q519.27826 360.7285 520.45636 360.34418Q521.63446 359.9599 522.8388 360.6552Q524.2867 361.49115 525.2326 364.50903L526.56433 368.79614L529.4237 363.84357L530.4521 364.43732ZM530.5797 354.49756Q532.78534 355.771 533.4169 357.14597Q534.05615 358.5074 533.1343 360.10413Q532.228 361.6738 530.7486 361.83Q529.2556 361.9784 527.1697 360.81015L525.49176 359.8414Q523.32666 358.5914 522.70087 357.2378Q522.08295 355.87064 523.0048 354.2739Q523.9267 352.67715 525.3712 352.51886Q526.8236 352.34702 528.9559 353.56006L530.5797 354.49756ZM528.15594 354.7581Q526.5592 353.8362 525.5842 353.8687Q524.5957 353.89337 524.0332 354.86765Q523.4785 355.8284 523.9514 356.6968Q524.4186 357.54388 525.9128 358.42462L527.91547 359.58087Q529.5122 360.50275 530.5356 360.48016Q531.56683 360.44406 532.1059 359.51038Q532.64496 358.5767 532.1856 357.71606Q531.7262 356.85547 530.1992 355.93777L528.15594 354.7581ZM536.79675 355.41675L536.17175 356.49927L527.84326 346.20596L528.46045 345.13696L536.79675 355.41675ZM534.738 344.23273L535.28485 343.2855Q535.7791 342.39813 535.62164 341.63965Q535.45844 340.85983 534.68713 340.41452Q532.9551 339.41452 531.9629 341.13303Q531.49414 341.94492 531.673 342.6977Q531.8518 343.45047 532.6231 343.89578L531.90436 345.1407Q530.7271 344.461 530.448 343.16318Q530.1689 341.8654 530.9345 340.53928Q531.7392 339.1455 532.9365 338.79037Q534.1282 338.41388 535.44073 339.1717Q536.0767 339.53888 536.4435 340.30994Q536.7967 341.07315 536.6803 341.96222Q537.4062 341.29874 538.2594 341.19595Q539.1126 341.09317 539.97864 341.59317Q541.3047 342.3588 541.58954 343.67792Q541.86084 344.98926 541.05615 346.38303Q540.2593 347.76324 539.00726 348.21313Q537.74945 348.64166 536.51807 347.93073L537.2446 346.67227Q538.0159 347.11758 538.7786 346.89035Q539.5356 346.64178 540.0278 345.78928Q540.5512 344.88266 540.351 344.13562Q540.1587 343.37503 539.2791 342.86722Q538.4131 342.36722 537.6483 342.62933Q536.88354 342.89145 536.29974 343.87143L535.75287 344.81866L534.738 344.23273Z" fill-rule="nonzero"/><path fill="#efefef" d="M578.3416 380.02573L574.61505 386.48032L573.70844 385.95688L571.8883 380.3594Q571.4733 379.10947 571.0961 378.5128Q570.71893 377.91614 570.1506 377.588Q569.3793 377.1427 568.6187 377.33505Q567.8524 377.50604 567.4071 378.27737Q566.86804 379.21103 567.09106 380.04346Q567.32196 380.86237 568.26917 381.40924L567.5504 382.65414Q566.1972 381.8729 565.8583 380.5225Q565.5271 379.15857 566.37866 377.68362Q567.1677 376.31693 568.3459 375.93262Q569.524 375.5483 570.7283 376.24362Q572.17615 377.07956 573.1221 380.09744L574.4538 384.38455L577.3132 379.43198L578.3416 380.02573ZM578.4692 370.08597Q580.67487 371.3594 581.30634 372.73438Q581.9457 374.0958 581.0238 375.69254Q580.11755 377.2622 578.6381 377.41843Q577.14514 377.5668 575.05914 376.39856L573.3812 375.4298Q571.2162 374.1798 570.5904 372.8262Q569.9724 371.45905 570.8943 369.8623Q571.81616 368.2656 573.26074 368.10727Q574.71313 367.93546 576.8454 369.14847L578.4692 370.08597ZM576.0455 370.34653Q574.4487 369.42465 573.47375 369.45712Q572.4852 369.48178 571.9227 370.45605Q571.36804 371.4168 571.84094 372.28525Q572.3081 373.13232 573.8023 374.01303L575.805 375.16928Q577.40173 376.09116 578.4251 376.06857Q579.4563 376.03247 579.99536 375.0988Q580.5344 374.1651 580.0751 373.3045Q579.6157 372.44388 578.08875 371.5262L576.0455 370.34653ZM587.3416 364.4373L583.61505 370.89188L582.70844 370.36844L580.8883 364.77097Q580.4733 363.521 580.0961 362.92432Q579.71893 362.32767 579.1506 361.99954Q578.3793 361.55423 577.6187 361.74658Q576.8524 361.9176 576.4071 362.6889Q575.86804 363.6226 576.09106 364.45502Q576.32196 365.2739 577.26917 365.82077L576.5504 367.06567Q575.1972 366.28442 574.8583 364.93402Q574.5271 363.5701 575.37866 362.09515Q576.1677 360.72845 577.3459 360.34415Q578.524 359.95984 579.7283 360.65515Q581.17615 361.4911 582.1221 364.509L583.4538 368.7961L586.3132 363.84354L587.3416 364.4373ZM587.4692 354.49753Q589.67487 355.77097 590.30634 357.1459Q590.9457 358.50735 590.0238 360.10406Q589.11755 361.67374 587.6381 361.82996Q586.14514 361.97836 584.05914 360.81012L582.3812 359.84137Q580.2162 358.59137 579.5904 357.23773Q578.9724 355.8706 579.8943 354.27386Q580.81616 352.67712 582.26074 352.51883Q583.71313 352.347 585.8454 353.56003L587.4692 354.49753ZM585.0455 354.75806Q583.4487 353.83618 582.47375 353.86865Q581.4852 353.89334 580.9227 354.8676Q580.36804 355.82837 580.84094 356.69678Q581.3081 357.54385 582.8023 358.42456L584.805 359.5808Q586.40173 360.5027 587.4251 360.48013Q588.4563 360.444 588.99536 359.5103Q589.5344 358.57666 589.0751 357.71603Q588.6157 356.85544 587.08875 355.93774L585.0455 354.75806ZM593.6863 355.41672L593.0613 356.49924L584.7327 346.20593L585.3499 345.13693L593.6863 355.41672ZM591.5041 345.82135L586.88116 342.48474L589.7952 337.43744L590.94543 338.1015L588.64856 342.0798L591.1695 343.9322Q591.1505 342.965 591.68176 342.04486Q592.463 340.69168 593.80927 340.4225Q595.16327 340.13974 596.67883 341.01474Q598.19434 341.88974 598.59735 343.22296Q599.00037 344.5562 598.1488 346.03116Q597.3988 347.3302 596.2051 347.74158Q594.9978 348.14514 593.64197 347.52472L594.32947 346.33395Q595.24445 346.71786 595.95874 346.48074Q596.6594 346.23578 597.12036 345.4374Q597.6282 344.55786 597.314 343.72696Q597.00775 342.88254 595.96576 342.28098Q594.97797 341.71066 594.07007 341.9082Q593.1565 342.08435 592.64087 342.97745Q592.1643 343.8029 592.26404 344.4739L592.33936 344.96844L591.5041 345.82135Z" fill-rule="nonzero"/><path fill="#efefef" d="M635.2311 380.02576L631.5045 386.48035L630.5979 385.9569L628.7778 380.35944Q628.3628 379.10947 627.9856 378.5128Q627.6084 377.91614 627.04004 377.588Q626.26874 377.1427 625.5082 377.33505Q624.7419 377.50607 624.2966 378.27737Q623.7575 379.21106 623.9805 380.0435Q624.2114 380.86237 625.1586 381.40924L624.4399 382.65414Q623.08673 381.8729 622.74774 380.5225Q622.41656 379.15857 623.2681 377.68362Q624.0572 376.31693 625.23535 375.93262Q626.41345 375.5483 627.61774 376.24362Q629.0657 377.07956 630.01154 380.09747L631.34326 384.38458L634.20264 379.432L635.2311 380.02576ZM635.35864 370.086Q637.56433 371.35944 638.1958 372.73438Q638.83514 374.09583 637.91327 375.69254Q637.007 377.2622 635.5276 377.41843Q634.0346 377.56683 631.94867 376.3986L630.2707 375.42984Q628.10565 374.17984 627.47986 372.8262Q626.8619 371.45908 627.78375 369.86234Q628.7056 368.2656 630.1502 368.1073Q631.6026 367.93546 633.73486 369.1485L635.35864 370.086ZM632.93494 370.34653Q631.3382 369.42465 630.3632 369.45712Q629.3747 369.4818 628.8122 370.4561Q628.2575 371.41684 628.7304 372.28525Q629.1976 373.13232 630.6918 374.01303L632.69446 375.16928Q634.2912 376.09116 635.3146 376.0686Q636.3458 376.03247 636.8849 375.0988Q637.42395 374.16513 636.96454 373.3045Q636.5052 372.4439 634.9782 371.5262L632.93494 370.34653ZM644.2311 364.4373L640.5045 370.89188L639.5979 370.36844L637.7778 364.77097Q637.3628 363.521 636.9856 362.92435Q636.6084 362.32767 636.04004 361.99954Q635.26874 361.55423 634.5082 361.7466Q633.7419 361.9176 633.2966 362.6889Q632.7575 363.6226 632.9805 364.45502Q633.2114 365.27393 634.1586 365.8208L633.4399 367.0657Q632.08673 366.28445 631.74774 364.93405Q631.41656 363.57013 632.2681 362.09515Q633.0572 360.7285 634.23535 360.34418Q635.41345 359.95987 636.61774 360.65518Q638.0657 361.49112 639.01154 364.509L640.34326 368.7961L643.20264 363.84354L644.2311 364.4373ZM644.35864 354.49753Q646.56433 355.77097 647.1958 357.14594Q647.83514 358.50735 646.91327 360.1041Q646.007 361.67377 644.5276 361.83Q643.0346 361.97836 640.94867 360.81012L639.2707 359.84137Q637.10565 358.59137 636.47986 357.23776Q635.8619 355.8706 636.78375 354.27386Q637.7056 352.67715 639.1502 352.51883Q640.6026 352.34702 642.73486 353.56003L644.35864 354.49753ZM641.93494 354.75806Q640.3382 353.83618 639.3632 353.86868Q638.3747 353.89334 637.8122 354.8676Q637.2575 355.82837 637.7304 356.69678Q638.1976 357.54385 639.6918 358.4246L641.69446 359.58084Q643.2912 360.50272 644.3146 360.48013Q645.3458 360.44403 645.8849 359.51035Q646.42395 358.57666 645.96454 357.71606Q645.5052 356.85544 643.9782 355.93774L641.93494 354.75806ZM650.57574 355.41672L649.95074 356.49927L641.6222 346.20596L642.2394 345.13696L650.57574 355.41672ZM647.529 337.60013L654.317 346.96793L653.5592 348.2805L647.08813 339.1137L644.01 344.4452L642.98157 343.85144L646.8253 337.19388L647.529 337.60013Z" fill-rule="nonzero"/><path fill="#efefef" d="M163.57812 41.415627Q162.71875 42.65 161.15625 43.275Q159.60938 43.884377 157.54688 43.884377Q155.45312 43.884377 153.82812 42.915627Q152.21875 41.93125 151.32812 40.134377Q150.45312 38.321877 150.4375 35.93125L150.4375 34.446877Q150.4375 30.587502 152.23438 28.478127Q154.03125 26.353127 157.28125 26.353127Q159.95312 26.353127 161.57812 27.728127Q163.21875 29.087502 163.57812 31.587502L161.32812 31.587502Q160.70312 28.196877 157.29688 28.196877Q155.03125 28.196877 153.85938 29.790627Q152.70312 31.384377 152.6875 34.384377L152.6875 35.790627Q152.6875 38.65 154.0 40.353127Q155.3125 42.040627 157.5625 42.040627Q158.82812 42.040627 159.76562 41.759377Q160.71875 41.478127 161.34375 40.80625L161.34375 36.978127L157.39062 36.978127L157.39062 35.15L163.57812 35.15L163.57812 41.415627ZM174.46875 43.65Q174.28125 43.275 174.17188 42.30625Q172.65625 43.884377 170.5625 43.884377Q168.6875 43.884377 167.48438 42.821877Q166.28125 41.759377 166.28125 40.134377Q166.28125 38.15 167.78125 37.05625Q169.29688 35.9625 172.01562 35.9625L174.125 35.9625L174.125 34.9625Q174.125 33.821877 173.4375 33.15Q172.76562 32.478127 171.45312 32.478127Q170.28125 32.478127 169.5 33.071877Q168.71875 33.65 168.71875 34.478127L166.53125 34.478127Q166.53125 33.540627 167.20312 32.65Q167.89062 31.759377 169.03125 31.243752Q170.1875 30.728127 171.57812 30.728127Q173.76562 30.728127 175.0 31.837502Q176.25 32.93125 176.29688 34.853127L176.29688 40.68125Q176.29688 42.43125 176.75 43.4625L176.75 43.65L174.46875 43.65ZM170.875 41.99375Q171.89062 41.99375 172.79688 41.478127Q173.71875 40.946877 174.125 40.103127L174.125 37.49375L172.4375 37.49375Q168.45312 37.49375 168.45312 39.821877Q168.45312 40.853127 169.125 41.43125Q169.8125 41.99375 170.875 41.99375ZM182.0 43.65L179.82812 43.65L179.82812 25.650002L182.0 25.650002L182.0 43.65ZM193.46875 43.65Q193.28125 43.275 193.17188 42.30625Q191.65625 43.884377 189.5625 43.884377Q187.6875 43.884377 186.48438 42.821877Q185.28125 41.759377 185.28125 40.134377Q185.28125 38.15 186.78125 37.05625Q188.29688 35.9625 191.01562 35.9625L193.125 35.9625L193.125 34.9625Q193.125 33.821877 192.4375 33.15Q191.76562 32.478127 190.45312 32.478127Q189.28125 32.478127 188.5 33.071877Q187.71875 33.65 187.71875 34.478127L185.53125 34.478127Q185.53125 33.540627 186.20312 32.65Q186.89062 31.759377 188.03125 31.243752Q189.1875 30.728127 190.57812 30.728127Q192.76562 30.728127 194.0 31.837502Q195.25 32.93125 195.29688 34.853127L195.29688 40.68125Q195.29688 42.43125 195.75 43.4625L195.75 43.65L193.46875 43.65ZM189.875 41.99375Q190.89062 41.99375 191.79688 41.478127Q192.71875 40.946877 193.125 40.103127L193.125 37.49375L191.4375 37.49375Q187.45312 37.49375 187.45312 39.821877Q187.45312 40.853127 188.125 41.43125Q188.8125 41.99375 189.875 41.99375ZM202.89062 35.603127L205.70312 30.962502L208.23438 30.962502L204.09375 37.24375L208.375 43.65L205.85938 43.65L202.9375 38.9L200.0 43.65L197.48438 43.65L201.76562 37.24375L197.60938 30.962502L200.125 30.962502L202.89062 35.603127ZM214.79688 40.478127L217.75 30.962502L220.0625 30.962502L214.96875 45.603127Q213.78125 48.775 211.20312 48.775L210.79688 48.74375L209.98438 48.5875L209.98438 46.821877L210.57812 46.86875Q211.67188 46.86875 212.28125 46.415627Q212.90625 45.978127 213.29688 44.80625L213.78125 43.509377L209.26562 30.962502L211.625 30.962502L214.79688 40.478127ZM241.09375 43.65L238.82812 43.65L238.82812 35.759377L230.23438 35.759377L230.23438 43.65L227.98438 43.65L227.98438 26.587502L230.23438 26.587502L230.23438 33.915627L238.82812 33.915627L238.82812 26.587502L241.09375 26.587502L241.09375 43.65ZM249.90625 43.884377Q247.32812 43.884377 245.70312 42.196877Q244.09375 40.49375 244.09375 37.665627L244.09375 37.259377Q244.09375 35.36875 244.8125 33.9Q245.53125 32.415627 246.82812 31.571877Q248.125 30.728127 249.64062 30.728127Q252.10938 30.728127 253.46875 32.36875Q254.84375 33.99375 254.84375 37.025L254.84375 37.93125L246.26562 37.93125Q246.3125 39.80625 247.35938 40.9625Q248.40625 42.11875 250.01562 42.11875Q251.17188 42.11875 251.96875 41.65Q252.76562 41.18125 253.35938 40.4L254.6875 41.43125Q253.09375 43.884377 249.90625 43.884377ZM249.64062 32.509377Q248.32812 32.509377 247.4375 33.478127Q246.54688 34.43125 246.32812 36.15L252.6875 36.15L252.6875 35.978127Q252.59375 34.3375 251.79688 33.43125Q251.0 32.509377 249.64062 32.509377ZM260.0 43.65L257.82812 43.65L257.82812 25.650002L260.0 25.650002L260.0 43.65ZM274.35938 37.446877Q274.35938 40.3375 273.03125 42.11875Q271.70312 43.884377 269.4375 43.884377Q267.14062 43.884377 265.8125 42.415627L265.8125 48.525L263.64062 48.525L263.64062 30.962502L265.625 30.962502L265.73438 32.36875Q267.04688 30.728127 269.40625 30.728127Q271.6875 30.728127 273.01562 32.4625Q274.35938 34.18125 274.35938 37.24375L274.35938 37.446877ZM272.1875 37.196877Q272.1875 35.05625 271.26562 33.821877Q270.35938 32.571877 268.76562 32.571877Q266.79688 32.571877 265.8125 34.321877L265.8125 40.384377Q266.78125 42.11875 268.78125 42.11875Q270.34375 42.11875 271.26562 40.884377Q272.1875 39.634377 272.1875 37.196877ZM276.6875 42.509377Q276.6875 41.946877 277.01562 41.571877Q277.35938 41.196877 278.01562 41.196877Q278.6875 41.196877 279.03125 41.571877Q279.39062 41.946877 279.39062 42.509377Q279.39062 43.05625 279.03125 43.415627Q278.6875 43.775 278.01562 43.775Q277.35938 43.775 277.01562 43.415627Q276.6875 43.05625 276.6875 42.509377ZM276.6875 32.509377Q276.6875 31.946877 277.01562 31.571877Q277.35938 31.196877 278.01562 31.196877Q278.6875 31.196877 279.03125 31.571877Q279.39062 31.946877 279.39062 32.509377Q279.39062 33.05625 279.03125 33.415627Q278.6875 33.775 278.01562 33.775Q277.35938 33.775 277.01562 33.415627Q276.6875 33.05625 276.6875 32.509377ZM291.23438 36.9625L291.23438 43.65L288.98438 43.65L288.98438 26.587502L295.28125 26.587502Q298.07812 26.587502 299.65625 28.025002Q301.25 29.446877 301.25 31.806252Q301.25 34.290627 299.6875 35.634377Q298.14062 36.9625 295.25 36.9625L291.23438 36.9625ZM291.23438 35.134377L295.28125 35.134377Q297.07812 35.134377 298.03125 34.290627Q299.0 33.43125 299.0 31.821877Q299.0 30.306252 298.03125 29.400002Q297.07812 28.478127 295.40625 28.431252L291.23438 28.431252L291.23438 35.134377ZM311.46875 43.65Q311.28125 43.275 311.17188 42.30625Q309.65625 43.884377 307.5625 43.884377Q305.6875 43.884377 304.48438 42.821877Q303.28125 41.759377 303.28125 40.134377Q303.28125 38.15 304.78125 37.05625Q306.29688 35.9625 309.01562 35.9625L311.125 35.9625L311.125 34.9625Q311.125 33.821877 310.4375 33.15Q309.76562 32.478127 308.45312 32.478127Q307.28125 32.478127 306.5 33.071877Q305.71875 33.65 305.71875 34.478127L303.53125 34.478127Q303.53125 33.540627 304.20312 32.65Q304.89062 31.759377 306.03125 31.243752Q307.1875 30.728127 308.57812 30.728127Q310.76562 30.728127 312.0 31.837502Q313.25 32.93125 313.29688 34.853127L313.29688 40.68125Q313.29688 42.43125 313.75 43.4625L313.75 43.65L311.46875 43.65ZM307.875 41.99375Q308.89062 41.99375 309.79688 41.478127Q310.71875 40.946877 311.125 40.103127L311.125 37.49375L309.4375 37.49375Q305.45312 37.49375 305.45312 39.821877Q305.45312 40.853127 306.125 41.43125Q306.8125 41.99375 307.875 41.99375ZM316.125 37.196877Q316.125 34.24375 317.5 32.49375Q318.875 30.728127 321.125 30.728127Q323.45312 30.728127 324.75 32.36875L324.85938 30.962502L326.84375 30.962502L326.84375 43.3375Q326.84375 45.80625 325.375 47.228127Q323.92188 48.65 321.45312 48.65Q320.09375 48.65 318.78125 48.05625Q317.46875 47.478127 316.76562 46.446877L317.89062 45.15Q319.29688 46.86875 321.3125 46.86875Q322.89062 46.86875 323.76562 45.978127Q324.65625 45.0875 324.65625 43.478127L324.65625 42.384377Q323.35938 43.884377 321.10938 43.884377Q318.875 43.884377 317.5 42.0875Q316.125 40.290627 316.125 37.196877ZM318.3125 37.446877Q318.3125 39.5875 319.1875 40.821877Q320.0625 42.040627 321.64062 42.040627Q323.70312 42.040627 324.65625 40.18125L324.65625 34.384377Q323.65625 32.571877 321.67188 32.571877Q320.09375 32.571877 319.20312 33.80625Q318.3125 35.040627 318.3125 37.446877ZM334.90625 43.884377Q332.32812 43.884377 330.70312 42.196877Q329.09375 40.49375 329.09375 37.665627L329.09375 37.259377Q329.09375 35.36875 329.8125 33.9Q330.53125 32.415627 331.82812 31.571877Q333.125 30.728127 334.64062 30.728127Q337.10938 30.728127 338.46875 32.36875Q339.84375 33.99375 339.84375 37.025L339.84375 37.93125L331.26562 37.93125Q331.3125 39.80625 332.35938 40.9625Q333.40625 42.11875 335.01562 42.11875Q336.17188 42.11875 336.96875 41.65Q337.76562 41.18125 338.35938 40.4L339.6875 41.43125Q338.09375 43.884377 334.90625 43.884377ZM334.64062 32.509377Q333.32812 32.509377 332.4375 33.478127Q331.54688 34.43125 331.32812 36.15L337.6875 36.15L337.6875 35.978127Q337.59375 34.3375 336.79688 33.43125Q336.0 32.509377 334.64062 32.509377ZM354.625 40.665627L359.5 26.587502L361.96875 26.587502L355.64062 43.65L353.64062 43.65L347.32812 26.587502L349.78125 26.587502L354.625 40.665627ZM366.0 43.65L363.82812 43.65L363.82812 30.962502L366.0 30.962502L366.0 43.65ZM363.65625 27.603127Q363.65625 27.071877 363.96875 26.712502Q364.29688 26.353127 364.92188 26.353127Q365.5625 26.353127 365.89062 26.712502Q366.21875 27.071877 366.21875 27.603127Q366.21875 28.134377 365.89062 28.493752Q365.5625 28.837502 364.92188 28.837502Q364.29688 28.837502 363.96875 28.493752Q363.65625 28.134377 363.65625 27.603127ZM374.90625 43.884377Q372.32812 43.884377 370.70312 42.196877Q369.09375 40.49375 369.09375 37.665627L369.09375 37.259377Q369.09375 35.36875 369.8125 33.9Q370.53125 32.415627 371.82812 31.571877Q373.125 30.728127 374.64062 30.728127Q377.10938 30.728127 378.46875 32.36875Q379.84375 33.99375 379.84375 37.025L379.84375 37.93125L371.26562 37.93125Q371.3125 39.80625 372.35938 40.9625Q373.40625 42.11875 375.01562 42.11875Q376.17188 42.11875 376.96875 41.65Q377.76562 41.18125 378.35938 40.4L379.6875 41.43125Q378.09375 43.884377 374.90625 43.884377ZM374.64062 32.509377Q373.32812 32.509377 372.4375 33.478127Q371.54688 34.43125 371.32812 36.15L377.6875 36.15L377.6875 35.978127Q377.59375 34.3375 376.79688 33.43125Q376.0 32.509377 374.64062 32.509377ZM393.875 40.665627L396.3125 30.962502L398.46875 30.962502L394.78125 43.65L393.03125 43.65L389.9375 34.040627L386.9375 43.65L385.1875 43.65L381.5 30.962502L383.65625 30.962502L386.15625 40.4625L389.10938 30.962502L390.85938 30.962502L393.875 40.665627ZM408.03125 40.290627Q408.03125 39.4 407.35938 38.915627Q406.70312 38.43125 405.04688 38.0875Q403.40625 37.728127 402.4375 37.24375Q401.46875 36.74375 401.0 36.071877Q400.54688 35.384377 400.54688 34.446877Q400.54688 32.884377 401.85938 31.806252Q403.1875 30.728127 405.23438 30.728127Q407.39062 30.728127 408.73438 31.853127Q410.07812 32.9625 410.07812 34.696877L407.89062 34.696877Q407.89062 33.80625 407.14062 33.165627Q406.39062 32.509377 405.23438 32.509377Q404.04688 32.509377 403.375 33.025Q402.71875 33.540627 402.71875 34.384377Q402.71875 35.165627 403.32812 35.571877Q403.95312 35.9625 405.57812 36.321877Q407.20312 36.68125 408.20312 37.196877Q409.21875 37.696877 409.70312 38.415627Q410.1875 39.11875 410.1875 40.134377Q410.1875 41.8375 408.82812 42.86875Q407.46875 43.884377 405.3125 43.884377Q403.78125 43.884377 402.60938 43.353127Q401.4375 42.80625 400.76562 41.8375Q400.10938 40.86875 400.10938 39.74375L402.28125 39.74375Q402.34375 40.8375 403.15625 41.478127Q403.96875 42.11875 405.3125 42.11875Q406.53125 42.11875 407.28125 41.61875Q408.03125 41.11875 408.03125 40.290627ZM429.35938 37.446877Q429.35938 40.3375 428.03125 42.11875Q426.70312 43.884377 424.4375 43.884377Q422.14062 43.884377 420.8125 42.415627L420.8125 48.525L418.64062 48.525L418.64062 30.962502L420.625 30.962502L420.73438 32.36875Q422.04688 30.728127 424.40625 30.728127Q426.6875 30.728127 428.01562 32.4625Q429.35938 34.18125 429.35938 37.24375L429.35938 37.446877ZM427.1875 37.196877Q427.1875 35.05625 426.26562 33.821877Q425.35938 32.571877 423.76562 32.571877Q421.79688 32.571877 420.8125 34.321877L420.8125 40.384377Q421.78125 42.11875 423.78125 42.11875Q425.34375 42.11875 426.26562 40.884377Q427.1875 39.634377 427.1875 37.196877ZM436.90625 43.884377Q434.32812 43.884377 432.70312 42.196877Q431.09375 40.49375 431.09375 37.665627L431.09375 37.259377Q431.09375 35.36875 431.8125 33.9Q432.53125 32.415627 433.82812 31.571877Q435.125 30.728127 436.64062 30.728127Q439.10938 30.728127 440.46875 32.36875Q441.84375 33.99375 441.84375 37.025L441.84375 37.93125L433.26562 37.93125Q433.3125 39.80625 434.35938 40.9625Q435.40625 42.11875 437.01562 42.11875Q438.17188 42.11875 438.96875 41.65Q439.76562 41.18125 440.35938 40.4L441.6875 41.43125Q440.09375 43.884377 436.90625 43.884377ZM436.64062 32.509377Q435.32812 32.509377 434.4375 33.478127Q433.54688 34.43125 433.32812 36.15L439.6875 36.15L439.6875 35.978127Q439.59375 34.3375 438.79688 33.43125Q438.0 32.509377 436.64062 32.509377ZM450.76562 32.915627Q450.28125 32.8375 449.70312 32.8375Q447.57812 32.8375 446.8125 34.65L446.8125 43.65L444.64062 43.65L444.64062 30.962502L446.75 30.962502L446.78125 32.43125Q447.85938 30.728127 449.8125 30.728127Q450.4375 30.728127 450.76562 30.900002L450.76562 32.915627ZM461.89062 26.587502L467.46875 40.509377L473.04688 26.587502L475.96875 26.587502L475.96875 43.65L473.71875 43.65L473.71875 37.009377L473.92188 29.837502L468.32812 43.65L466.59375 43.65L461.01562 29.868752L461.23438 37.009377L461.23438 43.65L458.98438 43.65L458.98438 26.587502L461.89062 26.587502ZM479.0625 37.196877Q479.0625 35.321877 479.79688 33.8375Q480.53125 32.353127 481.82812 31.540627Q483.14062 30.728127 484.82812 30.728127Q487.40625 30.728127 489.0 32.525Q490.60938 34.321877 490.60938 37.290627L490.60938 37.446877Q490.60938 39.30625 489.89062 40.775Q489.1875 42.24375 487.875 43.071877Q486.5625 43.884377 484.84375 43.884377Q482.26562 43.884377 480.65625 42.0875Q479.0625 40.290627 479.0625 37.3375L479.0625 37.196877ZM481.25 37.446877Q481.25 39.55625 482.21875 40.8375Q483.20312 42.11875 484.84375 42.11875Q486.5 42.11875 487.46875 40.821877Q488.4375 39.525 488.4375 37.196877Q488.4375 35.103127 487.45312 33.80625Q486.46875 32.509377 484.82812 32.509377Q483.21875 32.509377 482.23438 33.790627Q481.25 35.071877 481.25 37.446877ZM495.6875 30.962502L495.76562 32.55625Q497.21875 30.728127 499.5625 30.728127Q503.57812 30.728127 503.60938 35.275L503.60938 43.65L501.45312 43.65L501.45312 35.259377Q501.4375 33.884377 500.8125 33.228127Q500.20312 32.571877 498.90625 32.571877Q497.84375 32.571877 497.04688 33.134377Q496.25 33.696877 495.8125 34.61875L495.8125 43.65L493.64062 43.65L493.64062 30.962502L495.6875 30.962502ZM509.57812 27.900002L509.57812 30.962502L511.95312 30.962502L511.95312 32.65L509.57812 32.65L509.57812 40.509377Q509.57812 41.275 509.89062 41.65Q510.21875 42.025 510.98438 42.025Q511.35938 42.025 512.0156 41.884377L512.0156 43.65Q511.15625 43.884377 510.34375 43.884377Q508.89062 43.884377 508.15625 43.009377Q507.42188 42.11875 507.42188 40.509377L507.42188 32.65L505.10938 32.65L505.10938 30.962502L507.42188 30.962502L507.42188 27.900002L509.57812 27.900002ZM516.8125 32.509377Q518.25 30.728127 520.5625 30.728127Q524.5781 30.728127 524.6094 35.275L524.6094 43.65L522.4531 43.65L522.4531 35.259377Q522.4375 33.884377 521.8125 33.228127Q521.2031 32.571877 519.90625 32.571877Q518.84375 32.571877 518.0469 33.134377Q517.25 33.696877 516.8125 34.61875L516.8125 43.65L514.6406 43.65L514.6406 25.650002L516.8125 25.650002L516.8125 32.509377Z" fill-rule="nonzero"/></svg>