<svg version="1.1" viewBox="0.0 0.0 675.0 413.0" fill="none" stroke="none" stroke-linecap="square" stroke-miterlimit="10" width="675" height="413" xmlns:xlink="http://www.w3.org/1999/xlink" xmlns="http://www.w3.org/2000/svg"><path fill="#000000" d="M0 0L675.0 0L675.0 413.0L0 413.0L0 0Z" fill-rule="nonzero"/><path stroke="#333333" stroke-width="1.0" stroke-linecap="butt" d="M80.5 72.5L80.5 326.5" fill-rule="nonzero"/><path stroke="#333333" stroke-width="1.0" stroke-linecap="butt" d="M123.5 72.5L123.5 326.5" fill-rule="nonzero"/><path stroke="#333333" stroke-width="1.0" stroke-linecap="butt" d="M168.5 72.5L168.5 326.5" fill-rule="nonzero"/><path stroke="#333333" stroke-width="1.0" stroke-linecap="butt" d="M212.5 72.5L212.5 326.5" fill-rule="nonzero"/><path stroke="#333333" stroke-width="1.0" stroke-linecap="butt" d="M252.5 72.5L252.5 326.5" fill-rule="nonzero"/><path stroke="#333333" stroke-width="1.0" stroke-linecap="butt" d="M297.5 72.5L297.5 326.5" fill-rule="nonzero"/><path stroke="#333333" stroke-width="1.0" stroke-linecap="butt" d="M340.5 72.5L340.5 326.5" fill-rule="nonzero"/><path stroke="#333333" stroke-width="1.0" stroke-linecap="butt" d="M384.5 72.5L384.5 326.5" fill-rule="nonzero"/><path stroke="#333333" stroke-width="1.0" stroke-linecap="butt" d="M427.5 72.5L427.5 326.5" fill-rule="nonzero"/><path stroke="#333333" stroke-width="1.0" stroke-linecap="butt" d="M472.5 72.5L472.5 326.5" fill-rule="nonzero"/><path stroke="#333333" stroke-width="1.0" stroke-linecap="butt" d="M516.5 72.5L516.5 326.5" fill-rule="nonzero"/><path stroke="#333333" stroke-width="1.0" stroke-linecap="butt" d="M559.5 72.5L559.5 326.5" fill-rule="nonzero"/><path stroke="#333333" stroke-width="1.0" stroke-linecap="butt" d="M604.5 72.5L604.5 326.5" fill-rule="nonzero"/><path stroke="#333333" stroke-width="1.0" stroke-linecap="butt" d="M647.5 72.5L647.5 326.5" fill-rule="nonzero"/><path stroke="#cccccc" stroke-width="1.0" stroke-linecap="butt" d="M73.5 326.5L654.5 326.5" fill-rule="nonzero"/><path stroke="#333333" stroke-width="1.0" stroke-linecap="butt" d="M73.5 263.5L654.5 263.5" fill-rule="nonzero"/><path stroke="#333333" stroke-width="1.0" stroke-linecap="butt" d="M73.5 199.5L654.5 199.5" fill-rule="nonzero"/><path stroke="#333333" stroke-width="1.0" stroke-linecap="butt" d="M73.5 136.5L654.5 136.5" fill-rule="nonzero"/><path stroke="#333333" stroke-width="1.0" stroke-linecap="butt" d="M73.5 72.5L654.5 72.5" fill-rule="nonzero"/><clipPath id="id_0"><path d="M73.65 72.916664L654.35 72.916664L654.35 326.77246L73.65 326.77246L73.65 72.916664Z" clip-rule="nonzero"/></clipPath><path stroke="#4285f4" stroke-width="4.0" stroke-linecap="butt" clip-path="url(#id_0)" d="M80.485214 295.71954C80.485214 295.71954 109.19557 241.35585 123.55075 226.39153C137.90593 211.4272 153.21812 205.23793 168.0518 205.2517C182.88548 205.26544 199.1547 225.876 212.55286 226.47403C225.95102 227.07205 239.3492 214.9177 252.74736 210.89363C266.14554 206.86957 282.89325 205.2462 297.2484 201.41212C311.6036 197.57805 325.95877 189.32616 340.31396 187.58333C354.66913 185.84048 370.45984 192.87802 384.815 191.06749C399.1702 189.25696 413.52536 175.23137 427.88055 176.83253C442.23572 178.4337 457.5479 199.61926 472.3816 201.46924C487.2153 203.31921 502.52747 190.85616 516.8826 187.93237C531.23785 185.0086 545.593 183.89969 559.9482 183.4899C574.30334 183.08011 590.09406 193.60439 604.4493 185.53978C618.80444 177.47519 647.5148 135.16846 647.5148 135.16846" fill-rule="nonzero"/><path fill="#4285f4" clip-path="url(#id_0)" d="M84.985214 295.71954C84.985214 298.20483 82.97049 300.21954 80.485214 300.21954C77.99993 300.21954 75.985214 298.20483 75.985214 295.71954C75.985214 293.23425 77.99993 291.21954 80.485214 291.21954C82.97049 291.21954 84.985214 293.23425 84.985214 295.71954Z" fill-rule="nonzero"/><path fill="#4285f4" clip-path="url(#id_0)" d="M128.05075 226.39153C128.05075 228.87682 126.03603 230.89153 123.55075 230.89153C121.06547 230.89153 119.05075 228.87682 119.05075 226.39153C119.05075 223.90625 121.06547 221.89153 123.55075 221.89153C126.03603 221.89153 128.05075 223.90625 128.05075 226.39153Z" fill-rule="nonzero"/><path fill="#4285f4" clip-path="url(#id_0)" d="M172.5518 205.2517C172.5518 207.73697 170.53708 209.7517 168.0518 209.7517C165.56653 209.7517 163.5518 207.73697 163.5518 205.2517C163.5518 202.7664 165.56653 200.7517 168.0518 200.7517C170.53708 200.7517 172.5518 202.7664 172.5518 205.2517Z" fill-rule="nonzero"/><path fill="#4285f4" clip-path="url(#id_0)" d="M217.05286 226.47403C217.05286 228.9593 215.03815 230.97403 212.55286 230.97403C210.06758 230.97403 208.05286 228.9593 208.05286 226.47403C208.05286 223.98875 210.06758 221.97403 212.55286 221.97403C215.03815 221.97403 217.05286 223.98875 217.05286 226.47403Z" fill-rule="nonzero"/><path fill="#4285f4" clip-path="url(#id_0)" d="M257.24738 210.89363C257.24738 213.3789 255.23264 215.39363 252.74736 215.39363C250.26208 215.39363 248.24736 213.3789 248.24736 210.89363C248.24736 208.40836 250.26208 206.39363 252.74736 206.39363C255.23264 206.39363 257.24738 208.40836 257.24738 210.89363Z" fill-rule="nonzero"/><path fill="#4285f4" clip-path="url(#id_0)" d="M301.7484 201.41212C301.7484 203.8974 299.7337 205.91212 297.2484 205.91212C294.76312 205.91212 292.7484 203.8974 292.7484 201.41212C292.7484 198.92683 294.76312 196.91212 297.2484 196.91212C299.7337 196.91212 301.7484 198.92683 301.7484 201.41212Z" fill-rule="nonzero"/><path fill="#4285f4" clip-path="url(#id_0)" d="M344.81396 187.58333C344.81396 190.0686 342.79922 192.08333 340.31396 192.08333C337.82867 192.08333 335.81396 190.0686 335.81396 187.58333C335.81396 185.09804 337.82867 183.08333 340.31396 183.08333C342.79922 183.08333 344.81396 185.09804 344.81396 187.58333Z" fill-rule="nonzero"/><path fill="#4285f4" clip-path="url(#id_0)" d="M389.315 191.06749C389.315 193.55278 387.3003 195.56749 384.815 195.56749C382.32974 195.56749 380.315 193.55278 380.315 191.06749C380.315 188.58221 382.32974 186.56749 384.815 186.56749C387.3003 186.56749 389.315 188.58221 389.315 191.06749Z" fill-rule="nonzero"/><path fill="#4285f4" clip-path="url(#id_0)" d="M432.38055 176.83253C432.38055 179.31781 430.3658 181.33253 427.88055 181.33253C425.39526 181.33253 423.38055 179.31781 423.38055 176.83253C423.38055 174.34724 425.39526 172.33253 427.88055 172.33253C430.3658 172.33253 432.38055 174.34724 432.38055 176.83253Z" fill-rule="nonzero"/><path fill="#4285f4" clip-path="url(#id_0)" d="M476.8816 201.46924C476.8816 203.95451 474.86688 205.96924 472.3816 205.96924C469.89633 205.96924 467.8816 203.95451 467.8816 201.46924C467.8816 198.98395 469.89633 196.96924 472.3816 196.96924C474.86688 196.96924 476.8816 198.98395 476.8816 201.46924Z" fill-rule="nonzero"/><path fill="#4285f4" clip-path="url(#id_0)" d="M521.3826 187.93237C521.3826 190.41766 519.3679 192.43237 516.8826 192.43237C514.3974 192.43237 512.3826 190.41766 512.3826 187.93237C512.3826 185.4471 514.3974 183.43237 516.8826 183.43237C519.3679 183.43237 521.3826 185.4471 521.3826 187.93237Z" fill-rule="nonzero"/><path fill="#4285f4" clip-path="url(#id_0)" d="M564.4482 183.4899C564.4482 185.97517 562.4335 187.9899 559.9482 187.9899C557.4629 187.9899 555.4482 185.97517 555.4482 183.4899C555.4482 181.00462 557.4629 178.9899 559.9482 178.9899C562.4335 178.9899 564.4482 181.00462 564.4482 183.4899Z" fill-rule="nonzero"/><path fill="#4285f4" clip-path="url(#id_0)" d="M608.9493 185.53978C608.9493 188.02507 606.9345 190.03978 604.4493 190.03978C601.964 190.03978 599.9493 188.02507 599.9493 185.53978C599.9493 183.0545 601.964 181.03978 604.4493 181.03978C606.9345 181.03978 608.9493 183.0545 608.9493 185.53978Z" fill-rule="nonzero"/><path fill="#4285f4" clip-path="url(#id_0)" d="M652.0148 135.16846C652.0148 137.65373 650.00006 139.66846 647.5148 139.66846C645.0295 139.66846 643.0148 137.65373 643.0148 135.16846C643.0148 132.68317 645.0295 130.66846 647.5148 130.66846C650.00006 130.66846 652.0148 132.68317 652.0148 135.16846Z" fill-rule="nonzero"/><path fill="#efefef" d="M64.72813 327.4131Q64.72813 329.95996 63.853127 331.19434Q62.99375 332.4287 61.15 332.4287Q59.3375 332.4287 58.4625 331.2256Q57.5875 330.00684 57.55625 327.6162L57.55625 325.6787Q57.55625 323.1787 58.415627 321.95996Q59.290627 320.7412 61.134377 320.7412Q62.978127 320.7412 63.8375 321.9131Q64.7125 323.08496 64.72813 325.5381L64.72813 327.4131ZM63.290627 325.44434Q63.290627 323.6006 62.775 322.77246Q62.259377 321.9287 61.134377 321.9287Q60.025 321.9287 59.509377 322.77246Q59.009377 323.6006 58.99375 325.33496L58.99375 327.64746Q58.99375 329.4912 59.525 330.3662Q60.071877 331.2412 61.15 331.2412Q62.228127 331.2412 62.74375 330.4131Q63.259377 329.58496 63.290627 327.8037L63.290627 325.44434Z" fill-rule="nonzero"/><path fill="#efefef" d="M26.353125 268.8085L24.9 268.8085L24.9 259.16788L21.978125 260.246L21.978125 258.9335L26.11875 257.371L26.353125 257.371L26.353125 268.8085ZM37.728127 263.94913Q37.728127 266.496 36.853127 267.73038Q35.99375 268.96475 34.15 268.96475Q32.3375 268.96475 31.4625 267.76163Q30.5875 266.54288 30.55625 264.15225L30.55625 262.21475Q30.55625 259.71475 31.415625 258.496Q32.290627 257.27725 34.134377 257.27725Q35.978127 257.27725 36.8375 258.44913Q37.7125 259.621 37.728127 262.07413L37.728127 263.94913ZM36.290627 261.98038Q36.290627 260.13663 35.775 259.3085Q35.259377 258.46475 34.134377 258.46475Q33.025 258.46475 32.509377 259.3085Q32.009377 260.13663 31.99375 261.871L31.99375 264.1835Q31.99375 266.02725 32.525 266.90225Q33.071877 267.77725 34.15 267.77725Q35.228127 267.77725 35.74375 266.94913Q36.259377 266.121 36.290627 264.33975L36.290627 261.98038ZM46.728127 263.94913Q46.728127 266.496 45.853127 267.73038Q44.99375 268.96475 43.15 268.96475Q41.3375 268.96475 40.4625 267.76163Q39.5875 266.54288 39.55625 264.15225L39.55625 262.21475Q39.55625 259.71475 40.415627 258.496Q41.290627 257.27725 43.134377 257.27725Q44.978127 257.27725 45.8375 258.44913Q46.7125 259.621 46.728127 262.07413L46.728127 263.94913ZM45.290627 261.98038Q45.290627 260.13663 44.775 259.3085Q44.259377 258.46475 43.134377 258.46475Q42.025 258.46475 41.509377 259.3085Q41.009377 260.13663 40.99375 261.871L40.99375 264.1835Q40.99375 266.02725 41.525 266.90225Q42.071877 267.77725 43.15 267.77725Q44.228127 267.77725 44.74375 266.94913Q45.259377 266.121 45.290627 264.33975L45.290627 261.98038ZM55.728127 263.94913Q55.728127 266.496 54.853127 267.73038Q53.99375 268.96475 52.15 268.96475Q50.3375 268.96475 49.4625 267.76163Q48.5875 266.54288 48.55625 264.15225L48.55625 262.21475Q48.55625 259.71475 49.415627 258.496Q50.290627 257.27725 52.134377 257.27725Q53.978127 257.27725 54.8375 258.44913Q55.7125 259.621 55.728127 262.07413L55.728127 263.94913ZM54.290627 261.98038Q54.290627 260.13663 53.775 259.3085Q53.259377 258.46475 52.134377 258.46475Q51.025 258.46475 50.509377 259.3085Q50.009377 260.13663 49.99375 261.871L49.99375 264.1835Q49.99375 266.02725 50.525 266.90225Q51.071877 267.77725 52.15 267.77725Q53.228127 267.77725 53.74375 266.94913Q54.259377 266.121 54.290627 264.33975L54.290627 261.98038ZM64.72813 263.94913Q64.72813 266.496 63.853127 267.73038Q62.99375 268.96475 61.15 268.96475Q59.3375 268.96475 58.4625 267.76163Q57.5875 266.54288 57.55625 264.15225L57.55625 262.21475Q57.55625 259.71475 58.415627 258.496Q59.290627 257.27725 61.134377 257.27725Q62.978127 257.27725 63.8375 258.44913Q64.7125 259.621 64.72813 262.07413L64.72813 263.94913ZM63.290627 261.98038Q63.290627 260.13663 62.775 259.3085Q62.259377 258.46475 61.134377 258.46475Q60.025 258.46475 59.509377 259.3085Q59.009377 260.13663 58.99375 261.871L58.99375 264.1835Q58.99375 266.02725 59.525 266.90225Q60.071877 267.77725 61.15 267.77725Q62.228127 267.77725 62.74375 266.94913Q63.259377 266.121 63.290627 264.33975L63.290627 261.98038Z" fill-rule="nonzero"/><path fill="#efefef" d="M29.05625 205.34456L21.603125 205.34456L21.603125 204.29768L25.540625 199.92268Q26.415625 198.93831 26.74375 198.31331Q27.071875 197.68831 27.071875 197.03206Q27.071875 196.14143 26.525 195.57893Q25.99375 195.00081 25.103125 195.00081Q24.025 195.00081 23.415625 195.61018Q22.821875 196.21956 22.821875 197.31331L21.384375 197.31331Q21.384375 195.75081 22.384375 194.78206Q23.4 193.81331 25.103125 193.81331Q26.68125 193.81331 27.603125 194.64143Q28.525 195.46956 28.525 196.86018Q28.525 198.53206 26.384375 200.86018L23.3375 204.15706L29.05625 204.15706L29.05625 205.34456ZM37.728127 200.48518Q37.728127 203.03206 36.853127 204.26643Q35.99375 205.50081 34.15 205.50081Q32.3375 205.50081 31.4625 204.29768Q30.5875 203.07893 30.55625 200.68831L30.55625 198.75081Q30.55625 196.25081 31.415625 195.03206Q32.290627 193.81331 34.134377 193.81331Q35.978127 193.81331 36.8375 194.98518Q37.7125 196.15706 37.728127 198.61018L37.728127 200.48518ZM36.290627 198.51643Q36.290627 196.67268 35.775 195.84456Q35.259377 195.00081 34.134377 195.00081Q33.025 195.00081 32.509377 195.84456Q32.009377 196.67268 31.99375 198.40706L31.99375 200.71956Q31.99375 202.56331 32.525 203.43831Q33.071877 204.31331 34.15 204.31331Q35.228127 204.31331 35.74375 203.48518Q36.259377 202.65706 36.290627 200.87581L36.290627 198.51643ZM46.728127 200.48518Q46.728127 203.03206 45.853127 204.26643Q44.99375 205.50081 43.15 205.50081Q41.3375 205.50081 40.4625 204.29768Q39.5875 203.07893 39.55625 200.68831L39.55625 198.75081Q39.55625 196.25081 40.415627 195.03206Q41.290627 193.81331 43.134377 193.81331Q44.978127 193.81331 45.8375 194.98518Q46.7125 196.15706 46.728127 198.61018L46.728127 200.48518ZM45.290627 198.51643Q45.290627 196.67268 44.775 195.84456Q44.259377 195.00081 43.134377 195.00081Q42.025 195.00081 41.509377 195.84456Q41.009377 196.67268 40.99375 198.40706L40.99375 200.71956Q40.99375 202.56331 41.525 203.43831Q42.071877 204.31331 43.15 204.31331Q44.228127 204.31331 44.74375 203.48518Q45.259377 202.65706 45.290627 200.87581L45.290627 198.51643ZM55.728127 200.48518Q55.728127 203.03206 54.853127 204.26643Q53.99375 205.50081 52.15 205.50081Q50.3375 205.50081 49.4625 204.29768Q48.5875 203.07893 48.55625 200.68831L48.55625 198.75081Q48.55625 196.25081 49.415627 195.03206Q50.290627 193.81331 52.134377 193.81331Q53.978127 193.81331 54.8375 194.98518Q55.7125 196.15706 55.728127 198.61018L55.728127 200.48518ZM54.290627 198.51643Q54.290627 196.67268 53.775 195.84456Q53.259377 195.00081 52.134377 195.00081Q51.025 195.00081 50.509377 195.84456Q50.009377 196.67268 49.99375 198.40706L49.99375 200.71956Q49.99375 202.56331 50.525 203.43831Q51.071877 204.31331 52.15 204.31331Q53.228127 204.31331 53.74375 203.48518Q54.259377 202.65706 54.290627 200.87581L54.290627 198.51643ZM64.72813 200.48518Q64.72813 203.03206 63.853127 204.26643Q62.99375 205.50081 61.15 205.50081Q59.3375 205.50081 58.4625 204.29768Q57.5875 203.07893 57.55625 200.68831L57.55625 198.75081Q57.55625 196.25081 58.415627 195.03206Q59.290627 193.81331 61.134377 193.81331Q62.978127 193.81331 63.8375 194.98518Q64.7125 196.15706 64.72813 198.61018L64.72813 200.48518ZM63.290627 198.51643Q63.290627 196.67268 62.775 195.84456Q62.259377 195.00081 61.134377 195.00081Q60.025 195.00081 59.509377 195.84456Q59.009377 196.67268 58.99375 198.40706L58.99375 200.71956Q58.99375 202.56331 59.525 203.43831Q60.071877 204.31331 61.15 204.31331Q62.228127 204.31331 62.74375 203.48518Q63.259377 202.65706 63.290627 200.87581L63.290627 198.51643Z" fill-rule="nonzero"/><path fill="#efefef" d="M23.696875 135.48999L24.790625 135.48999Q25.80625 135.47437 26.384375 134.95874Q26.978125 134.42749 26.978125 133.53687Q26.978125 131.53687 24.99375 131.53687Q24.05625 131.53687 23.49375 132.06812Q22.93125 132.59937 22.93125 133.48999L21.49375 133.48999Q21.49375 132.13062 22.478125 131.23999Q23.4625 130.34937 24.99375 130.34937Q26.603125 130.34937 27.509375 131.20874Q28.43125 132.05249 28.43125 133.56812Q28.43125 134.30249 27.946875 135.00562Q27.4625 135.69312 26.634375 136.03687Q27.571875 136.33374 28.0875 137.02124Q28.603125 137.70874 28.603125 138.70874Q28.603125 140.23999 27.603125 141.14624Q26.603125 142.03687 24.99375 142.03687Q23.4 142.03687 22.384375 141.17749Q21.384375 140.30249 21.384375 138.88062L22.8375 138.88062Q22.8375 139.77124 23.415625 140.31812Q24.009375 140.84937 24.99375 140.84937Q26.040625 140.84937 26.5875 140.30249Q27.15 139.75562 27.15 138.73999Q27.15 137.73999 26.540625 137.20874Q25.93125 136.67749 24.790625 136.66187L23.696875 136.66187L23.696875 135.48999ZM37.728127 137.02124Q37.728127 139.56812 36.853127 140.80249Q35.99375 142.03687 34.15 142.03687Q32.3375 142.03687 31.4625 140.83374Q30.5875 139.61499 30.55625 137.22437L30.55625 135.28687Q30.55625 132.78687 31.415625 131.56812Q32.290627 130.34937 34.134377 130.34937Q35.978127 130.34937 36.8375 131.52124Q37.7125 132.69312 37.728127 135.14624L37.728127 137.02124ZM36.290627 135.05249Q36.290627 133.20874 35.775 132.38062Q35.259377 131.53687 34.134377 131.53687Q33.025 131.53687 32.509377 132.38062Q32.009377 133.20874 31.99375 134.94312L31.99375 137.25562Q31.99375 139.09937 32.525 139.97437Q33.071877 140.84937 34.15 140.84937Q35.228127 140.84937 35.74375 140.02124Q36.259377 139.19312 36.290627 137.41187L36.290627 135.05249ZM46.728127 137.02124Q46.728127 139.56812 45.853127 140.80249Q44.99375 142.03687 43.15 142.03687Q41.3375 142.03687 40.4625 140.83374Q39.5875 139.61499 39.55625 137.22437L39.55625 135.28687Q39.55625 132.78687 40.415627 131.56812Q41.290627 130.34937 43.134377 130.34937Q44.978127 130.34937 45.8375 131.52124Q46.7125 132.69312 46.728127 135.14624L46.728127 137.02124ZM45.290627 135.05249Q45.290627 133.20874 44.775 132.38062Q44.259377 131.53687 43.134377 131.53687Q42.025 131.53687 41.509377 132.38062Q41.009377 133.20874 40.99375 134.94312L40.99375 137.25562Q40.99375 139.09937 41.525 139.97437Q42.071877 140.84937 43.15 140.84937Q44.228127 140.84937 44.74375 140.02124Q45.259377 139.19312 45.290627 137.41187L45.290627 135.05249ZM55.728127 137.02124Q55.728127 139.56812 54.853127 140.80249Q53.99375 142.03687 52.15 142.03687Q50.3375 142.03687 49.4625 140.83374Q48.5875 139.61499 48.55625 137.22437L48.55625 135.28687Q48.55625 132.78687 49.415627 131.56812Q50.290627 130.34937 52.134377 130.34937Q53.978127 130.34937 54.8375 131.52124Q55.7125 132.69312 55.728127 135.14624L55.728127 137.02124ZM54.290627 135.05249Q54.290627 133.20874 53.775 132.38062Q53.259377 131.53687 52.134377 131.53687Q51.025 131.53687 50.509377 132.38062Q50.009377 133.20874 49.99375 134.94312L49.99375 137.25562Q49.99375 139.09937 50.525 139.97437Q51.071877 140.84937 52.15 140.84937Q53.228127 140.84937 53.74375 140.02124Q54.259377 139.19312 54.290627 137.41187L54.290627 135.05249ZM64.72813 137.02124Q64.72813 139.56812 63.853127 140.80249Q62.99375 142.03687 61.15 142.03687Q59.3375 142.03687 58.4625 140.83374Q57.5875 139.61499 57.55625 137.22437L57.55625 135.28687Q57.55625 132.78687 58.415627 131.56812Q59.290627 130.34937 61.134377 130.34937Q62.978127 130.34937 63.8375 131.52124Q64.7125 132.69312 64.72813 135.14624L64.72813 137.02124ZM63.290627 135.05249Q63.290627 133.20874 62.775 132.38062Q62.259377 131.53687 61.134377 131.53687Q60.025 131.53687 59.509377 132.38062Q59.009377 133.20874 58.99375 134.94312L58.99375 137.25562Q58.99375 139.09937 59.525 139.97437Q60.071877 140.84937 61.15 140.84937Q62.228127 140.84937 62.74375 140.02124Q63.259377 139.19312 63.290627 137.41187L63.290627 135.05249Z" fill-rule="nonzero"/><path fill="#efefef" d="M27.696875 74.58854L29.275 74.58854L29.275 75.77604L27.696875 75.77604L27.696875 78.416664L26.24375 78.416664L26.24375 75.77604L21.071875 75.77604L21.071875 74.916664L26.165625 67.041664L27.696875 67.041664L27.696875 74.58854ZM22.7125 74.58854L26.24375 74.58854L26.24375 69.010414L26.071875 69.322914L22.7125 74.58854ZM37.728127 73.55729Q37.728127 76.104164 36.853127 77.33854Q35.99375 78.572914 34.15 78.572914Q32.3375 78.572914 31.4625 77.36979Q30.5875 76.15104 30.55625 73.760414L30.55625 71.822914Q30.55625 69.322914 31.415625 68.104164Q32.290627 66.885414 34.134377 66.885414Q35.978127 66.885414 36.8375 68.05729Q37.7125 69.229164 37.728127 71.68229L37.728127 73.55729ZM36.290627 71.58854Q36.290627 69.74479 35.775 68.916664Q35.259377 68.072914 34.134377 68.072914Q33.025 68.072914 32.509377 68.916664Q32.009377 69.74479 31.99375 71.479164L31.99375 73.791664Q31.99375 75.635414 32.525 76.510414Q33.071877 77.385414 34.15 77.385414Q35.228127 77.385414 35.74375 76.55729Q36.259377 75.729164 36.290627 73.947914L36.290627 71.58854ZM46.728127 73.55729Q46.728127 76.104164 45.853127 77.33854Q44.99375 78.572914 43.15 78.572914Q41.3375 78.572914 40.4625 77.36979Q39.5875 76.15104 39.55625 73.760414L39.55625 71.822914Q39.55625 69.322914 40.415627 68.104164Q41.290627 66.885414 43.134377 66.885414Q44.978127 66.885414 45.8375 68.05729Q46.7125 69.229164 46.728127 71.68229L46.728127 73.55729ZM45.290627 71.58854Q45.290627 69.74479 44.775 68.916664Q44.259377 68.072914 43.134377 68.072914Q42.025 68.072914 41.509377 68.916664Q41.009377 69.74479 40.99375 71.479164L40.99375 73.791664Q40.99375 75.635414 41.525 76.510414Q42.071877 77.385414 43.15 77.385414Q44.228127 77.385414 44.74375 76.55729Q45.259377 75.729164 45.290627 73.947914L45.290627 71.58854ZM55.728127 73.55729Q55.728127 76.104164 54.853127 77.33854Q53.99375 78.572914 52.15 78.572914Q50.3375 78.572914 49.4625 77.36979Q48.5875 76.15104 48.55625 73.760414L48.55625 71.822914Q48.55625 69.322914 49.415627 68.104164Q50.290627 66.885414 52.134377 66.885414Q53.978127 66.885414 54.8375 68.05729Q55.7125 69.229164 55.728127 71.68229L55.728127 73.55729ZM54.290627 71.58854Q54.290627 69.74479 53.775 68.916664Q53.259377 68.072914 52.134377 68.072914Q51.025 68.072914 50.509377 68.916664Q50.009377 69.74479 49.99375 71.479164L49.99375 73.791664Q49.99375 75.635414 50.525 76.510414Q51.071877 77.385414 52.15 77.385414Q53.228127 77.385414 53.74375 76.55729Q54.259377 75.729164 54.290627 73.947914L54.290627 71.58854ZM64.72813 73.55729Q64.72813 76.104164 63.853127 77.33854Q62.99375 78.572914 61.15 78.572914Q59.3375 78.572914 58.4625 77.36979Q57.5875 76.15104 57.55625 73.760414L57.55625 71.822914Q57.55625 69.322914 58.415627 68.104164Q59.290627 66.885414 61.134377 66.885414Q62.978127 66.885414 63.8375 68.05729Q64.7125 69.229164 64.72813 71.68229L64.72813 73.55729ZM63.290627 71.58854Q63.290627 69.74479 62.775 68.916664Q62.259377 68.072914 61.134377 68.072914Q60.025 68.072914 59.509377 68.916664Q59.009377 69.74479 58.99375 71.479164L58.99375 73.791664Q58.99375 75.635414 59.525 76.510414Q60.071877 77.385414 61.15 77.385414Q62.228127 77.385414 62.74375 76.55729Q63.259377 75.729164 63.290627 73.947914L63.290627 71.58854Z" fill-rule="nonzero"/><path fill="#efefef" d="M63.70149 387.81998L59.974926 394.27457L59.068306 393.75113L57.248196 388.15366Q56.833202 386.90372 56.455997 386.30704Q56.078796 385.71036 55.510468 385.38223Q54.739162 384.93692 53.978584 385.1293Q53.212288 385.3003 52.766975 386.07162Q52.227913 387.00528 52.45096 387.8377Q52.68182 388.65662 53.629036 389.2035L52.910286 390.4484Q51.55712 389.66714 51.21816 388.31674Q50.88701 386.95282 51.73857 385.47787Q52.527634 384.11118 53.70575 383.72687Q54.883865 383.34256 56.08818 384.03787Q57.536068 384.8738 58.48197 387.8917L59.81371 392.1788L62.673084 387.22623L63.70149 387.81998ZM63.829086 377.88022Q66.034744 379.15366 66.666245 380.52863Q67.30556 381.89005 66.38368 383.4868Q65.47743 385.05646 63.997993 385.21268Q62.505028 385.36105 60.41906 384.1928L58.741135 383.22406Q56.576073 381.97406 55.95029 380.62045Q55.33232 379.2533 56.254196 377.65656Q57.17607 376.05984 58.620632 375.90152Q60.073006 375.7297 62.205288 376.94272L63.829086 377.88022ZM61.405346 378.14078Q59.808613 377.2189 58.833622 377.25137Q57.8451 377.27603 57.2826 378.2503Q56.727913 379.21106 57.20081 380.0795Q57.667988 380.92657 59.16219 381.80728L61.16487 382.96353Q62.76161 383.8854 63.785004 383.86282Q64.816216 383.82672 65.35528 382.89304Q65.89434 381.95935 65.434975 381.09875Q64.97561 380.23813 63.448627 379.32047L61.405346 378.14078ZM71.34993 374.5725L70.62337 375.83093L62.274338 371.01062L61.747086 374.0801L60.610428 373.42386L61.327576 369.05673L61.444763 368.85376L71.34993 374.5725ZM69.64021 360.7213Q70.370926 361.1432 70.72622 361.87155Q71.0758 362.57855 71.017746 363.4291Q71.80135 362.85312 72.69515 362.77374Q73.58895 362.6944 74.38732 363.15533Q75.67282 363.89752 75.930595 365.20105Q76.19618 366.49103 75.38368 367.89832Q74.56337 369.31915 73.305595 369.74768Q72.04211 370.15485 70.770134 369.42047Q69.97176 368.95953 69.58578 368.15933Q69.19407 367.3378 69.31462 366.379Q68.60705 366.85455 67.81997 366.9053Q67.01936 366.94827 66.28865 366.5264Q65.04374 365.80765 64.77397 364.5874Q64.504196 363.36716 65.26201 362.05457Q66.01201 360.75555 67.20366 360.37906Q68.3953 360.00256 69.64021 360.7213ZM73.6415 364.3846Q72.81607 363.90805 71.997185 364.13892Q71.164764 364.36197 70.67258 365.21445Q70.1882 366.0534 70.405525 366.8645Q70.63067 367.66205 71.46963 368.14642Q72.30859 368.6308 73.07698 368.4249Q73.83965 368.19766 74.35528 367.30457Q74.86309 366.42502 74.67854 365.6509Q74.48047 364.869 73.6415 364.3846ZM66.29041 362.64832Q65.860725 363.39258 66.055176 364.1183Q66.24391 364.82263 67.02875 365.27576Q67.786514 365.71326 68.50441 365.53235Q69.2223 365.3514 69.651985 364.60718Q70.089485 363.8494 69.88722 363.13724Q69.692764 362.41153 68.948524 361.98184Q68.19076 361.54434 67.44371 361.7445Q66.704475 361.93115 66.29041 362.64832ZM79.04617 363.21097L78.42117 364.2935L70.092636 354.00018L70.70982 352.93118L79.04617 363.21097ZM83.84993 352.92188L83.12337 354.1803L74.77434 349.36L74.247086 352.42947L73.11043 351.77322L73.827576 347.4061L73.94476 347.20312L83.84993 352.92188ZM88.34993 345.12762L87.62337 346.38608L79.27434 341.56577L78.747086 344.63525L77.61043 343.979L78.327576 339.61185L78.44476 339.40887L88.34993 345.12762Z" fill-rule="nonzero"/><path fill="#efefef" d="M106.76703 387.81998L103.04047 394.27457L102.13384 393.75113L100.313736 388.15366Q99.89874 386.90372 99.52154 386.30704Q99.14433 385.7104 98.576004 385.38226Q97.8047 384.93695 97.04412 385.1293Q96.277824 385.3003 95.83251 386.07162Q95.29345 387.00528 95.516495 387.8377Q95.74736 388.65662 96.69457 389.2035L95.97582 390.4484Q94.62266 389.66714 94.2837 388.31674Q93.952545 386.95282 94.80411 385.47787Q95.59317 384.11118 96.771286 383.72687Q97.9494 383.34256 99.15372 384.03787Q100.6016 384.8738 101.54751 387.8917L102.87925 392.1788L105.738625 387.22623L106.76703 387.81998ZM106.89462 377.88022Q109.10028 379.15366 109.73178 380.52863Q110.37109 381.89005 109.44922 383.4868Q108.54297 385.05646 107.06353 385.21268Q105.570564 385.36105 103.4846 384.1928L101.80667 383.22406Q99.64161 381.97406 99.01583 380.62045Q98.39786 379.2533 99.31973 377.65656Q100.24161 376.05984 101.68617 375.90152Q103.13854 375.7297 105.27083 376.94272L106.89462 377.88022ZM104.47089 378.14078Q102.87415 377.2189 101.89916 377.25137Q100.91064 377.27603 100.34814 378.2503Q99.79345 379.21106 100.26635 380.0795Q100.73353 380.92657 102.22772 381.80728L104.23041 382.96353Q105.82714 383.8854 106.85054 383.86282Q107.88175 383.82672 108.420815 382.89304Q108.95988 381.95935 108.50051 381.09875Q108.041145 380.23813 106.51416 379.32047L104.47089 378.14078ZM114.41547 374.5725L113.6889 375.83093L105.339874 371.01062L104.81262 374.0801L103.675964 373.42386L104.39311 369.05673L104.5103 368.85376L114.41547 374.5725ZM112.70575 360.7213Q113.43646 361.1432 113.791756 361.87155Q114.141335 362.57855 114.08328 363.4291Q114.86689 362.85312 115.76069 362.77374Q116.65449 362.6944 117.45286 363.15533Q118.738365 363.89752 118.99613 365.20105Q119.26172 366.49103 118.44922 367.89832Q117.62891 369.31915 116.37113 369.74768Q115.10764 370.15485 113.83567 369.42047Q113.0373 368.95953 112.65131 368.15933Q112.259605 367.3378 112.38016 366.379Q111.672585 366.85455 110.885506 366.9053Q110.0849 366.94827 109.35419 366.5264Q108.109276 365.80765 107.83951 364.5874Q107.56973 363.36716 108.327545 362.05457Q109.077545 360.75555 110.269196 360.37906Q111.46084 360.00256 112.70575 360.7213ZM116.70704 364.3846Q115.881615 363.90805 115.06272 364.13892Q114.2303 364.36197 113.73811 365.21445Q113.25374 366.0534 113.47106 366.8645Q113.696205 367.66205 114.535164 368.14642Q115.37413 368.6308 116.14252 368.4249Q116.90519 368.19766 117.420815 367.30457Q117.92863 366.42502 117.74408 365.6509Q117.546005 364.869 116.70704 364.3846ZM109.35595 362.64832Q108.92626 363.39258 109.12071 364.1183Q109.30945 364.82263 110.094284 365.27576Q110.85206 365.71326 111.56995 365.53235Q112.287834 365.3514 112.71752 364.60718Q113.15502 363.8494 112.95276 363.13724Q112.75831 362.41153 112.01406 361.98184Q111.256294 361.54434 110.50925 361.7445Q109.77001 361.93115 109.35595 362.64832ZM122.11171 363.21097L121.48671 364.2935L113.15817 354.00018L113.77536 352.93118L122.11171 363.21097ZM126.91547 352.92188L126.1889 354.1803L117.839874 349.36L117.31262 352.42947L116.175964 351.77322L116.89311 347.4061L117.0103 347.20312L126.91547 352.92188ZM132.76703 342.78665L129.04047 349.24124L128.13385 348.7178L126.313736 343.12033Q125.89874 341.8704 125.52154 341.2737Q125.14433 340.67706 124.576004 340.34894Q123.8047 339.90363 123.04412 340.09598Q122.277824 340.267 121.83251 341.0383Q121.29345 341.972 121.516495 342.80438Q121.74736 343.6233 122.69457 344.17017L121.97582 345.41507Q120.62266 344.63382 120.2837 343.28342Q119.952545 341.9195 120.80411 340.44455Q121.59317 339.07785 122.771286 338.69354Q123.9494 338.30923 125.15372 339.00455Q126.6016 339.84048 127.54751 342.85837L128.87924 347.14548L131.73862 342.1929L132.76703 342.78665Z" fill-rule="nonzero"/><path fill="#efefef" d="M155.76808 380.02576L152.04152 386.48035L151.1349 385.9569L149.31479 380.35944Q148.8998 379.10947 148.52258 378.51282Q148.14539 377.91614 147.57706 377.588Q146.80576 377.1427 146.04518 377.33505Q145.27888 377.50607 144.83357 378.27737Q144.29451 379.21106 144.51755 380.0435Q144.74841 380.86237 145.69563 381.40924L144.97688 382.65417Q143.62372 381.87292 143.28474 380.52252Q142.9536 379.15857 143.80516 377.68362Q144.59422 376.31693 145.77234 375.93265Q146.95045 375.54834 148.15477 376.24365Q149.60266 377.0796 150.54855 380.09747L151.8803 384.38458L154.73967 379.432L155.76808 380.02576ZM155.89568 370.086Q158.10133 371.35944 158.73283 372.7344Q159.37215 374.09583 158.45027 375.69257Q157.54402 377.26224 156.06459 377.41846Q154.57162 377.56683 152.48566 376.3986L150.80772 375.42984Q148.64267 374.17984 148.01688 372.82623Q147.39891 371.45908 148.32079 369.86234Q149.24266 368.2656 150.68723 368.1073Q152.1396 367.9355 154.27188 369.1485L155.89568 370.086ZM153.47194 370.34653Q151.8752 369.42465 150.9002 369.45715Q149.9117 369.4818 149.3492 370.4561Q148.79451 371.41684 149.2674 372.28525Q149.73457 373.13232 151.22878 374.01306L153.23146 375.1693Q154.8282 376.0912 155.8516 376.0686Q156.88281 376.0325 157.42188 375.09882Q157.96094 374.16513 157.50157 373.30453Q157.0422 372.4439 155.51521 371.5262L153.47194 370.34653ZM163.41652 366.77826L162.68996 368.0367L154.34093 363.2164L153.81367 366.2859L152.67702 365.62964L153.39417 361.26248L153.51135 361.0595L163.41652 366.77826ZM163.97702 355.80746Q164.21053 356.4655 164.18219 357.17084Q164.15385 357.87616 163.77885 358.52567Q163.28667 359.37817 162.5 359.77197Q161.71333 360.16577 160.75244 360.0801Q159.79935 359.9809 158.8792 359.44965Q157.89139 358.87933 157.3253 358.0473Q156.74568 357.2075 156.72464 356.27518Q156.7036 355.3429 157.23485 354.42273Q158.0786 352.9613 159.65904 352.75516Q161.22595 352.5412 163.12038 353.63495L163.48573 353.8459Q166.35445 355.50214 167.02429 357.40442Q167.69414 359.3067 166.41443 361.617L166.2738 361.86057L165.2048 361.24338L165.35324 360.98627Q166.22461 359.41452 165.92987 358.14377Q165.62941 356.85168 163.97702 355.80746ZM162.86765 357.72894Q163.22702 357.1065 163.15282 356.36002Q163.0729 355.5922 162.6452 355.02048L162.14453 354.7314Q160.91315 354.02048 159.82935 354.11646Q158.75336 354.19885 158.2768 355.0243Q157.80023 355.84973 158.14716 356.7176Q158.48055 357.57764 159.52248 358.1792Q160.52382 358.75732 161.46812 358.65298Q162.3989 358.54086 162.86765 357.72894ZM171.11276 355.41675L170.48776 356.49927L162.15923 346.20596L162.77641 345.13696L171.11276 355.41675ZM175.91652 345.12762L175.18996 346.38608L166.84093 341.56577L166.31367 344.63525L165.17702 343.979L165.89417 339.61185L166.01135 339.40887L175.91652 345.12762Z" fill-rule="nonzero"/><path fill="#efefef" d="M200.26913 380.02576L196.54257 386.48035L195.63596 385.9569L193.81584 380.35944Q193.40085 379.10947 193.02365 378.51282Q192.64644 377.91614 192.07811 377.588Q191.30681 377.1427 190.54623 377.33508Q189.77994 377.50607 189.33463 378.27737Q188.79556 379.21106 189.0186 380.0435Q189.24947 380.8624 190.19669 381.40927L189.47794 382.65417Q188.12477 381.87292 187.7858 380.52252Q187.45465 379.1586 188.30621 377.68362Q189.09528 376.31696 190.27339 375.93265Q191.4515 375.54834 192.65582 376.24365Q194.10371 377.0796 195.04962 380.09747L196.38135 384.38458L199.24072 379.432L200.26913 380.02576ZM200.39673 370.086Q202.60239 371.35944 203.23389 372.7344Q203.8732 374.09583 202.95132 375.69257Q202.04507 377.26224 200.56564 377.41846Q199.07268 377.56683 196.98671 376.3986L195.30878 375.42984Q193.14372 374.17984 192.51793 372.82623Q191.89996 371.45908 192.82184 369.86234Q193.74371 368.26562 195.18828 368.1073Q196.64066 367.9355 198.77293 369.1485L200.39673 370.086ZM197.97299 370.34653Q196.37625 369.42465 195.40128 369.45715Q194.41275 369.4818 193.85025 370.4561Q193.29556 371.41684 193.76846 372.28525Q194.23563 373.13232 195.72983 374.01306L197.73251 375.1693Q199.32925 376.0912 200.35265 376.0686Q201.38387 376.0325 201.92293 375.09882Q202.46199 374.16513 202.00262 373.30453Q201.54326 372.4439 200.01627 371.5262L197.97299 370.34653ZM207.91757 366.77826L207.19101 368.0367L198.84198 363.2164L198.31473 366.2859L197.17807 365.62964L197.89522 361.2625L198.0124 361.0595L207.91757 366.77826ZM208.47807 355.80746Q208.71158 356.4655 208.68324 357.17084Q208.6549 357.87616 208.2799 358.5257Q207.78772 359.37817 207.00105 359.77197Q206.21439 360.16577 205.2535 360.0801Q204.3004 359.9809 203.38025 359.44965Q202.39244 358.87933 201.82635 358.0473Q201.24673 357.2075 201.2257 356.27518Q201.20465 355.3429 201.7359 354.42273Q202.57965 352.9613 204.1601 352.75516Q205.727 352.5412 207.62143 353.63495L207.98679 353.8459Q210.8555 355.50214 211.52534 357.40442Q212.19519 359.3067 210.91548 361.617L210.77486 361.86057L209.70586 361.24338L209.8543 360.98627Q210.72566 359.41452 210.43092 358.14377Q210.13046 356.85168 208.47807 355.80746ZM207.3687 357.72894Q207.72807 357.1065 207.65387 356.36002Q207.57396 355.5922 207.14626 355.0205L206.64558 354.73145Q205.4142 354.0205 204.3304 354.11646Q203.25441 354.19888 202.77785 355.0243Q202.30128 355.84973 202.64821 356.7176Q202.9816 357.57764 204.02353 358.1792Q205.02487 358.75732 205.96918 358.65298Q206.89995 358.54086 207.3687 357.72894ZM215.61382 355.41675L214.98882 356.49927L206.66028 346.20596L207.27747 345.13696L215.61382 355.41675ZM221.76913 342.78665L218.04257 349.24127L217.13596 348.71783L215.31584 343.12033Q214.90085 341.8704 214.52365 341.2737Q214.14644 340.67706 213.57811 340.34894Q212.80681 339.90363 212.04623 340.09598Q211.27994 340.267 210.83463 341.0383Q210.29556 341.972 210.5186 342.8044Q210.74947 343.6233 211.69669 344.17017L210.97794 345.41507Q209.62477 344.63382 209.2858 343.28342Q208.95465 341.9195 209.80621 340.44455Q210.59528 339.07785 211.77339 338.69354Q212.9515 338.30923 214.15582 339.00455Q215.60371 339.84048 216.54962 342.8584L217.88135 347.1455L220.74072 342.1929L221.76913 342.78665Z" fill-rule="nonzero"/><path fill="#efefef" d="M240.46364 380.02576L236.73708 386.48035L235.83046 385.9569L234.01035 380.35944Q233.59535 379.10947 233.21814 378.51282Q232.84094 377.91614 232.27261 377.588Q231.50131 377.1427 230.74074 377.33508Q229.97444 377.50607 229.52913 378.27737Q228.99007 379.21106 229.2131 380.0435Q229.44397 380.86237 230.39119 381.40924L229.67244 382.65417Q228.31927 381.87292 227.9803 380.52252Q227.64915 379.1586 228.50072 377.68362Q229.28978 376.31693 230.4679 375.93265Q231.64601 375.54834 232.85033 376.24365Q234.29822 377.0796 235.24413 380.09747L236.57585 384.38458L239.43523 379.432L240.46364 380.02576ZM240.59123 370.08603Q242.79689 371.35947 243.42839 372.7344Q244.0677 374.09586 243.14583 375.69257Q242.23958 377.26224 240.76015 377.41846Q239.26718 377.56683 237.18121 376.3986L235.50328 375.42984Q233.33823 374.17984 232.71243 372.82623Q232.09447 371.45908 233.01634 369.86234Q233.93822 368.26562 235.38277 368.10733Q236.83514 367.9355 238.96742 369.14853L240.59123 370.08603ZM238.1675 370.34656Q236.57076 369.42468 235.59576 369.45715Q234.60724 369.48184 234.04475 370.4561Q233.49007 371.41684 233.96297 372.28525Q234.43013 373.13232 235.92433 374.01306L237.92702 375.1693Q239.52376 376.0912 240.54715 376.0686Q241.57837 376.0325 242.11743 375.09882Q242.65648 374.16513 242.19711 373.30453Q241.73775 372.44394 240.21077 371.52625L238.1675 370.34656ZM248.11206 366.7783L247.3855 368.0367L239.03648 363.2164L238.50923 366.2859L237.37257 365.62964L238.08972 361.2625L238.20691 361.05954L248.11206 366.7783ZM248.67256 355.80746Q248.90608 356.4655 248.87775 357.17084Q248.84941 357.87616 248.47441 358.5257Q247.98222 359.37817 247.19556 359.77197Q246.40889 360.16577 245.44798 360.0801Q244.4949 359.9809 243.57475 359.44965Q242.58694 358.87933 242.02086 358.04733Q241.44124 357.2075 241.4202 356.2752Q241.39915 355.3429 241.9304 354.42276Q242.77415 352.96133 244.35458 352.7552Q245.9215 352.54123 247.81593 353.63498L248.18127 353.84592Q251.04999 355.50217 251.71983 357.40445Q252.3897 359.30673 251.10997 361.617L250.96935 361.86057L249.90034 361.24338L250.04878 360.9863Q250.92017 359.41452 250.62543 358.14377Q250.32497 356.85168 248.67256 355.80746ZM247.56319 357.72897Q247.92256 357.1065 247.84837 356.36002Q247.76845 355.5922 247.34074 355.0205L246.84007 354.73145Q245.60869 354.0205 244.52489 354.11646Q243.4489 354.19888 242.97234 355.02432Q242.49577 355.84973 242.8427 356.7176Q243.17609 357.57764 244.21803 358.1792Q245.21938 358.75732 246.16367 358.653Q247.09444 358.54086 247.56319 357.72897ZM255.80832 355.41675L255.18332 356.49927L246.85478 346.20596L247.47197 345.13696L255.80832 355.41675ZM253.7495 344.23273L254.29637 343.2855Q254.79065 342.39813 254.63318 341.63965Q254.46997 340.85983 253.69867 340.41452Q251.96661 339.41452 250.97443 341.13303Q250.50568 341.94492 250.68451 342.6977Q250.86333 343.45047 251.63464 343.89578L250.9159 345.1407Q249.73863 344.461 249.45952 343.16318Q249.1804 341.8654 249.94603 340.53928Q250.75072 339.1455 251.94807 338.79037Q253.13972 338.41388 254.4523 339.1717Q255.08829 339.53888 255.45502 340.30994Q255.80823 341.07315 255.69186 341.96222Q256.4177 341.29874 257.2709 341.19595Q258.1241 341.09314 258.99014 341.59314Q260.31625 342.35876 260.60107 343.67792Q260.87238 344.98926 260.0677 346.38303Q259.2708 347.76324 258.01877 348.21313Q256.761 348.64166 255.52962 347.93073L256.25616 346.67227Q257.0275 347.11758 257.79016 346.89035Q258.54712 346.64178 259.0393 345.78928Q259.56274 344.88266 259.36255 344.13562Q259.1702 343.37503 258.29065 342.86722Q257.42462 342.36722 256.65985 342.62933Q255.8951 342.89145 255.31125 343.87143L254.76437 344.81866L253.7495 344.23273Z" fill-rule="nonzero"/><path fill="#efefef" d="M284.9647 380.02576L281.23813 386.48035L280.3315 385.9569L278.5114 380.35944Q278.0964 379.10947 277.7192 378.51282Q277.342 377.91614 276.77368 377.588Q276.00235 377.1427 275.2418 377.33508Q274.4755 377.50607 274.03018 378.27737Q273.49112 379.21106 273.71417 380.0435Q273.94504 380.8624 274.89224 381.40927L274.1735 382.65417Q272.8203 381.87292 272.48135 380.52252Q272.1502 379.1586 273.00177 377.68362Q273.79083 376.31696 274.96896 375.93265Q276.14706 375.54834 277.35138 376.24365Q278.79926 377.0796 279.74518 380.09747L281.0769 384.38458L283.93628 379.432L284.9647 380.02576ZM285.0923 370.086Q287.29794 371.35944 287.92944 372.7344Q288.56876 374.09583 287.64688 375.69257Q286.74063 377.26224 285.2612 377.41846Q283.76822 377.56683 281.68225 376.3986L280.00433 375.42984Q277.83926 374.17984 277.2135 372.82623Q276.59552 371.45908 277.5174 369.86234Q278.43927 368.26562 279.88385 368.1073Q281.3362 367.9355 283.46848 369.1485L285.0923 370.086ZM282.66855 370.34653Q281.0718 369.42465 280.09683 369.45715Q279.1083 369.4818 278.5458 370.4561Q277.99112 371.41684 278.46402 372.28525Q278.93118 373.13232 280.42538 374.01306L282.42807 375.1693Q284.0248 376.0912 285.04822 376.0686Q286.0794 376.0325 286.61847 375.09882Q287.15753 374.16513 286.69818 373.30453Q286.2388 372.4439 284.71182 371.5262L282.66855 370.34653ZM292.61313 366.77826L291.88657 368.0367L283.53754 363.2164L283.01028 366.2859L281.87363 365.62964L282.5908 361.2625L282.70798 361.0595L292.61313 366.77826ZM293.1736 355.80746Q293.40714 356.4655 293.3788 357.17084Q293.35046 357.87616 292.97546 358.5257Q292.48328 359.37817 291.69662 359.77197Q290.90994 360.16577 289.94904 360.0801Q288.99597 359.9809 288.0758 359.44965Q287.088 358.87933 286.5219 358.0473Q285.9423 357.2075 285.92126 356.27518Q285.9002 355.3429 286.43146 354.42273Q287.2752 352.9613 288.85565 352.75516Q290.42255 352.5412 292.317 353.63495L292.68234 353.8459Q295.55106 355.50214 296.22092 357.40442Q296.89075 359.3067 295.61102 361.617L295.4704 361.86057L294.4014 361.24338L294.54984 360.98627Q295.42123 359.41452 295.1265 358.14377Q294.82602 356.85168 293.1736 355.80746ZM292.06424 357.72894Q292.4236 357.1065 292.34943 356.36002Q292.2695 355.5922 291.8418 355.0205L291.34113 354.73145Q290.10974 354.0205 289.02594 354.11646Q287.94995 354.19888 287.4734 355.0243Q286.99683 355.84973 287.34375 356.7176Q287.67715 357.57764 288.7191 358.1792Q289.72043 358.75732 290.66473 358.65298Q291.5955 358.54086 292.06424 357.72894ZM300.3094 355.41675L299.6844 356.49927L291.35583 346.20596L291.97302 345.13696L300.3094 355.41675ZM302.46976 342.04987L303.25882 340.68317L304.28723 341.27692L303.49817 342.64362L305.785 343.96393L305.05844 345.22235L302.7716 343.90204L300.18567 348.381L299.4414 347.95132L295.16833 339.6025L295.93396 338.27643L302.46976 342.04987ZM299.97757 346.36646L301.7432 343.3083L296.91238 340.51923L297.09708 340.82434L299.97757 346.36646Z" fill-rule="nonzero"/><path fill="#efefef" d="M328.03024 380.02576L324.30368 386.48035L323.39706 385.9569L321.57693 380.35944Q321.16196 379.10947 320.78476 378.51282Q320.40753 377.91614 319.8392 377.588Q319.0679 377.1427 318.30734 377.33505Q317.54105 377.50607 317.09573 378.27737Q316.55667 379.21106 316.7797 380.0435Q317.01056 380.86237 317.9578 381.40924L317.23904 382.65414Q315.88586 381.8729 315.5469 380.52252Q315.21576 379.15857 316.06732 377.68362Q316.85638 376.31693 318.0345 375.93262Q319.21262 375.5483 320.41693 376.24362Q321.8648 377.07956 322.81073 380.09747L324.14246 384.38458L327.00183 379.432L328.03024 380.02576ZM328.15784 370.086Q330.3635 371.35944 330.995 372.73438Q331.6343 374.09583 330.71243 375.69257Q329.80618 377.26224 328.32675 377.41843Q326.83377 377.56683 324.7478 376.3986L323.0699 375.42984Q320.90482 374.17984 320.27905 372.8262Q319.66107 371.45908 320.58295 369.86234Q321.50482 368.2656 322.94937 368.1073Q324.40176 367.93546 326.53403 369.1485L328.15784 370.086ZM325.7341 370.34653Q324.13736 369.42465 323.16238 369.45712Q322.17386 369.4818 321.61136 370.4561Q321.05667 371.41684 321.52957 372.28525Q321.99673 373.13232 323.49094 374.01303L325.49362 375.16928Q327.09036 376.09116 328.11374 376.0686Q329.14496 376.03247 329.68402 375.09882Q330.22308 374.16513 329.76373 373.3045Q329.30435 372.4439 327.77737 371.5262L325.7341 370.34653ZM335.67868 366.77826L334.95212 368.0367L326.6031 363.2164L326.07584 366.28586L324.93918 365.6296L325.6563 361.26248L325.7735 361.0595L335.67868 366.77826ZM336.23917 355.80746Q336.4727 356.46548 336.44434 357.1708Q336.41602 357.87616 336.04102 358.52567Q335.54883 359.37817 334.76215 359.77197Q333.9755 360.16577 333.0146 360.08008Q332.06152 359.98087 331.14136 359.44962Q330.15353 358.8793 329.58746 358.0473Q329.00784 357.2075 328.9868 356.27518Q328.96576 355.34286 329.497 354.42273Q330.34076 352.9613 331.9212 352.75516Q333.4881 352.5412 335.38254 353.63495L335.7479 353.8459Q338.6166 355.50214 339.28644 357.40442Q339.9563 359.3067 338.67657 361.61697L338.53595 361.86057L337.46695 361.24338L337.6154 360.98627Q338.48676 359.4145 338.19202 358.14377Q337.89157 356.85168 336.23917 355.80746ZM335.1298 357.72894Q335.48917 357.10648 335.41498 356.36002Q335.33505 355.59216 334.90735 355.02048L334.40668 354.7314Q333.1753 354.02048 332.0915 354.11642Q331.0155 354.19885 330.53894 355.0243Q330.06238 355.84973 330.4093 356.7176Q330.7427 357.57764 331.78464 358.1792Q332.78598 358.75732 333.7303 358.65298Q334.66104 358.54083 335.1298 357.72894ZM343.3749 355.41672L342.7499 356.49927L334.4214 346.20596L335.03857 345.13696L343.3749 355.41672ZM341.19275 345.82135L336.56982 342.48474L339.4839 337.43744L340.63406 338.1015L338.3372 342.0798L340.85812 343.9322Q340.83917 342.96503 341.37042 342.04486Q342.15167 340.6917 343.4979 340.4225Q344.8519 340.13974 346.36746 341.01474Q347.883 341.88974 348.286 343.223Q348.689 344.55624 347.83743 346.0312Q347.08743 347.33023 345.89368 347.74158Q344.68643 348.14514 343.3306 347.52475L344.0181 346.33395Q344.9331 346.7179 345.64737 346.48074Q346.34808 346.2358 346.80902 345.43744Q347.31683 344.55786 347.0027 343.727Q346.69635 342.88257 345.65442 342.281Q344.66663 341.7107 343.75873 341.9082Q342.84512 342.08438 342.3295 342.97748Q341.85294 343.8029 341.95267 344.4739L342.02798 344.96844L341.19275 345.82135Z" fill-rule="nonzero"/><path fill="#efefef" d="M372.53128 380.02576L368.80472 386.48035L367.8981 385.9569L366.078 380.35944Q365.663 379.1095 365.2858 378.51282Q364.9086 377.91617 364.34027 377.58804Q363.56897 377.14273 362.80838 377.33508Q362.04208 377.50607 361.59677 378.2774Q361.0577 379.21106 361.28076 380.0435Q361.51163 380.8624 362.45883 381.40927L361.74008 382.65417Q360.3869 381.87292 360.04794 380.52252Q359.7168 379.1586 360.56836 377.68365Q361.35742 376.31696 362.53555 375.93265Q363.71365 375.54834 364.91797 376.24365Q366.36588 377.0796 367.31177 380.09747L368.6435 384.38458L371.50287 379.432L372.53128 380.02576ZM372.65887 370.086Q374.86453 371.35944 375.49603 372.7344Q376.13535 374.09583 375.21347 375.69257Q374.30722 377.26224 372.8278 377.41846Q371.3348 377.56683 369.24884 376.3986L367.57092 375.42984Q365.40585 374.17984 364.7801 372.82623Q364.1621 371.45908 365.08398 369.86234Q366.00586 368.26562 367.45044 368.1073Q368.9028 367.9355 371.0351 369.1485L372.65887 370.086ZM370.23514 370.34656Q368.6384 369.42468 367.66342 369.45715Q366.6749 369.4818 366.1124 370.4561Q365.5577 371.41684 366.0306 372.28528Q366.49777 373.13235 367.99197 374.01306L369.99466 375.1693Q371.5914 376.0912 372.6148 376.0686Q373.646 376.0325 374.18506 375.09882Q374.72412 374.16513 374.26477 373.30453Q373.8054 372.4439 372.2784 371.52625L370.23514 370.34656ZM380.17972 366.7783L379.45316 368.0367L371.10413 363.2164L370.57687 366.2859L369.44022 365.62964L370.15738 361.2625L370.27457 361.05954L380.17972 366.7783ZM380.7402 355.80746Q380.97372 356.4655 380.9454 357.17084Q380.91705 357.87616 380.54205 358.5257Q380.04987 359.37817 379.2632 359.77197Q378.47653 360.16577 377.51562 360.0801Q376.56256 359.9809 375.6424 359.44965Q374.6546 358.87933 374.0885 358.04733Q373.50888 357.2075 373.48785 356.2752Q373.4668 355.3429 373.99805 354.42273Q374.8418 352.96133 376.42224 352.75516Q377.98914 352.5412 379.88358 353.63495L380.24893 353.8459Q383.11765 355.50214 383.7875 357.40442Q384.45734 359.3067 383.17764 361.617L383.03702 361.86057L381.96802 361.24338L382.11646 360.98627Q382.98782 359.41452 382.69308 358.14377Q382.3926 356.85168 380.7402 355.80746ZM379.63083 357.72897Q379.9902 357.1065 379.91602 356.36002Q379.8361 355.5922 379.4084 355.0205L378.9077 354.73145Q377.67636 354.0205 376.59253 354.11646Q375.51654 354.19888 375.03998 355.0243Q374.56342 355.84973 374.91034 356.7176Q375.24374 357.57764 376.28568 358.1792Q377.28702 358.75732 378.23132 358.65298Q379.16208 358.54086 379.63083 357.72897ZM387.87598 355.41675L387.25098 356.49927L378.92242 346.20596L379.5396 345.13696L387.87598 355.41675ZM383.2761 338.63397L384.3451 339.25116L384.21228 339.4812Q383.3956 340.95822 383.73456 342.30862Q384.07352 343.65903 385.51093 344.66934Q385.06317 343.38242 385.84442 342.02927Q386.5866 340.74374 387.93073 340.5094Q389.28265 340.26154 390.717 341.08966Q392.24606 341.97247 392.68967 343.32916Q393.11972 344.67804 392.31503 346.07178Q391.49472 347.4926 389.9044 347.74716Q388.3005 347.99393 386.59552 347.00955L386.10837 346.7283Q383.38852 345.158 382.62604 343.16614Q381.86356 341.1743 383.14328 338.864L383.2761 338.63397ZM386.76135 342.84732Q386.39417 343.4833 386.47406 344.25113Q386.54047 345.01117 386.9973 345.5636L387.4574 345.82922Q388.67523 346.53235 389.732 346.42078Q390.79654 346.29565 391.2731 345.4702Q391.75748 344.63126 391.41626 343.78476Q391.07507 342.93823 390.07373 342.3601Q389.05884 341.77417 388.14734 341.91547Q387.2301 342.03543 386.76135 342.84732Z" fill-rule="nonzero"/><path fill="#efefef" d="M415.59683 380.02576L411.87027 386.48035L410.96365 385.9569L409.14352 380.35944Q408.72855 379.10947 408.35135 378.51282Q407.97412 377.91614 407.4058 377.588Q406.6345 377.1427 405.87393 377.33505Q405.10764 377.50607 404.66232 378.27737Q404.12326 379.21106 404.3463 380.0435Q404.57715 380.86237 405.52438 381.40924L404.80563 382.65417Q403.45245 381.87292 403.1135 380.52252Q402.78235 379.15857 403.6339 377.68362Q404.42297 376.31693 405.60107 375.93262Q406.7792 375.5483 407.98352 376.24362Q409.4314 377.07956 410.37732 380.09747L411.70905 384.38458L414.56842 379.432L415.59683 380.02576ZM415.72443 370.086Q417.93008 371.35944 418.56158 372.7344Q419.2009 374.09583 418.27902 375.69257Q417.37277 377.26224 415.89334 377.41843Q414.40036 377.56683 412.3144 376.3986L410.63647 375.42984Q408.4714 374.17984 407.84564 372.82623Q407.22766 371.45908 408.14954 369.86234Q409.0714 368.2656 410.51596 368.1073Q411.96835 367.93546 414.10062 369.1485L415.72443 370.086ZM413.3007 370.34653Q411.70395 369.42465 410.72897 369.45715Q409.74045 369.4818 409.17795 370.4561Q408.62326 371.41684 409.09616 372.28525Q409.56332 373.13232 411.05753 374.01306L413.0602 375.1693Q414.65695 376.0912 415.68033 376.0686Q416.71155 376.0325 417.2506 375.09882Q417.78967 374.16513 417.33032 373.3045Q416.87094 372.4439 415.34396 371.5262L413.3007 370.34653ZM423.24527 366.77826L422.5187 368.0367L414.16968 363.2164L413.64243 366.2859L412.50577 365.62964L413.2229 361.26248L413.3401 361.0595L423.24527 366.77826ZM423.80576 355.80746Q424.03928 356.46548 424.01096 357.17084Q423.9826 357.87616 423.6076 358.52567Q423.11542 359.37817 422.32874 359.77197Q421.54208 360.16577 420.58118 360.08008Q419.6281 359.98087 418.70795 359.44962Q417.72012 358.8793 417.15405 358.0473Q416.57443 357.2075 416.5534 356.27518Q416.53235 355.34286 417.0636 354.42273Q417.90735 352.9613 419.4878 352.75516Q421.0547 352.5412 422.94913 353.63495L423.31448 353.8459Q426.1832 355.50214 426.85303 357.40442Q427.5229 359.3067 426.24316 361.61697L426.10254 361.86057L425.03354 361.24338L425.18198 360.98627Q426.05334 359.4145 425.7586 358.14377Q425.45816 356.85168 423.80576 355.80746ZM422.69638 357.72894Q423.05576 357.1065 422.98157 356.36002Q422.90164 355.5922 422.47394 355.02048L421.97327 354.7314Q420.74188 354.02048 419.65808 354.11642Q418.5821 354.19885 418.10553 355.0243Q417.62897 355.84973 417.9759 356.7176Q418.3093 357.57764 419.35123 358.1792Q420.35257 358.75732 421.29688 358.65298Q422.22763 358.54083 422.69638 357.72894ZM430.9415 355.41672L430.3165 356.49927L421.98798 346.20596L422.60516 345.13696L430.9415 355.41672ZM427.89474 337.60013L434.68277 346.96793L433.92496 348.28052L427.4539 339.11374L424.37576 344.4452L423.34735 343.85144L427.1911 337.19388L427.89474 337.60013Z" fill-rule="nonzero"/><path fill="#efefef" d="M460.09787 380.02576L456.3713 386.48035L455.4647 385.9569L453.6446 380.35944Q453.22958 379.1095 452.8524 378.51282Q452.4752 377.91617 451.90686 377.58804Q451.13556 377.14273 450.37497 377.33508Q449.60867 377.5061 449.16336 378.2774Q448.6243 379.2111 448.84735 380.0435Q449.07822 380.8624 450.02542 381.40927L449.30667 382.65417Q447.9535 381.87292 447.61453 380.52252Q447.2834 379.1586 448.13495 377.68365Q448.924 376.31696 450.10214 375.93265Q451.28024 375.54834 452.48456 376.24365Q453.93246 377.0796 454.87836 380.09747L456.21008 384.38458L459.06946 379.432L460.09787 380.02576ZM460.22546 370.086Q462.43112 371.35944 463.06262 372.7344Q463.70193 374.09583 462.78006 375.69257Q461.8738 377.26224 460.39438 377.41846Q458.9014 377.56683 456.81543 376.3986L455.1375 375.42984Q452.97244 374.17984 452.34668 372.82623Q451.7287 371.45908 452.65057 369.86237Q453.57245 368.26562 455.01703 368.1073Q456.4694 367.9355 458.60168 369.1485L460.22546 370.086ZM457.80173 370.34656Q456.205 369.42468 455.23 369.45715Q454.2415 369.4818 453.679 370.45612Q453.1243 371.41684 453.5972 372.28528Q454.06436 373.13235 455.55856 374.01306L457.56125 375.1693Q459.158 376.0912 460.1814 376.0686Q461.2126 376.0325 461.75165 375.09882Q462.2907 374.16513 461.83136 373.30453Q461.37198 372.4439 459.845 371.52625L457.80173 370.34656ZM467.7463 366.7783L467.01974 368.0367L458.67072 363.2164L458.14346 366.2859L457.0068 365.62964L457.72397 361.2625L457.84116 361.05954L467.7463 366.7783ZM468.30682 355.80746Q468.5403 356.4655 468.512 357.17084Q468.48364 357.87616 468.10864 358.5257Q467.61646 359.37817 466.8298 359.77197Q466.04312 360.16577 465.08224 360.0801Q464.12915 359.9809 463.20898 359.44965Q462.2212 358.87933 461.6551 358.04733Q461.07547 357.2075 461.05444 356.2752Q461.0334 355.3429 461.56464 354.42273Q462.4084 352.96133 463.98883 352.7552Q465.55573 352.5412 467.45016 353.63495L467.81552 353.8459Q470.68423 355.50214 471.3541 357.40442Q472.02393 359.30673 470.74423 361.617L470.6036 361.86057L469.5346 361.24338L469.68304 360.9863Q470.5544 359.41452 470.25967 358.14377Q469.9592 356.85168 468.30682 355.80746ZM467.19745 357.72897Q467.55682 357.1065 467.4826 356.36002Q467.40268 355.5922 466.97498 355.0205L466.4743 354.73145Q465.24295 354.0205 464.15915 354.11646Q463.08313 354.19888 462.60657 355.0243Q462.13 355.84973 462.47693 356.7176Q462.81033 357.57764 463.85226 358.1792Q464.8536 358.75732 465.7979 358.653Q466.7287 358.54086 467.19745 357.72897ZM475.44257 355.41675L474.81757 356.49927L466.489 346.20596L467.1062 345.13696L475.44257 355.41675ZM474.03662 339.07065Q474.76733 339.49252 475.12262 340.2209Q475.4722 340.92792 475.41412 341.77847Q476.19772 341.20248 477.09155 341.1231Q477.98535 341.04373 478.78372 341.50467Q480.0692 342.24686 480.327 343.5504Q480.59256 344.84042 479.78006 346.2477Q478.95975 347.66852 477.702 348.09705Q476.43848 348.50424 475.1665 347.76987Q474.36813 347.30893 473.98215 346.50873Q473.59045 345.68716 473.711 344.72836Q473.00345 345.20392 472.21637 345.2547Q471.41574 345.29764 470.68503 344.87576Q469.44012 344.157 469.17035 342.93677Q468.90057 341.71652 469.6584 340.40396Q470.4084 339.10492 471.60004 338.72842Q472.79172 338.3519 474.03662 339.07065ZM478.0379 342.734Q477.21246 342.25745 476.39355 342.48828Q475.56116 342.71133 475.06897 343.56384Q474.5846 344.4028 474.8019 345.21387Q475.02704 346.0114 475.86603 346.4958Q476.705 346.98016 477.47336 346.7743Q478.23602 346.54706 478.75165 345.65396Q479.25946 344.7744 479.07492 344.0003Q478.87686 343.21838 478.0379 342.734ZM470.6868 340.9977Q470.2571 341.74194 470.45157 342.46765Q470.6403 343.172 471.42514 343.62512Q472.1829 344.06262 472.9008 343.8817Q473.61868 343.7008 474.04837 342.95654Q474.48587 342.1988 474.2836 341.4866Q474.08914 340.7609 473.3449 340.3312Q472.58713 339.8937 471.8401 340.0939Q471.10086 340.28052 470.6868 340.9977Z" fill-rule="nonzero"/><path fill="#efefef" d="M504.59894 380.02576L500.87238 386.48035L499.96576 385.9569L498.14563 380.35944Q497.73065 379.10947 497.35345 378.51282Q496.97623 377.91614 496.4079 377.588Q495.6366 377.1427 494.87604 377.33505Q494.10974 377.50607 493.66443 378.27737Q493.12537 379.21106 493.34842 380.0435Q493.57925 380.86237 494.5265 381.40924L493.80774 382.65417Q492.45456 381.87292 492.1156 380.52252Q491.78445 379.15857 492.63602 377.68362Q493.42508 376.31693 494.6032 375.93262Q495.7813 375.54834 496.98563 376.24365Q498.4335 377.0796 499.37943 380.09747L500.71115 384.38458L503.57053 379.432L504.59894 380.02576ZM504.72653 370.086Q506.9322 371.35944 507.5637 372.7344Q508.203 374.09583 507.28113 375.69257Q506.37488 377.26224 504.89545 377.41843Q503.40247 377.56683 501.3165 376.3986L499.63858 375.42984Q497.4735 374.17984 496.84775 372.82623Q496.22977 371.45908 497.15164 369.86234Q498.07352 368.2656 499.51807 368.1073Q500.97046 367.93546 503.10272 369.1485L504.72653 370.086ZM502.3028 370.34653Q500.70605 369.42465 499.73108 369.45715Q498.74255 369.4818 498.18005 370.4561Q497.62537 371.41684 498.09827 372.28525Q498.56543 373.13232 500.05963 374.01306L502.06232 375.1693Q503.65906 376.0912 504.68246 376.0686Q505.71365 376.0325 506.25272 375.09882Q506.79178 374.16513 506.33243 373.3045Q505.87305 372.4439 504.34607 371.5262L502.3028 370.34653ZM512.2474 366.77826L511.5208 368.0367L503.17178 363.2164L502.64453 366.2859L501.50787 365.62964L502.225 361.26248L502.3422 361.0595L512.2474 366.77826ZM512.80786 355.80746Q513.0414 356.4655 513.01306 357.17084Q512.98474 357.87616 512.60974 358.52567Q512.11755 359.37817 511.33087 359.77197Q510.5442 360.16577 509.58328 360.08008Q508.63022 359.9809 507.71005 359.44965Q506.72226 358.87933 506.15616 358.0473Q505.57654 357.2075 505.5555 356.27518Q505.53445 355.3429 506.0657 354.42273Q506.90945 352.9613 508.4899 352.75516Q510.0568 352.5412 511.95123 353.63495L512.3166 353.8459Q515.1853 355.50214 515.85516 357.40442Q516.525 359.3067 515.2453 361.617L515.1047 361.86057L514.03564 361.24338L514.1841 360.98627Q515.0555 359.41452 514.76074 358.14377Q514.46027 356.85168 512.80786 355.80746ZM511.6985 357.72894Q512.05786 357.1065 511.98367 356.36002Q511.90375 355.5922 511.47604 355.02048L510.97537 354.7314Q509.744 354.02048 508.6602 354.11646Q507.5842 354.19885 507.10764 355.0243Q506.63107 355.84973 506.978 356.7176Q507.3114 357.57764 508.35333 358.1792Q509.35468 358.75732 510.29898 358.65298Q511.22974 358.54086 511.6985 357.72894ZM519.9436 355.41675L519.3186 356.49927L510.99008 346.20596L511.60727 345.13696L519.9436 355.41675ZM520.80786 341.95105Q521.0414 342.6091 521.01306 343.31442Q520.98474 344.01974 520.60974 344.66928Q520.11755 345.52176 519.3309 345.91556Q518.5442 346.30936 517.5833 346.2237Q516.6302 346.12448 515.7101 345.59323Q514.7222 345.02292 514.1562 344.19092Q513.57654 343.35107 513.5555 342.4188Q513.5345 341.48648 514.06573 340.5663Q514.9095 339.10492 516.48987 338.89877Q518.0568 338.68478 519.95123 339.77853L520.3166 339.98947Q523.1853 341.64572 523.85516 343.548Q524.525 345.4503 523.2453 347.7606L523.1047 348.00415L522.03564 347.38696L522.1841 347.12985Q523.0555 345.5581 522.76074 344.28735Q522.46027 342.99527 520.80786 341.95105ZM519.6985 343.87256Q520.05786 343.2501 519.9837 342.5036Q519.90375 341.73578 519.4761 341.1641L518.9754 340.87503Q517.744 340.1641 516.6602 340.26004Q515.5842 340.34247 515.10767 341.16788Q514.6311 341.99332 514.978 342.86118Q515.3114 343.72122 516.35333 344.32278Q517.3547 344.9009 518.29895 344.79657Q519.22974 344.68445 519.6985 343.87256Z" fill-rule="nonzero"/><path fill="#efefef" d="M543.1645 387.81998L539.4379 394.27457L538.5313 393.75113L536.7112 388.15366Q536.2962 386.9037 535.919 386.30704Q535.5418 385.71036 534.97345 385.38223Q534.20215 384.93692 533.4416 385.12927Q532.6753 385.3003 532.23 386.0716Q531.6909 387.00528 531.91394 387.8377Q532.14484 388.6566 533.09204 389.20346L532.3733 390.4484Q531.02014 389.66714 530.68115 388.31674Q530.35 386.9528 531.20154 385.47784Q531.9906 384.11115 533.16876 383.72684Q534.34686 383.34253 535.55115 384.03784Q536.9991 384.87378 537.94495 387.8917L539.2767 392.1788L542.13605 387.22623L543.1645 387.81998ZM543.29205 377.88022Q545.49774 379.15366 546.1292 380.52863Q546.76855 381.89005 545.8467 383.4868Q544.9404 385.05646 543.461 385.21265Q541.968 385.36105 539.8821 384.1928L538.2041 383.22406Q536.03906 381.97406 535.41327 380.62045Q534.7953 379.2533 535.71716 377.65656Q536.63904 376.0598 538.0836 375.90152Q539.536 375.72968 541.6683 376.94272L543.29205 377.88022ZM540.86835 378.14075Q539.2716 377.21887 538.29663 377.25137Q537.3081 377.27603 536.7456 378.2503Q536.1909 379.21106 536.6638 380.07947Q537.131 380.92654 538.6252 381.80728L540.62787 382.96353Q542.2246 383.8854 543.248 383.86282Q544.2792 383.82672 544.81824 382.89304Q545.3573 381.95935 544.89795 381.09872Q544.4386 380.23813 542.9116 379.32043L540.86835 378.14075ZM550.8129 374.57248L550.08636 375.83093L541.7373 371.01062L541.2101 374.0801L540.0734 373.42386L540.7906 369.0567L540.9078 368.85373L550.8129 374.57248ZM551.3734 363.60168Q551.60693 364.2597 551.5786 364.96506Q551.55023 365.67038 551.17523 366.3199Q550.68304 367.1724 549.8964 367.5662Q549.10974 367.96 548.14886 367.8743Q547.19574 367.7751 546.2756 367.24384Q545.2878 366.67352 544.7217 365.84152Q544.1421 365.0017 544.12103 364.0694Q544.1 363.13712 544.6312 362.21695Q545.475 360.75552 547.0554 360.54938Q548.6224 360.33542 550.5168 361.42917L550.88214 361.6401Q553.75085 363.29636 554.4207 365.19864Q555.0905 367.10092 553.81085 369.4112L553.6702 369.6548L552.6012 369.0376L552.74963 368.7805Q553.62103 367.20874 553.3263 365.938Q553.0258 364.6459 551.3734 363.60168ZM550.26404 365.52316Q550.6234 364.90073 550.5492 364.15424Q550.4693 363.3864 550.0416 362.8147L549.54095 362.52563Q548.3096 361.8147 547.22577 361.91064Q546.1498 361.99307 545.6732 362.8185Q545.19666 363.64395 545.5436 364.5118Q545.87695 365.37186 546.9189 365.97342Q547.9202 366.55154 548.8645 366.4472Q549.7953 366.33505 550.26404 365.52316ZM558.50916 363.21094L557.88416 364.2935L549.5556 354.00018L550.1728 352.93118L558.50916 363.21094ZM563.3129 352.92184L562.58636 354.1803L554.2373 349.36L553.7101 352.42947L552.5734 351.77322L553.2906 347.40607L553.4078 347.2031L563.3129 352.92184ZM564.79205 340.6411Q566.99774 341.91455 567.6292 343.28952Q568.26855 344.65094 567.3467 346.24768Q566.4404 347.81735 564.961 347.97357Q563.468 348.12195 561.3821 346.9537L559.7041 345.98495Q557.53906 344.73495 556.91327 343.38135Q556.2953 342.0142 557.21716 340.41745Q558.13904 338.82074 559.5836 338.6624Q561.036 338.4906 563.1683 339.7036L564.79205 340.6411ZM562.36835 340.90167Q560.7716 339.9798 559.79663 340.01227Q558.8081 340.03693 558.2456 341.0112Q557.6909 341.97195 558.1638 342.8404Q558.631 343.68747 560.1252 344.56818L562.12787 345.72443Q563.7246 346.6463 564.748 346.62372Q565.7792 346.58762 566.31824 345.65393Q566.8573 344.72025 566.39795 343.85965Q565.9386 342.99902 564.4116 342.08136L562.36835 340.90167Z" fill-rule="nonzero"/><path fill="#efefef" d="M587.6655 387.81998L583.93896 394.27457L583.03235 393.75113L581.2122 388.15366Q580.79724 386.90372 580.42004 386.30704Q580.04285 385.7104 579.4745 385.38226Q578.7032 384.93695 577.9426 385.1293Q577.17633 385.30032 576.731 386.07162Q576.19196 387.0053 576.415 387.8377Q576.6459 388.65662 577.5931 389.2035L576.8743 390.4484Q575.5212 389.66714 575.1822 388.31674Q574.8511 386.95282 575.70264 385.47787Q576.4917 384.11118 577.6698 383.72687Q578.8479 383.34256 580.05225 384.03787Q581.5001 384.8738 582.446 387.8917L583.7778 392.1788L586.63715 387.22623L587.6655 387.81998ZM587.79315 377.88022Q589.9988 379.15366 590.6303 380.52863Q591.2696 381.89005 590.3477 383.4868Q589.44147 385.05646 587.96204 385.21268Q586.46906 385.36108 584.3831 384.1928L582.7052 383.22406Q580.5401 381.97406 579.9143 380.62045Q579.2964 379.2533 580.21826 377.6566Q581.14014 376.05984 582.58466 375.90155Q584.03705 375.7297 586.1693 376.94272L587.79315 377.88022ZM585.3694 378.14078Q583.77264 377.2189 582.79767 377.25137Q581.80914 377.27603 581.24664 378.25034Q580.69196 379.21106 581.16486 380.0795Q581.632 380.92657 583.1262 381.80728L585.1289 382.96353Q586.72565 383.8854 587.749 383.86282Q588.7803 383.82672 589.31934 382.89304Q589.8584 381.95935 589.399 381.09875Q588.93964 380.23813 587.41266 379.32047L585.3694 378.14078ZM595.31396 374.5725L594.5874 375.83093L586.2384 371.01062L585.7111 374.0801L584.57446 373.42386L585.2916 369.05673L585.4088 368.85376L595.31396 374.5725ZM595.87445 363.60168Q596.108 364.25974 596.07965 364.96506Q596.05133 365.67038 595.67633 366.31992Q595.18414 367.1724 594.39746 367.5662Q593.6108 367.96 592.6499 367.87433Q591.6968 367.77512 590.7767 367.24387Q589.7888 366.67355 589.2228 365.84155Q588.6431 365.0017 588.6221 364.06943Q588.6011 363.13712 589.1323 362.21695Q589.9761 360.75555 591.55646 360.5494Q593.1234 360.33545 595.0178 361.4292L595.3832 361.64014Q598.2519 363.2964 598.92175 365.19867Q599.5916 367.10095 598.3119 369.41122L598.17126 369.6548L597.10223 369.0376L597.2507 368.78052Q598.1221 367.20874 597.82733 365.938Q597.52686 364.6459 595.87445 363.60168ZM594.7651 365.5232Q595.12445 364.90073 595.0503 364.15424Q594.97034 363.3864 594.54266 362.81473L594.042 362.52567Q592.8106 361.81473 591.7268 361.91068Q590.6508 361.9931 590.17426 362.8185Q589.6977 363.64395 590.0446 364.5118Q590.378 365.37186 591.4199 365.97342Q592.42126 366.55154 593.36554 366.44724Q594.2963 366.33508 594.7651 365.5232ZM603.0102 363.21097L602.3852 364.2935L594.0567 354.00018L594.6739 352.93118L603.0102 363.21097ZM607.81396 352.92188L607.0874 354.1803L598.7384 349.36L598.2111 352.42947L597.07446 351.77322L597.7916 347.4061L597.9088 347.20312L607.81396 352.92188ZM612.31396 345.12762L611.5874 346.38608L603.2384 341.56577L602.7111 344.63525L601.57446 343.979L602.2916 339.61185L602.4088 339.40887L612.31396 345.12762Z" fill-rule="nonzero"/><path fill="#efefef" d="M630.7311 387.81998L627.0045 394.27457L626.0979 393.75113L624.2778 388.15366Q623.8628 386.9037 623.4856 386.30704Q623.1084 385.71036 622.54004 385.38223Q621.76874 384.93692 621.0082 385.12927Q620.2419 385.3003 619.7966 386.0716Q619.2575 387.00528 619.4805 387.8377Q619.7114 388.6566 620.6586 389.20346L619.9399 390.4484Q618.58673 389.66714 618.24774 388.31674Q617.91656 386.9528 618.7681 385.47784Q619.5572 384.11115 620.73535 383.72684Q621.91345 383.34256 623.11774 384.03787Q624.5657 384.8738 625.51154 387.8917L626.84326 392.1788L629.70264 387.22623L630.7311 387.81998ZM630.85864 377.88022Q633.06433 379.15366 633.6958 380.52863Q634.33514 381.89005 633.41327 383.4868Q632.507 385.05646 631.0276 385.21265Q629.5346 385.36105 627.44867 384.1928L625.7707 383.22406Q623.60565 381.97406 622.97986 380.62045Q622.3619 379.2533 623.28375 377.65656Q624.2056 376.0598 625.6502 375.90152Q627.1026 375.72968 629.23486 376.94272L630.85864 377.88022ZM628.43494 378.14075Q626.8382 377.21887 625.8632 377.25137Q624.8747 377.27603 624.3122 378.2503Q623.7575 379.21106 624.2304 380.07947Q624.6976 380.92654 626.1918 381.80728L628.19446 382.96353Q629.7912 383.8854 630.8146 383.86282Q631.8458 383.82672 632.3849 382.89304Q632.92395 381.95935 632.46454 381.09872Q632.0052 380.23813 630.4782 379.32043L628.43494 378.14075ZM638.3795 374.57248L637.65295 375.83093L629.3039 371.01062L628.7767 374.0801L627.64 373.42386L628.3572 369.0567L628.47437 368.85373L638.3795 374.57248ZM638.94 363.60168Q639.1735 364.25974 639.1452 364.96506Q639.1168 365.67038 638.7418 366.3199Q638.24963 367.1724 637.463 367.5662Q636.67633 367.96 635.71545 367.8743Q634.7623 367.77512 633.84216 367.24387Q632.8544 366.67355 632.28827 365.84152Q631.7087 365.0017 631.6876 364.0694Q631.66656 363.13712 632.1978 362.21695Q633.04156 360.75552 634.622 360.54938Q636.18896 360.33542 638.0834 361.42917L638.4487 361.6401Q641.31744 363.29636 641.9873 365.19864Q642.6571 367.10092 641.37744 369.41122L641.2368 369.6548L640.1678 369.0376L640.3162 368.7805Q641.1876 367.20874 640.8929 365.938Q640.5924 364.6459 638.94 363.60168ZM637.8306 365.52316Q638.19 364.90073 638.1158 364.15424Q638.0359 363.3864 637.6082 362.8147L637.10754 362.52563Q635.87616 361.8147 634.79236 361.91068Q633.7164 361.99307 633.2398 362.8185Q632.76324 363.64395 633.11017 364.5118Q633.44354 365.37186 634.4855 365.97342Q635.4868 366.55154 636.4311 366.4472Q637.3619 366.33508 637.8306 365.52316ZM646.07574 363.21097L645.45074 364.2935L637.1222 354.00018L637.7394 352.93118L646.07574 363.21097ZM650.8795 352.92184L650.15295 354.1803L641.8039 349.36L641.2767 352.42947L640.14 351.77322L640.8572 347.40607L640.97437 347.2031L650.8795 352.92184ZM656.7311 342.78665L653.0045 349.24124L652.0979 348.7178L650.2778 343.12033Q649.8628 341.87036 649.4856 341.2737Q649.1084 340.67703 648.54004 340.3489Q647.76874 339.9036 647.0082 340.09598Q646.2419 340.26697 645.7966 341.03827Q645.2575 341.97195 645.4805 342.80438Q645.7114 343.6233 646.6586 344.17017L645.9399 345.41507Q644.58673 344.63382 644.24774 343.28342Q643.91656 341.9195 644.7681 340.44452Q645.5572 339.07785 646.73535 338.69354Q647.91345 338.30923 649.11774 339.00455Q650.5657 339.84048 651.51154 342.85837L652.84326 347.14548L655.70264 342.1929L656.7311 342.78665Z" fill-rule="nonzero"/><path fill="#efefef" d="M163.57812 41.415627Q162.71875 42.65 161.15625 43.275Q159.60938 43.884377 157.54688 43.884377Q155.45312 43.884377 153.82812 42.915627Q152.21875 41.93125 151.32812 40.134377Q150.45312 38.321877 150.4375 35.93125L150.4375 34.446877Q150.4375 30.587502 152.23438 28.478127Q154.03125 26.353127 157.28125 26.353127Q159.95312 26.353127 161.57812 27.728127Q163.21875 29.087502 163.57812 31.587502L161.32812 31.587502Q160.70312 28.196877 157.29688 28.196877Q155.03125 28.196877 153.85938 29.790627Q152.70312 31.384377 152.6875 34.384377L152.6875 35.790627Q152.6875 38.65 154.0 40.353127Q155.3125 42.040627 157.5625 42.040627Q158.82812 42.040627 159.76562 41.759377Q160.71875 41.478127 161.34375 40.80625L161.34375 36.978127L157.39062 36.978127L157.39062 35.15L163.57812 35.15L163.57812 41.415627ZM174.46875 43.65Q174.28125 43.275 174.17188 42.30625Q172.65625 43.884377 170.5625 43.884377Q168.6875 43.884377 167.48438 42.821877Q166.28125 41.759377 166.28125 40.134377Q166.28125 38.15 167.78125 37.05625Q169.29688 35.9625 172.01562 35.9625L174.125 35.9625L174.125 34.9625Q174.125 33.821877 173.4375 33.15Q172.76562 32.478127 171.45312 32.478127Q170.28125 32.478127 169.5 33.071877Q168.71875 33.65 168.71875 34.478127L166.53125 34.478127Q166.53125 33.540627 167.20312 32.65Q167.89062 31.759377 169.03125 31.243752Q170.1875 30.728127 171.57812 30.728127Q173.76562 30.728127 175.0 31.837502Q176.25 32.93125 176.29688 34.853127L176.29688 40.68125Q176.29688 42.43125 176.75 43.4625L176.75 43.65L174.46875 43.65ZM170.875 41.99375Q171.89062 41.99375 172.79688 41.478127Q173.71875 40.946877 174.125 40.103127L174.125 37.49375L172.4375 37.49375Q168.45312 37.49375 168.45312 39.821877Q168.45312 40.853127 169.125 41.43125Q169.8125 41.99375 170.875 41.99375ZM182.0 43.65L179.82812 43.65L179.82812 25.650002L182.0 25.650002L182.0 43.65ZM193.46875 43.65Q193.28125 43.275 193.17188 42.30625Q191.65625 43.884377 189.5625 43.884377Q187.6875 43.884377 186.48438 42.821877Q185.28125 41.759377 185.28125 40.134377Q185.28125 38.15 186.78125 37.05625Q188.29688 35.9625 191.01562 35.9625L193.125 35.9625L193.125 34.9625Q193.125 33.821877 192.4375 33.15Q191.76562 32.478127 190.45312 32.478127Q189.28125 32.478127 188.5 33.071877Q187.71875 33.65 187.71875 34.478127L185.53125 34.478127Q185.53125 33.540627 186.20312 32.65Q186.89062 31.759377 188.03125 31.243752Q189.1875 30.728127 190.57812 30.728127Q192.76562 30.728127 194.0 31.837502Q195.25 32.93125 195.29688 34.853127L195.29688 40.68125Q195.29688 42.43125 195.75 43.4625L195.75 43.65L193.46875 43.65ZM189.875 41.99375Q190.89062 41.99375 191.79688 41.478127Q192.71875 40.946877 193.125 40.103127L193.125 37.49375L191.4375 37.49375Q187.45312 37.49375 187.45312 39.821877Q187.45312 40.853127 188.125 41.43125Q188.8125 41.99375 189.875 41.99375ZM202.89062 35.603127L205.70312 30.962502L208.23438 30.962502L204.09375 37.24375L208.375 43.65L205.85938 43.65L202.9375 38.9L200.0 43.65L197.48438 43.65L201.76562 37.24375L197.60938 30.962502L200.125 30.962502L202.89062 35.603127ZM214.79688 40.478127L217.75 30.962502L220.0625 30.962502L214.96875 45.603127Q213.78125 48.775 211.20312 48.775L210.79688 48.74375L209.98438 48.5875L209.98438 46.821877L210.57812 46.86875Q211.67188 46.86875 212.28125 46.415627Q212.90625 45.978127 213.29688 44.80625L213.78125 43.509377L209.26562 30.962502L211.625 30.962502L214.79688 40.478127ZM241.09375 43.65L238.82812 43.65L238.82812 35.759377L230.23438 35.759377L230.23438 43.65L227.98438 43.65L227.98438 26.587502L230.23438 26.587502L230.23438 33.915627L238.82812 33.915627L238.82812 26.587502L241.09375 26.587502L241.09375 43.65ZM249.90625 43.884377Q247.32812 43.884377 245.70312 42.196877Q244.09375 40.49375 244.09375 37.665627L244.09375 37.259377Q244.09375 35.36875 244.8125 33.9Q245.53125 32.415627 246.82812 31.571877Q248.125 30.728127 249.64062 30.728127Q252.10938 30.728127 253.46875 32.36875Q254.84375 33.99375 254.84375 37.025L254.84375 37.93125L246.26562 37.93125Q246.3125 39.80625 247.35938 40.9625Q248.40625 42.11875 250.01562 42.11875Q251.17188 42.11875 251.96875 41.65Q252.76562 41.18125 253.35938 40.4L254.6875 41.43125Q253.09375 43.884377 249.90625 43.884377ZM249.64062 32.509377Q248.32812 32.509377 247.4375 33.478127Q246.54688 34.43125 246.32812 36.15L252.6875 36.15L252.6875 35.978127Q252.59375 34.3375 251.79688 33.43125Q251.0 32.509377 249.64062 32.509377ZM260.0 43.65L257.82812 43.65L257.82812 25.650002L260.0 25.650002L260.0 43.65ZM274.35938 37.446877Q274.35938 40.3375 273.03125 42.11875Q271.70312 43.884377 269.4375 43.884377Q267.14062 43.884377 265.8125 42.415627L265.8125 48.525L263.64062 48.525L263.64062 30.962502L265.625 30.962502L265.73438 32.36875Q267.04688 30.728127 269.40625 30.728127Q271.6875 30.728127 273.01562 32.4625Q274.35938 34.18125 274.35938 37.24375L274.35938 37.446877ZM272.1875 37.196877Q272.1875 35.05625 271.26562 33.821877Q270.35938 32.571877 268.76562 32.571877Q266.79688 32.571877 265.8125 34.321877L265.8125 40.384377Q266.78125 42.11875 268.78125 42.11875Q270.34375 42.11875 271.26562 40.884377Q272.1875 39.634377 272.1875 37.196877ZM276.6875 42.509377Q276.6875 41.946877 277.01562 41.571877Q277.35938 41.196877 278.01562 41.196877Q278.6875 41.196877 279.03125 41.571877Q279.39062 41.946877 279.39062 42.509377Q279.39062 43.05625 279.03125 43.415627Q278.6875 43.775 278.01562 43.775Q277.35938 43.775 277.01562 43.415627Q276.6875 43.05625 276.6875 42.509377ZM276.6875 32.509377Q276.6875 31.946877 277.01562 31.571877Q277.35938 31.196877 278.01562 31.196877Q278.6875 31.196877 279.03125 31.571877Q279.39062 31.946877 279.39062 32.509377Q279.39062 33.05625 279.03125 33.415627Q278.6875 33.775 278.01562 33.775Q277.35938 33.775 277.01562 33.415627Q276.6875 33.05625 276.6875 32.509377ZM291.23438 36.9625L291.23438 43.65L288.98438 43.65L288.98438 26.587502L295.28125 26.587502Q298.07812 26.587502 299.65625 28.025002Q301.25 29.446877 301.25 31.806252Q301.25 34.290627 299.6875 35.634377Q298.14062 36.9625 295.25 36.9625L291.23438 36.9625ZM291.23438 35.134377L295.28125 35.134377Q297.07812 35.134377 298.03125 34.290627Q299.0 33.43125 299.0 31.821877Q299.0 30.306252 298.03125 29.400002Q297.07812 28.478127 295.40625 28.431252L291.23438 28.431252L291.23438 35.134377ZM311.46875 43.65Q311.28125 43.275 311.17188 42.30625Q309.65625 43.884377 307.5625 43.884377Q305.6875 43.884377 304.48438 42.821877Q303.28125 41.759377 303.28125 40.134377Q303.28125 38.15 304.78125 37.05625Q306.29688 35.9625 309.01562 35.9625L311.125 35.9625L311.125 34.9625Q311.125 33.821877 310.4375 33.15Q309.76562 32.478127 308.45312 32.478127Q307.28125 32.478127 306.5 33.071877Q305.71875 33.65 305.71875 34.478127L303.53125 34.478127Q303.53125 33.540627 304.20312 32.65Q304.89062 31.759377 306.03125 31.243752Q307.1875 30.728127 308.57812 30.728127Q310.76562 30.728127 312.0 31.837502Q313.25 32.93125 313.29688 34.853127L313.29688 40.68125Q313.29688 42.43125 313.75 43.4625L313.75 43.65L311.46875 43.65ZM307.875 41.99375Q308.89062 41.99375 309.79688 41.478127Q310.71875 40.946877 311.125 40.103127L311.125 37.49375L309.4375 37.49375Q305.45312 37.49375 305.45312 39.821877Q305.45312 40.853127 306.125 41.43125Q306.8125 41.99375 307.875 41.99375ZM316.125 37.196877Q316.125 34.24375 317.5 32.49375Q318.875 30.728127 321.125 30.728127Q323.45312 30.728127 324.75 32.36875L324.85938 30.962502L326.84375 30.962502L326.84375 43.3375Q326.84375 45.80625 325.375 47.228127Q323.92188 48.65 321.45312 48.65Q320.09375 48.65 318.78125 48.05625Q317.46875 47.478127 316.76562 46.446877L317.89062 45.15Q319.29688 46.86875 321.3125 46.86875Q322.89062 46.86875 323.76562 45.978127Q324.65625 45.0875 324.65625 43.478127L324.65625 42.384377Q323.35938 43.884377 321.10938 43.884377Q318.875 43.884377 317.5 42.0875Q316.125 40.290627 316.125 37.196877ZM318.3125 37.446877Q318.3125 39.5875 319.1875 40.821877Q320.0625 42.040627 321.64062 42.040627Q323.70312 42.040627 324.65625 40.18125L324.65625 34.384377Q323.65625 32.571877 321.67188 32.571877Q320.09375 32.571877 319.20312 33.80625Q318.3125 35.040627 318.3125 37.446877ZM334.90625 43.884377Q332.32812 43.884377 330.70312 42.196877Q329.09375 40.49375 329.09375 37.665627L329.09375 37.259377Q329.09375 35.36875 329.8125 33.9Q330.53125 32.415627 331.82812 31.571877Q333.125 30.728127 334.64062 30.728127Q337.10938 30.728127 338.46875 32.36875Q339.84375 33.99375 339.84375 37.025L339.84375 37.93125L331.26562 37.93125Q331.3125 39.80625 332.35938 40.9625Q333.40625 42.11875 335.01562 42.11875Q336.17188 42.11875 336.96875 41.65Q337.76562 41.18125 338.35938 40.4L339.6875 41.43125Q338.09375 43.884377 334.90625 43.884377ZM334.64062 32.509377Q333.32812 32.509377 332.4375 33.478127Q331.54688 34.43125 331.32812 36.15L337.6875 36.15L337.6875 35.978127Q337.59375 34.3375 336.79688 33.43125Q336.0 32.509377 334.64062 32.509377ZM354.625 40.665627L359.5 26.587502L361.96875 26.587502L355.64062 43.65L353.64062 43.65L347.32812 26.587502L349.78125 26.587502L354.625 40.665627ZM366.0 43.65L363.82812 43.65L363.82812 30.962502L366.0 30.962502L366.0 43.65ZM363.65625 27.603127Q363.65625 27.071877 363.96875 26.712502Q364.29688 26.353127 364.92188 26.353127Q365.5625 26.353127 365.89062 26.712502Q366.21875 27.071877 366.21875 27.603127Q366.21875 28.134377 365.89062 28.493752Q365.5625 28.837502 364.92188 28.837502Q364.29688 28.837502 363.96875 28.493752Q363.65625 28.134377 363.65625 27.603127ZM374.90625 43.884377Q372.32812 43.884377 370.70312 42.196877Q369.09375 40.49375 369.09375 37.665627L369.09375 37.259377Q369.09375 35.36875 369.8125 33.9Q370.53125 32.415627 371.82812 31.571877Q373.125 30.728127 374.64062 30.728127Q377.10938 30.728127 378.46875 32.36875Q379.84375 33.99375 379.84375 37.025L379.84375 37.93125L371.26562 37.93125Q371.3125 39.80625 372.35938 40.9625Q373.40625 42.11875 375.01562 42.11875Q376.17188 42.11875 376.96875 41.65Q377.76562 41.18125 378.35938 40.4L379.6875 41.43125Q378.09375 43.884377 374.90625 43.884377ZM374.64062 32.509377Q373.32812 32.509377 372.4375 33.478127Q371.54688 34.43125 371.32812 36.15L377.6875 36.15L377.6875 35.978127Q377.59375 34.3375 376.79688 33.43125Q376.0 32.509377 374.64062 32.509377ZM393.875 40.665627L396.3125 30.962502L398.46875 30.962502L394.78125 43.65L393.03125 43.65L389.9375 34.040627L386.9375 43.65L385.1875 43.65L381.5 30.962502L383.65625 30.962502L386.15625 40.4625L389.10938 30.962502L390.85938 30.962502L393.875 40.665627ZM408.03125 40.290627Q408.03125 39.4 407.35938 38.915627Q406.70312 38.43125 405.04688 38.0875Q403.40625 37.728127 402.4375 37.24375Q401.46875 36.74375 401.0 36.071877Q400.54688 35.384377 400.54688 34.446877Q400.54688 32.884377 401.85938 31.806252Q403.1875 30.728127 405.23438 30.728127Q407.39062 30.728127 408.73438 31.853127Q410.07812 32.9625 410.07812 34.696877L407.89062 34.696877Q407.89062 33.80625 407.14062 33.165627Q406.39062 32.509377 405.23438 32.509377Q404.04688 32.509377 403.375 33.025Q402.71875 33.540627 402.71875 34.384377Q402.71875 35.165627 403.32812 35.571877Q403.95312 35.9625 405.57812 36.321877Q407.20312 36.68125 408.20312 37.196877Q409.21875 37.696877 409.70312 38.415627Q410.1875 39.11875 410.1875 40.134377Q410.1875 41.8375 408.82812 42.86875Q407.46875 43.884377 405.3125 43.884377Q403.78125 43.884377 402.60938 43.353127Q401.4375 42.80625 400.76562 41.8375Q400.10938 40.86875 400.10938 39.74375L402.28125 39.74375Q402.34375 40.8375 403.15625 41.478127Q403.96875 42.11875 405.3125 42.11875Q406.53125 42.11875 407.28125 41.61875Q408.03125 41.11875 408.03125 40.290627ZM429.35938 37.446877Q429.35938 40.3375 428.03125 42.11875Q426.70312 43.884377 424.4375 43.884377Q422.14062 43.884377 420.8125 42.415627L420.8125 48.525L418.64062 48.525L418.64062 30.962502L420.625 30.962502L420.73438 32.36875Q422.04688 30.728127 424.40625 30.728127Q426.6875 30.728127 428.01562 32.4625Q429.35938 34.18125 429.35938 37.24375L429.35938 37.446877ZM427.1875 37.196877Q427.1875 35.05625 426.26562 33.821877Q425.35938 32.571877 423.76562 32.571877Q421.79688 32.571877 420.8125 34.321877L420.8125 40.384377Q421.78125 42.11875 423.78125 42.11875Q425.34375 42.11875 426.26562 40.884377Q427.1875 39.634377 427.1875 37.196877ZM436.90625 43.884377Q434.32812 43.884377 432.70312 42.196877Q431.09375 40.49375 431.09375 37.665627L431.09375 37.259377Q431.09375 35.36875 431.8125 33.9Q432.53125 32.415627 433.82812 31.571877Q435.125 30.728127 436.64062 30.728127Q439.10938 30.728127 440.46875 32.36875Q441.84375 33.99375 441.84375 37.025L441.84375 37.93125L433.26562 37.93125Q433.3125 39.80625 434.35938 40.9625Q435.40625 42.11875 437.01562 42.11875Q438.17188 42.11875 438.96875 41.65Q439.76562 41.18125 440.35938 40.4L441.6875 41.43125Q440.09375 43.884377 436.90625 43.884377ZM436.64062 32.509377Q435.32812 32.509377 434.4375 33.478127Q433.54688 34.43125 433.32812 36.15L439.6875 36.15L439.6875 35.978127Q439.59375 34.3375 438.79688 33.43125Q438.0 32.509377 436.64062 32.509377ZM450.76562 32.915627Q450.28125 32.8375 449.70312 32.8375Q447.57812 32.8375 446.8125 34.65L446.8125 43.65L444.64062 43.65L444.64062 30.962502L446.75 30.962502L446.78125 32.43125Q447.85938 30.728127 449.8125 30.728127Q450.4375 30.728127 450.76562 30.900002L450.76562 32.915627ZM461.89062 26.587502L467.46875 40.509377L473.04688 26.587502L475.96875 26.587502L475.96875 43.65L473.71875 43.65L473.71875 37.009377L473.92188 29.837502L468.32812 43.65L466.59375 43.65L461.01562 29.868752L461.23438 37.009377L461.23438 43.65L458.98438 43.65L458.98438 26.587502L461.89062 26.587502ZM479.0625 37.196877Q479.0625 35.321877 479.79688 33.8375Q480.53125 32.353127 481.82812 31.540627Q483.14062 30.728127 484.82812 30.728127Q487.40625 30.728127 489.0 32.525Q490.60938 34.321877 490.60938 37.290627L490.60938 37.446877Q490.60938 39.30625 489.89062 40.775Q489.1875 42.24375 487.875 43.071877Q486.5625 43.884377 484.84375 43.884377Q482.26562 43.884377 480.65625 42.0875Q479.0625 40.290627 479.0625 37.3375L479.0625 37.196877ZM481.25 37.446877Q481.25 39.55625 482.21875 40.8375Q483.20312 42.11875 484.84375 42.11875Q486.5 42.11875 487.46875 40.821877Q488.4375 39.525 488.4375 37.196877Q488.4375 35.103127 487.45312 33.80625Q486.46875 32.509377 484.82812 32.509377Q483.21875 32.509377 482.23438 33.790627Q481.25 35.071877 481.25 37.446877ZM495.6875 30.962502L495.76562 32.55625Q497.21875 30.728127 499.5625 30.728127Q503.57812 30.728127 503.60938 35.275L503.60938 43.65L501.45312 43.65L501.45312 35.259377Q501.4375 33.884377 500.8125 33.228127Q500.20312 32.571877 498.90625 32.571877Q497.84375 32.571877 497.04688 33.134377Q496.25 33.696877 495.8125 34.61875L495.8125 43.65L493.64062 43.65L493.64062 30.962502L495.6875 30.962502ZM509.57812 27.900002L509.57812 30.962502L511.95312 30.962502L511.95312 32.65L509.57812 32.65L509.57812 40.509377Q509.57812 41.275 509.89062 41.65Q510.21875 42.025 510.98438 42.025Q511.35938 42.025 512.0156 41.884377L512.0156 43.65Q511.15625 43.884377 510.34375 43.884377Q508.89062 43.884377 508.15625 43.009377Q507.42188 42.11875 507.42188 40.509377L507.42188 32.65L505.10938 32.65L505.10938 30.962502L507.42188 30.962502L507.42188 27.900002L509.57812 27.900002ZM516.8125 32.509377Q518.25 30.728127 520.5625 30.728127Q524.5781 30.728127 524.6094 35.275L524.6094 43.65L522.4531 43.65L522.4531 35.259377Q522.4375 33.884377 521.8125 33.228127Q521.2031 32.571877 519.90625 32.571877Q518.84375 32.571877 518.0469 33.134377Q517.25 33.696877 516.8125 34.61875L516.8125 43.65L514.6406 43.65L514.6406 25.650002L516.8125 25.650002L516.8125 32.509377Z" fill-rule="nonzero"/></svg>