<svg fill="none" height="416" stroke-linecap="square" stroke-miterlimit="10" viewBox="0 0 673 416" width="673" xmlns="http://www.w3.org/2000/svg" xmlns:xlink="http://www.w3.org/1999/xlink"><clipPath id="a"><path d="m55.8 106.03333h596.4v229.16667h-596.4z"/></clipPath><path d="m0 0h673v416h-673z" fill="#fff"/><path d="m0 0h673v416h-673z" fill="#000"/><g stroke-linecap="butt"><path d="m55.5 335.5h597" stroke="#ccc"/><g stroke="#333"><path d="m55.5 277.5h597"/><path d="m55.5 220.5h597"/><path d="m55.5 163.5h597"/><path d="m55.5 106.5h597"/></g><path clip-path="url(#a)" d="m204.9 318.0125 298.2-56.14583" stroke="#4285f4" stroke-width="4"/><path clip-path="url(#a)" d="m204.9 323.74167 298.2-209.6875" stroke="#93c47d" stroke-width="4"/></g><path clip-path="url(#a)" d="m209.4 318.0125c0 2.48527-2.01472 4.5-4.5 4.5s-4.5-2.01473-4.5-4.5c0-2.48528 2.01472-4.5 4.5-4.5s4.5 2.01472 4.5 4.5z" fill="#4285f4"/><path clip-path="url(#a)" d="m507.6 261.86667c0 2.48529-2.0147 4.5-4.5 4.5-2.48528 0-4.5-2.01471-4.5-4.5s2.01472-4.5 4.5-4.5c2.4853 0 4.5 2.01471 4.5 4.5z" fill="#4285f4"/><path clip-path="url(#a)" d="m209.4 323.74167c0 2.48529-2.01472 4.5-4.5 4.5s-4.5-2.01471-4.5-4.5 2.01472-4.5 4.5-4.5 4.5 2.01471 4.5 4.5z" fill="#93c47d"/><path clip-path="url(#a)" d="m507.6 114.05417c0 2.48528-2.0147 4.5-4.5 4.5-2.48528 0-4.5-2.01472-4.5-4.5 0-2.485284 2.01472-4.5 4.5-4.5 2.4853 0 4.5 2.014716 4.5 4.5z" fill="#93c47d"/><path d="m338.9375 383.66876 2.79688 6.95314 2.78124-6.95314h1.46876v8.53124h-1.125v-3.3281l.10937-3.57814-2.8125 6.90624h-.85937l-2.79688-6.8906.10938 3.5625v3.3281h-1.125v-8.53124zm8.09375 5.29688q0-.92188.35937-1.67188.375-.75 1.03126-1.14062.65624-.40624 1.48437-.40624 1.29687 0 2.09375.8906.8125.89064.8125 2.39064v.07812q0 .92188-.35938 1.65624-.35937.7344-1.01562 1.15626-.65625.40624-1.51562.40624-1.28126 0-2.09376-.8906-.79687-.90626-.79687-2.39064zm1.09375.14062q0 1.04688.48438 1.6875.5.64064 1.3125.64064.82812 0 1.3125-.64064.48437-.65626.48437-1.82812 0-1.03124-.5-1.67188-.48437-.65626-1.3125-.65626-.79687 0-1.29687.64064-.48438.625-.48438 1.82812zm7.21875-3.25.03125.79688q.73438-.90624 1.90625-.90624 2.01563 0 2.03125 2.2656v4.1875h-1.09375v-4.2031q0-.6719-.3125-1-.29687-.32814-.95313-.32814-.53124 0-.9375.28124-.39062.28126-.60937.7344v4.5156h-1.07813v-6.34374zm7.45313-1.53126v1.53126h1.17187v.84374h-1.17187v3.9219q0 .3906.15624.5781.15626.1875.53126.1875.1875 0 .51562-.0625v.875q-.42188.125-.82812.125-.71876 0-1.09376-.4375-.375-.4531-.375-1.2656v-3.9219h-1.15624v-.84374h1.15624v-1.53126zm3.60937 2.2969q.71875-.875 1.875-.875 2.01563 0 2.03125 2.2656v4.1875h-1.09375v-4.2031q0-.6719-.3125-1-.29687-.32814-.95313-.32814-.53124 0-.9375.28124-.39062.28126-.60937.7344v4.5156h-1.07813v-9h1.07813z" fill="#bdbdbd"/><g fill="#efefef"><path d="m46.878124 335.84064q0 2.54686-.875 3.78126-.859374 1.23436-2.703124 1.23436-1.8125 0-2.6875-1.20312-.875-1.21874-.90625-3.60938v-1.9375q0-2.5.859374-3.71876.875-1.21874 2.71875-1.21874 1.84375 0 2.703126 1.17188.875 1.17186.890624 3.625zm-1.4375-1.96874q0-1.84376-.515624-2.6719-.515626-.84374-1.640626-.84374-1.109374 0-1.625.84374-.5.82814-.515624 2.5625v2.3125q0 1.84376.53125 2.71876.546874.875 1.625.875 1.078124 0 1.59375-.82812.515624-.82814.546874-2.60938z"/><path d="m31.409374 277.7052.578126-5.67187h5.828124v1.32812h-4.59375l-.34375 3.10938q.828126-.5 1.890626-.5 1.5625 0 2.46875 1.03125.921874 1.03125.921874 2.78125 0 1.75-.953124 2.76562-.953126 1.01563-2.65625 1.01563-1.5 0-2.453126-.82813-.953124-.84375-1.09375-2.32812h1.375q.125.98437.6875 1.48437.5625.48438 1.484376.48438 1.015624 0 1.578124-.6875.578126-.6875.578126-1.89063 0-1.14062-.625-1.82812-.609376-.70313-1.640626-.70313-.953124 0-1.484374.42188l-.390626.3125zm15.46875.84375q0 2.54688-.875 3.78125-.859374 1.23438-2.703124 1.23438-1.8125 0-2.6875-1.20313-.875-1.21875-.90625-3.60937v-1.9375q0-2.5.859374-3.71875.875-1.21875 2.71875-1.21875 1.84375 0 2.703126 1.17187.875 1.17188.890624 3.625zm-1.4375-1.96875q0-1.84375-.515624-2.67187-.515626-.84375-1.640626-.84375-1.109374 0-1.625.84375-.5.82812-.515624 2.5625v2.3125q0 1.84375.53125 2.71875.546874.875 1.625.875 1.078124 0 1.59375-.82813.515624-.82812.546874-2.60937z"/><path d="m26.503124 226.11667h-1.453124v-9.64063l-2.921876 1.07813v-1.3125l4.140626-1.5625h.234374zm11.375-4.85937q0 2.54687-.875 3.78124-.859374 1.23438-2.703124 1.23438-1.8125 0-2.6875-1.20312-.875-1.21876-.90625-3.60938v-1.9375q0-2.5.859374-3.71875.875-1.21875 2.71875-1.21875 1.84375 0 2.703126 1.17188.875 1.17187.890624 3.625zm-1.4375-1.96876q0-1.84374-.515624-2.67187-.515626-.84375-1.640626-.84375-1.109374 0-1.625.84375-.5.82813-.515624 2.5625v2.3125q0 1.84375.53125 2.71875.546874.875 1.625.875 1.078124 0 1.59375-.82812.515624-.82813.546874-2.60938zm10.4375 1.96876q0 2.54687-.875 3.78124-.859374 1.23438-2.703124 1.23438-1.8125 0-2.6875-1.20312-.875-1.21876-.90625-3.60938v-1.9375q0-2.5.859374-3.71875.875-1.21875 2.71875-1.21875 1.84375 0 2.703126 1.17188.875 1.17187.890624 3.625zm-1.4375-1.96876q0-1.84374-.515624-2.67187-.515626-.84375-1.640626-.84375-1.109374 0-1.625.84375-.5.82813-.515624 2.5625v2.3125q0 1.84375.53125 2.71875.546874.875 1.625.875 1.078124 0 1.59375-.82812.515624-.82813.546874-2.60938z"/><path d="m26.503124 168.825h-1.453124v-9.64063l-2.921876 1.07813v-1.3125l4.140626-1.5625h.234374zm4.90625-5.70313.578126-5.67187h5.828124v1.32812h-4.59375l-.34375 3.10938q.828126-.5 1.890626-.5 1.5625 0 2.46875 1.03125.921874 1.03125.921874 2.78125 0 1.75-.953124 2.76562-.953126 1.01563-2.65625 1.01563-1.5 0-2.453126-.82813-.953124-.84375-1.09375-2.32812h1.375q.125.98437.6875 1.48437.5625.48438 1.484376.48438 1.015624 0 1.578124-.6875.578126-.6875.578126-1.89063 0-1.14062-.625-1.82812-.609376-.70313-1.640626-.70313-.953124 0-1.484374.42188l-.390626.3125zm15.46875.84375q0 2.54688-.875 3.78125-.859374 1.23438-2.703124 1.23438-1.8125 0-2.6875-1.20313-.875-1.21875-.90625-3.60937v-1.9375q0-2.5.859374-3.71875.875-1.21875 2.71875-1.21875 1.84375 0 2.703126 1.17187.875 1.17188.890624 3.625zm-1.4375-1.96875q0-1.84375-.515624-2.67187-.515626-.84375-1.640626-.84375-1.109374 0-1.625.84375-.5.82812-.515624 2.5625v2.3125q0 1.84375.53125 2.71875.546874.875 1.625.875 1.078124 0 1.59375-.82813.515624-.82812.546874-2.60937z"/><path d="m29.20625 111.53333h-7.453126v-1.04687l3.9375-4.375q.875-.98438 1.203126-1.60938.328124-.625.328124-1.28125 0-.89062-.546874-1.45312-.53125-.57813-1.421876-.57813-1.078124 0-1.6875.60938-.59375.60937-.59375 1.70312h-1.4375q0-1.5625 1-2.53125 1.015626-.96875 2.71875-.96875 1.578126 0 2.5.82813.921876.82812.921876 2.21875 0 1.67187-2.140626 4l-3.046874 3.29687h5.71875zm8.671874-4.85937q0 2.54687-.875 3.78125-.859374 1.23437-2.703124 1.23437-1.8125 0-2.6875-1.20312-.875-1.21875-.90625-3.60938v-1.9375q0-2.5.859374-3.71875.875-1.21875 2.71875-1.21875 1.84375 0 2.703126 1.17188.875 1.17187.890624 3.625zm-1.4375-1.96875q0-1.84375-.515624-2.67188-.515626-.84375-1.640626-.84375-1.109374 0-1.625.84375-.5.82813-.515624 2.5625v2.3125q0 1.84375.53125 2.71875.546874.875 1.625.875 1.078124 0 1.59375-.82812.515624-.82813.546874-2.60938zm10.4375 1.96875q0 2.54687-.875 3.78125-.859374 1.23437-2.703124 1.23437-1.8125 0-2.6875-1.20312-.875-1.21875-.90625-3.60938v-1.9375q0-2.5.859374-3.71875.875-1.21875 2.71875-1.21875 1.84375 0 2.703126 1.17188.875 1.17187.890624 3.625zm-1.4375-1.96875q0-1.84375-.515624-2.67188-.515626-.84375-1.640626-.84375-1.109374 0-1.625.84375-.5.82813-.515624 2.5625v2.3125q0 1.84375.53125 2.71875.546874.875 1.625.875 1.078124 0 1.59375-.82812.515624-.82813.546874-2.60938z"/><path d="m182.80624 358.2h-7.45312v-1.04686l3.9375-4.375q.875-.98438 1.20312-1.60938.32813-.625.32813-1.28126 0-.8906-.54687-1.4531-.53126-.57814-1.42188-.57814-1.07812 0-1.6875.60938-.59375.60936-.59375 1.70312h-1.4375q0-1.5625 1-2.53126 1.01563-.96874 2.71875-.96874 1.57812 0 2.5.82814.92188.8281.92188 2.21874 0 1.67186-2.14063 4l-3.04687 3.29686h5.71874zm8.67188-4.85936q0 2.54686-.875 3.78126-.85938 1.23436-2.70312 1.23436-1.8125 0-2.6875-1.20312-.875-1.21874-.90626-3.60938v-1.9375q0-2.5.85938-3.71876.875-1.21874 2.71875-1.21874 1.84375 0 2.70313 1.17188.875 1.17186.89062 3.625zm-1.4375-1.96874q0-1.84376-.51562-2.6719-.51563-.84374-1.64063-.84374-1.10937 0-1.625.84374-.5.82814-.51563 2.5625v2.3125q0 1.84376.53126 2.71876.54687.875 1.625.875 1.07812 0 1.59374-.82812.51563-.82814.54688-2.60938zm8.0625 6.8281h-1.45312v-9.6406l-2.92188 1.0781v-1.3125l4.14062-1.5625h.23438zm11.14062-8.40624q0 .84374-.45312 1.51564-.4375.65624-1.20312 1.03124.89062.39062 1.40624 1.125.51563.73436.51563 1.65626 0 1.48436-1 2.35936-.98437.875-2.60937.875-1.64063 0-2.64063-.875-.98437-.89062-.98437-2.35936 0-.9219.5-1.65626.51562-.75 1.40624-1.125-.76562-.375-1.20312-1.03124-.4375-.6719-.4375-1.51564 0-1.4375.92188-2.28126.92187-.84374 2.4375-.84374 1.5 0 2.42187.84374.92187.84376.92187 2.28126zm-1.17187 5.29688q0-.95314-.60937-1.54688-.60938-.60936-1.59376-.60936-.96874 0-1.5625.59374-.57812.59376-.57812 1.5625 0 .96876.5625 1.53126.57812.54686 1.60938.54686 1.01562 0 1.59374-.54686.57813-.5625.57813-1.53126zm-2.17187-7.23438q-.85938 0-1.39063.53124-.51563.51564-.51563 1.4219 0 .875.51563 1.40624.51563.53126 1.375.53126.875 0 1.39063-.53126.53124-.53124.53124-1.39064 0-.875-.54687-1.42186-.53125-.54688-1.35937-.54688zm5.89062 11.32814h-1.25l4.75-12.3594h1.23438zm11.3125-.9844h-1.45312v-9.6406l-2.92188 1.0781v-1.3125l4.14062-1.5625h.23438zm9 0h-1.45312v-9.6406l-2.92188 1.0781v-1.3125l4.14062-1.5625h.23438z"/><path d="m481.00626 358.2h-7.45313v-1.04686l3.9375-4.375q.875-.98438 1.20313-1.60938.32812-.625.32812-1.28126 0-.8906-.54688-1.4531-.53124-.57814-1.42187-.57814-1.07813 0-1.6875.60938-.59375.60936-.59375 1.70312h-1.4375q0-1.5625 1-2.53126 1.01562-.96874 2.71875-.96874 1.57813 0 2.5.82814.92187.8281.92187 2.21874 0 1.67186-2.14062 4l-3.04688 3.29686h5.71876zm8.67187-4.85936q0 2.54686-.875 3.78126-.85937 1.23436-2.70313 1.23436-1.8125 0-2.6875-1.20312-.875-1.21874-.90624-3.60938v-1.9375q0-2.5.85937-3.71876.875-1.21874 2.71875-1.21874 1.84375 0 2.70312 1.17188.875 1.17186.89063 3.625zm-1.4375-1.96874q0-1.84376-.51563-2.6719-.51562-.84374-1.64062-.84374-1.10938 0-1.625.84374-.5.82814-.51562 2.5625v2.3125q0 1.84376.53124 2.71876.54688.875 1.625.875 1.07813 0 1.59376-.82812.51562-.82814.54687-2.60938zm8.0625 6.8281h-1.45313v-9.6406l-2.92187 1.0781v-1.3125l4.14063-1.5625h.23437zm11.14063-8.40624q0 .84374-.45313 1.51564-.4375.65624-1.20313 1.03124.89063.39062 1.40626 1.125.51562.73436.51562 1.65626 0 1.48436-1 2.35936-.98438.875-2.60938.875-1.64062 0-2.64062-.875-.98438-.89062-.98438-2.35936 0-.9219.5-1.65626.51563-.75 1.40626-1.125-.76563-.375-1.20313-1.03124-.4375-.6719-.4375-1.51564 0-1.4375.92187-2.28126.92188-.84374 2.4375-.84374 1.5 0 2.42188.84374.92188.84376.92188 2.28126zm-1.17188 5.29688q0-.95314-.60938-1.54688-.60937-.60936-1.59374-.60936-.96876 0-1.5625.59374-.57813.59376-.57813 1.5625 0 .96876.5625 1.53126.57813.54686 1.60937.54686 1.01563 0 1.59376-.54686.57812-.5625.57812-1.53126zm-2.17188-7.23438q-.85937 0-1.39062.53124-.51562.51564-.51562 1.4219 0 .875.51562 1.40624.51562.53126 1.375.53126.875 0 1.39062-.53126.53126-.53124.53126-1.39064 0-.875-.54688-1.42186-.53125-.54688-1.35938-.54688zm5.89063 11.32814h-1.25l4.74997-12.3594h1.2344zm11.31247-.9844h-1.4531v-9.6406l-2.9219 1.0781v-1.3125l4.1406-1.5625h.2344zm11.7031 0h-7.4531v-1.04686l3.9375-4.375q.875-.98438 1.2031-1.60938.32815-.625.32815-1.28126 0-.8906-.54685-1.4531-.5313-.57814-1.4219-.57814-1.0781 0-1.6875.60938-.59375.60936-.59375 1.70312h-1.4375q0-1.5625 1-2.53126 1.01565-.96874 2.71875-.96874 1.5781 0 2.5.82814.9219.8281.9219 2.21874 0 1.67186-2.14065 4l-3.04685 3.29686h5.7187z"/></g><path d="m223 73.166664c0 3.313716-2.6863 6-6 6s-6-2.686284-6-6c0-3.313704 2.6863-6 6-6s6 2.686296 6 6z" fill="#4285f4"/><path d="m241.0625 78.666664h-1.5l-5.73438-8.765624v8.765624h-1.5v-11.375h1.5l5.75 8.796876v-8.796876h1.48438zm5.54688.15625q-1.71876 0-2.79688-1.125-1.07812-1.140624-1.07812-3.03125v-.265624q0-1.25.46874-2.234376.48438-1 1.34376-1.546874.875-.5625 1.875-.5625 1.65624 0 2.5625 1.09375.92187 1.078124.92187 3.09375v.609374h-5.73437q.03124 1.25.73437 2.015626.70313.765624 1.78125.765624.76562 0 1.29688-.3125.53124-.3125.92187-.828124l.89063.6875q-1.0625 1.640624-3.1875 1.640624zm-.1875-7.578124q-.875 0-1.46876.640624-.59374.625-.73437 1.78125h4.23437v-.109374q-.0625-1.109376-.59374-1.703126-.53126-.609374-1.4375-.609374zm12.15624 5.421874 1.625-6.453124h1.45313l-2.46875 8.453124h-1.17188l-2.04687-6.40625-2 6.40625h-1.17187l-2.45313-8.453124h1.4375l1.65625 6.328124 1.96875-6.328124h1.17187zm16.60938-8.140624h-3.65625v10.140624h-1.5v-10.140624h-3.64063v-1.234376h8.79688zm1.53125 5.828124q0-1.234374.48437-2.21875.48438-1 1.35938-1.53125.875-.546874 1.98438-.546874 1.73437 0 2.79687 1.203124 1.0625 1.1875 1.0625 3.171876v.09375q0 1.234374-.46875 2.21875-.46875.984374-1.35938 1.53125-.875.546874-2.01562.546874-1.71875 0-2.78125-1.1875-1.0625-1.203124-1.0625-3.171874zm1.45313.171876q0 1.40625.64062 2.265624.65625.84375 1.75.84375 1.10938 0 1.75-.859374.65625-.859376.65625-2.421876 0-1.390624-.67187-2.25-.65626-.859374-1.75-.859374-1.0625 0-1.71876.859374-.65624.84375-.65624 2.421876zm15.0625 0q0 1.9375-.89063 3.125-.875 1.171874-2.375 1.171874-1.54687 0-2.42187-.984374v4.078124h-1.45313v-11.703124h1.32813l.0625.9375q.89062-1.09375 2.45312-1.09375 1.53125 0 2.40625 1.15625.89063 1.140624.89063 3.1875zm-1.4375-.15625q0-1.4375-.60938-2.265626-.60938-.828124-1.67188-.828124-1.3125 0-1.96874 1.171874v4.03125q.64062 1.15625 1.98437 1.15625 1.03125 0 1.64063-.8125.625-.828124.625-2.453124zm4.875 4.296874h-1.45313v-8.453124h1.45313zm-1.5625-10.703124q0-.34375.20312-.578126.21875-.25.64062-.25.42188 0 .64063.25.21875.234376.21875.59375 0 .34375-.21875.578126-.21875.234374-.64063.234374-.42187 0-.64062-.234374-.20312-.234376-.20312-.59375zm7.375 9.671874q.78124 0 1.35937-.46875.57813-.46875.64063-1.171874h1.35937q-.03125.734374-.5 1.390624-.45313.65625-1.23437 1.046876-.76563.390624-1.625.390624-1.71876 0-2.75-1.15625-1.01563-1.15625-1.01563-3.15625v-.234374q0-1.234376.45313-2.1875.45312-.96875 1.29687-1.5.85937-.53125 2.01563-.53125 1.42187 0 2.35937.859374.9375.84375 1 2.203126h-1.35937q-.0625-.828126-.625-1.34375-.5625-.53125-1.375-.53125-1.10938 0-1.71876.796874-.59374.78125-.59374 2.28125v.28125q0 1.453126.59374 2.25.60938.78125 1.71876.78125zm9.53124-1.21875q0-.578124-.4375-.90625-.4375-.328124-1.54687-.5625-1.09375-.234374-1.73437-.5625-.64063-.328124-.95313-.78125-.3125-.453124-.3125-1.078124 0-1.03125.875-1.75.89063-.71875 2.25-.71875 1.4375 0 2.32813.75.90624.734374.90624 1.890624h-1.45312q0-.59375-.51562-1.015624-.5-.4375-1.26563-.4375-.78125 0-1.23437.34375-.4375.34375-.4375.890624 0 .53125.40624.796876.42188.265624 1.5.515624 1.07813.234376 1.75.578126.67188.328124 1 .796874.32813.46875.32813 1.15625 0 1.125-.90625 1.8125-.90625.6875-2.35938.6875-1.01562 0-1.79687-.359374-.78125-.359376-1.21875-1-.4375-.65625-.4375-1.40625h1.4375q.04688.734374.57812 1.15625.54688.421874 1.4375.421874.82813 0 1.3125-.328124.5-.328126.5-.890626z" fill="#f3f3f3"/><path d="m342 73.166664c0 3.313716-2.68628 6-6 6s-6-2.686284-6-6c0-3.313704 2.68628-6 6-6s6 2.686296 6 6z" fill="#93c47d"/><path d="m360.0625 78.666664h-1.5l-5.73438-8.765624v8.765624h-1.5v-11.375h1.5l5.75 8.796876v-8.796876h1.48438zm5.54688.15625q-1.71876 0-2.79688-1.125-1.07812-1.140624-1.07812-3.03125v-.265624q0-1.25.46874-2.234376.48438-1 1.34376-1.546874.875-.5625 1.875-.5625 1.65624 0 2.5625 1.09375.92187 1.078124.92187 3.09375v.609374h-5.73437q.03124 1.25.73437 2.015626.70313.765624 1.78125.765624.76562 0 1.29688-.3125.53124-.3125.92187-.828124l.89063.6875q-1.0625 1.640624-3.1875 1.640624zm-.1875-7.578124q-.875 0-1.46876.640624-.59374.625-.73437 1.78125h4.23437v-.109374q-.0625-1.109376-.59374-1.703126-.53126-.609374-1.4375-.609374zm12.15624 5.421874 1.625-6.453124h1.45313l-2.46875 8.453124h-1.17188l-2.04687-6.40625-2 6.40625h-1.17187l-2.45313-8.453124h1.4375l1.65625 6.328124 1.96875-6.328124h1.17187zm12.92188-2.609374h-2.67188v4.609374h-1.51562v-11.375h3.76562q1.92188 0 2.95313.875 1.04687.875 1.04687 2.546876 0 1.0625-.57812 1.859374-.57812.78125-1.59375 1.171876l2.67187 4.828124v.09375h-1.60937zm-2.67188-1.21875h2.29688q1.125 0 1.78125-.578126.65625-.578124.65625-1.546874 0-1.0625-.625-1.625-.625-.5625-1.8125-.5625h-2.29688zm11.78126 5.984374q-1.71876 0-2.79688-1.125-1.07812-1.140624-1.07812-3.03125v-.265624q0-1.25.46874-2.234376.48438-1 1.34376-1.546874.875-.5625 1.875-.5625 1.65624 0 2.5625 1.09375.92187 1.078124.92187 3.09375v.609374h-5.73437q.03124 1.25.73437 2.015626.70313.765624 1.78125.765624.76562 0 1.29688-.3125.53124-.3125.92187-.828124l.89063.6875q-1.0625 1.640624-3.1875 1.640624zm-.1875-7.578124q-.875 0-1.46876.640624-.59374.625-.73437 1.78125h4.23437v-.109374q-.0625-1.109376-.59374-1.703126-.53126-.609374-1.4375-.609374zm9.59374 5.171874q0-.578124-.4375-.90625-.4375-.328124-1.54687-.5625-1.09375-.234374-1.73437-.5625-.64063-.328124-.95313-.78125-.3125-.453124-.3125-1.078124 0-1.03125.875-1.75.89063-.71875 2.25-.71875 1.4375 0 2.32813.75.90624.734374.90624 1.890624h-1.45312q0-.59375-.51562-1.015624-.5-.4375-1.26563-.4375-.78125 0-1.23437.34375-.4375.34375-.4375.890624 0 .53125.40624.796876.42188.265624 1.5.515624 1.07813.234376 1.75.578126.67188.328124 1 .796874.32813.46875.32813 1.15625 0 1.125-.90625 1.8125-.90625.6875-2.35938.6875-1.01562 0-1.79687-.359374-.78125-.359376-1.21875-1-.4375-.65625-.4375-1.40625h1.4375q.04688.734374.57812 1.15625.54688.421874 1.4375.421874.82813 0 1.3125-.328124.5-.328126.5-.890626zm10.21876-1.890624q0 1.9375-.89063 3.125-.875 1.171874-2.375 1.171874-1.54687 0-2.42187-.984374v4.078124h-1.45313v-11.703124h1.32813l.0625.9375q.89062-1.09375 2.45312-1.09375 1.53125 0 2.40625 1.15625.89063 1.140624.89063 3.1875zm-1.4375-.15625q0-1.4375-.60938-2.265626-.60938-.828124-1.67188-.828124-1.3125 0-1.96874 1.171874v4.03125q.64062 1.15625 1.98437 1.15625 1.03125 0 1.64063-.8125.625-.828124.625-2.453124zm2.92187-.015626q0-1.234374.48437-2.21875.48438-1 1.35938-1.53125.875-.546874 1.98438-.546874 1.73437 0 2.79687 1.203124 1.0625 1.1875 1.0625 3.171876v.09375q0 1.234374-.46875 2.21875-.46875.984374-1.35938 1.53125-.875.546874-2.01562.546874-1.71875 0-2.78125-1.1875-1.0625-1.203124-1.0625-3.171874zm1.45313.171876q0 1.40625.64062 2.265624.65625.84375 1.75.84375 1.10938 0 1.75-.859374.65625-.859376.65625-2.421876 0-1.390624-.67187-2.25-.65626-.859374-1.75-.859374-1.0625 0-1.71876.859374-.65624.84375-.65624 2.421876zm9.29687-4.3125.04687 1.0625q.96876-1.21875 2.53126-1.21875 2.67187 0 2.70312 3.015624v5.59375h-1.45312v-5.59375q0-.921874-.42188-1.359374-.40625-.4375-1.26562-.4375-.70313 0-1.23438.375-.53125.375-.82812.984374v6.03125h-1.45313v-8.453124zm12.54687 6.203124q0-.578124-.4375-.90625-.4375-.328124-1.54687-.5625-1.09375-.234374-1.73437-.5625-.64063-.328124-.95313-.78125-.3125-.453124-.3125-1.078124 0-1.03125.875-1.75.89063-.71875 2.25-.71875 1.4375 0 2.32813.75.90624.734374.90624 1.890624h-1.45312q0-.59375-.51562-1.015624-.5-.4375-1.26563-.4375-.78125 0-1.23437.34375-.4375.34375-.4375.890624 0 .53125.40624.796876.42188.265624 1.5.515624 1.07813.234376 1.75.578126.67188.328124 1 .796874.32813.46875.32813 1.15625 0 1.125-.90625 1.8125-.90625.6875-2.35938.6875-1.01562 0-1.79687-.359374-.78125-.359376-1.21875-1-.4375-.65625-.4375-1.40625h1.4375q.04688.734374.57812 1.15625.54688.421874 1.4375.421874.82813 0 1.3125-.328124.5-.328126.5-.890626zm6.59376 2.40625q-1.71876 0-2.79688-1.125-1.07812-1.140624-1.07812-3.03125v-.265624q0-1.25.46874-2.234376.48438-1 1.34376-1.546874.875-.5625 1.875-.5625 1.65624 0 2.5625 1.09375.92187 1.078124.92187 3.09375v.609374h-5.73437q.03124 1.25.73437 2.015626.70313.765624 1.78125.765624.76562 0 1.29688-.3125.53124-.3125.92187-.828124l.89063.6875q-1.0625 1.640624-3.1875 1.640624zm-.1875-7.578124q-.875 0-1.46876.640624-.59374.625-.73437 1.78125h4.23437v-.109374q-.0625-1.109376-.59374-1.703126-.53126-.609374-1.4375-.609374zm9.59374 5.171874q0-.578124-.4375-.90625-.4375-.328124-1.54687-.5625-1.09375-.234374-1.73437-.5625-.64063-.328124-.95313-.78125-.3125-.453124-.3125-1.078124 0-1.03125.875-1.75.89063-.71875 2.25-.71875 1.4375 0 2.32813.75.90624.734374.90624 1.890624h-1.45312q0-.59375-.51562-1.015624-.5-.4375-1.26563-.4375-.78125 0-1.23437.34375-.4375.34375-.4375.890624 0 .53125.40624.796876.42188.265624 1.5.515624 1.07813.234376 1.75.578126.67188.328124 1 .796874.32813.46875.32813 1.15625 0 1.125-.90625 1.8125-.90625.6875-2.35938.6875-1.01562 0-1.79687-.359374-.78125-.359376-1.21875-1-.4375-.65625-.4375-1.40625h1.4375q.04688.734374.57812 1.15625.54688.421874 1.4375.421874.82813 0 1.3125-.328124.5-.328126.5-.890626z" fill="#f3f3f3"/><path d="m77.078125 41.565624q-.859375 1.234376-2.421875 1.859376-1.546875.609374-3.609375.609374-2.09375 0-3.71875-.96875-1.609375-.984374-2.5-2.78125-.875-1.8125-.890625-4.203124v-1.484376q0-3.859374 1.796875-5.96875 1.796875-2.125 5.046875-2.125 2.671875 0 4.296875 1.375 1.640625 1.359376 2 3.859376h-2.25q-.625-3.390626-4.03125-3.390626-2.265625 0-3.4375 1.59375-1.15625 1.59375-1.171875 4.59375v1.40625q0 2.859376 1.3125 4.5625 1.3125 1.6875 3.5625 1.6875 1.265625 0 2.203125-.28125.953125-.28125 1.578125-.953124v-3.828126h-3.953125v-1.828124h6.1875zm10.890625 2.234376q-.1875-.375-.296875-1.34375-1.515625 1.578124-3.609375 1.578124-1.875 0-3.078125-1.0625-1.203125-1.0625-1.203125-2.6875 0-1.984374 1.5-3.078124 1.515625-1.09375 4.234375-1.09375h2.109375v-1q0-1.140626-.6875-1.8125-.671875-.671876-1.984375-.671876-1.171875 0-1.953125.59375-.78125.578126-.78125 1.40625h-2.1875q0-.9375.671875-1.828124.6875-.890626 1.828125-1.40625 1.15625-.515626 2.546875-.515626 2.1875 0 3.421875 1.109376 1.25 1.09375 1.296875 3.015624v5.828126q0 1.75.453125 2.78125v.1875zm-3.59375-1.65625q1.015625 0 1.921875-.515626.921875-.53125 1.328125-1.375v-2.609374h-1.6875q-3.984375 0-3.984375 2.328124 0 1.03125.671875 1.609376.6875.5625 1.75.5625zm11.125 1.65625h-2.171875v-18h2.171875zm11.46875 0q-.1875-.375-.296875-1.34375-1.515625 1.578124-3.609375 1.578124-1.875 0-3.078125-1.0625-1.203125-1.0625-1.203125-2.6875 0-1.984374 1.5-3.078124 1.515625-1.09375 4.234375-1.09375h2.109375v-1q0-1.140626-.6875-1.8125-.671875-.671876-1.984375-.671876-1.171875 0-1.953125.59375-.78125.578126-.78125 1.40625h-2.1875q0-.9375.671875-1.828124.6875-.890626 1.828125-1.40625 1.15625-.515626 2.546875-.515626 2.1875 0 3.421875 1.109376 1.25 1.09375 1.296875 3.015624v5.828126q0 1.75.453125 2.78125v.1875zm-3.59375-1.65625q1.015625 0 1.921875-.515626.921875-.53125 1.328125-1.375v-2.609374h-1.6875q-3.984375 0-3.984375 2.328124 0 1.03125.671875 1.609376.6875.5625 1.75.5625zm13.015625-6.390626 2.8125-4.640624h2.53125l-4.140625 6.28125 4.28125 6.40625h-2.515625l-2.921875-4.75-2.9375 4.75h-2.515625l4.28125-6.40625-4.15625-6.28125h2.515625zm11.906255 4.875 2.95312-9.515624h2.3125l-5.09375 14.640624q-1.1875 3.171876-3.765625 3.171876l-.40625-.03125-.8125-.15625v-1.765626l.59375.046876q1.09375 0 1.703125-.453126.625-.4375 1.015625-1.609374l.484375-1.296876-4.515625-12.546874h2.359375zm26.29687 3.171876h-2.26563v-7.890626h-8.59374v7.890626h-2.25v-17.0625h2.25v7.328124h8.59374v-7.328124h2.26563zm8.8125.234374q-2.57813 0-4.20313-1.6875-1.60937-1.703124-1.60937-4.53125v-.40625q0-1.890624.71875-3.359374.71875-1.484376 2.01562-2.328126 1.29688-.84375 2.8125-.84375 2.46876 0 3.82813 1.640626 1.375 1.625 1.375 4.65625v.90625h-8.57813q.04688 1.875 1.09376 3.03125 1.04687 1.15625 2.65624 1.15625 1.15626 0 1.95313-.46875.79687-.46875 1.39063-1.25l1.32812 1.03125q-1.59375 2.453124-4.78125 2.453124zm-.26563-11.375q-1.3125 0-2.20312.96875-.89062.953126-1.10938 2.671876h6.35938v-.171876q-.09375-1.640624-.89062-2.546874-.79688-.921876-2.15626-.921876zm10.35938 11.140626h-2.17188v-18h2.17188zm14.35938-6.203126q0 2.890626-1.32813 4.671876-1.32813 1.765624-3.59375 1.765624-2.29688 0-3.625-1.46875v6.109376h-2.17188v-17.5625h1.98438l.10938 1.40625q1.3125-1.640626 3.67187-1.640626 2.28125 0 3.60937 1.734376 1.34376 1.71875 1.34376 4.78125zm-2.17188-.25q0-2.140624-.92188-3.375-.90624-1.25-2.5-1.25-1.96874 0-2.95312 1.75v6.0625q.96875 1.734376 2.96875 1.734376 1.5625 0 2.48437-1.234376.92188-1.25.92188-3.6875zm4.5 5.3125q0-.5625.32812-.9375.34376-.375 1-.375.67188 0 1.01563.375.35937.375.35937.9375 0 .546876-.35937.90625-.34375.359376-1.01563.359376-.65624 0-1-.359376-.32812-.359374-.32812-.90625zm0-10q0-.5625.32812-.9375.34376-.375 1-.375.67188 0 1.01563.375.35937.375.35937.9375 0 .546876-.35937.90625-.34375.359376-1.01563.359376-.65624 0-1-.359376-.32812-.359374-.32812-.90625zm25.40625 11.140626h-2.26563l-8.57812-13.15625v13.15625h-2.26562v-17.0625h2.26562l8.60938 13.203124v-13.203124h2.23437zm8.8125.234374q-2.57813 0-4.20313-1.6875-1.60937-1.703124-1.60937-4.53125v-.40625q0-1.890624.71875-3.359374.71875-1.484376 2.01562-2.328126 1.29688-.84375 2.8125-.84375 2.46876 0 3.82813 1.640626 1.375 1.625 1.375 4.65625v.90625h-8.57813q.04688 1.875 1.09376 3.03125 1.04687 1.15625 2.65624 1.15625 1.15626 0 1.95313-.46875.79687-.46875 1.39063-1.25l1.32812 1.03125q-1.59375 2.453124-4.78125 2.453124zm-.26563-11.375q-1.3125 0-2.20312.96875-.89062.953126-1.10938 2.671876h6.35938v-.171876q-.09375-1.640624-.89062-2.546874-.79688-.921876-2.15626-.921876zm19.23438 8.15625 2.4375-9.703124h2.15625l-3.6875 12.6875h-1.75l-3.09375-9.609376-3 9.609376h-1.75l-3.6875-12.6875h2.15625l2.5 9.5 2.95313-9.5h1.75zm24.89062-12.234374h-5.48437v15.21875h-2.23437v-15.21875h-5.46876v-1.84375h13.1875zm1.29688 8.765624q0-1.875.73438-3.359374.73437-1.484376 2.03124-2.296876 1.3125-.8125 3-.8125 2.57813 0 4.17188 1.796876 1.60938 1.796874 1.60938 4.765624v.15625q0 1.859376-.71876 3.328126-.70312 1.46875-2.01562 2.296874-1.3125.8125-3.03125.8125-2.57813 0-4.1875-1.796874-1.59375-1.796876-1.59375-4.75zm2.1875.25q0 2.109376.96875 3.390626.98437 1.28125 2.625 1.28125 1.65625 0 2.625-1.296876.96875-1.296874.96875-3.625 0-2.09375-.98438-3.390624-.98437-1.296876-2.625-1.296876-1.60937 0-2.59374 1.28125-.98438 1.28125-.98438 3.65625zm23.10938 0q0 2.890626-1.32813 4.671876-1.32813 1.765624-3.59375 1.765624-2.29688 0-3.625-1.46875v6.109376h-2.17188v-17.5625h1.98438l.10938 1.40625q1.3125-1.640626 3.67187-1.640626 2.28125 0 3.60937 1.734376 1.34376 1.71875 1.34376 4.78125zm-2.17188-.25q0-2.140624-.92188-3.375-.90624-1.25-2.5-1.25-1.96874 0-2.95312 1.75v6.0625q.96875 1.734376 2.96875 1.734376 1.5625 0 2.48437-1.234376.92188-1.25.92188-3.6875zm6.8125 6.453126h-2.17188v-12.6875h2.17188zm-2.34375-16.046876q0-.53125.3125-.890624.32813-.359376.95313-.359376.64062 0 .96874.359376.32813.359374.32813.890624 0 .53125-.32813.890626-.32812.34375-.96874.34375-.625 0-.95313-.34375-.3125-.359376-.3125-.890626zm11.07813 14.515626q1.15624 0 2.01562-.703126.875-.703124.96875-1.765624h2.04687q-.0625 1.09375-.75 2.078124-.6875.984376-1.84374 1.578126-1.15626.578124-2.4375.578124-2.59376 0-4.125-1.71875-1.53126-1.734374-1.53126-4.734374v-.375q0-1.84375.67188-3.28125.6875-1.453126 1.95312-2.25 1.28126-.796876 3.01563-.796876 2.125 0 3.53125 1.28125 1.42188 1.28125 1.51562 3.3125h-2.04687q-.09375-1.21875-.9375-2.015624-.82813-.796876-2.0625-.796876-1.65625 0-2.5625 1.203126-.90625 1.1875-.90625 3.4375v.40625q0 2.1875.89062 3.375.90626 1.1875 2.59376 1.1875zm15.29687-1.828126q0-.890624-.67187-1.375-.65626-.484374-2.3125-.828124-1.64063-.359376-2.60938-.84375-.96875-.5-1.4375-1.171876-.45312-.6875-.45312-1.625 0-1.5625 1.3125-2.640624 1.32812-1.078126 3.375-1.078126 2.15624 0 3.5 1.125 1.34374 1.109376 1.34374 2.84375h-2.1875q0-.890624-.75-1.53125-.75-.65625-1.90624-.65625-1.1875 0-1.85938.515626-.65625.515624-.65625 1.359374 0 .78125.60937 1.1875.625.390626 2.25.75 1.625.359376 2.625.875 1.01563.5 1.5 1.21875.48438.703126.48438 1.71875 0 1.703126-1.35938 2.734376-1.35937 1.015624-3.51562 1.015624-1.53125 0-2.70312-.53125-1.17188-.546874-1.84376-1.515624-.65624-.96875-.65624-2.09375h2.17187q.0625 1.09375.875 1.734374.8125.640626 2.15625.640626 1.21875 0 1.96875-.5.75-.5.75-1.328126zm18.4375 3.359376q-.1875-.375-.29687-1.34375-1.51563 1.578124-3.60938 1.578124-1.875 0-3.07812-1.0625-1.20313-1.0625-1.20313-2.6875 0-1.984374 1.5-3.078124 1.51563-1.09375 4.23437-1.09375h2.10938v-1q0-1.140626-.6875-1.8125-.67188-.671876-1.98438-.671876-1.17187 0-1.95312.59375-.78125.578126-.78125 1.40625h-2.1875q0-.9375.67187-1.828124.6875-.890626 1.82813-1.40625 1.15625-.515626 2.54687-.515626 2.1875 0 3.42188 1.109376 1.25 1.09375 1.29688 3.015624v5.828126q0 1.75.45312 2.78125v.1875zm-3.59375-1.65625q1.01562 0 1.92188-.515626.92187-.53125 1.32812-1.375v-2.609374h-1.6875q-3.98438 0-3.98438 2.328124 0 1.03125.67188 1.609376.6875.5625 1.75.5625zm10.8125-11.03125.07812 1.59375q1.45313-1.828126 3.79688-1.828126 4.01562 0 4.04688 4.546876v8.375h-2.15626v-8.390626q-.01562-1.375-.64062-2.03125-.60938-.65625-1.90625-.65625-1.0625 0-1.85937.5625-.79688.5625-1.23438 1.484376v9.03125h-2.17188v-12.6875zm10.42188 6.234374q0-2.90625 1.375-4.6875 1.39062-1.78125 3.64062-1.78125 2.21875 0 3.51562 1.53125v-6.609374h2.17188v18h-1.98438l-.10937-1.359376q-1.29687 1.59375-3.625 1.59375-2.20313 0-3.59375-1.796874-1.39062-1.8125-1.39062-4.71875zm2.17187.25q0 2.15625.89063 3.375.89062 1.21875 2.46874 1.21875 2.0625 0 3-1.84375v-5.828124q-.96874-1.796876-2.98437-1.796876-1.59375 0-2.48437 1.234376-.89063 1.234374-.89063 3.640624zm24.95313-.703124h-4v6.90625h-2.26563v-17.0625h5.65625q2.875 0 4.42188 1.3125 1.5625 1.3125 1.5625 3.8125 0 1.59375-.85938 2.78125-.85938 1.1875-2.40625 1.765624l4.01563 7.25v.140626h-2.42188zm-4-1.84375h3.45312q1.67188 0 2.65625-.859376 1-.875 1-2.328124 0-1.578126-.95313-2.421876-.9375-.84375-2.71874-.859374h-3.4375zm17.67187 8.984374q-2.57813 0-4.20313-1.6875-1.60937-1.703124-1.60937-4.53125v-.40625q0-1.890624.71875-3.359374.71875-1.484376 2.01562-2.328126 1.29688-.84375 2.8125-.84375 2.46876 0 3.82813 1.640626 1.375 1.625 1.375 4.65625v.90625h-8.57813q.04688 1.875 1.09376 3.03125 1.04687 1.15625 2.65624 1.15625 1.15626 0 1.95313-.46875.79687-.46875 1.39063-1.25l1.32812 1.03125q-1.59375 2.453124-4.78125 2.453124zm-.26563-11.375q-1.3125 0-2.20312.96875-.89062.953126-1.10938 2.671876h6.35938v-.171876q-.09375-1.640624-.89062-2.546874-.79688-.921876-2.15626-.921876zm15.39063 7.78125q0-.890624-.67187-1.375-.65626-.484374-2.3125-.828124-1.64063-.359376-2.60938-.84375-.96875-.5-1.4375-1.171876-.45312-.6875-.45312-1.625 0-1.5625 1.3125-2.640624 1.32812-1.078126 3.375-1.078126 2.15624 0 3.5 1.125 1.34374 1.109376 1.34374 2.84375h-2.1875q0-.890624-.75-1.53125-.75-.65625-1.90624-.65625-1.1875 0-1.85938.515626-.65625.515624-.65625 1.359374 0 .78125.60937 1.1875.625.390626 2.25.75 1.625.359376 2.625.875 1.01563.5 1.5 1.21875.48438.703126.48438 1.71875 0 1.703126-1.35938 2.734376-1.35937 1.015624-3.51562 1.015624-1.53125 0-2.70312-.53125-1.17188-.546874-1.84376-1.515624-.65624-.96875-.65624-2.09375h2.17187q.0625 1.09375.875 1.734374.8125.640626 2.15625.640626 1.21875 0 1.96875-.5.75-.5.75-1.328126zm15.32813-2.84375q0 2.890626-1.32813 4.671876-1.32813 1.765624-3.59375 1.765624-2.29688 0-3.625-1.46875v6.109376h-2.17188v-17.5625h1.98438l.10938 1.40625q1.3125-1.640626 3.67187-1.640626 2.28125 0 3.60937 1.734376 1.34376 1.71875 1.34376 4.78125zm-2.17188-.25q0-2.140624-.92188-3.375-.90624-1.25-2.5-1.25-1.96874 0-2.95312 1.75v6.0625q.96875 1.734376 2.96875 1.734376 1.5625 0 2.48437-1.234376.92188-1.25.92188-3.6875zm3.875 0q0-1.875.73438-3.359374.73437-1.484376 2.03124-2.296876 1.3125-.8125 3-.8125 2.57813 0 4.17188 1.796876 1.60938 1.796874 1.60938 4.765624v.15625q0 1.859376-.71876 3.328126-.70312 1.46875-2.01562 2.296874-1.3125.8125-3.03125.8125-2.57813 0-4.1875-1.796874-1.59375-1.796876-1.59375-4.75zm2.1875.25q0 2.109376.96875 3.390626.98437 1.28125 2.625 1.28125 1.65625 0 2.625-1.296876.96875-1.296874.96875-3.625 0-2.09375-.98438-3.390624-.98437-1.296876-2.625-1.296876-1.60937 0-2.59374 1.28125-.98438 1.28125-.98438 3.65625zm14.4375-6.484374.07812 1.59375q1.45313-1.828126 3.79688-1.828126 4.01562 0 4.04688 4.546876v8.375h-2.15626v-8.390626q-.01562-1.375-.64062-2.03125-.60938-.65625-1.90625-.65625-1.0625 0-1.85937.5625-.79688.5625-1.23438 1.484376v9.03125h-2.17188v-12.6875zm18.34375 9.328124q0-.890624-.67187-1.375-.65626-.484374-2.3125-.828124-1.64063-.359376-2.60938-.84375-.96875-.5-1.4375-1.171876-.45312-.6875-.45312-1.625 0-1.5625 1.3125-2.640624 1.32812-1.078126 3.375-1.078126 2.15624 0 3.5 1.125 1.34374 1.109376 1.34374 2.84375h-2.1875q0-.890624-.75-1.53125-.75-.65625-1.90624-.65625-1.1875 0-1.85938.515626-.65625.515624-.65625 1.359374 0 .78125.60937 1.1875.625.390626 2.25.75 1.625.359376 2.625.875 1.01563.5 1.5 1.21875.48438.703126.48438 1.71875 0 1.703126-1.35938 2.734376-1.35937 1.015624-3.51562 1.015624-1.53125 0-2.70312-.53125-1.17188-.546874-1.84376-1.515624-.65624-.96875-.65624-2.09375h2.17187q.0625 1.09375.875 1.734374.8125.640626 2.15625.640626 1.21875 0 1.96875-.5.75-.5.75-1.328126zm9.875 3.59375q-2.57813 0-4.20313-1.6875-1.60937-1.703124-1.60937-4.53125v-.40625q0-1.890624.71875-3.359374.71875-1.484376 2.01562-2.328126 1.29688-.84375 2.8125-.84375 2.46876 0 3.82813 1.640626 1.375 1.625 1.375 4.65625v.90625h-8.57813q.04688 1.875 1.09376 3.03125 1.04687 1.15625 2.65624 1.15625 1.15626 0 1.95313-.46875.79687-.46875 1.39063-1.25l1.32812 1.03125q-1.59375 2.453124-4.78125 2.453124zm-.26563-11.375q-1.3125 0-2.20312.96875-.89062.953126-1.10938 2.671876h6.35938v-.171876q-.09375-1.640624-.89062-2.546874-.79688-.921876-2.15626-.921876zm15.39063 7.78125q0-.890624-.67187-1.375-.65626-.484374-2.3125-.828124-1.64063-.359376-2.60938-.84375-.96875-.5-1.4375-1.171876-.45312-.6875-.45312-1.625 0-1.5625 1.3125-2.640624 1.32812-1.078126 3.375-1.078126 2.15624 0 3.5 1.125 1.34374 1.109376 1.34374 2.84375h-2.1875q0-.890624-.75-1.53125-.75-.65625-1.90624-.65625-1.1875 0-1.85938.515626-.65625.515624-.65625 1.359374 0 .78125.60937 1.1875.625.390626 2.25.75 1.625.359376 2.625.875 1.01563.5 1.5 1.21875.48438.703126.48438 1.71875 0 1.703126-1.35938 2.734376-1.35937 1.015624-3.51562 1.015624-1.53125 0-2.70312-.53125-1.17188-.546874-1.84376-1.515624-.65624-.96875-.65624-2.09375h2.17187q.0625 1.09375.875 1.734374.8125.640626 2.15625.640626 1.21875 0 1.96875-.5.75-.5.75-1.328126zm21.32815-2.84375q0 2.890626-1.32815 4.671876-1.32813 1.765624-3.59375 1.765624-2.29688 0-3.625-1.46875v6.109376h-2.17188v-17.5625h1.98438l.10938 1.40625q1.3125-1.640626 3.67187-1.640626 2.28125 0 3.60935 1.734376 1.3438 1.71875 1.3438 4.78125zm-2.1719-.25q0-2.140624-.92188-3.375-.90624-1.25-2.5-1.25-1.96874 0-2.95312 1.75v6.0625q.96875 1.734376 2.96875 1.734376 1.5625 0 2.48437-1.234376.92188-1.25.92188-3.6875zm9.71875 6.6875q-2.57815 0-4.20315-1.6875-1.60935-1.703124-1.60935-4.53125v-.40625q0-1.890624.71875-3.359374.71875-1.484376 2.0156-2.328126 1.2969-.84375 2.8125-.84375 2.4688 0 3.82815 1.640626 1.375 1.625 1.375 4.65625v.90625h-8.57815q.0469 1.875 1.0938 3.03125 1.04685 1.15625 2.6562 1.15625 1.1563 0 1.95315-.46875.79685-.46875 1.39065-1.25l1.3281 1.03125q-1.59375 2.453124-4.78125 2.453124zm-.26565-11.375q-1.3125 0-2.2031.96875-.8906.953126-1.1094 2.671876h6.3594v-.171876q-.09375-1.640624-.8906-2.546874-.7969-.921876-2.1563-.921876zm14.125.40625q-.48435-.078124-1.0625-.078124-2.125 0-2.8906 1.8125v9h-2.1719v-12.6875h2.1094l.03125 1.46875q1.07815-1.703126 3.03125-1.703126.625 0 .9531.171876zm9.9219-1.953124.0469 1.40625q1.4062-1.640626 3.7656-1.640626 2.65625 0 3.625 2.046876.625-.921876 1.6406-1.484376 1.01565-.5625 2.4063-.5625 4.17185 0 4.23435 4.421876v8.5h-2.17185v-8.375q0-1.359376-.625-2.03125-.6094-.671876-2.07815-.671876-1.20315 0-2 .71875-.79685.71875-.92185 1.9375v8.421876h-2.1875v-8.3125q0-2.765626-2.70315-2.765626-2.14065 0-2.92185 1.8125v9.265626h-2.1719v-12.6875zm18.375 6.234374q0-1.875.7344-3.359374.73435-1.484376 2.0312-2.296876 1.3125-.8125 3-.8125 2.57815 0 4.1719 1.796876 1.6094 1.796874 1.6094 4.765624v.15625q0 1.859376-.7188 3.328126-.7031 1.46875-2.0156 2.296874-1.3125.8125-3.03125.8125-2.57815 0-4.1875-1.796874-1.59375-1.796876-1.59375-4.75zm2.1875.25q0 2.109376.96875 3.390626.98435 1.28125 2.625 1.28125 1.65625 0 2.625-1.296876.96875-1.296874.96875-3.625 0-2.09375-.9844-3.390624-.98435-1.296876-2.625-1.296876-1.60935 0-2.5937 1.28125-.9844 1.28125-.9844 3.65625zm14.4375-6.484374.0781 1.59375q1.45315-1.828126 3.7969-1.828126 4.0156 0 4.0469 4.546876v8.375h-2.1563v-8.390626q-.0156-1.375-.6406-2.03125-.6094-.65625-1.90625-.65625-1.0625 0-1.85935.5625-.7969.5625-1.2344 1.484376v9.03125h-2.1719v-12.6875zm13.8906-3.0625v3.0625h2.375v1.6875h-2.375v7.859374q0 .765626.3125 1.140626.32815.375 1.0938.375.375 0 1.0312-.140626v1.765626q-.85935.234374-1.67185.234374-1.45315 0-2.1875-.875-.73435-.890624-.73435-2.5v-7.859374h-2.3125v-1.6875h2.3125v-3.0625zm7.2344 4.609374q1.4375-1.78125 3.75-1.78125 4.0156 0 4.0469 4.546876v8.375h-2.1563v-8.390626q-.0156-1.375-.6406-2.03125-.6094-.65625-1.90625-.65625-1.0625 0-1.85935.5625-.7969.5625-1.2344 1.484376v9.03125h-2.1719v-18h2.1719z" fill="#efefef"/></svg>