<svg version="1.1" viewBox="0.0 0.0 673.0 416.0" fill="none" stroke="none" stroke-linecap="square" stroke-miterlimit="10" width="673" height="416" xmlns:xlink="http://www.w3.org/1999/xlink" xmlns="http://www.w3.org/2000/svg"><path fill="#000000" d="M0 0L673.0 0L673.0 416.0L0 416.0L0 0Z" fill-rule="nonzero"/><path stroke="#cccccc" stroke-width="1.0" stroke-linecap="butt" d="M55.5 335.5L652.5 335.5" fill-rule="nonzero"/><path stroke="#333333" stroke-width="1.0" stroke-linecap="butt" d="M55.5 258.5L652.5 258.5" fill-rule="nonzero"/><path stroke="#333333" stroke-width="1.0" stroke-linecap="butt" d="M55.5 182.5L652.5 182.5" fill-rule="nonzero"/><path stroke="#333333" stroke-width="1.0" stroke-linecap="butt" d="M55.5 106.5L652.5 106.5" fill-rule="nonzero"/><clipPath id="id_0"><path d="M55.8 106.03333L652.2 106.03333L652.2 335.2L55.8 335.2L55.8 106.03333Z" clip-rule="nonzero"/></clipPath><path stroke="#4285f4" stroke-width="4.0" stroke-linecap="butt" clip-path="url(#id_0)" d="M93.075 323.74167C93.075 323.74167 142.775 290.3852 167.625 284.78333C192.475 279.1815 217.325 288.47546 242.175 290.13055C267.025 291.78564 291.875 297.2602 316.725 294.7139C341.575 292.1676 366.425 279.56342 391.275 274.85278C416.125 270.14212 440.975 266.70462 465.825 266.45C490.675 266.19537 515.525 271.5426 540.375 273.325C565.225 275.10742 614.925 277.14444 614.925 277.14444" fill-rule="nonzero"/><path stroke="#93c47d" stroke-width="4.0" stroke-linecap="butt" clip-path="url(#id_0)" d="M93.075 327.5611C93.075 327.5611 142.775 212.21388 167.625 190.825C192.475 169.43611 217.325 198.71852 242.175 199.22778C267.025 199.73703 291.875 206.3574 316.725 193.88055C341.575 181.4037 366.425 129.45926 391.275 124.36667C416.125 119.27407 440.975 160.7787 465.825 163.325C490.675 165.87129 515.525 138.75323 540.375 139.64444C565.225 140.53564 614.925 168.67223 614.925 168.67223" fill-rule="nonzero"/><path fill="#4285f4" clip-path="url(#id_0)" d="M97.575 323.74167C97.575 326.22696 95.56028 328.24167 93.075 328.24167C90.58972 328.24167 88.575 326.22696 88.575 323.74167C88.575 321.25638 90.58972 319.24167 93.075 319.24167C95.56028 319.24167 97.575 321.25638 97.575 323.74167Z" fill-rule="nonzero"/><path fill="#4285f4" clip-path="url(#id_0)" d="M172.125 284.78333C172.125 287.26862 170.11028 289.28333 167.625 289.28333C165.13972 289.28333 163.125 287.26862 163.125 284.78333C163.125 282.29807 165.13972 280.28333 167.625 280.28333C170.11028 280.28333 172.125 282.29807 172.125 284.78333Z" fill-rule="nonzero"/><path fill="#4285f4" clip-path="url(#id_0)" d="M246.675 290.13055C246.675 292.61584 244.66028 294.63055 242.175 294.63055C239.68971 294.63055 237.675 292.61584 237.675 290.13055C237.675 287.64526 239.68971 285.63055 242.175 285.63055C244.66028 285.63055 246.675 287.64526 246.675 290.13055Z" fill-rule="nonzero"/><path fill="#4285f4" clip-path="url(#id_0)" d="M321.225 294.7139C321.225 297.19916 319.2103 299.2139 316.725 299.2139C314.23972 299.2139 312.225 297.19916 312.225 294.7139C312.225 292.2286 314.23972 290.2139 316.725 290.2139C319.2103 290.2139 321.225 292.2286 321.225 294.7139Z" fill-rule="nonzero"/><path fill="#4285f4" clip-path="url(#id_0)" d="M395.775 274.85278C395.775 277.33807 393.76028 279.35278 391.275 279.35278C388.7897 279.35278 386.775 277.33807 386.775 274.85278C386.775 272.3675 388.7897 270.35278 391.275 270.35278C393.76028 270.35278 395.775 272.3675 395.775 274.85278Z" fill-rule="nonzero"/><path fill="#4285f4" clip-path="url(#id_0)" d="M470.325 266.45C470.325 268.93527 468.31027 270.95 465.825 270.95C463.33972 270.95 461.325 268.93527 461.325 266.45C461.325 263.96472 463.33972 261.95 465.825 261.95C468.31027 261.95 470.325 263.96472 470.325 266.45Z" fill-rule="nonzero"/><path fill="#4285f4" clip-path="url(#id_0)" d="M544.875 273.325C544.875 275.81027 542.8603 277.825 540.375 277.825C537.8897 277.825 535.875 275.81027 535.875 273.325C535.875 270.83972 537.8897 268.825 540.375 268.825C542.8603 268.825 544.875 270.83972 544.875 273.325Z" fill-rule="nonzero"/><path fill="#4285f4" clip-path="url(#id_0)" d="M619.425 277.14444C619.425 279.62973 617.4103 281.64444 614.925 281.64444C612.4397 281.64444 610.425 279.62973 610.425 277.14444C610.425 274.65915 612.4397 272.64444 614.925 272.64444C617.4103 272.64444 619.425 274.65915 619.425 277.14444Z" fill-rule="nonzero"/><path fill="#93c47d" clip-path="url(#id_0)" d="M97.575 327.5611C97.575 330.0464 95.56028 332.0611 93.075 332.0611C90.58972 332.0611 88.575 330.0464 88.575 327.5611C88.575 325.07584 90.58972 323.0611 93.075 323.0611C95.56028 323.0611 97.575 325.07584 97.575 327.5611Z" fill-rule="nonzero"/><path fill="#93c47d" clip-path="url(#id_0)" d="M172.125 190.825C172.125 193.31029 170.11028 195.325 167.625 195.325C165.13972 195.325 163.125 193.31029 163.125 190.825C163.125 188.33972 165.13972 186.325 167.625 186.325C170.11028 186.325 172.125 188.33972 172.125 190.825Z" fill-rule="nonzero"/><path fill="#93c47d" clip-path="url(#id_0)" d="M246.675 199.22778C246.675 201.71306 244.66028 203.72778 242.175 203.72778C239.68971 203.72778 237.675 201.71306 237.675 199.22778C237.675 196.7425 239.68971 194.72778 242.175 194.72778C244.66028 194.72778 246.675 196.7425 246.675 199.22778Z" fill-rule="nonzero"/><path fill="#93c47d" clip-path="url(#id_0)" d="M321.225 193.88055C321.225 196.36583 319.2103 198.38055 316.725 198.38055C314.23972 198.38055 312.225 196.36583 312.225 193.88055C312.225 191.39528 314.23972 189.38055 316.725 189.38055C319.2103 189.38055 321.225 191.39528 321.225 193.88055Z" fill-rule="nonzero"/><path fill="#93c47d" clip-path="url(#id_0)" d="M395.775 124.36667C395.775 126.85195 393.76028 128.86667 391.275 128.86667C388.7897 128.86667 386.775 126.85195 386.775 124.36667C386.775 121.881386 388.7897 119.86667 391.275 119.86667C393.76028 119.86667 395.775 121.881386 395.775 124.36667Z" fill-rule="nonzero"/><path fill="#93c47d" clip-path="url(#id_0)" d="M470.325 163.325C470.325 165.81029 468.31027 167.825 465.825 167.825C463.33972 167.825 461.325 165.81029 461.325 163.325C461.325 160.83972 463.33972 158.825 465.825 158.825C468.31027 158.825 470.325 160.83972 470.325 163.325Z" fill-rule="nonzero"/><path fill="#93c47d" clip-path="url(#id_0)" d="M544.875 139.64444C544.875 142.12973 542.8603 144.14444 540.375 144.14444C537.8897 144.14444 535.875 142.12973 535.875 139.64444C535.875 137.15916 537.8897 135.14444 540.375 135.14444C542.8603 135.14444 544.875 137.15916 544.875 139.64444Z" fill-rule="nonzero"/><path fill="#93c47d" clip-path="url(#id_0)" d="M619.425 168.67223C619.425 171.1575 617.4103 173.17223 614.925 173.17223C612.4397 173.17223 610.425 171.1575 610.425 168.67223C610.425 166.18694 612.4397 164.17223 614.925 164.17223C617.4103 164.17223 619.425 166.18694 619.425 168.67223Z" fill-rule="nonzero"/><path fill="#bdbdbd" d="M338.9375 383.66876L341.73438 390.6219L344.51562 383.66876L345.98438 383.66876L345.98438 392.2L344.85938 392.2L344.85938 388.8719L344.96875 385.29376L342.15625 392.2L341.29688 392.2L338.5 385.3094L338.60938 388.8719L338.60938 392.2L337.48438 392.2L337.48438 383.66876L338.9375 383.66876ZM347.03125 388.96564Q347.03125 388.04376 347.39062 387.29376Q347.76562 386.54376 348.42188 386.15314Q349.07812 385.7469 349.90625 385.7469Q351.20312 385.7469 352.0 386.6375Q352.8125 387.52814 352.8125 389.02814L352.8125 389.10626Q352.8125 390.02814 352.45312 390.7625Q352.09375 391.4969 351.4375 391.91876Q350.78125 392.325 349.92188 392.325Q348.64062 392.325 347.82812 391.4344Q347.03125 390.52814 347.03125 389.04376L347.03125 388.96564ZM348.125 389.10626Q348.125 390.15314 348.60938 390.79376Q349.10938 391.4344 349.92188 391.4344Q350.75 391.4344 351.23438 390.79376Q351.71875 390.1375 351.71875 388.96564Q351.71875 387.9344 351.21875 387.29376Q350.73438 386.6375 349.90625 386.6375Q349.10938 386.6375 348.60938 387.27814Q348.125 387.90314 348.125 389.10626ZM355.34375 385.85626L355.375 386.65314Q356.10938 385.7469 357.28125 385.7469Q359.29688 385.7469 359.3125 388.0125L359.3125 392.2L358.21875 392.2L358.21875 387.9969Q358.21875 387.325 357.90625 386.9969Q357.60938 386.66876 356.95312 386.66876Q356.42188 386.66876 356.01562 386.95Q355.625 387.23126 355.40625 387.6844L355.40625 392.2L354.32812 392.2L354.32812 385.85626L355.34375 385.85626ZM362.79688 384.325L362.79688 385.85626L363.96875 385.85626L363.96875 386.7L362.79688 386.7L362.79688 390.6219Q362.79688 391.0125 362.95312 391.2Q363.10938 391.3875 363.48438 391.3875Q363.67188 391.3875 364.0 391.325L364.0 392.2Q363.57812 392.325 363.17188 392.325Q362.45312 392.325 362.07812 391.8875Q361.70312 391.4344 361.70312 390.6219L361.70312 386.7L360.54688 386.7L360.54688 385.85626L361.70312 385.85626L361.70312 384.325L362.79688 384.325ZM366.40625 386.6219Q367.125 385.7469 368.28125 385.7469Q370.29688 385.7469 370.3125 388.0125L370.3125 392.2L369.21875 392.2L369.21875 387.9969Q369.21875 387.325 368.90625 386.9969Q368.60938 386.66876 367.95312 386.66876Q367.42188 386.66876 367.01562 386.95Q366.625 387.23126 366.40625 387.6844L366.40625 392.2L365.32812 392.2L365.32812 383.2L366.40625 383.2L366.40625 386.6219Z" fill-rule="nonzero"/><path fill="#efefef" d="M46.878124 335.84064Q46.878124 338.3875 46.003124 339.6219Q45.14375 340.85626 43.3 340.85626Q41.4875 340.85626 40.6125 339.65314Q39.7375 338.4344 39.70625 336.04376L39.70625 334.10626Q39.70625 331.60626 40.565624 330.3875Q41.440624 329.16876 43.284374 329.16876Q45.128124 329.16876 45.9875 330.34064Q46.8625 331.5125 46.878124 333.96564L46.878124 335.84064ZM45.440624 333.8719Q45.440624 332.02814 44.925 331.2Q44.409374 330.35626 43.284374 330.35626Q42.175 330.35626 41.659374 331.2Q41.159374 332.02814 41.14375 333.7625L41.14375 336.075Q41.14375 337.91876 41.675 338.79376Q42.221874 339.66876 43.3 339.66876Q44.378124 339.66876 44.89375 338.84064Q45.409374 338.0125 45.440624 336.23126L45.440624 333.8719Z" fill-rule="nonzero"/><path fill="#efefef" d="M26.503124 264.3111L25.05 264.3111L25.05 254.67047L22.128124 255.7486L22.128124 254.4361L26.26875 252.8736L26.503124 252.8736L26.503124 264.3111ZM37.878124 259.45172Q37.878124 261.9986 37.003124 263.23297Q36.14375 264.46735 34.3 264.46735Q32.4875 264.46735 31.6125 263.26422Q30.7375 262.04547 30.70625 259.65485L30.70625 257.71735Q30.70625 255.21735 31.565624 253.9986Q32.440624 252.77985 34.284374 252.77985Q36.128124 252.77985 36.9875 253.95172Q37.8625 255.1236 37.878124 257.57672L37.878124 259.45172ZM36.440624 257.48297Q36.440624 255.63922 35.925 254.8111Q35.409374 253.96735 34.284374 253.96735Q33.175 253.96735 32.659374 254.8111Q32.159374 255.63922 32.14375 257.3736L32.14375 259.6861Q32.14375 261.52985 32.675 262.40485Q33.221874 263.27985 34.3 263.27985Q35.378124 263.27985 35.89375 262.45172Q36.409374 261.6236 36.440624 259.84235L36.440624 257.48297ZM46.878124 259.45172Q46.878124 261.9986 46.003124 263.23297Q45.14375 264.46735 43.3 264.46735Q41.4875 264.46735 40.6125 263.26422Q39.7375 262.04547 39.70625 259.65485L39.70625 257.71735Q39.70625 255.21735 40.565624 253.9986Q41.440624 252.77985 43.284374 252.77985Q45.128124 252.77985 45.9875 253.95172Q46.8625 255.1236 46.878124 257.57672L46.878124 259.45172ZM45.440624 257.48297Q45.440624 255.63922 44.925 254.8111Q44.409374 253.96735 43.284374 253.96735Q42.175 253.96735 41.659374 254.8111Q41.159374 255.63922 41.14375 257.3736L41.14375 259.6861Q41.14375 261.52985 41.675 262.40485Q42.221874 263.27985 43.3 263.27985Q44.378124 263.27985 44.89375 262.45172Q45.409374 261.6236 45.440624 259.84235L45.440624 257.48297Z" fill-rule="nonzero"/><path fill="#efefef" d="M29.20625 187.92223L21.753124 187.92223L21.753124 186.87535L25.690624 182.50035Q26.565624 181.51598 26.89375 180.89098Q27.221874 180.26598 27.221874 179.60973Q27.221874 178.7191 26.675 178.1566Q26.14375 177.57848 25.253124 177.57848Q24.175 177.57848 23.565624 178.18785Q22.971874 178.79723 22.971874 179.89098L21.534374 179.89098Q21.534374 178.32848 22.534374 177.35973Q23.55 176.39098 25.253124 176.39098Q26.83125 176.39098 27.753124 177.2191Q28.675 178.04723 28.675 179.43785Q28.675 181.10973 26.534374 183.43785L23.4875 186.73473L29.20625 186.73473L29.20625 187.92223ZM37.878124 183.06285Q37.878124 185.60973 37.003124 186.8441Q36.14375 188.07848 34.3 188.07848Q32.4875 188.07848 31.6125 186.87535Q30.7375 185.6566 30.70625 183.26598L30.70625 181.32848Q30.70625 178.82848 31.565624 177.60973Q32.440624 176.39098 34.284374 176.39098Q36.128124 176.39098 36.9875 177.56285Q37.8625 178.73473 37.878124 181.18785L37.878124 183.06285ZM36.440624 181.0941Q36.440624 179.25035 35.925 178.42223Q35.409374 177.57848 34.284374 177.57848Q33.175 177.57848 32.659374 178.42223Q32.159374 179.25035 32.14375 180.98473L32.14375 183.29723Q32.14375 185.14098 32.675 186.01598Q33.221874 186.89098 34.3 186.89098Q35.378124 186.89098 35.89375 186.06285Q36.409374 185.23473 36.440624 183.45348L36.440624 181.0941ZM46.878124 183.06285Q46.878124 185.60973 46.003124 186.8441Q45.14375 188.07848 43.3 188.07848Q41.4875 188.07848 40.6125 186.87535Q39.7375 185.6566 39.70625 183.26598L39.70625 181.32848Q39.70625 178.82848 40.565624 177.60973Q41.440624 176.39098 43.284374 176.39098Q45.128124 176.39098 45.9875 177.56285Q46.8625 178.73473 46.878124 181.18785L46.878124 183.06285ZM45.440624 181.0941Q45.440624 179.25035 44.925 178.42223Q44.409374 177.57848 43.284374 177.57848Q42.175 177.57848 41.659374 178.42223Q41.159374 179.25035 41.14375 180.98473L41.14375 183.29723Q41.14375 185.14098 41.675 186.01598Q42.221874 186.89098 43.3 186.89098Q44.378124 186.89098 44.89375 186.06285Q45.409374 185.23473 45.440624 183.45348L45.440624 181.0941Z" fill-rule="nonzero"/><path fill="#efefef" d="M23.846874 105.14271L24.940624 105.14271Q25.95625 105.12708 26.534374 104.61146Q27.128124 104.08021 27.128124 103.18958Q27.128124 101.18958 25.14375 101.18958Q24.20625 101.18958 23.64375 101.72083Q23.08125 102.25208 23.08125 103.14271L21.64375 103.14271Q21.64375 101.78333 22.628124 100.89271Q23.6125 100.00208 25.14375 100.00208Q26.753124 100.00208 27.659374 100.86146Q28.58125 101.70521 28.58125 103.22083Q28.58125 103.95521 28.096874 104.65833Q27.6125 105.34583 26.784374 105.68958Q27.721874 105.98646 28.2375 106.67396Q28.753124 107.36146 28.753124 108.36146Q28.753124 109.89271 27.753124 110.79896Q26.753124 111.68958 25.14375 111.68958Q23.55 111.68958 22.534374 110.83021Q21.534374 109.95521 21.534374 108.53333L22.9875 108.53333Q22.9875 109.42396 23.565624 109.97083Q24.159374 110.50208 25.14375 110.50208Q26.190624 110.50208 26.7375 109.95521Q27.3 109.40833 27.3 108.39271Q27.3 107.39271 26.690624 106.86146Q26.08125 106.33021 24.940624 106.31458L23.846874 106.31458L23.846874 105.14271ZM37.878124 106.67396Q37.878124 109.22083 37.003124 110.45521Q36.14375 111.68958 34.3 111.68958Q32.4875 111.68958 31.6125 110.48646Q30.7375 109.26771 30.70625 106.87708L30.70625 104.93958Q30.70625 102.43958 31.565624 101.22083Q32.440624 100.00208 34.284374 100.00208Q36.128124 100.00208 36.9875 101.17396Q37.8625 102.34583 37.878124 104.79896L37.878124 106.67396ZM36.440624 104.70521Q36.440624 102.86146 35.925 102.03333Q35.409374 101.18958 34.284374 101.18958Q33.175 101.18958 32.659374 102.03333Q32.159374 102.86146 32.14375 104.59583L32.14375 106.90833Q32.14375 108.75208 32.675 109.62708Q33.221874 110.50208 34.3 110.50208Q35.378124 110.50208 35.89375 109.67396Q36.409374 108.84583 36.440624 107.06458L36.440624 104.70521ZM46.878124 106.67396Q46.878124 109.22083 46.003124 110.45521Q45.14375 111.68958 43.3 111.68958Q41.4875 111.68958 40.6125 110.48646Q39.7375 109.26771 39.70625 106.87708L39.70625 104.93958Q39.70625 102.43958 40.565624 101.22083Q41.440624 100.00208 43.284374 100.00208Q45.128124 100.00208 45.9875 101.17396Q46.8625 102.34583 46.878124 104.79896L46.878124 106.67396ZM45.440624 104.70521Q45.440624 102.86146 44.925 102.03333Q44.409374 101.18958 43.284374 101.18958Q42.175 101.18958 41.659374 102.03333Q41.159374 102.86146 41.14375 104.59583L41.14375 106.90833Q41.14375 108.75208 41.675 109.62708Q42.221874 110.50208 43.3 110.50208Q44.378124 110.50208 44.89375 109.67396Q45.409374 108.84583 45.440624 107.06458L45.440624 104.70521Z" fill-rule="nonzero"/><path fill="#efefef" d="M70.98125 358.2L63.528126 358.2L63.528126 357.15314L67.46562 352.77814Q68.34062 351.79376 68.66875 351.16876Q68.99687 350.54376 68.99687 349.8875Q68.99687 348.9969 68.45 348.4344Q67.91875 347.85626 67.02812 347.85626Q65.95 347.85626 65.34062 348.46564Q64.74687 349.075 64.74687 350.16876L63.309376 350.16876Q63.309376 348.60626 64.30937 347.6375Q65.325 346.66876 67.02812 346.66876Q68.60625 346.66876 69.52812 347.4969Q70.45 348.325 70.45 349.71564Q70.45 351.3875 68.30937 353.71564L65.2625 357.0125L70.98125 357.0125L70.98125 358.2ZM79.65312 353.34064Q79.65312 355.8875 78.77812 357.1219Q77.91875 358.35626 76.075 358.35626Q74.2625 358.35626 73.3875 357.15314Q72.5125 355.9344 72.48125 353.54376L72.48125 351.60626Q72.48125 349.10626 73.34062 347.8875Q74.21562 346.66876 76.05937 346.66876Q77.90312 346.66876 78.7625 347.84064Q79.6375 349.0125 79.65312 351.46564L79.65312 353.34064ZM78.21562 351.3719Q78.21562 349.52814 77.7 348.7Q77.18437 347.85626 76.05937 347.85626Q74.95 347.85626 74.43437 348.7Q73.93437 349.52814 73.91875 351.2625L73.91875 353.575Q73.91875 355.41876 74.45 356.29376Q74.99687 357.16876 76.075 357.16876Q77.15312 357.16876 77.66875 356.34064Q78.18437 355.5125 78.21562 353.73126L78.21562 351.3719ZM86.27812 358.2L84.825 358.2L84.825 348.5594L81.90312 349.6375L81.90312 348.325L86.04375 346.7625L86.27812 346.7625L86.27812 358.2ZM97.41875 349.79376Q97.41875 350.6375 96.96562 351.3094Q96.52812 351.96564 95.7625 352.34064Q96.65312 352.73126 97.16875 353.46564Q97.68437 354.2 97.68437 355.1219Q97.68437 356.60626 96.68437 357.48126Q95.7 358.35626 94.075 358.35626Q92.43437 358.35626 91.43437 357.48126Q90.45 356.59064 90.45 355.1219Q90.45 354.2 90.95 353.46564Q91.46562 352.71564 92.35625 352.34064Q91.59062 351.96564 91.15312 351.3094Q90.71562 350.6375 90.71562 349.79376Q90.71562 348.35626 91.6375 347.5125Q92.55937 346.66876 94.075 346.66876Q95.575 346.66876 96.49687 347.5125Q97.41875 348.35626 97.41875 349.79376ZM96.24687 355.09064Q96.24687 354.1375 95.6375 353.54376Q95.02812 352.9344 94.04375 352.9344Q93.075 352.9344 92.48125 353.52814Q91.90312 354.1219 91.90312 355.09064Q91.90312 356.0594 92.46562 356.6219Q93.04375 357.16876 94.075 357.16876Q95.09062 357.16876 95.66875 356.6219Q96.24687 356.0594 96.24687 355.09064ZM94.075 347.85626Q93.21562 347.85626 92.68437 348.3875Q92.16875 348.90314 92.16875 349.8094Q92.16875 350.6844 92.68437 351.21564Q93.2 351.7469 94.05937 351.7469Q94.93437 351.7469 95.45 351.21564Q95.98125 350.6844 95.98125 349.825Q95.98125 348.95 95.43437 348.40314Q94.90312 347.85626 94.075 347.85626ZM99.96562 359.1844L98.71562 359.1844L103.46562 346.825L104.7 346.825L99.96562 359.1844ZM111.27812 358.2L109.825 358.2L109.825 348.5594L106.90312 349.6375L106.90312 348.325L111.04375 346.7625L111.27812 346.7625L111.27812 358.2ZM120.27812 358.2L118.825 358.2L118.825 348.5594L115.90312 349.6375L115.90312 348.325L120.04375 346.7625L120.27812 346.7625L120.27812 358.2Z" fill-rule="nonzero"/><path fill="#efefef" d="M145.53125 358.2L138.07812 358.2L138.07812 357.15314L142.01562 352.77814Q142.89062 351.79376 143.21875 351.16876Q143.54688 350.54376 143.54688 349.8875Q143.54688 348.9969 143.0 348.4344Q142.46875 347.85626 141.57812 347.85626Q140.5 347.85626 139.89062 348.46564Q139.29688 349.075 139.29688 350.16876L137.85938 350.16876Q137.85938 348.60626 138.85938 347.6375Q139.875 346.66876 141.57812 346.66876Q143.15625 346.66876 144.07812 347.4969Q145.0 348.325 145.0 349.71564Q145.0 351.3875 142.85938 353.71564L139.8125 357.0125L145.53125 357.0125L145.53125 358.2ZM154.20312 353.34064Q154.20312 355.8875 153.32812 357.1219Q152.46875 358.35626 150.625 358.35626Q148.8125 358.35626 147.9375 357.15314Q147.0625 355.9344 147.03125 353.54376L147.03125 351.60626Q147.03125 349.10626 147.89062 347.8875Q148.76562 346.66876 150.60938 346.66876Q152.45312 346.66876 153.3125 347.84064Q154.1875 349.0125 154.20312 351.46564L154.20312 353.34064ZM152.76562 351.3719Q152.76562 349.52814 152.25 348.7Q151.73438 347.85626 150.60938 347.85626Q149.5 347.85626 148.98438 348.7Q148.48438 349.52814 148.46875 351.2625L148.46875 353.575Q148.46875 355.41876 149.0 356.29376Q149.54688 357.16876 150.625 357.16876Q151.70312 357.16876 152.21875 356.34064Q152.73438 355.5125 152.76562 353.73126L152.76562 351.3719ZM160.82812 358.2L159.375 358.2L159.375 348.5594L156.45312 349.6375L156.45312 348.325L160.59375 346.7625L160.82812 346.7625L160.82812 358.2ZM171.96875 349.79376Q171.96875 350.6375 171.51562 351.3094Q171.07812 351.96564 170.3125 352.34064Q171.20312 352.73126 171.71875 353.46564Q172.23438 354.2 172.23438 355.1219Q172.23438 356.60626 171.23438 357.48126Q170.25 358.35626 168.625 358.35626Q166.98438 358.35626 165.98438 357.48126Q165.0 356.59064 165.0 355.1219Q165.0 354.2 165.5 353.46564Q166.01562 352.71564 166.90625 352.34064Q166.14062 351.96564 165.70312 351.3094Q165.26562 350.6375 165.26562 349.79376Q165.26562 348.35626 166.1875 347.5125Q167.10938 346.66876 168.625 346.66876Q170.125 346.66876 171.04688 347.5125Q171.96875 348.35626 171.96875 349.79376ZM170.79688 355.09064Q170.79688 354.1375 170.1875 353.54376Q169.57812 352.9344 168.59375 352.9344Q167.625 352.9344 167.03125 353.52814Q166.45312 354.1219 166.45312 355.09064Q166.45312 356.0594 167.01562 356.6219Q167.59375 357.16876 168.625 357.16876Q169.64062 357.16876 170.21875 356.6219Q170.79688 356.0594 170.79688 355.09064ZM168.625 347.85626Q167.76562 347.85626 167.23438 348.3875Q166.71875 348.90314 166.71875 349.8094Q166.71875 350.6844 167.23438 351.21564Q167.75 351.7469 168.60938 351.7469Q169.48438 351.7469 170.0 351.21564Q170.53125 350.6844 170.53125 349.825Q170.53125 348.95 169.98438 348.40314Q169.45312 347.85626 168.625 347.85626ZM174.51562 359.1844L173.26562 359.1844L178.01562 346.825L179.25 346.825L174.51562 359.1844ZM185.82812 358.2L184.375 358.2L184.375 348.5594L181.45312 349.6375L181.45312 348.325L185.59375 346.7625L185.82812 346.7625L185.82812 358.2ZM197.53125 358.2L190.07812 358.2L190.07812 357.15314L194.01562 352.77814Q194.89062 351.79376 195.21875 351.16876Q195.54688 350.54376 195.54688 349.8875Q195.54688 348.9969 195.0 348.4344Q194.46875 347.85626 193.57812 347.85626Q192.5 347.85626 191.89062 348.46564Q191.29688 349.075 191.29688 350.16876L189.85938 350.16876Q189.85938 348.60626 190.85938 347.6375Q191.875 346.66876 193.57812 346.66876Q195.15625 346.66876 196.07812 347.4969Q197.0 348.325 197.0 349.71564Q197.0 351.3875 194.85938 353.71564L191.8125 357.0125L197.53125 357.0125L197.53125 358.2Z" fill-rule="nonzero"/><path fill="#efefef" d="M224.58125 358.2L217.12813 358.2L217.12813 357.15314L221.06563 352.77814Q221.94063 351.79376 222.26875 351.16876Q222.59688 350.54376 222.59688 349.8875Q222.59688 348.9969 222.05 348.4344Q221.51875 347.85626 220.62813 347.85626Q219.55 347.85626 218.94063 348.46564Q218.34688 349.075 218.34688 350.16876L216.90938 350.16876Q216.90938 348.60626 217.90938 347.6375Q218.925 346.66876 220.62813 346.66876Q222.20625 346.66876 223.12813 347.4969Q224.05 348.325 224.05 349.71564Q224.05 351.3875 221.90938 353.71564L218.8625 357.0125L224.58125 357.0125L224.58125 358.2ZM233.25313 353.34064Q233.25313 355.8875 232.37813 357.1219Q231.51875 358.35626 229.675 358.35626Q227.8625 358.35626 226.9875 357.15314Q226.1125 355.9344 226.08125 353.54376L226.08125 351.60626Q226.08125 349.10626 226.94063 347.8875Q227.81563 346.66876 229.65938 346.66876Q231.50313 346.66876 232.3625 347.84064Q233.2375 349.0125 233.25313 351.46564L233.25313 353.34064ZM231.81563 351.3719Q231.81563 349.52814 231.3 348.7Q230.78438 347.85626 229.65938 347.85626Q228.55 347.85626 228.03438 348.7Q227.53438 349.52814 227.51875 351.2625L227.51875 353.575Q227.51875 355.41876 228.05 356.29376Q228.59688 357.16876 229.675 357.16876Q230.75313 357.16876 231.26875 356.34064Q231.78438 355.5125 231.81563 353.73126L231.81563 351.3719ZM239.87813 358.2L238.425 358.2L238.425 348.5594L235.50313 349.6375L235.50313 348.325L239.64375 346.7625L239.87813 346.7625L239.87813 358.2ZM249.65938 353.2Q249.20625 353.73126 248.58125 354.0594Q247.95625 354.3875 247.20625 354.3875Q246.22188 354.3875 245.4875 353.90314Q244.75313 353.41876 244.34688 352.54376Q243.95625 351.66876 243.95625 350.60626Q243.95625 349.46564 244.39375 348.5594Q244.83125 347.6375 245.62813 347.15314Q246.425 346.66876 247.4875 346.66876Q249.175 346.66876 250.14375 347.9344Q251.1125 349.1844 251.1125 351.3719L251.1125 351.79376Q251.1125 355.10626 249.8 356.6375Q248.4875 358.16876 245.84688 358.21564L245.56563 358.21564L245.56563 356.98126L245.8625 356.98126Q247.65938 356.95 248.6125 356.0594Q249.58125 355.15314 249.65938 353.2ZM247.44063 353.2Q248.15938 353.2 248.76875 352.7625Q249.39375 352.3094 249.675 351.65314L249.675 351.075Q249.675 349.65314 249.05 348.7625Q248.44063 347.8719 247.4875 347.8719Q246.53438 347.8719 245.95625 348.60626Q245.37813 349.325 245.37813 350.52814Q245.37813 351.6844 245.94063 352.45Q246.50313 353.2 247.44063 353.2ZM253.56563 359.1844L252.31563 359.1844L257.0656 346.825L258.3 346.825L253.56563 359.1844ZM264.8781 358.2L263.425 358.2L263.425 348.5594L260.5031 349.6375L260.5031 348.325L264.64374 346.7625L264.8781 346.7625L264.8781 358.2Z" fill-rule="nonzero"/><path fill="#efefef" d="M299.13126 358.2L291.67813 358.2L291.67813 357.15314L295.61563 352.77814Q296.49063 351.79376 296.81876 351.16876Q297.14688 350.54376 297.14688 349.8875Q297.14688 348.9969 296.6 348.4344Q296.06876 347.85626 295.17813 347.85626Q294.1 347.85626 293.49063 348.46564Q292.89688 349.075 292.89688 350.16876L291.45938 350.16876Q291.45938 348.60626 292.45938 347.6375Q293.475 346.66876 295.17813 346.66876Q296.75626 346.66876 297.67813 347.4969Q298.6 348.325 298.6 349.71564Q298.6 351.3875 296.45938 353.71564L293.4125 357.0125L299.13126 357.0125L299.13126 358.2ZM307.80313 353.34064Q307.80313 355.8875 306.92813 357.1219Q306.06876 358.35626 304.225 358.35626Q302.4125 358.35626 301.5375 357.15314Q300.6625 355.9344 300.63126 353.54376L300.63126 351.60626Q300.63126 349.10626 301.49063 347.8875Q302.36563 346.66876 304.20938 346.66876Q306.05313 346.66876 306.9125 347.84064Q307.7875 349.0125 307.80313 351.46564L307.80313 353.34064ZM306.36563 351.3719Q306.36563 349.52814 305.85 348.7Q305.33438 347.85626 304.20938 347.85626Q303.1 347.85626 302.58438 348.7Q302.08438 349.52814 302.06876 351.2625L302.06876 353.575Q302.06876 355.41876 302.6 356.29376Q303.14688 357.16876 304.225 357.16876Q305.30313 357.16876 305.81876 356.34064Q306.33438 355.5125 306.36563 353.73126L306.36563 351.3719ZM314.42813 358.2L312.975 358.2L312.975 348.5594L310.05313 349.6375L310.05313 348.325L314.19376 346.7625L314.42813 346.7625L314.42813 358.2ZM324.20938 353.2Q323.75626 353.73126 323.13126 354.0594Q322.50626 354.3875 321.75626 354.3875Q320.77188 354.3875 320.0375 353.90314Q319.30313 353.41876 318.89688 352.54376Q318.50626 351.66876 318.50626 350.60626Q318.50626 349.46564 318.94376 348.5594Q319.38126 347.6375 320.17813 347.15314Q320.975 346.66876 322.0375 346.66876Q323.725 346.66876 324.69376 347.9344Q325.6625 349.1844 325.6625 351.3719L325.6625 351.79376Q325.6625 355.10626 324.35 356.6375Q323.0375 358.16876 320.39688 358.21564L320.11563 358.21564L320.11563 356.98126L320.4125 356.98126Q322.20938 356.95 323.1625 356.0594Q324.13126 355.15314 324.20938 353.2ZM321.99063 353.2Q322.70938 353.2 323.31876 352.7625Q323.94376 352.3094 324.225 351.65314L324.225 351.075Q324.225 349.65314 323.6 348.7625Q322.99063 347.8719 322.0375 347.8719Q321.08438 347.8719 320.50626 348.60626Q319.92813 349.325 319.92813 350.52814Q319.92813 351.6844 320.49063 352.45Q321.05313 353.2 321.99063 353.2ZM328.11563 359.1844L326.86563 359.1844L331.61563 346.825L332.85 346.825L328.11563 359.1844ZM342.13126 358.2L334.67813 358.2L334.67813 357.15314L338.61563 352.77814Q339.49063 351.79376 339.81876 351.16876Q340.14688 350.54376 340.14688 349.8875Q340.14688 348.9969 339.6 348.4344Q339.06876 347.85626 338.17813 347.85626Q337.1 347.85626 336.49063 348.46564Q335.89688 349.075 335.89688 350.16876L334.45938 350.16876Q334.45938 348.60626 335.45938 347.6375Q336.475 346.66876 338.17813 346.66876Q339.75626 346.66876 340.67813 347.4969Q341.6 348.325 341.6 349.71564Q341.6 351.3875 339.45938 353.71564L336.4125 357.0125L342.13126 357.0125L342.13126 358.2Z" fill-rule="nonzero"/><path fill="#efefef" d="M373.68124 358.2L366.22812 358.2L366.22812 357.15314L370.16562 352.77814Q371.04062 351.79376 371.36874 351.16876Q371.69687 350.54376 371.69687 349.8875Q371.69687 348.9969 371.15 348.4344Q370.61874 347.85626 369.72812 347.85626Q368.65 347.85626 368.04062 348.46564Q367.44687 349.075 367.44687 350.16876L366.00937 350.16876Q366.00937 348.60626 367.00937 347.6375Q368.025 346.66876 369.72812 346.66876Q371.30624 346.66876 372.22812 347.4969Q373.15 348.325 373.15 349.71564Q373.15 351.3875 371.00937 353.71564L367.9625 357.0125L373.68124 357.0125L373.68124 358.2ZM382.35312 353.34064Q382.35312 355.8875 381.47812 357.1219Q380.61874 358.35626 378.775 358.35626Q376.9625 358.35626 376.0875 357.15314Q375.2125 355.9344 375.18124 353.54376L375.18124 351.60626Q375.18124 349.10626 376.04062 347.8875Q376.91562 346.66876 378.75937 346.66876Q380.60312 346.66876 381.4625 347.84064Q382.3375 349.0125 382.35312 351.46564L382.35312 353.34064ZM380.91562 351.3719Q380.91562 349.52814 380.4 348.7Q379.88437 347.85626 378.75937 347.85626Q377.65 347.85626 377.13437 348.7Q376.63437 349.52814 376.61874 351.2625L376.61874 353.575Q376.61874 355.41876 377.15 356.29376Q377.69687 357.16876 378.775 357.16876Q379.85312 357.16876 380.36874 356.34064Q380.88437 355.5125 380.91562 353.73126L380.91562 351.3719ZM388.97812 358.2L387.525 358.2L387.525 348.5594L384.60312 349.6375L384.60312 348.325L388.74374 346.7625L388.97812 346.7625L388.97812 358.2ZM398.75937 353.2Q398.30624 353.73126 397.68124 354.0594Q397.05624 354.3875 396.30624 354.3875Q395.32187 354.3875 394.5875 353.90314Q393.85312 353.41876 393.44687 352.54376Q393.05624 351.66876 393.05624 350.60626Q393.05624 349.46564 393.49374 348.5594Q393.93124 347.6375 394.72812 347.15314Q395.525 346.66876 396.5875 346.66876Q398.275 346.66876 399.24374 347.9344Q400.2125 349.1844 400.2125 351.3719L400.2125 351.79376Q400.2125 355.10626 398.9 356.6375Q397.5875 358.16876 394.94687 358.21564L394.66562 358.21564L394.66562 356.98126L394.9625 356.98126Q396.75937 356.95 397.7125 356.0594Q398.68124 355.15314 398.75937 353.2ZM396.54062 353.2Q397.25937 353.2 397.86874 352.7625Q398.49374 352.3094 398.775 351.65314L398.775 351.075Q398.775 349.65314 398.15 348.7625Q397.54062 347.8719 396.5875 347.8719Q395.63437 347.8719 395.05624 348.60626Q394.47812 349.325 394.47812 350.52814Q394.47812 351.6844 395.04062 352.45Q395.60312 353.2 396.54062 353.2ZM402.66562 359.1844L401.41562 359.1844L406.16562 346.825L407.4 346.825L402.66562 359.1844ZM411.32187 351.8094L412.41562 351.8094Q413.43124 351.79376 414.00937 351.27814Q414.60312 350.7469 414.60312 349.85626Q414.60312 347.85626 412.61874 347.85626Q411.68124 347.85626 411.11874 348.3875Q410.55624 348.91876 410.55624 349.8094L409.11874 349.8094Q409.11874 348.45 410.10312 347.5594Q411.0875 346.66876 412.61874 346.66876Q414.22812 346.66876 415.13437 347.52814Q416.05624 348.3719 416.05624 349.8875Q416.05624 350.6219 415.57187 351.325Q415.0875 352.0125 414.25937 352.35626Q415.19687 352.65314 415.7125 353.34064Q416.22812 354.02814 416.22812 355.02814Q416.22812 356.5594 415.22812 357.46564Q414.22812 358.35626 412.61874 358.35626Q411.025 358.35626 410.00937 357.4969Q409.00937 356.6219 409.00937 355.2L410.4625 355.2Q410.4625 356.09064 411.04062 356.6375Q411.63437 357.16876 412.61874 357.16876Q413.66562 357.16876 414.2125 356.6219Q414.775 356.075 414.775 355.0594Q414.775 354.0594 414.16562 353.52814Q413.55624 352.9969 412.41562 352.98126L411.32187 352.98126L411.32187 351.8094Z" fill-rule="nonzero"/><path fill="#efefef" d="M448.23126 358.2L440.77814 358.2L440.77814 357.15314L444.71564 352.77814Q445.59064 351.79376 445.91876 351.16876Q446.2469 350.54376 446.2469 349.8875Q446.2469 348.9969 445.7 348.4344Q445.16876 347.85626 444.27814 347.85626Q443.2 347.85626 442.59064 348.46564Q441.9969 349.075 441.9969 350.16876L440.5594 350.16876Q440.5594 348.60626 441.5594 347.6375Q442.575 346.66876 444.27814 346.66876Q445.85626 346.66876 446.77814 347.4969Q447.7 348.325 447.7 349.71564Q447.7 351.3875 445.5594 353.71564L442.5125 357.0125L448.23126 357.0125L448.23126 358.2ZM456.90314 353.34064Q456.90314 355.8875 456.02814 357.1219Q455.16876 358.35626 453.325 358.35626Q451.5125 358.35626 450.6375 357.15314Q449.7625 355.9344 449.73126 353.54376L449.73126 351.60626Q449.73126 349.10626 450.59064 347.8875Q451.46564 346.66876 453.3094 346.66876Q455.15314 346.66876 456.0125 347.84064Q456.8875 349.0125 456.90314 351.46564L456.90314 353.34064ZM455.46564 351.3719Q455.46564 349.52814 454.95 348.7Q454.4344 347.85626 453.3094 347.85626Q452.2 347.85626 451.6844 348.7Q451.1844 349.52814 451.16876 351.2625L451.16876 353.575Q451.16876 355.41876 451.7 356.29376Q452.2469 357.16876 453.325 357.16876Q454.40314 357.16876 454.91876 356.34064Q455.4344 355.5125 455.46564 353.73126L455.46564 351.3719ZM463.52814 358.2L462.075 358.2L462.075 348.5594L459.15314 349.6375L459.15314 348.325L463.29376 346.7625L463.52814 346.7625L463.52814 358.2ZM473.3094 353.2Q472.85626 353.73126 472.23126 354.0594Q471.60626 354.3875 470.85626 354.3875Q469.8719 354.3875 469.1375 353.90314Q468.40314 353.41876 467.9969 352.54376Q467.60626 351.66876 467.60626 350.60626Q467.60626 349.46564 468.04376 348.5594Q468.48126 347.6375 469.27814 347.15314Q470.075 346.66876 471.1375 346.66876Q472.825 346.66876 473.79376 347.9344Q474.7625 349.1844 474.7625 351.3719L474.7625 351.79376Q474.7625 355.10626 473.45 356.6375Q472.1375 358.16876 469.4969 358.21564L469.21564 358.21564L469.21564 356.98126L469.5125 356.98126Q471.3094 356.95 472.2625 356.0594Q473.23126 355.15314 473.3094 353.2ZM471.09064 353.2Q471.8094 353.2 472.41876 352.7625Q473.04376 352.3094 473.325 351.65314L473.325 351.075Q473.325 349.65314 472.7 348.7625Q472.09064 347.8719 471.1375 347.8719Q470.1844 347.8719 469.60626 348.60626Q469.02814 349.325 469.02814 350.52814Q469.02814 351.6844 469.59064 352.45Q470.15314 353.2 471.09064 353.2ZM477.21564 359.1844L475.96564 359.1844L480.71564 346.825L481.95 346.825L477.21564 359.1844ZM489.8719 354.3719L491.45 354.3719L491.45 355.5594L489.8719 355.5594L489.8719 358.2L488.41876 358.2L488.41876 355.5594L483.2469 355.5594L483.2469 354.7L488.34064 346.825L489.8719 346.825L489.8719 354.3719ZM484.8875 354.3719L488.41876 354.3719L488.41876 348.79376L488.2469 349.10626L484.8875 354.3719Z" fill-rule="nonzero"/><path fill="#efefef" d="M522.78125 358.2L515.3281 358.2L515.3281 357.15314L519.2656 352.77814Q520.1406 351.79376 520.46875 351.16876Q520.7969 350.54376 520.7969 349.8875Q520.7969 348.9969 520.25 348.4344Q519.71875 347.85626 518.8281 347.85626Q517.75 347.85626 517.1406 348.46564Q516.5469 349.075 516.5469 350.16876L515.1094 350.16876Q515.1094 348.60626 516.1094 347.6375Q517.125 346.66876 518.8281 346.66876Q520.40625 346.66876 521.3281 347.4969Q522.25 348.325 522.25 349.71564Q522.25 351.3875 520.1094 353.71564L517.0625 357.0125L522.78125 357.0125L522.78125 358.2ZM531.4531 353.34064Q531.4531 355.8875 530.5781 357.1219Q529.71875 358.35626 527.875 358.35626Q526.0625 358.35626 525.1875 357.15314Q524.3125 355.9344 524.28125 353.54376L524.28125 351.60626Q524.28125 349.10626 525.1406 347.8875Q526.0156 346.66876 527.8594 346.66876Q529.7031 346.66876 530.5625 347.84064Q531.4375 349.0125 531.4531 351.46564L531.4531 353.34064ZM530.0156 351.3719Q530.0156 349.52814 529.5 348.7Q528.9844 347.85626 527.8594 347.85626Q526.75 347.85626 526.2344 348.7Q525.7344 349.52814 525.71875 351.2625L525.71875 353.575Q525.71875 355.41876 526.25 356.29376Q526.7969 357.16876 527.875 357.16876Q528.9531 357.16876 529.46875 356.34064Q529.9844 355.5125 530.0156 353.73126L530.0156 351.3719ZM538.0781 358.2L536.625 358.2L536.625 348.5594L533.7031 349.6375L533.7031 348.325L537.84375 346.7625L538.0781 346.7625L538.0781 358.2ZM547.8594 353.2Q547.40625 353.73126 546.78125 354.0594Q546.15625 354.3875 545.40625 354.3875Q544.4219 354.3875 543.6875 353.90314Q542.9531 353.41876 542.5469 352.54376Q542.15625 351.66876 542.15625 350.60626Q542.15625 349.46564 542.59375 348.5594Q543.03125 347.6375 543.8281 347.15314Q544.625 346.66876 545.6875 346.66876Q547.375 346.66876 548.34375 347.9344Q549.3125 349.1844 549.3125 351.3719L549.3125 351.79376Q549.3125 355.10626 548.0 356.6375Q546.6875 358.16876 544.0469 358.21564L543.7656 358.21564L543.7656 356.98126L544.0625 356.98126Q545.8594 356.95 546.8125 356.0594Q547.78125 355.15314 547.8594 353.2ZM545.6406 353.2Q546.3594 353.2 546.96875 352.7625Q547.59375 352.3094 547.875 351.65314L547.875 351.075Q547.875 349.65314 547.25 348.7625Q546.6406 347.8719 545.6875 347.8719Q544.7344 347.8719 544.15625 348.60626Q543.5781 349.325 543.5781 350.52814Q543.5781 351.6844 544.1406 352.45Q544.7031 353.2 545.6406 353.2ZM551.7656 359.1844L550.5156 359.1844L555.2656 346.825L556.5 346.825L551.7656 359.1844ZM558.9844 352.4969L559.5625 346.825L565.3906 346.825L565.3906 348.15314L560.7969 348.15314L560.4531 351.2625Q561.28125 350.7625 562.34375 350.7625Q563.90625 350.7625 564.8125 351.79376Q565.7344 352.825 565.7344 354.575Q565.7344 356.325 564.78125 357.34064Q563.8281 358.35626 562.125 358.35626Q560.625 358.35626 559.6719 357.52814Q558.71875 356.6844 558.5781 355.2L559.9531 355.2Q560.0781 356.1844 560.6406 356.6844Q561.2031 357.16876 562.125 357.16876Q563.1406 357.16876 563.7031 356.48126Q564.28125 355.79376 564.28125 354.59064Q564.28125 353.45 563.65625 352.7625Q563.0469 352.0594 562.0156 352.0594Q561.0625 352.0594 560.53125 352.48126L560.1406 352.79376L558.9844 352.4969Z" fill-rule="nonzero"/><path fill="#efefef" d="M597.33124 358.2L589.8781 358.2L589.8781 357.15314L593.8156 352.77814Q594.6906 351.79376 595.01874 351.16876Q595.34686 350.54376 595.34686 349.8875Q595.34686 348.9969 594.8 348.4344Q594.26874 347.85626 593.3781 347.85626Q592.3 347.85626 591.6906 348.46564Q591.09686 349.075 591.09686 350.16876L589.65936 350.16876Q589.65936 348.60626 590.65936 347.6375Q591.675 346.66876 593.3781 346.66876Q594.95624 346.66876 595.8781 347.4969Q596.8 348.325 596.8 349.71564Q596.8 351.3875 594.65936 353.71564L591.6125 357.0125L597.33124 357.0125L597.33124 358.2ZM606.0031 353.34064Q606.0031 355.8875 605.1281 357.1219Q604.26874 358.35626 602.425 358.35626Q600.6125 358.35626 599.7375 357.15314Q598.8625 355.9344 598.83124 353.54376L598.83124 351.60626Q598.83124 349.10626 599.6906 347.8875Q600.5656 346.66876 602.40936 346.66876Q604.2531 346.66876 605.1125 347.84064Q605.9875 349.0125 606.0031 351.46564L606.0031 353.34064ZM604.5656 351.3719Q604.5656 349.52814 604.05 348.7Q603.53436 347.85626 602.40936 347.85626Q601.3 347.85626 600.78436 348.7Q600.28436 349.52814 600.26874 351.2625L600.26874 353.575Q600.26874 355.41876 600.8 356.29376Q601.34686 357.16876 602.425 357.16876Q603.5031 357.16876 604.01874 356.34064Q604.53436 355.5125 604.5656 353.73126L604.5656 351.3719ZM612.6281 358.2L611.175 358.2L611.175 348.5594L608.2531 349.6375L608.2531 348.325L612.39374 346.7625L612.6281 346.7625L612.6281 358.2ZM622.40936 353.2Q621.95624 353.73126 621.33124 354.0594Q620.70624 354.3875 619.95624 354.3875Q618.97186 354.3875 618.2375 353.90314Q617.5031 353.41876 617.09686 352.54376Q616.70624 351.66876 616.70624 350.60626Q616.70624 349.46564 617.14374 348.5594Q617.58124 347.6375 618.3781 347.15314Q619.175 346.66876 620.2375 346.66876Q621.925 346.66876 622.89374 347.9344Q623.8625 349.1844 623.8625 351.3719L623.8625 351.79376Q623.8625 355.10626 622.55 356.6375Q621.2375 358.16876 618.59686 358.21564L618.3156 358.21564L618.3156 356.98126L618.6125 356.98126Q620.40936 356.95 621.3625 356.0594Q622.33124 355.15314 622.40936 353.2ZM620.1906 353.2Q620.90936 353.2 621.51874 352.7625Q622.14374 352.3094 622.425 351.65314L622.425 351.075Q622.425 349.65314 621.8 348.7625Q621.1906 347.8719 620.2375 347.8719Q619.28436 347.8719 618.70624 348.60626Q618.1281 349.325 618.1281 350.52814Q618.1281 351.6844 618.6906 352.45Q619.2531 353.2 620.1906 353.2ZM626.3156 359.1844L625.0656 359.1844L629.8156 346.825L631.05 346.825L626.3156 359.1844ZM638.55 346.8094L638.55 348.04376L638.28436 348.04376Q636.59686 348.075 635.59686 349.04376Q634.59686 350.0125 634.4406 351.7625Q635.33124 350.73126 636.89374 350.73126Q638.3781 350.73126 639.2531 351.77814Q640.14374 352.825 640.14374 354.48126Q640.14374 356.2469 639.1906 357.3094Q638.2375 358.35626 636.6281 358.35626Q634.9875 358.35626 633.97186 357.10626Q632.95624 355.84064 632.95624 353.8719L632.95624 353.3094Q632.95624 350.16876 634.3 348.5125Q635.64374 346.85626 638.28436 346.8094L638.55 346.8094ZM636.64374 351.9344Q635.90936 351.9344 635.28436 352.3875Q634.65936 352.825 634.40936 353.4969L634.40936 354.02814Q634.40936 355.4344 635.03436 356.29376Q635.675 357.15314 636.6281 357.15314Q637.59686 357.15314 638.15936 356.4344Q638.72186 355.71564 638.72186 354.5594Q638.72186 353.3875 638.14374 352.66876Q637.58124 351.9344 636.64374 351.9344Z" fill-rule="nonzero"/><path fill="#4285f4" d="M223.0 73.166664C223.0 76.48038 220.3137 79.166664 217.0 79.166664C213.6863 79.166664 211.0 76.48038 211.0 73.166664C211.0 69.85296 213.6863 67.166664 217.0 67.166664C220.3137 67.166664 223.0 69.85296 223.0 73.166664Z" fill-rule="nonzero"/><path fill="#f3f3f3" d="M241.0625 78.666664L239.5625 78.666664L233.82812 69.90104L233.82812 78.666664L232.32812 78.666664L232.32812 67.291664L233.82812 67.291664L239.57812 76.08854L239.57812 67.291664L241.0625 67.291664L241.0625 78.666664ZM246.60938 78.822914Q244.89062 78.822914 243.8125 77.697914Q242.73438 76.55729 242.73438 74.666664L242.73438 74.40104Q242.73438 73.15104 243.20312 72.166664Q243.6875 71.166664 244.54688 70.61979Q245.42188 70.05729 246.42188 70.05729Q248.07812 70.05729 248.98438 71.15104Q249.90625 72.229164 249.90625 74.24479L249.90625 74.854164L244.17188 74.854164Q244.20312 76.104164 244.90625 76.86979Q245.60938 77.635414 246.6875 77.635414Q247.45312 77.635414 247.98438 77.322914Q248.51562 77.010414 248.90625 76.49479L249.79688 77.18229Q248.73438 78.822914 246.60938 78.822914ZM246.42188 71.24479Q245.54688 71.24479 244.95312 71.885414Q244.35938 72.510414 244.21875 73.666664L248.45312 73.666664L248.45312 73.55729Q248.39062 72.447914 247.85938 71.854164Q247.32812 71.24479 246.42188 71.24479ZM258.57812 76.666664L260.20312 70.21354L261.65625 70.21354L259.1875 78.666664L258.01562 78.666664L255.96875 72.260414L253.96875 78.666664L252.79688 78.666664L250.34375 70.21354L251.78125 70.21354L253.4375 76.541664L255.40625 70.21354L256.57812 70.21354L258.57812 76.666664ZM275.1875 68.52604L271.53125 68.52604L271.53125 78.666664L270.03125 78.666664L270.03125 68.52604L266.39062 68.52604L266.39062 67.291664L275.1875 67.291664L275.1875 68.52604ZM276.71875 74.354164Q276.71875 73.11979 277.20312 72.135414Q277.6875 71.135414 278.5625 70.604164Q279.4375 70.05729 280.54688 70.05729Q282.28125 70.05729 283.34375 71.260414Q284.40625 72.447914 284.40625 74.43229L284.40625 74.52604Q284.40625 75.760414 283.9375 76.74479Q283.46875 77.729164 282.57812 78.27604Q281.70312 78.822914 280.5625 78.822914Q278.84375 78.822914 277.78125 77.635414Q276.71875 76.43229 276.71875 74.46354L276.71875 74.354164ZM278.17188 74.52604Q278.17188 75.93229 278.8125 76.791664Q279.46875 77.635414 280.5625 77.635414Q281.67188 77.635414 282.3125 76.77604Q282.96875 75.916664 282.96875 74.354164Q282.96875 72.96354 282.29688 72.104164Q281.64062 71.24479 280.54688 71.24479Q279.48438 71.24479 278.82812 72.104164Q278.17188 72.947914 278.17188 74.52604ZM293.23438 74.52604Q293.23438 76.46354 292.34375 77.65104Q291.46875 78.822914 289.96875 78.822914Q288.42188 78.822914 287.54688 77.83854L287.54688 81.916664L286.09375 81.916664L286.09375 70.21354L287.42188 70.21354L287.48438 71.15104Q288.375 70.05729 289.9375 70.05729Q291.46875 70.05729 292.34375 71.21354Q293.23438 72.354164 293.23438 74.40104L293.23438 74.52604ZM291.79688 74.36979Q291.79688 72.93229 291.1875 72.104164Q290.57812 71.27604 289.51562 71.27604Q288.20312 71.27604 287.54688 72.447914L287.54688 76.479164Q288.1875 77.635414 289.53125 77.635414Q290.5625 77.635414 291.17188 76.822914Q291.79688 75.99479 291.79688 74.36979ZM296.67188 78.666664L295.21875 78.666664L295.21875 70.21354L296.67188 70.21354L296.67188 78.666664ZM295.10938 67.96354Q295.10938 67.61979 295.3125 67.385414Q295.53125 67.135414 295.95312 67.135414Q296.375 67.135414 296.59375 67.385414Q296.8125 67.61979 296.8125 67.979164Q296.8125 68.322914 296.59375 68.55729Q296.375 68.791664 295.95312 68.791664Q295.53125 68.791664 295.3125 68.55729Q295.10938 68.322914 295.10938 67.96354ZM302.48438 77.635414Q303.26562 77.635414 303.84375 77.166664Q304.42188 76.697914 304.48438 75.99479L305.84375 75.99479Q305.8125 76.729164 305.34375 77.385414Q304.89062 78.041664 304.10938 78.43229Q303.34375 78.822914 302.48438 78.822914Q300.76562 78.822914 299.73438 77.666664Q298.71875 76.510414 298.71875 74.510414L298.71875 74.27604Q298.71875 73.041664 299.17188 72.08854Q299.625 71.11979 300.46875 70.58854Q301.32812 70.05729 302.48438 70.05729Q303.90625 70.05729 304.84375 70.916664Q305.78125 71.760414 305.84375 73.11979L304.48438 73.11979Q304.42188 72.291664 303.85938 71.77604Q303.29688 71.24479 302.48438 71.24479Q301.375 71.24479 300.76562 72.041664Q300.17188 72.822914 300.17188 74.322914L300.17188 74.604164Q300.17188 76.05729 300.76562 76.854164Q301.375 77.635414 302.48438 77.635414ZM312.01562 76.416664Q312.01562 75.83854 311.57812 75.510414Q311.14062 75.18229 310.03125 74.947914Q308.9375 74.71354 308.29688 74.385414Q307.65625 74.05729 307.34375 73.604164Q307.03125 73.15104 307.03125 72.52604Q307.03125 71.49479 307.90625 70.77604Q308.79688 70.05729 310.15625 70.05729Q311.59375 70.05729 312.48438 70.80729Q313.39062 71.541664 313.39062 72.697914L311.9375 72.697914Q311.9375 72.104164 311.42188 71.68229Q310.92188 71.24479 310.15625 71.24479Q309.375 71.24479 308.92188 71.58854Q308.48438 71.93229 308.48438 72.479164Q308.48438 73.010414 308.89062 73.27604Q309.3125 73.541664 310.39062 73.791664Q311.46875 74.02604 312.14062 74.36979Q312.8125 74.697914 313.14062 75.166664Q313.46875 75.635414 313.46875 76.322914Q313.46875 77.447914 312.5625 78.135414Q311.65625 78.822914 310.20312 78.822914Q309.1875 78.822914 308.40625 78.46354Q307.625 78.104164 307.1875 77.46354Q306.75 76.80729 306.75 76.05729L308.1875 76.05729Q308.23438 76.791664 308.76562 77.21354Q309.3125 77.635414 310.20312 77.635414Q311.03125 77.635414 311.51562 77.30729Q312.01562 76.979164 312.01562 76.416664Z" fill-rule="nonzero"/><path fill="#93c47d" d="M342.0 73.166664C342.0 76.48038 339.31372 79.166664 336.0 79.166664C332.68628 79.166664 330.0 76.48038 330.0 73.166664C330.0 69.85296 332.68628 67.166664 336.0 67.166664C339.31372 67.166664 342.0 69.85296 342.0 73.166664Z" fill-rule="nonzero"/><path fill="#f3f3f3" d="M360.0625 78.666664L358.5625 78.666664L352.82812 69.90104L352.82812 78.666664L351.32812 78.666664L351.32812 67.291664L352.82812 67.291664L358.57812 76.08854L358.57812 67.291664L360.0625 67.291664L360.0625 78.666664ZM365.60938 78.822914Q363.89062 78.822914 362.8125 77.697914Q361.73438 76.55729 361.73438 74.666664L361.73438 74.40104Q361.73438 73.15104 362.20312 72.166664Q362.6875 71.166664 363.54688 70.61979Q364.42188 70.05729 365.42188 70.05729Q367.07812 70.05729 367.98438 71.15104Q368.90625 72.229164 368.90625 74.24479L368.90625 74.854164L363.17188 74.854164Q363.20312 76.104164 363.90625 76.86979Q364.60938 77.635414 365.6875 77.635414Q366.45312 77.635414 366.98438 77.322914Q367.51562 77.010414 367.90625 76.49479L368.79688 77.18229Q367.73438 78.822914 365.60938 78.822914ZM365.42188 71.24479Q364.54688 71.24479 363.95312 71.885414Q363.35938 72.510414 363.21875 73.666664L367.45312 73.666664L367.45312 73.55729Q367.39062 72.447914 366.85938 71.854164Q366.32812 71.24479 365.42188 71.24479ZM377.57812 76.666664L379.20312 70.21354L380.65625 70.21354L378.1875 78.666664L377.01562 78.666664L374.96875 72.260414L372.96875 78.666664L371.79688 78.666664L369.34375 70.21354L370.78125 70.21354L372.4375 76.541664L374.40625 70.21354L375.57812 70.21354L377.57812 76.666664ZM390.5 74.05729L387.82812 74.05729L387.82812 78.666664L386.3125 78.666664L386.3125 67.291664L390.07812 67.291664Q392.0 67.291664 393.03125 68.166664Q394.07812 69.041664 394.07812 70.71354Q394.07812 71.77604 393.5 72.572914Q392.92188 73.354164 391.90625 73.74479L394.57812 78.572914L394.57812 78.666664L392.96875 78.666664L390.5 74.05729ZM387.82812 72.83854L390.125 72.83854Q391.25 72.83854 391.90625 72.260414Q392.5625 71.68229 392.5625 70.71354Q392.5625 69.65104 391.9375 69.08854Q391.3125 68.52604 390.125 68.52604L387.82812 68.52604L387.82812 72.83854ZM399.60938 78.822914Q397.89062 78.822914 396.8125 77.697914Q395.73438 76.55729 395.73438 74.666664L395.73438 74.40104Q395.73438 73.15104 396.20312 72.166664Q396.6875 71.166664 397.54688 70.61979Q398.42188 70.05729 399.42188 70.05729Q401.07812 70.05729 401.98438 71.15104Q402.90625 72.229164 402.90625 74.24479L402.90625 74.854164L397.17188 74.854164Q397.20312 76.104164 397.90625 76.86979Q398.60938 77.635414 399.6875 77.635414Q400.45312 77.635414 400.98438 77.322914Q401.51562 77.010414 401.90625 76.49479L402.79688 77.18229Q401.73438 78.822914 399.60938 78.822914ZM399.42188 71.24479Q398.54688 71.24479 397.95312 71.885414Q397.35938 72.510414 397.21875 73.666664L401.45312 73.666664L401.45312 73.55729Q401.39062 72.447914 400.85938 71.854164Q400.32812 71.24479 399.42188 71.24479ZM409.01562 76.416664Q409.01562 75.83854 408.57812 75.510414Q408.14062 75.18229 407.03125 74.947914Q405.9375 74.71354 405.29688 74.385414Q404.65625 74.05729 404.34375 73.604164Q404.03125 73.15104 404.03125 72.52604Q404.03125 71.49479 404.90625 70.77604Q405.79688 70.05729 407.15625 70.05729Q408.59375 70.05729 409.48438 70.80729Q410.39062 71.541664 410.39062 72.697914L408.9375 72.697914Q408.9375 72.104164 408.42188 71.68229Q407.92188 71.24479 407.15625 71.24479Q406.375 71.24479 405.92188 71.58854Q405.48438 71.93229 405.48438 72.479164Q405.48438 73.010414 405.89062 73.27604Q406.3125 73.541664 407.39062 73.791664Q408.46875 74.02604 409.14062 74.36979Q409.8125 74.697914 410.14062 75.166664Q410.46875 75.635414 410.46875 76.322914Q410.46875 77.447914 409.5625 78.135414Q408.65625 78.822914 407.20312 78.822914Q406.1875 78.822914 405.40625 78.46354Q404.625 78.104164 404.1875 77.46354Q403.75 76.80729 403.75 76.05729L405.1875 76.05729Q405.23438 76.791664 405.76562 77.21354Q406.3125 77.635414 407.20312 77.635414Q408.03125 77.635414 408.51562 77.30729Q409.01562 76.979164 409.01562 76.416664ZM419.23438 74.52604Q419.23438 76.46354 418.34375 77.65104Q417.46875 78.822914 415.96875 78.822914Q414.42188 78.822914 413.54688 77.83854L413.54688 81.916664L412.09375 81.916664L412.09375 70.21354L413.42188 70.21354L413.48438 71.15104Q414.375 70.05729 415.9375 70.05729Q417.46875 70.05729 418.34375 71.21354Q419.23438 72.354164 419.23438 74.40104L419.23438 74.52604ZM417.79688 74.36979Q417.79688 72.93229 417.1875 72.104164Q416.57812 71.27604 415.51562 71.27604Q414.20312 71.27604 413.54688 72.447914L413.54688 76.479164Q414.1875 77.635414 415.53125 77.635414Q416.5625 77.635414 417.17188 76.822914Q417.79688 75.99479 417.79688 74.36979ZM420.71875 74.354164Q420.71875 73.11979 421.20312 72.135414Q421.6875 71.135414 422.5625 70.604164Q423.4375 70.05729 424.54688 70.05729Q426.28125 70.05729 427.34375 71.260414Q428.40625 72.447914 428.40625 74.43229L428.40625 74.52604Q428.40625 75.760414 427.9375 76.74479Q427.46875 77.729164 426.57812 78.27604Q425.70312 78.822914 424.5625 78.822914Q422.84375 78.822914 421.78125 77.635414Q420.71875 76.43229 420.71875 74.46354L420.71875 74.354164ZM422.17188 74.52604Q422.17188 75.93229 422.8125 76.791664Q423.46875 77.635414 424.5625 77.635414Q425.67188 77.635414 426.3125 76.77604Q426.96875 75.916664 426.96875 74.354164Q426.96875 72.96354 426.29688 72.104164Q425.64062 71.24479 424.54688 71.24479Q423.48438 71.24479 422.82812 72.104164Q422.17188 72.947914 422.17188 74.52604ZM431.46875 70.21354L431.51562 71.27604Q432.48438 70.05729 434.04688 70.05729Q436.71875 70.05729 436.75 73.072914L436.75 78.666664L435.29688 78.666664L435.29688 73.072914Q435.29688 72.15104 434.875 71.71354Q434.46875 71.27604 433.60938 71.27604Q432.90625 71.27604 432.375 71.65104Q431.84375 72.02604 431.54688 72.635414L431.54688 78.666664L430.09375 78.666664L430.09375 70.21354L431.46875 70.21354ZM444.01562 76.416664Q444.01562 75.83854 443.57812 75.510414Q443.14062 75.18229 442.03125 74.947914Q440.9375 74.71354 440.29688 74.385414Q439.65625 74.05729 439.34375 73.604164Q439.03125 73.15104 439.03125 72.52604Q439.03125 71.49479 439.90625 70.77604Q440.79688 70.05729 442.15625 70.05729Q443.59375 70.05729 444.48438 70.80729Q445.39062 71.541664 445.39062 72.697914L443.9375 72.697914Q443.9375 72.104164 443.42188 71.68229Q442.92188 71.24479 442.15625 71.24479Q441.375 71.24479 440.92188 71.58854Q440.48438 71.93229 440.48438 72.479164Q440.48438 73.010414 440.89062 73.27604Q441.3125 73.541664 442.39062 73.791664Q443.46875 74.02604 444.14062 74.36979Q444.8125 74.697914 445.14062 75.166664Q445.46875 75.635414 445.46875 76.322914Q445.46875 77.447914 444.5625 78.135414Q443.65625 78.822914 442.20312 78.822914Q441.1875 78.822914 440.40625 78.46354Q439.625 78.104164 439.1875 77.46354Q438.75 76.80729 438.75 76.05729L440.1875 76.05729Q440.23438 76.791664 440.76562 77.21354Q441.3125 77.635414 442.20312 77.635414Q443.03125 77.635414 443.51562 77.30729Q444.01562 76.979164 444.01562 76.416664ZM450.60938 78.822914Q448.89062 78.822914 447.8125 77.697914Q446.73438 76.55729 446.73438 74.666664L446.73438 74.40104Q446.73438 73.15104 447.20312 72.166664Q447.6875 71.166664 448.54688 70.61979Q449.42188 70.05729 450.42188 70.05729Q452.07812 70.05729 452.98438 71.15104Q453.90625 72.229164 453.90625 74.24479L453.90625 74.854164L448.17188 74.854164Q448.20312 76.104164 448.90625 76.86979Q449.60938 77.635414 450.6875 77.635414Q451.45312 77.635414 451.98438 77.322914Q452.51562 77.010414 452.90625 76.49479L453.79688 77.18229Q452.73438 78.822914 450.60938 78.822914ZM450.42188 71.24479Q449.54688 71.24479 448.95312 71.885414Q448.35938 72.510414 448.21875 73.666664L452.45312 73.666664L452.45312 73.55729Q452.39062 72.447914 451.85938 71.854164Q451.32812 71.24479 450.42188 71.24479ZM460.01562 76.416664Q460.01562 75.83854 459.57812 75.510414Q459.14062 75.18229 458.03125 74.947914Q456.9375 74.71354 456.29688 74.385414Q455.65625 74.05729 455.34375 73.604164Q455.03125 73.15104 455.03125 72.52604Q455.03125 71.49479 455.90625 70.77604Q456.79688 70.05729 458.15625 70.05729Q459.59375 70.05729 460.48438 70.80729Q461.39062 71.541664 461.39062 72.697914L459.9375 72.697914Q459.9375 72.104164 459.42188 71.68229Q458.92188 71.24479 458.15625 71.24479Q457.375 71.24479 456.92188 71.58854Q456.48438 71.93229 456.48438 72.479164Q456.48438 73.010414 456.89062 73.27604Q457.3125 73.541664 458.39062 73.791664Q459.46875 74.02604 460.14062 74.36979Q460.8125 74.697914 461.14062 75.166664Q461.46875 75.635414 461.46875 76.322914Q461.46875 77.447914 460.5625 78.135414Q459.65625 78.822914 458.20312 78.822914Q457.1875 78.822914 456.40625 78.46354Q455.625 78.104164 455.1875 77.46354Q454.75 76.80729 454.75 76.05729L456.1875 76.05729Q456.23438 76.791664 456.76562 77.21354Q457.3125 77.635414 458.20312 77.635414Q459.03125 77.635414 459.51562 77.30729Q460.01562 76.979164 460.01562 76.416664Z" fill-rule="nonzero"/><path fill="#efefef" d="M77.078125 41.565624Q76.21875 42.8 74.65625 43.425Q73.109375 44.034374 71.046875 44.034374Q68.953125 44.034374 67.328125 43.065624Q65.71875 42.08125 64.828125 40.284374Q63.953125 38.471874 63.9375 36.08125L63.9375 34.596874Q63.9375 30.7375 65.734375 28.628124Q67.53125 26.503124 70.78125 26.503124Q73.453125 26.503124 75.078125 27.878124Q76.71875 29.2375 77.078125 31.7375L74.828125 31.7375Q74.203125 28.346874 70.796875 28.346874Q68.53125 28.346874 67.359375 29.940624Q66.203125 31.534374 66.1875 34.534374L66.1875 35.940624Q66.1875 38.8 67.5 40.503124Q68.8125 42.190624 71.0625 42.190624Q72.328125 42.190624 73.265625 41.909374Q74.21875 41.628124 74.84375 40.95625L74.84375 37.128124L70.890625 37.128124L70.890625 35.3L77.078125 35.3L77.078125 41.565624ZM87.96875 43.8Q87.78125 43.425 87.671875 42.45625Q86.15625 44.034374 84.0625 44.034374Q82.1875 44.034374 80.984375 42.971874Q79.78125 41.909374 79.78125 40.284374Q79.78125 38.3 81.28125 37.20625Q82.796875 36.1125 85.515625 36.1125L87.625 36.1125L87.625 35.1125Q87.625 33.971874 86.9375 33.3Q86.265625 32.628124 84.953125 32.628124Q83.78125 32.628124 83.0 33.221874Q82.21875 33.8 82.21875 34.628124L80.03125 34.628124Q80.03125 33.690624 80.703125 32.8Q81.390625 31.909374 82.53125 31.39375Q83.6875 30.878124 85.078125 30.878124Q87.265625 30.878124 88.5 31.9875Q89.75 33.08125 89.796875 35.003124L89.796875 40.83125Q89.796875 42.58125 90.25 43.6125L90.25 43.8L87.96875 43.8ZM84.375 42.14375Q85.390625 42.14375 86.296875 41.628124Q87.21875 41.096874 87.625 40.253124L87.625 37.64375L85.9375 37.64375Q81.953125 37.64375 81.953125 39.971874Q81.953125 41.003124 82.625 41.58125Q83.3125 42.14375 84.375 42.14375ZM95.5 43.8L93.328125 43.8L93.328125 25.8L95.5 25.8L95.5 43.8ZM106.96875 43.8Q106.78125 43.425 106.671875 42.45625Q105.15625 44.034374 103.0625 44.034374Q101.1875 44.034374 99.984375 42.971874Q98.78125 41.909374 98.78125 40.284374Q98.78125 38.3 100.28125 37.20625Q101.796875 36.1125 104.515625 36.1125L106.625 36.1125L106.625 35.1125Q106.625 33.971874 105.9375 33.3Q105.265625 32.628124 103.953125 32.628124Q102.78125 32.628124 102.0 33.221874Q101.21875 33.8 101.21875 34.628124L99.03125 34.628124Q99.03125 33.690624 99.703125 32.8Q100.390625 31.909374 101.53125 31.39375Q102.6875 30.878124 104.078125 30.878124Q106.265625 30.878124 107.5 31.9875Q108.75 33.08125 108.796875 35.003124L108.796875 40.83125Q108.796875 42.58125 109.25 43.6125L109.25 43.8L106.96875 43.8ZM103.375 42.14375Q104.390625 42.14375 105.296875 41.628124Q106.21875 41.096874 106.625 40.253124L106.625 37.64375L104.9375 37.64375Q100.953125 37.64375 100.953125 39.971874Q100.953125 41.003124 101.625 41.58125Q102.3125 42.14375 103.375 42.14375ZM116.390625 35.753124L119.203125 31.1125L121.734375 31.1125L117.59375 37.39375L121.875 43.8L119.359375 43.8L116.4375 39.05L113.5 43.8L110.984375 43.8L115.265625 37.39375L111.109375 31.1125L113.625 31.1125L116.390625 35.753124ZM128.29688 40.628124L131.25 31.1125L133.5625 31.1125L128.46875 45.753124Q127.28125 48.925 124.703125 48.925L124.296875 48.89375L123.484375 48.7375L123.484375 46.971874L124.078125 47.01875Q125.171875 47.01875 125.78125 46.565624Q126.40625 46.128124 126.796875 44.95625L127.28125 43.659374L122.765625 31.1125L125.125 31.1125L128.29688 40.628124ZM154.59375 43.8L152.32812 43.8L152.32812 35.909374L143.73438 35.909374L143.73438 43.8L141.48438 43.8L141.48438 26.7375L143.73438 26.7375L143.73438 34.065624L152.32812 34.065624L152.32812 26.7375L154.59375 26.7375L154.59375 43.8ZM163.40625 44.034374Q160.82812 44.034374 159.20312 42.346874Q157.59375 40.64375 157.59375 37.815624L157.59375 37.409374Q157.59375 35.51875 158.3125 34.05Q159.03125 32.565624 160.32812 31.721874Q161.625 30.878124 163.14062 30.878124Q165.60938 30.878124 166.96875 32.51875Q168.34375 34.14375 168.34375 37.175L168.34375 38.08125L159.76562 38.08125Q159.8125 39.95625 160.85938 41.1125Q161.90625 42.26875 163.51562 42.26875Q164.67188 42.26875 165.46875 41.8Q166.26562 41.33125 166.85938 40.55L168.1875 41.58125Q166.59375 44.034374 163.40625 44.034374ZM163.14062 32.659374Q161.82812 32.659374 160.9375 33.628124Q160.04688 34.58125 159.82812 36.3L166.1875 36.3L166.1875 36.128124Q166.09375 34.4875 165.29688 33.58125Q164.5 32.659374 163.14062 32.659374ZM173.5 43.8L171.32812 43.8L171.32812 25.8L173.5 25.8L173.5 43.8ZM187.85938 37.596874Q187.85938 40.4875 186.53125 42.26875Q185.20312 44.034374 182.9375 44.034374Q180.64062 44.034374 179.3125 42.565624L179.3125 48.675L177.14062 48.675L177.14062 31.1125L179.125 31.1125L179.23438 32.51875Q180.54688 30.878124 182.90625 30.878124Q185.1875 30.878124 186.51562 32.6125Q187.85938 34.33125 187.85938 37.39375L187.85938 37.596874ZM185.6875 37.346874Q185.6875 35.20625 184.76562 33.971874Q183.85938 32.721874 182.26562 32.721874Q180.29688 32.721874 179.3125 34.471874L179.3125 40.534374Q180.28125 42.26875 182.28125 42.26875Q183.84375 42.26875 184.76562 41.034374Q185.6875 39.784374 185.6875 37.346874ZM190.1875 42.659374Q190.1875 42.096874 190.51562 41.721874Q190.85938 41.346874 191.51562 41.346874Q192.1875 41.346874 192.53125 41.721874Q192.89062 42.096874 192.89062 42.659374Q192.89062 43.20625 192.53125 43.565624Q192.1875 43.925 191.51562 43.925Q190.85938 43.925 190.51562 43.565624Q190.1875 43.20625 190.1875 42.659374ZM190.1875 32.659374Q190.1875 32.096874 190.51562 31.721874Q190.85938 31.346874 191.51562 31.346874Q192.1875 31.346874 192.53125 31.721874Q192.89062 32.096874 192.89062 32.659374Q192.89062 33.20625 192.53125 33.565624Q192.1875 33.925 191.51562 33.925Q190.85938 33.925 190.51562 33.565624Q190.1875 33.20625 190.1875 32.659374ZM215.59375 43.8L213.32812 43.8L204.75 30.64375L204.75 43.8L202.48438 43.8L202.48438 26.7375L204.75 26.7375L213.35938 39.940624L213.35938 26.7375L215.59375 26.7375L215.59375 43.8ZM224.40625 44.034374Q221.82812 44.034374 220.20312 42.346874Q218.59375 40.64375 218.59375 37.815624L218.59375 37.409374Q218.59375 35.51875 219.3125 34.05Q220.03125 32.565624 221.32812 31.721874Q222.625 30.878124 224.14062 30.878124Q226.60938 30.878124 227.96875 32.51875Q229.34375 34.14375 229.34375 37.175L229.34375 38.08125L220.76562 38.08125Q220.8125 39.95625 221.85938 41.1125Q222.90625 42.26875 224.51562 42.26875Q225.67188 42.26875 226.46875 41.8Q227.26562 41.33125 227.85938 40.55L229.1875 41.58125Q227.59375 44.034374 224.40625 44.034374ZM224.14062 32.659374Q222.82812 32.659374 221.9375 33.628124Q221.04688 34.58125 220.82812 36.3L227.1875 36.3L227.1875 36.128124Q227.09375 34.4875 226.29688 33.58125Q225.5 32.659374 224.14062 32.659374ZM243.375 40.815624L245.8125 31.1125L247.96875 31.1125L244.28125 43.8L242.53125 43.8L239.4375 34.190624L236.4375 43.8L234.6875 43.8L231.0 31.1125L233.15625 31.1125L235.65625 40.6125L238.60938 31.1125L240.35938 31.1125L243.375 40.815624ZM268.26562 28.58125L262.78125 28.58125L262.78125 43.8L260.54688 43.8L260.54688 28.58125L255.07812 28.58125L255.07812 26.7375L268.26562 26.7375L268.26562 28.58125ZM269.5625 37.346874Q269.5625 35.471874 270.29688 33.9875Q271.03125 32.503124 272.32812 31.690624Q273.64062 30.878124 275.32812 30.878124Q277.90625 30.878124 279.5 32.675Q281.10938 34.471874 281.10938 37.440624L281.10938 37.596874Q281.10938 39.45625 280.39062 40.925Q279.6875 42.39375 278.375 43.221874Q277.0625 44.034374 275.34375 44.034374Q272.76562 44.034374 271.15625 42.2375Q269.5625 40.440624 269.5625 37.4875L269.5625 37.346874ZM271.75 37.596874Q271.75 39.70625 272.71875 40.9875Q273.70312 42.26875 275.34375 42.26875Q277.0 42.26875 277.96875 40.971874Q278.9375 39.675 278.9375 37.346874Q278.9375 35.253124 277.95312 33.95625Q276.96875 32.659374 275.32812 32.659374Q273.71875 32.659374 272.73438 33.940624Q271.75 35.221874 271.75 37.596874ZM294.85938 37.596874Q294.85938 40.4875 293.53125 42.26875Q292.20312 44.034374 289.9375 44.034374Q287.64062 44.034374 286.3125 42.565624L286.3125 48.675L284.14062 48.675L284.14062 31.1125L286.125 31.1125L286.23438 32.51875Q287.54688 30.878124 289.90625 30.878124Q292.1875 30.878124 293.51562 32.6125Q294.85938 34.33125 294.85938 37.39375L294.85938 37.596874ZM292.6875 37.346874Q292.6875 35.20625 291.76562 33.971874Q290.85938 32.721874 289.26562 32.721874Q287.29688 32.721874 286.3125 34.471874L286.3125 40.534374Q287.28125 42.26875 289.28125 42.26875Q290.84375 42.26875 291.76562 41.034374Q292.6875 39.784374 292.6875 37.346874ZM299.5 43.8L297.32812 43.8L297.32812 31.1125L299.5 31.1125L299.5 43.8ZM297.15625 27.753124Q297.15625 27.221874 297.46875 26.8625Q297.79688 26.503124 298.42188 26.503124Q299.0625 26.503124 299.39062 26.8625Q299.71875 27.221874 299.71875 27.753124Q299.71875 28.284374 299.39062 28.64375Q299.0625 28.9875 298.42188 28.9875Q297.79688 28.9875 297.46875 28.64375Q297.15625 28.284374 297.15625 27.753124ZM308.23438 42.26875Q309.39062 42.26875 310.25 41.565624Q311.125 40.8625 311.21875 39.8L313.26562 39.8Q313.20312 40.89375 312.51562 41.878124Q311.82812 42.8625 310.67188 43.45625Q309.51562 44.034374 308.23438 44.034374Q305.64062 44.034374 304.10938 42.315624Q302.57812 40.58125 302.57812 37.58125L302.57812 37.20625Q302.57812 35.3625 303.25 33.925Q303.9375 32.471874 305.20312 31.675Q306.48438 30.878124 308.21875 30.878124Q310.34375 30.878124 311.75 32.159374Q313.17188 33.440624 313.26562 35.471874L311.21875 35.471874Q311.125 34.253124 310.28125 33.45625Q309.45312 32.659374 308.21875 32.659374Q306.5625 32.659374 305.65625 33.8625Q304.75 35.05 304.75 37.3L304.75 37.70625Q304.75 39.89375 305.64062 41.08125Q306.54688 42.26875 308.23438 42.26875ZM323.53125 40.440624Q323.53125 39.55 322.85938 39.065624Q322.20312 38.58125 320.54688 38.2375Q318.90625 37.878124 317.9375 37.39375Q316.96875 36.89375 316.5 36.221874Q316.04688 35.534374 316.04688 34.596874Q316.04688 33.034374 317.35938 31.95625Q318.6875 30.878124 320.73438 30.878124Q322.89062 30.878124 324.23438 32.003124Q325.57812 33.1125 325.57812 34.846874L323.39062 34.846874Q323.39062 33.95625 322.64062 33.315624Q321.89062 32.659374 320.73438 32.659374Q319.54688 32.659374 318.875 33.175Q318.21875 33.690624 318.21875 34.534374Q318.21875 35.315624 318.82812 35.721874Q319.45312 36.1125 321.07812 36.471874Q322.70312 36.83125 323.70312 37.346874Q324.71875 37.846874 325.20312 38.565624Q325.6875 39.26875 325.6875 40.284374Q325.6875 41.9875 324.32812 43.01875Q322.96875 44.034374 320.8125 44.034374Q319.28125 44.034374 318.10938 43.503124Q316.9375 42.95625 316.26562 41.9875Q315.60938 41.01875 315.60938 39.89375L317.78125 39.89375Q317.84375 40.9875 318.65625 41.628124Q319.46875 42.26875 320.8125 42.26875Q322.03125 42.26875 322.78125 41.76875Q323.53125 41.26875 323.53125 40.440624ZM341.96875 43.8Q341.78125 43.425 341.67188 42.45625Q340.15625 44.034374 338.0625 44.034374Q336.1875 44.034374 334.98438 42.971874Q333.78125 41.909374 333.78125 40.284374Q333.78125 38.3 335.28125 37.20625Q336.79688 36.1125 339.51562 36.1125L341.625 36.1125L341.625 35.1125Q341.625 33.971874 340.9375 33.3Q340.26562 32.628124 338.95312 32.628124Q337.78125 32.628124 337.0 33.221874Q336.21875 33.8 336.21875 34.628124L334.03125 34.628124Q334.03125 33.690624 334.70312 32.8Q335.39062 31.909374 336.53125 31.39375Q337.6875 30.878124 339.07812 30.878124Q341.26562 30.878124 342.5 31.9875Q343.75 33.08125 343.79688 35.003124L343.79688 40.83125Q343.79688 42.58125 344.25 43.6125L344.25 43.8L341.96875 43.8ZM338.375 42.14375Q339.39062 42.14375 340.29688 41.628124Q341.21875 41.096874 341.625 40.253124L341.625 37.64375L339.9375 37.64375Q335.95312 37.64375 335.95312 39.971874Q335.95312 41.003124 336.625 41.58125Q337.3125 42.14375 338.375 42.14375ZM349.1875 31.1125L349.26562 32.70625Q350.71875 30.878124 353.0625 30.878124Q357.07812 30.878124 357.10938 35.425L357.10938 43.8L354.95312 43.8L354.95312 35.409374Q354.9375 34.034374 354.3125 33.378124Q353.70312 32.721874 352.40625 32.721874Q351.34375 32.721874 350.54688 33.284374Q349.75 33.846874 349.3125 34.76875L349.3125 43.8L347.14062 43.8L347.14062 31.1125L349.1875 31.1125ZM359.60938 37.346874Q359.60938 34.440624 360.98438 32.659374Q362.375 30.878124 364.625 30.878124Q366.84375 30.878124 368.14062 32.409374L368.14062 25.8L370.3125 25.8L370.3125 43.8L368.32812 43.8L368.21875 42.440624Q366.92188 44.034374 364.59375 44.034374Q362.39062 44.034374 361.0 42.2375Q359.60938 40.425 359.60938 37.51875L359.60938 37.346874ZM361.78125 37.596874Q361.78125 39.753124 362.67188 40.971874Q363.5625 42.190624 365.14062 42.190624Q367.20312 42.190624 368.14062 40.346874L368.14062 34.51875Q367.17188 32.721874 365.15625 32.721874Q363.5625 32.721874 362.67188 33.95625Q361.78125 35.190624 361.78125 37.596874ZM386.73438 36.89375L382.73438 36.89375L382.73438 43.8L380.46875 43.8L380.46875 26.7375L386.125 26.7375Q389.0 26.7375 390.54688 28.05Q392.10938 29.3625 392.10938 31.8625Q392.10938 33.45625 391.25 34.64375Q390.39062 35.83125 388.84375 36.409374L392.85938 43.659374L392.85938 43.8L390.4375 43.8L386.73438 36.89375ZM382.73438 35.05L386.1875 35.05Q387.85938 35.05 388.84375 34.190624Q389.84375 33.315624 389.84375 31.8625Q389.84375 30.284374 388.89062 29.440624Q387.95312 28.596874 386.17188 28.58125L382.73438 28.58125L382.73438 35.05ZM400.40625 44.034374Q397.82812 44.034374 396.20312 42.346874Q394.59375 40.64375 394.59375 37.815624L394.59375 37.409374Q394.59375 35.51875 395.3125 34.05Q396.03125 32.565624 397.32812 31.721874Q398.625 30.878124 400.14062 30.878124Q402.60938 30.878124 403.96875 32.51875Q405.34375 34.14375 405.34375 37.175L405.34375 38.08125L396.76562 38.08125Q396.8125 39.95625 397.85938 41.1125Q398.90625 42.26875 400.51562 42.26875Q401.67188 42.26875 402.46875 41.8Q403.26562 41.33125 403.85938 40.55L405.1875 41.58125Q403.59375 44.034374 400.40625 44.034374ZM400.14062 32.659374Q398.82812 32.659374 397.9375 33.628124Q397.04688 34.58125 396.82812 36.3L403.1875 36.3L403.1875 36.128124Q403.09375 34.4875 402.29688 33.58125Q401.5 32.659374 400.14062 32.659374ZM415.53125 40.440624Q415.53125 39.55 414.85938 39.065624Q414.20312 38.58125 412.54688 38.2375Q410.90625 37.878124 409.9375 37.39375Q408.96875 36.89375 408.5 36.221874Q408.04688 35.534374 408.04688 34.596874Q408.04688 33.034374 409.35938 31.95625Q410.6875 30.878124 412.73438 30.878124Q414.89062 30.878124 416.23438 32.003124Q417.57812 33.1125 417.57812 34.846874L415.39062 34.846874Q415.39062 33.95625 414.64062 33.315624Q413.89062 32.659374 412.73438 32.659374Q411.54688 32.659374 410.875 33.175Q410.21875 33.690624 410.21875 34.534374Q410.21875 35.315624 410.82812 35.721874Q411.45312 36.1125 413.07812 36.471874Q414.70312 36.83125 415.70312 37.346874Q416.71875 37.846874 417.20312 38.565624Q417.6875 39.26875 417.6875 40.284374Q417.6875 41.9875 416.32812 43.01875Q414.96875 44.034374 412.8125 44.034374Q411.28125 44.034374 410.10938 43.503124Q408.9375 42.95625 408.26562 41.9875Q407.60938 41.01875 407.60938 39.89375L409.78125 39.89375Q409.84375 40.9875 410.65625 41.628124Q411.46875 42.26875 412.8125 42.26875Q414.03125 42.26875 414.78125 41.76875Q415.53125 41.26875 415.53125 40.440624ZM430.85938 37.596874Q430.85938 40.4875 429.53125 42.26875Q428.20312 44.034374 425.9375 44.034374Q423.64062 44.034374 422.3125 42.565624L422.3125 48.675L420.14062 48.675L420.14062 31.1125L422.125 31.1125L422.23438 32.51875Q423.54688 30.878124 425.90625 30.878124Q428.1875 30.878124 429.51562 32.6125Q430.85938 34.33125 430.85938 37.39375L430.85938 37.596874ZM428.6875 37.346874Q428.6875 35.20625 427.76562 33.971874Q426.85938 32.721874 425.26562 32.721874Q423.29688 32.721874 422.3125 34.471874L422.3125 40.534374Q423.28125 42.26875 425.28125 42.26875Q426.84375 42.26875 427.76562 41.034374Q428.6875 39.784374 428.6875 37.346874ZM432.5625 37.346874Q432.5625 35.471874 433.29688 33.9875Q434.03125 32.503124 435.32812 31.690624Q436.64062 30.878124 438.32812 30.878124Q440.90625 30.878124 442.5 32.675Q444.10938 34.471874 444.10938 37.440624L444.10938 37.596874Q444.10938 39.45625 443.39062 40.925Q442.6875 42.39375 441.375 43.221874Q440.0625 44.034374 438.34375 44.034374Q435.76562 44.034374 434.15625 42.2375Q432.5625 40.440624 432.5625 37.4875L432.5625 37.346874ZM434.75 37.596874Q434.75 39.70625 435.71875 40.9875Q436.70312 42.26875 438.34375 42.26875Q440.0 42.26875 440.96875 40.971874Q441.9375 39.675 441.9375 37.346874Q441.9375 35.253124 440.95312 33.95625Q439.96875 32.659374 438.32812 32.659374Q436.71875 32.659374 435.73438 33.940624Q434.75 35.221874 434.75 37.596874ZM449.1875 31.1125L449.26562 32.70625Q450.71875 30.878124 453.0625 30.878124Q457.07812 30.878124 457.10938 35.425L457.10938 43.8L454.95312 43.8L454.95312 35.409374Q454.9375 34.034374 454.3125 33.378124Q453.70312 32.721874 452.40625 32.721874Q451.34375 32.721874 450.54688 33.284374Q449.75 33.846874 449.3125 34.76875L449.3125 43.8L447.14062 43.8L447.14062 31.1125L449.1875 31.1125ZM467.53125 40.440624Q467.53125 39.55 466.85938 39.065624Q466.20312 38.58125 464.54688 38.2375Q462.90625 37.878124 461.9375 37.39375Q460.96875 36.89375 460.5 36.221874Q460.04688 35.534374 460.04688 34.596874Q460.04688 33.034374 461.35938 31.95625Q462.6875 30.878124 464.73438 30.878124Q466.89062 30.878124 468.23438 32.003124Q469.57812 33.1125 469.57812 34.846874L467.39062 34.846874Q467.39062 33.95625 466.64062 33.315624Q465.89062 32.659374 464.73438 32.659374Q463.54688 32.659374 462.875 33.175Q462.21875 33.690624 462.21875 34.534374Q462.21875 35.315624 462.82812 35.721874Q463.45312 36.1125 465.07812 36.471874Q466.70312 36.83125 467.70312 37.346874Q468.71875 37.846874 469.20312 38.565624Q469.6875 39.26875 469.6875 40.284374Q469.6875 41.9875 468.32812 43.01875Q466.96875 44.034374 464.8125 44.034374Q463.28125 44.034374 462.10938 43.503124Q460.9375 42.95625 460.26562 41.9875Q459.60938 41.01875 459.60938 39.89375L461.78125 39.89375Q461.84375 40.9875 462.65625 41.628124Q463.46875 42.26875 464.8125 42.26875Q466.03125 42.26875 466.78125 41.76875Q467.53125 41.26875 467.53125 40.440624ZM477.40625 44.034374Q474.82812 44.034374 473.20312 42.346874Q471.59375 40.64375 471.59375 37.815624L471.59375 37.409374Q471.59375 35.51875 472.3125 34.05Q473.03125 32.565624 474.32812 31.721874Q475.625 30.878124 477.14062 30.878124Q479.60938 30.878124 480.96875 32.51875Q482.34375 34.14375 482.34375 37.175L482.34375 38.08125L473.76562 38.08125Q473.8125 39.95625 474.85938 41.1125Q475.90625 42.26875 477.51562 42.26875Q478.67188 42.26875 479.46875 41.8Q480.26562 41.33125 480.85938 40.55L482.1875 41.58125Q480.59375 44.034374 477.40625 44.034374ZM477.14062 32.659374Q475.82812 32.659374 474.9375 33.628124Q474.04688 34.58125 473.82812 36.3L480.1875 36.3L480.1875 36.128124Q480.09375 34.4875 479.29688 33.58125Q478.5 32.659374 477.14062 32.659374ZM492.53125 40.440624Q492.53125 39.55 491.85938 39.065624Q491.20312 38.58125 489.54688 38.2375Q487.90625 37.878124 486.9375 37.39375Q485.96875 36.89375 485.5 36.221874Q485.04688 35.534374 485.04688 34.596874Q485.04688 33.034374 486.35938 31.95625Q487.6875 30.878124 489.73438 30.878124Q491.89062 30.878124 493.23438 32.003124Q494.57812 33.1125 494.57812 34.846874L492.39062 34.846874Q492.39062 33.95625 491.64062 33.315624Q490.89062 32.659374 489.73438 32.659374Q488.54688 32.659374 487.875 33.175Q487.21875 33.690624 487.21875 34.534374Q487.21875 35.315624 487.82812 35.721874Q488.45312 36.1125 490.07812 36.471874Q491.70312 36.83125 492.70312 37.346874Q493.71875 37.846874 494.20312 38.565624Q494.6875 39.26875 494.6875 40.284374Q494.6875 41.9875 493.32812 43.01875Q491.96875 44.034374 489.8125 44.034374Q488.28125 44.034374 487.10938 43.503124Q485.9375 42.95625 485.26562 41.9875Q484.60938 41.01875 484.60938 39.89375L486.78125 39.89375Q486.84375 40.9875 487.65625 41.628124Q488.46875 42.26875 489.8125 42.26875Q491.03125 42.26875 491.78125 41.76875Q492.53125 41.26875 492.53125 40.440624ZM513.8594 37.596874Q513.8594 40.4875 512.53125 42.26875Q511.20312 44.034374 508.9375 44.034374Q506.64062 44.034374 505.3125 42.565624L505.3125 48.675L503.14062 48.675L503.14062 31.1125L505.125 31.1125L505.23438 32.51875Q506.54688 30.878124 508.90625 30.878124Q511.1875 30.878124 512.5156 32.6125Q513.8594 34.33125 513.8594 37.39375L513.8594 37.596874ZM511.6875 37.346874Q511.6875 35.20625 510.76562 33.971874Q509.85938 32.721874 508.26562 32.721874Q506.29688 32.721874 505.3125 34.471874L505.3125 40.534374Q506.28125 42.26875 508.28125 42.26875Q509.84375 42.26875 510.76562 41.034374Q511.6875 39.784374 511.6875 37.346874ZM521.40625 44.034374Q518.8281 44.034374 517.2031 42.346874Q515.59375 40.64375 515.59375 37.815624L515.59375 37.409374Q515.59375 35.51875 516.3125 34.05Q517.03125 32.565624 518.3281 31.721874Q519.625 30.878124 521.1406 30.878124Q523.6094 30.878124 524.96875 32.51875Q526.34375 34.14375 526.34375 37.175L526.34375 38.08125L517.7656 38.08125Q517.8125 39.95625 518.8594 41.1125Q519.90625 42.26875 521.5156 42.26875Q522.6719 42.26875 523.46875 41.8Q524.2656 41.33125 524.8594 40.55L526.1875 41.58125Q524.59375 44.034374 521.40625 44.034374ZM521.1406 32.659374Q519.8281 32.659374 518.9375 33.628124Q518.0469 34.58125 517.8281 36.3L524.1875 36.3L524.1875 36.128124Q524.09375 34.4875 523.2969 33.58125Q522.5 32.659374 521.1406 32.659374ZM535.2656 33.065624Q534.78125 32.9875 534.2031 32.9875Q532.0781 32.9875 531.3125 34.8L531.3125 43.8L529.1406 43.8L529.1406 31.1125L531.25 31.1125L531.28125 32.58125Q532.3594 30.878124 534.3125 30.878124Q534.9375 30.878124 535.2656 31.05L535.2656 33.065624ZM545.1875 31.1125L545.2344 32.51875Q546.6406 30.878124 549.0 30.878124Q551.65625 30.878124 552.625 32.925Q553.25 32.003124 554.2656 31.440624Q555.28125 30.878124 556.6719 30.878124Q560.84375 30.878124 560.90625 35.3L560.90625 43.8L558.7344 43.8L558.7344 35.425Q558.7344 34.065624 558.1094 33.39375Q557.5 32.721874 556.03125 32.721874Q554.8281 32.721874 554.03125 33.440624Q553.2344 34.159374 553.1094 35.378124L553.1094 43.8L550.9219 43.8L550.9219 35.4875Q550.9219 32.721874 548.21875 32.721874Q546.0781 32.721874 545.2969 34.534374L545.2969 43.8L543.125 43.8L543.125 31.1125L545.1875 31.1125ZM563.5625 37.346874Q563.5625 35.471874 564.2969 33.9875Q565.03125 32.503124 566.3281 31.690624Q567.6406 30.878124 569.3281 30.878124Q571.90625 30.878124 573.5 32.675Q575.1094 34.471874 575.1094 37.440624L575.1094 37.596874Q575.1094 39.45625 574.3906 40.925Q573.6875 42.39375 572.375 43.221874Q571.0625 44.034374 569.34375 44.034374Q566.7656 44.034374 565.15625 42.2375Q563.5625 40.440624 563.5625 37.4875L563.5625 37.346874ZM565.75 37.596874Q565.75 39.70625 566.71875 40.9875Q567.7031 42.26875 569.34375 42.26875Q571.0 42.26875 571.96875 40.971874Q572.9375 39.675 572.9375 37.346874Q572.9375 35.253124 571.9531 33.95625Q570.96875 32.659374 569.3281 32.659374Q567.71875 32.659374 566.7344 33.940624Q565.75 35.221874 565.75 37.596874ZM580.1875 31.1125L580.2656 32.70625Q581.71875 30.878124 584.0625 30.878124Q588.0781 30.878124 588.1094 35.425L588.1094 43.8L585.9531 43.8L585.9531 35.409374Q585.9375 34.034374 585.3125 33.378124Q584.7031 32.721874 583.40625 32.721874Q582.34375 32.721874 581.5469 33.284374Q580.75 33.846874 580.3125 34.76875L580.3125 43.8L578.1406 43.8L578.1406 31.1125L580.1875 31.1125ZM594.0781 28.05L594.0781 31.1125L596.4531 31.1125L596.4531 32.8L594.0781 32.8L594.0781 40.659374Q594.0781 41.425 594.3906 41.8Q594.71875 42.175 595.4844 42.175Q595.8594 42.175 596.5156 42.034374L596.5156 43.8Q595.65625 44.034374 594.84375 44.034374Q593.3906 44.034374 592.65625 43.159374Q591.9219 42.26875 591.9219 40.659374L591.9219 32.8L589.6094 32.8L589.6094 31.1125L591.9219 31.1125L591.9219 28.05L594.0781 28.05ZM601.3125 32.659374Q602.75 30.878124 605.0625 30.878124Q609.0781 30.878124 609.1094 35.425L609.1094 43.8L606.9531 43.8L606.9531 35.409374Q606.9375 34.034374 606.3125 33.378124Q605.7031 32.721874 604.40625 32.721874Q603.34375 32.721874 602.5469 33.284374Q601.75 33.846874 601.3125 34.76875L601.3125 43.8L599.1406 43.8L599.1406 25.8L601.3125 25.8L601.3125 32.659374Z" fill-rule="nonzero"/></svg>