<svg version="1.1" viewBox="0.0 0.0 1076.0 665.0" fill="none" stroke="none" stroke-linecap="square" stroke-miterlimit="10" width="1076" height="665" xmlns:xlink="http://www.w3.org/1999/xlink" xmlns="http://www.w3.org/2000/svg"><path fill="#000000" d="M0 0L1076.0 0L1076.0 665.0L0 665.0L0 0Z" fill-rule="nonzero"/><path stroke="#999999" stroke-width="1.0" stroke-linecap="butt" d="M154.5 156.5L154.5 574.5" fill-rule="nonzero"/><path stroke="#999999" stroke-width="1.0" stroke-linecap="butt" d="M289.5 156.5L289.5 574.5" fill-rule="nonzero"/><path stroke="#999999" stroke-width="1.0" stroke-linecap="butt" d="M423.5 156.5L423.5 574.5" fill-rule="nonzero"/><path stroke="#999999" stroke-width="1.0" stroke-linecap="butt" d="M558.5 156.5L558.5 574.5" fill-rule="nonzero"/><path stroke="#999999" stroke-width="1.0" stroke-linecap="butt" d="M693.5 156.5L693.5 574.5" fill-rule="nonzero"/><path stroke="#999999" stroke-width="1.0" stroke-linecap="butt" d="M827.5 156.5L827.5 574.5" fill-rule="nonzero"/><path stroke="#999999" stroke-width="1.0" stroke-linecap="butt" d="M962.5 156.5L962.5 574.5" fill-rule="nonzero"/><path stroke="#cccccc" stroke-width="1.0" stroke-linecap="butt" d="M141.5 574.5L1042.5 574.5" fill-rule="nonzero"/><path stroke="#999999" stroke-width="1.0" stroke-linecap="butt" d="M141.5 435.5L1042.5 435.5" fill-rule="nonzero"/><path stroke="#999999" stroke-width="1.0" stroke-linecap="butt" d="M141.5 295.5L1042.5 295.5" fill-rule="nonzero"/><path stroke="#999999" stroke-width="1.0" stroke-linecap="butt" d="M141.5 156.5L1042.5 156.5" fill-rule="nonzero"/><clipPath id="id_0"><path d="M141.25 156.58333L1042.75 156.58333L1042.75 574.35767L141.25 574.35767L141.25 156.58333Z" clip-rule="nonzero"/></clipPath><path stroke="#6d9eeb" stroke-width="4.0" stroke-linecap="butt" clip-path="url(#id_0)" d="M154.82826 504.72864C154.82826 504.72864 162.44621 500.85416 166.25519 499.15833C170.06416 497.46246 203.11621 487.78052 221.54672 476.877C239.97723 465.9735 267.13153 435.41998 289.371 423.95892C311.61047 412.4979 333.84998 414.59937 356.08945 407.24796C378.32895 399.89655 401.67426 385.35516 423.91373 379.39633C446.15323 373.4375 468.3927 377.4563 490.6322 371.04083C512.87164 364.62537 535.8484 345.91116 558.4565 340.40405C581.0646 334.89694 618.1713 340.2733 636.97046 337.6189C655.7696 334.96448 680.34357 327.62204 693.3678 323.69308C706.392 319.76413 723.2252 311.40945 732.4405 309.76727C741.65576 308.12506 750.87103 310.5241 760.08624 309.76727C769.3015 309.01044 805.6711 302.77408 827.9105 298.62662C850.15 294.47916 872.3895 288.84827 894.629 284.7008C916.86847 280.55334 940.2138 284.20633 962.4533 273.56015C984.69275 262.91397 1029.1718 220.64207 1029.1718 220.64207" fill-rule="nonzero"/><path stroke="#ffff00" stroke-width="4.0" stroke-linecap="butt" clip-path="url(#id_0)" d="M962.4533 524.2248L1029.1718 493.58798" fill-rule="nonzero"/><path stroke="#ff9900" stroke-width="4.0" stroke-linecap="butt" clip-path="url(#id_0)" d="M962.4533 538.1506L1029.1718 538.1506" fill-rule="nonzero"/><path stroke="#109618" stroke-width="4.0" stroke-linecap="butt" clip-path="url(#id_0)" d="M962.4533 563.21704L1029.1718 560.4319" fill-rule="nonzero"/><path stroke="#990099" stroke-width="4.0" stroke-linecap="butt" clip-path="url(#id_0)" d="M962.4533 563.21704L1029.1718 557.6467" fill-rule="nonzero"/><path fill="#6d9eeb" clip-path="url(#id_0)" d="M159.32826 504.72864C159.32826 507.21393 157.31355 509.22864 154.82826 509.22864C152.34299 509.22864 150.32826 507.21393 150.32826 504.72864C150.32826 502.24335 152.34299 500.22864 154.82826 500.22864C157.31355 500.22864 159.32826 502.24335 159.32826 504.72864Z" fill-rule="nonzero"/><path fill="#6d9eeb" clip-path="url(#id_0)" d="M170.75519 499.15833C170.75519 501.6436 168.74046 503.65833 166.25519 503.65833C163.7699 503.65833 161.75519 501.6436 161.75519 499.15833C161.75519 496.67303 163.7699 494.65833 166.25519 494.65833C168.74046 494.65833 170.75519 496.67303 170.75519 499.15833Z" fill-rule="nonzero"/><path fill="#6d9eeb" clip-path="url(#id_0)" d="M226.04672 476.877C226.04672 479.3623 224.032 481.377 221.54672 481.377C219.06143 481.377 217.04672 479.3623 217.04672 476.877C217.04672 474.39172 219.06143 472.377 221.54672 472.377C224.032 472.377 226.04672 474.39172 226.04672 476.877Z" fill-rule="nonzero"/><path fill="#6d9eeb" clip-path="url(#id_0)" d="M293.871 423.95892C293.871 426.4442 291.8563 428.45892 289.371 428.45892C286.8857 428.45892 284.871 426.4442 284.871 423.95892C284.871 421.47363 286.8857 419.45892 289.371 419.45892C291.8563 419.45892 293.871 421.47363 293.871 423.95892Z" fill-rule="nonzero"/><path fill="#6d9eeb" clip-path="url(#id_0)" d="M360.58945 407.24796C360.58945 409.73325 358.57474 411.74796 356.08945 411.74796C353.6042 411.74796 351.58945 409.73325 351.58945 407.24796C351.58945 404.76266 353.6042 402.74796 356.08945 402.74796C358.57474 402.74796 360.58945 404.76266 360.58945 407.24796Z" fill-rule="nonzero"/><path fill="#6d9eeb" clip-path="url(#id_0)" d="M428.41373 379.39633C428.41373 381.88162 426.39902 383.89633 423.91373 383.89633C421.42847 383.89633 419.41373 381.88162 419.41373 379.39633C419.41373 376.91104 421.42847 374.89633 423.91373 374.89633C426.39902 374.89633 428.41373 376.91104 428.41373 379.39633Z" fill-rule="nonzero"/><path fill="#6d9eeb" clip-path="url(#id_0)" d="M495.1322 371.04083C495.1322 373.52612 493.11746 375.54083 490.6322 375.54083C488.1469 375.54083 486.1322 373.52612 486.1322 371.04083C486.1322 368.55557 488.1469 366.54083 490.6322 366.54083C493.11746 366.54083 495.1322 368.55557 495.1322 371.04083Z" fill-rule="nonzero"/><path fill="#6d9eeb" clip-path="url(#id_0)" d="M562.9565 340.40405C562.9565 342.88934 560.9418 344.90405 558.4565 344.90405C555.9712 344.90405 553.9565 342.88934 553.9565 340.40405C553.9565 337.91876 555.9712 335.90405 558.4565 335.90405C560.9418 335.90405 562.9565 337.91876 562.9565 340.40405Z" fill-rule="nonzero"/><path fill="#6d9eeb" clip-path="url(#id_0)" d="M641.47046 337.6189C641.47046 340.10416 639.45575 342.1189 636.97046 342.1189C634.48517 342.1189 632.47046 340.10416 632.47046 337.6189C632.47046 335.1336 634.48517 333.1189 636.97046 333.1189C639.45575 333.1189 641.47046 335.1336 641.47046 337.6189Z" fill-rule="nonzero"/><path fill="#6d9eeb" clip-path="url(#id_0)" d="M697.8678 323.69308C697.8678 326.17834 695.8531 328.19308 693.3678 328.19308C690.8825 328.19308 688.8678 326.17834 688.8678 323.69308C688.8678 321.2078 690.8825 319.19308 693.3678 319.19308C695.8531 319.19308 697.8678 321.2078 697.8678 323.69308Z" fill-rule="nonzero"/><path fill="#6d9eeb" clip-path="url(#id_0)" d="M736.9405 309.76727C736.9405 312.25253 734.9258 314.26727 732.4405 314.26727C729.9552 314.26727 727.9405 312.25253 727.9405 309.76727C727.9405 307.28198 729.9552 305.26727 732.4405 305.26727C734.9258 305.26727 736.9405 307.28198 736.9405 309.76727Z" fill-rule="nonzero"/><path fill="#6d9eeb" clip-path="url(#id_0)" d="M764.58624 309.76727C764.58624 312.25253 762.57153 314.26727 760.08624 314.26727C757.601 314.26727 755.58624 312.25253 755.58624 309.76727C755.58624 307.28198 757.601 305.26727 760.08624 305.26727C762.57153 305.26727 764.58624 307.28198 764.58624 309.76727Z" fill-rule="nonzero"/><path fill="#6d9eeb" clip-path="url(#id_0)" d="M832.4105 298.62662C832.4105 301.1119 830.3958 303.12662 827.9105 303.12662C825.4253 303.12662 823.4105 301.1119 823.4105 298.62662C823.4105 296.14133 825.4253 294.12662 827.9105 294.12662C830.3958 294.12662 832.4105 296.14133 832.4105 298.62662Z" fill-rule="nonzero"/><path fill="#6d9eeb" clip-path="url(#id_0)" d="M899.129 284.7008C899.129 287.1861 897.11426 289.2008 894.629 289.2008C892.14374 289.2008 890.129 287.1861 890.129 284.7008C890.129 282.2155 892.14374 280.2008 894.629 280.2008C897.11426 280.2008 899.129 282.2155 899.129 284.7008Z" fill-rule="nonzero"/><path fill="#6d9eeb" clip-path="url(#id_0)" d="M966.9533 273.56015C966.9533 276.04544 964.93854 278.06015 962.4533 278.06015C959.968 278.06015 957.9533 276.04544 957.9533 273.56015C957.9533 271.07486 959.968 269.06015 962.4533 269.06015C964.93854 269.06015 966.9533 271.07486 966.9533 273.56015Z" fill-rule="nonzero"/><path fill="#6d9eeb" clip-path="url(#id_0)" d="M1033.6718 220.64207C1033.6718 223.12735 1031.657 225.14207 1029.1718 225.14207C1026.6864 225.14207 1024.6718 223.12735 1024.6718 220.64207C1024.6718 218.15678 1026.6864 216.14207 1029.1718 216.14207C1031.657 216.14207 1033.6718 218.15678 1033.6718 220.64207Z" fill-rule="nonzero"/><path fill="#ffff00" clip-path="url(#id_0)" d="M966.9533 524.2248C966.9533 526.7101 964.93854 528.7248 962.4533 528.7248C959.968 528.7248 957.9533 526.7101 957.9533 524.2248C957.9533 521.7395 959.968 519.7248 962.4533 519.7248C964.93854 519.7248 966.9533 521.7395 966.9533 524.2248Z" fill-rule="nonzero"/><path fill="#ffff00" clip-path="url(#id_0)" d="M1033.6718 493.58798C1033.6718 496.07327 1031.657 498.08798 1029.1718 498.08798C1026.6864 498.08798 1024.6718 496.07327 1024.6718 493.58798C1024.6718 491.1027 1026.6864 489.08798 1029.1718 489.08798C1031.657 489.08798 1033.6718 491.1027 1033.6718 493.58798Z" fill-rule="nonzero"/><path fill="#ff9900" clip-path="url(#id_0)" d="M966.9533 538.1506C966.9533 540.63586 964.93854 542.6506 962.4533 542.6506C959.968 542.6506 957.9533 540.63586 957.9533 538.1506C957.9533 535.6653 959.968 533.6506 962.4533 533.6506C964.93854 533.6506 966.9533 535.6653 966.9533 538.1506Z" fill-rule="nonzero"/><path fill="#ff9900" clip-path="url(#id_0)" d="M1033.6718 538.1506C1033.6718 540.63586 1031.657 542.6506 1029.1718 542.6506C1026.6864 542.6506 1024.6718 540.63586 1024.6718 538.1506C1024.6718 535.6653 1026.6864 533.6506 1029.1718 533.6506C1031.657 533.6506 1033.6718 535.6653 1033.6718 538.1506Z" fill-rule="nonzero"/><path fill="#109618" clip-path="url(#id_0)" d="M970.4533 563.21704C970.4533 567.6353 966.8716 571.21704 962.4533 571.21704C958.035 571.21704 954.4533 567.6353 954.4533 563.21704C954.4533 558.79877 958.035 555.21704 962.4533 555.21704C966.8716 555.21704 970.4533 558.79877 970.4533 563.21704Z" fill-rule="nonzero"/><path fill="#109618" clip-path="url(#id_0)" d="M1037.1718 560.4319C1037.1718 564.85016 1033.59 568.4319 1029.1718 568.4319C1024.7534 568.4319 1021.17175 564.85016 1021.17175 560.4319C1021.17175 556.0136 1024.7534 552.4319 1029.1718 552.4319C1033.59 552.4319 1037.1718 556.0136 1037.1718 560.4319Z" fill-rule="nonzero"/><path fill="#990099" clip-path="url(#id_0)" d="M966.9533 563.21704C966.9533 565.70233 964.93854 567.71704 962.4533 567.71704C959.968 567.71704 957.9533 565.70233 957.9533 563.21704C957.9533 560.73175 959.968 558.71704 962.4533 558.71704C964.93854 558.71704 966.9533 560.73175 966.9533 563.21704Z" fill-rule="nonzero"/><path fill="#990099" clip-path="url(#id_0)" d="M1033.6718 557.6467C1033.6718 560.132 1031.657 562.1467 1029.1718 562.1467C1026.6864 562.1467 1024.6718 560.132 1024.6718 557.6467C1024.6718 555.16144 1026.6864 553.1467 1029.1718 553.1467C1031.657 553.1467 1033.6718 555.16144 1033.6718 557.6467Z" fill-rule="nonzero"/><path fill="#d9d9d9" d="M51.4375 442.19794L51.4375 445.2917L56.25 446.2292L56.25 447.90106L51.4375 446.96356L51.4375 449.77606L49.84375 449.77606L49.84375 446.6667L45.6875 445.8542L45.6875 448.88544L44.0625 448.88544L44.0625 445.5417L39.1875 444.57294L39.1875 442.90106L44.0625 443.8698L44.0625 440.77606L39.1875 439.8073L39.1875 438.1198L44.0625 439.08856L44.0625 436.69794L45.6875 436.69794L45.6875 439.40106L49.84375 440.21356L49.84375 437.57294L51.4375 437.57294L51.4375 440.51044L56.25 441.44794L56.25 443.13544L51.4375 442.19794ZM49.84375 444.9948L49.84375 441.90106L45.6875 441.08856L45.6875 444.1823L49.84375 444.9948ZM49.5625 425.9323L56.25 425.9323L56.25 428.1823L39.1875 428.1823L39.1875 421.88544Q39.1875 419.08856 40.625 417.51044Q42.046875 415.9167 44.40625 415.9167Q46.890625 415.9167 48.234375 417.4792Q49.5625 419.02606 49.5625 421.9167L49.5625 425.9323ZM47.734375 425.9323L47.734375 421.88544Q47.734375 420.08856 46.890625 419.13544Q46.03125 418.1667 44.421875 418.1667Q42.90625 418.1667 42.0 419.13544Q41.078125 420.08856 41.03125 421.76044L41.03125 425.9323L47.734375 425.9323ZM56.25 411.1667L56.25 413.33856L38.25 413.33856L38.25 411.1667L56.25 411.1667ZM56.25 399.69794Q55.875 399.88544 54.90625 399.9948Q56.484375 401.51044 56.484375 403.6042Q56.484375 405.4792 55.421875 406.6823Q54.359375 407.88544 52.734375 407.88544Q50.75 407.88544 49.65625 406.38544Q48.5625 404.8698 48.5625 402.15106L48.5625 400.0417L47.5625 400.0417Q46.421875 400.0417 45.75 400.7292Q45.078125 401.40106 45.078125 402.71356Q45.078125 403.88544 45.671875 404.6667Q46.25 405.44794 47.078125 405.44794L47.078125 407.63544Q46.140625 407.63544 45.25 406.96356Q44.359375 406.27606 43.84375 405.13544Q43.328125 403.9792 43.328125 402.58856Q43.328125 400.40106 44.4375 399.1667Q45.53125 397.9167 47.453125 397.8698L53.28125 397.8698Q55.03125 397.8698 56.0625 397.4167L56.25 397.4167L56.25 399.69794ZM54.59375 403.2917Q54.59375 402.27606 54.078125 401.3698Q53.546875 400.44794 52.703125 400.0417L50.09375 400.0417L50.09375 401.7292Q50.09375 405.71356 52.421875 405.71356Q53.453125 405.71356 54.03125 405.0417Q54.59375 404.3542 54.59375 403.2917ZM40.5 391.58856L43.5625 391.58856L43.5625 389.21356L45.25 389.21356L45.25 391.58856L53.109375 391.58856Q53.875 391.58856 54.25 391.27606Q54.625 390.94794 54.625 390.1823Q54.625 389.8073 54.484375 389.15106L56.25 389.15106Q56.484375 390.01044 56.484375 390.82294Q56.484375 392.27606 55.609375 393.01044Q54.71875 393.7448 53.109375 393.7448L45.25 393.7448L45.25 396.0573L43.5625 396.0573L43.5625 393.7448L40.5 393.7448L40.5 391.58856ZM56.25 385.46356L45.25 385.46356L45.25 387.46356L43.5625 387.46356L43.5625 385.46356L42.265625 385.46356Q40.234375 385.46356 39.125 384.3698Q38.0 383.27606 38.0 381.2917Q38.0 380.5417 38.203125 379.7917L39.953125 379.9167Q39.859375 380.46356 39.859375 381.08856Q39.859375 382.13544 40.46875 382.71356Q41.078125 383.2917 42.234375 383.2917L43.5625 383.2917L43.5625 380.58856L45.25 380.58856L45.25 383.2917L56.25 383.2917L56.25 385.46356ZM49.796875 379.1042Q47.921875 379.1042 46.4375 378.3698Q44.953125 377.63544 44.140625 376.33856Q43.328125 375.02606 43.328125 373.33856Q43.328125 370.76044 45.125 369.1667Q46.921875 367.5573 49.890625 367.5573L50.046875 367.5573Q51.90625 367.5573 53.375 368.27606Q54.84375 368.9792 55.671875 370.2917Q56.484375 371.6042 56.484375 373.32294Q56.484375 375.90106 54.6875 377.51044Q52.890625 379.1042 49.9375 379.1042L49.796875 379.1042ZM50.046875 376.9167Q52.15625 376.9167 53.4375 375.94794Q54.71875 374.96356 54.71875 373.32294Q54.71875 371.6667 53.421875 370.69794Q52.125 369.7292 49.796875 369.7292Q47.703125 369.7292 46.40625 370.71356Q45.109375 371.69794 45.109375 373.33856Q45.109375 374.94794 46.390625 375.9323Q47.671875 376.9167 50.046875 376.9167ZM45.515625 358.40106Q45.4375 358.88544 45.4375 359.46356Q45.4375 361.58856 47.25 362.3542L56.25 362.3542L56.25 364.52606L43.5625 364.52606L43.5625 362.4167L45.03125 362.38544Q43.328125 361.3073 43.328125 359.3542Q43.328125 358.7292 43.5 358.40106L45.515625 358.40106ZM43.5625 354.4792L44.96875 354.4323Q43.328125 353.02606 43.328125 350.6667Q43.328125 348.01044 45.375 347.0417Q44.453125 346.4167 43.890625 345.40106Q43.328125 344.38544 43.328125 342.9948Q43.328125 338.82294 47.75 338.76044L56.25 338.76044L56.25 340.9323L47.875 340.9323Q46.515625 340.9323 45.84375 341.5573Q45.171875 342.1667 45.171875 343.63544Q45.171875 344.83856 45.890625 345.63544Q46.609375 346.4323 47.828125 346.5573L56.25 346.5573L56.25 348.7448L47.9375 348.7448Q45.171875 348.7448 45.171875 351.44794Q45.171875 353.58856 46.984375 354.3698L56.25 354.3698L56.25 356.5417L43.5625 356.5417L43.5625 354.4792ZM52.890625 328.13544Q52.0 328.13544 51.515625 328.8073Q51.03125 329.46356 50.6875 331.1198Q50.328125 332.76044 49.84375 333.7292Q49.34375 334.69794 48.671875 335.1667Q47.984375 335.6198 47.046875 335.6198Q45.484375 335.6198 44.40625 334.3073Q43.328125 332.9792 43.328125 330.9323Q43.328125 328.77606 44.453125 327.4323Q45.5625 326.08856 47.296875 326.08856L47.296875 328.27606Q46.40625 328.27606 45.765625 329.02606Q45.109375 329.77606 45.109375 330.9323Q45.109375 332.1198 45.625 332.7917Q46.140625 333.44794 46.984375 333.44794Q47.765625 333.44794 48.171875 332.83856Q48.5625 332.21356 48.921875 330.58856Q49.28125 328.96356 49.796875 327.96356Q50.296875 326.94794 51.015625 326.46356Q51.71875 325.9792 52.734375 325.9792Q54.4375 325.9792 55.46875 327.33856Q56.484375 328.69794 56.484375 330.8542Q56.484375 332.38544 55.953125 333.5573Q55.40625 334.7292 54.4375 335.40106Q53.46875 336.0573 52.34375 336.0573L52.34375 333.88544Q53.4375 333.82294 54.078125 333.01044Q54.71875 332.19794 54.71875 330.8542Q54.71875 329.63544 54.21875 328.88544Q53.71875 328.13544 52.890625 328.13544Z" fill-rule="nonzero"/><path fill="#d9d9d9" d="M130.34375 575.29517Q130.34375 578.46704 129.26562 580.0139Q128.1875 581.5608 125.875 581.5608Q123.59375 581.5608 122.5 580.04517Q121.40625 578.52954 121.375 575.52954L121.375 573.1233Q121.375 569.98267 122.453125 568.46704Q123.546875 566.9358 125.859375 566.9358Q128.15625 566.9358 129.23438 568.42017Q130.3125 569.8889 130.34375 572.9514L130.34375 575.29517ZM128.54688 572.8264Q128.54688 570.52954 127.890625 569.48267Q127.25 568.42017 125.859375 568.42017Q124.46875 568.42017 123.828125 569.46704Q123.203125 570.5139 123.1875 572.6858L123.1875 575.5764Q123.1875 577.8733 123.84375 578.98267Q124.515625 580.0764 125.875 580.0764Q127.21875 580.0764 127.859375 579.04517Q128.51562 578.0139 128.54688 575.77954L128.54688 572.8264Z" fill-rule="nonzero"/><path fill="#d9d9d9" d="M111.265625 434.97458L111.984375 427.88083L119.265625 427.88083L119.265625 429.5527L113.515625 429.5527L113.09375 433.4277Q114.140625 432.81833 115.46875 432.81833Q117.40625 432.81833 118.546875 434.09958Q119.6875 435.38083 119.6875 437.56833Q119.6875 439.77145 118.5 441.03708Q117.3125 442.3027 115.1875 442.3027Q113.296875 442.3027 112.109375 441.25583Q110.921875 440.20895 110.75 438.3652L112.46875 438.3652Q112.625 439.58395 113.328125 440.20895Q114.03125 440.81833 115.1875 440.81833Q116.453125 440.81833 117.171875 439.95895Q117.890625 439.09958 117.890625 437.58395Q117.890625 436.16208 117.109375 435.3027Q116.328125 434.4277 115.046875 434.4277Q113.859375 434.4277 113.1875 434.94333L112.703125 435.33395L111.265625 434.97458ZM130.34375 436.03708Q130.34375 439.20895 129.26562 440.75583Q128.1875 442.3027 125.875 442.3027Q123.59375 442.3027 122.5 440.78708Q121.40625 439.27145 121.375 436.27145L121.375 433.8652Q121.375 430.72458 122.453125 429.20895Q123.546875 427.6777 125.859375 427.6777Q128.15625 427.6777 129.23438 429.16208Q130.3125 430.63083 130.34375 433.69333L130.34375 436.03708ZM128.54688 433.56833Q128.54688 431.27145 127.890625 430.22458Q127.25 429.16208 125.859375 429.16208Q124.46875 429.16208 123.828125 430.20895Q123.203125 431.25583 123.1875 433.4277L123.1875 436.31833Q123.1875 438.6152 123.84375 439.72458Q124.515625 440.81833 125.875 440.81833Q127.21875 440.81833 127.859375 439.78708Q128.51562 438.75583 128.54688 436.52145L128.54688 433.56833Z" fill-rule="nonzero"/><path fill="#d9d9d9" d="M105.375 302.84146L103.546875 302.84146L103.546875 290.7946L99.90625 292.13834L99.90625 290.4977L105.09375 288.5602L105.375 288.5602L105.375 302.84146ZM119.34375 296.77896Q119.34375 299.95084 118.265625 301.4977Q117.1875 303.0446 114.875 303.0446Q112.59375 303.0446 111.5 301.52896Q110.40625 300.01334 110.375 297.01334L110.375 294.6071Q110.375 291.46646 111.453125 289.95084Q112.546875 288.4196 114.859375 288.4196Q117.15625 288.4196 118.234375 289.90396Q119.3125 291.3727 119.34375 294.4352L119.34375 296.77896ZM117.546875 294.3102Q117.546875 292.01334 116.890625 290.96646Q116.25 289.90396 114.859375 289.90396Q113.46875 289.90396 112.828125 290.95084Q112.203125 291.9977 112.1875 294.1696L112.1875 297.0602Q112.1875 299.3571 112.84375 300.46646Q113.515625 301.5602 114.875 301.5602Q116.21875 301.5602 116.859375 300.52896Q117.515625 299.4977 117.546875 297.26334L117.546875 294.3102ZM130.34375 296.77896Q130.34375 299.95084 129.26562 301.4977Q128.1875 303.0446 125.875 303.0446Q123.59375 303.0446 122.5 301.52896Q121.40625 300.01334 121.375 297.01334L121.375 294.6071Q121.375 291.46646 122.453125 289.95084Q123.546875 288.4196 125.859375 288.4196Q128.15625 288.4196 129.23438 289.90396Q130.3125 291.3727 130.34375 294.4352L130.34375 296.77896ZM128.54688 294.3102Q128.54688 292.01334 127.890625 290.96646Q127.25 289.90396 125.859375 289.90396Q124.46875 289.90396 123.828125 290.95084Q123.203125 291.9977 123.1875 294.1696L123.1875 297.0602Q123.1875 299.3571 123.84375 300.46646Q124.515625 301.5602 125.875 301.5602Q127.21875 301.5602 127.859375 300.52896Q128.51562 299.4977 128.54688 297.26334L128.54688 294.3102Z" fill-rule="nonzero"/><path fill="#d9d9d9" d="M105.375 163.58333L103.546875 163.58333L103.546875 151.53645L99.90625 152.8802L99.90625 151.23958L105.09375 149.30208L105.375 149.30208L105.375 163.58333ZM111.265625 156.45833L111.984375 149.36458L119.265625 149.36458L119.265625 151.03645L113.515625 151.03645L113.09375 154.91145Q114.140625 154.30208 115.46875 154.30208Q117.40625 154.30208 118.546875 155.58333Q119.6875 156.86458 119.6875 159.05208Q119.6875 161.2552 118.5 162.52083Q117.3125 163.78645 115.1875 163.78645Q113.296875 163.78645 112.109375 162.73958Q110.921875 161.6927 110.75 159.84895L112.46875 159.84895Q112.625 161.0677 113.328125 161.6927Q114.03125 162.30208 115.1875 162.30208Q116.453125 162.30208 117.171875 161.4427Q117.890625 160.58333 117.890625 159.0677Q117.890625 157.64583 117.109375 156.78645Q116.328125 155.91145 115.046875 155.91145Q113.859375 155.91145 113.1875 156.42708L112.703125 156.8177L111.265625 156.45833ZM130.34375 157.52083Q130.34375 160.6927 129.26562 162.23958Q128.1875 163.78645 125.875 163.78645Q123.59375 163.78645 122.5 162.27083Q121.40625 160.7552 121.375 157.7552L121.375 155.34895Q121.375 152.20833 122.453125 150.6927Q123.546875 149.16145 125.859375 149.16145Q128.15625 149.16145 129.23438 150.64583Q130.3125 152.11458 130.34375 155.17708L130.34375 157.52083ZM128.54688 155.05208Q128.54688 152.7552 127.890625 151.70833Q127.25 150.64583 125.859375 150.64583Q124.46875 150.64583 123.828125 151.6927Q123.203125 152.73958 123.1875 154.91145L123.1875 157.80208Q123.1875 160.09895 123.84375 161.20833Q124.515625 162.30208 125.875 162.30208Q127.21875 162.30208 127.859375 161.27083Q128.51562 160.23958 128.54688 158.0052L128.54688 155.05208Z" fill-rule="nonzero"/><path fill="#d9d9d9" d="M113.72797 632.5622L105.66311 637.21844L105.01467 636.09534L106.54276 628.8983Q106.864975 627.2689 106.83399 626.4027Q106.808716 625.5152 106.39465 624.79803Q105.839966 623.8373 104.898735 623.5508Q103.9575 623.2642 102.983215 623.8267Q101.80596 624.5064 101.54707 625.55804Q101.2939 626.58826 101.97359 627.7655L100.403915 628.67175Q99.41954 626.9668 99.91404 625.292Q100.40073 623.60376 102.24103 622.54126Q103.95955 621.5491 105.470795 621.8854Q106.995575 622.21387 107.85495 623.70233Q108.90964 625.5291 108.04104 629.3684L106.80963 634.86053L112.99359 631.2902L113.72797 632.5622ZM119.871185 622.015Q121.45712 624.76196 121.296875 626.6407Q121.13663 628.51935 119.13394 629.6756Q117.158325 630.8162 115.45329 630.05054Q113.74826 629.28485 112.2212 626.7024L111.018074 624.6185Q109.44776 621.8987 109.623634 620.047Q109.80523 618.1741 111.807915 617.0178Q113.797066 615.8694 115.47294 616.6158Q117.14099 617.3487 118.69931 619.9853L119.871185 622.015ZM117.080666 620.77545Q115.93223 618.7863 114.84046 618.2078Q113.75442 617.608 112.5501 618.3033Q111.34578 618.9986 111.31442 620.2255Q111.29659 621.44464 112.369 623.3334L113.814316 625.83673Q114.96275 627.82587 116.08577 628.4585Q117.2145 629.06976 118.391754 628.3901Q119.55548 627.7182 119.59465 626.5048Q119.647354 625.2836 118.55723 623.33295L117.080666 620.77545ZM129.8577 623.2497L128.27449 624.16376L122.25106 613.73083L119.77006 616.7149L118.949745 615.29407L122.4735 611.0224L122.71707 610.8818L129.8577 623.2497ZM132.52309 612.4913L133.70033 611.8116Q134.79431 611.1439 135.09645 610.22974Q135.40431 609.2942 134.84181 608.31995Q133.59181 606.15485 131.44028 607.39703Q130.4254 607.983 130.15242 608.91644Q129.89296 609.84204 130.44765 610.8028L128.87798 611.70905Q128.03423 610.2476 128.54073 608.6561Q129.04723 607.0647 130.69809 606.1116Q132.44368 605.10376 133.97055 605.4671Q135.48961 605.81696 136.43492 607.4543Q136.89586 608.2526 136.80562 609.3151Q136.72891 610.36975 136.04677 611.25073Q137.24915 610.98956 138.23363 611.41345Q139.21811 611.8374 139.8353 612.90643Q140.79623 614.5708 140.2762 616.1701Q139.75618 617.76935 138.01059 618.77716Q136.27853 619.77716 134.65695 619.4685Q133.02754 619.14624 132.13692 617.60364L133.70659 616.6974Q134.26909 617.6717 135.24101 617.88635Q136.21294 618.101 137.28194 617.4838Q138.40506 616.8354 138.66452 615.9098Q138.92969 614.9628 138.28906 613.8533Q137.66406 612.7707 136.6729 612.5852Q135.68744 612.37836 134.43471 613.08356L133.25746 613.76324L132.52309 612.4913ZM144.85121 616.0005L143.49805 616.78174L140.92133 600.4437L142.26096 599.6703L144.85121 616.0005ZM155.37822 601.515Q156.96416 604.26196 156.80391 606.1407Q156.64366 608.01935 154.64099 609.1756Q152.66536 610.3162 150.96034 609.55054Q149.25531 608.78485 147.72824 606.2024L146.52512 604.1185Q144.9548 601.3987 145.13068 599.547Q145.31227 597.6741 147.31496 596.5178Q149.30411 595.3694 150.97998 596.1158Q152.64804 596.8487 154.20634 599.4853L155.37822 601.515ZM152.5877 600.27545Q151.43927 598.2863 150.3475 597.7078Q149.26146 597.108 148.05714 597.8033Q146.85283 598.4986 146.82146 599.7255Q146.80363 600.94464 147.87604 602.8334L149.32135 605.33673Q150.46979 607.32587 151.5928 607.9585Q152.72154 608.56976 153.8988 607.8901Q155.06252 607.2182 155.10168 606.0048Q155.15439 604.7836 154.06427 602.83295L152.5877 600.27545ZM165.36475 602.7497L163.78154 603.66376L157.7581 593.23083L155.2771 596.2149L154.45679 594.79407L157.98055 590.5224L158.22412 590.3818L165.36475 602.7497Z" fill-rule="nonzero"/><path fill="#d9d9d9" d="M248.2707 632.5622L240.20584 637.21844L239.5574 636.09534L241.0855 628.8983Q241.40771 627.2689 241.37672 626.4027Q241.35146 625.5152 240.9374 624.79803Q240.3827 623.8373 239.44147 623.5508Q238.50023 623.2642 237.52596 623.8267Q236.3487 624.5064 236.0898 625.55804Q235.83662 626.58826 236.51631 627.7655L234.94664 628.67175Q233.96227 626.9668 234.45677 625.292Q234.94347 623.60376 236.78377 622.54126Q238.50229 621.5491 240.01353 621.8854Q241.53831 622.21387 242.39769 623.70233Q243.45238 625.5291 242.58377 629.3684L241.35236 634.86053L247.53633 631.2902L248.2707 632.5622ZM254.41391 622.0151Q255.99985 624.76196 255.8396 626.6407Q255.67935 628.51935 253.67667 629.6756Q251.70105 630.8162 249.99602 630.05054Q248.291 629.28485 246.76393 626.7024L245.5608 624.6185Q243.9905 621.8987 244.16637 620.04706Q244.34795 618.1741 246.35063 617.0178Q248.33978 615.8694 250.01566 616.6158Q251.68372 617.3487 253.24203 619.9853L254.41391 622.0151ZM251.6234 620.7755Q250.47496 618.7863 249.3832 618.2078Q248.29713 617.608 247.09282 618.3033Q245.8885 618.9986 245.85715 620.2255Q245.83932 621.4447 246.91173 623.3334L248.35704 625.83673Q249.50548 627.82587 250.6285 628.4585Q251.75723 629.06976 252.93448 628.3901Q254.0982 627.7182 254.13737 626.5048Q254.19008 625.2836 253.09996 623.33295L251.6234 620.7755ZM264.40042 623.2497L262.81723 624.16376L256.7938 613.73083L254.31279 616.7149L253.49248 615.29407L257.01624 611.0224L257.2598 610.8818L264.40042 623.2497ZM272.9975 612.76526L274.70248 611.7809L275.44467 613.0664L273.7397 614.0508L275.38812 616.90594L273.81845 617.8122L272.17 614.95703L266.55438 618.1992L266.02313 617.27905L266.61435 605.5531L268.27875 604.59216L272.9975 612.76526ZM267.58484 615.89026L271.42783 613.6715L267.94345 607.6364L267.9493 608.08405L267.58484 615.89026ZM279.39395 616.0005L278.04077 616.78174L275.46405 600.4437L276.80368 599.6703L279.39395 616.0005ZM289.92096 601.5151Q291.5069 604.26196 291.34665 606.1407Q291.1864 608.01935 289.18372 609.1756Q287.2081 610.3162 285.50305 609.55054Q283.79803 608.78485 282.27097 606.2024L281.06784 604.1185Q279.49753 601.3987 279.6734 599.54706Q279.85498 597.6741 281.85767 596.5178Q283.84683 595.3694 285.5227 596.1158Q287.19077 596.8487 288.74908 599.4853L289.92096 601.5151ZM287.13043 600.2755Q285.982 598.2863 284.89023 597.7078Q283.80417 597.108 282.59985 597.8033Q281.39554 598.4986 281.3642 599.7255Q281.34637 600.9447 282.41876 602.8334L283.86407 605.33673Q285.0125 607.32587 286.13553 607.9585Q287.26428 608.56976 288.44153 607.8901Q289.60526 607.2182 289.6444 606.0048Q289.6971 604.7836 288.607 602.83295L287.13043 600.2755ZM299.90747 602.7497L298.32425 603.66376L292.3008 593.23083L289.81982 596.2149L288.9995 594.79407L292.5233 590.5224L292.76685 590.3818L299.90747 602.7497Z" fill-rule="nonzero"/><path fill="#d9d9d9" d="M382.81342 632.5622L374.74857 637.21844L374.10013 636.09534L375.62823 628.8983Q375.95044 627.2689 375.91943 626.4027Q375.89417 625.5152 375.4801 624.79803Q374.9254 623.8373 373.9842 623.5508Q373.04297 623.2642 372.06866 623.8267Q370.89142 624.5064 370.63254 625.55804Q370.37936 626.58826 371.05905 627.7655L369.48938 628.67175Q368.505 626.9668 368.99948 625.29205Q369.48618 623.60376 371.32648 622.54126Q373.045 621.5491 374.55624 621.8854Q376.08102 622.21387 376.9404 623.70233Q377.9951 625.5291 377.1265 629.3684L375.89508 634.86053L382.07904 631.2902L382.81342 632.5622ZM388.95663 622.0151Q390.54257 624.76196 390.38232 626.6407Q390.22208 628.51935 388.2194 629.6756Q386.24377 630.8162 384.53876 630.05054Q382.8337 629.28485 381.30664 626.7024L380.10352 624.6185Q378.5332 621.8987 378.70908 620.04706Q378.8907 618.1741 380.89337 617.0178Q382.8825 615.8694 384.55838 616.6158Q386.22644 617.34875 387.78476 619.9853L388.95663 622.0151ZM386.1661 620.7755Q385.01767 618.7863 383.9259 618.2078Q382.83987 617.608 381.63556 618.3033Q380.43124 618.9986 380.39987 620.2256Q380.38205 621.4447 381.45444 623.3334L382.89975 625.83673Q384.0482 627.8259 385.1712 628.4585Q386.29996 629.0698 387.4772 628.39014Q388.64093 627.71826 388.6801 626.5048Q388.73282 625.2836 387.64267 623.33295L386.1661 620.7755ZM398.94315 623.2497L397.35995 624.16376L391.33652 613.7309L388.8555 616.7149L388.0352 615.29407L391.55896 611.0224L391.80252 610.8818L398.94315 623.2497ZM400.4821 614.134L397.55765 607.6312L403.8634 603.9906L404.69934 605.4385L399.7197 608.3135L401.29184 611.88025Q401.89377 610.8291 403.04398 610.16504Q404.7219 609.1963 406.35034 609.73553Q407.97876 610.27484 409.0725 612.16925Q410.17407 614.0772 409.77847 615.767Q409.3829 617.45685 407.54257 618.51935Q405.90524 619.46466 404.35342 619.1518Q402.80157 618.8389 401.73083 617.3281L403.21933 616.46875Q403.96402 617.4461 404.88544 617.6358Q405.79907 617.812 406.80038 617.2339Q407.89645 616.6011 408.08923 615.49744Q408.282 614.3938 407.5242 613.08124Q406.81326 611.84985 405.70697 611.4963Q404.5929 611.1291 403.4833 611.7697Q402.4549 612.36346 402.13086 613.14594L401.90668 613.72644L400.4821 614.134ZM413.93668 616.0005L412.5835 616.78174L410.00677 600.4437L411.3464 599.6703L413.93668 616.0005ZM424.46368 601.5151Q426.04962 604.26196 425.88937 606.1407Q425.72913 608.01935 423.72644 609.1756Q421.75082 610.3162 420.04578 609.55054Q418.34076 608.78485 416.8137 606.2024L415.61057 604.1185Q414.04025 601.3987 414.21613 599.54706Q414.39774 597.6741 416.4004 596.5178Q418.38956 595.3694 420.06543 596.1158Q421.7335 596.84875 423.2918 599.4853L424.46368 601.5151ZM421.67316 600.2755Q420.52472 598.2863 419.43295 597.7078Q418.34692 597.108 417.14258 597.8033Q415.93826 598.4986 415.90692 599.7256Q415.8891 600.9447 416.9615 602.8334L418.4068 605.33673Q419.55524 607.3259 420.67825 607.9585Q421.807 608.5698 422.98425 607.89014Q424.14798 607.21826 424.18713 606.0048Q424.23984 604.7836 423.14972 602.83295L421.67316 600.2755ZM434.4502 602.7497L432.86697 603.66376L426.84354 593.2309L424.36255 596.2149L423.54224 594.79407L427.066 590.5224L427.30957 590.3818L434.4502 602.7497Z" fill-rule="nonzero"/><path fill="#d9d9d9" d="M517.35614 632.5622L509.2913 637.21844L508.64285 636.09534L510.17096 628.8983Q510.49316 627.2689 510.46216 626.4027Q510.4369 625.5152 510.02283 624.79803Q509.46814 623.8373 508.52692 623.5508Q507.5857 623.2643 506.6114 623.8268Q505.43414 624.5065 505.17526 625.55804Q504.9221 626.58826 505.60178 627.7655L504.0321 628.67175Q503.04773 626.9668 503.54224 625.29205Q504.0289 623.60376 505.8692 622.54126Q507.58774 621.5491 509.09897 621.8854Q510.62375 622.21387 511.48312 623.70233Q512.53784 625.5291 511.66922 629.3684L510.4378 634.86053L516.62177 631.2902L517.35614 632.5622ZM523.4994 622.0151Q525.0853 624.76196 524.92505 626.6407Q524.76483 628.51935 522.76215 629.6756Q520.7865 630.8162 519.0815 630.05054Q517.37646 629.28485 515.84937 626.7024L514.64624 624.6185Q513.0759 621.8987 513.25183 620.04706Q513.4334 618.1741 515.4361 617.0178Q517.42523 615.8694 519.10114 616.61584Q520.76917 617.34875 522.3275 619.9853L523.4994 622.0151ZM520.70886 620.7755Q519.5604 618.7863 518.4686 618.2078Q517.38257 617.60803 516.1783 618.30334Q514.97394 618.99866 514.9426 620.2256Q514.92474 621.4447 515.9972 623.3334L517.4425 625.83673Q518.59094 627.8259 519.7139 628.4585Q520.84265 629.0698 522.01996 628.39014Q523.18365 627.71826 523.22284 626.5048Q523.2755 625.2836 522.1854 623.33295L520.70886 620.7755ZM533.4859 623.2497L531.90265 624.16376L525.8792 613.7309L523.39825 616.7149L522.57794 615.29407L526.1017 611.0224L526.3453 610.8818L533.4859 623.2497ZM536.88275 604.85205L537.6484 606.17816L537.36426 606.3422Q535.5609 607.4375 535.08777 609.118Q534.60675 610.7849 535.54596 612.7866Q535.8718 611.101 537.54974 610.13226Q539.16 609.2026 540.777 609.78455Q542.394 610.3665 543.42523 612.1527Q544.5268 614.06067 544.1489 615.8124Q543.76324 617.5506 542.0312 618.5506Q540.25854 619.57404 538.3812 618.8537Q536.4961 618.1198 535.2617 615.9818L534.91016 615.3729Q532.9492 611.97644 533.35803 609.3408Q533.76685 606.70514 536.6121 605.0083L536.88275 604.85205ZM538.0426 611.5797Q537.2307 612.04846 536.8354 612.9263Q536.44006 613.804 536.59705 614.6696L536.933 615.25146Q537.808 616.767 539.0236 617.31006Q540.2528 617.84534 541.2812 617.2516Q542.3367 616.6422 542.48676 615.52716Q542.6425 614.39075 541.91595 613.1323Q541.1816 611.86035 540.11957 611.42706Q539.0575 610.9938 538.0426 611.5797ZM548.4794 616.0005L547.1262 616.78174L544.5495 600.4437L545.88916 599.6703L548.4794 616.0005ZM559.0064 601.5151Q560.59235 604.26196 560.43207 606.1407Q560.27185 608.01935 558.26917 609.1756Q556.2935 610.3162 554.5885 609.55054Q552.8835 608.78485 551.35645 606.2024L550.1533 604.1185Q548.583 601.3987 548.75885 599.54706Q548.9404 597.6741 550.9431 596.5178Q552.9323 595.3694 554.60815 596.11584Q556.2762 596.84875 557.83453 599.4853L559.0064 601.5151ZM556.2159 600.2755Q555.06744 598.2863 553.9757 597.7078Q552.88965 597.10803 551.6853 597.80334Q550.481 598.49866 550.44965 599.7256Q550.4318 600.9447 551.5042 602.8334L552.9495 605.33673Q554.09796 607.3259 555.221 607.9585Q556.34973 608.5698 557.527 607.89014Q558.6907 607.21826 558.72986 606.0048Q558.7826 604.7836 557.69244 602.83295L556.2159 600.2755ZM568.9929 602.7497L567.4097 603.66376L561.3863 593.2309L558.9053 596.2149L558.08496 594.79407L561.6087 590.5224L561.8523 590.3818L568.9929 602.7497Z" fill-rule="nonzero"/><path fill="#d9d9d9" d="M652.2675 632.5622L644.20264 637.21844L643.5542 636.09534L645.08234 628.8983Q645.40454 627.2689 645.37354 626.4027Q645.34827 625.5152 644.9342 624.79803Q644.3795 623.8373 643.4383 623.5508Q642.4971 623.2642 641.52277 623.8267Q640.3455 624.5064 640.0866 625.558Q639.83344 626.58826 640.5131 627.7655L638.9435 628.67175Q637.9591 626.96674 638.4536 625.292Q638.9403 623.60376 640.7806 622.54126Q642.4991 621.5491 644.0104 621.8854Q645.53516 622.21387 646.39453 623.70233Q647.4492 625.5291 646.58057 629.3684L645.3492 634.86053L651.53314 631.2902L652.2675 632.5622ZM658.4107 622.015Q659.99664 624.76196 659.8364 626.6407Q659.67615 628.51935 657.6735 629.6756Q655.6979 630.8162 653.99286 630.05054Q652.28784 629.28485 650.76074 626.7024L649.5576 624.6185Q647.9873 621.8987 648.1632 620.047Q648.3448 618.1741 650.3475 617.0178Q652.3366 615.8694 654.0125 616.6158Q655.68054 617.3487 657.23883 619.9853L658.4107 622.015ZM655.62024 620.77545Q654.4718 618.7863 653.38 618.2078Q652.29395 617.608 651.08966 618.3033Q649.8853 618.9986 649.85394 620.2255Q649.8361 621.44464 650.90857 623.3334L652.3539 625.83673Q653.5023 627.82587 654.6253 628.4585Q655.754 629.06976 656.93134 628.3901Q658.09503 627.7182 658.1342 626.5048Q658.1869 625.2836 657.0968 623.33295L655.62024 620.77545ZM668.3973 623.2497L666.814 624.16376L660.7906 613.73083L658.30963 616.7149L657.4893 615.29407L661.01306 611.0224L661.25665 610.8818L668.3973 623.2497ZM674.123 604.69824L675.62317 619.0778L673.98584 620.02313L672.70654 606.0573L666.0354 609.9089L665.2932 608.6234L673.6152 603.8187L674.123 604.69824ZM683.39075 616.0005L682.0376 616.78174L679.4609 600.4437L680.80054 599.6703L683.39075 616.0005ZM693.9178 601.515Q695.5037 604.26196 695.34344 606.1407Q695.1832 608.01935 693.18054 609.1756Q691.2049 610.3162 689.4999 609.55054Q687.79486 608.78485 686.2678 606.2024L685.0647 604.1185Q683.4944 601.3987 683.6702 599.547Q683.8518 597.6741 685.8545 596.5178Q687.8436 595.3694 689.51953 596.1158Q691.18756 596.8487 692.7459 599.4853L693.9178 601.515ZM691.12726 600.27545Q689.9788 598.2863 688.8871 597.7078Q687.801 597.108 686.5967 597.8033Q685.3924 598.4986 685.361 599.7255Q685.3432 600.94464 686.4156 602.8334L687.8609 605.33673Q689.00934 607.32587 690.1324 607.9585Q691.2611 608.56976 692.43835 607.8901Q693.60205 607.2182 693.64124 606.0048Q693.694 604.7836 692.6038 602.83295L691.12726 600.27545ZM703.9043 602.7497L702.3211 603.66376L696.29767 593.23083L693.81665 596.2149L692.99634 594.79407L696.5201 590.5224L696.7637 590.3818L703.9043 602.7497Z" fill-rule="nonzero"/><path fill="#d9d9d9" d="M786.81024 632.5622L778.74536 637.21844L778.0969 636.09534L779.62506 628.8983Q779.94727 627.2689 779.91626 626.4027Q779.891 625.5152 779.4769 624.79803Q778.92224 623.8373 777.981 623.5508Q777.0398 623.2642 776.0655 623.8267Q774.88824 624.5064 774.62933 625.558Q774.37616 626.58826 775.05585 627.7655L773.4862 628.67175Q772.50183 626.9668 772.99634 625.292Q773.48303 623.60376 775.3233 622.54126Q777.0418 621.5491 778.5531 621.8854Q780.0779 622.21387 780.93726 623.70233Q781.99194 625.5291 781.12335 629.3684L779.8919 634.86053L786.07587 631.2902L786.81024 632.5622ZM792.9534 622.015Q794.53937 624.76196 794.37915 626.6407Q794.21893 628.51935 792.21625 629.6756Q790.2406 630.8162 788.5356 630.05054Q786.83057 629.28485 785.30347 626.7024L784.10034 624.6185Q782.53 621.8987 782.70593 620.047Q782.8875 618.1741 784.8902 617.0178Q786.87933 615.8694 788.55524 616.6158Q790.22327 617.3487 791.78156 619.9853L792.9534 622.015ZM790.16296 620.77545Q789.0145 618.7863 787.9227 618.2078Q786.8367 617.608 785.6324 618.3033Q784.42804 618.9986 784.3967 620.2255Q784.37885 621.4447 785.4513 623.3334L786.8966 625.83673Q788.04504 627.82587 789.168 628.4585Q790.29675 629.06976 791.47406 628.3901Q792.63776 627.7182 792.67694 626.5048Q792.7296 625.2836 791.6395 623.33295L790.16296 620.77545ZM802.94 623.2497L801.35675 624.16376L795.3333 613.73083L792.85236 616.7149L792.03204 615.29407L795.5558 611.0224L795.7994 610.8818L802.94 623.2497ZM809.5359 607.29913Q810.07495 608.23285 810.0019 609.23126Q809.9288 610.2297 809.3242 611.12Q810.53284 610.96344 811.5486 611.4415Q812.5779 611.91174 813.156 612.9131Q814.0779 614.5098 813.55 616.0956Q813.01434 617.6678 811.25525 618.6834Q809.4826 619.70685 807.8667 619.37683Q806.24304 619.03326 805.32117 617.4365Q804.75085 616.4487 804.8312 615.3378Q804.91724 614.2056 805.6358 613.2315Q804.576 613.30206 803.6883 612.85834Q802.80066 612.4146 802.2694 611.49445Q801.371 609.9383 801.8489 608.45355Q802.319 606.9553 803.94275 606.0178Q805.5665 605.0803 807.0991 605.4223Q808.63745 605.743 809.5359 607.29913ZM811.5707 613.7923Q810.9769 612.76385 809.9389 612.4972Q808.90656 612.2091 807.8511 612.8185Q806.7956 613.42786 806.5346 614.4446Q806.2658 615.44775 806.8752 616.50323Q807.47675 617.54517 808.4508 617.79474Q809.417 618.0307 810.51306 617.3979Q811.6227 616.75726 811.90137 615.80255Q812.17224 614.8342 811.5707 613.7923ZM804.68494 607.3033Q803.7648 607.83453 803.5324 608.74457Q803.2922 609.641 803.8547 610.6153Q804.40155 611.5625 805.2923 611.82404Q806.1887 612.0643 807.12244 611.5252Q808.06964 610.97833 808.2963 610.08966Q808.5287 609.1797 807.9896 608.246Q807.44275 607.29877 806.51715 607.0393Q805.59155 606.77985 804.68494 607.3033ZM817.9335 616.0005L816.5803 616.78174L814.0036 600.4437L815.34326 599.6703L817.9335 616.0005ZM828.4605 601.515Q830.04645 604.26196 829.88617 606.1407Q829.72595 608.01935 827.72327 609.1756Q825.7476 610.3162 824.0426 609.55054Q822.3376 608.78485 820.81055 606.2024L819.6074 604.1185Q818.0371 601.3987 818.21295 599.547Q818.39453 597.6741 820.3972 596.5178Q822.38635 595.3694 824.06226 596.1158Q825.7303 596.8487 827.28864 599.4853L828.4605 601.515ZM825.67 600.27545Q824.52155 598.2863 823.4298 597.7078Q822.34375 597.108 821.1394 597.8033Q819.9351 598.4986 819.90375 599.7255Q819.8859 600.9447 820.9583 602.8334L822.4036 605.33673Q823.55206 607.32587 824.6751 607.9585Q825.80383 608.56976 826.9811 607.8901Q828.1448 607.2182 828.18396 606.0048Q828.2367 604.7836 827.14655 602.83295L825.67 600.27545ZM838.447 602.7497L836.86383 603.66376L830.8404 593.23083L828.3594 596.2149L827.53906 594.79407L831.0628 590.5224L831.3064 590.3818L838.447 602.7497Z" fill-rule="nonzero"/><path fill="#d9d9d9" d="M921.35297 632.5622L913.2881 637.21844L912.63965 636.09534L914.1678 628.8983Q914.49 627.2689 914.459 626.4027Q914.4337 625.5152 914.01965 624.79803Q913.46497 623.8373 912.52374 623.5508Q911.5825 623.2642 910.6082 623.8267Q909.43097 624.5064 909.17206 625.55804Q908.9189 626.58826 909.5986 627.7655L908.02893 628.67175Q907.04456 626.9668 907.53906 625.29205Q908.02576 623.60376 909.866 622.54126Q911.58453 621.5491 913.0958 621.8854Q914.6206 622.21387 915.48 623.70233Q916.53467 625.5291 915.6661 629.3684L914.43463 634.86053L920.6186 631.2902L921.35297 632.5622ZM927.49615 622.0151Q929.0821 624.76196 928.9219 626.6407Q928.76166 628.51935 926.759 629.6756Q924.7833 630.8162 923.0783 630.05054Q921.3733 629.28485 919.8462 626.7024L918.64307 624.6185Q917.07275 621.8987 917.24866 620.04706Q917.43024 618.1741 919.4329 617.0178Q921.42206 615.8694 923.09796 616.6158Q924.766 617.3487 926.3243 619.9853L927.49615 622.0151ZM924.7057 620.7755Q923.55725 618.7863 922.46545 618.2078Q921.3794 617.608 920.1751 618.3033Q918.97076 618.9986 918.93945 620.2256Q918.9216 621.4447 919.994 623.3334L921.43933 625.83673Q922.58777 627.82587 923.71075 628.4585Q924.8395 629.0698 926.0168 628.39014Q927.1805 627.71826 927.21967 626.5048Q927.27234 625.2836 926.18225 623.33295L924.7057 620.7755ZM937.4827 623.2497L935.8995 624.16376L929.87604 613.73083L927.3951 616.7149L926.57477 615.29407L930.0985 611.0224L930.3421 610.8818L937.4827 623.2497ZM944.73645 611.84485Q944.58527 612.70795 944.1061 613.47174Q943.6326 614.21423 942.82074 614.683Q941.7517 615.3002 940.6487 615.23334Q939.55914 615.15875 938.5793 614.46155Q937.6051 613.743 936.94104 612.5928Q936.2301 611.3614 936.1199 610.108Q936.0232 608.84674 936.571 607.8268Q937.1323 606.7991 938.2825 606.135Q940.10925 605.0803 941.9538 605.83765Q943.79834 606.595 945.1655 608.963L945.42334 609.40955Q947.50146 613.009 947.03375 615.4801Q946.56604 617.9513 943.7286 619.6617L943.4309 619.83356L942.6653 618.50745L942.99005 618.31995Q944.9094 617.1757 945.38885 615.59985Q945.8605 614.0105 944.73645 611.84485ZM942.3278 613.2355Q943.1127 612.78235 943.50226 611.92596Q943.8841 611.05597 943.7677 610.16693L943.4083 609.5445Q942.5177 608.0019 941.3 607.42395Q940.0823 606.846 939.05383 607.43976Q938.02545 608.0335 937.8504 609.19904Q937.681 610.34326 938.4232 611.6288Q939.1498 612.8872 940.2353 613.3611Q941.313 613.8214 942.3278 613.2355ZM952.4762 616.0005L951.12305 616.78174L948.5463 600.4437L949.886 599.6703L952.4762 616.0005ZM963.00323 601.5151Q964.5892 604.26196 964.4289 606.1407Q964.2687 608.01935 962.266 609.1756Q960.29034 610.3162 958.5853 609.55054Q956.8803 608.78485 955.3533 606.2024L954.15015 604.1185Q952.57983 601.3987 952.7557 599.54706Q952.93726 597.6741 954.93994 596.5178Q956.9291 595.3694 958.605 596.1158Q960.273 596.8487 961.83136 599.4853L963.00323 601.5151ZM960.2127 600.2755Q959.0643 598.2863 957.97253 597.7078Q956.8865 597.108 955.6821 597.8033Q954.47784 598.4986 954.4465 599.7256Q954.42865 600.9447 955.50104 602.8334L956.94635 605.33673Q958.0948 607.32587 959.21783 607.9585Q960.34656 608.5698 961.5238 607.89014Q962.6875 607.21826 962.7267 606.0048Q962.7794 604.7836 961.6893 602.83295L960.2127 600.2755ZM972.98975 602.7497L971.40656 603.66376L965.3831 593.23083L962.9021 596.2149L962.0818 594.79407L965.6055 590.5224L965.8491 590.3818L972.98975 602.7497Z" fill-rule="nonzero"/><path fill="#6d9eeb" d="M170.5 110.416664C170.5 113.73038 167.8137 116.416664 164.5 116.416664C161.1863 116.416664 158.5 113.73038 158.5 110.416664C158.5 107.10296 161.1863 104.416664 164.5 104.416664C167.8137 104.416664 170.5 107.10296 170.5 110.416664Z" fill-rule="nonzero"/><path fill="#d9d9d9" d="M182.03125 111.854164L182.03125 117.416664L180.15625 117.416664L180.15625 103.197914L185.39062 103.197914Q187.73438 103.197914 189.04688 104.385414Q190.375 105.572914 190.375 107.541664Q190.375 109.61979 189.07812 110.74479Q187.78125 111.854164 185.375 111.854164L182.03125 111.854164ZM182.03125 110.322914L185.39062 110.322914Q186.90625 110.322914 187.70312 109.61979Q188.5 108.90104 188.5 107.55729Q188.5 106.291664 187.70312 105.541664Q186.90625 104.77604 185.5 104.74479L182.03125 104.74479L182.03125 110.322914ZM199.39062 116.36979Q198.34375 117.61979 196.29688 117.61979Q194.60938 117.61979 193.71875 116.635414Q192.84375 115.65104 192.82812 113.729164L192.82812 106.854164L194.64062 106.854164L194.64062 113.68229Q194.64062 116.072914 196.59375 116.072914Q198.65625 116.072914 199.34375 114.541664L199.34375 106.854164L201.15625 106.854164L201.15625 117.416664L199.4375 117.416664L199.39062 116.36979ZM212.8125 112.24479Q212.8125 114.666664 211.70312 116.15104Q210.59375 117.61979 208.71875 117.61979Q206.70312 117.61979 205.60938 116.197914L205.53125 117.416664L203.875 117.416664L203.875 102.416664L205.67188 102.416664L205.67188 108.010414Q206.76562 106.65104 208.6875 106.65104Q210.60938 106.65104 211.70312 108.104164Q212.8125 109.55729 212.8125 112.08854L212.8125 112.24479ZM211.0 112.041664Q211.0 110.197914 210.28125 109.197914Q209.57812 108.18229 208.25 108.18229Q206.45312 108.18229 205.67188 109.854164L205.67188 114.416664Q206.5 116.072914 208.26562 116.072914Q209.5625 116.072914 210.28125 115.072914Q211.0 114.072914 211.0 112.041664ZM216.82812 117.416664L215.03125 117.416664L215.03125 102.416664L216.82812 102.416664L216.82812 117.416664ZM221.82812 117.416664L220.03125 117.416664L220.03125 106.854164L221.82812 106.854164L221.82812 117.416664ZM219.875 104.041664Q219.875 103.604164 220.14062 103.30729Q220.42188 102.99479 220.9375 102.99479Q221.46875 102.99479 221.73438 103.30729Q222.01562 103.604164 222.01562 104.041664Q222.01562 104.479164 221.73438 104.77604Q221.46875 105.072914 220.9375 105.072914Q220.42188 105.072914 220.14062 104.77604Q219.875 104.479164 219.875 104.041664ZM229.10938 116.135414Q230.07812 116.135414 230.79688 115.55729Q231.51562 114.96354 231.59375 114.08854L233.3125 114.08854Q233.25 114.99479 232.67188 115.822914Q232.10938 116.635414 231.14062 117.135414Q230.1875 117.61979 229.10938 117.61979Q226.95312 117.61979 225.67188 116.18229Q224.40625 114.729164 224.40625 112.229164L224.40625 111.93229Q224.40625 110.385414 224.96875 109.18229Q225.53125 107.979164 226.59375 107.322914Q227.65625 106.65104 229.09375 106.65104Q230.875 106.65104 232.04688 107.71354Q233.23438 108.77604 233.3125 110.479164L231.59375 110.479164Q231.51562 109.46354 230.8125 108.80729Q230.125 108.135414 229.09375 108.135414Q227.71875 108.135414 226.95312 109.135414Q226.20312 110.11979 226.20312 111.99479L226.20312 112.33854Q226.20312 114.166664 226.95312 115.15104Q227.70312 116.135414 229.10938 116.135414ZM244.34375 111.072914Q241.92188 110.385414 240.82812 109.385414Q239.73438 108.36979 239.73438 106.885414Q239.73438 105.197914 241.07812 104.104164Q242.42188 102.99479 244.5625 102.99479Q246.03125 102.99479 247.17188 103.572914Q248.32812 104.135414 248.95312 105.135414Q249.57812 106.11979 249.57812 107.30729L247.70312 107.30729Q247.70312 106.02604 246.875 105.291664Q246.0625 104.541664 244.5625 104.541664Q243.17188 104.541664 242.39062 105.15104Q241.625 105.760414 241.625 106.854164Q241.625 107.71354 242.35938 108.322914Q243.09375 108.916664 244.85938 109.416664Q246.64062 109.916664 247.64062 110.52604Q248.64062 111.11979 249.125 111.916664Q249.60938 112.71354 249.60938 113.80729Q249.60938 115.52604 248.26562 116.572914Q246.92188 117.61979 244.65625 117.61979Q243.20312 117.61979 241.92188 117.05729Q240.65625 116.49479 239.96875 115.52604Q239.28125 114.541664 239.28125 113.291664L241.17188 113.291664Q241.17188 114.58854 242.125 115.33854Q243.07812 116.072914 244.65625 116.072914Q246.14062 116.072914 246.9375 115.479164Q247.73438 114.86979 247.73438 113.822914Q247.73438 112.77604 247.0 112.21354Q246.26562 111.635414 244.34375 111.072914ZM256.25 117.61979Q254.10938 117.61979 252.75 116.21354Q251.40625 114.791664 251.40625 112.43229L251.40625 112.08854Q251.40625 110.52604 252.0 109.291664Q252.60938 108.05729 253.6875 107.354164Q254.76562 106.65104 256.03125 106.65104Q258.09375 106.65104 259.23438 108.010414Q260.375 109.36979 260.375 111.90104L260.375 112.65104L253.21875 112.65104Q253.25 114.21354 254.125 115.18229Q255.0 116.135414 256.34375 116.135414Q257.3125 116.135414 257.96875 115.74479Q258.64062 115.354164 259.14062 114.71354L260.23438 115.572914Q258.90625 117.61979 256.25 117.61979ZM256.03125 108.135414Q254.9375 108.135414 254.1875 108.93229Q253.45312 109.729164 253.28125 111.166664L258.5625 111.166664L258.5625 111.02604Q258.48438 109.65104 257.8125 108.90104Q257.15625 108.135414 256.03125 108.135414ZM267.96875 108.46354Q267.5625 108.40104 267.09375 108.40104Q265.3125 108.40104 264.67188 109.916664L264.67188 117.416664L262.875 117.416664L262.875 106.854164L264.625 106.854164L264.65625 108.072914Q265.54688 106.65104 267.17188 106.65104Q267.70312 106.65104 267.96875 106.791664L267.96875 108.46354ZM273.35938 114.96354L275.96875 106.854164L277.8125 106.854164L274.03125 117.416664L272.65625 117.416664L268.82812 106.854164L270.67188 106.854164L273.35938 114.96354ZM284.25 117.61979Q282.10938 117.61979 280.75 116.21354Q279.40625 114.791664 279.40625 112.43229L279.40625 112.08854Q279.40625 110.52604 280.0 109.291664Q280.60938 108.05729 281.6875 107.354164Q282.76562 106.65104 284.03125 106.65104Q286.09375 106.65104 287.23438 108.010414Q288.375 109.36979 288.375 111.90104L288.375 112.65104L281.21875 112.65104Q281.25 114.21354 282.125 115.18229Q283.0 116.135414 284.34375 116.135414Q285.3125 116.135414 285.96875 115.74479Q286.64062 115.354164 287.14062 114.71354L288.23438 115.572914Q286.90625 117.61979 284.25 117.61979ZM284.03125 108.135414Q282.9375 108.135414 282.1875 108.93229Q281.45312 109.729164 281.28125 111.166664L286.5625 111.166664L286.5625 111.02604Q286.48438 109.65104 285.8125 108.90104Q285.15625 108.135414 284.03125 108.135414ZM295.96875 108.46354Q295.5625 108.40104 295.09375 108.40104Q293.3125 108.40104 292.67188 109.916664L292.67188 117.416664L290.875 117.416664L290.875 106.854164L292.625 106.854164L292.65625 108.072914Q293.54688 106.65104 295.17188 106.65104Q295.70312 106.65104 295.96875 106.791664L295.96875 108.46354ZM304.01562 114.61979Q304.01562 113.885414 303.46875 113.479164Q302.92188 113.072914 301.54688 112.77604Q300.17188 112.479164 299.35938 112.072914Q298.5625 111.666664 298.17188 111.104164Q297.79688 110.52604 297.79688 109.74479Q297.79688 108.447914 298.89062 107.55729Q299.98438 106.65104 301.70312 106.65104Q303.5 106.65104 304.60938 107.58854Q305.73438 108.510414 305.73438 109.947914L303.90625 109.947914Q303.90625 109.21354 303.28125 108.68229Q302.65625 108.135414 301.70312 108.135414Q300.70312 108.135414 300.14062 108.572914Q299.59375 108.99479 299.59375 109.697914Q299.59375 110.33854 300.10938 110.68229Q300.625 111.010414 301.98438 111.322914Q303.34375 111.61979 304.17188 112.041664Q305.01562 112.447914 305.42188 113.041664Q305.82812 113.635414 305.82812 114.479164Q305.82812 115.90104 304.6875 116.760414Q303.5625 117.61979 301.75 117.61979Q300.48438 117.61979 299.5 117.166664Q298.53125 116.71354 297.96875 115.916664Q297.42188 115.104164 297.42188 114.166664L299.23438 114.166664Q299.28125 115.072914 299.95312 115.604164Q300.64062 116.135414 301.75 116.135414Q302.78125 116.135414 303.39062 115.729164Q304.01562 115.30729 304.01562 114.61979Z" fill-rule="nonzero"/><path fill="#ffff00" d="M334.5 110.416664C334.5 113.73038 331.81372 116.416664 328.5 116.416664C325.18628 116.416664 322.5 113.73038 322.5 110.416664C322.5 107.10296 325.18628 104.416664 328.5 104.416664C331.81372 104.416664 334.5 107.10296 334.5 110.416664Z" fill-rule="nonzero"/><path fill="#d9d9d9" d="M354.60938 112.90104Q354.34375 115.166664 352.9375 116.40104Q351.54688 117.61979 349.21875 117.61979Q346.70312 117.61979 345.17188 115.80729Q343.65625 113.99479 343.65625 110.96354L343.65625 109.604164Q343.65625 107.61979 344.35938 106.11979Q345.07812 104.61979 346.375 103.80729Q347.67188 102.99479 349.39062 102.99479Q351.65625 102.99479 353.01562 104.260414Q354.39062 105.52604 354.60938 107.760414L352.71875 107.760414Q352.48438 106.072914 351.65625 105.30729Q350.84375 104.541664 349.39062 104.541664Q347.59375 104.541664 346.5625 105.86979Q345.54688 107.197914 345.54688 109.65104L345.54688 111.02604Q345.54688 113.33854 346.51562 114.71354Q347.48438 116.072914 349.21875 116.072914Q350.78125 116.072914 351.60938 115.36979Q352.45312 114.666664 352.71875 112.90104L354.60938 112.90104ZM356.39062 112.041664Q356.39062 110.479164 357.0 109.24479Q357.60938 107.99479 358.6875 107.322914Q359.78125 106.65104 361.1875 106.65104Q363.34375 106.65104 364.67188 108.15104Q366.01562 109.635414 366.01562 112.11979L366.01562 112.24479Q366.01562 113.791664 365.42188 115.02604Q364.82812 116.24479 363.71875 116.93229Q362.625 117.61979 361.20312 117.61979Q359.0625 117.61979 357.71875 116.11979Q356.39062 114.61979 356.39062 112.166664L356.39062 112.041664ZM358.20312 112.24479Q358.20312 114.010414 359.01562 115.072914Q359.84375 116.135414 361.20312 116.135414Q362.57812 116.135414 363.39062 115.05729Q364.20312 113.979164 364.20312 112.041664Q364.20312 110.291664 363.375 109.21354Q362.54688 108.135414 361.1875 108.135414Q359.84375 108.135414 359.01562 109.197914Q358.20312 110.260414 358.20312 112.24479ZM369.57812 106.854164L369.64062 108.18229Q370.84375 106.65104 372.79688 106.65104Q376.15625 106.65104 376.17188 110.43229L376.17188 117.416664L374.375 117.416664L374.375 110.416664Q374.35938 109.27604 373.84375 108.729164Q373.34375 108.18229 372.25 108.18229Q371.375 108.18229 370.70312 108.65104Q370.04688 109.11979 369.67188 109.885414L369.67188 117.416664L367.875 117.416664L367.875 106.854164L369.57812 106.854164ZM381.3125 104.291664L381.3125 106.854164L383.29688 106.854164L383.29688 108.24479L381.3125 108.24479L381.3125 114.791664Q381.3125 115.43229 381.57812 115.760414Q381.84375 116.072914 382.48438 116.072914Q382.79688 116.072914 383.34375 115.947914L383.34375 117.416664Q382.625 117.61979 381.95312 117.61979Q380.75 117.61979 380.125 116.885414Q379.51562 116.15104 379.51562 114.791664L379.51562 108.24479L377.59375 108.24479L377.59375 106.854164L379.51562 106.854164L379.51562 104.291664L381.3125 104.291664ZM392.39062 117.416664Q392.23438 117.104164 392.14062 116.30729Q390.875 117.61979 389.125 117.61979Q387.5625 117.61979 386.5625 116.729164Q385.5625 115.83854 385.5625 114.479164Q385.5625 112.83854 386.8125 111.93229Q388.07812 111.010414 390.34375 111.010414L392.10938 111.010414L392.10938 110.18229Q392.10938 109.229164 391.53125 108.666664Q390.96875 108.104164 389.875 108.104164Q388.90625 108.104164 388.25 108.604164Q387.59375 109.08854 387.59375 109.77604L385.78125 109.77604Q385.78125 108.99479 386.34375 108.260414Q386.90625 107.510414 387.85938 107.08854Q388.82812 106.65104 389.98438 106.65104Q391.8125 106.65104 392.84375 107.572914Q393.875 108.479164 393.92188 110.08854L393.92188 114.947914Q393.92188 116.40104 394.28125 117.260414L394.28125 117.416664L392.39062 117.416664ZM389.39062 116.041664Q390.25 116.041664 391.0 115.604164Q391.76562 115.166664 392.10938 114.46354L392.10938 112.291664L390.6875 112.291664Q387.375 112.291664 387.375 114.229164Q387.375 115.08854 387.9375 115.572914Q388.5 116.041664 389.39062 116.041664ZM398.82812 117.416664L397.03125 117.416664L397.03125 106.854164L398.82812 106.854164L398.82812 117.416664ZM396.875 104.041664Q396.875 103.604164 397.14062 103.30729Q397.42188 102.99479 397.9375 102.99479Q398.46875 102.99479 398.73438 103.30729Q399.01562 103.604164 399.01562 104.041664Q399.01562 104.479164 398.73438 104.77604Q398.46875 105.072914 397.9375 105.072914Q397.42188 105.072914 397.14062 104.77604Q396.875 104.479164 396.875 104.041664ZM403.57812 106.854164L403.64062 108.18229Q404.84375 106.65104 406.79688 106.65104Q410.15625 106.65104 410.17188 110.43229L410.17188 117.416664L408.375 117.416664L408.375 110.416664Q408.35938 109.27604 407.84375 108.729164Q407.34375 108.18229 406.25 108.18229Q405.375 108.18229 404.70312 108.65104Q404.04688 109.11979 403.67188 109.885414L403.67188 117.416664L401.875 117.416664L401.875 106.854164L403.57812 106.854164ZM417.25 117.61979Q415.10938 117.61979 413.75 116.21354Q412.40625 114.791664 412.40625 112.43229L412.40625 112.08854Q412.40625 110.52604 413.0 109.291664Q413.60938 108.05729 414.6875 107.354164Q415.76562 106.65104 417.03125 106.65104Q419.09375 106.65104 420.23438 108.010414Q421.375 109.36979 421.375 111.90104L421.375 112.65104L414.21875 112.65104Q414.25 114.21354 415.125 115.18229Q416.0 116.135414 417.34375 116.135414Q418.3125 116.135414 418.96875 115.74479Q419.64062 115.354164 420.14062 114.71354L421.23438 115.572914Q419.90625 117.61979 417.25 117.61979ZM417.03125 108.135414Q415.9375 108.135414 415.1875 108.93229Q414.45312 109.729164 414.28125 111.166664L419.5625 111.166664L419.5625 111.02604Q419.48438 109.65104 418.8125 108.90104Q418.15625 108.135414 417.03125 108.135414ZM428.96875 108.46354Q428.5625 108.40104 428.09375 108.40104Q426.3125 108.40104 425.67188 109.916664L425.67188 117.416664L423.875 117.416664L423.875 106.854164L425.625 106.854164L425.65625 108.072914Q426.54688 106.65104 428.17188 106.65104Q428.70312 106.65104 428.96875 106.791664L428.96875 108.46354ZM437.01562 114.61979Q437.01562 113.885414 436.46875 113.479164Q435.92188 113.072914 434.54688 112.77604Q433.17188 112.479164 432.35938 112.072914Q431.5625 111.666664 431.17188 111.104164Q430.79688 110.52604 430.79688 109.74479Q430.79688 108.447914 431.89062 107.55729Q432.98438 106.65104 434.70312 106.65104Q436.5 106.65104 437.60938 107.58854Q438.73438 108.510414 438.73438 109.947914L436.90625 109.947914Q436.90625 109.21354 436.28125 108.68229Q435.65625 108.135414 434.70312 108.135414Q433.70312 108.135414 433.14062 108.572914Q432.59375 108.99479 432.59375 109.697914Q432.59375 110.33854 433.10938 110.68229Q433.625 111.010414 434.98438 111.322914Q436.34375 111.61979 437.17188 112.041664Q438.01562 112.447914 438.42188 113.041664Q438.82812 113.635414 438.82812 114.479164Q438.82812 115.90104 437.6875 116.760414Q436.5625 117.61979 434.75 117.61979Q433.48438 117.61979 432.5 117.166664Q431.53125 116.71354 430.96875 115.916664Q430.42188 115.104164 430.42188 114.166664L432.23438 114.166664Q432.28125 115.072914 432.95312 115.604164Q433.64062 116.135414 434.75 116.135414Q435.78125 116.135414 436.39062 115.729164Q437.01562 115.30729 437.01562 114.61979Z" fill-rule="nonzero"/><path fill="#ff9900" d="M467.5 110.416664C467.5 113.73038 464.81372 116.416664 461.5 116.416664C458.18628 116.416664 455.5 113.73038 455.5 110.416664C455.5 107.10296 458.18628 104.416664 461.5 104.416664C464.81372 104.416664 467.5 107.10296 467.5 110.416664Z" fill-rule="nonzero"/><path fill="#d9d9d9" d="M485.0 113.697914L479.04688 113.697914L477.70312 117.416664L475.78125 117.416664L481.20312 103.197914L482.84375 103.197914L488.28125 117.416664L486.35938 117.416664L485.0 113.697914ZM479.60938 112.166664L484.45312 112.166664L482.03125 105.510414L479.60938 112.166664ZM494.10938 116.135414Q495.07812 116.135414 495.79688 115.55729Q496.51562 114.96354 496.59375 114.08854L498.3125 114.08854Q498.25 114.99479 497.67188 115.822914Q497.10938 116.635414 496.14062 117.135414Q495.1875 117.61979 494.10938 117.61979Q491.95312 117.61979 490.67188 116.18229Q489.40625 114.729164 489.40625 112.229164L489.40625 111.93229Q489.40625 110.385414 489.96875 109.18229Q490.53125 107.979164 491.59375 107.322914Q492.65625 106.65104 494.09375 106.65104Q495.875 106.65104 497.04688 107.71354Q498.23438 108.77604 498.3125 110.479164L496.59375 110.479164Q496.51562 109.46354 495.8125 108.80729Q495.125 108.135414 494.09375 108.135414Q492.71875 108.135414 491.95312 109.135414Q491.20312 110.11979 491.20312 111.99479L491.20312 112.33854Q491.20312 114.166664 491.95312 115.15104Q492.70312 116.135414 494.10938 116.135414ZM506.39062 117.416664Q506.23438 117.104164 506.14062 116.30729Q504.875 117.61979 503.125 117.61979Q501.5625 117.61979 500.5625 116.729164Q499.5625 115.83854 499.5625 114.479164Q499.5625 112.83854 500.8125 111.93229Q502.07812 111.010414 504.34375 111.010414L506.10938 111.010414L506.10938 110.18229Q506.10938 109.229164 505.53125 108.666664Q504.96875 108.104164 503.875 108.104164Q502.90625 108.104164 502.25 108.604164Q501.59375 109.08854 501.59375 109.77604L499.78125 109.77604Q499.78125 108.99479 500.34375 108.260414Q500.90625 107.510414 501.85938 107.08854Q502.82812 106.65104 503.98438 106.65104Q505.8125 106.65104 506.84375 107.572914Q507.875 108.479164 507.92188 110.08854L507.92188 114.947914Q507.92188 116.40104 508.28125 117.260414L508.28125 117.416664L506.39062 117.416664ZM503.39062 116.041664Q504.25 116.041664 505.0 115.604164Q505.76562 115.166664 506.10938 114.46354L506.10938 112.291664L504.6875 112.291664Q501.375 112.291664 501.375 114.229164Q501.375 115.08854 501.9375 115.572914Q502.5 116.041664 503.39062 116.041664ZM510.42188 112.041664Q510.42188 109.61979 511.57812 108.135414Q512.7344 106.65104 514.59375 106.65104Q516.4531 106.65104 517.53125 107.916664L517.53125 102.416664L519.34375 102.416664L519.34375 117.416664L517.6875 117.416664L517.59375 116.27604Q516.5156 117.61979 514.5781 117.61979Q512.75 117.61979 511.57812 116.11979Q510.42188 114.604164 510.42188 112.18229L510.42188 112.041664ZM512.2344 112.24479Q512.2344 114.041664 512.96875 115.05729Q513.71875 116.072914 515.03125 116.072914Q516.75 116.072914 517.53125 114.541664L517.53125 109.68229Q516.7344 108.18229 515.0469 108.18229Q513.71875 108.18229 512.96875 109.21354Q512.2344 110.24479 512.2344 112.24479ZM526.25 117.61979Q524.1094 117.61979 522.75 116.21354Q521.40625 114.791664 521.40625 112.43229L521.40625 112.08854Q521.40625 110.52604 522.0 109.291664Q522.6094 108.05729 523.6875 107.354164Q524.7656 106.65104 526.03125 106.65104Q528.09375 106.65104 529.2344 108.010414Q530.375 109.36979 530.375 111.90104L530.375 112.65104L523.21875 112.65104Q523.25 114.21354 524.125 115.18229Q525.0 116.135414 526.34375 116.135414Q527.3125 116.135414 527.96875 115.74479Q528.6406 115.354164 529.1406 114.71354L530.2344 115.572914Q528.90625 117.61979 526.25 117.61979ZM526.03125 108.135414Q524.9375 108.135414 524.1875 108.93229Q523.4531 109.729164 523.28125 111.166664L528.5625 111.166664L528.5625 111.02604Q528.4844 109.65104 527.8125 108.90104Q527.15625 108.135414 526.03125 108.135414ZM534.5625 106.854164L534.6094 108.02604Q535.78125 106.65104 537.75 106.65104Q539.96875 106.65104 540.7656 108.354164Q541.2969 107.58854 542.1406 107.11979Q542.9844 106.65104 544.1406 106.65104Q547.6094 106.65104 547.6719 110.33854L547.6719 117.416664L545.8594 117.416664L545.8594 110.447914Q545.8594 109.30729 545.34375 108.74479Q544.8281 108.18229 543.6094 108.18229Q542.6094 108.18229 541.9375 108.791664Q541.28125 109.385414 541.1719 110.40104L541.1719 117.416664L539.3594 117.416664L539.3594 110.49479Q539.3594 108.18229 537.09375 108.18229Q535.3125 108.18229 534.6719 109.697914L534.6719 117.416664L532.8594 117.416664L532.8594 106.854164L534.5625 106.854164ZM552.8281 117.416664L551.03125 117.416664L551.03125 106.854164L552.8281 106.854164L552.8281 117.416664ZM550.875 104.041664Q550.875 103.604164 551.1406 103.30729Q551.4219 102.99479 551.9375 102.99479Q552.46875 102.99479 552.7344 103.30729Q553.0156 103.604164 553.0156 104.041664Q553.0156 104.479164 552.7344 104.77604Q552.46875 105.072914 551.9375 105.072914Q551.4219 105.072914 551.1406 104.77604Q550.875 104.479164 550.875 104.041664ZM560.1094 116.135414Q561.0781 116.135414 561.7969 115.55729Q562.5156 114.96354 562.59375 114.08854L564.3125 114.08854Q564.25 114.99479 563.6719 115.822914Q563.1094 116.635414 562.1406 117.135414Q561.1875 117.61979 560.1094 117.61979Q557.9531 117.61979 556.6719 116.18229Q555.40625 114.729164 555.40625 112.229164L555.40625 111.93229Q555.40625 110.385414 555.96875 109.18229Q556.53125 107.979164 557.59375 107.322914Q558.65625 106.65104 560.09375 106.65104Q561.875 106.65104 563.0469 107.71354Q564.2344 108.77604 564.3125 110.479164L562.59375 110.479164Q562.5156 109.46354 561.8125 108.80729Q561.125 108.135414 560.09375 108.135414Q558.71875 108.135414 557.9531 109.135414Q557.2031 110.11979 557.2031 111.99479L557.2031 112.33854Q557.2031 114.166664 557.9531 115.15104Q558.7031 116.135414 560.1094 116.135414ZM581.6094 112.90104Q581.34375 115.166664 579.9375 116.40104Q578.5469 117.61979 576.21875 117.61979Q573.7031 117.61979 572.1719 115.80729Q570.65625 113.99479 570.65625 110.96354L570.65625 109.604164Q570.65625 107.61979 571.3594 106.11979Q572.0781 104.61979 573.375 103.80729Q574.6719 102.99479 576.3906 102.99479Q578.65625 102.99479 580.0156 104.260414Q581.3906 105.52604 581.6094 107.760414L579.71875 107.760414Q579.4844 106.072914 578.65625 105.30729Q577.84375 104.541664 576.3906 104.541664Q574.59375 104.541664 573.5625 105.86979Q572.5469 107.197914 572.5469 109.65104L572.5469 111.02604Q572.5469 113.33854 573.5156 114.71354Q574.4844 116.072914 576.21875 116.072914Q577.78125 116.072914 578.6094 115.36979Q579.4531 114.666664 579.71875 112.90104L581.6094 112.90104ZM585.8281 117.416664L584.03125 117.416664L584.03125 102.416664L585.8281 102.416664L585.8281 117.416664ZM588.3906 112.041664Q588.3906 110.479164 589.0 109.24479Q589.6094 107.99479 590.6875 107.322914Q591.78125 106.65104 593.1875 106.65104Q595.34375 106.65104 596.6719 108.15104Q598.0156 109.635414 598.0156 112.11979L598.0156 112.24479Q598.0156 113.791664 597.4219 115.02604Q596.8281 116.24479 595.71875 116.93229Q594.625 117.61979 593.2031 117.61979Q591.0625 117.61979 589.71875 116.11979Q588.3906 114.61979 588.3906 112.166664L588.3906 112.041664ZM590.2031 112.24479Q590.2031 114.010414 591.0156 115.072914Q591.84375 116.135414 593.2031 116.135414Q594.5781 116.135414 595.3906 115.05729Q596.2031 113.979164 596.2031 112.041664Q596.2031 110.291664 595.375 109.21354Q594.5469 108.135414 593.1875 108.135414Q591.84375 108.135414 591.0156 109.197914Q590.2031 110.260414 590.2031 112.24479ZM606.3906 116.36979Q605.34375 117.61979 603.2969 117.61979Q601.6094 117.61979 600.71875 116.635414Q599.84375 115.65104 599.8281 113.729164L599.8281 106.854164L601.6406 106.854164L601.6406 113.68229Q601.6406 116.072914 603.59375 116.072914Q605.65625 116.072914 606.34375 114.541664L606.34375 106.854164L608.15625 106.854164L608.15625 117.416664L606.4375 117.416664L606.3906 116.36979ZM610.4219 112.041664Q610.4219 109.61979 611.5781 108.135414Q612.7344 106.65104 614.59375 106.65104Q616.4531 106.65104 617.53125 107.916664L617.53125 102.416664L619.34375 102.416664L619.34375 117.416664L617.6875 117.416664L617.59375 116.27604Q616.5156 117.61979 614.5781 117.61979Q612.75 117.61979 611.5781 116.11979Q610.4219 114.604164 610.4219 112.18229L610.4219 112.041664ZM612.2344 112.24479Q612.2344 114.041664 612.96875 115.05729Q613.71875 116.072914 615.03125 116.072914Q616.75 116.072914 617.53125 114.541664L617.53125 109.68229Q616.7344 108.18229 615.0469 108.18229Q613.71875 108.18229 612.96875 109.21354Q612.2344 110.24479 612.2344 112.24479ZM628.0156 114.61979Q628.0156 113.885414 627.46875 113.479164Q626.9219 113.072914 625.5469 112.77604Q624.1719 112.479164 623.3594 112.072914Q622.5625 111.666664 622.1719 111.104164Q621.7969 110.52604 621.7969 109.74479Q621.7969 108.447914 622.8906 107.55729Q623.9844 106.65104 625.7031 106.65104Q627.5 106.65104 628.6094 107.58854Q629.7344 108.510414 629.7344 109.947914L627.90625 109.947914Q627.90625 109.21354 627.28125 108.68229Q626.65625 108.135414 625.7031 108.135414Q624.7031 108.135414 624.1406 108.572914Q623.59375 108.99479 623.59375 109.697914Q623.59375 110.33854 624.1094 110.68229Q624.625 111.010414 625.9844 111.322914Q627.34375 111.61979 628.1719 112.041664Q629.0156 112.447914 629.4219 113.041664Q629.8281 113.635414 629.8281 114.479164Q629.8281 115.90104 628.6875 116.760414Q627.5625 117.61979 625.75 117.61979Q624.4844 117.61979 623.5 117.166664Q622.53125 116.71354 621.96875 115.916664Q621.4219 115.104164 621.4219 114.166664L623.2344 114.166664Q623.28125 115.072914 623.9531 115.604164Q624.6406 116.135414 625.75 116.135414Q626.78125 116.135414 627.3906 115.729164Q628.0156 115.30729 628.0156 114.61979Z" fill-rule="nonzero"/><path fill="#109618" d="M658.5 110.416664C658.5 113.73038 655.8137 116.416664 652.5 116.416664C649.1863 116.416664 646.5 113.73038 646.5 110.416664C646.5 107.10296 649.1863 104.416664 652.5 104.416664C655.8137 104.416664 658.5 107.10296 658.5 110.416664Z" fill-rule="nonzero"/><path fill="#d9d9d9" d="M678.6094 112.90104Q678.34375 115.166664 676.9375 116.40104Q675.5469 117.61979 673.21875 117.61979Q670.7031 117.61979 669.1719 115.80729Q667.65625 113.99479 667.65625 110.96354L667.65625 109.604164Q667.65625 107.61979 668.3594 106.11979Q669.0781 104.61979 670.375 103.80729Q671.6719 102.99479 673.3906 102.99479Q675.65625 102.99479 677.0156 104.260414Q678.3906 105.52604 678.6094 107.760414L676.71875 107.760414Q676.4844 106.072914 675.65625 105.30729Q674.84375 104.541664 673.3906 104.541664Q671.59375 104.541664 670.5625 105.86979Q669.5469 107.197914 669.5469 109.65104L669.5469 111.02604Q669.5469 113.33854 670.5156 114.71354Q671.4844 116.072914 673.21875 116.072914Q674.78125 116.072914 675.6094 115.36979Q676.4531 114.666664 676.71875 112.90104L678.6094 112.90104ZM680.3906 112.041664Q680.3906 110.479164 681.0 109.24479Q681.6094 107.99479 682.6875 107.322914Q683.78125 106.65104 685.1875 106.65104Q687.34375 106.65104 688.6719 108.15104Q690.0156 109.635414 690.0156 112.11979L690.0156 112.24479Q690.0156 113.791664 689.4219 115.02604Q688.8281 116.24479 687.71875 116.93229Q686.625 117.61979 685.2031 117.61979Q683.0625 117.61979 681.71875 116.11979Q680.3906 114.61979 680.3906 112.166664L680.3906 112.041664ZM682.2031 112.24479Q682.2031 114.010414 683.0156 115.072914Q683.84375 116.135414 685.2031 116.135414Q686.5781 116.135414 687.3906 115.05729Q688.2031 113.979164 688.2031 112.041664Q688.2031 110.291664 687.375 109.21354Q686.5469 108.135414 685.1875 108.135414Q683.84375 108.135414 683.0156 109.197914Q682.2031 110.260414 682.2031 112.24479ZM693.5625 106.854164L693.6094 108.02604Q694.78125 106.65104 696.75 106.65104Q698.96875 106.65104 699.7656 108.354164Q700.2969 107.58854 701.1406 107.11979Q701.9844 106.65104 703.1406 106.65104Q706.6094 106.65104 706.6719 110.33854L706.6719 117.416664L704.8594 117.416664L704.8594 110.447914Q704.8594 109.30729 704.34375 108.74479Q703.8281 108.18229 702.6094 108.18229Q701.6094 108.18229 700.9375 108.791664Q700.28125 109.385414 700.1719 110.40104L700.1719 117.416664L698.3594 117.416664L698.3594 110.49479Q698.3594 108.18229 696.09375 108.18229Q694.3125 108.18229 693.6719 109.697914L693.6719 117.416664L691.8594 117.416664L691.8594 106.854164L693.5625 106.854164ZM711.5625 106.854164L711.6094 108.02604Q712.78125 106.65104 714.75 106.65104Q716.96875 106.65104 717.7656 108.354164Q718.2969 107.58854 719.1406 107.11979Q719.9844 106.65104 721.1406 106.65104Q724.6094 106.65104 724.6719 110.33854L724.6719 117.416664L722.8594 117.416664L722.8594 110.447914Q722.8594 109.30729 722.34375 108.74479Q721.8281 108.18229 720.6094 108.18229Q719.6094 108.18229 718.9375 108.791664Q718.28125 109.385414 718.1719 110.40104L718.1719 117.416664L716.3594 117.416664L716.3594 110.49479Q716.3594 108.18229 714.09375 108.18229Q712.3125 108.18229 711.6719 109.697914L711.6719 117.416664L709.8594 117.416664L709.8594 106.854164L711.5625 106.854164ZM732.25 117.61979Q730.1094 117.61979 728.75 116.21354Q727.40625 114.791664 727.40625 112.43229L727.40625 112.08854Q727.40625 110.52604 728.0 109.291664Q728.6094 108.05729 729.6875 107.354164Q730.7656 106.65104 732.03125 106.65104Q734.09375 106.65104 735.2344 108.010414Q736.375 109.36979 736.375 111.90104L736.375 112.65104L729.21875 112.65104Q729.25 114.21354 730.125 115.18229Q731.0 116.135414 732.34375 116.135414Q733.3125 116.135414 733.96875 115.74479Q734.6406 115.354164 735.1406 114.71354L736.2344 115.572914Q734.90625 117.61979 732.25 117.61979ZM732.03125 108.135414Q730.9375 108.135414 730.1875 108.93229Q729.4531 109.729164 729.28125 111.166664L734.5625 111.166664L734.5625 111.02604Q734.4844 109.65104 733.8125 108.90104Q733.15625 108.135414 732.03125 108.135414ZM743.96875 108.46354Q743.5625 108.40104 743.09375 108.40104Q741.3125 108.40104 740.6719 109.916664L740.6719 117.416664L738.875 117.416664L738.875 106.854164L740.625 106.854164L740.65625 108.072914Q741.5469 106.65104 743.1719 106.65104Q743.7031 106.65104 743.96875 106.791664L743.96875 108.46354ZM750.1094 116.135414Q751.0781 116.135414 751.7969 115.55729Q752.5156 114.96354 752.59375 114.08854L754.3125 114.08854Q754.25 114.99479 753.6719 115.822914Q753.1094 116.635414 752.1406 117.135414Q751.1875 117.61979 750.1094 117.61979Q747.9531 117.61979 746.6719 116.18229Q745.40625 114.729164 745.40625 112.229164L745.40625 111.93229Q745.40625 110.385414 745.96875 109.18229Q746.53125 107.979164 747.59375 107.322914Q748.65625 106.65104 750.09375 106.65104Q751.875 106.65104 753.0469 107.71354Q754.2344 108.77604 754.3125 110.479164L752.59375 110.479164Q752.5156 109.46354 751.8125 108.80729Q751.125 108.135414 750.09375 108.135414Q748.71875 108.135414 747.9531 109.135414Q747.2031 110.11979 747.2031 111.99479L747.2031 112.33854Q747.2031 114.166664 747.9531 115.15104Q748.7031 116.135414 750.1094 116.135414ZM757.8281 117.416664L756.03125 117.416664L756.03125 106.854164L757.8281 106.854164L757.8281 117.416664ZM755.875 104.041664Q755.875 103.604164 756.1406 103.30729Q756.4219 102.99479 756.9375 102.99479Q757.46875 102.99479 757.7344 103.30729Q758.0156 103.604164 758.0156 104.041664Q758.0156 104.479164 757.7344 104.77604Q757.46875 105.072914 756.9375 105.072914Q756.4219 105.072914 756.1406 104.77604Q755.875 104.479164 755.875 104.041664ZM767.3906 117.416664Q767.2344 117.104164 767.1406 116.30729Q765.875 117.61979 764.125 117.61979Q762.5625 117.61979 761.5625 116.729164Q760.5625 115.83854 760.5625 114.479164Q760.5625 112.83854 761.8125 111.93229Q763.0781 111.010414 765.34375 111.010414L767.1094 111.010414L767.1094 110.18229Q767.1094 109.229164 766.53125 108.666664Q765.96875 108.104164 764.875 108.104164Q763.90625 108.104164 763.25 108.604164Q762.59375 109.08854 762.59375 109.77604L760.78125 109.77604Q760.78125 108.99479 761.34375 108.260414Q761.90625 107.510414 762.8594 107.08854Q763.8281 106.65104 764.9844 106.65104Q766.8125 106.65104 767.84375 107.572914Q768.875 108.479164 768.9219 110.08854L768.9219 114.947914Q768.9219 116.40104 769.28125 117.260414L769.28125 117.416664L767.3906 117.416664ZM764.3906 116.041664Q765.25 116.041664 766.0 115.604164Q766.7656 115.166664 767.1094 114.46354L767.1094 112.291664L765.6875 112.291664Q762.375 112.291664 762.375 114.229164Q762.375 115.08854 762.9375 115.572914Q763.5 116.041664 764.3906 116.041664ZM773.8281 117.416664L772.03125 117.416664L772.03125 102.416664L773.8281 102.416664L773.8281 117.416664ZM792.6094 112.90104Q792.34375 115.166664 790.9375 116.40104Q789.5469 117.61979 787.21875 117.61979Q784.7031 117.61979 783.1719 115.80729Q781.65625 113.99479 781.65625 110.96354L781.65625 109.604164Q781.65625 107.61979 782.3594 106.11979Q783.0781 104.61979 784.375 103.80729Q785.6719 102.99479 787.3906 102.99479Q789.65625 102.99479 791.0156 104.260414Q792.3906 105.52604 792.6094 107.760414L790.71875 107.760414Q790.4844 106.072914 789.65625 105.30729Q788.84375 104.541664 787.3906 104.541664Q785.59375 104.541664 784.5625 105.86979Q783.5469 107.197914 783.5469 109.65104L783.5469 111.02604Q783.5469 113.33854 784.5156 114.71354Q785.4844 116.072914 787.21875 116.072914Q788.78125 116.072914 789.6094 115.36979Q790.4531 114.666664 790.71875 112.90104L792.6094 112.90104ZM796.8281 117.416664L795.03125 117.416664L795.03125 102.416664L796.8281 102.416664L796.8281 117.416664ZM799.3906 112.041664Q799.3906 110.479164 800.0 109.24479Q800.6094 107.99479 801.6875 107.322914Q802.78125 106.65104 804.1875 106.65104Q806.34375 106.65104 807.6719 108.15104Q809.0156 109.635414 809.0156 112.11979L809.0156 112.24479Q809.0156 113.791664 808.4219 115.02604Q807.8281 116.24479 806.71875 116.93229Q805.625 117.61979 804.2031 117.61979Q802.0625 117.61979 800.71875 116.11979Q799.3906 114.61979 799.3906 112.166664L799.3906 112.041664ZM801.2031 112.24479Q801.2031 114.010414 802.0156 115.072914Q802.84375 116.135414 804.2031 116.135414Q805.5781 116.135414 806.3906 115.05729Q807.2031 113.979164 807.2031 112.041664Q807.2031 110.291664 806.375 109.21354Q805.5469 108.135414 804.1875 108.135414Q802.84375 108.135414 802.0156 109.197914Q801.2031 110.260414 801.2031 112.24479ZM817.3906 116.36979Q816.34375 117.61979 814.2969 117.61979Q812.6094 117.61979 811.71875 116.635414Q810.84375 115.65104 810.8281 113.729164L810.8281 106.854164L812.6406 106.854164L812.6406 113.68229Q812.6406 116.072914 814.59375 116.072914Q816.65625 116.072914 817.34375 114.541664L817.34375 106.854164L819.15625 106.854164L819.15625 117.416664L817.4375 117.416664L817.3906 116.36979ZM821.4219 112.041664Q821.4219 109.61979 822.5781 108.135414Q823.7344 106.65104 825.59375 106.65104Q827.4531 106.65104 828.53125 107.916664L828.53125 102.416664L830.34375 102.416664L830.34375 117.416664L828.6875 117.416664L828.59375 116.27604Q827.5156 117.61979 825.5781 117.61979Q823.75 117.61979 822.5781 116.11979Q821.4219 114.604164 821.4219 112.18229L821.4219 112.041664ZM823.2344 112.24479Q823.2344 114.041664 823.96875 115.05729Q824.71875 116.072914 826.03125 116.072914Q827.75 116.072914 828.53125 114.541664L828.53125 109.68229Q827.7344 108.18229 826.0469 108.18229Q824.71875 108.18229 823.96875 109.21354Q823.2344 110.24479 823.2344 112.24479ZM839.0156 114.61979Q839.0156 113.885414 838.46875 113.479164Q837.9219 113.072914 836.5469 112.77604Q835.1719 112.479164 834.3594 112.072914Q833.5625 111.666664 833.1719 111.104164Q832.7969 110.52604 832.7969 109.74479Q832.7969 108.447914 833.8906 107.55729Q834.9844 106.65104 836.7031 106.65104Q838.5 106.65104 839.6094 107.58854Q840.7344 108.510414 840.7344 109.947914L838.90625 109.947914Q838.90625 109.21354 838.28125 108.68229Q837.65625 108.135414 836.7031 108.135414Q835.7031 108.135414 835.1406 108.572914Q834.59375 108.99479 834.59375 109.697914Q834.59375 110.33854 835.1094 110.68229Q835.625 111.010414 836.9844 111.322914Q838.34375 111.61979 839.1719 112.041664Q840.0156 112.447914 840.4219 113.041664Q840.8281 113.635414 840.8281 114.479164Q840.8281 115.90104 839.6875 116.760414Q838.5625 117.61979 836.75 117.61979Q835.4844 117.61979 834.5 117.166664Q833.53125 116.71354 832.96875 115.916664Q832.4219 115.104164 832.4219 114.166664L834.2344 114.166664Q834.28125 115.072914 834.9531 115.604164Q835.6406 116.135414 836.75 116.135414Q837.78125 116.135414 838.3906 115.729164Q839.0156 115.30729 839.0156 114.61979Z" fill-rule="nonzero"/><path fill="#990099" d="M869.5 110.416664C869.5 113.73038 866.8137 116.416664 863.5 116.416664C860.1863 116.416664 857.5 113.73038 857.5 110.416664C857.5 107.10296 860.1863 104.416664 863.5 104.416664C866.8137 104.416664 869.5 107.10296 869.5 110.416664Z" fill-rule="nonzero"/><path fill="#d9d9d9" d="M883.8594 114.93229L887.9219 103.197914L889.96875 103.197914L884.7031 117.416664L883.03125 117.416664L877.78125 103.197914L879.8125 103.197914L883.8594 114.93229ZM894.5781 103.197914L899.21875 114.791664L903.875 103.197914L906.2969 103.197914L906.2969 117.416664L904.4219 117.416664L904.4219 111.885414L904.6094 105.90104L899.9375 117.416664L898.5 117.416664L893.84375 105.93229L894.03125 111.885414L894.03125 117.416664L892.15625 117.416664L892.15625 103.197914L894.5781 103.197914ZM915.0156 114.61979Q915.0156 113.885414 914.46875 113.479164Q913.9219 113.072914 912.5469 112.77604Q911.1719 112.479164 910.3594 112.072914Q909.5625 111.666664 909.1719 111.104164Q908.7969 110.52604 908.7969 109.74479Q908.7969 108.447914 909.8906 107.55729Q910.9844 106.65104 912.7031 106.65104Q914.5 106.65104 915.6094 107.58854Q916.7344 108.510414 916.7344 109.947914L914.90625 109.947914Q914.90625 109.21354 914.28125 108.68229Q913.65625 108.135414 912.7031 108.135414Q911.7031 108.135414 911.1406 108.572914Q910.59375 108.99479 910.59375 109.697914Q910.59375 110.33854 911.1094 110.68229Q911.625 111.010414 912.9844 111.322914Q914.34375 111.61979 915.1719 112.041664Q916.0156 112.447914 916.4219 113.041664Q916.8281 113.635414 916.8281 114.479164Q916.8281 115.90104 915.6875 116.760414Q914.5625 117.61979 912.75 117.61979Q911.4844 117.61979 910.5 117.166664Q909.53125 116.71354 908.96875 115.916664Q908.4219 115.104164 908.4219 114.166664L910.2344 114.166664Q910.28125 115.072914 910.9531 115.604164Q911.6406 116.135414 912.75 116.135414Q913.78125 116.135414 914.3906 115.729164Q915.0156 115.30729 915.0156 114.61979Z" fill-rule="nonzero"/><path fill="#efefef" d="M55.125 63.890625Q53.8125 65.75 51.484375 66.6875Q49.15625 67.609375 46.0625 67.609375Q42.9375 67.609375 40.5 66.140625Q38.078125 64.671875 36.75 61.96875Q35.4375 59.25 35.390625 55.6875L35.390625 53.453125Q35.390625 47.671875 38.09375 44.484375Q40.796875 41.296875 45.671875 41.296875Q49.6875 41.296875 52.125 43.359375Q54.578125 45.40625 55.125 49.15625L51.75 49.15625Q50.796875 44.078125 45.703125 44.078125Q42.296875 44.078125 40.546875 46.46875Q38.8125 48.84375 38.78125 53.359375L38.78125 55.453125Q38.78125 59.765625 40.75 62.3125Q42.71875 64.84375 46.078125 64.84375Q47.984375 64.84375 49.40625 64.421875Q50.828125 64.0 51.765625 63.0L51.765625 57.25L45.84375 57.25L45.84375 54.5L55.125 54.5L55.125 63.890625ZM72.453125 67.25Q72.171875 66.6875 72.0 65.25Q69.734375 67.609375 66.578125 67.609375Q63.765625 67.609375 61.96875 66.015625Q60.171875 64.421875 60.171875 61.96875Q60.171875 59.0 62.421875 57.359375Q64.6875 55.71875 68.78125 55.71875L71.9375 55.71875L71.9375 54.21875Q71.9375 52.515625 70.921875 51.515625Q69.90625 50.5 67.921875 50.5Q66.171875 50.5 65.0 51.375Q63.828125 52.25 63.828125 53.5L60.546875 53.5Q60.546875 52.078125 61.5625 50.75Q62.578125 49.421875 64.296875 48.65625Q66.03125 47.875 68.109375 47.875Q71.40625 47.875 73.265625 49.53125Q75.125 51.171875 75.203125 54.046875L75.203125 62.796875Q75.203125 65.421875 75.859375 66.96875L75.859375 67.25L72.453125 67.25ZM67.0625 64.765625Q68.59375 64.765625 69.953125 63.984375Q71.328125 63.1875 71.9375 61.921875L71.9375 58.015625L69.390625 58.015625Q63.421875 58.015625 63.421875 61.515625Q63.421875 63.046875 64.4375 63.90625Q65.453125 64.765625 67.0625 64.765625ZM84.25 67.25L81.0 67.25L81.0 40.25L84.25 40.25L84.25 67.25ZM101.453125 67.25Q101.171875 66.6875 101.0 65.25Q98.734375 67.609375 95.578125 67.609375Q92.765625 67.609375 90.96875 66.015625Q89.171875 64.421875 89.171875 61.96875Q89.171875 59.0 91.421875 57.359375Q93.6875 55.71875 97.78125 55.71875L100.9375 55.71875L100.9375 54.21875Q100.9375 52.515625 99.921875 51.515625Q98.90625 50.5 96.921875 50.5Q95.171875 50.5 94.0 51.375Q92.828125 52.25 92.828125 53.5L89.546875 53.5Q89.546875 52.078125 90.5625 50.75Q91.578125 49.421875 93.296875 48.65625Q95.03125 47.875 97.109375 47.875Q100.40625 47.875 102.265625 49.53125Q104.125 51.171875 104.203125 54.046875L104.203125 62.796875Q104.203125 65.421875 104.859375 66.96875L104.859375 67.25L101.453125 67.25ZM96.0625 64.765625Q97.59375 64.765625 98.953125 63.984375Q100.328125 63.1875 100.9375 61.921875L100.9375 58.015625L98.390625 58.015625Q92.421875 58.015625 92.421875 61.515625Q92.421875 63.046875 93.4375 63.90625Q94.453125 64.765625 96.0625 64.765625ZM116.09375 55.171875L120.3125 48.234375L124.109375 48.234375L117.890625 57.640625L124.296875 67.25L120.546875 67.25L116.140625 60.125L111.75 67.25L107.96875 67.25L114.390625 57.640625L108.171875 48.234375L111.921875 48.234375L116.09375 55.171875ZM133.9375 62.484375L138.35938 48.234375L141.84375 48.234375L134.20312 70.1875Q132.42188 74.9375 128.5625 74.9375L127.9375 74.875L126.734375 74.65625L126.734375 72.015625L127.609375 72.078125Q129.26562 72.078125 130.1875 71.40625Q131.10938 70.75 131.70312 68.96875L132.42188 67.03125L125.640625 48.234375L129.1875 48.234375L133.9375 62.484375ZM157.59375 57.234375L157.59375 67.25L154.21875 67.25L154.21875 41.65625L163.65625 41.65625Q167.85938 41.65625 170.23438 43.796875Q172.625 45.9375 172.625 49.484375Q172.625 53.203125 170.29688 55.21875Q167.96875 57.234375 163.625 57.234375L157.59375 57.234375ZM157.59375 54.46875L163.65625 54.46875Q166.375 54.46875 167.8125 53.203125Q169.25 51.921875 169.25 49.515625Q169.25 47.234375 167.8125 45.859375Q166.375 44.484375 163.85938 44.4375L157.59375 44.4375L157.59375 54.46875ZM180.25 67.25L177.0 67.25L177.0 40.25L180.25 40.25L180.25 67.25ZM197.45312 67.25Q197.17188 66.6875 197.0 65.25Q194.73438 67.609375 191.57812 67.609375Q188.76562 67.609375 186.96875 66.015625Q185.17188 64.421875 185.17188 61.96875Q185.17188 59.0 187.42188 57.359375Q189.6875 55.71875 193.78125 55.71875L196.9375 55.71875L196.9375 54.21875Q196.9375 52.515625 195.92188 51.515625Q194.90625 50.5 192.92188 50.5Q191.17188 50.5 190.0 51.375Q188.82812 52.25 188.82812 53.5L185.54688 53.5Q185.54688 52.078125 186.5625 50.75Q187.57812 49.421875 189.29688 48.65625Q191.03125 47.875 193.10938 47.875Q196.40625 47.875 198.26562 49.53125Q200.125 51.171875 200.20312 54.046875L200.20312 62.796875Q200.20312 65.421875 200.85938 66.96875L200.85938 67.25L197.45312 67.25ZM192.0625 64.765625Q193.59375 64.765625 194.95312 63.984375Q196.32812 63.1875 196.9375 61.921875L196.9375 58.015625L194.39062 58.015625Q188.42188 58.015625 188.42188 61.515625Q188.42188 63.046875 189.4375 63.90625Q190.45312 64.765625 192.0625 64.765625ZM210.125 43.625L210.125 48.234375L213.67188 48.234375L213.67188 50.75L210.125 50.75L210.125 62.53125Q210.125 63.6875 210.59375 64.265625Q211.07812 64.828125 212.21875 64.828125Q212.78125 64.828125 213.76562 64.609375L213.76562 67.25Q212.48438 67.609375 211.26562 67.609375Q209.09375 67.609375 207.98438 66.296875Q206.875 64.96875 206.875 62.53125L206.875 50.75L203.40625 50.75L203.40625 48.234375L206.875 48.234375L206.875 43.625L210.125 43.625ZM219.3125 67.25L219.3125 50.75L216.3125 50.75L216.3125 48.234375L219.3125 48.234375L219.3125 46.28125Q219.3125 43.21875 220.9375 41.546875Q222.57812 39.875 225.5625 39.875Q226.6875 39.875 227.79688 40.171875L227.625 42.8125Q226.79688 42.65625 225.875 42.65625Q224.28125 42.65625 223.42188 43.578125Q222.5625 44.5 222.5625 46.21875L222.5625 48.234375L226.625 48.234375L226.625 50.75L222.5625 50.75L222.5625 67.25L219.3125 67.25ZM229.84375 57.5625Q229.84375 54.765625 230.9375 52.53125Q232.04688 50.296875 234.0 49.09375Q235.96875 47.875 238.48438 47.875Q242.35938 47.875 244.76562 50.5625Q247.17188 53.25 247.17188 57.71875L247.17188 57.953125Q247.17188 60.734375 246.09375 62.9375Q245.03125 65.140625 243.04688 66.375Q241.07812 67.609375 238.51562 67.609375Q234.65625 67.609375 232.25 64.921875Q229.84375 62.21875 229.84375 57.796875L229.84375 57.5625ZM233.125 57.953125Q233.125 61.109375 234.59375 63.03125Q236.0625 64.953125 238.51562 64.953125Q241.0 64.953125 242.45312 63.015625Q243.90625 61.0625 243.90625 57.5625Q243.90625 54.4375 242.42188 52.5Q240.9375 50.546875 238.48438 50.546875Q236.07812 50.546875 234.59375 52.46875Q233.125 54.375 233.125 57.953125ZM260.90625 51.140625Q260.17188 51.03125 259.3125 51.03125Q256.10938 51.03125 254.96875 53.75L254.96875 67.25L251.71875 67.25L251.71875 48.234375L254.875 48.234375L254.92188 50.421875Q256.53125 47.875 259.46875 47.875Q260.40625 47.875 260.90625 48.125L260.90625 51.140625ZM266.76562 48.234375L266.85938 50.34375Q268.95312 47.875 272.5 47.875Q276.48438 47.875 277.9375 50.9375Q278.875 49.5625 280.39062 48.71875Q281.92188 47.875 284.0 47.875Q290.25 47.875 290.35938 54.5L290.35938 67.25L287.10938 67.25L287.10938 54.703125Q287.10938 52.65625 286.17188 51.65625Q285.25 50.640625 283.04688 50.640625Q281.23438 50.640625 280.03125 51.71875Q278.84375 52.796875 278.65625 54.625L278.65625 67.25L275.39062 67.25L275.39062 54.78125Q275.39062 50.640625 271.32812 50.640625Q268.125 50.640625 266.95312 53.359375L266.95312 67.25L263.6875 67.25L263.6875 48.234375L266.76562 48.234375ZM306.78125 62.203125Q306.78125 60.890625 305.78125 60.15625Q304.79688 59.421875 302.32812 58.90625Q299.85938 58.375 298.40625 57.640625Q296.95312 56.890625 296.26562 55.875Q295.57812 54.859375 295.57812 53.453125Q295.57812 51.109375 297.54688 49.5Q299.53125 47.875 302.60938 47.875Q305.84375 47.875 307.84375 49.546875Q309.85938 51.21875 309.85938 53.8125L306.59375 53.8125Q306.59375 52.484375 305.45312 51.515625Q304.32812 50.546875 302.60938 50.546875Q300.82812 50.546875 299.82812 51.328125Q298.82812 52.09375 298.82812 53.34375Q298.82812 54.515625 299.75 55.125Q300.6875 55.71875 303.125 56.265625Q305.5625 56.8125 307.0625 57.5625Q308.57812 58.3125 309.29688 59.390625Q310.03125 60.453125 310.03125 61.96875Q310.03125 64.53125 307.98438 66.078125Q305.95312 67.609375 302.70312 67.609375Q300.42188 67.609375 298.65625 66.796875Q296.90625 65.984375 295.90625 64.53125Q294.92188 63.078125 294.92188 61.390625L298.17188 61.390625Q298.26562 63.03125 299.48438 64.0Q300.70312 64.953125 302.70312 64.953125Q304.54688 64.953125 305.65625 64.203125Q306.78125 63.453125 306.78125 62.203125Z" fill-rule="nonzero"/></svg>