<svg version="1.1" viewBox="0.0 0.0 1076.0 665.0" fill="none" stroke="none" stroke-linecap="square" stroke-miterlimit="10" width="1076" height="665" xmlns:xlink="http://www.w3.org/1999/xlink" xmlns="http://www.w3.org/2000/svg"><path fill="#ffffff" d="M0 0L1076.0 0L1076.0 665.0L0 665.0L0 0Z" fill-rule="nonzero"/><path fill="#000000" d="M0 0L1076.0 0L1076.0 665.0L0 665.0L0 0Z" fill-rule="nonzero"/><path stroke="#999999" stroke-width="1.0" stroke-linecap="butt" d="M154.5 156.5L154.5 574.5" fill-rule="nonzero"/><path stroke="#999999" stroke-width="1.0" stroke-linecap="butt" d="M300.5 156.5L300.5 574.5" fill-rule="nonzero"/><path stroke="#999999" stroke-width="1.0" stroke-linecap="butt" d="M446.5 156.5L446.5 574.5" fill-rule="nonzero"/><path stroke="#999999" stroke-width="1.0" stroke-linecap="butt" d="M591.5 156.5L591.5 574.5" fill-rule="nonzero"/><path stroke="#999999" stroke-width="1.0" stroke-linecap="butt" d="M737.5 156.5L737.5 574.5" fill-rule="nonzero"/><path stroke="#999999" stroke-width="1.0" stroke-linecap="butt" d="M883.5 156.5L883.5 574.5" fill-rule="nonzero"/><path stroke="#999999" stroke-width="1.0" stroke-linecap="butt" d="M1029.5 156.5L1029.5 574.5" fill-rule="nonzero"/><path stroke="#cccccc" stroke-width="1.0" stroke-linecap="butt" d="M141.5 574.5L1042.5 574.5" fill-rule="nonzero"/><path stroke="#999999" stroke-width="1.0" stroke-linecap="butt" d="M141.5 490.5L1042.5 490.5" fill-rule="nonzero"/><path stroke="#999999" stroke-width="1.0" stroke-linecap="butt" d="M141.5 407.5L1042.5 407.5" fill-rule="nonzero"/><path stroke="#999999" stroke-width="1.0" stroke-linecap="butt" d="M141.5 323.5L1042.5 323.5" fill-rule="nonzero"/><path stroke="#999999" stroke-width="1.0" stroke-linecap="butt" d="M141.5 240.5L1042.5 240.5" fill-rule="nonzero"/><path stroke="#999999" stroke-width="1.0" stroke-linecap="butt" d="M141.5 156.5L1042.5 156.5" fill-rule="nonzero"/><clipPath id="id_0"><path d="M141.25 156.58333L1042.75 156.58333L1042.75 574.35767L141.25 574.35767L141.25 156.58333Z" clip-rule="nonzero"/></clipPath><path stroke="#6d9eeb" stroke-width="4.0" stroke-linecap="butt" clip-path="url(#id_0)" d="M154.82826 490.80283C154.82826 490.80283 163.07553 486.15347 167.19917 484.11844C171.3228 482.0834 207.1053 470.4651 227.05838 457.38086C247.01144 444.29666 276.40897 407.63242 300.48566 393.87918C324.56238 380.12592 348.63907 382.6477 372.7158 373.826C396.79248 365.0043 422.06638 347.55466 446.14307 340.40405C470.21976 333.25345 494.29648 338.07602 518.37317 330.37747C542.4499 322.67892 567.3247 300.22186 591.8005 293.6133C616.27625 287.00476 656.4484 293.45642 676.80054 290.27112C697.15265 287.08585 723.7568 278.2749 737.85693 273.56015C751.9571 268.8454 770.1809 258.81982 780.1574 256.84918C790.134 254.87854 800.11053 257.7574 810.08704 256.84918C820.0636 255.94098 859.4376 248.45737 883.51434 243.48041C907.59106 238.50343 931.6677 231.74638 955.74445 226.76942C979.82117 221.79247 1029.1718 213.40065 1029.1718 213.40065" fill-rule="nonzero"/><path stroke="#ffff00" stroke-width="4.0" stroke-linecap="butt" clip-path="url(#id_0)" d="M1029.1718 514.1982L1029.1718 514.1982" fill-rule="nonzero"/><path stroke="#ff9900" stroke-width="4.0" stroke-linecap="butt" clip-path="url(#id_0)" d="M1029.1718 530.9092L1029.1718 530.9092" fill-rule="nonzero"/><path stroke="#109618" stroke-width="4.0" stroke-linecap="butt" clip-path="url(#id_0)" d="M1029.1718 560.9889L1029.1718 560.9889" fill-rule="nonzero"/><path stroke="#990099" stroke-width="4.0" stroke-linecap="butt" clip-path="url(#id_0)" d="M1029.1718 560.9889L1029.1718 560.9889" fill-rule="nonzero"/><path fill="#6d9eeb" clip-path="url(#id_0)" d="M159.32826 490.80283C159.32826 493.28812 157.31355 495.30283 154.82826 495.30283C152.34299 495.30283 150.32826 493.28812 150.32826 490.80283C150.32826 488.31754 152.34299 486.30283 154.82826 486.30283C157.31355 486.30283 159.32826 488.31754 159.32826 490.80283Z" fill-rule="nonzero"/><path fill="#6d9eeb" clip-path="url(#id_0)" d="M171.69917 484.11844C171.69917 486.60373 169.68445 488.61844 167.19917 488.61844C164.71388 488.61844 162.69917 486.60373 162.69917 484.11844C162.69917 481.63315 164.71388 479.61844 167.19917 479.61844C169.68445 479.61844 171.69917 481.63315 171.69917 484.11844Z" fill-rule="nonzero"/><path fill="#6d9eeb" clip-path="url(#id_0)" d="M231.55838 457.38086C231.55838 459.86615 229.54366 461.88086 227.05838 461.88086C224.57309 461.88086 222.55838 459.86615 222.55838 457.38086C222.55838 454.8956 224.57309 452.88086 227.05838 452.88086C229.54366 452.88086 231.55838 454.8956 231.55838 457.38086Z" fill-rule="nonzero"/><path fill="#6d9eeb" clip-path="url(#id_0)" d="M304.98566 393.87918C304.98566 396.36444 302.97095 398.37918 300.48566 398.37918C298.0004 398.37918 295.98566 396.36444 295.98566 393.87918C295.98566 391.3939 298.0004 389.37918 300.48566 389.37918C302.97095 389.37918 304.98566 391.3939 304.98566 393.87918Z" fill-rule="nonzero"/><path fill="#6d9eeb" clip-path="url(#id_0)" d="M377.2158 373.826C377.2158 376.31128 375.20105 378.326 372.7158 378.326C370.2305 378.326 368.2158 376.31128 368.2158 373.826C368.2158 371.34073 370.2305 369.326 372.7158 369.326C375.20105 369.326 377.2158 371.34073 377.2158 373.826Z" fill-rule="nonzero"/><path fill="#6d9eeb" clip-path="url(#id_0)" d="M450.64307 340.40405C450.64307 342.88934 448.62836 344.90405 446.14307 344.90405C443.65778 344.90405 441.64307 342.88934 441.64307 340.40405C441.64307 337.91876 443.65778 335.90405 446.14307 335.90405C448.62836 335.90405 450.64307 337.91876 450.64307 340.40405Z" fill-rule="nonzero"/><path fill="#6d9eeb" clip-path="url(#id_0)" d="M522.87317 330.37747C522.87317 332.86276 520.85846 334.87747 518.37317 334.87747C515.8879 334.87747 513.87317 332.86276 513.87317 330.37747C513.87317 327.89218 515.8879 325.87747 518.37317 325.87747C520.85846 325.87747 522.87317 327.89218 522.87317 330.37747Z" fill-rule="nonzero"/><path fill="#6d9eeb" clip-path="url(#id_0)" d="M596.3005 293.6133C596.3005 296.0986 594.28577 298.1133 591.8005 298.1133C589.3152 298.1133 587.3005 296.0986 587.3005 293.6133C587.3005 291.12805 589.3152 289.1133 591.8005 289.1133C594.28577 289.1133 596.3005 291.12805 596.3005 293.6133Z" fill-rule="nonzero"/><path fill="#6d9eeb" clip-path="url(#id_0)" d="M681.30054 290.27112C681.30054 292.7564 679.2858 294.77112 676.80054 294.77112C674.31525 294.77112 672.30054 292.7564 672.30054 290.27112C672.30054 287.78586 674.31525 285.77112 676.80054 285.77112C679.2858 285.77112 681.30054 287.78586 681.30054 290.27112Z" fill-rule="nonzero"/><path fill="#6d9eeb" clip-path="url(#id_0)" d="M742.35693 273.56015C742.35693 276.04544 740.3422 278.06015 737.85693 278.06015C735.37164 278.06015 733.35693 276.04544 733.35693 273.56015C733.35693 271.07486 735.37164 269.06015 737.85693 269.06015C740.3422 269.06015 742.35693 271.07486 742.35693 273.56015Z" fill-rule="nonzero"/><path fill="#6d9eeb" clip-path="url(#id_0)" d="M784.6574 256.84918C784.6574 259.33447 782.6427 261.34918 780.1574 261.34918C777.6722 261.34918 775.6574 259.33447 775.6574 256.84918C775.6574 254.36389 777.6722 252.34918 780.1574 252.34918C782.6427 252.34918 784.6574 254.36389 784.6574 256.84918Z" fill-rule="nonzero"/><path fill="#6d9eeb" clip-path="url(#id_0)" d="M814.58704 256.84918C814.58704 259.33447 812.5723 261.34918 810.08704 261.34918C807.60175 261.34918 805.58704 259.33447 805.58704 256.84918C805.58704 254.36389 807.60175 252.34918 810.08704 252.34918C812.5723 252.34918 814.58704 254.36389 814.58704 256.84918Z" fill-rule="nonzero"/><path fill="#6d9eeb" clip-path="url(#id_0)" d="M888.01434 243.48041C888.01434 245.96568 885.99963 247.98041 883.51434 247.98041C881.02905 247.98041 879.01434 245.96568 879.01434 243.48041C879.01434 240.99512 881.02905 238.98041 883.51434 238.98041C885.99963 238.98041 888.01434 240.99512 888.01434 243.48041Z" fill-rule="nonzero"/><path fill="#6d9eeb" clip-path="url(#id_0)" d="M960.24445 226.76942C960.24445 229.25471 958.22974 231.26942 955.74445 231.26942C953.25916 231.26942 951.24445 229.25471 951.24445 226.76942C951.24445 224.28415 953.25916 222.26942 955.74445 222.26942C958.22974 222.26942 960.24445 224.28415 960.24445 226.76942Z" fill-rule="nonzero"/><path fill="#6d9eeb" clip-path="url(#id_0)" d="M1033.6718 213.40065C1033.6718 215.88593 1031.657 217.90065 1029.1718 217.90065C1026.6864 217.90065 1024.6718 215.88593 1024.6718 213.40065C1024.6718 210.91536 1026.6864 208.90065 1029.1718 208.90065C1031.657 208.90065 1033.6718 210.91536 1033.6718 213.40065Z" fill-rule="nonzero"/><path fill="#ffff00" clip-path="url(#id_0)" d="M1033.6718 514.1982C1033.6718 516.6835 1031.657 518.6982 1029.1718 518.6982C1026.6864 518.6982 1024.6718 516.6835 1024.6718 514.1982C1024.6718 511.7129 1026.6864 509.69818 1029.1718 509.69818C1031.657 509.69818 1033.6718 511.7129 1033.6718 514.1982Z" fill-rule="nonzero"/><path fill="#ff9900" clip-path="url(#id_0)" d="M1033.6718 530.9092C1033.6718 533.3945 1031.657 535.4092 1029.1718 535.4092C1026.6864 535.4092 1024.6718 533.3945 1024.6718 530.9092C1024.6718 528.4239 1026.6864 526.4092 1029.1718 526.4092C1031.657 526.4092 1033.6718 528.4239 1033.6718 530.9092Z" fill-rule="nonzero"/><path fill="#109618" clip-path="url(#id_0)" d="M1037.1718 560.9889C1037.1718 565.40717 1033.59 568.9889 1029.1718 568.9889C1024.7534 568.9889 1021.17175 565.40717 1021.17175 560.9889C1021.17175 556.5706 1024.7534 552.9889 1029.1718 552.9889C1033.59 552.9889 1037.1718 556.5706 1037.1718 560.9889Z" fill-rule="nonzero"/><path fill="#990099" clip-path="url(#id_0)" d="M1033.6718 560.9889C1033.6718 563.4742 1031.657 565.4889 1029.1718 565.4889C1026.6864 565.4889 1024.6718 563.4742 1024.6718 560.9889C1024.6718 558.50366 1026.6864 556.4889 1029.1718 556.4889C1031.657 556.4889 1033.6718 558.50366 1033.6718 560.9889Z" fill-rule="nonzero"/><path fill="#d9d9d9" d="M51.4375 442.19794L51.4375 445.2917L56.25 446.2292L56.25 447.90106L51.4375 446.96356L51.4375 449.77606L49.84375 449.77606L49.84375 446.6667L45.6875 445.8542L45.6875 448.88544L44.0625 448.88544L44.0625 445.5417L39.1875 444.57294L39.1875 442.90106L44.0625 443.8698L44.0625 440.77606L39.1875 439.8073L39.1875 438.1198L44.0625 439.08856L44.0625 436.69794L45.6875 436.69794L45.6875 439.40106L49.84375 440.21356L49.84375 437.57294L51.4375 437.57294L51.4375 440.51044L56.25 441.44794L56.25 443.13544L51.4375 442.19794ZM49.84375 444.9948L49.84375 441.90106L45.6875 441.08856L45.6875 444.1823L49.84375 444.9948ZM49.5625 425.9323L56.25 425.9323L56.25 428.1823L39.1875 428.1823L39.1875 421.88544Q39.1875 419.08856 40.625 417.51044Q42.046875 415.9167 44.40625 415.9167Q46.890625 415.9167 48.234375 417.4792Q49.5625 419.02606 49.5625 421.9167L49.5625 425.9323ZM47.734375 425.9323L47.734375 421.88544Q47.734375 420.08856 46.890625 419.13544Q46.03125 418.1667 44.421875 418.1667Q42.90625 418.1667 42.0 419.13544Q41.078125 420.08856 41.03125 421.76044L41.03125 425.9323L47.734375 425.9323ZM56.25 411.1667L56.25 413.33856L38.25 413.33856L38.25 411.1667L56.25 411.1667ZM56.25 399.69794Q55.875 399.88544 54.90625 399.9948Q56.484375 401.51044 56.484375 403.6042Q56.484375 405.4792 55.421875 406.6823Q54.359375 407.88544 52.734375 407.88544Q50.75 407.88544 49.65625 406.38544Q48.5625 404.8698 48.5625 402.15106L48.5625 400.0417L47.5625 400.0417Q46.421875 400.0417 45.75 400.7292Q45.078125 401.40106 45.078125 402.71356Q45.078125 403.88544 45.671875 404.6667Q46.25 405.44794 47.078125 405.44794L47.078125 407.63544Q46.140625 407.63544 45.25 406.96356Q44.359375 406.27606 43.84375 405.13544Q43.328125 403.9792 43.328125 402.58856Q43.328125 400.40106 44.4375 399.1667Q45.53125 397.9167 47.453125 397.8698L53.28125 397.8698Q55.03125 397.8698 56.0625 397.4167L56.25 397.4167L56.25 399.69794ZM54.59375 403.2917Q54.59375 402.27606 54.078125 401.3698Q53.546875 400.44794 52.703125 400.0417L50.09375 400.0417L50.09375 401.7292Q50.09375 405.71356 52.421875 405.71356Q53.453125 405.71356 54.03125 405.0417Q54.59375 404.3542 54.59375 403.2917ZM40.5 391.58856L43.5625 391.58856L43.5625 389.21356L45.25 389.21356L45.25 391.58856L53.109375 391.58856Q53.875 391.58856 54.25 391.27606Q54.625 390.94794 54.625 390.1823Q54.625 389.8073 54.484375 389.15106L56.25 389.15106Q56.484375 390.01044 56.484375 390.82294Q56.484375 392.27606 55.609375 393.01044Q54.71875 393.7448 53.109375 393.7448L45.25 393.7448L45.25 396.0573L43.5625 396.0573L43.5625 393.7448L40.5 393.7448L40.5 391.58856ZM56.25 385.46356L45.25 385.46356L45.25 387.46356L43.5625 387.46356L43.5625 385.46356L42.265625 385.46356Q40.234375 385.46356 39.125 384.3698Q38.0 383.27606 38.0 381.2917Q38.0 380.5417 38.203125 379.7917L39.953125 379.9167Q39.859375 380.46356 39.859375 381.08856Q39.859375 382.13544 40.46875 382.71356Q41.078125 383.2917 42.234375 383.2917L43.5625 383.2917L43.5625 380.58856L45.25 380.58856L45.25 383.2917L56.25 383.2917L56.25 385.46356ZM49.796875 379.1042Q47.921875 379.1042 46.4375 378.3698Q44.953125 377.63544 44.140625 376.33856Q43.328125 375.02606 43.328125 373.33856Q43.328125 370.76044 45.125 369.1667Q46.921875 367.5573 49.890625 367.5573L50.046875 367.5573Q51.90625 367.5573 53.375 368.27606Q54.84375 368.9792 55.671875 370.2917Q56.484375 371.6042 56.484375 373.32294Q56.484375 375.90106 54.6875 377.51044Q52.890625 379.1042 49.9375 379.1042L49.796875 379.1042ZM50.046875 376.9167Q52.15625 376.9167 53.4375 375.94794Q54.71875 374.96356 54.71875 373.32294Q54.71875 371.6667 53.421875 370.69794Q52.125 369.7292 49.796875 369.7292Q47.703125 369.7292 46.40625 370.71356Q45.109375 371.69794 45.109375 373.33856Q45.109375 374.94794 46.390625 375.9323Q47.671875 376.9167 50.046875 376.9167ZM45.515625 358.40106Q45.4375 358.88544 45.4375 359.46356Q45.4375 361.58856 47.25 362.3542L56.25 362.3542L56.25 364.52606L43.5625 364.52606L43.5625 362.4167L45.03125 362.38544Q43.328125 361.3073 43.328125 359.3542Q43.328125 358.7292 43.5 358.40106L45.515625 358.40106ZM43.5625 354.4792L44.96875 354.4323Q43.328125 353.02606 43.328125 350.6667Q43.328125 348.01044 45.375 347.0417Q44.453125 346.4167 43.890625 345.40106Q43.328125 344.38544 43.328125 342.9948Q43.328125 338.82294 47.75 338.76044L56.25 338.76044L56.25 340.9323L47.875 340.9323Q46.515625 340.9323 45.84375 341.5573Q45.171875 342.1667 45.171875 343.63544Q45.171875 344.83856 45.890625 345.63544Q46.609375 346.4323 47.828125 346.5573L56.25 346.5573L56.25 348.7448L47.9375 348.7448Q45.171875 348.7448 45.171875 351.44794Q45.171875 353.58856 46.984375 354.3698L56.25 354.3698L56.25 356.5417L43.5625 356.5417L43.5625 354.4792ZM52.890625 328.13544Q52.0 328.13544 51.515625 328.8073Q51.03125 329.46356 50.6875 331.1198Q50.328125 332.76044 49.84375 333.7292Q49.34375 334.69794 48.671875 335.1667Q47.984375 335.6198 47.046875 335.6198Q45.484375 335.6198 44.40625 334.3073Q43.328125 332.9792 43.328125 330.9323Q43.328125 328.77606 44.453125 327.4323Q45.5625 326.08856 47.296875 326.08856L47.296875 328.27606Q46.40625 328.27606 45.765625 329.02606Q45.109375 329.77606 45.109375 330.9323Q45.109375 332.1198 45.625 332.7917Q46.140625 333.44794 46.984375 333.44794Q47.765625 333.44794 48.171875 332.83856Q48.5625 332.21356 48.921875 330.58856Q49.28125 328.96356 49.796875 327.96356Q50.296875 326.94794 51.015625 326.46356Q51.71875 325.9792 52.734375 325.9792Q54.4375 325.9792 55.46875 327.33856Q56.484375 328.69794 56.484375 330.8542Q56.484375 332.38544 55.953125 333.5573Q55.40625 334.7292 54.4375 335.40106Q53.46875 336.0573 52.34375 336.0573L52.34375 333.88544Q53.4375 333.82294 54.078125 333.01044Q54.71875 332.19794 54.71875 330.8542Q54.71875 329.63544 54.21875 328.88544Q53.71875 328.13544 52.890625 328.13544Z" fill-rule="nonzero"/><path fill="#d9d9d9" d="M130.34375 575.29517Q130.34375 578.46704 129.26562 580.0139Q128.1875 581.5608 125.875 581.5608Q123.59375 581.5608 122.5 580.04517Q121.40625 578.52954 121.375 575.52954L121.375 573.1233Q121.375 569.98267 122.453125 568.46704Q123.546875 566.9358 125.859375 566.9358Q128.15625 566.9358 129.23438 568.42017Q130.3125 569.8889 130.34375 572.9514L130.34375 575.29517ZM128.54688 572.8264Q128.54688 570.52954 127.890625 569.48267Q127.25 568.42017 125.859375 568.42017Q124.46875 568.42017 123.828125 569.46704Q123.203125 570.5139 123.1875 572.6858L123.1875 575.5764Q123.1875 577.8733 123.84375 578.98267Q124.515625 580.0764 125.875 580.0764Q127.21875 580.0764 127.859375 579.04517Q128.51562 578.0139 128.54688 575.77954L128.54688 572.8264Z" fill-rule="nonzero"/><path fill="#d9d9d9" d="M119.75 497.80283L110.4375 497.80283L110.4375 496.50595L115.359375 491.0372Q116.453125 489.7872 116.859375 489.02158Q117.28125 488.24033 117.28125 487.4122Q117.28125 486.30283 116.609375 485.58408Q115.9375 484.86533 114.8125 484.86533Q113.453125 484.86533 112.703125 485.64658Q111.96875 486.4122 111.96875 487.77158L110.15625 487.77158Q110.15625 485.80283 111.421875 484.5997Q112.6875 483.38095 114.8125 483.38095Q116.796875 483.38095 117.9375 484.42783Q119.09375 485.4747 119.09375 487.19345Q119.09375 489.30283 116.421875 492.19345L112.609375 496.33408L119.75 496.33408L119.75 497.80283ZM122.265625 490.67783L122.984375 483.58408L130.26562 483.58408L130.26562 485.25595L124.515625 485.25595L124.09375 489.13095Q125.140625 488.52158 126.46875 488.52158Q128.40625 488.52158 129.54688 489.80283Q130.6875 491.08408 130.6875 493.27158Q130.6875 495.4747 129.5 496.74033Q128.3125 498.00595 126.1875 498.00595Q124.296875 498.00595 123.109375 496.95908Q121.921875 495.9122 121.75 494.06845L123.46875 494.06845Q123.625 495.2872 124.328125 495.9122Q125.03125 496.52158 126.1875 496.52158Q127.453125 496.52158 128.17188 495.6622Q128.89062 494.80283 128.89062 493.2872Q128.89062 491.86533 128.10938 491.00595Q127.328125 490.13095 126.046875 490.13095Q124.859375 490.13095 124.1875 490.64658L123.703125 491.0372L122.265625 490.67783Z" fill-rule="nonzero"/><path fill="#d9d9d9" d="M111.265625 407.12296L111.984375 400.0292L119.265625 400.0292L119.265625 401.70108L113.515625 401.70108L113.09375 405.57608Q114.140625 404.9667 115.46875 404.9667Q117.40625 404.9667 118.546875 406.24796Q119.6875 407.5292 119.6875 409.7167Q119.6875 411.91983 118.5 413.18546Q117.3125 414.45108 115.1875 414.45108Q113.296875 414.45108 112.109375 413.4042Q110.921875 412.35733 110.75 410.51358L112.46875 410.51358Q112.625 411.73233 113.328125 412.35733Q114.03125 412.9667 115.1875 412.9667Q116.453125 412.9667 117.171875 412.10733Q117.890625 411.24796 117.890625 409.73233Q117.890625 408.31046 117.109375 407.45108Q116.328125 406.57608 115.046875 406.57608Q113.859375 406.57608 113.1875 407.0917L112.703125 407.48233L111.265625 407.12296ZM130.34375 408.18546Q130.34375 411.35733 129.26562 412.9042Q128.1875 414.45108 125.875 414.45108Q123.59375 414.45108 122.5 412.93546Q121.40625 411.41983 121.375 408.41983L121.375 406.01358Q121.375 402.87296 122.453125 401.35733Q123.546875 399.82608 125.859375 399.82608Q128.15625 399.82608 129.23438 401.31046Q130.3125 402.7792 130.34375 405.8417L130.34375 408.18546ZM128.54688 405.7167Q128.54688 403.41983 127.890625 402.37296Q127.25 401.31046 125.859375 401.31046Q124.46875 401.31046 123.828125 402.35733Q123.203125 403.4042 123.1875 405.57608L123.1875 408.4667Q123.1875 410.76358 123.84375 411.87296Q124.515625 412.9667 125.875 412.9667Q127.21875 412.9667 127.859375 411.93546Q128.51562 410.9042 128.54688 408.66983L128.54688 405.7167Z" fill-rule="nonzero"/><path fill="#d9d9d9" d="M119.609375 317.48996L113.71875 330.69308L111.828125 330.69308L117.703125 317.9587L110.0 317.9587L110.0 316.47433L119.609375 316.47433L119.609375 317.48996ZM122.265625 323.56808L122.984375 316.47433L130.26562 316.47433L130.26562 318.1462L124.515625 318.1462L124.09375 322.0212Q125.140625 321.41183 126.46875 321.41183Q128.40625 321.41183 129.54688 322.69308Q130.6875 323.97433 130.6875 326.16183Q130.6875 328.36496 129.5 329.63058Q128.3125 330.8962 126.1875 330.8962Q124.296875 330.8962 123.109375 329.84933Q121.921875 328.80246 121.75 326.9587L123.46875 326.9587Q123.625 328.17746 124.328125 328.80246Q125.03125 329.41183 126.1875 329.41183Q127.453125 329.41183 128.17188 328.55246Q128.89062 327.69308 128.89062 326.17746Q128.89062 324.75558 128.10938 323.8962Q127.328125 323.0212 126.046875 323.0212Q124.859375 323.0212 124.1875 323.53683L123.703125 323.92746L122.265625 323.56808Z" fill-rule="nonzero"/><path fill="#d9d9d9" d="M105.375 247.1382L103.546875 247.1382L103.546875 235.09132L99.90625 236.43507L99.90625 234.79445L105.09375 232.85695L105.375 232.85695L105.375 247.1382ZM119.34375 241.0757Q119.34375 244.24757 118.265625 245.79445Q117.1875 247.34132 114.875 247.34132Q112.59375 247.34132 111.5 245.8257Q110.40625 244.31007 110.375 241.31007L110.375 238.90382Q110.375 235.7632 111.453125 234.24757Q112.546875 232.71632 114.859375 232.71632Q117.15625 232.71632 118.234375 234.2007Q119.3125 235.66945 119.34375 238.73195L119.34375 241.0757ZM117.546875 238.60695Q117.546875 236.31007 116.890625 235.2632Q116.25 234.2007 114.859375 234.2007Q113.46875 234.2007 112.828125 235.24757Q112.203125 236.29445 112.1875 238.46632L112.1875 241.35695Q112.1875 243.65382 112.84375 244.7632Q113.515625 245.85695 114.875 245.85695Q116.21875 245.85695 116.859375 244.8257Q117.515625 243.79445 117.546875 241.56007L117.546875 238.60695ZM130.34375 241.0757Q130.34375 244.24757 129.26562 245.79445Q128.1875 247.34132 125.875 247.34132Q123.59375 247.34132 122.5 245.8257Q121.40625 244.31007 121.375 241.31007L121.375 238.90382Q121.375 235.7632 122.453125 234.24757Q123.546875 232.71632 125.859375 232.71632Q128.15625 232.71632 129.23438 234.2007Q130.3125 235.66945 130.34375 238.73195L130.34375 241.0757ZM128.54688 238.60695Q128.54688 236.31007 127.890625 235.2632Q127.25 234.2007 125.859375 234.2007Q124.46875 234.2007 123.828125 235.24757Q123.203125 236.29445 123.1875 238.46632L123.1875 241.35695Q123.1875 243.65382 123.84375 244.7632Q124.515625 245.85695 125.875 245.85695Q127.21875 245.85695 127.859375 244.8257Q128.51562 243.79445 128.54688 241.56007L128.54688 238.60695Z" fill-rule="nonzero"/><path fill="#d9d9d9" d="M105.375 163.58333L103.546875 163.58333L103.546875 151.53645L99.90625 152.8802L99.90625 151.23958L105.09375 149.30208L105.375 149.30208L105.375 163.58333ZM119.75 163.58333L110.4375 163.58333L110.4375 162.28645L115.359375 156.8177Q116.453125 155.5677 116.859375 154.80208Q117.28125 154.02083 117.28125 153.1927Q117.28125 152.08333 116.609375 151.36458Q115.9375 150.64583 114.8125 150.64583Q113.453125 150.64583 112.703125 151.42708Q111.96875 152.1927 111.96875 153.55208L110.15625 153.55208Q110.15625 151.58333 111.421875 150.3802Q112.6875 149.16145 114.8125 149.16145Q116.796875 149.16145 117.9375 150.20833Q119.09375 151.2552 119.09375 152.97395Q119.09375 155.08333 116.421875 157.97395L112.609375 162.11458L119.75 162.11458L119.75 163.58333ZM122.265625 156.45833L122.984375 149.36458L130.26562 149.36458L130.26562 151.03645L124.515625 151.03645L124.09375 154.91145Q125.140625 154.30208 126.46875 154.30208Q128.40625 154.30208 129.54688 155.58333Q130.6875 156.86458 130.6875 159.05208Q130.6875 161.2552 129.5 162.52083Q128.3125 163.78645 126.1875 163.78645Q124.296875 163.78645 123.109375 162.73958Q121.921875 161.6927 121.75 159.84895L123.46875 159.84895Q123.625 161.0677 124.328125 161.6927Q125.03125 162.30208 126.1875 162.30208Q127.453125 162.30208 128.17188 161.4427Q128.89062 160.58333 128.89062 159.0677Q128.89062 157.64583 128.10938 156.78645Q127.328125 155.91145 126.046875 155.91145Q124.859375 155.91145 124.1875 156.42708L123.703125 156.8177L122.265625 156.45833Z" fill-rule="nonzero"/><path fill="#d9d9d9" d="M113.72797 632.5622L105.66311 637.21844L105.01467 636.09534L106.54276 628.8983Q106.864975 627.2689 106.83399 626.4027Q106.808716 625.5152 106.39465 624.79803Q105.839966 623.8373 104.898735 623.5508Q103.9575 623.2642 102.983215 623.8267Q101.80596 624.5064 101.54707 625.55804Q101.2939 626.58826 101.97359 627.7655L100.403915 628.67175Q99.41954 626.9668 99.91404 625.292Q100.40073 623.60376 102.24103 622.54126Q103.95955 621.5491 105.470795 621.8854Q106.995575 622.21387 107.85495 623.70233Q108.90964 625.5291 108.04104 629.3684L106.80963 634.86053L112.99359 631.2902L113.72797 632.5622ZM119.871185 622.015Q121.45712 624.76196 121.296875 626.6407Q121.13663 628.51935 119.13394 629.6756Q117.158325 630.8162 115.45329 630.05054Q113.74826 629.28485 112.2212 626.7024L111.018074 624.6185Q109.44776 621.8987 109.623634 620.047Q109.80523 618.1741 111.807915 617.0178Q113.797066 615.8694 115.47294 616.6158Q117.14099 617.3487 118.69931 619.9853L119.871185 622.015ZM117.080666 620.77545Q115.93223 618.7863 114.84046 618.2078Q113.75442 617.608 112.5501 618.3033Q111.34578 618.9986 111.31442 620.2255Q111.29659 621.44464 112.369 623.3334L113.814316 625.83673Q114.96275 627.82587 116.08577 628.4585Q117.2145 629.06976 118.391754 628.3901Q119.55548 627.7182 119.59465 626.5048Q119.647354 625.2836 118.55723 623.33295L117.080666 620.77545ZM129.8577 623.2497L128.27449 624.16376L122.25106 613.73083L119.77006 616.7149L118.949745 615.29407L122.4735 611.0224L122.71707 610.8818L129.8577 623.2497ZM132.52309 612.4913L133.70033 611.8116Q134.79431 611.1439 135.09645 610.22974Q135.40431 609.2942 134.84181 608.31995Q133.59181 606.15485 131.44028 607.39703Q130.4254 607.983 130.15242 608.91644Q129.89296 609.84204 130.44765 610.8028L128.87798 611.70905Q128.03423 610.2476 128.54073 608.6561Q129.04723 607.0647 130.69809 606.1116Q132.44368 605.10376 133.97055 605.4671Q135.48961 605.81696 136.43492 607.4543Q136.89586 608.2526 136.80562 609.3151Q136.72891 610.36975 136.04677 611.25073Q137.24915 610.98956 138.23363 611.41345Q139.21811 611.8374 139.8353 612.90643Q140.79623 614.5708 140.2762 616.1701Q139.75618 617.76935 138.01059 618.77716Q136.27853 619.77716 134.65695 619.4685Q133.02754 619.14624 132.13692 617.60364L133.70659 616.6974Q134.26909 617.6717 135.24101 617.88635Q136.21294 618.101 137.28194 617.4838Q138.40506 616.8354 138.66452 615.9098Q138.92969 614.9628 138.28906 613.8533Q137.66406 612.7707 136.6729 612.5852Q135.68744 612.37836 134.43471 613.08356L133.25746 613.76324L132.52309 612.4913ZM144.85121 616.0005L143.49805 616.78174L140.92133 600.4437L142.26096 599.6703L144.85121 616.0005ZM155.37822 601.515Q156.96416 604.26196 156.80391 606.1407Q156.64366 608.01935 154.64099 609.1756Q152.66536 610.3162 150.96034 609.55054Q149.25531 608.78485 147.72824 606.2024L146.52512 604.1185Q144.9548 601.3987 145.13068 599.547Q145.31227 597.6741 147.31496 596.5178Q149.30411 595.3694 150.97998 596.1158Q152.64804 596.8487 154.20634 599.4853L155.37822 601.515ZM152.5877 600.27545Q151.43927 598.2863 150.3475 597.7078Q149.26146 597.108 148.05714 597.8033Q146.85283 598.4986 146.82146 599.7255Q146.80363 600.94464 147.87604 602.8334L149.32135 605.33673Q150.46979 607.32587 151.5928 607.9585Q152.72154 608.56976 153.8988 607.8901Q155.06252 607.2182 155.10168 606.0048Q155.15439 604.7836 154.06427 602.83295L152.5877 600.27545ZM165.36475 602.7497L163.78154 603.66376L157.7581 593.23083L155.2771 596.2149L154.45679 594.79407L157.98055 590.5224L158.22412 590.3818L165.36475 602.7497Z" fill-rule="nonzero"/><path fill="#d9d9d9" d="M259.38538 632.5622L251.32053 637.21844L250.67209 636.09534L252.20018 628.8983Q252.5224 627.2689 252.49141 626.4027Q252.46614 625.5152 252.05208 624.79803Q251.49739 623.8373 250.55615 623.5508Q249.61491 623.2642 248.64064 623.8267Q247.46338 624.5064 247.20448 625.558Q246.95131 626.58826 247.631 627.7655L246.06133 628.67175Q245.07695 626.96674 245.57146 625.292Q246.05814 623.60376 247.89845 622.54126Q249.61696 621.5491 251.12822 621.8854Q252.65298 622.21387 253.51236 623.70233Q254.56705 625.5291 253.69846 629.3684L252.46704 634.86053L258.651 631.2902L259.38538 632.5622ZM265.5286 622.015Q267.11453 624.76196 266.95428 626.6407Q266.79404 628.51935 264.79135 629.6756Q262.81573 630.8162 261.11072 630.05054Q259.40567 629.28485 257.8786 626.7024L256.67548 624.6185Q255.10518 621.8987 255.28105 620.047Q255.46263 618.1741 257.46533 617.0178Q259.45447 615.8694 261.13034 616.6158Q262.7984 617.3487 264.35672 619.9853L265.5286 622.015ZM262.73807 620.77545Q261.58963 618.7863 260.49786 618.2078Q259.41183 617.608 258.20752 618.3033Q257.0032 618.9986 256.97183 620.2255Q256.954 621.44464 258.0264 623.3334L259.4717 625.83673Q260.62015 627.82587 261.74316 628.4585Q262.87192 629.06976 264.04916 628.3901Q265.2129 627.7182 265.25204 626.5048Q265.30475 625.2836 264.21463 623.33295L262.73807 620.77545ZM275.5151 623.2497L273.93192 624.16376L267.90848 613.73083L265.42746 616.7149L264.60715 615.29407L268.13092 611.0224L268.37448 610.8818L275.5151 623.2497ZM284.11218 612.76526L285.81717 611.7809L286.55936 613.0664L284.85437 614.0508L286.5028 616.90594L284.93314 617.8122L283.2847 614.95703L277.66907 618.1992L277.13782 617.27905L277.72903 605.5531L279.39343 604.59216L284.11218 612.76526ZM278.69952 615.89026L282.5425 613.6715L279.05814 607.6364L279.064 608.08405L278.69952 615.89026ZM290.50864 616.0005L289.15546 616.78174L286.57874 600.4437L287.91837 599.6703L290.50864 616.0005ZM301.03564 601.515Q302.62158 604.26196 302.46133 606.1407Q302.3011 608.01935 300.2984 609.1756Q298.32278 610.3162 296.61774 609.55054Q294.91272 608.78485 293.38565 606.2024L292.18253 604.1185Q290.6122 601.3987 290.7881 599.547Q290.96967 597.6741 292.97235 596.5178Q294.96152 595.3694 296.6374 596.1158Q298.30545 596.8487 299.86377 599.4853L301.03564 601.515ZM298.24512 600.27545Q297.09668 598.2863 296.0049 597.7078Q294.91885 597.108 293.71454 597.8033Q292.51022 598.4986 292.47888 599.7255Q292.46103 600.94464 293.53345 602.8334L294.97876 605.33673Q296.1272 607.32587 297.2502 607.9585Q298.37897 608.56976 299.5562 607.8901Q300.71994 607.2182 300.7591 606.0048Q300.8118 604.7836 299.72168 602.83295L298.24512 600.27545ZM311.02216 602.7497L309.43893 603.66376L303.4155 593.23083L300.9345 596.2149L300.1142 594.79407L303.63794 590.5224L303.88153 590.3818L311.02216 602.7497Z" fill-rule="nonzero"/><path fill="#d9d9d9" d="M405.04276 632.5622L396.9779 637.21844L396.32947 636.09534L397.85757 628.8983Q398.17978 627.2689 398.14877 626.4027Q398.1235 625.5152 397.70944 624.79803Q397.15475 623.8373 396.21353 623.5508Q395.2723 623.2642 394.298 623.8267Q393.12076 624.5064 392.86188 625.55804Q392.6087 626.58826 393.2884 627.7655L391.71872 628.67175Q390.73434 626.9668 391.22882 625.292Q391.7155 623.60376 393.55582 622.54126Q395.27435 621.5491 396.78558 621.8854Q398.31036 622.21387 399.16974 623.70233Q400.22443 625.5291 399.35583 629.3684L398.12442 634.86053L404.30838 631.2902L405.04276 632.5622ZM411.18597 622.0151Q412.7719 624.76196 412.61166 626.6407Q412.45142 628.51935 410.44873 629.6756Q408.4731 630.8162 406.7681 630.05054Q405.06305 629.28485 403.53598 626.7024L402.33286 624.6185Q400.76254 621.8987 400.93842 620.04706Q401.12003 618.1741 403.1227 617.0178Q405.11185 615.8694 406.78772 616.6158Q408.45578 617.3487 410.0141 619.9853L411.18597 622.0151ZM408.39545 620.7755Q407.247 618.7863 406.15524 618.2078Q405.0692 617.608 403.8649 618.3033Q402.66058 618.9986 402.6292 620.2256Q402.6114 621.4447 403.68378 623.3334L405.1291 625.83673Q406.27753 627.82587 407.40054 628.4585Q408.5293 629.0698 409.70654 628.39014Q410.87027 627.71826 410.90945 626.5048Q410.96216 625.2836 409.872 623.33295L408.39545 620.7755ZM421.1725 623.2497L419.5893 624.16376L413.56586 613.73083L411.08484 616.7149L410.26453 615.29407L413.7883 611.0224L414.03186 610.8818L421.1725 623.2497ZM422.71143 614.134L419.787 607.6312L426.09274 603.9906L426.92868 605.4385L421.94904 608.3135L423.52118 611.88025Q424.1231 610.8291 425.27332 610.16504Q426.95123 609.1963 428.57968 609.73553Q430.2081 610.27484 431.30185 612.16925Q432.4034 614.0772 432.0078 615.767Q431.61224 617.45685 429.7719 618.51935Q428.13458 619.46466 426.58276 619.1518Q425.0309 618.8389 423.96017 617.3281L425.44867 616.46875Q426.19336 617.4461 427.11478 617.6358Q428.02838 617.812 429.02972 617.2339Q430.1258 616.6011 430.31857 615.49744Q430.51135 614.3938 429.75354 613.08124Q429.0426 611.84985 427.9363 611.4963Q426.82224 611.1291 425.71265 611.7697Q424.68423 612.36346 424.3602 613.14594L424.13602 613.72644L422.71143 614.134ZM436.16602 616.0005L434.81284 616.78174L432.2361 600.4437L433.57574 599.6703L436.16602 616.0005ZM446.69302 601.5151Q448.27896 604.26196 448.1187 606.1407Q447.95847 608.01935 445.95578 609.1756Q443.98016 610.3162 442.27512 609.55054Q440.5701 608.78485 439.04303 606.2024L437.8399 604.1185Q436.2696 601.3987 436.44547 599.54706Q436.62704 597.6741 438.62973 596.5178Q440.6189 595.3694 442.29477 596.1158Q443.96283 596.8487 445.52115 599.4853L446.69302 601.5151ZM443.9025 600.2755Q442.75406 598.2863 441.6623 597.7078Q440.57623 597.108 439.37192 597.8033Q438.1676 598.4986 438.13626 599.7256Q438.11844 600.9447 439.19083 602.8334L440.63614 605.33673Q441.78458 607.32587 442.9076 607.9585Q444.03635 608.5698 445.2136 607.89014Q446.37732 607.21826 446.41647 606.0048Q446.46918 604.7836 445.37906 602.83295L443.9025 600.2755ZM456.67953 602.7497L455.0963 603.66376L449.07288 593.23083L446.5919 596.2149L445.77158 594.79407L449.29535 590.5224L449.5389 590.3818L456.67953 602.7497Z" fill-rule="nonzero"/><path fill="#d9d9d9" d="M550.70013 632.5622L542.6353 637.21844L541.9869 636.09534L543.51495 628.8983Q543.83716 627.2689 543.80615 626.4027Q543.7809 625.5152 543.3668 624.79803Q542.81213 623.8373 541.8709 623.5508Q540.9297 623.2643 539.9554 623.8268Q538.77814 624.5065 538.5192 625.55804Q538.26605 626.58826 538.94574 627.7655L537.3761 628.67175Q536.3917 626.9668 536.8862 625.29205Q537.3729 623.60376 539.2132 622.54126Q540.9317 621.5491 542.443 621.8854Q543.9678 622.21387 544.82715 623.70233Q545.88184 625.5291 545.01324 629.3684L543.7818 634.86053L549.96576 631.2902L550.70013 632.5622ZM556.8434 622.0151Q558.4293 624.76196 558.26904 626.6407Q558.1088 628.51935 556.10614 629.6756Q554.1305 630.8162 552.4255 630.05054Q550.72046 629.28485 549.19336 626.7024L547.99023 624.6185Q546.4199 621.8987 546.5958 620.04706Q546.7774 618.1741 548.7801 617.0178Q550.7692 615.8694 552.4451 616.61584Q554.11316 617.34875 555.6715 619.9853L556.8434 622.0151ZM554.05286 620.7755Q552.9044 618.7863 551.8126 618.2078Q550.72656 617.60803 549.5223 618.30334Q548.31793 618.99866 548.2866 620.2256Q548.26874 621.4447 549.3412 623.3334L550.7865 625.83673Q551.93494 627.8259 553.0579 628.45856Q554.18665 629.0698 555.36395 628.39014Q556.52765 627.71826 556.56683 626.5048Q556.6195 625.2836 555.5294 623.33295L554.05286 620.7755ZM566.8299 623.2497L565.24664 624.16376L559.2232 613.7309L556.74225 616.7149L555.92194 615.29407L559.4457 611.0224L559.6893 610.8818L566.8299 623.2497ZM570.22675 604.85205L570.9924 606.17816L570.70825 606.3422Q568.9049 607.4375 568.43176 609.118Q567.95074 610.7849 568.88995 612.7866Q569.2158 611.101 570.89374 610.13226Q572.50397 609.2026 574.121 609.78455Q575.738 610.3665 576.7692 612.1527Q577.8708 614.06067 577.4929 615.8124Q577.10724 617.5506 575.3752 618.5506Q573.60254 619.57404 571.7252 618.8537Q569.8401 618.1198 568.6057 615.9818L568.25415 615.3729Q566.2932 611.97644 566.702 609.3408Q567.11084 606.70514 569.9561 605.0083L570.22675 604.85205ZM571.3866 611.5797Q570.5747 612.04846 570.1794 612.9263Q569.78406 613.804 569.94104 614.6696L570.277 615.25146Q571.152 616.767 572.3676 617.3101Q573.5968 617.84534 574.6252 617.2516Q575.68066 616.6422 575.83075 615.52716Q575.9865 614.39075 575.25995 613.1323Q574.5256 611.86035 573.46356 611.42706Q572.4015 610.9938 571.3866 611.5797ZM581.82336 616.0005L580.4702 616.78174L577.8935 600.4437L579.23315 599.6703L581.82336 616.0005ZM592.3504 601.5151Q593.93634 604.26196 593.77606 606.1407Q593.61584 608.01935 591.61316 609.1756Q589.6375 610.3162 587.9325 609.55054Q586.2275 608.78485 584.70044 606.2024L583.4973 604.1185Q581.927 601.3987 582.10284 599.54706Q582.2844 597.6741 584.2871 596.5178Q586.2763 595.3694 587.95215 596.11584Q589.6202 596.84875 591.1785 599.4853L592.3504 601.5151ZM589.5599 600.2755Q588.41144 598.2863 587.3197 597.7078Q586.23364 597.10803 585.0293 597.80334Q583.825 598.49866 583.79364 599.7256Q583.7758 600.9447 584.8482 602.8334L586.2935 605.33673Q587.44196 607.3259 588.565 607.95856Q589.6937 608.5698 590.871 607.89014Q592.03467 607.21826 592.07385 606.0048Q592.1266 604.7836 591.03644 602.83295L589.5599 600.2755ZM602.3369 602.7497L600.7537 603.66376L594.7303 593.2309L592.24927 596.2149L591.42896 594.79407L594.9527 590.5224L595.1963 590.3818L602.3369 602.7497Z" fill-rule="nonzero"/><path fill="#d9d9d9" d="M696.75665 632.5622L688.6918 637.21844L688.04333 636.09534L689.5715 628.8983Q689.8937 627.26886 689.8627 626.4027Q689.8374 625.5152 689.42334 624.79803Q688.86865 623.8373 687.9274 623.5507Q686.9862 623.2642 686.0119 623.8267Q684.83466 624.5064 684.57574 625.558Q684.3226 626.58826 685.00226 627.7655L683.4326 628.67175Q682.44824 626.96674 682.94275 625.292Q683.42944 623.6037 685.2697 622.5412Q686.9882 621.549 688.4995 621.8853Q690.0243 622.21387 690.88367 623.70233Q691.93835 625.5291 691.0697 629.3684L689.8383 634.86053L696.0223 631.2902L696.75665 632.5622ZM702.89984 622.015Q704.4858 624.76196 704.32556 626.6406Q704.1653 628.51935 702.1626 629.6756Q700.187 630.8162 698.482 630.05054Q696.777 629.28485 695.2499 626.7024L694.04675 624.6185Q692.47644 621.8986 692.65234 620.047Q692.8339 618.174 694.8366 617.01776Q696.82574 615.8693 698.50165 616.6158Q700.1697 617.3487 701.72797 619.9853L702.89984 622.015ZM700.1094 620.77545Q698.96094 618.7863 697.86914 618.2078Q696.7831 617.608 695.5788 618.3033Q694.37445 618.9986 694.3431 620.2255Q694.32526 621.44464 695.3977 623.3334L696.843 625.83673Q697.99146 627.82587 699.11444 628.4585Q700.24316 629.06976 701.4204 628.3901Q702.58417 627.7182 702.62335 626.5048Q702.676 625.28357 701.58594 623.33295L700.1094 620.77545ZM712.88635 623.2497L711.30316 624.16376L705.2797 613.73083L702.79877 616.7149L701.97845 615.29407L705.5022 611.0224L705.7457 610.8818L712.88635 623.2497ZM718.6121 604.69824L720.1123 619.0778L718.475 620.02313L717.1957 606.0573L710.52454 609.9089L709.78235 608.6234L718.1043 603.8187L718.6121 604.69824ZM727.8799 616.0005L726.52673 616.78174L723.95 600.4437L725.2896 599.6703L727.8799 616.0005ZM738.4069 601.515Q739.99286 604.26196 739.8326 606.1406Q739.67236 608.01935 737.6697 609.1756Q735.69403 610.3162 733.989 609.55054Q732.284 608.78485 730.75696 606.2024L729.55383 604.1185Q727.9835 601.3986 728.15936 599.547Q728.34094 597.674 730.3436 596.51776Q732.33276 595.3693 734.00867 596.1158Q735.6767 596.8487 737.23505 599.4853L738.4069 601.515ZM735.6164 600.27545Q734.46796 598.2863 733.37616 597.7078Q732.29016 597.108 731.0858 597.8033Q729.88153 598.4986 729.85016 599.7255Q729.83234 600.94464 730.9047 602.8334L732.35004 605.33673Q733.4985 607.32587 734.6215 607.9585Q735.75024 608.56976 736.9275 607.8901Q738.0912 607.2182 738.1304 606.0048Q738.1831 604.78357 737.09296 602.83295L735.6164 600.27545ZM748.39343 602.7497L746.81024 603.66376L740.7868 593.23083L738.3058 596.2149L737.4855 594.79407L741.0092 590.5224L741.2528 590.3818L748.39343 602.7497Z" fill-rule="nonzero"/><path fill="#d9d9d9" d="M842.414 632.5622L834.3492 637.21844L833.70074 636.09534L835.2288 628.8983Q835.551 627.2689 835.52 626.4027Q835.49475 625.5152 835.0807 624.79803Q834.526 623.8373 833.5848 623.5508Q832.64355 623.2643 831.66925 623.8268Q830.492 624.5065 830.2331 625.55804Q829.9799 626.58826 830.6596 627.7655L829.08997 628.67175Q828.1056 626.9668 828.6001 625.29205Q829.0868 623.60376 830.92706 622.54126Q832.64557 621.5491 834.15686 621.8854Q835.68164 622.21387 836.541 623.70233Q837.5957 625.5291 836.7271 629.3684L835.49567 634.86053L841.6796 631.2902L842.414 632.5622ZM848.55725 622.0151Q850.1432 624.76196 849.9829 626.6407Q849.8227 628.51935 847.82 629.6756Q845.84436 630.8162 844.13934 630.05054Q842.4343 629.28485 840.9072 626.7024L839.7041 624.6185Q838.1338 621.8987 838.3097 620.04706Q838.4913 618.1741 840.49396 617.0178Q842.4831 615.8694 844.159 616.61584Q845.827 617.34875 847.3854 619.9853L848.55725 622.0151ZM845.7667 620.7755Q844.6183 618.7863 843.5265 618.2078Q842.4404 617.60803 841.23615 618.30334Q840.0318 618.99866 840.0005 620.2256Q839.9826 621.4447 841.05505 623.3334L842.50037 625.83673Q843.6488 627.8259 844.7718 628.4585Q845.9005 629.0698 847.0778 628.39014Q848.2415 627.71826 848.2807 626.5048Q848.3334 625.2836 847.2433 623.33295L845.7667 620.7755ZM858.54376 623.2497L856.9605 624.16376L850.9371 613.7309L848.4561 616.7149L847.6358 615.29407L851.15955 611.0224L851.40314 610.8818L858.54376 623.2497ZM865.13965 607.29913Q865.6787 608.23285 865.60565 609.23126Q865.53253 610.2297 864.928 611.12Q866.1366 610.9635 867.15234 611.4415Q868.18164 611.91174 868.75977 612.9131Q869.68164 614.5098 869.1538 616.0956Q868.6181 617.6678 866.859 618.6834Q865.08636 619.70685 863.47046 619.37683Q861.8468 619.03326 860.9249 617.4365Q860.3546 616.4487 860.43494 615.3379Q860.521 614.2057 861.23956 613.2315Q860.17975 613.3021 859.29205 612.85834Q858.4044 612.4146 857.87317 611.49445Q856.97473 609.93835 857.45264 608.4536Q857.9227 606.9553 859.5465 606.0178Q861.1703 605.0803 862.7029 605.42236Q864.2412 605.74304 865.13965 607.29913ZM867.17444 613.7923Q866.5807 612.7639 865.54266 612.4972Q864.5103 612.2091 863.45483 612.8185Q862.3994 613.42786 862.13837 614.4446Q861.86957 615.44775 862.47894 616.50323Q863.0805 617.54517 864.05457 617.79474Q865.02075 618.03076 866.1168 617.39795Q867.22644 616.7573 867.5051 615.80255Q867.776 614.8342 867.17444 613.7923ZM860.2887 607.30334Q859.3685 607.8346 859.13617 608.74457Q858.89594 609.641 859.45844 610.6153Q860.0053 611.5625 860.89606 611.82404Q861.79254 612.0643 862.7262 611.5252Q863.6734 610.97833 863.9001 610.08966Q864.13245 609.1797 863.5934 608.24603Q863.0465 607.29877 862.1209 607.0393Q861.1953 606.7799 860.2887 607.30334ZM873.53723 616.0005L872.1841 616.78174L869.60736 600.4437L870.947 599.6703L873.53723 616.0005ZM884.0643 601.5151Q885.6502 604.26196 885.4899 606.1407Q885.3297 608.01935 883.327 609.1756Q881.3514 610.3162 879.64636 609.55054Q877.94135 608.78485 876.4143 606.2024L875.2112 604.1185Q873.64087 601.3987 873.8167 599.54706Q873.9983 597.6741 876.001 596.5178Q877.9902 595.3694 879.666 596.11584Q881.33405 596.84875 882.8924 599.4853L884.0643 601.5151ZM881.27374 600.2755Q880.1253 598.2863 879.03357 597.7078Q877.9475 597.10803 876.74316 597.80334Q875.5389 598.49866 875.5075 599.7256Q875.4897 600.9447 876.5621 602.8334L878.0074 605.33673Q879.1558 607.3259 880.2789 607.9585Q881.4076 608.5698 882.58484 607.89014Q883.74854 607.21826 883.7877 606.0048Q883.84045 604.7836 882.7503 602.83295L881.27374 600.2755ZM894.0508 602.7497L892.4676 603.66376L886.44415 593.2309L883.96313 596.2149L883.1428 594.79407L886.66656 590.5224L886.91016 590.3818L894.0508 602.7497Z" fill-rule="nonzero"/><path fill="#d9d9d9" d="M988.0714 632.5622L980.00653 637.21844L979.3581 636.09534L980.8862 628.8983Q981.20844 627.2689 981.1774 626.4027Q981.15216 625.5152 980.7381 624.79803Q980.1834 623.8373 979.2422 623.5508Q978.30096 623.2642 977.32666 623.8267Q976.1494 624.5064 975.8905 625.55804Q975.6373 626.58826 976.317 627.7655L974.7474 628.67175Q973.763 626.9668 974.2575 625.29205Q974.7442 623.60376 976.5845 622.54126Q978.303 621.5491 979.8143 621.8854Q981.33905 622.21387 982.1984 623.70233Q983.2531 625.5291 982.3845 629.3684L981.1531 634.86053L987.33704 631.2902L988.0714 632.5622ZM994.2146 622.0151Q995.80054 624.76196 995.6403 626.6407Q995.4801 628.51935 993.4774 629.6756Q991.5018 630.8162 989.79675 630.05054Q988.09174 629.28485 986.56464 626.7024L985.3615 624.6185Q983.7912 621.8987 983.9671 620.04706Q984.1487 618.1741 986.15137 617.0178Q988.1405 615.8694 989.8164 616.6158Q991.48444 617.34875 993.0427 619.9853L994.2146 622.0151ZM991.42413 620.7755Q990.2757 618.7863 989.1839 618.2078Q988.09784 617.608 986.89355 618.3033Q985.6892 618.9986 985.6579 620.2256Q985.64 621.4447 986.71246 623.3334L988.1578 625.83673Q989.3062 627.8259 990.4292 628.4585Q991.5579 629.0698 992.7352 628.39014Q993.8989 627.71826 993.9381 626.5048Q993.9908 625.2836 992.9007 623.33295L991.42413 620.7755ZM1004.2012 623.2497L1002.6179 624.16376L996.5945 613.7309L994.1135 616.7149L993.2932 615.29407L996.81696 611.0224L997.06055 610.8818L1004.2012 623.2497ZM1011.4549 611.8449Q1011.30365 612.708 1010.82446 613.4718Q1010.351 614.21423 1009.5391 614.683Q1008.47015 615.3002 1007.36707 615.2334Q1006.2775 615.15875 1005.2977 614.46155Q1004.32355 613.743 1003.6595 612.5928Q1002.94855 611.3614 1002.8383 610.108Q1002.7416 608.84674 1003.28937 607.82684Q1003.8507 606.7991 1005.0009 606.135Q1006.82764 605.0803 1008.6722 605.83765Q1010.5167 606.595 1011.8839 608.963L1012.1417 609.40955Q1014.21985 613.009 1013.75214 615.48016Q1013.2844 617.95135 1010.447 619.6617L1010.1493 619.83356L1009.38367 618.5075L1009.70844 618.32Q1011.6278 617.1757 1012.1073 615.5999Q1012.5789 614.0105 1011.4549 611.8449ZM1009.0462 613.23553Q1009.83105 612.7824 1010.2207 611.92596Q1010.6025 611.056 1010.48615 610.167L1010.1268 609.5445Q1009.23615 608.0019 1008.0184 607.42395Q1006.80066 606.846 1005.7722 607.43976Q1004.74384 608.0335 1004.5688 609.1991Q1004.3995 610.3433 1005.14166 611.6288Q1005.8682 612.88727 1006.9537 613.36115Q1008.0314 613.8215 1009.0462 613.23553ZM1019.1946 616.0005L1017.84143 616.78174L1015.2647 600.4437L1016.6044 599.6703L1019.1946 616.0005ZM1029.7216 601.5151Q1031.3075 604.262 1031.1473 606.1407Q1030.987 608.0194 1028.9844 609.17566Q1027.0088 610.3163 1025.3037 609.5506Q1023.5987 608.7849 1022.07166 606.20245L1020.8685 604.1185Q1019.2982 601.3987 1019.47406 599.54706Q1019.65564 597.6741 1021.6583 596.5178Q1023.6475 595.3694 1025.3234 596.11584Q1026.9915 596.84875 1028.5497 599.48535L1029.7216 601.5151ZM1026.9312 600.2755Q1025.7827 598.2864 1024.6909 597.7079Q1023.60486 597.10803 1022.4005 597.80334Q1021.1962 598.49866 1021.16486 599.7256Q1021.14703 600.9447 1022.2194 602.83344L1023.66473 605.3368Q1024.8132 607.3259 1025.9362 607.95856Q1027.065 608.5698 1028.2422 607.89014Q1029.4059 607.21826 1029.4451 606.0049Q1029.4978 604.7836 1028.4077 602.833L1026.9312 600.2755ZM1039.7081 602.74976L1038.1249 603.6638L1032.1014 593.2309L1029.6205 596.2149L1028.8002 594.7941L1032.324 590.52246L1032.5675 590.38184L1039.7081 602.74976Z" fill-rule="nonzero"/><path fill="#6d9eeb" d="M170.5 110.416664C170.5 113.73038 167.8137 116.416664 164.5 116.416664C161.1863 116.416664 158.5 113.73038 158.5 110.416664C158.5 107.10296 161.1863 104.416664 164.5 104.416664C167.8137 104.416664 170.5 107.10296 170.5 110.416664Z" fill-rule="nonzero"/><path fill="#d9d9d9" d="M182.03125 111.854164L182.03125 117.416664L180.15625 117.416664L180.15625 103.197914L185.39062 103.197914Q187.73438 103.197914 189.04688 104.385414Q190.375 105.572914 190.375 107.541664Q190.375 109.61979 189.07812 110.74479Q187.78125 111.854164 185.375 111.854164L182.03125 111.854164ZM182.03125 110.322914L185.39062 110.322914Q186.90625 110.322914 187.70312 109.61979Q188.5 108.90104 188.5 107.55729Q188.5 106.291664 187.70312 105.541664Q186.90625 104.77604 185.5 104.74479L182.03125 104.74479L182.03125 110.322914ZM199.39062 116.36979Q198.34375 117.61979 196.29688 117.61979Q194.60938 117.61979 193.71875 116.635414Q192.84375 115.65104 192.82812 113.729164L192.82812 106.854164L194.64062 106.854164L194.64062 113.68229Q194.64062 116.072914 196.59375 116.072914Q198.65625 116.072914 199.34375 114.541664L199.34375 106.854164L201.15625 106.854164L201.15625 117.416664L199.4375 117.416664L199.39062 116.36979ZM212.8125 112.24479Q212.8125 114.666664 211.70312 116.15104Q210.59375 117.61979 208.71875 117.61979Q206.70312 117.61979 205.60938 116.197914L205.53125 117.416664L203.875 117.416664L203.875 102.416664L205.67188 102.416664L205.67188 108.010414Q206.76562 106.65104 208.6875 106.65104Q210.60938 106.65104 211.70312 108.104164Q212.8125 109.55729 212.8125 112.08854L212.8125 112.24479ZM211.0 112.041664Q211.0 110.197914 210.28125 109.197914Q209.57812 108.18229 208.25 108.18229Q206.45312 108.18229 205.67188 109.854164L205.67188 114.416664Q206.5 116.072914 208.26562 116.072914Q209.5625 116.072914 210.28125 115.072914Q211.0 114.072914 211.0 112.041664ZM216.82812 117.416664L215.03125 117.416664L215.03125 102.416664L216.82812 102.416664L216.82812 117.416664ZM221.82812 117.416664L220.03125 117.416664L220.03125 106.854164L221.82812 106.854164L221.82812 117.416664ZM219.875 104.041664Q219.875 103.604164 220.14062 103.30729Q220.42188 102.99479 220.9375 102.99479Q221.46875 102.99479 221.73438 103.30729Q222.01562 103.604164 222.01562 104.041664Q222.01562 104.479164 221.73438 104.77604Q221.46875 105.072914 220.9375 105.072914Q220.42188 105.072914 220.14062 104.77604Q219.875 104.479164 219.875 104.041664ZM229.10938 116.135414Q230.07812 116.135414 230.79688 115.55729Q231.51562 114.96354 231.59375 114.08854L233.3125 114.08854Q233.25 114.99479 232.67188 115.822914Q232.10938 116.635414 231.14062 117.135414Q230.1875 117.61979 229.10938 117.61979Q226.95312 117.61979 225.67188 116.18229Q224.40625 114.729164 224.40625 112.229164L224.40625 111.93229Q224.40625 110.385414 224.96875 109.18229Q225.53125 107.979164 226.59375 107.322914Q227.65625 106.65104 229.09375 106.65104Q230.875 106.65104 232.04688 107.71354Q233.23438 108.77604 233.3125 110.479164L231.59375 110.479164Q231.51562 109.46354 230.8125 108.80729Q230.125 108.135414 229.09375 108.135414Q227.71875 108.135414 226.95312 109.135414Q226.20312 110.11979 226.20312 111.99479L226.20312 112.33854Q226.20312 114.166664 226.95312 115.15104Q227.70312 116.135414 229.10938 116.135414ZM244.34375 111.072914Q241.92188 110.385414 240.82812 109.385414Q239.73438 108.36979 239.73438 106.885414Q239.73438 105.197914 241.07812 104.104164Q242.42188 102.99479 244.5625 102.99479Q246.03125 102.99479 247.17188 103.572914Q248.32812 104.135414 248.95312 105.135414Q249.57812 106.11979 249.57812 107.30729L247.70312 107.30729Q247.70312 106.02604 246.875 105.291664Q246.0625 104.541664 244.5625 104.541664Q243.17188 104.541664 242.39062 105.15104Q241.625 105.760414 241.625 106.854164Q241.625 107.71354 242.35938 108.322914Q243.09375 108.916664 244.85938 109.416664Q246.64062 109.916664 247.64062 110.52604Q248.64062 111.11979 249.125 111.916664Q249.60938 112.71354 249.60938 113.80729Q249.60938 115.52604 248.26562 116.572914Q246.92188 117.61979 244.65625 117.61979Q243.20312 117.61979 241.92188 117.05729Q240.65625 116.49479 239.96875 115.52604Q239.28125 114.541664 239.28125 113.291664L241.17188 113.291664Q241.17188 114.58854 242.125 115.33854Q243.07812 116.072914 244.65625 116.072914Q246.14062 116.072914 246.9375 115.479164Q247.73438 114.86979 247.73438 113.822914Q247.73438 112.77604 247.0 112.21354Q246.26562 111.635414 244.34375 111.072914ZM256.25 117.61979Q254.10938 117.61979 252.75 116.21354Q251.40625 114.791664 251.40625 112.43229L251.40625 112.08854Q251.40625 110.52604 252.0 109.291664Q252.60938 108.05729 253.6875 107.354164Q254.76562 106.65104 256.03125 106.65104Q258.09375 106.65104 259.23438 108.010414Q260.375 109.36979 260.375 111.90104L260.375 112.65104L253.21875 112.65104Q253.25 114.21354 254.125 115.18229Q255.0 116.135414 256.34375 116.135414Q257.3125 116.135414 257.96875 115.74479Q258.64062 115.354164 259.14062 114.71354L260.23438 115.572914Q258.90625 117.61979 256.25 117.61979ZM256.03125 108.135414Q254.9375 108.135414 254.1875 108.93229Q253.45312 109.729164 253.28125 111.166664L258.5625 111.166664L258.5625 111.02604Q258.48438 109.65104 257.8125 108.90104Q257.15625 108.135414 256.03125 108.135414ZM267.96875 108.46354Q267.5625 108.40104 267.09375 108.40104Q265.3125 108.40104 264.67188 109.916664L264.67188 117.416664L262.875 117.416664L262.875 106.854164L264.625 106.854164L264.65625 108.072914Q265.54688 106.65104 267.17188 106.65104Q267.70312 106.65104 267.96875 106.791664L267.96875 108.46354ZM273.35938 114.96354L275.96875 106.854164L277.8125 106.854164L274.03125 117.416664L272.65625 117.416664L268.82812 106.854164L270.67188 106.854164L273.35938 114.96354ZM284.25 117.61979Q282.10938 117.61979 280.75 116.21354Q279.40625 114.791664 279.40625 112.43229L279.40625 112.08854Q279.40625 110.52604 280.0 109.291664Q280.60938 108.05729 281.6875 107.354164Q282.76562 106.65104 284.03125 106.65104Q286.09375 106.65104 287.23438 108.010414Q288.375 109.36979 288.375 111.90104L288.375 112.65104L281.21875 112.65104Q281.25 114.21354 282.125 115.18229Q283.0 116.135414 284.34375 116.135414Q285.3125 116.135414 285.96875 115.74479Q286.64062 115.354164 287.14062 114.71354L288.23438 115.572914Q286.90625 117.61979 284.25 117.61979ZM284.03125 108.135414Q282.9375 108.135414 282.1875 108.93229Q281.45312 109.729164 281.28125 111.166664L286.5625 111.166664L286.5625 111.02604Q286.48438 109.65104 285.8125 108.90104Q285.15625 108.135414 284.03125 108.135414ZM295.96875 108.46354Q295.5625 108.40104 295.09375 108.40104Q293.3125 108.40104 292.67188 109.916664L292.67188 117.416664L290.875 117.416664L290.875 106.854164L292.625 106.854164L292.65625 108.072914Q293.54688 106.65104 295.17188 106.65104Q295.70312 106.65104 295.96875 106.791664L295.96875 108.46354ZM304.01562 114.61979Q304.01562 113.885414 303.46875 113.479164Q302.92188 113.072914 301.54688 112.77604Q300.17188 112.479164 299.35938 112.072914Q298.5625 111.666664 298.17188 111.104164Q297.79688 110.52604 297.79688 109.74479Q297.79688 108.447914 298.89062 107.55729Q299.98438 106.65104 301.70312 106.65104Q303.5 106.65104 304.60938 107.58854Q305.73438 108.510414 305.73438 109.947914L303.90625 109.947914Q303.90625 109.21354 303.28125 108.68229Q302.65625 108.135414 301.70312 108.135414Q300.70312 108.135414 300.14062 108.572914Q299.59375 108.99479 299.59375 109.697914Q299.59375 110.33854 300.10938 110.68229Q300.625 111.010414 301.98438 111.322914Q303.34375 111.61979 304.17188 112.041664Q305.01562 112.447914 305.42188 113.041664Q305.82812 113.635414 305.82812 114.479164Q305.82812 115.90104 304.6875 116.760414Q303.5625 117.61979 301.75 117.61979Q300.48438 117.61979 299.5 117.166664Q298.53125 116.71354 297.96875 115.916664Q297.42188 115.104164 297.42188 114.166664L299.23438 114.166664Q299.28125 115.072914 299.95312 115.604164Q300.64062 116.135414 301.75 116.135414Q302.78125 116.135414 303.39062 115.729164Q304.01562 115.30729 304.01562 114.61979Z" fill-rule="nonzero"/><path fill="#ffff00" d="M334.5 110.416664C334.5 113.73038 331.81372 116.416664 328.5 116.416664C325.18628 116.416664 322.5 113.73038 322.5 110.416664C322.5 107.10296 325.18628 104.416664 328.5 104.416664C331.81372 104.416664 334.5 107.10296 334.5 110.416664Z" fill-rule="nonzero"/><path fill="#d9d9d9" d="M354.60938 112.90104Q354.34375 115.166664 352.9375 116.40104Q351.54688 117.61979 349.21875 117.61979Q346.70312 117.61979 345.17188 115.80729Q343.65625 113.99479 343.65625 110.96354L343.65625 109.604164Q343.65625 107.61979 344.35938 106.11979Q345.07812 104.61979 346.375 103.80729Q347.67188 102.99479 349.39062 102.99479Q351.65625 102.99479 353.01562 104.260414Q354.39062 105.52604 354.60938 107.760414L352.71875 107.760414Q352.48438 106.072914 351.65625 105.30729Q350.84375 104.541664 349.39062 104.541664Q347.59375 104.541664 346.5625 105.86979Q345.54688 107.197914 345.54688 109.65104L345.54688 111.02604Q345.54688 113.33854 346.51562 114.71354Q347.48438 116.072914 349.21875 116.072914Q350.78125 116.072914 351.60938 115.36979Q352.45312 114.666664 352.71875 112.90104L354.60938 112.90104ZM356.39062 112.041664Q356.39062 110.479164 357.0 109.24479Q357.60938 107.99479 358.6875 107.322914Q359.78125 106.65104 361.1875 106.65104Q363.34375 106.65104 364.67188 108.15104Q366.01562 109.635414 366.01562 112.11979L366.01562 112.24479Q366.01562 113.791664 365.42188 115.02604Q364.82812 116.24479 363.71875 116.93229Q362.625 117.61979 361.20312 117.61979Q359.0625 117.61979 357.71875 116.11979Q356.39062 114.61979 356.39062 112.166664L356.39062 112.041664ZM358.20312 112.24479Q358.20312 114.010414 359.01562 115.072914Q359.84375 116.135414 361.20312 116.135414Q362.57812 116.135414 363.39062 115.05729Q364.20312 113.979164 364.20312 112.041664Q364.20312 110.291664 363.375 109.21354Q362.54688 108.135414 361.1875 108.135414Q359.84375 108.135414 359.01562 109.197914Q358.20312 110.260414 358.20312 112.24479ZM369.57812 106.854164L369.64062 108.18229Q370.84375 106.65104 372.79688 106.65104Q376.15625 106.65104 376.17188 110.43229L376.17188 117.416664L374.375 117.416664L374.375 110.416664Q374.35938 109.27604 373.84375 108.729164Q373.34375 108.18229 372.25 108.18229Q371.375 108.18229 370.70312 108.65104Q370.04688 109.11979 369.67188 109.885414L369.67188 117.416664L367.875 117.416664L367.875 106.854164L369.57812 106.854164ZM381.3125 104.291664L381.3125 106.854164L383.29688 106.854164L383.29688 108.24479L381.3125 108.24479L381.3125 114.791664Q381.3125 115.43229 381.57812 115.760414Q381.84375 116.072914 382.48438 116.072914Q382.79688 116.072914 383.34375 115.947914L383.34375 117.416664Q382.625 117.61979 381.95312 117.61979Q380.75 117.61979 380.125 116.885414Q379.51562 116.15104 379.51562 114.791664L379.51562 108.24479L377.59375 108.24479L377.59375 106.854164L379.51562 106.854164L379.51562 104.291664L381.3125 104.291664ZM392.39062 117.416664Q392.23438 117.104164 392.14062 116.30729Q390.875 117.61979 389.125 117.61979Q387.5625 117.61979 386.5625 116.729164Q385.5625 115.83854 385.5625 114.479164Q385.5625 112.83854 386.8125 111.93229Q388.07812 111.010414 390.34375 111.010414L392.10938 111.010414L392.10938 110.18229Q392.10938 109.229164 391.53125 108.666664Q390.96875 108.104164 389.875 108.104164Q388.90625 108.104164 388.25 108.604164Q387.59375 109.08854 387.59375 109.77604L385.78125 109.77604Q385.78125 108.99479 386.34375 108.260414Q386.90625 107.510414 387.85938 107.08854Q388.82812 106.65104 389.98438 106.65104Q391.8125 106.65104 392.84375 107.572914Q393.875 108.479164 393.92188 110.08854L393.92188 114.947914Q393.92188 116.40104 394.28125 117.260414L394.28125 117.416664L392.39062 117.416664ZM389.39062 116.041664Q390.25 116.041664 391.0 115.604164Q391.76562 115.166664 392.10938 114.46354L392.10938 112.291664L390.6875 112.291664Q387.375 112.291664 387.375 114.229164Q387.375 115.08854 387.9375 115.572914Q388.5 116.041664 389.39062 116.041664ZM398.82812 117.416664L397.03125 117.416664L397.03125 106.854164L398.82812 106.854164L398.82812 117.416664ZM396.875 104.041664Q396.875 103.604164 397.14062 103.30729Q397.42188 102.99479 397.9375 102.99479Q398.46875 102.99479 398.73438 103.30729Q399.01562 103.604164 399.01562 104.041664Q399.01562 104.479164 398.73438 104.77604Q398.46875 105.072914 397.9375 105.072914Q397.42188 105.072914 397.14062 104.77604Q396.875 104.479164 396.875 104.041664ZM403.57812 106.854164L403.64062 108.18229Q404.84375 106.65104 406.79688 106.65104Q410.15625 106.65104 410.17188 110.43229L410.17188 117.416664L408.375 117.416664L408.375 110.416664Q408.35938 109.27604 407.84375 108.729164Q407.34375 108.18229 406.25 108.18229Q405.375 108.18229 404.70312 108.65104Q404.04688 109.11979 403.67188 109.885414L403.67188 117.416664L401.875 117.416664L401.875 106.854164L403.57812 106.854164ZM417.25 117.61979Q415.10938 117.61979 413.75 116.21354Q412.40625 114.791664 412.40625 112.43229L412.40625 112.08854Q412.40625 110.52604 413.0 109.291664Q413.60938 108.05729 414.6875 107.354164Q415.76562 106.65104 417.03125 106.65104Q419.09375 106.65104 420.23438 108.010414Q421.375 109.36979 421.375 111.90104L421.375 112.65104L414.21875 112.65104Q414.25 114.21354 415.125 115.18229Q416.0 116.135414 417.34375 116.135414Q418.3125 116.135414 418.96875 115.74479Q419.64062 115.354164 420.14062 114.71354L421.23438 115.572914Q419.90625 117.61979 417.25 117.61979ZM417.03125 108.135414Q415.9375 108.135414 415.1875 108.93229Q414.45312 109.729164 414.28125 111.166664L419.5625 111.166664L419.5625 111.02604Q419.48438 109.65104 418.8125 108.90104Q418.15625 108.135414 417.03125 108.135414ZM428.96875 108.46354Q428.5625 108.40104 428.09375 108.40104Q426.3125 108.40104 425.67188 109.916664L425.67188 117.416664L423.875 117.416664L423.875 106.854164L425.625 106.854164L425.65625 108.072914Q426.54688 106.65104 428.17188 106.65104Q428.70312 106.65104 428.96875 106.791664L428.96875 108.46354ZM437.01562 114.61979Q437.01562 113.885414 436.46875 113.479164Q435.92188 113.072914 434.54688 112.77604Q433.17188 112.479164 432.35938 112.072914Q431.5625 111.666664 431.17188 111.104164Q430.79688 110.52604 430.79688 109.74479Q430.79688 108.447914 431.89062 107.55729Q432.98438 106.65104 434.70312 106.65104Q436.5 106.65104 437.60938 107.58854Q438.73438 108.510414 438.73438 109.947914L436.90625 109.947914Q436.90625 109.21354 436.28125 108.68229Q435.65625 108.135414 434.70312 108.135414Q433.70312 108.135414 433.14062 108.572914Q432.59375 108.99479 432.59375 109.697914Q432.59375 110.33854 433.10938 110.68229Q433.625 111.010414 434.98438 111.322914Q436.34375 111.61979 437.17188 112.041664Q438.01562 112.447914 438.42188 113.041664Q438.82812 113.635414 438.82812 114.479164Q438.82812 115.90104 437.6875 116.760414Q436.5625 117.61979 434.75 117.61979Q433.48438 117.61979 432.5 117.166664Q431.53125 116.71354 430.96875 115.916664Q430.42188 115.104164 430.42188 114.166664L432.23438 114.166664Q432.28125 115.072914 432.95312 115.604164Q433.64062 116.135414 434.75 116.135414Q435.78125 116.135414 436.39062 115.729164Q437.01562 115.30729 437.01562 114.61979Z" fill-rule="nonzero"/><path fill="#ff9900" d="M467.5 110.416664C467.5 113.73038 464.81372 116.416664 461.5 116.416664C458.18628 116.416664 455.5 113.73038 455.5 110.416664C455.5 107.10296 458.18628 104.416664 461.5 104.416664C464.81372 104.416664 467.5 107.10296 467.5 110.416664Z" fill-rule="nonzero"/><path fill="#d9d9d9" d="M485.0 113.697914L479.04688 113.697914L477.70312 117.416664L475.78125 117.416664L481.20312 103.197914L482.84375 103.197914L488.28125 117.416664L486.35938 117.416664L485.0 113.697914ZM479.60938 112.166664L484.45312 112.166664L482.03125 105.510414L479.60938 112.166664ZM494.10938 116.135414Q495.07812 116.135414 495.79688 115.55729Q496.51562 114.96354 496.59375 114.08854L498.3125 114.08854Q498.25 114.99479 497.67188 115.822914Q497.10938 116.635414 496.14062 117.135414Q495.1875 117.61979 494.10938 117.61979Q491.95312 117.61979 490.67188 116.18229Q489.40625 114.729164 489.40625 112.229164L489.40625 111.93229Q489.40625 110.385414 489.96875 109.18229Q490.53125 107.979164 491.59375 107.322914Q492.65625 106.65104 494.09375 106.65104Q495.875 106.65104 497.04688 107.71354Q498.23438 108.77604 498.3125 110.479164L496.59375 110.479164Q496.51562 109.46354 495.8125 108.80729Q495.125 108.135414 494.09375 108.135414Q492.71875 108.135414 491.95312 109.135414Q491.20312 110.11979 491.20312 111.99479L491.20312 112.33854Q491.20312 114.166664 491.95312 115.15104Q492.70312 116.135414 494.10938 116.135414ZM506.39062 117.416664Q506.23438 117.104164 506.14062 116.30729Q504.875 117.61979 503.125 117.61979Q501.5625 117.61979 500.5625 116.729164Q499.5625 115.83854 499.5625 114.479164Q499.5625 112.83854 500.8125 111.93229Q502.07812 111.010414 504.34375 111.010414L506.10938 111.010414L506.10938 110.18229Q506.10938 109.229164 505.53125 108.666664Q504.96875 108.104164 503.875 108.104164Q502.90625 108.104164 502.25 108.604164Q501.59375 109.08854 501.59375 109.77604L499.78125 109.77604Q499.78125 108.99479 500.34375 108.260414Q500.90625 107.510414 501.85938 107.08854Q502.82812 106.65104 503.98438 106.65104Q505.8125 106.65104 506.84375 107.572914Q507.875 108.479164 507.92188 110.08854L507.92188 114.947914Q507.92188 116.40104 508.28125 117.260414L508.28125 117.416664L506.39062 117.416664ZM503.39062 116.041664Q504.25 116.041664 505.0 115.604164Q505.76562 115.166664 506.10938 114.46354L506.10938 112.291664L504.6875 112.291664Q501.375 112.291664 501.375 114.229164Q501.375 115.08854 501.9375 115.572914Q502.5 116.041664 503.39062 116.041664ZM510.42188 112.041664Q510.42188 109.61979 511.57812 108.135414Q512.7344 106.65104 514.59375 106.65104Q516.4531 106.65104 517.53125 107.916664L517.53125 102.416664L519.34375 102.416664L519.34375 117.416664L517.6875 117.416664L517.59375 116.27604Q516.5156 117.61979 514.5781 117.61979Q512.75 117.61979 511.57812 116.11979Q510.42188 114.604164 510.42188 112.18229L510.42188 112.041664ZM512.2344 112.24479Q512.2344 114.041664 512.96875 115.05729Q513.71875 116.072914 515.03125 116.072914Q516.75 116.072914 517.53125 114.541664L517.53125 109.68229Q516.7344 108.18229 515.0469 108.18229Q513.71875 108.18229 512.96875 109.21354Q512.2344 110.24479 512.2344 112.24479ZM526.25 117.61979Q524.1094 117.61979 522.75 116.21354Q521.40625 114.791664 521.40625 112.43229L521.40625 112.08854Q521.40625 110.52604 522.0 109.291664Q522.6094 108.05729 523.6875 107.354164Q524.7656 106.65104 526.03125 106.65104Q528.09375 106.65104 529.2344 108.010414Q530.375 109.36979 530.375 111.90104L530.375 112.65104L523.21875 112.65104Q523.25 114.21354 524.125 115.18229Q525.0 116.135414 526.34375 116.135414Q527.3125 116.135414 527.96875 115.74479Q528.6406 115.354164 529.1406 114.71354L530.2344 115.572914Q528.90625 117.61979 526.25 117.61979ZM526.03125 108.135414Q524.9375 108.135414 524.1875 108.93229Q523.4531 109.729164 523.28125 111.166664L528.5625 111.166664L528.5625 111.02604Q528.4844 109.65104 527.8125 108.90104Q527.15625 108.135414 526.03125 108.135414ZM534.5625 106.854164L534.6094 108.02604Q535.78125 106.65104 537.75 106.65104Q539.96875 106.65104 540.7656 108.354164Q541.2969 107.58854 542.1406 107.11979Q542.9844 106.65104 544.1406 106.65104Q547.6094 106.65104 547.6719 110.33854L547.6719 117.416664L545.8594 117.416664L545.8594 110.447914Q545.8594 109.30729 545.34375 108.74479Q544.8281 108.18229 543.6094 108.18229Q542.6094 108.18229 541.9375 108.791664Q541.28125 109.385414 541.1719 110.40104L541.1719 117.416664L539.3594 117.416664L539.3594 110.49479Q539.3594 108.18229 537.09375 108.18229Q535.3125 108.18229 534.6719 109.697914L534.6719 117.416664L532.8594 117.416664L532.8594 106.854164L534.5625 106.854164ZM552.8281 117.416664L551.03125 117.416664L551.03125 106.854164L552.8281 106.854164L552.8281 117.416664ZM550.875 104.041664Q550.875 103.604164 551.1406 103.30729Q551.4219 102.99479 551.9375 102.99479Q552.46875 102.99479 552.7344 103.30729Q553.0156 103.604164 553.0156 104.041664Q553.0156 104.479164 552.7344 104.77604Q552.46875 105.072914 551.9375 105.072914Q551.4219 105.072914 551.1406 104.77604Q550.875 104.479164 550.875 104.041664ZM560.1094 116.135414Q561.0781 116.135414 561.7969 115.55729Q562.5156 114.96354 562.59375 114.08854L564.3125 114.08854Q564.25 114.99479 563.6719 115.822914Q563.1094 116.635414 562.1406 117.135414Q561.1875 117.61979 560.1094 117.61979Q557.9531 117.61979 556.6719 116.18229Q555.40625 114.729164 555.40625 112.229164L555.40625 111.93229Q555.40625 110.385414 555.96875 109.18229Q556.53125 107.979164 557.59375 107.322914Q558.65625 106.65104 560.09375 106.65104Q561.875 106.65104 563.0469 107.71354Q564.2344 108.77604 564.3125 110.479164L562.59375 110.479164Q562.5156 109.46354 561.8125 108.80729Q561.125 108.135414 560.09375 108.135414Q558.71875 108.135414 557.9531 109.135414Q557.2031 110.11979 557.2031 111.99479L557.2031 112.33854Q557.2031 114.166664 557.9531 115.15104Q558.7031 116.135414 560.1094 116.135414ZM581.6094 112.90104Q581.34375 115.166664 579.9375 116.40104Q578.5469 117.61979 576.21875 117.61979Q573.7031 117.61979 572.1719 115.80729Q570.65625 113.99479 570.65625 110.96354L570.65625 109.604164Q570.65625 107.61979 571.3594 106.11979Q572.0781 104.61979 573.375 103.80729Q574.6719 102.99479 576.3906 102.99479Q578.65625 102.99479 580.0156 104.260414Q581.3906 105.52604 581.6094 107.760414L579.71875 107.760414Q579.4844 106.072914 578.65625 105.30729Q577.84375 104.541664 576.3906 104.541664Q574.59375 104.541664 573.5625 105.86979Q572.5469 107.197914 572.5469 109.65104L572.5469 111.02604Q572.5469 113.33854 573.5156 114.71354Q574.4844 116.072914 576.21875 116.072914Q577.78125 116.072914 578.6094 115.36979Q579.4531 114.666664 579.71875 112.90104L581.6094 112.90104ZM585.8281 117.416664L584.03125 117.416664L584.03125 102.416664L585.8281 102.416664L585.8281 117.416664ZM588.3906 112.041664Q588.3906 110.479164 589.0 109.24479Q589.6094 107.99479 590.6875 107.322914Q591.78125 106.65104 593.1875 106.65104Q595.34375 106.65104 596.6719 108.15104Q598.0156 109.635414 598.0156 112.11979L598.0156 112.24479Q598.0156 113.791664 597.4219 115.02604Q596.8281 116.24479 595.71875 116.93229Q594.625 117.61979 593.2031 117.61979Q591.0625 117.61979 589.71875 116.11979Q588.3906 114.61979 588.3906 112.166664L588.3906 112.041664ZM590.2031 112.24479Q590.2031 114.010414 591.0156 115.072914Q591.84375 116.135414 593.2031 116.135414Q594.5781 116.135414 595.3906 115.05729Q596.2031 113.979164 596.2031 112.041664Q596.2031 110.291664 595.375 109.21354Q594.5469 108.135414 593.1875 108.135414Q591.84375 108.135414 591.0156 109.197914Q590.2031 110.260414 590.2031 112.24479ZM606.3906 116.36979Q605.34375 117.61979 603.2969 117.61979Q601.6094 117.61979 600.71875 116.635414Q599.84375 115.65104 599.8281 113.729164L599.8281 106.854164L601.6406 106.854164L601.6406 113.68229Q601.6406 116.072914 603.59375 116.072914Q605.65625 116.072914 606.34375 114.541664L606.34375 106.854164L608.15625 106.854164L608.15625 117.416664L606.4375 117.416664L606.3906 116.36979ZM610.4219 112.041664Q610.4219 109.61979 611.5781 108.135414Q612.7344 106.65104 614.59375 106.65104Q616.4531 106.65104 617.53125 107.916664L617.53125 102.416664L619.34375 102.416664L619.34375 117.416664L617.6875 117.416664L617.59375 116.27604Q616.5156 117.61979 614.5781 117.61979Q612.75 117.61979 611.5781 116.11979Q610.4219 114.604164 610.4219 112.18229L610.4219 112.041664ZM612.2344 112.24479Q612.2344 114.041664 612.96875 115.05729Q613.71875 116.072914 615.03125 116.072914Q616.75 116.072914 617.53125 114.541664L617.53125 109.68229Q616.7344 108.18229 615.0469 108.18229Q613.71875 108.18229 612.96875 109.21354Q612.2344 110.24479 612.2344 112.24479ZM628.0156 114.61979Q628.0156 113.885414 627.46875 113.479164Q626.9219 113.072914 625.5469 112.77604Q624.1719 112.479164 623.3594 112.072914Q622.5625 111.666664 622.1719 111.104164Q621.7969 110.52604 621.7969 109.74479Q621.7969 108.447914 622.8906 107.55729Q623.9844 106.65104 625.7031 106.65104Q627.5 106.65104 628.6094 107.58854Q629.7344 108.510414 629.7344 109.947914L627.90625 109.947914Q627.90625 109.21354 627.28125 108.68229Q626.65625 108.135414 625.7031 108.135414Q624.7031 108.135414 624.1406 108.572914Q623.59375 108.99479 623.59375 109.697914Q623.59375 110.33854 624.1094 110.68229Q624.625 111.010414 625.9844 111.322914Q627.34375 111.61979 628.1719 112.041664Q629.0156 112.447914 629.4219 113.041664Q629.8281 113.635414 629.8281 114.479164Q629.8281 115.90104 628.6875 116.760414Q627.5625 117.61979 625.75 117.61979Q624.4844 117.61979 623.5 117.166664Q622.53125 116.71354 621.96875 115.916664Q621.4219 115.104164 621.4219 114.166664L623.2344 114.166664Q623.28125 115.072914 623.9531 115.604164Q624.6406 116.135414 625.75 116.135414Q626.78125 116.135414 627.3906 115.729164Q628.0156 115.30729 628.0156 114.61979Z" fill-rule="nonzero"/><path fill="#109618" d="M658.5 110.416664C658.5 113.73038 655.8137 116.416664 652.5 116.416664C649.1863 116.416664 646.5 113.73038 646.5 110.416664C646.5 107.10296 649.1863 104.416664 652.5 104.416664C655.8137 104.416664 658.5 107.10296 658.5 110.416664Z" fill-rule="nonzero"/><path fill="#d9d9d9" d="M678.6094 112.90104Q678.34375 115.166664 676.9375 116.40104Q675.5469 117.61979 673.21875 117.61979Q670.7031 117.61979 669.1719 115.80729Q667.65625 113.99479 667.65625 110.96354L667.65625 109.604164Q667.65625 107.61979 668.3594 106.11979Q669.0781 104.61979 670.375 103.80729Q671.6719 102.99479 673.3906 102.99479Q675.65625 102.99479 677.0156 104.260414Q678.3906 105.52604 678.6094 107.760414L676.71875 107.760414Q676.4844 106.072914 675.65625 105.30729Q674.84375 104.541664 673.3906 104.541664Q671.59375 104.541664 670.5625 105.86979Q669.5469 107.197914 669.5469 109.65104L669.5469 111.02604Q669.5469 113.33854 670.5156 114.71354Q671.4844 116.072914 673.21875 116.072914Q674.78125 116.072914 675.6094 115.36979Q676.4531 114.666664 676.71875 112.90104L678.6094 112.90104ZM680.3906 112.041664Q680.3906 110.479164 681.0 109.24479Q681.6094 107.99479 682.6875 107.322914Q683.78125 106.65104 685.1875 106.65104Q687.34375 106.65104 688.6719 108.15104Q690.0156 109.635414 690.0156 112.11979L690.0156 112.24479Q690.0156 113.791664 689.4219 115.02604Q688.8281 116.24479 687.71875 116.93229Q686.625 117.61979 685.2031 117.61979Q683.0625 117.61979 681.71875 116.11979Q680.3906 114.61979 680.3906 112.166664L680.3906 112.041664ZM682.2031 112.24479Q682.2031 114.010414 683.0156 115.072914Q683.84375 116.135414 685.2031 116.135414Q686.5781 116.135414 687.3906 115.05729Q688.2031 113.979164 688.2031 112.041664Q688.2031 110.291664 687.375 109.21354Q686.5469 108.135414 685.1875 108.135414Q683.84375 108.135414 683.0156 109.197914Q682.2031 110.260414 682.2031 112.24479ZM693.5625 106.854164L693.6094 108.02604Q694.78125 106.65104 696.75 106.65104Q698.96875 106.65104 699.7656 108.354164Q700.2969 107.58854 701.1406 107.11979Q701.9844 106.65104 703.1406 106.65104Q706.6094 106.65104 706.6719 110.33854L706.6719 117.416664L704.8594 117.416664L704.8594 110.447914Q704.8594 109.30729 704.34375 108.74479Q703.8281 108.18229 702.6094 108.18229Q701.6094 108.18229 700.9375 108.791664Q700.28125 109.385414 700.1719 110.40104L700.1719 117.416664L698.3594 117.416664L698.3594 110.49479Q698.3594 108.18229 696.09375 108.18229Q694.3125 108.18229 693.6719 109.697914L693.6719 117.416664L691.8594 117.416664L691.8594 106.854164L693.5625 106.854164ZM711.5625 106.854164L711.6094 108.02604Q712.78125 106.65104 714.75 106.65104Q716.96875 106.65104 717.7656 108.354164Q718.2969 107.58854 719.1406 107.11979Q719.9844 106.65104 721.1406 106.65104Q724.6094 106.65104 724.6719 110.33854L724.6719 117.416664L722.8594 117.416664L722.8594 110.447914Q722.8594 109.30729 722.34375 108.74479Q721.8281 108.18229 720.6094 108.18229Q719.6094 108.18229 718.9375 108.791664Q718.28125 109.385414 718.1719 110.40104L718.1719 117.416664L716.3594 117.416664L716.3594 110.49479Q716.3594 108.18229 714.09375 108.18229Q712.3125 108.18229 711.6719 109.697914L711.6719 117.416664L709.8594 117.416664L709.8594 106.854164L711.5625 106.854164ZM732.25 117.61979Q730.1094 117.61979 728.75 116.21354Q727.40625 114.791664 727.40625 112.43229L727.40625 112.08854Q727.40625 110.52604 728.0 109.291664Q728.6094 108.05729 729.6875 107.354164Q730.7656 106.65104 732.03125 106.65104Q734.09375 106.65104 735.2344 108.010414Q736.375 109.36979 736.375 111.90104L736.375 112.65104L729.21875 112.65104Q729.25 114.21354 730.125 115.18229Q731.0 116.135414 732.34375 116.135414Q733.3125 116.135414 733.96875 115.74479Q734.6406 115.354164 735.1406 114.71354L736.2344 115.572914Q734.90625 117.61979 732.25 117.61979ZM732.03125 108.135414Q730.9375 108.135414 730.1875 108.93229Q729.4531 109.729164 729.28125 111.166664L734.5625 111.166664L734.5625 111.02604Q734.4844 109.65104 733.8125 108.90104Q733.15625 108.135414 732.03125 108.135414ZM743.96875 108.46354Q743.5625 108.40104 743.09375 108.40104Q741.3125 108.40104 740.6719 109.916664L740.6719 117.416664L738.875 117.416664L738.875 106.854164L740.625 106.854164L740.65625 108.072914Q741.5469 106.65104 743.1719 106.65104Q743.7031 106.65104 743.96875 106.791664L743.96875 108.46354ZM750.1094 116.135414Q751.0781 116.135414 751.7969 115.55729Q752.5156 114.96354 752.59375 114.08854L754.3125 114.08854Q754.25 114.99479 753.6719 115.822914Q753.1094 116.635414 752.1406 117.135414Q751.1875 117.61979 750.1094 117.61979Q747.9531 117.61979 746.6719 116.18229Q745.40625 114.729164 745.40625 112.229164L745.40625 111.93229Q745.40625 110.385414 745.96875 109.18229Q746.53125 107.979164 747.59375 107.322914Q748.65625 106.65104 750.09375 106.65104Q751.875 106.65104 753.0469 107.71354Q754.2344 108.77604 754.3125 110.479164L752.59375 110.479164Q752.5156 109.46354 751.8125 108.80729Q751.125 108.135414 750.09375 108.135414Q748.71875 108.135414 747.9531 109.135414Q747.2031 110.11979 747.2031 111.99479L747.2031 112.33854Q747.2031 114.166664 747.9531 115.15104Q748.7031 116.135414 750.1094 116.135414ZM757.8281 117.416664L756.03125 117.416664L756.03125 106.854164L757.8281 106.854164L757.8281 117.416664ZM755.875 104.041664Q755.875 103.604164 756.1406 103.30729Q756.4219 102.99479 756.9375 102.99479Q757.46875 102.99479 757.7344 103.30729Q758.0156 103.604164 758.0156 104.041664Q758.0156 104.479164 757.7344 104.77604Q757.46875 105.072914 756.9375 105.072914Q756.4219 105.072914 756.1406 104.77604Q755.875 104.479164 755.875 104.041664ZM767.3906 117.416664Q767.2344 117.104164 767.1406 116.30729Q765.875 117.61979 764.125 117.61979Q762.5625 117.61979 761.5625 116.729164Q760.5625 115.83854 760.5625 114.479164Q760.5625 112.83854 761.8125 111.93229Q763.0781 111.010414 765.34375 111.010414L767.1094 111.010414L767.1094 110.18229Q767.1094 109.229164 766.53125 108.666664Q765.96875 108.104164 764.875 108.104164Q763.90625 108.104164 763.25 108.604164Q762.59375 109.08854 762.59375 109.77604L760.78125 109.77604Q760.78125 108.99479 761.34375 108.260414Q761.90625 107.510414 762.8594 107.08854Q763.8281 106.65104 764.9844 106.65104Q766.8125 106.65104 767.84375 107.572914Q768.875 108.479164 768.9219 110.08854L768.9219 114.947914Q768.9219 116.40104 769.28125 117.260414L769.28125 117.416664L767.3906 117.416664ZM764.3906 116.041664Q765.25 116.041664 766.0 115.604164Q766.7656 115.166664 767.1094 114.46354L767.1094 112.291664L765.6875 112.291664Q762.375 112.291664 762.375 114.229164Q762.375 115.08854 762.9375 115.572914Q763.5 116.041664 764.3906 116.041664ZM773.8281 117.416664L772.03125 117.416664L772.03125 102.416664L773.8281 102.416664L773.8281 117.416664ZM792.6094 112.90104Q792.34375 115.166664 790.9375 116.40104Q789.5469 117.61979 787.21875 117.61979Q784.7031 117.61979 783.1719 115.80729Q781.65625 113.99479 781.65625 110.96354L781.65625 109.604164Q781.65625 107.61979 782.3594 106.11979Q783.0781 104.61979 784.375 103.80729Q785.6719 102.99479 787.3906 102.99479Q789.65625 102.99479 791.0156 104.260414Q792.3906 105.52604 792.6094 107.760414L790.71875 107.760414Q790.4844 106.072914 789.65625 105.30729Q788.84375 104.541664 787.3906 104.541664Q785.59375 104.541664 784.5625 105.86979Q783.5469 107.197914 783.5469 109.65104L783.5469 111.02604Q783.5469 113.33854 784.5156 114.71354Q785.4844 116.072914 787.21875 116.072914Q788.78125 116.072914 789.6094 115.36979Q790.4531 114.666664 790.71875 112.90104L792.6094 112.90104ZM796.8281 117.416664L795.03125 117.416664L795.03125 102.416664L796.8281 102.416664L796.8281 117.416664ZM799.3906 112.041664Q799.3906 110.479164 800.0 109.24479Q800.6094 107.99479 801.6875 107.322914Q802.78125 106.65104 804.1875 106.65104Q806.34375 106.65104 807.6719 108.15104Q809.0156 109.635414 809.0156 112.11979L809.0156 112.24479Q809.0156 113.791664 808.4219 115.02604Q807.8281 116.24479 806.71875 116.93229Q805.625 117.61979 804.2031 117.61979Q802.0625 117.61979 800.71875 116.11979Q799.3906 114.61979 799.3906 112.166664L799.3906 112.041664ZM801.2031 112.24479Q801.2031 114.010414 802.0156 115.072914Q802.84375 116.135414 804.2031 116.135414Q805.5781 116.135414 806.3906 115.05729Q807.2031 113.979164 807.2031 112.041664Q807.2031 110.291664 806.375 109.21354Q805.5469 108.135414 804.1875 108.135414Q802.84375 108.135414 802.0156 109.197914Q801.2031 110.260414 801.2031 112.24479ZM817.3906 116.36979Q816.34375 117.61979 814.2969 117.61979Q812.6094 117.61979 811.71875 116.635414Q810.84375 115.65104 810.8281 113.729164L810.8281 106.854164L812.6406 106.854164L812.6406 113.68229Q812.6406 116.072914 814.59375 116.072914Q816.65625 116.072914 817.34375 114.541664L817.34375 106.854164L819.15625 106.854164L819.15625 117.416664L817.4375 117.416664L817.3906 116.36979ZM821.4219 112.041664Q821.4219 109.61979 822.5781 108.135414Q823.7344 106.65104 825.59375 106.65104Q827.4531 106.65104 828.53125 107.916664L828.53125 102.416664L830.34375 102.416664L830.34375 117.416664L828.6875 117.416664L828.59375 116.27604Q827.5156 117.61979 825.5781 117.61979Q823.75 117.61979 822.5781 116.11979Q821.4219 114.604164 821.4219 112.18229L821.4219 112.041664ZM823.2344 112.24479Q823.2344 114.041664 823.96875 115.05729Q824.71875 116.072914 826.03125 116.072914Q827.75 116.072914 828.53125 114.541664L828.53125 109.68229Q827.7344 108.18229 826.0469 108.18229Q824.71875 108.18229 823.96875 109.21354Q823.2344 110.24479 823.2344 112.24479ZM839.0156 114.61979Q839.0156 113.885414 838.46875 113.479164Q837.9219 113.072914 836.5469 112.77604Q835.1719 112.479164 834.3594 112.072914Q833.5625 111.666664 833.1719 111.104164Q832.7969 110.52604 832.7969 109.74479Q832.7969 108.447914 833.8906 107.55729Q834.9844 106.65104 836.7031 106.65104Q838.5 106.65104 839.6094 107.58854Q840.7344 108.510414 840.7344 109.947914L838.90625 109.947914Q838.90625 109.21354 838.28125 108.68229Q837.65625 108.135414 836.7031 108.135414Q835.7031 108.135414 835.1406 108.572914Q834.59375 108.99479 834.59375 109.697914Q834.59375 110.33854 835.1094 110.68229Q835.625 111.010414 836.9844 111.322914Q838.34375 111.61979 839.1719 112.041664Q840.0156 112.447914 840.4219 113.041664Q840.8281 113.635414 840.8281 114.479164Q840.8281 115.90104 839.6875 116.760414Q838.5625 117.61979 836.75 117.61979Q835.4844 117.61979 834.5 117.166664Q833.53125 116.71354 832.96875 115.916664Q832.4219 115.104164 832.4219 114.166664L834.2344 114.166664Q834.28125 115.072914 834.9531 115.604164Q835.6406 116.135414 836.75 116.135414Q837.78125 116.135414 838.3906 115.729164Q839.0156 115.30729 839.0156 114.61979Z" fill-rule="nonzero"/><path fill="#990099" d="M869.5 110.416664C869.5 113.73038 866.8137 116.416664 863.5 116.416664C860.1863 116.416664 857.5 113.73038 857.5 110.416664C857.5 107.10296 860.1863 104.416664 863.5 104.416664C866.8137 104.416664 869.5 107.10296 869.5 110.416664Z" fill-rule="nonzero"/><path fill="#d9d9d9" d="M883.8594 114.93229L887.9219 103.197914L889.96875 103.197914L884.7031 117.416664L883.03125 117.416664L877.78125 103.197914L879.8125 103.197914L883.8594 114.93229ZM894.5781 103.197914L899.21875 114.791664L903.875 103.197914L906.2969 103.197914L906.2969 117.416664L904.4219 117.416664L904.4219 111.885414L904.6094 105.90104L899.9375 117.416664L898.5 117.416664L893.84375 105.93229L894.03125 111.885414L894.03125 117.416664L892.15625 117.416664L892.15625 103.197914L894.5781 103.197914ZM915.0156 114.61979Q915.0156 113.885414 914.46875 113.479164Q913.9219 113.072914 912.5469 112.77604Q911.1719 112.479164 910.3594 112.072914Q909.5625 111.666664 909.1719 111.104164Q908.7969 110.52604 908.7969 109.74479Q908.7969 108.447914 909.8906 107.55729Q910.9844 106.65104 912.7031 106.65104Q914.5 106.65104 915.6094 107.58854Q916.7344 108.510414 916.7344 109.947914L914.90625 109.947914Q914.90625 109.21354 914.28125 108.68229Q913.65625 108.135414 912.7031 108.135414Q911.7031 108.135414 911.1406 108.572914Q910.59375 108.99479 910.59375 109.697914Q910.59375 110.33854 911.1094 110.68229Q911.625 111.010414 912.9844 111.322914Q914.34375 111.61979 915.1719 112.041664Q916.0156 112.447914 916.4219 113.041664Q916.8281 113.635414 916.8281 114.479164Q916.8281 115.90104 915.6875 116.760414Q914.5625 117.61979 912.75 117.61979Q911.4844 117.61979 910.5 117.166664Q909.53125 116.71354 908.96875 115.916664Q908.4219 115.104164 908.4219 114.166664L910.2344 114.166664Q910.28125 115.072914 910.9531 115.604164Q911.6406 116.135414 912.75 116.135414Q913.78125 116.135414 914.3906 115.729164Q915.0156 115.30729 915.0156 114.61979Z" fill-rule="nonzero"/><path fill="#efefef" d="M55.125 63.890625Q53.8125 65.75 51.484375 66.6875Q49.15625 67.609375 46.0625 67.609375Q42.9375 67.609375 40.5 66.140625Q38.078125 64.671875 36.75 61.96875Q35.4375 59.25 35.390625 55.6875L35.390625 53.453125Q35.390625 47.671875 38.09375 44.484375Q40.796875 41.296875 45.671875 41.296875Q49.6875 41.296875 52.125 43.359375Q54.578125 45.40625 55.125 49.15625L51.75 49.15625Q50.796875 44.078125 45.703125 44.078125Q42.296875 44.078125 40.546875 46.46875Q38.8125 48.84375 38.78125 53.359375L38.78125 55.453125Q38.78125 59.765625 40.75 62.3125Q42.71875 64.84375 46.078125 64.84375Q47.984375 64.84375 49.40625 64.421875Q50.828125 64.0 51.765625 63.0L51.765625 57.25L45.84375 57.25L45.84375 54.5L55.125 54.5L55.125 63.890625ZM72.453125 67.25Q72.171875 66.6875 72.0 65.25Q69.734375 67.609375 66.578125 67.609375Q63.765625 67.609375 61.96875 66.015625Q60.171875 64.421875 60.171875 61.96875Q60.171875 59.0 62.421875 57.359375Q64.6875 55.71875 68.78125 55.71875L71.9375 55.71875L71.9375 54.21875Q71.9375 52.515625 70.921875 51.515625Q69.90625 50.5 67.921875 50.5Q66.171875 50.5 65.0 51.375Q63.828125 52.25 63.828125 53.5L60.546875 53.5Q60.546875 52.078125 61.5625 50.75Q62.578125 49.421875 64.296875 48.65625Q66.03125 47.875 68.109375 47.875Q71.40625 47.875 73.265625 49.53125Q75.125 51.171875 75.203125 54.046875L75.203125 62.796875Q75.203125 65.421875 75.859375 66.96875L75.859375 67.25L72.453125 67.25ZM67.0625 64.765625Q68.59375 64.765625 69.953125 63.984375Q71.328125 63.1875 71.9375 61.921875L71.9375 58.015625L69.390625 58.015625Q63.421875 58.015625 63.421875 61.515625Q63.421875 63.046875 64.4375 63.90625Q65.453125 64.765625 67.0625 64.765625ZM84.25 67.25L81.0 67.25L81.0 40.25L84.25 40.25L84.25 67.25ZM101.453125 67.25Q101.171875 66.6875 101.0 65.25Q98.734375 67.609375 95.578125 67.609375Q92.765625 67.609375 90.96875 66.015625Q89.171875 64.421875 89.171875 61.96875Q89.171875 59.0 91.421875 57.359375Q93.6875 55.71875 97.78125 55.71875L100.9375 55.71875L100.9375 54.21875Q100.9375 52.515625 99.921875 51.515625Q98.90625 50.5 96.921875 50.5Q95.171875 50.5 94.0 51.375Q92.828125 52.25 92.828125 53.5L89.546875 53.5Q89.546875 52.078125 90.5625 50.75Q91.578125 49.421875 93.296875 48.65625Q95.03125 47.875 97.109375 47.875Q100.40625 47.875 102.265625 49.53125Q104.125 51.171875 104.203125 54.046875L104.203125 62.796875Q104.203125 65.421875 104.859375 66.96875L104.859375 67.25L101.453125 67.25ZM96.0625 64.765625Q97.59375 64.765625 98.953125 63.984375Q100.328125 63.1875 100.9375 61.921875L100.9375 58.015625L98.390625 58.015625Q92.421875 58.015625 92.421875 61.515625Q92.421875 63.046875 93.4375 63.90625Q94.453125 64.765625 96.0625 64.765625ZM116.09375 55.171875L120.3125 48.234375L124.109375 48.234375L117.890625 57.640625L124.296875 67.25L120.546875 67.25L116.140625 60.125L111.75 67.25L107.96875 67.25L114.390625 57.640625L108.171875 48.234375L111.921875 48.234375L116.09375 55.171875ZM133.9375 62.484375L138.35938 48.234375L141.84375 48.234375L134.20312 70.1875Q132.42188 74.9375 128.5625 74.9375L127.9375 74.875L126.734375 74.65625L126.734375 72.015625L127.609375 72.078125Q129.26562 72.078125 130.1875 71.40625Q131.10938 70.75 131.70312 68.96875L132.42188 67.03125L125.640625 48.234375L129.1875 48.234375L133.9375 62.484375ZM157.59375 57.234375L157.59375 67.25L154.21875 67.25L154.21875 41.65625L163.65625 41.65625Q167.85938 41.65625 170.23438 43.796875Q172.625 45.9375 172.625 49.484375Q172.625 53.203125 170.29688 55.21875Q167.96875 57.234375 163.625 57.234375L157.59375 57.234375ZM157.59375 54.46875L163.65625 54.46875Q166.375 54.46875 167.8125 53.203125Q169.25 51.921875 169.25 49.515625Q169.25 47.234375 167.8125 45.859375Q166.375 44.484375 163.85938 44.4375L157.59375 44.4375L157.59375 54.46875ZM180.25 67.25L177.0 67.25L177.0 40.25L180.25 40.25L180.25 67.25ZM197.45312 67.25Q197.17188 66.6875 197.0 65.25Q194.73438 67.609375 191.57812 67.609375Q188.76562 67.609375 186.96875 66.015625Q185.17188 64.421875 185.17188 61.96875Q185.17188 59.0 187.42188 57.359375Q189.6875 55.71875 193.78125 55.71875L196.9375 55.71875L196.9375 54.21875Q196.9375 52.515625 195.92188 51.515625Q194.90625 50.5 192.92188 50.5Q191.17188 50.5 190.0 51.375Q188.82812 52.25 188.82812 53.5L185.54688 53.5Q185.54688 52.078125 186.5625 50.75Q187.57812 49.421875 189.29688 48.65625Q191.03125 47.875 193.10938 47.875Q196.40625 47.875 198.26562 49.53125Q200.125 51.171875 200.20312 54.046875L200.20312 62.796875Q200.20312 65.421875 200.85938 66.96875L200.85938 67.25L197.45312 67.25ZM192.0625 64.765625Q193.59375 64.765625 194.95312 63.984375Q196.32812 63.1875 196.9375 61.921875L196.9375 58.015625L194.39062 58.015625Q188.42188 58.015625 188.42188 61.515625Q188.42188 63.046875 189.4375 63.90625Q190.45312 64.765625 192.0625 64.765625ZM210.125 43.625L210.125 48.234375L213.67188 48.234375L213.67188 50.75L210.125 50.75L210.125 62.53125Q210.125 63.6875 210.59375 64.265625Q211.07812 64.828125 212.21875 64.828125Q212.78125 64.828125 213.76562 64.609375L213.76562 67.25Q212.48438 67.609375 211.26562 67.609375Q209.09375 67.609375 207.98438 66.296875Q206.875 64.96875 206.875 62.53125L206.875 50.75L203.40625 50.75L203.40625 48.234375L206.875 48.234375L206.875 43.625L210.125 43.625ZM219.3125 67.25L219.3125 50.75L216.3125 50.75L216.3125 48.234375L219.3125 48.234375L219.3125 46.28125Q219.3125 43.21875 220.9375 41.546875Q222.57812 39.875 225.5625 39.875Q226.6875 39.875 227.79688 40.171875L227.625 42.8125Q226.79688 42.65625 225.875 42.65625Q224.28125 42.65625 223.42188 43.578125Q222.5625 44.5 222.5625 46.21875L222.5625 48.234375L226.625 48.234375L226.625 50.75L222.5625 50.75L222.5625 67.25L219.3125 67.25ZM229.84375 57.5625Q229.84375 54.765625 230.9375 52.53125Q232.04688 50.296875 234.0 49.09375Q235.96875 47.875 238.48438 47.875Q242.35938 47.875 244.76562 50.5625Q247.17188 53.25 247.17188 57.71875L247.17188 57.953125Q247.17188 60.734375 246.09375 62.9375Q245.03125 65.140625 243.04688 66.375Q241.07812 67.609375 238.51562 67.609375Q234.65625 67.609375 232.25 64.921875Q229.84375 62.21875 229.84375 57.796875L229.84375 57.5625ZM233.125 57.953125Q233.125 61.109375 234.59375 63.03125Q236.0625 64.953125 238.51562 64.953125Q241.0 64.953125 242.45312 63.015625Q243.90625 61.0625 243.90625 57.5625Q243.90625 54.4375 242.42188 52.5Q240.9375 50.546875 238.48438 50.546875Q236.07812 50.546875 234.59375 52.46875Q233.125 54.375 233.125 57.953125ZM260.90625 51.140625Q260.17188 51.03125 259.3125 51.03125Q256.10938 51.03125 254.96875 53.75L254.96875 67.25L251.71875 67.25L251.71875 48.234375L254.875 48.234375L254.92188 50.421875Q256.53125 47.875 259.46875 47.875Q260.40625 47.875 260.90625 48.125L260.90625 51.140625ZM266.76562 48.234375L266.85938 50.34375Q268.95312 47.875 272.5 47.875Q276.48438 47.875 277.9375 50.9375Q278.875 49.5625 280.39062 48.71875Q281.92188 47.875 284.0 47.875Q290.25 47.875 290.35938 54.5L290.35938 67.25L287.10938 67.25L287.10938 54.703125Q287.10938 52.65625 286.17188 51.65625Q285.25 50.640625 283.04688 50.640625Q281.23438 50.640625 280.03125 51.71875Q278.84375 52.796875 278.65625 54.625L278.65625 67.25L275.39062 67.25L275.39062 54.78125Q275.39062 50.640625 271.32812 50.640625Q268.125 50.640625 266.95312 53.359375L266.95312 67.25L263.6875 67.25L263.6875 48.234375L266.76562 48.234375ZM306.78125 62.203125Q306.78125 60.890625 305.78125 60.15625Q304.79688 59.421875 302.32812 58.90625Q299.85938 58.375 298.40625 57.640625Q296.95312 56.890625 296.26562 55.875Q295.57812 54.859375 295.57812 53.453125Q295.57812 51.109375 297.54688 49.5Q299.53125 47.875 302.60938 47.875Q305.84375 47.875 307.84375 49.546875Q309.85938 51.21875 309.85938 53.8125L306.59375 53.8125Q306.59375 52.484375 305.45312 51.515625Q304.32812 50.546875 302.60938 50.546875Q300.82812 50.546875 299.82812 51.328125Q298.82812 52.09375 298.82812 53.34375Q298.82812 54.515625 299.75 55.125Q300.6875 55.71875 303.125 56.265625Q305.5625 56.8125 307.0625 57.5625Q308.57812 58.3125 309.29688 59.390625Q310.03125 60.453125 310.03125 61.96875Q310.03125 64.53125 307.98438 66.078125Q305.95312 67.609375 302.70312 67.609375Q300.42188 67.609375 298.65625 66.796875Q296.90625 65.984375 295.90625 64.53125Q294.92188 63.078125 294.92188 61.390625L298.17188 61.390625Q298.26562 63.03125 299.48438 64.0Q300.70312 64.953125 302.70312 64.953125Q304.54688 64.953125 305.65625 64.203125Q306.78125 63.453125 306.78125 62.203125Z" fill-rule="nonzero"/></svg>