<svg version="1.1" viewBox="0.0 0.0 638.0 556.0" fill="none" stroke="none" stroke-linecap="square" stroke-miterlimit="10" width="638" height="556" xmlns:xlink="http://www.w3.org/1999/xlink" xmlns="http://www.w3.org/2000/svg"><path fill="#000000" d="M0 0L638.0 0L638.0 556.0L0 556.0L0 0Z" fill-rule="nonzero"/><path stroke="#333333" stroke-width="1.0" stroke-linecap="butt" d="M125.5 135.5L125.5 455.5" fill-rule="nonzero"/><path stroke="#333333" stroke-width="1.0" stroke-linecap="butt" d="M211.5 135.5L211.5 455.5" fill-rule="nonzero"/><path stroke="#333333" stroke-width="1.0" stroke-linecap="butt" d="M297.5 135.5L297.5 455.5" fill-rule="nonzero"/><path stroke="#333333" stroke-width="1.0" stroke-linecap="butt" d="M383.5 135.5L383.5 455.5" fill-rule="nonzero"/><path stroke="#333333" stroke-width="1.0" stroke-linecap="butt" d="M469.5 135.5L469.5 455.5" fill-rule="nonzero"/><path stroke="#333333" stroke-width="1.0" stroke-linecap="butt" d="M555.5 135.5L555.5 455.5" fill-rule="nonzero"/><path stroke="#cccccc" stroke-width="1.0" stroke-linecap="butt" d="M76.5 455.5L610.5 455.5" fill-rule="nonzero"/><path stroke="#333333" stroke-width="1.0" stroke-linecap="butt" d="M76.5 375.5L610.5 375.5" fill-rule="nonzero"/><path stroke="#333333" stroke-width="1.0" stroke-linecap="butt" d="M76.5 295.5L610.5 295.5" fill-rule="nonzero"/><path stroke="#333333" stroke-width="1.0" stroke-linecap="butt" d="M76.5 215.5L610.5 215.5" fill-rule="nonzero"/><path stroke="#333333" stroke-width="1.0" stroke-linecap="butt" d="M76.5 135.5L610.5 135.5" fill-rule="nonzero"/><clipPath id="id_0"><path d="M76.8 135.86667L610.2 135.86667L610.2 455.6763L76.8 455.6763L76.8 135.86667Z" clip-rule="nonzero"/></clipPath><path stroke="#a4c2f4" stroke-width="4.0" stroke-linecap="butt" clip-path="url(#id_0)" d="M81.707985 354.2167C81.707985 354.2167 96.15385 350.88535 103.37678 348.38016C110.59972 345.875 117.82265 342.27588 125.04558 339.18564C132.26851 336.0954 153.46625 325.55536 167.67657 320.7966C181.8869 316.0378 204.02676 313.69846 218.3156 308.7238C232.60445 303.74908 249.17009 292.73172 261.18213 289.09546C273.19418 285.4592 285.20624 287.5202 297.2183 283.77863C309.23032 280.03705 325.63895 269.838 339.84927 263.51068C354.0596 257.18338 368.97653 255.23337 383.18686 245.5214C397.3972 235.80942 411.60754 213.75961 425.81787 204.94554C440.0282 196.13148 454.94513 198.2755 469.15546 192.433C483.36578 186.5905 497.5761 176.29587 511.78647 169.68654C525.99677 163.07721 540.67816 157.39345 555.124 152.49677C569.5699 147.60008 605.292 138.38516 605.292 138.38516" fill-rule="nonzero"/><path stroke="#dc3912" stroke-width="4.0" stroke-linecap="butt" clip-path="url(#id_0)" d="M81.707985 445.52234C81.707985 445.52234 96.15385 445.02264 103.37678 444.7628C110.59972 444.50296 117.82265 444.23877 125.04558 443.96326C132.26851 443.68777 153.46625 442.8165 167.67657 442.28427C181.8869 441.752 204.02676 441.12558 218.3156 440.48535C232.60445 439.8451 249.17009 438.67813 261.18213 438.16672C273.19418 437.6553 285.20624 437.40854 297.2183 437.0474C309.23032 436.68625 325.63895 436.13263 339.84927 435.80814C354.0596 435.4836 368.97653 435.59296 383.18686 435.08856C397.3972 434.58414 411.60754 433.30057 425.81787 432.76993C440.0282 432.23932 454.94513 432.2745 469.15546 431.89044C483.36578 431.5064 497.5761 430.77637 511.78647 430.45132C525.99677 430.12625 540.67816 430.06427 555.124 429.9316C569.5699 429.79895 605.292 429.61182 605.292 429.61182" fill-rule="nonzero"/><path fill="#a4c2f4" clip-path="url(#id_0)" d="M85.207985 354.2167C85.207985 356.1497 83.64098 357.7167 81.707985 357.7167C79.774994 357.7167 78.207985 356.1497 78.207985 354.2167C78.207985 352.2837 79.774994 350.7167 81.707985 350.7167C83.64098 350.7167 85.207985 352.2837 85.207985 354.2167Z" fill-rule="nonzero"/><path fill="#a4c2f4" clip-path="url(#id_0)" d="M106.87678 348.38016C106.87678 350.31317 105.30978 351.88016 103.37678 351.88016C101.44379 351.88016 99.87678 350.31317 99.87678 348.38016C99.87678 346.44717 101.44379 344.88016 103.37678 344.88016C105.30978 344.88016 106.87678 346.44717 106.87678 348.38016Z" fill-rule="nonzero"/><path fill="#a4c2f4" clip-path="url(#id_0)" d="M128.54558 339.18564C128.54558 341.11862 126.97857 342.68564 125.04558 342.68564C123.11258 342.68564 121.54558 341.11862 121.54558 339.18564C121.54558 337.25266 123.11258 335.68564 125.04558 335.68564C126.97857 335.68564 128.54558 337.25266 128.54558 339.18564Z" fill-rule="nonzero"/><path fill="#a4c2f4" clip-path="url(#id_0)" d="M171.17657 320.7966C171.17657 322.72958 169.60957 324.2966 167.67657 324.2966C165.74358 324.2966 164.17657 322.72958 164.17657 320.7966C164.17657 318.8636 165.74358 317.2966 167.67657 317.2966C169.60957 317.2966 171.17657 318.8636 171.17657 320.7966Z" fill-rule="nonzero"/><path fill="#a4c2f4" clip-path="url(#id_0)" d="M221.8156 308.7238C221.8156 310.65677 220.2486 312.2238 218.3156 312.2238C216.38261 312.2238 214.8156 310.65677 214.8156 308.7238C214.8156 306.79077 216.38261 305.2238 218.3156 305.2238C220.2486 305.2238 221.8156 306.79077 221.8156 308.7238Z" fill-rule="nonzero"/><path fill="#a4c2f4" clip-path="url(#id_0)" d="M264.68213 289.09546C264.68213 291.02844 263.11514 292.59546 261.18213 292.59546C259.24915 292.59546 257.68213 291.02844 257.68213 289.09546C257.68213 287.16245 259.24915 285.59546 261.18213 285.59546C263.11514 285.59546 264.68213 287.16245 264.68213 289.09546Z" fill-rule="nonzero"/><path fill="#a4c2f4" clip-path="url(#id_0)" d="M300.7183 283.77863C300.7183 285.7116 299.15128 287.27863 297.2183 287.27863C295.28528 287.27863 293.7183 285.7116 293.7183 283.77863C293.7183 281.8456 295.28528 280.27863 297.2183 280.27863C299.15128 280.27863 300.7183 281.8456 300.7183 283.77863Z" fill-rule="nonzero"/><path fill="#a4c2f4" clip-path="url(#id_0)" d="M343.34927 263.51068C343.34927 265.4437 341.7823 267.01068 339.84927 267.01068C337.9163 267.01068 336.34927 265.4437 336.34927 263.51068C336.34927 261.5777 337.9163 260.01068 339.84927 260.01068C341.7823 260.01068 343.34927 261.5777 343.34927 263.51068Z" fill-rule="nonzero"/><path fill="#a4c2f4" clip-path="url(#id_0)" d="M386.68686 245.5214C386.68686 247.45439 385.11987 249.0214 383.18686 249.0214C381.25388 249.0214 379.68686 247.45439 379.68686 245.5214C379.68686 243.5884 381.25388 242.0214 383.18686 242.0214C385.11987 242.0214 386.68686 243.5884 386.68686 245.5214Z" fill-rule="nonzero"/><path fill="#a4c2f4" clip-path="url(#id_0)" d="M429.31787 204.94554C429.31787 206.87854 427.75085 208.44554 425.81787 208.44554C423.88486 208.44554 422.31787 206.87854 422.31787 204.94554C422.31787 203.01256 423.88486 201.44554 425.81787 201.44554C427.75085 201.44554 429.31787 203.01256 429.31787 204.94554Z" fill-rule="nonzero"/><path fill="#a4c2f4" clip-path="url(#id_0)" d="M472.65546 192.433C472.65546 194.366 471.08844 195.933 469.15546 195.933C467.22247 195.933 465.65546 194.366 465.65546 192.433C465.65546 190.5 467.22247 188.933 469.15546 188.933C471.08844 188.933 472.65546 190.5 472.65546 192.433Z" fill-rule="nonzero"/><path fill="#a4c2f4" clip-path="url(#id_0)" d="M515.28644 169.68654C515.28644 171.61954 513.7194 173.18654 511.78647 173.18654C509.85345 173.18654 508.28647 171.61954 508.28647 169.68654C508.28647 167.75354 509.85345 166.18654 511.78647 166.18654C513.7194 166.18654 515.28644 167.75354 515.28644 169.68654Z" fill-rule="nonzero"/><path fill="#a4c2f4" clip-path="url(#id_0)" d="M558.624 152.49677C558.624 154.42976 557.05707 155.99677 555.124 155.99677C553.19104 155.99677 551.624 154.42976 551.624 152.49677C551.624 150.56377 553.19104 148.99677 555.124 148.99677C557.05707 148.99677 558.624 150.56377 558.624 152.49677Z" fill-rule="nonzero"/><path fill="#a4c2f4" clip-path="url(#id_0)" d="M608.792 138.38516C608.792 140.31816 607.22504 141.88516 605.292 141.88516C603.359 141.88516 601.792 140.31816 601.792 138.38516C601.792 136.45216 603.359 134.88516 605.292 134.88516C607.22504 134.88516 608.792 136.45216 608.792 138.38516Z" fill-rule="nonzero"/><path fill="#dc3912" clip-path="url(#id_0)" d="M85.207985 445.52234C85.207985 447.45535 83.64098 449.02234 81.707985 449.02234C79.774994 449.02234 78.207985 447.45535 78.207985 445.52234C78.207985 443.58936 79.774994 442.02234 81.707985 442.02234C83.64098 442.02234 85.207985 443.58936 85.207985 445.52234Z" fill-rule="nonzero"/><path fill="#dc3912" clip-path="url(#id_0)" d="M106.87678 444.7628C106.87678 446.6958 105.30978 448.2628 103.37678 448.2628C101.44379 448.2628 99.87678 446.6958 99.87678 444.7628C99.87678 442.8298 101.44379 441.2628 103.37678 441.2628C105.30978 441.2628 106.87678 442.8298 106.87678 444.7628Z" fill-rule="nonzero"/><path fill="#dc3912" clip-path="url(#id_0)" d="M128.54558 443.96326C128.54558 445.89627 126.97857 447.46326 125.04558 447.46326C123.11258 447.46326 121.54558 445.89627 121.54558 443.96326C121.54558 442.03027 123.11258 440.46326 125.04558 440.46326C126.97857 440.46326 128.54558 442.03027 128.54558 443.96326Z" fill-rule="nonzero"/><path fill="#dc3912" clip-path="url(#id_0)" d="M171.17657 442.28427C171.17657 444.21725 169.60957 445.78427 167.67657 445.78427C165.74358 445.78427 164.17657 444.21725 164.17657 442.28427C164.17657 440.3513 165.74358 438.78427 167.67657 438.78427C169.60957 438.78427 171.17657 440.3513 171.17657 442.28427Z" fill-rule="nonzero"/><path fill="#dc3912" clip-path="url(#id_0)" d="M221.8156 440.48535C221.8156 442.41833 220.2486 443.98535 218.3156 443.98535C216.38261 443.98535 214.8156 442.41833 214.8156 440.48535C214.8156 438.55234 216.38261 436.98535 218.3156 436.98535C220.2486 436.98535 221.8156 438.55234 221.8156 440.48535Z" fill-rule="nonzero"/><path fill="#dc3912" clip-path="url(#id_0)" d="M264.68213 438.16672C264.68213 440.09973 263.11514 441.66672 261.18213 441.66672C259.24915 441.66672 257.68213 440.09973 257.68213 438.16672C257.68213 436.23373 259.24915 434.66672 261.18213 434.66672C263.11514 434.66672 264.68213 436.23373 264.68213 438.16672Z" fill-rule="nonzero"/><path fill="#dc3912" clip-path="url(#id_0)" d="M300.7183 437.0474C300.7183 438.98038 299.15128 440.5474 297.2183 440.5474C295.28528 440.5474 293.7183 438.98038 293.7183 437.0474C293.7183 435.11438 295.28528 433.5474 297.2183 433.5474C299.15128 433.5474 300.7183 435.11438 300.7183 437.0474Z" fill-rule="nonzero"/><path fill="#dc3912" clip-path="url(#id_0)" d="M343.34927 435.80814C343.34927 437.74112 341.7823 439.30814 339.84927 439.30814C337.9163 439.30814 336.34927 437.74112 336.34927 435.80814C336.34927 433.87512 337.9163 432.30814 339.84927 432.30814C341.7823 432.30814 343.34927 433.87512 343.34927 435.80814Z" fill-rule="nonzero"/><path fill="#dc3912" clip-path="url(#id_0)" d="M386.68686 435.08856C386.68686 437.02155 385.11987 438.58856 383.18686 438.58856C381.25388 438.58856 379.68686 437.02155 379.68686 435.08856C379.68686 433.15555 381.25388 431.58856 383.18686 431.58856C385.11987 431.58856 386.68686 433.15555 386.68686 435.08856Z" fill-rule="nonzero"/><path fill="#dc3912" clip-path="url(#id_0)" d="M429.31787 432.76993C429.31787 434.70294 427.75085 436.26993 425.81787 436.26993C423.88486 436.26993 422.31787 434.70294 422.31787 432.76993C422.31787 430.83694 423.88486 429.26993 425.81787 429.26993C427.75085 429.26993 429.31787 430.83694 429.31787 432.76993Z" fill-rule="nonzero"/><path fill="#dc3912" clip-path="url(#id_0)" d="M472.65546 431.89044C472.65546 433.82346 471.08844 435.39044 469.15546 435.39044C467.22247 435.39044 465.65546 433.82346 465.65546 431.89044C465.65546 429.95746 467.22247 428.39044 469.15546 428.39044C471.08844 428.39044 472.65546 429.95746 472.65546 431.89044Z" fill-rule="nonzero"/><path fill="#dc3912" clip-path="url(#id_0)" d="M515.28644 430.45132C515.28644 432.3843 513.7194 433.95132 511.78647 433.95132C509.85345 433.95132 508.28647 432.3843 508.28647 430.45132C508.28647 428.5183 509.85345 426.95132 511.78647 426.95132C513.7194 426.95132 515.28644 428.5183 515.28644 430.45132Z" fill-rule="nonzero"/><path fill="#dc3912" clip-path="url(#id_0)" d="M558.624 429.9316C558.624 431.86462 557.05707 433.4316 555.124 433.4316C553.19104 433.4316 551.624 431.86462 551.624 429.9316C551.624 427.99863 553.19104 426.4316 555.124 426.4316C557.05707 426.4316 558.624 427.99863 558.624 429.9316Z" fill-rule="nonzero"/><path fill="#dc3912" clip-path="url(#id_0)" d="M608.792 429.61182C608.792 431.5448 607.22504 433.11182 605.292 433.11182C603.359 433.11182 601.792 431.5448 601.792 429.61182C601.792 427.6788 603.359 426.11182 605.292 426.11182C607.22504 426.11182 608.792 427.6788 608.792 429.61182Z" fill-rule="nonzero"/><path fill="#d9d9d9" d="M66.89375 456.22318Q66.89375 459.06693 65.90938 460.45755Q64.94063 461.84818 62.8625 461.84818Q60.815624 461.84818 59.83125 460.4888Q58.846874 459.12943 58.815624 456.44193L58.815624 454.27005Q58.815624 451.44193 59.784374 450.08255Q60.76875 448.70755 62.846874 448.70755Q64.90938 448.70755 65.87813 450.03568Q66.8625 451.34818 66.89375 454.1138L66.89375 456.22318ZM65.26875 453.9888Q65.26875 451.9263 64.675 450.9888Q64.09688 450.03568 62.846874 450.03568Q61.596874 450.03568 61.01875 450.9888Q60.45625 451.9263 60.440624 453.8638L60.440624 456.47318Q60.440624 458.5513 61.034374 459.53568Q61.64375 460.52005 62.8625 460.52005Q64.06563 460.52005 64.64375 459.59818Q65.2375 458.66068 65.26875 456.66068L65.26875 453.9888Z" fill-rule="nonzero"/><path fill="#d9d9d9" d="M37.253124 381.72388L28.8625 381.72388L28.8625 380.552L33.3 375.63013Q34.284374 374.52075 34.64375 373.81763Q35.01875 373.1145 35.01875 372.3645Q35.01875 371.3645 34.409374 370.72388Q33.815624 370.08325 32.8 370.08325Q31.58125 370.08325 30.909374 370.78638Q30.2375 371.47388 30.2375 372.69263L28.6125 372.69263Q28.6125 370.927 29.753124 369.84888Q30.89375 368.75513 32.8 368.75513Q34.58125 368.75513 35.6125 369.69263Q36.659374 370.63013 36.659374 372.177Q36.659374 374.06763 34.253124 376.677L30.83125 380.39575L37.253124 380.39575L37.253124 381.72388ZM46.89375 376.27075Q46.89375 379.1145 45.909374 380.50513Q44.940624 381.89575 42.8625 381.89575Q40.815624 381.89575 39.83125 380.53638Q38.846874 379.177 38.815624 376.4895L38.815624 374.31763Q38.815624 371.4895 39.784374 370.13013Q40.76875 368.75513 42.846874 368.75513Q44.909374 368.75513 45.878124 370.08325Q46.8625 371.39575 46.89375 374.16138L46.89375 376.27075ZM45.26875 374.03638Q45.26875 371.97388 44.675 371.03638Q44.096874 370.08325 42.846874 370.08325Q41.596874 370.08325 41.01875 371.03638Q40.45625 371.97388 40.440624 373.91138L40.440624 376.52075Q40.440624 378.59888 41.034374 379.58325Q41.64375 380.56763 42.8625 380.56763Q44.065624 380.56763 44.64375 379.64575Q45.2375 378.70825 45.26875 376.70825L45.26875 374.03638ZM56.89375 376.27075Q56.89375 379.1145 55.909374 380.50513Q54.940624 381.89575 52.8625 381.89575Q50.815624 381.89575 49.83125 380.53638Q48.846874 379.177 48.815624 376.4895L48.815624 374.31763Q48.815624 371.4895 49.784374 370.13013Q50.76875 368.75513 52.846874 368.75513Q54.909374 368.75513 55.878124 370.08325Q56.8625 371.39575 56.89375 374.16138L56.89375 376.27075ZM55.26875 374.03638Q55.26875 371.97388 54.675 371.03638Q54.096874 370.08325 52.846874 370.08325Q51.596874 370.08325 51.01875 371.03638Q50.45625 371.97388 50.440624 373.91138L50.440624 376.52075Q50.440624 378.59888 51.034374 379.58325Q51.64375 380.56763 52.8625 380.56763Q54.065624 380.56763 54.64375 379.64575Q55.2375 378.70825 55.26875 376.70825L55.26875 374.03638ZM66.89375 376.27075Q66.89375 379.1145 65.90938 380.50513Q64.94063 381.89575 62.8625 381.89575Q60.815624 381.89575 59.83125 380.53638Q58.846874 379.177 58.815624 376.4895L58.815624 374.31763Q58.815624 371.4895 59.784374 370.13013Q60.76875 368.75513 62.846874 368.75513Q64.90938 368.75513 65.87813 370.08325Q66.8625 371.39575 66.89375 374.16138L66.89375 376.27075ZM65.26875 374.03638Q65.26875 371.97388 64.675 371.03638Q64.09688 370.08325 62.846874 370.08325Q61.596874 370.08325 61.01875 371.03638Q60.45625 371.97388 60.440624 373.91138L60.440624 376.52075Q60.440624 378.59888 61.034374 379.58325Q61.64375 380.56763 62.8625 380.56763Q64.06563 380.56763 64.64375 379.64575Q65.2375 378.70825 65.26875 376.70825L65.26875 374.03638Z" fill-rule="nonzero"/><path fill="#d9d9d9" d="M35.721874 297.4746L37.503124 297.4746L37.503124 298.80273L35.721874 298.80273L35.721874 301.77148L34.096874 301.77148L34.096874 298.80273L28.26875 298.80273L28.26875 297.8496L34.003124 288.9746L35.721874 288.9746L35.721874 297.4746ZM30.1125 297.4746L34.096874 297.4746L34.096874 291.19336L33.89375 291.55273L30.1125 297.4746ZM46.89375 296.31836Q46.89375 299.1621 45.909374 300.55273Q44.940624 301.94336 42.8625 301.94336Q40.815624 301.94336 39.83125 300.58398Q38.846874 299.2246 38.815624 296.5371L38.815624 294.36523Q38.815624 291.5371 39.784374 290.17773Q40.76875 288.80273 42.846874 288.80273Q44.909374 288.80273 45.878124 290.13086Q46.8625 291.44336 46.89375 294.20898L46.89375 296.31836ZM45.26875 294.08398Q45.26875 292.02148 44.675 291.08398Q44.096874 290.13086 42.846874 290.13086Q41.596874 290.13086 41.01875 291.08398Q40.45625 292.02148 40.440624 293.95898L40.440624 296.56836Q40.440624 298.64648 41.034374 299.63086Q41.64375 300.61523 42.8625 300.61523Q44.065624 300.61523 44.64375 299.69336Q45.2375 298.75586 45.26875 296.75586L45.26875 294.08398ZM56.89375 296.31836Q56.89375 299.1621 55.909374 300.55273Q54.940624 301.94336 52.8625 301.94336Q50.815624 301.94336 49.83125 300.58398Q48.846874 299.2246 48.815624 296.5371L48.815624 294.36523Q48.815624 291.5371 49.784374 290.17773Q50.76875 288.80273 52.846874 288.80273Q54.909374 288.80273 55.878124 290.13086Q56.8625 291.44336 56.89375 294.20898L56.89375 296.31836ZM55.26875 294.08398Q55.26875 292.02148 54.675 291.08398Q54.096874 290.13086 52.846874 290.13086Q51.596874 290.13086 51.01875 291.08398Q50.45625 292.02148 50.440624 293.95898L50.440624 296.56836Q50.440624 298.64648 51.034374 299.63086Q51.64375 300.61523 52.8625 300.61523Q54.065624 300.61523 54.64375 299.69336Q55.2375 298.75586 55.26875 296.75586L55.26875 294.08398ZM66.89375 296.31836Q66.89375 299.1621 65.90938 300.55273Q64.94063 301.94336 62.8625 301.94336Q60.815624 301.94336 59.83125 300.58398Q58.846874 299.2246 58.815624 296.5371L58.815624 294.36523Q58.815624 291.5371 59.784374 290.17773Q60.76875 288.80273 62.846874 288.80273Q64.90938 288.80273 65.87813 290.13086Q66.8625 291.44336 66.89375 294.20898L66.89375 296.31836ZM65.26875 294.08398Q65.26875 292.02148 64.675 291.08398Q64.09688 290.13086 62.846874 290.13086Q61.596874 290.13086 61.01875 291.08398Q60.45625 292.02148 60.440624 293.95898L60.440624 296.56836Q60.440624 298.64648 61.034374 299.63086Q61.64375 300.61523 62.8625 300.61523Q64.06563 300.61523 64.64375 299.69336Q65.2375 298.75586 65.26875 296.75586L65.26875 294.08398Z" fill-rule="nonzero"/><path fill="#d9d9d9" d="M35.2375 209.00658L35.2375 210.3972L34.940624 210.3972Q33.05 210.42845 31.925 211.5222Q30.8 212.60033 30.628124 214.5847Q31.628124 213.42845 33.378124 213.42845Q35.05 213.42845 36.05 214.61595Q37.05 215.78783 37.05 217.6472Q37.05 219.61595 35.971874 220.80345Q34.89375 221.99095 33.08125 221.99095Q31.253124 221.99095 30.096874 220.5847Q28.95625 219.17845 28.95625 216.94408L28.95625 216.31908Q28.95625 212.78783 30.45625 210.92845Q31.971874 209.05345 34.95625 209.00658L35.2375 209.00658ZM33.1125 214.7722Q32.26875 214.7722 31.565624 215.28783Q30.8625 215.78783 30.596874 216.53783L30.596874 217.13158Q30.596874 218.7097 31.3 219.67845Q32.01875 220.6472 33.08125 220.6472Q34.175 220.6472 34.8 219.85033Q35.440624 219.03783 35.440624 217.72533Q35.440624 216.3972 34.8 215.5847Q34.159374 214.7722 33.1125 214.7722ZM46.89375 216.36595Q46.89375 219.2097 45.909374 220.60033Q44.940624 221.99095 42.8625 221.99095Q40.815624 221.99095 39.83125 220.63158Q38.846874 219.2722 38.815624 216.5847L38.815624 214.41283Q38.815624 211.5847 39.784374 210.22533Q40.76875 208.85033 42.846874 208.85033Q44.909374 208.85033 45.878124 210.17845Q46.8625 211.49095 46.89375 214.25658L46.89375 216.36595ZM45.26875 214.13158Q45.26875 212.06908 44.675 211.13158Q44.096874 210.17845 42.846874 210.17845Q41.596874 210.17845 41.01875 211.13158Q40.45625 212.06908 40.440624 214.00658L40.440624 216.61595Q40.440624 218.69408 41.034374 219.67845Q41.64375 220.66283 42.8625 220.66283Q44.065624 220.66283 44.64375 219.74095Q45.2375 218.80345 45.26875 216.80345L45.26875 214.13158ZM56.89375 216.36595Q56.89375 219.2097 55.909374 220.60033Q54.940624 221.99095 52.8625 221.99095Q50.815624 221.99095 49.83125 220.63158Q48.846874 219.2722 48.815624 216.5847L48.815624 214.41283Q48.815624 211.5847 49.784374 210.22533Q50.76875 208.85033 52.846874 208.85033Q54.909374 208.85033 55.878124 210.17845Q56.8625 211.49095 56.89375 214.25658L56.89375 216.36595ZM55.26875 214.13158Q55.26875 212.06908 54.675 211.13158Q54.096874 210.17845 52.846874 210.17845Q51.596874 210.17845 51.01875 211.13158Q50.45625 212.06908 50.440624 214.00658L50.440624 216.61595Q50.440624 218.69408 51.034374 219.67845Q51.64375 220.66283 52.8625 220.66283Q54.065624 220.66283 54.64375 219.74095Q55.2375 218.80345 55.26875 216.80345L55.26875 214.13158ZM66.89375 216.36595Q66.89375 219.2097 65.90938 220.60033Q64.94063 221.99095 62.8625 221.99095Q60.815624 221.99095 59.83125 220.63158Q58.846874 219.2722 58.815624 216.5847L58.815624 214.41283Q58.815624 211.5847 59.784374 210.22533Q60.76875 208.85033 62.846874 208.85033Q64.90938 208.85033 65.87813 210.17845Q66.8625 211.49095 66.89375 214.25658L66.89375 216.36595ZM65.26875 214.13158Q65.26875 212.06908 64.675 211.13158Q64.09688 210.17845 62.846874 210.17845Q61.596874 210.17845 61.01875 211.13158Q60.45625 212.06908 60.440624 214.00658L60.440624 216.61595Q60.440624 218.69408 61.034374 219.67845Q61.64375 220.66283 62.8625 220.66283Q64.06563 220.66283 64.64375 219.74095Q65.2375 218.80345 65.26875 216.80345L65.26875 214.13158Z" fill-rule="nonzero"/><path fill="#d9d9d9" d="M36.628124 132.41354Q36.628124 133.36667 36.1125 134.11667Q35.6125 134.86667 34.753124 135.28854Q35.753124 135.71042 36.33125 136.53854Q36.925 137.36667 36.925 138.41354Q36.925 140.0698 35.8 141.05417Q34.675 142.03854 32.846874 142.03854Q31.003124 142.03854 29.89375 141.05417Q28.784374 140.0698 28.784374 138.41354Q28.784374 137.3823 29.346874 136.55417Q29.925 135.71042 30.925 135.27292Q30.065624 134.85104 29.565624 134.10104Q29.08125 133.35104 29.08125 132.41354Q29.08125 130.78854 30.1125 129.85104Q31.159374 128.89792 32.846874 128.89792Q34.534374 128.89792 35.58125 129.85104Q36.628124 130.78854 36.628124 132.41354ZM35.3 138.3823Q35.3 137.30417 34.6125 136.6323Q33.940624 135.9448 32.83125 135.9448Q31.7375 135.9448 31.065624 136.61667Q30.409374 137.28854 30.409374 138.3823Q30.409374 139.46042 31.05 140.08542Q31.70625 140.71042 32.846874 140.71042Q34.003124 140.71042 34.64375 140.08542Q35.3 139.46042 35.3 138.3823ZM32.846874 130.22604Q31.89375 130.22604 31.3 130.8198Q30.70625 131.41354 30.70625 132.42917Q30.70625 133.41354 31.284374 134.02292Q31.878124 134.61667 32.846874 134.61667Q33.83125 134.61667 34.409374 134.02292Q35.003124 133.41354 35.003124 132.4448Q35.003124 131.46042 34.39375 130.85104Q33.784374 130.22604 32.846874 130.22604ZM46.89375 136.41354Q46.89375 139.2573 45.909374 140.64792Q44.940624 142.03854 42.8625 142.03854Q40.815624 142.03854 39.83125 140.67917Q38.846874 139.3198 38.815624 136.6323L38.815624 134.46042Q38.815624 131.6323 39.784374 130.27292Q40.76875 128.89792 42.846874 128.89792Q44.909374 128.89792 45.878124 130.22604Q46.8625 131.53854 46.89375 134.30417L46.89375 136.41354ZM45.26875 134.17917Q45.26875 132.11667 44.675 131.17917Q44.096874 130.22604 42.846874 130.22604Q41.596874 130.22604 41.01875 131.17917Q40.45625 132.11667 40.440624 134.05417L40.440624 136.66354Q40.440624 138.74167 41.034374 139.72604Q41.64375 140.71042 42.8625 140.71042Q44.065624 140.71042 44.64375 139.78854Q45.2375 138.85104 45.26875 136.85104L45.26875 134.17917ZM56.89375 136.41354Q56.89375 139.2573 55.909374 140.64792Q54.940624 142.03854 52.8625 142.03854Q50.815624 142.03854 49.83125 140.67917Q48.846874 139.3198 48.815624 136.6323L48.815624 134.46042Q48.815624 131.6323 49.784374 130.27292Q50.76875 128.89792 52.846874 128.89792Q54.909374 128.89792 55.878124 130.22604Q56.8625 131.53854 56.89375 134.30417L56.89375 136.41354ZM55.26875 134.17917Q55.26875 132.11667 54.675 131.17917Q54.096874 130.22604 52.846874 130.22604Q51.596874 130.22604 51.01875 131.17917Q50.45625 132.11667 50.440624 134.05417L50.440624 136.66354Q50.440624 138.74167 51.034374 139.72604Q51.64375 140.71042 52.8625 140.71042Q54.065624 140.71042 54.64375 139.78854Q55.2375 138.85104 55.26875 136.85104L55.26875 134.17917ZM66.89375 136.41354Q66.89375 139.2573 65.90938 140.64792Q64.94063 142.03854 62.8625 142.03854Q60.815624 142.03854 59.83125 140.67917Q58.846874 139.3198 58.815624 136.6323L58.815624 134.46042Q58.815624 131.6323 59.784374 130.27292Q60.76875 128.89792 62.846874 128.89792Q64.90938 128.89792 65.87813 130.22604Q66.8625 131.53854 66.89375 134.30417L66.89375 136.41354ZM65.26875 134.17917Q65.26875 132.11667 64.675 131.17917Q64.09688 130.22604 62.846874 130.22604Q61.596874 130.22604 61.01875 131.17917Q60.45625 132.11667 60.440624 134.05417L60.440624 136.66354Q60.440624 138.74167 61.034374 139.72604Q61.64375 140.71042 62.8625 140.71042Q64.06563 140.71042 64.64375 139.78854Q65.2375 138.85104 65.26875 136.85104L65.26875 134.17917Z" fill-rule="nonzero"/><path fill="#d9d9d9" d="M106.9683 523.01337L102.77299 530.27985L101.75812 529.6939L99.71439 523.39Q99.245834 521.9828 98.8166 521.32Q98.39517 520.6437 97.74566 520.2687Q96.87963 519.7687 96.02015 519.97614Q95.16847 520.17 94.66066 521.04956Q94.051285 522.10504 94.32427 523.03845Q94.583725 523.96405 95.6392 524.5734L94.8267 525.9807Q93.29762 525.0979 92.93425 523.57104Q92.55734 522.0364 93.51047 520.3855Q94.40109 518.8429 95.72862 518.4186Q97.06396 517.9807 98.40359 518.75415Q100.04092 519.69946 101.09758 523.088L102.60717 527.9108L105.81811 522.3493L106.9683 523.01337ZM107.06607 511.93777Q109.52883 513.3596 110.24096 514.9075Q110.9609 516.4417 109.92184 518.24146Q108.8984 520.0141 107.22896 520.1869Q105.55952 520.3597 103.216446 519.043L101.33555 517.9571Q98.88632 516.543 98.19344 515.02435Q97.49484 513.4844 98.533905 511.68466Q99.565155 509.89847 101.19972 509.72357Q102.828575 509.52734 105.2393 510.8831L107.06607 511.93777ZM104.31854 512.2279Q102.532364 511.19662 101.42359 511.24207Q100.3091 511.26617 99.6841 512.3487Q99.0591 513.4313 99.59547 514.4085Q100.126114 515.3644 101.79623 516.3467L104.056015 517.65137Q105.85572 518.6904 107.00509 518.6684Q108.16227 518.6329 108.771645 517.5774Q109.37321 516.53546 108.86391 515.57385Q108.34888 514.5909 106.632454 513.56384L104.31854 512.2279ZM115.44487 508.3315L114.62456 509.75235L105.23359 504.33047L104.642715 507.76013L103.37074 507.02576L104.18332 502.11835L104.30832 501.90182L115.44487 508.3315ZM112.58649 500.43863L107.3937 496.6828L110.66714 491.01303L111.96617 491.76303L109.38023 496.242L112.202484 498.3225Q112.197624 497.23715 112.79919 496.19522Q113.67419 494.6797 115.18334 494.37823Q116.70031 494.0633 118.4053 495.04767Q120.12382 496.03986 120.580376 497.5303Q121.0234 499.01297 120.06246 500.67737Q119.2109 502.1523 117.85994 502.61725Q116.51679 503.06863 115.01212 502.3623L115.77775 501.0362Q116.80309 501.44775 117.60273 501.18774Q118.39665 500.90637 118.91228 500.0133Q119.48259 499.02548 119.13985 498.08786Q118.78358 497.14246 117.60632 496.46277Q116.496735 495.82214 115.46859 496.04044Q114.44826 496.2452 113.87013 497.24655Q113.33888 498.1667 113.44014 498.9288L113.532616 499.48737L112.58649 500.43863ZM123.97021 495.7527L123.26708 496.97055L113.909325 485.3974L114.60464 484.19308L123.97021 495.7527ZM125.56607 479.89484Q128.02884 481.3167 128.74097 482.8645Q129.4609 484.39877 128.42184 486.1985Q127.3984 487.97113 125.72896 488.14395Q124.059525 488.31674 121.71645 487.00006L119.835556 485.91412Q117.38632 484.50006 116.69345 482.9814Q115.99485 481.4414 117.03391 479.64172Q118.06516 477.85553 119.69973 477.68063Q121.328575 477.48438 123.7393 478.84015L125.56607 479.89484ZM122.81855 480.18494Q121.03237 479.1537 119.9236 479.19913Q118.809105 479.22324 118.184105 480.3058Q117.559105 481.3883 118.095474 482.36554Q118.62612 483.32144 120.296234 484.3037L122.556015 485.6084Q124.35573 486.64746 125.5051 486.62546Q126.66228 486.5899 127.27165 485.53442Q127.873215 484.4925 127.36391 483.53088Q126.848885 482.54794 125.13246 481.52087L122.81855 480.18494ZM133.94487 476.28857L133.12456 477.7094L123.73359 472.28754L123.142715 475.7172L121.87074 474.98282L122.68332 470.0754L122.80832 469.8589L133.94487 476.28857Z" fill-rule="nonzero"/><path fill="#d9d9d9" d="M192.93689 523.01337L188.74158 530.27985L187.7267 529.6939L185.68298 523.39Q185.21443 521.9828 184.78519 521.32Q184.36377 520.6437 183.71425 520.2687Q182.84822 519.7687 181.98874 519.97614Q181.13707 520.17 180.62926 521.04956Q180.01988 522.10504 180.29286 523.03845Q180.55232 523.96405 181.60779 524.5734L180.79529 525.9807Q179.2662 525.0979 178.90283 523.57104Q178.52594 522.0364 179.47906 520.3855Q180.36969 518.8429 181.6972 518.4186Q183.03255 517.9807 184.37218 518.75415Q186.0095 519.69946 187.06616 523.088L188.57576 527.9108L191.7867 522.3493L192.93689 523.01337ZM193.03465 511.93777Q195.49742 513.3596 196.20955 514.9075Q196.92949 516.4417 195.89043 518.24146Q194.86699 520.0141 193.19754 520.1869Q191.5281 520.3597 189.18504 519.043L187.30414 517.9571Q184.8549 516.543 184.16203 515.02435Q183.46344 513.4844 184.5025 511.68466Q185.53375 509.89847 187.16832 509.72357Q188.79716 509.52734 191.20789 510.8831L193.03465 511.93777ZM190.28712 512.22784Q188.50096 511.19662 187.39218 511.24207Q186.2777 511.26617 185.6527 512.3487Q185.0277 513.4313 185.56406 514.4085Q186.09471 515.3644 187.76482 516.3467L190.0246 517.65137Q191.82431 518.6904 192.97368 518.6684Q194.13086 518.6328 194.74023 517.5774Q195.3418 516.53546 194.83249 515.57385Q194.31747 514.5909 192.60104 513.5638L190.28712 512.22784ZM201.41345 508.3315L200.59314 509.75235L191.20218 504.33047L190.6113 507.76013L189.33932 507.02576L190.1519 502.11835L190.2769 501.90182L201.41345 508.3315ZM195.83313 492.37192L197.03745 493.06723L196.889 493.32434Q195.97075 494.9773 196.35547 496.49844Q196.72665 498.01178 198.35924 499.15283Q197.8579 497.70868 198.7329 496.19315Q199.56883 494.74524 201.09724 494.47296Q202.6121 494.19287 204.22238 495.12256Q205.92737 496.10693 206.4167 497.63437Q206.90605 499.1618 205.9998 500.73148Q205.08574 502.3147 203.28976 502.6129Q201.5016 502.89758 199.56657 501.7804L199.02531 501.4679Q195.96716 499.70227 195.10689 497.47354Q194.2409 495.22348 195.6925 492.6155L195.83313 492.37192ZM199.76381 497.09503Q199.34193 497.82574 199.4369 498.6925Q199.51836 499.55142 200.03506 500.15646L200.54927 500.45334Q201.91597 501.2424 203.10649 501.11783Q204.30482 500.97977 204.83607 500.0596Q205.38295 499.1124 205.00534 498.1727Q204.62201 497.21164 203.48535 496.5554Q202.33516 495.89133 201.3112 496.0399Q200.28725 496.18842 199.76381 497.09503ZM209.9388 495.7527L209.23567 496.97055L199.87791 485.3974L200.57323 484.19308L209.9388 495.7527ZM211.53465 479.89484Q213.99742 481.3167 214.70955 482.8645Q215.42949 484.39877 214.39043 486.1985Q213.36699 487.97113 211.69754 488.14395Q210.0281 488.31674 207.68504 487.00006L205.80414 485.91412Q203.3549 484.50006 202.66203 482.9814Q201.96344 481.44144 203.0025 479.64172Q204.03375 477.85553 205.66832 477.68063Q207.29716 477.4844 209.70789 478.84015L211.53465 479.89484ZM208.78712 480.18494Q207.00096 479.1537 205.89218 479.19913Q204.7777 479.22324 204.1527 480.3058Q203.5277 481.3883 204.06406 482.36554Q204.59471 483.32144 206.26482 484.3037L208.5246 485.6084Q210.32431 486.64746 211.47368 486.62546Q212.63086 486.5899 213.24023 485.53442Q213.8418 484.4925 213.33249 483.53088Q212.81747 482.54794 211.10104 481.52087L208.78712 480.18494ZM219.91345 476.28857L219.09314 477.70938L209.70218 472.2875L209.1113 475.7172L207.83932 474.98282L208.65192 470.07538L208.77692 469.8589L219.91345 476.28857Z" fill-rule="nonzero"/><path fill="#d9d9d9" d="M279.14102 523.01337L274.9457 530.27985L273.93082 529.6939L271.88712 523.39Q271.41855 521.9828 270.98932 521.32Q270.56787 520.6437 269.91837 520.2687Q269.05234 519.7687 268.19284 519.97614Q267.3412 520.17 266.83337 521.04956Q266.224 522.10504 266.49698 523.03845Q266.75644 523.96405 267.8119 524.5734L266.9994 525.9807Q265.47034 525.0979 265.10696 523.57104Q264.73004 522.0364 265.68317 520.3855Q266.5738 518.8429 267.90134 518.4186Q269.23666 517.9807 270.5763 518.75415Q272.21362 519.69946 273.2703 523.088L274.77988 527.9108L277.9908 522.3493L279.14102 523.01337ZM279.23877 511.93777Q281.70154 513.3596 282.41367 514.9075Q283.1336 516.4417 282.09454 518.24146Q281.0711 520.0141 279.40167 520.1869Q277.7322 520.3597 275.38916 519.043L273.50827 517.9571Q271.05902 516.543 270.36615 515.02435Q269.66754 513.4844 270.7066 511.68466Q271.73785 509.89847 273.37244 509.72357Q275.00128 509.52734 277.412 510.8831L279.23877 511.93777ZM276.49124 512.2279Q274.70508 511.19662 273.59628 511.24207Q272.4818 511.26617 271.8568 512.3487Q271.2318 513.4313 271.76816 514.4085Q272.29883 515.3644 273.96893 516.3467L276.22873 517.65137Q278.0284 518.6904 279.1778 518.6684Q280.335 518.6328 280.94437 517.5774Q281.54593 516.53546 281.03662 515.57385Q280.52158 514.5909 278.80515 513.56384L276.49124 512.2279ZM287.61758 508.3315L286.79727 509.75235L277.40628 504.33047L276.81543 507.76016L275.54346 507.0258L276.35602 502.11835L276.48102 501.90182L287.61758 508.3315ZM283.7809 491.19553L291.43008 501.7281L290.57852 503.20303L283.2869 492.89496L279.81815 498.903L278.66797 498.23895L282.9961 490.7424L283.7809 491.19553ZM296.1429 495.7527L295.4398 496.97055L286.08203 485.3974L286.77734 484.19308L296.1429 495.7527ZM297.73877 479.89484Q300.20154 481.3167 300.91367 482.8645Q301.6336 484.39877 300.59454 486.1985Q299.5711 487.97113 297.90167 488.14395Q296.2322 488.31674 293.88916 487.00006L292.00827 485.91412Q289.55902 484.50006 288.86615 482.9814Q288.16754 481.44144 289.2066 479.64172Q290.23785 477.85553 291.87244 477.68063Q293.50128 477.4844 295.912 478.84015L297.73877 479.89484ZM294.99124 480.18494Q293.20508 479.1537 292.09628 479.19913Q290.9818 479.22324 290.3568 480.3058Q289.7318 481.3883 290.26816 482.36554Q290.79883 483.32144 292.46893 484.3037L294.72873 485.6084Q296.5284 486.64746 297.6778 486.62546Q298.835 486.5899 299.44437 485.53442Q300.04593 484.4925 299.53662 483.53088Q299.02158 482.54794 297.30515 481.52087L294.99124 480.18494ZM306.11758 476.28857L305.29727 477.7094L295.90628 472.28754L295.31543 475.7172L294.04346 474.98282L294.85602 470.0754L294.98102 469.8589L306.11758 476.28857Z" fill-rule="nonzero"/><path fill="#d9d9d9" d="M365.1096 523.01337L360.91428 530.27985L359.8994 529.6939L357.85568 523.38995Q357.38715 521.9828 356.9579 521.32Q356.53647 520.6437 355.88696 520.2687Q355.02094 519.7687 354.16144 519.97614Q353.30978 520.17 352.80197 521.04956Q352.1926 522.10504 352.46558 523.03845Q352.72504 523.96405 353.7805 524.5734L352.968 525.9807Q351.4389 525.0979 351.07556 523.57104Q350.69864 522.0364 351.65176 520.3855Q352.5424 518.8429 353.8699 518.4186Q355.20526 517.98065 356.5449 518.7541Q358.18222 519.6994 359.2389 523.088L360.74847 527.91077L363.9594 522.3493L365.1096 523.01337ZM365.20737 511.93777Q367.67014 513.3596 368.38226 514.9075Q369.1022 516.4417 368.06314 518.24146Q367.0397 520.0141 365.37027 520.1869Q363.7008 520.3597 361.35776 519.04297L359.47684 517.95703Q357.02762 516.54297 356.33475 515.02435Q355.63614 513.4844 356.6752 511.68466Q357.70645 509.89847 359.34103 509.72357Q360.96988 509.5273 363.38058 510.8831L365.20737 511.93777ZM362.45984 512.22784Q360.67368 511.19662 359.56488 511.24207Q358.4504 511.26617 357.8254 512.3487Q357.2004 513.4312 357.73676 514.40845Q358.26743 515.3644 359.93753 516.3466L362.1973 517.6513Q363.997 518.69037 365.1464 518.6684Q366.30356 518.6328 366.91293 517.5774Q367.5145 516.5354 367.0052 515.5738Q366.49017 514.5909 364.77374 513.5638L362.45984 512.22784ZM373.58615 508.3315L372.76584 509.75235L363.37488 504.33047L362.784 507.76013L361.51202 507.02576L362.32462 502.11835L362.44962 501.90182L373.58615 508.3315ZM371.61044 492.8473Q372.43588 493.32385 372.82758 494.1454Q373.2271 494.9534 373.16278 495.9086Q374.02814 495.2535 375.03436 495.1669Q376.04843 495.06674 376.95505 495.59018Q378.3894 496.4183 378.67938 497.8848Q378.9694 499.35126 378.05533 500.93445Q377.13345 502.5312 375.72626 502.99976Q374.3191 503.4683 372.88474 502.64017Q371.99164 502.12454 371.55573 501.22336Q371.11407 500.3008 371.23517 499.21603Q370.44012 499.74933 369.54062 499.80734Q368.64893 499.85184 367.837 499.3831Q366.42972 498.5706 366.13345 497.20874Q365.83145 495.82556 366.6752 494.36414Q367.51895 492.9027 368.86783 492.47266Q370.20316 492.0348 371.61044 492.8473ZM376.11548 496.98187Q375.1818 496.4428 374.2562 496.70224Q373.32486 496.94037 372.77017 497.9011Q372.2233 498.84833 372.4692 499.7661Q372.72296 500.67038 373.67017 501.21725Q374.60385 501.75632 375.46542 501.51404Q376.3348 501.2582 376.90512 500.2704Q377.48325 499.26904 377.2623 498.40176Q377.04916 497.52094 376.11548 496.98187ZM367.8254 495.0282Q367.34885 495.85364 367.56616 496.6647Q367.78348 497.4758 368.66306 497.9836Q369.51553 498.4758 370.33234 498.27982Q371.1434 498.06247 371.62778 497.2235Q372.11996 496.37103 371.89484 495.5735Q371.66397 494.75458 370.825 494.2702Q369.97253 493.778 369.1401 494.00107Q368.29416 494.2163 367.8254 495.0282ZM382.1115 495.7527L381.4084 496.97055L372.05063 485.3974L372.74594 484.19308L382.1115 495.7527ZM383.70737 479.89484Q386.17014 481.3167 386.88226 482.8645Q387.6022 484.39877 386.56314 486.1985Q385.5397 487.97113 383.87027 488.14395Q382.2008 488.31674 379.85776 487.00006L377.97684 485.91412Q375.52762 484.50006 374.83475 482.9814Q374.13614 481.4414 375.1752 479.6417Q376.20645 477.85553 377.84103 477.68063Q379.46988 477.48438 381.88058 478.84015L383.70737 479.89484ZM380.95984 480.18494Q379.17368 479.1537 378.06488 479.19913Q376.9504 479.22324 376.3254 480.30576Q375.7004 481.3883 376.23676 482.36554Q376.76743 483.3214 378.43753 484.3037L380.6973 485.6084Q382.497 486.64746 383.6464 486.62543Q384.80356 486.5899 385.41293 485.53442Q386.0145 484.4925 385.5052 483.53088Q384.99017 482.5479 383.27374 481.52087L380.95984 480.18494ZM392.08615 476.28857L391.26584 477.7094L381.87488 472.28754L381.284 475.7172L380.01202 474.98282L380.82462 470.07538L380.94962 469.8589L392.08615 476.28857Z" fill-rule="nonzero"/><path fill="#d9d9d9" d="M451.0782 523.01337L446.88287 530.27985L445.86798 529.6939L443.82428 523.39Q443.3557 521.98285 442.92648 521.32Q442.50507 520.6437 441.85553 520.2687Q440.9895 519.7687 440.13004 519.97614Q439.27835 520.17004 438.77054 521.04956Q438.16116 522.10504 438.43414 523.03845Q438.6936 523.96405 439.74908 524.5734L438.93658 525.9808Q437.4075 525.09796 437.04413 523.57104Q436.66724 522.0364 437.62036 520.3855Q438.511 518.8429 439.8385 518.4186Q441.17383 517.9807 442.51346 518.75415Q444.1508 519.69946 445.20746 523.088L446.71704 527.9108L449.92798 522.3493L451.0782 523.01337ZM451.17593 511.93777Q453.6387 513.3597 454.35083 514.9075Q455.07077 516.4417 454.0317 518.24146Q453.00827 520.0141 451.33884 520.1869Q449.6694 520.3597 447.32632 519.043L445.44543 517.9571Q442.9962 516.543 442.3033 515.02435Q441.60474 513.4844 442.6438 511.68466Q443.67505 509.8985 445.3096 509.7236Q446.93845 509.52734 449.34918 510.8831L451.17593 511.93777ZM448.4284 512.2279Q446.64224 511.19662 445.53348 511.2421Q444.41898 511.2662 443.79398 512.34875Q443.16898 513.4313 443.70535 514.4085Q444.236 515.3644 445.9061 516.3467L448.1659 517.65137Q449.9656 518.6904 451.11496 518.6684Q452.27216 518.6329 452.88153 517.5774Q453.4831 516.53546 452.9738 515.57385Q452.45877 514.5909 450.74234 513.56384L448.4284 512.2279ZM459.55475 508.33154L458.73444 509.75235L449.34348 504.33047L448.7526 507.76016L447.48062 507.0258L448.29318 502.11835L448.41818 501.90186L459.55475 508.33154ZM460.12866 496.08746Q460.3986 496.8387 460.37177 497.63513Q460.33145 498.42374 459.90958 499.15445Q459.3549 500.1152 458.46722 500.55893Q457.58734 500.98914 456.5083 500.88937Q455.42923 500.7896 454.3873 500.18805Q453.2777 499.54742 452.6268 498.6123Q451.9837 497.66367 451.96896 496.62674Q451.94067 495.582 452.54224 494.54007Q453.48755 492.90274 455.26578 492.66647Q457.03833 492.40884 459.16278 493.6354L459.58228 493.8776Q462.81635 495.74478 463.56262 497.88965Q464.31674 500.021 462.86514 502.629L462.7089 502.89963L461.5181 502.21213L461.68997 501.91443Q462.66293 500.16675 462.32242 498.72525Q461.98975 497.27023 460.12866 496.08746ZM458.87866 498.25253Q459.2849 497.5489 459.19565 496.7035Q459.10638 495.8581 458.62665 495.22028L458.05832 494.89215Q456.6781 494.09528 455.46832 494.19067Q454.245 494.27826 453.71375 495.19843Q453.17468 496.13208 453.56375 497.11447Q453.9606 498.08334 455.12433 498.75522Q456.24747 499.40366 457.3042 499.29208Q458.3474 499.1727 458.87866 498.25253ZM468.08008 495.75272L467.37695 496.97055L458.0192 485.39743L458.7145 484.1931L468.08008 495.75272ZM469.67593 479.89484Q472.1387 481.3167 472.85083 482.86453Q473.57077 484.3988 472.5317 486.19852Q471.50827 487.97116 469.83884 488.14395Q468.1694 488.31677 465.82632 487.0001L463.94543 485.91415Q461.4962 484.5001 460.8033 482.9814Q460.10474 481.44144 461.1438 479.64172Q462.17505 477.85556 463.8096 477.68063Q465.43845 477.4844 467.84918 478.84015L469.67593 479.89484ZM466.9284 480.18494Q465.14224 479.1537 464.03348 479.19916Q462.91898 479.22327 462.29398 480.3058Q461.66898 481.3883 462.20535 482.36554Q462.736 483.32144 464.4061 484.3037L466.6659 485.6084Q468.4656 486.64746 469.61496 486.62546Q470.77216 486.5899 471.38153 485.53445Q471.9831 484.4925 471.4738 483.53088Q470.95877 482.54794 469.24234 481.52087L466.9284 480.18494ZM478.05475 476.28857L477.23444 477.70938L467.84348 472.2875L467.2526 475.71722L465.98062 474.98285L466.7932 470.07538L466.9182 469.8589L478.05475 476.28857Z" fill-rule="nonzero"/><path fill="#d9d9d9" d="M537.04675 523.01337L532.85144 530.27985L531.8366 529.6939L529.79285 523.39Q529.3243 521.9828 528.8951 521.32Q528.47363 520.6437 527.8241 520.2687Q526.95807 519.7687 526.09863 519.97614Q525.24695 520.17 524.73914 521.04956Q524.12976 522.10504 524.4028 523.03845Q524.6622 523.96405 525.71765 524.5734L524.90515 525.9807Q523.3761 525.0979 523.0127 523.57104Q522.6358 522.0364 523.5889 520.3855Q524.47955 518.8429 525.80707 518.4186Q527.1424 517.9807 528.48206 518.75415Q530.1194 519.69946 531.176 523.088L532.68567 527.9108L535.8966 522.3493L537.04675 523.01337ZM537.14453 511.93777Q539.6073 513.3596 540.3194 514.9075Q541.03937 516.4417 540.0003 518.24146Q538.97687 520.0141 537.30743 520.1869Q535.638 520.3597 533.2949 519.043L531.414 517.9571Q528.9648 516.543 528.2719 515.02435Q527.5733 513.4844 528.61237 511.68466Q529.6436 509.89847 531.2782 509.72357Q532.90704 509.52734 535.31775 510.8831L537.14453 511.93777ZM534.39703 512.2279Q532.61084 511.19662 531.5021 511.24207Q530.3876 511.26617 529.7626 512.3487Q529.1376 513.4313 529.67395 514.4085Q530.2046 515.3644 531.8747 516.3467L534.13446 517.65137Q535.9342 518.6904 537.08356 518.6684Q538.2407 518.6328 538.8501 517.5774Q539.45166 516.53546 538.9424 515.57385Q538.42737 514.5909 536.71094 513.56384L534.39703 512.2279ZM547.04675 505.69284L542.85144 512.95935L541.8366 512.3734L539.79285 506.0695Q539.3243 504.6623 538.8951 503.9995Q538.47363 503.32318 537.8241 502.94818Q536.95807 502.44818 536.09863 502.6556Q535.24695 502.8495 534.73914 503.72906Q534.12976 504.78452 534.4028 505.71796Q534.6622 506.64355 535.71765 507.25293L534.90515 508.66022Q533.3761 507.7774 533.0127 506.25055Q532.6358 504.71585 533.5889 503.065Q534.47955 501.5224 535.80707 501.09805Q537.1424 500.6602 538.48206 501.43362Q540.1194 502.37894 541.176 505.7675L542.68567 510.5903L545.8966 505.02878L547.04675 505.69284ZM547.14453 494.61725Q549.6073 496.03912 550.3194 497.58694Q551.03937 499.12122 550.0003 500.92093Q548.97687 502.69357 547.30743 502.8664Q545.638 503.03918 543.2949 501.7225L541.414 500.63657Q538.9648 499.2225 538.2719 497.70386Q537.5733 496.16385 538.61237 494.36414Q539.6436 492.57797 541.2782 492.40308Q542.90704 492.20682 545.31775 493.56256L547.14453 494.61725ZM544.39703 494.90738Q542.61084 493.87613 541.5021 493.92157Q540.3876 493.94568 539.7626 495.0282Q539.1376 496.11075 539.67395 497.08798Q540.2046 498.04385 541.8747 499.02615L544.13446 500.33084Q545.9342 501.3699 547.08356 501.34787Q548.2407 501.31235 548.8501 500.25687Q549.45166 499.21494 548.9424 498.25333Q548.42737 497.27036 546.71094 496.24332L544.39703 494.90738ZM554.04865 495.7527L553.3455 496.97055L543.9878 485.3974L544.6831 484.19308L554.04865 495.7527ZM555.64453 479.89484Q558.1073 481.3167 558.8194 482.8645Q559.53937 484.39877 558.5003 486.1985Q557.47687 487.97113 555.80743 488.14395Q554.138 488.31674 551.7949 487.00006L549.914 485.91412Q547.4648 484.50006 546.7719 482.9814Q546.0733 481.44144 547.11237 479.64172Q548.1436 477.85553 549.7782 477.68063Q551.40704 477.4844 553.81775 478.84015L555.64453 479.89484ZM552.89703 480.18494Q551.11084 479.1537 550.0021 479.19913Q548.8876 479.22324 548.2626 480.3058Q547.6376 481.3883 548.17395 482.36554Q548.7046 483.32144 550.3747 484.3037L552.63446 485.6084Q554.4342 486.64746 555.58356 486.62546Q556.7407 486.5899 557.3501 485.53442Q557.95166 484.4925 557.4424 483.53088Q556.92737 482.54794 555.21094 481.52087L552.89703 480.18494ZM564.0233 476.28857L563.203 477.7094L553.8121 472.28754L553.2212 475.7172L551.9492 474.98282L552.7618 470.0754L552.8868 469.8589L564.0233 476.28857Z" fill-rule="nonzero"/><path fill="#a4c2f4" d="M186.0 94.333336C186.0 97.64704 183.3137 100.333336 180.0 100.333336C176.6863 100.333336 174.0 97.64704 174.0 94.333336C174.0 91.01962 176.6863 88.333336 180.0 88.333336C183.3137 88.333336 186.0 91.01962 186.0 94.333336Z" fill-rule="nonzero"/><path fill="#d9d9d9" d="M200.35938 98.84896L204.42188 87.114586L206.46875 87.114586L201.20312 101.333336L199.53125 101.333336L194.28125 87.114586L196.3125 87.114586L200.35938 98.84896ZM214.89062 101.333336Q214.73438 101.020836 214.64062 100.22396Q213.375 101.53646 211.625 101.53646Q210.0625 101.53646 209.0625 100.645836Q208.0625 99.75521 208.0625 98.395836Q208.0625 96.75521 209.3125 95.84896Q210.57812 94.927086 212.84375 94.927086L214.60938 94.927086L214.60938 94.09896Q214.60938 93.145836 214.03125 92.583336Q213.46875 92.020836 212.375 92.020836Q211.40625 92.020836 210.75 92.520836Q210.09375 93.00521 210.09375 93.69271L208.28125 93.69271Q208.28125 92.91146 208.84375 92.177086Q209.40625 91.427086 210.35938 91.00521Q211.32812 90.56771 212.48438 90.56771Q214.3125 90.56771 215.34375 91.489586Q216.375 92.395836 216.42188 94.00521L216.42188 98.864586Q216.42188 100.31771 216.78125 101.177086L216.78125 101.333336L214.89062 101.333336ZM211.89062 99.958336Q212.75 99.958336 213.5 99.520836Q214.26562 99.083336 214.60938 98.38021L214.60938 96.208336L213.1875 96.208336Q209.875 96.208336 209.875 98.145836Q209.875 99.00521 210.4375 99.489586Q211.0 99.958336 211.89062 99.958336ZM221.32812 101.333336L219.53125 101.333336L219.53125 86.333336L221.32812 86.333336L221.32812 101.333336ZM226.32812 101.333336L224.53125 101.333336L224.53125 90.770836L226.32812 90.770836L226.32812 101.333336ZM224.375 87.958336Q224.375 87.520836 224.64062 87.22396Q224.92188 86.91146 225.4375 86.91146Q225.96875 86.91146 226.23438 87.22396Q226.51562 87.520836 226.51562 87.958336Q226.51562 88.395836 226.23438 88.69271Q225.96875 88.989586 225.4375 88.989586Q224.92188 88.989586 224.64062 88.69271Q224.375 88.395836 224.375 87.958336ZM228.92188 95.958336Q228.92188 93.53646 230.07812 92.052086Q231.23438 90.56771 233.09375 90.56771Q234.95312 90.56771 236.03125 91.833336L236.03125 86.333336L237.84375 86.333336L237.84375 101.333336L236.1875 101.333336L236.09375 100.19271Q235.01562 101.53646 233.07812 101.53646Q231.25 101.53646 230.07812 100.03646Q228.92188 98.520836 228.92188 96.09896L228.92188 95.958336ZM230.73438 96.16146Q230.73438 97.958336 231.46875 98.97396Q232.21875 99.989586 233.53125 99.989586Q235.25 99.989586 236.03125 98.458336L236.03125 93.59896Q235.23438 92.09896 233.54688 92.09896Q232.21875 92.09896 231.46875 93.13021Q230.73438 94.16146 230.73438 96.16146ZM255.46875 88.66146L250.90625 88.66146L250.90625 101.333336L249.04688 101.333336L249.04688 88.66146L244.48438 88.66146L244.48438 87.114586L255.46875 87.114586L255.46875 88.66146ZM256.89062 95.958336Q256.89062 94.395836 257.5 93.16146Q258.10938 91.91146 259.1875 91.239586Q260.28125 90.56771 261.6875 90.56771Q263.84375 90.56771 265.17188 92.06771Q266.51562 93.552086 266.51562 96.03646L266.51562 96.16146Q266.51562 97.708336 265.92188 98.94271Q265.32812 100.16146 264.21875 100.84896Q263.125 101.53646 261.70312 101.53646Q259.5625 101.53646 258.21875 100.03646Q256.89062 98.53646 256.89062 96.083336L256.89062 95.958336ZM258.70312 96.16146Q258.70312 97.927086 259.51562 98.989586Q260.34375 100.052086 261.70312 100.052086Q263.07812 100.052086 263.89062 98.97396Q264.70312 97.895836 264.70312 95.958336Q264.70312 94.208336 263.875 93.13021Q263.04688 92.052086 261.6875 92.052086Q260.34375 92.052086 259.51562 93.114586Q258.70312 94.177086 258.70312 96.16146ZM267.89062 95.958336Q267.89062 94.395836 268.5 93.16146Q269.10938 91.91146 270.1875 91.239586Q271.28125 90.56771 272.6875 90.56771Q274.84375 90.56771 276.17188 92.06771Q277.51562 93.552086 277.51562 96.03646L277.51562 96.16146Q277.51562 97.708336 276.92188 98.94271Q276.32812 100.16146 275.21875 100.84896Q274.125 101.53646 272.70312 101.53646Q270.5625 101.53646 269.21875 100.03646Q267.89062 98.53646 267.89062 96.083336L267.89062 95.958336ZM269.70312 96.16146Q269.70312 97.927086 270.51562 98.989586Q271.34375 100.052086 272.70312 100.052086Q274.07812 100.052086 274.89062 98.97396Q275.70312 97.895836 275.70312 95.958336Q275.70312 94.208336 274.875 93.13021Q274.04688 92.052086 272.6875 92.052086Q271.34375 92.052086 270.51562 93.114586Q269.70312 94.177086 269.70312 96.16146ZM281.32812 101.333336L279.53125 101.333336L279.53125 86.333336L281.32812 86.333336L281.32812 101.333336ZM290.51562 98.53646Q290.51562 97.802086 289.96875 97.395836Q289.42188 96.989586 288.04688 96.69271Q286.67188 96.395836 285.85938 95.989586Q285.0625 95.583336 284.67188 95.020836Q284.29688 94.44271 284.29688 93.66146Q284.29688 92.364586 285.39062 91.47396Q286.48438 90.56771 288.20312 90.56771Q290.0 90.56771 291.10938 91.50521Q292.23438 92.427086 292.23438 93.864586L290.40625 93.864586Q290.40625 93.13021 289.78125 92.59896Q289.15625 92.052086 288.20312 92.052086Q287.20312 92.052086 286.64062 92.489586Q286.09375 92.91146 286.09375 93.614586Q286.09375 94.25521 286.60938 94.59896Q287.125 94.927086 288.48438 95.239586Q289.84375 95.53646 290.67188 95.958336Q291.51562 96.364586 291.92188 96.958336Q292.32812 97.552086 292.32812 98.395836Q292.32812 99.81771 291.1875 100.677086Q290.0625 101.53646 288.25 101.53646Q286.98438 101.53646 286.0 101.083336Q285.03125 100.63021 284.46875 99.833336Q283.92188 99.020836 283.92188 98.083336L285.73438 98.083336Q285.78125 98.989586 286.45312 99.520836Q287.14062 100.052086 288.25 100.052086Q289.28125 100.052086 289.89062 99.645836Q290.51562 99.22396 290.51562 98.53646Z" fill-rule="nonzero"/><path fill="#dc3912" d="M321.0 94.333336C321.0 97.64704 318.31372 100.333336 315.0 100.333336C311.68628 100.333336 309.0 97.64704 309.0 94.333336C309.0 91.01962 311.68628 88.333336 315.0 88.333336C318.31372 88.333336 321.0 91.01962 321.0 94.333336Z" fill-rule="nonzero"/><path fill="#d9d9d9" d="M340.65625 87.114586L340.65625 96.78646Q340.65625 98.78646 339.39062 100.06771Q338.14062 101.34896 336.0 101.50521L335.5 101.53646Q333.15625 101.53646 331.76562 100.270836Q330.39062 99.00521 330.375 96.802086L330.375 87.114586L332.21875 87.114586L332.21875 96.739586Q332.21875 98.28646 333.0625 99.145836Q333.92188 99.989586 335.5 99.989586Q337.09375 99.989586 337.9375 99.145836Q338.78125 98.302086 338.78125 96.75521L338.78125 87.114586L340.65625 87.114586ZM345.07812 90.770836L345.14062 92.09896Q346.34375 90.56771 348.29688 90.56771Q351.65625 90.56771 351.67188 94.34896L351.67188 101.333336L349.875 101.333336L349.875 94.333336Q349.85938 93.19271 349.34375 92.645836Q348.84375 92.09896 347.75 92.09896Q346.875 92.09896 346.20312 92.56771Q345.54688 93.03646 345.17188 93.802086L345.17188 101.333336L343.375 101.333336L343.375 90.770836L345.07812 90.770836ZM356.32812 101.333336L354.53125 101.333336L354.53125 90.770836L356.32812 90.770836L356.32812 101.333336ZM354.375 87.958336Q354.375 87.520836 354.64062 87.22396Q354.92188 86.91146 355.4375 86.91146Q355.96875 86.91146 356.23438 87.22396Q356.51562 87.520836 356.51562 87.958336Q356.51562 88.395836 356.23438 88.69271Q355.96875 88.989586 355.4375 88.989586Q354.92188 88.989586 354.64062 88.69271Q354.375 88.395836 354.375 87.958336ZM358.92188 95.958336Q358.92188 93.47396 360.0625 92.020836Q361.21875 90.56771 363.14062 90.56771Q365.01562 90.56771 366.09375 91.833336L366.17188 90.770836L367.82812 90.770836L367.82812 105.395836L366.03125 105.395836L366.03125 100.34896Q364.9375 101.53646 363.125 101.53646Q361.20312 101.53646 360.0625 100.052086Q358.92188 98.552086 358.92188 96.083336L358.92188 95.958336ZM360.73438 96.16146Q360.73438 97.989586 361.5 99.020836Q362.26562 100.052086 363.5625 100.052086Q365.17188 100.052086 366.03125 98.63021L366.03125 93.458336Q365.17188 92.052086 363.59375 92.052086Q362.28125 92.052086 361.5 93.09896Q360.73438 94.13021 360.73438 96.16146ZM376.89062 100.28646Q375.84375 101.53646 373.79688 101.53646Q372.10938 101.53646 371.21875 100.552086Q370.34375 99.56771 370.32812 97.645836L370.32812 90.770836L372.14062 90.770836L372.14062 97.59896Q372.14062 99.989586 374.09375 99.989586Q376.15625 99.989586 376.84375 98.458336L376.84375 90.770836L378.65625 90.770836L378.65625 101.333336L376.9375 101.333336L376.89062 100.28646ZM385.75 101.53646Q383.60938 101.53646 382.25 100.13021Q380.90625 98.708336 380.90625 96.34896L380.90625 96.00521Q380.90625 94.44271 381.5 93.208336Q382.10938 91.97396 383.1875 91.270836Q384.26562 90.56771 385.53125 90.56771Q387.59375 90.56771 388.73438 91.927086Q389.875 93.28646 389.875 95.81771L389.875 96.56771L382.71875 96.56771Q382.75 98.13021 383.625 99.09896Q384.5 100.052086 385.84375 100.052086Q386.8125 100.052086 387.46875 99.66146Q388.14062 99.270836 388.64062 98.63021L389.73438 99.489586Q388.40625 101.53646 385.75 101.53646ZM385.53125 92.052086Q384.4375 92.052086 383.6875 92.84896Q382.95312 93.645836 382.78125 95.083336L388.0625 95.083336L388.0625 94.94271Q387.98438 93.56771 387.3125 92.81771Q386.65625 92.052086 385.53125 92.052086ZM408.59375 94.677086Q408.59375 96.770836 407.89062 98.333336Q407.1875 99.88021 405.89062 100.708336Q404.60938 101.53646 402.89062 101.53646Q401.20312 101.53646 399.90625 100.708336Q398.60938 99.88021 397.89062 98.34896Q397.17188 96.81771 397.15625 94.802086L397.15625 93.78646Q397.15625 91.739586 397.85938 90.16146Q398.57812 88.583336 399.875 87.75521Q401.1875 86.91146 402.85938 86.91146Q404.57812 86.91146 405.875 87.739586Q407.1875 88.56771 407.89062 90.145836Q408.59375 91.708336 408.59375 93.78646L408.59375 94.677086ZM406.71875 93.770836Q406.71875 91.239586 405.70312 89.895836Q404.6875 88.53646 402.85938 88.53646Q401.09375 88.53646 400.0625 89.895836Q399.04688 91.239586 399.01562 93.63021L399.01562 94.677086Q399.01562 97.13021 400.04688 98.53646Q401.07812 99.94271 402.89062 99.94271Q404.70312 99.94271 405.6875 98.614586Q406.6875 97.28646 406.71875 94.81771L406.71875 93.770836ZM420.71875 98.84896L422.75 90.770836L424.5625 90.770836L421.48438 101.333336L420.01562 101.333336L417.45312 93.31771L414.95312 101.333336L413.48438 101.333336L410.42188 90.770836L412.21875 90.770836L414.29688 98.677086L416.76562 90.770836L418.21875 90.770836L420.71875 98.84896ZM428.07812 90.770836L428.14062 92.09896Q429.34375 90.56771 431.29688 90.56771Q434.65625 90.56771 434.67188 94.34896L434.67188 101.333336L432.875 101.333336L432.875 94.333336Q432.85938 93.19271 432.34375 92.645836Q431.84375 92.09896 430.75 92.09896Q429.875 92.09896 429.20312 92.56771Q428.54688 93.03646 428.17188 93.802086L428.17188 101.333336L426.375 101.333336L426.375 90.770836L428.07812 90.770836ZM441.75 101.53646Q439.60938 101.53646 438.25 100.13021Q436.90625 98.708336 436.90625 96.34896L436.90625 96.00521Q436.90625 94.44271 437.5 93.208336Q438.10938 91.97396 439.1875 91.270836Q440.26562 90.56771 441.53125 90.56771Q443.59375 90.56771 444.73438 91.927086Q445.875 93.28646 445.875 95.81771L445.875 96.56771L438.71875 96.56771Q438.75 98.13021 439.625 99.09896Q440.5 100.052086 441.84375 100.052086Q442.8125 100.052086 443.46875 99.66146Q444.14062 99.270836 444.64062 98.63021L445.73438 99.489586Q444.40625 101.53646 441.75 101.53646ZM441.53125 92.052086Q440.4375 92.052086 439.6875 92.84896Q438.95312 93.645836 438.78125 95.083336L444.0625 95.083336L444.0625 94.94271Q443.98438 93.56771 443.3125 92.81771Q442.65625 92.052086 441.53125 92.052086ZM453.46875 92.38021Q453.0625 92.31771 452.59375 92.31771Q450.8125 92.31771 450.17188 93.833336L450.17188 101.333336L448.375 101.333336L448.375 90.770836L450.125 90.770836L450.15625 91.989586Q451.04688 90.56771 452.67188 90.56771Q453.20312 90.56771 453.46875 90.708336L453.46875 92.38021ZM461.51562 98.53646Q461.51562 97.802086 460.96875 97.395836Q460.42188 96.989586 459.04688 96.69271Q457.67188 96.395836 456.85938 95.989586Q456.0625 95.583336 455.67188 95.020836Q455.29688 94.44271 455.29688 93.66146Q455.29688 92.364586 456.39062 91.47396Q457.48438 90.56771 459.20312 90.56771Q461.0 90.56771 462.10938 91.50521Q463.23438 92.427086 463.23438 93.864586L461.40625 93.864586Q461.40625 93.13021 460.78125 92.59896Q460.15625 92.052086 459.20312 92.052086Q458.20312 92.052086 457.64062 92.489586Q457.09375 92.91146 457.09375 93.614586Q457.09375 94.25521 457.60938 94.59896Q458.125 94.927086 459.48438 95.239586Q460.84375 95.53646 461.67188 95.958336Q462.51562 96.364586 462.92188 96.958336Q463.32812 97.552086 463.32812 98.395836Q463.32812 99.81771 462.1875 100.677086Q461.0625 101.53646 459.25 101.53646Q457.98438 101.53646 457.0 101.083336Q456.03125 100.63021 455.46875 99.833336Q454.92188 99.020836 454.92188 98.083336L456.73438 98.083336Q456.78125 98.989586 457.45312 99.520836Q458.14062 100.052086 459.25 100.052086Q460.28125 100.052086 460.89062 99.645836Q461.51562 99.22396 461.51562 98.53646Z" fill-rule="nonzero"/><path fill="#d9d9d9" d="M45.01875 36.784374L38.159374 36.784374L38.159374 55.8L35.3625 55.8L35.3625 36.784374L28.51875 36.784374L28.51875 34.471874L45.01875 34.471874L45.01875 36.784374ZM47.128124 47.721874Q47.128124 45.39375 48.05 43.534374Q48.971874 41.675 50.596874 40.675Q52.2375 39.659374 54.33125 39.659374Q57.565624 39.659374 59.565624 41.909374Q61.565624 44.14375 61.565624 47.8625L61.565624 48.05Q61.565624 50.3625 60.675 52.20625Q59.784374 54.034374 58.128124 55.065624Q56.4875 56.096874 54.3625 56.096874Q51.128124 56.096874 49.128124 53.8625Q47.128124 51.6125 47.128124 47.925L47.128124 47.721874ZM49.8625 48.05Q49.8625 50.690624 51.08125 52.284374Q52.3 53.878124 54.3625 53.878124Q56.425 53.878124 57.628124 52.26875Q58.846874 50.64375 58.846874 47.721874Q58.846874 45.128124 57.6125 43.503124Q56.378124 41.878124 54.33125 41.878124Q52.315624 41.878124 51.08125 43.4875Q49.8625 45.08125 49.8625 48.05ZM64.12813 47.721874Q64.12813 45.39375 65.05 43.534374Q65.97188 41.675 67.59688 40.675Q69.2375 39.659374 71.33125 39.659374Q74.56563 39.659374 76.56563 41.909374Q78.56563 44.14375 78.56563 47.8625L78.56563 48.05Q78.56563 50.3625 77.675 52.20625Q76.78438 54.034374 75.12813 55.065624Q73.4875 56.096874 71.3625 56.096874Q68.12813 56.096874 66.12813 53.8625Q64.12813 51.6125 64.12813 47.925L64.12813 47.721874ZM66.8625 48.05Q66.8625 50.690624 68.08125 52.284374Q69.3 53.878124 71.3625 53.878124Q73.425 53.878124 74.62813 52.26875Q75.84688 50.64375 75.84688 47.721874Q75.84688 45.128124 74.6125 43.503124Q73.37813 41.878124 71.33125 41.878124Q69.31563 41.878124 68.08125 43.4875Q66.8625 45.08125 66.8625 48.05ZM84.8 55.8L82.08125 55.8L82.08125 33.3L84.8 33.3L84.8 55.8ZM98.08125 51.596874Q98.08125 50.503124 97.25313 49.89375Q96.425 49.284374 94.3625 48.846874Q92.31563 48.409374 91.09688 47.8Q89.89375 47.175 89.31563 46.33125Q88.7375 45.471874 88.7375 44.3Q88.7375 42.346874 90.37813 41.003124Q92.03438 39.659374 94.59688 39.659374Q97.28438 39.659374 98.95625 41.05Q100.64375 42.440624 100.64375 44.6125L97.925 44.6125Q97.925 43.4875 96.97188 42.690624Q96.03438 41.878124 94.59688 41.878124Q93.1125 41.878124 92.26875 42.534374Q91.44063 43.175 91.44063 44.20625Q91.44063 45.190624 92.22188 45.690624Q93.00313 46.190624 95.01875 46.64375Q97.05 47.096874 98.31563 47.7375Q99.58125 48.3625 100.175 49.253124Q100.78438 50.128124 100.78438 51.409374Q100.78438 53.534374 99.08125 54.815624Q97.39375 56.096874 94.675 56.096874Q92.78438 56.096874 91.31563 55.425Q89.84688 54.7375 89.01875 53.534374Q88.19063 52.33125 88.19063 50.925L90.90938 50.925Q90.97188 52.284374 91.9875 53.08125Q93.01875 53.878124 94.675 53.878124Q96.22188 53.878124 97.14375 53.253124Q98.08125 52.628124 98.08125 51.596874ZM106.56563 41.8625Q108.3625 39.659374 111.25313 39.659374Q116.26875 39.659374 116.31563 45.33125L116.31563 55.8L113.6125 55.8L113.6125 45.315624Q113.59688 43.596874 112.81563 42.784374Q112.05 41.95625 110.425 41.95625Q109.1125 41.95625 108.1125 42.659374Q107.1125 43.3625 106.56563 44.503124L106.56563 55.8L103.84688 55.8L103.84688 33.3L106.56563 33.3L106.56563 41.8625ZM127.425 56.096874Q124.20625 56.096874 122.175 53.9875Q120.15938 51.8625 120.15938 48.315624L120.15938 47.815624Q120.15938 45.45625 121.06563 43.6125Q121.97188 41.753124 123.58125 40.70625Q125.20625 39.659374 127.09688 39.659374Q130.175 39.659374 131.89375 41.690624Q133.6125 43.721874 133.6125 47.51875L133.6125 48.64375L122.87813 48.64375Q122.925 50.9875 124.2375 52.440624Q125.55 53.878124 127.58125 53.878124Q129.00313 53.878124 130.00313 53.3Q131.00313 52.70625 131.75313 51.7375L133.40938 53.034374Q131.40938 56.096874 127.425 56.096874ZM127.09688 41.878124Q125.45625 41.878124 124.33125 43.08125Q123.22188 44.26875 122.95625 46.425L130.89375 46.425L130.89375 46.221874Q130.78438 44.159374 129.78438 43.01875Q128.78438 41.878124 127.09688 41.878124ZM136.19063 47.7375Q136.19063 44.096874 137.90938 41.878124Q139.64375 39.659374 142.44063 39.659374Q145.2375 39.659374 146.8625 41.565624L146.8625 33.3L149.56563 33.3L149.56563 55.8L147.08125 55.8L146.94063 54.096874Q145.31563 56.096874 142.425 56.096874Q139.65938 56.096874 137.925 53.846874Q136.19063 51.58125 136.19063 47.940624L136.19063 47.7375ZM138.90938 48.05Q138.90938 50.753124 140.01875 52.284374Q141.12813 53.8 143.09688 53.8Q145.675 53.8 146.8625 51.471874L146.8625 44.190624Q145.64375 41.95625 143.12813 41.95625Q141.12813 41.95625 140.01875 43.503124Q138.90938 45.034374 138.90938 48.05ZM167.56563 46.3Q163.94063 45.253124 162.28438 43.7375Q160.64375 42.221874 160.64375 39.9875Q160.64375 37.471874 162.65938 35.83125Q164.675 34.175 167.89375 34.175Q170.09688 34.175 171.81563 35.034374Q173.53438 35.878124 174.47188 37.378124Q175.425 38.8625 175.425 40.64375L172.59688 40.64375Q172.59688 38.70625 171.3625 37.596874Q170.14375 36.4875 167.89375 36.4875Q165.81563 36.4875 164.64375 37.409374Q163.4875 38.33125 163.4875 39.95625Q163.4875 41.253124 164.59688 42.159374Q165.70625 43.05 168.3625 43.8Q171.01875 44.55 172.51875 45.45625Q174.01875 46.346874 174.7375 47.55Q175.47188 48.753124 175.47188 50.378124Q175.47188 52.971874 173.44063 54.534374Q171.425 56.096874 168.05 56.096874Q165.84688 56.096874 163.94063 55.253124Q162.03438 54.409374 161.00313 52.940624Q159.97188 51.471874 159.97188 49.6125L162.8 49.6125Q162.8 51.55 164.22188 52.675Q165.65938 53.8 168.05 53.8Q170.26875 53.8 171.45625 52.89375Q172.64375 51.971874 172.64375 50.409374Q172.64375 48.846874 171.53438 47.9875Q170.44063 47.128124 167.56563 46.3ZM182.53438 36.1125L182.53438 39.95625L185.4875 39.95625L185.4875 42.05L182.53438 42.05L182.53438 51.878124Q182.53438 52.83125 182.925 53.315624Q183.31563 53.784374 184.26875 53.784374Q184.7375 53.784374 185.56563 53.596874L185.56563 55.8Q184.4875 56.096874 183.4875 56.096874Q181.65938 56.096874 180.7375 55.003124Q179.81563 53.89375 179.81563 51.878124L179.81563 42.05L176.925 42.05L176.925 39.95625L179.81563 39.95625L179.81563 36.1125L182.53438 36.1125ZM198.64375 55.8Q198.40938 55.33125 198.25313 54.128124Q196.3625 56.096874 193.7375 56.096874Q191.39375 56.096874 189.89375 54.76875Q188.39375 53.440624 188.39375 51.409374Q188.39375 48.925 190.26875 47.565624Q192.15938 46.190624 195.58125 46.190624L198.20625 46.190624L198.20625 44.940624Q198.20625 43.51875 197.3625 42.690624Q196.51875 41.846874 194.8625 41.846874Q193.40938 41.846874 192.425 42.58125Q191.44063 43.3 191.44063 44.346874L188.72188 44.346874Q188.72188 43.159374 189.56563 42.05Q190.40938 40.940624 191.84688 40.3Q193.28438 39.659374 195.01875 39.659374Q197.75313 39.659374 199.3 41.034374Q200.8625 42.39375 200.925 44.8L200.925 52.096874Q200.925 54.26875 201.47188 55.565624L201.47188 55.8L198.64375 55.8ZM194.14375 53.7375Q195.40938 53.7375 196.55 53.08125Q197.70625 52.409374 198.20625 51.3625L198.20625 48.1125L196.08125 48.1125Q191.1125 48.1125 191.1125 51.01875Q191.1125 52.3 191.95625 53.01875Q192.8 53.7375 194.14375 53.7375ZM208.53438 36.1125L208.53438 39.95625L211.4875 39.95625L211.4875 42.05L208.53438 42.05L208.53438 51.878124Q208.53438 52.83125 208.925 53.315624Q209.31563 53.784374 210.26875 53.784374Q210.7375 53.784374 211.56563 53.596874L211.56563 55.8Q210.4875 56.096874 209.4875 56.096874Q207.65938 56.096874 206.7375 55.003124Q205.81563 53.89375 205.81563 51.878124L205.81563 42.05L202.925 42.05L202.925 39.95625L205.81563 39.95625L205.81563 36.1125L208.53438 36.1125ZM217.8 55.8L215.08125 55.8L215.08125 39.95625L217.8 39.95625L217.8 55.8ZM214.8625 35.753124Q214.8625 35.08125 215.26875 34.628124Q215.675 34.175 216.45625 34.175Q217.25313 34.175 217.65938 34.628124Q218.08125 35.08125 218.08125 35.753124Q218.08125 36.409374 217.65938 36.846874Q217.25313 37.284374 216.45625 37.284374Q215.675 37.284374 215.26875 36.846874Q214.8625 36.409374 214.8625 35.753124ZM231.08125 51.596874Q231.08125 50.503124 230.25313 49.89375Q229.425 49.284374 227.3625 48.846874Q225.31563 48.409374 224.09688 47.8Q222.89375 47.175 222.31563 46.33125Q221.7375 45.471874 221.7375 44.3Q221.7375 42.346874 223.37813 41.003124Q225.03438 39.659374 227.59688 39.659374Q230.28438 39.659374 231.95625 41.05Q233.64375 42.440624 233.64375 44.6125L230.925 44.6125Q230.925 43.4875 229.97188 42.690624Q229.03438 41.878124 227.59688 41.878124Q226.1125 41.878124 225.26875 42.534374Q224.44063 43.175 224.44063 44.20625Q224.44063 45.190624 225.22188 45.690624Q226.00313 46.190624 228.01875 46.64375Q230.05 47.096874 231.31563 47.7375Q232.58125 48.3625 233.175 49.253124Q233.78438 50.128124 233.78438 51.409374Q233.78438 53.534374 232.08125 54.815624Q230.39375 56.096874 227.675 56.096874Q225.78438 56.096874 224.31563 55.425Q222.84688 54.7375 222.01875 53.534374Q221.19063 52.33125 221.19063 50.925L223.90938 50.925Q223.97188 52.284374 224.9875 53.08125Q226.01875 53.878124 227.675 53.878124Q229.22188 53.878124 230.14375 53.253124Q231.08125 52.628124 231.08125 51.596874ZM240.53438 36.1125L240.53438 39.95625L243.4875 39.95625L243.4875 42.05L240.53438 42.05L240.53438 51.878124Q240.53438 52.83125 240.925 53.315624Q241.31563 53.784374 242.26875 53.784374Q242.7375 53.784374 243.56563 53.596874L243.56563 55.8Q242.4875 56.096874 241.4875 56.096874Q239.65938 56.096874 238.7375 55.003124Q237.81563 53.89375 237.81563 51.878124L237.81563 42.05L234.925 42.05L234.925 39.95625L237.81563 39.95625L237.81563 36.1125L240.53438 36.1125ZM249.8 55.8L247.08125 55.8L247.08125 39.95625L249.8 39.95625L249.8 55.8ZM246.8625 35.753124Q246.8625 35.08125 247.26875 34.628124Q247.675 34.175 248.45625 34.175Q249.25313 34.175 249.65938 34.628124Q250.08125 35.08125 250.08125 35.753124Q250.08125 36.409374 249.65938 36.846874Q249.25313 37.284374 248.45625 37.284374Q247.675 37.284374 247.26875 36.846874Q246.8625 36.409374 246.8625 35.753124ZM260.20624 53.878124Q261.65936 53.878124 262.7375 53.003124Q263.83124 52.128124 263.9406 50.8L266.5031 50.8Q266.4406 52.159374 265.5656 53.39375Q264.70624 54.628124 263.2531 55.3625Q261.8156 56.096874 260.20624 56.096874Q256.97186 56.096874 255.05 53.940624Q253.14375 51.76875 253.14375 48.01875L253.14375 47.565624Q253.14375 45.253124 253.9875 43.45625Q254.84688 41.64375 256.425 40.659374Q258.01874 39.659374 260.1906 39.659374Q262.8625 39.659374 264.6281 41.253124Q266.39374 42.846874 266.5031 45.39375L263.9406 45.39375Q263.83124 43.8625 262.78436 42.878124Q261.7375 41.878124 260.1906 41.878124Q258.1281 41.878124 256.9875 43.378124Q255.8625 44.8625 255.8625 47.675L255.8625 48.175Q255.8625 50.925 256.9875 52.409374Q258.1125 53.878124 260.20624 53.878124ZM279.08124 51.596874Q279.08124 50.503124 278.2531 49.89375Q277.425 49.284374 275.3625 48.846874Q273.3156 48.409374 272.09686 47.8Q270.89374 47.175 270.3156 46.33125Q269.7375 45.471874 269.7375 44.3Q269.7375 42.346874 271.3781 41.003124Q273.03436 39.659374 275.59686 39.659374Q278.28436 39.659374 279.95624 41.05Q281.64374 42.440624 281.64374 44.6125L278.925 44.6125Q278.925 43.4875 277.97186 42.690624Q277.03436 41.878124 275.59686 41.878124Q274.1125 41.878124 273.26874 42.534374Q272.4406 43.175 272.4406 44.20625Q272.4406 45.190624 273.22186 45.690624Q274.0031 46.190624 276.01874 46.64375Q278.05 47.096874 279.3156 47.7375Q280.58124 48.3625 281.175 49.253124Q281.78436 50.128124 281.78436 51.409374Q281.78436 53.534374 280.08124 54.815624Q278.39374 56.096874 275.675 56.096874Q273.78436 56.096874 272.3156 55.425Q270.84686 54.7375 270.01874 53.534374Q269.1906 52.33125 269.1906 50.925L271.90936 50.925Q271.97186 52.284374 272.9875 53.08125Q274.01874 53.878124 275.675 53.878124Q277.22186 53.878124 278.14374 53.253124Q279.08124 52.628124 279.08124 51.596874Z" fill-rule="nonzero"/></svg>