<svg version="1.1" viewBox="0.0 0.0 761.0 556.0" fill="none" stroke="none" stroke-linecap="square" stroke-miterlimit="10" width="761" height="556" xmlns:xlink="http://www.w3.org/1999/xlink" xmlns="http://www.w3.org/2000/svg"><path fill="#000000" d="M0 0L761.0 0L761.0 556.0L0 556.0L0 0Z" fill-rule="nonzero"/><path stroke="#333333" stroke-width="1.0" stroke-linecap="butt" d="M128.5 93.5L128.5 455.5" fill-rule="nonzero"/><path stroke="#333333" stroke-width="1.0" stroke-linecap="butt" d="M220.5 93.5L220.5 455.5" fill-rule="nonzero"/><path stroke="#333333" stroke-width="1.0" stroke-linecap="butt" d="M313.5 93.5L313.5 455.5" fill-rule="nonzero"/><path stroke="#333333" stroke-width="1.0" stroke-linecap="butt" d="M405.5 93.5L405.5 455.5" fill-rule="nonzero"/><path stroke="#333333" stroke-width="1.0" stroke-linecap="butt" d="M497.5 93.5L497.5 455.5" fill-rule="nonzero"/><path stroke="#cccccc" stroke-width="1.0" stroke-linecap="butt" d="M76.5 455.5L548.5 455.5" fill-rule="nonzero"/><path stroke="#333333" stroke-width="1.0" stroke-linecap="butt" d="M76.5 365.5L548.5 365.5" fill-rule="nonzero"/><path stroke="#333333" stroke-width="1.0" stroke-linecap="butt" d="M76.5 274.5L548.5 274.5" fill-rule="nonzero"/><path stroke="#333333" stroke-width="1.0" stroke-linecap="butt" d="M76.5 183.5L548.5 183.5" fill-rule="nonzero"/><path stroke="#333333" stroke-width="1.0" stroke-linecap="butt" d="M76.5 93.5L548.5 93.5" fill-rule="nonzero"/><clipPath id="id_0"><path d="M76.8 93.333336L548.4756 93.333336L548.4756 455.6763L76.8 455.6763L76.8 93.333336Z" clip-rule="nonzero"/></clipPath><path stroke="#a4c2f4" stroke-width="4.0" stroke-linecap="butt" clip-path="url(#id_0)" d="M81.6962 340.723C81.6962 340.723 97.21034 336.94858 104.967415 334.11023C112.724495 331.27188 120.48157 327.1941 128.23863 323.69287C135.99571 320.19165 158.76103 308.24982 174.02223 302.85815C189.28343 297.46646 213.06056 294.816 228.40607 289.17972C243.75159 283.54343 261.54227 271.06076 274.44263 266.94092C287.34296 262.82104 300.24332 265.15613 313.14368 260.91696C326.04404 256.67776 343.66608 245.1223 358.92728 237.95348C374.18848 230.78464 390.20853 228.5753 405.46973 217.57167C420.73093 206.56805 435.99213 181.58571 451.25333 171.59941C466.51453 161.61311 482.53455 164.04227 497.79575 157.42274C513.05695 150.80322 543.57935 131.65111 543.57935 131.65111" fill-rule="nonzero"/><path stroke="#dc3912" stroke-width="4.0" stroke-linecap="butt" clip-path="url(#id_0)" d="M81.6962 444.1719C81.6962 444.1719 97.21034 443.60574 104.967415 443.31134C112.724495 443.01694 120.48157 442.71762 128.23863 442.4055C135.99571 442.09335 158.76103 441.1062 174.02223 440.50317C189.28343 439.90015 213.06056 439.1904 228.40607 438.465C243.75159 437.73962 261.54227 436.41745 274.44263 435.838C287.34296 435.25858 300.24332 434.979 313.14368 434.56982C326.04404 434.16064 343.66608 433.53342 358.92728 433.16574C374.18848 432.79807 390.20853 432.92197 405.46973 432.35046C420.73093 431.77896 435.99213 430.32468 451.25333 429.72348C466.51453 429.12228 482.53455 429.16217 497.79575 428.72705C513.05695 428.29193 543.57935 427.0965 543.57935 427.0965" fill-rule="nonzero"/><path fill="#a4c2f4" clip-path="url(#id_0)" d="M85.1962 340.723C85.1962 342.65598 83.62919 344.223 81.6962 344.223C79.7632 344.223 78.1962 342.65598 78.1962 340.723C78.1962 338.79 79.7632 337.223 81.6962 337.223C83.62919 337.223 85.1962 338.79 85.1962 340.723Z" fill-rule="nonzero"/><path fill="#a4c2f4" clip-path="url(#id_0)" d="M108.467415 334.11023C108.467415 336.04324 106.90041 337.61023 104.967415 337.61023C103.034424 337.61023 101.467415 336.04324 101.467415 334.11023C101.467415 332.17725 103.034424 330.61023 104.967415 330.61023C106.90041 330.61023 108.467415 332.17725 108.467415 334.11023Z" fill-rule="nonzero"/><path fill="#a4c2f4" clip-path="url(#id_0)" d="M131.73863 323.69287C131.73863 325.62585 130.17163 327.19287 128.23863 327.19287C126.30564 327.19287 124.73864 325.62585 124.73864 323.69287C124.73864 321.7599 126.30564 320.19287 128.23863 320.19287C130.17163 320.19287 131.73863 321.7599 131.73863 323.69287Z" fill-rule="nonzero"/><path fill="#a4c2f4" clip-path="url(#id_0)" d="M177.52223 302.85815C177.52223 304.79114 175.95523 306.35815 174.02223 306.35815C172.08925 306.35815 170.52223 304.79114 170.52223 302.85815C170.52223 300.92517 172.08925 299.35815 174.02223 299.35815C175.95523 299.35815 177.52223 300.92517 177.52223 302.85815Z" fill-rule="nonzero"/><path fill="#a4c2f4" clip-path="url(#id_0)" d="M231.90607 289.17972C231.90607 291.1127 230.33907 292.67972 228.40607 292.67972C226.47308 292.67972 224.90607 291.1127 224.90607 289.17972C224.90607 287.2467 226.47308 285.67972 228.40607 285.67972C230.33907 285.67972 231.90607 287.2467 231.90607 289.17972Z" fill-rule="nonzero"/><path fill="#a4c2f4" clip-path="url(#id_0)" d="M277.94263 266.94092C277.94263 268.8739 276.3756 270.44092 274.44263 270.44092C272.5096 270.44092 270.94263 268.8739 270.94263 266.94092C270.94263 265.0079 272.5096 263.44092 274.44263 263.44092C276.3756 263.44092 277.94263 265.0079 277.94263 266.94092Z" fill-rule="nonzero"/><path fill="#a4c2f4" clip-path="url(#id_0)" d="M316.64368 260.91696C316.64368 262.84995 315.07666 264.41696 313.14368 264.41696C311.21066 264.41696 309.64368 262.84995 309.64368 260.91696C309.64368 258.98395 311.21066 257.41696 313.14368 257.41696C315.07666 257.41696 316.64368 258.98395 316.64368 260.91696Z" fill-rule="nonzero"/><path fill="#a4c2f4" clip-path="url(#id_0)" d="M362.42728 237.95348C362.42728 239.88646 360.86026 241.45348 358.92728 241.45348C356.99426 241.45348 355.42728 239.88646 355.42728 237.95348C355.42728 236.02048 356.99426 234.45348 358.92728 234.45348C360.86026 234.45348 362.42728 236.02048 362.42728 237.95348Z" fill-rule="nonzero"/><path fill="#a4c2f4" clip-path="url(#id_0)" d="M408.96973 217.57167C408.96973 219.50467 407.4027 221.07167 405.46973 221.07167C403.5367 221.07167 401.96973 219.50467 401.96973 217.57167C401.96973 215.63869 403.5367 214.07167 405.46973 214.07167C407.4027 214.07167 408.96973 215.63869 408.96973 217.57167Z" fill-rule="nonzero"/><path fill="#a4c2f4" clip-path="url(#id_0)" d="M454.75333 171.59941C454.75333 173.53241 453.1863 175.09941 451.25333 175.09941C449.3203 175.09941 447.75333 173.53241 447.75333 171.59941C447.75333 169.66641 449.3203 168.09941 451.25333 168.09941C453.1863 168.09941 454.75333 169.66641 454.75333 171.59941Z" fill-rule="nonzero"/><path fill="#a4c2f4" clip-path="url(#id_0)" d="M501.29575 157.42274C501.29575 159.35574 499.72876 160.92274 497.79575 160.92274C495.86276 160.92274 494.29575 159.35574 494.29575 157.42274C494.29575 155.48975 495.86276 153.92274 497.79575 153.92274C499.72876 153.92274 501.29575 155.48975 501.29575 157.42274Z" fill-rule="nonzero"/><path fill="#a4c2f4" clip-path="url(#id_0)" d="M547.07935 131.65111C547.07935 133.58409 545.5123 135.15111 543.57935 135.15111C541.64636 135.15111 540.07935 133.58409 540.07935 131.65111C540.07935 129.71811 541.64636 128.15111 543.57935 128.15111C545.5123 128.15111 547.07935 129.71811 547.07935 131.65111Z" fill-rule="nonzero"/><path fill="#dc3912" clip-path="url(#id_0)" d="M85.1962 444.1719C85.1962 446.10492 83.62919 447.6719 81.6962 447.6719C79.7632 447.6719 78.1962 446.10492 78.1962 444.1719C78.1962 442.23892 79.7632 440.6719 81.6962 440.6719C83.62919 440.6719 85.1962 442.23892 85.1962 444.1719Z" fill-rule="nonzero"/><path fill="#dc3912" clip-path="url(#id_0)" d="M108.467415 443.31134C108.467415 445.24435 106.90041 446.81134 104.967415 446.81134C103.034424 446.81134 101.467415 445.24435 101.467415 443.31134C101.467415 441.37836 103.034424 439.81134 104.967415 439.81134C106.90041 439.81134 108.467415 441.37836 108.467415 443.31134Z" fill-rule="nonzero"/><path fill="#dc3912" clip-path="url(#id_0)" d="M131.73863 442.4055C131.73863 444.33847 130.17163 445.9055 128.23863 445.9055C126.30564 445.9055 124.73864 444.33847 124.73864 442.4055C124.73864 440.4725 126.30564 438.9055 128.23863 438.9055C130.17163 438.9055 131.73863 440.4725 131.73863 442.4055Z" fill-rule="nonzero"/><path fill="#dc3912" clip-path="url(#id_0)" d="M177.52223 440.50317C177.52223 442.4362 175.95523 444.00317 174.02223 444.00317C172.08925 444.00317 170.52223 442.4362 170.52223 440.50317C170.52223 438.5702 172.08925 437.00317 174.02223 437.00317C175.95523 437.00317 177.52223 438.5702 177.52223 440.50317Z" fill-rule="nonzero"/><path fill="#dc3912" clip-path="url(#id_0)" d="M231.90607 438.465C231.90607 440.398 230.33907 441.965 228.40607 441.965C226.47308 441.965 224.90607 440.398 224.90607 438.465C224.90607 436.532 226.47308 434.965 228.40607 434.965C230.33907 434.965 231.90607 436.532 231.90607 438.465Z" fill-rule="nonzero"/><path fill="#dc3912" clip-path="url(#id_0)" d="M277.94263 435.838C277.94263 437.77103 276.3756 439.338 274.44263 439.338C272.5096 439.338 270.94263 437.77103 270.94263 435.838C270.94263 433.90503 272.5096 432.338 274.44263 432.338C276.3756 432.338 277.94263 433.90503 277.94263 435.838Z" fill-rule="nonzero"/><path fill="#dc3912" clip-path="url(#id_0)" d="M316.64368 434.56982C316.64368 436.5028 315.07666 438.06982 313.14368 438.06982C311.21066 438.06982 309.64368 436.5028 309.64368 434.56982C309.64368 432.6368 311.21066 431.06982 313.14368 431.06982C315.07666 431.06982 316.64368 432.6368 316.64368 434.56982Z" fill-rule="nonzero"/><path fill="#dc3912" clip-path="url(#id_0)" d="M362.42728 433.16574C362.42728 435.09872 360.86026 436.66574 358.92728 436.66574C356.99426 436.66574 355.42728 435.09872 355.42728 433.16574C355.42728 431.23276 356.99426 429.66574 358.92728 429.66574C360.86026 429.66574 362.42728 431.23276 362.42728 433.16574Z" fill-rule="nonzero"/><path fill="#dc3912" clip-path="url(#id_0)" d="M408.96973 432.35046C408.96973 434.28348 407.4027 435.85046 405.46973 435.85046C403.5367 435.85046 401.96973 434.28348 401.96973 432.35046C401.96973 430.41748 403.5367 428.85046 405.46973 428.85046C407.4027 428.85046 408.96973 430.41748 408.96973 432.35046Z" fill-rule="nonzero"/><path fill="#dc3912" clip-path="url(#id_0)" d="M454.75333 429.72348C454.75333 431.6565 453.1863 433.22348 451.25333 433.22348C449.3203 433.22348 447.75333 431.6565 447.75333 429.72348C447.75333 427.7905 449.3203 426.22348 451.25333 426.22348C453.1863 426.22348 454.75333 427.7905 454.75333 429.72348Z" fill-rule="nonzero"/><path fill="#dc3912" clip-path="url(#id_0)" d="M501.29575 428.72705C501.29575 430.66003 499.72876 432.22705 497.79575 432.22705C495.86276 432.22705 494.29575 430.66003 494.29575 428.72705C494.29575 426.79404 495.86276 425.22705 497.79575 425.22705C499.72876 425.22705 501.29575 426.79404 501.29575 428.72705Z" fill-rule="nonzero"/><path fill="#dc3912" clip-path="url(#id_0)" d="M547.07935 427.0965C547.07935 429.02948 545.5123 430.5965 543.57935 430.5965C541.64636 430.5965 540.07935 429.02948 540.07935 427.0965C540.07935 425.1635 541.64636 423.5965 543.57935 423.5965C545.5123 423.5965 547.07935 425.1635 547.07935 427.0965Z" fill-rule="nonzero"/><path fill="#d9d9d9" d="M66.89375 456.22318Q66.89375 459.06693 65.90938 460.45755Q64.94063 461.84818 62.8625 461.84818Q60.815624 461.84818 59.83125 460.4888Q58.846874 459.12943 58.815624 456.44193L58.815624 454.27005Q58.815624 451.44193 59.784374 450.08255Q60.76875 448.70755 62.846874 448.70755Q64.90938 448.70755 65.87813 450.03568Q66.8625 451.34818 66.89375 454.1138L66.89375 456.22318ZM65.26875 453.9888Q65.26875 451.9263 64.675 450.9888Q64.09688 450.03568 62.846874 450.03568Q61.596874 450.03568 61.01875 450.9888Q60.45625 451.9263 60.440624 453.8638L60.440624 456.47318Q60.440624 458.5513 61.034374 459.53568Q61.64375 460.52005 62.8625 460.52005Q64.06563 460.52005 64.64375 459.59818Q65.2375 458.66068 65.26875 456.66068L65.26875 453.9888Z" fill-rule="nonzero"/><path fill="#d9d9d9" d="M37.253124 371.09055L28.8625 371.09055L28.8625 369.91867L33.3 364.9968Q34.284374 363.88742 34.64375 363.1843Q35.01875 362.48117 35.01875 361.73117Q35.01875 360.73117 34.409374 360.09055Q33.815624 359.44992 32.8 359.44992Q31.58125 359.44992 30.909374 360.15305Q30.2375 360.84055 30.2375 362.0593L28.6125 362.0593Q28.6125 360.29367 29.753124 359.21555Q30.89375 358.1218 32.8 358.1218Q34.58125 358.1218 35.6125 359.0593Q36.659374 359.9968 36.659374 361.54367Q36.659374 363.4343 34.253124 366.04367L30.83125 369.76242L37.253124 369.76242L37.253124 371.09055ZM46.89375 365.63742Q46.89375 368.48117 45.909374 369.8718Q44.940624 371.26242 42.8625 371.26242Q40.815624 371.26242 39.83125 369.90305Q38.846874 368.54367 38.815624 365.85617L38.815624 363.6843Q38.815624 360.85617 39.784374 359.4968Q40.76875 358.1218 42.846874 358.1218Q44.909374 358.1218 45.878124 359.44992Q46.8625 360.76242 46.89375 363.52805L46.89375 365.63742ZM45.26875 363.40305Q45.26875 361.34055 44.675 360.40305Q44.096874 359.44992 42.846874 359.44992Q41.596874 359.44992 41.01875 360.40305Q40.45625 361.34055 40.440624 363.27805L40.440624 365.88742Q40.440624 367.96555 41.034374 368.94992Q41.64375 369.9343 42.8625 369.9343Q44.065624 369.9343 44.64375 369.01242Q45.2375 368.07492 45.26875 366.07492L45.26875 363.40305ZM56.89375 365.63742Q56.89375 368.48117 55.909374 369.8718Q54.940624 371.26242 52.8625 371.26242Q50.815624 371.26242 49.83125 369.90305Q48.846874 368.54367 48.815624 365.85617L48.815624 363.6843Q48.815624 360.85617 49.784374 359.4968Q50.76875 358.1218 52.846874 358.1218Q54.909374 358.1218 55.878124 359.44992Q56.8625 360.76242 56.89375 363.52805L56.89375 365.63742ZM55.26875 363.40305Q55.26875 361.34055 54.675 360.40305Q54.096874 359.44992 52.846874 359.44992Q51.596874 359.44992 51.01875 360.40305Q50.45625 361.34055 50.440624 363.27805L50.440624 365.88742Q50.440624 367.96555 51.034374 368.94992Q51.64375 369.9343 52.8625 369.9343Q54.065624 369.9343 54.64375 369.01242Q55.2375 368.07492 55.26875 366.07492L55.26875 363.40305ZM66.89375 365.63742Q66.89375 368.48117 65.90938 369.8718Q64.94063 371.26242 62.8625 371.26242Q60.815624 371.26242 59.83125 369.90305Q58.846874 368.54367 58.815624 365.85617L58.815624 363.6843Q58.815624 360.85617 59.784374 359.4968Q60.76875 358.1218 62.846874 358.1218Q64.90938 358.1218 65.87813 359.44992Q66.8625 360.76242 66.89375 363.52805L66.89375 365.63742ZM65.26875 363.40305Q65.26875 361.34055 64.675 360.40305Q64.09688 359.44992 62.846874 359.44992Q61.596874 359.44992 61.01875 360.40305Q60.45625 361.34055 60.440624 363.27805L60.440624 365.88742Q60.440624 367.96555 61.034374 368.94992Q61.64375 369.9343 62.8625 369.9343Q64.06563 369.9343 64.64375 369.01242Q65.2375 368.07492 65.26875 366.07492L65.26875 363.40305Z" fill-rule="nonzero"/><path fill="#d9d9d9" d="M35.721874 276.20795L37.503124 276.20795L37.503124 277.53607L35.721874 277.53607L35.721874 280.50482L34.096874 280.50482L34.096874 277.53607L28.26875 277.53607L28.26875 276.58295L34.003124 267.70795L35.721874 267.70795L35.721874 276.20795ZM30.1125 276.20795L34.096874 276.20795L34.096874 269.9267L33.89375 270.28607L30.1125 276.20795ZM46.89375 275.0517Q46.89375 277.89545 45.909374 279.28607Q44.940624 280.6767 42.8625 280.6767Q40.815624 280.6767 39.83125 279.31732Q38.846874 277.95795 38.815624 275.27045L38.815624 273.09857Q38.815624 270.27045 39.784374 268.91107Q40.76875 267.53607 42.846874 267.53607Q44.909374 267.53607 45.878124 268.8642Q46.8625 270.1767 46.89375 272.94232L46.89375 275.0517ZM45.26875 272.81732Q45.26875 270.75482 44.675 269.81732Q44.096874 268.8642 42.846874 268.8642Q41.596874 268.8642 41.01875 269.81732Q40.45625 270.75482 40.440624 272.69232L40.440624 275.3017Q40.440624 277.37982 41.034374 278.3642Q41.64375 279.34857 42.8625 279.34857Q44.065624 279.34857 44.64375 278.4267Q45.2375 277.4892 45.26875 275.4892L45.26875 272.81732ZM56.89375 275.0517Q56.89375 277.89545 55.909374 279.28607Q54.940624 280.6767 52.8625 280.6767Q50.815624 280.6767 49.83125 279.31732Q48.846874 277.95795 48.815624 275.27045L48.815624 273.09857Q48.815624 270.27045 49.784374 268.91107Q50.76875 267.53607 52.846874 267.53607Q54.909374 267.53607 55.878124 268.8642Q56.8625 270.1767 56.89375 272.94232L56.89375 275.0517ZM55.26875 272.81732Q55.26875 270.75482 54.675 269.81732Q54.096874 268.8642 52.846874 268.8642Q51.596874 268.8642 51.01875 269.81732Q50.45625 270.75482 50.440624 272.69232L50.440624 275.3017Q50.440624 277.37982 51.034374 278.3642Q51.64375 279.34857 52.8625 279.34857Q54.065624 279.34857 54.64375 278.4267Q55.2375 277.4892 55.26875 275.4892L55.26875 272.81732ZM66.89375 275.0517Q66.89375 277.89545 65.90938 279.28607Q64.94063 280.6767 62.8625 280.6767Q60.815624 280.6767 59.83125 279.31732Q58.846874 277.95795 58.815624 275.27045L58.815624 273.09857Q58.815624 270.27045 59.784374 268.91107Q60.76875 267.53607 62.846874 267.53607Q64.90938 267.53607 65.87813 268.8642Q66.8625 270.1767 66.89375 272.94232L66.89375 275.0517ZM65.26875 272.81732Q65.26875 270.75482 64.675 269.81732Q64.09688 268.8642 62.846874 268.8642Q61.596874 268.8642 61.01875 269.81732Q60.45625 270.75482 60.440624 272.69232L60.440624 275.3017Q60.440624 277.37982 61.034374 278.3642Q61.64375 279.34857 62.8625 279.34857Q64.06563 279.34857 64.64375 278.4267Q65.2375 277.4892 65.26875 275.4892L65.26875 272.81732Z" fill-rule="nonzero"/><path fill="#d9d9d9" d="M35.2375 177.10657L35.2375 178.4972L34.940624 178.4972Q33.05 178.52844 31.925 179.6222Q30.8 180.70032 30.628124 182.6847Q31.628124 181.52844 33.378124 181.52844Q35.05 181.52844 36.05 182.71594Q37.05 183.88782 37.05 185.7472Q37.05 187.71594 35.971874 188.90344Q34.89375 190.09094 33.08125 190.09094Q31.253124 190.09094 30.096874 188.6847Q28.95625 187.27844 28.95625 185.04407L28.95625 184.41907Q28.95625 180.88782 30.45625 179.02844Q31.971874 177.15344 34.95625 177.10657L35.2375 177.10657ZM33.1125 182.8722Q32.26875 182.8722 31.565624 183.38782Q30.8625 183.88782 30.596874 184.63782L30.596874 185.23157Q30.596874 186.8097 31.3 187.77844Q32.01875 188.7472 33.08125 188.7472Q34.175 188.7472 34.8 187.95032Q35.440624 187.13782 35.440624 185.82532Q35.440624 184.4972 34.8 183.6847Q34.159374 182.8722 33.1125 182.8722ZM46.89375 184.46594Q46.89375 187.3097 45.909374 188.70032Q44.940624 190.09094 42.8625 190.09094Q40.815624 190.09094 39.83125 188.73157Q38.846874 187.3722 38.815624 184.6847L38.815624 182.51282Q38.815624 179.6847 39.784374 178.32532Q40.76875 176.95032 42.846874 176.95032Q44.909374 176.95032 45.878124 178.27844Q46.8625 179.59094 46.89375 182.35657L46.89375 184.46594ZM45.26875 182.23157Q45.26875 180.16907 44.675 179.23157Q44.096874 178.27844 42.846874 178.27844Q41.596874 178.27844 41.01875 179.23157Q40.45625 180.16907 40.440624 182.10657L40.440624 184.71594Q40.440624 186.79407 41.034374 187.77844Q41.64375 188.76282 42.8625 188.76282Q44.065624 188.76282 44.64375 187.84094Q45.2375 186.90344 45.26875 184.90344L45.26875 182.23157ZM56.89375 184.46594Q56.89375 187.3097 55.909374 188.70032Q54.940624 190.09094 52.8625 190.09094Q50.815624 190.09094 49.83125 188.73157Q48.846874 187.3722 48.815624 184.6847L48.815624 182.51282Q48.815624 179.6847 49.784374 178.32532Q50.76875 176.95032 52.846874 176.95032Q54.909374 176.95032 55.878124 178.27844Q56.8625 179.59094 56.89375 182.35657L56.89375 184.46594ZM55.26875 182.23157Q55.26875 180.16907 54.675 179.23157Q54.096874 178.27844 52.846874 178.27844Q51.596874 178.27844 51.01875 179.23157Q50.45625 180.16907 50.440624 182.10657L50.440624 184.71594Q50.440624 186.79407 51.034374 187.77844Q51.64375 188.76282 52.8625 188.76282Q54.065624 188.76282 54.64375 187.84094Q55.2375 186.90344 55.26875 184.90344L55.26875 182.23157ZM66.89375 184.46594Q66.89375 187.3097 65.90938 188.70032Q64.94063 190.09094 62.8625 190.09094Q60.815624 190.09094 59.83125 188.73157Q58.846874 187.3722 58.815624 184.6847L58.815624 182.51282Q58.815624 179.6847 59.784374 178.32532Q60.76875 176.95032 62.846874 176.95032Q64.90938 176.95032 65.87813 178.27844Q66.8625 179.59094 66.89375 182.35657L66.89375 184.46594ZM65.26875 182.23157Q65.26875 180.16907 64.675 179.23157Q64.09688 178.27844 62.846874 178.27844Q61.596874 178.27844 61.01875 179.23157Q60.45625 180.16907 60.440624 182.10657L60.440624 184.71594Q60.440624 186.79407 61.034374 187.77844Q61.64375 188.76282 62.8625 188.76282Q64.06563 188.76282 64.64375 187.84094Q65.2375 186.90344 65.26875 184.90344L65.26875 182.23157Z" fill-rule="nonzero"/><path fill="#d9d9d9" d="M36.628124 89.88021Q36.628124 90.833336 36.1125 91.583336Q35.6125 92.333336 34.753124 92.75521Q35.753124 93.177086 36.33125 94.00521Q36.925 94.833336 36.925 95.88021Q36.925 97.53646 35.8 98.520836Q34.675 99.50521 32.846874 99.50521Q31.003124 99.50521 29.89375 98.520836Q28.784374 97.53646 28.784374 95.88021Q28.784374 94.84896 29.346874 94.020836Q29.925 93.177086 30.925 92.739586Q30.065624 92.31771 29.565624 91.56771Q29.08125 90.81771 29.08125 89.88021Q29.08125 88.25521 30.1125 87.31771Q31.159374 86.364586 32.846874 86.364586Q34.534374 86.364586 35.58125 87.31771Q36.628124 88.25521 36.628124 89.88021ZM35.3 95.84896Q35.3 94.770836 34.6125 94.09896Q33.940624 93.41146 32.83125 93.41146Q31.7375 93.41146 31.065624 94.083336Q30.409374 94.75521 30.409374 95.84896Q30.409374 96.927086 31.05 97.552086Q31.70625 98.177086 32.846874 98.177086Q34.003124 98.177086 34.64375 97.552086Q35.3 96.927086 35.3 95.84896ZM32.846874 87.69271Q31.89375 87.69271 31.3 88.28646Q30.70625 88.88021 30.70625 89.895836Q30.70625 90.88021 31.284374 91.489586Q31.878124 92.083336 32.846874 92.083336Q33.83125 92.083336 34.409374 91.489586Q35.003124 90.88021 35.003124 89.91146Q35.003124 88.927086 34.39375 88.31771Q33.784374 87.69271 32.846874 87.69271ZM46.89375 93.88021Q46.89375 96.72396 45.909374 98.114586Q44.940624 99.50521 42.8625 99.50521Q40.815624 99.50521 39.83125 98.145836Q38.846874 96.78646 38.815624 94.09896L38.815624 91.927086Q38.815624 89.09896 39.784374 87.739586Q40.76875 86.364586 42.846874 86.364586Q44.909374 86.364586 45.878124 87.69271Q46.8625 89.00521 46.89375 91.770836L46.89375 93.88021ZM45.26875 91.645836Q45.26875 89.583336 44.675 88.645836Q44.096874 87.69271 42.846874 87.69271Q41.596874 87.69271 41.01875 88.645836Q40.45625 89.583336 40.440624 91.520836L40.440624 94.13021Q40.440624 96.208336 41.034374 97.19271Q41.64375 98.177086 42.8625 98.177086Q44.065624 98.177086 44.64375 97.25521Q45.2375 96.31771 45.26875 94.31771L45.26875 91.645836ZM56.89375 93.88021Q56.89375 96.72396 55.909374 98.114586Q54.940624 99.50521 52.8625 99.50521Q50.815624 99.50521 49.83125 98.145836Q48.846874 96.78646 48.815624 94.09896L48.815624 91.927086Q48.815624 89.09896 49.784374 87.739586Q50.76875 86.364586 52.846874 86.364586Q54.909374 86.364586 55.878124 87.69271Q56.8625 89.00521 56.89375 91.770836L56.89375 93.88021ZM55.26875 91.645836Q55.26875 89.583336 54.675 88.645836Q54.096874 87.69271 52.846874 87.69271Q51.596874 87.69271 51.01875 88.645836Q50.45625 89.583336 50.440624 91.520836L50.440624 94.13021Q50.440624 96.208336 51.034374 97.19271Q51.64375 98.177086 52.8625 98.177086Q54.065624 98.177086 54.64375 97.25521Q55.2375 96.31771 55.26875 94.31771L55.26875 91.645836ZM66.89375 93.88021Q66.89375 96.72396 65.90938 98.114586Q64.94063 99.50521 62.8625 99.50521Q60.815624 99.50521 59.83125 98.145836Q58.846874 96.78646 58.815624 94.09896L58.815624 91.927086Q58.815624 89.09896 59.784374 87.739586Q60.76875 86.364586 62.846874 86.364586Q64.90938 86.364586 65.87813 87.69271Q66.8625 89.00521 66.89375 91.770836L66.89375 93.88021ZM65.26875 91.645836Q65.26875 89.583336 64.675 88.645836Q64.09688 87.69271 62.846874 87.69271Q61.596874 87.69271 61.01875 88.645836Q60.45625 89.583336 60.440624 91.520836L60.440624 94.13021Q60.440624 96.208336 61.034374 97.19271Q61.64375 98.177086 62.8625 98.177086Q64.06563 98.177086 64.64375 97.25521Q65.2375 96.31771 65.26875 94.31771L65.26875 91.645836Z" fill-rule="nonzero"/><path fill="#d9d9d9" d="M110.16134 523.01337L105.96603 530.27985L104.95115 529.6939L102.90743 523.38995Q102.43887 521.9828 102.009636 521.32Q101.58821 520.6437 100.93869 520.2687Q100.07267 519.7687 99.21318 519.9761Q98.36151 520.17 97.8537 521.04956Q97.24432 522.10504 97.51731 523.03845Q97.776764 523.96405 98.83223 524.5734L98.01973 525.9807Q96.490654 525.0979 96.12728 523.57104Q95.75038 522.0364 96.70351 520.3855Q97.59413 518.8429 98.92165 518.4185Q100.25699 517.98065 101.59663 518.7541Q103.233955 519.6994 104.29061 523.088L105.80021 527.91077L109.01115 522.3493L110.16134 523.01337ZM110.2591 511.93774Q112.72186 513.3596 113.43399 514.9074Q114.15393 516.4417 113.11487 518.2414Q112.09143 520.01404 110.422 520.1869Q108.752556 520.3597 106.409485 519.04297L104.52859 517.95703Q102.07936 516.54297 101.38648 515.02435Q100.68788 513.4844 101.726944 511.68463Q102.758194 509.89847 104.39276 509.72357Q106.02161 509.5273 108.432335 510.88306L110.2591 511.93774ZM107.51158 512.22784Q105.7254 511.1966 104.61663 511.24207Q103.50214 511.26617 102.87714 512.3487Q102.25214 513.4312 102.788506 514.40845Q103.31915 515.3644 104.989265 516.3466L107.24905 517.6513Q109.04876 518.69037 110.19813 518.6684Q111.35531 518.6328 111.96468 517.57733Q112.566246 516.5354 112.05694 515.5738Q111.541916 514.5909 109.82549 513.5638L107.51158 512.22784ZM118.6379 508.3315L117.81759 509.75232L108.42662 504.33044L107.83575 507.76013L106.563774 507.02576L107.37635 502.11832L107.50135 501.90182L118.6379 508.3315ZM115.77952 500.43863L110.58673 496.6828L113.86017 491.01303L115.1592 491.76303L112.573265 496.242L115.395515 498.32248Q115.390656 497.23715 115.99222 496.19522Q116.86722 494.67966 118.37637 494.37823Q119.89334 494.06326 121.59833 495.04764Q123.31685 496.03983 123.77341 497.5303Q124.21643 499.01294 123.25549 500.67734Q122.40393 502.15228 121.05297 502.61722Q119.70982 503.06863 118.205154 502.36227L118.97078 501.0362Q119.996124 501.44775 120.79576 501.18774Q121.58968 500.90637 122.10531 500.01328Q122.67562 499.02548 122.33288 498.08786Q121.97661 497.14243 120.799355 496.46274Q119.689766 495.8221 118.66162 496.04044Q117.64129 496.24518 117.06316 497.24652Q116.53191 498.1667 116.63317 498.9288L116.72565 499.48737L115.77952 500.43863ZM127.16324 495.7527L126.46011 496.97052L117.102356 485.3974L117.79767 484.19308L127.16324 495.7527ZM128.75911 479.8948Q131.22186 481.31668 131.93399 482.8645Q132.65393 484.39877 131.61487 486.1985Q130.59143 487.97113 128.922 488.14392Q127.252556 488.31674 124.909485 487.00006L123.02859 485.91412Q120.57936 484.50006 119.88648 482.9814Q119.18788 481.4414 120.226944 479.6417Q121.258194 477.85553 122.89276 477.68063Q124.52161 477.48438 126.932335 478.84012L128.75911 479.8948ZM126.01158 480.1849Q124.2254 479.15366 123.11663 479.19913Q122.00214 479.22324 121.37714 480.30576Q120.75214 481.3883 121.288506 482.36554Q121.81915 483.3214 123.489265 484.3037L125.74905 485.6084Q127.54876 486.64746 128.69812 486.62543Q129.8553 486.58987 130.46468 485.53442Q131.06624 484.4925 130.55695 483.53088Q130.04192 482.5479 128.32549 481.52084L126.01158 480.1849ZM137.1379 476.28857L136.31758 477.70938L126.92662 472.2875L126.33575 475.7172L125.063774 474.98282L125.87635 470.07538L126.00135 469.8589L137.1379 476.28857Z" fill-rule="nonzero"/><path fill="#d9d9d9" d="M202.48738 523.01337L198.29207 530.27985L197.27719 529.6939L195.23347 523.38995Q194.76492 521.9828 194.33568 521.32Q193.91426 520.6437 193.26474 520.2687Q192.39871 519.7687 191.53923 519.9761Q190.68756 520.17 190.17975 521.04956Q189.57037 522.10504 189.84335 523.03845Q190.10281 523.96405 191.15828 524.5734L190.34578 525.9807Q188.8167 525.0979 188.45334 523.57104Q188.07643 522.0363 189.02956 520.3855Q189.92018 518.8429 191.2477 518.4185Q192.58304 517.98065 193.92267 518.7541Q195.56 519.6994 196.61665 523.08795L198.12625 527.91077L201.33719 522.3493L202.48738 523.01337ZM202.58514 511.93774Q205.04791 513.3596 205.76004 514.9074Q206.47998 516.4417 205.44092 518.2414Q204.41748 520.01404 202.74805 520.1869Q201.0786 520.3597 198.73553 519.04297L196.85463 517.95703Q194.40541 516.54297 193.71252 515.02435Q193.01393 513.4843 194.053 511.68463Q195.08424 509.89847 196.71881 509.72357Q198.34766 509.5273 200.75838 510.88306L202.58514 511.93774ZM199.83763 512.22784Q198.05145 511.1966 196.94267 511.24207Q195.82819 511.26617 195.20319 512.3487Q194.57819 513.4312 195.11455 514.40845Q195.6452 515.3644 197.3153 516.3466L199.57509 517.6513Q201.3748 518.69037 202.52417 518.6684Q203.68135 518.6328 204.29073 517.57733Q204.89229 516.5354 204.38298 515.5738Q203.86797 514.5909 202.15154 513.5638L199.83763 512.22784ZM210.96394 508.3315L210.14363 509.75232L200.75267 504.33044L200.16179 507.76013L198.88982 507.02576L199.7024 502.11832L199.8274 501.90182L210.96394 508.3315ZM205.38362 492.37192L206.58794 493.06723L206.4395 493.3243Q205.52126 494.97726 205.90596 496.49844Q206.27715 498.01178 207.90973 499.1528Q207.40839 497.70865 208.28339 496.1931Q209.11932 494.74524 210.64774 494.47296Q212.1626 494.19287 213.77287 495.12256Q215.47786 496.10693 215.9672 497.63437Q216.45654 499.1618 215.5503 500.73148Q214.63623 502.31467 212.84026 502.61288Q211.0521 502.89758 209.11707 501.7804L208.5758 501.4679Q205.51765 499.70227 204.6574 497.47354Q203.7914 495.22345 205.243 492.61548L205.38362 492.37192ZM209.3143 497.09503Q208.89243 497.82574 208.98741 498.69247Q209.06885 499.5514 209.58556 500.15643L210.09976 500.4533Q211.46646 501.24237 212.65698 501.11783Q213.85532 500.97974 214.38657 500.0596Q214.93344 499.11237 214.55583 498.17267Q214.1725 497.2116 213.03584 496.55536Q211.88565 495.8913 210.8617 496.03986Q209.83774 496.18842 209.3143 497.09503ZM219.48929 495.7527L218.78616 496.97052L209.4284 485.3974L210.12372 484.19308L219.48929 495.7527ZM221.08514 479.8948Q223.54791 481.31668 224.26004 482.8645Q224.97998 484.39877 223.94092 486.1985Q222.91748 487.97113 221.24805 488.14392Q219.5786 488.31674 217.23553 487.00006L215.35463 485.91412Q212.90541 484.50006 212.21252 482.98138Q211.51393 481.4414 212.553 479.6417Q213.58424 477.85553 215.21881 477.6806Q216.84766 477.48438 219.25838 478.84012L221.08514 479.8948ZM218.33763 480.1849Q216.55145 479.15366 215.44267 479.19913Q214.32819 479.22324 213.70319 480.30576Q213.07819 481.38828 213.61455 482.3655Q214.1452 483.3214 215.8153 484.30368L218.07509 485.60837Q219.8748 486.64743 221.02417 486.62543Q222.18135 486.58987 222.79073 485.53442Q223.39229 484.49246 222.88298 483.53085Q222.36797 482.5479 220.65154 481.52084L218.33763 480.1849ZM229.46394 476.28857L228.64363 477.70938L219.25267 472.2875L218.66179 475.7172L217.38982 474.98282L218.2024 470.07538L218.3274 469.8589L229.46394 476.28857Z" fill-rule="nonzero"/><path fill="#d9d9d9" d="M295.06638 523.01337L290.87106 530.27985L289.85617 529.6939L287.81247 523.38995Q287.3439 521.9828 286.91467 521.32Q286.49326 520.6437 285.84372 520.2687Q284.9777 519.7687 284.11823 519.97614Q283.26654 520.17 282.75873 521.04956Q282.14935 522.10504 282.42233 523.03845Q282.6818 523.96405 283.73727 524.5734L282.92477 525.9807Q281.3957 525.0979 281.03232 523.57104Q280.65543 522.0364 281.60855 520.3855Q282.49918 518.8429 283.8267 518.4185Q285.16202 517.98065 286.50165 518.7541Q288.13898 519.6994 289.19565 523.088L290.70523 527.91077L293.91617 522.3493L295.06638 523.01337ZM295.16412 511.93777Q297.6269 513.3596 298.33902 514.9075Q299.05896 516.4417 298.0199 518.24146Q296.99646 520.0141 295.32703 520.1869Q293.6576 520.3597 291.3145 519.04297L289.43362 517.95703Q286.98438 516.54297 286.2915 515.02435Q285.59293 513.4844 286.632 511.68463Q287.66324 509.89847 289.2978 509.72357Q290.92664 509.5273 293.33737 510.8831L295.16412 511.93777ZM292.4166 512.22784Q290.63043 511.19662 289.52167 511.24207Q288.40717 511.26617 287.78217 512.3487Q287.15717 513.4312 287.69354 514.40845Q288.22418 515.3644 289.8943 516.3466L292.15408 517.6513Q293.9538 518.69037 295.10315 518.6684Q296.26035 518.6328 296.86972 517.5774Q297.47128 516.5354 296.96198 515.5738Q296.44696 514.5909 294.73053 513.5638L292.4166 512.22784ZM303.54294 508.3315L302.72263 509.75235L293.33167 504.33047L292.74078 507.76013L291.4688 507.02576L292.28137 502.11832L292.40637 501.90182L303.54294 508.3315ZM299.7063 491.19553L307.35544 501.72806L306.50388 503.203L299.21225 492.89496L295.7435 498.90298L294.59332 498.23892L298.92145 490.7424L299.7063 491.19553ZM312.06827 495.7527L311.36514 496.97055L302.0074 485.3974L302.7027 484.19308L312.06827 495.7527ZM313.66412 479.8948Q316.1269 481.31668 316.83902 482.8645Q317.55896 484.39877 316.5199 486.1985Q315.49646 487.97113 313.82703 488.14395Q312.1576 488.31674 309.8145 487.00006L307.93362 485.91412Q305.48438 484.50006 304.7915 482.9814Q304.09293 481.4414 305.132 479.6417Q306.16324 477.85553 307.7978 477.68063Q309.42664 477.48438 311.83737 478.84012L313.66412 479.8948ZM310.9166 480.18494Q309.13043 479.1537 308.02167 479.19913Q306.90717 479.22324 306.28217 480.30576Q305.65717 481.3883 306.19354 482.36554Q306.72418 483.3214 308.3943 484.3037L310.65408 485.6084Q312.4538 486.64746 313.60315 486.62543Q314.76035 486.5899 315.36972 485.53442Q315.97128 484.4925 315.46198 483.53088Q314.94696 482.5479 313.23053 481.52087L310.9166 480.18494ZM322.04294 476.28857L321.22263 477.70938L311.83167 472.2875L311.24078 475.7172L309.9688 474.98282L310.78137 470.07538L310.90637 469.8589L322.04294 476.28857Z" fill-rule="nonzero"/><path fill="#d9d9d9" d="M387.39243 523.01337L383.1971 530.27985L382.18222 529.6939L380.13852 523.38995Q379.66995 521.9828 379.24072 521.32Q378.81927 520.6437 378.16977 520.2687Q377.30374 519.7687 376.44427 519.9761Q375.5926 520.17 375.08478 521.04956Q374.4754 522.10504 374.74838 523.03845Q375.00784 523.96405 376.06332 524.5734L375.25082 525.9807Q373.72174 525.0979 373.35837 523.57104Q372.98145 522.0364 373.93457 520.3855Q374.8252 518.8429 376.15274 518.4185Q377.48807 517.98065 378.8277 518.7541Q380.46503 519.6994 381.5217 523.08795L383.03128 527.91077L386.24222 522.3493L387.39243 523.01337ZM387.49017 511.93774Q389.95294 513.3596 390.66507 514.9074Q391.385 516.4417 390.34595 518.2414Q389.3225 520.01404 387.65308 520.1869Q385.98364 520.3597 383.64056 519.04297L381.75967 517.95703Q379.31042 516.54297 378.61755 515.02435Q377.91895 513.4844 378.958 511.68463Q379.98926 509.89847 381.62384 509.72357Q383.2527 509.5273 385.66342 510.88306L387.49017 511.93774ZM384.74265 512.22784Q382.95648 511.1966 381.84772 511.24207Q380.73322 511.26617 380.10822 512.3487Q379.48322 513.4312 380.0196 514.40845Q380.55023 515.3644 382.22034 516.3466L384.48013 517.6513Q386.27985 518.69037 387.4292 518.6684Q388.5864 518.6328 389.19577 517.57733Q389.79733 516.5354 389.28802 515.5738Q388.77298 514.5909 387.05658 513.5638L384.74265 512.22784ZM395.869 508.3315L395.04868 509.75232L385.6577 504.33044L385.06683 507.76013L383.79486 507.02576L384.60742 502.11832L384.73242 501.90182L395.869 508.3315ZM393.89328 492.8473Q394.7187 493.32385 395.1104 494.1454Q395.50992 494.9534 395.4456 495.90857Q396.31094 495.25348 397.3172 495.1669Q398.33124 495.06674 399.23785 495.59018Q400.6722 496.4183 400.96222 497.88477Q401.2522 499.35123 400.33813 500.93445Q399.41626 502.5312 398.0091 502.99973Q396.6019 503.4683 395.16754 502.64017Q394.27444 502.12454 393.83853 501.22336Q393.39688 500.3008 393.518 499.21603Q392.72296 499.74933 391.82343 499.80734Q390.93173 499.8518 390.11984 499.38306Q388.71252 498.57056 388.41626 497.20874Q388.11426 495.82556 388.958 494.36414Q389.80176 492.9027 391.15063 492.47266Q392.48596 492.0348 393.89328 492.8473ZM398.3983 496.98184Q397.4646 496.44278 396.539 496.70224Q395.60767 496.94034 395.05298 497.9011Q394.5061 498.84833 394.75204 499.7661Q395.00577 500.67038 395.95297 501.21725Q396.88666 501.75632 397.74823 501.514Q398.61765 501.25818 399.18796 500.2704Q399.76608 499.26904 399.5451 498.40173Q399.33197 497.5209 398.3983 496.98184ZM390.10822 495.0282Q389.63165 495.85364 389.84897 496.6647Q390.0663 497.47577 390.94586 497.98358Q391.79837 498.47577 392.61514 498.2798Q393.42624 498.06247 393.9106 497.2235Q394.4028 496.371 394.17764 495.57346Q393.9468 494.75458 393.10782 494.2702Q392.25534 493.778 391.4229 494.00107Q390.57697 494.2163 390.10822 495.0282ZM404.39432 495.7527L403.6912 496.97052L394.33344 485.3974L395.02875 484.19308L404.39432 495.7527ZM405.99017 479.8948Q408.45294 481.31668 409.16507 482.8645Q409.885 484.39877 408.84595 486.1985Q407.8225 487.97113 406.15308 488.14392Q404.48364 488.31674 402.14056 487.00006L400.25967 485.91412Q397.81042 484.50006 397.11755 482.9814Q396.41895 481.4414 397.458 479.6417Q398.48926 477.85553 400.12384 477.68063Q401.7527 477.48438 404.16342 478.84012L405.99017 479.8948ZM403.24265 480.1849Q401.45648 479.15366 400.34772 479.19913Q399.23322 479.22324 398.60822 480.30576Q397.98322 481.3883 398.5196 482.36554Q399.05023 483.3214 400.72034 484.3037L402.98013 485.6084Q404.77985 486.64746 405.9292 486.62543Q407.0864 486.58987 407.69577 485.53442Q408.29733 484.4925 407.78802 483.53088Q407.27298 482.5479 405.55658 481.52084L403.24265 480.1849ZM414.369 476.28857L413.54868 477.70938L404.1577 472.2875L403.56683 475.7172L402.29486 474.98282L403.10742 470.07538L403.23242 469.8589L414.369 476.28857Z" fill-rule="nonzero"/><path fill="#d9d9d9" d="M479.71848 523.01337L475.52316 530.27985L474.50827 529.6939L472.46457 523.38995Q471.996 521.9828 471.56677 521.32Q471.14532 520.6437 470.49582 520.2687Q469.6298 519.7687 468.7703 519.9761Q467.91864 520.17 467.41083 521.04956Q466.80145 522.10504 467.07443 523.03845Q467.3339 523.96405 468.38934 524.5734L467.57684 525.9807Q466.0478 525.0979 465.68442 523.57104Q465.3075 522.0363 466.26062 520.3855Q467.15125 518.8429 468.4788 518.4185Q469.81412 517.98065 471.15375 518.7541Q472.79108 519.6994 473.84775 523.08795L475.35733 527.91077L478.56827 522.3493L479.71848 523.01337ZM479.81622 511.93774Q482.279 513.3596 482.99112 514.9074Q483.71106 516.4417 482.672 518.2414Q481.64856 520.01404 479.97913 520.1869Q478.3097 520.3597 475.9666 519.04297L474.08572 517.95703Q471.63647 516.54297 470.9436 515.02435Q470.245 513.4843 471.28406 511.68463Q472.3153 509.89847 473.9499 509.72354Q475.57874 509.5273 477.98947 510.88306L479.81622 511.93774ZM477.0687 512.22784Q475.28253 511.1966 474.17377 511.24207Q473.05927 511.26617 472.43427 512.3487Q471.80927 513.4312 472.34564 514.40845Q472.87628 515.3644 474.5464 516.3466L476.80618 517.6513Q478.6059 518.69037 479.75525 518.6684Q480.91245 518.6328 481.52182 517.57733Q482.12338 516.5354 481.61407 515.5738Q481.09903 514.5909 479.38263 513.5638L477.0687 512.22784ZM488.195 508.3315L487.3747 509.75235L477.98373 504.33047L477.39288 507.76013L476.1209 507.02576L476.93347 502.11835L477.05847 501.90182L488.195 508.3315ZM488.76892 496.08746Q489.03885 496.8387 489.01205 497.63513Q488.9717 498.42374 488.54984 499.15445Q487.99515 500.1152 487.10748 500.55893Q486.22763 500.98914 485.14856 500.88937Q484.06952 500.7896 483.02756 500.18805Q481.91797 499.54742 481.2671 498.6123Q480.624 497.66367 480.60922 496.62674Q480.58093 495.582 481.1825 494.54007Q482.1278 492.90274 483.90607 492.66644Q485.6786 492.40884 487.80307 493.6354L488.22253 493.8776Q491.4566 495.74478 492.2029 497.88965Q492.957 500.021 491.5054 502.629L491.34915 502.89963L490.1584 502.21213L490.33026 501.91443Q491.3032 500.16675 490.9627 498.72525Q490.63 497.27023 488.76892 496.08746ZM487.51892 498.25253Q487.92517 497.5489 487.8359 496.7035Q487.74664 495.8581 487.2669 495.22028L486.69858 494.89215Q485.31836 494.09528 484.10858 494.19067Q482.88528 494.27826 482.35403 495.1984Q481.81497 496.13208 482.204 497.11447Q482.6009 498.08334 483.7646 498.75522Q484.88773 499.40366 485.94446 499.29208Q486.98767 499.1727 487.51892 498.25253ZM496.72034 495.75272L496.0172 496.97055L486.65945 485.39743L487.35477 484.1931L496.72034 495.75272ZM498.31622 479.89484Q500.77896 481.3167 501.4911 482.8645Q502.21103 484.3988 501.17197 486.1985Q500.14853 487.97116 498.4791 488.14395Q496.80966 488.31677 494.46658 487.00006L492.5857 485.91412Q490.13647 484.50006 489.4436 482.9814Q488.745 481.44144 489.78406 479.64172Q490.8153 477.85553 492.44986 477.68063Q494.0787 477.4844 496.48944 478.84015L498.31622 479.89484ZM495.5687 480.18494Q493.7825 479.1537 492.67374 479.19913Q491.55923 479.22324 490.93423 480.3058Q490.30923 481.3883 490.8456 482.36554Q491.37625 483.32144 493.0464 484.3037L495.30615 485.6084Q497.10587 486.64746 498.25525 486.62546Q499.4124 486.5899 500.0218 485.53442Q500.62335 484.4925 500.11404 483.53088Q499.59903 482.54794 497.8826 481.52087L495.5687 480.18494ZM506.695 476.28857L505.8747 477.7094L496.48373 472.28754L495.89285 475.71722L494.62088 474.98285L495.43347 470.0754L495.55847 469.8589L506.695 476.28857Z" fill-rule="nonzero"/><path fill="#a4c2f4" d="M590.2 94.333336C590.2 97.64704 587.51373 100.333336 584.2 100.333336C580.8863 100.333336 578.2 97.64704 578.2 94.333336C578.2 91.01962 580.8863 88.333336 584.2 88.333336C587.51373 88.333336 590.2 91.01962 590.2 94.333336Z" fill-rule="nonzero"/><path fill="#d9d9d9" d="M604.5594 98.84896L608.6219 87.114586L610.66876 87.114586L605.40314 101.333336L603.73126 101.333336L598.48126 87.114586L600.5125 87.114586L604.5594 98.84896ZM619.09064 101.333336Q618.9344 101.020836 618.84064 100.22396Q617.575 101.53646 615.825 101.53646Q614.2625 101.53646 613.2625 100.645836Q612.2625 99.75521 612.2625 98.395836Q612.2625 96.75521 613.5125 95.84896Q614.77814 94.927086 617.04376 94.927086L618.8094 94.927086L618.8094 94.09896Q618.8094 93.145836 618.23126 92.583336Q617.66876 92.020836 616.575 92.020836Q615.60626 92.020836 614.95 92.520836Q614.29376 93.00521 614.29376 93.69271L612.48126 93.69271Q612.48126 92.91146 613.04376 92.177086Q613.60626 91.427086 614.5594 91.00521Q615.52814 90.56771 616.6844 90.56771Q618.5125 90.56771 619.54376 91.489586Q620.575 92.395836 620.6219 94.00521L620.6219 98.864586Q620.6219 100.31771 620.98126 101.177086L620.98126 101.333336L619.09064 101.333336ZM616.09064 99.958336Q616.95 99.958336 617.7 99.520836Q618.46564 99.083336 618.8094 98.38021L618.8094 96.208336L617.3875 96.208336Q614.075 96.208336 614.075 98.145836Q614.075 99.00521 614.6375 99.489586Q615.2 99.958336 616.09064 99.958336ZM625.52814 101.333336L623.73126 101.333336L623.73126 86.333336L625.52814 86.333336L625.52814 101.333336ZM630.52814 101.333336L628.73126 101.333336L628.73126 90.770836L630.52814 90.770836L630.52814 101.333336ZM628.575 87.958336Q628.575 87.520836 628.84064 87.22396Q629.1219 86.91146 629.6375 86.91146Q630.16876 86.91146 630.4344 87.22396Q630.71564 87.520836 630.71564 87.958336Q630.71564 88.395836 630.4344 88.69271Q630.16876 88.989586 629.6375 88.989586Q629.1219 88.989586 628.84064 88.69271Q628.575 88.395836 628.575 87.958336ZM633.1219 95.958336Q633.1219 93.53646 634.27814 92.052086Q635.4344 90.56771 637.29376 90.56771Q639.15314 90.56771 640.23126 91.833336L640.23126 86.333336L642.04376 86.333336L642.04376 101.333336L640.3875 101.333336L640.29376 100.19271Q639.21564 101.53646 637.27814 101.53646Q635.45 101.53646 634.27814 100.03646Q633.1219 98.520836 633.1219 96.09896L633.1219 95.958336ZM634.9344 96.16146Q634.9344 97.958336 635.66876 98.97396Q636.41876 99.989586 637.73126 99.989586Q639.45 99.989586 640.23126 98.458336L640.23126 93.59896Q639.4344 92.09896 637.7469 92.09896Q636.41876 92.09896 635.66876 93.13021Q634.9344 94.16146 634.9344 96.16146ZM659.66876 88.66146L655.10626 88.66146L655.10626 101.333336L653.2469 101.333336L653.2469 88.66146L648.6844 88.66146L648.6844 87.114586L659.66876 87.114586L659.66876 88.66146ZM661.09064 95.958336Q661.09064 94.395836 661.7 93.16146Q662.3094 91.91146 663.3875 91.239586Q664.48126 90.56771 665.8875 90.56771Q668.04376 90.56771 669.3719 92.06771Q670.71564 93.552086 670.71564 96.03646L670.71564 96.16146Q670.71564 97.708336 670.1219 98.94271Q669.52814 100.16146 668.41876 100.84896Q667.325 101.53646 665.90314 101.53646Q663.7625 101.53646 662.41876 100.03646Q661.09064 98.53646 661.09064 96.083336L661.09064 95.958336ZM662.90314 96.16146Q662.90314 97.927086 663.71564 98.989586Q664.54376 100.052086 665.90314 100.052086Q667.27814 100.052086 668.09064 98.97396Q668.90314 97.895836 668.90314 95.958336Q668.90314 94.208336 668.075 93.13021Q667.2469 92.052086 665.8875 92.052086Q664.54376 92.052086 663.71564 93.114586Q662.90314 94.177086 662.90314 96.16146ZM672.09064 95.958336Q672.09064 94.395836 672.7 93.16146Q673.3094 91.91146 674.3875 91.239586Q675.48126 90.56771 676.8875 90.56771Q679.04376 90.56771 680.3719 92.06771Q681.71564 93.552086 681.71564 96.03646L681.71564 96.16146Q681.71564 97.708336 681.1219 98.94271Q680.52814 100.16146 679.41876 100.84896Q678.325 101.53646 676.90314 101.53646Q674.7625 101.53646 673.41876 100.03646Q672.09064 98.53646 672.09064 96.083336L672.09064 95.958336ZM673.90314 96.16146Q673.90314 97.927086 674.71564 98.989586Q675.54376 100.052086 676.90314 100.052086Q678.27814 100.052086 679.09064 98.97396Q679.90314 97.895836 679.90314 95.958336Q679.90314 94.208336 679.075 93.13021Q678.2469 92.052086 676.8875 92.052086Q675.54376 92.052086 674.71564 93.114586Q673.90314 94.177086 673.90314 96.16146ZM685.52814 101.333336L683.73126 101.333336L683.73126 86.333336L685.52814 86.333336L685.52814 101.333336ZM694.71564 98.53646Q694.71564 97.802086 694.16876 97.395836Q693.6219 96.989586 692.2469 96.69271Q690.8719 96.395836 690.0594 95.989586Q689.2625 95.583336 688.8719 95.020836Q688.4969 94.44271 688.4969 93.66146Q688.4969 92.364586 689.59064 91.47396Q690.6844 90.56771 692.40314 90.56771Q694.2 90.56771 695.3094 91.50521Q696.4344 92.427086 696.4344 93.864586L694.60626 93.864586Q694.60626 93.13021 693.98126 92.59896Q693.35626 92.052086 692.40314 92.052086Q691.40314 92.052086 690.84064 92.489586Q690.29376 92.91146 690.29376 93.614586Q690.29376 94.25521 690.8094 94.59896Q691.325 94.927086 692.6844 95.239586Q694.04376 95.53646 694.8719 95.958336Q695.71564 96.364586 696.1219 96.958336Q696.52814 97.552086 696.52814 98.395836Q696.52814 99.81771 695.3875 100.677086Q694.2625 101.53646 692.45 101.53646Q691.1844 101.53646 690.2 101.083336Q689.23126 100.63021 688.66876 99.833336Q688.1219 99.020836 688.1219 98.083336L689.9344 98.083336Q689.98126 98.989586 690.65314 99.520836Q691.34064 100.052086 692.45 100.052086Q693.48126 100.052086 694.09064 99.645836Q694.71564 99.22396 694.71564 98.53646Z" fill-rule="nonzero"/><path fill="#dc3912" d="M590.2 128.33333C590.2 131.64705 587.51373 134.33333 584.2 134.33333C580.8863 134.33333 578.2 131.64705 578.2 128.33333C578.2 125.01962 580.8863 122.333336 584.2 122.333336C587.51373 122.333336 590.2 125.01962 590.2 128.33333Z" fill-rule="nonzero"/><path fill="#d9d9d9" d="M609.85626 121.11458L609.85626 130.78645Q609.85626 132.78645 608.59064 134.0677Q607.34064 135.34895 605.2 135.5052L604.7 135.53645Q602.35626 135.53645 600.96564 134.27083Q599.59064 133.0052 599.575 130.80208L599.575 121.11458L601.41876 121.11458L601.41876 130.73958Q601.41876 132.28645 602.2625 133.14583Q603.1219 133.98958 604.7 133.98958Q606.29376 133.98958 607.1375 133.14583Q607.98126 132.30208 607.98126 130.7552L607.98126 121.11458L609.85626 121.11458ZM614.27814 124.77083L614.34064 126.09895Q615.54376 124.5677 617.4969 124.5677Q620.85626 124.5677 620.8719 128.34895L620.8719 135.33333L619.075 135.33333L619.075 128.33333Q619.0594 127.1927 618.54376 126.64583Q618.04376 126.09895 616.95 126.09895Q616.075 126.09895 615.40314 126.5677Q614.7469 127.03645 614.3719 127.80208L614.3719 135.33333L612.575 135.33333L612.575 124.77083L614.27814 124.77083ZM625.52814 135.33333L623.73126 135.33333L623.73126 124.77083L625.52814 124.77083L625.52814 135.33333ZM623.575 121.95833Q623.575 121.52083 623.84064 121.22395Q624.1219 120.91145 624.6375 120.91145Q625.16876 120.91145 625.4344 121.22395Q625.71564 121.52083 625.71564 121.95833Q625.71564 122.39583 625.4344 122.6927Q625.16876 122.98958 624.6375 122.98958Q624.1219 122.98958 623.84064 122.6927Q623.575 122.39583 623.575 121.95833ZM628.1219 129.95833Q628.1219 127.47395 629.2625 126.02083Q630.41876 124.5677 632.34064 124.5677Q634.21564 124.5677 635.29376 125.83333L635.3719 124.77083L637.02814 124.77083L637.02814 139.39583L635.23126 139.39583L635.23126 134.34895Q634.1375 135.53645 632.325 135.53645Q630.40314 135.53645 629.2625 134.05208Q628.1219 132.55208 628.1219 130.08333L628.1219 129.95833ZM629.9344 130.16145Q629.9344 131.98958 630.7 133.02083Q631.46564 134.05208 632.7625 134.05208Q634.3719 134.05208 635.23126 132.6302L635.23126 127.45833Q634.3719 126.05208 632.79376 126.05208Q631.48126 126.05208 630.7 127.09895Q629.9344 128.1302 629.9344 130.16145ZM646.09064 134.28645Q645.04376 135.53645 642.9969 135.53645Q641.3094 135.53645 640.41876 134.55208Q639.54376 133.5677 639.52814 131.64583L639.52814 124.77083L641.34064 124.77083L641.34064 131.59895Q641.34064 133.98958 643.29376 133.98958Q645.35626 133.98958 646.04376 132.45833L646.04376 124.77083L647.85626 124.77083L647.85626 135.33333L646.1375 135.33333L646.09064 134.28645ZM654.95 135.53645Q652.8094 135.53645 651.45 134.1302Q650.10626 132.70833 650.10626 130.34895L650.10626 130.0052Q650.10626 128.4427 650.7 127.20833Q651.3094 125.97395 652.3875 125.27083Q653.46564 124.5677 654.73126 124.5677Q656.79376 124.5677 657.9344 125.92708Q659.075 127.28645 659.075 129.8177L659.075 130.5677L651.91876 130.5677Q651.95 132.1302 652.825 133.09895Q653.7 134.05208 655.04376 134.05208Q656.0125 134.05208 656.66876 133.66145Q657.34064 133.27083 657.84064 132.6302L658.9344 133.48958Q657.60626 135.53645 654.95 135.53645ZM654.73126 126.05208Q653.6375 126.05208 652.8875 126.84895Q652.15314 127.64583 651.98126 129.08333L657.2625 129.08333L657.2625 128.9427Q657.1844 127.5677 656.5125 126.8177Q655.85626 126.05208 654.73126 126.05208ZM677.79376 128.67708Q677.79376 130.77083 677.09064 132.33333Q676.3875 133.8802 675.09064 134.70833Q673.8094 135.53645 672.09064 135.53645Q670.40314 135.53645 669.10626 134.70833Q667.8094 133.8802 667.09064 132.34895Q666.3719 130.8177 666.35626 128.80208L666.35626 127.78645Q666.35626 125.73958 667.0594 124.16145Q667.77814 122.58333 669.075 121.7552Q670.3875 120.91145 672.0594 120.91145Q673.77814 120.91145 675.075 121.73958Q676.3875 122.5677 677.09064 124.14583Q677.79376 125.70833 677.79376 127.78645L677.79376 128.67708ZM675.91876 127.77083Q675.91876 125.23958 674.90314 123.89583Q673.8875 122.53645 672.0594 122.53645Q670.29376 122.53645 669.2625 123.89583Q668.2469 125.23958 668.21564 127.6302L668.21564 128.67708Q668.21564 131.1302 669.2469 132.53645Q670.27814 133.9427 672.09064 133.9427Q673.90314 133.9427 674.8875 132.61458Q675.8875 131.28645 675.91876 128.8177L675.91876 127.77083ZM689.91876 132.84895L691.95 124.77083L693.7625 124.77083L690.6844 135.33333L689.21564 135.33333L686.65314 127.3177L684.15314 135.33333L682.6844 135.33333L679.6219 124.77083L681.41876 124.77083L683.4969 132.67708L685.96564 124.77083L687.41876 124.77083L689.91876 132.84895ZM697.27814 124.77083L697.34064 126.09895Q698.54376 124.5677 700.4969 124.5677Q703.85626 124.5677 703.8719 128.34895L703.8719 135.33333L702.075 135.33333L702.075 128.33333Q702.0594 127.1927 701.54376 126.64583Q701.04376 126.09895 699.95 126.09895Q699.075 126.09895 698.40314 126.5677Q697.7469 127.03645 697.3719 127.80208L697.3719 135.33333L695.575 135.33333L695.575 124.77083L697.27814 124.77083ZM710.95 135.53645Q708.8094 135.53645 707.45 134.1302Q706.10626 132.70833 706.10626 130.34895L706.10626 130.0052Q706.10626 128.4427 706.7 127.20833Q707.3094 125.97395 708.3875 125.27083Q709.46564 124.5677 710.73126 124.5677Q712.79376 124.5677 713.9344 125.92708Q715.075 127.28645 715.075 129.8177L715.075 130.5677L707.91876 130.5677Q707.95 132.1302 708.825 133.09895Q709.7 134.05208 711.04376 134.05208Q712.0125 134.05208 712.66876 133.66145Q713.34064 133.27083 713.84064 132.6302L714.9344 133.48958Q713.60626 135.53645 710.95 135.53645ZM710.73126 126.05208Q709.6375 126.05208 708.8875 126.84895Q708.15314 127.64583 707.98126 129.08333L713.2625 129.08333L713.2625 128.9427Q713.1844 127.5677 712.5125 126.8177Q711.85626 126.05208 710.73126 126.05208ZM722.66876 126.3802Q722.2625 126.3177 721.79376 126.3177Q720.0125 126.3177 719.3719 127.83333L719.3719 135.33333L717.575 135.33333L717.575 124.77083L719.325 124.77083L719.35626 125.98958Q720.2469 124.5677 721.8719 124.5677Q722.40314 124.5677 722.66876 124.70833L722.66876 126.3802ZM730.71564 132.53645Q730.71564 131.80208 730.16876 131.39583Q729.6219 130.98958 728.2469 130.6927Q726.8719 130.39583 726.0594 129.98958Q725.2625 129.58333 724.8719 129.02083Q724.4969 128.4427 724.4969 127.66145Q724.4969 126.36458 725.59064 125.47395Q726.6844 124.5677 728.40314 124.5677Q730.2 124.5677 731.3094 125.5052Q732.4344 126.42708 732.4344 127.86458L730.60626 127.86458Q730.60626 127.1302 729.98126 126.59895Q729.35626 126.05208 728.40314 126.05208Q727.40314 126.05208 726.84064 126.48958Q726.29376 126.91145 726.29376 127.61458Q726.29376 128.2552 726.8094 128.59895Q727.325 128.92708 728.6844 129.23958Q730.04376 129.53645 730.8719 129.95833Q731.71564 130.36458 732.1219 130.95833Q732.52814 131.55208 732.52814 132.39583Q732.52814 133.8177 731.3875 134.67708Q730.2625 135.53645 728.45 135.53645Q727.1844 135.53645 726.2 135.08333Q725.23126 134.6302 724.66876 133.83333Q724.1219 133.02083 724.1219 132.08333L725.9344 132.08333Q725.98126 132.98958 726.65314 133.52083Q727.34064 134.05208 728.45 134.05208Q729.48126 134.05208 730.09064 133.64583Q730.71564 133.22395 730.71564 132.53645Z" fill-rule="nonzero"/><path fill="#d9d9d9" d="M45.01875 36.784374L38.159374 36.784374L38.159374 55.8L35.3625 55.8L35.3625 36.784374L28.51875 36.784374L28.51875 34.471874L45.01875 34.471874L45.01875 36.784374ZM47.128124 47.721874Q47.128124 45.39375 48.05 43.534374Q48.971874 41.675 50.596874 40.675Q52.2375 39.659374 54.33125 39.659374Q57.565624 39.659374 59.565624 41.909374Q61.565624 44.14375 61.565624 47.8625L61.565624 48.05Q61.565624 50.3625 60.675 52.20625Q59.784374 54.034374 58.128124 55.065624Q56.4875 56.096874 54.3625 56.096874Q51.128124 56.096874 49.128124 53.8625Q47.128124 51.6125 47.128124 47.925L47.128124 47.721874ZM49.8625 48.05Q49.8625 50.690624 51.08125 52.284374Q52.3 53.878124 54.3625 53.878124Q56.425 53.878124 57.628124 52.26875Q58.846874 50.64375 58.846874 47.721874Q58.846874 45.128124 57.6125 43.503124Q56.378124 41.878124 54.33125 41.878124Q52.315624 41.878124 51.08125 43.4875Q49.8625 45.08125 49.8625 48.05ZM64.12813 47.721874Q64.12813 45.39375 65.05 43.534374Q65.97188 41.675 67.59688 40.675Q69.2375 39.659374 71.33125 39.659374Q74.56563 39.659374 76.56563 41.909374Q78.56563 44.14375 78.56563 47.8625L78.56563 48.05Q78.56563 50.3625 77.675 52.20625Q76.78438 54.034374 75.12813 55.065624Q73.4875 56.096874 71.3625 56.096874Q68.12813 56.096874 66.12813 53.8625Q64.12813 51.6125 64.12813 47.925L64.12813 47.721874ZM66.8625 48.05Q66.8625 50.690624 68.08125 52.284374Q69.3 53.878124 71.3625 53.878124Q73.425 53.878124 74.62813 52.26875Q75.84688 50.64375 75.84688 47.721874Q75.84688 45.128124 74.6125 43.503124Q73.37813 41.878124 71.33125 41.878124Q69.31563 41.878124 68.08125 43.4875Q66.8625 45.08125 66.8625 48.05ZM84.8 55.8L82.08125 55.8L82.08125 33.3L84.8 33.3L84.8 55.8ZM98.08125 51.596874Q98.08125 50.503124 97.25313 49.89375Q96.425 49.284374 94.3625 48.846874Q92.31563 48.409374 91.09688 47.8Q89.89375 47.175 89.31563 46.33125Q88.7375 45.471874 88.7375 44.3Q88.7375 42.346874 90.37813 41.003124Q92.03438 39.659374 94.59688 39.659374Q97.28438 39.659374 98.95625 41.05Q100.64375 42.440624 100.64375 44.6125L97.925 44.6125Q97.925 43.4875 96.97188 42.690624Q96.03438 41.878124 94.59688 41.878124Q93.1125 41.878124 92.26875 42.534374Q91.44063 43.175 91.44063 44.20625Q91.44063 45.190624 92.22188 45.690624Q93.00313 46.190624 95.01875 46.64375Q97.05 47.096874 98.31563 47.7375Q99.58125 48.3625 100.175 49.253124Q100.78438 50.128124 100.78438 51.409374Q100.78438 53.534374 99.08125 54.815624Q97.39375 56.096874 94.675 56.096874Q92.78438 56.096874 91.31563 55.425Q89.84688 54.7375 89.01875 53.534374Q88.19063 52.33125 88.19063 50.925L90.90938 50.925Q90.97188 52.284374 91.9875 53.08125Q93.01875 53.878124 94.675 53.878124Q96.22188 53.878124 97.14375 53.253124Q98.08125 52.628124 98.08125 51.596874ZM106.56563 41.8625Q108.3625 39.659374 111.25313 39.659374Q116.26875 39.659374 116.31563 45.33125L116.31563 55.8L113.6125 55.8L113.6125 45.315624Q113.59688 43.596874 112.81563 42.784374Q112.05 41.95625 110.425 41.95625Q109.1125 41.95625 108.1125 42.659374Q107.1125 43.3625 106.56563 44.503124L106.56563 55.8L103.84688 55.8L103.84688 33.3L106.56563 33.3L106.56563 41.8625ZM127.425 56.096874Q124.20625 56.096874 122.175 53.9875Q120.15938 51.8625 120.15938 48.315624L120.15938 47.815624Q120.15938 45.45625 121.06563 43.6125Q121.97188 41.753124 123.58125 40.70625Q125.20625 39.659374 127.09688 39.659374Q130.175 39.659374 131.89375 41.690624Q133.6125 43.721874 133.6125 47.51875L133.6125 48.64375L122.87813 48.64375Q122.925 50.9875 124.2375 52.440624Q125.55 53.878124 127.58125 53.878124Q129.00313 53.878124 130.00313 53.3Q131.00313 52.70625 131.75313 51.7375L133.40938 53.034374Q131.40938 56.096874 127.425 56.096874ZM127.09688 41.878124Q125.45625 41.878124 124.33125 43.08125Q123.22188 44.26875 122.95625 46.425L130.89375 46.425L130.89375 46.221874Q130.78438 44.159374 129.78438 43.01875Q128.78438 41.878124 127.09688 41.878124ZM136.19063 47.7375Q136.19063 44.096874 137.90938 41.878124Q139.64375 39.659374 142.44063 39.659374Q145.2375 39.659374 146.8625 41.565624L146.8625 33.3L149.56563 33.3L149.56563 55.8L147.08125 55.8L146.94063 54.096874Q145.31563 56.096874 142.425 56.096874Q139.65938 56.096874 137.925 53.846874Q136.19063 51.58125 136.19063 47.940624L136.19063 47.7375ZM138.90938 48.05Q138.90938 50.753124 140.01875 52.284374Q141.12813 53.8 143.09688 53.8Q145.675 53.8 146.8625 51.471874L146.8625 44.190624Q145.64375 41.95625 143.12813 41.95625Q141.12813 41.95625 140.01875 43.503124Q138.90938 45.034374 138.90938 48.05ZM167.56563 46.3Q163.94063 45.253124 162.28438 43.7375Q160.64375 42.221874 160.64375 39.9875Q160.64375 37.471874 162.65938 35.83125Q164.675 34.175 167.89375 34.175Q170.09688 34.175 171.81563 35.034374Q173.53438 35.878124 174.47188 37.378124Q175.425 38.8625 175.425 40.64375L172.59688 40.64375Q172.59688 38.70625 171.3625 37.596874Q170.14375 36.4875 167.89375 36.4875Q165.81563 36.4875 164.64375 37.409374Q163.4875 38.33125 163.4875 39.95625Q163.4875 41.253124 164.59688 42.159374Q165.70625 43.05 168.3625 43.8Q171.01875 44.55 172.51875 45.45625Q174.01875 46.346874 174.7375 47.55Q175.47188 48.753124 175.47188 50.378124Q175.47188 52.971874 173.44063 54.534374Q171.425 56.096874 168.05 56.096874Q165.84688 56.096874 163.94063 55.253124Q162.03438 54.409374 161.00313 52.940624Q159.97188 51.471874 159.97188 49.6125L162.8 49.6125Q162.8 51.55 164.22188 52.675Q165.65938 53.8 168.05 53.8Q170.26875 53.8 171.45625 52.89375Q172.64375 51.971874 172.64375 50.409374Q172.64375 48.846874 171.53438 47.9875Q170.44063 47.128124 167.56563 46.3ZM182.53438 36.1125L182.53438 39.95625L185.4875 39.95625L185.4875 42.05L182.53438 42.05L182.53438 51.878124Q182.53438 52.83125 182.925 53.315624Q183.31563 53.784374 184.26875 53.784374Q184.7375 53.784374 185.56563 53.596874L185.56563 55.8Q184.4875 56.096874 183.4875 56.096874Q181.65938 56.096874 180.7375 55.003124Q179.81563 53.89375 179.81563 51.878124L179.81563 42.05L176.925 42.05L176.925 39.95625L179.81563 39.95625L179.81563 36.1125L182.53438 36.1125ZM198.64375 55.8Q198.40938 55.33125 198.25313 54.128124Q196.3625 56.096874 193.7375 56.096874Q191.39375 56.096874 189.89375 54.76875Q188.39375 53.440624 188.39375 51.409374Q188.39375 48.925 190.26875 47.565624Q192.15938 46.190624 195.58125 46.190624L198.20625 46.190624L198.20625 44.940624Q198.20625 43.51875 197.3625 42.690624Q196.51875 41.846874 194.8625 41.846874Q193.40938 41.846874 192.425 42.58125Q191.44063 43.3 191.44063 44.346874L188.72188 44.346874Q188.72188 43.159374 189.56563 42.05Q190.40938 40.940624 191.84688 40.3Q193.28438 39.659374 195.01875 39.659374Q197.75313 39.659374 199.3 41.034374Q200.8625 42.39375 200.925 44.8L200.925 52.096874Q200.925 54.26875 201.47188 55.565624L201.47188 55.8L198.64375 55.8ZM194.14375 53.7375Q195.40938 53.7375 196.55 53.08125Q197.70625 52.409374 198.20625 51.3625L198.20625 48.1125L196.08125 48.1125Q191.1125 48.1125 191.1125 51.01875Q191.1125 52.3 191.95625 53.01875Q192.8 53.7375 194.14375 53.7375ZM208.53438 36.1125L208.53438 39.95625L211.4875 39.95625L211.4875 42.05L208.53438 42.05L208.53438 51.878124Q208.53438 52.83125 208.925 53.315624Q209.31563 53.784374 210.26875 53.784374Q210.7375 53.784374 211.56563 53.596874L211.56563 55.8Q210.4875 56.096874 209.4875 56.096874Q207.65938 56.096874 206.7375 55.003124Q205.81563 53.89375 205.81563 51.878124L205.81563 42.05L202.925 42.05L202.925 39.95625L205.81563 39.95625L205.81563 36.1125L208.53438 36.1125ZM217.8 55.8L215.08125 55.8L215.08125 39.95625L217.8 39.95625L217.8 55.8ZM214.8625 35.753124Q214.8625 35.08125 215.26875 34.628124Q215.675 34.175 216.45625 34.175Q217.25313 34.175 217.65938 34.628124Q218.08125 35.08125 218.08125 35.753124Q218.08125 36.409374 217.65938 36.846874Q217.25313 37.284374 216.45625 37.284374Q215.675 37.284374 215.26875 36.846874Q214.8625 36.409374 214.8625 35.753124ZM231.08125 51.596874Q231.08125 50.503124 230.25313 49.89375Q229.425 49.284374 227.3625 48.846874Q225.31563 48.409374 224.09688 47.8Q222.89375 47.175 222.31563 46.33125Q221.7375 45.471874 221.7375 44.3Q221.7375 42.346874 223.37813 41.003124Q225.03438 39.659374 227.59688 39.659374Q230.28438 39.659374 231.95625 41.05Q233.64375 42.440624 233.64375 44.6125L230.925 44.6125Q230.925 43.4875 229.97188 42.690624Q229.03438 41.878124 227.59688 41.878124Q226.1125 41.878124 225.26875 42.534374Q224.44063 43.175 224.44063 44.20625Q224.44063 45.190624 225.22188 45.690624Q226.00313 46.190624 228.01875 46.64375Q230.05 47.096874 231.31563 47.7375Q232.58125 48.3625 233.175 49.253124Q233.78438 50.128124 233.78438 51.409374Q233.78438 53.534374 232.08125 54.815624Q230.39375 56.096874 227.675 56.096874Q225.78438 56.096874 224.31563 55.425Q222.84688 54.7375 222.01875 53.534374Q221.19063 52.33125 221.19063 50.925L223.90938 50.925Q223.97188 52.284374 224.9875 53.08125Q226.01875 53.878124 227.675 53.878124Q229.22188 53.878124 230.14375 53.253124Q231.08125 52.628124 231.08125 51.596874ZM240.53438 36.1125L240.53438 39.95625L243.4875 39.95625L243.4875 42.05L240.53438 42.05L240.53438 51.878124Q240.53438 52.83125 240.925 53.315624Q241.31563 53.784374 242.26875 53.784374Q242.7375 53.784374 243.56563 53.596874L243.56563 55.8Q242.4875 56.096874 241.4875 56.096874Q239.65938 56.096874 238.7375 55.003124Q237.81563 53.89375 237.81563 51.878124L237.81563 42.05L234.925 42.05L234.925 39.95625L237.81563 39.95625L237.81563 36.1125L240.53438 36.1125ZM249.8 55.8L247.08125 55.8L247.08125 39.95625L249.8 39.95625L249.8 55.8ZM246.8625 35.753124Q246.8625 35.08125 247.26875 34.628124Q247.675 34.175 248.45625 34.175Q249.25313 34.175 249.65938 34.628124Q250.08125 35.08125 250.08125 35.753124Q250.08125 36.409374 249.65938 36.846874Q249.25313 37.284374 248.45625 37.284374Q247.675 37.284374 247.26875 36.846874Q246.8625 36.409374 246.8625 35.753124ZM260.20624 53.878124Q261.65936 53.878124 262.7375 53.003124Q263.83124 52.128124 263.9406 50.8L266.5031 50.8Q266.4406 52.159374 265.5656 53.39375Q264.70624 54.628124 263.2531 55.3625Q261.8156 56.096874 260.20624 56.096874Q256.97186 56.096874 255.05 53.940624Q253.14375 51.76875 253.14375 48.01875L253.14375 47.565624Q253.14375 45.253124 253.9875 43.45625Q254.84688 41.64375 256.425 40.659374Q258.01874 39.659374 260.1906 39.659374Q262.8625 39.659374 264.6281 41.253124Q266.39374 42.846874 266.5031 45.39375L263.9406 45.39375Q263.83124 43.8625 262.78436 42.878124Q261.7375 41.878124 260.1906 41.878124Q258.1281 41.878124 256.9875 43.378124Q255.8625 44.8625 255.8625 47.675L255.8625 48.175Q255.8625 50.925 256.9875 52.409374Q258.1125 53.878124 260.20624 53.878124ZM279.08124 51.596874Q279.08124 50.503124 278.2531 49.89375Q277.425 49.284374 275.3625 48.846874Q273.3156 48.409374 272.09686 47.8Q270.89374 47.175 270.3156 46.33125Q269.7375 45.471874 269.7375 44.3Q269.7375 42.346874 271.3781 41.003124Q273.03436 39.659374 275.59686 39.659374Q278.28436 39.659374 279.95624 41.05Q281.64374 42.440624 281.64374 44.6125L278.925 44.6125Q278.925 43.4875 277.97186 42.690624Q277.03436 41.878124 275.59686 41.878124Q274.1125 41.878124 273.26874 42.534374Q272.4406 43.175 272.4406 44.20625Q272.4406 45.190624 273.22186 45.690624Q274.0031 46.190624 276.01874 46.64375Q278.05 47.096874 279.3156 47.7375Q280.58124 48.3625 281.175 49.253124Q281.78436 50.128124 281.78436 51.409374Q281.78436 53.534374 280.08124 54.815624Q278.39374 56.096874 275.675 56.096874Q273.78436 56.096874 272.3156 55.425Q270.84686 54.7375 270.01874 53.534374Q269.1906 52.33125 269.1906 50.925L271.90936 50.925Q271.97186 52.284374 272.9875 53.08125Q274.01874 53.878124 275.675 53.878124Q277.22186 53.878124 278.14374 53.253124Q279.08124 52.628124 279.08124 51.596874Z" fill-rule="nonzero"/></svg>