<svg version="1.1" viewBox="0.0 0.0 761.0 556.0" fill="none" stroke="none" stroke-linecap="square" stroke-miterlimit="10" width="761" height="556" xmlns:xlink="http://www.w3.org/1999/xlink" xmlns="http://www.w3.org/2000/svg"><path fill="#ffffff" d="M0 0L761.0 0L761.0 556.0L0 556.0L0 0Z" fill-rule="nonzero"/><path fill="#000000" d="M0 0L761.0 0L761.0 556.0L0 556.0L0 0Z" fill-rule="nonzero"/><path stroke="#333333" stroke-width="1.0" stroke-linecap="butt" d="M133.5 93.5L133.5 455.5" fill-rule="nonzero"/><path stroke="#333333" stroke-width="1.0" stroke-linecap="butt" d="M235.5 93.5L235.5 455.5" fill-rule="nonzero"/><path stroke="#333333" stroke-width="1.0" stroke-linecap="butt" d="M338.5 93.5L338.5 455.5" fill-rule="nonzero"/><path stroke="#333333" stroke-width="1.0" stroke-linecap="butt" d="M441.5 93.5L441.5 455.5" fill-rule="nonzero"/><path stroke="#333333" stroke-width="1.0" stroke-linecap="butt" d="M543.5 93.5L543.5 455.5" fill-rule="nonzero"/><path stroke="#cccccc" stroke-width="1.0" stroke-linecap="butt" d="M76.5 455.5L548.5 455.5" fill-rule="nonzero"/><path stroke="#333333" stroke-width="1.0" stroke-linecap="butt" d="M76.5 365.5L548.5 365.5" fill-rule="nonzero"/><path stroke="#333333" stroke-width="1.0" stroke-linecap="butt" d="M76.5 274.5L548.5 274.5" fill-rule="nonzero"/><path stroke="#333333" stroke-width="1.0" stroke-linecap="butt" d="M76.5 183.5L548.5 183.5" fill-rule="nonzero"/><path stroke="#333333" stroke-width="1.0" stroke-linecap="butt" d="M76.5 93.5L548.5 93.5" fill-rule="nonzero"/><clipPath id="id_0"><path d="M76.8 93.333336L548.4756 93.333336L548.4756 455.6763L76.8 455.6763L76.8 93.333336Z" clip-rule="nonzero"/></clipPath><path stroke="#a4c2f4" stroke-width="4.0" stroke-linecap="butt" clip-path="url(#id_0)" d="M81.6962 340.723C81.6962 340.723 98.91737 336.94858 107.52796 334.11023C116.13855 331.27188 124.74914 327.1941 133.35973 323.69287C141.9703 320.19165 167.24051 308.24982 184.18091 302.85815C201.1213 297.46646 227.51463 294.816 244.54861 289.17972C261.5826 283.54343 281.3308 271.06076 295.65057 266.94092C309.97037 262.82104 324.29016 265.15613 338.60992 260.91696C352.92972 256.67776 372.49072 245.1223 389.43112 237.95348C406.37152 230.78464 424.15424 228.5753 441.09464 217.57167C458.03503 206.56805 474.97543 181.58571 491.91583 171.59941C508.85623 161.61311 543.57935 157.42274 543.57935 157.42274" fill-rule="nonzero"/><path stroke="#dc3912" stroke-width="4.0" stroke-linecap="butt" clip-path="url(#id_0)" d="M81.6962 444.1719C81.6962 444.1719 98.91737 443.60574 107.52796 443.31134C116.13855 443.01694 124.74914 442.71762 133.35973 442.4055C141.9703 442.09335 167.24051 441.1062 184.18091 440.50317C201.1213 439.90015 227.51463 439.1904 244.54861 438.465C261.5826 437.73962 281.3308 436.41745 295.65057 435.838C309.97037 435.25858 324.29016 434.979 338.60992 434.56982C352.92972 434.16064 372.49072 433.53342 389.43112 433.16574C406.37152 432.79807 424.15424 432.92197 441.09464 432.35046C458.03503 431.77896 474.97543 430.32468 491.91583 429.72348C508.85623 429.12228 543.57935 428.72705 543.57935 428.72705" fill-rule="nonzero"/><path fill="#a4c2f4" clip-path="url(#id_0)" d="M85.1962 340.723C85.1962 342.65598 83.62919 344.223 81.6962 344.223C79.7632 344.223 78.1962 342.65598 78.1962 340.723C78.1962 338.79 79.7632 337.223 81.6962 337.223C83.62919 337.223 85.1962 338.79 85.1962 340.723Z" fill-rule="nonzero"/><path fill="#a4c2f4" clip-path="url(#id_0)" d="M111.02796 334.11023C111.02796 336.04324 109.46095 337.61023 107.52796 337.61023C105.59496 337.61023 104.02796 336.04324 104.02796 334.11023C104.02796 332.17725 105.59496 330.61023 107.52796 330.61023C109.46095 330.61023 111.02796 332.17725 111.02796 334.11023Z" fill-rule="nonzero"/><path fill="#a4c2f4" clip-path="url(#id_0)" d="M136.85973 323.69287C136.85973 325.62585 135.29272 327.19287 133.35973 327.19287C131.42673 327.19287 129.85973 325.62585 129.85973 323.69287C129.85973 321.7599 131.42673 320.19287 133.35973 320.19287C135.29272 320.19287 136.85973 321.7599 136.85973 323.69287Z" fill-rule="nonzero"/><path fill="#a4c2f4" clip-path="url(#id_0)" d="M187.68091 302.85815C187.68091 304.79114 186.1139 306.35815 184.18091 306.35815C182.24791 306.35815 180.68091 304.79114 180.68091 302.85815C180.68091 300.92517 182.24791 299.35815 184.18091 299.35815C186.1139 299.35815 187.68091 300.92517 187.68091 302.85815Z" fill-rule="nonzero"/><path fill="#a4c2f4" clip-path="url(#id_0)" d="M248.04861 289.17972C248.04861 291.1127 246.48161 292.67972 244.54861 292.67972C242.61562 292.67972 241.04861 291.1127 241.04861 289.17972C241.04861 287.2467 242.61562 285.67972 244.54861 285.67972C246.48161 285.67972 248.04861 287.2467 248.04861 289.17972Z" fill-rule="nonzero"/><path fill="#a4c2f4" clip-path="url(#id_0)" d="M299.15057 266.94092C299.15057 268.8739 297.5836 270.44092 295.65057 270.44092C293.7176 270.44092 292.15057 268.8739 292.15057 266.94092C292.15057 265.0079 293.7176 263.44092 295.65057 263.44092C297.5836 263.44092 299.15057 265.0079 299.15057 266.94092Z" fill-rule="nonzero"/><path fill="#a4c2f4" clip-path="url(#id_0)" d="M342.10992 260.91696C342.10992 262.84995 340.54294 264.41696 338.60992 264.41696C336.67694 264.41696 335.10992 262.84995 335.10992 260.91696C335.10992 258.98395 336.67694 257.41696 338.60992 257.41696C340.54294 257.41696 342.10992 258.98395 342.10992 260.91696Z" fill-rule="nonzero"/><path fill="#a4c2f4" clip-path="url(#id_0)" d="M392.93112 237.95348C392.93112 239.88646 391.3641 241.45348 389.43112 241.45348C387.4981 241.45348 385.93112 239.88646 385.93112 237.95348C385.93112 236.02048 387.4981 234.45348 389.43112 234.45348C391.3641 234.45348 392.93112 236.02048 392.93112 237.95348Z" fill-rule="nonzero"/><path fill="#a4c2f4" clip-path="url(#id_0)" d="M444.59464 217.57167C444.59464 219.50467 443.02765 221.07167 441.09464 221.07167C439.16165 221.07167 437.59464 219.50467 437.59464 217.57167C437.59464 215.63869 439.16165 214.07167 441.09464 214.07167C443.02765 214.07167 444.59464 215.63869 444.59464 217.57167Z" fill-rule="nonzero"/><path fill="#a4c2f4" clip-path="url(#id_0)" d="M495.41583 171.59941C495.41583 173.53241 493.84882 175.09941 491.91583 175.09941C489.98285 175.09941 488.41583 173.53241 488.41583 171.59941C488.41583 169.66641 489.98285 168.09941 491.91583 168.09941C493.84882 168.09941 495.41583 169.66641 495.41583 171.59941Z" fill-rule="nonzero"/><path fill="#a4c2f4" clip-path="url(#id_0)" d="M547.07935 157.42274C547.07935 159.35574 545.5123 160.92274 543.57935 160.92274C541.64636 160.92274 540.07935 159.35574 540.07935 157.42274C540.07935 155.48975 541.64636 153.92274 543.57935 153.92274C545.5123 153.92274 547.07935 155.48975 547.07935 157.42274Z" fill-rule="nonzero"/><path fill="#dc3912" clip-path="url(#id_0)" d="M85.1962 444.1719C85.1962 446.10492 83.62919 447.6719 81.6962 447.6719C79.7632 447.6719 78.1962 446.10492 78.1962 444.1719C78.1962 442.23892 79.7632 440.6719 81.6962 440.6719C83.62919 440.6719 85.1962 442.23892 85.1962 444.1719Z" fill-rule="nonzero"/><path fill="#dc3912" clip-path="url(#id_0)" d="M111.02796 443.31134C111.02796 445.24435 109.46095 446.81134 107.52796 446.81134C105.59496 446.81134 104.02796 445.24435 104.02796 443.31134C104.02796 441.37836 105.59496 439.81134 107.52796 439.81134C109.46095 439.81134 111.02796 441.37836 111.02796 443.31134Z" fill-rule="nonzero"/><path fill="#dc3912" clip-path="url(#id_0)" d="M136.85973 442.4055C136.85973 444.33847 135.29272 445.9055 133.35973 445.9055C131.42673 445.9055 129.85973 444.33847 129.85973 442.4055C129.85973 440.4725 131.42673 438.9055 133.35973 438.9055C135.29272 438.9055 136.85973 440.4725 136.85973 442.4055Z" fill-rule="nonzero"/><path fill="#dc3912" clip-path="url(#id_0)" d="M187.68091 440.50317C187.68091 442.4362 186.1139 444.00317 184.18091 444.00317C182.24791 444.00317 180.68091 442.4362 180.68091 440.50317C180.68091 438.5702 182.24791 437.00317 184.18091 437.00317C186.1139 437.00317 187.68091 438.5702 187.68091 440.50317Z" fill-rule="nonzero"/><path fill="#dc3912" clip-path="url(#id_0)" d="M248.04861 438.465C248.04861 440.398 246.48161 441.965 244.54861 441.965C242.61562 441.965 241.04861 440.398 241.04861 438.465C241.04861 436.532 242.61562 434.965 244.54861 434.965C246.48161 434.965 248.04861 436.532 248.04861 438.465Z" fill-rule="nonzero"/><path fill="#dc3912" clip-path="url(#id_0)" d="M299.15057 435.838C299.15057 437.77103 297.5836 439.338 295.65057 439.338C293.7176 439.338 292.15057 437.77103 292.15057 435.838C292.15057 433.90503 293.7176 432.338 295.65057 432.338C297.5836 432.338 299.15057 433.90503 299.15057 435.838Z" fill-rule="nonzero"/><path fill="#dc3912" clip-path="url(#id_0)" d="M342.10992 434.56982C342.10992 436.5028 340.54294 438.06982 338.60992 438.06982C336.67694 438.06982 335.10992 436.5028 335.10992 434.56982C335.10992 432.6368 336.67694 431.06982 338.60992 431.06982C340.54294 431.06982 342.10992 432.6368 342.10992 434.56982Z" fill-rule="nonzero"/><path fill="#dc3912" clip-path="url(#id_0)" d="M392.93112 433.16574C392.93112 435.09872 391.3641 436.66574 389.43112 436.66574C387.4981 436.66574 385.93112 435.09872 385.93112 433.16574C385.93112 431.23276 387.4981 429.66574 389.43112 429.66574C391.3641 429.66574 392.93112 431.23276 392.93112 433.16574Z" fill-rule="nonzero"/><path fill="#dc3912" clip-path="url(#id_0)" d="M444.59464 432.35046C444.59464 434.28348 443.02765 435.85046 441.09464 435.85046C439.16165 435.85046 437.59464 434.28348 437.59464 432.35046C437.59464 430.41748 439.16165 428.85046 441.09464 428.85046C443.02765 428.85046 444.59464 430.41748 444.59464 432.35046Z" fill-rule="nonzero"/><path fill="#dc3912" clip-path="url(#id_0)" d="M495.41583 429.72348C495.41583 431.6565 493.84882 433.22348 491.91583 433.22348C489.98285 433.22348 488.41583 431.6565 488.41583 429.72348C488.41583 427.7905 489.98285 426.22348 491.91583 426.22348C493.84882 426.22348 495.41583 427.7905 495.41583 429.72348Z" fill-rule="nonzero"/><path fill="#dc3912" clip-path="url(#id_0)" d="M547.07935 428.72705C547.07935 430.66003 545.5123 432.22705 543.57935 432.22705C541.64636 432.22705 540.07935 430.66003 540.07935 428.72705C540.07935 426.79404 541.64636 425.22705 543.57935 425.22705C545.5123 425.22705 547.07935 426.79404 547.07935 428.72705Z" fill-rule="nonzero"/><path fill="#d9d9d9" d="M66.89375 456.22318Q66.89375 459.06693 65.90938 460.45755Q64.94063 461.84818 62.8625 461.84818Q60.815624 461.84818 59.83125 460.4888Q58.846874 459.12943 58.815624 456.44193L58.815624 454.27005Q58.815624 451.44193 59.784374 450.08255Q60.76875 448.70755 62.846874 448.70755Q64.90938 448.70755 65.87813 450.03568Q66.8625 451.34818 66.89375 454.1138L66.89375 456.22318ZM65.26875 453.9888Q65.26875 451.9263 64.675 450.9888Q64.09688 450.03568 62.846874 450.03568Q61.596874 450.03568 61.01875 450.9888Q60.45625 451.9263 60.440624 453.8638L60.440624 456.47318Q60.440624 458.5513 61.034374 459.53568Q61.64375 460.52005 62.8625 460.52005Q64.06563 460.52005 64.64375 459.59818Q65.2375 458.66068 65.26875 456.66068L65.26875 453.9888Z" fill-rule="nonzero"/><path fill="#d9d9d9" d="M37.253124 371.09055L28.8625 371.09055L28.8625 369.91867L33.3 364.9968Q34.284374 363.88742 34.64375 363.1843Q35.01875 362.48117 35.01875 361.73117Q35.01875 360.73117 34.409374 360.09055Q33.815624 359.44992 32.8 359.44992Q31.58125 359.44992 30.909374 360.15305Q30.2375 360.84055 30.2375 362.0593L28.6125 362.0593Q28.6125 360.29367 29.753124 359.21555Q30.89375 358.1218 32.8 358.1218Q34.58125 358.1218 35.6125 359.0593Q36.659374 359.9968 36.659374 361.54367Q36.659374 363.4343 34.253124 366.04367L30.83125 369.76242L37.253124 369.76242L37.253124 371.09055ZM46.89375 365.63742Q46.89375 368.48117 45.909374 369.8718Q44.940624 371.26242 42.8625 371.26242Q40.815624 371.26242 39.83125 369.90305Q38.846874 368.54367 38.815624 365.85617L38.815624 363.6843Q38.815624 360.85617 39.784374 359.4968Q40.76875 358.1218 42.846874 358.1218Q44.909374 358.1218 45.878124 359.44992Q46.8625 360.76242 46.89375 363.52805L46.89375 365.63742ZM45.26875 363.40305Q45.26875 361.34055 44.675 360.40305Q44.096874 359.44992 42.846874 359.44992Q41.596874 359.44992 41.01875 360.40305Q40.45625 361.34055 40.440624 363.27805L40.440624 365.88742Q40.440624 367.96555 41.034374 368.94992Q41.64375 369.9343 42.8625 369.9343Q44.065624 369.9343 44.64375 369.01242Q45.2375 368.07492 45.26875 366.07492L45.26875 363.40305ZM56.89375 365.63742Q56.89375 368.48117 55.909374 369.8718Q54.940624 371.26242 52.8625 371.26242Q50.815624 371.26242 49.83125 369.90305Q48.846874 368.54367 48.815624 365.85617L48.815624 363.6843Q48.815624 360.85617 49.784374 359.4968Q50.76875 358.1218 52.846874 358.1218Q54.909374 358.1218 55.878124 359.44992Q56.8625 360.76242 56.89375 363.52805L56.89375 365.63742ZM55.26875 363.40305Q55.26875 361.34055 54.675 360.40305Q54.096874 359.44992 52.846874 359.44992Q51.596874 359.44992 51.01875 360.40305Q50.45625 361.34055 50.440624 363.27805L50.440624 365.88742Q50.440624 367.96555 51.034374 368.94992Q51.64375 369.9343 52.8625 369.9343Q54.065624 369.9343 54.64375 369.01242Q55.2375 368.07492 55.26875 366.07492L55.26875 363.40305ZM66.89375 365.63742Q66.89375 368.48117 65.90938 369.8718Q64.94063 371.26242 62.8625 371.26242Q60.815624 371.26242 59.83125 369.90305Q58.846874 368.54367 58.815624 365.85617L58.815624 363.6843Q58.815624 360.85617 59.784374 359.4968Q60.76875 358.1218 62.846874 358.1218Q64.90938 358.1218 65.87813 359.44992Q66.8625 360.76242 66.89375 363.52805L66.89375 365.63742ZM65.26875 363.40305Q65.26875 361.34055 64.675 360.40305Q64.09688 359.44992 62.846874 359.44992Q61.596874 359.44992 61.01875 360.40305Q60.45625 361.34055 60.440624 363.27805L60.440624 365.88742Q60.440624 367.96555 61.034374 368.94992Q61.64375 369.9343 62.8625 369.9343Q64.06563 369.9343 64.64375 369.01242Q65.2375 368.07492 65.26875 366.07492L65.26875 363.40305Z" fill-rule="nonzero"/><path fill="#d9d9d9" d="M35.721874 276.20795L37.503124 276.20795L37.503124 277.53607L35.721874 277.53607L35.721874 280.50482L34.096874 280.50482L34.096874 277.53607L28.26875 277.53607L28.26875 276.58295L34.003124 267.70795L35.721874 267.70795L35.721874 276.20795ZM30.1125 276.20795L34.096874 276.20795L34.096874 269.9267L33.89375 270.28607L30.1125 276.20795ZM46.89375 275.0517Q46.89375 277.89545 45.909374 279.28607Q44.940624 280.6767 42.8625 280.6767Q40.815624 280.6767 39.83125 279.31732Q38.846874 277.95795 38.815624 275.27045L38.815624 273.09857Q38.815624 270.27045 39.784374 268.91107Q40.76875 267.53607 42.846874 267.53607Q44.909374 267.53607 45.878124 268.8642Q46.8625 270.1767 46.89375 272.94232L46.89375 275.0517ZM45.26875 272.81732Q45.26875 270.75482 44.675 269.81732Q44.096874 268.8642 42.846874 268.8642Q41.596874 268.8642 41.01875 269.81732Q40.45625 270.75482 40.440624 272.69232L40.440624 275.3017Q40.440624 277.37982 41.034374 278.3642Q41.64375 279.34857 42.8625 279.34857Q44.065624 279.34857 44.64375 278.4267Q45.2375 277.4892 45.26875 275.4892L45.26875 272.81732ZM56.89375 275.0517Q56.89375 277.89545 55.909374 279.28607Q54.940624 280.6767 52.8625 280.6767Q50.815624 280.6767 49.83125 279.31732Q48.846874 277.95795 48.815624 275.27045L48.815624 273.09857Q48.815624 270.27045 49.784374 268.91107Q50.76875 267.53607 52.846874 267.53607Q54.909374 267.53607 55.878124 268.8642Q56.8625 270.1767 56.89375 272.94232L56.89375 275.0517ZM55.26875 272.81732Q55.26875 270.75482 54.675 269.81732Q54.096874 268.8642 52.846874 268.8642Q51.596874 268.8642 51.01875 269.81732Q50.45625 270.75482 50.440624 272.69232L50.440624 275.3017Q50.440624 277.37982 51.034374 278.3642Q51.64375 279.34857 52.8625 279.34857Q54.065624 279.34857 54.64375 278.4267Q55.2375 277.4892 55.26875 275.4892L55.26875 272.81732ZM66.89375 275.0517Q66.89375 277.89545 65.90938 279.28607Q64.94063 280.6767 62.8625 280.6767Q60.815624 280.6767 59.83125 279.31732Q58.846874 277.95795 58.815624 275.27045L58.815624 273.09857Q58.815624 270.27045 59.784374 268.91107Q60.76875 267.53607 62.846874 267.53607Q64.90938 267.53607 65.87813 268.8642Q66.8625 270.1767 66.89375 272.94232L66.89375 275.0517ZM65.26875 272.81732Q65.26875 270.75482 64.675 269.81732Q64.09688 268.8642 62.846874 268.8642Q61.596874 268.8642 61.01875 269.81732Q60.45625 270.75482 60.440624 272.69232L60.440624 275.3017Q60.440624 277.37982 61.034374 278.3642Q61.64375 279.34857 62.8625 279.34857Q64.06563 279.34857 64.64375 278.4267Q65.2375 277.4892 65.26875 275.4892L65.26875 272.81732Z" fill-rule="nonzero"/><path fill="#d9d9d9" d="M35.2375 177.10657L35.2375 178.4972L34.940624 178.4972Q33.05 178.52844 31.925 179.6222Q30.8 180.70032 30.628124 182.6847Q31.628124 181.52844 33.378124 181.52844Q35.05 181.52844 36.05 182.71594Q37.05 183.88782 37.05 185.7472Q37.05 187.71594 35.971874 188.90344Q34.89375 190.09094 33.08125 190.09094Q31.253124 190.09094 30.096874 188.6847Q28.95625 187.27844 28.95625 185.04407L28.95625 184.41907Q28.95625 180.88782 30.45625 179.02844Q31.971874 177.15344 34.95625 177.10657L35.2375 177.10657ZM33.1125 182.8722Q32.26875 182.8722 31.565624 183.38782Q30.8625 183.88782 30.596874 184.63782L30.596874 185.23157Q30.596874 186.8097 31.3 187.77844Q32.01875 188.7472 33.08125 188.7472Q34.175 188.7472 34.8 187.95032Q35.440624 187.13782 35.440624 185.82532Q35.440624 184.4972 34.8 183.6847Q34.159374 182.8722 33.1125 182.8722ZM46.89375 184.46594Q46.89375 187.3097 45.909374 188.70032Q44.940624 190.09094 42.8625 190.09094Q40.815624 190.09094 39.83125 188.73157Q38.846874 187.3722 38.815624 184.6847L38.815624 182.51282Q38.815624 179.6847 39.784374 178.32532Q40.76875 176.95032 42.846874 176.95032Q44.909374 176.95032 45.878124 178.27844Q46.8625 179.59094 46.89375 182.35657L46.89375 184.46594ZM45.26875 182.23157Q45.26875 180.16907 44.675 179.23157Q44.096874 178.27844 42.846874 178.27844Q41.596874 178.27844 41.01875 179.23157Q40.45625 180.16907 40.440624 182.10657L40.440624 184.71594Q40.440624 186.79407 41.034374 187.77844Q41.64375 188.76282 42.8625 188.76282Q44.065624 188.76282 44.64375 187.84094Q45.2375 186.90344 45.26875 184.90344L45.26875 182.23157ZM56.89375 184.46594Q56.89375 187.3097 55.909374 188.70032Q54.940624 190.09094 52.8625 190.09094Q50.815624 190.09094 49.83125 188.73157Q48.846874 187.3722 48.815624 184.6847L48.815624 182.51282Q48.815624 179.6847 49.784374 178.32532Q50.76875 176.95032 52.846874 176.95032Q54.909374 176.95032 55.878124 178.27844Q56.8625 179.59094 56.89375 182.35657L56.89375 184.46594ZM55.26875 182.23157Q55.26875 180.16907 54.675 179.23157Q54.096874 178.27844 52.846874 178.27844Q51.596874 178.27844 51.01875 179.23157Q50.45625 180.16907 50.440624 182.10657L50.440624 184.71594Q50.440624 186.79407 51.034374 187.77844Q51.64375 188.76282 52.8625 188.76282Q54.065624 188.76282 54.64375 187.84094Q55.2375 186.90344 55.26875 184.90344L55.26875 182.23157ZM66.89375 184.46594Q66.89375 187.3097 65.90938 188.70032Q64.94063 190.09094 62.8625 190.09094Q60.815624 190.09094 59.83125 188.73157Q58.846874 187.3722 58.815624 184.6847L58.815624 182.51282Q58.815624 179.6847 59.784374 178.32532Q60.76875 176.95032 62.846874 176.95032Q64.90938 176.95032 65.87813 178.27844Q66.8625 179.59094 66.89375 182.35657L66.89375 184.46594ZM65.26875 182.23157Q65.26875 180.16907 64.675 179.23157Q64.09688 178.27844 62.846874 178.27844Q61.596874 178.27844 61.01875 179.23157Q60.45625 180.16907 60.440624 182.10657L60.440624 184.71594Q60.440624 186.79407 61.034374 187.77844Q61.64375 188.76282 62.8625 188.76282Q64.06563 188.76282 64.64375 187.84094Q65.2375 186.90344 65.26875 184.90344L65.26875 182.23157Z" fill-rule="nonzero"/><path fill="#d9d9d9" d="M36.628124 89.88021Q36.628124 90.833336 36.1125 91.583336Q35.6125 92.333336 34.753124 92.75521Q35.753124 93.177086 36.33125 94.00521Q36.925 94.833336 36.925 95.88021Q36.925 97.53646 35.8 98.520836Q34.675 99.50521 32.846874 99.50521Q31.003124 99.50521 29.89375 98.520836Q28.784374 97.53646 28.784374 95.88021Q28.784374 94.84896 29.346874 94.020836Q29.925 93.177086 30.925 92.739586Q30.065624 92.31771 29.565624 91.56771Q29.08125 90.81771 29.08125 89.88021Q29.08125 88.25521 30.1125 87.31771Q31.159374 86.364586 32.846874 86.364586Q34.534374 86.364586 35.58125 87.31771Q36.628124 88.25521 36.628124 89.88021ZM35.3 95.84896Q35.3 94.770836 34.6125 94.09896Q33.940624 93.41146 32.83125 93.41146Q31.7375 93.41146 31.065624 94.083336Q30.409374 94.75521 30.409374 95.84896Q30.409374 96.927086 31.05 97.552086Q31.70625 98.177086 32.846874 98.177086Q34.003124 98.177086 34.64375 97.552086Q35.3 96.927086 35.3 95.84896ZM32.846874 87.69271Q31.89375 87.69271 31.3 88.28646Q30.70625 88.88021 30.70625 89.895836Q30.70625 90.88021 31.284374 91.489586Q31.878124 92.083336 32.846874 92.083336Q33.83125 92.083336 34.409374 91.489586Q35.003124 90.88021 35.003124 89.91146Q35.003124 88.927086 34.39375 88.31771Q33.784374 87.69271 32.846874 87.69271ZM46.89375 93.88021Q46.89375 96.72396 45.909374 98.114586Q44.940624 99.50521 42.8625 99.50521Q40.815624 99.50521 39.83125 98.145836Q38.846874 96.78646 38.815624 94.09896L38.815624 91.927086Q38.815624 89.09896 39.784374 87.739586Q40.76875 86.364586 42.846874 86.364586Q44.909374 86.364586 45.878124 87.69271Q46.8625 89.00521 46.89375 91.770836L46.89375 93.88021ZM45.26875 91.645836Q45.26875 89.583336 44.675 88.645836Q44.096874 87.69271 42.846874 87.69271Q41.596874 87.69271 41.01875 88.645836Q40.45625 89.583336 40.440624 91.520836L40.440624 94.13021Q40.440624 96.208336 41.034374 97.19271Q41.64375 98.177086 42.8625 98.177086Q44.065624 98.177086 44.64375 97.25521Q45.2375 96.31771 45.26875 94.31771L45.26875 91.645836ZM56.89375 93.88021Q56.89375 96.72396 55.909374 98.114586Q54.940624 99.50521 52.8625 99.50521Q50.815624 99.50521 49.83125 98.145836Q48.846874 96.78646 48.815624 94.09896L48.815624 91.927086Q48.815624 89.09896 49.784374 87.739586Q50.76875 86.364586 52.846874 86.364586Q54.909374 86.364586 55.878124 87.69271Q56.8625 89.00521 56.89375 91.770836L56.89375 93.88021ZM55.26875 91.645836Q55.26875 89.583336 54.675 88.645836Q54.096874 87.69271 52.846874 87.69271Q51.596874 87.69271 51.01875 88.645836Q50.45625 89.583336 50.440624 91.520836L50.440624 94.13021Q50.440624 96.208336 51.034374 97.19271Q51.64375 98.177086 52.8625 98.177086Q54.065624 98.177086 54.64375 97.25521Q55.2375 96.31771 55.26875 94.31771L55.26875 91.645836ZM66.89375 93.88021Q66.89375 96.72396 65.90938 98.114586Q64.94063 99.50521 62.8625 99.50521Q60.815624 99.50521 59.83125 98.145836Q58.846874 96.78646 58.815624 94.09896L58.815624 91.927086Q58.815624 89.09896 59.784374 87.739586Q60.76875 86.364586 62.846874 86.364586Q64.90938 86.364586 65.87813 87.69271Q66.8625 89.00521 66.89375 91.770836L66.89375 93.88021ZM65.26875 91.645836Q65.26875 89.583336 64.675 88.645836Q64.09688 87.69271 62.846874 87.69271Q61.596874 87.69271 61.01875 88.645836Q60.45625 89.583336 60.440624 91.520836L60.440624 94.13021Q60.440624 96.208336 61.034374 97.19271Q61.64375 98.177086 62.8625 98.177086Q64.06563 98.177086 64.64375 97.25521Q65.2375 96.31771 65.26875 94.31771L65.26875 91.645836Z" fill-rule="nonzero"/><path fill="#d9d9d9" d="M115.282425 523.0133L111.087105 530.27985L110.072235 529.6939L108.02852 523.38995Q107.55996 521.9828 107.13072 521.32Q106.7093 520.6437 106.059784 520.2687Q105.193756 519.7687 104.33427 519.9761Q103.4826 520.17 102.974785 521.04956Q102.36541 522.10504 102.63839 523.03845Q102.89785 523.96405 103.953316 524.5734L103.140816 525.9807Q101.61174 525.0979 101.24837 523.57104Q100.87147 522.0364 101.82459 520.3855Q102.71522 518.8429 104.04275 518.4185Q105.37808 517.98065 106.71771 518.7541Q108.35504 519.6994 109.411705 523.08795L110.921295 527.91077L114.13223 522.34924L115.282425 523.0133ZM115.380196 511.93774Q117.84295 513.3596 118.555084 514.9074Q119.275024 516.4417 118.23596 518.2414Q117.212524 520.01404 115.54308 520.1869Q113.87364 520.3597 111.53057 519.04297L109.64967 517.95703Q107.20045 516.54297 106.50757 515.02435Q105.80897 513.4843 106.84803 511.68463Q107.87928 509.89847 109.51385 509.72354Q111.14269 509.5273 113.55342 510.88306L115.380196 511.93774ZM112.63267 512.22784Q110.84649 511.1966 109.73772 511.24207Q108.62322 511.26617 107.99822 512.3487Q107.37322 513.4312 107.90959 514.40845Q108.44024 515.3643 110.11035 516.3466L112.37014 517.6513Q114.169846 518.69037 115.319214 518.66833Q116.476395 518.6328 117.08577 517.57733Q117.68733 516.5354 117.17803 515.5738Q116.663 514.5909 114.94658 513.5638L112.63267 512.22784ZM123.75899 508.3315L122.938675 509.75232L113.547714 504.33044L112.95683 507.76013L111.68486 507.02576L112.497444 502.11832L112.622444 501.90182L123.75899 508.3315ZM120.900604 500.4386L115.70782 496.68277L118.981255 491.01303L120.2803 491.76303L117.69436 496.242L120.5166 498.32248Q120.51174 497.23715 121.113304 496.1952Q121.988304 494.67966 123.49746 494.37823Q125.01443 494.06326 126.71941 495.04764Q128.43793 496.03983 128.8945 497.5303Q129.33752 499.01294 128.37659 500.67734Q127.525024 502.15228 126.174065 502.61722Q124.83091 503.06863 123.32625 502.36227L124.09187 501.03616Q125.11721 501.44772 125.91685 501.1877Q126.71077 500.90637 127.226395 500.01328Q127.79671 499.02545 127.45397 498.08786Q127.0977 497.14243 125.92045 496.46274Q124.81085 495.8221 123.78271 496.0404Q122.762375 496.24518 122.18425 497.24652Q121.653 498.1667 121.754265 498.92877L121.84674 499.48737L120.900604 500.4386ZM132.28433 495.7527L131.5812 496.97052L122.22344 485.3974L122.918755 484.19308L132.28433 495.7527ZM133.88019 479.8948Q136.34296 481.31668 137.05508 482.8645Q137.77502 484.39877 136.73596 486.1985Q135.71252 487.97113 134.04308 488.14392Q132.37364 488.31674 130.03058 487.00003L128.14967 485.9141Q125.70045 484.50003 125.00757 482.98138Q124.30897 481.4414 125.34803 479.6417Q126.37928 477.8555 128.01385 477.6806Q129.6427 477.48438 132.05342 478.84012L133.88019 479.8948ZM131.13266 480.1849Q129.3465 479.15366 128.23772 479.19913Q127.12322 479.22324 126.49822 480.30576Q125.87322 481.38828 126.40959 482.3655Q126.94024 483.3214 128.61035 484.30368L130.87013 485.60837Q132.66985 486.64743 133.81921 486.62543Q134.9764 486.58987 135.58577 485.53442Q136.18733 484.49246 135.67802 483.53085Q135.16301 482.5479 133.44658 481.52084L131.13266 480.1849ZM142.25899 476.28854L141.43867 477.70938L132.04771 472.2875L131.45683 475.7172L130.18486 474.98282L130.99744 470.07538L131.12244 469.85886L142.25899 476.28854Z" fill-rule="nonzero"/><path fill="#d9d9d9" d="M217.76714 523.01337L213.57182 530.27985L212.55695 529.6939L210.51323 523.38995Q210.04468 521.9828 209.61543 521.32Q209.19402 520.6437 208.5445 520.2687Q207.67847 519.7687 206.81898 519.9761Q205.96732 520.17 205.4595 521.04956Q204.85013 522.10504 205.12311 523.03845Q205.38257 523.96405 206.43803 524.5734L205.62553 525.9807Q204.09645 525.0979 203.7331 523.57104Q203.35619 522.0363 204.30931 520.3855Q205.19994 518.8429 206.52745 518.4185Q207.8628 517.98065 209.20242 518.7541Q210.83975 519.6994 211.89641 523.08795L213.406 527.91077L216.61694 522.3493L217.76714 523.01337ZM217.8649 511.93774Q220.32767 513.3596 221.0398 514.9074Q221.75974 516.4417 220.72067 518.2414Q219.69724 520.01404 218.0278 520.1869Q216.35835 520.3597 214.01529 519.04297L212.13438 517.95703Q209.68517 516.54297 208.99228 515.02435Q208.29369 513.4843 209.33275 511.68463Q210.364 509.89847 211.99857 509.72357Q213.62741 509.5273 216.03813 510.88306L217.8649 511.93774ZM215.11739 512.22784Q213.3312 511.1966 212.22243 511.24207Q211.10794 511.26617 210.48294 512.3487Q209.85794 513.4312 210.3943 514.40845Q210.92496 515.3644 212.59506 516.3466L214.85484 517.6513Q216.65456 518.69037 217.80392 518.6684Q218.9611 518.6328 219.57048 517.57733Q220.17204 516.5354 219.66273 515.5738Q219.14772 514.5909 217.43129 513.5638L215.11739 512.22784ZM226.2437 508.3315L225.42339 509.75232L216.03242 504.33044L215.44154 507.76013L214.16957 507.02576L214.98215 502.11832L215.10715 501.90182L226.2437 508.3315ZM220.66338 492.37192L221.86769 493.06723L221.71925 493.3243Q220.80101 494.97726 221.18571 496.49844Q221.5569 498.01178 223.18948 499.1528Q222.68814 497.70865 223.56314 496.1931Q224.39908 494.74524 225.92749 494.47296Q227.44235 494.19287 229.05263 495.12256Q230.75761 496.10693 231.24695 497.63437Q231.7363 499.1618 230.83005 500.73148Q229.91599 502.31467 228.12001 502.61288Q226.33185 502.89758 224.39682 501.7804L223.85556 501.4679Q220.79741 499.70227 219.93715 497.47354Q219.07115 495.22345 220.52275 492.61548L220.66338 492.37192ZM224.59406 497.09503Q224.17218 497.82574 224.26717 498.69247Q224.3486 499.5514 224.86531 500.15643L225.37952 500.4533Q226.74622 501.24237 227.93674 501.11783Q229.13507 500.97974 229.66632 500.0596Q230.2132 499.11237 229.83559 498.17267Q229.45226 497.2116 228.3156 496.55536Q227.1654 495.8913 226.14145 496.03986Q225.1175 496.18842 224.59406 497.09503ZM234.76904 495.7527L234.06592 496.97052L224.70816 485.3974L225.40347 484.19308L234.76904 495.7527ZM236.3649 479.8948Q238.82767 481.31668 239.5398 482.8645Q240.25974 484.39877 239.22067 486.1985Q238.19724 487.97113 236.5278 488.14392Q234.85835 488.31674 232.51529 487.00006L230.63438 485.91412Q228.18517 484.50006 227.49228 482.98138Q226.79369 481.4414 227.83275 479.6417Q228.864 477.85553 230.49857 477.6806Q232.12741 477.48438 234.53813 478.84012L236.3649 479.8948ZM233.61739 480.1849Q231.8312 479.15366 230.72243 479.19913Q229.60794 479.22324 228.98294 480.30576Q228.35794 481.38828 228.8943 482.3655Q229.42496 483.3214 231.09506 484.30368L233.35484 485.60837Q235.15456 486.64743 236.30392 486.62543Q237.4611 486.58987 238.07048 485.53442Q238.67204 484.49246 238.16273 483.53085Q237.64772 482.5479 235.93129 481.52084L233.61739 480.1849ZM244.7437 476.28857L243.92339 477.70938L234.53242 472.2875L233.94154 475.7172L232.66957 474.98282L233.48215 470.07538L233.60715 469.8589L244.7437 476.28857Z" fill-rule="nonzero"/><path fill="#d9d9d9" d="M320.53262 523.0133L316.3373 530.27985L315.32245 529.6939L313.27872 523.38995Q312.81018 521.9828 312.38092 521.32Q311.9595 520.6437 311.31 520.2687Q310.44397 519.7687 309.58447 519.9761Q308.73282 520.17 308.225 521.04956Q307.61563 522.105 307.8886 523.03845Q308.14807 523.96405 309.20352 524.5734L308.39102 525.9807Q306.86197 525.0979 306.4986 523.57104Q306.12167 522.0363 307.0748 520.3855Q307.96542 518.8429 309.29297 518.4185Q310.6283 517.98065 311.96793 518.7541Q313.60526 519.6994 314.66193 523.08795L316.1715 527.91077L319.38245 522.34924L320.53262 523.0133ZM320.6304 511.93774Q323.09317 513.3596 323.8053 514.9074Q324.52524 516.4417 323.48618 518.2414Q322.46274 520.01404 320.7933 520.1869Q319.12384 520.3597 316.7808 519.04297L314.89987 517.95703Q312.45065 516.54297 311.75778 515.02435Q311.05917 513.4843 312.09824 511.68463Q313.1295 509.89844 314.76407 509.72354Q316.3929 509.5273 318.80362 510.88306L320.6304 511.93774ZM317.88287 512.22784Q316.0967 511.1966 314.9879 511.24203Q313.87344 511.26614 313.24844 512.3487Q312.62344 513.4312 313.1598 514.40845Q313.69046 515.3643 315.36057 516.3466L317.62036 517.6513Q319.42004 518.69037 320.56943 518.66833Q321.7266 518.6328 322.33597 517.57733Q322.93753 516.5354 322.42825 515.5738Q321.9132 514.5908 320.19678 513.5638L317.88287 512.22784ZM329.0092 508.33148L328.18887 509.75232L318.7979 504.33044L318.20706 507.76013L316.93506 507.02576L317.74765 502.11832L317.87265 501.9018L329.0092 508.33148ZM325.17255 491.1955L332.8217 501.72806L331.97012 503.203L324.67853 492.89493L321.20978 498.90298L320.0596 498.23892L324.38773 490.74237L325.17255 491.1955ZM337.53455 495.7527L336.83142 496.97052L327.47366 485.39737L328.16898 484.19305L337.53455 495.7527ZM339.1304 479.8948Q341.59317 481.31668 342.3053 482.86447Q343.02524 484.39877 341.98618 486.19846Q340.96274 487.9711 339.2933 488.14392Q337.62384 488.3167 335.2808 487.00003L333.39987 485.9141Q330.95065 484.50003 330.25778 482.98138Q329.55917 481.4414 330.59824 479.6417Q331.6295 477.8555 333.26407 477.6806Q334.8929 477.48438 337.30362 478.84012L339.1304 479.8948ZM336.38287 480.1849Q334.5967 479.15366 333.4879 479.1991Q332.37344 479.2232 331.74844 480.30576Q331.12344 481.38828 331.6598 482.3655Q332.19046 483.3214 333.86057 484.30368L336.12036 485.60837Q337.92004 486.64743 339.06943 486.62543Q340.2266 486.58987 340.83597 485.5344Q341.43753 484.49246 340.92825 483.53085Q340.4132 482.5479 338.69678 481.52084L336.38287 480.1849ZM347.5092 476.28854L346.68887 477.70938L337.2979 472.2875L336.70706 475.7172L335.43506 474.98282L336.24765 470.07538L336.37265 469.85886L347.5092 476.28854Z" fill-rule="nonzero"/><path fill="#d9d9d9" d="M423.01733 523.0133L418.82202 530.27985L417.80716 529.6939L415.76346 523.38995Q415.2949 521.9828 414.86566 521.32Q414.4442 520.6437 413.7947 520.2687Q412.92868 519.7687 412.06918 519.9761Q411.21753 520.17 410.70972 521.04956Q410.10034 522.105 410.37332 523.03845Q410.63278 523.96405 411.68823 524.5734L410.87573 525.9807Q409.34668 525.0979 408.9833 523.57104Q408.60638 522.0363 409.5595 520.3855Q410.45013 518.8429 411.77768 518.4185Q413.113 517.98065 414.45264 518.7541Q416.08997 519.6994 417.14664 523.08795L418.65622 527.91077L421.86716 522.34924L423.01733 523.0133ZM423.1151 511.93774Q425.57788 513.3596 426.29 514.9074Q427.00995 516.4417 425.9709 518.2414Q424.94745 520.01404 423.278 520.1869Q421.60855 520.3597 419.2655 519.04297L417.38458 517.95703Q414.93536 516.54297 414.2425 515.02435Q413.54388 513.4843 414.58295 511.68463Q415.6142 509.89844 417.24878 509.72354Q418.87762 509.5273 421.28833 510.88306L423.1151 511.93774ZM420.36758 512.22784Q418.58142 511.1966 417.47263 511.24207Q416.35815 511.26617 415.73315 512.3487Q415.10815 513.4312 415.6445 514.40845Q416.17517 515.3643 417.84528 516.3466L420.10507 517.6513Q421.90475 518.69037 423.05414 518.66833Q424.21133 518.6328 424.8207 517.57733Q425.42227 516.5354 424.91296 515.5738Q424.39792 514.5908 422.6815 513.5638L420.36758 512.22784ZM431.4939 508.3315L430.67358 509.75232L421.28262 504.33044L420.69177 507.76013L419.4198 507.02576L420.23236 502.11832L420.35736 501.90182L431.4939 508.3315ZM429.5182 492.8473Q430.34363 493.32385 430.73535 494.1454Q431.13486 494.9534 431.07053 495.90857Q431.93588 495.25348 432.9421 495.16687Q433.95618 495.06674 434.8628 495.59018Q436.29715 496.4183 436.58713 497.88477Q436.87714 499.35123 435.96307 500.93445Q435.0412 502.53116 433.634 502.99973Q432.22684 503.4683 430.79248 502.64017Q429.89938 502.12454 429.46347 501.22333Q429.02182 500.30078 429.14294 499.216Q428.3479 499.74933 427.44836 499.80734Q426.55667 499.8518 425.74475 499.38306Q424.33746 498.57056 424.0412 497.2087Q423.7392 495.82553 424.58295 494.36414Q425.4267 492.9027 426.77557 492.47266Q428.1109 492.0348 429.5182 492.8473ZM434.02322 496.98184Q433.08954 496.44278 432.16394 496.70224Q431.2326 496.94034 430.67792 497.9011Q430.13104 498.8483 430.37695 499.7661Q430.6307 500.67038 431.5779 501.21725Q432.5116 501.75632 433.37317 501.514Q434.24258 501.25818 434.8129 500.2704Q435.39102 499.26904 435.17004 498.40173Q434.9569 497.5209 434.02322 496.98184ZM425.73315 495.0282Q425.2566 495.8536 425.4739 496.6647Q425.69125 497.47577 426.5708 497.98358Q427.42328 498.47577 428.24008 498.2798Q429.05118 498.06247 429.53555 497.2235Q430.02774 496.371 429.80258 495.57346Q429.57172 494.75458 428.73276 494.2702Q427.88028 493.778 427.04785 494.00104Q426.2019 494.21628 425.73315 495.0282ZM440.01926 495.7527L439.31613 496.97052L429.95837 485.3974L430.6537 484.19308L440.01926 495.7527ZM441.6151 479.8948Q444.07788 481.31668 444.79 482.8645Q445.50995 484.39877 444.4709 486.19846Q443.44745 487.97113 441.778 488.14392Q440.10855 488.31674 437.7655 487.00003L435.88458 485.9141Q433.43536 484.50003 432.7425 482.98138Q432.04388 481.4414 433.08295 479.6417Q434.1142 477.8555 435.74878 477.6806Q437.37762 477.48438 439.78833 478.84012L441.6151 479.8948ZM438.86758 480.1849Q437.08142 479.15366 435.97263 479.1991Q434.85815 479.2232 434.23315 480.30576Q433.60815 481.38828 434.1445 482.3655Q434.67517 483.3214 436.34528 484.30368L438.60507 485.60837Q440.40475 486.64743 441.55414 486.62543Q442.71133 486.58987 443.3207 485.5344Q443.92227 484.49246 443.41296 483.53085Q442.89792 482.5479 441.1815 481.52084L438.86758 480.1849ZM449.9939 476.28854L449.17358 477.70938L439.78262 472.2875L439.19177 475.7172L437.9198 474.98282L438.73236 470.07538L438.85736 469.85886L449.9939 476.28854Z" fill-rule="nonzero"/><path fill="#d9d9d9" d="M525.5021 523.01337L521.30676 530.27985L520.2919 529.6939L518.24817 523.38995Q517.7796 521.9828 517.35034 521.32Q516.92896 520.6437 516.2794 520.2687Q515.4134 519.7687 514.5539 519.9761Q513.7022 520.17 513.1944 521.04956Q512.585 522.10504 512.85803 523.03845Q513.1175 523.96405 514.173 524.5734L513.3605 525.9807Q511.8314 525.0979 511.46802 523.57104Q511.0911 522.0363 512.04425 520.3855Q512.9349 518.8429 514.2624 518.4185Q515.5977 517.98065 516.9374 518.7541Q518.5747 519.6994 519.63135 523.08795L521.1409 527.91077L524.35187 522.3493L525.5021 523.01337ZM525.59985 511.93774Q528.06256 513.3596 528.7747 514.9074Q529.4946 516.4417 528.45557 518.2414Q527.4321 520.01404 525.7627 520.1869Q524.09326 520.3597 521.7502 519.04297L519.8693 517.95703Q517.4201 516.54297 516.72723 515.02435Q516.0286 513.4843 517.0677 511.68463Q518.09894 509.89847 519.73346 509.72354Q521.3623 509.5273 523.7731 510.88306L525.59985 511.93774ZM522.8523 512.22784Q521.0661 511.1966 519.95734 511.24207Q518.84283 511.26617 518.21783 512.3487Q517.59283 513.4312 518.1292 514.40845Q518.65985 515.3644 520.33 516.3466L522.5898 517.6513Q524.38947 518.69037 525.5389 518.6684Q526.69604 518.6328 527.3054 517.57733Q527.907 516.5354 527.39764 515.5738Q526.8826 514.5909 525.1662 513.5638L522.8523 512.22784ZM533.97864 508.3315L533.1583 509.75232L523.76733 504.33044L523.17645 507.76013L521.9045 507.02576L522.7171 502.11832L522.8421 501.90182L533.97864 508.3315ZM534.55255 496.08743Q534.82245 496.83868 534.79565 497.6351Q534.7553 498.4237 534.33344 499.15442Q533.77875 500.11517 532.8911 500.5589Q532.0112 500.9891 530.9322 500.88934Q529.85315 500.78958 528.81116 500.18802Q527.7016 499.5474 527.0507 498.61227Q526.4076 497.66364 526.3928 496.6267Q526.36456 495.58197 526.9661 494.54004Q527.91144 492.9027 529.6897 492.66644Q531.4622 492.4088 533.5867 493.63538L534.00616 493.87756Q537.24023 495.74475 537.9865 497.88962Q538.7406 500.02097 537.289 502.62897L537.13275 502.8996L535.942 502.2121L536.1139 501.9144Q537.0868 500.16672 536.74634 498.72522Q536.41364 497.2702 534.55255 496.08743ZM533.30255 498.2525Q533.7088 497.54886 533.6195 496.70346Q533.5303 495.85806 533.05054 495.22025L532.4822 494.89212Q531.102 494.09525 529.8922 494.19064Q528.6689 494.27823 528.13763 495.19836Q527.5986 496.13205 527.9876 497.11444Q528.3845 498.0833 529.5482 498.7552Q530.6713 499.40363 531.7281 499.29205Q532.7713 499.17267 533.30255 498.2525ZM542.50397 495.7527L541.80084 496.97052L532.44305 485.3974L533.13837 484.19308L542.50397 495.7527ZM544.09985 479.8948Q546.56256 481.31668 547.2747 482.8645Q547.9946 484.39877 546.95557 486.1985Q545.9321 487.97113 544.2627 488.14392Q542.59326 488.31674 540.2502 487.00003L538.3693 485.9141Q535.9201 484.50003 535.22723 482.98138Q534.5286 481.4414 535.5677 479.6417Q536.59894 477.85553 538.23346 477.6806Q539.8623 477.48438 542.2731 478.84012L544.09985 479.8948ZM541.3523 480.1849Q539.5661 479.15366 538.45734 479.19913Q537.34283 479.22324 536.71783 480.30576Q536.09283 481.38828 536.6292 482.3655Q537.15985 483.3214 538.83 484.30368L541.0898 485.60837Q542.88947 486.64743 544.0389 486.62543Q545.19604 486.58987 545.8054 485.53442Q546.407 484.49246 545.89764 483.53085Q545.3826 482.5479 543.6662 481.52084L541.3523 480.1849ZM552.47864 476.28857L551.6583 477.70938L542.26733 472.2875L541.67645 475.7172L540.4045 474.98282L541.2171 470.07538L541.3421 469.8589L552.47864 476.28857Z" fill-rule="nonzero"/><path fill="#a4c2f4" d="M590.2 94.333336C590.2 97.64704 587.51373 100.333336 584.2 100.333336C580.8863 100.333336 578.2 97.64704 578.2 94.333336C578.2 91.01962 580.8863 88.333336 584.2 88.333336C587.51373 88.333336 590.2 91.01962 590.2 94.333336Z" fill-rule="nonzero"/><path fill="#d9d9d9" d="M604.5594 98.84896L608.6219 87.114586L610.66876 87.114586L605.40314 101.333336L603.73126 101.333336L598.48126 87.114586L600.5125 87.114586L604.5594 98.84896ZM619.09064 101.333336Q618.9344 101.020836 618.84064 100.22396Q617.575 101.53646 615.825 101.53646Q614.2625 101.53646 613.2625 100.645836Q612.2625 99.75521 612.2625 98.395836Q612.2625 96.75521 613.5125 95.84896Q614.77814 94.927086 617.04376 94.927086L618.8094 94.927086L618.8094 94.09896Q618.8094 93.145836 618.23126 92.583336Q617.66876 92.020836 616.575 92.020836Q615.60626 92.020836 614.95 92.520836Q614.29376 93.00521 614.29376 93.69271L612.48126 93.69271Q612.48126 92.91146 613.04376 92.177086Q613.60626 91.427086 614.5594 91.00521Q615.52814 90.56771 616.6844 90.56771Q618.5125 90.56771 619.54376 91.489586Q620.575 92.395836 620.6219 94.00521L620.6219 98.864586Q620.6219 100.31771 620.98126 101.177086L620.98126 101.333336L619.09064 101.333336ZM616.09064 99.958336Q616.95 99.958336 617.7 99.520836Q618.46564 99.083336 618.8094 98.38021L618.8094 96.208336L617.3875 96.208336Q614.075 96.208336 614.075 98.145836Q614.075 99.00521 614.6375 99.489586Q615.2 99.958336 616.09064 99.958336ZM625.52814 101.333336L623.73126 101.333336L623.73126 86.333336L625.52814 86.333336L625.52814 101.333336ZM630.52814 101.333336L628.73126 101.333336L628.73126 90.770836L630.52814 90.770836L630.52814 101.333336ZM628.575 87.958336Q628.575 87.520836 628.84064 87.22396Q629.1219 86.91146 629.6375 86.91146Q630.16876 86.91146 630.4344 87.22396Q630.71564 87.520836 630.71564 87.958336Q630.71564 88.395836 630.4344 88.69271Q630.16876 88.989586 629.6375 88.989586Q629.1219 88.989586 628.84064 88.69271Q628.575 88.395836 628.575 87.958336ZM633.1219 95.958336Q633.1219 93.53646 634.27814 92.052086Q635.4344 90.56771 637.29376 90.56771Q639.15314 90.56771 640.23126 91.833336L640.23126 86.333336L642.04376 86.333336L642.04376 101.333336L640.3875 101.333336L640.29376 100.19271Q639.21564 101.53646 637.27814 101.53646Q635.45 101.53646 634.27814 100.03646Q633.1219 98.520836 633.1219 96.09896L633.1219 95.958336ZM634.9344 96.16146Q634.9344 97.958336 635.66876 98.97396Q636.41876 99.989586 637.73126 99.989586Q639.45 99.989586 640.23126 98.458336L640.23126 93.59896Q639.4344 92.09896 637.7469 92.09896Q636.41876 92.09896 635.66876 93.13021Q634.9344 94.16146 634.9344 96.16146ZM659.66876 88.66146L655.10626 88.66146L655.10626 101.333336L653.2469 101.333336L653.2469 88.66146L648.6844 88.66146L648.6844 87.114586L659.66876 87.114586L659.66876 88.66146ZM661.09064 95.958336Q661.09064 94.395836 661.7 93.16146Q662.3094 91.91146 663.3875 91.239586Q664.48126 90.56771 665.8875 90.56771Q668.04376 90.56771 669.3719 92.06771Q670.71564 93.552086 670.71564 96.03646L670.71564 96.16146Q670.71564 97.708336 670.1219 98.94271Q669.52814 100.16146 668.41876 100.84896Q667.325 101.53646 665.90314 101.53646Q663.7625 101.53646 662.41876 100.03646Q661.09064 98.53646 661.09064 96.083336L661.09064 95.958336ZM662.90314 96.16146Q662.90314 97.927086 663.71564 98.989586Q664.54376 100.052086 665.90314 100.052086Q667.27814 100.052086 668.09064 98.97396Q668.90314 97.895836 668.90314 95.958336Q668.90314 94.208336 668.075 93.13021Q667.2469 92.052086 665.8875 92.052086Q664.54376 92.052086 663.71564 93.114586Q662.90314 94.177086 662.90314 96.16146ZM672.09064 95.958336Q672.09064 94.395836 672.7 93.16146Q673.3094 91.91146 674.3875 91.239586Q675.48126 90.56771 676.8875 90.56771Q679.04376 90.56771 680.3719 92.06771Q681.71564 93.552086 681.71564 96.03646L681.71564 96.16146Q681.71564 97.708336 681.1219 98.94271Q680.52814 100.16146 679.41876 100.84896Q678.325 101.53646 676.90314 101.53646Q674.7625 101.53646 673.41876 100.03646Q672.09064 98.53646 672.09064 96.083336L672.09064 95.958336ZM673.90314 96.16146Q673.90314 97.927086 674.71564 98.989586Q675.54376 100.052086 676.90314 100.052086Q678.27814 100.052086 679.09064 98.97396Q679.90314 97.895836 679.90314 95.958336Q679.90314 94.208336 679.075 93.13021Q678.2469 92.052086 676.8875 92.052086Q675.54376 92.052086 674.71564 93.114586Q673.90314 94.177086 673.90314 96.16146ZM685.52814 101.333336L683.73126 101.333336L683.73126 86.333336L685.52814 86.333336L685.52814 101.333336ZM694.71564 98.53646Q694.71564 97.802086 694.16876 97.395836Q693.6219 96.989586 692.2469 96.69271Q690.8719 96.395836 690.0594 95.989586Q689.2625 95.583336 688.8719 95.020836Q688.4969 94.44271 688.4969 93.66146Q688.4969 92.364586 689.59064 91.47396Q690.6844 90.56771 692.40314 90.56771Q694.2 90.56771 695.3094 91.50521Q696.4344 92.427086 696.4344 93.864586L694.60626 93.864586Q694.60626 93.13021 693.98126 92.59896Q693.35626 92.052086 692.40314 92.052086Q691.40314 92.052086 690.84064 92.489586Q690.29376 92.91146 690.29376 93.614586Q690.29376 94.25521 690.8094 94.59896Q691.325 94.927086 692.6844 95.239586Q694.04376 95.53646 694.8719 95.958336Q695.71564 96.364586 696.1219 96.958336Q696.52814 97.552086 696.52814 98.395836Q696.52814 99.81771 695.3875 100.677086Q694.2625 101.53646 692.45 101.53646Q691.1844 101.53646 690.2 101.083336Q689.23126 100.63021 688.66876 99.833336Q688.1219 99.020836 688.1219 98.083336L689.9344 98.083336Q689.98126 98.989586 690.65314 99.520836Q691.34064 100.052086 692.45 100.052086Q693.48126 100.052086 694.09064 99.645836Q694.71564 99.22396 694.71564 98.53646Z" fill-rule="nonzero"/><path fill="#dc3912" d="M590.2 128.33333C590.2 131.64705 587.51373 134.33333 584.2 134.33333C580.8863 134.33333 578.2 131.64705 578.2 128.33333C578.2 125.01962 580.8863 122.333336 584.2 122.333336C587.51373 122.333336 590.2 125.01962 590.2 128.33333Z" fill-rule="nonzero"/><path fill="#d9d9d9" d="M609.85626 121.11458L609.85626 130.78645Q609.85626 132.78645 608.59064 134.0677Q607.34064 135.34895 605.2 135.5052L604.7 135.53645Q602.35626 135.53645 600.96564 134.27083Q599.59064 133.0052 599.575 130.80208L599.575 121.11458L601.41876 121.11458L601.41876 130.73958Q601.41876 132.28645 602.2625 133.14583Q603.1219 133.98958 604.7 133.98958Q606.29376 133.98958 607.1375 133.14583Q607.98126 132.30208 607.98126 130.7552L607.98126 121.11458L609.85626 121.11458ZM614.27814 124.77083L614.34064 126.09895Q615.54376 124.5677 617.4969 124.5677Q620.85626 124.5677 620.8719 128.34895L620.8719 135.33333L619.075 135.33333L619.075 128.33333Q619.0594 127.1927 618.54376 126.64583Q618.04376 126.09895 616.95 126.09895Q616.075 126.09895 615.40314 126.5677Q614.7469 127.03645 614.3719 127.80208L614.3719 135.33333L612.575 135.33333L612.575 124.77083L614.27814 124.77083ZM625.52814 135.33333L623.73126 135.33333L623.73126 124.77083L625.52814 124.77083L625.52814 135.33333ZM623.575 121.95833Q623.575 121.52083 623.84064 121.22395Q624.1219 120.91145 624.6375 120.91145Q625.16876 120.91145 625.4344 121.22395Q625.71564 121.52083 625.71564 121.95833Q625.71564 122.39583 625.4344 122.6927Q625.16876 122.98958 624.6375 122.98958Q624.1219 122.98958 623.84064 122.6927Q623.575 122.39583 623.575 121.95833ZM628.1219 129.95833Q628.1219 127.47395 629.2625 126.02083Q630.41876 124.5677 632.34064 124.5677Q634.21564 124.5677 635.29376 125.83333L635.3719 124.77083L637.02814 124.77083L637.02814 139.39583L635.23126 139.39583L635.23126 134.34895Q634.1375 135.53645 632.325 135.53645Q630.40314 135.53645 629.2625 134.05208Q628.1219 132.55208 628.1219 130.08333L628.1219 129.95833ZM629.9344 130.16145Q629.9344 131.98958 630.7 133.02083Q631.46564 134.05208 632.7625 134.05208Q634.3719 134.05208 635.23126 132.6302L635.23126 127.45833Q634.3719 126.05208 632.79376 126.05208Q631.48126 126.05208 630.7 127.09895Q629.9344 128.1302 629.9344 130.16145ZM646.09064 134.28645Q645.04376 135.53645 642.9969 135.53645Q641.3094 135.53645 640.41876 134.55208Q639.54376 133.5677 639.52814 131.64583L639.52814 124.77083L641.34064 124.77083L641.34064 131.59895Q641.34064 133.98958 643.29376 133.98958Q645.35626 133.98958 646.04376 132.45833L646.04376 124.77083L647.85626 124.77083L647.85626 135.33333L646.1375 135.33333L646.09064 134.28645ZM654.95 135.53645Q652.8094 135.53645 651.45 134.1302Q650.10626 132.70833 650.10626 130.34895L650.10626 130.0052Q650.10626 128.4427 650.7 127.20833Q651.3094 125.97395 652.3875 125.27083Q653.46564 124.5677 654.73126 124.5677Q656.79376 124.5677 657.9344 125.92708Q659.075 127.28645 659.075 129.8177L659.075 130.5677L651.91876 130.5677Q651.95 132.1302 652.825 133.09895Q653.7 134.05208 655.04376 134.05208Q656.0125 134.05208 656.66876 133.66145Q657.34064 133.27083 657.84064 132.6302L658.9344 133.48958Q657.60626 135.53645 654.95 135.53645ZM654.73126 126.05208Q653.6375 126.05208 652.8875 126.84895Q652.15314 127.64583 651.98126 129.08333L657.2625 129.08333L657.2625 128.9427Q657.1844 127.5677 656.5125 126.8177Q655.85626 126.05208 654.73126 126.05208ZM677.79376 128.67708Q677.79376 130.77083 677.09064 132.33333Q676.3875 133.8802 675.09064 134.70833Q673.8094 135.53645 672.09064 135.53645Q670.40314 135.53645 669.10626 134.70833Q667.8094 133.8802 667.09064 132.34895Q666.3719 130.8177 666.35626 128.80208L666.35626 127.78645Q666.35626 125.73958 667.0594 124.16145Q667.77814 122.58333 669.075 121.7552Q670.3875 120.91145 672.0594 120.91145Q673.77814 120.91145 675.075 121.73958Q676.3875 122.5677 677.09064 124.14583Q677.79376 125.70833 677.79376 127.78645L677.79376 128.67708ZM675.91876 127.77083Q675.91876 125.23958 674.90314 123.89583Q673.8875 122.53645 672.0594 122.53645Q670.29376 122.53645 669.2625 123.89583Q668.2469 125.23958 668.21564 127.6302L668.21564 128.67708Q668.21564 131.1302 669.2469 132.53645Q670.27814 133.9427 672.09064 133.9427Q673.90314 133.9427 674.8875 132.61458Q675.8875 131.28645 675.91876 128.8177L675.91876 127.77083ZM689.91876 132.84895L691.95 124.77083L693.7625 124.77083L690.6844 135.33333L689.21564 135.33333L686.65314 127.3177L684.15314 135.33333L682.6844 135.33333L679.6219 124.77083L681.41876 124.77083L683.4969 132.67708L685.96564 124.77083L687.41876 124.77083L689.91876 132.84895ZM697.27814 124.77083L697.34064 126.09895Q698.54376 124.5677 700.4969 124.5677Q703.85626 124.5677 703.8719 128.34895L703.8719 135.33333L702.075 135.33333L702.075 128.33333Q702.0594 127.1927 701.54376 126.64583Q701.04376 126.09895 699.95 126.09895Q699.075 126.09895 698.40314 126.5677Q697.7469 127.03645 697.3719 127.80208L697.3719 135.33333L695.575 135.33333L695.575 124.77083L697.27814 124.77083ZM710.95 135.53645Q708.8094 135.53645 707.45 134.1302Q706.10626 132.70833 706.10626 130.34895L706.10626 130.0052Q706.10626 128.4427 706.7 127.20833Q707.3094 125.97395 708.3875 125.27083Q709.46564 124.5677 710.73126 124.5677Q712.79376 124.5677 713.9344 125.92708Q715.075 127.28645 715.075 129.8177L715.075 130.5677L707.91876 130.5677Q707.95 132.1302 708.825 133.09895Q709.7 134.05208 711.04376 134.05208Q712.0125 134.05208 712.66876 133.66145Q713.34064 133.27083 713.84064 132.6302L714.9344 133.48958Q713.60626 135.53645 710.95 135.53645ZM710.73126 126.05208Q709.6375 126.05208 708.8875 126.84895Q708.15314 127.64583 707.98126 129.08333L713.2625 129.08333L713.2625 128.9427Q713.1844 127.5677 712.5125 126.8177Q711.85626 126.05208 710.73126 126.05208ZM722.66876 126.3802Q722.2625 126.3177 721.79376 126.3177Q720.0125 126.3177 719.3719 127.83333L719.3719 135.33333L717.575 135.33333L717.575 124.77083L719.325 124.77083L719.35626 125.98958Q720.2469 124.5677 721.8719 124.5677Q722.40314 124.5677 722.66876 124.70833L722.66876 126.3802ZM730.71564 132.53645Q730.71564 131.80208 730.16876 131.39583Q729.6219 130.98958 728.2469 130.6927Q726.8719 130.39583 726.0594 129.98958Q725.2625 129.58333 724.8719 129.02083Q724.4969 128.4427 724.4969 127.66145Q724.4969 126.36458 725.59064 125.47395Q726.6844 124.5677 728.40314 124.5677Q730.2 124.5677 731.3094 125.5052Q732.4344 126.42708 732.4344 127.86458L730.60626 127.86458Q730.60626 127.1302 729.98126 126.59895Q729.35626 126.05208 728.40314 126.05208Q727.40314 126.05208 726.84064 126.48958Q726.29376 126.91145 726.29376 127.61458Q726.29376 128.2552 726.8094 128.59895Q727.325 128.92708 728.6844 129.23958Q730.04376 129.53645 730.8719 129.95833Q731.71564 130.36458 732.1219 130.95833Q732.52814 131.55208 732.52814 132.39583Q732.52814 133.8177 731.3875 134.67708Q730.2625 135.53645 728.45 135.53645Q727.1844 135.53645 726.2 135.08333Q725.23126 134.6302 724.66876 133.83333Q724.1219 133.02083 724.1219 132.08333L725.9344 132.08333Q725.98126 132.98958 726.65314 133.52083Q727.34064 134.05208 728.45 134.05208Q729.48126 134.05208 730.09064 133.64583Q730.71564 133.22395 730.71564 132.53645Z" fill-rule="nonzero"/><path fill="#d9d9d9" d="M45.01875 36.784374L38.159374 36.784374L38.159374 55.8L35.3625 55.8L35.3625 36.784374L28.51875 36.784374L28.51875 34.471874L45.01875 34.471874L45.01875 36.784374ZM47.128124 47.721874Q47.128124 45.39375 48.05 43.534374Q48.971874 41.675 50.596874 40.675Q52.2375 39.659374 54.33125 39.659374Q57.565624 39.659374 59.565624 41.909374Q61.565624 44.14375 61.565624 47.8625L61.565624 48.05Q61.565624 50.3625 60.675 52.20625Q59.784374 54.034374 58.128124 55.065624Q56.4875 56.096874 54.3625 56.096874Q51.128124 56.096874 49.128124 53.8625Q47.128124 51.6125 47.128124 47.925L47.128124 47.721874ZM49.8625 48.05Q49.8625 50.690624 51.08125 52.284374Q52.3 53.878124 54.3625 53.878124Q56.425 53.878124 57.628124 52.26875Q58.846874 50.64375 58.846874 47.721874Q58.846874 45.128124 57.6125 43.503124Q56.378124 41.878124 54.33125 41.878124Q52.315624 41.878124 51.08125 43.4875Q49.8625 45.08125 49.8625 48.05ZM64.12813 47.721874Q64.12813 45.39375 65.05 43.534374Q65.97188 41.675 67.59688 40.675Q69.2375 39.659374 71.33125 39.659374Q74.56563 39.659374 76.56563 41.909374Q78.56563 44.14375 78.56563 47.8625L78.56563 48.05Q78.56563 50.3625 77.675 52.20625Q76.78438 54.034374 75.12813 55.065624Q73.4875 56.096874 71.3625 56.096874Q68.12813 56.096874 66.12813 53.8625Q64.12813 51.6125 64.12813 47.925L64.12813 47.721874ZM66.8625 48.05Q66.8625 50.690624 68.08125 52.284374Q69.3 53.878124 71.3625 53.878124Q73.425 53.878124 74.62813 52.26875Q75.84688 50.64375 75.84688 47.721874Q75.84688 45.128124 74.6125 43.503124Q73.37813 41.878124 71.33125 41.878124Q69.31563 41.878124 68.08125 43.4875Q66.8625 45.08125 66.8625 48.05ZM84.8 55.8L82.08125 55.8L82.08125 33.3L84.8 33.3L84.8 55.8ZM98.08125 51.596874Q98.08125 50.503124 97.25313 49.89375Q96.425 49.284374 94.3625 48.846874Q92.31563 48.409374 91.09688 47.8Q89.89375 47.175 89.31563 46.33125Q88.7375 45.471874 88.7375 44.3Q88.7375 42.346874 90.37813 41.003124Q92.03438 39.659374 94.59688 39.659374Q97.28438 39.659374 98.95625 41.05Q100.64375 42.440624 100.64375 44.6125L97.925 44.6125Q97.925 43.4875 96.97188 42.690624Q96.03438 41.878124 94.59688 41.878124Q93.1125 41.878124 92.26875 42.534374Q91.44063 43.175 91.44063 44.20625Q91.44063 45.190624 92.22188 45.690624Q93.00313 46.190624 95.01875 46.64375Q97.05 47.096874 98.31563 47.7375Q99.58125 48.3625 100.175 49.253124Q100.78438 50.128124 100.78438 51.409374Q100.78438 53.534374 99.08125 54.815624Q97.39375 56.096874 94.675 56.096874Q92.78438 56.096874 91.31563 55.425Q89.84688 54.7375 89.01875 53.534374Q88.19063 52.33125 88.19063 50.925L90.90938 50.925Q90.97188 52.284374 91.9875 53.08125Q93.01875 53.878124 94.675 53.878124Q96.22188 53.878124 97.14375 53.253124Q98.08125 52.628124 98.08125 51.596874ZM106.56563 41.8625Q108.3625 39.659374 111.25313 39.659374Q116.26875 39.659374 116.31563 45.33125L116.31563 55.8L113.6125 55.8L113.6125 45.315624Q113.59688 43.596874 112.81563 42.784374Q112.05 41.95625 110.425 41.95625Q109.1125 41.95625 108.1125 42.659374Q107.1125 43.3625 106.56563 44.503124L106.56563 55.8L103.84688 55.8L103.84688 33.3L106.56563 33.3L106.56563 41.8625ZM127.425 56.096874Q124.20625 56.096874 122.175 53.9875Q120.15938 51.8625 120.15938 48.315624L120.15938 47.815624Q120.15938 45.45625 121.06563 43.6125Q121.97188 41.753124 123.58125 40.70625Q125.20625 39.659374 127.09688 39.659374Q130.175 39.659374 131.89375 41.690624Q133.6125 43.721874 133.6125 47.51875L133.6125 48.64375L122.87813 48.64375Q122.925 50.9875 124.2375 52.440624Q125.55 53.878124 127.58125 53.878124Q129.00313 53.878124 130.00313 53.3Q131.00313 52.70625 131.75313 51.7375L133.40938 53.034374Q131.40938 56.096874 127.425 56.096874ZM127.09688 41.878124Q125.45625 41.878124 124.33125 43.08125Q123.22188 44.26875 122.95625 46.425L130.89375 46.425L130.89375 46.221874Q130.78438 44.159374 129.78438 43.01875Q128.78438 41.878124 127.09688 41.878124ZM136.19063 47.7375Q136.19063 44.096874 137.90938 41.878124Q139.64375 39.659374 142.44063 39.659374Q145.2375 39.659374 146.8625 41.565624L146.8625 33.3L149.56563 33.3L149.56563 55.8L147.08125 55.8L146.94063 54.096874Q145.31563 56.096874 142.425 56.096874Q139.65938 56.096874 137.925 53.846874Q136.19063 51.58125 136.19063 47.940624L136.19063 47.7375ZM138.90938 48.05Q138.90938 50.753124 140.01875 52.284374Q141.12813 53.8 143.09688 53.8Q145.675 53.8 146.8625 51.471874L146.8625 44.190624Q145.64375 41.95625 143.12813 41.95625Q141.12813 41.95625 140.01875 43.503124Q138.90938 45.034374 138.90938 48.05ZM167.56563 46.3Q163.94063 45.253124 162.28438 43.7375Q160.64375 42.221874 160.64375 39.9875Q160.64375 37.471874 162.65938 35.83125Q164.675 34.175 167.89375 34.175Q170.09688 34.175 171.81563 35.034374Q173.53438 35.878124 174.47188 37.378124Q175.425 38.8625 175.425 40.64375L172.59688 40.64375Q172.59688 38.70625 171.3625 37.596874Q170.14375 36.4875 167.89375 36.4875Q165.81563 36.4875 164.64375 37.409374Q163.4875 38.33125 163.4875 39.95625Q163.4875 41.253124 164.59688 42.159374Q165.70625 43.05 168.3625 43.8Q171.01875 44.55 172.51875 45.45625Q174.01875 46.346874 174.7375 47.55Q175.47188 48.753124 175.47188 50.378124Q175.47188 52.971874 173.44063 54.534374Q171.425 56.096874 168.05 56.096874Q165.84688 56.096874 163.94063 55.253124Q162.03438 54.409374 161.00313 52.940624Q159.97188 51.471874 159.97188 49.6125L162.8 49.6125Q162.8 51.55 164.22188 52.675Q165.65938 53.8 168.05 53.8Q170.26875 53.8 171.45625 52.89375Q172.64375 51.971874 172.64375 50.409374Q172.64375 48.846874 171.53438 47.9875Q170.44063 47.128124 167.56563 46.3ZM182.53438 36.1125L182.53438 39.95625L185.4875 39.95625L185.4875 42.05L182.53438 42.05L182.53438 51.878124Q182.53438 52.83125 182.925 53.315624Q183.31563 53.784374 184.26875 53.784374Q184.7375 53.784374 185.56563 53.596874L185.56563 55.8Q184.4875 56.096874 183.4875 56.096874Q181.65938 56.096874 180.7375 55.003124Q179.81563 53.89375 179.81563 51.878124L179.81563 42.05L176.925 42.05L176.925 39.95625L179.81563 39.95625L179.81563 36.1125L182.53438 36.1125ZM198.64375 55.8Q198.40938 55.33125 198.25313 54.128124Q196.3625 56.096874 193.7375 56.096874Q191.39375 56.096874 189.89375 54.76875Q188.39375 53.440624 188.39375 51.409374Q188.39375 48.925 190.26875 47.565624Q192.15938 46.190624 195.58125 46.190624L198.20625 46.190624L198.20625 44.940624Q198.20625 43.51875 197.3625 42.690624Q196.51875 41.846874 194.8625 41.846874Q193.40938 41.846874 192.425 42.58125Q191.44063 43.3 191.44063 44.346874L188.72188 44.346874Q188.72188 43.159374 189.56563 42.05Q190.40938 40.940624 191.84688 40.3Q193.28438 39.659374 195.01875 39.659374Q197.75313 39.659374 199.3 41.034374Q200.8625 42.39375 200.925 44.8L200.925 52.096874Q200.925 54.26875 201.47188 55.565624L201.47188 55.8L198.64375 55.8ZM194.14375 53.7375Q195.40938 53.7375 196.55 53.08125Q197.70625 52.409374 198.20625 51.3625L198.20625 48.1125L196.08125 48.1125Q191.1125 48.1125 191.1125 51.01875Q191.1125 52.3 191.95625 53.01875Q192.8 53.7375 194.14375 53.7375ZM208.53438 36.1125L208.53438 39.95625L211.4875 39.95625L211.4875 42.05L208.53438 42.05L208.53438 51.878124Q208.53438 52.83125 208.925 53.315624Q209.31563 53.784374 210.26875 53.784374Q210.7375 53.784374 211.56563 53.596874L211.56563 55.8Q210.4875 56.096874 209.4875 56.096874Q207.65938 56.096874 206.7375 55.003124Q205.81563 53.89375 205.81563 51.878124L205.81563 42.05L202.925 42.05L202.925 39.95625L205.81563 39.95625L205.81563 36.1125L208.53438 36.1125ZM217.8 55.8L215.08125 55.8L215.08125 39.95625L217.8 39.95625L217.8 55.8ZM214.8625 35.753124Q214.8625 35.08125 215.26875 34.628124Q215.675 34.175 216.45625 34.175Q217.25313 34.175 217.65938 34.628124Q218.08125 35.08125 218.08125 35.753124Q218.08125 36.409374 217.65938 36.846874Q217.25313 37.284374 216.45625 37.284374Q215.675 37.284374 215.26875 36.846874Q214.8625 36.409374 214.8625 35.753124ZM231.08125 51.596874Q231.08125 50.503124 230.25313 49.89375Q229.425 49.284374 227.3625 48.846874Q225.31563 48.409374 224.09688 47.8Q222.89375 47.175 222.31563 46.33125Q221.7375 45.471874 221.7375 44.3Q221.7375 42.346874 223.37813 41.003124Q225.03438 39.659374 227.59688 39.659374Q230.28438 39.659374 231.95625 41.05Q233.64375 42.440624 233.64375 44.6125L230.925 44.6125Q230.925 43.4875 229.97188 42.690624Q229.03438 41.878124 227.59688 41.878124Q226.1125 41.878124 225.26875 42.534374Q224.44063 43.175 224.44063 44.20625Q224.44063 45.190624 225.22188 45.690624Q226.00313 46.190624 228.01875 46.64375Q230.05 47.096874 231.31563 47.7375Q232.58125 48.3625 233.175 49.253124Q233.78438 50.128124 233.78438 51.409374Q233.78438 53.534374 232.08125 54.815624Q230.39375 56.096874 227.675 56.096874Q225.78438 56.096874 224.31563 55.425Q222.84688 54.7375 222.01875 53.534374Q221.19063 52.33125 221.19063 50.925L223.90938 50.925Q223.97188 52.284374 224.9875 53.08125Q226.01875 53.878124 227.675 53.878124Q229.22188 53.878124 230.14375 53.253124Q231.08125 52.628124 231.08125 51.596874ZM240.53438 36.1125L240.53438 39.95625L243.4875 39.95625L243.4875 42.05L240.53438 42.05L240.53438 51.878124Q240.53438 52.83125 240.925 53.315624Q241.31563 53.784374 242.26875 53.784374Q242.7375 53.784374 243.56563 53.596874L243.56563 55.8Q242.4875 56.096874 241.4875 56.096874Q239.65938 56.096874 238.7375 55.003124Q237.81563 53.89375 237.81563 51.878124L237.81563 42.05L234.925 42.05L234.925 39.95625L237.81563 39.95625L237.81563 36.1125L240.53438 36.1125ZM249.8 55.8L247.08125 55.8L247.08125 39.95625L249.8 39.95625L249.8 55.8ZM246.8625 35.753124Q246.8625 35.08125 247.26875 34.628124Q247.675 34.175 248.45625 34.175Q249.25313 34.175 249.65938 34.628124Q250.08125 35.08125 250.08125 35.753124Q250.08125 36.409374 249.65938 36.846874Q249.25313 37.284374 248.45625 37.284374Q247.675 37.284374 247.26875 36.846874Q246.8625 36.409374 246.8625 35.753124ZM260.20624 53.878124Q261.65936 53.878124 262.7375 53.003124Q263.83124 52.128124 263.9406 50.8L266.5031 50.8Q266.4406 52.159374 265.5656 53.39375Q264.70624 54.628124 263.2531 55.3625Q261.8156 56.096874 260.20624 56.096874Q256.97186 56.096874 255.05 53.940624Q253.14375 51.76875 253.14375 48.01875L253.14375 47.565624Q253.14375 45.253124 253.9875 43.45625Q254.84688 41.64375 256.425 40.659374Q258.01874 39.659374 260.1906 39.659374Q262.8625 39.659374 264.6281 41.253124Q266.39374 42.846874 266.5031 45.39375L263.9406 45.39375Q263.83124 43.8625 262.78436 42.878124Q261.7375 41.878124 260.1906 41.878124Q258.1281 41.878124 256.9875 43.378124Q255.8625 44.8625 255.8625 47.675L255.8625 48.175Q255.8625 50.925 256.9875 52.409374Q258.1125 53.878124 260.20624 53.878124ZM279.08124 51.596874Q279.08124 50.503124 278.2531 49.89375Q277.425 49.284374 275.3625 48.846874Q273.3156 48.409374 272.09686 47.8Q270.89374 47.175 270.3156 46.33125Q269.7375 45.471874 269.7375 44.3Q269.7375 42.346874 271.3781 41.003124Q273.03436 39.659374 275.59686 39.659374Q278.28436 39.659374 279.95624 41.05Q281.64374 42.440624 281.64374 44.6125L278.925 44.6125Q278.925 43.4875 277.97186 42.690624Q277.03436 41.878124 275.59686 41.878124Q274.1125 41.878124 273.26874 42.534374Q272.4406 43.175 272.4406 44.20625Q272.4406 45.190624 273.22186 45.690624Q274.0031 46.190624 276.01874 46.64375Q278.05 47.096874 279.3156 47.7375Q280.58124 48.3625 281.175 49.253124Q281.78436 50.128124 281.78436 51.409374Q281.78436 53.534374 280.08124 54.815624Q278.39374 56.096874 275.675 56.096874Q273.78436 56.096874 272.3156 55.425Q270.84686 54.7375 270.01874 53.534374Q269.1906 52.33125 269.1906 50.925L271.90936 50.925Q271.97186 52.284374 272.9875 53.08125Q274.01874 53.878124 275.675 53.878124Q277.22186 53.878124 278.14374 53.253124Q279.08124 52.628124 279.08124 51.596874Z" fill-rule="nonzero"/></svg>