<svg version="1.1" viewBox="0.0 0.0 638.0 556.0" fill="none" stroke="none" stroke-linecap="square" stroke-miterlimit="10" width="638" height="556" xmlns:xlink="http://www.w3.org/1999/xlink" xmlns="http://www.w3.org/2000/svg"><path fill="#000000" d="M0 0L638.0 0L638.0 556.0L0 556.0L0 0Z" fill-rule="nonzero"/><path stroke="#333333" stroke-width="1.0" stroke-linecap="butt" d="M129.5 135.5L129.5 455.5" fill-rule="nonzero"/><path stroke="#333333" stroke-width="1.0" stroke-linecap="butt" d="M224.5 135.5L224.5 455.5" fill-rule="nonzero"/><path stroke="#333333" stroke-width="1.0" stroke-linecap="butt" d="M320.5 135.5L320.5 455.5" fill-rule="nonzero"/><path stroke="#333333" stroke-width="1.0" stroke-linecap="butt" d="M415.5 135.5L415.5 455.5" fill-rule="nonzero"/><path stroke="#333333" stroke-width="1.0" stroke-linecap="butt" d="M510.5 135.5L510.5 455.5" fill-rule="nonzero"/><path stroke="#333333" stroke-width="1.0" stroke-linecap="butt" d="M605.5 135.5L605.5 455.5" fill-rule="nonzero"/><path stroke="#cccccc" stroke-width="1.0" stroke-linecap="butt" d="M76.5 455.5L610.5 455.5" fill-rule="nonzero"/><path stroke="#333333" stroke-width="1.0" stroke-linecap="butt" d="M76.5 375.5L610.5 375.5" fill-rule="nonzero"/><path stroke="#333333" stroke-width="1.0" stroke-linecap="butt" d="M76.5 295.5L610.5 295.5" fill-rule="nonzero"/><path stroke="#333333" stroke-width="1.0" stroke-linecap="butt" d="M76.5 215.5L610.5 215.5" fill-rule="nonzero"/><path stroke="#333333" stroke-width="1.0" stroke-linecap="butt" d="M76.5 135.5L610.5 135.5" fill-rule="nonzero"/><clipPath id="id_0"><path d="M76.8 135.86667L610.2 135.86667L610.2 455.6763L76.8 455.6763L76.8 135.86667Z" clip-rule="nonzero"/></clipPath><path stroke="#a4c2f4" stroke-width="4.0" stroke-linecap="butt" clip-path="url(#id_0)" d="M81.707985 354.2167C81.707985 354.2167 97.68468 350.88535 105.67303 348.38016C113.66138 345.875 121.64972 342.27588 129.63806 339.18564C137.62642 336.0954 161.07048 325.55536 176.78668 320.7966C192.50288 316.0378 216.9889 313.69846 232.79193 308.7238C248.59497 303.74908 266.91608 292.73172 280.20105 289.09546C293.486 285.4592 306.77097 287.5202 320.05594 283.77863C333.3409 280.03705 351.48834 269.838 367.20456 263.51068C382.92075 257.18338 399.41843 255.23337 415.13464 245.5214C430.85083 235.80942 446.56705 213.75961 462.28323 204.94554C477.99945 196.13148 494.49713 198.2755 510.21332 192.433C525.9295 186.5905 541.64575 176.29587 557.36194 169.68654C573.0781 163.07721 605.292 152.49677 605.292 152.49677" fill-rule="nonzero"/><path stroke="#dc3912" stroke-width="4.0" stroke-linecap="butt" clip-path="url(#id_0)" d="M81.707985 445.52234C81.707985 445.52234 97.68468 445.02264 105.67303 444.7628C113.66138 444.50296 121.64972 444.23877 129.63806 443.96326C137.62642 443.68777 161.07048 442.8165 176.78668 442.28427C192.50288 441.752 216.9889 441.12558 232.79193 440.48535C248.59497 439.8451 266.91608 438.67813 280.20105 438.16672C293.486 437.6553 306.77097 437.40854 320.05594 437.0474C333.3409 436.68625 351.48834 436.13263 367.20456 435.80814C382.92075 435.4836 399.41843 435.59296 415.13464 435.08856C430.85083 434.58414 446.56705 433.30057 462.28323 432.76993C477.99945 432.23932 494.49713 432.2745 510.21332 431.89044C525.9295 431.5064 541.64575 430.77637 557.36194 430.45132C573.0781 430.12625 605.292 429.9316 605.292 429.9316" fill-rule="nonzero"/><path fill="#a4c2f4" clip-path="url(#id_0)" d="M85.207985 354.2167C85.207985 356.1497 83.64098 357.7167 81.707985 357.7167C79.774994 357.7167 78.207985 356.1497 78.207985 354.2167C78.207985 352.2837 79.774994 350.7167 81.707985 350.7167C83.64098 350.7167 85.207985 352.2837 85.207985 354.2167Z" fill-rule="nonzero"/><path fill="#a4c2f4" clip-path="url(#id_0)" d="M109.17303 348.38016C109.17303 350.31317 107.606026 351.88016 105.67303 351.88016C103.74003 351.88016 102.17303 350.31317 102.17303 348.38016C102.17303 346.44717 103.74003 344.88016 105.67303 344.88016C107.606026 344.88016 109.17303 346.44717 109.17303 348.38016Z" fill-rule="nonzero"/><path fill="#a4c2f4" clip-path="url(#id_0)" d="M133.13806 339.18564C133.13806 341.11862 131.57106 342.68564 129.63806 342.68564C127.70507 342.68564 126.13807 341.11862 126.13807 339.18564C126.13807 337.25266 127.70507 335.68564 129.63806 335.68564C131.57106 335.68564 133.13806 337.25266 133.13806 339.18564Z" fill-rule="nonzero"/><path fill="#a4c2f4" clip-path="url(#id_0)" d="M180.28668 320.7966C180.28668 322.72958 178.71968 324.2966 176.78668 324.2966C174.85368 324.2966 173.28668 322.72958 173.28668 320.7966C173.28668 318.8636 174.85368 317.2966 176.78668 317.2966C178.71968 317.2966 180.28668 318.8636 180.28668 320.7966Z" fill-rule="nonzero"/><path fill="#a4c2f4" clip-path="url(#id_0)" d="M236.29193 308.7238C236.29193 310.65677 234.72493 312.2238 232.79193 312.2238C230.85893 312.2238 229.29193 310.65677 229.29193 308.7238C229.29193 306.79077 230.85893 305.2238 232.79193 305.2238C234.72493 305.2238 236.29193 306.79077 236.29193 308.7238Z" fill-rule="nonzero"/><path fill="#a4c2f4" clip-path="url(#id_0)" d="M283.70105 289.09546C283.70105 291.02844 282.13403 292.59546 280.20105 292.59546C278.26804 292.59546 276.70105 291.02844 276.70105 289.09546C276.70105 287.16245 278.26804 285.59546 280.20105 285.59546C282.13403 285.59546 283.70105 287.16245 283.70105 289.09546Z" fill-rule="nonzero"/><path fill="#a4c2f4" clip-path="url(#id_0)" d="M323.55594 283.77863C323.55594 285.7116 321.98892 287.27863 320.05594 287.27863C318.12296 287.27863 316.55594 285.7116 316.55594 283.77863C316.55594 281.8456 318.12296 280.27863 320.05594 280.27863C321.98892 280.27863 323.55594 281.8456 323.55594 283.77863Z" fill-rule="nonzero"/><path fill="#a4c2f4" clip-path="url(#id_0)" d="M370.70456 263.51068C370.70456 265.4437 369.13754 267.01068 367.20456 267.01068C365.27155 267.01068 363.70456 265.4437 363.70456 263.51068C363.70456 261.5777 365.27155 260.01068 367.20456 260.01068C369.13754 260.01068 370.70456 261.5777 370.70456 263.51068Z" fill-rule="nonzero"/><path fill="#a4c2f4" clip-path="url(#id_0)" d="M418.63464 245.5214C418.63464 247.45439 417.06763 249.0214 415.13464 249.0214C413.20163 249.0214 411.63464 247.45439 411.63464 245.5214C411.63464 243.5884 413.20163 242.0214 415.13464 242.0214C417.06763 242.0214 418.63464 243.5884 418.63464 245.5214Z" fill-rule="nonzero"/><path fill="#a4c2f4" clip-path="url(#id_0)" d="M465.78323 204.94554C465.78323 206.87854 464.21625 208.44554 462.28323 208.44554C460.35025 208.44554 458.78323 206.87854 458.78323 204.94554C458.78323 203.01256 460.35025 201.44554 462.28323 201.44554C464.21625 201.44554 465.78323 203.01256 465.78323 204.94554Z" fill-rule="nonzero"/><path fill="#a4c2f4" clip-path="url(#id_0)" d="M513.7133 192.433C513.7133 194.366 512.1463 195.933 510.21332 195.933C508.28033 195.933 506.71332 194.366 506.71332 192.433C506.71332 190.5 508.28033 188.933 510.21332 188.933C512.1463 188.933 513.7133 190.5 513.7133 192.433Z" fill-rule="nonzero"/><path fill="#a4c2f4" clip-path="url(#id_0)" d="M560.86194 169.68654C560.86194 171.61954 559.2949 173.18654 557.36194 173.18654C555.42896 173.18654 553.86194 171.61954 553.86194 169.68654C553.86194 167.75354 555.42896 166.18654 557.36194 166.18654C559.2949 166.18654 560.86194 167.75354 560.86194 169.68654Z" fill-rule="nonzero"/><path fill="#a4c2f4" clip-path="url(#id_0)" d="M608.792 152.49677C608.792 154.42976 607.22504 155.99677 605.292 155.99677C603.359 155.99677 601.792 154.42976 601.792 152.49677C601.792 150.56377 603.359 148.99677 605.292 148.99677C607.22504 148.99677 608.792 150.56377 608.792 152.49677Z" fill-rule="nonzero"/><path fill="#dc3912" clip-path="url(#id_0)" d="M85.207985 445.52234C85.207985 447.45535 83.64098 449.02234 81.707985 449.02234C79.774994 449.02234 78.207985 447.45535 78.207985 445.52234C78.207985 443.58936 79.774994 442.02234 81.707985 442.02234C83.64098 442.02234 85.207985 443.58936 85.207985 445.52234Z" fill-rule="nonzero"/><path fill="#dc3912" clip-path="url(#id_0)" d="M109.17303 444.7628C109.17303 446.6958 107.606026 448.2628 105.67303 448.2628C103.74003 448.2628 102.17303 446.6958 102.17303 444.7628C102.17303 442.8298 103.74003 441.2628 105.67303 441.2628C107.606026 441.2628 109.17303 442.8298 109.17303 444.7628Z" fill-rule="nonzero"/><path fill="#dc3912" clip-path="url(#id_0)" d="M133.13806 443.96326C133.13806 445.89627 131.57106 447.46326 129.63806 447.46326C127.70507 447.46326 126.13807 445.89627 126.13807 443.96326C126.13807 442.03027 127.70507 440.46326 129.63806 440.46326C131.57106 440.46326 133.13806 442.03027 133.13806 443.96326Z" fill-rule="nonzero"/><path fill="#dc3912" clip-path="url(#id_0)" d="M180.28668 442.28427C180.28668 444.21725 178.71968 445.78427 176.78668 445.78427C174.85368 445.78427 173.28668 444.21725 173.28668 442.28427C173.28668 440.3513 174.85368 438.78427 176.78668 438.78427C178.71968 438.78427 180.28668 440.3513 180.28668 442.28427Z" fill-rule="nonzero"/><path fill="#dc3912" clip-path="url(#id_0)" d="M236.29193 440.48535C236.29193 442.41833 234.72493 443.98535 232.79193 443.98535C230.85893 443.98535 229.29193 442.41833 229.29193 440.48535C229.29193 438.55234 230.85893 436.98535 232.79193 436.98535C234.72493 436.98535 236.29193 438.55234 236.29193 440.48535Z" fill-rule="nonzero"/><path fill="#dc3912" clip-path="url(#id_0)" d="M283.70105 438.16672C283.70105 440.09973 282.13403 441.66672 280.20105 441.66672C278.26804 441.66672 276.70105 440.09973 276.70105 438.16672C276.70105 436.23373 278.26804 434.66672 280.20105 434.66672C282.13403 434.66672 283.70105 436.23373 283.70105 438.16672Z" fill-rule="nonzero"/><path fill="#dc3912" clip-path="url(#id_0)" d="M323.55594 437.0474C323.55594 438.98038 321.98892 440.5474 320.05594 440.5474C318.12296 440.5474 316.55594 438.98038 316.55594 437.0474C316.55594 435.11438 318.12296 433.5474 320.05594 433.5474C321.98892 433.5474 323.55594 435.11438 323.55594 437.0474Z" fill-rule="nonzero"/><path fill="#dc3912" clip-path="url(#id_0)" d="M370.70456 435.80814C370.70456 437.74112 369.13754 439.30814 367.20456 439.30814C365.27155 439.30814 363.70456 437.74112 363.70456 435.80814C363.70456 433.87512 365.27155 432.30814 367.20456 432.30814C369.13754 432.30814 370.70456 433.87512 370.70456 435.80814Z" fill-rule="nonzero"/><path fill="#dc3912" clip-path="url(#id_0)" d="M418.63464 435.08856C418.63464 437.02155 417.06763 438.58856 415.13464 438.58856C413.20163 438.58856 411.63464 437.02155 411.63464 435.08856C411.63464 433.15555 413.20163 431.58856 415.13464 431.58856C417.06763 431.58856 418.63464 433.15555 418.63464 435.08856Z" fill-rule="nonzero"/><path fill="#dc3912" clip-path="url(#id_0)" d="M465.78323 432.76993C465.78323 434.70294 464.21625 436.26993 462.28323 436.26993C460.35025 436.26993 458.78323 434.70294 458.78323 432.76993C458.78323 430.83694 460.35025 429.26993 462.28323 429.26993C464.21625 429.26993 465.78323 430.83694 465.78323 432.76993Z" fill-rule="nonzero"/><path fill="#dc3912" clip-path="url(#id_0)" d="M513.7133 431.89044C513.7133 433.82346 512.1463 435.39044 510.21332 435.39044C508.28033 435.39044 506.71332 433.82346 506.71332 431.89044C506.71332 429.95746 508.28033 428.39044 510.21332 428.39044C512.1463 428.39044 513.7133 429.95746 513.7133 431.89044Z" fill-rule="nonzero"/><path fill="#dc3912" clip-path="url(#id_0)" d="M560.86194 430.45132C560.86194 432.3843 559.2949 433.95132 557.36194 433.95132C555.42896 433.95132 553.86194 432.3843 553.86194 430.45132C553.86194 428.5183 555.42896 426.95132 557.36194 426.95132C559.2949 426.95132 560.86194 428.5183 560.86194 430.45132Z" fill-rule="nonzero"/><path fill="#dc3912" clip-path="url(#id_0)" d="M608.792 429.9316C608.792 431.86462 607.22504 433.4316 605.292 433.4316C603.359 433.4316 601.792 431.86462 601.792 429.9316C601.792 427.99863 603.359 426.4316 605.292 426.4316C607.22504 426.4316 608.792 427.99863 608.792 429.9316Z" fill-rule="nonzero"/><path fill="#d9d9d9" d="M66.89375 456.22318Q66.89375 459.06693 65.90938 460.45755Q64.94063 461.84818 62.8625 461.84818Q60.815624 461.84818 59.83125 460.4888Q58.846874 459.12943 58.815624 456.44193L58.815624 454.27005Q58.815624 451.44193 59.784374 450.08255Q60.76875 448.70755 62.846874 448.70755Q64.90938 448.70755 65.87813 450.03568Q66.8625 451.34818 66.89375 454.1138L66.89375 456.22318ZM65.26875 453.9888Q65.26875 451.9263 64.675 450.9888Q64.09688 450.03568 62.846874 450.03568Q61.596874 450.03568 61.01875 450.9888Q60.45625 451.9263 60.440624 453.8638L60.440624 456.47318Q60.440624 458.5513 61.034374 459.53568Q61.64375 460.52005 62.8625 460.52005Q64.06563 460.52005 64.64375 459.59818Q65.2375 458.66068 65.26875 456.66068L65.26875 453.9888Z" fill-rule="nonzero"/><path fill="#d9d9d9" d="M37.253124 381.72388L28.8625 381.72388L28.8625 380.552L33.3 375.63013Q34.284374 374.52075 34.64375 373.81763Q35.01875 373.1145 35.01875 372.3645Q35.01875 371.3645 34.409374 370.72388Q33.815624 370.08325 32.8 370.08325Q31.58125 370.08325 30.909374 370.78638Q30.2375 371.47388 30.2375 372.69263L28.6125 372.69263Q28.6125 370.927 29.753124 369.84888Q30.89375 368.75513 32.8 368.75513Q34.58125 368.75513 35.6125 369.69263Q36.659374 370.63013 36.659374 372.177Q36.659374 374.06763 34.253124 376.677L30.83125 380.39575L37.253124 380.39575L37.253124 381.72388ZM46.89375 376.27075Q46.89375 379.1145 45.909374 380.50513Q44.940624 381.89575 42.8625 381.89575Q40.815624 381.89575 39.83125 380.53638Q38.846874 379.177 38.815624 376.4895L38.815624 374.31763Q38.815624 371.4895 39.784374 370.13013Q40.76875 368.75513 42.846874 368.75513Q44.909374 368.75513 45.878124 370.08325Q46.8625 371.39575 46.89375 374.16138L46.89375 376.27075ZM45.26875 374.03638Q45.26875 371.97388 44.675 371.03638Q44.096874 370.08325 42.846874 370.08325Q41.596874 370.08325 41.01875 371.03638Q40.45625 371.97388 40.440624 373.91138L40.440624 376.52075Q40.440624 378.59888 41.034374 379.58325Q41.64375 380.56763 42.8625 380.56763Q44.065624 380.56763 44.64375 379.64575Q45.2375 378.70825 45.26875 376.70825L45.26875 374.03638ZM56.89375 376.27075Q56.89375 379.1145 55.909374 380.50513Q54.940624 381.89575 52.8625 381.89575Q50.815624 381.89575 49.83125 380.53638Q48.846874 379.177 48.815624 376.4895L48.815624 374.31763Q48.815624 371.4895 49.784374 370.13013Q50.76875 368.75513 52.846874 368.75513Q54.909374 368.75513 55.878124 370.08325Q56.8625 371.39575 56.89375 374.16138L56.89375 376.27075ZM55.26875 374.03638Q55.26875 371.97388 54.675 371.03638Q54.096874 370.08325 52.846874 370.08325Q51.596874 370.08325 51.01875 371.03638Q50.45625 371.97388 50.440624 373.91138L50.440624 376.52075Q50.440624 378.59888 51.034374 379.58325Q51.64375 380.56763 52.8625 380.56763Q54.065624 380.56763 54.64375 379.64575Q55.2375 378.70825 55.26875 376.70825L55.26875 374.03638ZM66.89375 376.27075Q66.89375 379.1145 65.90938 380.50513Q64.94063 381.89575 62.8625 381.89575Q60.815624 381.89575 59.83125 380.53638Q58.846874 379.177 58.815624 376.4895L58.815624 374.31763Q58.815624 371.4895 59.784374 370.13013Q60.76875 368.75513 62.846874 368.75513Q64.90938 368.75513 65.87813 370.08325Q66.8625 371.39575 66.89375 374.16138L66.89375 376.27075ZM65.26875 374.03638Q65.26875 371.97388 64.675 371.03638Q64.09688 370.08325 62.846874 370.08325Q61.596874 370.08325 61.01875 371.03638Q60.45625 371.97388 60.440624 373.91138L60.440624 376.52075Q60.440624 378.59888 61.034374 379.58325Q61.64375 380.56763 62.8625 380.56763Q64.06563 380.56763 64.64375 379.64575Q65.2375 378.70825 65.26875 376.70825L65.26875 374.03638Z" fill-rule="nonzero"/><path fill="#d9d9d9" d="M35.721874 297.4746L37.503124 297.4746L37.503124 298.80273L35.721874 298.80273L35.721874 301.77148L34.096874 301.77148L34.096874 298.80273L28.26875 298.80273L28.26875 297.8496L34.003124 288.9746L35.721874 288.9746L35.721874 297.4746ZM30.1125 297.4746L34.096874 297.4746L34.096874 291.19336L33.89375 291.55273L30.1125 297.4746ZM46.89375 296.31836Q46.89375 299.1621 45.909374 300.55273Q44.940624 301.94336 42.8625 301.94336Q40.815624 301.94336 39.83125 300.58398Q38.846874 299.2246 38.815624 296.5371L38.815624 294.36523Q38.815624 291.5371 39.784374 290.17773Q40.76875 288.80273 42.846874 288.80273Q44.909374 288.80273 45.878124 290.13086Q46.8625 291.44336 46.89375 294.20898L46.89375 296.31836ZM45.26875 294.08398Q45.26875 292.02148 44.675 291.08398Q44.096874 290.13086 42.846874 290.13086Q41.596874 290.13086 41.01875 291.08398Q40.45625 292.02148 40.440624 293.95898L40.440624 296.56836Q40.440624 298.64648 41.034374 299.63086Q41.64375 300.61523 42.8625 300.61523Q44.065624 300.61523 44.64375 299.69336Q45.2375 298.75586 45.26875 296.75586L45.26875 294.08398ZM56.89375 296.31836Q56.89375 299.1621 55.909374 300.55273Q54.940624 301.94336 52.8625 301.94336Q50.815624 301.94336 49.83125 300.58398Q48.846874 299.2246 48.815624 296.5371L48.815624 294.36523Q48.815624 291.5371 49.784374 290.17773Q50.76875 288.80273 52.846874 288.80273Q54.909374 288.80273 55.878124 290.13086Q56.8625 291.44336 56.89375 294.20898L56.89375 296.31836ZM55.26875 294.08398Q55.26875 292.02148 54.675 291.08398Q54.096874 290.13086 52.846874 290.13086Q51.596874 290.13086 51.01875 291.08398Q50.45625 292.02148 50.440624 293.95898L50.440624 296.56836Q50.440624 298.64648 51.034374 299.63086Q51.64375 300.61523 52.8625 300.61523Q54.065624 300.61523 54.64375 299.69336Q55.2375 298.75586 55.26875 296.75586L55.26875 294.08398ZM66.89375 296.31836Q66.89375 299.1621 65.90938 300.55273Q64.94063 301.94336 62.8625 301.94336Q60.815624 301.94336 59.83125 300.58398Q58.846874 299.2246 58.815624 296.5371L58.815624 294.36523Q58.815624 291.5371 59.784374 290.17773Q60.76875 288.80273 62.846874 288.80273Q64.90938 288.80273 65.87813 290.13086Q66.8625 291.44336 66.89375 294.20898L66.89375 296.31836ZM65.26875 294.08398Q65.26875 292.02148 64.675 291.08398Q64.09688 290.13086 62.846874 290.13086Q61.596874 290.13086 61.01875 291.08398Q60.45625 292.02148 60.440624 293.95898L60.440624 296.56836Q60.440624 298.64648 61.034374 299.63086Q61.64375 300.61523 62.8625 300.61523Q64.06563 300.61523 64.64375 299.69336Q65.2375 298.75586 65.26875 296.75586L65.26875 294.08398Z" fill-rule="nonzero"/><path fill="#d9d9d9" d="M35.2375 209.00658L35.2375 210.3972L34.940624 210.3972Q33.05 210.42845 31.925 211.5222Q30.8 212.60033 30.628124 214.5847Q31.628124 213.42845 33.378124 213.42845Q35.05 213.42845 36.05 214.61595Q37.05 215.78783 37.05 217.6472Q37.05 219.61595 35.971874 220.80345Q34.89375 221.99095 33.08125 221.99095Q31.253124 221.99095 30.096874 220.5847Q28.95625 219.17845 28.95625 216.94408L28.95625 216.31908Q28.95625 212.78783 30.45625 210.92845Q31.971874 209.05345 34.95625 209.00658L35.2375 209.00658ZM33.1125 214.7722Q32.26875 214.7722 31.565624 215.28783Q30.8625 215.78783 30.596874 216.53783L30.596874 217.13158Q30.596874 218.7097 31.3 219.67845Q32.01875 220.6472 33.08125 220.6472Q34.175 220.6472 34.8 219.85033Q35.440624 219.03783 35.440624 217.72533Q35.440624 216.3972 34.8 215.5847Q34.159374 214.7722 33.1125 214.7722ZM46.89375 216.36595Q46.89375 219.2097 45.909374 220.60033Q44.940624 221.99095 42.8625 221.99095Q40.815624 221.99095 39.83125 220.63158Q38.846874 219.2722 38.815624 216.5847L38.815624 214.41283Q38.815624 211.5847 39.784374 210.22533Q40.76875 208.85033 42.846874 208.85033Q44.909374 208.85033 45.878124 210.17845Q46.8625 211.49095 46.89375 214.25658L46.89375 216.36595ZM45.26875 214.13158Q45.26875 212.06908 44.675 211.13158Q44.096874 210.17845 42.846874 210.17845Q41.596874 210.17845 41.01875 211.13158Q40.45625 212.06908 40.440624 214.00658L40.440624 216.61595Q40.440624 218.69408 41.034374 219.67845Q41.64375 220.66283 42.8625 220.66283Q44.065624 220.66283 44.64375 219.74095Q45.2375 218.80345 45.26875 216.80345L45.26875 214.13158ZM56.89375 216.36595Q56.89375 219.2097 55.909374 220.60033Q54.940624 221.99095 52.8625 221.99095Q50.815624 221.99095 49.83125 220.63158Q48.846874 219.2722 48.815624 216.5847L48.815624 214.41283Q48.815624 211.5847 49.784374 210.22533Q50.76875 208.85033 52.846874 208.85033Q54.909374 208.85033 55.878124 210.17845Q56.8625 211.49095 56.89375 214.25658L56.89375 216.36595ZM55.26875 214.13158Q55.26875 212.06908 54.675 211.13158Q54.096874 210.17845 52.846874 210.17845Q51.596874 210.17845 51.01875 211.13158Q50.45625 212.06908 50.440624 214.00658L50.440624 216.61595Q50.440624 218.69408 51.034374 219.67845Q51.64375 220.66283 52.8625 220.66283Q54.065624 220.66283 54.64375 219.74095Q55.2375 218.80345 55.26875 216.80345L55.26875 214.13158ZM66.89375 216.36595Q66.89375 219.2097 65.90938 220.60033Q64.94063 221.99095 62.8625 221.99095Q60.815624 221.99095 59.83125 220.63158Q58.846874 219.2722 58.815624 216.5847L58.815624 214.41283Q58.815624 211.5847 59.784374 210.22533Q60.76875 208.85033 62.846874 208.85033Q64.90938 208.85033 65.87813 210.17845Q66.8625 211.49095 66.89375 214.25658L66.89375 216.36595ZM65.26875 214.13158Q65.26875 212.06908 64.675 211.13158Q64.09688 210.17845 62.846874 210.17845Q61.596874 210.17845 61.01875 211.13158Q60.45625 212.06908 60.440624 214.00658L60.440624 216.61595Q60.440624 218.69408 61.034374 219.67845Q61.64375 220.66283 62.8625 220.66283Q64.06563 220.66283 64.64375 219.74095Q65.2375 218.80345 65.26875 216.80345L65.26875 214.13158Z" fill-rule="nonzero"/><path fill="#d9d9d9" d="M36.628124 132.41354Q36.628124 133.36667 36.1125 134.11667Q35.6125 134.86667 34.753124 135.28854Q35.753124 135.71042 36.33125 136.53854Q36.925 137.36667 36.925 138.41354Q36.925 140.0698 35.8 141.05417Q34.675 142.03854 32.846874 142.03854Q31.003124 142.03854 29.89375 141.05417Q28.784374 140.0698 28.784374 138.41354Q28.784374 137.3823 29.346874 136.55417Q29.925 135.71042 30.925 135.27292Q30.065624 134.85104 29.565624 134.10104Q29.08125 133.35104 29.08125 132.41354Q29.08125 130.78854 30.1125 129.85104Q31.159374 128.89792 32.846874 128.89792Q34.534374 128.89792 35.58125 129.85104Q36.628124 130.78854 36.628124 132.41354ZM35.3 138.3823Q35.3 137.30417 34.6125 136.6323Q33.940624 135.9448 32.83125 135.9448Q31.7375 135.9448 31.065624 136.61667Q30.409374 137.28854 30.409374 138.3823Q30.409374 139.46042 31.05 140.08542Q31.70625 140.71042 32.846874 140.71042Q34.003124 140.71042 34.64375 140.08542Q35.3 139.46042 35.3 138.3823ZM32.846874 130.22604Q31.89375 130.22604 31.3 130.8198Q30.70625 131.41354 30.70625 132.42917Q30.70625 133.41354 31.284374 134.02292Q31.878124 134.61667 32.846874 134.61667Q33.83125 134.61667 34.409374 134.02292Q35.003124 133.41354 35.003124 132.4448Q35.003124 131.46042 34.39375 130.85104Q33.784374 130.22604 32.846874 130.22604ZM46.89375 136.41354Q46.89375 139.2573 45.909374 140.64792Q44.940624 142.03854 42.8625 142.03854Q40.815624 142.03854 39.83125 140.67917Q38.846874 139.3198 38.815624 136.6323L38.815624 134.46042Q38.815624 131.6323 39.784374 130.27292Q40.76875 128.89792 42.846874 128.89792Q44.909374 128.89792 45.878124 130.22604Q46.8625 131.53854 46.89375 134.30417L46.89375 136.41354ZM45.26875 134.17917Q45.26875 132.11667 44.675 131.17917Q44.096874 130.22604 42.846874 130.22604Q41.596874 130.22604 41.01875 131.17917Q40.45625 132.11667 40.440624 134.05417L40.440624 136.66354Q40.440624 138.74167 41.034374 139.72604Q41.64375 140.71042 42.8625 140.71042Q44.065624 140.71042 44.64375 139.78854Q45.2375 138.85104 45.26875 136.85104L45.26875 134.17917ZM56.89375 136.41354Q56.89375 139.2573 55.909374 140.64792Q54.940624 142.03854 52.8625 142.03854Q50.815624 142.03854 49.83125 140.67917Q48.846874 139.3198 48.815624 136.6323L48.815624 134.46042Q48.815624 131.6323 49.784374 130.27292Q50.76875 128.89792 52.846874 128.89792Q54.909374 128.89792 55.878124 130.22604Q56.8625 131.53854 56.89375 134.30417L56.89375 136.41354ZM55.26875 134.17917Q55.26875 132.11667 54.675 131.17917Q54.096874 130.22604 52.846874 130.22604Q51.596874 130.22604 51.01875 131.17917Q50.45625 132.11667 50.440624 134.05417L50.440624 136.66354Q50.440624 138.74167 51.034374 139.72604Q51.64375 140.71042 52.8625 140.71042Q54.065624 140.71042 54.64375 139.78854Q55.2375 138.85104 55.26875 136.85104L55.26875 134.17917ZM66.89375 136.41354Q66.89375 139.2573 65.90938 140.64792Q64.94063 142.03854 62.8625 142.03854Q60.815624 142.03854 59.83125 140.67917Q58.846874 139.3198 58.815624 136.6323L58.815624 134.46042Q58.815624 131.6323 59.784374 130.27292Q60.76875 128.89792 62.846874 128.89792Q64.90938 128.89792 65.87813 130.22604Q66.8625 131.53854 66.89375 134.30417L66.89375 136.41354ZM65.26875 134.17917Q65.26875 132.11667 64.675 131.17917Q64.09688 130.22604 62.846874 130.22604Q61.596874 130.22604 61.01875 131.17917Q60.45625 132.11667 60.440624 134.05417L60.440624 136.66354Q60.440624 138.74167 61.034374 139.72604Q61.64375 140.71042 62.8625 140.71042Q64.06563 140.71042 64.64375 139.78854Q65.2375 138.85104 65.26875 136.85104L65.26875 134.17917Z" fill-rule="nonzero"/><path fill="#d9d9d9" d="M111.56079 523.01337L107.36548 530.27985L106.35061 529.6939L104.306885 523.39Q103.838326 521.9828 103.40909 521.32Q102.98766 520.6437 102.33815 520.2687Q101.47212 519.7687 100.61264 519.97614Q99.76096 520.17 99.25315 521.04956Q98.643776 522.10504 98.91676 523.03845Q99.176216 523.96405 100.23169 524.5734L99.41919 525.9807Q97.890114 525.0979 97.52674 523.57104Q97.14983 522.0364 98.10296 520.3855Q98.99358 518.8429 100.32111 518.4186Q101.65645 517.9807 102.99608 518.75415Q104.63341 519.69946 105.69007 523.088L107.19966 527.9108L110.4106 522.3493L111.56079 523.01337ZM111.65856 511.93777Q114.12132 513.3596 114.83345 514.9075Q115.55339 516.4417 114.51433 518.24146Q113.49089 520.0141 111.82145 520.1869Q110.15201 520.3597 107.80894 519.043L105.92804 517.9571Q103.47881 516.543 102.785934 515.02435Q102.08733 513.4844 103.126396 511.68466Q104.157646 509.89847 105.79221 509.72357Q107.42106 509.52734 109.83179 510.8831L111.65856 511.93777ZM108.91103 512.2279Q107.124855 511.19662 106.01608 511.24207Q104.90159 511.26617 104.27659 512.3487Q103.65159 513.4313 104.18796 514.4085Q104.718605 515.3644 106.38872 516.3467L108.648506 517.65137Q110.44821 518.6904 111.59758 518.6684Q112.75476 518.6329 113.364136 517.5774Q113.9657 516.53546 113.4564 515.57385Q112.94137 514.5909 111.224945 513.56384L108.91103 512.2279ZM120.03735 508.3315L119.21704 509.75235L109.82608 504.33047L109.23521 507.76016L107.96323 507.0258L108.77581 502.11835L108.90081 501.90182L120.03735 508.3315ZM117.17897 500.43863L111.98618 496.6828L115.25962 491.01306L116.55866 491.76306L113.972725 496.24203L116.79497 498.3225Q116.79011 497.23715 117.39167 496.19522Q118.26667 494.6797 119.775826 494.37827Q121.29279 494.0633 122.99778 495.04767Q124.7163 496.03986 125.17286 497.5303Q125.61589 499.01297 124.65495 500.67737Q123.80339 502.1523 122.45243 502.61725Q121.109276 503.06863 119.604614 502.3623L120.37024 501.0362Q121.39558 501.44775 122.19521 501.18774Q122.989136 500.90637 123.50476 500.0133Q124.07507 499.02548 123.73234 498.0879Q123.37607 497.14246 122.198814 496.46277Q121.08922 495.82214 120.06107 496.04044Q119.04074 496.2452 118.462616 497.24655Q117.931366 498.1667 118.03263 498.9288L118.12511 499.4874L117.17897 500.43863ZM128.5627 495.75272L127.859566 496.97055L118.50181 485.3974L119.19712 484.19308L128.5627 495.75272ZM130.15855 479.89484Q132.62132 481.3167 133.33345 482.8645Q134.05339 484.39877 133.01433 486.1985Q131.99089 487.97113 130.32144 488.14395Q128.65201 488.31674 126.30894 487.00006L124.42804 485.91412Q121.97881 484.50006 121.285934 482.9814Q120.58733 481.44144 121.626396 479.64172Q122.657646 477.85553 124.29221 477.68063Q125.92106 477.4844 128.33179 478.84015L130.15855 479.89484ZM127.41103 480.18494Q125.624855 479.1537 124.51608 479.19913Q123.40159 479.22324 122.77659 480.3058Q122.15159 481.3883 122.68796 482.36554Q123.218605 483.32144 124.88872 484.3037L127.148506 485.6084Q128.94821 486.64746 130.09758 486.62546Q131.25476 486.5899 131.86414 485.53442Q132.4657 484.4925 131.95639 483.53088Q131.44138 482.54794 129.72495 481.52087L127.41103 480.18494ZM138.53735 476.28857L137.71704 477.7094L128.32608 472.28754L127.73521 475.7172L126.46323 474.98282L127.27581 470.0754L127.40081 469.8589L138.53735 476.28857Z" fill-rule="nonzero"/><path fill="#d9d9d9" d="M206.63948 523.01337L202.44417 530.27985L201.42929 529.6939L199.38557 523.39Q198.91702 521.9828 198.48778 521.32Q198.06636 520.6437 197.41684 520.2687Q196.55081 519.7687 195.69133 519.97614Q194.83966 520.17 194.33185 521.04956Q193.72247 522.10504 193.99545 523.03845Q194.25491 523.96405 195.31038 524.5734L194.49788 525.9807Q192.9688 525.0979 192.60542 523.57104Q192.22853 522.0364 193.18166 520.3855Q194.07228 518.8429 195.3998 518.4186Q196.73514 517.9807 198.07477 518.75415Q199.7121 519.69946 200.76875 523.088L202.27835 527.9108L205.48929 522.3493L206.63948 523.01337ZM206.73724 511.93777Q209.20001 513.3596 209.91214 514.9075Q210.63208 516.4417 209.59302 518.24146Q208.56958 520.0141 206.90015 520.1869Q205.2307 520.3597 202.88763 519.043L201.00673 517.9571Q198.55751 516.543 197.86462 515.02435Q197.16603 513.4844 198.2051 511.68466Q199.23634 509.89847 200.87091 509.72357Q202.49976 509.52734 204.91048 510.8831L206.73724 511.93777ZM203.98973 512.2279Q202.20355 511.19662 201.09477 511.24207Q199.98029 511.26617 199.35529 512.3487Q198.73029 513.4313 199.26665 514.4085Q199.7973 515.3644 201.4674 516.3467L203.72719 517.65137Q205.5269 518.6904 206.67627 518.6684Q207.83345 518.6329 208.44283 517.5774Q209.04439 516.53546 208.53508 515.57385Q208.02007 514.5909 206.30363 513.56384L203.98973 512.2279ZM215.11604 508.3315L214.29573 509.75235L204.90477 504.33047L204.31389 507.76016L203.04192 507.0258L203.85449 502.11835L203.97949 501.90182L215.11604 508.3315ZM209.53572 492.37192L210.74004 493.06723L210.5916 493.32434Q209.67336 494.9773 210.05806 496.49844Q210.42924 498.0118 212.06183 499.15283Q211.56049 497.70868 212.43549 496.19315Q213.27142 494.74524 214.79984 494.47296Q216.3147 494.1929 217.92497 495.1226Q219.62996 496.10696 220.1193 497.63437Q220.60864 499.1618 219.7024 500.73148Q218.78833 502.3147 216.99236 502.6129Q215.2042 502.89758 213.26917 501.7804L212.7279 501.4679Q209.66975 499.70227 208.8095 497.47354Q207.9435 495.22348 209.3951 492.6155L209.53572 492.37192ZM213.4664 497.09506Q213.04453 497.82574 213.13951 498.6925Q213.22095 499.55142 213.73766 500.15646L214.25186 500.45334Q215.61856 501.2424 216.80908 501.11786Q218.00742 500.97977 218.53867 500.0596Q219.08554 499.1124 218.70793 498.1727Q218.3246 497.21164 217.18794 496.5554Q216.03775 495.89133 215.0138 496.0399Q213.98984 496.18842 213.4664 497.09506ZM223.64139 495.75272L222.93826 496.97055L213.5805 485.39743L214.27582 484.19308L223.64139 495.75272ZM225.23724 479.89484Q227.70001 481.3167 228.41214 482.8645Q229.13208 484.3988 228.09302 486.1985Q227.06958 487.97113 225.40015 488.14395Q223.7307 488.31674 221.38763 487.00006L219.50673 485.91412Q217.05751 484.50006 216.36462 482.9814Q215.66603 481.44144 216.7051 479.64172Q217.73634 477.85553 219.37091 477.68063Q220.99976 477.4844 223.41048 478.84015L225.23724 479.89484ZM222.48973 480.18494Q220.70355 479.1537 219.59477 479.19913Q218.48029 479.22324 217.85529 480.3058Q217.23029 481.3883 217.76665 482.36554Q218.2973 483.32144 219.9674 484.3037L222.22719 485.6084Q224.0269 486.64746 225.17627 486.62546Q226.33345 486.5899 226.94283 485.53442Q227.54439 484.4925 227.03508 483.53088Q226.52007 482.54794 224.80363 481.52087L222.48973 480.18494ZM233.61604 476.28857L232.79573 477.7094L223.40477 472.28754L222.81389 475.71722L221.54192 474.98285L222.35449 470.0754L222.47949 469.8589L233.61604 476.28857Z" fill-rule="nonzero"/><path fill="#d9d9d9" d="M301.97867 523.01337L297.78336 530.27985L296.76846 529.6939L294.72476 523.39Q294.2562 521.98285 293.82697 521.32Q293.40555 520.64374 292.756 520.26874Q291.88998 519.76874 291.03052 519.97614Q290.17883 520.17004 289.67102 521.04956Q289.06165 522.10504 289.33463 523.03845Q289.5941 523.96405 290.64957 524.5734L289.83707 525.9808Q288.30798 525.09796 287.9446 523.57104Q287.56772 522.0364 288.52084 520.3855Q289.41147 518.8429 290.73898 518.4186Q292.0743 517.9807 293.41394 518.75415Q295.05127 519.69946 296.10794 523.088L297.61752 527.9108L300.82846 522.3493L301.97867 523.01337ZM302.07642 511.93777Q304.53918 513.3597 305.2513 514.9075Q305.97125 516.4417 304.9322 518.24146Q303.90875 520.0141 302.23932 520.1869Q300.5699 520.3597 298.2268 519.043L296.34592 517.9571Q293.89667 516.543 293.2038 515.02435Q292.50522 513.4844 293.54428 511.68466Q294.57553 509.8985 296.21008 509.7236Q297.83893 509.52734 300.24966 510.8831L302.07642 511.93777ZM299.3289 512.2279Q297.54272 511.19662 296.43396 511.2421Q295.31946 511.2662 294.69446 512.34875Q294.06946 513.4313 294.60583 514.4085Q295.13647 515.3644 296.80658 516.3467L299.06638 517.65137Q300.8661 518.6904 302.01544 518.6684Q303.17264 518.6329 303.782 517.5774Q304.38358 516.53546 303.87427 515.57385Q303.35925 514.5909 301.64282 513.56384L299.3289 512.2279ZM310.45523 508.33154L309.63492 509.75235L300.24396 504.33047L299.65308 507.76016L298.3811 507.0258L299.19366 502.11835L299.31866 501.90186L310.45523 508.33154ZM306.61856 491.19556L314.26773 501.7281L313.41617 503.20303L306.12454 492.89496L302.6558 498.903L301.5056 498.23895L305.83374 490.74243L306.61856 491.19556ZM318.98056 495.75272L318.27744 496.97055L308.91968 485.39743L309.615 484.1931L318.98056 495.75272ZM320.57642 479.89484Q323.03918 481.3167 323.7513 482.86453Q324.47125 484.3988 323.4322 486.19852Q322.40875 487.97116 320.73932 488.14395Q319.0699 488.31677 316.7268 487.0001L314.84592 485.91415Q312.39667 484.5001 311.7038 482.9814Q311.00522 481.44144 312.04428 479.64172Q313.07553 477.85556 314.71008 477.68063Q316.33893 477.4844 318.74966 478.84015L320.57642 479.89484ZM317.8289 480.18494Q316.04272 479.1537 314.93396 479.19916Q313.81946 479.22327 313.19446 480.3058Q312.56946 481.3883 313.10583 482.36554Q313.63647 483.32144 315.30658 484.3037L317.56638 485.6084Q319.3661 486.64746 320.51544 486.62546Q321.67264 486.5899 322.282 485.53445Q322.88358 484.4925 322.37427 483.53088Q321.85925 482.54794 320.14282 481.52087L317.8289 480.18494ZM328.95523 476.2886L328.13492 477.7094L318.74396 472.28754L318.15308 475.71722L316.8811 474.98285L317.69366 470.0754L317.81866 469.85892L328.95523 476.2886Z" fill-rule="nonzero"/><path fill="#d9d9d9" d="M397.05734 523.01337L392.86203 530.27985L391.84717 529.6939L389.80347 523.39Q389.3349 521.9828 388.90567 521.32Q388.48422 520.6437 387.83472 520.2687Q386.9687 519.7687 386.1092 519.97614Q385.25754 520.17 384.74973 521.04956Q384.14035 522.10504 384.41333 523.03845Q384.6728 523.96405 385.72824 524.5734L384.91574 525.9807Q383.3867 525.0979 383.02332 523.57104Q382.6464 522.0364 383.59952 520.3855Q384.49014 518.8429 385.8177 518.4186Q387.153 517.9807 388.49265 518.75415Q390.12997 519.69946 391.18665 523.088L392.69623 527.9108L395.90717 522.3493L397.05734 523.01337ZM397.15512 511.93777Q399.6179 513.3596 400.33002 514.9075Q401.04996 516.4417 400.0109 518.24146Q398.98746 520.0141 397.31802 520.1869Q395.64856 520.3597 393.3055 519.043L391.4246 517.9571Q388.97537 516.543 388.2825 515.02435Q387.5839 513.4844 388.62296 511.68466Q389.6542 509.89847 391.2888 509.72357Q392.91763 509.52734 395.32834 510.8831L397.15512 511.93777ZM394.4076 512.22784Q392.62143 511.19662 391.51263 511.24207Q390.39816 511.26617 389.77316 512.3487Q389.14816 513.4313 389.6845 514.4085Q390.21518 515.3644 391.88528 516.3467L394.14508 517.65137Q395.94476 518.6904 397.09415 518.6684Q398.2513 518.6328 398.8607 517.5774Q399.46225 516.53546 398.95297 515.57385Q398.43793 514.5909 396.7215 513.5638L394.4076 512.22784ZM405.5339 508.3315L404.7136 509.75235L395.32263 504.33047L394.73178 507.76013L393.4598 507.02576L394.27237 502.11835L394.39737 501.90182L405.5339 508.3315ZM403.5582 492.8473Q404.38364 493.32385 404.77536 494.14542Q405.17487 494.95343 405.11053 495.9086Q405.9759 495.2535 406.98212 495.1669Q407.9962 495.06677 408.9028 495.5902Q410.33716 496.41833 410.62714 497.8848Q410.91714 499.35126 410.00308 500.93445Q409.0812 502.5312 407.674 502.99976Q406.26685 503.46832 404.8325 502.6402Q403.9394 502.12457 403.50348 501.22336Q403.06183 500.3008 403.18295 499.21603Q402.3879 499.74933 401.48837 499.80734Q400.59668 499.85184 399.78476 499.3831Q398.37747 498.5706 398.0812 497.20874Q397.7792 495.82556 398.62296 494.36414Q399.4667 492.90274 400.81558 492.47266Q402.1509 492.0348 403.5582 492.8473ZM408.06323 496.98187Q407.12955 496.4428 406.20395 496.70227Q405.2726 496.94037 404.71793 497.90112Q404.17105 498.84833 404.41696 499.7661Q404.67072 500.6704 405.61792 501.2173Q406.5516 501.75635 407.41318 501.51404Q408.28256 501.2582 408.85287 500.2704Q409.431 499.26904 409.21005 498.40176Q408.99692 497.52094 408.06323 496.98187ZM399.77316 495.0282Q399.2966 495.85364 399.51392 496.6647Q399.73126 497.4758 400.6108 497.9836Q401.4633 498.4758 402.2801 498.27982Q403.0912 498.06247 403.57556 497.2235Q404.06775 496.37103 403.8426 495.5735Q403.61172 494.75458 402.77277 494.2702Q401.9203 493.778 401.08786 494.00107Q400.2419 494.2163 399.77316 495.0282ZM414.05927 495.7527L413.35614 496.97055L403.99838 485.3974L404.6937 484.19308L414.05927 495.7527ZM415.65512 479.89484Q418.1179 481.3167 418.83002 482.8645Q419.54996 484.39877 418.5109 486.1985Q417.48746 487.97113 415.81802 488.14395Q414.14856 488.31674 411.8055 487.00006L409.9246 485.91412Q407.47537 484.50006 406.7825 482.9814Q406.0839 481.44144 407.12296 479.64172Q408.1542 477.85553 409.7888 477.68063Q411.41763 477.4844 413.82834 478.84015L415.65512 479.89484ZM412.9076 480.18494Q411.12143 479.1537 410.01263 479.19913Q408.89816 479.22324 408.27316 480.3058Q407.64816 481.3883 408.1845 482.36554Q408.71518 483.32144 410.38528 484.3037L412.64508 485.6084Q414.44476 486.64746 415.59415 486.62546Q416.7513 486.5899 417.3607 485.53442Q417.96225 484.4925 417.45297 483.53088Q416.93793 482.54794 415.2215 481.52087L412.9076 480.18494ZM424.0339 476.28857L423.2136 477.7094L413.82263 472.28754L413.23178 475.7172L411.9598 474.98282L412.77237 470.0754L412.89737 469.8589L424.0339 476.28857Z" fill-rule="nonzero"/><path fill="#d9d9d9" d="M492.13605 523.01337L487.94073 530.27985L486.92587 529.6939L484.88214 523.38995Q484.4136 521.9828 483.98434 521.32Q483.56293 520.6437 482.91342 520.2687Q482.0474 519.7687 481.1879 519.97614Q480.33624 520.17 479.82843 521.04956Q479.21906 522.10504 479.49203 523.03845Q479.7515 523.96405 480.80695 524.5734L479.99445 525.9807Q478.46536 525.0979 478.102 523.57104Q477.7251 522.0364 478.67822 520.3855Q479.56885 518.8429 480.89636 518.4185Q482.23172 517.98065 483.57135 518.7541Q485.20868 519.6994 486.26532 523.088L487.77493 527.91077L490.98587 522.3493L492.13605 523.01337ZM492.23383 511.93774Q494.6966 513.3596 495.40872 514.9074Q496.12866 516.4417 495.0896 518.2414Q494.06616 520.0141 492.3967 520.1869Q490.72726 520.3597 488.38422 519.04297L486.5033 517.95703Q484.05408 516.54297 483.3612 515.02435Q482.6626 513.4844 483.70166 511.68463Q484.7329 509.89847 486.3675 509.72357Q487.99634 509.5273 490.40704 510.88306L492.23383 511.93774ZM489.4863 512.22784Q487.70013 511.19662 486.59134 511.24207Q485.47687 511.26617 484.85187 512.3487Q484.22687 513.4312 484.7632 514.40845Q485.29388 515.3644 486.964 516.3466L489.22375 517.6513Q491.02347 518.69037 492.17285 518.6684Q493.33002 518.6328 493.9394 517.57733Q494.54095 516.5354 494.03165 515.5738Q493.51663 514.5909 491.8002 513.5638L489.4863 512.22784ZM500.6126 508.3315L499.7923 509.75232L490.40134 504.33044L489.81046 507.76013L488.53848 507.02576L489.35107 502.11832L489.47607 501.90182L500.6126 508.3315ZM501.18652 496.08746Q501.45645 496.83868 501.42966 497.6351Q501.3893 498.4237 500.96744 499.15442Q500.41275 500.11517 499.5251 500.55893Q498.64523 500.98914 497.56616 500.88934Q496.48712 500.78958 495.4452 500.18802Q494.3356 499.5474 493.6847 498.6123Q493.0416 497.66367 493.02682 496.6267Q492.99854 495.58197 493.6001 494.54004Q494.5454 492.9027 496.32367 492.66644Q498.0962 492.4088 500.22067 493.63538L500.64017 493.87756Q503.8742 495.74475 504.6205 497.88965Q505.3746 500.021 503.92303 502.62897L503.76678 502.8996L502.576 502.2121L502.74786 501.9144Q503.7208 500.16672 503.3803 498.72522Q503.04764 497.2702 501.18652 496.08746ZM499.93652 498.2525Q500.34277 497.54886 500.2535 496.7035Q500.16428 495.8581 499.6845 495.22028L499.11618 494.89215Q497.73596 494.09528 496.52618 494.19064Q495.3029 494.27823 494.77164 495.1984Q494.23257 496.13208 494.6216 497.11447Q495.0185 498.0833 496.18222 498.7552Q497.30533 499.40363 498.3621 499.29205Q499.40527 499.17267 499.93652 498.2525ZM509.13797 495.7527L508.43484 496.97055L499.0771 485.3974L499.7724 484.19308L509.13797 495.7527ZM510.73383 479.8948Q513.1966 481.31668 513.9087 482.8645Q514.62866 484.39877 513.5896 486.1985Q512.56616 487.97113 510.8967 488.14392Q509.22726 488.31674 506.88422 487.00006L505.0033 485.91412Q502.55408 484.50006 501.8612 482.9814Q501.1626 481.4414 502.20166 479.6417Q503.2329 477.85553 504.8675 477.68063Q506.49634 477.48438 508.90704 478.84012L510.73383 479.8948ZM507.9863 480.18494Q506.20013 479.1537 505.09134 479.19913Q503.97687 479.22324 503.35187 480.30576Q502.72687 481.3883 503.2632 482.36554Q503.79388 483.3214 505.464 484.3037L507.72375 485.6084Q509.52347 486.64746 510.67285 486.62543Q511.83002 486.58987 512.4394 485.53442Q513.04095 484.4925 512.5317 483.53088Q512.01666 482.5479 510.3002 481.52087L507.9863 480.18494ZM519.1126 476.28857L518.2923 477.70938L508.90134 472.2875L508.31046 475.7172L507.03848 474.98282L507.85107 470.07538L507.97607 469.8589L519.1126 476.28857Z" fill-rule="nonzero"/><path fill="#d9d9d9" d="M587.2147 523.01337L583.0194 530.27985L582.0046 529.6939L579.9608 523.39Q579.49225 521.9828 579.06305 521.32Q578.6416 520.6437 577.99207 520.2687Q577.1261 519.7687 576.2666 519.97614Q575.4149 520.17 574.9071 521.04956Q574.2977 522.10504 574.57074 523.03845Q574.83014 523.96405 575.8856 524.5734L575.0731 525.9807Q573.54407 525.0979 573.18066 523.57104Q572.8038 522.0364 573.7569 520.3855Q574.6475 518.8429 575.97504 518.4186Q577.31036 517.9807 578.65 518.75415Q580.28735 519.69946 581.344 523.088L582.85364 527.9108L586.0646 522.3493L587.2147 523.01337ZM587.3125 511.93777Q589.77527 513.3596 590.48737 514.9075Q591.20734 516.4417 590.1683 518.24146Q589.14484 520.0141 587.4754 520.1869Q585.80597 520.3597 583.4629 519.043L581.582 517.9571Q579.13275 516.543 578.4399 515.02435Q577.7413 513.4844 578.78033 511.68466Q579.8116 509.89847 581.44617 509.72357Q583.075 509.52734 585.4857 510.8831L587.3125 511.93777ZM584.565 512.2279Q582.7788 511.19662 581.67004 511.24207Q580.55554 511.26617 579.93054 512.3487Q579.30554 513.4313 579.8419 514.4085Q580.37256 515.3644 582.04266 516.3467L584.3024 517.65137Q586.1022 518.6904 587.2515 518.6684Q588.4087 518.6329 589.01807 517.5774Q589.6196 516.53546 589.11035 515.57385Q588.59534 514.5909 586.8789 513.56384L584.565 512.2279ZM597.2147 505.69284L593.0194 512.95935L592.0046 512.3734L589.9608 506.0695Q589.49225 504.6623 589.06305 503.9995Q588.6416 503.32318 587.99207 502.94818Q587.1261 502.44818 586.2666 502.6556Q585.4149 502.84952 584.9071 503.72906Q584.2977 504.78452 584.57074 505.71796Q584.83014 506.64355 585.8856 507.25293L585.0731 508.66022Q583.54407 507.7774 583.18066 506.25055Q582.8038 504.71585 583.7569 503.065Q584.6475 501.5224 585.97504 501.09805Q587.31036 500.6602 588.65 501.43362Q590.28735 502.37894 591.344 505.7675L592.85364 510.5903L596.0646 505.02878L597.2147 505.69284ZM597.3125 494.61728Q599.77527 496.03915 600.48737 497.58694Q601.20734 499.12122 600.1683 500.92093Q599.14484 502.69357 597.4754 502.8664Q595.80597 503.03918 593.4629 501.7225L591.582 500.63657Q589.13275 499.2225 588.4399 497.70386Q587.7413 496.16385 588.78033 494.36414Q589.8116 492.57797 591.44617 492.40308Q593.075 492.20682 595.4857 493.5626L597.3125 494.61728ZM594.565 494.90738Q592.7788 493.87613 591.67004 493.92157Q590.55554 493.94568 589.93054 495.0282Q589.30554 496.11075 589.8419 497.08798Q590.37256 498.04385 592.04266 499.02615L594.3024 500.33084Q596.1022 501.3699 597.2515 501.34787Q598.4087 501.31235 599.01807 500.25687Q599.6196 499.21494 599.11035 498.25333Q598.59534 497.27036 596.8789 496.24332L594.565 494.90738ZM604.2166 495.75272L603.5135 496.97055L594.15576 485.3974L594.8511 484.19308L604.2166 495.75272ZM605.8125 479.89484Q608.27527 481.3167 608.98737 482.8645Q609.70734 484.3988 608.6683 486.1985Q607.64484 487.97113 605.9754 488.14395Q604.30597 488.31674 601.9629 487.00006L600.082 485.91412Q597.63275 484.50006 596.9399 482.9814Q596.2413 481.44144 597.28033 479.64172Q598.3116 477.85553 599.94617 477.68063Q601.575 477.4844 603.9857 478.84015L605.8125 479.89484ZM603.065 480.18494Q601.2788 479.1537 600.17004 479.19913Q599.05554 479.22324 598.43054 480.3058Q597.80554 481.3883 598.3419 482.36554Q598.87256 483.32144 600.54266 484.3037L602.8024 485.6084Q604.6022 486.64746 605.7515 486.62546Q606.9087 486.5899 607.51807 485.53442Q608.1196 484.4925 607.61035 483.53088Q607.09534 482.54794 605.3789 481.52087L603.065 480.18494ZM614.1913 476.28857L613.371 477.7094L603.98004 472.28754L603.38916 475.71722L602.1172 474.98285L602.92975 470.0754L603.05475 469.8589L614.1913 476.28857Z" fill-rule="nonzero"/><path fill="#a4c2f4" d="M186.0 94.333336C186.0 97.64704 183.3137 100.333336 180.0 100.333336C176.6863 100.333336 174.0 97.64704 174.0 94.333336C174.0 91.01962 176.6863 88.333336 180.0 88.333336C183.3137 88.333336 186.0 91.01962 186.0 94.333336Z" fill-rule="nonzero"/><path fill="#d9d9d9" d="M200.35938 98.84896L204.42188 87.114586L206.46875 87.114586L201.20312 101.333336L199.53125 101.333336L194.28125 87.114586L196.3125 87.114586L200.35938 98.84896ZM214.89062 101.333336Q214.73438 101.020836 214.64062 100.22396Q213.375 101.53646 211.625 101.53646Q210.0625 101.53646 209.0625 100.645836Q208.0625 99.75521 208.0625 98.395836Q208.0625 96.75521 209.3125 95.84896Q210.57812 94.927086 212.84375 94.927086L214.60938 94.927086L214.60938 94.09896Q214.60938 93.145836 214.03125 92.583336Q213.46875 92.020836 212.375 92.020836Q211.40625 92.020836 210.75 92.520836Q210.09375 93.00521 210.09375 93.69271L208.28125 93.69271Q208.28125 92.91146 208.84375 92.177086Q209.40625 91.427086 210.35938 91.00521Q211.32812 90.56771 212.48438 90.56771Q214.3125 90.56771 215.34375 91.489586Q216.375 92.395836 216.42188 94.00521L216.42188 98.864586Q216.42188 100.31771 216.78125 101.177086L216.78125 101.333336L214.89062 101.333336ZM211.89062 99.958336Q212.75 99.958336 213.5 99.520836Q214.26562 99.083336 214.60938 98.38021L214.60938 96.208336L213.1875 96.208336Q209.875 96.208336 209.875 98.145836Q209.875 99.00521 210.4375 99.489586Q211.0 99.958336 211.89062 99.958336ZM221.32812 101.333336L219.53125 101.333336L219.53125 86.333336L221.32812 86.333336L221.32812 101.333336ZM226.32812 101.333336L224.53125 101.333336L224.53125 90.770836L226.32812 90.770836L226.32812 101.333336ZM224.375 87.958336Q224.375 87.520836 224.64062 87.22396Q224.92188 86.91146 225.4375 86.91146Q225.96875 86.91146 226.23438 87.22396Q226.51562 87.520836 226.51562 87.958336Q226.51562 88.395836 226.23438 88.69271Q225.96875 88.989586 225.4375 88.989586Q224.92188 88.989586 224.64062 88.69271Q224.375 88.395836 224.375 87.958336ZM228.92188 95.958336Q228.92188 93.53646 230.07812 92.052086Q231.23438 90.56771 233.09375 90.56771Q234.95312 90.56771 236.03125 91.833336L236.03125 86.333336L237.84375 86.333336L237.84375 101.333336L236.1875 101.333336L236.09375 100.19271Q235.01562 101.53646 233.07812 101.53646Q231.25 101.53646 230.07812 100.03646Q228.92188 98.520836 228.92188 96.09896L228.92188 95.958336ZM230.73438 96.16146Q230.73438 97.958336 231.46875 98.97396Q232.21875 99.989586 233.53125 99.989586Q235.25 99.989586 236.03125 98.458336L236.03125 93.59896Q235.23438 92.09896 233.54688 92.09896Q232.21875 92.09896 231.46875 93.13021Q230.73438 94.16146 230.73438 96.16146ZM255.46875 88.66146L250.90625 88.66146L250.90625 101.333336L249.04688 101.333336L249.04688 88.66146L244.48438 88.66146L244.48438 87.114586L255.46875 87.114586L255.46875 88.66146ZM256.89062 95.958336Q256.89062 94.395836 257.5 93.16146Q258.10938 91.91146 259.1875 91.239586Q260.28125 90.56771 261.6875 90.56771Q263.84375 90.56771 265.17188 92.06771Q266.51562 93.552086 266.51562 96.03646L266.51562 96.16146Q266.51562 97.708336 265.92188 98.94271Q265.32812 100.16146 264.21875 100.84896Q263.125 101.53646 261.70312 101.53646Q259.5625 101.53646 258.21875 100.03646Q256.89062 98.53646 256.89062 96.083336L256.89062 95.958336ZM258.70312 96.16146Q258.70312 97.927086 259.51562 98.989586Q260.34375 100.052086 261.70312 100.052086Q263.07812 100.052086 263.89062 98.97396Q264.70312 97.895836 264.70312 95.958336Q264.70312 94.208336 263.875 93.13021Q263.04688 92.052086 261.6875 92.052086Q260.34375 92.052086 259.51562 93.114586Q258.70312 94.177086 258.70312 96.16146ZM267.89062 95.958336Q267.89062 94.395836 268.5 93.16146Q269.10938 91.91146 270.1875 91.239586Q271.28125 90.56771 272.6875 90.56771Q274.84375 90.56771 276.17188 92.06771Q277.51562 93.552086 277.51562 96.03646L277.51562 96.16146Q277.51562 97.708336 276.92188 98.94271Q276.32812 100.16146 275.21875 100.84896Q274.125 101.53646 272.70312 101.53646Q270.5625 101.53646 269.21875 100.03646Q267.89062 98.53646 267.89062 96.083336L267.89062 95.958336ZM269.70312 96.16146Q269.70312 97.927086 270.51562 98.989586Q271.34375 100.052086 272.70312 100.052086Q274.07812 100.052086 274.89062 98.97396Q275.70312 97.895836 275.70312 95.958336Q275.70312 94.208336 274.875 93.13021Q274.04688 92.052086 272.6875 92.052086Q271.34375 92.052086 270.51562 93.114586Q269.70312 94.177086 269.70312 96.16146ZM281.32812 101.333336L279.53125 101.333336L279.53125 86.333336L281.32812 86.333336L281.32812 101.333336ZM290.51562 98.53646Q290.51562 97.802086 289.96875 97.395836Q289.42188 96.989586 288.04688 96.69271Q286.67188 96.395836 285.85938 95.989586Q285.0625 95.583336 284.67188 95.020836Q284.29688 94.44271 284.29688 93.66146Q284.29688 92.364586 285.39062 91.47396Q286.48438 90.56771 288.20312 90.56771Q290.0 90.56771 291.10938 91.50521Q292.23438 92.427086 292.23438 93.864586L290.40625 93.864586Q290.40625 93.13021 289.78125 92.59896Q289.15625 92.052086 288.20312 92.052086Q287.20312 92.052086 286.64062 92.489586Q286.09375 92.91146 286.09375 93.614586Q286.09375 94.25521 286.60938 94.59896Q287.125 94.927086 288.48438 95.239586Q289.84375 95.53646 290.67188 95.958336Q291.51562 96.364586 291.92188 96.958336Q292.32812 97.552086 292.32812 98.395836Q292.32812 99.81771 291.1875 100.677086Q290.0625 101.53646 288.25 101.53646Q286.98438 101.53646 286.0 101.083336Q285.03125 100.63021 284.46875 99.833336Q283.92188 99.020836 283.92188 98.083336L285.73438 98.083336Q285.78125 98.989586 286.45312 99.520836Q287.14062 100.052086 288.25 100.052086Q289.28125 100.052086 289.89062 99.645836Q290.51562 99.22396 290.51562 98.53646Z" fill-rule="nonzero"/><path fill="#dc3912" d="M321.0 94.333336C321.0 97.64704 318.31372 100.333336 315.0 100.333336C311.68628 100.333336 309.0 97.64704 309.0 94.333336C309.0 91.01962 311.68628 88.333336 315.0 88.333336C318.31372 88.333336 321.0 91.01962 321.0 94.333336Z" fill-rule="nonzero"/><path fill="#d9d9d9" d="M340.65625 87.114586L340.65625 96.78646Q340.65625 98.78646 339.39062 100.06771Q338.14062 101.34896 336.0 101.50521L335.5 101.53646Q333.15625 101.53646 331.76562 100.270836Q330.39062 99.00521 330.375 96.802086L330.375 87.114586L332.21875 87.114586L332.21875 96.739586Q332.21875 98.28646 333.0625 99.145836Q333.92188 99.989586 335.5 99.989586Q337.09375 99.989586 337.9375 99.145836Q338.78125 98.302086 338.78125 96.75521L338.78125 87.114586L340.65625 87.114586ZM345.07812 90.770836L345.14062 92.09896Q346.34375 90.56771 348.29688 90.56771Q351.65625 90.56771 351.67188 94.34896L351.67188 101.333336L349.875 101.333336L349.875 94.333336Q349.85938 93.19271 349.34375 92.645836Q348.84375 92.09896 347.75 92.09896Q346.875 92.09896 346.20312 92.56771Q345.54688 93.03646 345.17188 93.802086L345.17188 101.333336L343.375 101.333336L343.375 90.770836L345.07812 90.770836ZM356.32812 101.333336L354.53125 101.333336L354.53125 90.770836L356.32812 90.770836L356.32812 101.333336ZM354.375 87.958336Q354.375 87.520836 354.64062 87.22396Q354.92188 86.91146 355.4375 86.91146Q355.96875 86.91146 356.23438 87.22396Q356.51562 87.520836 356.51562 87.958336Q356.51562 88.395836 356.23438 88.69271Q355.96875 88.989586 355.4375 88.989586Q354.92188 88.989586 354.64062 88.69271Q354.375 88.395836 354.375 87.958336ZM358.92188 95.958336Q358.92188 93.47396 360.0625 92.020836Q361.21875 90.56771 363.14062 90.56771Q365.01562 90.56771 366.09375 91.833336L366.17188 90.770836L367.82812 90.770836L367.82812 105.395836L366.03125 105.395836L366.03125 100.34896Q364.9375 101.53646 363.125 101.53646Q361.20312 101.53646 360.0625 100.052086Q358.92188 98.552086 358.92188 96.083336L358.92188 95.958336ZM360.73438 96.16146Q360.73438 97.989586 361.5 99.020836Q362.26562 100.052086 363.5625 100.052086Q365.17188 100.052086 366.03125 98.63021L366.03125 93.458336Q365.17188 92.052086 363.59375 92.052086Q362.28125 92.052086 361.5 93.09896Q360.73438 94.13021 360.73438 96.16146ZM376.89062 100.28646Q375.84375 101.53646 373.79688 101.53646Q372.10938 101.53646 371.21875 100.552086Q370.34375 99.56771 370.32812 97.645836L370.32812 90.770836L372.14062 90.770836L372.14062 97.59896Q372.14062 99.989586 374.09375 99.989586Q376.15625 99.989586 376.84375 98.458336L376.84375 90.770836L378.65625 90.770836L378.65625 101.333336L376.9375 101.333336L376.89062 100.28646ZM385.75 101.53646Q383.60938 101.53646 382.25 100.13021Q380.90625 98.708336 380.90625 96.34896L380.90625 96.00521Q380.90625 94.44271 381.5 93.208336Q382.10938 91.97396 383.1875 91.270836Q384.26562 90.56771 385.53125 90.56771Q387.59375 90.56771 388.73438 91.927086Q389.875 93.28646 389.875 95.81771L389.875 96.56771L382.71875 96.56771Q382.75 98.13021 383.625 99.09896Q384.5 100.052086 385.84375 100.052086Q386.8125 100.052086 387.46875 99.66146Q388.14062 99.270836 388.64062 98.63021L389.73438 99.489586Q388.40625 101.53646 385.75 101.53646ZM385.53125 92.052086Q384.4375 92.052086 383.6875 92.84896Q382.95312 93.645836 382.78125 95.083336L388.0625 95.083336L388.0625 94.94271Q387.98438 93.56771 387.3125 92.81771Q386.65625 92.052086 385.53125 92.052086ZM408.59375 94.677086Q408.59375 96.770836 407.89062 98.333336Q407.1875 99.88021 405.89062 100.708336Q404.60938 101.53646 402.89062 101.53646Q401.20312 101.53646 399.90625 100.708336Q398.60938 99.88021 397.89062 98.34896Q397.17188 96.81771 397.15625 94.802086L397.15625 93.78646Q397.15625 91.739586 397.85938 90.16146Q398.57812 88.583336 399.875 87.75521Q401.1875 86.91146 402.85938 86.91146Q404.57812 86.91146 405.875 87.739586Q407.1875 88.56771 407.89062 90.145836Q408.59375 91.708336 408.59375 93.78646L408.59375 94.677086ZM406.71875 93.770836Q406.71875 91.239586 405.70312 89.895836Q404.6875 88.53646 402.85938 88.53646Q401.09375 88.53646 400.0625 89.895836Q399.04688 91.239586 399.01562 93.63021L399.01562 94.677086Q399.01562 97.13021 400.04688 98.53646Q401.07812 99.94271 402.89062 99.94271Q404.70312 99.94271 405.6875 98.614586Q406.6875 97.28646 406.71875 94.81771L406.71875 93.770836ZM420.71875 98.84896L422.75 90.770836L424.5625 90.770836L421.48438 101.333336L420.01562 101.333336L417.45312 93.31771L414.95312 101.333336L413.48438 101.333336L410.42188 90.770836L412.21875 90.770836L414.29688 98.677086L416.76562 90.770836L418.21875 90.770836L420.71875 98.84896ZM428.07812 90.770836L428.14062 92.09896Q429.34375 90.56771 431.29688 90.56771Q434.65625 90.56771 434.67188 94.34896L434.67188 101.333336L432.875 101.333336L432.875 94.333336Q432.85938 93.19271 432.34375 92.645836Q431.84375 92.09896 430.75 92.09896Q429.875 92.09896 429.20312 92.56771Q428.54688 93.03646 428.17188 93.802086L428.17188 101.333336L426.375 101.333336L426.375 90.770836L428.07812 90.770836ZM441.75 101.53646Q439.60938 101.53646 438.25 100.13021Q436.90625 98.708336 436.90625 96.34896L436.90625 96.00521Q436.90625 94.44271 437.5 93.208336Q438.10938 91.97396 439.1875 91.270836Q440.26562 90.56771 441.53125 90.56771Q443.59375 90.56771 444.73438 91.927086Q445.875 93.28646 445.875 95.81771L445.875 96.56771L438.71875 96.56771Q438.75 98.13021 439.625 99.09896Q440.5 100.052086 441.84375 100.052086Q442.8125 100.052086 443.46875 99.66146Q444.14062 99.270836 444.64062 98.63021L445.73438 99.489586Q444.40625 101.53646 441.75 101.53646ZM441.53125 92.052086Q440.4375 92.052086 439.6875 92.84896Q438.95312 93.645836 438.78125 95.083336L444.0625 95.083336L444.0625 94.94271Q443.98438 93.56771 443.3125 92.81771Q442.65625 92.052086 441.53125 92.052086ZM453.46875 92.38021Q453.0625 92.31771 452.59375 92.31771Q450.8125 92.31771 450.17188 93.833336L450.17188 101.333336L448.375 101.333336L448.375 90.770836L450.125 90.770836L450.15625 91.989586Q451.04688 90.56771 452.67188 90.56771Q453.20312 90.56771 453.46875 90.708336L453.46875 92.38021ZM461.51562 98.53646Q461.51562 97.802086 460.96875 97.395836Q460.42188 96.989586 459.04688 96.69271Q457.67188 96.395836 456.85938 95.989586Q456.0625 95.583336 455.67188 95.020836Q455.29688 94.44271 455.29688 93.66146Q455.29688 92.364586 456.39062 91.47396Q457.48438 90.56771 459.20312 90.56771Q461.0 90.56771 462.10938 91.50521Q463.23438 92.427086 463.23438 93.864586L461.40625 93.864586Q461.40625 93.13021 460.78125 92.59896Q460.15625 92.052086 459.20312 92.052086Q458.20312 92.052086 457.64062 92.489586Q457.09375 92.91146 457.09375 93.614586Q457.09375 94.25521 457.60938 94.59896Q458.125 94.927086 459.48438 95.239586Q460.84375 95.53646 461.67188 95.958336Q462.51562 96.364586 462.92188 96.958336Q463.32812 97.552086 463.32812 98.395836Q463.32812 99.81771 462.1875 100.677086Q461.0625 101.53646 459.25 101.53646Q457.98438 101.53646 457.0 101.083336Q456.03125 100.63021 455.46875 99.833336Q454.92188 99.020836 454.92188 98.083336L456.73438 98.083336Q456.78125 98.989586 457.45312 99.520836Q458.14062 100.052086 459.25 100.052086Q460.28125 100.052086 460.89062 99.645836Q461.51562 99.22396 461.51562 98.53646Z" fill-rule="nonzero"/><path fill="#d9d9d9" d="M45.01875 36.784374L38.159374 36.784374L38.159374 55.8L35.3625 55.8L35.3625 36.784374L28.51875 36.784374L28.51875 34.471874L45.01875 34.471874L45.01875 36.784374ZM47.128124 47.721874Q47.128124 45.39375 48.05 43.534374Q48.971874 41.675 50.596874 40.675Q52.2375 39.659374 54.33125 39.659374Q57.565624 39.659374 59.565624 41.909374Q61.565624 44.14375 61.565624 47.8625L61.565624 48.05Q61.565624 50.3625 60.675 52.20625Q59.784374 54.034374 58.128124 55.065624Q56.4875 56.096874 54.3625 56.096874Q51.128124 56.096874 49.128124 53.8625Q47.128124 51.6125 47.128124 47.925L47.128124 47.721874ZM49.8625 48.05Q49.8625 50.690624 51.08125 52.284374Q52.3 53.878124 54.3625 53.878124Q56.425 53.878124 57.628124 52.26875Q58.846874 50.64375 58.846874 47.721874Q58.846874 45.128124 57.6125 43.503124Q56.378124 41.878124 54.33125 41.878124Q52.315624 41.878124 51.08125 43.4875Q49.8625 45.08125 49.8625 48.05ZM64.12813 47.721874Q64.12813 45.39375 65.05 43.534374Q65.97188 41.675 67.59688 40.675Q69.2375 39.659374 71.33125 39.659374Q74.56563 39.659374 76.56563 41.909374Q78.56563 44.14375 78.56563 47.8625L78.56563 48.05Q78.56563 50.3625 77.675 52.20625Q76.78438 54.034374 75.12813 55.065624Q73.4875 56.096874 71.3625 56.096874Q68.12813 56.096874 66.12813 53.8625Q64.12813 51.6125 64.12813 47.925L64.12813 47.721874ZM66.8625 48.05Q66.8625 50.690624 68.08125 52.284374Q69.3 53.878124 71.3625 53.878124Q73.425 53.878124 74.62813 52.26875Q75.84688 50.64375 75.84688 47.721874Q75.84688 45.128124 74.6125 43.503124Q73.37813 41.878124 71.33125 41.878124Q69.31563 41.878124 68.08125 43.4875Q66.8625 45.08125 66.8625 48.05ZM84.8 55.8L82.08125 55.8L82.08125 33.3L84.8 33.3L84.8 55.8ZM98.08125 51.596874Q98.08125 50.503124 97.25313 49.89375Q96.425 49.284374 94.3625 48.846874Q92.31563 48.409374 91.09688 47.8Q89.89375 47.175 89.31563 46.33125Q88.7375 45.471874 88.7375 44.3Q88.7375 42.346874 90.37813 41.003124Q92.03438 39.659374 94.59688 39.659374Q97.28438 39.659374 98.95625 41.05Q100.64375 42.440624 100.64375 44.6125L97.925 44.6125Q97.925 43.4875 96.97188 42.690624Q96.03438 41.878124 94.59688 41.878124Q93.1125 41.878124 92.26875 42.534374Q91.44063 43.175 91.44063 44.20625Q91.44063 45.190624 92.22188 45.690624Q93.00313 46.190624 95.01875 46.64375Q97.05 47.096874 98.31563 47.7375Q99.58125 48.3625 100.175 49.253124Q100.78438 50.128124 100.78438 51.409374Q100.78438 53.534374 99.08125 54.815624Q97.39375 56.096874 94.675 56.096874Q92.78438 56.096874 91.31563 55.425Q89.84688 54.7375 89.01875 53.534374Q88.19063 52.33125 88.19063 50.925L90.90938 50.925Q90.97188 52.284374 91.9875 53.08125Q93.01875 53.878124 94.675 53.878124Q96.22188 53.878124 97.14375 53.253124Q98.08125 52.628124 98.08125 51.596874ZM106.56563 41.8625Q108.3625 39.659374 111.25313 39.659374Q116.26875 39.659374 116.31563 45.33125L116.31563 55.8L113.6125 55.8L113.6125 45.315624Q113.59688 43.596874 112.81563 42.784374Q112.05 41.95625 110.425 41.95625Q109.1125 41.95625 108.1125 42.659374Q107.1125 43.3625 106.56563 44.503124L106.56563 55.8L103.84688 55.8L103.84688 33.3L106.56563 33.3L106.56563 41.8625ZM127.425 56.096874Q124.20625 56.096874 122.175 53.9875Q120.15938 51.8625 120.15938 48.315624L120.15938 47.815624Q120.15938 45.45625 121.06563 43.6125Q121.97188 41.753124 123.58125 40.70625Q125.20625 39.659374 127.09688 39.659374Q130.175 39.659374 131.89375 41.690624Q133.6125 43.721874 133.6125 47.51875L133.6125 48.64375L122.87813 48.64375Q122.925 50.9875 124.2375 52.440624Q125.55 53.878124 127.58125 53.878124Q129.00313 53.878124 130.00313 53.3Q131.00313 52.70625 131.75313 51.7375L133.40938 53.034374Q131.40938 56.096874 127.425 56.096874ZM127.09688 41.878124Q125.45625 41.878124 124.33125 43.08125Q123.22188 44.26875 122.95625 46.425L130.89375 46.425L130.89375 46.221874Q130.78438 44.159374 129.78438 43.01875Q128.78438 41.878124 127.09688 41.878124ZM136.19063 47.7375Q136.19063 44.096874 137.90938 41.878124Q139.64375 39.659374 142.44063 39.659374Q145.2375 39.659374 146.8625 41.565624L146.8625 33.3L149.56563 33.3L149.56563 55.8L147.08125 55.8L146.94063 54.096874Q145.31563 56.096874 142.425 56.096874Q139.65938 56.096874 137.925 53.846874Q136.19063 51.58125 136.19063 47.940624L136.19063 47.7375ZM138.90938 48.05Q138.90938 50.753124 140.01875 52.284374Q141.12813 53.8 143.09688 53.8Q145.675 53.8 146.8625 51.471874L146.8625 44.190624Q145.64375 41.95625 143.12813 41.95625Q141.12813 41.95625 140.01875 43.503124Q138.90938 45.034374 138.90938 48.05ZM167.56563 46.3Q163.94063 45.253124 162.28438 43.7375Q160.64375 42.221874 160.64375 39.9875Q160.64375 37.471874 162.65938 35.83125Q164.675 34.175 167.89375 34.175Q170.09688 34.175 171.81563 35.034374Q173.53438 35.878124 174.47188 37.378124Q175.425 38.8625 175.425 40.64375L172.59688 40.64375Q172.59688 38.70625 171.3625 37.596874Q170.14375 36.4875 167.89375 36.4875Q165.81563 36.4875 164.64375 37.409374Q163.4875 38.33125 163.4875 39.95625Q163.4875 41.253124 164.59688 42.159374Q165.70625 43.05 168.3625 43.8Q171.01875 44.55 172.51875 45.45625Q174.01875 46.346874 174.7375 47.55Q175.47188 48.753124 175.47188 50.378124Q175.47188 52.971874 173.44063 54.534374Q171.425 56.096874 168.05 56.096874Q165.84688 56.096874 163.94063 55.253124Q162.03438 54.409374 161.00313 52.940624Q159.97188 51.471874 159.97188 49.6125L162.8 49.6125Q162.8 51.55 164.22188 52.675Q165.65938 53.8 168.05 53.8Q170.26875 53.8 171.45625 52.89375Q172.64375 51.971874 172.64375 50.409374Q172.64375 48.846874 171.53438 47.9875Q170.44063 47.128124 167.56563 46.3ZM182.53438 36.1125L182.53438 39.95625L185.4875 39.95625L185.4875 42.05L182.53438 42.05L182.53438 51.878124Q182.53438 52.83125 182.925 53.315624Q183.31563 53.784374 184.26875 53.784374Q184.7375 53.784374 185.56563 53.596874L185.56563 55.8Q184.4875 56.096874 183.4875 56.096874Q181.65938 56.096874 180.7375 55.003124Q179.81563 53.89375 179.81563 51.878124L179.81563 42.05L176.925 42.05L176.925 39.95625L179.81563 39.95625L179.81563 36.1125L182.53438 36.1125ZM198.64375 55.8Q198.40938 55.33125 198.25313 54.128124Q196.3625 56.096874 193.7375 56.096874Q191.39375 56.096874 189.89375 54.76875Q188.39375 53.440624 188.39375 51.409374Q188.39375 48.925 190.26875 47.565624Q192.15938 46.190624 195.58125 46.190624L198.20625 46.190624L198.20625 44.940624Q198.20625 43.51875 197.3625 42.690624Q196.51875 41.846874 194.8625 41.846874Q193.40938 41.846874 192.425 42.58125Q191.44063 43.3 191.44063 44.346874L188.72188 44.346874Q188.72188 43.159374 189.56563 42.05Q190.40938 40.940624 191.84688 40.3Q193.28438 39.659374 195.01875 39.659374Q197.75313 39.659374 199.3 41.034374Q200.8625 42.39375 200.925 44.8L200.925 52.096874Q200.925 54.26875 201.47188 55.565624L201.47188 55.8L198.64375 55.8ZM194.14375 53.7375Q195.40938 53.7375 196.55 53.08125Q197.70625 52.409374 198.20625 51.3625L198.20625 48.1125L196.08125 48.1125Q191.1125 48.1125 191.1125 51.01875Q191.1125 52.3 191.95625 53.01875Q192.8 53.7375 194.14375 53.7375ZM208.53438 36.1125L208.53438 39.95625L211.4875 39.95625L211.4875 42.05L208.53438 42.05L208.53438 51.878124Q208.53438 52.83125 208.925 53.315624Q209.31563 53.784374 210.26875 53.784374Q210.7375 53.784374 211.56563 53.596874L211.56563 55.8Q210.4875 56.096874 209.4875 56.096874Q207.65938 56.096874 206.7375 55.003124Q205.81563 53.89375 205.81563 51.878124L205.81563 42.05L202.925 42.05L202.925 39.95625L205.81563 39.95625L205.81563 36.1125L208.53438 36.1125ZM217.8 55.8L215.08125 55.8L215.08125 39.95625L217.8 39.95625L217.8 55.8ZM214.8625 35.753124Q214.8625 35.08125 215.26875 34.628124Q215.675 34.175 216.45625 34.175Q217.25313 34.175 217.65938 34.628124Q218.08125 35.08125 218.08125 35.753124Q218.08125 36.409374 217.65938 36.846874Q217.25313 37.284374 216.45625 37.284374Q215.675 37.284374 215.26875 36.846874Q214.8625 36.409374 214.8625 35.753124ZM231.08125 51.596874Q231.08125 50.503124 230.25313 49.89375Q229.425 49.284374 227.3625 48.846874Q225.31563 48.409374 224.09688 47.8Q222.89375 47.175 222.31563 46.33125Q221.7375 45.471874 221.7375 44.3Q221.7375 42.346874 223.37813 41.003124Q225.03438 39.659374 227.59688 39.659374Q230.28438 39.659374 231.95625 41.05Q233.64375 42.440624 233.64375 44.6125L230.925 44.6125Q230.925 43.4875 229.97188 42.690624Q229.03438 41.878124 227.59688 41.878124Q226.1125 41.878124 225.26875 42.534374Q224.44063 43.175 224.44063 44.20625Q224.44063 45.190624 225.22188 45.690624Q226.00313 46.190624 228.01875 46.64375Q230.05 47.096874 231.31563 47.7375Q232.58125 48.3625 233.175 49.253124Q233.78438 50.128124 233.78438 51.409374Q233.78438 53.534374 232.08125 54.815624Q230.39375 56.096874 227.675 56.096874Q225.78438 56.096874 224.31563 55.425Q222.84688 54.7375 222.01875 53.534374Q221.19063 52.33125 221.19063 50.925L223.90938 50.925Q223.97188 52.284374 224.9875 53.08125Q226.01875 53.878124 227.675 53.878124Q229.22188 53.878124 230.14375 53.253124Q231.08125 52.628124 231.08125 51.596874ZM240.53438 36.1125L240.53438 39.95625L243.4875 39.95625L243.4875 42.05L240.53438 42.05L240.53438 51.878124Q240.53438 52.83125 240.925 53.315624Q241.31563 53.784374 242.26875 53.784374Q242.7375 53.784374 243.56563 53.596874L243.56563 55.8Q242.4875 56.096874 241.4875 56.096874Q239.65938 56.096874 238.7375 55.003124Q237.81563 53.89375 237.81563 51.878124L237.81563 42.05L234.925 42.05L234.925 39.95625L237.81563 39.95625L237.81563 36.1125L240.53438 36.1125ZM249.8 55.8L247.08125 55.8L247.08125 39.95625L249.8 39.95625L249.8 55.8ZM246.8625 35.753124Q246.8625 35.08125 247.26875 34.628124Q247.675 34.175 248.45625 34.175Q249.25313 34.175 249.65938 34.628124Q250.08125 35.08125 250.08125 35.753124Q250.08125 36.409374 249.65938 36.846874Q249.25313 37.284374 248.45625 37.284374Q247.675 37.284374 247.26875 36.846874Q246.8625 36.409374 246.8625 35.753124ZM260.20624 53.878124Q261.65936 53.878124 262.7375 53.003124Q263.83124 52.128124 263.9406 50.8L266.5031 50.8Q266.4406 52.159374 265.5656 53.39375Q264.70624 54.628124 263.2531 55.3625Q261.8156 56.096874 260.20624 56.096874Q256.97186 56.096874 255.05 53.940624Q253.14375 51.76875 253.14375 48.01875L253.14375 47.565624Q253.14375 45.253124 253.9875 43.45625Q254.84688 41.64375 256.425 40.659374Q258.01874 39.659374 260.1906 39.659374Q262.8625 39.659374 264.6281 41.253124Q266.39374 42.846874 266.5031 45.39375L263.9406 45.39375Q263.83124 43.8625 262.78436 42.878124Q261.7375 41.878124 260.1906 41.878124Q258.1281 41.878124 256.9875 43.378124Q255.8625 44.8625 255.8625 47.675L255.8625 48.175Q255.8625 50.925 256.9875 52.409374Q258.1125 53.878124 260.20624 53.878124ZM279.08124 51.596874Q279.08124 50.503124 278.2531 49.89375Q277.425 49.284374 275.3625 48.846874Q273.3156 48.409374 272.09686 47.8Q270.89374 47.175 270.3156 46.33125Q269.7375 45.471874 269.7375 44.3Q269.7375 42.346874 271.3781 41.003124Q273.03436 39.659374 275.59686 39.659374Q278.28436 39.659374 279.95624 41.05Q281.64374 42.440624 281.64374 44.6125L278.925 44.6125Q278.925 43.4875 277.97186 42.690624Q277.03436 41.878124 275.59686 41.878124Q274.1125 41.878124 273.26874 42.534374Q272.4406 43.175 272.4406 44.20625Q272.4406 45.190624 273.22186 45.690624Q274.0031 46.190624 276.01874 46.64375Q278.05 47.096874 279.3156 47.7375Q280.58124 48.3625 281.175 49.253124Q281.78436 50.128124 281.78436 51.409374Q281.78436 53.534374 280.08124 54.815624Q278.39374 56.096874 275.675 56.096874Q273.78436 56.096874 272.3156 55.425Q270.84686 54.7375 270.01874 53.534374Q269.1906 52.33125 269.1906 50.925L271.90936 50.925Q271.97186 52.284374 272.9875 53.08125Q274.01874 53.878124 275.675 53.878124Q277.22186 53.878124 278.14374 53.253124Q279.08124 52.628124 279.08124 51.596874Z" fill-rule="nonzero"/></svg>