<svg id="Layer_1" data-name="Layer 1" xmlns="http://www.w3.org/2000/svg" viewBox="0 0 278.06 122.4"><defs><style>.cls-1{fill:#aec338;}.cls-2{fill:#676767;}.cls-3{fill:#37833f;}.cls-4{fill:none;}.cls-5{fill:#86ae3f;}.cls-6{fill:#d6d838;}</style></defs><title>LOGO_CatRIS</title><polygon class="cls-1" points="95.71 85.81 97.44 87.41 98.89 85.84 97.22 84.3 95.71 85.81"/><path class="cls-2" d="M113.93,79.54a5.08,5.08,0,0,1,5.29-5.21,4.56,4.56,0,0,1,4,2.26l-1.52.77a3,3,0,0,0-2.53-1.46,3.64,3.64,0,0,0,0,7.28,3,3,0,0,0,2.53-1.47l1.52.77a4.57,4.57,0,0,1-4,2.27A5.08,5.08,0,0,1,113.93,79.54Z"/><path class="cls-2" d="M129.1,84.57v-.79a3.08,3.08,0,0,1-2.36,1,2.42,2.42,0,0,1-2.53-2.42A2.35,2.35,0,0,1,126.74,80a3,3,0,0,1,2.36.94V79.81c0-.85-.7-1.36-1.71-1.36a3,3,0,0,0-2.16.92l-.65-1.1a4.36,4.36,0,0,1,3.07-1.18c1.62,0,3,.68,3,2.65v4.83Zm0-1.66V81.8a2.15,2.15,0,0,0-1.74-.75,1.32,1.32,0,1,0,0,2.61A2.12,2.12,0,0,0,129.1,82.91Z"/><path class="cls-2" d="M133.06,82.88V78.66h-1.21V77.27h1.21v-2h1.59v2h1.48v1.39h-1.48v3.82c0,.5.24.87.69.87a1.06,1.06,0,0,0,.71-.26l.38,1.19a2.12,2.12,0,0,1-1.5.47A1.68,1.68,0,0,1,133.06,82.88Z"/><path class="cls-2" d="M142,84.57v-.79a3.09,3.09,0,0,1-2.36,1,2.43,2.43,0,0,1-2.54-2.42A2.36,2.36,0,0,1,139.66,80a3,3,0,0,1,2.36.94V79.81c0-.85-.7-1.36-1.71-1.36a3,3,0,0,0-2.16.92l-.65-1.1a4.36,4.36,0,0,1,3.07-1.18c1.61,0,3,.68,3,2.65v4.83Zm0-1.66V81.8a2.15,2.15,0,0,0-1.74-.75,1.32,1.32,0,1,0,0,2.61A2.12,2.12,0,0,0,142,82.91Z"/><path class="cls-2" d="M145.66,84.57V74.49h1.59V84.57Z"/><path class="cls-2" d="M148.85,80.91a3.76,3.76,0,1,1,3.75,3.84A3.65,3.65,0,0,1,148.85,80.91Zm5.86,0a2.13,2.13,0,1,0-2.11,2.44A2.18,2.18,0,0,0,154.71,80.91Z"/><path class="cls-2" d="M157.87,86.44l.74-1.15a2.84,2.84,0,0,0,2.31.94,1.92,1.92,0,0,0,2.16-2v-.87a3,3,0,0,1-2.34,1.2c-1.86,0-3.23-1.34-3.23-3.74s1.36-3.75,3.23-3.75a2.9,2.9,0,0,1,2.34,1.19v-1h1.59v6.92c0,2.63-1.95,3.34-3.75,3.34A4.1,4.1,0,0,1,157.87,86.44Zm5.21-4.24V79.48a2.35,2.35,0,0,0-1.87-1,2.36,2.36,0,0,0,0,4.68A2.37,2.37,0,0,0,163.08,82.2Z"/><path class="cls-2" d="M171.65,84.57v-1a3.5,3.5,0,0,1-2.58,1.15,2.08,2.08,0,0,1-2.35-2.31V77.27h1.59v4.6c0,1.13.57,1.48,1.47,1.48a2.43,2.43,0,0,0,1.87-1V77.27h1.59v7.3Z"/><path class="cls-2" d="M174.84,80.91a3.69,3.69,0,0,1,3.7-3.82c2.19,0,3.6,1.68,3.6,4v.38H176.5a2.21,2.21,0,0,0,2.33,2,3.12,3.12,0,0,0,2.07-.8l.72,1a4.23,4.23,0,0,1-3,1.06A3.67,3.67,0,0,1,174.84,80.91Zm3.7-2.52a2,2,0,0,0-2,1.93h4.1A1.94,1.94,0,0,0,178.54,78.39Z"/><path class="cls-2" d="M187.14,80.91a3.76,3.76,0,1,1,3.74,3.84A3.65,3.65,0,0,1,187.14,80.91Zm5.86,0a2.13,2.13,0,1,0-2.12,2.44A2.19,2.19,0,0,0,193,80.91Z"/><path class="cls-2" d="M196.63,84.57V78.66h-1.21V77.27h1.21v-.4a2.25,2.25,0,0,1,2.31-2.53,2.36,2.36,0,0,1,1.75.64l-.62,1a1.16,1.16,0,0,0-.84-.32c-.62,0-1,.41-1,1.23v.4h1.48v1.39h-1.48v5.91Z"/><path class="cls-2" d="M210.59,84.57l-2.24-3.76H206.6v3.76h-1.77V74.49h4.43a3.06,3.06,0,0,1,3.29,3.16,2.83,2.83,0,0,1-2.38,3l2.46,4Zm.15-6.92a1.59,1.59,0,0,0-1.72-1.6H206.6v3.2H209A1.59,1.59,0,0,0,210.74,77.65Z"/><path class="cls-2" d="M213.37,80.91a3.69,3.69,0,0,1,3.7-3.82c2.19,0,3.6,1.68,3.6,4v.38H215a2.21,2.21,0,0,0,2.33,2,3.12,3.12,0,0,0,2.07-.8l.72,1a4.21,4.21,0,0,1-3,1.06A3.67,3.67,0,0,1,213.37,80.91Zm3.7-2.52a2,2,0,0,0-2,1.93h4.11A2,2,0,0,0,217.07,78.39Z"/><path class="cls-2" d="M221.61,83.62l.72-1.15a3.76,3.76,0,0,0,2.48,1c.95,0,1.43-.41,1.43-1,0-1.43-4.41-.4-4.41-3.2,0-1.19,1-2.22,2.87-2.22a4.16,4.16,0,0,1,2.84,1l-.66,1.12a3,3,0,0,0-2.16-.88c-.83,0-1.36.38-1.36.89,0,1.3,4.41.33,4.41,3.23,0,1.29-1.07,2.27-3,2.27A4.41,4.41,0,0,1,221.61,83.62Z"/><path class="cls-2" d="M228.92,80.91a3.69,3.69,0,0,1,3.7-3.82c2.19,0,3.59,1.68,3.59,4v.38h-5.63a2.21,2.21,0,0,0,2.33,2,3.12,3.12,0,0,0,2.07-.8l.72,1a4.23,4.23,0,0,1-3,1.06A3.67,3.67,0,0,1,228.92,80.91Zm3.7-2.52a2,2,0,0,0-2.05,1.93h4.1A2,2,0,0,0,232.62,78.39Z"/><path class="cls-2" d="M242.24,84.57v-.79a3.07,3.07,0,0,1-2.35,1,2.42,2.42,0,0,1-2.54-2.42A2.35,2.35,0,0,1,239.89,80a3,3,0,0,1,2.35.94V79.81c0-.85-.69-1.36-1.7-1.36a3,3,0,0,0-2.16.92l-.65-1.1a4.32,4.32,0,0,1,3.06-1.18c1.62,0,3,.68,3,2.65v4.83Zm0-1.66V81.8a2.15,2.15,0,0,0-1.73-.75,1.33,1.33,0,1,0,0,2.61A2.12,2.12,0,0,0,242.24,82.91Z"/><path class="cls-2" d="M245.89,84.57v-7.3h1.58v1.08a3.11,3.11,0,0,1,2.37-1.24v1.57a2.24,2.24,0,0,0-.49-.05,2.54,2.54,0,0,0-1.88,1v5Z"/><path class="cls-2" d="M250.68,80.91a3.66,3.66,0,0,1,3.77-3.82,3.3,3.3,0,0,1,2.8,1.3l-1,1a1.94,1.94,0,0,0-1.68-.86,2.2,2.2,0,0,0-2.21,2.41,2.22,2.22,0,0,0,2.21,2.44,2,2,0,0,0,1.68-.87l1,1a3.28,3.28,0,0,1-2.8,1.3A3.66,3.66,0,0,1,250.68,80.91Z"/><path class="cls-2" d="M263.58,84.57V80c0-1.14-.59-1.48-1.48-1.48a2.43,2.43,0,0,0-1.87,1v5.09h-1.59V74.49h1.59v3.78a3.49,3.49,0,0,1,2.58-1.18,2.09,2.09,0,0,1,2.36,2.31v5.17Z"/><path class="cls-2" d="M114.38,99.68V89.6h1.77V99.68Z"/><path class="cls-2" d="M123.18,99.68V95.12c0-1.14-.58-1.51-1.47-1.51a2.38,2.38,0,0,0-1.87,1v5.09h-1.59v-7.3h1.59v1a3.46,3.46,0,0,1,2.57-1.18,2.1,2.1,0,0,1,2.35,2.34v5.14Z"/><path class="cls-2" d="M127.2,99.68V93.77H126V92.38h1.21V92a2.25,2.25,0,0,1,2.31-2.53,2.36,2.36,0,0,1,1.75.64l-.62,1a1.17,1.17,0,0,0-.85-.32c-.62,0-1,.41-1,1.23v.4h1.48v1.39h-1.48v5.91Z"/><path class="cls-2" d="M131.47,99.68v-7.3h1.59v1.08a3.09,3.09,0,0,1,2.37-1.24v1.57a2.34,2.34,0,0,0-.5-.05,2.54,2.54,0,0,0-1.87,1v5Z"/><path class="cls-2" d="M141.17,99.68v-.79a3.07,3.07,0,0,1-2.35,1,2.42,2.42,0,0,1-2.54-2.42,2.35,2.35,0,0,1,2.54-2.37,3,3,0,0,1,2.35.94V94.92c0-.85-.69-1.36-1.71-1.36a3,3,0,0,0-2.16.92l-.64-1.1a4.32,4.32,0,0,1,3.06-1.18c1.62,0,3,.68,3,2.65v4.83Zm0-1.66V96.91a2.15,2.15,0,0,0-1.74-.75,1.32,1.32,0,1,0,0,2.61A2.12,2.12,0,0,0,141.17,98Z"/><path class="cls-2" d="M144.18,98.73l.73-1.15a3.74,3.74,0,0,0,2.47,1c1,0,1.44-.41,1.44-1,0-1.43-4.41-.4-4.41-3.2,0-1.19,1-2.22,2.87-2.22a4.18,4.18,0,0,1,2.84,1l-.67,1.12a2.94,2.94,0,0,0-2.16-.88c-.83,0-1.36.38-1.36.89,0,1.3,4.41.33,4.41,3.23,0,1.29-1.07,2.27-3,2.27A4.45,4.45,0,0,1,144.18,98.73Z"/><path class="cls-2" d="M152.26,98V93.77h-1.2V92.38h1.2v-2h1.59v2h1.48v1.39h-1.48v3.82c0,.5.24.87.7.87a1,1,0,0,0,.7-.26l.38,1.19a2.07,2.07,0,0,1-1.49.47A1.68,1.68,0,0,1,152.26,98Z"/><path class="cls-2" d="M156.77,99.68v-7.3h1.58v1.08a3.11,3.11,0,0,1,2.37-1.24v1.57a2.24,2.24,0,0,0-.49-.05,2.54,2.54,0,0,0-1.88,1v5Z"/><path class="cls-2" d="M166.93,99.68v-1a3.47,3.47,0,0,1-2.58,1.15A2.07,2.07,0,0,1,162,97.55V92.38h1.59V97c0,1.13.57,1.48,1.46,1.48a2.41,2.41,0,0,0,1.87-1V92.38h1.59v7.3Z"/><path class="cls-2" d="M170.12,96a3.67,3.67,0,0,1,3.78-3.82,3.3,3.3,0,0,1,2.8,1.3l-1,1a1.91,1.91,0,0,0-1.67-.86A2.2,2.2,0,0,0,171.77,96,2.22,2.22,0,0,0,174,98.46a2,2,0,0,0,1.67-.87l1,1a3.28,3.28,0,0,1-2.8,1.3A3.67,3.67,0,0,1,170.12,96Z"/><path class="cls-2" d="M178.4,98V93.77h-1.2V92.38h1.2v-2H180v2h1.48v1.39H180v3.82c0,.5.24.87.7.87a1.08,1.08,0,0,0,.71-.26l.37,1.19a2.07,2.07,0,0,1-1.49.47A1.68,1.68,0,0,1,178.4,98Z"/><path class="cls-2" d="M187.83,99.68v-1a3.49,3.49,0,0,1-2.58,1.15,2.07,2.07,0,0,1-2.34-2.31V92.38h1.58V97c0,1.13.58,1.48,1.47,1.48a2.43,2.43,0,0,0,1.87-1V92.38h1.59v7.3Z"/><path class="cls-2" d="M191.47,99.68v-7.3h1.59v1.08a3.09,3.09,0,0,1,2.37-1.24v1.57a2.27,2.27,0,0,0-.5-.05,2.54,2.54,0,0,0-1.87,1v5Z"/><path class="cls-2" d="M196.26,96A3.7,3.7,0,0,1,200,92.2c2.19,0,3.59,1.68,3.59,4v.38h-5.63a2.2,2.2,0,0,0,2.32,2,3.1,3.1,0,0,0,2.07-.8l.73,1a4.24,4.24,0,0,1-3,1.06A3.68,3.68,0,0,1,196.26,96ZM200,93.5a2,2,0,0,0-2.06,1.93H202A2,2,0,0,0,200,93.5Z"/><path class="cls-2" d="M208.41,98.26l1-1.36a4.37,4.37,0,0,0,3.19,1.39c1.45,0,2-.71,2-1.38,0-2.11-5.88-.8-5.88-4.51,0-1.66,1.47-3,3.67-3a5.25,5.25,0,0,1,3.78,1.41l-1,1.31A4.14,4.14,0,0,0,212.25,91c-1,0-1.71.5-1.71,1.26,0,1.87,5.86.71,5.86,4.47,0,1.68-1.17,3.11-3.89,3.11A5.41,5.41,0,0,1,208.41,98.26Z"/><path class="cls-2" d="M217.54,96a3.69,3.69,0,0,1,3.7-3.82c2.19,0,3.6,1.68,3.6,4v.38H219.2a2.21,2.21,0,0,0,2.33,2,3.12,3.12,0,0,0,2.07-.8l.72,1a4.23,4.23,0,0,1-3,1.06A3.67,3.67,0,0,1,217.54,96Zm3.7-2.52a2,2,0,0,0-2.05,1.93h4.11A2,2,0,0,0,221.24,93.5Z"/><path class="cls-2" d="M226.41,99.68v-7.3H228v1.08a3.09,3.09,0,0,1,2.37-1.24v1.57a2.41,2.41,0,0,0-.5-.05,2.51,2.51,0,0,0-1.87,1v5Z"/><path class="cls-2" d="M233.57,99.68l-3-7.3h1.7l2.13,5.47,2.13-5.47h1.7l-3,7.3Z"/><path class="cls-2" d="M239.06,90.51a1,1,0,1,1,1,1A1,1,0,0,1,239.06,90.51Zm.19,9.17v-7.3h1.59v7.3Z"/><path class="cls-2" d="M242.44,96a3.67,3.67,0,0,1,3.78-3.82A3.27,3.27,0,0,1,249,93.5l-1,1a1.94,1.94,0,0,0-1.68-.86,2.19,2.19,0,0,0-2.2,2.41,2.22,2.22,0,0,0,2.2,2.44,2,2,0,0,0,1.68-.87l1,1a3.25,3.25,0,0,1-2.79,1.3A3.67,3.67,0,0,1,242.44,96Z"/><path class="cls-2" d="M250,96a3.69,3.69,0,0,1,3.7-3.82c2.19,0,3.6,1.68,3.6,4v.38h-5.64a2.21,2.21,0,0,0,2.33,2,3.12,3.12,0,0,0,2.07-.8l.72,1a4.21,4.21,0,0,1-3,1.06A3.67,3.67,0,0,1,250,96Zm3.7-2.52a2,2,0,0,0-2.05,1.93h4.11A2,2,0,0,0,253.65,93.5Z"/><path class="cls-2" d="M258.19,98.73l.72-1.15a3.76,3.76,0,0,0,2.48,1c.95,0,1.43-.41,1.43-1,0-1.43-4.41-.4-4.41-3.2,0-1.19,1-2.22,2.87-2.22a4.16,4.16,0,0,1,2.84,1l-.66,1.12a3,3,0,0,0-2.16-.88c-.83,0-1.36.38-1.36.89,0,1.3,4.41.33,4.41,3.23,0,1.29-1.07,2.27-3,2.27A4.41,4.41,0,0,1,258.19,98.73Z"/><path class="cls-3" d="M114.2,44.2c0-10.25,7.65-17.26,17.51-17.26a15.06,15.06,0,0,1,13.4,7.51l-5,2.54a9.9,9.9,0,0,0-8.4-4.85c-6.61,0-11.51,5.06-11.51,12.06s4.9,12,11.51,12a9.79,9.79,0,0,0,8.4-4.85l5,2.55a15.14,15.14,0,0,1-13.4,7.5C121.85,61.45,114.2,54.45,114.2,44.2Z"/><path class="cls-3" d="M165,60.85v-2.6a10.19,10.19,0,0,1-7.8,3.2c-4,0-8.4-2.65-8.4-8,0-5.55,4.45-7.85,8.4-7.85,3.25,0,6,1,7.8,3.1V45.1c0-2.8-2.3-4.5-5.65-4.5a9.89,9.89,0,0,0-7.15,3L150,40a14.41,14.41,0,0,1,10.15-3.9c5.35,0,10.06,2.26,10.06,8.76v16Zm0-5.5V51.7a7.07,7.07,0,0,0-5.75-2.5c-2.95,0-5.15,1.7-5.15,4.35s2.2,4.3,5.15,4.3A7.07,7.07,0,0,0,165,55.35Z"/><path class="cls-3" d="M178.6,55.25v-14h-4V36.7h4V30.09h5.25V36.7h4.9v4.6h-4.9V54c0,1.65.8,2.85,2.3,2.85A3.39,3.39,0,0,0,188.5,56l1.25,3.95a6.93,6.93,0,0,1-4.95,1.55C180.75,61.45,178.6,59.25,178.6,55.25Z"/><path class="cls-3" d="M213.25,60.85l-7.4-12.45h-5.8V60.85H194.2V27.49h14.65c6.6,0,10.9,4.3,10.9,10.46,0,5.95-3.9,9.15-7.9,9.8L220,60.85Zm.5-22.9c0-3.21-2.4-5.31-5.7-5.31h-8v10.6h8C211.35,43.24,213.75,41.15,213.75,38Z"/><path class="cls-3" d="M226.15,60.85V27.49H232V60.85Z"/><path class="cls-3" d="M237.5,56.15l3.25-4.5a14.39,14.39,0,0,0,10.55,4.6c4.8,0,6.7-2.35,6.7-4.55,0-7-19.45-2.65-19.45-15,0-5.5,4.85-9.75,12.15-9.75,5.2,0,9.4,1.65,12.5,4.65L259.85,36a13.55,13.55,0,0,0-9.65-3.79c-3.45,0-5.65,1.64-5.65,4.14,0,6.21,19.4,2.36,19.4,14.81,0,5.55-3.9,10.3-12.9,10.3C244.9,61.45,240.45,59.3,237.5,56.15Z"/><polygon class="cls-1" points="95.71 85.81 97.44 87.41 98.89 85.84 97.22 84.3 95.71 85.81"/><path class="cls-4" d="M55.46,23.27c1-.08,2-.13,3-.13A38.11,38.11,0,0,1,85.84,34.6,3.79,3.79,0,1,1,84.9,42L81.81,45a2.68,2.68,0,0,1-3.92-.18,25.64,25.64,0,0,0-43.4,25.86,1.79,1.79,0,0,1-.77,2.2h0a1.78,1.78,0,0,1-2.55-.87,29.1,29.1,0,0,1-1.87-12.4A29.57,29.57,0,0,1,57,32.39a29.2,29.2,0,0,1,23,9.51.74.74,0,0,0,.53.25.71.71,0,0,0,.54-.22l1.74-1.69a3.79,3.79,0,0,1-.07-3.58,35,35,0,0,0-24.32-9.93c-.92,0-1.83,0-2.74.12a1.8,1.8,0,0,1-.27-3.58Zm-.21,85.35A47.12,47.12,0,0,1,13.51,47.46a1.74,1.74,0,0,1,2.33-1.1l.11,0a1.74,1.74,0,0,1,1,2.16A43.53,43.53,0,0,0,55.48,105a1.73,1.73,0,0,1,1.63,1.65v.13A1.74,1.74,0,0,1,55.25,108.62Zm38.68-16a47.18,47.18,0,0,1-30.8,15.9,1.73,1.73,0,0,1-1.92-1.64v-.13a1.75,1.75,0,0,1,1.59-1.8,43.12,43.12,0,0,0,27-13.15.73.73,0,0,0,0-1l-2.57-2.49a.75.75,0,0,0-1.06,0,38.09,38.09,0,0,1-27.49,11.81A38.46,38.46,0,0,1,47.54,24.74a1.8,1.8,0,0,1,2.3,1.42h0a1.77,1.77,0,0,1-1.23,2A34.86,34.86,0,1,0,85.09,84.1a1.71,1.71,0,0,1,1.23-.6,1.87,1.87,0,0,1,1.34.53l6.17,6.16A1.78,1.78,0,0,1,93.93,92.6Z"/><path class="cls-5" d="M87.66,84a1.87,1.87,0,0,0-1.34-.53,1.71,1.71,0,0,0-1.23.6A34.86,34.86,0,1,1,48.61,28.17a1.77,1.77,0,0,0,1.23-2h0a1.8,1.8,0,0,0-2.3-1.42,38.46,38.46,0,0,0,11.13,75.33A38.09,38.09,0,0,0,86.16,88.26a.75.75,0,0,1,1.06,0l2.57,2.49a.73.73,0,0,1,0,1,43.12,43.12,0,0,1-27,13.15,1.75,1.75,0,0,0-1.59,1.8v.13a1.73,1.73,0,0,0,1.92,1.64,47.18,47.18,0,0,0,30.8-15.9,1.78,1.78,0,0,0-.1-2.41Z"/><path class="cls-3" d="M57.11,106.68A1.73,1.73,0,0,0,55.48,105,43.53,43.53,0,0,1,16.93,48.56a1.74,1.74,0,0,0-1-2.16l-.11,0a1.74,1.74,0,0,0-2.33,1.1,47.16,47.16,0,0,0,41.74,61.16,1.74,1.74,0,0,0,1.87-1.81Z"/><path class="cls-1" d="M55.71,36.09a25.54,25.54,0,0,1,22.18,8.77,2.68,2.68,0,0,0,3.92.18L84.9,42a3.79,3.79,0,1,0,.94-7.35A38.11,38.11,0,0,0,58.47,23.14c-1,0-2,.05-3,.13a1.8,1.8,0,0,0,.27,3.58c.91-.08,1.82-.12,2.74-.12a35,35,0,0,1,24.32,9.93,3.79,3.79,0,0,0,.07,3.58l-1.74,1.69a.71.71,0,0,1-.54.22.74.74,0,0,1-.53-.25,29.2,29.2,0,0,0-23-9.51A29.57,29.57,0,0,0,29.28,59.66a29.1,29.1,0,0,0,1.87,12.4,1.78,1.78,0,0,0,2.55.87h0a1.79,1.79,0,0,0,.77-2.2A25.65,25.65,0,0,1,55.71,36.09Z"/><path class="cls-1" d="M77.48,66l-.16-.14a7.65,7.65,0,0,0-.94-.82,3.88,3.88,0,0,0-3-.94,3,3,0,0,0-1.51.79,3.63,3.63,0,0,0-.75,1L71,66c-1.19,3.16-3.73,5.17-7.56,6a16.22,16.22,0,0,1-2.25.32,3.73,3.73,0,1,0,0,2.12C65,74.13,70.77,72.69,73,66.8a1.11,1.11,0,0,1,.72-.58c.47-.08,1.18.3,2,1.08l.13.12,2.53,2.3L82,73.05l1.51-1.5-3.66-3.4Z"/><polygon class="cls-1" points="87.96 78.61 90.82 81.27 92.33 79.76 89.47 77.1 87.96 78.61"/><polygon class="cls-1" points="92.38 82.72 94.14 84.35 95.65 82.84 93.89 81.21 92.38 82.72"/><polygon class="cls-1" points="83.53 74.51 86.39 77.16 87.9 75.65 85.04 73 83.53 74.51"/><path class="cls-6" d="M15.58,43.51a3.79,3.79,0,0,0,5.87-4.78,43.45,43.45,0,0,1,69.53-6L95.25,38a.75.75,0,0,1,0,1L82,52.12,79.84,54a3.75,3.75,0,0,0-2.15,0,20.24,20.24,0,0,0-39,5.35,20,20,0,0,0,5.05,15.48,20.19,20.19,0,0,0,28.7,1.49.76.76,0,0,1,1,0L76,78.73a.72.72,0,0,1,.22.56.7.7,0,0,1-.26.54c-4,3.39-10.27,7.43-17.51,7.43h0A25.69,25.69,0,0,1,38,77a1.77,1.77,0,0,0-2.29-.47,1.79,1.79,0,0,0-.55,2.63A28.91,28.91,0,0,0,37,81.41a29.75,29.75,0,0,0,21.47,9.44h.14c9.54,0,19-7.84,22.58-11.22a1.1,1.1,0,0,0,0-1.64L74.3,71.79a1.14,1.14,0,0,0-.8-.28A18.12,18.12,0,1,1,75,53h0l1,2-.14.16a4.67,4.67,0,0,0-.41.58,3.8,3.8,0,0,0,.4,4.36,4.52,4.52,0,0,0,.5.48,3.48,3.48,0,0,0,.51.34,3.76,3.76,0,0,0,1,.41,4,4,0,0,0,1.43,0,3.78,3.78,0,0,0,1.86-.86,4.68,4.68,0,0,0,.57-.61,3.8,3.8,0,0,0,.66-3.09l1.34-1.34.45-.44,1.51-1.51,2.69-2.68,1.52-1.5,2.22-2.21,1.51-1.51,4.8-4.76a3.26,3.26,0,0,0,.92-2.8c-.63-1.12-1.32-2.2-2-3.25l-1.91-2.37a47.18,47.18,0,0,0-37-17.9q-1.89,0-3.81.15A47.08,47.08,0,0,0,18.12,37.27a3.16,3.16,0,0,0-.8.16,3.59,3.59,0,0,0-1.33.74,3.79,3.79,0,0,0-1.14,4A3.7,3.7,0,0,0,15.58,43.51Z"/></svg>