<svg xmlns="http://www.w3.org/2000/svg" data-name="Layer 1" width="751.95058" height="555.86821" viewBox="0 0 751.95058 555.86821" xmlns:xlink="http://www.w3.org/1999/xlink"><path d="M757.76513,579.76307H352.82952a13.62481,13.62481,0,0,1-13.609-13.609V236.43114a13.62483,13.62483,0,0,1,13.609-13.609H757.76513a13.62481,13.62481,0,0,1,13.609,13.609V566.15406A13.62483,13.62483,0,0,1,757.76513,579.76307Z" transform="translate(-224.02471 -172.06589)" fill="#e6e6e6"/><path d="M362.0111,232.50875a13.12416,13.12416,0,0,0-13.10889,13.10938V556.975a13.12394,13.12394,0,0,0,13.10889,13.1084H639.1737a122.66,122.66,0,0,0,122.521-122.521V245.61814a13.1241,13.1241,0,0,0-13.10888-13.10937Z" transform="translate(-224.02471 -172.06589)" fill="#fff"/><path d="M683.92467,372.53977H610.5003a5.78241,5.78241,0,0,1-5.776-5.776V330.219a5.78241,5.78241,0,0,1,5.776-5.776h73.42437a5.78242,5.78242,0,0,1,5.776,5.776c4.54336,12.93234,5.18859,25.22055,0,36.5448A5.78241,5.78241,0,0,1,683.92467,372.53977Z" transform="translate(-224.02471 -172.06589)" fill="#e6e6e6"/><path d="M675.22623,369.00789H612.84469a4.91275,4.91275,0,0,1-4.9073-4.90731V333.05205a4.91273,4.91273,0,0,1,4.9073-4.9073h62.38154a4.91275,4.91275,0,0,1,4.90731,4.90729c4.21,11.05759,4.8873,21.521,0,31.04855A4.91276,4.91276,0,0,1,675.22623,369.00789Z" transform="translate(-224.02471 -172.06589)" fill="#fff"/><path d="M671.86211,391.683H622.40032a5.48765,5.48765,0,0,1-.02045-10.97528h49.48224a5.48765,5.48765,0,0,1,0,10.97528Z" transform="translate(-224.02471 -172.06589)" fill="#e6e6e6"/><path d="M638.606,336.5284a2.15329,2.15329,0,0,0-2.14577,2.14883v23.26065a2.14511,2.14511,0,0,0,3.20785,1.86378l20.53095-11.70658a2.14445,2.14445,0,0,0-.01025-3.73323l-20.52993-11.55507A2.142,2.142,0,0,0,638.606,336.5284Z" transform="translate(-224.02471 -172.06589)" fill="#e6e6e6"/><path d="M938.139,683.43018a9.16759,9.16759,0,0,0-9.78931-3.129l-.3844.11414-3.44726,13.4588c-.51648-2.00592-1.62152-6.53418-2.31818-10.96643l-.06006-.36639-.34228.15014a46.74993,46.74993,0,0,0-10.08362,6.07782A48.36117,48.36117,0,0,0,893.63061,725.188l-.006.25824-.006.16217.45643-.16217,9.79534-3.50129a29.24072,29.24072,0,0,0,23.5785-8.79242c3.95776-4.174,6.67236-9.54309,9.29681-14.738.76874-1.51343,1.55548-3.075,2.36023-4.57642A9.31906,9.31906,0,0,0,938.139,683.43018Z" transform="translate(-224.02471 -172.06589)" fill="#f2f2f2"/><path d="M687.99486,340.212a7.09755,7.09755,0,0,0,9.51667,5.28009l29.275,34.05588,3.7063-12.572-29.0235-31.15741a7.136,7.136,0,0,0-13.47449,4.39343Z" transform="translate(-224.02471 -172.06589)" fill="#ffb8b8"/><polygon points="581.955 545.239 572.267 545.239 567.658 507.87 581.957 507.87 581.955 545.239" fill="#ffb6b6"/><path d="M805.72118,714.14063l-10.344-4.20746-.2962-.12152-5.71119,4.329a12.16122,12.16122,0,0,0-12.15918,12.15918v.3949h31.23713V714.14063Z" transform="translate(-224.02471 -172.06589)" fill="#2f2e41"/><polygon points="651.067 545.239 641.379 545.239 636.77 507.87 651.069 507.87 651.067 545.239" fill="#ffb6b6"/><path d="M874.83324,714.14063l-10.344-4.20746-.2962-.12152-5.71119,4.329a12.16122,12.16122,0,0,0-12.15918,12.15918v.3949h31.23713V714.14063Z" transform="translate(-224.02471 -172.06589)" fill="#2f2e41"/><path d="M852.22649,494.15522s12.15161,12.64194,12.15161,23.02936-3.0379,24.65,0,27.7716,6.83527,6.919,2.27845,11.47583-6.83527,6.83527-3.79737,9.87317,1.51892,56.201,1.51892,56.201L880.327,693.89661H860.23388l-25.47522-71.3905-6.83527-59.23889-22.10547,56.96045,2.44068,74.28155-21.00592-.61273-8.69507-78.98517s12.911-75.134,10.63263-77.05957,0-5.81268,0-5.81268l6.0758-28.77026Z" transform="translate(-224.02471 -172.06589)" fill="#2f2e41"/><path d="M828.435,404.52228s4.1319-16.28152-14.90375-20.94961-73.44934-10.66538-73.44934-10.66538l-27.499-29.17993-9.318,13.53205,30.82721,38.30816,73.04273,15.00327Z" transform="translate(-224.02471 -172.06589)" fill="#3f3d56"/><path d="M707.79375,356.262a12.88929,12.88929,0,0,0,1.97852-3.66544l3.9436-9.69036-1.02374-.04267a10.23022,10.23022,0,0,0-12.09515,9.31562,6.66064,6.66064,0,0,0,.64428,3.621,3.94653,3.94653,0,0,0,2.89112,2.12015A4.36353,4.36353,0,0,0,707.79375,356.262Z" transform="translate(-224.02471 -172.06589)" fill="#e6e6e6"/><path d="M791.388,507.149l-2.27844,16.5163s4.55682,4.89374,6.83527,4.282,10.63263-4.17267,10.63263-4.17267,9.87316,5.39612,15.18945,6.00782,33.41681-3.0586,34.17627-4.89374,9.58679-9.01886,9.58679-9.01886l-3.511-20.95523Z" transform="translate(-224.02471 -172.06589)" fill="#e6e6e6"/><path d="M865.38341,449.36912s-1.929,15.92614-.41009,17.39193c1.519,1.45816-1.51892,10.6858-4.55682,16.76157s2.27844,6.83527,2.27844,11.39209,2.27838,21.26523,2.27838,21.26523-23.54364,1.51892-27.341-2.27844-9.87317-.75946-18.22736,7.59472-26.498,1.51892-30.29541-2.27844,2.95435-17.46786,5.23279-20.11841-2.19489.4177-4.47333-7.98205,2.19489-7.59473,5.99225-11.39209,0-10.63263-3.0379-17.46787-.75946-57.71991-.75946-69.87149,16.70837-13.6705,16.70837-13.6705l6.615-8.31625,4.86066-6.11374,9.52374-.37973.25061-.0076,9.2124-.37213,4.47333,5.21,9.87317,11.49841,11.39209,2.27841c9.11371,3.03791,6.83526,22.02472,6.83526,22.02472Z" transform="translate(-224.02471 -172.06589)" fill="#3f3d56"/><circle cx="605.27713" cy="169.02274" r="19.52246" fill="#ffb6b6"/><path d="M851.93755,334.52131c-5.36963-3.29306-4.68152-11.90341-9.85528-14.91013a18.42448,18.42448,0,0,0-17.03235-.71533c-3.644-1.559-8.00983-.31485-10.92505,2.50037s-4.49341,6.96829-4.95856,11.145a41.70474,41.70474,0,0,0,.89374,12.52578q.43423-2.47467.86865-4.94937l15.39032-3.36368q-2.04373,1.83613-4.0874,3.67228a27.9555,27.9555,0,0,0,20.43665-3.196c6.69982,3.00354,5.48553,9.749-.39588,18.701C844.55108,359.72855,858.05578,338.27351,851.93755,334.52131Z" transform="translate(-224.02471 -172.06589)" fill="#2f2e41"/><path d="M843.70812,368.73591a1.54231,1.54231,0,0,1-.13672.09872,10.2272,10.2272,0,0,1-5.32391,1.443,9.41438,9.41438,0,0,1-6.78211-2.12656c-.99493-.94174-4.95178,1.04806-7.54913,2.14932a11.45963,11.45963,0,0,1-8.52893.09873l4.86066-6.11374,8.01074-1.77616h2l8.97607,1.0167Z" transform="translate(-224.02471 -172.06589)" fill="#e6e6e6"/><path d="M974.79082,727.62678l-271.75.30731a1.19069,1.19069,0,1,1-.01239-2.38135h.01239l271.75-.30731a1.19069,1.19069,0,0,1,0,2.38135Z" transform="translate(-224.02471 -172.06589)" fill="#cacaca"/><polygon points="425.383 155.694 423.383 155.694 423.383 12.651 502.04 12.651 502.04 14.651 425.383 14.651 425.383 155.694" fill="#3f3d56"/><path d="M787.2373,172.06589h-53a13,13,0,1,0,0,26h53a13,13,0,0,0,0-26Z" transform="translate(-224.02471 -172.06589)" fill="#ffcc00"/><circle cx="423.22266" cy="156.83443" r="11.9459" fill="#ffcc00"/><path d="M503.29653,373.78815,555.70269,361.661l15.04248-3.481c1.88165-.43542,1.1-3.33228-.78247-2.89667l-52.40619,12.12717-15.04251,3.481c-1.88162.43542-1.1,3.33227.78247,2.89666Z" transform="translate(-224.02471 -172.06589)" fill="#f2f2f2"/><path d="M557.41277,342.20582l28.05487,12.90539a9.28858,9.28858,0,0,1,2.65485,1.43723c.77435.75848.21069,1.488-.42139,2.14868a63.26333,63.26333,0,0,1-5.97143,4.92874l-11.9524,9.71732c-1.50042,1.21985.61683,3.34839,2.10315,2.14l10.41016-8.46347,5.20508-4.23172c1.47467-1.19891,3.26971-2.42236,3.8623-4.33227,1.24506-4.01252-3.66839-5.60794-6.39892-6.864l-12.21747-5.62008L558.94042,339.623c-1.73962-.80023-3.28052,1.77649-1.52765,2.5828Z" transform="translate(-224.02471 -172.06589)" fill="#f2f2f2"/><path d="M944.56573,440.44939c-4.998-3.38851-11.06985-4.64753-17.00483-5.07487a182.41012,182.41012,0,0,0-20.25175.02384q-10.50974.41631-20.97673,1.521-10.45221,1.1062-20.81651,2.89876a153.8285,153.8285,0,0,0-18.33117,4.01243,49.19474,49.19474,0,0,0-15.85191,7.65491,28.07208,28.07208,0,0,0-9.31515,12.3249,22.89105,22.89105,0,0,0-.89946,14.45593,17.234,17.234,0,0,0,3.40751,6.33058,23.74387,23.74387,0,0,0,6.34844,5.02626c4.95806,2.83121,10.57553,4.53327,15.06,8.1579a21.28971,21.28971,0,0,1,3.21526,3.19683,5.83546,5.83546,0,0,0,2.58274,2.03174,5.27473,5.27473,0,0,0,5.66844-1.45932,19.189,19.189,0,0,0,2.23074-3.96636l2.36571-4.56409a6.38156,6.38156,0,0,1,.59142-1.141c.17725-.21138-.13962.00446-.0792-.05121.03327-.03062.10183-.02968.13984-.05413a3.42678,3.42678,0,0,1,.61079-.23414q3.28248-1.25142,6.59424-2.42453c8.14921-2.90438,16.39663-5.58147,24.77429-7.74963a119.87453,119.87453,0,0,1,13.09624-2.73988c5.7157-.81412,11.51805-.71959,17.25972-1.27609,6.18185-.59918,12.56047-1.85036,17.86173-5.25438a23.19286,23.19286,0,0,0,9.602-11.4928,16.08029,16.08029,0,0,0,.80092-7.11558C952.56041,448.05185,949.00964,443.46226,944.56573,440.44939Z" transform="translate(-224.02471 -172.06589)" fill="#e6e6e6"/><path d="M934.33661,443.50305c-4.51653-3.06211-10.00352-4.19985-15.3668-4.586a164.83909,164.83909,0,0,0-18.301.02155q-9.49737.3762-18.9561,1.37445-9.44539.99964-18.81132,2.61953a139.01,139.01,0,0,0-16.56538,3.62592A44.45594,44.45594,0,0,0,832.0111,453.476a25.368,25.368,0,0,0-8.41785,11.13769,20.68606,20.68606,0,0,0-.81282,13.06343,15.57387,15.57387,0,0,0,3.07928,5.72077,21.45667,21.45667,0,0,0,5.73691,4.5421c4.48046,2.55848,9.55682,4.09659,13.60934,7.37207a19.23888,19.23888,0,0,1,2.90554,2.8889,5.2734,5.2734,0,0,0,2.334,1.836,4.76662,4.76662,0,0,0,5.12242-1.31875,17.34068,17.34068,0,0,0,2.01585-3.58429l2.13783-4.12445a5.76654,5.76654,0,0,1,.53446-1.03111c.16017-.191-.12618.004-.07158-.04628.03006-.02767.092-.02682.12637-.04891a3.09664,3.09664,0,0,1,.552-.21159q2.96628-1.13087,5.959-2.191c7.36422-2.6246,14.8172-5.04381,22.38786-7.00312a108.32439,108.32439,0,0,1,11.83472-2.476c5.16512-.7357,10.40855-.65027,15.59714-1.15317,5.58637-.54146,11.35055-1.67212,16.14116-4.74824a20.95875,20.95875,0,0,0,8.67707-10.38573,14.53149,14.53149,0,0,0,.72377-6.43017C941.56119,450.37318,938.35245,446.22569,934.33661,443.50305Z" transform="translate(-224.02471 -172.06589)" fill="#fff"/><path d="M924.87679,449.03266,851.2757,462.60747a1.62841,1.62841,0,1,1-.60031-3.201l.0096-.00177,73.60108-13.5748a1.6284,1.6284,0,1,1,.59072,3.20278Z" transform="translate(-224.02471 -172.06589)" fill="#e6e6e6"/><path d="M926.68973,458.8622,853.08864,472.437a1.62841,1.62841,0,1,1-.60032-3.201l.00961-.00177,73.60108-13.5748a1.6284,1.6284,0,1,1,.59072,3.20278Z" transform="translate(-224.02471 -172.06589)" fill="#e6e6e6"/><path d="M863.47868,480.68443l-8.57714,1.58194a1.62841,1.62841,0,0,1-.59071-3.20278l8.57714-1.58195a1.62841,1.62841,0,0,1,.59071,3.20279Z" transform="translate(-224.02471 -172.06589)" fill="#e6e6e6"/><circle cx="856.0096" cy="514.74227" r="6.9213" transform="translate(-303.18954 -8.26639) rotate(-10.45006)" fill="#d1d3d4"/><path d="M476.36571,370.68839H413.4995a11.02078,11.02078,0,0,1-11.00781-11.00781V318.248a11.02079,11.02079,0,0,1,11.00781-11.00781h62.86621A11.02079,11.02079,0,0,1,487.37353,318.248v41.43262A11.02078,11.02078,0,0,1,476.36571,370.68839Z" transform="translate(-224.02471 -172.06589)" fill="#e6e6e6"/><path d="M469.45737,368.45623H414.7439a9.59156,9.59156,0,0,1-9.58027-9.58028V322.81651a9.59156,9.59156,0,0,1,9.58027-9.58028h54.71347a9.59157,9.59157,0,0,1,9.58028,9.58028V358.876A9.59157,9.59157,0,0,1,469.45737,368.45623Z" transform="translate(-224.02471 -172.06589)" fill="#fff"/><path d="M485.22051,408.01664H404.55483a1.88221,1.88221,0,0,1,0-3.76441h80.66568a1.88221,1.88221,0,0,1,0,3.76441Z" transform="translate(-224.02471 -172.06589)" fill="#e6e6e6"/><path d="M485.22051,397.26121H404.55483a1.88221,1.88221,0,0,1,0-3.76441h80.66568a1.88221,1.88221,0,0,1,0,3.76441Z" transform="translate(-224.02471 -172.06589)" fill="#e6e6e6"/><path d="M485.22051,418.77207H404.55483a1.8822,1.8822,0,1,1,0-3.7644h80.66568a1.8822,1.8822,0,1,1,0,3.7644Z" transform="translate(-224.02471 -172.06589)" fill="#e6e6e6"/><path d="M485.22051,429.52747H404.55483a1.8822,1.8822,0,1,1,0-3.7644h80.66568a1.8822,1.8822,0,1,1,0,3.7644Z" transform="translate(-224.02471 -172.06589)" fill="#e6e6e6"/><path d="M485.22051,440.2829H404.55483a1.8822,1.8822,0,1,1,0-3.7644h80.66568a1.8822,1.8822,0,1,1,0,3.7644Z" transform="translate(-224.02471 -172.06589)" fill="#e6e6e6"/><path d="M485.22051,451.03834H404.55483a1.88221,1.88221,0,0,1,0-3.76441h80.66568a1.88221,1.88221,0,0,1,0,3.76441Z" transform="translate(-224.02471 -172.06589)" fill="#e6e6e6"/><polygon points="216.83 254.306 218.83 254.306 218.83 331.349 74.173 331.349 74.173 329.349 216.83 329.349 216.83 254.306" fill="#3f3d56"/><path d="M237.02471,516.06593h53a13,13,0,0,0,0-26h-53a13,13,0,0,0,0,26Z" transform="translate(-224.02471 -172.06589)" fill="#ffcc00"/><circle cx="219.22267" cy="248.16557" r="11.94591" fill="#ffcc00"/><path d="M504.99245,423.551c17.53861,3.72754,13.07724,4.45508,30.61582,8.18259l15.10266,3.20984c1.88916.40152,2.40649-2.554.51648-2.95572-17.53864-3.72754-13.07721-4.45508-30.61585-8.18259l-15.10269-3.20981c-1.88916-.40152-2.40652,2.554-.51645,2.95569Z" transform="translate(-224.02471 -172.06589)" fill="#f2f2f2"/><path d="M545.38848,414.82871l19.96075,23.56253a9.28835,9.28835,0,0,1,1.79755,2.42542c.38074,1.01486-.4386,1.43741-1.29083,1.76864A63.25783,63.25783,0,0,1,558.36,444.525l-14.9411,3.74826c-1.87561.47052-.85767,3.29495,1.0003,2.82883l13.01325-3.26459,6.50659-1.63229c1.84344-.46247,3.98749-.81165,5.33246-2.29151,2.82568-3.109-.95142-6.6333-2.89417-8.9266L557.68481,424.726l-9.8194-11.59125c-1.23773-1.46106-3.724.22183-2.47693,1.694Z" transform="translate(-224.02471 -172.06589)" fill="#f2f2f2"/><circle cx="384.65252" cy="317.6947" r="27.78001" fill="#e6e6e6"/><circle cx="381.94477" cy="320.81375" r="21.11934" fill="#fff"/><path d="M602.18015,507.33826a3.08918,3.08918,0,0,1-2.47186-1.23633l-7.5788-10.10522a3.09006,3.09006,0,1,1,4.94232-3.71045l.00189.0025,4.95832,6.6106,12.7348-19.10193a3.0902,3.0902,0,1,1,5.14239,3.42828l-15.15759,22.73645a3.09135,3.09135,0,0,1-2.48547,1.37512C602.23746,507.33771,602.20884,507.33826,602.18015,507.33826Z" transform="translate(-224.02471 -172.06589)" fill="#e6e6e6"/><path d="M868.07543,518.37861a7.09761,7.09761,0,0,0,1.79376-10.73447l22.30573-38.978-13.08759.71116L859.42913,507.149a7.13606,7.13606,0,0,0,8.64636,11.22962Z" transform="translate(-224.02471 -172.06589)" fill="#ffb8b8"/><path d="M842.95141,381.75327s23.62439-7.59472,29.70013,10.63263,26.5008,67.59311,26.5008,67.59311l-21.944,44.8089-9.87316-10.63263,10.55194-31.13843-30.37891-45.56836Z" transform="translate(-224.02471 -172.06589)" fill="#3f3d56"/><path d="M877.96093,500.21183a12.89014,12.89014,0,0,0-2.67084-3.19632l-7.538-7.25491-.41913.935a10.23032,10.23032,0,0,0,4.16815,14.68674,6.661,6.661,0,0,0,3.60187.74393,3.9464,3.9464,0,0,0,3.04083-1.8992A4.36364,4.36364,0,0,0,877.96093,500.21183Z" transform="translate(-224.02471 -172.06589)" fill="#e6e6e6"/><polygon points="384.412 355.068 382.412 355.068 382.412 432.111 450.069 432.111 450.069 430.111 384.412 430.111 384.412 355.068" fill="#3f3d56"/><path d="M748.26657,603.82805a13.01245,13.01245,0,0,0-13-13h-53a13,13,0,0,0,0,26h53A13.01246,13.01246,0,0,0,748.26657,603.82805Z" transform="translate(-224.02471 -172.06589)" fill="#ffcc00"/><circle cx="382.01917" cy="348.92771" r="11.94589" fill="#ffcc00"/></svg>