<svg version="1.1" viewBox="0.0 0.0 668.0 415.0" fill="none" stroke="none" stroke-linecap="square" stroke-miterlimit="10" width="668" height="415" xmlns:xlink="http://www.w3.org/1999/xlink" xmlns="http://www.w3.org/2000/svg"><path fill="#000000" d="M0 0L668.0 0L668.0 415.0L0 415.0L0 0Z" fill-rule="nonzero"/><path stroke="#333333" stroke-width="1.0" stroke-linecap="butt" d="M117.5 73.5L117.5 336.5" fill-rule="nonzero"/><path stroke="#333333" stroke-width="1.0" stroke-linecap="butt" d="M252.5 73.5L252.5 336.5" fill-rule="nonzero"/><path stroke="#333333" stroke-width="1.0" stroke-linecap="butt" d="M390.5 73.5L390.5 336.5" fill-rule="nonzero"/><path stroke="#333333" stroke-width="1.0" stroke-linecap="butt" d="M526.5 73.5L526.5 336.5" fill-rule="nonzero"/><path stroke="#cccccc" stroke-width="1.0" stroke-linecap="butt" d="M64.5 336.5L647.5 336.5" fill-rule="nonzero"/><path stroke="#333333" stroke-width="1.0" stroke-linecap="butt" d="M64.5 283.5L647.5 283.5" fill-rule="nonzero"/><path stroke="#333333" stroke-width="1.0" stroke-linecap="butt" d="M64.5 231.5L647.5 231.5" fill-rule="nonzero"/><path stroke="#333333" stroke-width="1.0" stroke-linecap="butt" d="M64.5 178.5L647.5 178.5" fill-rule="nonzero"/><path stroke="#333333" stroke-width="1.0" stroke-linecap="butt" d="M64.5 125.5L647.5 125.5" fill-rule="nonzero"/><path stroke="#333333" stroke-width="1.0" stroke-linecap="butt" d="M64.5 73.5L647.5 73.5" fill-rule="nonzero"/><clipPath id="id_0"><path d="M64.75 73.083336L647.25 73.083336L647.25 336.46667L64.75 336.46667L64.75 73.083336Z" clip-rule="nonzero"/></clipPath><path stroke="#4285f4" stroke-width="4.0" stroke-linecap="butt" clip-path="url(#id_0)" d="M71.58571 333.72748C71.58571 333.72748 86.53521 325.99307 94.009964 322.8761C101.48471 319.75912 109.45778 317.3626 117.181694 314.7639C124.9056 312.16516 133.37698 310.28864 140.35342 307.2838C147.32985 304.27896 154.30629 299.4916 161.28273 296.011C168.25916 292.53036 176.9797 288.66684 184.45445 285.3703C191.9292 282.07376 199.40396 279.0661 206.87871 275.88852C214.35345 272.7109 222.57568 268.96973 230.05045 265.9853C237.52519 263.00085 244.99994 260.12006 252.47469 257.66238C259.94943 255.2047 267.92252 253.30777 275.64642 251.02512C283.37033 248.74246 291.3434 246.5799 298.81815 243.96645C306.2929 241.35301 313.76767 237.54329 321.2424 235.11676C328.71716 232.69025 336.9394 231.57327 344.41412 229.21698C351.8889 226.86069 359.36365 223.31493 366.83838 220.78871C374.31314 218.2625 382.28622 216.2234 390.01013 213.83539C397.73404 211.44739 405.95627 208.96252 413.18185 206.46066C420.40744 203.9588 427.63303 201.37595 434.85864 198.34845C442.08423 195.32095 450.5556 191.19688 458.03036 187.60242C465.5051 184.00793 472.97986 180.06342 480.45462 176.43495C487.92935 172.8065 496.15158 168.77306 503.62634 165.47821C511.1011 162.18336 518.57587 159.11453 526.0506 156.31247C533.5253 153.5104 541.4984 151.09747 549.22235 148.41096C556.9462 145.72446 564.9193 142.83574 572.39404 140.1934C579.86884 137.55109 587.34357 135.08717 594.8183 132.29192C602.293 129.49664 610.51526 125.83363 617.99005 123.12617C625.4648 120.4187 640.4143 115.751434 640.4143 115.751434" fill-rule="nonzero"/><path fill="#4285f4" clip-path="url(#id_0)" d="M76.08571 333.72748C76.08571 336.21277 74.07099 338.22748 71.58571 338.22748C69.100426 338.22748 67.08571 336.21277 67.08571 333.72748C67.08571 331.24222 69.100426 329.22748 71.58571 329.22748C74.07099 329.22748 76.08571 331.24222 76.08571 333.72748Z" fill-rule="nonzero"/><path fill="#4285f4" clip-path="url(#id_0)" d="M98.509964 322.8761C98.509964 325.3614 96.49525 327.3761 94.009964 327.3761C91.52468 327.3761 89.509964 325.3614 89.509964 322.8761C89.509964 320.3908 91.52468 318.3761 94.009964 318.3761C96.49525 318.3761 98.509964 320.3908 98.509964 322.8761Z" fill-rule="nonzero"/><path fill="#4285f4" clip-path="url(#id_0)" d="M121.681694 314.7639C121.681694 317.24918 119.66698 319.2639 117.181694 319.2639C114.69641 319.2639 112.681694 317.24918 112.681694 314.7639C112.681694 312.2786 114.69641 310.2639 117.181694 310.2639C119.66698 310.2639 121.681694 312.2786 121.681694 314.7639Z" fill-rule="nonzero"/><path fill="#4285f4" clip-path="url(#id_0)" d="M144.85342 307.2838C144.85342 309.76907 142.8387 311.7838 140.35342 311.7838C137.86813 311.7838 135.85342 309.76907 135.85342 307.2838C135.85342 304.79852 137.86813 302.7838 140.35342 302.7838C142.8387 302.7838 144.85342 304.79852 144.85342 307.2838Z" fill-rule="nonzero"/><path fill="#4285f4" clip-path="url(#id_0)" d="M165.78273 296.011C165.78273 298.49628 163.768 300.511 161.28273 300.511C158.79744 300.511 156.78273 298.49628 156.78273 296.011C156.78273 293.52573 158.79744 291.511 161.28273 291.511C163.768 291.511 165.78273 293.52573 165.78273 296.011Z" fill-rule="nonzero"/><path fill="#4285f4" clip-path="url(#id_0)" d="M188.95445 285.3703C188.95445 287.8556 186.93974 289.8703 184.45445 289.8703C181.96918 289.8703 179.95445 287.8556 179.95445 285.3703C179.95445 282.88504 181.96918 280.8703 184.45445 280.8703C186.93974 280.8703 188.95445 282.88504 188.95445 285.3703Z" fill-rule="nonzero"/><path fill="#4285f4" clip-path="url(#id_0)" d="M211.37871 275.88852C211.37871 278.37378 209.36398 280.38852 206.87871 280.38852C204.39343 280.38852 202.37871 278.37378 202.37871 275.88852C202.37871 273.40323 204.39343 271.38852 206.87871 271.38852C209.36398 271.38852 211.37871 273.40323 211.37871 275.88852Z" fill-rule="nonzero"/><path fill="#4285f4" clip-path="url(#id_0)" d="M234.55045 265.9853C234.55045 268.47058 232.53572 270.4853 230.05045 270.4853C227.56516 270.4853 225.55045 268.47058 225.55045 265.9853C225.55045 263.5 227.56516 261.4853 230.05045 261.4853C232.53572 261.4853 234.55045 263.5 234.55045 265.9853Z" fill-rule="nonzero"/><path fill="#4285f4" clip-path="url(#id_0)" d="M256.9747 257.66238C256.9747 260.14767 254.95998 262.16238 252.47469 262.16238C249.98941 262.16238 247.97469 260.14767 247.97469 257.66238C247.97469 255.1771 249.98941 253.16238 252.47469 253.16238C254.95998 253.16238 256.9747 255.1771 256.9747 257.66238Z" fill-rule="nonzero"/><path fill="#4285f4" clip-path="url(#id_0)" d="M280.14642 251.02512C280.14642 253.5104 278.1317 255.52512 275.64642 255.52512C273.16113 255.52512 271.14642 253.5104 271.14642 251.02512C271.14642 248.53984 273.16113 246.52512 275.64642 246.52512C278.1317 246.52512 280.14642 248.53984 280.14642 251.02512Z" fill-rule="nonzero"/><path fill="#4285f4" clip-path="url(#id_0)" d="M303.31815 243.96645C303.31815 246.45174 301.30344 248.46645 298.81815 248.46645C296.33286 248.46645 294.31815 246.45174 294.31815 243.96645C294.31815 241.48117 296.33286 239.46645 298.81815 239.46645C301.30344 239.46645 303.31815 241.48117 303.31815 243.96645Z" fill-rule="nonzero"/><path fill="#4285f4" clip-path="url(#id_0)" d="M325.7424 235.11676C325.7424 237.60205 323.7277 239.61676 321.2424 239.61676C318.7571 239.61676 316.7424 237.60205 316.7424 235.11676C316.7424 232.63148 318.7571 230.61676 321.2424 230.61676C323.7277 230.61676 325.7424 232.63148 325.7424 235.11676Z" fill-rule="nonzero"/><path fill="#4285f4" clip-path="url(#id_0)" d="M348.91412 229.21698C348.91412 231.70226 346.8994 233.71698 344.41412 233.71698C341.92886 233.71698 339.91412 231.70226 339.91412 229.21698C339.91412 226.7317 341.92886 224.71698 344.41412 224.71698C346.8994 224.71698 348.91412 226.7317 348.91412 229.21698Z" fill-rule="nonzero"/><path fill="#4285f4" clip-path="url(#id_0)" d="M371.33838 220.78871C371.33838 223.274 369.32367 225.28871 366.83838 225.28871C364.35312 225.28871 362.33838 223.274 362.33838 220.78871C362.33838 218.30344 364.35312 216.28871 366.83838 216.28871C369.32367 216.28871 371.33838 218.30344 371.33838 220.78871Z" fill-rule="nonzero"/><path fill="#4285f4" clip-path="url(#id_0)" d="M394.51013 213.83539C394.51013 216.32068 392.4954 218.33539 390.01013 218.33539C387.52484 218.33539 385.51013 216.32068 385.51013 213.83539C385.51013 211.35011 387.52484 209.33539 390.01013 209.33539C392.4954 209.33539 394.51013 211.35011 394.51013 213.83539Z" fill-rule="nonzero"/><path fill="#4285f4" clip-path="url(#id_0)" d="M417.68185 206.46066C417.68185 208.94594 415.66714 210.96066 413.18185 210.96066C410.69656 210.96066 408.68185 208.94594 408.68185 206.46066C408.68185 203.97537 410.69656 201.96066 413.18185 201.96066C415.66714 201.96066 417.68185 203.97537 417.68185 206.46066Z" fill-rule="nonzero"/><path fill="#4285f4" clip-path="url(#id_0)" d="M439.35864 198.34845C439.35864 200.83374 437.3439 202.84845 434.85864 202.84845C432.37335 202.84845 430.35864 200.83374 430.35864 198.34845C430.35864 195.86317 432.37335 193.84845 434.85864 193.84845C437.3439 193.84845 439.35864 195.86317 439.35864 198.34845Z" fill-rule="nonzero"/><path fill="#4285f4" clip-path="url(#id_0)" d="M462.53036 187.60242C462.53036 190.08769 460.51562 192.10242 458.03036 192.10242C455.54507 192.10242 453.53036 190.08769 453.53036 187.60242C453.53036 185.11713 455.54507 183.10242 458.03036 183.10242C460.51562 183.10242 462.53036 185.11713 462.53036 187.60242Z" fill-rule="nonzero"/><path fill="#4285f4" clip-path="url(#id_0)" d="M484.95462 176.43495C484.95462 178.92024 482.93988 180.93495 480.45462 180.93495C477.96933 180.93495 475.95462 178.92024 475.95462 176.43495C475.95462 173.94968 477.96933 171.93495 480.45462 171.93495C482.93988 171.93495 484.95462 173.94968 484.95462 176.43495Z" fill-rule="nonzero"/><path fill="#4285f4" clip-path="url(#id_0)" d="M508.12634 165.47821C508.12634 167.96349 506.11163 169.97821 503.62634 169.97821C501.14105 169.97821 499.12634 167.96349 499.12634 165.47821C499.12634 162.99294 501.14105 160.97821 503.62634 160.97821C506.11163 160.97821 508.12634 162.99294 508.12634 165.47821Z" fill-rule="nonzero"/><path fill="#4285f4" clip-path="url(#id_0)" d="M530.5506 156.31247C530.5506 158.79774 528.5359 160.81247 526.0506 160.81247C523.5653 160.81247 521.5506 158.79774 521.5506 156.31247C521.5506 153.8272 523.5653 151.81247 526.0506 151.81247C528.5359 151.81247 530.5506 153.8272 530.5506 156.31247Z" fill-rule="nonzero"/><path fill="#4285f4" clip-path="url(#id_0)" d="M553.72235 148.41096C553.72235 150.89626 551.7076 152.91096 549.22235 152.91096C546.73706 152.91096 544.72235 150.89626 544.72235 148.41096C544.72235 145.92569 546.73706 143.91096 549.22235 143.91096C551.7076 143.91096 553.72235 145.92569 553.72235 148.41096Z" fill-rule="nonzero"/><path fill="#4285f4" clip-path="url(#id_0)" d="M576.89404 140.1934C576.89404 142.6787 574.87933 144.6934 572.39404 144.6934C569.90875 144.6934 567.89404 142.6787 567.89404 140.1934C567.89404 137.70813 569.90875 135.6934 572.39404 135.6934C574.87933 135.6934 576.89404 137.70813 576.89404 140.1934Z" fill-rule="nonzero"/><path fill="#4285f4" clip-path="url(#id_0)" d="M599.3183 132.29192C599.3183 134.77719 597.3036 136.79192 594.8183 136.79192C592.333 136.79192 590.3183 134.77719 590.3183 132.29192C590.3183 129.80663 592.333 127.79191 594.8183 127.79191C597.3036 127.79191 599.3183 129.80663 599.3183 132.29192Z" fill-rule="nonzero"/><path fill="#4285f4" clip-path="url(#id_0)" d="M622.49005 123.12617C622.49005 125.61145 620.47534 127.62617 617.99005 127.62617C615.50476 127.62617 613.49005 125.61145 613.49005 123.12617C613.49005 120.640884 615.50476 118.62617 617.99005 118.62617C620.47534 118.62617 622.49005 120.640884 622.49005 123.12617Z" fill-rule="nonzero"/><path fill="#4285f4" clip-path="url(#id_0)" d="M644.9143 115.751434C644.9143 118.23672 642.8996 120.251434 640.4143 120.251434C637.929 120.251434 635.9143 118.23672 635.9143 115.751434C635.9143 113.26615 637.929 111.251434 640.4143 111.251434C642.8996 111.251434 644.9143 113.26615 644.9143 115.751434Z" fill-rule="nonzero"/><path fill="#efefef" d="M55.828125 337.1073Q55.828125 339.65417 54.953125 340.88855Q54.09375 342.12292 52.25 342.12292Q50.4375 342.12292 49.5625 340.9198Q48.6875 339.70105 48.65625 337.31042L48.65625 335.37292Q48.65625 332.87292 49.515625 331.65417Q50.390625 330.43542 52.234375 330.43542Q54.078125 330.43542 54.9375 331.6073Q55.8125 332.77917 55.828125 335.2323L55.828125 337.1073ZM54.390625 335.13855Q54.390625 333.2948 53.875 332.46667Q53.359375 331.62292 52.234375 331.62292Q51.125 331.62292 50.609375 332.46667Q50.109375 333.2948 50.09375 335.02917L50.09375 337.34167Q50.09375 339.18542 50.625 340.06042Q51.171875 340.93542 52.25 340.93542Q53.328125 340.93542 53.84375 340.1073Q54.359375 339.27917 54.390625 337.49792L54.390625 335.13855Z" fill-rule="nonzero"/><path fill="#efefef" d="M31.359375 283.58688L31.9375 277.915L37.765625 277.915L37.765625 279.24313L33.171875 279.24313L32.828125 282.3525Q33.65625 281.8525 34.71875 281.8525Q36.28125 281.8525 37.1875 282.88376Q38.109375 283.915 38.109375 285.665Q38.109375 287.415 37.15625 288.43063Q36.203125 289.44626 34.5 289.44626Q33.0 289.44626 32.046875 288.61813Q31.09375 287.77438 30.953125 286.29L32.328125 286.29Q32.453125 287.27438 33.015625 287.77438Q33.578125 288.25876 34.5 288.25876Q35.515625 288.25876 36.078125 287.57126Q36.65625 286.88376 36.65625 285.68063Q36.65625 284.54 36.03125 283.8525Q35.421875 283.14938 34.390625 283.14938Q33.4375 283.14938 32.90625 283.57126L32.515625 283.88376L31.359375 283.58688ZM46.828125 284.43063Q46.828125 286.9775 45.953125 288.21188Q45.09375 289.44626 43.25 289.44626Q41.4375 289.44626 40.5625 288.24313Q39.6875 287.02438 39.65625 284.63376L39.65625 282.69626Q39.65625 280.19626 40.515625 278.9775Q41.390625 277.75876 43.234375 277.75876Q45.078125 277.75876 45.9375 278.93063Q46.8125 280.1025 46.828125 282.55563L46.828125 284.43063ZM45.390625 282.46188Q45.390625 280.61813 44.875 279.79Q44.359375 278.94626 43.234375 278.94626Q42.125 278.94626 41.609375 279.79Q41.109375 280.61813 41.09375 282.3525L41.09375 284.665Q41.09375 286.50876 41.625 287.38376Q42.171875 288.25876 43.25 288.25876Q44.328125 288.25876 44.84375 287.43063Q45.359375 286.6025 45.390625 284.82126L45.390625 282.46188ZM55.828125 284.43063Q55.828125 286.9775 54.953125 288.21188Q54.09375 289.44626 52.25 289.44626Q50.4375 289.44626 49.5625 288.24313Q48.6875 287.02438 48.65625 284.63376L48.65625 282.69626Q48.65625 280.19626 49.515625 278.9775Q50.390625 277.75876 52.234375 277.75876Q54.078125 277.75876 54.9375 278.93063Q55.8125 280.1025 55.828125 282.55563L55.828125 284.43063ZM54.390625 282.46188Q54.390625 280.61813 53.875 279.79Q53.359375 278.94626 52.234375 278.94626Q51.125 278.94626 50.609375 279.79Q50.109375 280.61813 50.09375 282.3525L50.09375 284.665Q50.09375 286.50876 50.625 287.38376Q51.171875 288.25876 52.25 288.25876Q53.328125 288.25876 53.84375 287.43063Q54.359375 286.6025 54.390625 284.82126L54.390625 282.46188Z" fill-rule="nonzero"/><path fill="#efefef" d="M26.453125 236.61334L25.0 236.61334L25.0 226.97272L22.078125 228.05084L22.078125 226.73834L26.21875 225.17584L26.453125 225.17584L26.453125 236.61334ZM37.828125 231.75397Q37.828125 234.30084 36.953125 235.53522Q36.09375 236.76959 34.25 236.76959Q32.4375 236.76959 31.5625 235.56647Q30.6875 234.34772 30.65625 231.95709L30.65625 230.01959Q30.65625 227.51959 31.515625 226.30084Q32.390625 225.08209 34.234375 225.08209Q36.078125 225.08209 36.9375 226.25397Q37.8125 227.42584 37.828125 229.87897L37.828125 231.75397ZM36.390625 229.78522Q36.390625 227.94147 35.875 227.11334Q35.359375 226.26959 34.234375 226.26959Q33.125 226.26959 32.609375 227.11334Q32.109375 227.94147 32.09375 229.67584L32.09375 231.98834Q32.09375 233.83209 32.625 234.70709Q33.171875 235.58209 34.25 235.58209Q35.328125 235.58209 35.84375 234.75397Q36.359375 233.92584 36.390625 232.14459L36.390625 229.78522ZM46.828125 231.75397Q46.828125 234.30084 45.953125 235.53522Q45.09375 236.76959 43.25 236.76959Q41.4375 236.76959 40.5625 235.56647Q39.6875 234.34772 39.65625 231.95709L39.65625 230.01959Q39.65625 227.51959 40.515625 226.30084Q41.390625 225.08209 43.234375 225.08209Q45.078125 225.08209 45.9375 226.25397Q46.8125 227.42584 46.828125 229.87897L46.828125 231.75397ZM45.390625 229.78522Q45.390625 227.94147 44.875 227.11334Q44.359375 226.26959 43.234375 226.26959Q42.125 226.26959 41.609375 227.11334Q41.109375 227.94147 41.09375 229.67584L41.09375 231.98834Q41.09375 233.83209 41.625 234.70709Q42.171875 235.58209 43.25 235.58209Q44.328125 235.58209 44.84375 234.75397Q45.359375 233.92584 45.390625 232.14459L45.390625 229.78522ZM55.828125 231.75397Q55.828125 234.30084 54.953125 235.53522Q54.09375 236.76959 52.25 236.76959Q50.4375 236.76959 49.5625 235.56647Q48.6875 234.34772 48.65625 231.95709L48.65625 230.01959Q48.65625 227.51959 49.515625 226.30084Q50.390625 225.08209 52.234375 225.08209Q54.078125 225.08209 54.9375 226.25397Q55.8125 227.42584 55.828125 229.87897L55.828125 231.75397ZM54.390625 229.78522Q54.390625 227.94147 53.875 227.11334Q53.359375 226.26959 52.234375 226.26959Q51.125 226.26959 50.609375 227.11334Q50.109375 227.94147 50.09375 229.67584L50.09375 231.98834Q50.09375 233.83209 50.625 234.70709Q51.171875 235.58209 52.25 235.58209Q53.328125 235.58209 53.84375 234.75397Q54.359375 233.92584 54.390625 232.14459L54.390625 229.78522Z" fill-rule="nonzero"/><path fill="#efefef" d="M26.453125 183.93668L25.0 183.93668L25.0 174.29605L22.078125 175.37418L22.078125 174.06168L26.21875 172.49918L26.453125 172.49918L26.453125 183.93668ZM31.359375 178.23355L31.9375 172.56168L37.765625 172.56168L37.765625 173.8898L33.171875 173.8898L32.828125 176.99918Q33.65625 176.49918 34.71875 176.49918Q36.28125 176.49918 37.1875 177.53043Q38.109375 178.56168 38.109375 180.31168Q38.109375 182.06168 37.15625 183.0773Q36.203125 184.09293 34.5 184.09293Q33.0 184.09293 32.046875 183.2648Q31.09375 182.42105 30.953125 180.93668L32.328125 180.93668Q32.453125 181.92105 33.015625 182.42105Q33.578125 182.90543 34.5 182.90543Q35.515625 182.90543 36.078125 182.21793Q36.65625 181.53043 36.65625 180.3273Q36.65625 179.18668 36.03125 178.49918Q35.421875 177.79605 34.390625 177.79605Q33.4375 177.79605 32.90625 178.21793L32.515625 178.53043L31.359375 178.23355ZM46.828125 179.0773Q46.828125 181.62418 45.953125 182.85855Q45.09375 184.09293 43.25 184.09293Q41.4375 184.09293 40.5625 182.8898Q39.6875 181.67105 39.65625 179.28043L39.65625 177.34293Q39.65625 174.84293 40.515625 173.62418Q41.390625 172.40543 43.234375 172.40543Q45.078125 172.40543 45.9375 173.5773Q46.8125 174.74918 46.828125 177.2023L46.828125 179.0773ZM45.390625 177.10855Q45.390625 175.2648 44.875 174.43668Q44.359375 173.59293 43.234375 173.59293Q42.125 173.59293 41.609375 174.43668Q41.109375 175.2648 41.09375 176.99918L41.09375 179.31168Q41.09375 181.15543 41.625 182.03043Q42.171875 182.90543 43.25 182.90543Q44.328125 182.90543 44.84375 182.0773Q45.359375 181.24918 45.390625 179.46793L45.390625 177.10855ZM55.828125 179.0773Q55.828125 181.62418 54.953125 182.85855Q54.09375 184.09293 52.25 184.09293Q50.4375 184.09293 49.5625 182.8898Q48.6875 181.67105 48.65625 179.28043L48.65625 177.34293Q48.65625 174.84293 49.515625 173.62418Q50.390625 172.40543 52.234375 172.40543Q54.078125 172.40543 54.9375 173.5773Q55.8125 174.74918 55.828125 177.2023L55.828125 179.0773ZM54.390625 177.10855Q54.390625 175.2648 53.875 174.43668Q53.359375 173.59293 52.234375 173.59293Q51.125 173.59293 50.609375 174.43668Q50.109375 175.2648 50.09375 176.99918L50.09375 179.31168Q50.09375 181.15543 50.625 182.03043Q51.171875 182.90543 52.25 182.90543Q53.328125 182.90543 53.84375 182.0773Q54.359375 181.24918 54.390625 179.46793L54.390625 177.10855Z" fill-rule="nonzero"/><path fill="#efefef" d="M29.15625 131.26001L21.703125 131.26001L21.703125 130.21313L25.640625 125.838135Q26.515625 124.85376 26.84375 124.22876Q27.171875 123.60376 27.171875 122.94751Q27.171875 122.056885 26.625 121.494385Q26.09375 120.91626 25.203125 120.91626Q24.125 120.91626 23.515625 121.525635Q22.921875 122.13501 22.921875 123.22876L21.484375 123.22876Q21.484375 121.66626 22.484375 120.69751Q23.5 119.72876 25.203125 119.72876Q26.78125 119.72876 27.703125 120.556885Q28.625 121.38501 28.625 122.775635Q28.625 124.44751 26.484375 126.775635L23.4375 130.07251L29.15625 130.07251L29.15625 131.26001ZM37.828125 126.400635Q37.828125 128.94751 36.953125 130.18188Q36.09375 131.41626 34.25 131.41626Q32.4375 131.41626 31.5625 130.21313Q30.6875 128.99438 30.65625 126.60376L30.65625 124.66626Q30.65625 122.16626 31.515625 120.94751Q32.390625 119.72876 34.234375 119.72876Q36.078125 119.72876 36.9375 120.900635Q37.8125 122.07251 37.828125 124.525635L37.828125 126.400635ZM36.390625 124.431885Q36.390625 122.588135 35.875 121.76001Q35.359375 120.91626 34.234375 120.91626Q33.125 120.91626 32.609375 121.76001Q32.109375 122.588135 32.09375 124.32251L32.09375 126.63501Q32.09375 128.47876 32.625 129.35376Q33.171875 130.22876 34.25 130.22876Q35.328125 130.22876 35.84375 129.40063Q36.359375 128.57251 36.390625 126.79126L36.390625 124.431885ZM46.828125 126.400635Q46.828125 128.94751 45.953125 130.18188Q45.09375 131.41626 43.25 131.41626Q41.4375 131.41626 40.5625 130.21313Q39.6875 128.99438 39.65625 126.60376L39.65625 124.66626Q39.65625 122.16626 40.515625 120.94751Q41.390625 119.72876 43.234375 119.72876Q45.078125 119.72876 45.9375 120.900635Q46.8125 122.07251 46.828125 124.525635L46.828125 126.400635ZM45.390625 124.431885Q45.390625 122.588135 44.875 121.76001Q44.359375 120.91626 43.234375 120.91626Q42.125 120.91626 41.609375 121.76001Q41.109375 122.588135 41.09375 124.32251L41.09375 126.63501Q41.09375 128.47876 41.625 129.35376Q42.171875 130.22876 43.25 130.22876Q44.328125 130.22876 44.84375 129.40063Q45.359375 128.57251 45.390625 126.79126L45.390625 124.431885ZM55.828125 126.400635Q55.828125 128.94751 54.953125 130.18188Q54.09375 131.41626 52.25 131.41626Q50.4375 131.41626 49.5625 130.21313Q48.6875 128.99438 48.65625 126.60376L48.65625 124.66626Q48.65625 122.16626 49.515625 120.94751Q50.390625 119.72876 52.234375 119.72876Q54.078125 119.72876 54.9375 120.900635Q55.8125 122.07251 55.828125 124.525635L55.828125 126.400635ZM54.390625 124.431885Q54.390625 122.588135 53.875 121.76001Q53.359375 120.91626 52.234375 120.91626Q51.125 120.91626 50.609375 121.76001Q50.109375 122.588135 50.09375 124.32251L50.09375 126.63501Q50.09375 128.47876 50.625 129.35376Q51.171875 130.22876 52.25 130.22876Q53.328125 130.22876 53.84375 129.40063Q54.359375 128.57251 54.390625 126.79126L54.390625 124.431885Z" fill-rule="nonzero"/><path fill="#efefef" d="M29.15625 78.583336L21.703125 78.583336L21.703125 77.53646L25.640625 73.16146Q26.515625 72.177086 26.84375 71.552086Q27.171875 70.927086 27.171875 70.270836Q27.171875 69.38021 26.625 68.81771Q26.09375 68.239586 25.203125 68.239586Q24.125 68.239586 23.515625 68.84896Q22.921875 69.458336 22.921875 70.552086L21.484375 70.552086Q21.484375 68.989586 22.484375 68.020836Q23.5 67.052086 25.203125 67.052086Q26.78125 67.052086 27.703125 67.88021Q28.625 68.708336 28.625 70.09896Q28.625 71.770836 26.484375 74.09896L23.4375 77.395836L29.15625 77.395836L29.15625 78.583336ZM31.359375 72.88021L31.9375 67.208336L37.765625 67.208336L37.765625 68.53646L33.171875 68.53646L32.828125 71.645836Q33.65625 71.145836 34.71875 71.145836Q36.28125 71.145836 37.1875 72.177086Q38.109375 73.208336 38.109375 74.958336Q38.109375 76.708336 37.15625 77.72396Q36.203125 78.739586 34.5 78.739586Q33.0 78.739586 32.046875 77.91146Q31.09375 77.06771 30.953125 75.583336L32.328125 75.583336Q32.453125 76.56771 33.015625 77.06771Q33.578125 77.552086 34.5 77.552086Q35.515625 77.552086 36.078125 76.864586Q36.65625 76.177086 36.65625 74.97396Q36.65625 73.833336 36.03125 73.145836Q35.421875 72.44271 34.390625 72.44271Q33.4375 72.44271 32.90625 72.864586L32.515625 73.177086L31.359375 72.88021ZM46.828125 73.72396Q46.828125 76.270836 45.953125 77.50521Q45.09375 78.739586 43.25 78.739586Q41.4375 78.739586 40.5625 77.53646Q39.6875 76.31771 39.65625 73.927086L39.65625 71.989586Q39.65625 69.489586 40.515625 68.270836Q41.390625 67.052086 43.234375 67.052086Q45.078125 67.052086 45.9375 68.22396Q46.8125 69.395836 46.828125 71.84896L46.828125 73.72396ZM45.390625 71.75521Q45.390625 69.91146 44.875 69.083336Q44.359375 68.239586 43.234375 68.239586Q42.125 68.239586 41.609375 69.083336Q41.109375 69.91146 41.09375 71.645836L41.09375 73.958336Q41.09375 75.802086 41.625 76.677086Q42.171875 77.552086 43.25 77.552086Q44.328125 77.552086 44.84375 76.72396Q45.359375 75.895836 45.390625 74.114586L45.390625 71.75521ZM55.828125 73.72396Q55.828125 76.270836 54.953125 77.50521Q54.09375 78.739586 52.25 78.739586Q50.4375 78.739586 49.5625 77.53646Q48.6875 76.31771 48.65625 73.927086L48.65625 71.989586Q48.65625 69.489586 49.515625 68.270836Q50.390625 67.052086 52.234375 67.052086Q54.078125 67.052086 54.9375 68.22396Q55.8125 69.395836 55.828125 71.84896L55.828125 73.72396ZM54.390625 71.75521Q54.390625 69.91146 53.875 69.083336Q53.359375 68.239586 52.234375 68.239586Q51.125 68.239586 50.609375 69.083336Q50.109375 69.91146 50.09375 71.645836L50.09375 73.958336Q50.09375 75.802086 50.625 76.677086Q51.171875 77.552086 52.25 77.552086Q53.328125 77.552086 53.84375 76.72396Q54.359375 75.895836 54.390625 74.114586L54.390625 71.75521Z" fill-rule="nonzero"/><path fill="#efefef" d="M104.89794 389.71997L101.17138 396.17456L100.26476 395.65112L98.44465 390.05365Q98.029655 388.80368 97.65245 388.20703Q97.27525 387.61035 96.70692 387.28223Q95.935616 386.8369 95.17504 387.02927Q94.408745 387.2003 93.96343 387.9716Q93.42437 388.90527 93.647415 389.7377Q93.87827 390.55658 94.82549 391.10345L94.10674 392.3484Q92.75358 391.56714 92.41461 390.21674Q92.083466 388.85278 92.93503 387.37784Q93.72409 386.01114 94.90221 385.62686Q96.080315 385.24255 97.28464 385.93787Q98.73252 386.7738 99.67842 389.7917L101.01016 394.0788L103.86954 389.12622L104.89794 389.71997ZM105.02554 379.7802Q107.2312 381.05365 107.8627 382.42862Q108.502014 383.79004 107.58014 385.38678Q106.67389 386.95645 105.19445 387.11267Q103.70148 387.26105 101.61552 386.0928L99.93759 385.12405Q97.77252 383.87405 97.14674 382.52045Q96.52878 381.1533 97.45065 379.55655Q98.37253 377.9598 99.817085 377.8015Q101.26946 377.62967 103.40174 378.8427L105.02554 379.7802ZM102.6018 380.04074Q101.005066 379.11887 100.030075 379.15137Q99.04156 379.17603 98.47906 380.1503Q97.92437 381.11105 98.39726 381.97946Q98.86444 382.82654 100.35864 383.70728L102.36133 384.86353Q103.95806 385.7854 104.98146 385.76282Q106.012665 385.7267 106.55173 384.79303Q107.09079 383.85934 106.63143 382.99875Q106.172066 382.13812 104.64508 381.22043L102.6018 380.04074ZM112.54639 376.47247L111.819824 377.73093L103.470795 372.9106L102.94354 375.9801L101.80688 375.32385L102.52403 370.9567L102.64122 370.75372L112.54639 376.47247ZM113.10688 365.50168Q113.3404 366.1597 113.312065 366.86505Q113.28373 367.57037 112.90873 368.21988Q112.41654 369.0724 111.62987 369.4662Q110.8432 369.86 109.8823 369.7743Q108.92922 369.67508 108.00907 369.14383Q107.021255 368.57352 106.45517 367.74152Q105.87556 366.9017 105.85451 365.9694Q105.833466 365.03708 106.364716 364.11694Q107.208466 362.65552 108.7889 362.44937Q110.35581 362.2354 112.250244 363.32916L112.6156 363.5401Q115.48431 365.19635 116.15416 367.09863Q116.82401 369.00092 115.54429 371.3112L115.40366 371.55478L114.33466 370.9376L114.4831 370.68048Q115.35448 369.1087 115.05974 367.83798Q114.75928 366.5459 113.10688 365.50168ZM111.997505 367.42316Q112.35688 366.8007 112.282684 366.05423Q112.20277 365.2864 111.77506 364.7147L111.27439 364.42563Q110.043015 363.7147 108.959206 363.81064Q107.88322 363.89307 107.406654 364.7185Q106.93009 365.54395 107.277016 366.4118Q107.61041 367.27185 108.65234 367.8734Q109.65369 368.45154 110.59799 368.3472Q111.528755 368.23505 111.997505 367.42316ZM120.24263 365.11093L119.61763 366.19348L111.28909 355.90018L111.90628 354.83118L120.24263 365.11093ZM125.04639 354.82184L124.319824 356.0803L115.970795 351.25998L115.44354 354.32947L114.306885 353.67322L115.02403 349.30606L115.14122 349.1031L125.04639 354.82184Z" fill-rule="nonzero"/><path fill="#efefef" d="M240.19095 389.71997L236.46439 396.17456L235.55777 395.65112L233.73766 390.05365Q233.32266 388.80368 232.94545 388.20703Q232.56825 387.61035 231.99992 387.28223Q231.22862 386.8369 230.46805 387.02927Q229.70175 387.2003 229.25644 387.9716Q228.71738 388.90527 228.94041 389.7377Q229.17128 390.55658 230.1185 391.10345L229.39975 392.3484Q228.04659 391.56714 227.70761 390.21674Q227.37646 388.85278 228.22803 387.37784Q229.01709 386.01114 230.1952 385.62683Q231.37332 385.24252 232.57764 385.93784Q234.02553 386.77377 234.97144 389.7917L236.30316 394.0788L239.16254 389.12622L240.19095 389.71997ZM240.31854 379.7802Q242.5242 381.05365 243.1557 382.42862Q243.79501 383.79004 242.87314 385.38678Q241.96689 386.95645 240.48746 387.11264Q238.99449 387.26105 236.90852 386.0928L235.23059 385.12405Q233.06554 383.87405 232.43974 382.52045Q231.82178 381.1533 232.74365 379.55655Q233.66553 377.9598 235.11009 377.8015Q236.56247 377.62967 238.69475 378.8427L240.31854 379.7802ZM237.8948 380.04074Q236.29807 379.11887 235.32307 379.15137Q234.33456 379.17603 233.77206 380.1503Q233.21738 381.11105 233.69026 381.97946Q234.15744 382.82654 235.65164 383.70728L237.65433 384.86353Q239.25107 385.7854 240.27446 385.76282Q241.30568 385.7267 241.84474 384.79303Q242.3838 383.85934 241.92444 382.99872Q241.46507 382.13812 239.93808 381.22043L237.8948 380.04074ZM247.83939 376.47247L247.11282 377.73093L238.7638 372.9106L238.23654 375.9801L237.09988 375.32385L237.81703 370.9567L237.93422 370.75372L247.83939 376.47247ZM248.39989 365.50168Q248.63339 366.1597 248.60506 366.86505Q248.57672 367.57037 248.20172 368.21988Q247.70953 369.0724 246.92287 369.4662Q246.1362 369.86 245.17531 369.7743Q244.22221 369.67508 243.30206 369.14383Q242.31425 368.57352 241.74817 367.74152Q241.16855 366.9017 241.1475 365.9694Q241.12646 365.03708 241.65771 364.11694Q242.50146 362.65552 244.08191 362.44937Q245.64882 362.2354 247.54324 363.32916L247.9086 363.5401Q250.77731 365.19635 251.44716 367.09863Q252.117 369.00092 250.8373 371.3112L250.69667 371.55478L249.62767 370.9376L249.77611 370.68048Q250.64748 369.10873 250.35274 367.83798Q250.05228 366.5459 248.39989 365.50168ZM247.29051 367.42316Q247.64989 366.80072 247.57568 366.05423Q247.49577 365.2864 247.06807 364.7147L246.5674 364.42563Q245.33601 363.7147 244.25221 363.81064Q243.17622 363.89307 242.69966 364.7185Q242.2231 365.54395 242.57002 366.4118Q242.90341 367.27185 243.94534 367.8734Q244.94669 368.45154 245.89099 368.3472Q246.82176 368.23505 247.29051 367.42316ZM255.53563 365.11093L254.91063 366.19348L246.58209 355.90018L247.19928 354.83118L255.53563 365.11093ZM252.48886 347.29434L259.2769 356.66214L258.51907 357.97473L252.048 348.80795L248.96988 354.1394L247.94147 353.54565L251.78522 346.8881L252.48886 347.29434Z" fill-rule="nonzero"/><path fill="#efefef" d="M377.72638 389.71997L373.99982 396.17456L373.0932 395.65112L371.27307 390.05365Q370.8581 388.80368 370.4809 388.20703Q370.10367 387.61035 369.53534 387.28223Q368.76404 386.8369 368.00348 387.02927Q367.23718 387.2003 366.79187 387.9716Q366.2528 388.90527 366.47586 389.7377Q366.7067 390.55658 367.65393 391.10345L366.93518 392.34836Q365.582 391.5671 365.24304 390.21674Q364.9119 388.85278 365.76346 387.37784Q366.55252 386.01114 367.73062 385.62683Q368.90875 385.24252 370.11307 385.93784Q371.56094 386.77377 372.50687 389.7917L373.8386 394.0788L376.69797 389.12622L377.72638 389.71997ZM377.85397 379.7802Q380.05963 381.05365 380.69113 382.4286Q381.33044 383.79004 380.40857 385.38678Q379.50232 386.95645 378.0229 387.11264Q376.5299 387.26105 374.44394 386.0928L372.76602 385.12405Q370.60095 383.87405 369.9752 382.52042Q369.3572 381.1533 370.27908 379.55655Q371.20096 377.9598 372.6455 377.8015Q374.0979 377.62967 376.23016 378.8427L377.85397 379.7802ZM375.43024 380.04074Q373.8335 379.11887 372.85852 379.15134Q371.87 379.17603 371.3075 380.1503Q370.7528 381.11105 371.2257 381.97946Q371.69287 382.82654 373.18707 383.70724L375.18976 384.8635Q376.7865 385.78537 377.80988 385.76282Q378.8411 385.72668 379.38016 384.79303Q379.91922 383.85934 379.45987 382.99872Q379.0005 382.13812 377.4735 381.22043L375.43024 380.04074ZM386.72638 374.1315L382.99982 380.5861L382.0932 380.06265L380.27307 374.46518Q379.8581 373.2152 379.4809 372.61856Q379.10367 372.02188 378.53534 371.69376Q377.76404 371.24844 377.00348 371.44083Q376.23718 371.61182 375.79187 372.38312Q375.2528 373.3168 375.47586 374.14923Q375.7067 374.96814 376.65393 375.515L375.93518 376.75992Q374.582 375.97867 374.24304 374.62827Q373.9119 373.26434 374.76346 371.78937Q375.55252 370.4227 376.73062 370.0384Q377.90875 369.65408 379.11307 370.3494Q380.56094 371.18533 381.50687 374.20322L382.8386 378.49033L385.69797 373.53775L386.72638 374.1315ZM386.85397 364.19174Q389.05963 365.46518 389.69113 366.84015Q390.33044 368.20157 389.40857 369.7983Q388.50232 371.36798 387.0229 371.5242Q385.5299 371.67258 383.44394 370.50433L381.76602 369.53558Q379.60095 368.28558 378.9752 366.93198Q378.3572 365.56482 379.27908 363.96808Q380.20096 362.37137 381.6455 362.21304Q383.0979 362.04123 385.23016 363.25424L386.85397 364.19174ZM384.43024 364.45227Q382.8335 363.5304 381.85852 363.5629Q380.87 363.58755 380.3075 364.56183Q379.7528 365.52258 380.2257 366.391Q380.69287 367.23807 382.18707 368.1188L384.18976 369.27505Q385.7865 370.19693 386.80988 370.17435Q387.8411 370.13824 388.38016 369.20456Q388.91922 368.27087 388.45987 367.41028Q388.0005 366.54965 386.4735 365.63196L384.43024 364.45227ZM393.07104 365.11093L392.44604 366.19348L384.11752 355.90018L384.7347 354.83118L393.07104 365.11093ZM397.87482 354.82184L397.14825 356.0803L388.79922 351.25998L388.27197 354.32944L387.1353 353.6732L387.85245 349.30606L387.96964 349.1031L397.87482 354.82184Z" fill-rule="nonzero"/><path fill="#efefef" d="M513.76685 389.72L510.04028 396.1746L509.13364 395.65115L507.31354 390.05368Q506.89856 388.8037 506.52133 388.20706Q506.14413 387.61038 505.5758 387.28226Q504.8045 386.83694 504.0439 387.0293Q503.27762 387.20032 502.8323 387.97162Q502.29324 388.9053 502.5163 389.73773Q502.74716 390.5566 503.69437 391.1035L502.97562 392.34842Q501.62247 391.56717 501.2835 390.21677Q500.95236 388.8528 501.80392 387.37787Q502.593 386.01117 503.7711 385.62686Q504.94922 385.24255 506.15353 385.93787Q507.6014 386.7738 508.5473 389.79172L509.87906 394.07883L512.7384 389.12625L513.76685 389.72ZM513.8944 379.78024Q516.1001 381.05368 516.73157 382.42865Q517.3709 383.79007 516.44904 385.3868Q515.5428 386.95648 514.06335 387.11267Q512.5704 387.26108 510.4844 386.09283L508.8065 385.12408Q506.64142 383.87408 506.01562 382.52048Q505.39767 381.15332 506.31955 379.55658Q507.24142 377.95984 508.68597 377.80154Q510.13834 377.6297 512.2706 378.84274L513.8944 379.78024ZM511.4707 380.04077Q509.87396 379.1189 508.89896 379.1514Q507.91043 379.17606 507.34793 380.15033Q506.79324 381.11108 507.26614 381.9795Q507.73334 382.82657 509.22754 383.7073L511.23022 384.86356Q512.82697 385.78543 513.85034 385.76285Q514.88153 385.72675 515.4206 384.79306Q515.95966 383.85938 515.5003 382.99875Q515.04095 382.13815 513.514 381.22046L511.4707 380.04077ZM522.76685 374.13153L519.0403 380.58612L518.13367 380.06268L516.31354 374.4652Q515.89856 373.21527 515.52136 372.6186Q515.14417 372.02194 514.5758 371.69382Q513.8045 371.2485 513.04395 371.44086Q512.27765 371.61188 511.8323 372.38318Q511.29324 373.31686 511.5163 374.14926Q511.74716 374.96817 512.6944 375.51505L511.97562 376.75995Q510.62247 375.9787 510.2835 374.6283Q509.95236 373.26437 510.80392 371.78943Q511.593 370.42273 512.7711 370.03842Q513.9492 369.6541 515.1535 370.34943Q516.6014 371.18536 517.5473 374.20325L518.879 378.49036L521.7384 373.53778L522.76685 374.13153ZM522.8944 364.19177Q525.1001 365.4652 525.73157 366.84018Q526.3709 368.2016 525.44904 369.79834Q524.5428 371.368 523.06335 371.52423Q521.5704 371.6726 519.4844 370.50436L517.80646 369.5356Q515.6414 368.2856 515.0156 366.932Q514.39764 365.56485 515.3195 363.96814Q516.2414 362.3714 517.686 362.21307Q519.13837 362.04126 521.2706 363.25427L522.8944 364.19177ZM520.4707 364.45233Q518.87396 363.53046 517.899 363.56293Q516.91046 363.5876 516.34796 364.5619Q515.7933 365.5226 516.2662 366.39105Q516.73334 367.23813 518.22754 368.11884L520.2302 369.2751Q521.82697 370.19696 522.85034 370.17438Q523.88153 370.13828 524.4206 369.2046Q524.95966 368.2709 524.5003 367.4103Q524.04095 366.54968 522.514 365.63202L520.4707 364.45233ZM529.1115 365.11096L528.4865 366.1935L520.15796 355.9002L520.77515 354.8312L529.1115 365.11096ZM526.06476 347.29437L532.8528 356.66217L532.095 357.97476L525.6239 348.80798L522.5458 354.13943L521.51733 353.5457L525.3611 346.88812L526.06476 347.29437Z" fill-rule="nonzero"/><path fill="#efefef" d="M35.328125 41.515625Q34.46875 42.75 32.90625 43.375Q31.359375 43.984375 29.296875 43.984375Q27.203125 43.984375 25.578125 43.015625Q23.96875 42.03125 23.078125 40.234375Q22.203125 38.421875 22.1875 36.03125L22.1875 34.546875Q22.1875 30.6875 23.984375 28.578125Q25.78125 26.453125 29.03125 26.453125Q31.703125 26.453125 33.328125 27.828125Q34.96875 29.1875 35.328125 31.6875L33.078125 31.6875Q32.453125 28.296875 29.046875 28.296875Q26.78125 28.296875 25.609375 29.890625Q24.453125 31.484375 24.4375 34.484375L24.4375 35.890625Q24.4375 38.75 25.75 40.453125Q27.0625 42.140625 29.3125 42.140625Q30.578125 42.140625 31.515625 41.859375Q32.46875 41.578125 33.09375 40.90625L33.09375 37.078125L29.140625 37.078125L29.140625 35.25L35.328125 35.25L35.328125 41.515625ZM46.21875 43.75Q46.03125 43.375 45.921875 42.40625Q44.40625 43.984375 42.3125 43.984375Q40.4375 43.984375 39.234375 42.921875Q38.03125 41.859375 38.03125 40.234375Q38.03125 38.25 39.53125 37.15625Q41.046875 36.0625 43.765625 36.0625L45.875 36.0625L45.875 35.0625Q45.875 33.921875 45.1875 33.25Q44.515625 32.578125 43.203125 32.578125Q42.03125 32.578125 41.25 33.171875Q40.46875 33.75 40.46875 34.578125L38.28125 34.578125Q38.28125 33.640625 38.953125 32.75Q39.640625 31.859375 40.78125 31.34375Q41.9375 30.828125 43.328125 30.828125Q45.515625 30.828125 46.75 31.9375Q48.0 33.03125 48.046875 34.953125L48.046875 40.78125Q48.046875 42.53125 48.5 43.5625L48.5 43.75L46.21875 43.75ZM42.625 42.09375Q43.640625 42.09375 44.546875 41.578125Q45.46875 41.046875 45.875 40.203125L45.875 37.59375L44.1875 37.59375Q40.203125 37.59375 40.203125 39.921875Q40.203125 40.953125 40.875 41.53125Q41.5625 42.09375 42.625 42.09375ZM53.75 43.75L51.578125 43.75L51.578125 25.75L53.75 25.75L53.75 43.75ZM65.21875 43.75Q65.03125 43.375 64.921875 42.40625Q63.40625 43.984375 61.3125 43.984375Q59.4375 43.984375 58.234375 42.921875Q57.03125 41.859375 57.03125 40.234375Q57.03125 38.25 58.53125 37.15625Q60.046875 36.0625 62.765625 36.0625L64.875 36.0625L64.875 35.0625Q64.875 33.921875 64.1875 33.25Q63.515625 32.578125 62.203125 32.578125Q61.03125 32.578125 60.25 33.171875Q59.46875 33.75 59.46875 34.578125L57.28125 34.578125Q57.28125 33.640625 57.953125 32.75Q58.640625 31.859375 59.78125 31.34375Q60.9375 30.828125 62.328125 30.828125Q64.515625 30.828125 65.75 31.9375Q67.0 33.03125 67.046875 34.953125L67.046875 40.78125Q67.046875 42.53125 67.5 43.5625L67.5 43.75L65.21875 43.75ZM61.625 42.09375Q62.640625 42.09375 63.546875 41.578125Q64.46875 41.046875 64.875 40.203125L64.875 37.59375L63.1875 37.59375Q59.203125 37.59375 59.203125 39.921875Q59.203125 40.953125 59.875 41.53125Q60.5625 42.09375 61.625 42.09375ZM74.640625 35.703125L77.453125 31.0625L79.984375 31.0625L75.84375 37.34375L80.125 43.75L77.609375 43.75L74.6875 39.0L71.75 43.75L69.234375 43.75L73.515625 37.34375L69.359375 31.0625L71.875 31.0625L74.640625 35.703125ZM86.546875 40.578125L89.5 31.0625L91.8125 31.0625L86.71875 45.703125Q85.53125 48.875 82.953125 48.875L82.546875 48.84375L81.734375 48.6875L81.734375 46.921875L82.328125 46.96875Q83.421875 46.96875 84.03125 46.515625Q84.65625 46.078125 85.046875 44.90625L85.53125 43.609375L81.015625 31.0625L83.375 31.0625L86.546875 40.578125ZM112.84375 43.75L110.578125 43.75L110.578125 35.859375L101.984375 35.859375L101.984375 43.75L99.734375 43.75L99.734375 26.6875L101.984375 26.6875L101.984375 34.015625L110.578125 34.015625L110.578125 26.6875L112.84375 26.6875L112.84375 43.75ZM121.65625 43.984375Q119.078125 43.984375 117.453125 42.296875Q115.84375 40.59375 115.84375 37.765625L115.84375 37.359375Q115.84375 35.46875 116.5625 34.0Q117.28125 32.515625 118.578125 31.671875Q119.875 30.828125 121.390625 30.828125Q123.859375 30.828125 125.21875 32.46875Q126.59375 34.09375 126.59375 37.125L126.59375 38.03125L118.015625 38.03125Q118.0625 39.90625 119.109375 41.0625Q120.15625 42.21875 121.765625 42.21875Q122.921875 42.21875 123.71875 41.75Q124.515625 41.28125 125.109375 40.5L126.4375 41.53125Q124.84375 43.984375 121.65625 43.984375ZM121.390625 32.609375Q120.078125 32.609375 119.1875 33.578125Q118.296875 34.53125 118.078125 36.25L124.4375 36.25L124.4375 36.078125Q124.34375 34.4375 123.546875 33.53125Q122.75 32.609375 121.390625 32.609375ZM131.75 43.75L129.57812 43.75L129.57812 25.75L131.75 25.75L131.75 43.75ZM146.10938 37.546875Q146.10938 40.4375 144.78125 42.21875Q143.45312 43.984375 141.1875 43.984375Q138.89062 43.984375 137.5625 42.515625L137.5625 48.625L135.39062 48.625L135.39062 31.0625L137.375 31.0625L137.48438 32.46875Q138.79688 30.828125 141.15625 30.828125Q143.4375 30.828125 144.76562 32.5625Q146.10938 34.28125 146.10938 37.34375L146.10938 37.546875ZM143.9375 37.296875Q143.9375 35.15625 143.01562 33.921875Q142.10938 32.671875 140.51562 32.671875Q138.54688 32.671875 137.5625 34.421875L137.5625 40.484375Q138.53125 42.21875 140.53125 42.21875Q142.09375 42.21875 143.01562 40.984375Q143.9375 39.734375 143.9375 37.296875ZM148.4375 42.609375Q148.4375 42.046875 148.76562 41.671875Q149.10938 41.296875 149.76562 41.296875Q150.4375 41.296875 150.78125 41.671875Q151.14062 42.046875 151.14062 42.609375Q151.14062 43.15625 150.78125 43.515625Q150.4375 43.875 149.76562 43.875Q149.10938 43.875 148.76562 43.515625Q148.4375 43.15625 148.4375 42.609375ZM148.4375 32.609375Q148.4375 32.046875 148.76562 31.671875Q149.10938 31.296875 149.76562 31.296875Q150.4375 31.296875 150.78125 31.671875Q151.14062 32.046875 151.14062 32.609375Q151.14062 33.15625 150.78125 33.515625Q150.4375 33.875 149.76562 33.875Q149.10938 33.875 148.76562 33.515625Q148.4375 33.15625 148.4375 32.609375ZM170.15625 39.296875L163.0 39.296875L161.40625 43.75L159.07812 43.75L165.59375 26.6875L167.5625 26.6875L174.09375 43.75L171.78125 43.75L170.15625 39.296875ZM163.6875 37.4375L169.48438 37.4375L166.57812 29.46875L163.6875 37.4375ZM181.48438 42.21875Q182.64062 42.21875 183.5 41.515625Q184.375 40.8125 184.46875 39.75L186.51562 39.75Q186.45312 40.84375 185.76562 41.828125Q185.07812 42.8125 183.92188 43.40625Q182.76562 43.984375 181.48438 43.984375Q178.89062 43.984375 177.35938 42.265625Q175.82812 40.53125 175.82812 37.53125L175.82812 37.15625Q175.82812 35.3125 176.5 33.875Q177.1875 32.421875 178.45312 31.625Q179.73438 30.828125 181.46875 30.828125Q183.59375 30.828125 185.0 32.109375Q186.42188 33.390625 186.51562 35.421875L184.46875 35.421875Q184.375 34.203125 183.53125 33.40625Q182.70312 32.609375 181.46875 32.609375Q179.8125 32.609375 178.90625 33.8125Q178.0 35.0 178.0 37.25L178.0 37.65625Q178.0 39.84375 178.89062 41.03125Q179.79688 42.21875 181.48438 42.21875ZM194.48438 42.21875Q195.64062 42.21875 196.5 41.515625Q197.375 40.8125 197.46875 39.75L199.51562 39.75Q199.45312 40.84375 198.76562 41.828125Q198.07812 42.8125 196.92188 43.40625Q195.76562 43.984375 194.48438 43.984375Q191.89062 43.984375 190.35938 42.265625Q188.82812 40.53125 188.82812 37.53125L188.82812 37.15625Q188.82812 35.3125 189.5 33.875Q190.1875 32.421875 191.45312 31.625Q192.73438 30.828125 194.46875 30.828125Q196.59375 30.828125 198.0 32.109375Q199.42188 33.390625 199.51562 35.421875L197.46875 35.421875Q197.375 34.203125 196.53125 33.40625Q195.70312 32.609375 194.46875 32.609375Q192.8125 32.609375 191.90625 33.8125Q191.0 35.0 191.0 37.25L191.0 37.65625Q191.0 39.84375 191.89062 41.03125Q192.79688 42.21875 194.48438 42.21875ZM201.8125 37.296875Q201.8125 35.421875 202.54688 33.9375Q203.28125 32.453125 204.57812 31.640625Q205.89062 30.828125 207.57812 30.828125Q210.15625 30.828125 211.75 32.625Q213.35938 34.421875 213.35938 37.390625L213.35938 37.546875Q213.35938 39.40625 212.64062 40.875Q211.9375 42.34375 210.625 43.171875Q209.3125 43.984375 207.59375 43.984375Q205.01562 43.984375 203.40625 42.1875Q201.8125 40.390625 201.8125 37.4375L201.8125 37.296875ZM204.0 37.546875Q204.0 39.65625 204.96875 40.9375Q205.95312 42.21875 207.59375 42.21875Q209.25 42.21875 210.21875 40.921875Q211.1875 39.625 211.1875 37.296875Q211.1875 35.203125 210.20312 33.90625Q209.21875 32.609375 207.57812 32.609375Q205.96875 32.609375 204.98438 33.890625Q204.0 35.171875 204.0 37.546875ZM224.21875 42.5Q222.95312 43.984375 220.5 43.984375Q218.48438 43.984375 217.42188 42.8125Q216.35938 41.625 216.34375 39.3125L216.34375 31.0625L218.51562 31.0625L218.51562 39.265625Q218.51562 42.140625 220.85938 42.140625Q223.34375 42.140625 224.15625 40.296875L224.15625 31.0625L226.32812 31.0625L226.32812 43.75L224.26562 43.75L224.21875 42.5ZM231.4375 31.0625L231.51562 32.65625Q232.96875 30.828125 235.3125 30.828125Q239.32812 30.828125 239.35938 35.375L239.35938 43.75L237.20312 43.75L237.20312 35.359375Q237.1875 33.984375 236.5625 33.328125Q235.95312 32.671875 234.65625 32.671875Q233.59375 32.671875 232.79688 33.234375Q232.0 33.796875 231.5625 34.71875L231.5625 43.75L229.39062 43.75L229.39062 31.0625L231.4375 31.0625ZM245.32812 28.0L245.32812 31.0625L247.70312 31.0625L247.70312 32.75L245.32812 32.75L245.32812 40.609375Q245.32812 41.375 245.64062 41.75Q245.96875 42.125 246.73438 42.125Q247.10938 42.125 247.76562 41.984375L247.76562 43.75Q246.90625 43.984375 246.09375 43.984375Q244.64062 43.984375 243.90625 43.109375Q243.17188 42.21875 243.17188 40.609375L243.17188 32.75L240.85938 32.75L240.85938 31.0625L243.17188 31.0625L243.17188 28.0L245.32812 28.0ZM257.78125 40.390625Q257.78125 39.5 257.10938 39.015625Q256.45312 38.53125 254.79688 38.1875Q253.15625 37.828125 252.1875 37.34375Q251.21875 36.84375 250.75 36.171875Q250.29688 35.484375 250.29688 34.546875Q250.29688 32.984375 251.60938 31.90625Q252.9375 30.828125 254.98438 30.828125Q257.14062 30.828125 258.48438 31.953125Q259.82812 33.0625 259.82812 34.796875L257.64062 34.796875Q257.64062 33.90625 256.89062 33.265625Q256.14062 32.609375 254.98438 32.609375Q253.79688 32.609375 253.125 33.125Q252.46875 33.640625 252.46875 34.484375Q252.46875 35.265625 253.07812 35.671875Q253.70312 36.0625 255.32812 36.421875Q256.95312 36.78125 257.95312 37.296875Q258.96875 37.796875 259.45312 38.515625Q259.9375 39.21875 259.9375 40.234375Q259.9375 41.9375 258.57812 42.96875Q257.21875 43.984375 255.0625 43.984375Q253.53125 43.984375 252.35938 43.453125Q251.1875 42.90625 250.51562 41.9375Q249.85938 40.96875 249.85938 39.84375L252.03125 39.84375Q252.09375 40.9375 252.90625 41.578125Q253.71875 42.21875 255.0625 42.21875Q256.28125 42.21875 257.03125 41.71875Q257.78125 41.21875 257.78125 40.390625Z" fill-rule="nonzero"/></svg>