<svg version="1.1" viewBox="0.0 0.0 668.0 415.0" fill="none" stroke="none" stroke-linecap="square" stroke-miterlimit="10" width="668" height="415" xmlns:xlink="http://www.w3.org/1999/xlink" xmlns="http://www.w3.org/2000/svg"><path fill="#000000" d="M0 0L668.0 0L668.0 415.0L0 415.0L0 0Z" fill-rule="nonzero"/><path stroke="#333333" stroke-width="1.0" stroke-linecap="butt" d="M103.5 73.5L103.5 328.5" fill-rule="nonzero"/><path stroke="#333333" stroke-width="1.0" stroke-linecap="butt" d="M197.5 73.5L197.5 328.5" fill-rule="nonzero"/><path stroke="#333333" stroke-width="1.0" stroke-linecap="butt" d="M292.5 73.5L292.5 328.5" fill-rule="nonzero"/><path stroke="#333333" stroke-width="1.0" stroke-linecap="butt" d="M387.5 73.5L387.5 328.5" fill-rule="nonzero"/><path stroke="#333333" stroke-width="1.0" stroke-linecap="butt" d="M482.5 73.5L482.5 328.5" fill-rule="nonzero"/><path stroke="#333333" stroke-width="1.0" stroke-linecap="butt" d="M576.5 73.5L576.5 328.5" fill-rule="nonzero"/><path stroke="#cccccc" stroke-width="1.0" stroke-linecap="butt" d="M64.5 328.5L647.5 328.5" fill-rule="nonzero"/><path stroke="#333333" stroke-width="1.0" stroke-linecap="butt" d="M64.5 243.5L647.5 243.5" fill-rule="nonzero"/><path stroke="#333333" stroke-width="1.0" stroke-linecap="butt" d="M64.5 158.5L647.5 158.5" fill-rule="nonzero"/><path stroke="#333333" stroke-width="1.0" stroke-linecap="butt" d="M64.5 73.5L647.5 73.5" fill-rule="nonzero"/><clipPath id="id_0"><path d="M64.75 73.083336L647.25 73.083336L647.25 328.67245L64.75 328.67245L64.75 73.083336Z" clip-rule="nonzero"/></clipPath><path stroke="#4285f4" stroke-width="4.0" stroke-linecap="butt" clip-path="url(#id_0)" d="M71.58571 326.71292C71.58571 326.71292 81.96579 323.33713 87.15583 321.77155C92.34588 320.20593 97.88192 318.5767 103.244965 317.17093C108.60801 315.7652 114.49005 314.7662 119.33409 313.3371C124.17813 311.908 129.02217 309.8981 133.86621 308.2253C138.71025 306.55255 144.7653 304.46158 149.95534 302.77277C155.14539 301.08395 160.33542 299.46796 165.52547 297.91656C170.7155 296.36517 176.42456 294.92416 181.6146 293.31595C186.80464 291.70776 191.99467 289.8646 197.18472 288.119C202.37476 286.37338 207.91081 284.49814 213.27385 282.6664C218.63689 280.8347 224.17294 279.11517 229.36298 277.12863C234.55302 275.1421 239.74306 272.45886 244.9331 270.5685C250.12315 268.67816 255.8322 267.2193 261.02225 265.62714C266.21228 264.03497 271.4023 262.58572 276.59235 260.85614C281.7824 259.12656 287.31845 257.0791 292.6815 255.06279C298.04453 253.04646 303.75357 250.76358 308.77063 248.75826C313.78766 246.75293 318.8047 245.18733 323.82175 242.62411C328.83878 240.0609 334.72083 235.99666 339.91086 232.74133C345.10092 229.48601 350.29095 225.57523 355.481 222.77336C360.67105 219.9715 366.3801 218.00694 371.57013 215.70206C376.76016 213.39717 381.9502 210.96588 387.14026 208.71596C392.3303 206.46603 397.86633 204.18636 403.22937 201.98544C408.59244 199.78455 414.12848 197.74762 419.3185 195.51051C424.50854 193.27342 429.6986 190.56363 434.88864 188.35402C440.07867 186.14441 445.78772 184.00351 450.97775 182.0495C456.16782 180.09547 461.35785 178.40804 466.54788 176.42653C471.73795 174.44504 477.274 171.91113 482.63702 169.95161C488.00006 167.9921 493.8821 166.78514 498.72614 164.66943C503.5702 162.55373 508.4142 158.90036 513.25824 156.74617C518.1023 154.59198 524.15735 153.08136 529.3474 151.2084C534.5374 149.33546 539.7275 147.57382 544.91754 145.32986C550.10754 143.08589 555.8166 139.57956 561.00665 137.49179C566.1967 135.40402 571.3867 134.25342 576.5768 132.5504C581.76685 130.8474 587.30286 128.87276 592.6659 127.09783C598.02893 125.32291 603.565 123.718834 608.75507 121.900856C613.94507 120.08287 619.13513 117.89525 624.32513 116.02231C629.5152 114.14936 640.4143 110.48454 640.4143 110.48454" fill-rule="nonzero"/><path fill="#4285f4" clip-path="url(#id_0)" d="M76.08571 326.71292C76.08571 329.1982 74.07099 331.21292 71.58571 331.21292C69.100426 331.21292 67.08571 329.1982 67.08571 326.71292C67.08571 324.22766 69.100426 322.21292 71.58571 322.21292C74.07099 322.21292 76.08571 324.22766 76.08571 326.71292Z" fill-rule="nonzero"/><path fill="#4285f4" clip-path="url(#id_0)" d="M91.65583 321.77155C91.65583 324.25684 89.64111 326.27155 87.15583 326.27155C84.670555 326.27155 82.65583 324.25684 82.65583 321.77155C82.65583 319.28625 84.670555 317.27155 87.15583 317.27155C89.64111 317.27155 91.65583 319.28625 91.65583 321.77155Z" fill-rule="nonzero"/><path fill="#4285f4" clip-path="url(#id_0)" d="M107.744965 317.17093C107.744965 319.65622 105.73025 321.67093 103.244965 321.67093C100.75968 321.67093 98.744965 319.65622 98.744965 317.17093C98.744965 314.68567 100.75968 312.67093 103.244965 312.67093C105.73025 312.67093 107.744965 314.68567 107.744965 317.17093Z" fill-rule="nonzero"/><path fill="#4285f4" clip-path="url(#id_0)" d="M123.83409 313.3371C123.83409 315.8224 121.819374 317.8371 119.33409 317.8371C116.84881 317.8371 114.83409 315.8224 114.83409 313.3371C114.83409 310.85184 116.84881 308.8371 119.33409 308.8371C121.819374 308.8371 123.83409 310.85184 123.83409 313.3371Z" fill-rule="nonzero"/><path fill="#4285f4" clip-path="url(#id_0)" d="M138.36621 308.2253C138.36621 310.7106 136.35149 312.7253 133.86621 312.7253C131.38094 312.7253 129.36621 310.7106 129.36621 308.2253C129.36621 305.74005 131.38094 303.7253 133.86621 303.7253C136.35149 303.7253 138.36621 305.74005 138.36621 308.2253Z" fill-rule="nonzero"/><path fill="#4285f4" clip-path="url(#id_0)" d="M154.45534 302.77277C154.45534 305.25803 152.44063 307.27277 149.95534 307.27277C147.47006 307.27277 145.45534 305.25803 145.45534 302.77277C145.45534 300.28748 147.47006 298.27277 149.95534 298.27277C152.44063 298.27277 154.45534 300.28748 154.45534 302.77277Z" fill-rule="nonzero"/><path fill="#4285f4" clip-path="url(#id_0)" d="M170.02547 297.91656C170.02547 300.40186 168.01074 302.41656 165.52547 302.41656C163.04018 302.41656 161.02547 300.40186 161.02547 297.91656C161.02547 295.43127 163.04018 293.41656 165.52547 293.41656C168.01074 293.41656 170.02547 295.43127 170.02547 297.91656Z" fill-rule="nonzero"/><path fill="#4285f4" clip-path="url(#id_0)" d="M186.1146 293.31595C186.1146 295.80124 184.09987 297.81595 181.6146 297.81595C179.12932 297.81595 177.1146 295.80124 177.1146 293.31595C177.1146 290.8307 179.12932 288.81595 181.6146 288.81595C184.09987 288.81595 186.1146 290.8307 186.1146 293.31595Z" fill-rule="nonzero"/><path fill="#4285f4" clip-path="url(#id_0)" d="M201.68472 288.119C201.68472 290.60425 199.67 292.619 197.18472 292.619C194.69943 292.619 192.68472 290.60425 192.68472 288.119C192.68472 285.6337 194.69943 283.619 197.18472 283.619C199.67 283.619 201.68472 285.6337 201.68472 288.119Z" fill-rule="nonzero"/><path fill="#4285f4" clip-path="url(#id_0)" d="M217.77385 282.6664C217.77385 285.1517 215.75912 287.1664 213.27385 287.1664C210.78857 287.1664 208.77385 285.1517 208.77385 282.6664C208.77385 280.18112 210.78857 278.1664 213.27385 278.1664C215.75912 278.1664 217.77385 280.18112 217.77385 282.6664Z" fill-rule="nonzero"/><path fill="#4285f4" clip-path="url(#id_0)" d="M233.86298 277.12863C233.86298 279.61392 231.84827 281.62863 229.36298 281.62863C226.8777 281.62863 224.86298 279.61392 224.86298 277.12863C224.86298 274.64337 226.8777 272.62863 229.36298 272.62863C231.84827 272.62863 233.86298 274.64337 233.86298 277.12863Z" fill-rule="nonzero"/><path fill="#4285f4" clip-path="url(#id_0)" d="M249.4331 270.5685C249.4331 273.0538 247.41838 275.0685 244.9331 275.0685C242.44783 275.0685 240.4331 273.0538 240.4331 270.5685C240.4331 268.08325 242.44783 266.0685 244.9331 266.0685C247.41838 266.0685 249.4331 268.08325 249.4331 270.5685Z" fill-rule="nonzero"/><path fill="#4285f4" clip-path="url(#id_0)" d="M265.52225 265.62714C265.52225 268.11243 263.5075 270.12714 261.02225 270.12714C258.53696 270.12714 256.52225 268.11243 256.52225 265.62714C256.52225 263.14185 258.53696 261.12714 261.02225 261.12714C263.5075 261.12714 265.52225 263.14185 265.52225 265.62714Z" fill-rule="nonzero"/><path fill="#4285f4" clip-path="url(#id_0)" d="M281.09235 260.85614C281.09235 263.34143 279.07764 265.35614 276.59235 265.35614C274.1071 265.35614 272.09235 263.34143 272.09235 260.85614C272.09235 258.37085 274.1071 256.35614 276.59235 256.35614C279.07764 256.35614 281.09235 258.37085 281.09235 260.85614Z" fill-rule="nonzero"/><path fill="#4285f4" clip-path="url(#id_0)" d="M297.1815 255.06279C297.1815 257.54807 295.16678 259.56277 292.6815 259.56277C290.1962 259.56277 288.1815 257.54807 288.1815 255.06279C288.1815 252.5775 290.1962 250.56279 292.6815 250.56279C295.16678 250.56279 297.1815 252.5775 297.1815 255.06279Z" fill-rule="nonzero"/><path fill="#4285f4" clip-path="url(#id_0)" d="M313.27063 248.75826C313.27063 251.24353 311.2559 253.25826 308.77063 253.25826C306.28534 253.25826 304.27063 251.24353 304.27063 248.75826C304.27063 246.27296 306.28534 244.25826 308.77063 244.25826C311.2559 244.25826 313.27063 246.27296 313.27063 248.75826Z" fill-rule="nonzero"/><path fill="#4285f4" clip-path="url(#id_0)" d="M328.32175 242.62411C328.32175 245.10939 326.307 247.12411 323.82175 247.12411C321.33646 247.12411 319.32175 245.10939 319.32175 242.62411C319.32175 240.13884 321.33646 238.12411 323.82175 238.12411C326.307 238.12411 328.32175 240.13884 328.32175 242.62411Z" fill-rule="nonzero"/><path fill="#4285f4" clip-path="url(#id_0)" d="M344.41086 232.74133C344.41086 235.22662 342.39615 237.24133 339.91086 237.24133C337.4256 237.24133 335.41086 235.22662 335.41086 232.74133C335.41086 230.25606 337.4256 228.24133 339.91086 228.24133C342.39615 228.24133 344.41086 230.25606 344.41086 232.74133Z" fill-rule="nonzero"/><path fill="#4285f4" clip-path="url(#id_0)" d="M359.981 222.77336C359.981 225.25864 357.96628 227.27336 355.481 227.27336C352.99573 227.27336 350.981 225.25864 350.981 222.77336C350.981 220.28807 352.99573 218.27336 355.481 218.27336C357.96628 218.27336 359.981 220.28807 359.981 222.77336Z" fill-rule="nonzero"/><path fill="#4285f4" clip-path="url(#id_0)" d="M376.07013 215.70206C376.07013 218.18735 374.05542 220.20206 371.57013 220.20206C369.08484 220.20206 367.07013 218.18735 367.07013 215.70206C367.07013 213.21678 369.08484 211.20206 371.57013 211.20206C374.05542 211.20206 376.07013 213.21678 376.07013 215.70206Z" fill-rule="nonzero"/><path fill="#4285f4" clip-path="url(#id_0)" d="M391.64026 208.71596C391.64026 211.20123 389.62552 213.21596 387.14026 213.21596C384.65497 213.21596 382.64026 211.20123 382.64026 208.71596C382.64026 206.23068 384.65497 204.21596 387.14026 204.21596C389.62552 204.21596 391.64026 206.23068 391.64026 208.71596Z" fill-rule="nonzero"/><path fill="#4285f4" clip-path="url(#id_0)" d="M407.72937 201.98544C407.72937 204.47073 405.71466 206.48544 403.22937 206.48544C400.7441 206.48544 398.72937 204.47073 398.72937 201.98544C398.72937 199.50017 400.7441 197.48544 403.22937 197.48544C405.71466 197.48544 407.72937 199.50017 407.72937 201.98544Z" fill-rule="nonzero"/><path fill="#4285f4" clip-path="url(#id_0)" d="M423.8185 195.51051C423.8185 197.9958 421.8038 200.01051 419.3185 200.01051C416.83322 200.01051 414.8185 197.9958 414.8185 195.51051C414.8185 193.02524 416.83322 191.01051 419.3185 191.01051C421.8038 191.01051 423.8185 193.02524 423.8185 195.51051Z" fill-rule="nonzero"/><path fill="#4285f4" clip-path="url(#id_0)" d="M439.38864 188.35402C439.38864 190.83931 437.37393 192.85402 434.88864 192.85402C432.40335 192.85402 430.38864 190.83931 430.38864 188.35402C430.38864 185.86874 432.40335 183.85402 434.88864 183.85402C437.37393 183.85402 439.38864 185.86874 439.38864 188.35402Z" fill-rule="nonzero"/><path fill="#4285f4" clip-path="url(#id_0)" d="M455.47775 182.0495C455.47775 184.53477 453.46304 186.5495 450.97775 186.5495C448.4925 186.5495 446.47775 184.53477 446.47775 182.0495C446.47775 179.56421 448.4925 177.5495 450.97775 177.5495C453.46304 177.5495 455.47775 179.56421 455.47775 182.0495Z" fill-rule="nonzero"/><path fill="#4285f4" clip-path="url(#id_0)" d="M471.04788 176.42653C471.04788 178.91182 469.03317 180.92653 466.54788 180.92653C464.06262 180.92653 462.04788 178.91182 462.04788 176.42653C462.04788 173.94125 464.06262 171.92653 466.54788 171.92653C469.03317 171.92653 471.04788 173.94125 471.04788 176.42653Z" fill-rule="nonzero"/><path fill="#4285f4" clip-path="url(#id_0)" d="M487.13702 169.95161C487.13702 172.43689 485.1223 174.45161 482.63702 174.45161C480.15173 174.45161 478.13702 172.43689 478.13702 169.95161C478.13702 167.46632 480.15173 165.45161 482.63702 165.45161C485.1223 165.45161 487.13702 167.46632 487.13702 169.95161Z" fill-rule="nonzero"/><path fill="#4285f4" clip-path="url(#id_0)" d="M503.22614 164.66943C503.22614 167.15471 501.21143 169.16943 498.72614 169.16943C496.24088 169.16943 494.22614 167.15471 494.22614 164.66943C494.22614 162.18416 496.24088 160.16943 498.72614 160.16943C501.21143 160.16943 503.22614 162.18416 503.22614 164.66943Z" fill-rule="nonzero"/><path fill="#4285f4" clip-path="url(#id_0)" d="M517.75824 156.74617C517.75824 159.23145 515.7435 161.24617 513.25824 161.24617C510.77298 161.24617 508.75827 159.23145 508.75827 156.74617C508.75827 154.2609 510.77298 152.24617 513.25824 152.24617C515.7435 152.24617 517.75824 154.2609 517.75824 156.74617Z" fill-rule="nonzero"/><path fill="#4285f4" clip-path="url(#id_0)" d="M533.8474 151.2084C533.8474 153.6937 531.8327 155.7084 529.3474 155.7084C526.8621 155.7084 524.8474 153.6937 524.8474 151.2084C524.8474 148.72313 526.8621 146.7084 529.3474 146.7084C531.8327 146.7084 533.8474 148.72313 533.8474 151.2084Z" fill-rule="nonzero"/><path fill="#4285f4" clip-path="url(#id_0)" d="M549.41754 145.32986C549.41754 147.81514 547.40283 149.82986 544.91754 149.82986C542.43225 149.82986 540.41754 147.81514 540.41754 145.32986C540.41754 142.84457 542.43225 140.82986 544.91754 140.82986C547.40283 140.82986 549.41754 142.84457 549.41754 145.32986Z" fill-rule="nonzero"/><path fill="#4285f4" clip-path="url(#id_0)" d="M565.50665 137.49179C565.50665 139.97707 563.49194 141.99179 561.00665 141.99179C558.52136 141.99179 556.50665 139.97707 556.50665 137.49179C556.50665 135.00652 558.52136 132.99179 561.00665 132.99179C563.49194 132.99179 565.50665 135.00652 565.50665 137.49179Z" fill-rule="nonzero"/><path fill="#4285f4" clip-path="url(#id_0)" d="M581.0768 132.5504C581.0768 135.03568 579.0621 137.0504 576.5768 137.0504C574.0915 137.0504 572.0768 135.03568 572.0768 132.5504C572.0768 130.06512 574.0915 128.0504 576.5768 128.0504C579.0621 128.0504 581.0768 130.06512 581.0768 132.5504Z" fill-rule="nonzero"/><path fill="#4285f4" clip-path="url(#id_0)" d="M597.1659 127.09783C597.1659 129.58311 595.1512 131.59784 592.6659 131.59784C590.1806 131.59784 588.1659 129.58311 588.1659 127.09783C588.1659 124.61255 590.1806 122.59783 592.6659 122.59783C595.1512 122.59783 597.1659 124.61255 597.1659 127.09783Z" fill-rule="nonzero"/><path fill="#4285f4" clip-path="url(#id_0)" d="M613.25507 121.900856C613.25507 124.38614 611.2403 126.400856 608.75507 126.400856C606.2698 126.400856 604.25507 124.38614 604.25507 121.900856C604.25507 119.41557 606.2698 117.400856 608.75507 117.400856C611.2403 117.400856 613.25507 119.41557 613.25507 121.900856Z" fill-rule="nonzero"/><path fill="#4285f4" clip-path="url(#id_0)" d="M628.82513 116.02231C628.82513 118.50758 626.8104 120.52231 624.32513 120.52231C621.8399 120.52231 619.82513 118.50758 619.82513 116.02231C619.82513 113.537025 621.8399 111.52231 624.32513 111.52231C626.8104 111.52231 628.82513 113.537025 628.82513 116.02231Z" fill-rule="nonzero"/><path fill="#4285f4" clip-path="url(#id_0)" d="M644.9143 110.48454C644.9143 112.969826 642.8996 114.98454 640.4143 114.98454C637.929 114.98454 635.9143 112.969826 635.9143 110.48454C635.9143 107.99926 637.929 105.98454 640.4143 105.98454C642.8996 105.98454 644.9143 107.99926 644.9143 110.48454Z" fill-rule="nonzero"/><path fill="#efefef" d="M55.828125 329.31308Q55.828125 331.85995 54.953125 333.09433Q54.09375 334.3287 52.25 334.3287Q50.4375 334.3287 49.5625 333.12558Q48.6875 331.90683 48.65625 329.5162L48.65625 327.5787Q48.65625 325.0787 49.515625 323.85995Q50.390625 322.6412 52.234375 322.6412Q54.078125 322.6412 54.9375 323.81308Q55.8125 324.98495 55.828125 327.43808L55.828125 329.31308ZM54.390625 327.34433Q54.390625 325.50058 53.875 324.67245Q53.359375 323.8287 52.234375 323.8287Q51.125 323.8287 50.609375 324.67245Q50.109375 325.50058 50.09375 327.23495L50.09375 329.54745Q50.09375 331.3912 50.625 332.2662Q51.171875 333.1412 52.25 333.1412Q53.328125 333.1412 53.84375 332.31308Q54.359375 331.48495 54.390625 329.7037L54.390625 327.34433Z" fill-rule="nonzero"/><path fill="#efefef" d="M26.453125 248.97607L25.0 248.97607L25.0 239.33545L22.078125 240.41357L22.078125 239.10107L26.21875 237.53857L26.453125 237.53857L26.453125 248.97607ZM37.828125 244.1167Q37.828125 246.66357 36.953125 247.89795Q36.09375 249.13232 34.25 249.13232Q32.4375 249.13232 31.5625 247.9292Q30.6875 246.71045 30.65625 244.31982L30.65625 242.38232Q30.65625 239.88232 31.515625 238.66357Q32.390625 237.44482 34.234375 237.44482Q36.078125 237.44482 36.9375 238.6167Q37.8125 239.78857 37.828125 242.2417L37.828125 244.1167ZM36.390625 242.14795Q36.390625 240.3042 35.875 239.47607Q35.359375 238.63232 34.234375 238.63232Q33.125 238.63232 32.609375 239.47607Q32.109375 240.3042 32.09375 242.03857L32.09375 244.35107Q32.09375 246.19482 32.625 247.06982Q33.171875 247.94482 34.25 247.94482Q35.328125 247.94482 35.84375 247.1167Q36.359375 246.28857 36.390625 244.50732L36.390625 242.14795ZM46.828125 244.1167Q46.828125 246.66357 45.953125 247.89795Q45.09375 249.13232 43.25 249.13232Q41.4375 249.13232 40.5625 247.9292Q39.6875 246.71045 39.65625 244.31982L39.65625 242.38232Q39.65625 239.88232 40.515625 238.66357Q41.390625 237.44482 43.234375 237.44482Q45.078125 237.44482 45.9375 238.6167Q46.8125 239.78857 46.828125 242.2417L46.828125 244.1167ZM45.390625 242.14795Q45.390625 240.3042 44.875 239.47607Q44.359375 238.63232 43.234375 238.63232Q42.125 238.63232 41.609375 239.47607Q41.109375 240.3042 41.09375 242.03857L41.09375 244.35107Q41.09375 246.19482 41.625 247.06982Q42.171875 247.94482 43.25 247.94482Q44.328125 247.94482 44.84375 247.1167Q45.359375 246.28857 45.390625 244.50732L45.390625 242.14795ZM55.828125 244.1167Q55.828125 246.66357 54.953125 247.89795Q54.09375 249.13232 52.25 249.13232Q50.4375 249.13232 49.5625 247.9292Q48.6875 246.71045 48.65625 244.31982L48.65625 242.38232Q48.65625 239.88232 49.515625 238.66357Q50.390625 237.44482 52.234375 237.44482Q54.078125 237.44482 54.9375 238.6167Q55.8125 239.78857 55.828125 242.2417L55.828125 244.1167ZM54.390625 242.14795Q54.390625 240.3042 53.875 239.47607Q53.359375 238.63232 52.234375 238.63232Q51.125 238.63232 50.609375 239.47607Q50.109375 240.3042 50.09375 242.03857L50.09375 244.35107Q50.09375 246.19482 50.625 247.06982Q51.171875 247.94482 52.25 247.94482Q53.328125 247.94482 53.84375 247.1167Q54.359375 246.28857 54.390625 244.50732L54.390625 242.14795Z" fill-rule="nonzero"/><path fill="#efefef" d="M29.15625 163.77971L21.703125 163.77971L21.703125 162.73283L25.640625 158.35783Q26.515625 157.37346 26.84375 156.74846Q27.171875 156.12346 27.171875 155.46721Q27.171875 154.57658 26.625 154.01408Q26.09375 153.43596 25.203125 153.43596Q24.125 153.43596 23.515625 154.04533Q22.921875 154.65471 22.921875 155.74846L21.484375 155.74846Q21.484375 154.18596 22.484375 153.21721Q23.5 152.24846 25.203125 152.24846Q26.78125 152.24846 27.703125 153.07658Q28.625 153.90471 28.625 155.29533Q28.625 156.96721 26.484375 159.29533L23.4375 162.59221L29.15625 162.59221L29.15625 163.77971ZM37.828125 158.92033Q37.828125 161.46721 36.953125 162.70158Q36.09375 163.93596 34.25 163.93596Q32.4375 163.93596 31.5625 162.73283Q30.6875 161.51408 30.65625 159.12346L30.65625 157.18596Q30.65625 154.68596 31.515625 153.46721Q32.390625 152.24846 34.234375 152.24846Q36.078125 152.24846 36.9375 153.42033Q37.8125 154.59221 37.828125 157.04533L37.828125 158.92033ZM36.390625 156.95158Q36.390625 155.10783 35.875 154.27971Q35.359375 153.43596 34.234375 153.43596Q33.125 153.43596 32.609375 154.27971Q32.109375 155.10783 32.09375 156.84221L32.09375 159.15471Q32.09375 160.99846 32.625 161.87346Q33.171875 162.74846 34.25 162.74846Q35.328125 162.74846 35.84375 161.92033Q36.359375 161.09221 36.390625 159.31096L36.390625 156.95158ZM46.828125 158.92033Q46.828125 161.46721 45.953125 162.70158Q45.09375 163.93596 43.25 163.93596Q41.4375 163.93596 40.5625 162.73283Q39.6875 161.51408 39.65625 159.12346L39.65625 157.18596Q39.65625 154.68596 40.515625 153.46721Q41.390625 152.24846 43.234375 152.24846Q45.078125 152.24846 45.9375 153.42033Q46.8125 154.59221 46.828125 157.04533L46.828125 158.92033ZM45.390625 156.95158Q45.390625 155.10783 44.875 154.27971Q44.359375 153.43596 43.234375 153.43596Q42.125 153.43596 41.609375 154.27971Q41.109375 155.10783 41.09375 156.84221L41.09375 159.15471Q41.09375 160.99846 41.625 161.87346Q42.171875 162.74846 43.25 162.74846Q44.328125 162.74846 44.84375 161.92033Q45.359375 161.09221 45.390625 159.31096L45.390625 156.95158ZM55.828125 158.92033Q55.828125 161.46721 54.953125 162.70158Q54.09375 163.93596 52.25 163.93596Q50.4375 163.93596 49.5625 162.73283Q48.6875 161.51408 48.65625 159.12346L48.65625 157.18596Q48.65625 154.68596 49.515625 153.46721Q50.390625 152.24846 52.234375 152.24846Q54.078125 152.24846 54.9375 153.42033Q55.8125 154.59221 55.828125 157.04533L55.828125 158.92033ZM54.390625 156.95158Q54.390625 155.10783 53.875 154.27971Q53.359375 153.43596 52.234375 153.43596Q51.125 153.43596 50.609375 154.27971Q50.109375 155.10783 50.09375 156.84221L50.09375 159.15471Q50.09375 160.99846 50.625 161.87346Q51.171875 162.74846 52.25 162.74846Q53.328125 162.74846 53.84375 161.92033Q54.359375 161.09221 54.390625 159.31096L54.390625 156.95158Z" fill-rule="nonzero"/><path fill="#efefef" d="M23.796875 72.19271L24.890625 72.19271Q25.90625 72.177086 26.484375 71.66146Q27.078125 71.13021 27.078125 70.239586Q27.078125 68.239586 25.09375 68.239586Q24.15625 68.239586 23.59375 68.770836Q23.03125 69.302086 23.03125 70.19271L21.59375 70.19271Q21.59375 68.833336 22.578125 67.94271Q23.5625 67.052086 25.09375 67.052086Q26.703125 67.052086 27.609375 67.91146Q28.53125 68.75521 28.53125 70.270836Q28.53125 71.00521 28.046875 71.708336Q27.5625 72.395836 26.734375 72.739586Q27.671875 73.03646 28.1875 73.72396Q28.703125 74.41146 28.703125 75.41146Q28.703125 76.94271 27.703125 77.84896Q26.703125 78.739586 25.09375 78.739586Q23.5 78.739586 22.484375 77.88021Q21.484375 77.00521 21.484375 75.583336L22.9375 75.583336Q22.9375 76.47396 23.515625 77.020836Q24.109375 77.552086 25.09375 77.552086Q26.140625 77.552086 26.6875 77.00521Q27.25 76.458336 27.25 75.44271Q27.25 74.44271 26.640625 73.91146Q26.03125 73.38021 24.890625 73.364586L23.796875 73.364586L23.796875 72.19271ZM37.828125 73.72396Q37.828125 76.270836 36.953125 77.50521Q36.09375 78.739586 34.25 78.739586Q32.4375 78.739586 31.5625 77.53646Q30.6875 76.31771 30.65625 73.927086L30.65625 71.989586Q30.65625 69.489586 31.515625 68.270836Q32.390625 67.052086 34.234375 67.052086Q36.078125 67.052086 36.9375 68.22396Q37.8125 69.395836 37.828125 71.84896L37.828125 73.72396ZM36.390625 71.75521Q36.390625 69.91146 35.875 69.083336Q35.359375 68.239586 34.234375 68.239586Q33.125 68.239586 32.609375 69.083336Q32.109375 69.91146 32.09375 71.645836L32.09375 73.958336Q32.09375 75.802086 32.625 76.677086Q33.171875 77.552086 34.25 77.552086Q35.328125 77.552086 35.84375 76.72396Q36.359375 75.895836 36.390625 74.114586L36.390625 71.75521ZM46.828125 73.72396Q46.828125 76.270836 45.953125 77.50521Q45.09375 78.739586 43.25 78.739586Q41.4375 78.739586 40.5625 77.53646Q39.6875 76.31771 39.65625 73.927086L39.65625 71.989586Q39.65625 69.489586 40.515625 68.270836Q41.390625 67.052086 43.234375 67.052086Q45.078125 67.052086 45.9375 68.22396Q46.8125 69.395836 46.828125 71.84896L46.828125 73.72396ZM45.390625 71.75521Q45.390625 69.91146 44.875 69.083336Q44.359375 68.239586 43.234375 68.239586Q42.125 68.239586 41.609375 69.083336Q41.109375 69.91146 41.09375 71.645836L41.09375 73.958336Q41.09375 75.802086 41.625 76.677086Q42.171875 77.552086 43.25 77.552086Q44.328125 77.552086 44.84375 76.72396Q45.359375 75.895836 45.390625 74.114586L45.390625 71.75521ZM55.828125 73.72396Q55.828125 76.270836 54.953125 77.50521Q54.09375 78.739586 52.25 78.739586Q50.4375 78.739586 49.5625 77.53646Q48.6875 76.31771 48.65625 73.927086L48.65625 71.989586Q48.65625 69.489586 49.515625 68.270836Q50.390625 67.052086 52.234375 67.052086Q54.078125 67.052086 54.9375 68.22396Q55.8125 69.395836 55.828125 71.84896L55.828125 73.72396ZM54.390625 71.75521Q54.390625 69.91146 53.875 69.083336Q53.359375 68.239586 52.234375 68.239586Q51.125 68.239586 50.609375 69.083336Q50.109375 69.91146 50.09375 71.645836L50.09375 73.958336Q50.09375 75.802086 50.625 76.677086Q51.171875 77.552086 52.25 77.552086Q53.328125 77.552086 53.84375 76.72396Q54.359375 75.895836 54.390625 74.114586L54.390625 71.75521Z" fill-rule="nonzero"/><path fill="#efefef" d="M86.46122 389.71997L82.73466 396.17456L81.82804 395.65112L80.00793 390.05365Q79.59293 388.80368 79.21573 388.20703Q78.83853 387.61035 78.2702 387.28223Q77.49889 386.8369 76.73832 387.0293Q75.97202 387.2003 75.52671 387.97162Q74.98765 388.90527 75.21069 389.7377Q75.44155 390.5566 76.38877 391.1035L75.67002 392.3484Q74.31686 391.56714 73.97789 390.21674Q73.64674 388.8528 74.49831 387.37787Q75.28737 386.01117 76.465485 385.62686Q77.6436 385.24255 78.847916 385.93787Q80.2958 386.7738 81.2417 389.7917L82.57344 394.0788L85.432816 389.12622L86.46122 389.71997ZM86.58882 379.7802Q88.79448 381.05365 89.42598 382.42862Q90.06529 383.79004 89.14342 385.38678Q88.23717 386.95645 86.75773 387.11267Q85.264755 387.26105 83.178795 386.0928L81.50087 385.12405Q79.33581 383.87405 78.71002 382.52045Q78.09206 381.1533 79.01393 379.55655Q79.93581 377.95984 81.38036 377.8015Q82.83274 377.6297 84.96502 378.8427L86.58882 379.7802ZM84.16508 380.04077Q82.568344 379.1189 81.59335 379.15137Q80.604836 379.17603 80.042336 380.1503Q79.48765 381.11105 79.96054 381.9795Q80.42772 382.82654 81.92192 383.70728L83.92461 384.86353Q85.52134 385.7854 86.54474 385.76282Q87.57594 385.7267 88.115005 384.79303Q88.65407 383.85934 88.19471 382.99875Q87.735344 382.13812 86.20836 381.22046L84.16508 380.04077ZM94.10966 376.4725L93.383095 377.73093L85.03407 372.9106L84.50682 375.9801L83.37016 375.32385L84.08731 370.95673L84.2045 370.75375L94.10966 376.4725ZM94.67016 365.50168Q94.90367 366.15973 94.875336 366.86505Q94.847 367.57037 94.472 368.2199Q93.97981 369.0724 93.193146 369.4662Q92.40648 369.86 91.44558 369.77432Q90.49249 369.6751 89.57234 369.14386Q88.58453 368.57355 88.01845 367.74152Q87.43883 366.9017 87.417786 365.9694Q87.39674 365.0371 87.92799 364.11694Q88.77174 362.65555 90.35218 362.44937Q91.91909 362.2354 93.813515 363.32916L94.17887 363.5401Q97.047585 365.19635 97.71743 367.09863Q98.38728 369.00092 97.10757 371.31122L96.96694 371.55478L95.89794 370.9376L96.04638 370.68048Q96.917755 369.10873 96.62301 367.83798Q96.32255 366.5459 94.67016 365.50168ZM93.56078 367.4232Q93.92016 366.80072 93.84596 366.05423Q93.766045 365.2864 93.33834 364.71472L92.83767 364.42566Q91.606285 363.71472 90.522484 363.81067Q89.446495 363.8931 88.96993 364.7185Q88.49337 365.54395 88.840294 366.4118Q89.17368 367.27185 90.21562 367.8734Q91.216965 368.45154 92.16126 368.3472Q93.09203 368.23508 93.56078 367.4232ZM101.8059 365.11096L101.1809 366.19348L92.85237 355.90018L93.46956 354.83118L101.8059 365.11096ZM103.58882 350.33536Q105.79448 351.6088 106.42598 352.98376Q107.06529 354.34518 106.14342 355.94193Q105.23717 357.5116 103.75773 357.6678Q102.264755 357.8162 100.178795 356.64795L98.50087 355.6792Q96.33581 354.4292 95.71002 353.0756Q95.09206 351.70844 96.01393 350.1117Q96.93581 348.51495 98.38036 348.35666Q99.83274 348.1848 101.96502 349.39786L103.58882 350.33536ZM101.16508 350.5959Q99.568344 349.674 98.59335 349.7065Q97.604836 349.73117 97.042336 350.70544Q96.48765 351.6662 96.96054 352.5346Q97.42772 353.38168 98.92192 354.26242L100.92461 355.41867Q102.52134 356.34055 103.54474 356.31796Q104.57594 356.28186 105.115005 355.34818Q105.65407 354.4145 105.19471 353.55386Q104.735344 352.69327 103.20836 351.77557L101.16508 350.5959ZM111.10966 347.02762L110.383095 348.28607L102.03407 343.46576L101.50682 346.53525L100.37016 345.879L101.08731 341.51184L101.2045 341.30887L111.10966 347.02762Z" fill-rule="nonzero"/><path fill="#efefef" d="M180.40099 389.71997L176.67442 396.17456L175.76779 395.65112L173.9477 390.05365Q173.5327 388.80368 173.15549 388.20703Q172.77829 387.61035 172.20996 387.28223Q171.43866 386.8369 170.67807 387.0293Q169.91177 387.2003 169.46646 387.9716Q168.9274 388.90527 169.15045 389.7377Q169.38132 390.5566 170.32852 391.1035L169.60977 392.3484Q168.2566 391.56714 167.91765 390.21674Q167.5865 388.8528 168.43806 387.37784Q169.22713 386.01117 170.40524 385.62686Q171.58336 385.24255 172.78767 385.93787Q174.23555 386.7738 175.18146 389.7917L176.5132 394.0788L179.37257 389.12622L180.40099 389.71997ZM180.52858 379.7802Q182.73424 381.05365 183.36574 382.42862Q184.00505 383.79004 183.08318 385.38678Q182.17693 386.95645 180.69748 387.11267Q179.20451 387.26105 177.11855 386.0928L175.44063 385.12405Q173.27556 383.87405 172.64978 382.52045Q172.03181 381.1533 172.95369 379.55655Q173.87556 377.95984 175.32013 377.8015Q176.77249 377.6297 178.90479 378.8427L180.52858 379.7802ZM178.10484 380.04074Q176.5081 379.11887 175.53311 379.15137Q174.54459 379.17603 173.98209 380.1503Q173.4274 381.11105 173.9003 381.97946Q174.36748 382.82654 175.86168 383.70728L177.86436 384.86353Q179.46109 385.7854 180.4845 385.76282Q181.5157 385.7267 182.05476 384.79303Q182.59383 383.85934 182.13446 382.99875Q181.6751 382.13812 180.14812 381.22043L178.10484 380.04074ZM188.04942 376.47247L187.32286 377.73093L178.97383 372.9106L178.44658 375.9801L177.30992 375.32385L178.02707 370.95673L178.14426 370.75372L188.04942 376.47247ZM188.60991 365.50168Q188.84343 366.15973 188.8151 366.86505Q188.78676 367.57037 188.41176 368.2199Q187.91957 369.0724 187.1329 369.4662Q186.34624 369.86 185.38533 369.77432Q184.43225 369.6751 183.5121 369.14386Q182.52429 368.57355 181.9582 367.74152Q181.37859 366.9017 181.35754 365.9694Q181.3365 365.0371 181.86775 364.11694Q182.7115 362.65555 184.29193 362.44937Q185.85884 362.2354 187.75328 363.32916L188.11864 363.5401Q190.98734 365.19635 191.6572 367.09863Q192.32704 369.00092 191.04732 371.31122L190.9067 371.55478L189.83769 370.9376L189.98613 370.68048Q190.85751 369.10873 190.56277 367.83798Q190.26231 366.5459 188.60991 365.50168ZM187.50053 367.42316Q187.85991 366.80072 187.78572 366.05423Q187.7058 365.2864 187.27809 364.71472L186.77742 364.42566Q185.54605 363.71472 184.46223 363.81067Q183.38625 363.8931 182.90968 364.7185Q182.43312 365.54395 182.78004 366.4118Q183.11345 367.27185 184.15538 367.8734Q185.15672 368.45154 186.10103 368.3472Q187.03178 368.23508 187.50053 367.42316ZM195.74567 365.11096L195.12067 366.19348L186.79213 355.90018L187.40932 354.83118L195.74567 365.11096ZM197.52858 350.33536Q199.73424 351.6088 200.36574 352.98376Q201.00505 354.34518 200.08318 355.94193Q199.17693 357.5116 197.69748 357.6678Q196.20451 357.8162 194.11855 356.64795L192.44063 355.6792Q190.27556 354.4292 189.64978 353.0756Q189.03181 351.70844 189.95369 350.1117Q190.87556 348.51495 192.32013 348.35666Q193.77249 348.1848 195.90479 349.39786L197.52858 350.33536ZM195.10484 350.5959Q193.5081 349.674 192.53311 349.7065Q191.54459 349.73117 190.98209 350.70544Q190.4274 351.6662 190.9003 352.5346Q191.36748 353.38168 192.86168 354.26242L194.86436 355.41867Q196.46109 356.34055 197.4845 356.31796Q198.5157 356.28186 199.05476 355.34818Q199.59383 354.4145 199.13446 353.55386Q198.6751 352.69327 197.14812 351.77557L195.10484 350.5959ZM197.1989 339.50012L203.98692 348.86792L203.22911 350.1805L196.75804 341.01373L193.67992 346.34518L192.6515 345.75143L196.49525 339.09387L197.1989 339.50012Z" fill-rule="nonzero"/><path fill="#efefef" d="M275.89774 389.71997L272.17117 396.17456L271.26456 395.65112L269.44446 390.05365Q269.02945 388.8037 268.65225 388.20703Q268.27505 387.61038 267.70673 387.28226Q266.93542 386.83694 266.17484 387.0293Q265.40854 387.20032 264.96323 387.97162Q264.42416 388.9053 264.64722 389.7377Q264.87808 390.5566 265.8253 391.1035L265.10654 392.3484Q263.7534 391.56714 263.41443 390.21674Q263.08328 388.8528 263.93484 387.37787Q264.7239 386.01117 265.902 385.62686Q267.0801 385.24255 268.28442 385.93787Q269.73233 386.7738 270.67822 389.7917L272.00998 394.0788L274.86935 389.12622L275.89774 389.71997ZM276.02533 379.7802Q278.231 381.05365 278.8625 382.42862Q279.5018 383.79004 278.57993 385.38678Q277.67368 386.95645 276.19424 387.11267Q274.7013 387.26105 272.61533 386.0928L270.93738 385.12405Q268.77234 383.87405 268.14655 382.52045Q267.5286 381.1533 268.45047 379.55655Q269.37234 377.95984 270.8169 377.8015Q272.26926 377.6297 274.40155 378.8427L276.02533 379.7802ZM273.6016 380.04077Q272.00488 379.1189 271.02988 379.15137Q270.04135 379.17603 269.47885 380.1503Q268.92416 381.11105 269.39706 381.9795Q269.86426 382.82657 271.35846 383.70728L273.36115 384.86353Q274.95786 385.7854 275.98126 385.76282Q277.01248 385.7267 277.55154 384.79303Q278.0906 383.85934 277.63123 382.99875Q277.17188 382.13812 275.6449 381.22046L273.6016 380.04077ZM284.89774 374.13153L281.17117 380.58612L280.26456 380.06268L278.44446 374.4652Q278.02945 373.21524 277.65225 372.61856Q277.27505 372.0219 276.70673 371.6938Q275.93542 371.24847 275.17484 371.44083Q274.40854 371.61185 273.96323 372.38315Q273.42416 373.31683 273.64722 374.14926Q273.87808 374.96814 274.8253 375.515L274.10654 376.75992Q272.7534 375.97867 272.41443 374.62827Q272.08328 373.26434 272.93484 371.7894Q273.7239 370.4227 274.902 370.0384Q276.0801 369.65408 277.28442 370.3494Q278.73233 371.18533 279.67822 374.20325L281.00998 378.49036L283.86935 373.53778L284.89774 374.13153ZM285.02533 364.19177Q287.231 365.4652 287.8625 366.84015Q288.5018 368.2016 287.57993 369.79834Q286.67368 371.368 285.19424 371.5242Q283.7013 371.6726 281.61533 370.50436L279.93738 369.5356Q277.77234 368.2856 277.14655 366.93198Q276.5286 365.56485 277.45047 363.9681Q278.37234 362.37137 279.8169 362.21307Q281.26926 362.04123 283.40155 363.25427L285.02533 364.19177ZM282.6016 364.4523Q281.00488 363.53043 280.02988 363.5629Q279.04135 363.5876 278.47885 364.56186Q277.92416 365.5226 278.39706 366.39102Q278.86426 367.2381 280.35846 368.1188L282.36115 369.27505Q283.95786 370.19693 284.98126 370.17438Q286.01248 370.13824 286.55154 369.2046Q287.0906 368.2709 286.63123 367.41028Q286.17188 366.54968 284.6449 365.632L282.6016 364.4523ZM291.24243 365.11096L290.61743 366.19348L282.2889 355.90018L282.9061 354.83118L291.24243 365.11096ZM293.02533 350.33536Q295.231 351.6088 295.8625 352.98376Q296.5018 354.34518 295.57993 355.94193Q294.67368 357.5116 293.19424 357.6678Q291.7013 357.8162 289.61533 356.64795L287.93738 355.6792Q285.77234 354.4292 285.14655 353.0756Q284.5286 351.70844 285.45047 350.1117Q286.37234 348.51495 287.8169 348.35666Q289.26926 348.1848 291.40155 349.39786L293.02533 350.33536ZM290.6016 350.5959Q289.00488 349.674 288.02988 349.7065Q287.04135 349.73117 286.47885 350.70544Q285.92416 351.6662 286.39706 352.5346Q286.86426 353.38168 288.35846 354.26242L290.36115 355.41867Q291.95786 356.34055 292.98126 356.31796Q294.01248 356.28186 294.55154 355.34818Q295.0906 354.4145 294.63123 353.55386Q294.17188 352.69327 292.6449 351.77557L290.6016 350.5959ZM300.54617 347.02762L299.8196 348.28607L291.4706 343.46576L290.94333 346.53525L289.80667 345.879L290.52383 341.51184L290.64102 341.30887L300.54617 347.02762Z" fill-rule="nonzero"/><path fill="#efefef" d="M370.3565 389.71997L366.62994 396.17456L365.72333 395.65112L363.90323 390.05365Q363.48822 388.80368 363.11102 388.20703Q362.73383 387.61035 362.1655 387.28223Q361.3942 386.8369 360.6336 387.02927Q359.8673 387.2003 359.422 387.9716Q358.88293 388.90527 359.106 389.7377Q359.33685 390.55658 360.28406 391.10345L359.5653 392.3484Q358.21216 391.56714 357.87317 390.21674Q357.54202 388.85278 358.3936 387.37784Q359.18265 386.01114 360.36078 385.62686Q361.53888 385.24255 362.7432 385.93787Q364.1911 386.7738 365.137 389.7917L366.46872 394.0788L369.3281 389.12622L370.3565 389.71997ZM370.4841 379.7802Q372.68976 381.05365 373.32126 382.42862Q373.96057 383.79004 373.0387 385.38678Q372.13245 386.95645 370.653 387.11264Q369.16006 387.26105 367.0741 386.0928L365.39615 385.12405Q363.2311 383.87405 362.60532 382.52045Q361.98734 381.1533 362.9092 379.55655Q363.8311 377.9598 365.27567 377.8015Q366.72803 377.62967 368.86032 378.8427L370.4841 379.7802ZM368.06036 380.04074Q366.46362 379.11887 365.48865 379.15137Q364.50012 379.17603 363.93762 380.1503Q363.38293 381.11105 363.85583 381.97946Q364.323 382.82654 365.8172 383.70728L367.8199 384.86353Q369.41663 385.7854 370.44003 385.76282Q371.47125 385.7267 372.0103 384.79303Q372.54938 383.85934 372.09 382.99875Q371.63065 382.13812 370.10364 381.22043L368.06036 380.04074ZM379.3565 374.1315L375.62994 380.5861L374.72333 380.06265L372.90323 374.46518Q372.48822 373.21524 372.11102 372.61856Q371.73383 372.0219 371.1655 371.6938Q370.3942 371.24847 369.6336 371.44083Q368.8673 371.61185 368.422 372.38315Q367.88293 373.31683 368.106 374.14923Q368.33685 374.96814 369.28406 375.515L368.5653 376.75992Q367.21216 375.97867 366.87317 374.62827Q366.54202 373.26434 367.3936 371.7894Q368.18265 370.4227 369.36078 370.0384Q370.53888 369.65408 371.7432 370.3494Q373.1911 371.18533 374.137 374.20325L375.46872 378.49036L378.3281 373.53775L379.3565 374.1315ZM379.4841 364.19177Q381.68976 365.4652 382.32126 366.84015Q382.96057 368.20157 382.0387 369.7983Q381.13245 371.36798 379.653 371.5242Q378.16006 371.6726 376.0741 370.50433L374.39615 369.53558Q372.2311 368.28558 371.60532 366.93198Q370.98734 365.56482 371.9092 363.9681Q372.8311 362.37137 374.27567 362.21307Q375.72803 362.04123 377.86032 363.25427L379.4841 364.19177ZM377.06036 364.4523Q375.46362 363.53043 374.48865 363.5629Q373.50012 363.58755 372.93762 364.56186Q372.38293 365.52258 372.85583 366.39102Q373.323 367.2381 374.8172 368.1188L376.8199 369.27505Q378.41663 370.19693 379.44003 370.17435Q380.47125 370.13824 381.0103 369.20456Q381.54938 368.27087 381.09 367.41028Q380.63065 366.54968 379.10364 365.632L377.06036 364.4523ZM385.7012 365.11096L385.0762 366.19348L376.74765 355.90018L377.36484 354.83118L385.7012 365.11096ZM387.4841 350.33536Q389.68976 351.6088 390.32126 352.98373Q390.96057 354.34518 390.0387 355.94193Q389.13245 357.5116 387.653 357.6678Q386.16006 357.8162 384.0741 356.64795L382.39615 355.6792Q380.2311 354.4292 379.60532 353.07556Q378.98734 351.70844 379.9092 350.1117Q380.8311 348.51495 382.27567 348.35666Q383.72803 348.1848 385.86032 349.39786L387.4841 350.33536ZM385.06036 350.5959Q383.46362 349.674 382.48865 349.70648Q381.50012 349.73117 380.93762 350.70544Q380.38293 351.6662 380.85583 352.5346Q381.323 353.38168 382.8172 354.2624L384.8199 355.41864Q386.41663 356.3405 387.44003 356.31796Q388.47125 356.28183 389.0103 355.34818Q389.54938 354.4145 389.09 353.55386Q388.63065 352.69327 387.10364 351.77557L385.06036 350.5959ZM387.15442 339.50012L393.94244 348.86792L393.18463 350.18048L386.71356 341.01373L383.63544 346.34518L382.60703 345.75143L386.45078 339.09387L387.15442 339.50012Z" fill-rule="nonzero"/><path fill="#efefef" d="M465.85327 389.71997L462.1267 396.17456L461.2201 395.65112L459.4 390.05365Q458.985 388.80368 458.6078 388.20703Q458.2306 387.61035 457.66226 387.28223Q456.89096 386.8369 456.13037 387.0293Q455.36407 387.2003 454.91876 387.9716Q454.3797 388.90527 454.60275 389.7377Q454.83362 390.5566 455.78082 391.1035L455.06207 392.3484Q453.70892 391.56714 453.36996 390.21674Q453.0388 388.8528 453.89035 387.37784Q454.6794 386.01117 455.85754 385.62686Q457.03564 385.24255 458.23996 385.93787Q459.68787 386.7738 460.63376 389.7917L461.9655 394.0788L464.8249 389.12622L465.85327 389.71997ZM465.98087 379.7802Q468.18652 381.05365 468.81802 382.42862Q469.45734 383.79004 468.53546 385.38678Q467.6292 386.95645 466.14978 387.11267Q464.65683 387.26105 462.57086 386.0928L460.8929 385.12405Q458.72787 383.87405 458.10208 382.52045Q457.4841 381.1533 458.40598 379.55655Q459.32785 377.95984 460.77243 377.8015Q462.2248 377.6297 464.3571 378.8427L465.98087 379.7802ZM463.55713 380.04074Q461.96042 379.11887 460.9854 379.15137Q459.9969 379.17603 459.4344 380.1503Q458.8797 381.11105 459.3526 381.97946Q459.8198 382.82654 461.31396 383.70728L463.31665 384.86353Q464.9134 385.7854 465.9368 385.76282Q466.96802 385.7267 467.50708 384.79303Q468.04614 383.85934 467.58676 382.99875Q467.1274 382.13812 465.6004 381.22043L463.55713 380.04074ZM474.85327 374.1315L471.1267 380.58612L470.2201 380.06268L468.4 374.4652Q467.985 373.21524 467.6078 372.61856Q467.2306 372.0219 466.66226 371.6938Q465.89096 371.24847 465.13037 371.44083Q464.36407 371.61185 463.91876 372.38315Q463.3797 373.31683 463.60275 374.14926Q463.83362 374.96814 464.78082 375.515L464.06207 376.75992Q462.70892 375.97867 462.36996 374.62827Q462.0388 373.26434 462.89035 371.7894Q463.6794 370.4227 464.85754 370.0384Q466.03564 369.65408 467.23996 370.3494Q468.68787 371.18533 469.63376 374.20325L470.9655 378.49036L473.8249 373.53775L474.85327 374.1315ZM478.0017 368.67825L477.27515 369.9367L468.92612 365.1164L468.39886 368.18588L467.2622 367.52963L467.97937 363.16248L468.09656 362.9595L478.0017 368.67825ZM481.19797 365.11096L480.57297 366.19348L472.24442 355.90018L472.8616 354.83118L481.19797 365.11096ZM482.9809 350.33533Q485.18655 351.60876 485.81805 352.98373Q486.45737 354.34515 485.53546 355.94193Q484.6292 357.5116 483.14978 357.6678Q481.65683 357.8162 479.57086 356.64795L477.8929 355.6792Q475.72787 354.4292 475.10208 353.0756Q474.4841 351.70844 475.40598 350.1117Q476.32788 348.51492 477.77243 348.35663Q479.22482 348.18478 481.3571 349.39783L482.9809 350.33533ZM480.55716 350.59586Q478.96042 349.67398 477.98544 349.70648Q476.9969 349.73117 476.4344 350.70544Q475.8797 351.6662 476.3526 352.5346Q476.8198 353.38168 478.31396 354.26242L480.31665 355.41867Q481.9134 356.34055 482.9368 356.31796Q483.96802 356.28186 484.50708 355.34818Q485.04614 354.4145 484.5868 353.55383Q484.1274 352.69324 482.60043 351.77554L480.55716 350.59586ZM490.50174 347.0276L489.77518 348.28604L481.42615 343.46573L480.8989 346.53522L479.76224 345.87897L480.47937 341.5118L480.59656 341.30884L490.50174 347.0276Z" fill-rule="nonzero"/><path fill="#efefef" d="M559.793 389.72L556.06647 396.1746L555.15985 395.65115L553.3397 390.05368Q552.92474 388.8037 552.54755 388.20706Q552.17035 387.61038 551.602 387.28226Q550.8307 386.83694 550.0701 387.0293Q549.30383 387.20032 548.8585 387.97162Q548.31946 388.9053 548.5425 389.73773Q548.7734 390.5566 549.7206 391.1035L549.00183 392.34842Q547.6487 391.56717 547.3097 390.21677Q546.9785 388.8528 547.8301 387.37787Q548.61914 386.01117 549.7973 385.62686Q550.9754 385.24258 552.1797 385.9379Q553.6276 386.77383 554.5735 389.79172L555.9053 394.07883L558.76465 389.12625L559.793 389.72ZM559.9206 379.78024Q562.1263 381.05368 562.75775 382.42865Q563.3971 383.79007 562.4752 385.3868Q561.569 386.95648 560.08954 387.11267Q558.59656 387.26108 556.5106 386.09283L554.83264 385.12408Q552.6676 383.87408 552.0418 382.52048Q551.4238 381.15332 552.3457 379.55658Q553.2676 377.95984 554.71216 377.80154Q556.16455 377.6297 558.2968 378.84274L559.9206 379.78024ZM557.4969 380.04077Q555.90015 379.1189 554.9252 379.1514Q553.93665 379.17606 553.37415 380.15033Q552.81946 381.11108 553.29236 381.9795Q553.7595 382.82657 555.2537 383.7073L557.2564 384.86356Q558.85315 385.78543 559.8765 385.76285Q560.9078 385.72675 561.44684 384.79306Q561.9859 383.85938 561.5265 382.99875Q561.06714 382.13815 559.54016 381.22046L557.4969 380.04077ZM568.793 374.13153L565.06647 380.58612L564.15985 380.06268L562.3397 374.4652Q561.92474 373.21527 561.54755 372.6186Q561.17035 372.02194 560.602 371.69382Q559.8307 371.2485 559.0701 371.44086Q558.30383 371.61188 557.8585 372.38318Q557.31946 373.31686 557.5425 374.14926Q557.7734 374.96817 558.7206 375.51505L558.00183 376.75995Q556.6487 375.9787 556.3097 374.6283Q555.9785 373.26437 556.8301 371.78943Q557.61914 370.42273 558.7973 370.03842Q559.9754 369.6541 561.1797 370.34943Q562.6276 371.18536 563.5735 374.20325L564.9053 378.49036L567.76465 373.53778L568.793 374.13153ZM571.94147 368.67828L571.2149 369.93674L562.86584 365.11642L562.3386 368.18588L561.20197 367.52963L561.9191 363.1625L562.0363 362.95953L571.94147 368.67828ZM575.1377 365.111L574.5127 366.1935L566.18414 355.9002L566.80133 354.8312L575.1377 365.111ZM576.9206 350.3354Q579.1263 351.60883 579.75775 352.98376Q580.3971 354.3452 579.4752 355.94193Q578.569 357.5116 577.08954 357.66782Q575.59656 357.81622 573.5106 356.64798L571.83264 355.67923Q569.6676 354.42923 569.0418 353.0756Q568.4238 351.70847 569.3457 350.11172Q570.2676 348.51498 571.71216 348.3567Q573.16455 348.18484 575.2968 349.3979L576.9206 350.3354ZM574.4969 350.59592Q572.90015 349.67404 571.9252 349.7065Q570.93665 349.7312 570.37415 350.70547Q569.81946 351.66623 570.29236 352.53464Q570.7595 353.3817 572.2537 354.26242L574.2564 355.41867Q575.85315 356.34055 576.8765 356.318Q577.9078 356.28186 578.44684 355.34818Q578.9859 354.41452 578.5265 353.5539Q578.06714 352.6933 576.54016 351.7756L574.4969 350.59592ZM576.59094 339.50015L583.37897 348.86795L582.62115 350.1805L576.1501 341.01373L573.07196 346.3452L572.0435 345.75146L575.88727 339.0939L576.59094 339.50015Z" fill-rule="nonzero"/><path fill="#efefef" d="M35.328125 41.515625Q34.46875 42.75 32.90625 43.375Q31.359375 43.984375 29.296875 43.984375Q27.203125 43.984375 25.578125 43.015625Q23.96875 42.03125 23.078125 40.234375Q22.203125 38.421875 22.1875 36.03125L22.1875 34.546875Q22.1875 30.6875 23.984375 28.578125Q25.78125 26.453125 29.03125 26.453125Q31.703125 26.453125 33.328125 27.828125Q34.96875 29.1875 35.328125 31.6875L33.078125 31.6875Q32.453125 28.296875 29.046875 28.296875Q26.78125 28.296875 25.609375 29.890625Q24.453125 31.484375 24.4375 34.484375L24.4375 35.890625Q24.4375 38.75 25.75 40.453125Q27.0625 42.140625 29.3125 42.140625Q30.578125 42.140625 31.515625 41.859375Q32.46875 41.578125 33.09375 40.90625L33.09375 37.078125L29.140625 37.078125L29.140625 35.25L35.328125 35.25L35.328125 41.515625ZM46.21875 43.75Q46.03125 43.375 45.921875 42.40625Q44.40625 43.984375 42.3125 43.984375Q40.4375 43.984375 39.234375 42.921875Q38.03125 41.859375 38.03125 40.234375Q38.03125 38.25 39.53125 37.15625Q41.046875 36.0625 43.765625 36.0625L45.875 36.0625L45.875 35.0625Q45.875 33.921875 45.1875 33.25Q44.515625 32.578125 43.203125 32.578125Q42.03125 32.578125 41.25 33.171875Q40.46875 33.75 40.46875 34.578125L38.28125 34.578125Q38.28125 33.640625 38.953125 32.75Q39.640625 31.859375 40.78125 31.34375Q41.9375 30.828125 43.328125 30.828125Q45.515625 30.828125 46.75 31.9375Q48.0 33.03125 48.046875 34.953125L48.046875 40.78125Q48.046875 42.53125 48.5 43.5625L48.5 43.75L46.21875 43.75ZM42.625 42.09375Q43.640625 42.09375 44.546875 41.578125Q45.46875 41.046875 45.875 40.203125L45.875 37.59375L44.1875 37.59375Q40.203125 37.59375 40.203125 39.921875Q40.203125 40.953125 40.875 41.53125Q41.5625 42.09375 42.625 42.09375ZM53.75 43.75L51.578125 43.75L51.578125 25.75L53.75 25.75L53.75 43.75ZM65.21875 43.75Q65.03125 43.375 64.921875 42.40625Q63.40625 43.984375 61.3125 43.984375Q59.4375 43.984375 58.234375 42.921875Q57.03125 41.859375 57.03125 40.234375Q57.03125 38.25 58.53125 37.15625Q60.046875 36.0625 62.765625 36.0625L64.875 36.0625L64.875 35.0625Q64.875 33.921875 64.1875 33.25Q63.515625 32.578125 62.203125 32.578125Q61.03125 32.578125 60.25 33.171875Q59.46875 33.75 59.46875 34.578125L57.28125 34.578125Q57.28125 33.640625 57.953125 32.75Q58.640625 31.859375 59.78125 31.34375Q60.9375 30.828125 62.328125 30.828125Q64.515625 30.828125 65.75 31.9375Q67.0 33.03125 67.046875 34.953125L67.046875 40.78125Q67.046875 42.53125 67.5 43.5625L67.5 43.75L65.21875 43.75ZM61.625 42.09375Q62.640625 42.09375 63.546875 41.578125Q64.46875 41.046875 64.875 40.203125L64.875 37.59375L63.1875 37.59375Q59.203125 37.59375 59.203125 39.921875Q59.203125 40.953125 59.875 41.53125Q60.5625 42.09375 61.625 42.09375ZM74.640625 35.703125L77.453125 31.0625L79.984375 31.0625L75.84375 37.34375L80.125 43.75L77.609375 43.75L74.6875 39.0L71.75 43.75L69.234375 43.75L73.515625 37.34375L69.359375 31.0625L71.875 31.0625L74.640625 35.703125ZM86.546875 40.578125L89.5 31.0625L91.8125 31.0625L86.71875 45.703125Q85.53125 48.875 82.953125 48.875L82.546875 48.84375L81.734375 48.6875L81.734375 46.921875L82.328125 46.96875Q83.421875 46.96875 84.03125 46.515625Q84.65625 46.078125 85.046875 44.90625L85.53125 43.609375L81.015625 31.0625L83.375 31.0625L86.546875 40.578125ZM112.84375 43.75L110.578125 43.75L110.578125 35.859375L101.984375 35.859375L101.984375 43.75L99.734375 43.75L99.734375 26.6875L101.984375 26.6875L101.984375 34.015625L110.578125 34.015625L110.578125 26.6875L112.84375 26.6875L112.84375 43.75ZM121.65625 43.984375Q119.078125 43.984375 117.453125 42.296875Q115.84375 40.59375 115.84375 37.765625L115.84375 37.359375Q115.84375 35.46875 116.5625 34.0Q117.28125 32.515625 118.578125 31.671875Q119.875 30.828125 121.390625 30.828125Q123.859375 30.828125 125.21875 32.46875Q126.59375 34.09375 126.59375 37.125L126.59375 38.03125L118.015625 38.03125Q118.0625 39.90625 119.109375 41.0625Q120.15625 42.21875 121.765625 42.21875Q122.921875 42.21875 123.71875 41.75Q124.515625 41.28125 125.109375 40.5L126.4375 41.53125Q124.84375 43.984375 121.65625 43.984375ZM121.390625 32.609375Q120.078125 32.609375 119.1875 33.578125Q118.296875 34.53125 118.078125 36.25L124.4375 36.25L124.4375 36.078125Q124.34375 34.4375 123.546875 33.53125Q122.75 32.609375 121.390625 32.609375ZM131.75 43.75L129.57812 43.75L129.57812 25.75L131.75 25.75L131.75 43.75ZM146.10938 37.546875Q146.10938 40.4375 144.78125 42.21875Q143.45312 43.984375 141.1875 43.984375Q138.89062 43.984375 137.5625 42.515625L137.5625 48.625L135.39062 48.625L135.39062 31.0625L137.375 31.0625L137.48438 32.46875Q138.79688 30.828125 141.15625 30.828125Q143.4375 30.828125 144.76562 32.5625Q146.10938 34.28125 146.10938 37.34375L146.10938 37.546875ZM143.9375 37.296875Q143.9375 35.15625 143.01562 33.921875Q142.10938 32.671875 140.51562 32.671875Q138.54688 32.671875 137.5625 34.421875L137.5625 40.484375Q138.53125 42.21875 140.53125 42.21875Q142.09375 42.21875 143.01562 40.984375Q143.9375 39.734375 143.9375 37.296875ZM148.3125 42.609375Q148.3125 42.046875 148.64062 41.671875Q148.98438 41.296875 149.64062 41.296875Q150.3125 41.296875 150.65625 41.671875Q151.01562 42.046875 151.01562 42.609375Q151.01562 43.15625 150.65625 43.515625Q150.3125 43.875 149.64062 43.875Q148.98438 43.875 148.64062 43.515625Q148.3125 43.15625 148.3125 42.609375ZM148.32812 32.265625Q148.32812 31.703125 148.65625 31.328125Q149.0 30.953125 149.65625 30.953125Q150.32812 30.953125 150.67188 31.328125Q151.03125 31.703125 151.03125 32.265625Q151.03125 32.8125 150.67188 33.171875Q150.32812 33.53125 149.65625 33.53125Q149.0 33.53125 148.65625 33.171875Q148.32812 32.8125 148.32812 32.265625ZM170.15625 39.296875L163.0 39.296875L161.40625 43.75L159.07812 43.75L165.59375 26.6875L167.5625 26.6875L174.09375 43.75L171.78125 43.75L170.15625 39.296875ZM163.6875 37.4375L169.48438 37.4375L166.57812 29.46875L163.6875 37.4375ZM181.48438 42.21875Q182.64062 42.21875 183.5 41.515625Q184.375 40.8125 184.46875 39.75L186.51562 39.75Q186.45312 40.84375 185.76562 41.828125Q185.07812 42.8125 183.92188 43.40625Q182.76562 43.984375 181.48438 43.984375Q178.89062 43.984375 177.35938 42.265625Q175.82812 40.53125 175.82812 37.53125L175.82812 37.15625Q175.82812 35.3125 176.5 33.875Q177.1875 32.421875 178.45312 31.625Q179.73438 30.828125 181.46875 30.828125Q183.59375 30.828125 185.0 32.109375Q186.42188 33.390625 186.51562 35.421875L184.46875 35.421875Q184.375 34.203125 183.53125 33.40625Q182.70312 32.609375 181.46875 32.609375Q179.8125 32.609375 178.90625 33.8125Q178.0 35.0 178.0 37.25L178.0 37.65625Q178.0 39.84375 178.89062 41.03125Q179.79688 42.21875 181.48438 42.21875ZM194.48438 42.21875Q195.64062 42.21875 196.5 41.515625Q197.375 40.8125 197.46875 39.75L199.51562 39.75Q199.45312 40.84375 198.76562 41.828125Q198.07812 42.8125 196.92188 43.40625Q195.76562 43.984375 194.48438 43.984375Q191.89062 43.984375 190.35938 42.265625Q188.82812 40.53125 188.82812 37.53125L188.82812 37.15625Q188.82812 35.3125 189.5 33.875Q190.1875 32.421875 191.45312 31.625Q192.73438 30.828125 194.46875 30.828125Q196.59375 30.828125 198.0 32.109375Q199.42188 33.390625 199.51562 35.421875L197.46875 35.421875Q197.375 34.203125 196.53125 33.40625Q195.70312 32.609375 194.46875 32.609375Q192.8125 32.609375 191.90625 33.8125Q191.0 35.0 191.0 37.25L191.0 37.65625Q191.0 39.84375 191.89062 41.03125Q192.79688 42.21875 194.48438 42.21875ZM201.8125 37.296875Q201.8125 35.421875 202.54688 33.9375Q203.28125 32.453125 204.57812 31.640625Q205.89062 30.828125 207.57812 30.828125Q210.15625 30.828125 211.75 32.625Q213.35938 34.421875 213.35938 37.390625L213.35938 37.546875Q213.35938 39.40625 212.64062 40.875Q211.9375 42.34375 210.625 43.171875Q209.3125 43.984375 207.59375 43.984375Q205.01562 43.984375 203.40625 42.1875Q201.8125 40.390625 201.8125 37.4375L201.8125 37.296875ZM204.0 37.546875Q204.0 39.65625 204.96875 40.9375Q205.95312 42.21875 207.59375 42.21875Q209.25 42.21875 210.21875 40.921875Q211.1875 39.625 211.1875 37.296875Q211.1875 35.203125 210.20312 33.90625Q209.21875 32.609375 207.57812 32.609375Q205.96875 32.609375 204.98438 33.890625Q204.0 35.171875 204.0 37.546875ZM224.21875 42.5Q222.95312 43.984375 220.5 43.984375Q218.48438 43.984375 217.42188 42.8125Q216.35938 41.625 216.34375 39.3125L216.34375 31.0625L218.51562 31.0625L218.51562 39.265625Q218.51562 42.140625 220.85938 42.140625Q223.34375 42.140625 224.15625 40.296875L224.15625 31.0625L226.32812 31.0625L226.32812 43.75L224.26562 43.75L224.21875 42.5ZM231.4375 31.0625L231.51562 32.65625Q232.96875 30.828125 235.3125 30.828125Q239.32812 30.828125 239.35938 35.375L239.35938 43.75L237.20312 43.75L237.20312 35.359375Q237.1875 33.984375 236.5625 33.328125Q235.95312 32.671875 234.65625 32.671875Q233.59375 32.671875 232.79688 33.234375Q232.0 33.796875 231.5625 34.71875L231.5625 43.75L229.39062 43.75L229.39062 31.0625L231.4375 31.0625ZM245.32812 28.0L245.32812 31.0625L247.70312 31.0625L247.70312 32.75L245.32812 32.75L245.32812 40.609375Q245.32812 41.375 245.64062 41.75Q245.96875 42.125 246.73438 42.125Q247.10938 42.125 247.76562 41.984375L247.76562 43.75Q246.90625 43.984375 246.09375 43.984375Q244.64062 43.984375 243.90625 43.109375Q243.17188 42.21875 243.17188 40.609375L243.17188 32.75L240.85938 32.75L240.85938 31.0625L243.17188 31.0625L243.17188 28.0L245.32812 28.0ZM257.78125 40.390625Q257.78125 39.5 257.10938 39.015625Q256.45312 38.53125 254.79688 38.1875Q253.15625 37.828125 252.1875 37.34375Q251.21875 36.84375 250.75 36.171875Q250.29688 35.484375 250.29688 34.546875Q250.29688 32.984375 251.60938 31.90625Q252.9375 30.828125 254.98438 30.828125Q257.14062 30.828125 258.48438 31.953125Q259.82812 33.0625 259.82812 34.796875L257.64062 34.796875Q257.64062 33.90625 256.89062 33.265625Q256.14062 32.609375 254.98438 32.609375Q253.79688 32.609375 253.125 33.125Q252.46875 33.640625 252.46875 34.484375Q252.46875 35.265625 253.07812 35.671875Q253.70312 36.0625 255.32812 36.421875Q256.95312 36.78125 257.95312 37.296875Q258.96875 37.796875 259.45312 38.515625Q259.9375 39.21875 259.9375 40.234375Q259.9375 41.9375 258.57812 42.96875Q257.21875 43.984375 255.0625 43.984375Q253.53125 43.984375 252.35938 43.453125Q251.1875 42.90625 250.51562 41.9375Q249.85938 40.96875 249.85938 39.84375L252.03125 39.84375Q252.09375 40.9375 252.90625 41.578125Q253.71875 42.21875 255.0625 42.21875Q256.28125 42.21875 257.03125 41.71875Q257.78125 41.21875 257.78125 40.390625Z" fill-rule="nonzero"/></svg>