<svg version="1.1" viewBox="0.0 0.0 801.0 490.0" fill="none" stroke="none" stroke-linecap="square" stroke-miterlimit="10" width="801" height="490" xmlns:xlink="http://www.w3.org/1999/xlink" xmlns="http://www.w3.org/2000/svg"><path fill="#000000" d="M0 0L801.0 0L801.0 490.0L0 490.0L0 0Z" fill-rule="nonzero"/><path stroke="#333333" stroke-width="1.0" stroke-linecap="butt" d="M122.5 79.5L122.5 399.5" fill-rule="nonzero"/><path stroke="#333333" stroke-width="1.0" stroke-linecap="butt" d="M178.5 79.5L178.5 399.5" fill-rule="nonzero"/><path stroke="#333333" stroke-width="1.0" stroke-linecap="butt" d="M235.5 79.5L235.5 399.5" fill-rule="nonzero"/><path stroke="#333333" stroke-width="1.0" stroke-linecap="butt" d="M293.5 79.5L293.5 399.5" fill-rule="nonzero"/><path stroke="#333333" stroke-width="1.0" stroke-linecap="butt" d="M350.5 79.5L350.5 399.5" fill-rule="nonzero"/><path stroke="#333333" stroke-width="1.0" stroke-linecap="butt" d="M407.5 79.5L407.5 399.5" fill-rule="nonzero"/><path stroke="#333333" stroke-width="1.0" stroke-linecap="butt" d="M464.5 79.5L464.5 399.5" fill-rule="nonzero"/><path stroke="#333333" stroke-width="1.0" stroke-linecap="butt" d="M522.5 79.5L522.5 399.5" fill-rule="nonzero"/><path stroke="#333333" stroke-width="1.0" stroke-linecap="butt" d="M579.5 79.5L579.5 399.5" fill-rule="nonzero"/><path stroke="#333333" stroke-width="1.0" stroke-linecap="butt" d="M635.5 79.5L635.5 399.5" fill-rule="nonzero"/><path stroke="#333333" stroke-width="1.0" stroke-linecap="butt" d="M692.5 79.5L692.5 399.5" fill-rule="nonzero"/><path stroke="#333333" stroke-width="1.0" stroke-linecap="butt" d="M750.5 79.5L750.5 399.5" fill-rule="nonzero"/><path stroke="#cccccc" stroke-width="1.0" stroke-linecap="butt" d="M77.5 399.5L776.5 399.5" fill-rule="nonzero"/><path stroke="#333333" stroke-width="1.0" stroke-linecap="butt" d="M77.5 319.5L776.5 319.5" fill-rule="nonzero"/><path stroke="#333333" stroke-width="1.0" stroke-linecap="butt" d="M77.5 239.5L776.5 239.5" fill-rule="nonzero"/><path stroke="#333333" stroke-width="1.0" stroke-linecap="butt" d="M77.5 159.5L776.5 159.5" fill-rule="nonzero"/><path stroke="#333333" stroke-width="1.0" stroke-linecap="butt" d="M77.5 79.5L776.5 79.5" fill-rule="nonzero"/><clipPath id="id_0"><path d="M77.5 79.333336L776.5 79.333336L776.5 399.92245L77.5 399.92245L77.5 79.333336Z" clip-rule="nonzero"/></clipPath><path stroke="#4285f4" stroke-width="4.0" stroke-linecap="butt" clip-path="url(#id_0)" d="M84.36255 380.31442C84.36255 380.31442 96.86757 344.22467 103.12008 336.13724C109.37258 328.0498 116.04192 331.52878 122.50285 331.645C128.96378 331.7612 136.04996 337.14664 141.88562 336.83453C147.7213 336.5224 153.55698 333.07864 159.39265 330.27448C165.22832 327.47028 172.52292 322.21667 178.77542 318.90958C185.02794 315.60248 191.28044 311.71323 197.53294 310.06534C203.78546 308.41742 210.66322 308.48062 216.91573 308.98734C223.16823 309.49405 229.42075 311.497 235.67325 313.07086C241.92575 314.64468 248.5951 319.20212 255.05603 318.60904C261.51694 318.01593 268.18628 311.16922 274.4388 309.5123C280.6913 307.8554 286.94382 309.68726 293.19632 308.3742C299.44882 307.0612 306.3266 304.09232 312.5791 301.40942C318.8316 298.72653 325.0841 294.42358 331.33664 292.05222C337.58914 289.68088 344.25848 291.75302 350.7194 287.01898C357.18033 282.28494 364.05807 267.5263 370.10217 263.64804C376.14627 259.76974 382.19037 266.54337 388.23444 262.24146C394.27853 257.93954 401.36472 241.75046 407.61722 236.1535C413.86972 230.55655 420.12225 230.90666 426.37476 227.81819C432.62726 224.72972 439.505 223.71812 445.75754 217.28284C452.01004 210.84755 458.26254 188.79704 464.51505 188.86661C470.76755 188.93619 477.4369 219.4074 483.89783 218.66136C490.35876 217.91533 497.0281 203.722 503.2806 184.39038C509.5331 165.05878 515.78564 98.29239 522.03815 101.566185C528.29065 104.83999 535.1684 193.1714 541.4209 207.44876C547.6734 221.72612 553.9259 187.17354 560.1784 190.64589C566.4309 194.11823 573.1003 220.47403 579.5612 229.53735C586.0221 238.60068 593.1083 257.9576 598.944 245.02582C604.77966 232.09402 610.6153 162.48628 616.451 153.44553C622.2867 144.40475 629.58124 194.14748 635.8338 194.78148C642.0863 195.41548 648.3388 167.19627 654.5913 158.58296C660.8438 149.96965 667.72156 134.56097 673.97406 142.58557C680.22656 150.61017 686.47906 201.99948 692.73157 206.2145C698.98413 210.4295 705.65344 179.77122 712.1144 166.59769C718.5753 153.42415 725.2446 131.43484 731.49713 127.17324C737.74963 122.91165 744.00214 131.61388 750.2547 139.75636C756.5072 147.89885 769.63745 177.23724 769.63745 177.23724" fill-rule="nonzero"/><path stroke="#4285f4" stroke-width="4.0" stroke-linecap="butt" stroke-opacity="0.7019608" clip-path="url(#id_0)" d="M0 381.29013L776.5 131.17805" fill-rule="nonzero"/><path fill="#4285f4" clip-path="url(#id_0)" d="M88.86255 380.31442C88.86255 382.7997 86.84783 384.81442 84.36255 384.81442C81.87727 384.81442 79.86255 382.7997 79.86255 380.31442C79.86255 377.82913 81.87727 375.81442 84.36255 375.81442C86.84783 375.81442 88.86255 377.82913 88.86255 380.31442Z" fill-rule="nonzero"/><path fill="#4285f4" clip-path="url(#id_0)" d="M107.62008 336.13724C107.62008 338.62253 105.60536 340.63724 103.12008 340.63724C100.634796 340.63724 98.62008 338.62253 98.62008 336.13724C98.62008 333.65195 100.634796 331.63724 103.12008 331.63724C105.60536 331.63724 107.62008 333.65195 107.62008 336.13724Z" fill-rule="nonzero"/><path fill="#4285f4" clip-path="url(#id_0)" d="M127.00285 331.645C127.00285 334.13028 124.98814 336.145 122.50285 336.145C120.01757 336.145 118.00285 334.13028 118.00285 331.645C118.00285 329.1597 120.01757 327.145 122.50285 327.145C124.98814 327.145 127.00285 329.1597 127.00285 331.645Z" fill-rule="nonzero"/><path fill="#4285f4" clip-path="url(#id_0)" d="M146.38562 336.83453C146.38562 339.3198 144.37091 341.33453 141.88562 341.33453C139.40034 341.33453 137.38562 339.3198 137.38562 336.83453C137.38562 334.34924 139.40034 332.33453 141.88562 332.33453C144.37091 332.33453 146.38562 334.34924 146.38562 336.83453Z" fill-rule="nonzero"/><path fill="#4285f4" clip-path="url(#id_0)" d="M163.89265 330.27448C163.89265 332.75974 161.87793 334.77448 159.39265 334.77448C156.90736 334.77448 154.89265 332.75974 154.89265 330.27448C154.89265 327.78918 156.90736 325.77448 159.39265 325.77448C161.87793 325.77448 163.89265 327.78918 163.89265 330.27448Z" fill-rule="nonzero"/><path fill="#4285f4" clip-path="url(#id_0)" d="M183.27542 318.90958C183.27542 321.39487 181.26071 323.40958 178.77542 323.40958C176.29015 323.40958 174.27542 321.39487 174.27542 318.90958C174.27542 316.4243 176.29015 314.40958 178.77542 314.40958C181.26071 314.40958 183.27542 316.4243 183.27542 318.90958Z" fill-rule="nonzero"/><path fill="#4285f4" clip-path="url(#id_0)" d="M202.03294 310.06534C202.03294 312.5506 200.01823 314.56534 197.53294 314.56534C195.04767 314.56534 193.03294 312.5506 193.03294 310.06534C193.03294 307.58005 195.04767 305.56534 197.53294 305.56534C200.01823 305.56534 202.03294 307.58005 202.03294 310.06534Z" fill-rule="nonzero"/><path fill="#4285f4" clip-path="url(#id_0)" d="M221.41573 308.98734C221.41573 311.47263 219.401 313.48734 216.91573 313.48734C214.43045 313.48734 212.41573 311.47263 212.41573 308.98734C212.41573 306.50208 214.43045 304.48734 216.91573 304.48734C219.401 304.48734 221.41573 306.50208 221.41573 308.98734Z" fill-rule="nonzero"/><path fill="#4285f4" clip-path="url(#id_0)" d="M240.17325 313.07086C240.17325 315.55612 238.15854 317.57086 235.67325 317.57086C233.18797 317.57086 231.17325 315.55612 231.17325 313.07086C231.17325 310.58557 233.18797 308.57086 235.67325 308.57086C238.15854 308.57086 240.17325 310.58557 240.17325 313.07086Z" fill-rule="nonzero"/><path fill="#4285f4" clip-path="url(#id_0)" d="M259.55603 318.60904C259.55603 321.0943 257.54132 323.10904 255.05603 323.10904C252.57074 323.10904 250.55603 321.0943 250.55603 318.60904C250.55603 316.12375 252.57074 314.10904 255.05603 314.10904C257.54132 314.10904 259.55603 316.12375 259.55603 318.60904Z" fill-rule="nonzero"/><path fill="#4285f4" clip-path="url(#id_0)" d="M278.9388 309.5123C278.9388 311.9976 276.92407 314.0123 274.4388 314.0123C271.95352 314.0123 269.9388 311.9976 269.9388 309.5123C269.9388 307.02704 271.95352 305.0123 274.4388 305.0123C276.92407 305.0123 278.9388 307.02704 278.9388 309.5123Z" fill-rule="nonzero"/><path fill="#4285f4" clip-path="url(#id_0)" d="M297.69632 308.3742C297.69632 310.8595 295.6816 312.8742 293.19632 312.8742C290.71103 312.8742 288.69632 310.8595 288.69632 308.3742C288.69632 305.88895 290.71103 303.8742 293.19632 303.8742C295.6816 303.8742 297.69632 305.88895 297.69632 308.3742Z" fill-rule="nonzero"/><path fill="#4285f4" clip-path="url(#id_0)" d="M317.0791 301.40942C317.0791 303.8947 315.0644 305.90942 312.5791 305.90942C310.0938 305.90942 308.0791 303.8947 308.0791 301.40942C308.0791 298.92413 310.0938 296.90942 312.5791 296.90942C315.0644 296.90942 317.0791 298.92413 317.0791 301.40942Z" fill-rule="nonzero"/><path fill="#4285f4" clip-path="url(#id_0)" d="M335.83664 292.05222C335.83664 294.5375 333.8219 296.55222 331.33664 296.55222C328.85135 296.55222 326.83664 294.5375 326.83664 292.05222C326.83664 289.56696 328.85135 287.55222 331.33664 287.55222C333.8219 287.55222 335.83664 289.56696 335.83664 292.05222Z" fill-rule="nonzero"/><path fill="#4285f4" clip-path="url(#id_0)" d="M355.2194 287.01898C355.2194 289.50427 353.20468 291.51898 350.7194 291.51898C348.23413 291.51898 346.2194 289.50427 346.2194 287.01898C346.2194 284.5337 348.23413 282.51898 350.7194 282.51898C353.20468 282.51898 355.2194 284.5337 355.2194 287.01898Z" fill-rule="nonzero"/><path fill="#4285f4" clip-path="url(#id_0)" d="M374.60217 263.64804C374.60217 266.1333 372.58746 268.14804 370.10217 268.14804C367.61688 268.14804 365.60217 266.1333 365.60217 263.64804C365.60217 261.16275 367.61688 259.14804 370.10217 259.14804C372.58746 259.14804 374.60217 261.16275 374.60217 263.64804Z" fill-rule="nonzero"/><path fill="#4285f4" clip-path="url(#id_0)" d="M392.73444 262.24146C392.73444 264.7267 390.71973 266.74146 388.23444 266.74146C385.74918 266.74146 383.73444 264.7267 383.73444 262.24146C383.73444 259.75616 385.74918 257.74146 388.23444 257.74146C390.71973 257.74146 392.73444 259.75616 392.73444 262.24146Z" fill-rule="nonzero"/><path fill="#4285f4" clip-path="url(#id_0)" d="M412.11722 236.1535C412.11722 238.6388 410.1025 240.6535 407.61722 240.6535C405.13196 240.6535 403.11722 238.6388 403.11722 236.1535C403.11722 233.66823 405.13196 231.6535 407.61722 231.6535C410.1025 231.6535 412.11722 233.66823 412.11722 236.1535Z" fill-rule="nonzero"/><path fill="#4285f4" clip-path="url(#id_0)" d="M430.87476 227.81819C430.87476 230.30347 428.86002 232.31819 426.37476 232.31819C423.88947 232.31819 421.87476 230.30347 421.87476 227.81819C421.87476 225.33292 423.88947 223.31819 426.37476 223.31819C428.86002 223.31819 430.87476 225.33292 430.87476 227.81819Z" fill-rule="nonzero"/><path fill="#4285f4" clip-path="url(#id_0)" d="M450.25754 217.28284C450.25754 219.76811 448.2428 221.78284 445.75754 221.78284C443.27225 221.78284 441.25754 219.76811 441.25754 217.28284C441.25754 214.79755 443.27225 212.78284 445.75754 212.78284C448.2428 212.78284 450.25754 214.79755 450.25754 217.28284Z" fill-rule="nonzero"/><path fill="#4285f4" clip-path="url(#id_0)" d="M469.01505 188.86661C469.01505 191.3519 467.00034 193.36661 464.51505 193.36661C462.02975 193.36661 460.01505 191.3519 460.01505 188.86661C460.01505 186.38133 462.02975 184.36661 464.51505 184.36661C467.00034 184.36661 469.01505 186.38133 469.01505 188.86661Z" fill-rule="nonzero"/><path fill="#4285f4" clip-path="url(#id_0)" d="M488.39783 218.66136C488.39783 221.14665 486.38312 223.16136 483.89783 223.16136C481.41254 223.16136 479.39783 221.14665 479.39783 218.66136C479.39783 216.17609 481.41254 214.16136 483.89783 214.16136C486.38312 214.16136 488.39783 216.17609 488.39783 218.66136Z" fill-rule="nonzero"/><path fill="#4285f4" clip-path="url(#id_0)" d="M507.7806 184.39038C507.7806 186.87567 505.76587 188.89038 503.2806 188.89038C500.79532 188.89038 498.7806 186.87567 498.7806 184.39038C498.7806 181.9051 500.79532 179.89038 503.2806 179.89038C505.76587 179.89038 507.7806 181.9051 507.7806 184.39038Z" fill-rule="nonzero"/><path fill="#4285f4" clip-path="url(#id_0)" d="M526.53815 101.566185C526.53815 104.05147 524.5234 106.066185 522.03815 106.066185C519.55286 106.066185 517.53815 104.05147 517.53815 101.566185C517.53815 99.08091 519.55286 97.066185 522.03815 97.066185C524.5234 97.066185 526.53815 99.08091 526.53815 101.566185Z" fill-rule="nonzero"/><path fill="#4285f4" clip-path="url(#id_0)" d="M545.9209 207.44876C545.9209 209.93404 543.9062 211.94876 541.4209 211.94876C538.9356 211.94876 536.9209 209.93404 536.9209 207.44876C536.9209 204.96347 538.9356 202.94876 541.4209 202.94876C543.9062 202.94876 545.9209 204.96347 545.9209 207.44876Z" fill-rule="nonzero"/><path fill="#4285f4" clip-path="url(#id_0)" d="M564.6784 190.64589C564.6784 193.13116 562.6637 195.14589 560.1784 195.14589C557.6931 195.14589 555.6784 193.13116 555.6784 190.64589C555.6784 188.1606 557.6931 186.14589 560.1784 186.14589C562.6637 186.14589 564.6784 188.1606 564.6784 190.64589Z" fill-rule="nonzero"/><path fill="#4285f4" clip-path="url(#id_0)" d="M584.0612 229.53735C584.0612 232.02263 582.0465 234.03735 579.5612 234.03735C577.0759 234.03735 575.0612 232.02263 575.0612 229.53735C575.0612 227.05206 577.0759 225.03735 579.5612 225.03735C582.0465 225.03735 584.0612 227.05206 584.0612 229.53735Z" fill-rule="nonzero"/><path fill="#4285f4" clip-path="url(#id_0)" d="M603.444 245.02582C603.444 247.5111 601.42926 249.52582 598.944 249.52582C596.4587 249.52582 594.444 247.5111 594.444 245.02582C594.444 242.54053 596.4587 240.52582 598.944 240.52582C601.42926 240.52582 603.444 242.54053 603.444 245.02582Z" fill-rule="nonzero"/><path fill="#4285f4" clip-path="url(#id_0)" d="M620.951 153.44553C620.951 155.9308 618.9363 157.94553 616.451 157.94553C613.9657 157.94553 611.951 155.9308 611.951 153.44553C611.951 150.96024 613.9657 148.94553 616.451 148.94553C618.9363 148.94553 620.951 150.96024 620.951 153.44553Z" fill-rule="nonzero"/><path fill="#4285f4" clip-path="url(#id_0)" d="M640.3338 194.78148C640.3338 197.26677 638.31903 199.28148 635.8338 199.28148C633.3485 199.28148 631.3338 197.26677 631.3338 194.78148C631.3338 192.2962 633.3485 190.28148 635.8338 190.28148C638.31903 190.28148 640.3338 192.2962 640.3338 194.78148Z" fill-rule="nonzero"/><path fill="#4285f4" clip-path="url(#id_0)" d="M659.0913 158.58296C659.0913 161.06824 657.0766 163.08296 654.5913 163.08296C652.106 163.08296 650.0913 161.06824 650.0913 158.58296C650.0913 156.09769 652.106 154.08296 654.5913 154.08296C657.0766 154.08296 659.0913 156.09769 659.0913 158.58296Z" fill-rule="nonzero"/><path fill="#4285f4" clip-path="url(#id_0)" d="M678.47406 142.58557C678.47406 145.07085 676.45935 147.08557 673.97406 147.08557C671.4888 147.08557 669.47406 145.07085 669.47406 142.58557C669.47406 140.10028 671.4888 138.08557 673.97406 138.08557C676.45935 138.08557 678.47406 140.10028 678.47406 142.58557Z" fill-rule="nonzero"/><path fill="#4285f4" clip-path="url(#id_0)" d="M697.23157 206.2145C697.23157 208.69977 695.21686 210.7145 692.73157 210.7145C690.24634 210.7145 688.23157 208.69977 688.23157 206.2145C688.23157 203.7292 690.24634 201.7145 692.73157 201.7145C695.21686 201.7145 697.23157 203.7292 697.23157 206.2145Z" fill-rule="nonzero"/><path fill="#4285f4" clip-path="url(#id_0)" d="M716.6144 166.59769C716.6144 169.08298 714.5997 171.09769 712.1144 171.09769C709.6291 171.09769 707.6144 169.08298 707.6144 166.59769C707.6144 164.11241 709.6291 162.09769 712.1144 162.09769C714.5997 162.09769 716.6144 164.11241 716.6144 166.59769Z" fill-rule="nonzero"/><path fill="#4285f4" clip-path="url(#id_0)" d="M735.99713 127.17324C735.99713 129.65852 733.9824 131.67325 731.49713 131.67325C729.01184 131.67325 726.99713 129.65852 726.99713 127.17324C726.99713 124.687965 729.01184 122.67324 731.49713 122.67324C733.9824 122.67324 735.99713 124.687965 735.99713 127.17324Z" fill-rule="nonzero"/><path fill="#4285f4" clip-path="url(#id_0)" d="M754.7547 139.75636C754.7547 142.24165 752.7399 144.25636 750.2547 144.25636C747.7694 144.25636 745.7547 142.24165 745.7547 139.75636C745.7547 137.27109 747.7694 135.25636 750.2547 135.25636C752.7399 135.25636 754.7547 137.27109 754.7547 139.75636Z" fill-rule="nonzero"/><path fill="#4285f4" clip-path="url(#id_0)" d="M774.13745 177.23724C774.13745 179.72252 772.12274 181.73724 769.63745 181.73724C767.15216 181.73724 765.13745 179.72252 765.13745 177.23724C765.13745 174.75197 767.15216 172.73724 769.63745 172.73724C772.12274 172.73724 774.13745 174.75197 774.13745 177.23724Z" fill-rule="nonzero"/><path fill="#efefef" d="M68.578125 400.56308Q68.578125 403.10995 67.703125 404.34433Q66.84375 405.5787 65.0 405.5787Q63.1875 405.5787 62.3125 404.37558Q61.4375 403.15683 61.40625 400.7662L61.40625 398.8287Q61.40625 396.3287 62.265625 395.10995Q63.140625 393.8912 64.984375 393.8912Q66.828125 393.8912 67.6875 395.06308Q68.5625 396.23495 68.578125 398.68808L68.578125 400.56308ZM67.140625 398.59433Q67.140625 396.75058 66.625 395.92245Q66.109375 395.0787 64.984375 395.0787Q63.875 395.0787 63.359375 395.92245Q62.859375 396.75058 62.84375 398.48495L62.84375 400.79745Q62.84375 402.6412 63.375 403.5162Q63.921875 404.3912 65.0 404.3912Q66.078125 404.3912 66.59375 403.56308Q67.109375 402.73495 67.140625 400.9537L67.140625 398.59433Z" fill-rule="nonzero"/><path fill="#efefef" d="M32.90625 325.27518L25.453125 325.27518L25.453125 324.2283L29.390625 319.8533Q30.265625 318.86893 30.59375 318.24393Q30.921875 317.61893 30.921875 316.96268Q30.921875 316.07205 30.375 315.50955Q29.84375 314.93143 28.953125 314.93143Q27.875 314.93143 27.265625 315.5408Q26.671875 316.15018 26.671875 317.24393L25.234375 317.24393Q25.234375 315.68143 26.234375 314.71268Q27.25 313.74393 28.953125 313.74393Q30.53125 313.74393 31.453125 314.57205Q32.375 315.40018 32.375 316.7908Q32.375 318.46268 30.234375 320.7908L27.1875 324.08768L32.90625 324.08768L32.90625 325.27518ZM41.578125 320.4158Q41.578125 322.96268 40.703125 324.19705Q39.84375 325.43143 38.0 325.43143Q36.1875 325.43143 35.3125 324.2283Q34.4375 323.00955 34.40625 320.61893L34.40625 318.68143Q34.40625 316.18143 35.265625 314.96268Q36.140625 313.74393 37.984375 313.74393Q39.828125 313.74393 40.6875 314.9158Q41.5625 316.08768 41.578125 318.5408L41.578125 320.4158ZM40.140625 318.44705Q40.140625 316.6033 39.625 315.77518Q39.109375 314.93143 37.984375 314.93143Q36.875 314.93143 36.359375 315.77518Q35.859375 316.6033 35.84375 318.33768L35.84375 320.65018Q35.84375 322.49393 36.375 323.36893Q36.921875 324.24393 38.0 324.24393Q39.078125 324.24393 39.59375 323.4158Q40.109375 322.58768 40.140625 320.80643L40.140625 318.44705ZM50.578125 320.4158Q50.578125 322.96268 49.703125 324.19705Q48.84375 325.43143 47.0 325.43143Q45.1875 325.43143 44.3125 324.2283Q43.4375 323.00955 43.40625 320.61893L43.40625 318.68143Q43.40625 316.18143 44.265625 314.96268Q45.140625 313.74393 46.984375 313.74393Q48.828125 313.74393 49.6875 314.9158Q50.5625 316.08768 50.578125 318.5408L50.578125 320.4158ZM49.140625 318.44705Q49.140625 316.6033 48.625 315.77518Q48.109375 314.93143 46.984375 314.93143Q45.875 314.93143 45.359375 315.77518Q44.859375 316.6033 44.84375 318.33768L44.84375 320.65018Q44.84375 322.49393 45.375 323.36893Q45.921875 324.24393 47.0 324.24393Q48.078125 324.24393 48.59375 323.4158Q49.109375 322.58768 49.140625 320.80643L49.140625 318.44705ZM59.578125 320.4158Q59.578125 322.96268 58.703125 324.19705Q57.84375 325.43143 56.0 325.43143Q54.1875 325.43143 53.3125 324.2283Q52.4375 323.00955 52.40625 320.61893L52.40625 318.68143Q52.40625 316.18143 53.265625 314.96268Q54.140625 313.74393 55.984375 313.74393Q57.828125 313.74393 58.6875 314.9158Q59.5625 316.08768 59.578125 318.5408L59.578125 320.4158ZM58.140625 318.44705Q58.140625 316.6033 57.625 315.77518Q57.109375 314.93143 55.984375 314.93143Q54.875 314.93143 54.359375 315.77518Q53.859375 316.6033 53.84375 318.33768L53.84375 320.65018Q53.84375 322.49393 54.375 323.36893Q54.921875 324.24393 56.0 324.24393Q57.078125 324.24393 57.59375 323.4158Q58.109375 322.58768 58.140625 320.80643L58.140625 318.44705ZM68.578125 320.4158Q68.578125 322.96268 67.703125 324.19705Q66.84375 325.43143 65.0 325.43143Q63.1875 325.43143 62.3125 324.2283Q61.4375 323.00955 61.40625 320.61893L61.40625 318.68143Q61.40625 316.18143 62.265625 314.96268Q63.140625 313.74393 64.984375 313.74393Q66.828125 313.74393 67.6875 314.9158Q68.5625 316.08768 68.578125 318.5408L68.578125 320.4158ZM67.140625 318.44705Q67.140625 316.6033 66.625 315.77518Q66.109375 314.93143 64.984375 314.93143Q63.875 314.93143 63.359375 315.77518Q62.859375 316.6033 62.84375 318.33768L62.84375 320.65018Q62.84375 322.49393 63.375 323.36893Q63.921875 324.24393 65.0 324.24393Q66.078125 324.24393 66.59375 323.4158Q67.109375 322.58768 67.140625 320.80643L67.140625 318.44705Z" fill-rule="nonzero"/><path fill="#efefef" d="M31.546875 241.29977L33.125 241.29977L33.125 242.48727L31.546875 242.48727L31.546875 245.1279L30.09375 245.1279L30.09375 242.48727L24.921875 242.48727L24.921875 241.6279L30.015625 233.7529L31.546875 233.7529L31.546875 241.29977ZM26.5625 241.29977L30.09375 241.29977L30.09375 235.72165L29.921875 236.03415L26.5625 241.29977ZM41.578125 240.26852Q41.578125 242.8154 40.703125 244.04977Q39.84375 245.28415 38.0 245.28415Q36.1875 245.28415 35.3125 244.08102Q34.4375 242.86227 34.40625 240.47165L34.40625 238.53415Q34.40625 236.03415 35.265625 234.8154Q36.140625 233.59665 37.984375 233.59665Q39.828125 233.59665 40.6875 234.76852Q41.5625 235.9404 41.578125 238.39352L41.578125 240.26852ZM40.140625 238.29977Q40.140625 236.45602 39.625 235.6279Q39.109375 234.78415 37.984375 234.78415Q36.875 234.78415 36.359375 235.6279Q35.859375 236.45602 35.84375 238.1904L35.84375 240.5029Q35.84375 242.34665 36.375 243.22165Q36.921875 244.09665 38.0 244.09665Q39.078125 244.09665 39.59375 243.26852Q40.109375 242.4404 40.140625 240.65915L40.140625 238.29977ZM50.578125 240.26852Q50.578125 242.8154 49.703125 244.04977Q48.84375 245.28415 47.0 245.28415Q45.1875 245.28415 44.3125 244.08102Q43.4375 242.86227 43.40625 240.47165L43.40625 238.53415Q43.40625 236.03415 44.265625 234.8154Q45.140625 233.59665 46.984375 233.59665Q48.828125 233.59665 49.6875 234.76852Q50.5625 235.9404 50.578125 238.39352L50.578125 240.26852ZM49.140625 238.29977Q49.140625 236.45602 48.625 235.6279Q48.109375 234.78415 46.984375 234.78415Q45.875 234.78415 45.359375 235.6279Q44.859375 236.45602 44.84375 238.1904L44.84375 240.5029Q44.84375 242.34665 45.375 243.22165Q45.921875 244.09665 47.0 244.09665Q48.078125 244.09665 48.59375 243.26852Q49.109375 242.4404 49.140625 240.65915L49.140625 238.29977ZM59.578125 240.26852Q59.578125 242.8154 58.703125 244.04977Q57.84375 245.28415 56.0 245.28415Q54.1875 245.28415 53.3125 244.08102Q52.4375 242.86227 52.40625 240.47165L52.40625 238.53415Q52.40625 236.03415 53.265625 234.8154Q54.140625 233.59665 55.984375 233.59665Q57.828125 233.59665 58.6875 234.76852Q59.5625 235.9404 59.578125 238.39352L59.578125 240.26852ZM58.140625 238.29977Q58.140625 236.45602 57.625 235.6279Q57.109375 234.78415 55.984375 234.78415Q54.875 234.78415 54.359375 235.6279Q53.859375 236.45602 53.84375 238.1904L53.84375 240.5029Q53.84375 242.34665 54.375 243.22165Q54.921875 244.09665 56.0 244.09665Q57.078125 244.09665 57.59375 243.26852Q58.109375 242.4404 58.140625 240.65915L58.140625 238.29977ZM68.578125 240.26852Q68.578125 242.8154 67.703125 244.04977Q66.84375 245.28415 65.0 245.28415Q63.1875 245.28415 62.3125 244.08102Q61.4375 242.86227 61.40625 240.47165L61.40625 238.53415Q61.40625 236.03415 62.265625 234.8154Q63.140625 233.59665 64.984375 233.59665Q66.828125 233.59665 67.6875 234.76852Q68.5625 235.9404 68.578125 238.39352L68.578125 240.26852ZM67.140625 238.29977Q67.140625 236.45602 66.625 235.6279Q66.109375 234.78415 64.984375 234.78415Q63.875 234.78415 63.359375 235.6279Q62.859375 236.45602 62.84375 238.1904L62.84375 240.5029Q62.84375 242.34665 63.375 243.22165Q63.921875 244.09665 65.0 244.09665Q66.078125 244.09665 66.59375 243.26852Q67.109375 242.4404 67.140625 240.65915L67.140625 238.29977Z" fill-rule="nonzero"/><path fill="#efefef" d="M31.125 153.58998L31.125 154.82436L30.859375 154.82436Q29.171875 154.8556 28.171875 155.82436Q27.171875 156.7931 27.015625 158.5431Q27.90625 157.51186 29.46875 157.51186Q30.953125 157.51186 31.828125 158.55873Q32.71875 159.6056 32.71875 161.26186Q32.71875 163.02748 31.765625 164.08998Q30.8125 165.13686 29.203125 165.13686Q27.5625 165.13686 26.546875 163.88686Q25.53125 162.62123 25.53125 160.65248L25.53125 160.08998Q25.53125 156.94936 26.875 155.2931Q28.21875 153.63686 30.859375 153.58998L31.125 153.58998ZM29.21875 158.71498Q28.484375 158.71498 27.859375 159.1681Q27.234375 159.6056 26.984375 160.27748L26.984375 160.80873Q26.984375 162.21498 27.609375 163.07436Q28.25 163.93373 29.203125 163.93373Q30.171875 163.93373 30.734375 163.21498Q31.296875 162.49623 31.296875 161.33998Q31.296875 160.1681 30.71875 159.44936Q30.15625 158.71498 29.21875 158.71498ZM41.578125 160.12123Q41.578125 162.6681 40.703125 163.90248Q39.84375 165.13686 38.0 165.13686Q36.1875 165.13686 35.3125 163.93373Q34.4375 162.71498 34.40625 160.32436L34.40625 158.38686Q34.40625 155.88686 35.265625 154.6681Q36.140625 153.44936 37.984375 153.44936Q39.828125 153.44936 40.6875 154.62123Q41.5625 155.7931 41.578125 158.24623L41.578125 160.12123ZM40.140625 158.15248Q40.140625 156.30873 39.625 155.4806Q39.109375 154.63686 37.984375 154.63686Q36.875 154.63686 36.359375 155.4806Q35.859375 156.30873 35.84375 158.0431L35.84375 160.3556Q35.84375 162.19936 36.375 163.07436Q36.921875 163.94936 38.0 163.94936Q39.078125 163.94936 39.59375 163.12123Q40.109375 162.2931 40.140625 160.51186L40.140625 158.15248ZM50.578125 160.12123Q50.578125 162.6681 49.703125 163.90248Q48.84375 165.13686 47.0 165.13686Q45.1875 165.13686 44.3125 163.93373Q43.4375 162.71498 43.40625 160.32436L43.40625 158.38686Q43.40625 155.88686 44.265625 154.6681Q45.140625 153.44936 46.984375 153.44936Q48.828125 153.44936 49.6875 154.62123Q50.5625 155.7931 50.578125 158.24623L50.578125 160.12123ZM49.140625 158.15248Q49.140625 156.30873 48.625 155.4806Q48.109375 154.63686 46.984375 154.63686Q45.875 154.63686 45.359375 155.4806Q44.859375 156.30873 44.84375 158.0431L44.84375 160.3556Q44.84375 162.19936 45.375 163.07436Q45.921875 163.94936 47.0 163.94936Q48.078125 163.94936 48.59375 163.12123Q49.109375 162.2931 49.140625 160.51186L49.140625 158.15248ZM59.578125 160.12123Q59.578125 162.6681 58.703125 163.90248Q57.84375 165.13686 56.0 165.13686Q54.1875 165.13686 53.3125 163.93373Q52.4375 162.71498 52.40625 160.32436L52.40625 158.38686Q52.40625 155.88686 53.265625 154.6681Q54.140625 153.44936 55.984375 153.44936Q57.828125 153.44936 58.6875 154.62123Q59.5625 155.7931 59.578125 158.24623L59.578125 160.12123ZM58.140625 158.15248Q58.140625 156.30873 57.625 155.4806Q57.109375 154.63686 55.984375 154.63686Q54.875 154.63686 54.359375 155.4806Q53.859375 156.30873 53.84375 158.0431L53.84375 160.3556Q53.84375 162.19936 54.375 163.07436Q54.921875 163.94936 56.0 163.94936Q57.078125 163.94936 57.59375 163.12123Q58.109375 162.2931 58.140625 160.51186L58.140625 158.15248ZM68.578125 160.12123Q68.578125 162.6681 67.703125 163.90248Q66.84375 165.13686 65.0 165.13686Q63.1875 165.13686 62.3125 163.93373Q61.4375 162.71498 61.40625 160.32436L61.40625 158.38686Q61.40625 155.88686 62.265625 154.6681Q63.140625 153.44936 64.984375 153.44936Q66.828125 153.44936 67.6875 154.62123Q68.5625 155.7931 68.578125 158.24623L68.578125 160.12123ZM67.140625 158.15248Q67.140625 156.30873 66.625 155.4806Q66.109375 154.63686 64.984375 154.63686Q63.875 154.63686 63.359375 155.4806Q62.859375 156.30873 62.84375 158.0431L62.84375 160.3556Q62.84375 162.19936 63.375 163.07436Q63.921875 163.94936 65.0 163.94936Q66.078125 163.94936 66.59375 163.12123Q67.109375 162.2931 67.140625 160.51186L67.140625 158.15248Z" fill-rule="nonzero"/><path fill="#efefef" d="M32.34375 76.427086Q32.34375 77.270836 31.890625 77.94271Q31.453125 78.59896 30.6875 78.97396Q31.578125 79.364586 32.09375 80.09896Q32.609375 80.833336 32.609375 81.75521Q32.609375 83.239586 31.609375 84.114586Q30.625 84.989586 29.0 84.989586Q27.359375 84.989586 26.359375 84.114586Q25.375 83.22396 25.375 81.75521Q25.375 80.833336 25.875 80.09896Q26.390625 79.34896 27.28125 78.97396Q26.515625 78.59896 26.078125 77.94271Q25.640625 77.270836 25.640625 76.427086Q25.640625 74.989586 26.5625 74.145836Q27.484375 73.302086 29.0 73.302086Q30.5 73.302086 31.421875 74.145836Q32.34375 74.989586 32.34375 76.427086ZM31.171875 81.72396Q31.171875 80.770836 30.5625 80.177086Q29.953125 79.56771 28.96875 79.56771Q28.0 79.56771 27.40625 80.16146Q26.828125 80.75521 26.828125 81.72396Q26.828125 82.69271 27.390625 83.25521Q27.96875 83.802086 29.0 83.802086Q30.015625 83.802086 30.59375 83.25521Q31.171875 82.69271 31.171875 81.72396ZM29.0 74.489586Q28.140625 74.489586 27.609375 75.020836Q27.09375 75.53646 27.09375 76.44271Q27.09375 77.31771 27.609375 77.84896Q28.125 78.38021 28.984375 78.38021Q29.859375 78.38021 30.375 77.84896Q30.90625 77.31771 30.90625 76.458336Q30.90625 75.583336 30.359375 75.03646Q29.828125 74.489586 29.0 74.489586ZM41.578125 79.97396Q41.578125 82.520836 40.703125 83.75521Q39.84375 84.989586 38.0 84.989586Q36.1875 84.989586 35.3125 83.78646Q34.4375 82.56771 34.40625 80.177086L34.40625 78.239586Q34.40625 75.739586 35.265625 74.520836Q36.140625 73.302086 37.984375 73.302086Q39.828125 73.302086 40.6875 74.47396Q41.5625 75.645836 41.578125 78.09896L41.578125 79.97396ZM40.140625 78.00521Q40.140625 76.16146 39.625 75.333336Q39.109375 74.489586 37.984375 74.489586Q36.875 74.489586 36.359375 75.333336Q35.859375 76.16146 35.84375 77.895836L35.84375 80.208336Q35.84375 82.052086 36.375 82.927086Q36.921875 83.802086 38.0 83.802086Q39.078125 83.802086 39.59375 82.97396Q40.109375 82.145836 40.140625 80.364586L40.140625 78.00521ZM50.578125 79.97396Q50.578125 82.520836 49.703125 83.75521Q48.84375 84.989586 47.0 84.989586Q45.1875 84.989586 44.3125 83.78646Q43.4375 82.56771 43.40625 80.177086L43.40625 78.239586Q43.40625 75.739586 44.265625 74.520836Q45.140625 73.302086 46.984375 73.302086Q48.828125 73.302086 49.6875 74.47396Q50.5625 75.645836 50.578125 78.09896L50.578125 79.97396ZM49.140625 78.00521Q49.140625 76.16146 48.625 75.333336Q48.109375 74.489586 46.984375 74.489586Q45.875 74.489586 45.359375 75.333336Q44.859375 76.16146 44.84375 77.895836L44.84375 80.208336Q44.84375 82.052086 45.375 82.927086Q45.921875 83.802086 47.0 83.802086Q48.078125 83.802086 48.59375 82.97396Q49.109375 82.145836 49.140625 80.364586L49.140625 78.00521ZM59.578125 79.97396Q59.578125 82.520836 58.703125 83.75521Q57.84375 84.989586 56.0 84.989586Q54.1875 84.989586 53.3125 83.78646Q52.4375 82.56771 52.40625 80.177086L52.40625 78.239586Q52.40625 75.739586 53.265625 74.520836Q54.140625 73.302086 55.984375 73.302086Q57.828125 73.302086 58.6875 74.47396Q59.5625 75.645836 59.578125 78.09896L59.578125 79.97396ZM58.140625 78.00521Q58.140625 76.16146 57.625 75.333336Q57.109375 74.489586 55.984375 74.489586Q54.875 74.489586 54.359375 75.333336Q53.859375 76.16146 53.84375 77.895836L53.84375 80.208336Q53.84375 82.052086 54.375 82.927086Q54.921875 83.802086 56.0 83.802086Q57.078125 83.802086 57.59375 82.97396Q58.109375 82.145836 58.140625 80.364586L58.140625 78.00521ZM68.578125 79.97396Q68.578125 82.520836 67.703125 83.75521Q66.84375 84.989586 65.0 84.989586Q63.1875 84.989586 62.3125 83.78646Q61.4375 82.56771 61.40625 80.177086L61.40625 78.239586Q61.40625 75.739586 62.265625 74.520836Q63.140625 73.302086 64.984375 73.302086Q66.828125 73.302086 67.6875 74.47396Q68.5625 75.645836 68.578125 78.09896L68.578125 79.97396ZM67.140625 78.00521Q67.140625 76.16146 66.625 75.333336Q66.109375 74.489586 64.984375 74.489586Q63.875 74.489586 63.359375 75.333336Q62.859375 76.16146 62.84375 77.895836L62.84375 80.208336Q62.84375 82.052086 63.375 82.927086Q63.921875 83.802086 65.0 83.802086Q66.078125 83.802086 66.59375 82.97396Q67.109375 82.145836 67.140625 80.364586L67.140625 78.00521Z" fill-rule="nonzero"/><path fill="#efefef" d="M105.71911 460.96997L101.992546 467.42456L101.08593 466.90112L99.265816 461.30365Q98.85082 460.05368 98.47362 459.45703Q98.09642 458.86035 97.52809 458.53223Q96.75678 458.0869 95.99621 458.2793Q95.22991 458.4503 94.7846 459.2216Q94.24554 460.15527 94.46858 460.9877Q94.69944 461.8066 95.64666 462.3535L94.92791 463.5984Q93.574745 462.81714 93.23578 461.46674Q92.90463 460.1028 93.756195 458.62784Q94.54526 457.26117 95.72337 456.87686Q96.90149 456.49255 98.105804 457.18787Q99.55369 458.0238 100.499596 461.0417L101.83133 465.3288L104.690704 460.37622L105.71911 460.96997ZM105.84671 451.0302Q108.05237 452.30365 108.68387 453.67862Q109.32318 455.04004 108.401306 456.63678Q107.495056 458.20645 106.01562 458.36267Q104.52265 458.51105 102.43668 457.3428L100.75876 456.37405Q98.5937 455.12405 97.96791 453.77045Q97.349945 452.4033 98.27182 450.80655Q99.193695 449.20984 100.63825 449.0515Q102.09063 448.8797 104.22291 450.0927L105.84671 451.0302ZM103.42297 451.29074Q101.82623 450.36887 100.85124 450.40137Q99.862724 450.42603 99.300224 451.4003Q98.74554 452.36105 99.21843 453.2295Q99.68561 454.07654 101.17981 454.95728L103.182495 456.11353Q104.77923 457.0354 105.80263 457.01282Q106.83384 456.9767 107.3729 456.04303Q107.911964 455.10934 107.4526 454.24875Q106.99323 453.38812 105.46625 452.47043L103.42297 451.29074ZM113.367546 447.7225L112.64098 448.98093L104.29196 444.1606L103.76471 447.2301L102.62805 446.57385L103.3452 442.20673L103.46239 442.00375L113.367546 447.7225ZM113.92805 436.75168Q114.16156 437.40973 114.133224 438.11505Q114.10489 438.82037 113.72989 439.4699Q113.2377 440.3224 112.451035 440.7162Q111.66437 441.11 110.70347 441.02432Q109.75038 440.9251 108.83023 440.39386Q107.84242 439.82355 107.27634 438.99152Q106.69672 438.1517 106.675674 437.2194Q106.65463 436.2871 107.18588 435.36694Q108.02963 433.90555 109.61007 433.69937Q111.17698 433.4854 113.07141 434.57916L113.43676 434.7901Q116.30547 436.44635 116.97532 438.34863Q117.64517 440.25092 116.365456 442.56122L116.22483 442.80478L115.15583 442.1876L115.30427 441.93048Q116.175644 440.35873 115.880905 439.08798Q115.580444 437.7959 113.92805 436.75168ZM112.81867 438.67316Q113.17805 438.05072 113.10385 437.30423Q113.02393 436.5364 112.59623 435.96472L112.09556 435.67566Q110.864174 434.96472 109.78037 435.06067Q108.704384 435.1431 108.22782 435.9685Q107.75126 436.79395 108.09818 437.6618Q108.43157 438.52185 109.47351 439.1234Q110.47485 439.70154 111.41915 439.5972Q112.34992 439.48508 112.81867 438.67316ZM121.0638 436.36096L120.4388 437.44348L112.11026 427.15018L112.72745 426.08118L121.0638 436.36096ZM122.84671 421.58536Q125.05237 422.8588 125.68387 424.23376Q126.32318 425.59518 125.401306 427.19193Q124.495056 428.7616 123.01562 428.9178Q121.52265 429.0662 119.43668 427.89795L117.75876 426.9292Q115.5937 425.6792 114.96791 424.3256Q114.349945 422.95844 115.27182 421.3617Q116.193695 419.76495 117.63825 419.60666Q119.09063 419.4348 121.22291 420.64786L122.84671 421.58536ZM120.42297 421.8459Q118.82623 420.924 117.85124 420.9565Q116.862724 420.98117 116.300224 421.95544Q115.74554 422.9162 116.21843 423.7846Q116.68561 424.63168 118.17981 425.51242L120.182495 426.66867Q121.77923 427.59055 122.80263 427.56796Q123.83384 427.53186 124.3729 426.59818Q124.911964 425.6645 124.4526 424.80386Q123.99323 423.94327 122.46625 423.02557L120.42297 421.8459ZM130.36755 418.27762L129.64099 419.53607L121.29196 414.71576L120.76471 417.78525L119.62805 417.129L120.3452 412.76184L120.46239 412.55887L130.36755 418.27762Z" fill-rule="nonzero"/><path fill="#efefef" d="M161.99168 460.96997L158.26512 467.42456L157.3585 466.90112L155.53839 461.30365Q155.1234 460.0537 154.74619 459.45703Q154.36899 458.86038 153.80066 458.53226Q153.02936 458.08694 152.26878 458.2793Q151.50249 458.45032 151.05717 459.22162Q150.51811 460.1553 150.74115 460.9877Q150.97202 461.8066 151.91924 462.3535L151.20049 463.5984Q149.84732 462.81714 149.50835 461.46674Q149.1772 460.1028 150.02876 458.62787Q150.81783 457.26117 151.99594 456.87686Q153.17406 456.49255 154.37837 457.18787Q155.82626 458.0238 156.77216 461.0417L158.1039 465.3288L160.96327 460.37622L161.99168 460.96997ZM162.11928 451.0302Q164.32494 452.30365 164.95644 453.67862Q165.59575 455.04004 164.67387 456.63678Q163.76762 458.20645 162.2882 458.36267Q160.79521 458.51105 158.70926 457.3428L157.03133 456.37405Q154.86626 455.12405 154.24048 453.77045Q153.62251 452.4033 154.54439 450.80658Q155.46626 449.20984 156.91083 449.0515Q158.3632 448.8797 160.49548 450.0927L162.11928 451.0302ZM159.69554 451.29077Q158.0988 450.3689 157.12381 450.40137Q156.1353 450.42603 155.5728 451.40033Q155.01811 452.36105 155.491 453.2295Q155.95818 454.07657 157.45238 454.95728L159.45506 456.11353Q161.0518 457.0354 162.0752 457.01282Q163.1064 456.9767 163.64546 456.04303Q164.18452 455.10934 163.72517 454.24875Q163.26581 453.38812 161.73882 452.47046L159.69554 451.29077ZM169.64012 447.7225L168.91356 448.98093L160.56453 444.1606L160.03728 447.2301L158.90062 446.57385L159.61777 442.20673L159.73495 442.00375L169.64012 447.7225ZM170.20062 436.75168Q170.43413 437.40973 170.40579 438.11505Q170.37746 438.82037 170.00246 439.4699Q169.51027 440.3224 168.7236 440.7162Q167.93694 441.11 166.97604 441.02432Q166.02295 440.9251 165.1028 440.39386Q164.11499 439.82355 163.5489 438.99155Q162.96928 438.1517 162.94824 437.21942Q162.9272 436.2871 163.45845 435.36694Q164.3022 433.90555 165.88264 433.6994Q167.44955 433.4854 169.34398 434.57916L169.70934 434.7901Q172.57805 436.44635 173.2479 438.34863Q173.91774 440.25095 172.63803 442.56122L172.4974 442.80478L171.4284 442.1876L171.57684 441.9305Q172.44821 440.35873 172.15347 439.08798Q171.85301 437.7959 170.20062 436.75168ZM169.09125 438.6732Q169.45062 438.05072 169.37642 437.30423Q169.29651 436.5364 168.8688 435.96472L168.36813 435.67566Q167.13675 434.96472 166.05295 435.06067Q164.97694 435.1431 164.50038 435.9685Q164.02382 436.79395 164.37076 437.6618Q164.70415 438.52185 165.74608 439.1234Q166.74742 439.70154 167.69173 439.59723Q168.6225 439.48508 169.09125 438.6732ZM177.33636 436.36096L176.71136 437.44348L168.38283 427.15018L169.00002 426.08118L177.33636 436.36096ZM179.11928 421.58536Q181.32494 422.8588 181.95644 424.23376Q182.59575 425.59518 181.67387 427.19193Q180.76762 428.7616 179.2882 428.91782Q177.79521 429.0662 175.70926 427.89795L174.03133 426.9292Q171.86626 425.6792 171.24048 424.3256Q170.62251 422.95844 171.54439 421.3617Q172.46626 419.76495 173.91083 419.60666Q175.3632 419.43484 177.49548 420.64786L179.11928 421.58536ZM176.69554 421.8459Q175.0988 420.924 174.12381 420.9565Q173.1353 420.98117 172.5728 421.95544Q172.01811 422.9162 172.491 423.7846Q172.95818 424.63168 174.45238 425.51242L176.45506 426.66867Q178.0518 427.59055 179.0752 427.56796Q180.1064 427.53186 180.64546 426.59818Q181.18452 425.6645 180.72517 424.8039Q180.26581 423.94327 178.73882 423.02557L176.69554 421.8459ZM183.99673 415.19986L184.7858 413.83316L185.81421 414.4269L185.02515 415.7936L187.312 417.11392L186.58543 418.37234L184.29858 417.05203L181.71265 421.531L180.9684 421.10132L176.69533 412.7525L177.46095 411.42642L183.99673 415.19986ZM181.50455 419.51645L183.27017 416.45828L178.43938 413.66922L178.62407 413.97433L181.50455 419.51645Z" fill-rule="nonzero"/><path fill="#efefef" d="M218.88951 460.96997L215.16295 467.42456L214.25633 466.90112L212.43622 461.30365Q212.02122 460.0537 211.64401 459.45703Q211.26682 458.86038 210.69849 458.53226Q209.92719 458.08694 209.16661 458.2793Q208.40031 458.4503 207.955 459.22162Q207.41594 460.1553 207.63898 460.9877Q207.86984 461.8066 208.81705 462.3535L208.0983 463.5984Q206.74513 462.81714 206.40617 461.46674Q206.07503 460.1028 206.92659 458.62787Q207.71565 457.26117 208.89377 456.87686Q210.07188 456.49255 211.2762 457.18787Q212.72409 458.0238 213.66998 461.0417L215.00172 465.3288L217.8611 460.37622L218.88951 460.96997ZM219.0171 451.0302Q221.22276 452.30365 221.85426 453.67862Q222.49358 455.04004 221.5717 456.63678Q220.66545 458.20645 219.18602 458.36267Q217.69304 458.51105 215.60707 457.3428L213.92915 456.37405Q211.76408 455.12405 211.1383 453.77045Q210.52034 452.4033 211.44221 450.80655Q212.36409 449.20984 213.80865 449.0515Q215.26103 448.8797 217.39331 450.0927L219.0171 451.0302ZM216.59337 451.29077Q214.99663 450.3689 214.02164 450.40137Q213.03313 450.42603 212.47063 451.4003Q211.91594 452.36105 212.38882 453.2295Q212.856 454.07657 214.3502 454.95728L216.35289 456.11353Q217.94963 457.0354 218.97302 457.01282Q220.00423 456.9767 220.54329 456.04303Q221.08235 455.10934 220.62299 454.24875Q220.16364 453.38812 218.63664 452.47046L216.59337 451.29077ZM226.53795 447.7225L225.81139 448.98093L217.46236 444.1606L216.9351 447.2301L215.79845 446.57385L216.5156 442.20673L216.63278 442.00375L226.53795 447.7225ZM227.09845 436.75168Q227.33197 437.4097 227.30363 438.11505Q227.2753 438.82037 226.9003 439.46988Q226.4081 440.3224 225.62143 440.7162Q224.83476 441.11 223.87387 441.02432Q222.92078 440.9251 222.00063 440.39386Q221.01282 439.82355 220.44673 438.99155Q219.86711 438.1517 219.84607 437.21942Q219.82503 436.2871 220.3563 435.36694Q221.20004 433.90552 222.78047 433.69937Q224.34738 433.4854 226.2418 434.57916L226.60716 434.7901Q229.47588 436.44635 230.14572 438.34863Q230.81558 440.25092 229.53586 442.56122L229.39523 442.80478L228.32623 442.1876L228.47467 441.93048Q229.34605 440.3587 229.0513 439.08798Q228.75084 437.7959 227.09845 436.75168ZM225.98907 438.67316Q226.34845 438.05072 226.27425 437.30423Q226.19434 436.5364 225.76663 435.9647L225.26596 435.67563Q224.03458 434.9647 222.95078 435.06064Q221.87479 435.14307 221.39822 435.9685Q220.92165 436.79395 221.26857 437.6618Q221.60197 438.52185 222.6439 439.1234Q223.64525 439.70154 224.58955 439.5972Q225.52032 439.48508 225.98907 438.67316ZM234.23419 436.36093L233.60919 437.44348L225.28067 427.15018L225.89786 426.08118L234.23419 436.36093ZM236.0171 421.58536Q238.22276 422.8588 238.85426 424.23373Q239.49358 425.59518 238.5717 427.1919Q237.66545 428.76157 236.18602 428.9178Q234.69305 429.0662 232.60709 427.89792L230.92915 426.92917Q228.7641 425.67917 228.13832 424.32556Q227.52036 422.95844 228.44223 421.3617Q229.3641 419.76495 230.80865 419.60666Q232.26103 419.4348 234.39331 420.64786L236.0171 421.58536ZM233.59337 421.8459Q231.99664 420.924 231.02165 420.95648Q230.03313 420.98117 229.47063 421.95544Q228.91594 422.9162 229.38884 423.7846Q229.85602 424.63168 231.35022 425.5124L233.3529 426.66864Q234.94963 427.5905 235.97304 427.56793Q237.00424 427.53183 237.5433 426.59814Q238.08237 425.66446 237.623 424.80386Q237.16364 423.94327 235.63666 423.02557L233.59337 421.8459ZM235.68744 410.75012L242.47545 420.11792L241.71764 421.43048L235.24657 412.2637L232.16844 417.59518L231.14005 417.00143L234.9838 410.34387L235.68744 410.75012Z" fill-rule="nonzero"/><path fill="#efefef" d="M276.4126 460.96997L272.68604 467.42456L271.77942 466.90112L269.9593 461.30365Q269.5443 460.05368 269.16708 459.45703Q268.7899 458.86035 268.22156 458.53223Q267.45026 458.0869 266.6897 458.27927Q265.9234 458.4503 265.4781 459.2216Q264.93903 460.15527 265.16205 460.9877Q265.3929 461.80658 266.34015 462.35345L265.6214 463.5984Q264.26822 462.81714 263.92926 461.46674Q263.5981 460.10278 264.44968 458.62784Q265.23874 457.26114 266.41684 456.87683Q267.59497 456.49255 268.7993 457.18787Q270.24716 458.0238 271.19305 461.0417L272.5248 465.3288L275.3842 460.37622L276.4126 460.96997ZM276.5402 451.0302Q278.74585 452.30365 279.37735 453.67862Q280.01666 455.04004 279.0948 456.63678Q278.18854 458.20645 276.7091 458.36264Q275.21613 458.51105 273.13016 457.3428L271.45224 456.37405Q269.28717 455.12405 268.66138 453.77045Q268.04343 452.4033 268.9653 450.80655Q269.88718 449.2098 271.33173 449.0515Q272.78412 448.87967 274.91638 450.0927L276.5402 451.0302ZM274.11646 451.29074Q272.5197 450.36887 271.5447 450.40137Q270.5562 450.42603 269.9937 451.4003Q269.43903 452.36105 269.9119 453.22946Q270.3791 454.07654 271.8733 454.95728L273.87598 456.11353Q275.47272 457.0354 276.4961 457.01282Q277.5273 456.9767 278.06638 456.04303Q278.60544 455.10934 278.1461 454.24872Q277.6867 453.38812 276.15973 452.47043L274.11646 451.29074ZM284.06104 447.72247L283.33447 448.98093L274.98544 444.1606L274.4582 447.2301L273.32153 446.57385L274.03867 442.2067L274.15585 442.00372L284.06104 447.72247ZM284.62152 436.75168Q284.85504 437.4097 284.8267 438.11505Q284.79837 438.82037 284.42337 439.46988Q283.93118 440.3224 283.1445 440.7162Q282.35785 441.11 281.39694 441.0243Q280.44385 440.9251 279.5237 440.39386Q278.5359 439.82355 277.96982 438.99152Q277.3902 438.1517 277.36914 437.2194Q277.3481 436.2871 277.87936 435.36694Q278.7231 433.90552 280.30356 433.69937Q281.87045 433.4854 283.7649 434.57916L284.13025 434.7901Q286.99896 436.44635 287.6688 438.34863Q288.33865 440.25092 287.05893 442.56122L286.9183 442.80478L285.8493 442.1876L285.99774 441.93048Q286.8691 440.35873 286.57437 439.08798Q286.27393 437.7959 284.62152 436.75168ZM283.51215 438.67316Q283.87152 438.05072 283.79733 437.30423Q283.7174 436.5364 283.2897 435.9647L282.78903 435.67563Q281.55765 434.9647 280.47385 435.06067Q279.39786 435.14307 278.9213 435.9685Q278.44473 436.79395 278.79166 437.6618Q279.12506 438.52185 280.167 439.1234Q281.16833 439.70154 282.11264 439.5972Q283.0434 439.48508 283.51215 438.67316ZM291.75726 436.36093L291.13226 437.44348L282.80374 427.15018L283.42093 426.08118L291.75726 436.36093ZM296.56104 426.07184L295.83447 427.3303L287.48544 422.50998L286.9582 425.57947L285.82153 424.92322L286.53867 420.55606L286.65585 420.3531L296.56104 426.07184ZM298.0402 413.7911Q300.24585 415.06454 300.87735 416.4395Q301.51666 417.80093 300.5948 419.39767Q299.68854 420.96735 298.2091 421.12357Q296.71613 421.27197 294.63016 420.1037L292.95224 419.13495Q290.78717 417.88495 290.16138 416.53134Q289.54343 415.16418 290.4653 413.56747Q291.38718 411.97073 292.83173 411.81244Q294.28412 411.6406 296.41638 412.8536L298.0402 413.7911ZM295.61646 414.05167Q294.0197 413.1298 293.0447 413.16226Q292.0562 413.18692 291.4937 414.16122Q290.93903 415.12195 291.4119 415.9904Q291.8791 416.83746 293.3733 417.71817L295.37598 418.87442Q296.97272 419.7963 297.9961 419.7737Q299.0273 419.7376 299.56638 418.80392Q300.10544 417.87024 299.6461 417.00964Q299.1867 416.14902 297.65973 415.23135L295.61646 414.05167Z" fill-rule="nonzero"/><path fill="#efefef" d="M333.93567 460.96997L330.2091 467.42456L329.3025 466.90112L327.48236 461.30365Q327.06738 460.05368 326.6902 459.45703Q326.31296 458.86035 325.74463 458.53223Q324.97333 458.0869 324.21277 458.27927Q323.44647 458.4503 323.00116 459.2216Q322.4621 460.15527 322.68512 460.9877Q322.916 461.80658 323.86322 462.35345L323.14447 463.5984Q321.7913 462.81714 321.45233 461.46674Q321.1212 460.10278 321.97275 458.62784Q322.7618 457.26114 323.9399 456.87686Q325.11804 456.49255 326.32236 457.18787Q327.77023 458.0238 328.71616 461.0417L330.04788 465.3288L332.90726 460.37622L333.93567 460.96997ZM334.06326 451.0302Q336.26892 452.30365 336.90042 453.67862Q337.53973 455.04004 336.61786 456.63678Q335.7116 458.20645 334.23218 458.36267Q332.7392 458.51105 330.65323 457.3428L328.9753 456.37405Q326.81024 455.12405 326.18445 453.77045Q325.5665 452.4033 326.48837 450.80655Q327.41025 449.2098 328.8548 449.0515Q330.3072 448.8797 332.43945 450.0927L334.06326 451.0302ZM331.63953 451.29074Q330.0428 450.36887 329.0678 450.40137Q328.07928 450.42603 327.51678 451.4003Q326.9621 452.36105 327.435 453.22946Q327.90216 454.07654 329.39636 454.95728L331.39905 456.11353Q332.9958 457.0354 334.01917 457.01282Q335.05038 456.9767 335.58945 456.04303Q336.1285 455.10934 335.66916 454.24875Q335.20978 453.38812 333.6828 452.47043L331.63953 451.29074ZM342.93567 445.3815L339.2091 451.83612L338.3025 451.31268L336.48236 445.71518Q336.06738 444.46524 335.6902 443.86856Q335.31296 443.2719 334.74463 442.9438Q333.97333 442.49847 333.21277 442.69083Q332.44647 442.86185 332.00116 443.63315Q331.4621 444.56683 331.68512 445.39926Q331.916 446.21814 332.86322 446.765L332.14447 448.00992Q330.7913 447.22867 330.45233 445.87827Q330.1212 444.51434 330.97275 443.0394Q331.7618 441.6727 332.9399 441.2884Q334.11804 440.90408 335.32236 441.5994Q336.77023 442.43533 337.71616 445.45325L339.04788 449.74036L341.90726 444.78775L342.93567 445.3815ZM343.06326 435.44177Q345.26892 436.7152 345.90042 438.09015Q346.53973 439.45157 345.61786 441.0483Q344.7116 442.61798 343.23218 442.7742Q341.7392 442.9226 339.65323 441.75433L337.9753 440.78558Q335.81024 439.53558 335.18445 438.18198Q334.5665 436.81482 335.48837 435.2181Q336.41025 433.62137 337.8548 433.46307Q339.3072 433.29123 341.43945 434.50427L343.06326 435.44177ZM340.63953 435.7023Q339.0428 434.78043 338.0678 434.8129Q337.07928 434.8376 336.51678 435.81186Q335.9621 436.77258 336.435 437.64102Q336.90216 438.4881 338.39636 439.3688L340.39905 440.52505Q341.9958 441.44693 343.01917 441.42435Q344.05038 441.38824 344.58945 440.45456Q345.1285 439.52087 344.66916 438.66028Q344.20978 437.79968 342.6828 436.882L340.63953 435.7023ZM349.28033 436.36096L348.65533 437.44348L340.3268 427.15018L340.944 426.08118L349.28033 436.36096ZM351.06326 421.58536Q353.26892 422.8588 353.90042 424.23373Q354.53973 425.59518 353.61786 427.19193Q352.7116 428.7616 351.23218 428.9178Q349.7392 429.0662 347.65323 427.89795L345.9753 426.9292Q343.81024 425.6792 343.18445 424.32556Q342.5665 422.95844 343.48837 421.3617Q344.41025 419.76495 345.8548 419.60666Q347.3072 419.4348 349.43945 420.64786L351.06326 421.58536ZM348.63953 421.8459Q347.0428 420.924 346.0678 420.95648Q345.07928 420.98117 344.51678 421.95544Q343.9621 422.9162 344.435 423.7846Q344.90216 424.63168 346.39636 425.5124L348.39905 426.66864Q349.9958 427.5905 351.01917 427.56796Q352.05038 427.53186 352.58945 426.59818Q353.1285 425.6645 352.66916 424.80386Q352.20978 423.94327 350.6828 423.02557L348.63953 421.8459ZM358.5841 418.27762L357.85754 419.53607L349.5085 414.71576L348.98126 417.78522L347.8446 417.12897L348.56174 412.76184L348.67892 412.55887L358.5841 418.27762Z" fill-rule="nonzero"/><path fill="#efefef" d="M390.8335 460.96997L387.10693 467.42456L386.20032 466.90112L384.3802 461.30365Q383.9652 460.05368 383.58798 459.45703Q383.2108 458.86035 382.64246 458.53223Q381.87115 458.0869 381.1106 458.27927Q380.3443 458.4503 379.899 459.2216Q379.35992 460.15527 379.58295 460.9877Q379.8138 461.80658 380.76105 462.35345L380.0423 463.5984Q378.68912 462.81714 378.35016 461.46674Q378.019 460.10278 378.87057 458.62784Q379.65964 457.26114 380.83774 456.87683Q382.01587 456.49255 383.22018 457.18787Q384.66806 458.0238 385.61398 461.0417L386.9457 465.3288L389.80508 460.37622L390.8335 460.96997ZM390.9611 451.0302Q393.16675 452.30365 393.79825 453.67862Q394.43756 455.04004 393.5157 456.63678Q392.60944 458.20645 391.13 458.36264Q389.63702 458.51105 387.55106 457.3428L385.87314 456.37405Q383.70807 455.12405 383.08228 453.77045Q382.46432 452.4033 383.3862 450.80655Q384.30807 449.2098 385.75262 449.0515Q387.20502 448.87967 389.33728 450.0927L390.9611 451.0302ZM388.53735 451.29074Q386.9406 450.36887 385.9656 450.40137Q384.9771 450.42603 384.4146 451.4003Q383.85992 452.36105 384.3328 453.22946Q384.8 454.07654 386.2942 454.95728L388.29688 456.11353Q389.89362 457.0354 390.917 457.01282Q391.9482 456.9767 392.48727 456.04303Q393.02634 455.10934 392.567 454.24872Q392.1076 453.38812 390.58063 452.47043L388.53735 451.29074ZM399.8335 445.3815L396.10693 451.8361L395.20032 451.31265L393.3802 445.71518Q392.9652 444.46524 392.58798 443.86856Q392.2108 443.2719 391.64246 442.9438Q390.87115 442.49847 390.1106 442.69083Q389.3443 442.86185 388.899 443.63315Q388.35992 444.56683 388.58295 445.39923Q388.8138 446.21814 389.76105 446.765L389.0423 448.00992Q387.68912 447.22867 387.35016 445.87827Q387.019 444.51434 387.87057 443.0394Q388.65964 441.6727 389.83774 441.2884Q391.01587 440.90408 392.22018 441.5994Q393.66806 442.43533 394.61398 445.45322L395.9457 449.74033L398.80508 444.78775L399.8335 445.3815ZM399.9611 435.44174Q402.16675 436.71518 402.79825 438.09015Q403.43756 439.45157 402.5157 441.0483Q401.60944 442.61798 400.13 442.7742Q398.63702 442.9226 396.55106 441.75433L394.87314 440.78558Q392.70807 439.53558 392.08228 438.18198Q391.46432 436.81482 392.3862 435.2181Q393.30807 433.62137 394.75262 433.46307Q396.20502 433.29123 398.33728 434.50424L399.9611 435.44174ZM397.53735 435.7023Q395.9406 434.78043 394.9656 434.8129Q393.9771 434.83755 393.4146 435.81186Q392.85992 436.77258 393.3328 437.64102Q393.8 438.4881 395.2942 439.3688L397.29688 440.52505Q398.89362 441.44693 399.917 441.42435Q400.9482 441.38824 401.48727 440.45456Q402.02634 439.52087 401.567 438.66028Q401.1076 437.79968 399.58063 436.882L397.53735 435.7023ZM406.17816 436.36096L405.55316 437.44348L397.22464 427.15018L397.84183 426.08118L406.17816 436.36096ZM407.9611 421.58536Q410.16675 422.8588 410.79825 424.23373Q411.43756 425.59518 410.5157 427.1919Q409.60944 428.76157 408.13 428.9178Q406.63702 429.0662 404.55106 427.89795L402.87314 426.9292Q400.70807 425.6792 400.08228 424.32556Q399.46432 422.95844 400.3862 421.3617Q401.30807 419.76495 402.75262 419.60666Q404.20502 419.4348 406.33728 420.64786L407.9611 421.58536ZM405.53735 421.8459Q403.9406 420.924 402.9656 420.95648Q401.9771 420.98117 401.4146 421.95544Q400.85992 422.9162 401.3328 423.7846Q401.8 424.63168 403.2942 425.5124L405.29688 426.66864Q406.89362 427.5905 407.917 427.56796Q408.9482 427.53183 409.48727 426.59814Q410.02634 425.6645 409.567 424.80386Q409.1076 423.94327 407.58063 423.02557L405.53735 421.8459ZM412.83856 415.19983L413.62762 413.83313L414.656 414.42688L413.86694 415.79358L416.1538 417.1139L415.42725 418.37234L413.14038 417.05203L410.55444 421.531L409.8102 421.10132L405.53714 412.7525L406.30276 411.4264L412.83856 415.19983ZM410.34637 419.51642L412.112 416.45828L407.2812 413.66922L407.46588 413.9743L410.34637 419.51642Z" fill-rule="nonzero"/><path fill="#efefef" d="M447.73132 460.96997L444.00476 467.42456L443.09814 466.90112L441.278 461.30365Q440.86304 460.05368 440.4858 459.45703Q440.1086 458.86035 439.54028 458.53223Q438.76898 458.0869 438.00842 458.27927Q437.24213 458.4503 436.7968 459.2216Q436.25775 460.15527 436.48077 460.9877Q436.71164 461.80658 437.65887 462.35345L436.94012 463.5984Q435.58694 462.81714 435.248 461.46674Q434.91684 460.10278 435.7684 458.62784Q436.55746 457.26114 437.73557 456.87683Q438.9137 456.49252 440.118 457.18784Q441.5659 458.02377 442.51178 461.0417L443.84354 465.3288L446.7029 460.37622L447.73132 460.96997ZM447.85892 451.0302Q450.06458 452.30365 450.69608 453.67862Q451.3354 455.04004 450.4135 456.63678Q449.50726 458.20645 448.02783 458.36264Q446.53485 458.51105 444.44888 457.3428L442.77097 456.37405Q440.6059 455.12405 439.9801 453.77045Q439.36215 452.4033 440.28403 450.80655Q441.2059 449.2098 442.65045 449.0515Q444.10284 448.87967 446.2351 450.0927L447.85892 451.0302ZM445.43518 451.29074Q443.83844 450.36887 442.86343 450.40137Q441.87494 450.42603 441.31244 451.4003Q440.75775 452.36105 441.23062 453.22946Q441.6978 454.07654 443.19202 454.95728L445.1947 456.11353Q446.79144 457.0354 447.81482 457.01282Q448.84604 456.9767 449.3851 456.04303Q449.92416 455.10934 449.46478 454.24872Q449.00543 453.38812 447.47845 452.47043L445.43518 451.29074ZM456.73132 445.3815L453.00476 451.8361L452.09814 451.31265L450.278 445.71518Q449.86304 444.46524 449.4858 443.86856Q449.1086 443.2719 448.54028 442.9438Q447.76898 442.49847 447.00842 442.69083Q446.24213 442.86185 445.7968 443.63315Q445.25775 444.56683 445.48077 445.39923Q445.71164 446.21814 446.65887 446.765L445.94012 448.00992Q444.58694 447.22867 444.248 445.87827Q443.91684 444.51434 444.7684 443.0394Q445.55746 441.6727 446.73557 441.2884Q447.9137 440.90408 449.118 441.5994Q450.5659 442.43533 451.51178 445.45322L452.84354 449.74033L455.7029 444.78775L456.73132 445.3815ZM456.85892 435.44174Q459.06458 436.71518 459.69608 438.09015Q460.3354 439.45157 459.4135 441.0483Q458.50726 442.61798 457.02783 442.7742Q455.53485 442.92258 453.44888 441.75433L451.77097 440.78558Q449.6059 439.53558 448.9801 438.18198Q448.36215 436.81482 449.28403 435.2181Q450.2059 433.62137 451.65045 433.46304Q453.10284 433.29123 455.2351 434.50424L456.85892 435.44174ZM454.43518 435.7023Q452.83844 434.78043 451.86343 434.8129Q450.87494 434.83755 450.31244 435.81186Q449.75775 436.77258 450.23062 437.64102Q450.6978 438.4881 452.19202 439.3688L454.1947 440.52505Q455.79144 441.44693 456.81482 441.42435Q457.84604 441.38824 458.3851 440.45456Q458.92416 439.52087 458.46478 438.66028Q458.00543 437.79965 456.47845 436.882L454.43518 435.7023ZM463.076 436.36093L462.451 437.44348L454.12247 427.15018L454.73965 426.08118L463.076 436.36093ZM464.85892 421.58536Q467.06458 422.8588 467.69608 424.23373Q468.3354 425.59518 467.4135 427.1919Q466.50726 428.76157 465.02783 428.9178Q463.53485 429.0662 461.44888 427.89795L459.77097 426.9292Q457.6059 425.6792 456.9801 424.32556Q456.36215 422.95844 457.28403 421.3617Q458.2059 419.76495 459.65045 419.60666Q461.10284 419.4348 463.2351 420.64786L464.85892 421.58536ZM462.43518 421.8459Q460.83844 420.924 459.86343 420.95648Q458.87494 420.98117 458.31244 421.95544Q457.75775 422.9162 458.23062 423.7846Q458.6978 424.63168 460.19202 425.5124L462.1947 426.66864Q463.79144 427.5905 464.81482 427.56796Q465.84604 427.53183 466.3851 426.59814Q466.92416 425.66446 466.46478 424.80386Q466.00543 423.94327 464.47845 423.02557L462.43518 421.8459ZM464.52924 410.75012L471.31726 420.11792L470.55945 421.43048L464.08838 412.2637L461.01025 417.59518L459.98184 417.00143L463.8256 410.34387L464.52924 410.75012Z" fill-rule="nonzero"/><path fill="#efefef" d="M505.2544 460.96997L501.52783 467.42456L500.62122 466.90112L498.8011 461.30365Q498.3861 460.05368 498.0089 459.45703Q497.63168 458.86035 497.06335 458.53223Q496.29205 458.0869 495.5315 458.27927Q494.7652 458.4503 494.3199 459.2216Q493.78082 460.15527 494.00385 460.9877Q494.2347 461.80658 495.18195 462.35345L494.4632 463.5984Q493.11002 462.81714 492.77106 461.46674Q492.4399 460.10278 493.29147 458.62784Q494.08054 457.26114 495.25864 456.87683Q496.43677 456.49255 497.64108 457.18787Q499.08896 458.0238 500.03488 461.0417L501.3666 465.3288L504.22598 460.37622L505.2544 460.96997ZM505.382 451.0302Q507.58765 452.30365 508.21915 453.67862Q508.85846 455.04004 507.93658 456.63678Q507.03033 458.20645 505.5509 458.36264Q504.05792 458.51105 501.97195 457.3428L500.29404 456.37405Q498.12897 455.12405 497.50317 453.77045Q496.88522 452.4033 497.8071 450.80655Q498.72897 449.2098 500.17352 449.0515Q501.62592 448.87967 503.75818 450.0927L505.382 451.0302ZM502.95825 451.29074Q501.3615 450.36887 500.38654 450.40137Q499.398 450.42603 498.8355 451.4003Q498.28082 452.36105 498.75372 453.22946Q499.2209 454.07654 500.7151 454.95728L502.71777 456.11353Q504.3145 457.0354 505.3379 457.01282Q506.3691 456.9767 506.90817 456.04303Q507.44724 455.10934 506.98788 454.24872Q506.5285 453.38812 505.00153 452.47043L502.95825 451.29074ZM514.2544 445.3815L510.52783 451.8361L509.62122 451.31265L507.8011 445.71518Q507.3861 444.46524 507.0089 443.86856Q506.63168 443.2719 506.06335 442.9438Q505.29205 442.49847 504.5315 442.69083Q503.7652 442.86185 503.3199 443.63315Q502.78082 444.56683 503.00385 445.39923Q503.2347 446.21814 504.18195 446.765L503.4632 448.00992Q502.11002 447.22867 501.77106 445.87827Q501.4399 444.51434 502.29147 443.0394Q503.08054 441.6727 504.25864 441.2884Q505.43677 440.90408 506.64108 441.5994Q508.08896 442.43533 509.03488 445.45325L510.3666 449.74033L513.22595 444.78775L514.2544 445.3815ZM514.38196 435.44174Q516.58765 436.71518 517.2191 438.09015Q517.85846 439.45157 516.9366 441.0483Q516.03033 442.61798 514.5509 442.7742Q513.0579 442.9226 510.97195 441.75433L509.29404 440.78558Q507.12897 439.53558 506.50317 438.18198Q505.88522 436.81482 506.8071 435.2181Q507.72897 433.62137 509.17352 433.46307Q510.62592 433.29123 512.7582 434.50424L514.38196 435.44174ZM511.95825 435.7023Q510.3615 434.78043 509.38654 434.8129Q508.398 434.83755 507.8355 435.81186Q507.28082 436.77258 507.75372 437.64102Q508.2209 438.4881 509.7151 439.3688L511.71777 440.52505Q513.3145 441.44693 514.3379 441.42435Q515.36914 441.38824 515.9082 440.45456Q516.44727 439.52087 515.98785 438.66028Q515.5285 437.79968 514.0015 436.882L511.95825 435.7023ZM520.59906 436.36096L519.97406 437.44348L511.64554 427.15018L512.2627 426.08118L520.59906 436.36096ZM525.40283 426.07184L524.6763 427.3303L516.3272 422.50998L515.8 425.57947L514.6633 424.92322L515.3805 420.55606L515.4977 420.3531L525.40283 426.07184ZM526.88196 413.7911Q529.08765 415.06454 529.7191 416.4395Q530.35846 417.80093 529.4366 419.39767Q528.53033 420.96735 527.0509 421.12357Q525.5579 421.27197 523.472 420.1037L521.794 419.13495Q519.62897 417.88495 519.0032 416.53134Q518.3852 415.16418 519.30707 413.56747Q520.22894 411.97073 521.6735 411.81244Q523.1259 411.6406 525.2582 412.8536L526.88196 413.7911ZM524.45825 414.05167Q522.8615 413.1298 521.88654 413.16226Q520.898 413.18692 520.3355 414.16122Q519.7808 415.12195 520.2537 415.9904Q520.7209 416.83746 522.2151 417.71817L524.2178 418.87442Q525.8145 419.7963 526.8379 419.7737Q527.86914 419.7376 528.4082 418.80392Q528.94727 417.87024 528.48785 417.00964Q528.0285 416.14905 526.5015 415.23135L524.45825 414.05167Z" fill-rule="nonzero"/><path fill="#efefef" d="M562.77747 460.96997L559.0509 467.42456L558.1443 466.90112L556.32416 461.30365Q555.9092 460.05368 555.532 459.45703Q555.1548 458.86035 554.5864 458.53223Q553.8151 458.0869 553.05457 458.2793Q552.28827 458.4503 551.84296 459.2216Q551.3039 460.15527 551.5269 460.9877Q551.7578 461.8066 552.705 462.3535L551.98627 463.5984Q550.6331 462.81714 550.2941 461.46674Q549.96295 460.1028 550.8145 458.62784Q551.6036 457.26114 552.78174 456.87686Q553.95984 456.49255 555.1641 457.18787Q556.61206 458.0238 557.5579 461.0417L558.8897 465.3288L561.7491 460.37622L562.77747 460.96997ZM562.905 451.0302Q565.1107 452.30365 565.7422 453.67862Q566.38153 455.04004 565.45966 456.63678Q564.5534 458.20645 563.074 458.36267Q561.581 458.51105 559.49506 457.3428L557.8171 456.37405Q555.65204 455.12405 555.02625 453.77045Q554.40826 452.4033 555.33014 450.80655Q556.252 449.20984 557.6966 449.0515Q559.149 448.8797 561.28125 450.0927L562.905 451.0302ZM560.4813 451.29074Q558.8846 450.36887 557.9096 450.40137Q556.9211 450.42603 556.3586 451.4003Q555.8039 452.36105 556.2768 453.22946Q556.74396 454.07654 558.23816 454.95728L560.24084 456.11353Q561.8376 457.0354 562.86096 457.01282Q563.8922 456.9767 564.4313 456.04303Q564.97034 455.10934 564.5109 454.24875Q564.0516 453.38812 562.5246 452.47043L560.4813 451.29074ZM571.77747 445.3815L568.0509 451.83612L567.1443 451.31268L565.32416 445.71518Q564.9092 444.46524 564.532 443.86856Q564.1548 443.2719 563.5864 442.9438Q562.8151 442.49847 562.05457 442.69083Q561.28827 442.86185 560.84296 443.63315Q560.3039 444.56683 560.5269 445.39926Q560.7578 446.21814 561.705 446.765L560.98627 448.00992Q559.6331 447.22867 559.2941 445.87827Q558.96295 444.51434 559.8145 443.0394Q560.6036 441.6727 561.78174 441.2884Q562.95984 440.90408 564.1641 441.5994Q565.61206 442.43533 566.5579 445.45325L567.8897 449.74036L570.7491 444.78775L571.77747 445.3815ZM574.9259 439.92825L574.19934 441.1867L565.8503 436.3664L565.32306 439.43588L564.1864 438.77963L564.90356 434.41248L565.02075 434.2095L574.9259 439.92825ZM578.12213 436.36096L577.49713 437.44348L569.1686 427.15018L569.78577 426.08118L578.12213 436.36096ZM579.905 421.58536Q582.1107 422.8588 582.7422 424.23376Q583.38153 425.59518 582.45966 427.19193Q581.5534 428.7616 580.074 428.9178Q578.581 429.0662 576.49506 427.89795L574.8171 426.9292Q572.65204 425.6792 572.02625 424.32556Q571.40826 422.95844 572.33014 421.3617Q573.252 419.76495 574.6966 419.60666Q576.149 419.4348 578.28125 420.64786L579.905 421.58536ZM577.4813 421.8459Q575.8846 420.924 574.9096 420.95648Q573.9211 420.98117 573.3586 421.95544Q572.8039 422.9162 573.2768 423.7846Q573.74396 424.63168 575.23816 425.51242L577.24084 426.66867Q578.8376 427.59055 579.86096 427.56796Q580.8922 427.53186 581.4313 426.59818Q581.97034 425.6645 581.5109 424.80386Q581.0516 423.94327 579.5246 423.02557L577.4813 421.8459ZM587.4259 418.27762L586.69934 419.53607L578.3503 414.71576L577.82306 417.78525L576.6864 417.129L577.40356 412.76184L577.52075 412.55887L587.4259 418.27762Z" fill-rule="nonzero"/><path fill="#efefef" d="M619.05005 460.96997L615.3235 467.42456L614.4169 466.90112L612.59674 461.30365Q612.18176 460.05368 611.80457 459.45703Q611.42737 458.86035 610.859 458.53223Q610.0877 458.0869 609.32715 458.27927Q608.56085 458.4503 608.11554 459.2216Q607.5765 460.15527 607.7995 460.9877Q608.0304 461.80658 608.9776 462.35345L608.25885 463.5984Q606.90564 462.81714 606.5667 461.46674Q606.23553 460.10278 607.0871 458.62784Q607.87616 457.26114 609.0543 456.87683Q610.2324 456.49252 611.4367 457.18784Q612.88464 458.02377 613.8305 461.0417L615.16223 465.3288L618.0216 460.37622L619.05005 460.96997ZM619.1776 451.0302Q621.3833 452.30365 622.0148 453.67862Q622.6541 455.04004 621.73224 456.63678Q620.826 458.20645 619.34656 458.36264Q617.8536 458.51105 615.7676 457.3428L614.08966 456.37405Q611.9246 455.12405 611.2988 453.77045Q610.68085 452.4033 611.6027 450.80655Q612.5246 449.2098 613.9692 449.0515Q615.4216 448.87967 617.55383 450.0927L619.1776 451.0302ZM616.7539 451.29074Q615.15717 450.36887 614.1822 450.40137Q613.19366 450.42603 612.63116 451.4003Q612.0765 452.36105 612.5494 453.22946Q613.01654 454.07654 614.51074 454.95728L616.5134 456.11353Q618.11017 457.0354 619.13354 457.01282Q620.16473 456.9767 620.7038 456.04303Q621.24286 455.10934 620.7835 454.24872Q620.32416 453.38812 618.7972 452.47043L616.7539 451.29074ZM628.05005 445.3815L624.3235 451.8361L623.4169 451.31265L621.59674 445.71518Q621.18176 444.46524 620.80457 443.86856Q620.42737 443.2719 619.859 442.9438Q619.0877 442.49847 618.32715 442.69083Q617.56085 442.86182 617.11554 443.63315Q616.5765 444.56683 616.7995 445.39923Q617.0304 446.21814 617.9776 446.765L617.25885 448.00992Q615.90564 447.22867 615.5667 445.87827Q615.23553 444.51434 616.0871 443.0394Q616.87616 441.6727 618.0543 441.2884Q619.2324 440.90408 620.4367 441.5994Q621.88464 442.43533 622.8305 445.45322L624.16223 449.74033L627.0216 444.78775L628.05005 445.3815ZM631.1985 439.92825L630.4719 441.1867L622.12286 436.3664L621.59564 439.43585L620.459 438.7796L621.17615 434.41248L621.29333 434.2095L631.1985 439.92825ZM634.3947 436.36093L633.7697 437.44348L625.44116 427.15018L626.05835 426.08118L634.3947 436.36093ZM636.1776 421.58536Q638.3833 422.8588 639.0148 424.23373Q639.6541 425.59518 638.73224 427.1919Q637.826 428.76157 636.34656 428.9178Q634.8536 429.0662 632.7676 427.89792L631.08966 426.92917Q628.9246 425.67917 628.2988 424.32556Q627.68085 422.95844 628.6027 421.3617Q629.5246 419.76495 630.9692 419.60666Q632.4216 419.4348 634.55383 420.64786L636.1776 421.58536ZM633.7539 421.8459Q632.15717 420.924 631.1822 420.95648Q630.19366 420.98117 629.63116 421.95544Q629.0765 422.9162 629.5494 423.7846Q630.01654 424.63168 631.51074 425.5124L633.5134 426.66864Q635.11017 427.5905 636.13354 427.56793Q637.16473 427.53183 637.7038 426.59814Q638.24286 425.66446 637.7835 424.80386Q637.32416 423.94327 635.7972 423.02557L633.7539 421.8459ZM641.0551 415.19983L641.8442 413.83313L642.87256 414.42688L642.0835 415.79358L644.37036 417.1139L643.6438 418.37234L641.35693 417.05203L638.771 421.531L638.02673 421.10132L633.75366 412.7525L634.5193 411.4264L641.0551 415.19983ZM638.5629 419.51642L640.32855 416.45828L635.49774 413.66922L635.68243 413.9743L638.5629 419.51642Z" fill-rule="nonzero"/><path fill="#efefef" d="M675.9479 460.96997L672.2213 467.42456L671.3147 466.90112L669.49457 461.30365Q669.0796 460.05368 668.7024 459.45703Q668.3252 458.86035 667.75684 458.53223Q666.98553 458.0869 666.225 458.27927Q665.4587 458.4503 665.01337 459.2216Q664.4743 460.15527 664.6973 460.9877Q664.9282 461.80658 665.8754 462.35345L665.1567 463.59836Q663.80347 462.8171 663.46454 461.46674Q663.13336 460.10278 663.9849 458.62784Q664.774 457.26114 665.95215 456.87683Q667.13025 456.49252 668.33453 457.18784Q669.7825 458.02377 670.72833 461.0417L672.06006 465.3288L674.91943 460.37622L675.9479 460.96997ZM676.07544 451.0302Q678.2811 452.30365 678.9126 453.6786Q679.55194 455.04004 678.63007 456.63678Q677.7238 458.20645 676.2444 458.36264Q674.7514 458.51105 672.6654 457.3428L670.9875 456.37405Q668.82245 455.12405 668.19666 453.77042Q667.5787 452.4033 668.50055 450.80655Q669.4224 449.2098 670.867 449.0515Q672.3194 448.87967 674.45166 450.0927L676.07544 451.0302ZM673.65173 451.29074Q672.055 450.36887 671.08 450.40134Q670.0915 450.42603 669.529 451.4003Q668.9743 452.36105 669.4472 453.22946Q669.91437 454.07654 671.40857 454.95724L673.41125 456.1135Q675.008 457.03537 676.0314 457.01282Q677.06256 456.9767 677.6016 456.04303Q678.1407 455.10934 677.68134 454.24872Q677.222 453.38812 675.695 452.47043L673.65173 451.29074ZM684.9479 445.3815L681.2213 451.8361L680.3147 451.31265L678.49457 445.71518Q678.0796 444.4652 677.7024 443.86856Q677.3252 443.27188 676.75684 442.94376Q675.98553 442.49844 675.225 442.69083Q674.4587 442.86182 674.01337 443.63312Q673.4743 444.5668 673.6973 445.39923Q673.9282 446.21814 674.8754 446.765L674.1567 448.00992Q672.80347 447.22867 672.46454 445.87827Q672.13336 444.51434 672.9849 443.03937Q673.774 441.6727 674.95215 441.2884Q676.13025 440.90408 677.33453 441.5994Q678.7825 442.43533 679.72833 445.45322L681.06006 449.74033L683.91943 444.78775L684.9479 445.3815ZM688.0963 439.92825L687.36975 441.18668L679.0207 436.36636L678.49347 439.43585L677.3568 438.7796L678.074 434.41248L678.19116 434.2095L688.0963 439.92825ZM691.29254 436.36093L690.66754 437.44348L682.339 427.15018L682.9562 426.08118L691.29254 436.36093ZM693.07544 421.58536Q695.2811 422.8588 695.9126 424.23373Q696.55194 425.59515 695.63007 427.1919Q694.7238 428.76157 693.2444 428.9178Q691.7514 429.0662 689.6654 427.89792L687.9875 426.92917Q685.82245 425.67917 685.19666 424.32556Q684.5787 422.9584 685.50055 421.3617Q686.4224 419.76495 687.867 419.60666Q689.3194 419.4348 691.45166 420.64786L693.07544 421.58536ZM690.65173 421.8459Q689.055 420.924 688.08 420.95648Q687.0915 420.98117 686.529 421.95544Q685.9743 422.91617 686.4472 423.7846Q686.91437 424.63168 688.40857 425.5124L690.41125 426.66864Q692.008 427.5905 693.0314 427.56793Q694.06256 427.53183 694.6016 426.59814Q695.1407 425.66446 694.68134 424.80386Q694.222 423.94327 692.695 423.02557L690.65173 421.8459ZM692.7458 410.75012L699.5338 420.11792L698.776 421.43048L692.30493 412.2637L689.2268 417.59518L688.19836 417.00143L692.0421 410.34387L692.7458 410.75012Z" fill-rule="nonzero"/><path fill="#efefef" d="M733.47095 460.96997L729.7444 467.42456L728.83777 466.90112L727.01764 461.30365Q726.60266 460.05368 726.22546 459.45703Q725.84827 458.86035 725.2799 458.53223Q724.5086 458.0869 723.74805 458.27927Q722.98175 458.4503 722.53644 459.2216Q721.9974 460.15527 722.2204 460.9877Q722.4513 461.80658 723.3985 462.35345L722.67975 463.5984Q721.3266 462.81714 720.9876 461.46674Q720.65643 460.10278 721.508 458.62784Q722.29706 457.26114 723.4752 456.87683Q724.6533 456.49252 725.8576 457.18784Q727.30554 458.02377 728.2514 461.0417L729.5831 465.3288L732.4425 460.37622L733.47095 460.96997ZM733.5985 451.0302Q735.8042 452.30365 736.43567 453.67862Q737.075 455.04004 736.15314 456.63678Q735.2469 458.20645 733.76746 458.36264Q732.2745 458.51105 730.1885 457.3428L728.51056 456.37405Q726.3455 455.12405 725.7197 453.77045Q725.10175 452.4033 726.0236 450.80655Q726.9455 449.2098 728.3901 449.0515Q729.84247 448.87967 731.97473 450.0927L733.5985 451.0302ZM731.1748 451.29074Q729.57806 450.36887 728.6031 450.40137Q727.61456 450.42603 727.05206 451.4003Q726.4974 452.36105 726.9703 453.22946Q727.43744 454.07654 728.93164 454.95728L730.9343 456.11353Q732.53107 457.0354 733.55444 457.01282Q734.58563 456.9767 735.1247 456.04303Q735.66376 455.10934 735.2044 454.24872Q734.74506 453.38812 733.2181 452.47043L731.1748 451.29074ZM742.47095 445.3815L738.7444 451.8361L737.83777 451.31265L736.01764 445.71518Q735.60266 444.46524 735.22546 443.86856Q734.84827 443.2719 734.2799 442.9438Q733.5086 442.49847 732.74805 442.69083Q731.98175 442.86185 731.53644 443.63315Q730.9974 444.56683 731.2204 445.39923Q731.4513 446.21814 732.3985 446.765L731.67975 448.00992Q730.3266 447.22867 729.9876 445.87827Q729.65643 444.51434 730.508 443.0394Q731.29706 441.6727 732.4752 441.2884Q733.6533 440.90408 734.8576 441.5994Q736.30554 442.43533 737.2514 445.45322L738.5831 449.74033L741.4425 444.78775L742.47095 445.3815ZM745.6194 439.92825L744.8928 441.1867L736.54376 436.3664L736.01654 439.43585L734.8799 438.7796L735.59705 434.41248L735.71423 434.2095L745.6194 439.92825ZM748.8156 436.36093L748.1906 437.44348L739.86206 427.15018L740.47925 426.08118L748.8156 436.36093ZM753.6194 426.07184L752.8928 427.3303L744.54376 422.50998L744.01654 425.57947L742.8799 424.92322L743.59705 420.55606L743.71423 420.3531L753.6194 426.07184ZM755.0985 413.7911Q757.3042 415.06454 757.93567 416.4395Q758.575 417.80093 757.65314 419.39767Q756.7469 420.96735 755.26746 421.12357Q753.7745 421.27194 751.6885 420.1037L750.01056 419.13495Q747.8455 417.88495 747.2197 416.53134Q746.60175 415.16418 747.5236 413.56744Q748.4455 411.97073 749.8901 411.8124Q751.34247 411.6406 753.47473 412.8536L755.0985 413.7911ZM752.6748 414.05167Q751.07806 413.1298 750.1031 413.16226Q749.11456 413.18692 748.55206 414.1612Q747.9974 415.12195 748.4703 415.9904Q748.93744 416.83746 750.43164 417.71817L752.4343 418.87442Q754.03107 419.7963 755.05444 419.7737Q756.08563 419.7376 756.6247 418.80392Q757.16376 417.87024 756.7044 417.00964Q756.24506 416.14902 754.7181 415.23135L752.6748 414.05167Z" fill-rule="nonzero"/><path fill="#efefef" d="M226.57812 45.265625Q225.71875 46.5 224.15625 47.125Q222.60938 47.734375 220.54688 47.734375Q218.45312 47.734375 216.82812 46.765625Q215.21875 45.78125 214.32812 43.984375Q213.45312 42.171875 213.4375 39.78125L213.4375 38.296875Q213.4375 34.4375 215.23438 32.328125Q217.03125 30.203125 220.28125 30.203125Q222.95312 30.203125 224.57812 31.578125Q226.21875 32.9375 226.57812 35.4375L224.32812 35.4375Q223.70312 32.046875 220.29688 32.046875Q218.03125 32.046875 216.85938 33.640625Q215.70312 35.234375 215.6875 38.234375L215.6875 39.640625Q215.6875 42.5 217.0 44.203125Q218.3125 45.890625 220.5625 45.890625Q221.82812 45.890625 222.76562 45.609375Q223.71875 45.328125 224.34375 44.65625L224.34375 40.828125L220.39062 40.828125L220.39062 39.0L226.57812 39.0L226.57812 45.265625ZM237.46875 47.5Q237.28125 47.125 237.17188 46.15625Q235.65625 47.734375 233.5625 47.734375Q231.6875 47.734375 230.48438 46.671875Q229.28125 45.609375 229.28125 43.984375Q229.28125 42.0 230.78125 40.90625Q232.29688 39.8125 235.01562 39.8125L237.125 39.8125L237.125 38.8125Q237.125 37.671875 236.4375 37.0Q235.76562 36.328125 234.45312 36.328125Q233.28125 36.328125 232.5 36.921875Q231.71875 37.5 231.71875 38.328125L229.53125 38.328125Q229.53125 37.390625 230.20312 36.5Q230.89062 35.609375 232.03125 35.09375Q233.1875 34.578125 234.57812 34.578125Q236.76562 34.578125 238.0 35.6875Q239.25 36.78125 239.29688 38.703125L239.29688 44.53125Q239.29688 46.28125 239.75 47.3125L239.75 47.5L237.46875 47.5ZM233.875 45.84375Q234.89062 45.84375 235.79688 45.328125Q236.71875 44.796875 237.125 43.953125L237.125 41.34375L235.4375 41.34375Q231.45312 41.34375 231.45312 43.671875Q231.45312 44.703125 232.125 45.28125Q232.8125 45.84375 233.875 45.84375ZM245.0 47.5L242.82812 47.5L242.82812 29.5L245.0 29.5L245.0 47.5ZM256.46875 47.5Q256.28125 47.125 256.17188 46.15625Q254.65625 47.734375 252.5625 47.734375Q250.6875 47.734375 249.48438 46.671875Q248.28125 45.609375 248.28125 43.984375Q248.28125 42.0 249.78125 40.90625Q251.29688 39.8125 254.01562 39.8125L256.125 39.8125L256.125 38.8125Q256.125 37.671875 255.4375 37.0Q254.76562 36.328125 253.45312 36.328125Q252.28125 36.328125 251.5 36.921875Q250.71875 37.5 250.71875 38.328125L248.53125 38.328125Q248.53125 37.390625 249.20312 36.5Q249.89062 35.609375 251.03125 35.09375Q252.1875 34.578125 253.57812 34.578125Q255.76562 34.578125 257.0 35.6875Q258.25 36.78125 258.29688 38.703125L258.29688 44.53125Q258.29688 46.28125 258.75 47.3125L258.75 47.5L256.46875 47.5ZM252.875 45.84375Q253.89062 45.84375 254.79688 45.328125Q255.71875 44.796875 256.125 43.953125L256.125 41.34375L254.4375 41.34375Q250.45312 41.34375 250.45312 43.671875Q250.45312 44.703125 251.125 45.28125Q251.8125 45.84375 252.875 45.84375ZM265.89062 39.453125L268.70312 34.8125L271.23438 34.8125L267.09375 41.09375L271.375 47.5L268.85938 47.5L265.9375 42.75L263.0 47.5L260.48438 47.5L264.76562 41.09375L260.60938 34.8125L263.125 34.8125L265.89062 39.453125ZM277.79688 44.328125L280.75 34.8125L283.0625 34.8125L277.96875 49.453125Q276.78125 52.625 274.20312 52.625L273.79688 52.59375L272.98438 52.4375L272.98438 50.671875L273.57812 50.71875Q274.67188 50.71875 275.28125 50.265625Q275.90625 49.828125 276.29688 48.65625L276.78125 47.359375L272.26562 34.8125L274.625 34.8125L277.79688 44.328125ZM304.09375 47.5L301.82812 47.5L301.82812 39.609375L293.23438 39.609375L293.23438 47.5L290.98438 47.5L290.98438 30.4375L293.23438 30.4375L293.23438 37.765625L301.82812 37.765625L301.82812 30.4375L304.09375 30.4375L304.09375 47.5ZM312.90625 47.734375Q310.32812 47.734375 308.70312 46.046875Q307.09375 44.34375 307.09375 41.515625L307.09375 41.109375Q307.09375 39.21875 307.8125 37.75Q308.53125 36.265625 309.82812 35.421875Q311.125 34.578125 312.64062 34.578125Q315.10938 34.578125 316.46875 36.21875Q317.84375 37.84375 317.84375 40.875L317.84375 41.78125L309.26562 41.78125Q309.3125 43.65625 310.35938 44.8125Q311.40625 45.96875 313.01562 45.96875Q314.17188 45.96875 314.96875 45.5Q315.76562 45.03125 316.35938 44.25L317.6875 45.28125Q316.09375 47.734375 312.90625 47.734375ZM312.64062 36.359375Q311.32812 36.359375 310.4375 37.328125Q309.54688 38.28125 309.32812 40.0L315.6875 40.0L315.6875 39.828125Q315.59375 38.1875 314.79688 37.28125Q314.0 36.359375 312.64062 36.359375ZM323.0 47.5L320.82812 47.5L320.82812 29.5L323.0 29.5L323.0 47.5ZM337.35938 41.296875Q337.35938 44.1875 336.03125 45.96875Q334.70312 47.734375 332.4375 47.734375Q330.14062 47.734375 328.8125 46.265625L328.8125 52.375L326.64062 52.375L326.64062 34.8125L328.625 34.8125L328.73438 36.21875Q330.04688 34.578125 332.40625 34.578125Q334.6875 34.578125 336.01562 36.3125Q337.35938 38.03125 337.35938 41.09375L337.35938 41.296875ZM335.1875 41.046875Q335.1875 38.90625 334.26562 37.671875Q333.35938 36.421875 331.76562 36.421875Q329.79688 36.421875 328.8125 38.171875L328.8125 44.234375Q329.78125 45.96875 331.78125 45.96875Q333.34375 45.96875 334.26562 44.734375Q335.1875 43.484375 335.1875 41.046875ZM339.5625 46.359375Q339.5625 45.796875 339.89062 45.421875Q340.23438 45.046875 340.89062 45.046875Q341.5625 45.046875 341.90625 45.421875Q342.26562 45.796875 342.26562 46.359375Q342.26562 46.90625 341.90625 47.265625Q341.5625 47.625 340.89062 47.625Q340.23438 47.625 339.89062 47.265625Q339.5625 46.90625 339.5625 46.359375ZM339.57812 36.015625Q339.57812 35.453125 339.90625 35.078125Q340.25 34.703125 340.90625 34.703125Q341.57812 34.703125 341.92188 35.078125Q342.28125 35.453125 342.28125 36.015625Q342.28125 36.5625 341.92188 36.921875Q341.57812 37.28125 340.90625 37.28125Q340.25 37.28125 339.90625 36.921875Q339.57812 36.5625 339.57812 36.015625ZM354.23438 40.8125L354.23438 47.5L351.98438 47.5L351.98438 30.4375L358.28125 30.4375Q361.07812 30.4375 362.65625 31.875Q364.25 33.296875 364.25 35.65625Q364.25 38.140625 362.6875 39.484375Q361.14062 40.8125 358.25 40.8125L354.23438 40.8125ZM354.23438 38.984375L358.28125 38.984375Q360.07812 38.984375 361.03125 38.140625Q362.0 37.28125 362.0 35.671875Q362.0 34.15625 361.03125 33.25Q360.07812 32.328125 358.40625 32.28125L354.23438 32.28125L354.23438 38.984375ZM374.46875 47.5Q374.28125 47.125 374.17188 46.15625Q372.65625 47.734375 370.5625 47.734375Q368.6875 47.734375 367.48438 46.671875Q366.28125 45.609375 366.28125 43.984375Q366.28125 42.0 367.78125 40.90625Q369.29688 39.8125 372.01562 39.8125L374.125 39.8125L374.125 38.8125Q374.125 37.671875 373.4375 37.0Q372.76562 36.328125 371.45312 36.328125Q370.28125 36.328125 369.5 36.921875Q368.71875 37.5 368.71875 38.328125L366.53125 38.328125Q366.53125 37.390625 367.20312 36.5Q367.89062 35.609375 369.03125 35.09375Q370.1875 34.578125 371.57812 34.578125Q373.76562 34.578125 375.0 35.6875Q376.25 36.78125 376.29688 38.703125L376.29688 44.53125Q376.29688 46.28125 376.75 47.3125L376.75 47.5L374.46875 47.5ZM370.875 45.84375Q371.89062 45.84375 372.79688 45.328125Q373.71875 44.796875 374.125 43.953125L374.125 41.34375L372.4375 41.34375Q368.45312 41.34375 368.45312 43.671875Q368.45312 44.703125 369.125 45.28125Q369.8125 45.84375 370.875 45.84375ZM379.125 41.046875Q379.125 38.09375 380.5 36.34375Q381.875 34.578125 384.125 34.578125Q386.45312 34.578125 387.75 36.21875L387.85938 34.8125L389.84375 34.8125L389.84375 47.1875Q389.84375 49.65625 388.375 51.078125Q386.92188 52.5 384.45312 52.5Q383.09375 52.5 381.78125 51.90625Q380.46875 51.328125 379.76562 50.296875L380.89062 49.0Q382.29688 50.71875 384.3125 50.71875Q385.89062 50.71875 386.76562 49.828125Q387.65625 48.9375 387.65625 47.328125L387.65625 46.234375Q386.35938 47.734375 384.10938 47.734375Q381.875 47.734375 380.5 45.9375Q379.125 44.140625 379.125 41.046875ZM381.3125 41.296875Q381.3125 43.4375 382.1875 44.671875Q383.0625 45.890625 384.64062 45.890625Q386.70312 45.890625 387.65625 44.03125L387.65625 38.234375Q386.65625 36.421875 384.67188 36.421875Q383.09375 36.421875 382.20312 37.65625Q381.3125 38.890625 381.3125 41.296875ZM397.90625 47.734375Q395.32812 47.734375 393.70312 46.046875Q392.09375 44.34375 392.09375 41.515625L392.09375 41.109375Q392.09375 39.21875 392.8125 37.75Q393.53125 36.265625 394.82812 35.421875Q396.125 34.578125 397.64062 34.578125Q400.10938 34.578125 401.46875 36.21875Q402.84375 37.84375 402.84375 40.875L402.84375 41.78125L394.26562 41.78125Q394.3125 43.65625 395.35938 44.8125Q396.40625 45.96875 398.01562 45.96875Q399.17188 45.96875 399.96875 45.5Q400.76562 45.03125 401.35938 44.25L402.6875 45.28125Q401.09375 47.734375 397.90625 47.734375ZM397.64062 36.359375Q396.32812 36.359375 395.4375 37.328125Q394.54688 38.28125 394.32812 40.0L400.6875 40.0L400.6875 39.828125Q400.59375 38.1875 399.79688 37.28125Q399.0 36.359375 397.64062 36.359375ZM417.625 44.515625L422.5 30.4375L424.96875 30.4375L418.64062 47.5L416.64062 47.5L410.32812 30.4375L412.78125 30.4375L417.625 44.515625ZM429.0 47.5L426.82812 47.5L426.82812 34.8125L429.0 34.8125L429.0 47.5ZM426.65625 31.453125Q426.65625 30.921875 426.96875 30.5625Q427.29688 30.203125 427.92188 30.203125Q428.5625 30.203125 428.89062 30.5625Q429.21875 30.921875 429.21875 31.453125Q429.21875 31.984375 428.89062 32.34375Q428.5625 32.6875 427.92188 32.6875Q427.29688 32.6875 426.96875 32.34375Q426.65625 31.984375 426.65625 31.453125ZM437.90625 47.734375Q435.32812 47.734375 433.70312 46.046875Q432.09375 44.34375 432.09375 41.515625L432.09375 41.109375Q432.09375 39.21875 432.8125 37.75Q433.53125 36.265625 434.82812 35.421875Q436.125 34.578125 437.64062 34.578125Q440.10938 34.578125 441.46875 36.21875Q442.84375 37.84375 442.84375 40.875L442.84375 41.78125L434.26562 41.78125Q434.3125 43.65625 435.35938 44.8125Q436.40625 45.96875 438.01562 45.96875Q439.17188 45.96875 439.96875 45.5Q440.76562 45.03125 441.35938 44.25L442.6875 45.28125Q441.09375 47.734375 437.90625 47.734375ZM437.64062 36.359375Q436.32812 36.359375 435.4375 37.328125Q434.54688 38.28125 434.32812 40.0L440.6875 40.0L440.6875 39.828125Q440.59375 38.1875 439.79688 37.28125Q439.0 36.359375 437.64062 36.359375ZM456.875 44.515625L459.3125 34.8125L461.46875 34.8125L457.78125 47.5L456.03125 47.5L452.9375 37.890625L449.9375 47.5L448.1875 47.5L444.5 34.8125L446.65625 34.8125L449.15625 44.3125L452.10938 34.8125L453.85938 34.8125L456.875 44.515625ZM471.03125 44.140625Q471.03125 43.25 470.35938 42.765625Q469.70312 42.28125 468.04688 41.9375Q466.40625 41.578125 465.4375 41.09375Q464.46875 40.59375 464.0 39.921875Q463.54688 39.234375 463.54688 38.296875Q463.54688 36.734375 464.85938 35.65625Q466.1875 34.578125 468.23438 34.578125Q470.39062 34.578125 471.73438 35.703125Q473.07812 36.8125 473.07812 38.546875L470.89062 38.546875Q470.89062 37.65625 470.14062 37.015625Q469.39062 36.359375 468.23438 36.359375Q467.04688 36.359375 466.375 36.875Q465.71875 37.390625 465.71875 38.234375Q465.71875 39.015625 466.32812 39.421875Q466.95312 39.8125 468.57812 40.171875Q470.20312 40.53125 471.20312 41.046875Q472.21875 41.546875 472.70312 42.265625Q473.1875 42.96875 473.1875 43.984375Q473.1875 45.6875 471.82812 46.71875Q470.46875 47.734375 468.3125 47.734375Q466.78125 47.734375 465.60938 47.203125Q464.4375 46.65625 463.76562 45.6875Q463.10938 44.71875 463.10938 43.59375L465.28125 43.59375Q465.34375 44.6875 466.15625 45.328125Q466.96875 45.96875 468.3125 45.96875Q469.53125 45.96875 470.28125 45.46875Q471.03125 44.96875 471.03125 44.140625ZM492.35938 41.296875Q492.35938 44.1875 491.03125 45.96875Q489.70312 47.734375 487.4375 47.734375Q485.14062 47.734375 483.8125 46.265625L483.8125 52.375L481.64062 52.375L481.64062 34.8125L483.625 34.8125L483.73438 36.21875Q485.04688 34.578125 487.40625 34.578125Q489.6875 34.578125 491.01562 36.3125Q492.35938 38.03125 492.35938 41.09375L492.35938 41.296875ZM490.1875 41.046875Q490.1875 38.90625 489.26562 37.671875Q488.35938 36.421875 486.76562 36.421875Q484.79688 36.421875 483.8125 38.171875L483.8125 44.234375Q484.78125 45.96875 486.78125 45.96875Q488.34375 45.96875 489.26562 44.734375Q490.1875 43.484375 490.1875 41.046875ZM499.90625 47.734375Q497.32812 47.734375 495.70312 46.046875Q494.09375 44.34375 494.09375 41.515625L494.09375 41.109375Q494.09375 39.21875 494.8125 37.75Q495.53125 36.265625 496.82812 35.421875Q498.125 34.578125 499.64062 34.578125Q502.10938 34.578125 503.46875 36.21875Q504.84375 37.84375 504.84375 40.875L504.84375 41.78125L496.26562 41.78125Q496.3125 43.65625 497.35938 44.8125Q498.40625 45.96875 500.01562 45.96875Q501.17188 45.96875 501.96875 45.5Q502.76562 45.03125 503.35938 44.25L504.6875 45.28125Q503.09375 47.734375 499.90625 47.734375ZM499.64062 36.359375Q498.32812 36.359375 497.4375 37.328125Q496.54688 38.28125 496.32812 40.0L502.6875 40.0L502.6875 39.828125Q502.59375 38.1875 501.79688 37.28125Q501.0 36.359375 499.64062 36.359375ZM513.7656 36.765625Q513.28125 36.6875 512.7031 36.6875Q510.57812 36.6875 509.8125 38.5L509.8125 47.5L507.64062 47.5L507.64062 34.8125L509.75 34.8125L509.78125 36.28125Q510.85938 34.578125 512.8125 34.578125Q513.4375 34.578125 513.7656 34.75L513.7656 36.765625ZM524.8906 30.4375L530.46875 44.359375L536.0469 30.4375L538.96875 30.4375L538.96875 47.5L536.71875 47.5L536.71875 40.859375L536.9219 33.6875L531.3281 47.5L529.59375 47.5L524.0156 33.71875L524.2344 40.859375L524.2344 47.5L521.9844 47.5L521.9844 30.4375L524.8906 30.4375ZM542.0625 41.046875Q542.0625 39.171875 542.7969 37.6875Q543.53125 36.203125 544.8281 35.390625Q546.1406 34.578125 547.8281 34.578125Q550.40625 34.578125 552.0 36.375Q553.6094 38.171875 553.6094 41.140625L553.6094 41.296875Q553.6094 43.15625 552.8906 44.625Q552.1875 46.09375 550.875 46.921875Q549.5625 47.734375 547.84375 47.734375Q545.2656 47.734375 543.65625 45.9375Q542.0625 44.140625 542.0625 41.1875L542.0625 41.046875ZM544.25 41.296875Q544.25 43.40625 545.21875 44.6875Q546.2031 45.96875 547.84375 45.96875Q549.5 45.96875 550.46875 44.671875Q551.4375 43.375 551.4375 41.046875Q551.4375 38.953125 550.4531 37.65625Q549.46875 36.359375 547.8281 36.359375Q546.21875 36.359375 545.2344 37.640625Q544.25 38.921875 544.25 41.296875ZM558.6875 34.8125L558.7656 36.40625Q560.21875 34.578125 562.5625 34.578125Q566.5781 34.578125 566.6094 39.125L566.6094 47.5L564.4531 47.5L564.4531 39.109375Q564.4375 37.734375 563.8125 37.078125Q563.2031 36.421875 561.90625 36.421875Q560.84375 36.421875 560.0469 36.984375Q559.25 37.546875 558.8125 38.46875L558.8125 47.5L556.6406 47.5L556.6406 34.8125L558.6875 34.8125ZM572.5781 31.75L572.5781 34.8125L574.9531 34.8125L574.9531 36.5L572.5781 36.5L572.5781 44.359375Q572.5781 45.125 572.8906 45.5Q573.21875 45.875 573.9844 45.875Q574.3594 45.875 575.0156 45.734375L575.0156 47.5Q574.15625 47.734375 573.34375 47.734375Q571.8906 47.734375 571.15625 46.859375Q570.4219 45.96875 570.4219 44.359375L570.4219 36.5L568.1094 36.5L568.1094 34.8125L570.4219 34.8125L570.4219 31.75L572.5781 31.75ZM579.8125 36.359375Q581.25 34.578125 583.5625 34.578125Q587.5781 34.578125 587.6094 39.125L587.6094 47.5L585.4531 47.5L585.4531 39.109375Q585.4375 37.734375 584.8125 37.078125Q584.2031 36.421875 582.90625 36.421875Q581.84375 36.421875 581.0469 36.984375Q580.25 37.546875 579.8125 38.46875L579.8125 47.5L577.6406 47.5L577.6406 29.5L579.8125 29.5L579.8125 36.359375Z" fill-rule="nonzero"/></svg>