<svg version="1.1" viewBox="0.0 0.0 675.0 413.0" fill="none" stroke="none" stroke-linecap="square" stroke-miterlimit="10" width="675" height="413" xmlns:xlink="http://www.w3.org/1999/xlink" xmlns="http://www.w3.org/2000/svg"><path fill="#000000" d="M0 0L675.0 0L675.0 413.0L0 413.0L0 0Z" fill-rule="nonzero"/><path stroke="#333333" stroke-width="1.0" stroke-linecap="butt" d="M125.5 72.5L125.5 326.5" fill-rule="nonzero"/><path stroke="#333333" stroke-width="1.0" stroke-linecap="butt" d="M192.5 72.5L192.5 326.5" fill-rule="nonzero"/><path stroke="#333333" stroke-width="1.0" stroke-linecap="butt" d="M260.5 72.5L260.5 326.5" fill-rule="nonzero"/><path stroke="#333333" stroke-width="1.0" stroke-linecap="butt" d="M329.5 72.5L329.5 326.5" fill-rule="nonzero"/><path stroke="#333333" stroke-width="1.0" stroke-linecap="butt" d="M397.5 72.5L397.5 326.5" fill-rule="nonzero"/><path stroke="#333333" stroke-width="1.0" stroke-linecap="butt" d="M465.5 72.5L465.5 326.5" fill-rule="nonzero"/><path stroke="#333333" stroke-width="1.0" stroke-linecap="butt" d="M533.5 72.5L533.5 326.5" fill-rule="nonzero"/><path stroke="#333333" stroke-width="1.0" stroke-linecap="butt" d="M602.5 72.5L602.5 326.5" fill-rule="nonzero"/><path stroke="#cccccc" stroke-width="1.0" stroke-linecap="butt" d="M73.5 326.5L654.5 326.5" fill-rule="nonzero"/><path stroke="#333333" stroke-width="1.0" stroke-linecap="butt" d="M73.5 242.5L654.5 242.5" fill-rule="nonzero"/><path stroke="#333333" stroke-width="1.0" stroke-linecap="butt" d="M73.5 157.5L654.5 157.5" fill-rule="nonzero"/><path stroke="#333333" stroke-width="1.0" stroke-linecap="butt" d="M73.5 72.5L654.5 72.5" fill-rule="nonzero"/><clipPath id="id_0"><path d="M73.65 72.916664L654.35 72.916664L654.35 326.77246L73.65 326.77246L73.65 72.916664Z" clip-rule="nonzero"/></clipPath><path stroke="#4285f4" stroke-width="4.0" stroke-linecap="butt" clip-path="url(#id_0)" d="M80.485214 310.2109C80.485214 310.2109 95.387436 274.15436 102.83855 266.9031C110.28966 259.65182 118.23751 266.22784 125.93699 266.69662C133.63647 267.1654 142.08107 270.21582 149.03543 269.71582C155.9898 269.21582 162.94418 265.647 169.89854 263.98883C176.85292 262.3307 185.54588 261.69876 192.997 259.3145C200.4481 256.93027 207.89922 250.80861 215.35033 249.5326C222.80144 248.25659 230.99767 252.8372 238.44878 251.7293C245.89989 250.6214 253.351 242.29514 260.8021 242.95604C268.2532 243.61694 276.20108 254.97978 283.90054 256.11932C291.60004 257.25885 299.54788 250.85248 306.999 249.79323C314.4501 248.73396 321.9012 249.35457 329.35233 249.55968C336.80344 249.76479 344.99966 255.85722 352.45078 251.07266C359.9019 246.28809 367.353 223.12032 374.8041 220.90105C382.25522 218.6818 390.20306 237.09592 397.90256 238.31894C405.60205 239.54196 413.79825 233.53735 421.001 228.23918C428.20374 222.941 435.4065 211.297 442.60922 205.87956C449.81198 200.46211 458.25656 197.76613 465.70767 195.03484C473.15878 192.30354 480.6099 191.73572 488.061 189.142C495.51212 186.54828 503.70834 183.43181 511.15945 179.15024C518.61053 174.86867 526.06165 167.01219 533.51276 163.13025C540.96387 159.24829 548.91174 156.11479 556.6112 155.6161C564.3107 155.11743 572.25854 165.38736 579.70966 160.13812C587.16077 154.8889 594.6119 132.82143 602.063 124.26662C609.5141 115.7118 617.7103 102.70849 625.16144 108.29401C632.61255 113.879524 647.5148 157.26448 647.5148 157.26448" fill-rule="nonzero"/><path fill="#4285f4" clip-path="url(#id_0)" d="M84.985214 310.2109C84.985214 312.69617 82.97049 314.7109 80.485214 314.7109C77.99993 314.7109 75.985214 312.69617 75.985214 310.2109C75.985214 307.72562 77.99993 305.7109 80.485214 305.7109C82.97049 305.7109 84.985214 307.72562 84.985214 310.2109Z" fill-rule="nonzero"/><path fill="#4285f4" clip-path="url(#id_0)" d="M107.33855 266.9031C107.33855 269.3884 105.32383 271.4031 102.83855 271.4031C100.353264 271.4031 98.33855 269.3884 98.33855 266.9031C98.33855 264.41782 100.353264 262.4031 102.83855 262.4031C105.32383 262.4031 107.33855 264.41782 107.33855 266.9031Z" fill-rule="nonzero"/><path fill="#4285f4" clip-path="url(#id_0)" d="M130.437 266.69662C130.437 269.18192 128.42227 271.19662 125.93699 271.19662C123.451706 271.19662 121.43699 269.18192 121.43699 266.69662C121.43699 264.21136 123.451706 262.19662 125.93699 262.19662C128.42227 262.19662 130.437 264.21136 130.437 266.69662Z" fill-rule="nonzero"/><path fill="#4285f4" clip-path="url(#id_0)" d="M153.53543 269.71582C153.53543 272.2011 151.52072 274.21582 149.03543 274.21582C146.55016 274.21582 144.53543 272.2011 144.53543 269.71582C144.53543 267.23053 146.55016 265.21582 149.03543 265.21582C151.52072 265.21582 153.53543 267.23053 153.53543 269.71582Z" fill-rule="nonzero"/><path fill="#4285f4" clip-path="url(#id_0)" d="M174.39854 263.98883C174.39854 266.47412 172.38383 268.48883 169.89854 268.48883C167.41327 268.48883 165.39854 266.47412 165.39854 263.98883C165.39854 261.50357 167.41327 259.48883 169.89854 259.48883C172.38383 259.48883 174.39854 261.50357 174.39854 263.98883Z" fill-rule="nonzero"/><path fill="#4285f4" clip-path="url(#id_0)" d="M197.497 259.3145C197.497 261.79977 195.48227 263.8145 192.997 263.8145C190.51172 263.8145 188.497 261.79977 188.497 259.3145C188.497 256.82922 190.51172 254.81451 192.997 254.81451C195.48227 254.81451 197.497 256.82922 197.497 259.3145Z" fill-rule="nonzero"/><path fill="#4285f4" clip-path="url(#id_0)" d="M219.85033 249.5326C219.85033 252.01788 217.8356 254.0326 215.35033 254.0326C212.86505 254.0326 210.85033 252.01788 210.85033 249.5326C210.85033 247.04732 212.86505 245.0326 215.35033 245.0326C217.8356 245.0326 219.85033 247.04732 219.85033 249.5326Z" fill-rule="nonzero"/><path fill="#4285f4" clip-path="url(#id_0)" d="M242.94878 251.7293C242.94878 254.21458 240.93405 256.2293 238.44878 256.2293C235.96349 256.2293 233.94878 254.21458 233.94878 251.7293C233.94878 249.24402 235.96349 247.2293 238.44878 247.2293C240.93405 247.2293 242.94878 249.24402 242.94878 251.7293Z" fill-rule="nonzero"/><path fill="#4285f4" clip-path="url(#id_0)" d="M265.3021 242.95604C265.3021 245.44131 263.28738 247.45604 260.8021 247.45604C258.31683 247.45604 256.3021 245.44131 256.3021 242.95604C256.3021 240.47076 258.31683 238.45604 260.8021 238.45604C263.28738 238.45604 265.3021 240.47076 265.3021 242.95604Z" fill-rule="nonzero"/><path fill="#4285f4" clip-path="url(#id_0)" d="M288.40054 256.11932C288.40054 258.60458 286.38583 260.61932 283.90054 260.61932C281.41528 260.61932 279.40054 258.60458 279.40054 256.11932C279.40054 253.63403 281.41528 251.61931 283.90054 251.61931C286.38583 251.61931 288.40054 253.63403 288.40054 256.11932Z" fill-rule="nonzero"/><path fill="#4285f4" clip-path="url(#id_0)" d="M311.499 249.79323C311.499 252.2785 309.48428 254.29323 306.999 254.29323C304.5137 254.29323 302.499 252.2785 302.499 249.79323C302.499 247.30794 304.5137 245.29323 306.999 245.29323C309.48428 245.29323 311.499 247.30794 311.499 249.79323Z" fill-rule="nonzero"/><path fill="#4285f4" clip-path="url(#id_0)" d="M333.85233 249.55968C333.85233 252.04495 331.83762 254.05968 329.35233 254.05968C326.86707 254.05968 324.85233 252.04495 324.85233 249.55968C324.85233 247.07439 326.86707 245.05968 329.35233 245.05968C331.83762 245.05968 333.85233 247.07439 333.85233 249.55968Z" fill-rule="nonzero"/><path fill="#4285f4" clip-path="url(#id_0)" d="M356.95078 251.07266C356.95078 253.55794 354.93607 255.57266 352.45078 255.57266C349.96548 255.57266 347.95078 253.55794 347.95078 251.07266C347.95078 248.58737 349.96548 246.57266 352.45078 246.57266C354.93607 246.57266 356.95078 248.58737 356.95078 251.07266Z" fill-rule="nonzero"/><path fill="#4285f4" clip-path="url(#id_0)" d="M379.3041 220.90105C379.3041 223.38634 377.2894 225.40105 374.8041 225.40105C372.31882 225.40105 370.3041 223.38634 370.3041 220.90105C370.3041 218.41577 372.31882 216.40105 374.8041 216.40105C377.2894 216.40105 379.3041 218.41577 379.3041 220.90105Z" fill-rule="nonzero"/><path fill="#4285f4" clip-path="url(#id_0)" d="M402.40256 238.31894C402.40256 240.80423 400.38785 242.81894 397.90256 242.81894C395.41727 242.81894 393.40256 240.80423 393.40256 238.31894C393.40256 235.83366 395.41727 233.81894 397.90256 233.81894C400.38785 233.81894 402.40256 235.83366 402.40256 238.31894Z" fill-rule="nonzero"/><path fill="#4285f4" clip-path="url(#id_0)" d="M425.501 228.23918C425.501 230.72446 423.4863 232.73918 421.001 232.73918C418.51572 232.73918 416.501 230.72446 416.501 228.23918C416.501 225.75389 418.51572 223.73918 421.001 223.73918C423.4863 223.73918 425.501 225.75389 425.501 228.23918Z" fill-rule="nonzero"/><path fill="#4285f4" clip-path="url(#id_0)" d="M447.10922 205.87956C447.10922 208.36484 445.0945 210.37956 442.60922 210.37956C440.12393 210.37956 438.10922 208.36484 438.10922 205.87956C438.10922 203.39427 440.12393 201.37956 442.60922 201.37956C445.0945 201.37956 447.10922 203.39427 447.10922 205.87956Z" fill-rule="nonzero"/><path fill="#4285f4" clip-path="url(#id_0)" d="M470.20767 195.03484C470.20767 197.52013 468.19296 199.53484 465.70767 199.53484C463.22238 199.53484 461.20767 197.52013 461.20767 195.03484C461.20767 192.54956 463.22238 190.53484 465.70767 190.53484C468.19296 190.53484 470.20767 192.54956 470.20767 195.03484Z" fill-rule="nonzero"/><path fill="#4285f4" clip-path="url(#id_0)" d="M492.561 189.142C492.561 191.62727 490.5463 193.642 488.061 193.642C485.5757 193.642 483.561 191.62727 483.561 189.142C483.561 186.65672 485.5757 184.642 488.061 184.642C490.5463 184.642 492.561 186.65672 492.561 189.142Z" fill-rule="nonzero"/><path fill="#4285f4" clip-path="url(#id_0)" d="M515.6594 179.15024C515.6594 181.63551 513.6447 183.65024 511.15945 183.65024C508.67416 183.65024 506.65945 181.63551 506.65945 179.15024C506.65945 176.66495 508.67416 174.65024 511.15945 174.65024C513.6447 174.65024 515.6594 176.66495 515.6594 179.15024Z" fill-rule="nonzero"/><path fill="#4285f4" clip-path="url(#id_0)" d="M538.01276 163.13025C538.01276 165.61552 535.99805 167.63025 533.51276 167.63025C531.0275 167.63025 529.01276 165.61552 529.01276 163.13025C529.01276 160.64496 531.0275 158.63025 533.51276 158.63025C535.99805 158.63025 538.01276 160.64496 538.01276 163.13025Z" fill-rule="nonzero"/><path fill="#4285f4" clip-path="url(#id_0)" d="M561.1112 155.6161C561.1112 158.1014 559.0965 160.1161 556.6112 160.1161C554.126 160.1161 552.1112 158.1014 552.1112 155.6161C552.1112 153.13083 554.126 151.1161 556.6112 151.1161C559.0965 151.1161 561.1112 153.13083 561.1112 155.6161Z" fill-rule="nonzero"/><path fill="#4285f4" clip-path="url(#id_0)" d="M584.20966 160.13812C584.20966 162.62341 582.19495 164.63812 579.70966 164.63812C577.22437 164.63812 575.20966 162.62341 575.20966 160.13812C575.20966 157.65285 577.22437 155.63812 579.70966 155.63812C582.19495 155.63812 584.20966 157.65285 584.20966 160.13812Z" fill-rule="nonzero"/><path fill="#4285f4" clip-path="url(#id_0)" d="M606.563 124.26662C606.563 126.7519 604.5483 128.76662 602.063 128.76662C599.5777 128.76662 597.563 126.7519 597.563 124.26662C597.563 121.781334 599.5777 119.76662 602.063 119.76662C604.5483 119.76662 606.563 121.781334 606.563 124.26662Z" fill-rule="nonzero"/><path fill="#4285f4" clip-path="url(#id_0)" d="M629.66144 108.29401C629.66144 110.77929 627.6467 112.79401 625.16144 112.79401C622.67615 112.79401 620.66144 110.77929 620.66144 108.29401C620.66144 105.80873 622.67615 103.79401 625.16144 103.79401C627.6467 103.79401 629.66144 105.80873 629.66144 108.29401Z" fill-rule="nonzero"/><path fill="#4285f4" clip-path="url(#id_0)" d="M652.0148 157.26448C652.0148 159.74976 650.00006 161.76448 647.5148 161.76448C645.0295 161.76448 643.0148 159.74976 643.0148 157.26448C643.0148 154.7792 645.0295 152.76448 647.5148 152.76448C650.00006 152.76448 652.0148 154.7792 652.0148 157.26448Z" fill-rule="nonzero"/><path fill="#efefef" d="M64.72813 327.4131Q64.72813 329.95996 63.853127 331.19434Q62.99375 332.4287 61.15 332.4287Q59.3375 332.4287 58.4625 331.2256Q57.5875 330.00684 57.55625 327.6162L57.55625 325.6787Q57.55625 323.1787 58.415627 321.95996Q59.290627 320.7412 61.134377 320.7412Q62.978127 320.7412 63.8375 321.9131Q64.7125 323.08496 64.72813 325.5381L64.72813 327.4131ZM63.290627 325.44434Q63.290627 323.6006 62.775 322.77246Q62.259377 321.9287 61.134377 321.9287Q60.025 321.9287 59.509377 322.77246Q59.009377 323.6006 58.99375 325.33496L58.99375 327.64746Q58.99375 329.4912 59.525 330.3662Q60.071877 331.2412 61.15 331.2412Q62.228127 331.2412 62.74375 330.4131Q63.259377 329.58496 63.290627 327.8037L63.290627 325.44434Z" fill-rule="nonzero"/><path fill="#efefef" d="M29.05625 247.65385L21.603125 247.65385L21.603125 246.60698L25.540625 242.23198Q26.415625 241.2476 26.74375 240.6226Q27.071875 239.9976 27.071875 239.34135Q27.071875 238.45073 26.525 237.88823Q25.99375 237.3101 25.103125 237.3101Q24.025 237.3101 23.415625 237.91948Q22.821875 238.52885 22.821875 239.6226L21.384375 239.6226Q21.384375 238.0601 22.384375 237.09135Q23.4 236.1226 25.103125 236.1226Q26.68125 236.1226 27.603125 236.95073Q28.525 237.77885 28.525 239.16948Q28.525 240.84135 26.384375 243.16948L23.3375 246.46635L29.05625 246.46635L29.05625 247.65385ZM31.259375 241.95073L31.8375 236.27885L37.665627 236.27885L37.665627 237.60698L33.071877 237.60698L32.728127 240.71635Q33.55625 240.21635 34.61875 240.21635Q36.18125 240.21635 37.0875 241.2476Q38.009377 242.27885 38.009377 244.02885Q38.009377 245.77885 37.05625 246.79448Q36.103127 247.8101 34.4 247.8101Q32.9 247.8101 31.946875 246.98198Q30.99375 246.13823 30.853125 244.65385L32.228127 244.65385Q32.353127 245.63823 32.915627 246.13823Q33.478127 246.6226 34.4 246.6226Q35.415627 246.6226 35.978127 245.9351Q36.55625 245.2476 36.55625 244.04448Q36.55625 242.90385 35.93125 242.21635Q35.321877 241.51323 34.290627 241.51323Q33.3375 241.51323 32.80625 241.9351L32.415627 242.2476L31.259375 241.95073ZM46.728127 242.79448Q46.728127 245.34135 45.853127 246.57573Q44.99375 247.8101 43.15 247.8101Q41.3375 247.8101 40.4625 246.60698Q39.5875 245.38823 39.55625 242.9976L39.55625 241.0601Q39.55625 238.5601 40.415627 237.34135Q41.290627 236.1226 43.134377 236.1226Q44.978127 236.1226 45.8375 237.29448Q46.7125 238.46635 46.728127 240.91948L46.728127 242.79448ZM45.290627 240.82573Q45.290627 238.98198 44.775 238.15385Q44.259377 237.3101 43.134377 237.3101Q42.025 237.3101 41.509377 238.15385Q41.009377 238.98198 40.99375 240.71635L40.99375 243.02885Q40.99375 244.8726 41.525 245.7476Q42.071877 246.6226 43.15 246.6226Q44.228127 246.6226 44.74375 245.79448Q45.259377 244.96635 45.290627 243.1851L45.290627 240.82573ZM55.728127 242.79448Q55.728127 245.34135 54.853127 246.57573Q53.99375 247.8101 52.15 247.8101Q50.3375 247.8101 49.4625 246.60698Q48.5875 245.38823 48.55625 242.9976L48.55625 241.0601Q48.55625 238.5601 49.415627 237.34135Q50.290627 236.1226 52.134377 236.1226Q53.978127 236.1226 54.8375 237.29448Q55.7125 238.46635 55.728127 240.91948L55.728127 242.79448ZM54.290627 240.82573Q54.290627 238.98198 53.775 238.15385Q53.259377 237.3101 52.134377 237.3101Q51.025 237.3101 50.509377 238.15385Q50.009377 238.98198 49.99375 240.71635L49.99375 243.02885Q49.99375 244.8726 50.525 245.7476Q51.071877 246.6226 52.15 246.6226Q53.228127 246.6226 53.74375 245.79448Q54.259377 244.96635 54.290627 243.1851L54.290627 240.82573ZM64.72813 242.79448Q64.72813 245.34135 63.853127 246.57573Q62.99375 247.8101 61.15 247.8101Q59.3375 247.8101 58.4625 246.60698Q57.5875 245.38823 57.55625 242.9976L57.55625 241.0601Q57.55625 238.5601 58.415627 237.34135Q59.290627 236.1226 61.134377 236.1226Q62.978127 236.1226 63.8375 237.29448Q64.7125 238.46635 64.72813 240.91948L64.72813 242.79448ZM63.290627 240.82573Q63.290627 238.98198 62.775 238.15385Q62.259377 237.3101 61.134377 237.3101Q60.025 237.3101 59.509377 238.15385Q59.009377 238.98198 58.99375 240.71635L58.99375 243.02885Q58.99375 244.8726 59.525 245.7476Q60.071877 246.6226 61.15 246.6226Q62.228127 246.6226 62.74375 245.79448Q63.259377 244.96635 63.290627 243.1851L63.290627 240.82573Z" fill-rule="nonzero"/><path fill="#efefef" d="M22.259375 157.33214L22.8375 151.66026L28.665625 151.66026L28.665625 152.98839L24.071875 152.98839L23.728125 156.09776Q24.55625 155.59776 25.61875 155.59776Q27.18125 155.59776 28.0875 156.62901Q29.009375 157.66026 29.009375 159.41026Q29.009375 161.16026 28.05625 162.17589Q27.103125 163.19151 25.4 163.19151Q23.9 163.19151 22.946875 162.36339Q21.99375 161.51964 21.853125 160.03526L23.228125 160.03526Q23.353125 161.01964 23.915625 161.51964Q24.478125 162.00401 25.4 162.00401Q26.415625 162.00401 26.978125 161.31651Q27.55625 160.62901 27.55625 159.42589Q27.55625 158.28526 26.93125 157.59776Q26.321875 156.89464 25.290625 156.89464Q24.3375 156.89464 23.80625 157.31651L23.415625 157.62901L22.259375 157.33214ZM37.728127 158.17589Q37.728127 160.72276 36.853127 161.95714Q35.99375 163.19151 34.15 163.19151Q32.3375 163.19151 31.4625 161.98839Q30.5875 160.76964 30.55625 158.37901L30.55625 156.44151Q30.55625 153.94151 31.415625 152.72276Q32.290627 151.50401 34.134377 151.50401Q35.978127 151.50401 36.8375 152.67589Q37.7125 153.84776 37.728127 156.30089L37.728127 158.17589ZM36.290627 156.20714Q36.290627 154.36339 35.775 153.53526Q35.259377 152.69151 34.134377 152.69151Q33.025 152.69151 32.509377 153.53526Q32.009377 154.36339 31.99375 156.09776L31.99375 158.41026Q31.99375 160.25401 32.525 161.12901Q33.071877 162.00401 34.15 162.00401Q35.228127 162.00401 35.74375 161.17589Q36.259377 160.34776 36.290627 158.56651L36.290627 156.20714ZM46.728127 158.17589Q46.728127 160.72276 45.853127 161.95714Q44.99375 163.19151 43.15 163.19151Q41.3375 163.19151 40.4625 161.98839Q39.5875 160.76964 39.55625 158.37901L39.55625 156.44151Q39.55625 153.94151 40.415627 152.72276Q41.290627 151.50401 43.134377 151.50401Q44.978127 151.50401 45.8375 152.67589Q46.7125 153.84776 46.728127 156.30089L46.728127 158.17589ZM45.290627 156.20714Q45.290627 154.36339 44.775 153.53526Q44.259377 152.69151 43.134377 152.69151Q42.025 152.69151 41.509377 153.53526Q41.009377 154.36339 40.99375 156.09776L40.99375 158.41026Q40.99375 160.25401 41.525 161.12901Q42.071877 162.00401 43.15 162.00401Q44.228127 162.00401 44.74375 161.17589Q45.259377 160.34776 45.290627 158.56651L45.290627 156.20714ZM55.728127 158.17589Q55.728127 160.72276 54.853127 161.95714Q53.99375 163.19151 52.15 163.19151Q50.3375 163.19151 49.4625 161.98839Q48.5875 160.76964 48.55625 158.37901L48.55625 156.44151Q48.55625 153.94151 49.415627 152.72276Q50.290627 151.50401 52.134377 151.50401Q53.978127 151.50401 54.8375 152.67589Q55.7125 153.84776 55.728127 156.30089L55.728127 158.17589ZM54.290627 156.20714Q54.290627 154.36339 53.775 153.53526Q53.259377 152.69151 52.134377 152.69151Q51.025 152.69151 50.509377 153.53526Q50.009377 154.36339 49.99375 156.09776L49.99375 158.41026Q49.99375 160.25401 50.525 161.12901Q51.071877 162.00401 52.15 162.00401Q53.228127 162.00401 53.74375 161.17589Q54.259377 160.34776 54.290627 158.56651L54.290627 156.20714ZM64.72813 158.17589Q64.72813 160.72276 63.853127 161.95714Q62.99375 163.19151 61.15 163.19151Q59.3375 163.19151 58.4625 161.98839Q57.5875 160.76964 57.55625 158.37901L57.55625 156.44151Q57.55625 153.94151 58.415627 152.72276Q59.290627 151.50401 61.134377 151.50401Q62.978127 151.50401 63.8375 152.67589Q64.7125 153.84776 64.72813 156.30089L64.72813 158.17589ZM63.290627 156.20714Q63.290627 154.36339 62.775 153.53526Q62.259377 152.69151 61.134377 152.69151Q60.025 152.69151 59.509377 153.53526Q59.009377 154.36339 58.99375 156.09776L58.99375 158.41026Q58.99375 160.25401 59.525 161.12901Q60.071877 162.00401 61.15 162.00401Q62.228127 162.00401 62.74375 161.17589Q63.259377 160.34776 63.290627 158.56651L63.290627 156.20714Z" fill-rule="nonzero"/><path fill="#efefef" d="M28.946875 67.854164L24.228125 78.416664L22.7125 78.416664L27.415625 68.229164L21.259375 68.229164L21.259375 67.041664L28.946875 67.041664L28.946875 67.854164ZM31.259375 72.71354L31.8375 67.041664L37.665627 67.041664L37.665627 68.36979L33.071877 68.36979L32.728127 71.479164Q33.55625 70.979164 34.61875 70.979164Q36.18125 70.979164 37.0875 72.010414Q38.009377 73.041664 38.009377 74.791664Q38.009377 76.541664 37.05625 77.55729Q36.103127 78.572914 34.4 78.572914Q32.9 78.572914 31.946875 77.74479Q30.99375 76.90104 30.853125 75.416664L32.228127 75.416664Q32.353127 76.40104 32.915627 76.90104Q33.478127 77.385414 34.4 77.385414Q35.415627 77.385414 35.978127 76.697914Q36.55625 76.010414 36.55625 74.80729Q36.55625 73.666664 35.93125 72.979164Q35.321877 72.27604 34.290627 72.27604Q33.3375 72.27604 32.80625 72.697914L32.415627 73.010414L31.259375 72.71354ZM46.728127 73.55729Q46.728127 76.104164 45.853127 77.33854Q44.99375 78.572914 43.15 78.572914Q41.3375 78.572914 40.4625 77.36979Q39.5875 76.15104 39.55625 73.760414L39.55625 71.822914Q39.55625 69.322914 40.415627 68.104164Q41.290627 66.885414 43.134377 66.885414Q44.978127 66.885414 45.8375 68.05729Q46.7125 69.229164 46.728127 71.68229L46.728127 73.55729ZM45.290627 71.58854Q45.290627 69.74479 44.775 68.916664Q44.259377 68.072914 43.134377 68.072914Q42.025 68.072914 41.509377 68.916664Q41.009377 69.74479 40.99375 71.479164L40.99375 73.791664Q40.99375 75.635414 41.525 76.510414Q42.071877 77.385414 43.15 77.385414Q44.228127 77.385414 44.74375 76.55729Q45.259377 75.729164 45.290627 73.947914L45.290627 71.58854ZM55.728127 73.55729Q55.728127 76.104164 54.853127 77.33854Q53.99375 78.572914 52.15 78.572914Q50.3375 78.572914 49.4625 77.36979Q48.5875 76.15104 48.55625 73.760414L48.55625 71.822914Q48.55625 69.322914 49.415627 68.104164Q50.290627 66.885414 52.134377 66.885414Q53.978127 66.885414 54.8375 68.05729Q55.7125 69.229164 55.728127 71.68229L55.728127 73.55729ZM54.290627 71.58854Q54.290627 69.74479 53.775 68.916664Q53.259377 68.072914 52.134377 68.072914Q51.025 68.072914 50.509377 68.916664Q50.009377 69.74479 49.99375 71.479164L49.99375 73.791664Q49.99375 75.635414 50.525 76.510414Q51.071877 77.385414 52.15 77.385414Q53.228127 77.385414 53.74375 76.55729Q54.259377 75.729164 54.290627 73.947914L54.290627 71.58854ZM64.72813 73.55729Q64.72813 76.104164 63.853127 77.33854Q62.99375 78.572914 61.15 78.572914Q59.3375 78.572914 58.4625 77.36979Q57.5875 76.15104 57.55625 73.760414L57.55625 71.822914Q57.55625 69.322914 58.415627 68.104164Q59.290627 66.885414 61.134377 66.885414Q62.978127 66.885414 63.8375 68.05729Q64.7125 69.229164 64.72813 71.68229L64.72813 73.55729ZM63.290627 71.58854Q63.290627 69.74479 62.775 68.916664Q62.259377 68.072914 61.134377 68.072914Q60.025 68.072914 59.509377 68.916664Q59.009377 69.74479 58.99375 71.479164L58.99375 73.791664Q58.99375 75.635414 59.525 76.510414Q60.071877 77.385414 61.15 77.385414Q62.228127 77.385414 62.74375 76.55729Q63.259377 75.729164 63.290627 73.947914L63.290627 71.58854Z" fill-rule="nonzero"/><path fill="#efefef" d="M113.65327 380.02576L109.926704 386.48035L109.02008 385.9569L107.199974 380.35944Q106.78498 379.10947 106.407776 378.51282Q106.03057 377.91614 105.46224 377.588Q104.69094 377.1427 103.93037 377.33508Q103.16407 377.50607 102.71876 378.27737Q102.179695 379.21106 102.40274 380.0435Q102.6336 380.8624 103.58081 381.40927L102.86206 382.65417Q101.508896 381.87292 101.16994 380.52252Q100.83878 379.1586 101.690346 377.68362Q102.47941 376.31693 103.657524 375.93265Q104.83564 375.54834 106.039955 376.24365Q107.48785 377.0796 108.43375 380.09747L109.76549 384.38458L112.62486 379.432L113.65327 380.02576ZM113.78086 370.086Q115.98652 371.35944 116.61802 372.7344Q117.25733 374.09583 116.33546 375.69257Q115.42921 377.26224 113.94977 377.41846Q112.4568 377.56683 110.370834 376.3986L108.69291 375.42984Q106.52785 374.17984 105.90207 372.82623Q105.284096 371.45908 106.20597 369.86237Q107.127846 368.26562 108.5724 368.1073Q110.02478 367.9355 112.15706 369.1485L113.78086 370.086ZM111.357124 370.34656Q109.76038 369.42468 108.7854 369.45715Q107.796875 369.4818 107.234375 370.45612Q106.679695 371.41684 107.15259 372.28525Q107.61977 373.13232 109.11397 374.01306L111.116646 375.1693Q112.71339 376.0912 113.73678 376.0686Q114.76799 376.0325 115.30705 375.09882Q115.846115 374.16513 115.38675 373.30453Q114.92738 372.4439 113.4004 371.52625L111.357124 370.34656ZM121.301704 366.7783L120.57514 368.0367L112.22611 363.2164L111.69886 366.2859L110.5622 365.62964L111.27935 361.2625L111.39654 361.05954L121.301704 366.7783ZM121.8622 355.80746Q122.09571 356.4655 122.067375 357.17084Q122.03904 357.87616 121.66404 358.5257Q121.17185 359.37817 120.385185 359.77197Q119.59852 360.16577 118.63762 360.0801Q117.68453 359.9809 116.76438 359.44965Q115.77657 358.87933 115.21049 358.04733Q114.63087 357.2075 114.609825 356.2752Q114.58878 355.3429 115.12003 354.42273Q115.96378 352.96133 117.54422 352.7552Q119.11113 352.5412 121.00556 353.63495L121.37091 353.8459Q124.239624 355.50214 124.90948 357.40442Q125.57932 359.3067 124.29961 361.617L124.15898 361.86057L123.08998 361.24338L123.23842 360.9863Q124.109795 359.41452 123.815056 358.14377Q123.514595 356.85168 121.8622 355.80746ZM120.75282 357.72897Q121.1122 357.1065 121.038 356.36002Q120.958084 355.5922 120.53038 355.0205L120.02971 354.73145Q118.798325 354.0205 117.71452 354.11646Q116.638535 354.19888 116.16197 355.0243Q115.68541 355.84973 116.03233 356.7176Q116.36572 357.57764 117.40766 358.1792Q118.409004 358.75732 119.3533 358.65298Q120.28407 358.54086 120.75282 357.72897ZM128.99794 355.41675L128.37294 356.49927L120.04441 346.20596L120.6616 345.13696L128.99794 355.41675ZM133.8017 345.12766L133.07513 346.38608L124.72611 341.56577L124.19886 344.63525L123.0622 343.979L123.77935 339.61188L123.89654 339.4089L133.8017 345.12766Z" fill-rule="nonzero"/><path fill="#efefef" d="M180.71327 380.02576L176.98671 386.48035L176.0801 385.9569L174.25998 380.35944Q173.84499 379.10947 173.46777 378.51282Q173.09058 377.91614 172.52225 377.588Q171.75095 377.1427 170.99037 377.33505Q170.22408 377.50607 169.77876 378.27737Q169.2397 379.21106 169.46274 380.0435Q169.6936 380.86237 170.64082 381.40924L169.92207 382.65417Q168.56891 381.87292 168.22993 380.52252Q167.89879 379.15857 168.75035 377.68362Q169.53941 376.31693 170.71753 375.93265Q171.89565 375.54834 173.09996 376.24365Q174.54785 377.0796 175.49374 380.09747L176.82549 384.38458L179.68486 379.432L180.71327 380.02576ZM180.84087 370.086Q183.04652 371.35944 183.67802 372.7344Q184.31734 374.09583 183.39546 375.69257Q182.48921 377.26224 181.00978 377.41843Q179.5168 377.56683 177.43085 376.3986L175.75291 375.42984Q173.58786 374.17984 172.96207 372.82623Q172.3441 371.45908 173.26598 369.86234Q174.18785 368.2656 175.63242 368.1073Q177.0848 367.93546 179.21707 369.1485L180.84087 370.086ZM178.41713 370.34653Q176.82039 369.42465 175.8454 369.45715Q174.85689 369.4818 174.29439 370.4561Q173.7397 371.41684 174.21259 372.28525Q174.67976 373.13232 176.17397 374.01306L178.17665 375.1693Q179.77339 376.0912 180.79678 376.0686Q181.82799 376.0325 182.36705 375.09882Q182.90611 374.16513 182.44676 373.3045Q181.9874 372.4439 180.4604 371.5262L178.41713 370.34653ZM188.36171 366.77826L187.63515 368.0367L179.28612 363.2164L178.75887 366.2859L177.62221 365.62964L178.33936 361.26248L178.45654 361.0595L188.36171 366.77826ZM188.92221 355.80746Q189.15572 356.4655 189.12738 357.17084Q189.09904 357.87616 188.72404 358.52567Q188.23186 359.37817 187.44519 359.77197Q186.65852 360.16577 185.69763 360.0801Q184.74454 359.9809 183.82439 359.44965Q182.83658 358.87933 182.2705 358.0473Q181.69087 357.2075 181.66983 356.27518Q181.64879 355.3429 182.18004 354.42273Q183.02379 352.9613 184.60423 352.75516Q186.17114 352.5412 188.06557 353.63495L188.43092 353.8459Q191.29964 355.50214 191.96948 357.40442Q192.63933 359.3067 191.35962 361.617L191.219 361.86057L190.15 361.24338L190.29843 360.98627Q191.1698 359.41452 190.87506 358.14377Q190.5746 356.85168 188.92221 355.80746ZM187.81284 357.72894Q188.17221 357.1065 188.098 356.36002Q188.0181 355.5922 187.5904 355.02048L187.08972 354.7314Q185.85834 354.02048 184.77454 354.11646Q183.69855 354.19885 183.22198 355.0243Q182.74542 355.84973 183.09235 356.7176Q183.42574 357.57764 184.46767 358.1792Q185.46901 358.75732 186.41331 358.65298Q187.34409 358.54086 187.81284 357.72894ZM196.05795 355.41675L195.43295 356.49927L187.10442 346.20596L187.7216 345.13696L196.05795 355.41675ZM198.21832 342.04984L199.00739 340.68317L200.0358 341.27692L199.24673 342.6436L201.53358 343.9639L200.80702 345.22235L198.52017 343.90204L195.93423 348.381L195.18999 347.95132L190.91692 339.6025L191.68254 338.2764L198.21832 342.04984ZM195.72614 346.36646L197.49176 343.3083L192.66096 340.51923L192.84567 340.82434L195.72614 346.36646Z" fill-rule="nonzero"/><path fill="#efefef" d="M248.51837 380.02576L244.79182 386.48035L243.88521 385.9569L242.0651 380.35944Q241.6501 379.10947 241.27289 378.51282Q240.89568 377.91617 240.32735 377.58804Q239.55605 377.14273 238.79549 377.33505Q238.02919 377.50607 237.58388 378.27737Q237.04482 379.21106 237.26785 380.0435Q237.49872 380.86237 238.44594 381.40924L237.72719 382.65417Q236.37402 381.87292 236.03505 380.52252Q235.7039 379.15857 236.55547 377.68362Q237.34453 376.31696 238.52264 375.93265Q239.70074 375.54834 240.90508 376.24365Q242.35295 377.0796 243.29886 380.09747L244.6306 384.38458L247.48997 379.432L248.51837 380.02576ZM248.64597 370.086Q250.85164 371.35944 251.48314 372.7344Q252.12244 374.09583 251.20056 375.69257Q250.29431 377.26224 248.81488 377.41846Q247.32191 377.56686 245.23595 376.3986L243.55803 375.42984Q241.39296 374.17984 240.76718 372.82623Q240.14922 371.45908 241.07109 369.86237Q241.99297 368.26562 243.43752 368.10733Q244.8899 367.9355 247.02217 369.1485L248.64597 370.086ZM246.22223 370.34656Q244.6255 369.42468 243.65051 369.45715Q242.66199 369.4818 242.09949 370.45612Q241.5448 371.41684 242.0177 372.28528Q242.48488 373.13235 243.97908 374.01306L245.98177 375.1693Q247.57849 376.0912 248.6019 376.0686Q249.6331 376.0325 250.17216 375.09882Q250.71123 374.16513 250.25186 373.30453Q249.7925 372.44394 248.26552 371.52625L246.22223 370.34656ZM256.1668 366.7783L255.44025 368.0367L247.09123 363.2164L246.56398 366.2859L245.4273 365.62964L246.14445 361.2625L246.26164 361.05954L256.1668 366.7783ZM256.72733 355.80746Q256.96082 356.4655 256.9325 357.17084Q256.90414 357.87616 256.52914 358.5257Q256.03696 359.37817 255.2503 359.77197Q254.46364 360.16577 253.50273 360.0801Q252.54965 359.9809 251.6295 359.44965Q250.6417 358.87933 250.0756 358.04733Q249.49599 357.2075 249.47495 356.2752Q249.4539 355.3429 249.98515 354.42276Q250.8289 352.96133 252.40933 352.7552Q253.97624 352.54123 255.87067 353.63498L256.23602 353.84592Q259.10474 355.50217 259.7746 357.40445Q260.44443 359.30673 259.16473 361.617L259.0241 361.86057L257.9551 361.24338L258.10355 360.9863Q258.9749 359.41452 258.68018 358.14377Q258.3797 356.85168 256.72733 355.80746ZM255.61794 357.72897Q255.97731 357.1065 255.90312 356.36002Q255.8232 355.5922 255.3955 355.0205L254.89482 354.73145Q253.66344 354.0205 252.57964 354.11646Q251.50365 354.19888 251.02708 355.02432Q250.55052 355.84973 250.89745 356.7176Q251.23083 357.57764 252.27278 358.1792Q253.27412 358.75732 254.21841 358.653Q255.14919 358.54086 255.61794 357.72897ZM263.86307 355.41675L263.23807 356.49927L254.90953 346.20596L255.52672 345.13696L263.86307 355.41675ZM260.81628 337.60016L267.6043 346.96796L266.8465 348.28052L260.37543 339.11374L257.2973 344.44522L256.2689 343.85147L260.11264 337.1939L260.81628 337.60016Z" fill-rule="nonzero"/><path fill="#efefef" d="M312.5686 387.81998L308.84204 394.2746L307.93542 393.75116L306.11533 388.15366Q305.70032 386.90372 305.32312 386.30704Q304.94592 385.7104 304.3776 385.38226Q303.6063 384.93695 302.8457 385.1293Q302.0794 385.30032 301.6341 386.07162Q301.09503 387.0053 301.31808 387.83774Q301.54895 388.65662 302.49615 389.2035L301.7774 390.4484Q300.42422 389.66714 300.08527 388.31674Q299.75412 386.95282 300.60568 385.47787Q301.39474 384.11118 302.57288 383.72687Q303.75098 383.34256 304.9553 384.03787Q306.4032 384.8738 307.3491 387.89172L308.68082 392.17883L311.5402 387.22623L312.5686 387.81998ZM312.6962 377.88025Q314.90186 379.1537 315.53336 380.52863Q316.17267 381.89008 315.2508 383.4868Q314.34454 385.05646 312.8651 385.21268Q311.37213 385.36108 309.28616 384.1928L307.60825 383.22406Q305.44318 381.97406 304.8174 380.62045Q304.19943 379.2533 305.1213 377.6566Q306.04318 376.05984 307.48776 375.90155Q308.94012 375.7297 311.07242 376.94275L312.6962 377.88025ZM310.27246 378.14078Q308.67572 377.2189 307.70074 377.25137Q306.71222 377.27606 306.14972 378.25034Q305.59503 379.21106 306.06793 380.0795Q306.5351 380.92657 308.0293 381.80728L310.03198 382.96353Q311.62872 383.8854 312.65213 383.86282Q313.68332 383.82672 314.22238 382.89304Q314.76144 381.95935 314.3021 381.09875Q313.8427 380.23816 312.31573 379.32047L310.27246 378.14078ZM320.21704 374.5725L319.49048 375.83093L311.14145 371.01062L310.6142 374.0801L309.47754 373.42386L310.1947 369.05673L310.3119 368.85376L320.21704 374.5725ZM320.77753 363.60168Q321.01105 364.25974 320.98273 364.96506Q320.95438 365.67038 320.57938 366.31992Q320.0872 367.1724 319.30054 367.5662Q318.51385 367.96 317.55295 367.87433Q316.59988 367.77512 315.67972 367.24387Q314.69193 366.67355 314.12582 365.84155Q313.5462 365.0017 313.52518 364.06943Q313.50412 363.13712 314.03537 362.21698Q314.87912 360.75555 316.45956 360.5494Q318.02646 360.33545 319.9209 361.4292L320.28625 361.64014Q323.15497 363.2964 323.82483 365.19867Q324.49466 367.10095 323.21494 369.41122L323.0743 369.6548L322.0053 369.0376L322.15375 368.78052Q323.02515 367.20874 322.7304 365.938Q322.42993 364.6459 320.77753 363.60168ZM319.66815 365.5232Q320.02753 364.90073 319.95334 364.15424Q319.8734 363.3864 319.4457 362.81473L318.94504 362.52567Q317.71368 361.81473 316.62985 361.91068Q315.55386 361.9931 315.0773 362.81854Q314.60074 363.64395 314.94766 364.5118Q315.28107 365.37186 316.323 365.97342Q317.32434 366.55154 318.26865 366.44724Q319.1994 366.33508 319.66815 365.5232ZM327.9133 363.21097L327.2883 364.2935L318.95975 354.00018L319.57693 352.93118L327.9133 363.21097ZM332.71704 352.92188L331.99048 354.1803L323.64145 349.36L323.1142 352.42947L321.97754 351.77322L322.6947 347.4061L322.8119 347.20312L332.71704 352.92188ZM334.1962 340.64114Q336.40186 341.91458 337.03336 343.28955Q337.67267 344.65097 336.7508 346.2477Q335.84454 347.81738 334.3651 347.97357Q332.87213 348.12198 330.78616 346.95374L329.10825 345.985Q326.94318 344.735 326.3174 343.38138Q325.69943 342.01422 326.6213 340.41748Q327.54318 338.82074 328.98776 338.66245Q330.44012 338.4906 332.57242 339.70364L334.1962 340.64114ZM331.77246 340.90167Q330.17572 339.9798 329.20074 340.0123Q328.21222 340.03696 327.64972 341.01123Q327.09503 341.972 327.56793 342.8404Q328.0351 343.68747 329.5293 344.5682L331.53198 345.72446Q333.12872 346.64633 334.15213 346.62375Q335.18332 346.58765 335.72238 345.65396Q336.26144 344.72028 335.8021 343.85965Q335.3427 342.99905 333.81573 342.08136L331.77246 340.90167Z" fill-rule="nonzero"/><path fill="#efefef" d="M385.61884 380.02576L381.89227 386.48035L380.98566 385.9569L379.16553 380.35944Q378.75055 379.10947 378.37335 378.51282Q377.99615 377.91614 377.42783 377.588Q376.6565 377.1427 375.89594 377.33505Q375.12964 377.50607 374.68433 378.27737Q374.14526 379.21106 374.36832 380.0435Q374.59915 380.86237 375.5464 381.40924L374.82764 382.65417Q373.47446 381.87292 373.1355 380.52252Q372.80435 379.15857 373.6559 377.68362Q374.44498 376.31693 375.6231 375.93265Q376.8012 375.54834 378.00552 376.24365Q379.4534 377.0796 380.39932 380.09747L381.73105 384.38458L384.59042 379.432L385.61884 380.02576ZM385.74643 370.086Q387.9521 371.35944 388.5836 372.7344Q389.2229 374.09583 388.30103 375.69257Q387.39478 377.26224 385.91534 377.41843Q384.42236 377.56683 382.3364 376.3986L380.65848 375.42984Q378.4934 374.17984 377.86765 372.82623Q377.24966 371.45908 378.17154 369.86234Q379.0934 368.2656 380.53796 368.1073Q381.99036 367.93546 384.12262 369.1485L385.74643 370.086ZM383.3227 370.34653Q381.72595 369.42465 380.75098 369.45715Q379.76245 369.4818 379.19995 370.4561Q378.64526 371.41684 379.11816 372.28525Q379.58533 373.13232 381.07953 374.01306L383.0822 375.1693Q384.67896 376.0912 385.70236 376.0686Q386.73355 376.0325 387.2726 375.09882Q387.81168 374.16513 387.35233 373.30453Q386.89294 372.4439 385.36597 371.5262L383.3227 370.34653ZM394.61884 364.4373L390.89227 370.89188L389.98566 370.36844L388.16553 364.77097Q387.75055 363.52103 387.37335 362.92435Q386.99615 362.3277 386.42783 361.99957Q385.6565 361.55426 384.89594 361.7466Q384.12964 361.91763 383.68433 362.68893Q383.14526 363.62262 383.36832 364.45502Q383.59915 365.27393 384.5464 365.8208L383.82764 367.0657Q382.47446 366.28445 382.1355 364.93405Q381.80435 363.57013 382.6559 362.09518Q383.44498 360.7285 384.6231 360.34418Q385.8012 359.95987 387.00552 360.65518Q388.4534 361.49112 389.39932 364.50903L390.73105 368.79614L393.59042 363.84354L394.61884 364.4373ZM394.74643 354.49756Q396.9521 355.771 397.5836 357.14594Q398.2229 358.50735 397.30103 360.1041Q396.39478 361.67377 394.91534 361.83Q393.42236 361.9784 391.3364 360.81012L389.65848 359.84137Q387.4934 358.59137 386.86765 357.23776Q386.24966 355.8706 387.17154 354.2739Q388.0934 352.67715 389.53796 352.51886Q390.99036 352.34702 393.12262 353.56006L394.74643 354.49756ZM392.3227 354.7581Q390.72595 353.8362 389.75098 353.86868Q388.76245 353.89334 388.19995 354.86765Q387.64526 355.82837 388.11816 356.6968Q388.58533 357.54388 390.07953 358.4246L392.0822 359.58084Q393.67896 360.50272 394.70236 360.48013Q395.73355 360.44403 396.2726 359.51035Q396.81168 358.57666 396.35233 357.71606Q395.89294 356.85547 394.36597 355.93777L392.3227 354.7581ZM400.9635 355.41675L400.3385 356.49927L392.00998 346.20596L392.62717 345.13696L400.9635 355.41675ZM405.76727 345.12762L405.0407 346.38608L396.69168 341.56577L396.16443 344.63525L395.02777 343.979L395.74493 339.61185L395.86212 339.40887L405.76727 345.12762Z" fill-rule="nonzero"/><path fill="#efefef" d="M453.42395 380.02576L449.6974 386.48035L448.79077 385.9569L446.97064 380.35944Q446.55566 379.10947 446.17847 378.51282Q445.80127 377.91614 445.2329 377.588Q444.4616 377.1427 443.70105 377.33505Q442.93475 377.50607 442.48944 378.27737Q441.95038 379.21106 442.17343 380.0435Q442.40427 380.86237 443.3515 381.40924L442.63275 382.65417Q441.27957 381.87292 440.9406 380.52252Q440.60947 379.15857 441.46103 377.68362Q442.2501 376.31693 443.42822 375.93262Q444.60632 375.54834 445.81064 376.24365Q447.2585 377.0796 448.20444 380.09747L449.53616 384.38458L452.39554 379.432L453.42395 380.02576ZM453.55154 370.086Q455.7572 371.35944 456.3887 372.7344Q457.028 374.09583 456.10614 375.69257Q455.1999 377.26224 453.72046 377.41843Q452.22748 377.56683 450.1415 376.3986L448.4636 375.42984Q446.29852 374.17984 445.67276 372.82623Q445.05478 371.45908 445.97665 369.86234Q446.89853 368.2656 448.34308 368.1073Q449.79547 367.93546 451.92773 369.1485L453.55154 370.086ZM451.1278 370.34653Q449.53107 369.42465 448.5561 369.45715Q447.56757 369.4818 447.00507 370.4561Q446.45038 371.41684 446.92328 372.28525Q447.39044 373.13232 448.88464 374.01306L450.88733 375.1693Q452.48407 376.0912 453.50748 376.0686Q454.53867 376.0325 455.07773 375.09882Q455.6168 374.16513 455.15744 373.3045Q454.69806 372.4439 453.17108 371.5262L451.1278 370.34653ZM462.42395 364.4373L458.6974 370.89188L457.79077 370.36844L455.97064 364.77097Q455.55566 363.52103 455.17847 362.92435Q454.80127 362.3277 454.2329 361.99957Q453.4616 361.55426 452.70105 361.7466Q451.93475 361.91763 451.48944 362.68893Q450.95038 363.62262 451.17343 364.45502Q451.40427 365.27393 452.3515 365.8208L451.63275 367.0657Q450.27957 366.28445 449.9406 364.93405Q449.60947 363.57013 450.46103 362.09518Q451.2501 360.7285 452.42822 360.34418Q453.60632 359.95987 454.81064 360.65518Q456.2585 361.49112 457.20444 364.50903L458.53616 368.7961L461.39554 363.84354L462.42395 364.4373ZM462.55154 354.49753Q464.7572 355.77097 465.3887 357.14594Q466.028 358.50735 465.10614 360.1041Q464.1999 361.67377 462.72046 361.83Q461.22748 361.9784 459.1415 360.81012L457.4636 359.84137Q455.29852 358.59137 454.67276 357.23776Q454.05478 355.8706 454.97665 354.2739Q455.89853 352.67715 457.34308 352.51886Q458.79547 352.34702 460.92773 353.56003L462.55154 354.49753ZM460.1278 354.7581Q458.53107 353.8362 457.5561 353.86868Q456.56757 353.89334 456.00507 354.86765Q455.45038 355.82837 455.92328 356.6968Q456.39044 357.54388 457.88464 358.4246L459.88733 359.58084Q461.48407 360.50272 462.50748 360.48013Q463.53867 360.44403 464.07773 359.51035Q464.6168 358.57666 464.15744 357.71606Q463.69806 356.85547 462.17108 355.93777L460.1278 354.7581ZM468.76862 355.41675L468.14362 356.49927L459.8151 346.20596L460.43228 345.13696L468.76862 355.41675ZM470.92902 342.04984L471.71808 340.68317L472.7465 341.27692L471.95743 342.6436L474.24426 343.9639L473.5177 345.22235L471.23087 343.90204L468.64493 348.381L467.90067 347.95132L463.6276 339.6025L464.39322 338.2764L470.92902 342.04984ZM468.43683 346.36646L470.20245 343.3083L465.37164 340.51923L465.55634 340.82434L468.43683 346.36646Z" fill-rule="nonzero"/><path fill="#efefef" d="M521.22906 380.02576L517.5025 386.48035L516.5959 385.9569L514.77576 380.35944Q514.3608 379.10947 513.9836 378.51282Q513.6064 377.91614 513.038 377.588Q512.2667 377.1427 511.50616 377.33505Q510.73987 377.50607 510.29456 378.27737Q509.7555 379.21106 509.97855 380.0435Q510.20938 380.86237 511.15662 381.40924L510.43787 382.65417Q509.0847 381.87292 508.74573 380.52252Q508.41458 379.15857 509.26614 377.68362Q510.0552 376.31693 511.23334 375.93262Q512.41144 375.54834 513.6158 376.24365Q515.06366 377.0796 516.0095 380.09747L517.3413 384.38458L520.2007 379.432L521.22906 380.02576ZM521.3566 370.086Q523.5623 371.35944 524.1938 372.7344Q524.8331 374.09583 523.91125 375.69257Q523.005 377.26224 521.5256 377.41843Q520.0326 377.56683 517.94666 376.3986L516.26874 375.42984Q514.10364 374.17984 513.47784 372.82623Q512.8599 371.45908 513.7818 369.86234Q514.7037 368.2656 516.1482 368.1073Q517.6006 367.93546 519.73285 369.1485L521.3566 370.086ZM518.9329 370.34653Q517.3362 369.42465 516.3612 369.45715Q515.3727 369.4818 514.8102 370.4561Q514.2555 371.41684 514.7284 372.28525Q515.19556 373.13232 516.68976 374.01306L518.69244 375.1693Q520.2892 376.0912 521.31256 376.0686Q522.3438 376.0325 522.8829 375.09882Q523.42194 374.16513 522.9625 373.3045Q522.5032 372.4439 520.9762 371.5262L518.9329 370.34653ZM530.22906 364.4373L526.5025 370.89188L525.5959 370.36844L523.77576 364.77097Q523.3608 363.52103 522.9836 362.92435Q522.6064 362.3277 522.038 361.99957Q521.2667 361.55426 520.50616 361.7466Q519.73987 361.91763 519.29456 362.68893Q518.7555 363.62262 518.9785 364.45502Q519.2094 365.27393 520.1566 365.8208L519.43787 367.0657Q518.0847 366.28445 517.7457 364.93405Q517.4146 363.57013 518.2662 362.09518Q519.05524 360.7285 520.23334 360.34418Q521.41144 359.95987 522.6158 360.65518Q524.06366 361.49112 525.0095 364.509L526.3413 368.7961L529.2007 363.84354L530.22906 364.4373ZM530.3566 354.49753Q532.5623 355.77097 533.1938 357.14594Q533.8331 358.50735 532.91125 360.1041Q532.005 361.67377 530.5256 361.83Q529.0326 361.9784 526.94666 360.81012L525.26874 359.84137Q523.10364 358.59137 522.47784 357.23776Q521.8599 355.8706 522.7818 354.2739Q523.7037 352.67715 525.1482 352.51886Q526.6006 352.34702 528.73285 353.56003L530.3566 354.49753ZM527.9329 354.7581Q526.3362 353.8362 525.3612 353.86868Q524.3727 353.89334 523.8102 354.86765Q523.2555 355.82837 523.7284 356.6968Q524.19556 357.54388 525.68976 358.4246L527.69244 359.58084Q529.2892 360.50272 530.31256 360.48013Q531.3438 360.44403 531.8829 359.51035Q532.42194 358.57666 531.9625 357.71606Q531.5032 356.85547 529.9762 355.93777L527.9329 354.7581ZM536.5737 355.41675L535.9487 356.49927L527.62024 346.20596L528.2374 345.13696L536.5737 355.41675ZM533.527 337.60013L540.315 346.96793L539.5572 348.28052L533.0861 339.11374L530.008 344.4452L528.9796 343.85144L532.82336 337.19388L533.527 337.60013Z" fill-rule="nonzero"/><path fill="#efefef" d="M585.2793 387.81998L581.55273 394.27457L580.6461 393.75113L578.826 388.15366Q578.411 386.9037 578.0338 386.30704Q577.6566 385.71036 577.08826 385.38223Q576.31696 384.93692 575.5564 385.12927Q574.7901 385.3003 574.3448 386.0716Q573.8057 387.00528 574.02875 387.8377Q574.25964 388.6566 575.20685 389.20346L574.4881 390.4484Q573.13495 389.66714 572.79596 388.31674Q572.4648 386.9528 573.31635 385.47784Q574.1054 384.11115 575.28357 383.72687Q576.4617 383.34256 577.66595 384.03787Q579.1139 384.8738 580.05975 387.8917L581.39154 392.1788L584.2509 387.22623L585.2793 387.81998ZM585.40686 377.88022Q587.61255 379.15366 588.244 380.52863Q588.88336 381.89005 587.9615 383.4868Q587.05524 385.05646 585.5758 385.21268Q584.0828 385.36105 581.9969 384.1928L580.3189 383.22406Q578.1539 381.97406 577.5281 380.62045Q576.9101 379.2533 577.832 377.65656Q578.75385 376.0598 580.1984 375.90152Q581.6508 375.7297 583.7831 376.94272L585.40686 377.88022ZM582.98315 378.14075Q581.3864 377.21887 580.41144 377.25137Q579.4229 377.27603 578.8604 378.2503Q578.3057 379.21106 578.7786 380.07947Q579.2458 380.92654 580.74 381.80728L582.7427 382.96353Q584.3394 383.8854 585.3628 383.86282Q586.39404 383.82672 586.9331 382.89304Q587.47217 381.95935 587.01276 381.09875Q586.5534 380.23813 585.0264 379.32043L582.98315 378.14075ZM594.2793 372.2315L590.55273 378.68613L589.6461 378.1627L587.826 372.5652Q587.411 371.31525 587.0338 370.71857Q586.6566 370.12192 586.08826 369.7938Q585.31696 369.34848 584.5564 369.54083Q583.7901 369.71185 583.3448 370.48315Q582.8057 371.41684 583.02875 372.24927Q583.25964 373.06815 584.20685 373.61502L583.4881 374.85992Q582.13495 374.07867 581.79596 372.72827Q581.4648 371.36435 582.31635 369.8894Q583.1054 368.5227 584.28357 368.1384Q585.4617 367.7541 586.66595 368.4494Q588.1139 369.28534 589.05975 372.30325L590.39154 376.59036L593.2509 371.63776L594.2793 372.2315ZM594.40686 362.29178Q596.61255 363.56522 597.244 364.94016Q597.88336 366.30157 596.9615 367.89832Q596.05524 369.468 594.5758 369.6242Q593.0828 369.7726 590.9969 368.60434L589.3189 367.6356Q587.1539 366.3856 586.5281 365.03198Q585.9101 363.66483 586.832 362.0681Q587.75385 360.47137 589.1984 360.31308Q590.6508 360.14124 592.7831 361.35428L594.40686 362.29178ZM591.98315 362.5523Q590.3864 361.63043 589.41144 361.6629Q588.4229 361.6876 587.8604 362.66187Q587.3057 363.6226 587.7786 364.49103Q588.2458 365.3381 589.74 366.2188L591.7427 367.37506Q593.3394 368.29694 594.3628 368.27435Q595.39404 368.23825 595.9331 367.30457Q596.47217 366.37088 596.01276 365.51028Q595.5534 364.6497 594.0264 363.732L591.98315 362.5523ZM600.62396 363.21097L599.99896 364.2935L591.6704 354.00018L592.2876 352.93118L600.62396 363.21097ZM605.42773 352.92184L604.7012 354.1803L596.3521 349.36L595.8249 352.42947L594.68823 351.77322L595.4054 347.40607L595.5226 347.2031L605.42773 352.92184ZM606.90686 340.64114Q609.11255 341.91458 609.744 343.28952Q610.38336 344.65094 609.4615 346.24768Q608.55524 347.81735 607.0758 347.97357Q605.5828 348.12198 603.4969 346.9537L601.8189 345.98495Q599.6539 344.73495 599.0281 343.38135Q598.4101 342.0142 599.332 340.41748Q600.25385 338.82074 601.6984 338.66245Q603.1508 338.4906 605.2831 339.70364L606.90686 340.64114ZM604.48315 340.90167Q602.8864 339.9798 601.91144 340.01227Q600.9229 340.03696 600.3604 341.01123Q599.8057 341.97195 600.2786 342.8404Q600.7458 343.68747 602.24 344.56818L604.2427 345.72443Q605.8394 346.6463 606.8628 346.62372Q607.89404 346.58762 608.4331 345.65393Q608.97217 344.72025 608.51276 343.85965Q608.0534 342.99905 606.5264 342.08136L604.48315 340.90167Z" fill-rule="nonzero"/><path fill="#efefef" d="M163.57812 41.415627Q162.71875 42.65 161.15625 43.275Q159.60938 43.884377 157.54688 43.884377Q155.45312 43.884377 153.82812 42.915627Q152.21875 41.93125 151.32812 40.134377Q150.45312 38.321877 150.4375 35.93125L150.4375 34.446877Q150.4375 30.587502 152.23438 28.478127Q154.03125 26.353127 157.28125 26.353127Q159.95312 26.353127 161.57812 27.728127Q163.21875 29.087502 163.57812 31.587502L161.32812 31.587502Q160.70312 28.196877 157.29688 28.196877Q155.03125 28.196877 153.85938 29.790627Q152.70312 31.384377 152.6875 34.384377L152.6875 35.790627Q152.6875 38.65 154.0 40.353127Q155.3125 42.040627 157.5625 42.040627Q158.82812 42.040627 159.76562 41.759377Q160.71875 41.478127 161.34375 40.80625L161.34375 36.978127L157.39062 36.978127L157.39062 35.15L163.57812 35.15L163.57812 41.415627ZM174.46875 43.65Q174.28125 43.275 174.17188 42.30625Q172.65625 43.884377 170.5625 43.884377Q168.6875 43.884377 167.48438 42.821877Q166.28125 41.759377 166.28125 40.134377Q166.28125 38.15 167.78125 37.05625Q169.29688 35.9625 172.01562 35.9625L174.125 35.9625L174.125 34.9625Q174.125 33.821877 173.4375 33.15Q172.76562 32.478127 171.45312 32.478127Q170.28125 32.478127 169.5 33.071877Q168.71875 33.65 168.71875 34.478127L166.53125 34.478127Q166.53125 33.540627 167.20312 32.65Q167.89062 31.759377 169.03125 31.243752Q170.1875 30.728127 171.57812 30.728127Q173.76562 30.728127 175.0 31.837502Q176.25 32.93125 176.29688 34.853127L176.29688 40.68125Q176.29688 42.43125 176.75 43.4625L176.75 43.65L174.46875 43.65ZM170.875 41.99375Q171.89062 41.99375 172.79688 41.478127Q173.71875 40.946877 174.125 40.103127L174.125 37.49375L172.4375 37.49375Q168.45312 37.49375 168.45312 39.821877Q168.45312 40.853127 169.125 41.43125Q169.8125 41.99375 170.875 41.99375ZM182.0 43.65L179.82812 43.65L179.82812 25.650002L182.0 25.650002L182.0 43.65ZM193.46875 43.65Q193.28125 43.275 193.17188 42.30625Q191.65625 43.884377 189.5625 43.884377Q187.6875 43.884377 186.48438 42.821877Q185.28125 41.759377 185.28125 40.134377Q185.28125 38.15 186.78125 37.05625Q188.29688 35.9625 191.01562 35.9625L193.125 35.9625L193.125 34.9625Q193.125 33.821877 192.4375 33.15Q191.76562 32.478127 190.45312 32.478127Q189.28125 32.478127 188.5 33.071877Q187.71875 33.65 187.71875 34.478127L185.53125 34.478127Q185.53125 33.540627 186.20312 32.65Q186.89062 31.759377 188.03125 31.243752Q189.1875 30.728127 190.57812 30.728127Q192.76562 30.728127 194.0 31.837502Q195.25 32.93125 195.29688 34.853127L195.29688 40.68125Q195.29688 42.43125 195.75 43.4625L195.75 43.65L193.46875 43.65ZM189.875 41.99375Q190.89062 41.99375 191.79688 41.478127Q192.71875 40.946877 193.125 40.103127L193.125 37.49375L191.4375 37.49375Q187.45312 37.49375 187.45312 39.821877Q187.45312 40.853127 188.125 41.43125Q188.8125 41.99375 189.875 41.99375ZM202.89062 35.603127L205.70312 30.962502L208.23438 30.962502L204.09375 37.24375L208.375 43.65L205.85938 43.65L202.9375 38.9L200.0 43.65L197.48438 43.65L201.76562 37.24375L197.60938 30.962502L200.125 30.962502L202.89062 35.603127ZM214.79688 40.478127L217.75 30.962502L220.0625 30.962502L214.96875 45.603127Q213.78125 48.775 211.20312 48.775L210.79688 48.74375L209.98438 48.5875L209.98438 46.821877L210.57812 46.86875Q211.67188 46.86875 212.28125 46.415627Q212.90625 45.978127 213.29688 44.80625L213.78125 43.509377L209.26562 30.962502L211.625 30.962502L214.79688 40.478127ZM241.09375 43.65L238.82812 43.65L238.82812 35.759377L230.23438 35.759377L230.23438 43.65L227.98438 43.65L227.98438 26.587502L230.23438 26.587502L230.23438 33.915627L238.82812 33.915627L238.82812 26.587502L241.09375 26.587502L241.09375 43.65ZM249.90625 43.884377Q247.32812 43.884377 245.70312 42.196877Q244.09375 40.49375 244.09375 37.665627L244.09375 37.259377Q244.09375 35.36875 244.8125 33.9Q245.53125 32.415627 246.82812 31.571877Q248.125 30.728127 249.64062 30.728127Q252.10938 30.728127 253.46875 32.36875Q254.84375 33.99375 254.84375 37.025L254.84375 37.93125L246.26562 37.93125Q246.3125 39.80625 247.35938 40.9625Q248.40625 42.11875 250.01562 42.11875Q251.17188 42.11875 251.96875 41.65Q252.76562 41.18125 253.35938 40.4L254.6875 41.43125Q253.09375 43.884377 249.90625 43.884377ZM249.64062 32.509377Q248.32812 32.509377 247.4375 33.478127Q246.54688 34.43125 246.32812 36.15L252.6875 36.15L252.6875 35.978127Q252.59375 34.3375 251.79688 33.43125Q251.0 32.509377 249.64062 32.509377ZM260.0 43.65L257.82812 43.65L257.82812 25.650002L260.0 25.650002L260.0 43.65ZM274.35938 37.446877Q274.35938 40.3375 273.03125 42.11875Q271.70312 43.884377 269.4375 43.884377Q267.14062 43.884377 265.8125 42.415627L265.8125 48.525L263.64062 48.525L263.64062 30.962502L265.625 30.962502L265.73438 32.36875Q267.04688 30.728127 269.40625 30.728127Q271.6875 30.728127 273.01562 32.4625Q274.35938 34.18125 274.35938 37.24375L274.35938 37.446877ZM272.1875 37.196877Q272.1875 35.05625 271.26562 33.821877Q270.35938 32.571877 268.76562 32.571877Q266.79688 32.571877 265.8125 34.321877L265.8125 40.384377Q266.78125 42.11875 268.78125 42.11875Q270.34375 42.11875 271.26562 40.884377Q272.1875 39.634377 272.1875 37.196877ZM276.6875 42.509377Q276.6875 41.946877 277.01562 41.571877Q277.35938 41.196877 278.01562 41.196877Q278.6875 41.196877 279.03125 41.571877Q279.39062 41.946877 279.39062 42.509377Q279.39062 43.05625 279.03125 43.415627Q278.6875 43.775 278.01562 43.775Q277.35938 43.775 277.01562 43.415627Q276.6875 43.05625 276.6875 42.509377ZM276.6875 32.509377Q276.6875 31.946877 277.01562 31.571877Q277.35938 31.196877 278.01562 31.196877Q278.6875 31.196877 279.03125 31.571877Q279.39062 31.946877 279.39062 32.509377Q279.39062 33.05625 279.03125 33.415627Q278.6875 33.775 278.01562 33.775Q277.35938 33.775 277.01562 33.415627Q276.6875 33.05625 276.6875 32.509377ZM291.23438 36.9625L291.23438 43.65L288.98438 43.65L288.98438 26.587502L295.28125 26.587502Q298.07812 26.587502 299.65625 28.025002Q301.25 29.446877 301.25 31.806252Q301.25 34.290627 299.6875 35.634377Q298.14062 36.9625 295.25 36.9625L291.23438 36.9625ZM291.23438 35.134377L295.28125 35.134377Q297.07812 35.134377 298.03125 34.290627Q299.0 33.43125 299.0 31.821877Q299.0 30.306252 298.03125 29.400002Q297.07812 28.478127 295.40625 28.431252L291.23438 28.431252L291.23438 35.134377ZM311.46875 43.65Q311.28125 43.275 311.17188 42.30625Q309.65625 43.884377 307.5625 43.884377Q305.6875 43.884377 304.48438 42.821877Q303.28125 41.759377 303.28125 40.134377Q303.28125 38.15 304.78125 37.05625Q306.29688 35.9625 309.01562 35.9625L311.125 35.9625L311.125 34.9625Q311.125 33.821877 310.4375 33.15Q309.76562 32.478127 308.45312 32.478127Q307.28125 32.478127 306.5 33.071877Q305.71875 33.65 305.71875 34.478127L303.53125 34.478127Q303.53125 33.540627 304.20312 32.65Q304.89062 31.759377 306.03125 31.243752Q307.1875 30.728127 308.57812 30.728127Q310.76562 30.728127 312.0 31.837502Q313.25 32.93125 313.29688 34.853127L313.29688 40.68125Q313.29688 42.43125 313.75 43.4625L313.75 43.65L311.46875 43.65ZM307.875 41.99375Q308.89062 41.99375 309.79688 41.478127Q310.71875 40.946877 311.125 40.103127L311.125 37.49375L309.4375 37.49375Q305.45312 37.49375 305.45312 39.821877Q305.45312 40.853127 306.125 41.43125Q306.8125 41.99375 307.875 41.99375ZM316.125 37.196877Q316.125 34.24375 317.5 32.49375Q318.875 30.728127 321.125 30.728127Q323.45312 30.728127 324.75 32.36875L324.85938 30.962502L326.84375 30.962502L326.84375 43.3375Q326.84375 45.80625 325.375 47.228127Q323.92188 48.65 321.45312 48.65Q320.09375 48.65 318.78125 48.05625Q317.46875 47.478127 316.76562 46.446877L317.89062 45.15Q319.29688 46.86875 321.3125 46.86875Q322.89062 46.86875 323.76562 45.978127Q324.65625 45.0875 324.65625 43.478127L324.65625 42.384377Q323.35938 43.884377 321.10938 43.884377Q318.875 43.884377 317.5 42.0875Q316.125 40.290627 316.125 37.196877ZM318.3125 37.446877Q318.3125 39.5875 319.1875 40.821877Q320.0625 42.040627 321.64062 42.040627Q323.70312 42.040627 324.65625 40.18125L324.65625 34.384377Q323.65625 32.571877 321.67188 32.571877Q320.09375 32.571877 319.20312 33.80625Q318.3125 35.040627 318.3125 37.446877ZM334.90625 43.884377Q332.32812 43.884377 330.70312 42.196877Q329.09375 40.49375 329.09375 37.665627L329.09375 37.259377Q329.09375 35.36875 329.8125 33.9Q330.53125 32.415627 331.82812 31.571877Q333.125 30.728127 334.64062 30.728127Q337.10938 30.728127 338.46875 32.36875Q339.84375 33.99375 339.84375 37.025L339.84375 37.93125L331.26562 37.93125Q331.3125 39.80625 332.35938 40.9625Q333.40625 42.11875 335.01562 42.11875Q336.17188 42.11875 336.96875 41.65Q337.76562 41.18125 338.35938 40.4L339.6875 41.43125Q338.09375 43.884377 334.90625 43.884377ZM334.64062 32.509377Q333.32812 32.509377 332.4375 33.478127Q331.54688 34.43125 331.32812 36.15L337.6875 36.15L337.6875 35.978127Q337.59375 34.3375 336.79688 33.43125Q336.0 32.509377 334.64062 32.509377ZM354.625 40.665627L359.5 26.587502L361.96875 26.587502L355.64062 43.65L353.64062 43.65L347.32812 26.587502L349.78125 26.587502L354.625 40.665627ZM366.0 43.65L363.82812 43.65L363.82812 30.962502L366.0 30.962502L366.0 43.65ZM363.65625 27.603127Q363.65625 27.071877 363.96875 26.712502Q364.29688 26.353127 364.92188 26.353127Q365.5625 26.353127 365.89062 26.712502Q366.21875 27.071877 366.21875 27.603127Q366.21875 28.134377 365.89062 28.493752Q365.5625 28.837502 364.92188 28.837502Q364.29688 28.837502 363.96875 28.493752Q363.65625 28.134377 363.65625 27.603127ZM374.90625 43.884377Q372.32812 43.884377 370.70312 42.196877Q369.09375 40.49375 369.09375 37.665627L369.09375 37.259377Q369.09375 35.36875 369.8125 33.9Q370.53125 32.415627 371.82812 31.571877Q373.125 30.728127 374.64062 30.728127Q377.10938 30.728127 378.46875 32.36875Q379.84375 33.99375 379.84375 37.025L379.84375 37.93125L371.26562 37.93125Q371.3125 39.80625 372.35938 40.9625Q373.40625 42.11875 375.01562 42.11875Q376.17188 42.11875 376.96875 41.65Q377.76562 41.18125 378.35938 40.4L379.6875 41.43125Q378.09375 43.884377 374.90625 43.884377ZM374.64062 32.509377Q373.32812 32.509377 372.4375 33.478127Q371.54688 34.43125 371.32812 36.15L377.6875 36.15L377.6875 35.978127Q377.59375 34.3375 376.79688 33.43125Q376.0 32.509377 374.64062 32.509377ZM393.875 40.665627L396.3125 30.962502L398.46875 30.962502L394.78125 43.65L393.03125 43.65L389.9375 34.040627L386.9375 43.65L385.1875 43.65L381.5 30.962502L383.65625 30.962502L386.15625 40.4625L389.10938 30.962502L390.85938 30.962502L393.875 40.665627ZM408.03125 40.290627Q408.03125 39.4 407.35938 38.915627Q406.70312 38.43125 405.04688 38.0875Q403.40625 37.728127 402.4375 37.24375Q401.46875 36.74375 401.0 36.071877Q400.54688 35.384377 400.54688 34.446877Q400.54688 32.884377 401.85938 31.806252Q403.1875 30.728127 405.23438 30.728127Q407.39062 30.728127 408.73438 31.853127Q410.07812 32.9625 410.07812 34.696877L407.89062 34.696877Q407.89062 33.80625 407.14062 33.165627Q406.39062 32.509377 405.23438 32.509377Q404.04688 32.509377 403.375 33.025Q402.71875 33.540627 402.71875 34.384377Q402.71875 35.165627 403.32812 35.571877Q403.95312 35.9625 405.57812 36.321877Q407.20312 36.68125 408.20312 37.196877Q409.21875 37.696877 409.70312 38.415627Q410.1875 39.11875 410.1875 40.134377Q410.1875 41.8375 408.82812 42.86875Q407.46875 43.884377 405.3125 43.884377Q403.78125 43.884377 402.60938 43.353127Q401.4375 42.80625 400.76562 41.8375Q400.10938 40.86875 400.10938 39.74375L402.28125 39.74375Q402.34375 40.8375 403.15625 41.478127Q403.96875 42.11875 405.3125 42.11875Q406.53125 42.11875 407.28125 41.61875Q408.03125 41.11875 408.03125 40.290627ZM429.35938 37.446877Q429.35938 40.3375 428.03125 42.11875Q426.70312 43.884377 424.4375 43.884377Q422.14062 43.884377 420.8125 42.415627L420.8125 48.525L418.64062 48.525L418.64062 30.962502L420.625 30.962502L420.73438 32.36875Q422.04688 30.728127 424.40625 30.728127Q426.6875 30.728127 428.01562 32.4625Q429.35938 34.18125 429.35938 37.24375L429.35938 37.446877ZM427.1875 37.196877Q427.1875 35.05625 426.26562 33.821877Q425.35938 32.571877 423.76562 32.571877Q421.79688 32.571877 420.8125 34.321877L420.8125 40.384377Q421.78125 42.11875 423.78125 42.11875Q425.34375 42.11875 426.26562 40.884377Q427.1875 39.634377 427.1875 37.196877ZM436.90625 43.884377Q434.32812 43.884377 432.70312 42.196877Q431.09375 40.49375 431.09375 37.665627L431.09375 37.259377Q431.09375 35.36875 431.8125 33.9Q432.53125 32.415627 433.82812 31.571877Q435.125 30.728127 436.64062 30.728127Q439.10938 30.728127 440.46875 32.36875Q441.84375 33.99375 441.84375 37.025L441.84375 37.93125L433.26562 37.93125Q433.3125 39.80625 434.35938 40.9625Q435.40625 42.11875 437.01562 42.11875Q438.17188 42.11875 438.96875 41.65Q439.76562 41.18125 440.35938 40.4L441.6875 41.43125Q440.09375 43.884377 436.90625 43.884377ZM436.64062 32.509377Q435.32812 32.509377 434.4375 33.478127Q433.54688 34.43125 433.32812 36.15L439.6875 36.15L439.6875 35.978127Q439.59375 34.3375 438.79688 33.43125Q438.0 32.509377 436.64062 32.509377ZM450.76562 32.915627Q450.28125 32.8375 449.70312 32.8375Q447.57812 32.8375 446.8125 34.65L446.8125 43.65L444.64062 43.65L444.64062 30.962502L446.75 30.962502L446.78125 32.43125Q447.85938 30.728127 449.8125 30.728127Q450.4375 30.728127 450.76562 30.900002L450.76562 32.915627ZM461.89062 26.587502L467.46875 40.509377L473.04688 26.587502L475.96875 26.587502L475.96875 43.65L473.71875 43.65L473.71875 37.009377L473.92188 29.837502L468.32812 43.65L466.59375 43.65L461.01562 29.868752L461.23438 37.009377L461.23438 43.65L458.98438 43.65L458.98438 26.587502L461.89062 26.587502ZM479.0625 37.196877Q479.0625 35.321877 479.79688 33.8375Q480.53125 32.353127 481.82812 31.540627Q483.14062 30.728127 484.82812 30.728127Q487.40625 30.728127 489.0 32.525Q490.60938 34.321877 490.60938 37.290627L490.60938 37.446877Q490.60938 39.30625 489.89062 40.775Q489.1875 42.24375 487.875 43.071877Q486.5625 43.884377 484.84375 43.884377Q482.26562 43.884377 480.65625 42.0875Q479.0625 40.290627 479.0625 37.3375L479.0625 37.196877ZM481.25 37.446877Q481.25 39.55625 482.21875 40.8375Q483.20312 42.11875 484.84375 42.11875Q486.5 42.11875 487.46875 40.821877Q488.4375 39.525 488.4375 37.196877Q488.4375 35.103127 487.45312 33.80625Q486.46875 32.509377 484.82812 32.509377Q483.21875 32.509377 482.23438 33.790627Q481.25 35.071877 481.25 37.446877ZM495.6875 30.962502L495.76562 32.55625Q497.21875 30.728127 499.5625 30.728127Q503.57812 30.728127 503.60938 35.275L503.60938 43.65L501.45312 43.65L501.45312 35.259377Q501.4375 33.884377 500.8125 33.228127Q500.20312 32.571877 498.90625 32.571877Q497.84375 32.571877 497.04688 33.134377Q496.25 33.696877 495.8125 34.61875L495.8125 43.65L493.64062 43.65L493.64062 30.962502L495.6875 30.962502ZM509.57812 27.900002L509.57812 30.962502L511.95312 30.962502L511.95312 32.65L509.57812 32.65L509.57812 40.509377Q509.57812 41.275 509.89062 41.65Q510.21875 42.025 510.98438 42.025Q511.35938 42.025 512.0156 41.884377L512.0156 43.65Q511.15625 43.884377 510.34375 43.884377Q508.89062 43.884377 508.15625 43.009377Q507.42188 42.11875 507.42188 40.509377L507.42188 32.65L505.10938 32.65L505.10938 30.962502L507.42188 30.962502L507.42188 27.900002L509.57812 27.900002ZM516.8125 32.509377Q518.25 30.728127 520.5625 30.728127Q524.5781 30.728127 524.6094 35.275L524.6094 43.65L522.4531 43.65L522.4531 35.259377Q522.4375 33.884377 521.8125 33.228127Q521.2031 32.571877 519.90625 32.571877Q518.84375 32.571877 518.0469 33.134377Q517.25 33.696877 516.8125 34.61875L516.8125 43.65L514.6406 43.65L514.6406 25.650002L516.8125 25.650002L516.8125 32.509377Z" fill-rule="nonzero"/></svg>