<svg version="1.1" viewBox="0.0 0.0 819.0 510.0" fill="none" stroke="none" stroke-linecap="square" stroke-miterlimit="10" width="819" height="510" xmlns:xlink="http://www.w3.org/1999/xlink" xmlns="http://www.w3.org/2000/svg"><path fill="#000000" d="M0 0L819.0 0L819.0 510.0L0 510.0L0 0Z" fill-rule="nonzero"/><path stroke="#333333" stroke-width="1.0" stroke-linecap="butt" d="M169.5 116.5L169.5 407.5" fill-rule="nonzero"/><path stroke="#333333" stroke-width="1.0" stroke-linecap="butt" d="M290.5 116.5L290.5 407.5" fill-rule="nonzero"/><path stroke="#333333" stroke-width="1.0" stroke-linecap="butt" d="M412.5 116.5L412.5 407.5" fill-rule="nonzero"/><path stroke="#333333" stroke-width="1.0" stroke-linecap="butt" d="M533.5 116.5L533.5 407.5" fill-rule="nonzero"/><path stroke="#333333" stroke-width="1.0" stroke-linecap="butt" d="M656.5 116.5L656.5 407.5" fill-rule="nonzero"/><path stroke="#333333" stroke-width="1.0" stroke-linecap="butt" d="M777.5 116.5L777.5 407.5" fill-rule="nonzero"/><path stroke="#cccccc" stroke-width="1.0" stroke-linecap="butt" d="M64.5 407.5L793.5 407.5" fill-rule="nonzero"/><path stroke="#333333" stroke-width="1.0" stroke-linecap="butt" d="M64.5 349.5L793.5 349.5" fill-rule="nonzero"/><path stroke="#333333" stroke-width="1.0" stroke-linecap="butt" d="M64.5 290.5L793.5 290.5" fill-rule="nonzero"/><path stroke="#333333" stroke-width="1.0" stroke-linecap="butt" d="M64.5 232.5L793.5 232.5" fill-rule="nonzero"/><path stroke="#333333" stroke-width="1.0" stroke-linecap="butt" d="M64.5 174.5L793.5 174.5" fill-rule="nonzero"/><path stroke="#333333" stroke-width="1.0" stroke-linecap="butt" d="M64.5 116.5L793.5 116.5" fill-rule="nonzero"/><clipPath id="id_0"><path d="M64.5 116.0L793.5 116.0L793.5 407.43207L64.5 407.43207L64.5 116.0Z" clip-rule="nonzero"/></clipPath><path stroke="#4285f4" stroke-width="4.0" stroke-linecap="butt" clip-path="url(#id_0)" d="M176.0246 389.59644C176.0246 389.59644 520.2134 249.20503 558.65405 234.08827C597.0948 218.97151 636.42426 205.24245 673.9762 190.2569C711.5281 175.27133 786.6319 143.16147 786.6319 143.16147" fill-rule="nonzero"/><path stroke="#db4437" stroke-width="4.0" stroke-linecap="butt" clip-path="url(#id_0)" d="M71.3681 343.89987C71.3681 343.89987 141.1391 337.2964 176.0246 332.82547C210.9101 328.35452 520.2134 281.04553 558.65405 275.2385C597.0948 269.43143 636.42426 263.80524 673.9762 257.75256C711.5281 251.69987 786.6319 238.51804 786.6319 238.51804" fill-rule="nonzero"/><path fill="#4285f4" clip-path="url(#id_0)" d="M180.5246 389.59644C180.5246 392.0817 178.50987 394.09644 176.0246 394.09644C173.5393 394.09644 171.5246 392.0817 171.5246 389.59644C171.5246 387.11115 173.5393 385.09644 176.0246 385.09644C178.50987 385.09644 180.5246 387.11115 180.5246 389.59644Z" fill-rule="nonzero"/><path fill="#4285f4" clip-path="url(#id_0)" d="M563.15405 234.08827C563.15405 236.57356 561.13934 238.58827 558.65405 238.58827C556.16876 238.58827 554.15405 236.57356 554.15405 234.08827C554.15405 231.603 556.16876 229.58827 558.65405 229.58827C561.13934 229.58827 563.15405 231.603 563.15405 234.08827Z" fill-rule="nonzero"/><path fill="#4285f4" clip-path="url(#id_0)" d="M678.4762 190.2569C678.4762 192.74217 676.4615 194.7569 673.9762 194.7569C671.4909 194.7569 669.4762 192.74217 669.4762 190.2569C669.4762 187.7716 671.4909 185.7569 673.9762 185.7569C676.4615 185.7569 678.4762 187.7716 678.4762 190.2569Z" fill-rule="nonzero"/><path fill="#4285f4" clip-path="url(#id_0)" d="M791.1319 143.16147C791.1319 145.64674 789.1172 147.66147 786.6319 147.66147C784.1466 147.66147 782.1319 145.64674 782.1319 143.16147C782.1319 140.6762 784.1466 138.66147 786.6319 138.66147C789.1172 138.66147 791.1319 140.6762 791.1319 143.16147Z" fill-rule="nonzero"/><path fill="#db4437" clip-path="url(#id_0)" d="M75.8681 343.89987C75.8681 346.38516 73.853386 348.39987 71.3681 348.39987C68.88282 348.39987 66.8681 346.38516 66.8681 343.89987C66.8681 341.4146 68.88282 339.39987 71.3681 339.39987C73.853386 339.39987 75.8681 341.4146 75.8681 343.89987Z" fill-rule="nonzero"/><path fill="#db4437" clip-path="url(#id_0)" d="M180.5246 332.82547C180.5246 335.31073 178.50987 337.32547 176.0246 337.32547C173.5393 337.32547 171.5246 335.31073 171.5246 332.82547C171.5246 330.34018 173.5393 328.32547 176.0246 328.32547C178.50987 328.32547 180.5246 330.34018 180.5246 332.82547Z" fill-rule="nonzero"/><path fill="#db4437" clip-path="url(#id_0)" d="M563.15405 275.2385C563.15405 277.72375 561.13934 279.7385 558.65405 279.7385C556.16876 279.7385 554.15405 277.72375 554.15405 275.2385C554.15405 272.7532 556.16876 270.7385 558.65405 270.7385C561.13934 270.7385 563.15405 272.7532 563.15405 275.2385Z" fill-rule="nonzero"/><path fill="#db4437" clip-path="url(#id_0)" d="M678.4762 257.75256C678.4762 260.23785 676.4615 262.25256 673.9762 262.25256C671.4909 262.25256 669.4762 260.23785 669.4762 257.75256C669.4762 255.26727 671.4909 253.25256 673.9762 253.25256C676.4615 253.25256 678.4762 255.26727 678.4762 257.75256Z" fill-rule="nonzero"/><path fill="#db4437" clip-path="url(#id_0)" d="M791.1319 238.51804C791.1319 241.00333 789.1172 243.01804 786.6319 243.01804C784.1466 243.01804 782.1319 241.00333 782.1319 238.51804C782.1319 236.03276 784.1466 234.01804 786.6319 234.01804C789.1172 234.01804 791.1319 236.03276 791.1319 238.51804Z" fill-rule="nonzero"/><path fill="#efefef" d="M56.5625 407.68207Q56.5625 409.90082 55.796875 410.99457Q55.046875 412.0727 53.4375 412.0727Q51.84375 412.0727 51.078125 411.02582Q50.3125 409.96332 50.28125 407.85394L50.28125 406.16644Q50.28125 403.97894 51.03125 402.91644Q51.796875 401.83832 53.421875 401.83832Q55.03125 401.83832 55.78125 402.86957Q56.546875 403.90082 56.5625 406.04144L56.5625 407.68207ZM55.296875 405.96332Q55.296875 404.35394 54.84375 403.61957Q54.40625 402.8852 53.421875 402.8852Q52.453125 402.8852 52.0 403.61957Q51.5625 404.33832 51.546875 405.85394L51.546875 407.8852Q51.546875 409.49457 52.015625 410.27582Q52.484375 411.04144 53.4375 411.04144Q54.375 411.04144 54.828125 410.3227Q55.28125 409.58832 55.296875 408.02582L55.296875 405.96332Z" fill-rule="nonzero"/><path fill="#efefef" d="M34.90625 348.6613L35.421875 343.69254L40.515625 343.69254L40.515625 344.8644L36.484375 344.8644L36.1875 347.56754Q36.921875 347.14566 37.84375 347.14566Q39.203125 347.14566 40.0 348.0519Q40.8125 348.94254 40.8125 350.4738Q40.8125 352.00504 39.96875 352.89566Q39.140625 353.7863 37.65625 353.7863Q36.34375 353.7863 35.5 353.0519Q34.671875 352.31754 34.546875 351.02066L35.75 351.02066Q35.859375 351.88004 36.34375 352.31754Q36.84375 352.75504 37.65625 352.75504Q38.53125 352.75504 39.03125 352.1613Q39.546875 351.5519 39.546875 350.4894Q39.546875 349.4894 39.0 348.89566Q38.453125 348.2863 37.546875 348.2863Q36.734375 348.2863 36.25 348.64566L35.921875 348.9113L34.90625 348.6613ZM48.5625 349.39566Q48.5625 351.6144 47.796875 352.70816Q47.046875 353.7863 45.4375 353.7863Q43.84375 353.7863 43.078125 352.7394Q42.3125 351.6769 42.28125 349.56754L42.28125 347.88004Q42.28125 345.69254 43.03125 344.63004Q43.796875 343.5519 45.421875 343.5519Q47.03125 343.5519 47.78125 344.58316Q48.546875 345.6144 48.5625 347.75504L48.5625 349.39566ZM47.296875 347.6769Q47.296875 346.06754 46.84375 345.33316Q46.40625 344.5988 45.421875 344.5988Q44.453125 344.5988 44.0 345.33316Q43.5625 346.0519 43.546875 347.56754L43.546875 349.5988Q43.546875 351.20816 44.015625 351.9894Q44.484375 352.75504 45.4375 352.75504Q46.375 352.75504 46.828125 352.0363Q47.28125 351.3019 47.296875 349.7394L47.296875 347.6769ZM56.5625 349.39566Q56.5625 351.6144 55.796875 352.70816Q55.046875 353.7863 53.4375 353.7863Q51.84375 353.7863 51.078125 352.7394Q50.3125 351.6769 50.28125 349.56754L50.28125 347.88004Q50.28125 345.69254 51.03125 344.63004Q51.796875 343.5519 53.421875 343.5519Q55.03125 343.5519 55.78125 344.58316Q56.546875 345.6144 56.5625 347.75504L56.5625 349.39566ZM55.296875 347.6769Q55.296875 346.06754 54.84375 345.33316Q54.40625 344.5988 53.421875 344.5988Q52.453125 344.5988 52.0 345.33316Q51.5625 346.0519 51.546875 347.56754L51.546875 349.5988Q51.546875 351.20816 52.015625 351.9894Q52.484375 352.75504 53.4375 352.75504Q54.375 352.75504 54.828125 352.0363Q55.28125 351.3019 55.296875 349.7394L55.296875 347.6769Z" fill-rule="nonzero"/><path fill="#efefef" d="M30.484375 295.35925L29.21875 295.35925L29.21875 286.93738L26.65625 287.85925L26.65625 286.71863L30.28125 285.35925L30.484375 285.35925L30.484375 295.35925ZM40.5625 291.10925Q40.5625 293.328 39.796875 294.42175Q39.046875 295.49988 37.4375 295.49988Q35.84375 295.49988 35.078125 294.453Q34.3125 293.3905 34.28125 291.28113L34.28125 289.59363Q34.28125 287.40613 35.03125 286.34363Q35.796875 285.2655 37.421875 285.2655Q39.03125 285.2655 39.78125 286.29675Q40.546875 287.328 40.5625 289.46863L40.5625 291.10925ZM39.296875 289.3905Q39.296875 287.78113 38.84375 287.04675Q38.40625 286.31238 37.421875 286.31238Q36.453125 286.31238 36.0 287.04675Q35.5625 287.7655 35.546875 289.28113L35.546875 291.31238Q35.546875 292.92175 36.015625 293.703Q36.484375 294.46863 37.4375 294.46863Q38.375 294.46863 38.828125 293.74988Q39.28125 293.0155 39.296875 291.453L39.296875 289.3905ZM48.5625 291.10925Q48.5625 293.328 47.796875 294.42175Q47.046875 295.49988 45.4375 295.49988Q43.84375 295.49988 43.078125 294.453Q42.3125 293.3905 42.28125 291.28113L42.28125 289.59363Q42.28125 287.40613 43.03125 286.34363Q43.796875 285.2655 45.421875 285.2655Q47.03125 285.2655 47.78125 286.29675Q48.546875 287.328 48.5625 289.46863L48.5625 291.10925ZM47.296875 289.3905Q47.296875 287.78113 46.84375 287.04675Q46.40625 286.31238 45.421875 286.31238Q44.453125 286.31238 44.0 287.04675Q43.5625 287.7655 43.546875 289.28113L43.546875 291.31238Q43.546875 292.92175 44.015625 293.703Q44.484375 294.46863 45.4375 294.46863Q46.375 294.46863 46.828125 293.74988Q47.28125 293.0155 47.296875 291.453L47.296875 289.3905ZM56.5625 291.10925Q56.5625 293.328 55.796875 294.42175Q55.046875 295.49988 53.4375 295.49988Q51.84375 295.49988 51.078125 294.453Q50.3125 293.3905 50.28125 291.28113L50.28125 289.59363Q50.28125 287.40613 51.03125 286.34363Q51.796875 285.2655 53.421875 285.2655Q55.03125 285.2655 55.78125 286.29675Q56.546875 287.328 56.5625 289.46863L56.5625 291.10925ZM55.296875 289.3905Q55.296875 287.78113 54.84375 287.04675Q54.40625 286.31238 53.421875 286.31238Q52.453125 286.31238 52.0 287.04675Q51.5625 287.7655 51.546875 289.28113L51.546875 291.31238Q51.546875 292.92175 52.015625 293.703Q52.484375 294.46863 53.4375 294.46863Q54.375 294.46863 54.828125 293.74988Q55.28125 293.0155 55.296875 291.453L55.296875 289.3905Z" fill-rule="nonzero"/><path fill="#efefef" d="M30.484375 237.07283L29.21875 237.07283L29.21875 228.65096L26.65625 229.57283L26.65625 228.4322L30.28125 227.07283L30.484375 227.07283L30.484375 237.07283ZM34.90625 232.08846L35.421875 227.1197L40.515625 227.1197L40.515625 228.29158L36.484375 228.29158L36.1875 230.9947Q36.921875 230.57283 37.84375 230.57283Q39.203125 230.57283 40.0 231.47908Q40.8125 232.3697 40.8125 233.90096Q40.8125 235.4322 39.96875 236.32283Q39.140625 237.21346 37.65625 237.21346Q36.34375 237.21346 35.5 236.47908Q34.671875 235.7447 34.546875 234.44783L35.75 234.44783Q35.859375 235.3072 36.34375 235.7447Q36.84375 236.1822 37.65625 236.1822Q38.53125 236.1822 39.03125 235.58846Q39.546875 234.97908 39.546875 233.91658Q39.546875 232.91658 39.0 232.32283Q38.453125 231.71346 37.546875 231.71346Q36.734375 231.71346 36.25 232.07283L35.921875 232.33846L34.90625 232.08846ZM48.5625 232.82283Q48.5625 235.04158 47.796875 236.13533Q47.046875 237.21346 45.4375 237.21346Q43.84375 237.21346 43.078125 236.16658Q42.3125 235.10408 42.28125 232.9947L42.28125 231.3072Q42.28125 229.1197 43.03125 228.0572Q43.796875 226.97908 45.421875 226.97908Q47.03125 226.97908 47.78125 228.01033Q48.546875 229.04158 48.5625 231.1822L48.5625 232.82283ZM47.296875 231.10408Q47.296875 229.4947 46.84375 228.76033Q46.40625 228.02596 45.421875 228.02596Q44.453125 228.02596 44.0 228.76033Q43.5625 229.47908 43.546875 230.9947L43.546875 233.02596Q43.546875 234.63533 44.015625 235.41658Q44.484375 236.1822 45.4375 236.1822Q46.375 236.1822 46.828125 235.46346Q47.28125 234.72908 47.296875 233.16658L47.296875 231.10408ZM56.5625 232.82283Q56.5625 235.04158 55.796875 236.13533Q55.046875 237.21346 53.4375 237.21346Q51.84375 237.21346 51.078125 236.16658Q50.3125 235.10408 50.28125 232.9947L50.28125 231.3072Q50.28125 229.1197 51.03125 228.0572Q51.796875 226.97908 53.421875 226.97908Q55.03125 226.97908 55.78125 228.01033Q56.546875 229.04158 56.5625 231.1822L56.5625 232.82283ZM55.296875 231.10408Q55.296875 229.4947 54.84375 228.76033Q54.40625 228.02596 53.421875 228.02596Q52.453125 228.02596 52.0 228.76033Q51.5625 229.47908 51.546875 230.9947L51.546875 233.02596Q51.546875 234.63533 52.015625 235.41658Q52.484375 236.1822 53.4375 236.1822Q54.375 236.1822 54.828125 235.46346Q55.28125 234.72908 55.296875 233.16658L55.296875 231.10408Z" fill-rule="nonzero"/><path fill="#efefef" d="M32.84375 178.7864L26.328125 178.7864L26.328125 177.88016L29.765625 174.05203Q30.53125 173.17703 30.828125 172.64578Q31.125 172.0989 31.125 171.50516Q31.125 170.73953 30.640625 170.23953Q30.171875 169.73953 29.390625 169.73953Q28.453125 169.73953 27.921875 170.27078Q27.40625 170.80203 27.40625 171.77078L26.140625 171.77078Q26.140625 170.39578 27.015625 169.55203Q27.90625 168.69266 29.390625 168.69266Q30.78125 168.69266 31.578125 169.42703Q32.390625 170.14578 32.390625 171.36453Q32.390625 172.83328 30.515625 174.86453L27.859375 177.75516L32.84375 177.75516L32.84375 178.7864ZM40.5625 174.5364Q40.5625 176.75516 39.796875 177.8489Q39.046875 178.92703 37.4375 178.92703Q35.84375 178.92703 35.078125 177.88016Q34.3125 176.81766 34.28125 174.70828L34.28125 173.02078Q34.28125 170.83328 35.03125 169.77078Q35.796875 168.69266 37.421875 168.69266Q39.03125 168.69266 39.78125 169.7239Q40.546875 170.75516 40.5625 172.89578L40.5625 174.5364ZM39.296875 172.81766Q39.296875 171.20828 38.84375 170.4739Q38.40625 169.73953 37.421875 169.73953Q36.453125 169.73953 36.0 170.4739Q35.5625 171.19266 35.546875 172.70828L35.546875 174.73953Q35.546875 176.3489 36.015625 177.13016Q36.484375 177.89578 37.4375 177.89578Q38.375 177.89578 38.828125 177.17703Q39.28125 176.44266 39.296875 174.88016L39.296875 172.81766ZM48.5625 174.5364Q48.5625 176.75516 47.796875 177.8489Q47.046875 178.92703 45.4375 178.92703Q43.84375 178.92703 43.078125 177.88016Q42.3125 176.81766 42.28125 174.70828L42.28125 173.02078Q42.28125 170.83328 43.03125 169.77078Q43.796875 168.69266 45.421875 168.69266Q47.03125 168.69266 47.78125 169.7239Q48.546875 170.75516 48.5625 172.89578L48.5625 174.5364ZM47.296875 172.81766Q47.296875 171.20828 46.84375 170.4739Q46.40625 169.73953 45.421875 169.73953Q44.453125 169.73953 44.0 170.4739Q43.5625 171.19266 43.546875 172.70828L43.546875 174.73953Q43.546875 176.3489 44.015625 177.13016Q44.484375 177.89578 45.4375 177.89578Q46.375 177.89578 46.828125 177.17703Q47.28125 176.44266 47.296875 174.88016L47.296875 172.81766ZM56.5625 174.5364Q56.5625 176.75516 55.796875 177.8489Q55.046875 178.92703 53.4375 178.92703Q51.84375 178.92703 51.078125 177.88016Q50.3125 176.81766 50.28125 174.70828L50.28125 173.02078Q50.28125 170.83328 51.03125 169.77078Q51.796875 168.69266 53.421875 168.69266Q55.03125 168.69266 55.78125 169.7239Q56.546875 170.75516 56.5625 172.89578L56.5625 174.5364ZM55.296875 172.81766Q55.296875 171.20828 54.84375 170.4739Q54.40625 169.73953 53.421875 169.73953Q52.453125 169.73953 52.0 170.4739Q51.5625 171.19266 51.546875 172.70828L51.546875 174.73953Q51.546875 176.3489 52.015625 177.13016Q52.484375 177.89578 53.4375 177.89578Q54.375 177.89578 54.828125 177.17703Q55.28125 176.44266 55.296875 174.88016L55.296875 172.81766Z" fill-rule="nonzero"/><path fill="#efefef" d="M32.84375 120.5L26.328125 120.5L26.328125 119.59375L29.765625 115.765625Q30.53125 114.890625 30.828125 114.359375Q31.125 113.8125 31.125 113.21875Q31.125 112.453125 30.640625 111.953125Q30.171875 111.453125 29.390625 111.453125Q28.453125 111.453125 27.921875 111.984375Q27.40625 112.515625 27.40625 113.484375L26.140625 113.484375Q26.140625 112.109375 27.015625 111.265625Q27.90625 110.40625 29.390625 110.40625Q30.78125 110.40625 31.578125 111.140625Q32.390625 111.859375 32.390625 113.078125Q32.390625 114.546875 30.515625 116.578125L27.859375 119.46875L32.84375 119.46875L32.84375 120.5ZM34.90625 115.515625L35.421875 110.546875L40.515625 110.546875L40.515625 111.71875L36.484375 111.71875L36.1875 114.421875Q36.921875 114.0 37.84375 114.0Q39.203125 114.0 40.0 114.90625Q40.8125 115.796875 40.8125 117.328125Q40.8125 118.859375 39.96875 119.75Q39.140625 120.640625 37.65625 120.640625Q36.34375 120.640625 35.5 119.90625Q34.671875 119.171875 34.546875 117.875L35.75 117.875Q35.859375 118.734375 36.34375 119.171875Q36.84375 119.609375 37.65625 119.609375Q38.53125 119.609375 39.03125 119.015625Q39.546875 118.40625 39.546875 117.34375Q39.546875 116.34375 39.0 115.75Q38.453125 115.140625 37.546875 115.140625Q36.734375 115.140625 36.25 115.5L35.921875 115.765625L34.90625 115.515625ZM48.5625 116.25Q48.5625 118.46875 47.796875 119.5625Q47.046875 120.640625 45.4375 120.640625Q43.84375 120.640625 43.078125 119.59375Q42.3125 118.53125 42.28125 116.421875L42.28125 114.734375Q42.28125 112.546875 43.03125 111.484375Q43.796875 110.40625 45.421875 110.40625Q47.03125 110.40625 47.78125 111.4375Q48.546875 112.46875 48.5625 114.609375L48.5625 116.25ZM47.296875 114.53125Q47.296875 112.921875 46.84375 112.1875Q46.40625 111.453125 45.421875 111.453125Q44.453125 111.453125 44.0 112.1875Q43.5625 112.90625 43.546875 114.421875L43.546875 116.453125Q43.546875 118.0625 44.015625 118.84375Q44.484375 119.609375 45.4375 119.609375Q46.375 119.609375 46.828125 118.890625Q47.28125 118.15625 47.296875 116.59375L47.296875 114.53125ZM56.5625 116.25Q56.5625 118.46875 55.796875 119.5625Q55.046875 120.640625 53.4375 120.640625Q51.84375 120.640625 51.078125 119.59375Q50.3125 118.53125 50.28125 116.421875L50.28125 114.734375Q50.28125 112.546875 51.03125 111.484375Q51.796875 110.40625 53.421875 110.40625Q55.03125 110.40625 55.78125 111.4375Q56.546875 112.46875 56.5625 114.609375L56.5625 116.25ZM55.296875 114.53125Q55.296875 112.921875 54.84375 112.1875Q54.40625 111.453125 53.421875 111.453125Q52.453125 111.453125 52.0 112.1875Q51.5625 112.90625 51.546875 114.421875L51.546875 116.453125Q51.546875 118.0625 52.015625 118.84375Q52.484375 119.609375 53.4375 119.609375Q54.375 119.609375 54.828125 118.890625Q55.28125 118.15625 55.296875 116.59375L55.296875 114.53125Z" fill-rule="nonzero"/><path fill="#efefef" d="M143.17757 480.39014L139.91975 486.03284L139.13492 485.5797L137.5384 480.6887Q137.16345 479.58813 136.8518 479.0654Q136.52664 478.53485 136.01244 478.23798Q135.34938 477.85516 134.6742 478.02466Q134.0068 478.1806 133.61618 478.85718Q133.14743 479.6691 133.34187 480.39478Q133.54414 481.10696 134.3831 481.59134L133.75029 482.6874Q132.55951 481.9999 132.2663 480.82025Q131.96736 479.61926 132.70955 478.33374Q133.40486 477.12943 134.43929 476.80652Q135.468 476.46225 136.52347 477.07162Q137.79544 477.806 138.61705 480.4454L139.79228 484.1911L142.28447 479.8745L143.17757 480.39014ZM143.35632 471.5805Q145.27782 472.68988 145.84222 473.8998Q146.40091 475.08838 145.59622 476.48215Q144.79935 477.86237 143.50992 478.00198Q142.20695 478.1338 140.36455 477.10617L138.90314 476.26242Q137.0087 475.16867 136.46355 473.98788Q135.91267 472.78577 136.72517 471.37848Q137.52986 469.9847 138.79796 469.85083Q140.07385 469.7034 141.9355 470.7602L143.35632 471.5805ZM141.23503 471.8172Q139.84128 471.0125 138.97873 471.03772Q138.124 471.04944 137.6318 471.90192Q137.14743 472.74088 137.55685 473.5005Q137.96056 474.23874 139.26532 475.0101L141.02443 476.02573Q142.41818 476.8304 143.32915 476.8151Q144.22656 476.79193 144.70312 475.96652Q145.17188 475.1546 144.77599 474.40283Q144.36656 473.64322 143.02121 472.84845L141.23503 471.8172ZM149.99788 468.577L149.36507 469.67307L142.0715 465.46213L141.58862 468.14224L140.60081 467.57193L141.23605 463.7529L141.33762 463.577L149.99788 468.577ZM150.55276 458.8659Q150.7634 459.43857 150.73924 460.07416Q150.70938 460.6884 150.38126 461.2567Q149.95157 462.00095 149.2659 462.34482Q148.58023 462.68866 147.74532 462.60355Q146.89685 462.51062 146.09848 462.04968Q145.23247 461.54968 144.72984 460.8265Q144.2137 460.0955 144.1999 459.27563Q144.18611 458.45575 144.64705 457.65738Q145.38924 456.3719 146.77187 456.19586Q148.1623 456.00632 149.81316 456.95944L150.12439 457.13913Q152.64127 458.59225 153.22687 460.26547Q153.80675 461.91733 152.66975 463.9492L152.54475 464.16568L151.6246 463.63443L151.76523 463.39087Q152.51941 462.02206 152.25688 460.91428Q151.98865 459.78513 150.55276 458.8659ZM149.5762 460.55737Q149.89651 460.00256 149.82385 459.34717Q149.75899 458.67825 149.38332 458.1727L148.9503 457.9227Q147.86778 457.2977 146.93129 457.3885Q145.98126 457.47147 145.57501 458.1751Q145.15314 458.90582 145.45013 459.67267Q145.7414 460.41818 146.64801 460.94162Q147.5411 461.45724 148.35162 461.3659Q149.16995 461.26102 149.5762 460.55737ZM156.85149 458.42496L156.31242 459.3586L149.02666 450.35297L149.56572 449.41928L156.85149 458.42496ZM158.35632 445.59973Q160.27782 446.7091 160.84222 447.91904Q161.40091 449.1076 160.59622 450.50137Q159.79935 451.8816 158.50992 452.0212Q157.20695 452.153 155.36455 451.1254L153.90314 450.28165Q152.0087 449.1879 151.46355 448.0071Q150.91267 446.80502 151.72517 445.39774Q152.52986 444.00397 153.79796 443.87006Q155.07385 443.72266 156.9355 444.77942L158.35632 445.59973ZM156.23503 445.83643Q154.84128 445.03174 153.97873 445.05698Q153.124 445.06866 152.6318 445.92117Q152.14743 446.76013 152.55685 447.5197Q152.96056 448.258 154.26532 449.02933L156.02443 450.04495Q157.41818 450.84964 158.32915 450.83432Q159.22656 450.8112 159.70312 449.98575Q160.17188 449.17386 159.77599 448.42206Q159.36656 447.66245 158.02121 446.86768L156.23503 445.83643ZM164.99788 442.59625L164.36507 443.6923L157.0715 439.48135L156.58862 442.1615L155.60081 441.5912L156.23605 437.77216L156.33762 437.59625L164.99788 442.59625ZM167.85149 439.37238L167.31242 440.30606L160.02666 431.30038L160.56572 430.36673L167.85149 439.37238ZM169.35632 426.54718Q171.27782 427.65656 171.84222 428.8665Q172.40091 430.05505 171.59622 431.44882Q170.79935 432.82904 169.50992 432.96866Q168.20695 433.10046 166.36455 432.07285L164.90314 431.2291Q163.0087 430.13535 162.46355 428.95456Q161.91267 427.75244 162.72517 426.34515Q163.52986 424.95142 164.79796 424.8175Q166.07385 424.67007 167.9355 425.72687L169.35632 426.54718ZM167.23503 426.78387Q165.84128 425.9792 164.97873 426.0044Q164.124 426.0161 163.6318 426.8686Q163.14743 427.70755 163.55685 428.46716Q163.96056 429.2054 165.26532 429.97678L167.02443 430.9924Q168.41818 431.7971 169.32915 431.78177Q170.22656 431.75864 170.70312 430.9332Q171.17188 430.1213 170.77599 429.3695Q170.36656 428.6099 169.02121 427.81512L167.23503 426.78387ZM175.99788 423.54367L175.36507 424.63974L168.0715 420.4288L167.58862 423.10895L166.60081 422.53864L167.23605 418.7196L167.33762 418.54367L175.99788 423.54367Z" fill-rule="nonzero"/><path fill="#efefef" d="M263.83252 480.3901L260.5747 486.0328L259.78986 485.57968L258.19336 480.68866Q257.8184 479.5881 257.50674 479.0654Q257.18158 478.53485 256.6674 478.23798Q256.00433 477.85516 255.32913 478.02463Q254.66174 478.1806 254.27112 478.85718Q253.80237 479.66907 253.99683 480.39478Q254.19908 481.10693 255.03804 481.5913L254.40523 482.68738Q253.21445 481.99988 252.92123 480.82022Q252.62231 479.61923 253.3645 478.33374Q254.05981 477.12943 255.09424 476.8065Q256.12296 476.46222 257.1784 477.0716Q258.45038 477.80597 259.272 480.4454L260.44724 484.1911L262.93942 479.87448L263.83252 480.3901ZM264.01126 471.58047Q265.93277 472.68985 266.49716 473.89978Q267.05585 475.08838 266.25116 476.48212Q265.45428 477.86237 264.16486 478.00195Q262.8619 478.13376 261.0195 477.10614L259.55807 476.2624Q257.66364 475.16864 257.1185 473.98788Q256.56763 472.78577 257.38013 471.37848Q258.1848 469.9847 259.4529 469.85083Q260.7288 469.7034 262.59045 470.76016L264.01126 471.58047ZM261.88998 471.81717Q260.49622 471.01248 259.63367 471.03772Q258.77893 471.0494 258.28674 471.90192Q257.80237 472.74088 258.2118 473.5005Q258.6155 474.23874 259.92026 475.01007L261.67938 476.0257Q263.07312 476.83038 263.9841 476.81506Q264.8815 476.79193 265.35806 475.9665Q265.8268 475.1546 265.43094 474.4028Q265.0215 473.6432 263.67615 472.84842L261.88998 471.81717ZM270.65283 468.577L270.02002 469.67307L262.72644 465.46213L262.24356 468.14224L261.25577 467.57193L261.891 463.7529L261.99255 463.577L270.65283 468.577ZM271.2077 458.8659Q271.41833 459.43857 271.3942 460.07413Q271.36432 460.68835 271.0362 461.25668Q270.6065 462.00095 269.92084 462.3448Q269.23517 462.68866 268.40027 462.60355Q267.5518 462.51062 266.75342 462.04968Q265.8874 461.54968 265.3848 460.82648Q264.86865 460.09546 264.85486 459.2756Q264.84106 458.45575 265.302 457.65738Q266.0442 456.3719 267.42682 456.19586Q268.81723 456.0063 270.4681 456.9594L270.77933 457.1391Q273.2962 458.59222 273.8818 460.26544Q274.4617 461.91733 273.3247 463.94916L273.1997 464.16568L272.27954 463.63443L272.42017 463.39084Q273.17435 462.02206 272.91183 460.91425Q272.6436 459.78513 271.2077 458.8659ZM270.23114 460.55734Q270.55145 460.00256 270.4788 459.34717Q270.41394 458.67825 270.03827 458.17267L269.60526 457.92267Q268.52274 457.29767 267.58624 457.38846Q266.6362 457.47147 266.22995 458.1751Q265.80807 458.9058 266.10507 459.67267Q266.39633 460.41818 267.30295 460.94162Q268.19604 461.45724 269.00656 461.36588Q269.8249 461.261 270.23114 460.55734ZM277.50644 458.42493L276.96738 459.3586L269.6816 450.35294L270.22067 449.41925L277.50644 458.42493ZM279.01126 445.59973Q280.93277 446.7091 281.49716 447.919Q282.05585 449.1076 281.25116 450.50137Q280.45428 451.8816 279.16486 452.0212Q277.8619 452.153 276.0195 451.12537L274.55807 450.28162Q272.66364 449.18787 272.1185 448.0071Q271.56763 446.805 272.38013 445.3977Q273.1848 444.00394 274.4529 443.87006Q275.7288 443.72263 277.59045 444.77942L279.01126 445.59973ZM276.88998 445.8364Q275.49622 445.0317 274.63367 445.05695Q273.77893 445.06866 273.28674 445.92114Q272.80237 446.7601 273.2118 447.5197Q273.6155 448.25797 274.92026 449.02933L276.67938 450.04495Q278.07312 450.84964 278.9841 450.83432Q279.8815 450.81116 280.35806 449.98575Q280.8268 449.17383 280.43094 448.42206Q280.0215 447.66245 278.67615 446.86765L276.88998 445.8364ZM278.7749 436.00912L284.72314 444.20648L284.0669 445.34314L278.38718 437.3369L275.69968 441.99182L274.8066 441.4762L278.166 435.65756L278.7749 436.00912ZM288.50644 439.37238L287.96738 440.30606L280.6816 431.30038L281.22067 430.3667L288.50644 439.37238ZM290.01126 426.54715Q291.93277 427.65652 292.49716 428.86646Q293.05585 430.05505 292.25116 431.4488Q291.45428 432.82904 290.16486 432.96866Q288.8619 433.10043 287.0195 432.0728L285.55807 431.22906Q283.66364 430.1353 283.1185 428.95456Q282.56763 427.75244 283.38013 426.34515Q284.1848 424.9514 285.4529 424.8175Q286.7288 424.67007 288.59045 425.72684L290.01126 426.54715ZM287.88998 426.78384Q286.49622 425.97916 285.63367 426.0044Q284.77893 426.01608 284.28674 426.8686Q283.80237 427.70755 284.2118 428.46716Q284.6155 429.2054 285.92026 429.97675L287.67938 430.99237Q289.07312 431.79706 289.9841 431.78174Q290.8815 431.7586 291.35806 430.93317Q291.8268 430.12128 291.43094 429.36948Q291.0215 428.6099 289.67615 427.8151L287.88998 426.78384ZM296.65283 423.54367L296.02002 424.63974L288.72644 420.4288L288.24356 423.10892L287.25577 422.5386L287.891 418.71957L287.99255 418.54367L296.65283 423.54367Z" fill-rule="nonzero"/><path fill="#efefef" d="M386.48724 480.39014L383.22943 486.03284L382.44458 485.5797L380.84808 480.6887Q380.4731 479.58813 380.1615 479.0654Q379.8363 478.53485 379.3221 478.23798Q378.65906 477.85516 377.98386 478.02466Q377.31647 478.1806 376.92584 478.85718Q376.4571 479.6691 376.65155 480.39478Q376.85382 481.10696 377.69278 481.59134L377.05997 482.6874Q375.86917 481.9999 375.57596 480.82025Q375.27704 479.61926 376.01923 478.33374Q376.71454 477.12943 377.74896 476.80652Q378.77768 476.46225 379.83313 477.07162Q381.10513 477.806 381.92673 480.4454L383.10196 484.1911L385.59415 479.8745L386.48724 480.39014ZM386.66602 471.5805Q388.5875 472.68988 389.15192 473.8998Q389.71057 475.08838 388.90588 476.48215Q388.109 477.86237 386.81958 478.00198Q385.51663 478.1338 383.67422 477.10617L382.2128 476.26242Q380.3184 475.16867 379.77322 473.98788Q379.22235 472.78577 380.03485 471.37848Q380.83954 469.9847 382.10764 469.85083Q383.38354 469.7034 385.24518 470.7602L386.66602 471.5805ZM384.5447 471.8172Q383.15094 471.0125 382.2884 471.03772Q381.43365 471.04944 380.94147 471.90192Q380.4571 472.74088 380.86652 473.5005Q381.27023 474.23874 382.57498 475.0101L384.3341 476.02573Q385.72787 476.8304 386.63882 476.8151Q387.53625 476.79193 388.01282 475.96652Q388.48157 475.1546 388.08566 474.40283Q387.67624 473.64322 386.3309 472.84845L384.5447 471.8172ZM394.48724 466.53372L391.22943 472.17642L390.44458 471.7233L388.84808 466.83228Q388.4731 465.73172 388.1615 465.20898Q387.8363 464.67847 387.3221 464.3816Q386.65906 463.99878 385.98386 464.16824Q385.31647 464.3242 384.92584 465.0008Q384.4571 465.81268 384.65155 466.5384Q384.85382 467.25055 385.69278 467.73492L385.05997 468.831Q383.86917 468.1435 383.57596 466.96384Q383.27704 465.76285 384.01923 464.47736Q384.71454 463.27304 385.74896 462.9501Q386.77768 462.60583 387.83313 463.2152Q389.10513 463.9496 389.92673 466.589L391.10196 470.3347L393.59415 466.0181L394.48724 466.53372ZM394.66602 457.7241Q396.5875 458.83347 397.15192 460.0434Q397.71057 461.23196 396.90588 462.62573Q396.109 464.00595 394.81958 464.14557Q393.51663 464.27737 391.67422 463.24976L390.2128 462.406Q388.3184 461.31226 387.77322 460.13147Q387.22235 458.92938 388.03485 457.52206Q388.83954 456.12833 390.10764 455.99442Q391.38354 455.847 393.24518 456.90378L394.66602 457.7241ZM392.5447 457.9608Q391.15094 457.1561 390.2884 457.18134Q389.43365 457.19302 388.94147 458.0455Q388.4571 458.8845 388.86652 459.64407Q389.27023 460.38235 390.57498 461.1537L392.3341 462.1693Q393.72787 462.974 394.63882 462.95868Q395.53625 462.93555 396.01282 462.1101Q396.48157 461.29822 396.08566 460.54642Q395.67624 459.7868 394.3309 458.99203L392.5447 457.9608ZM400.16116 458.42496L399.6221 459.35864L392.33633 450.35297L392.8754 449.41928L400.16116 458.42496ZM401.66602 445.59973Q403.5875 446.7091 404.15192 447.91904Q404.71057 449.1076 403.90588 450.50137Q403.109 451.8816 401.81958 452.0212Q400.51663 452.153 398.67422 451.1254L397.2128 450.28165Q395.3184 449.1879 394.77322 448.00714Q394.22235 446.80502 395.03485 445.39774Q395.83954 444.00397 397.10764 443.87006Q398.38354 443.72266 400.24518 444.77942L401.66602 445.59973ZM399.5447 445.83643Q398.15094 445.03174 397.2884 445.05698Q396.43365 445.06866 395.94147 445.92117Q395.4571 446.76013 395.86652 447.5197Q396.27023 448.258 397.57498 449.02933L399.3341 450.04495Q400.72787 450.84964 401.63882 450.83432Q402.53625 450.8112 403.01282 449.98575Q403.48157 449.17386 403.08566 448.42206Q402.67624 447.66245 401.3309 446.86768L399.5447 445.83643ZM408.30756 442.59625L407.67474 443.6923L400.3812 439.48135L399.8983 442.1615L398.9105 441.5912L399.54575 437.77216L399.6473 437.59625L408.30756 442.59625ZM411.16116 439.37238L410.6221 440.30606L403.33633 431.3004L403.8754 430.36673L411.16116 439.37238ZM412.66602 426.54718Q414.5875 427.65656 415.15192 428.8665Q415.71057 430.05505 414.90588 431.44882Q414.109 432.82904 412.81958 432.96866Q411.51663 433.10046 409.67422 432.07285L408.2128 431.2291Q406.3184 430.13535 405.77322 428.95456Q405.22235 427.75244 406.03485 426.34515Q406.83954 424.95142 408.10764 424.8175Q409.38354 424.67007 411.24518 425.72687L412.66602 426.54718ZM410.5447 426.78387Q409.15094 425.9792 408.2884 426.0044Q407.43365 426.0161 406.94147 426.8686Q406.4571 427.70755 406.86652 428.46716Q407.27023 429.20544 408.57498 429.97678L410.3341 430.9924Q411.72787 431.7971 412.63882 431.78177Q413.53625 431.75864 414.01282 430.9332Q414.48157 430.1213 414.08566 429.3695Q413.67624 428.6099 412.3309 427.81512L410.5447 426.78387ZM419.30756 423.54367L418.67474 424.63974L411.3812 420.4288L410.8983 423.10895L409.9105 422.53864L410.54575 418.7196L410.6473 418.54367L419.30756 423.54367Z" fill-rule="nonzero"/><path fill="#efefef" d="M507.80878 480.39014L504.55096 486.03284L503.7661 485.5797L502.16962 480.6887Q501.79468 479.58813 501.48303 479.0654Q501.15787 478.53488 500.64365 478.238Q499.9806 477.8552 499.3054 478.02466Q498.638 478.1806 498.24738 478.8572Q497.77863 479.6691 497.97308 480.3948Q498.17535 481.10696 499.0143 481.59134L498.3815 482.6874Q497.1907 481.9999 496.89752 480.82025Q496.59857 479.61926 497.34076 478.33377Q498.03607 477.12943 499.0705 476.80652Q500.0992 476.46225 501.1547 477.07162Q502.42667 477.806 503.24826 480.4454L504.4235 484.1911L506.91568 479.8745L507.80878 480.39014ZM507.98755 471.5805Q509.90903 472.68988 510.47345 473.8998Q511.03214 475.08838 510.22745 476.48215Q509.43057 477.86237 508.1411 478.00198Q506.83817 478.1338 504.99576 477.10617L503.53433 476.26242Q501.63992 475.16867 501.09476 473.98788Q500.54388 472.78577 501.35638 471.37848Q502.16107 469.98474 503.42917 469.85083Q504.70508 469.7034 506.5667 470.7602L507.98755 471.5805ZM505.86624 471.8172Q504.47247 471.0125 503.60992 471.03772Q502.7552 471.04944 502.263 471.90192Q501.77863 472.74088 502.18805 473.5005Q502.59177 474.23877 503.8965 475.0101L505.65564 476.02573Q507.0494 476.8304 507.96036 476.8151Q508.8578 476.79196 509.33435 475.96652Q509.8031 475.15463 509.4072 474.40283Q508.99777 473.64322 507.65244 472.84845L505.86624 471.8172ZM515.8088 466.53372L512.55096 472.17642L511.7661 471.7233L510.16962 466.83228Q509.79468 465.73172 509.48303 465.209Q509.15787 464.67847 508.64365 464.3816Q507.9806 463.99878 507.3054 464.16824Q506.638 464.32422 506.24738 465.0008Q505.77863 465.81268 505.97308 466.5384Q506.17535 467.25055 507.0143 467.73492L506.3815 468.831Q505.1907 468.1435 504.89752 466.96384Q504.59857 465.76285 505.34076 464.47736Q506.03607 463.27304 507.0705 462.9501Q508.0992 462.60583 509.1547 463.2152Q510.42667 463.9496 511.24826 466.58902L512.4235 470.3347L514.9157 466.0181L515.8088 466.53372ZM515.98755 457.7241Q517.90906 458.83347 518.47345 460.0434Q519.0321 461.23196 518.2274 462.62573Q517.43054 464.00598 516.1411 464.14557Q514.83813 464.27737 512.9958 463.24976L511.53433 462.406Q509.63992 461.31226 509.09476 460.1315Q508.54388 458.92938 509.35638 457.5221Q510.16107 456.12833 511.42917 455.99442Q512.7051 455.84702 514.5667 456.90378L515.98755 457.7241ZM513.8663 457.9608Q512.4725 457.1561 511.60992 457.18134Q510.7552 457.19302 510.263 458.04553Q509.77863 458.8845 510.18805 459.64407Q510.59177 460.38235 511.8965 461.1537L513.65564 462.1693Q515.0494 462.974 515.9603 462.95868Q516.8578 462.93555 517.33435 462.1101Q517.8031 461.29822 517.4072 460.54642Q516.9978 459.7868 515.6524 458.99203L513.8663 457.9608ZM521.4827 458.42496L520.94366 459.35864L513.65784 450.35297L514.1969 449.41928L521.4827 458.42496ZM522.98755 445.59973Q524.90906 446.7091 525.47345 447.91904Q526.0321 449.10764 525.2274 450.50137Q524.43054 451.88162 523.1411 452.0212Q521.83813 452.153 519.9958 451.1254L518.53436 450.28165Q516.6399 449.1879 516.0948 448.00714Q515.5439 446.80502 516.3564 445.39774Q517.1611 444.00397 518.4292 443.8701Q519.7051 443.72266 521.5667 444.77942L522.98755 445.59973ZM520.8663 445.83643Q519.4725 445.03174 518.6099 445.05698Q517.7552 445.06866 517.263 445.92117Q516.7786 446.76013 517.18805 447.51974Q517.5918 448.258 518.89655 449.02933L520.65564 450.04495Q522.0494 450.84964 522.9603 450.83432Q523.8578 450.8112 524.33435 449.98575Q524.8031 449.17386 524.4072 448.42206Q523.9978 447.66248 522.6524 446.86768L520.8663 445.83643ZM522.75116 436.00916L528.6994 444.2065L528.04315 445.34317L522.36346 437.33694L519.67596 441.99182L518.78284 441.4762L522.1422 435.6576L522.75116 436.00916ZM532.4827 439.37238L531.94366 440.30606L524.65784 431.3004L525.1969 430.36673L532.4827 439.37238ZM533.98755 426.54718Q535.90906 427.65656 536.47345 428.8665Q537.0321 430.05505 536.2274 431.44882Q535.43054 432.82904 534.1411 432.96866Q532.83813 433.10046 530.9958 432.07285L529.53436 431.2291Q527.6399 430.13535 527.0948 428.95456Q526.5439 427.75247 527.3564 426.34515Q528.1611 424.95142 529.4292 424.8175Q530.7051 424.67007 532.5667 425.72687L533.98755 426.54718ZM531.8663 426.78387Q530.4725 425.9792 529.6099 426.00443Q528.7552 426.0161 528.263 426.8686Q527.7786 427.70758 528.18805 428.46716Q528.5918 429.20544 529.89655 429.97678L531.65564 430.9924Q533.0494 431.7971 533.9603 431.78177Q534.8578 431.75864 535.33435 430.9332Q535.8031 430.1213 535.4072 429.3695Q534.9978 428.6099 533.6524 427.81512L531.8663 426.78387ZM540.6291 423.5437L539.9963 424.63974L532.7027 420.4288L532.21985 423.10895L531.232 422.53864L531.86725 418.7196L531.9688 418.5437L540.6291 423.5437Z" fill-rule="nonzero"/><path fill="#efefef" d="M630.46356 480.3901L627.20575 486.0328L626.4209 485.57968L624.8244 480.68866Q624.4494 479.5881 624.1378 479.06537Q623.8126 478.53482 623.2984 478.23795Q622.6354 477.85513 621.96014 478.02463Q621.2928 478.18057 620.90216 478.85715Q620.4334 479.66907 620.62787 480.39474Q620.83014 481.10693 621.66907 481.5913L621.03625 482.68738Q619.84546 481.99988 619.55225 480.82022Q619.25336 479.61923 619.99554 478.3337Q620.69086 477.1294 621.7253 476.8065Q622.75397 476.46222 623.80945 477.0716Q625.0814 477.80597 625.903 480.44537L627.07825 484.19107L629.57043 479.87448L630.46356 480.3901ZM630.64233 471.58047Q632.5638 472.68985 633.1282 473.89978Q633.6869 475.08835 632.8822 476.48212Q632.0853 477.86234 630.7959 478.00195Q629.4929 478.13376 627.6505 477.10614L626.1891 476.2624Q624.2947 475.16864 623.7495 473.98785Q623.19867 472.78574 624.01117 471.37845Q624.81586 469.98468 626.0839 469.8508Q627.35986 469.70337 629.2215 470.76016L630.64233 471.58047ZM628.521 471.81717Q627.12726 471.01248 626.2647 471.0377Q625.41 471.0494 624.9178 471.9019Q624.4334 472.74084 624.84283 473.50046Q625.2465 474.2387 626.5513 475.01007L628.3104 476.0257Q629.70416 476.83038 630.6151 476.81506Q631.5126 476.7919 631.98914 475.9665Q632.4579 475.15457 632.06195 474.4028Q631.6525 473.6432 630.3072 472.84842L628.521 471.81717ZM638.46356 466.5337L635.20575 472.1764L634.4209 471.72327L632.8244 466.83224Q632.4494 465.7317 632.1378 465.20895Q631.8126 464.67844 631.2984 464.38156Q630.6354 463.99875 629.96014 464.1682Q629.2928 464.32416 628.90216 465.00076Q628.4334 465.81265 628.62787 466.53836Q628.83014 467.25052 629.66907 467.7349L629.03625 468.83096Q627.84546 468.14346 627.55225 466.9638Q627.25336 465.76282 627.99554 464.47733Q628.69086 463.273 629.7253 462.95007Q630.75397 462.6058 631.80945 463.21518Q633.0814 463.94955 633.903 466.58896L635.07825 470.33466L637.57043 466.01807L638.46356 466.5337ZM641.2839 461.64877L640.65106 462.74484L633.3575 458.5339L632.8746 461.21402L631.8868 460.6437L632.52203 456.82468L632.6236 456.64877L641.2839 461.64877ZM644.13745 458.4249L643.5984 459.35858L636.3126 450.35294L636.8517 449.41925L644.13745 458.4249ZM645.64233 445.5997Q647.5638 446.70908 648.1282 447.919Q648.6869 449.10757 647.8822 450.50134Q647.0853 451.88156 645.7959 452.02118Q644.4929 452.15298 642.6505 451.12537L641.1891 450.28162Q639.2947 449.18787 638.7495 448.00708Q638.19867 446.805 639.01117 445.3977Q639.81586 444.00394 641.0839 443.87003Q642.35986 443.7226 644.2215 444.7794L645.64233 445.5997ZM643.521 445.8364Q642.12726 445.0317 641.2647 445.05695Q640.41 445.06863 639.9178 445.92114Q639.4334 446.7601 639.84283 447.51968Q640.2465 448.25797 641.5513 449.0293L643.3104 450.04492Q644.70416 450.8496 645.6151 450.8343Q646.5126 450.81116 646.98914 449.98572Q647.4579 449.17383 647.06195 448.42203Q646.6525 447.6624 645.3072 446.86765L643.521 445.8364ZM652.2839 442.59622L651.65106 443.69226L644.3575 439.48132L643.8746 442.16147L642.8868 441.59116L643.52203 437.77213L643.6236 437.59622L652.2839 442.59622ZM655.13745 439.37234L654.5984 440.30603L647.3126 431.30035L647.8517 430.3667L655.13745 439.37234ZM656.64233 426.54715Q658.5638 427.65652 659.1282 428.86646Q659.6869 430.05502 658.8822 431.4488Q658.0853 432.829 656.7959 432.96863Q655.4929 433.10043 653.6505 432.0728L652.1891 431.22906Q650.2947 430.1353 649.7495 428.95453Q649.19867 427.7524 650.01117 426.34512Q650.81586 424.9514 652.0839 424.81747Q653.35986 424.67004 655.2215 425.72684L656.64233 426.54715ZM654.521 426.78384Q653.12726 425.97916 652.2647 426.00436Q651.41 426.01608 650.9178 426.86856Q650.4334 427.70752 650.84283 428.46713Q651.2465 429.20538 652.5513 429.97675L654.3104 430.99237Q655.70416 431.79706 656.6151 431.78174Q657.5126 431.7586 657.98914 430.93317Q658.4579 430.12128 658.06195 429.36948Q657.6525 428.60986 656.3072 427.8151L654.521 426.78384ZM663.2839 423.54364L662.65106 424.6397L655.3575 420.42877L654.8746 423.10892L653.8868 422.5386L654.52203 418.71957L654.6236 418.54364L663.2839 423.54364Z" fill-rule="nonzero"/><path fill="#efefef" d="M751.11847 480.39014L747.86066 486.03284L747.0758 485.5797L745.4793 480.68866Q745.1044 479.58813 744.7927 479.0654Q744.4675 478.53485 743.9533 478.23798Q743.2903 477.85516 742.6151 478.02466Q741.9477 478.1806 741.55707 478.85718Q741.0883 479.66907 741.2828 480.39478Q741.48505 481.10696 742.324 481.59134L741.69116 482.68738Q740.5004 481.99988 740.2072 480.82025Q739.90826 479.61926 740.65045 478.33374Q741.34576 477.12943 742.3802 476.8065Q743.4089 476.46222 744.46436 477.0716Q745.7363 477.80597 746.558 480.4454L747.73315 484.1911L750.22534 479.8745L751.11847 480.39014ZM751.29724 471.5805Q753.21875 472.68988 753.78314 473.89978Q754.3418 475.08838 753.5371 476.48215Q752.74023 477.86237 751.4508 478.00198Q750.1478 478.1338 748.3054 477.10614L746.84406 476.2624Q744.9496 475.16864 744.4045 473.98788Q743.8536 472.78577 744.6661 471.37848Q745.47076 469.9847 746.73883 469.85083Q748.0148 469.7034 749.8764 470.7602L751.29724 471.5805ZM749.1759 471.81717Q747.78217 471.01248 746.9196 471.03772Q746.0649 471.0494 745.5727 471.90192Q745.0883 472.74088 745.49774 473.5005Q745.9014 474.23874 747.20624 475.0101L748.96533 476.02573Q750.3591 476.8304 751.27 476.81506Q752.1675 476.79193 752.64404 475.96652Q753.1128 475.1546 752.71686 474.4028Q752.30743 473.64322 750.9621 472.84842L749.1759 471.81717ZM759.11847 466.53372L755.86066 472.17642L755.0758 471.7233L753.4793 466.83228Q753.1044 465.73172 752.7927 465.20898Q752.4675 464.67844 751.9533 464.38156Q751.2903 463.99875 750.6151 464.16824Q749.9477 464.3242 749.55707 465.00076Q749.0883 465.81268 749.2828 466.53836Q749.48505 467.25055 750.324 467.73492L749.69116 468.831Q748.5004 468.1435 748.2072 466.96384Q747.90826 465.76285 748.65045 464.47733Q749.34576 463.273 750.3802 462.9501Q751.4089 462.60583 752.46436 463.2152Q753.7363 463.9496 754.558 466.589L755.73315 470.3347L758.22534 466.0181L759.11847 466.53372ZM761.9388 461.6488L761.30597 462.74484L754.0124 458.5339L753.52954 461.21405L752.5417 460.64374L753.17694 456.8247L753.2785 456.6488L761.9388 461.6488ZM764.79236 458.42493L764.2533 459.3586L756.9675 450.35297L757.5066 449.41928L764.79236 458.42493ZM766.29724 445.59973Q768.21875 446.7091 768.78314 447.91904Q769.3418 449.1076 768.5371 450.50137Q767.74023 451.8816 766.4508 452.0212Q765.1478 452.153 763.3054 451.1254L761.84406 450.28165Q759.9496 449.1879 759.4045 448.0071Q758.8536 446.805 759.6661 445.3977Q760.47076 444.00397 761.73883 443.87006Q763.0148 443.72263 764.8764 444.77942L766.29724 445.59973ZM764.1759 445.83643Q762.78217 445.03174 761.9196 445.05695Q761.0649 445.06866 760.5727 445.92114Q760.0883 446.7601 760.49774 447.5197Q760.9014 448.258 762.20624 449.02933L763.96533 450.04495Q765.3591 450.84964 766.27 450.83432Q767.1675 450.8112 767.64404 449.98575Q768.1128 449.17386 767.71686 448.42206Q767.30743 447.66245 765.9621 446.86768L764.1759 445.83643ZM766.06085 436.00916L772.0091 444.2065L771.35284 445.34317L765.67316 437.33694L762.98566 441.99182L762.0925 441.4762L765.4519 435.6576L766.06085 436.00916ZM775.79236 439.37238L775.2533 440.30606L767.9675 431.30038L768.5066 430.3667L775.79236 439.37238ZM777.29724 426.54718Q779.21875 427.65656 779.78314 428.8665Q780.3418 430.05505 779.5371 431.44882Q778.74023 432.82904 777.4508 432.96866Q776.1478 433.10046 774.3054 432.0728L772.84406 431.22906Q770.9496 430.1353 770.4045 428.95456Q769.8536 427.75244 770.6661 426.34515Q771.47076 424.9514 772.73883 424.8175Q774.0148 424.67007 775.8764 425.72687L777.29724 426.54718ZM775.1759 426.78384Q773.78217 425.97916 772.9196 426.0044Q772.0649 426.0161 771.5727 426.8686Q771.0883 427.70755 771.49774 428.46716Q771.9014 429.2054 773.20624 429.97678L774.96533 430.9924Q776.3591 431.7971 777.27 431.78177Q778.1675 431.7586 778.64404 430.9332Q779.1128 430.12128 778.71686 429.3695Q778.30743 428.6099 776.9621 427.8151L775.1759 426.78384ZM783.9388 423.54367L783.30597 424.63974L776.0124 420.4288L775.52954 423.10892L774.5417 422.5386L775.17694 418.71957L775.2785 418.54367L783.9388 423.54367Z" fill-rule="nonzero"/><path fill="#4285f4" d="M282.5 81.0C282.5 84.313705 279.81372 87.0 276.5 87.0C273.18628 87.0 270.5 84.313705 270.5 81.0C270.5 77.686295 273.18628 75.0 276.5 75.0C279.81372 75.0 282.5 77.686295 282.5 81.0Z" fill-rule="nonzero"/><path fill="#efefef" d="M300.5625 86.5L299.0625 86.5L299.0625 81.234375L293.32812 81.234375L293.32812 86.5L291.82812 86.5L291.82812 75.125L293.32812 75.125L293.32812 80.015625L299.0625 80.015625L299.0625 75.125L300.5625 75.125L300.5625 86.5ZM306.10938 86.65625Q304.39062 86.65625 303.3125 85.53125Q302.23438 84.390625 302.23438 82.5L302.23438 82.234375Q302.23438 80.984375 302.70312 80.0Q303.1875 79.0 304.04688 78.453125Q304.92188 77.890625 305.92188 77.890625Q307.57812 77.890625 308.48438 78.984375Q309.40625 80.0625 309.40625 82.078125L309.40625 82.6875L303.67188 82.6875Q303.70312 83.9375 304.40625 84.703125Q305.10938 85.46875 306.1875 85.46875Q306.95312 85.46875 307.48438 85.15625Q308.01562 84.84375 308.40625 84.328125L309.29688 85.015625Q308.23438 86.65625 306.10938 86.65625ZM305.92188 79.078125Q305.04688 79.078125 304.45312 79.71875Q303.85938 80.34375 303.71875 81.5L307.95312 81.5L307.95312 81.390625Q307.89062 80.28125 307.35938 79.6875Q306.82812 79.078125 305.92188 79.078125ZM312.17188 86.5L310.71875 86.5L310.71875 74.5L312.17188 74.5L312.17188 86.5ZM321.73438 82.359375Q321.73438 84.296875 320.84375 85.484375Q319.96875 86.65625 318.46875 86.65625Q316.92188 86.65625 316.04688 85.671875L316.04688 89.75L314.59375 89.75L314.59375 78.046875L315.92188 78.046875L315.98438 78.984375Q316.875 77.890625 318.4375 77.890625Q319.96875 77.890625 320.84375 79.046875Q321.73438 80.1875 321.73438 82.234375L321.73438 82.359375ZM320.29688 82.203125Q320.29688 80.765625 319.6875 79.9375Q319.07812 79.109375 318.01562 79.109375Q316.70312 79.109375 316.04688 80.28125L316.04688 84.3125Q316.6875 85.46875 318.03125 85.46875Q319.0625 85.46875 319.67188 84.65625Q320.29688 83.828125 320.29688 82.203125ZM334.09375 81.46875L329.32812 81.46875L329.32812 86.5L327.82812 86.5L327.82812 75.125L334.875 75.125L334.875 76.359375L329.32812 76.359375L329.32812 80.25L334.09375 80.25L334.09375 81.46875ZM336.21875 82.1875Q336.21875 80.953125 336.70312 79.96875Q337.1875 78.96875 338.0625 78.4375Q338.9375 77.890625 340.04688 77.890625Q341.78125 77.890625 342.84375 79.09375Q343.90625 80.28125 343.90625 82.265625L343.90625 82.359375Q343.90625 83.59375 343.4375 84.578125Q342.96875 85.5625 342.07812 86.109375Q341.20312 86.65625 340.0625 86.65625Q338.34375 86.65625 337.28125 85.46875Q336.21875 84.265625 336.21875 82.296875L336.21875 82.1875ZM337.67188 82.359375Q337.67188 83.765625 338.3125 84.625Q338.96875 85.46875 340.0625 85.46875Q341.17188 85.46875 341.8125 84.609375Q342.46875 83.75 342.46875 82.1875Q342.46875 80.796875 341.79688 79.9375Q341.14062 79.078125 340.04688 79.078125Q338.98438 79.078125 338.32812 79.9375Q337.67188 80.78125 337.67188 82.359375ZM349.6875 79.34375Q349.35938 79.28125 348.96875 79.28125Q347.54688 79.28125 347.04688 80.5L347.04688 86.5L345.59375 86.5L345.59375 78.046875L347.0 78.046875L347.03125 79.015625Q347.73438 77.890625 349.04688 77.890625Q349.46875 77.890625 349.6875 78.0L349.6875 79.34375ZM355.8125 85.65625Q354.96875 86.65625 353.34375 86.65625Q351.98438 86.65625 351.28125 85.875Q350.57812 85.078125 350.5625 83.546875L350.5625 78.046875L352.01562 78.046875L352.01562 83.5Q352.01562 85.421875 353.57812 85.421875Q355.23438 85.421875 355.78125 84.1875L355.78125 78.046875L357.21875 78.046875L357.21875 86.5L355.84375 86.5L355.8125 85.65625ZM360.95312 78.046875L361.0 78.984375Q361.92188 77.890625 363.5 77.890625Q365.28125 77.890625 365.92188 79.25Q366.34375 78.640625 367.01562 78.265625Q367.6875 77.890625 368.60938 77.890625Q371.39062 77.890625 371.4375 80.828125L371.4375 86.5L370.0 86.5L370.0 80.921875Q370.0 80.015625 369.57812 79.5625Q369.17188 79.109375 368.1875 79.109375Q367.39062 79.109375 366.85938 79.59375Q366.32812 80.078125 366.23438 80.890625L366.23438 86.5L364.78125 86.5L364.78125 80.953125Q364.78125 79.109375 362.98438 79.109375Q361.5625 79.109375 361.03125 80.328125L361.03125 86.5L359.59375 86.5L359.59375 78.046875L360.95312 78.046875Z" fill-rule="nonzero"/><path fill="#db4437" d="M400.5 81.0C400.5 84.313705 397.81372 87.0 394.5 87.0C391.18628 87.0 388.5 84.313705 388.5 81.0C388.5 77.686295 391.18628 75.0 394.5 75.0C397.81372 75.0 400.5 77.686295 400.5 81.0Z" fill-rule="nonzero"/><path fill="#efefef" d="M418.21875 85.0Q417.64062 85.828125 416.60938 86.25Q415.57812 86.65625 414.20312 86.65625Q412.8125 86.65625 411.73438 86.0Q410.65625 85.34375 410.0625 84.140625Q409.46875 82.9375 409.45312 81.359375L409.45312 80.359375Q409.45312 77.796875 410.65625 76.390625Q411.85938 74.96875 414.03125 74.96875Q415.8125 74.96875 416.89062 75.875Q417.98438 76.78125 418.21875 78.453125L416.71875 78.453125Q416.29688 76.203125 414.03125 76.203125Q412.53125 76.203125 411.75 77.265625Q410.96875 78.3125 410.96875 80.328125L410.96875 81.25Q410.96875 83.171875 411.84375 84.296875Q412.71875 85.421875 414.20312 85.421875Q415.04688 85.421875 415.67188 85.234375Q416.3125 85.046875 416.73438 84.609375L416.73438 82.046875L414.09375 82.046875L414.09375 80.828125L418.21875 80.828125L418.21875 85.0ZM425.8125 86.5Q425.6875 86.25 425.60938 85.609375Q424.60938 86.65625 423.20312 86.65625Q421.95312 86.65625 421.15625 85.953125Q420.35938 85.234375 420.35938 84.15625Q420.35938 82.828125 421.35938 82.109375Q422.35938 81.375 424.1875 81.375L425.59375 81.375L425.59375 80.703125Q425.59375 79.953125 425.14062 79.5Q424.6875 79.046875 423.79688 79.046875Q423.03125 79.046875 422.5 79.4375Q421.98438 79.828125 421.98438 80.390625L420.53125 80.390625Q420.53125 79.75 420.96875 79.171875Q421.42188 78.578125 422.1875 78.234375Q422.96875 77.890625 423.89062 77.890625Q425.34375 77.890625 426.17188 78.625Q427.0 79.34375 427.03125 80.625L427.03125 84.515625Q427.03125 85.6875 427.32812 86.375L427.32812 86.5L425.8125 86.5ZM423.42188 85.390625Q424.09375 85.390625 424.70312 85.046875Q425.3125 84.6875 425.59375 84.125L425.59375 82.390625L424.45312 82.390625Q421.79688 82.390625 421.79688 83.953125Q421.79688 84.625 422.25 85.015625Q422.70312 85.390625 423.42188 85.390625ZM431.17188 86.5L429.71875 86.5L429.71875 74.5L431.17188 74.5L431.17188 86.5ZM438.8125 86.5Q438.6875 86.25 438.60938 85.609375Q437.60938 86.65625 436.20312 86.65625Q434.95312 86.65625 434.15625 85.953125Q433.35938 85.234375 433.35938 84.15625Q433.35938 82.828125 434.35938 82.109375Q435.35938 81.375 437.1875 81.375L438.59375 81.375L438.59375 80.703125Q438.59375 79.953125 438.14062 79.5Q437.6875 79.046875 436.79688 79.046875Q436.03125 79.046875 435.5 79.4375Q434.98438 79.828125 434.98438 80.390625L433.53125 80.390625Q433.53125 79.75 433.96875 79.171875Q434.42188 78.578125 435.1875 78.234375Q435.96875 77.890625 436.89062 77.890625Q438.34375 77.890625 439.17188 78.625Q440.0 79.34375 440.03125 80.625L440.03125 84.515625Q440.03125 85.6875 440.32812 86.375L440.32812 86.5L438.8125 86.5ZM436.42188 85.390625Q437.09375 85.390625 437.70312 85.046875Q438.3125 84.6875 438.59375 84.125L438.59375 82.390625L437.45312 82.390625Q434.79688 82.390625 434.79688 83.953125Q434.79688 84.625 435.25 85.015625Q435.70312 85.390625 436.42188 85.390625ZM445.4375 81.125L447.3125 78.046875L449.0 78.046875L446.23438 82.21875L449.07812 86.5L447.40625 86.5L445.45312 83.328125L443.5 86.5L441.82812 86.5L444.67188 82.21875L441.90625 78.046875L443.57812 78.046875L445.4375 81.125ZM453.35938 84.375L455.32812 78.046875L456.875 78.046875L453.48438 87.8125Q452.6875 89.921875 450.96875 89.921875L450.70312 89.890625L450.15625 89.796875L450.15625 88.625L450.54688 88.65625Q451.28125 88.65625 451.6875 88.359375Q452.10938 88.0625 452.375 87.265625L452.6875 86.40625L449.67188 78.046875L451.25 78.046875L453.35938 84.375ZM460.32812 82.046875L460.32812 86.5L458.82812 86.5L458.82812 75.125L463.01562 75.125Q464.89062 75.125 465.9375 76.078125Q467.0 77.03125 467.0 78.59375Q467.0 80.25 465.96875 81.15625Q464.9375 82.046875 463.0 82.046875L460.32812 82.046875ZM460.32812 80.8125L463.01562 80.8125Q464.21875 80.8125 464.85938 80.25Q465.5 79.6875 465.5 78.609375Q465.5 77.59375 464.85938 76.984375Q464.21875 76.375 463.10938 76.359375L460.32812 76.359375L460.32812 80.8125ZM472.6875 79.34375Q472.35938 79.28125 471.96875 79.28125Q470.54688 79.28125 470.04688 80.5L470.04688 86.5L468.59375 86.5L468.59375 78.046875L470.0 78.046875L470.03125 79.015625Q470.73438 77.890625 472.04688 77.890625Q472.46875 77.890625 472.6875 78.0L472.6875 79.34375ZM473.21875 82.1875Q473.21875 80.953125 473.70312 79.96875Q474.1875 78.96875 475.0625 78.4375Q475.9375 77.890625 477.04688 77.890625Q478.78125 77.890625 479.84375 79.09375Q480.90625 80.28125 480.90625 82.265625L480.90625 82.359375Q480.90625 83.59375 480.4375 84.578125Q479.96875 85.5625 479.07812 86.109375Q478.20312 86.65625 477.0625 86.65625Q475.34375 86.65625 474.28125 85.46875Q473.21875 84.265625 473.21875 82.296875L473.21875 82.1875ZM474.67188 82.359375Q474.67188 83.765625 475.3125 84.625Q475.96875 85.46875 477.0625 85.46875Q478.17188 85.46875 478.8125 84.609375Q479.46875 83.75 479.46875 82.1875Q479.46875 80.796875 478.79688 79.9375Q478.14062 79.078125 477.04688 79.078125Q475.98438 79.078125 475.32812 79.9375Q474.67188 80.78125 474.67188 82.359375ZM484.09375 78.046875L484.09375 87.484375Q484.09375 89.921875 481.875 89.921875Q481.39062 89.921875 480.98438 89.78125L480.98438 88.625Q481.23438 88.6875 481.65625 88.6875Q482.14062 88.6875 482.39062 88.421875Q482.64062 88.15625 482.64062 87.515625L482.64062 78.046875L484.09375 78.046875ZM482.5 75.796875Q482.5 75.453125 482.70312 75.21875Q482.92188 74.96875 483.34375 74.96875Q483.76562 74.96875 483.98438 75.21875Q484.20312 75.453125 484.20312 75.8125Q484.20312 76.15625 483.98438 76.390625Q483.76562 76.625 483.34375 76.625Q482.92188 76.625 482.70312 76.390625Q482.5 76.15625 482.5 75.796875ZM490.10938 86.65625Q488.39062 86.65625 487.3125 85.53125Q486.23438 84.390625 486.23438 82.5L486.23438 82.234375Q486.23438 80.984375 486.70312 80.0Q487.1875 79.0 488.04688 78.453125Q488.92188 77.890625 489.92188 77.890625Q491.57812 77.890625 492.48438 78.984375Q493.40625 80.0625 493.40625 82.078125L493.40625 82.6875L487.67188 82.6875Q487.70312 83.9375 488.40625 84.703125Q489.10938 85.46875 490.1875 85.46875Q490.95312 85.46875 491.48438 85.15625Q492.01562 84.84375 492.40625 84.328125L493.29688 85.015625Q492.23438 86.65625 490.10938 86.65625ZM489.92188 79.078125Q489.04688 79.078125 488.45312 79.71875Q487.85938 80.34375 487.71875 81.5L491.95312 81.5L491.95312 81.390625Q491.89062 80.28125 491.35938 79.6875Q490.82812 79.078125 489.92188 79.078125ZM497.98438 85.46875Q498.76562 85.46875 499.34375 85.0Q499.92188 84.53125 499.98438 83.828125L501.34375 83.828125Q501.3125 84.5625 500.84375 85.21875Q500.39062 85.875 499.60938 86.265625Q498.84375 86.65625 497.98438 86.65625Q496.26562 86.65625 495.23438 85.5Q494.21875 84.34375 494.21875 82.34375L494.21875 82.109375Q494.21875 80.875 494.67188 79.921875Q495.125 78.953125 495.96875 78.421875Q496.82812 77.890625 497.98438 77.890625Q499.40625 77.890625 500.34375 78.75Q501.28125 79.59375 501.34375 80.953125L499.98438 80.953125Q499.92188 80.125 499.35938 79.609375Q498.79688 79.078125 497.98438 79.078125Q496.875 79.078125 496.26562 79.875Q495.67188 80.65625 495.67188 82.15625L495.67188 82.4375Q495.67188 83.890625 496.26562 84.6875Q496.875 85.46875 497.98438 85.46875ZM504.5625 76.0L504.5625 78.046875L506.14062 78.046875L506.14062 79.15625L504.5625 79.15625L504.5625 84.40625Q504.5625 84.90625 504.76562 85.171875Q504.98438 85.421875 505.48438 85.421875Q505.73438 85.421875 506.17188 85.328125L506.17188 86.5Q505.60938 86.65625 505.0625 86.65625Q504.09375 86.65625 503.59375 86.078125Q503.10938 85.484375 503.10938 84.40625L503.10938 79.15625L501.57812 79.15625L501.57812 78.046875L503.10938 78.046875L503.10938 76.0L504.5625 76.0ZM520.21875 85.0Q519.6406 85.828125 518.6094 86.25Q517.5781 86.65625 516.2031 86.65625Q514.8125 86.65625 513.7344 86.0Q512.65625 85.34375 512.0625 84.140625Q511.46875 82.9375 511.45312 81.359375L511.45312 80.359375Q511.45312 77.796875 512.65625 76.390625Q513.8594 74.96875 516.03125 74.96875Q517.8125 74.96875 518.8906 75.875Q519.9844 76.78125 520.21875 78.453125L518.71875 78.453125Q518.2969 76.203125 516.03125 76.203125Q514.53125 76.203125 513.75 77.265625Q512.96875 78.3125 512.96875 80.328125L512.96875 81.25Q512.96875 83.171875 513.84375 84.296875Q514.71875 85.421875 516.2031 85.421875Q517.0469 85.421875 517.6719 85.234375Q518.3125 85.046875 518.7344 84.609375L518.7344 82.046875L516.09375 82.046875L516.09375 80.828125L520.21875 80.828125L520.21875 85.0ZM524.1719 86.5L522.71875 86.5L522.71875 78.046875L524.1719 78.046875L524.1719 86.5ZM522.6094 75.796875Q522.6094 75.453125 522.8125 75.21875Q523.03125 74.96875 523.4531 74.96875Q523.875 74.96875 524.09375 75.21875Q524.3125 75.453125 524.3125 75.8125Q524.3125 76.15625 524.09375 76.390625Q523.875 76.625 523.4531 76.625Q523.03125 76.625 522.8125 76.390625Q522.6094 76.15625 522.6094 75.796875ZM528.5625 76.0L528.5625 78.046875L530.1406 78.046875L530.1406 79.15625L528.5625 79.15625L528.5625 84.40625Q528.5625 84.90625 528.7656 85.171875Q528.9844 85.421875 529.4844 85.421875Q529.7344 85.421875 530.1719 85.328125L530.1719 86.5Q529.6094 86.65625 529.0625 86.65625Q528.09375 86.65625 527.59375 86.078125Q527.1094 85.484375 527.1094 84.40625L527.1094 79.15625L525.5781 79.15625L525.5781 78.046875L527.1094 78.046875L527.1094 76.0L528.5625 76.0ZM533.5625 76.0L533.5625 78.046875L535.1406 78.046875L535.1406 79.15625L533.5625 79.15625L533.5625 84.40625Q533.5625 84.90625 533.7656 85.171875Q533.9844 85.421875 534.4844 85.421875Q534.7344 85.421875 535.1719 85.328125L535.1719 86.5Q534.6094 86.65625 534.0625 86.65625Q533.09375 86.65625 532.59375 86.078125Q532.1094 85.484375 532.1094 84.40625L532.1094 79.15625L530.5781 79.15625L530.5781 78.046875L532.1094 78.046875L532.1094 76.0L533.5625 76.0ZM540.1094 86.65625Q538.3906 86.65625 537.3125 85.53125Q536.2344 84.390625 536.2344 82.5L536.2344 82.234375Q536.2344 80.984375 536.7031 80.0Q537.1875 79.0 538.0469 78.453125Q538.9219 77.890625 539.9219 77.890625Q541.5781 77.890625 542.4844 78.984375Q543.40625 80.0625 543.40625 82.078125L543.40625 82.6875L537.6719 82.6875Q537.7031 83.9375 538.40625 84.703125Q539.1094 85.46875 540.1875 85.46875Q540.9531 85.46875 541.4844 85.15625Q542.0156 84.84375 542.40625 84.328125L543.2969 85.015625Q542.2344 86.65625 540.1094 86.65625ZM539.9219 79.078125Q539.0469 79.078125 538.4531 79.71875Q537.8594 80.34375 537.71875 81.5L541.9531 81.5L541.9531 81.390625Q541.8906 80.28125 541.3594 79.6875Q540.8281 79.078125 539.9219 79.078125ZM548.6875 79.34375Q548.3594 79.28125 547.96875 79.28125Q546.5469 79.28125 546.0469 80.5L546.0469 86.5L544.59375 86.5L544.59375 78.046875L546.0 78.046875L546.03125 79.015625Q546.7344 77.890625 548.0469 77.890625Q548.46875 77.890625 548.6875 78.0L548.6875 79.34375Z" fill-rule="nonzero"/><path fill="#efefef" d="M55.89267 47.265625Q55.033295 48.5 53.470795 49.125Q51.92392 49.734375 49.86142 49.734375Q47.76767 49.734375 46.14267 48.765625Q44.533295 47.78125 43.64267 45.984375Q42.76767 44.171875 42.752045 41.78125L42.752045 40.296875Q42.752045 36.4375 44.54892 34.328125Q46.345795 32.203125 49.595795 32.203125Q52.26767 32.203125 53.89267 33.578125Q55.533295 34.9375 55.89267 37.4375L53.64267 37.4375Q53.01767 34.046875 49.61142 34.046875Q47.345795 34.046875 46.17392 35.640625Q45.01767 37.234375 45.002045 40.234375L45.002045 41.640625Q45.002045 44.5 46.314545 46.203125Q47.627045 47.890625 49.877045 47.890625Q51.14267 47.890625 52.08017 47.609375Q53.033295 47.328125 53.658295 46.65625L53.658295 42.828125L49.70517 42.828125L49.70517 41.0L55.89267 41.0L55.89267 47.265625ZM66.783295 49.5Q66.595795 49.125 66.48642 48.15625Q64.970795 49.734375 62.877045 49.734375Q61.002045 49.734375 59.79892 48.671875Q58.595795 47.609375 58.595795 45.984375Q58.595795 44.0 60.095795 42.90625Q61.61142 41.8125 64.33017 41.8125L66.439545 41.8125L66.439545 40.8125Q66.439545 39.671875 65.752045 39.0Q65.08017 38.328125 63.76767 38.328125Q62.595795 38.328125 61.814545 38.921875Q61.033295 39.5 61.033295 40.328125L58.845795 40.328125Q58.845795 39.390625 59.51767 38.5Q60.20517 37.609375 61.345795 37.09375Q62.502045 36.578125 63.89267 36.578125Q66.08017 36.578125 67.314545 37.6875Q68.564545 38.78125 68.61142 40.703125L68.61142 46.53125Q68.61142 48.28125 69.064545 49.3125L69.064545 49.5L66.783295 49.5ZM63.189545 47.84375Q64.20517 47.84375 65.11142 47.328125Q66.033295 46.796875 66.439545 45.953125L66.439545 43.34375L64.752045 43.34375Q60.76767 43.34375 60.76767 45.671875Q60.76767 46.703125 61.439545 47.28125Q62.127045 47.84375 63.189545 47.84375ZM74.314545 49.5L72.14267 49.5L72.14267 31.5L74.314545 31.5L74.314545 49.5ZM85.783295 49.5Q85.595795 49.125 85.48642 48.15625Q83.970795 49.734375 81.877045 49.734375Q80.002045 49.734375 78.79892 48.671875Q77.595795 47.609375 77.595795 45.984375Q77.595795 44.0 79.095795 42.90625Q80.61142 41.8125 83.33017 41.8125L85.439545 41.8125L85.439545 40.8125Q85.439545 39.671875 84.752045 39.0Q84.08017 38.328125 82.76767 38.328125Q81.595795 38.328125 80.814545 38.921875Q80.033295 39.5 80.033295 40.328125L77.845795 40.328125Q77.845795 39.390625 78.51767 38.5Q79.20517 37.609375 80.345795 37.09375Q81.502045 36.578125 82.89267 36.578125Q85.08017 36.578125 86.314545 37.6875Q87.564545 38.78125 87.61142 40.703125L87.61142 46.53125Q87.61142 48.28125 88.064545 49.3125L88.064545 49.5L85.783295 49.5ZM82.189545 47.84375Q83.20517 47.84375 84.11142 47.328125Q85.033295 46.796875 85.439545 45.953125L85.439545 43.34375L83.752045 43.34375Q79.76767 43.34375 79.76767 45.671875Q79.76767 46.703125 80.439545 47.28125Q81.127045 47.84375 82.189545 47.84375ZM95.20517 41.453125L98.01767 36.8125L100.54892 36.8125L96.408295 43.09375L100.689545 49.5L98.17392 49.5L95.252045 44.75L92.314545 49.5L89.79892 49.5L94.08017 43.09375L89.92392 36.8125L92.439545 36.8125L95.20517 41.453125ZM107.11142 46.328125L110.064545 36.8125L112.377045 36.8125L107.283295 51.453125Q106.095795 54.625 103.51767 54.625L103.11142 54.59375L102.29892 54.4375L102.29892 52.671875L102.89267 52.71875Q103.98642 52.71875 104.595795 52.265625Q105.220795 51.828125 105.61142 50.65625L106.095795 49.359375L101.58017 36.8125L103.939545 36.8125L107.11142 46.328125ZM125.33017 41.890625Q122.42392 41.0625 121.11142 39.859375Q119.79892 38.640625 119.79892 36.859375Q119.79892 34.84375 121.408295 33.53125Q123.01767 32.203125 125.595795 32.203125Q127.345795 32.203125 128.7208 32.890625Q130.11142 33.5625 130.86142 34.765625Q131.61142 35.953125 131.61142 37.375L129.36142 37.375Q129.36142 35.828125 128.37704 34.9375Q127.39267 34.046875 125.595795 34.046875Q123.92392 34.046875 122.98642 34.78125Q122.064545 35.515625 122.064545 36.8125Q122.064545 37.859375 122.939545 38.578125Q123.83017 39.296875 125.95517 39.90625Q128.0958 40.5 129.2833 41.21875Q130.48642 41.9375 131.06454 42.90625Q131.6583 43.859375 131.6583 45.15625Q131.6583 47.234375 130.0333 48.484375Q128.42392 49.734375 125.70517 49.734375Q123.95517 49.734375 122.42392 49.0625Q120.908295 48.390625 120.08017 47.21875Q119.252045 46.046875 119.252045 44.546875L121.51767 44.546875Q121.51767 46.09375 122.658295 47.0Q123.79892 47.890625 125.70517 47.890625Q127.48642 47.890625 128.43954 47.171875Q129.39267 46.4375 129.39267 45.1875Q129.39267 43.9375 128.50204 43.25Q127.627045 42.5625 125.33017 41.890625ZM141.7833 48.25Q140.51767 49.734375 138.06454 49.734375Q136.04892 49.734375 134.98642 48.5625Q133.92392 47.375 133.9083 45.0625L133.9083 36.8125L136.08017 36.8125L136.08017 45.015625Q136.08017 47.890625 138.42392 47.890625Q140.9083 47.890625 141.7208 46.046875L141.7208 36.8125L143.89267 36.8125L143.89267 49.5L141.83017 49.5L141.7833 48.25ZM157.67392 43.296875Q157.67392 46.1875 156.3458 47.96875Q155.01767 49.734375 152.75204 49.734375Q150.45517 49.734375 149.12704 48.265625L149.12704 54.375L146.95517 54.375L146.95517 36.8125L148.93954 36.8125L149.04892 38.21875Q150.36142 36.578125 152.7208 36.578125Q155.00204 36.578125 156.33017 38.3125Q157.67392 40.03125 157.67392 43.09375L157.67392 43.296875ZM155.50204 43.046875Q155.50204 40.90625 154.58017 39.671875Q153.67392 38.421875 152.08017 38.421875Q150.11142 38.421875 149.12704 40.171875L149.12704 46.234375Q150.0958 47.96875 152.0958 47.96875Q153.6583 47.96875 154.58017 46.734375Q155.50204 45.484375 155.50204 43.046875ZM170.67392 43.296875Q170.67392 46.1875 169.3458 47.96875Q168.01767 49.734375 165.75204 49.734375Q163.45517 49.734375 162.12704 48.265625L162.12704 54.375L159.95517 54.375L159.95517 36.8125L161.93954 36.8125L162.04892 38.21875Q163.36142 36.578125 165.7208 36.578125Q168.00204 36.578125 169.33017 38.3125Q170.67392 40.03125 170.67392 43.09375L170.67392 43.296875ZM168.50204 43.046875Q168.50204 40.90625 167.58017 39.671875Q166.67392 38.421875 165.08017 38.421875Q163.11142 38.421875 162.12704 40.171875L162.12704 46.234375Q163.0958 47.96875 165.0958 47.96875Q166.6583 47.96875 167.58017 46.734375Q168.50204 45.484375 168.50204 43.046875ZM172.37704 43.046875Q172.37704 41.171875 173.11142 39.6875Q173.8458 38.203125 175.14267 37.390625Q176.45517 36.578125 178.14267 36.578125Q180.7208 36.578125 182.31454 38.375Q183.92392 40.171875 183.92392 43.140625L183.92392 43.296875Q183.92392 45.15625 183.20517 46.625Q182.50204 48.09375 181.18954 48.921875Q179.87704 49.734375 178.1583 49.734375Q175.58017 49.734375 173.9708 47.9375Q172.37704 46.140625 172.37704 43.1875L172.37704 43.046875ZM174.56454 43.296875Q174.56454 45.40625 175.5333 46.6875Q176.51767 47.96875 178.1583 47.96875Q179.81454 47.96875 180.7833 46.671875Q181.75204 45.375 181.75204 43.046875Q181.75204 40.953125 180.76767 39.65625Q179.7833 38.359375 178.14267 38.359375Q176.5333 38.359375 175.54892 39.640625Q174.56454 40.921875 174.56454 43.296875ZM193.08017 38.765625Q192.5958 38.6875 192.01767 38.6875Q189.89267 38.6875 189.12704 40.5L189.12704 49.5L186.95517 49.5L186.95517 36.8125L189.06454 36.8125L189.0958 38.28125Q190.17392 36.578125 192.12704 36.578125Q192.75204 36.578125 193.08017 36.75L193.08017 38.765625ZM197.89267 33.75L197.89267 36.8125L200.26767 36.8125L200.26767 38.5L197.89267 38.5L197.89267 46.359375Q197.89267 47.125 198.20517 47.5Q198.5333 47.875 199.29892 47.875Q199.67392 47.875 200.33017 47.734375L200.33017 49.5Q199.4708 49.734375 198.6583 49.734375Q197.20517 49.734375 196.4708 48.859375Q195.73642 47.96875 195.73642 46.359375L195.73642 38.5L193.42392 38.5L193.42392 36.8125L195.73642 36.8125L195.73642 33.75L197.89267 33.75ZM209.39267 50.96875L207.5333 50.96875L214.6583 32.4375L216.50204 32.4375L209.39267 50.96875ZM225.29892 49.5L225.29892 32.4375L230.11142 32.4375Q232.3458 32.4375 234.04892 33.421875Q235.76767 34.40625 236.68954 36.21875Q237.62704 38.03125 237.64267 40.390625L237.64267 41.484375Q237.64267 43.890625 236.70517 45.71875Q235.76767 47.53125 234.0333 48.5Q232.31454 49.46875 230.01767 49.5L225.29892 49.5ZM227.54892 34.28125L227.54892 47.65625L229.9083 47.65625Q232.51767 47.65625 233.95517 46.046875Q235.4083 44.421875 235.4083 41.4375L235.4083 40.4375Q235.4083 37.53125 234.0333 35.921875Q232.67392 34.3125 230.17392 34.28125L227.54892 34.28125ZM243.31454 49.5L241.14267 49.5L241.14267 36.8125L243.31454 36.8125L243.31454 49.5ZM240.9708 33.453125Q240.9708 32.921875 241.2833 32.5625Q241.61142 32.203125 242.23642 32.203125Q242.87704 32.203125 243.20517 32.5625Q243.5333 32.921875 243.5333 33.453125Q243.5333 33.984375 243.20517 34.34375Q242.87704 34.6875 242.23642 34.6875Q241.61142 34.6875 241.2833 34.34375Q240.9708 33.984375 240.9708 33.453125ZM254.3458 46.140625Q254.3458 45.25 253.67392 44.765625Q253.01767 44.28125 251.36142 43.9375Q249.7208 43.578125 248.75204 43.09375Q247.7833 42.59375 247.31454 41.921875Q246.86142 41.234375 246.86142 40.296875Q246.86142 38.734375 248.17392 37.65625Q249.50204 36.578125 251.54892 36.578125Q253.70517 36.578125 255.04892 37.703125Q256.39267 38.8125 256.39267 40.546875L254.20517 40.546875Q254.20517 39.65625 253.45517 39.015625Q252.70517 38.359375 251.54892 38.359375Q250.36142 38.359375 249.68954 38.875Q249.0333 39.390625 249.0333 40.234375Q249.0333 41.015625 249.64267 41.421875Q250.26767 41.8125 251.89267 42.171875Q253.51767 42.53125 254.51767 43.046875Q255.5333 43.546875 256.01767 44.265625Q256.50204 44.96875 256.50204 45.984375Q256.50204 47.6875 255.14267 48.71875Q253.7833 49.734375 251.62704 49.734375Q250.0958 49.734375 248.92392 49.203125Q247.75204 48.65625 247.08017 47.6875Q246.42392 46.71875 246.42392 45.59375L248.5958 45.59375Q248.6583 46.6875 249.4708 47.328125Q250.2833 47.96875 251.62704 47.96875Q252.8458 47.96875 253.5958 47.46875Q254.3458 46.96875 254.3458 46.140625ZM264.04892 47.96875Q265.20517 47.96875 266.06454 47.265625Q266.93954 46.5625 267.0333 45.5L269.08017 45.5Q269.01767 46.59375 268.33017 47.578125Q267.64267 48.5625 266.48642 49.15625Q265.33017 49.734375 264.04892 49.734375Q261.45517 49.734375 259.92392 48.015625Q258.39267 46.28125 258.39267 43.28125L258.39267 42.90625Q258.39267 41.0625 259.06454 39.625Q259.75204 38.171875 261.01767 37.375Q262.29892 36.578125 264.0333 36.578125Q266.1583 36.578125 267.56454 37.859375Q268.98642 39.140625 269.08017 41.171875L267.0333 41.171875Q266.93954 39.953125 266.0958 39.15625Q265.26767 38.359375 264.0333 38.359375Q262.37704 38.359375 261.4708 39.5625Q260.56454 40.75 260.56454 43.0L260.56454 43.40625Q260.56454 45.59375 261.45517 46.78125Q262.36142 47.96875 264.04892 47.96875ZM279.7833 48.25Q278.51767 49.734375 276.06454 49.734375Q274.04892 49.734375 272.98642 48.5625Q271.92392 47.375 271.9083 45.0625L271.9083 36.8125L274.08017 36.8125L274.08017 45.015625Q274.08017 47.890625 276.42392 47.890625Q278.9083 47.890625 279.7208 46.046875L279.7208 36.8125L281.89267 36.8125L281.89267 49.5L279.83017 49.5L279.7833 48.25ZM292.3458 46.140625Q292.3458 45.25 291.67392 44.765625Q291.01767 44.28125 289.36142 43.9375Q287.7208 43.578125 286.75204 43.09375Q285.7833 42.59375 285.31454 41.921875Q284.86142 41.234375 284.86142 40.296875Q284.86142 38.734375 286.17392 37.65625Q287.50204 36.578125 289.54892 36.578125Q291.70517 36.578125 293.04892 37.703125Q294.39267 38.8125 294.39267 40.546875L292.20517 40.546875Q292.20517 39.65625 291.45517 39.015625Q290.70517 38.359375 289.54892 38.359375Q288.36142 38.359375 287.68954 38.875Q287.0333 39.390625 287.0333 40.234375Q287.0333 41.015625 287.64267 41.421875Q288.26767 41.8125 289.89267 42.171875Q291.51767 42.53125 292.51767 43.046875Q293.5333 43.546875 294.01767 44.265625Q294.50204 44.96875 294.50204 45.984375Q294.50204 47.6875 293.14267 48.71875Q291.7833 49.734375 289.62704 49.734375Q288.0958 49.734375 286.92392 49.203125Q285.75204 48.65625 285.08017 47.6875Q284.42392 46.71875 284.42392 45.59375L286.5958 45.59375Q286.6583 46.6875 287.4708 47.328125Q288.2833 47.96875 289.62704 47.96875Q290.8458 47.96875 291.5958 47.46875Q292.3458 46.96875 292.3458 46.140625ZM304.3458 46.140625Q304.3458 45.25 303.67392 44.765625Q303.01767 44.28125 301.36142 43.9375Q299.7208 43.578125 298.75204 43.09375Q297.7833 42.59375 297.31454 41.921875Q296.86142 41.234375 296.86142 40.296875Q296.86142 38.734375 298.17392 37.65625Q299.50204 36.578125 301.54892 36.578125Q303.70517 36.578125 305.04892 37.703125Q306.39267 38.8125 306.39267 40.546875L304.20517 40.546875Q304.20517 39.65625 303.45517 39.015625Q302.70517 38.359375 301.54892 38.359375Q300.36142 38.359375 299.68954 38.875Q299.0333 39.390625 299.0333 40.234375Q299.0333 41.015625 299.64267 41.421875Q300.26767 41.8125 301.89267 42.171875Q303.51767 42.53125 304.51767 43.046875Q305.5333 43.546875 306.01767 44.265625Q306.50204 44.96875 306.50204 45.984375Q306.50204 47.6875 305.14267 48.71875Q303.7833 49.734375 301.62704 49.734375Q300.0958 49.734375 298.92392 49.203125Q297.75204 48.65625 297.08017 47.6875Q296.42392 46.71875 296.42392 45.59375L298.5958 45.59375Q298.6583 46.6875 299.4708 47.328125Q300.2833 47.96875 301.62704 47.96875Q302.8458 47.96875 303.5958 47.46875Q304.3458 46.96875 304.3458 46.140625ZM311.31454 49.5L309.14267 49.5L309.14267 36.8125L311.31454 36.8125L311.31454 49.5ZM308.9708 33.453125Q308.9708 32.921875 309.2833 32.5625Q309.61142 32.203125 310.23642 32.203125Q310.87704 32.203125 311.20517 32.5625Q311.5333 32.921875 311.5333 33.453125Q311.5333 33.984375 311.20517 34.34375Q310.87704 34.6875 310.23642 34.6875Q309.61142 34.6875 309.2833 34.34375Q308.9708 33.984375 308.9708 33.453125ZM314.37704 43.046875Q314.37704 41.171875 315.11142 39.6875Q315.8458 38.203125 317.14267 37.390625Q318.45517 36.578125 320.14267 36.578125Q322.7208 36.578125 324.31454 38.375Q325.92392 40.171875 325.92392 43.140625L325.92392 43.296875Q325.92392 45.15625 325.20517 46.625Q324.50204 48.09375 323.18954 48.921875Q321.87704 49.734375 320.1583 49.734375Q317.58017 49.734375 315.9708 47.9375Q314.37704 46.140625 314.37704 43.1875L314.37704 43.046875ZM316.56454 43.296875Q316.56454 45.40625 317.5333 46.6875Q318.51767 47.96875 320.1583 47.96875Q321.81454 47.96875 322.7833 46.671875Q323.75204 45.375 323.75204 43.046875Q323.75204 40.953125 322.76767 39.65625Q321.7833 38.359375 320.14267 38.359375Q318.5333 38.359375 317.54892 39.640625Q316.56454 40.921875 316.56454 43.296875ZM331.00204 36.8125L331.08017 38.40625Q332.5333 36.578125 334.87704 36.578125Q338.89267 36.578125 338.92392 41.125L338.92392 49.5L336.76767 49.5L336.76767 41.109375Q336.75204 39.734375 336.12704 39.078125Q335.51767 38.421875 334.2208 38.421875Q333.1583 38.421875 332.36142 38.984375Q331.56454 39.546875 331.12704 40.46875L331.12704 49.5L328.95517 49.5L328.95517 36.8125L331.00204 36.8125ZM360.8458 44.078125Q360.5333 46.796875 358.8458 48.265625Q357.17392 49.734375 354.37704 49.734375Q351.36142 49.734375 349.5333 47.5625Q347.70517 45.390625 347.70517 41.765625L347.70517 40.125Q347.70517 37.75 348.54892 35.953125Q349.4083 34.140625 350.9708 33.171875Q352.5333 32.203125 354.58017 32.203125Q357.29892 32.203125 358.93954 33.71875Q360.58017 35.234375 360.8458 37.921875L358.58017 37.921875Q358.29892 35.875 357.31454 34.96875Q356.33017 34.046875 354.58017 34.046875Q352.42392 34.046875 351.18954 35.640625Q349.9708 37.234375 349.9708 40.1875L349.9708 41.828125Q349.9708 44.609375 351.12704 46.25Q352.29892 47.890625 354.37704 47.890625Q356.25204 47.890625 357.25204 47.046875Q358.25204 46.1875 358.58017 44.078125L360.8458 44.078125ZM366.12704 38.359375Q367.56454 36.578125 369.87704 36.578125Q373.89267 36.578125 373.92392 41.125L373.92392 49.5L371.76767 49.5L371.76767 41.109375Q371.75204 39.734375 371.12704 39.078125Q370.51767 38.421875 369.2208 38.421875Q368.1583 38.421875 367.36142 38.984375Q366.56454 39.546875 366.12704 40.46875L366.12704 49.5L363.95517 49.5L363.95517 31.5L366.12704 31.5L366.12704 38.359375ZM384.7833 49.5Q384.5958 49.125 384.48642 48.15625Q382.9708 49.734375 380.87704 49.734375Q379.00204 49.734375 377.79892 48.671875Q376.5958 47.609375 376.5958 45.984375Q376.5958 44.0 378.0958 42.90625Q379.61142 41.8125 382.33017 41.8125L384.43954 41.8125L384.43954 40.8125Q384.43954 39.671875 383.75204 39.0Q383.08017 38.328125 381.76767 38.328125Q380.5958 38.328125 379.81454 38.921875Q379.0333 39.5 379.0333 40.328125L376.8458 40.328125Q376.8458 39.390625 377.51767 38.5Q378.20517 37.609375 379.3458 37.09375Q380.50204 36.578125 381.89267 36.578125Q384.08017 36.578125 385.31454 37.6875Q386.56454 38.78125 386.61142 40.703125L386.61142 46.53125Q386.61142 48.28125 387.06454 49.3125L387.06454 49.5L384.7833 49.5ZM381.18954 47.84375Q382.20517 47.84375 383.11142 47.328125Q384.0333 46.796875 384.43954 45.953125L384.43954 43.34375L382.75204 43.34375Q378.76767 43.34375 378.76767 45.671875Q378.76767 46.703125 379.43954 47.28125Q380.12704 47.84375 381.18954 47.84375ZM392.00204 36.8125L392.08017 38.40625Q393.5333 36.578125 395.87704 36.578125Q399.89267 36.578125 399.92392 41.125L399.92392 49.5L397.76767 49.5L397.76767 41.109375Q397.75204 39.734375 397.12704 39.078125Q396.51767 38.421875 395.2208 38.421875Q394.1583 38.421875 393.36142 38.984375Q392.56454 39.546875 392.12704 40.46875L392.12704 49.5L389.95517 49.5L389.95517 36.8125L392.00204 36.8125ZM405.00204 36.8125L405.08017 38.40625Q406.5333 36.578125 408.87704 36.578125Q412.89267 36.578125 412.92392 41.125L412.92392 49.5L410.76767 49.5L410.76767 41.109375Q410.75204 39.734375 410.12704 39.078125Q409.51767 38.421875 408.2208 38.421875Q407.1583 38.421875 406.36142 38.984375Q405.56454 39.546875 405.12704 40.46875L405.12704 49.5L402.95517 49.5L402.95517 36.8125L405.00204 36.8125ZM421.2208 49.734375Q418.64267 49.734375 417.01767 48.046875Q415.4083 46.34375 415.4083 43.515625L415.4083 43.109375Q415.4083 41.21875 416.12704 39.75Q416.8458 38.265625 418.14267 37.421875Q419.43954 36.578125 420.95517 36.578125Q423.42392 36.578125 424.7833 38.21875Q426.1583 39.84375 426.1583 42.875L426.1583 43.78125L417.58017 43.78125Q417.62704 45.65625 418.67392 46.8125Q419.7208 47.96875 421.33017 47.96875Q422.48642 47.96875 423.2833 47.5Q424.08017 47.03125 424.67392 46.25L426.00204 47.28125Q424.4083 49.734375 421.2208 49.734375ZM420.95517 38.359375Q419.64267 38.359375 418.75204 39.328125Q417.86142 40.28125 417.64267 42.0L424.00204 42.0L424.00204 41.828125Q423.9083 40.1875 423.11142 39.28125Q422.31454 38.359375 420.95517 38.359375ZM431.31454 49.5L429.14267 49.5L429.14267 31.5L431.31454 31.5L431.31454 49.5ZM444.20517 32.4375L449.7833 46.359375L455.36142 32.4375L458.2833 32.4375L458.2833 49.5L456.0333 49.5L456.0333 42.859375L456.23642 35.6875L450.64267 49.5L448.9083 49.5L443.33017 35.71875L443.54892 42.859375L443.54892 49.5L441.29892 49.5L441.29892 32.4375L444.20517 32.4375ZM467.2208 49.734375Q464.64267 49.734375 463.01767 48.046875Q461.4083 46.34375 461.4083 43.515625L461.4083 43.109375Q461.4083 41.21875 462.12704 39.75Q462.8458 38.265625 464.14267 37.421875Q465.43954 36.578125 466.95517 36.578125Q469.42392 36.578125 470.7833 38.21875Q472.1583 39.84375 472.1583 42.875L472.1583 43.78125L463.58017 43.78125Q463.62704 45.65625 464.67392 46.8125Q465.7208 47.96875 467.33017 47.96875Q468.48642 47.96875 469.2833 47.5Q470.08017 47.03125 470.67392 46.25L472.00204 47.28125Q470.4083 49.734375 467.2208 49.734375ZM466.95517 38.359375Q465.64267 38.359375 464.75204 39.328125Q463.86142 40.28125 463.64267 42.0L470.00204 42.0L470.00204 41.828125Q469.9083 40.1875 469.11142 39.28125Q468.31454 38.359375 466.95517 38.359375ZM477.00204 36.8125L477.04892 38.21875Q478.45517 36.578125 480.81454 36.578125Q483.4708 36.578125 484.43954 38.625Q485.06454 37.703125 486.08017 37.140625Q487.0958 36.578125 488.48642 36.578125Q492.6583 36.578125 492.7208 41.0L492.7208 49.5L490.54892 49.5L490.54892 41.125Q490.54892 39.765625 489.92392 39.09375Q489.31454 38.421875 487.8458 38.421875Q486.64267 38.421875 485.8458 39.140625Q485.04892 39.859375 484.92392 41.078125L484.92392 49.5L482.73642 49.5L482.73642 41.1875Q482.73642 38.421875 480.0333 38.421875Q477.89267 38.421875 477.11142 40.234375L477.11142 49.5L474.93954 49.5L474.93954 36.8125L477.00204 36.8125ZM506.68954 43.296875Q506.68954 46.203125 505.3458 47.96875Q504.01767 49.734375 501.76767 49.734375Q499.36142 49.734375 498.04892 48.03125L497.95517 49.5L495.95517 49.5L495.95517 31.5L498.12704 31.5L498.12704 38.21875Q499.43954 36.578125 501.73642 36.578125Q504.04892 36.578125 505.36142 38.328125Q506.68954 40.078125 506.68954 43.109375L506.68954 43.296875ZM504.51767 43.046875Q504.51767 40.84375 503.6583 39.640625Q502.81454 38.421875 501.20517 38.421875Q499.06454 38.421875 498.12704 40.421875L498.12704 45.90625Q499.12704 47.890625 501.23642 47.890625Q502.7833 47.890625 503.64267 46.6875Q504.51767 45.484375 504.51767 43.046875ZM514.2208 49.734375Q511.64267 49.734375 510.01767 48.046875Q508.4083 46.34375 508.4083 43.515625L508.4083 43.109375Q508.4083 41.21875 509.12704 39.75Q509.8458 38.265625 511.14267 37.421875Q512.4396 36.578125 513.9552 36.578125Q516.42395 36.578125 517.7833 38.21875Q519.1583 39.84375 519.1583 42.875L519.1583 43.78125L510.58017 43.78125Q510.62704 45.65625 511.67392 46.8125Q512.7208 47.96875 514.3302 47.96875Q515.48645 47.96875 516.2833 47.5Q517.0802 47.03125 517.67395 46.25L519.0021 47.28125Q517.4083 49.734375 514.2208 49.734375ZM513.9552 38.359375Q512.6427 38.359375 511.75204 39.328125Q510.86142 40.28125 510.64267 42.0L517.0021 42.0L517.0021 41.828125Q516.9083 40.1875 516.11145 39.28125Q515.3146 38.359375 513.9552 38.359375ZM528.0802 38.765625Q527.5958 38.6875 527.0177 38.6875Q524.8927 38.6875 524.1271 40.5L524.1271 49.5L521.9552 49.5L521.9552 36.8125L524.0646 36.8125L524.0958 38.28125Q525.17395 36.578125 527.1271 36.578125Q527.7521 36.578125 528.0802 36.75L528.0802 38.765625ZM537.3458 46.140625Q537.3458 45.25 536.67395 44.765625Q536.0177 44.28125 534.36145 43.9375Q532.7208 43.578125 531.7521 43.09375Q530.7833 42.59375 530.3146 41.921875Q529.86145 41.234375 529.86145 40.296875Q529.86145 38.734375 531.17395 37.65625Q532.5021 36.578125 534.54895 36.578125Q536.7052 36.578125 538.04895 37.703125Q539.3927 38.8125 539.3927 40.546875L537.2052 40.546875Q537.2052 39.65625 536.4552 39.015625Q535.7052 38.359375 534.54895 38.359375Q533.36145 38.359375 532.6896 38.875Q532.0333 39.390625 532.0333 40.234375Q532.0333 41.015625 532.6427 41.421875Q533.2677 41.8125 534.8927 42.171875Q536.5177 42.53125 537.5177 43.046875Q538.5333 43.546875 539.0177 44.265625Q539.5021 44.96875 539.5021 45.984375Q539.5021 47.6875 538.1427 48.71875Q536.7833 49.734375 534.6271 49.734375Q533.0958 49.734375 531.92395 49.203125Q530.7521 48.65625 530.0802 47.6875Q529.42395 46.71875 529.42395 45.59375L531.5958 45.59375Q531.6583 46.6875 532.4708 47.328125Q533.2833 47.96875 534.6271 47.96875Q535.8458 47.96875 536.5958 47.46875Q537.3458 46.96875 537.3458 46.140625ZM544.1271 38.359375Q545.5646 36.578125 547.8771 36.578125Q551.8927 36.578125 551.92395 41.125L551.92395 49.5L549.7677 49.5L549.7677 41.109375Q549.7521 39.734375 549.1271 39.078125Q548.5177 38.421875 547.2208 38.421875Q546.1583 38.421875 545.36145 38.984375Q544.5646 39.546875 544.1271 40.46875L544.1271 49.5L541.9552 49.5L541.9552 31.5L544.1271 31.5L544.1271 38.359375ZM557.3146 49.5L555.1427 49.5L555.1427 36.8125L557.3146 36.8125L557.3146 49.5ZM554.9708 33.453125Q554.9708 32.921875 555.2833 32.5625Q555.61145 32.203125 556.23645 32.203125Q556.8771 32.203125 557.2052 32.5625Q557.5333 32.921875 557.5333 33.453125Q557.5333 33.984375 557.2052 34.34375Q556.8771 34.6875 556.23645 34.6875Q555.61145 34.6875 555.2833 34.34375Q554.9708 33.984375 554.9708 33.453125ZM571.67395 43.296875Q571.67395 46.1875 570.3458 47.96875Q569.0177 49.734375 566.7521 49.734375Q564.4552 49.734375 563.1271 48.265625L563.1271 54.375L560.9552 54.375L560.9552 36.8125L562.9396 36.8125L563.04895 38.21875Q564.36145 36.578125 566.7208 36.578125Q569.0021 36.578125 570.3302 38.3125Q571.67395 40.03125 571.67395 43.09375L571.67395 43.296875ZM569.5021 43.046875Q569.5021 40.90625 568.5802 39.671875Q567.67395 38.421875 566.0802 38.421875Q564.11145 38.421875 563.1271 40.171875L563.1271 46.234375Q564.0958 47.96875 566.0958 47.96875Q567.6583 47.96875 568.5802 46.734375Q569.5021 45.484375 569.5021 43.046875ZM573.8771 48.359375Q573.8771 47.796875 574.2052 47.421875Q574.54895 47.046875 575.2052 47.046875Q575.8771 47.046875 576.2208 47.421875Q576.5802 47.796875 576.5802 48.359375Q576.5802 48.90625 576.2208 49.265625Q575.8771 49.625 575.2052 49.625Q574.54895 49.625 574.2052 49.265625Q573.8771 48.90625 573.8771 48.359375ZM573.8927 38.015625Q573.8927 37.453125 574.2208 37.078125Q574.5646 36.703125 575.2208 36.703125Q575.8927 36.703125 576.23645 37.078125Q576.5958 37.453125 576.5958 38.015625Q576.5958 38.5625 576.23645 38.921875Q575.8927 39.28125 575.2208 39.28125Q574.5646 39.28125 574.2208 38.921875Q573.8927 38.5625 573.8927 38.015625ZM599.4083 49.5L597.1427 49.5L597.1427 41.609375L588.54895 41.609375L588.54895 49.5L586.29895 49.5L586.29895 32.4375L588.54895 32.4375L588.54895 39.765625L597.1427 39.765625L597.1427 32.4375L599.4083 32.4375L599.4083 49.5ZM608.2208 49.734375Q605.6427 49.734375 604.0177 48.046875Q602.4083 46.34375 602.4083 43.515625L602.4083 43.109375Q602.4083 41.21875 603.1271 39.75Q603.8458 38.265625 605.1427 37.421875Q606.4396 36.578125 607.9552 36.578125Q610.42395 36.578125 611.7833 38.21875Q613.1583 39.84375 613.1583 42.875L613.1583 43.78125L604.5802 43.78125Q604.6271 45.65625 605.67395 46.8125Q606.7208 47.96875 608.3302 47.96875Q609.48645 47.96875 610.2833 47.5Q611.0802 47.03125 611.67395 46.25L613.0021 47.28125Q611.4083 49.734375 608.2208 49.734375ZM607.9552 38.359375Q606.6427 38.359375 605.7521 39.328125Q604.86145 40.28125 604.6427 42.0L611.0021 42.0L611.0021 41.828125Q610.9083 40.1875 610.11145 39.28125Q609.3146 38.359375 607.9552 38.359375ZM618.3146 49.5L616.1427 49.5L616.1427 31.5L618.3146 31.5L618.3146 49.5ZM632.67395 43.296875Q632.67395 46.1875 631.3458 47.96875Q630.0177 49.734375 627.7521 49.734375Q625.4552 49.734375 624.1271 48.265625L624.1271 54.375L621.9552 54.375L621.9552 36.8125L623.9396 36.8125L624.04895 38.21875Q625.36145 36.578125 627.7208 36.578125Q630.0021 36.578125 631.3302 38.3125Q632.67395 40.03125 632.67395 43.09375L632.67395 43.296875ZM630.5021 43.046875Q630.5021 40.90625 629.5802 39.671875Q628.67395 38.421875 627.0802 38.421875Q625.11145 38.421875 624.1271 40.171875L624.1271 46.234375Q625.0958 47.96875 627.0958 47.96875Q628.6583 47.96875 629.5802 46.734375Q630.5021 45.484375 630.5021 43.046875ZM647.17395 40.34375L651.92395 40.34375L651.92395 42.390625L647.17395 42.390625L647.17395 47.78125L644.98645 47.78125L644.98645 42.390625L640.23645 42.390625L640.23645 40.34375L644.98645 40.34375L644.98645 35.359375L647.17395 35.359375L647.17395 40.34375ZM664.2052 32.4375L669.7833 46.359375L675.36145 32.4375L678.2833 32.4375L678.2833 49.5L676.0333 49.5L676.0333 42.859375L676.23645 35.6875L670.6427 49.5L668.9083 49.5L663.3302 35.71875L663.54895 42.859375L663.54895 49.5L661.29895 49.5L661.29895 32.4375L664.2052 32.4375ZM689.7833 49.5Q689.5958 49.125 689.48645 48.15625Q687.9708 49.734375 685.8771 49.734375Q684.0021 49.734375 682.79895 48.671875Q681.5958 47.609375 681.5958 45.984375Q681.5958 44.0 683.0958 42.90625Q684.61145 41.8125 687.3302 41.8125L689.4396 41.8125L689.4396 40.8125Q689.4396 39.671875 688.7521 39.0Q688.0802 38.328125 686.7677 38.328125Q685.5958 38.328125 684.8146 38.921875Q684.0333 39.5 684.0333 40.328125L681.8458 40.328125Q681.8458 39.390625 682.5177 38.5Q683.2052 37.609375 684.3458 37.09375Q685.5021 36.578125 686.8927 36.578125Q689.0802 36.578125 690.3146 37.6875Q691.5646 38.78125 691.61145 40.703125L691.61145 46.53125Q691.61145 48.28125 692.0646 49.3125L692.0646 49.5L689.7833 49.5ZM686.1896 47.84375Q687.2052 47.84375 688.11145 47.328125Q689.0333 46.796875 689.4396 45.953125L689.4396 43.34375L687.7521 43.34375Q683.7677 43.34375 683.7677 45.671875Q683.7677 46.703125 684.4396 47.28125Q685.1271 47.84375 686.1896 47.84375ZM697.3146 49.5L695.1427 49.5L695.1427 36.8125L697.3146 36.8125L697.3146 49.5ZM694.9708 33.453125Q694.9708 32.921875 695.2833 32.5625Q695.61145 32.203125 696.23645 32.203125Q696.8771 32.203125 697.2052 32.5625Q697.5333 32.921875 697.5333 33.453125Q697.5333 33.984375 697.2052 34.34375Q696.8771 34.6875 696.23645 34.6875Q695.61145 34.6875 695.2833 34.34375Q694.9708 33.984375 694.9708 33.453125ZM703.0021 36.8125L703.0802 38.40625Q704.5333 36.578125 706.8771 36.578125Q710.8927 36.578125 710.92395 41.125L710.92395 49.5L708.7677 49.5L708.7677 41.109375Q708.7521 39.734375 708.1271 39.078125Q707.5177 38.421875 706.2208 38.421875Q705.1583 38.421875 704.36145 38.984375Q703.5646 39.546875 703.1271 40.46875L703.1271 49.5L700.9552 49.5L700.9552 36.8125L703.0021 36.8125ZM732.8927 47.265625Q732.0333 48.5 730.4708 49.125Q728.92395 49.734375 726.86145 49.734375Q724.7677 49.734375 723.1427 48.765625Q721.5333 47.78125 720.6427 45.984375Q719.7677 44.171875 719.7521 41.78125L719.7521 40.296875Q719.7521 36.4375 721.54895 34.328125Q723.3458 32.203125 726.5958 32.203125Q729.2677 32.203125 730.8927 33.578125Q732.5333 34.9375 732.8927 37.4375L730.6427 37.4375Q730.0177 34.046875 726.61145 34.046875Q724.3458 34.046875 723.17395 35.640625Q722.0177 37.234375 722.0021 40.234375L722.0021 41.640625Q722.0021 44.5 723.3146 46.203125Q724.6271 47.890625 726.8771 47.890625Q728.1427 47.890625 729.0802 47.609375Q730.0333 47.328125 730.6583 46.65625L730.6583 42.828125L726.7052 42.828125L726.7052 41.0L732.8927 41.0L732.8927 47.265625ZM738.3146 49.5L736.1427 49.5L736.1427 36.8125L738.3146 36.8125L738.3146 49.5ZM735.9708 33.453125Q735.9708 32.921875 736.2833 32.5625Q736.61145 32.203125 737.23645 32.203125Q737.8771 32.203125 738.2052 32.5625Q738.5333 32.921875 738.5333 33.453125Q738.5333 33.984375 738.2052 34.34375Q737.8771 34.6875 737.23645 34.6875Q736.61145 34.6875 736.2833 34.34375Q735.9708 33.984375 735.9708 33.453125ZM744.8927 33.75L744.8927 36.8125L747.2677 36.8125L747.2677 38.5L744.8927 38.5L744.8927 46.359375Q744.8927 47.125 745.2052 47.5Q745.5333 47.875 746.29895 47.875Q746.67395 47.875 747.3302 47.734375L747.3302 49.5Q746.4708 49.734375 745.6583 49.734375Q744.2052 49.734375 743.4708 48.859375Q742.73645 47.96875 742.73645 46.359375L742.73645 38.5L740.42395 38.5L740.42395 36.8125L742.73645 36.8125L742.73645 33.75L744.8927 33.75ZM752.8927 33.75L752.8927 36.8125L755.2677 36.8125L755.2677 38.5L752.8927 38.5L752.8927 46.359375Q752.8927 47.125 753.2052 47.5Q753.5333 47.875 754.29895 47.875Q754.67395 47.875 755.3302 47.734375L755.3302 49.5Q754.4708 49.734375 753.6583 49.734375Q752.2052 49.734375 751.4708 48.859375Q750.73645 47.96875 750.73645 46.359375L750.73645 38.5L748.42395 38.5L748.42395 36.8125L750.73645 36.8125L750.73645 33.75L752.8927 33.75ZM763.2208 49.734375Q760.6427 49.734375 759.0177 48.046875Q757.4083 46.34375 757.4083 43.515625L757.4083 43.109375Q757.4083 41.21875 758.1271 39.75Q758.8458 38.265625 760.1427 37.421875Q761.4396 36.578125 762.9552 36.578125Q765.42395 36.578125 766.7833 38.21875Q768.1583 39.84375 768.1583 42.875L768.1583 43.78125L759.5802 43.78125Q759.6271 45.65625 760.67395 46.8125Q761.7208 47.96875 763.3302 47.96875Q764.48645 47.96875 765.2833 47.5Q766.0802 47.03125 766.67395 46.25L768.0021 47.28125Q766.4083 49.734375 763.2208 49.734375ZM762.9552 38.359375Q761.6427 38.359375 760.7521 39.328125Q759.86145 40.28125 759.6427 42.0L766.0021 42.0L766.0021 41.828125Q765.9083 40.1875 765.11145 39.28125Q764.3146 38.359375 762.9552 38.359375ZM777.0802 38.765625Q776.5958 38.6875 776.0177 38.6875Q773.8927 38.6875 773.1271 40.5L773.1271 49.5L770.9552 49.5L770.9552 36.8125L773.0646 36.8125L773.0958 38.28125Q774.17395 36.578125 776.1271 36.578125Q776.7521 36.578125 777.0802 36.75L777.0802 38.765625Z" fill-rule="nonzero"/></svg>