<svg version="1.1" viewBox="0.0 0.0 638.0 556.0" fill="none" stroke="none" stroke-linecap="square" stroke-miterlimit="10" width="638" height="556" xmlns:xlink="http://www.w3.org/1999/xlink" xmlns="http://www.w3.org/2000/svg"><path fill="#000000" d="M0 0L638.0 0L638.0 556.0L0 556.0L0 0Z" fill-rule="nonzero"/><path stroke="#333333" stroke-width="1.0" stroke-linecap="butt" d="M128.5 135.5L128.5 455.5" fill-rule="nonzero"/><path stroke="#333333" stroke-width="1.0" stroke-linecap="butt" d="M200.5 135.5L200.5 455.5" fill-rule="nonzero"/><path stroke="#333333" stroke-width="1.0" stroke-linecap="butt" d="M273.5 135.5L273.5 455.5" fill-rule="nonzero"/><path stroke="#333333" stroke-width="1.0" stroke-linecap="butt" d="M345.5 135.5L345.5 455.5" fill-rule="nonzero"/><path stroke="#333333" stroke-width="1.0" stroke-linecap="butt" d="M418.5 135.5L418.5 455.5" fill-rule="nonzero"/><path stroke="#333333" stroke-width="1.0" stroke-linecap="butt" d="M490.5 135.5L490.5 455.5" fill-rule="nonzero"/><path stroke="#333333" stroke-width="1.0" stroke-linecap="butt" d="M563.5 135.5L563.5 455.5" fill-rule="nonzero"/><path stroke="#cccccc" stroke-width="1.0" stroke-linecap="butt" d="M86.5 455.5L610.5 455.5" fill-rule="nonzero"/><path stroke="#333333" stroke-width="1.0" stroke-linecap="butt" d="M86.5 375.5L610.5 375.5" fill-rule="nonzero"/><path stroke="#333333" stroke-width="1.0" stroke-linecap="butt" d="M86.5 295.5L610.5 295.5" fill-rule="nonzero"/><path stroke="#333333" stroke-width="1.0" stroke-linecap="butt" d="M86.5 215.5L610.5 215.5" fill-rule="nonzero"/><path stroke="#333333" stroke-width="1.0" stroke-linecap="butt" d="M86.5 135.5L610.5 135.5" fill-rule="nonzero"/><clipPath id="id_0"><path d="M86.8 135.86667L610.2 135.86667L610.2 455.6763L86.8 455.6763L86.8 135.86667Z" clip-rule="nonzero"/></clipPath><path stroke="#a4c2f4" stroke-width="4.0" stroke-linecap="butt" clip-path="url(#id_0)" d="M91.70626 374.5086C91.70626 374.5086 103.87784 371.84354 109.96362 369.8394C116.04941 367.83527 122.13519 364.95596 128.22098 362.48376C134.30676 360.01157 152.16724 351.57956 164.14035 347.77252C176.11348 343.9655 194.76773 342.09402 206.807 338.1143C218.84628 334.13452 232.80391 325.32062 242.92484 322.41162C253.04576 319.50262 263.1667 321.1514 273.28763 318.15814C283.40854 315.16492 297.23386 307.00568 309.207 301.94382C321.1801 296.88196 333.7486 295.32196 345.7217 287.55237C357.69482 279.7828 369.66797 262.14294 381.64108 255.09169C393.6142 248.04045 406.18268 249.75566 418.1558 245.08165C430.1289 240.40765 442.10205 232.17195 454.07516 226.88449C466.04828 221.59703 478.4183 217.05002 490.58987 213.13268C502.76147 209.21533 522.7387 203.67998 532.8596 201.8434C542.9806 200.00682 553.1015 200.70299 563.2224 198.93312C573.3434 197.16325 605.29376 188.25148 605.29376 188.25148" fill-rule="nonzero"/><path stroke="#dc3912" stroke-width="4.0" stroke-linecap="butt" clip-path="url(#id_0)" d="M91.70626 447.55313C91.70626 447.55313 103.87784 447.15338 109.96362 446.9455C116.04941 446.7376 122.13519 446.52628 128.22098 446.30588C134.30676 446.08548 152.16724 445.38846 164.14035 444.96268C176.11348 444.5369 194.76773 444.03574 206.807 443.52353C218.84628 443.01135 232.80391 442.07776 242.92484 441.66864C253.04576 441.2595 263.1667 441.06207 273.28763 440.77316C283.40854 440.48425 297.23386 440.04138 309.207 439.78177C321.1801 439.52216 333.7486 439.60962 345.7217 439.20612C357.69482 438.80258 369.66797 437.7757 381.64108 437.3512C393.6142 436.9267 406.18268 436.95486 418.1558 436.6476C430.1289 436.3404 442.10205 435.75635 454.07516 435.4963C466.04828 435.23627 478.4183 435.18668 490.58987 435.08057C502.76147 434.97443 522.7387 434.9886 532.8596 434.8247C542.9806 434.66083 553.1015 434.2892 563.2224 434.02518C573.3434 433.76114 605.29376 432.93784 605.29376 432.93784" fill-rule="nonzero"/><path fill="#a4c2f4" clip-path="url(#id_0)" d="M95.20626 374.5086C95.20626 376.44162 93.63926 378.0086 91.70626 378.0086C89.77326 378.0086 88.20626 376.44162 88.20626 374.5086C88.20626 372.57562 89.77326 371.0086 91.70626 371.0086C93.63926 371.0086 95.20626 372.57562 95.20626 374.5086Z" fill-rule="nonzero"/><path fill="#a4c2f4" clip-path="url(#id_0)" d="M113.46362 369.8394C113.46362 371.7724 111.89662 373.3394 109.96362 373.3394C108.030624 373.3394 106.46362 371.7724 106.46362 369.8394C106.46362 367.9064 108.030624 366.3394 109.96362 366.3394C111.89662 366.3394 113.46362 367.9064 113.46362 369.8394Z" fill-rule="nonzero"/><path fill="#a4c2f4" clip-path="url(#id_0)" d="M131.72098 362.48376C131.72098 364.41678 130.15398 365.98376 128.22098 365.98376C126.28799 365.98376 124.720985 364.41678 124.720985 362.48376C124.720985 360.55078 126.28799 358.98376 128.22098 358.98376C130.15398 358.98376 131.72098 360.55078 131.72098 362.48376Z" fill-rule="nonzero"/><path fill="#a4c2f4" clip-path="url(#id_0)" d="M167.64035 347.77252C167.64035 349.70554 166.07335 351.27252 164.14035 351.27252C162.20735 351.27252 160.64035 349.70554 160.64035 347.77252C160.64035 345.83954 162.20735 344.27252 164.14035 344.27252C166.07335 344.27252 167.64035 345.83954 167.64035 347.77252Z" fill-rule="nonzero"/><path fill="#a4c2f4" clip-path="url(#id_0)" d="M210.307 338.1143C210.307 340.04727 208.74 341.6143 206.807 341.6143C204.87401 341.6143 203.307 340.04727 203.307 338.1143C203.307 336.18127 204.87401 334.6143 206.807 334.6143C208.74 334.6143 210.307 336.18127 210.307 338.1143Z" fill-rule="nonzero"/><path fill="#a4c2f4" clip-path="url(#id_0)" d="M246.42484 322.41162C246.42484 324.34464 244.85783 325.91162 242.92484 325.91162C240.99184 325.91162 239.42484 324.34464 239.42484 322.41162C239.42484 320.47864 240.99184 318.91162 242.92484 318.91162C244.85783 318.91162 246.42484 320.47864 246.42484 322.41162Z" fill-rule="nonzero"/><path fill="#a4c2f4" clip-path="url(#id_0)" d="M276.78763 318.15814C276.78763 320.09116 275.2206 321.65814 273.28763 321.65814C271.3546 321.65814 269.78763 320.09116 269.78763 318.15814C269.78763 316.22516 271.3546 314.65814 273.28763 314.65814C275.2206 314.65814 276.78763 316.22516 276.78763 318.15814Z" fill-rule="nonzero"/><path fill="#a4c2f4" clip-path="url(#id_0)" d="M312.707 301.94382C312.707 303.8768 311.13998 305.44382 309.207 305.44382C307.274 305.44382 305.707 303.8768 305.707 301.94382C305.707 300.0108 307.274 298.44382 309.207 298.44382C311.13998 298.44382 312.707 300.0108 312.707 301.94382Z" fill-rule="nonzero"/><path fill="#a4c2f4" clip-path="url(#id_0)" d="M349.2217 287.55237C349.2217 289.48538 347.6547 291.05237 345.7217 291.05237C343.7887 291.05237 342.2217 289.48538 342.2217 287.55237C342.2217 285.6194 343.7887 284.05237 345.7217 284.05237C347.6547 284.05237 349.2217 285.6194 349.2217 287.55237Z" fill-rule="nonzero"/><path fill="#a4c2f4" clip-path="url(#id_0)" d="M385.14108 255.09169C385.14108 257.0247 383.57407 258.5917 381.64108 258.5917C379.70807 258.5917 378.14108 257.0247 378.14108 255.09169C378.14108 253.1587 379.70807 251.59169 381.64108 251.59169C383.57407 251.59169 385.14108 253.1587 385.14108 255.09169Z" fill-rule="nonzero"/><path fill="#a4c2f4" clip-path="url(#id_0)" d="M421.6558 245.08165C421.6558 247.01465 420.0888 248.58165 418.1558 248.58165C416.2228 248.58165 414.6558 247.01465 414.6558 245.08165C414.6558 243.14867 416.2228 241.58165 418.1558 241.58165C420.0888 241.58165 421.6558 243.14867 421.6558 245.08165Z" fill-rule="nonzero"/><path fill="#a4c2f4" clip-path="url(#id_0)" d="M457.57516 226.88449C457.57516 228.81749 456.00818 230.38449 454.07516 230.38449C452.14218 230.38449 450.57516 228.81749 450.57516 226.88449C450.57516 224.95149 452.14218 223.38449 454.07516 223.38449C456.00818 223.38449 457.57516 224.95149 457.57516 226.88449Z" fill-rule="nonzero"/><path fill="#a4c2f4" clip-path="url(#id_0)" d="M494.08987 213.13268C494.08987 215.06567 492.5229 216.63268 490.58987 216.63268C488.6569 216.63268 487.08987 215.06567 487.08987 213.13268C487.08987 211.19968 488.6569 209.63268 490.58987 209.63268C492.5229 209.63268 494.08987 211.19968 494.08987 213.13268Z" fill-rule="nonzero"/><path fill="#a4c2f4" clip-path="url(#id_0)" d="M536.3596 201.8434C536.3596 203.7764 534.79266 205.3434 532.8596 205.3434C530.92664 205.3434 529.3596 203.7764 529.3596 201.8434C529.3596 199.9104 530.92664 198.3434 532.8596 198.3434C534.79266 198.3434 536.3596 199.9104 536.3596 201.8434Z" fill-rule="nonzero"/><path fill="#a4c2f4" clip-path="url(#id_0)" d="M566.7224 198.93312C566.7224 200.86612 565.15546 202.43312 563.2224 202.43312C561.2894 202.43312 559.7224 200.86612 559.7224 198.93312C559.7224 197.00012 561.2894 195.43312 563.2224 195.43312C565.15546 195.43312 566.7224 197.00012 566.7224 198.93312Z" fill-rule="nonzero"/><path fill="#a4c2f4" clip-path="url(#id_0)" d="M608.79376 188.25148C608.79376 190.18448 607.22675 191.75148 605.29376 191.75148C603.3607 191.75148 601.79376 190.18448 601.79376 188.25148C601.79376 186.31848 603.3607 184.75148 605.29376 184.75148C607.22675 184.75148 608.79376 186.31848 608.79376 188.25148Z" fill-rule="nonzero"/><path fill="#dc3912" clip-path="url(#id_0)" d="M95.20626 447.55313C95.20626 449.48615 93.63926 451.05313 91.70626 451.05313C89.77326 451.05313 88.20626 449.48615 88.20626 447.55313C88.20626 445.62015 89.77326 444.05313 91.70626 444.05313C93.63926 444.05313 95.20626 445.62015 95.20626 447.55313Z" fill-rule="nonzero"/><path fill="#dc3912" clip-path="url(#id_0)" d="M113.46362 446.9455C113.46362 448.87848 111.89662 450.4455 109.96362 450.4455C108.030624 450.4455 106.46362 448.87848 106.46362 446.9455C106.46362 445.0125 108.030624 443.4455 109.96362 443.4455C111.89662 443.4455 113.46362 445.0125 113.46362 446.9455Z" fill-rule="nonzero"/><path fill="#dc3912" clip-path="url(#id_0)" d="M131.72098 446.30588C131.72098 448.23886 130.15398 449.80588 128.22098 449.80588C126.28799 449.80588 124.720985 448.23886 124.720985 446.30588C124.720985 444.3729 126.28799 442.80588 128.22098 442.80588C130.15398 442.80588 131.72098 444.3729 131.72098 446.30588Z" fill-rule="nonzero"/><path fill="#dc3912" clip-path="url(#id_0)" d="M167.64035 444.96268C167.64035 446.89566 166.07335 448.46268 164.14035 448.46268C162.20735 448.46268 160.64035 446.89566 160.64035 444.96268C160.64035 443.0297 162.20735 441.46268 164.14035 441.46268C166.07335 441.46268 167.64035 443.0297 167.64035 444.96268Z" fill-rule="nonzero"/><path fill="#dc3912" clip-path="url(#id_0)" d="M210.307 443.52353C210.307 445.45654 208.74 447.02353 206.807 447.02353C204.87401 447.02353 203.307 445.45654 203.307 443.52353C203.307 441.59055 204.87401 440.02353 206.807 440.02353C208.74 440.02353 210.307 441.59055 210.307 443.52353Z" fill-rule="nonzero"/><path fill="#dc3912" clip-path="url(#id_0)" d="M246.42484 441.66864C246.42484 443.60162 244.85783 445.16864 242.92484 445.16864C240.99184 445.16864 239.42484 443.60162 239.42484 441.66864C239.42484 439.73563 240.99184 438.16864 242.92484 438.16864C244.85783 438.16864 246.42484 439.73563 246.42484 441.66864Z" fill-rule="nonzero"/><path fill="#dc3912" clip-path="url(#id_0)" d="M276.78763 440.77316C276.78763 442.70618 275.2206 444.27316 273.28763 444.27316C271.3546 444.27316 269.78763 442.70618 269.78763 440.77316C269.78763 438.84018 271.3546 437.27316 273.28763 437.27316C275.2206 437.27316 276.78763 438.84018 276.78763 440.77316Z" fill-rule="nonzero"/><path fill="#dc3912" clip-path="url(#id_0)" d="M312.707 439.78177C312.707 441.71475 311.13998 443.28177 309.207 443.28177C307.274 443.28177 305.707 441.71475 305.707 439.78177C305.707 437.84875 307.274 436.28177 309.207 436.28177C311.13998 436.28177 312.707 437.84875 312.707 439.78177Z" fill-rule="nonzero"/><path fill="#dc3912" clip-path="url(#id_0)" d="M349.2217 439.20612C349.2217 441.1391 347.6547 442.70612 345.7217 442.70612C343.7887 442.70612 342.2217 441.1391 342.2217 439.20612C342.2217 437.2731 343.7887 435.70612 345.7217 435.70612C347.6547 435.70612 349.2217 437.2731 349.2217 439.20612Z" fill-rule="nonzero"/><path fill="#dc3912" clip-path="url(#id_0)" d="M385.14108 437.3512C385.14108 439.2842 383.57407 440.8512 381.64108 440.8512C379.70807 440.8512 378.14108 439.2842 378.14108 437.3512C378.14108 435.4182 379.70807 433.8512 381.64108 433.8512C383.57407 433.8512 385.14108 435.4182 385.14108 437.3512Z" fill-rule="nonzero"/><path fill="#dc3912" clip-path="url(#id_0)" d="M421.6558 436.6476C421.6558 438.58063 420.0888 440.1476 418.1558 440.1476C416.2228 440.1476 414.6558 438.58063 414.6558 436.6476C414.6558 434.71463 416.2228 433.1476 418.1558 433.1476C420.0888 433.1476 421.6558 434.71463 421.6558 436.6476Z" fill-rule="nonzero"/><path fill="#dc3912" clip-path="url(#id_0)" d="M457.57516 435.4963C457.57516 437.42932 456.00818 438.9963 454.07516 438.9963C452.14218 438.9963 450.57516 437.42932 450.57516 435.4963C450.57516 433.56332 452.14218 431.9963 454.07516 431.9963C456.00818 431.9963 457.57516 433.56332 457.57516 435.4963Z" fill-rule="nonzero"/><path fill="#dc3912" clip-path="url(#id_0)" d="M494.08987 435.08057C494.08987 437.01355 492.5229 438.58057 490.58987 438.58057C488.6569 438.58057 487.08987 437.01355 487.08987 435.08057C487.08987 433.14755 488.6569 431.58057 490.58987 431.58057C492.5229 431.58057 494.08987 433.14755 494.08987 435.08057Z" fill-rule="nonzero"/><path fill="#dc3912" clip-path="url(#id_0)" d="M536.3596 434.8247C536.3596 436.75772 534.79266 438.3247 532.8596 438.3247C530.92664 438.3247 529.3596 436.75772 529.3596 434.8247C529.3596 432.89172 530.92664 431.3247 532.8596 431.3247C534.79266 431.3247 536.3596 432.89172 536.3596 434.8247Z" fill-rule="nonzero"/><path fill="#dc3912" clip-path="url(#id_0)" d="M566.7224 434.02518C566.7224 435.9582 565.15546 437.52518 563.2224 437.52518C561.2894 437.52518 559.7224 435.9582 559.7224 434.02518C559.7224 432.0922 561.2894 430.52518 563.2224 430.52518C565.15546 430.52518 566.7224 432.0922 566.7224 434.02518Z" fill-rule="nonzero"/><path fill="#dc3912" clip-path="url(#id_0)" d="M608.79376 432.93784C608.79376 434.87082 607.22675 436.43784 605.29376 436.43784C603.3607 436.43784 601.79376 434.87082 601.79376 432.93784C601.79376 431.00482 603.3607 429.43784 605.29376 429.43784C607.22675 429.43784 608.79376 431.00482 608.79376 432.93784Z" fill-rule="nonzero"/><path fill="#d9d9d9" d="M76.89375 456.22318Q76.89375 459.06693 75.90938 460.45755Q74.94063 461.84818 72.8625 461.84818Q70.81563 461.84818 69.83125 460.4888Q68.84688 459.12943 68.81563 456.44193L68.81563 454.27005Q68.81563 451.44193 69.78438 450.08255Q70.76875 448.70755 72.84688 448.70755Q74.90938 448.70755 75.87813 450.03568Q76.8625 451.34818 76.89375 454.1138L76.89375 456.22318ZM75.26875 453.9888Q75.26875 451.9263 74.675 450.9888Q74.09688 450.03568 72.84688 450.03568Q71.59688 450.03568 71.01875 450.9888Q70.45625 451.9263 70.44063 453.8638L70.44063 456.47318Q70.44063 458.5513 71.03438 459.53568Q71.64375 460.52005 72.8625 460.52005Q74.06563 460.52005 74.64375 459.59818Q75.2375 458.66068 75.26875 456.66068L75.26875 453.9888Z" fill-rule="nonzero"/><path fill="#d9d9d9" d="M47.253124 381.72388L38.8625 381.72388L38.8625 380.552L43.3 375.63013Q44.284374 374.52075 44.64375 373.81763Q45.01875 373.1145 45.01875 372.3645Q45.01875 371.3645 44.409374 370.72388Q43.815624 370.08325 42.8 370.08325Q41.58125 370.08325 40.909374 370.78638Q40.2375 371.47388 40.2375 372.69263L38.6125 372.69263Q38.6125 370.927 39.753124 369.84888Q40.89375 368.75513 42.8 368.75513Q44.58125 368.75513 45.6125 369.69263Q46.659374 370.63013 46.659374 372.177Q46.659374 374.06763 44.253124 376.677L40.83125 380.39575L47.253124 380.39575L47.253124 381.72388ZM49.6125 375.302L50.26875 368.927L56.815624 368.927L56.815624 370.427L51.64375 370.427L51.253124 373.91138Q52.190624 373.3645 53.39375 373.3645Q55.14375 373.3645 56.159374 374.52075Q57.190624 375.677 57.190624 377.64575Q57.190624 379.63013 56.128124 380.77075Q55.065624 381.89575 53.14375 381.89575Q51.440624 381.89575 50.3625 380.95825Q49.3 380.02075 49.159374 378.3645L50.690624 378.3645Q50.846874 379.45825 51.471874 380.02075Q52.1125 380.56763 53.14375 380.56763Q54.284374 380.56763 54.925 379.802Q55.565624 379.02075 55.565624 377.66138Q55.565624 376.38013 54.8625 375.59888Q54.175 374.81763 53.01875 374.81763Q51.95625 374.81763 51.346874 375.28638L50.909374 375.64575L49.6125 375.302ZM66.89375 376.27075Q66.89375 379.1145 65.90938 380.50513Q64.94063 381.89575 62.8625 381.89575Q60.815624 381.89575 59.83125 380.53638Q58.846874 379.177 58.815624 376.4895L58.815624 374.31763Q58.815624 371.4895 59.784374 370.13013Q60.76875 368.75513 62.846874 368.75513Q64.90938 368.75513 65.87813 370.08325Q66.8625 371.39575 66.89375 374.16138L66.89375 376.27075ZM65.26875 374.03638Q65.26875 371.97388 64.675 371.03638Q64.09688 370.08325 62.846874 370.08325Q61.596874 370.08325 61.01875 371.03638Q60.45625 371.97388 60.440624 373.91138L60.440624 376.52075Q60.440624 378.59888 61.034374 379.58325Q61.64375 380.56763 62.8625 380.56763Q64.06563 380.56763 64.64375 379.64575Q65.2375 378.70825 65.26875 376.70825L65.26875 374.03638ZM76.89375 376.27075Q76.89375 379.1145 75.90938 380.50513Q74.94063 381.89575 72.8625 381.89575Q70.81563 381.89575 69.83125 380.53638Q68.84688 379.177 68.81563 376.4895L68.81563 374.31763Q68.81563 371.4895 69.78438 370.13013Q70.76875 368.75513 72.84688 368.75513Q74.90938 368.75513 75.87813 370.08325Q76.8625 371.39575 76.89375 374.16138L76.89375 376.27075ZM75.26875 374.03638Q75.26875 371.97388 74.675 371.03638Q74.09688 370.08325 72.84688 370.08325Q71.59688 370.08325 71.01875 371.03638Q70.45625 371.97388 70.44063 373.91138L70.44063 376.52075Q70.44063 378.59888 71.03438 379.58325Q71.64375 380.56763 72.8625 380.56763Q74.06563 380.56763 74.64375 379.64575Q75.2375 378.70825 75.26875 376.70825L75.26875 374.03638Z" fill-rule="nonzero"/><path fill="#d9d9d9" d="M39.6125 295.3496L40.26875 288.9746L46.815624 288.9746L46.815624 290.4746L41.64375 290.4746L41.253124 293.95898Q42.190624 293.4121 43.39375 293.4121Q45.14375 293.4121 46.159374 294.56836Q47.190624 295.7246 47.190624 297.69336Q47.190624 299.67773 46.128124 300.81836Q45.065624 301.94336 43.14375 301.94336Q41.440624 301.94336 40.3625 301.00586Q39.3 300.06836 39.159374 298.4121L40.690624 298.4121Q40.846874 299.50586 41.471874 300.06836Q42.1125 300.61523 43.14375 300.61523Q44.284374 300.61523 44.925 299.8496Q45.565624 299.06836 45.565624 297.70898Q45.565624 296.42773 44.8625 295.64648Q44.175 294.86523 43.01875 294.86523Q41.95625 294.86523 41.346874 295.33398L40.909374 295.69336L39.6125 295.3496ZM56.89375 296.31836Q56.89375 299.1621 55.909374 300.55273Q54.940624 301.94336 52.8625 301.94336Q50.815624 301.94336 49.83125 300.58398Q48.846874 299.2246 48.815624 296.5371L48.815624 294.36523Q48.815624 291.5371 49.784374 290.17773Q50.76875 288.80273 52.846874 288.80273Q54.909374 288.80273 55.878124 290.13086Q56.8625 291.44336 56.89375 294.20898L56.89375 296.31836ZM55.26875 294.08398Q55.26875 292.02148 54.675 291.08398Q54.096874 290.13086 52.846874 290.13086Q51.596874 290.13086 51.01875 291.08398Q50.45625 292.02148 50.440624 293.95898L50.440624 296.56836Q50.440624 298.64648 51.034374 299.63086Q51.64375 300.61523 52.8625 300.61523Q54.065624 300.61523 54.64375 299.69336Q55.2375 298.75586 55.26875 296.75586L55.26875 294.08398ZM66.89375 296.31836Q66.89375 299.1621 65.90938 300.55273Q64.94063 301.94336 62.8625 301.94336Q60.815624 301.94336 59.83125 300.58398Q58.846874 299.2246 58.815624 296.5371L58.815624 294.36523Q58.815624 291.5371 59.784374 290.17773Q60.76875 288.80273 62.846874 288.80273Q64.90938 288.80273 65.87813 290.13086Q66.8625 291.44336 66.89375 294.20898L66.89375 296.31836ZM65.26875 294.08398Q65.26875 292.02148 64.675 291.08398Q64.09688 290.13086 62.846874 290.13086Q61.596874 290.13086 61.01875 291.08398Q60.45625 292.02148 60.440624 293.95898L60.440624 296.56836Q60.440624 298.64648 61.034374 299.63086Q61.64375 300.61523 62.8625 300.61523Q64.06563 300.61523 64.64375 299.69336Q65.2375 298.75586 65.26875 296.75586L65.26875 294.08398ZM76.89375 296.31836Q76.89375 299.1621 75.90938 300.55273Q74.94063 301.94336 72.8625 301.94336Q70.81563 301.94336 69.83125 300.58398Q68.84688 299.2246 68.81563 296.5371L68.81563 294.36523Q68.81563 291.5371 69.78438 290.17773Q70.76875 288.80273 72.84688 288.80273Q74.90938 288.80273 75.87813 290.13086Q76.8625 291.44336 76.89375 294.20898L76.89375 296.31836ZM75.26875 294.08398Q75.26875 292.02148 74.675 291.08398Q74.09688 290.13086 72.84688 290.13086Q71.59688 290.13086 71.01875 291.08398Q70.45625 292.02148 70.44063 293.95898L70.44063 296.56836Q70.44063 298.64648 71.03438 299.63086Q71.64375 300.61523 72.8625 300.61523Q74.06563 300.61523 74.64375 299.69336Q75.2375 298.75586 75.26875 296.75586L75.26875 294.08398Z" fill-rule="nonzero"/><path fill="#d9d9d9" d="M47.128124 209.92845L41.83125 221.81908L40.128124 221.81908L45.409374 210.35033L38.471874 210.35033L38.471874 209.0222L47.128124 209.0222L47.128124 209.92845ZM49.6125 215.3972L50.26875 209.0222L56.815624 209.0222L56.815624 210.5222L51.64375 210.5222L51.253124 214.00658Q52.190624 213.4597 53.39375 213.4597Q55.14375 213.4597 56.159374 214.61595Q57.190624 215.7722 57.190624 217.74095Q57.190624 219.72533 56.128124 220.86595Q55.065624 221.99095 53.14375 221.99095Q51.440624 221.99095 50.3625 221.05345Q49.3 220.11595 49.159374 218.4597L50.690624 218.4597Q50.846874 219.55345 51.471874 220.11595Q52.1125 220.66283 53.14375 220.66283Q54.284374 220.66283 54.925 219.8972Q55.565624 219.11595 55.565624 217.75658Q55.565624 216.47533 54.8625 215.69408Q54.175 214.91283 53.01875 214.91283Q51.95625 214.91283 51.346874 215.38158L50.909374 215.74095L49.6125 215.3972ZM66.89375 216.36595Q66.89375 219.2097 65.90938 220.60033Q64.94063 221.99095 62.8625 221.99095Q60.815624 221.99095 59.83125 220.63158Q58.846874 219.2722 58.815624 216.5847L58.815624 214.41283Q58.815624 211.5847 59.784374 210.22533Q60.76875 208.85033 62.846874 208.85033Q64.90938 208.85033 65.87813 210.17845Q66.8625 211.49095 66.89375 214.25658L66.89375 216.36595ZM65.26875 214.13158Q65.26875 212.06908 64.675 211.13158Q64.09688 210.17845 62.846874 210.17845Q61.596874 210.17845 61.01875 211.13158Q60.45625 212.06908 60.440624 214.00658L60.440624 216.61595Q60.440624 218.69408 61.034374 219.67845Q61.64375 220.66283 62.8625 220.66283Q64.06563 220.66283 64.64375 219.74095Q65.2375 218.80345 65.26875 216.80345L65.26875 214.13158ZM76.89375 216.36595Q76.89375 219.2097 75.90938 220.60033Q74.94063 221.99095 72.8625 221.99095Q70.81563 221.99095 69.83125 220.63158Q68.84688 219.2722 68.81563 216.5847L68.81563 214.41283Q68.81563 211.5847 69.78438 210.22533Q70.76875 208.85033 72.84688 208.85033Q74.90938 208.85033 75.87813 210.17845Q76.8625 211.49095 76.89375 214.25658L76.89375 216.36595ZM75.26875 214.13158Q75.26875 212.06908 74.675 211.13158Q74.09688 210.17845 72.84688 210.17845Q71.59688 210.17845 71.01875 211.13158Q70.45625 212.06908 70.44063 214.00658L70.44063 216.61595Q70.44063 218.69408 71.03438 219.67845Q71.64375 220.66283 72.8625 220.66283Q74.06563 220.66283 74.64375 219.74095Q75.2375 218.80345 75.26875 216.80345L75.26875 214.13158Z" fill-rule="nonzero"/><path fill="#d9d9d9" d="M34.20625 141.86667L32.565624 141.86667L32.565624 131.02292L29.3 132.22604L29.3 130.7573L33.95625 129.0073L34.20625 129.0073L34.20625 141.86667ZM46.89375 136.41354Q46.89375 139.2573 45.909374 140.64792Q44.940624 142.03854 42.8625 142.03854Q40.815624 142.03854 39.83125 140.67917Q38.846874 139.3198 38.815624 136.6323L38.815624 134.46042Q38.815624 131.6323 39.784374 130.27292Q40.76875 128.89792 42.846874 128.89792Q44.909374 128.89792 45.878124 130.22604Q46.8625 131.53854 46.89375 134.30417L46.89375 136.41354ZM45.26875 134.17917Q45.26875 132.11667 44.675 131.17917Q44.096874 130.22604 42.846874 130.22604Q41.596874 130.22604 41.01875 131.17917Q40.45625 132.11667 40.440624 134.05417L40.440624 136.66354Q40.440624 138.74167 41.034374 139.72604Q41.64375 140.71042 42.8625 140.71042Q44.065624 140.71042 44.64375 139.78854Q45.2375 138.85104 45.26875 136.85104L45.26875 134.17917ZM56.89375 136.41354Q56.89375 139.2573 55.909374 140.64792Q54.940624 142.03854 52.8625 142.03854Q50.815624 142.03854 49.83125 140.67917Q48.846874 139.3198 48.815624 136.6323L48.815624 134.46042Q48.815624 131.6323 49.784374 130.27292Q50.76875 128.89792 52.846874 128.89792Q54.909374 128.89792 55.878124 130.22604Q56.8625 131.53854 56.89375 134.30417L56.89375 136.41354ZM55.26875 134.17917Q55.26875 132.11667 54.675 131.17917Q54.096874 130.22604 52.846874 130.22604Q51.596874 130.22604 51.01875 131.17917Q50.45625 132.11667 50.440624 134.05417L50.440624 136.66354Q50.440624 138.74167 51.034374 139.72604Q51.64375 140.71042 52.8625 140.71042Q54.065624 140.71042 54.64375 139.78854Q55.2375 138.85104 55.26875 136.85104L55.26875 134.17917ZM66.89375 136.41354Q66.89375 139.2573 65.90938 140.64792Q64.94063 142.03854 62.8625 142.03854Q60.815624 142.03854 59.83125 140.67917Q58.846874 139.3198 58.815624 136.6323L58.815624 134.46042Q58.815624 131.6323 59.784374 130.27292Q60.76875 128.89792 62.846874 128.89792Q64.90938 128.89792 65.87813 130.22604Q66.8625 131.53854 66.89375 134.30417L66.89375 136.41354ZM65.26875 134.17917Q65.26875 132.11667 64.675 131.17917Q64.09688 130.22604 62.846874 130.22604Q61.596874 130.22604 61.01875 131.17917Q60.45625 132.11667 60.440624 134.05417L60.440624 136.66354Q60.440624 138.74167 61.034374 139.72604Q61.64375 140.71042 62.8625 140.71042Q64.06563 140.71042 64.64375 139.78854Q65.2375 138.85104 65.26875 136.85104L65.26875 134.17917ZM76.89375 136.41354Q76.89375 139.2573 75.90938 140.64792Q74.94063 142.03854 72.8625 142.03854Q70.81563 142.03854 69.83125 140.67917Q68.84688 139.3198 68.81563 136.6323L68.81563 134.46042Q68.81563 131.6323 69.78438 130.27292Q70.76875 128.89792 72.84688 128.89792Q74.90938 128.89792 75.87813 130.22604Q76.8625 131.53854 76.89375 134.30417L76.89375 136.41354ZM75.26875 134.17917Q75.26875 132.11667 74.675 131.17917Q74.09688 130.22604 72.84688 130.22604Q71.59688 130.22604 71.01875 131.17917Q70.45625 132.11667 70.44063 134.05417L70.44063 136.66354Q70.44063 138.74167 71.03438 139.72604Q71.64375 140.71042 72.8625 140.71042Q74.06563 140.71042 74.64375 139.78854Q75.2375 138.85104 75.26875 136.85104L75.26875 134.17917Z" fill-rule="nonzero"/><path fill="#d9d9d9" d="M110.14371 523.01337L105.948395 530.27985L104.933525 529.6939L102.8898 523.39Q102.42124 521.9828 101.992004 521.32Q101.57058 520.6437 100.92107 520.2687Q100.05504 519.7687 99.19556 519.97614Q98.34388 520.17 97.83607 521.04956Q97.22669 522.10504 97.49968 523.03845Q97.75913 523.96405 98.814606 524.5734L98.002106 525.9807Q96.47303 525.0979 96.10966 523.57104Q95.73275 522.0364 96.685875 520.3855Q97.5765 518.8429 98.90403 518.4186Q100.239365 517.9807 101.578995 518.75415Q103.216324 519.69946 104.27299 523.088L105.78258 527.9108L108.993515 522.3493L110.14371 523.01337ZM110.24148 511.93777Q112.70423 513.3596 113.41637 514.9075Q114.13631 516.4417 113.097244 518.24146Q112.07381 520.0141 110.404366 520.1869Q108.734924 520.3597 106.39185 519.043L104.510956 517.9571Q102.06173 516.543 101.36885 515.02435Q100.67025 513.4844 101.70931 511.68466Q102.74056 509.89847 104.37513 509.72357Q106.003975 509.52734 108.4147 510.8831L110.24148 511.93777ZM107.49395 512.2279Q105.70777 511.19662 104.599 511.24207Q103.484505 511.26617 102.859505 512.3487Q102.234505 513.4313 102.770874 514.4085Q103.30152 515.3644 104.971634 516.3467L107.23142 517.65137Q109.03113 518.6904 110.1805 518.6684Q111.33768 518.6328 111.94705 517.5774Q112.548615 516.53546 112.039314 515.57385Q111.524284 514.5909 109.80786 513.56384L107.49395 512.2279ZM118.62027 508.3315L117.79996 509.75235L108.409 504.33047L107.818115 507.76016L106.54614 507.0258L107.35873 502.11835L107.48373 501.90182L118.62027 508.3315ZM115.76189 500.43863L110.5691 496.6828L113.84254 491.01306L115.14158 491.76306L112.55564 496.24203L115.377884 498.3225Q115.373024 497.23715 115.97459 496.19522Q116.84959 494.6797 118.35874 494.37827Q119.87571 494.0633 121.580696 495.04767Q123.29922 496.03986 123.755775 497.5303Q124.19881 499.01297 123.23787 500.67737Q122.38631 502.1523 121.03535 502.61725Q119.69219 503.06863 118.18753 502.3623L118.953156 501.0362Q119.97849 501.44775 120.77813 501.18774Q121.57205 500.90637 122.08768 500.0133Q122.65799 499.02548 122.315254 498.0879Q121.958984 497.14246 120.78173 496.46277Q119.672134 495.82214 118.64399 496.04044Q117.62366 496.2452 117.04553 497.24655Q116.51428 498.1667 116.61555 498.9288L116.70802 499.4874L115.76189 500.43863ZM127.14561 495.7527L126.44248 496.97055L117.084724 485.3974L117.78004 484.19308L127.14561 495.7527ZM128.74147 479.89484Q131.20424 481.3167 131.91637 482.8645Q132.6363 484.39877 131.59724 486.1985Q130.5738 487.97113 128.90436 488.14395Q127.234924 488.31674 124.89185 487.00006L123.010956 485.91412Q120.56173 484.50006 119.86885 482.9814Q119.17025 481.44144 120.20931 479.64172Q121.24056 477.85553 122.87513 477.68063Q124.503975 477.4844 126.9147 478.84015L128.74147 479.89484ZM125.99395 480.18494Q124.20777 479.1537 123.099 479.19913Q121.984505 479.22324 121.359505 480.3058Q120.734505 481.3883 121.270874 482.36554Q121.80152 483.32144 123.471634 484.3037L125.73142 485.6084Q127.53113 486.64746 128.6805 486.62546Q129.83768 486.5899 130.44705 485.53442Q131.04861 484.4925 130.5393 483.53088Q130.02429 482.54794 128.30786 481.52087L125.99395 480.18494ZM137.12027 476.28857L136.29996 477.7094L126.909 472.28754L126.318115 475.7172L125.04614 474.98282L125.85873 470.0754L125.98373 469.8589L137.12027 476.28857Z" fill-rule="nonzero"/><path fill="#d9d9d9" d="M182.5778 523.01337L178.38249 530.27985L177.36761 529.6939L175.3239 523.39Q174.85533 521.9828 174.4261 521.32Q174.00467 520.6437 173.35516 520.2687Q172.48914 519.7687 171.62965 519.97614Q170.77797 520.17 170.27016 521.04956Q169.66078 522.10504 169.93378 523.03845Q170.19322 523.96405 171.2487 524.5734L170.4362 525.9807Q168.90712 525.0979 168.54375 523.57104Q168.16685 522.0364 169.11998 520.3855Q170.0106 518.8429 171.33812 518.4186Q172.67346 517.9807 174.01309 518.75415Q175.65042 519.69946 176.70708 523.088L178.21667 527.9108L181.42761 522.3493L182.5778 523.01337ZM182.67557 511.93777Q185.13834 513.3596 185.85046 514.9075Q186.5704 516.4417 185.53134 518.24146Q184.5079 520.0141 182.83846 520.1869Q181.16902 520.3597 178.82594 519.043L176.94505 517.9571Q174.49582 516.543 173.80295 515.02435Q173.10435 513.4844 174.14342 511.68466Q175.17467 509.89847 176.80922 509.72357Q178.43806 509.52734 180.8488 510.8831L182.67557 511.93777ZM179.92804 512.22784Q178.14186 511.19662 177.0331 511.24207Q175.9186 511.26617 175.2936 512.3487Q174.6686 513.4313 175.20497 514.4085Q175.73561 515.3644 177.40573 516.3466L179.66551 517.6513Q181.46523 518.69037 182.6146 518.6684Q183.77177 518.6328 184.38115 517.5774Q184.98271 516.53546 184.4734 515.57385Q183.95837 514.5909 182.24196 513.5638L179.92804 512.22784ZM191.05437 508.3315L190.23405 509.75235L180.8431 504.33047L180.25221 507.76013L178.98024 507.02576L179.79282 502.11835L179.91782 501.90182L191.05437 508.3315ZM185.47404 492.37192L186.67836 493.06723L186.52992 493.32434Q185.61166 494.9773 185.99638 496.49844Q186.36757 498.01178 188.00015 499.15283Q187.49881 497.70868 188.37381 496.1931Q189.20975 494.74524 190.73814 494.47296Q192.25302 494.19287 193.8633 495.12256Q195.56828 496.10693 196.05762 497.63437Q196.54697 499.1618 195.64072 500.73148Q194.72665 502.3147 192.93068 502.61288Q191.14252 502.89758 189.20749 501.7804L188.66623 501.4679Q185.60808 499.70227 184.7478 497.47354Q183.88182 495.22348 185.33342 492.6155L185.47404 492.37192ZM189.40471 497.09503Q188.98283 497.82574 189.07782 498.69247Q189.15927 499.55142 189.67598 500.15646L190.19019 500.45334Q191.55688 501.2424 192.7474 501.11783Q193.94574 500.97977 194.47699 500.0596Q195.02386 499.1124 194.64626 498.1727Q194.26292 497.21164 193.12627 496.5554Q191.97607 495.89133 190.95212 496.0399Q189.92815 496.18842 189.40471 497.09503ZM199.57971 495.7527L198.87659 496.97055L189.51881 485.3974L190.21413 484.19308L199.57971 495.7527ZM201.17557 479.89484Q203.63834 481.3167 204.35046 482.8645Q205.0704 484.39877 204.03134 486.1985Q203.0079 487.97113 201.33846 488.14395Q199.66902 488.31674 197.32594 487.00006L195.44505 485.91412Q192.99582 484.50006 192.30295 482.9814Q191.60435 481.4414 192.64342 479.64172Q193.67467 477.85553 195.30922 477.68063Q196.93806 477.48438 199.3488 478.84015L201.17557 479.89484ZM198.42804 480.18494Q196.64186 479.1537 195.5331 479.19913Q194.4186 479.22324 193.7936 480.3058Q193.1686 481.3883 193.70497 482.36554Q194.23561 483.32144 195.90573 484.3037L198.16551 485.6084Q199.96523 486.64746 201.1146 486.62546Q202.27177 486.5899 202.88115 485.53442Q203.48271 484.4925 202.9734 483.53088Q202.45837 482.54794 200.74196 481.52087L198.42804 480.18494ZM209.55437 476.28857L208.73405 477.7094L199.3431 472.28754L198.75221 475.7172L197.48024 474.98282L198.29282 470.0754L198.41782 469.8589L209.55437 476.28857Z" fill-rule="nonzero"/><path fill="#d9d9d9" d="M255.21034 523.01337L251.01503 530.27985L250.00015 529.6939L247.95644 523.39Q247.48788 521.9828 247.05864 521.32Q246.63722 520.6437 245.9877 520.2687Q245.12167 519.7687 244.26219 519.97614Q243.4105 520.17 242.9027 521.04956Q242.29332 522.10504 242.56631 523.03845Q242.82578 523.96405 243.88124 524.5734L243.06874 525.9807Q241.53966 525.0979 241.17628 523.57104Q240.7994 522.0364 241.75252 520.3855Q242.64314 518.8429 243.97066 518.4186Q245.306 517.9807 246.64563 518.75415Q248.28296 519.69946 249.33961 523.088L250.84921 527.9108L254.06015 522.3493L255.21034 523.01337ZM255.3081 511.93777Q257.77087 513.3596 258.483 514.9075Q259.20294 516.4417 258.16388 518.24146Q257.14044 520.0141 255.471 520.1869Q253.80156 520.3597 251.4585 519.043L249.57759 517.9571Q247.12836 516.543 246.43549 515.02435Q245.7369 513.4844 246.77596 511.68466Q247.8072 509.89847 249.44176 509.72357Q251.07062 509.52734 253.48134 510.8831L255.3081 511.93777ZM252.56058 512.22784Q250.7744 511.19662 249.66563 511.24207Q248.55113 511.26617 247.92613 512.3487Q247.30113 513.4313 247.83751 514.4085Q248.36815 515.3644 250.03827 516.3467L252.29805 517.65137Q254.09776 518.6904 255.24713 518.6684Q256.4043 518.6328 257.01367 517.5774Q257.61523 516.53546 257.10596 515.57385Q256.5909 514.5909 254.8745 513.5638L252.56058 512.22784ZM263.6869 508.3315L262.86658 509.75235L253.47563 504.33047L252.88475 507.76013L251.61278 507.02576L252.42535 502.11835L252.55035 501.90182L263.6869 508.3315ZM259.85025 491.19553L267.4994 501.7281L266.64783 503.20303L259.35623 492.89496L255.88748 498.903L254.7373 498.23895L259.06543 490.7424L259.85025 491.19553ZM272.21225 495.7527L271.50912 496.97055L262.15137 485.3974L262.84668 484.19308L272.21225 495.7527ZM273.8081 479.89484Q276.27087 481.3167 276.983 482.8645Q277.70294 484.39877 276.66388 486.1985Q275.64044 487.97113 273.971 488.14395Q272.30154 488.31674 269.9585 487.00006L268.07758 485.91412Q265.62836 484.50006 264.9355 482.9814Q264.23688 481.44144 265.27594 479.64172Q266.3072 477.85553 267.94177 477.68063Q269.57062 477.4844 271.98132 478.84015L273.8081 479.89484ZM271.06058 480.18494Q269.2744 479.1537 268.16562 479.19913Q267.05115 479.22324 266.42615 480.3058Q265.80115 481.3883 266.3375 482.36554Q266.86816 483.32144 268.53827 484.3037L270.79807 485.6084Q272.59775 486.64746 273.74713 486.62546Q274.9043 486.5899 275.51367 485.53442Q276.11523 484.4925 275.60596 483.53088Q275.0909 482.54794 273.37448 481.52087L271.06058 480.18494ZM282.1869 476.28857L281.36658 477.7094L271.97562 472.28754L271.38477 475.7172L270.1128 474.98282L270.92535 470.0754L271.05035 469.8589L282.1869 476.28857Z" fill-rule="nonzero"/><path fill="#d9d9d9" d="M327.64444 523.01337L323.44913 530.27985L322.43423 529.6939L320.39053 523.39Q319.92197 521.9828 319.49274 521.32Q319.0713 520.6437 318.42178 520.2687Q317.55576 519.7687 316.69626 519.97614Q315.8446 520.17004 315.3368 521.04956Q314.72742 522.10504 315.0004 523.03845Q315.25986 523.96405 316.31534 524.5734L315.50284 525.9807Q313.97375 525.0979 313.61038 523.57104Q313.23346 522.0364 314.18658 520.3855Q315.0772 518.8429 316.40475 518.4186Q317.74008 517.9807 319.0797 518.75415Q320.71704 519.69946 321.7737 523.088L323.2833 527.9108L326.49423 522.3493L327.64444 523.01337ZM327.7422 511.93777Q330.20496 513.3597 330.91708 514.9075Q331.63702 516.4417 330.59796 518.24146Q329.57452 520.0141 327.9051 520.1869Q326.23566 520.3597 323.89258 519.043L322.0117 517.9571Q319.56244 516.543 318.86957 515.02435Q318.17096 513.4844 319.21002 511.68466Q320.24127 509.8985 321.87585 509.72357Q323.5047 509.52734 325.91544 510.8831L327.7422 511.93777ZM324.99466 512.2279Q323.2085 511.19662 322.09973 511.2421Q320.98523 511.2662 320.36023 512.3487Q319.73523 513.4313 320.2716 514.4085Q320.80225 515.3644 322.47235 516.3467L324.73215 517.65137Q326.53186 518.6904 327.6812 518.6684Q328.8384 518.6329 329.44778 517.5774Q330.04935 516.53546 329.54004 515.57385Q329.025 514.5909 327.3086 513.56384L324.99466 512.2279ZM336.121 508.33154L335.3007 509.75235L325.90973 504.33047L325.31885 507.76016L324.04688 507.0258L324.85944 502.11835L324.98444 501.90186L336.121 508.33154ZM334.1453 492.84732Q334.9707 493.32388 335.36243 494.14542Q335.76193 494.95343 335.6976 495.9086Q336.56296 495.2535 337.5692 495.1669Q338.58325 495.06677 339.48987 495.5902Q340.92422 496.41833 341.21423 497.8848Q341.5042 499.35126 340.59015 500.93448Q339.66827 502.5312 338.2611 502.99976Q336.8539 503.46832 335.41956 502.6402Q334.52646 502.12457 334.09055 501.22336Q333.6489 500.3008 333.77002 499.21603Q332.97498 499.74936 332.07544 499.80737Q331.18375 499.85184 330.37186 499.3831Q328.96454 498.5706 328.66827 497.20874Q328.36627 495.82556 329.21002 494.36417Q330.05377 492.90274 331.40265 492.4727Q332.73798 492.03482 334.1453 492.84732ZM338.6503 496.98187Q337.7166 496.4428 336.79102 496.70227Q335.85968 496.94037 335.305 497.90112Q334.75812 498.84833 335.00406 499.76614Q335.25778 500.6704 336.205 501.2173Q337.13867 501.75635 338.00024 501.51404Q338.86966 501.2582 339.43997 500.27042Q340.0181 499.26907 339.79712 498.40176Q339.58398 497.52094 338.6503 496.98187ZM330.36023 495.02823Q329.88367 495.85364 330.10098 496.66473Q330.31833 497.4758 331.19788 497.9836Q332.05038 498.4758 332.86716 498.27982Q333.67825 498.0625 334.16263 497.22354Q334.65482 496.37103 334.42966 495.5735Q334.19882 494.7546 333.35983 494.27023Q332.50735 493.77805 331.67493 494.00107Q330.82898 494.2163 330.36023 495.02823ZM344.64633 495.75272L343.9432 496.97055L334.58545 485.39743L335.28076 484.1931L344.64633 495.75272ZM346.2422 479.89484Q348.70496 481.3167 349.41708 482.86453Q350.13702 484.3988 349.09796 486.19852Q348.07452 487.97116 346.4051 488.14395Q344.73566 488.31677 342.39258 487.00006L340.5117 485.91412Q338.06244 484.50006 337.36957 482.9814Q336.67096 481.44144 337.71002 479.64172Q338.74127 477.85553 340.37585 477.68063Q342.0047 477.4844 344.41544 478.84015L346.2422 479.89484ZM343.49466 480.18494Q341.7085 479.1537 340.59973 479.19916Q339.48523 479.22327 338.86023 480.3058Q338.23523 481.3883 338.7716 482.36554Q339.30225 483.32144 340.97235 484.3037L343.23215 485.6084Q345.03186 486.64746 346.1812 486.62546Q347.3384 486.5899 347.94778 485.53445Q348.54935 484.4925 348.04004 483.53088Q347.525 482.54794 345.8086 481.52087L343.49466 480.18494ZM354.621 476.28857L353.8007 477.7094L344.40973 472.28754L343.81885 475.71722L342.54688 474.98285L343.35944 470.0754L343.48444 469.8589L354.621 476.28857Z" fill-rule="nonzero"/><path fill="#d9d9d9" d="M400.07852 523.01337L395.8832 530.27985L394.86835 529.6939L392.82462 523.38995Q392.35608 521.9828 391.92682 521.32Q391.5054 520.6437 390.8559 520.2687Q389.98987 519.7687 389.13037 519.97614Q388.27872 520.17 387.7709 521.04956Q387.16153 522.10504 387.4345 523.03845Q387.69397 523.96405 388.74942 524.5734L387.93692 525.9807Q386.40784 525.0979 386.04446 523.57104Q385.66757 522.0364 386.6207 520.3855Q387.51132 518.8429 388.83884 518.4185Q390.1742 517.98065 391.51382 518.7541Q393.15115 519.6994 394.2078 523.088L395.7174 527.91077L398.92834 522.3493L400.07852 523.01337ZM400.1763 511.93774Q402.63907 513.3596 403.3512 514.9075Q404.07114 516.4417 403.03207 518.2414Q402.00864 520.0141 400.33917 520.1869Q398.66974 520.3597 396.3267 519.04297L394.44577 517.95703Q391.99655 516.54297 391.30368 515.02435Q390.60507 513.4844 391.64413 511.68463Q392.67538 509.89847 394.30997 509.72357Q395.9388 509.5273 398.34952 510.88306L400.1763 511.93774ZM397.42877 512.22784Q395.6426 511.19662 394.5338 511.24207Q393.41934 511.26617 392.79434 512.3487Q392.16934 513.4312 392.7057 514.40845Q393.23636 515.3644 394.90646 516.3466L397.16623 517.6513Q398.96594 518.69037 400.11533 518.6684Q401.2725 518.6328 401.88187 517.57733Q402.48343 516.5354 401.97412 515.5738Q401.4591 514.5909 399.74268 513.5638L397.42877 512.22784ZM408.55508 508.3315L407.73477 509.75232L398.3438 504.33044L397.75293 507.76013L396.48096 507.02576L397.29355 502.11832L397.41855 501.90182L408.55508 508.3315ZM409.129 496.08746Q409.39893 496.83868 409.37213 497.6351Q409.3318 498.4237 408.9099 499.15442Q408.35522 500.11517 407.46756 500.55893Q406.5877 500.98914 405.50864 500.88934Q404.4296 500.78958 403.38766 500.18802Q402.27808 499.5474 401.62717 498.6123Q400.98407 497.66367 400.9693 496.62674Q400.941 495.58197 401.54257 494.54004Q402.48788 492.9027 404.26614 492.66644Q406.03867 492.4088 408.16315 493.63538L408.58264 493.87756Q411.81668 495.74475 412.563 497.88965Q413.31708 500.021 411.8655 502.62897L411.70926 502.8996L410.51846 502.2121L410.69034 501.9144Q411.66327 500.16672 411.32278 498.72522Q410.9901 497.2702 409.129 496.08746ZM407.879 498.2525Q408.28525 497.54886 408.196 496.7035Q408.10675 495.8581 407.627 495.22028L407.0587 494.89215Q405.67844 494.09528 404.46866 494.19064Q403.24536 494.27823 402.7141 495.1984Q402.17505 496.13208 402.5641 497.11447Q402.96097 498.0833 404.1247 498.7552Q405.2478 499.40363 406.30457 499.29205Q407.34775 499.17267 407.879 498.2525ZM417.08044 495.7527L416.37732 496.97055L407.01956 485.3974L407.71487 484.19308L417.08044 495.7527ZM418.6763 479.8948Q421.13907 481.31668 421.8512 482.8645Q422.57114 484.39877 421.53207 486.1985Q420.50864 487.97113 418.83917 488.14395Q417.16974 488.31674 414.8267 487.00006L412.94577 485.91412Q410.49655 484.50006 409.80368 482.9814Q409.10507 481.4414 410.14413 479.6417Q411.17538 477.85553 412.80997 477.68063Q414.4388 477.48438 416.84952 478.84012L418.6763 479.8948ZM415.92877 480.18494Q414.1426 479.1537 413.0338 479.19913Q411.91934 479.22324 411.29434 480.30576Q410.66934 481.3883 411.2057 482.36554Q411.73636 483.3214 413.40646 484.3037L415.66623 485.6084Q417.46594 486.64746 418.61533 486.62543Q419.7725 486.5899 420.38187 485.53442Q420.98343 484.4925 420.47412 483.53088Q419.9591 482.5479 418.24268 481.52087L415.92877 480.18494ZM427.05508 476.28857L426.23477 477.70938L416.8438 472.2875L416.25293 475.7172L414.98096 474.98282L415.79355 470.07538L415.91855 469.8589L427.05508 476.28857Z" fill-rule="nonzero"/><path fill="#d9d9d9" d="M472.5126 523.01337L468.3173 530.27985L467.30243 529.6939L465.2587 523.39Q464.79016 521.9828 464.3609 521.32Q463.93948 520.6437 463.28998 520.2687Q462.42395 519.7687 461.56445 519.97614Q460.7128 520.17 460.205 521.04956Q459.5956 522.10504 459.8686 523.03845Q460.12805 523.96405 461.1835 524.5734L460.371 525.9807Q458.84195 525.0979 458.47858 523.57104Q458.10165 522.0364 459.05478 520.3855Q459.9454 518.8429 461.27295 518.4186Q462.60828 517.9807 463.9479 518.75415Q465.58524 519.69946 466.6419 523.088L468.1515 527.9108L471.36243 522.3493L472.5126 523.01337ZM472.61038 511.93777Q475.07315 513.3596 475.78528 514.9075Q476.50522 516.4417 475.46616 518.24146Q474.44272 520.0141 472.7733 520.1869Q471.10382 520.3597 468.76077 519.043L466.87985 517.9571Q464.43063 516.543 463.73776 515.02435Q463.03915 513.4844 464.07822 511.68466Q465.10947 509.89847 466.74405 509.72357Q468.3729 509.52734 470.7836 510.8831L472.61038 511.93777ZM469.86285 512.22784Q468.0767 511.19662 466.9679 511.24207Q465.85342 511.26617 465.22842 512.3487Q464.60342 513.4313 465.13977 514.4085Q465.67044 515.3644 467.34055 516.3467L469.60034 517.65137Q471.40002 518.6904 472.5494 518.6684Q473.70657 518.6328 474.31595 517.5774Q474.9175 516.53546 474.40823 515.57385Q473.8932 514.5909 472.17676 513.5638L469.86285 512.22784ZM482.5126 505.69284L478.3173 512.95935L477.30243 512.3734L475.2587 506.0695Q474.79016 504.6623 474.3609 503.9995Q473.93948 503.32318 473.28998 502.94818Q472.42395 502.44818 471.56445 502.6556Q470.7128 502.8495 470.205 503.72906Q469.5956 504.78452 469.8686 505.71796Q470.12805 506.64355 471.1835 507.25293L470.371 508.66022Q468.84195 507.7774 468.47858 506.25055Q468.10165 504.71585 469.05478 503.065Q469.9454 501.5224 471.27295 501.09805Q472.60828 500.6602 473.9479 501.43362Q475.58524 502.37894 476.6419 505.7675L478.1515 510.5903L481.36243 505.02878L482.5126 505.69284ZM482.6104 494.61722Q485.07315 496.0391 485.78528 497.5869Q486.50522 499.12122 485.46616 500.92093Q484.44272 502.69357 482.7733 502.86636Q481.10382 503.03918 478.76077 501.7225L476.87985 500.63657Q474.43063 499.2225 473.73776 497.70386Q473.03915 496.16385 474.07822 494.36414Q475.10947 492.57797 476.74405 492.40305Q478.3729 492.2068 480.78363 493.56253L482.6104 494.61722ZM479.86288 494.90735Q478.0767 493.8761 476.9679 493.92157Q475.85342 493.94568 475.22842 495.0282Q474.60342 496.11075 475.13977 497.08798Q475.67044 498.04385 477.34055 499.02615L479.60034 500.33084Q481.40002 501.3699 482.5494 501.34787Q483.70657 501.31232 484.31595 500.25687Q484.9175 499.21494 484.40823 498.25333Q483.89322 497.27032 482.1768 496.2433L479.86288 494.90735ZM489.51453 495.75266L488.8114 496.97052L479.45364 485.39737L480.14896 484.19305L489.51453 495.75266ZM491.1104 479.8948Q493.57315 481.31668 494.28528 482.86447Q495.00522 484.39874 493.96616 486.19846Q492.94272 487.9711 491.2733 488.14392Q489.60385 488.3167 487.26077 487.00003L485.37988 485.9141Q482.93066 484.50003 482.23776 482.98138Q481.53918 481.4414 482.57825 479.6417Q483.6095 477.8555 485.24405 477.6806Q486.8729 477.48438 489.28363 478.84012L491.1104 479.8948ZM488.36288 480.1849Q486.5767 479.15366 485.46793 479.1991Q484.35342 479.2232 483.72842 480.30576Q483.10342 481.38828 483.6398 482.3655Q484.17044 483.3214 485.84055 484.30368L488.10034 485.60837Q489.90005 486.64743 491.0494 486.62543Q492.2066 486.58987 492.81598 485.5344Q493.41754 484.49246 492.90823 483.53085Q492.39322 482.5479 490.6768 481.52084L488.36288 480.1849ZM499.4892 476.28854L498.66888 477.70938L489.27792 472.2875L488.68704 475.71716L487.41507 474.9828L488.22766 470.07538L488.35266 469.85886L499.4892 476.28854Z" fill-rule="nonzero"/><path fill="#d9d9d9" d="M545.14514 523.01337L540.9498 530.27985L539.935 529.6939L537.89124 523.39Q537.42267 521.9828 536.99347 521.32Q536.572 520.6437 535.9225 520.2687Q535.05646 519.7687 534.197 519.97614Q533.34534 520.17 532.8375 521.04956Q532.22815 522.10504 532.5011 523.03845Q532.76056 523.96405 533.81604 524.5734L533.00354 525.9807Q531.4745 525.0979 531.1111 523.57104Q530.7342 522.0364 531.6873 520.3855Q532.57794 518.8429 533.90546 518.4186Q535.2408 517.9807 536.58044 518.75415Q538.2178 519.69946 539.2744 523.088L540.78406 527.9108L543.995 522.3493L545.14514 523.01337ZM545.2429 511.93777Q547.7057 513.3596 548.4178 514.9075Q549.13776 516.4417 548.0987 518.24146Q547.07526 520.0141 545.4058 520.1869Q543.7364 520.3597 541.3933 519.043L539.5124 517.9571Q537.0632 516.543 536.3703 515.02435Q535.6717 513.4844 536.71075 511.68466Q537.742 509.89847 539.3766 509.72357Q541.00543 509.52734 543.41614 510.8831L545.2429 511.93777ZM542.4954 512.22784Q540.7092 511.19662 539.60046 511.24207Q538.48596 511.26617 537.86096 512.3487Q537.23596 513.4313 537.77234 514.4085Q538.303 515.3644 539.9731 516.3467L542.23285 517.65137Q544.0326 518.6904 545.18195 518.6684Q546.3391 518.6328 546.9485 517.5774Q547.55005 516.53546 547.0408 515.57385Q546.52576 514.5909 544.8093 513.5638L542.4954 512.22784ZM555.14514 505.69284L550.9498 512.95935L549.935 512.3734L547.89124 506.0695Q547.42267 504.6623 546.99347 503.9995Q546.572 503.32318 545.9225 502.94818Q545.05646 502.44818 544.197 502.6556Q543.34534 502.8495 542.8375 503.72906Q542.22815 504.78452 542.5011 505.71796Q542.76056 506.64355 543.81604 507.25293L543.00354 508.66022Q541.4745 507.7774 541.1111 506.25055Q540.7342 504.71585 541.6873 503.065Q542.57794 501.5224 543.90546 501.09805Q545.2408 500.6602 546.58044 501.43362Q548.2178 502.37894 549.2744 505.7675L550.78406 510.5903L553.995 505.02878L555.14514 505.69284ZM558.6217 499.67126L557.8014 501.0921L548.41046 495.67023L547.8196 499.09988L546.5476 498.3655L547.36017 493.4581L547.48517 493.24158L558.6217 499.67126ZM562.14703 495.7527L561.4439 496.97055L552.0862 485.3974L552.7815 484.19308L562.14703 495.7527ZM563.7429 479.89484Q566.2057 481.3167 566.9178 482.8645Q567.63776 484.39877 566.5987 486.1985Q565.57526 487.97113 563.9058 488.14395Q562.2364 488.31674 559.8933 487.00006L558.0124 485.91412Q555.5632 484.50006 554.8703 482.9814Q554.1717 481.44144 555.21075 479.64172Q556.242 477.85553 557.8766 477.68063Q559.50543 477.4844 561.91614 478.84015L563.7429 479.89484ZM560.9954 480.18494Q559.2092 479.1537 558.10046 479.19913Q556.98596 479.22324 556.36096 480.3058Q555.73596 481.3883 556.27234 482.36554Q556.803 483.32144 558.4731 484.3037L560.73285 485.6084Q562.5326 486.64746 563.68195 486.62546Q564.8391 486.5899 565.4485 485.53442Q566.05005 484.4925 565.5408 483.53088Q565.02576 482.54794 563.3093 481.52087L560.9954 480.18494ZM572.1217 476.28857L571.3014 477.7094L561.91046 472.28754L561.3196 475.7172L560.0476 474.98282L560.86017 470.0754L560.98517 469.8589L572.1217 476.28857Z" fill-rule="nonzero"/><path fill="#a4c2f4" d="M186.0 94.333336C186.0 97.64704 183.3137 100.333336 180.0 100.333336C176.6863 100.333336 174.0 97.64704 174.0 94.333336C174.0 91.01962 176.6863 88.333336 180.0 88.333336C183.3137 88.333336 186.0 91.01962 186.0 94.333336Z" fill-rule="nonzero"/><path fill="#d9d9d9" d="M200.35938 98.84896L204.42188 87.114586L206.46875 87.114586L201.20312 101.333336L199.53125 101.333336L194.28125 87.114586L196.3125 87.114586L200.35938 98.84896ZM214.89062 101.333336Q214.73438 101.020836 214.64062 100.22396Q213.375 101.53646 211.625 101.53646Q210.0625 101.53646 209.0625 100.645836Q208.0625 99.75521 208.0625 98.395836Q208.0625 96.75521 209.3125 95.84896Q210.57812 94.927086 212.84375 94.927086L214.60938 94.927086L214.60938 94.09896Q214.60938 93.145836 214.03125 92.583336Q213.46875 92.020836 212.375 92.020836Q211.40625 92.020836 210.75 92.520836Q210.09375 93.00521 210.09375 93.69271L208.28125 93.69271Q208.28125 92.91146 208.84375 92.177086Q209.40625 91.427086 210.35938 91.00521Q211.32812 90.56771 212.48438 90.56771Q214.3125 90.56771 215.34375 91.489586Q216.375 92.395836 216.42188 94.00521L216.42188 98.864586Q216.42188 100.31771 216.78125 101.177086L216.78125 101.333336L214.89062 101.333336ZM211.89062 99.958336Q212.75 99.958336 213.5 99.520836Q214.26562 99.083336 214.60938 98.38021L214.60938 96.208336L213.1875 96.208336Q209.875 96.208336 209.875 98.145836Q209.875 99.00521 210.4375 99.489586Q211.0 99.958336 211.89062 99.958336ZM221.32812 101.333336L219.53125 101.333336L219.53125 86.333336L221.32812 86.333336L221.32812 101.333336ZM226.32812 101.333336L224.53125 101.333336L224.53125 90.770836L226.32812 90.770836L226.32812 101.333336ZM224.375 87.958336Q224.375 87.520836 224.64062 87.22396Q224.92188 86.91146 225.4375 86.91146Q225.96875 86.91146 226.23438 87.22396Q226.51562 87.520836 226.51562 87.958336Q226.51562 88.395836 226.23438 88.69271Q225.96875 88.989586 225.4375 88.989586Q224.92188 88.989586 224.64062 88.69271Q224.375 88.395836 224.375 87.958336ZM228.92188 95.958336Q228.92188 93.53646 230.07812 92.052086Q231.23438 90.56771 233.09375 90.56771Q234.95312 90.56771 236.03125 91.833336L236.03125 86.333336L237.84375 86.333336L237.84375 101.333336L236.1875 101.333336L236.09375 100.19271Q235.01562 101.53646 233.07812 101.53646Q231.25 101.53646 230.07812 100.03646Q228.92188 98.520836 228.92188 96.09896L228.92188 95.958336ZM230.73438 96.16146Q230.73438 97.958336 231.46875 98.97396Q232.21875 99.989586 233.53125 99.989586Q235.25 99.989586 236.03125 98.458336L236.03125 93.59896Q235.23438 92.09896 233.54688 92.09896Q232.21875 92.09896 231.46875 93.13021Q230.73438 94.16146 230.73438 96.16146ZM255.46875 88.66146L250.90625 88.66146L250.90625 101.333336L249.04688 101.333336L249.04688 88.66146L244.48438 88.66146L244.48438 87.114586L255.46875 87.114586L255.46875 88.66146ZM256.89062 95.958336Q256.89062 94.395836 257.5 93.16146Q258.10938 91.91146 259.1875 91.239586Q260.28125 90.56771 261.6875 90.56771Q263.84375 90.56771 265.17188 92.06771Q266.51562 93.552086 266.51562 96.03646L266.51562 96.16146Q266.51562 97.708336 265.92188 98.94271Q265.32812 100.16146 264.21875 100.84896Q263.125 101.53646 261.70312 101.53646Q259.5625 101.53646 258.21875 100.03646Q256.89062 98.53646 256.89062 96.083336L256.89062 95.958336ZM258.70312 96.16146Q258.70312 97.927086 259.51562 98.989586Q260.34375 100.052086 261.70312 100.052086Q263.07812 100.052086 263.89062 98.97396Q264.70312 97.895836 264.70312 95.958336Q264.70312 94.208336 263.875 93.13021Q263.04688 92.052086 261.6875 92.052086Q260.34375 92.052086 259.51562 93.114586Q258.70312 94.177086 258.70312 96.16146ZM267.89062 95.958336Q267.89062 94.395836 268.5 93.16146Q269.10938 91.91146 270.1875 91.239586Q271.28125 90.56771 272.6875 90.56771Q274.84375 90.56771 276.17188 92.06771Q277.51562 93.552086 277.51562 96.03646L277.51562 96.16146Q277.51562 97.708336 276.92188 98.94271Q276.32812 100.16146 275.21875 100.84896Q274.125 101.53646 272.70312 101.53646Q270.5625 101.53646 269.21875 100.03646Q267.89062 98.53646 267.89062 96.083336L267.89062 95.958336ZM269.70312 96.16146Q269.70312 97.927086 270.51562 98.989586Q271.34375 100.052086 272.70312 100.052086Q274.07812 100.052086 274.89062 98.97396Q275.70312 97.895836 275.70312 95.958336Q275.70312 94.208336 274.875 93.13021Q274.04688 92.052086 272.6875 92.052086Q271.34375 92.052086 270.51562 93.114586Q269.70312 94.177086 269.70312 96.16146ZM281.32812 101.333336L279.53125 101.333336L279.53125 86.333336L281.32812 86.333336L281.32812 101.333336ZM290.51562 98.53646Q290.51562 97.802086 289.96875 97.395836Q289.42188 96.989586 288.04688 96.69271Q286.67188 96.395836 285.85938 95.989586Q285.0625 95.583336 284.67188 95.020836Q284.29688 94.44271 284.29688 93.66146Q284.29688 92.364586 285.39062 91.47396Q286.48438 90.56771 288.20312 90.56771Q290.0 90.56771 291.10938 91.50521Q292.23438 92.427086 292.23438 93.864586L290.40625 93.864586Q290.40625 93.13021 289.78125 92.59896Q289.15625 92.052086 288.20312 92.052086Q287.20312 92.052086 286.64062 92.489586Q286.09375 92.91146 286.09375 93.614586Q286.09375 94.25521 286.60938 94.59896Q287.125 94.927086 288.48438 95.239586Q289.84375 95.53646 290.67188 95.958336Q291.51562 96.364586 291.92188 96.958336Q292.32812 97.552086 292.32812 98.395836Q292.32812 99.81771 291.1875 100.677086Q290.0625 101.53646 288.25 101.53646Q286.98438 101.53646 286.0 101.083336Q285.03125 100.63021 284.46875 99.833336Q283.92188 99.020836 283.92188 98.083336L285.73438 98.083336Q285.78125 98.989586 286.45312 99.520836Q287.14062 100.052086 288.25 100.052086Q289.28125 100.052086 289.89062 99.645836Q290.51562 99.22396 290.51562 98.53646Z" fill-rule="nonzero"/><path fill="#dc3912" d="M321.0 94.333336C321.0 97.64704 318.31372 100.333336 315.0 100.333336C311.68628 100.333336 309.0 97.64704 309.0 94.333336C309.0 91.01962 311.68628 88.333336 315.0 88.333336C318.31372 88.333336 321.0 91.01962 321.0 94.333336Z" fill-rule="nonzero"/><path fill="#d9d9d9" d="M340.65625 87.114586L340.65625 96.78646Q340.65625 98.78646 339.39062 100.06771Q338.14062 101.34896 336.0 101.50521L335.5 101.53646Q333.15625 101.53646 331.76562 100.270836Q330.39062 99.00521 330.375 96.802086L330.375 87.114586L332.21875 87.114586L332.21875 96.739586Q332.21875 98.28646 333.0625 99.145836Q333.92188 99.989586 335.5 99.989586Q337.09375 99.989586 337.9375 99.145836Q338.78125 98.302086 338.78125 96.75521L338.78125 87.114586L340.65625 87.114586ZM345.07812 90.770836L345.14062 92.09896Q346.34375 90.56771 348.29688 90.56771Q351.65625 90.56771 351.67188 94.34896L351.67188 101.333336L349.875 101.333336L349.875 94.333336Q349.85938 93.19271 349.34375 92.645836Q348.84375 92.09896 347.75 92.09896Q346.875 92.09896 346.20312 92.56771Q345.54688 93.03646 345.17188 93.802086L345.17188 101.333336L343.375 101.333336L343.375 90.770836L345.07812 90.770836ZM356.32812 101.333336L354.53125 101.333336L354.53125 90.770836L356.32812 90.770836L356.32812 101.333336ZM354.375 87.958336Q354.375 87.520836 354.64062 87.22396Q354.92188 86.91146 355.4375 86.91146Q355.96875 86.91146 356.23438 87.22396Q356.51562 87.520836 356.51562 87.958336Q356.51562 88.395836 356.23438 88.69271Q355.96875 88.989586 355.4375 88.989586Q354.92188 88.989586 354.64062 88.69271Q354.375 88.395836 354.375 87.958336ZM358.92188 95.958336Q358.92188 93.47396 360.0625 92.020836Q361.21875 90.56771 363.14062 90.56771Q365.01562 90.56771 366.09375 91.833336L366.17188 90.770836L367.82812 90.770836L367.82812 105.395836L366.03125 105.395836L366.03125 100.34896Q364.9375 101.53646 363.125 101.53646Q361.20312 101.53646 360.0625 100.052086Q358.92188 98.552086 358.92188 96.083336L358.92188 95.958336ZM360.73438 96.16146Q360.73438 97.989586 361.5 99.020836Q362.26562 100.052086 363.5625 100.052086Q365.17188 100.052086 366.03125 98.63021L366.03125 93.458336Q365.17188 92.052086 363.59375 92.052086Q362.28125 92.052086 361.5 93.09896Q360.73438 94.13021 360.73438 96.16146ZM376.89062 100.28646Q375.84375 101.53646 373.79688 101.53646Q372.10938 101.53646 371.21875 100.552086Q370.34375 99.56771 370.32812 97.645836L370.32812 90.770836L372.14062 90.770836L372.14062 97.59896Q372.14062 99.989586 374.09375 99.989586Q376.15625 99.989586 376.84375 98.458336L376.84375 90.770836L378.65625 90.770836L378.65625 101.333336L376.9375 101.333336L376.89062 100.28646ZM385.75 101.53646Q383.60938 101.53646 382.25 100.13021Q380.90625 98.708336 380.90625 96.34896L380.90625 96.00521Q380.90625 94.44271 381.5 93.208336Q382.10938 91.97396 383.1875 91.270836Q384.26562 90.56771 385.53125 90.56771Q387.59375 90.56771 388.73438 91.927086Q389.875 93.28646 389.875 95.81771L389.875 96.56771L382.71875 96.56771Q382.75 98.13021 383.625 99.09896Q384.5 100.052086 385.84375 100.052086Q386.8125 100.052086 387.46875 99.66146Q388.14062 99.270836 388.64062 98.63021L389.73438 99.489586Q388.40625 101.53646 385.75 101.53646ZM385.53125 92.052086Q384.4375 92.052086 383.6875 92.84896Q382.95312 93.645836 382.78125 95.083336L388.0625 95.083336L388.0625 94.94271Q387.98438 93.56771 387.3125 92.81771Q386.65625 92.052086 385.53125 92.052086ZM408.59375 94.677086Q408.59375 96.770836 407.89062 98.333336Q407.1875 99.88021 405.89062 100.708336Q404.60938 101.53646 402.89062 101.53646Q401.20312 101.53646 399.90625 100.708336Q398.60938 99.88021 397.89062 98.34896Q397.17188 96.81771 397.15625 94.802086L397.15625 93.78646Q397.15625 91.739586 397.85938 90.16146Q398.57812 88.583336 399.875 87.75521Q401.1875 86.91146 402.85938 86.91146Q404.57812 86.91146 405.875 87.739586Q407.1875 88.56771 407.89062 90.145836Q408.59375 91.708336 408.59375 93.78646L408.59375 94.677086ZM406.71875 93.770836Q406.71875 91.239586 405.70312 89.895836Q404.6875 88.53646 402.85938 88.53646Q401.09375 88.53646 400.0625 89.895836Q399.04688 91.239586 399.01562 93.63021L399.01562 94.677086Q399.01562 97.13021 400.04688 98.53646Q401.07812 99.94271 402.89062 99.94271Q404.70312 99.94271 405.6875 98.614586Q406.6875 97.28646 406.71875 94.81771L406.71875 93.770836ZM420.71875 98.84896L422.75 90.770836L424.5625 90.770836L421.48438 101.333336L420.01562 101.333336L417.45312 93.31771L414.95312 101.333336L413.48438 101.333336L410.42188 90.770836L412.21875 90.770836L414.29688 98.677086L416.76562 90.770836L418.21875 90.770836L420.71875 98.84896ZM428.07812 90.770836L428.14062 92.09896Q429.34375 90.56771 431.29688 90.56771Q434.65625 90.56771 434.67188 94.34896L434.67188 101.333336L432.875 101.333336L432.875 94.333336Q432.85938 93.19271 432.34375 92.645836Q431.84375 92.09896 430.75 92.09896Q429.875 92.09896 429.20312 92.56771Q428.54688 93.03646 428.17188 93.802086L428.17188 101.333336L426.375 101.333336L426.375 90.770836L428.07812 90.770836ZM441.75 101.53646Q439.60938 101.53646 438.25 100.13021Q436.90625 98.708336 436.90625 96.34896L436.90625 96.00521Q436.90625 94.44271 437.5 93.208336Q438.10938 91.97396 439.1875 91.270836Q440.26562 90.56771 441.53125 90.56771Q443.59375 90.56771 444.73438 91.927086Q445.875 93.28646 445.875 95.81771L445.875 96.56771L438.71875 96.56771Q438.75 98.13021 439.625 99.09896Q440.5 100.052086 441.84375 100.052086Q442.8125 100.052086 443.46875 99.66146Q444.14062 99.270836 444.64062 98.63021L445.73438 99.489586Q444.40625 101.53646 441.75 101.53646ZM441.53125 92.052086Q440.4375 92.052086 439.6875 92.84896Q438.95312 93.645836 438.78125 95.083336L444.0625 95.083336L444.0625 94.94271Q443.98438 93.56771 443.3125 92.81771Q442.65625 92.052086 441.53125 92.052086ZM453.46875 92.38021Q453.0625 92.31771 452.59375 92.31771Q450.8125 92.31771 450.17188 93.833336L450.17188 101.333336L448.375 101.333336L448.375 90.770836L450.125 90.770836L450.15625 91.989586Q451.04688 90.56771 452.67188 90.56771Q453.20312 90.56771 453.46875 90.708336L453.46875 92.38021ZM461.51562 98.53646Q461.51562 97.802086 460.96875 97.395836Q460.42188 96.989586 459.04688 96.69271Q457.67188 96.395836 456.85938 95.989586Q456.0625 95.583336 455.67188 95.020836Q455.29688 94.44271 455.29688 93.66146Q455.29688 92.364586 456.39062 91.47396Q457.48438 90.56771 459.20312 90.56771Q461.0 90.56771 462.10938 91.50521Q463.23438 92.427086 463.23438 93.864586L461.40625 93.864586Q461.40625 93.13021 460.78125 92.59896Q460.15625 92.052086 459.20312 92.052086Q458.20312 92.052086 457.64062 92.489586Q457.09375 92.91146 457.09375 93.614586Q457.09375 94.25521 457.60938 94.59896Q458.125 94.927086 459.48438 95.239586Q460.84375 95.53646 461.67188 95.958336Q462.51562 96.364586 462.92188 96.958336Q463.32812 97.552086 463.32812 98.395836Q463.32812 99.81771 462.1875 100.677086Q461.0625 101.53646 459.25 101.53646Q457.98438 101.53646 457.0 101.083336Q456.03125 100.63021 455.46875 99.833336Q454.92188 99.020836 454.92188 98.083336L456.73438 98.083336Q456.78125 98.989586 457.45312 99.520836Q458.14062 100.052086 459.25 100.052086Q460.28125 100.052086 460.89062 99.645836Q461.51562 99.22396 461.51562 98.53646Z" fill-rule="nonzero"/><path fill="#d9d9d9" d="M45.01875 36.784374L38.159374 36.784374L38.159374 55.8L35.3625 55.8L35.3625 36.784374L28.51875 36.784374L28.51875 34.471874L45.01875 34.471874L45.01875 36.784374ZM47.128124 47.721874Q47.128124 45.39375 48.05 43.534374Q48.971874 41.675 50.596874 40.675Q52.2375 39.659374 54.33125 39.659374Q57.565624 39.659374 59.565624 41.909374Q61.565624 44.14375 61.565624 47.8625L61.565624 48.05Q61.565624 50.3625 60.675 52.20625Q59.784374 54.034374 58.128124 55.065624Q56.4875 56.096874 54.3625 56.096874Q51.128124 56.096874 49.128124 53.8625Q47.128124 51.6125 47.128124 47.925L47.128124 47.721874ZM49.8625 48.05Q49.8625 50.690624 51.08125 52.284374Q52.3 53.878124 54.3625 53.878124Q56.425 53.878124 57.628124 52.26875Q58.846874 50.64375 58.846874 47.721874Q58.846874 45.128124 57.6125 43.503124Q56.378124 41.878124 54.33125 41.878124Q52.315624 41.878124 51.08125 43.4875Q49.8625 45.08125 49.8625 48.05ZM64.12813 47.721874Q64.12813 45.39375 65.05 43.534374Q65.97188 41.675 67.59688 40.675Q69.2375 39.659374 71.33125 39.659374Q74.56563 39.659374 76.56563 41.909374Q78.56563 44.14375 78.56563 47.8625L78.56563 48.05Q78.56563 50.3625 77.675 52.20625Q76.78438 54.034374 75.12813 55.065624Q73.4875 56.096874 71.3625 56.096874Q68.12813 56.096874 66.12813 53.8625Q64.12813 51.6125 64.12813 47.925L64.12813 47.721874ZM66.8625 48.05Q66.8625 50.690624 68.08125 52.284374Q69.3 53.878124 71.3625 53.878124Q73.425 53.878124 74.62813 52.26875Q75.84688 50.64375 75.84688 47.721874Q75.84688 45.128124 74.6125 43.503124Q73.37813 41.878124 71.33125 41.878124Q69.31563 41.878124 68.08125 43.4875Q66.8625 45.08125 66.8625 48.05ZM84.8 55.8L82.08125 55.8L82.08125 33.3L84.8 33.3L84.8 55.8ZM98.08125 51.596874Q98.08125 50.503124 97.25313 49.89375Q96.425 49.284374 94.3625 48.846874Q92.31563 48.409374 91.09688 47.8Q89.89375 47.175 89.31563 46.33125Q88.7375 45.471874 88.7375 44.3Q88.7375 42.346874 90.37813 41.003124Q92.03438 39.659374 94.59688 39.659374Q97.28438 39.659374 98.95625 41.05Q100.64375 42.440624 100.64375 44.6125L97.925 44.6125Q97.925 43.4875 96.97188 42.690624Q96.03438 41.878124 94.59688 41.878124Q93.1125 41.878124 92.26875 42.534374Q91.44063 43.175 91.44063 44.20625Q91.44063 45.190624 92.22188 45.690624Q93.00313 46.190624 95.01875 46.64375Q97.05 47.096874 98.31563 47.7375Q99.58125 48.3625 100.175 49.253124Q100.78438 50.128124 100.78438 51.409374Q100.78438 53.534374 99.08125 54.815624Q97.39375 56.096874 94.675 56.096874Q92.78438 56.096874 91.31563 55.425Q89.84688 54.7375 89.01875 53.534374Q88.19063 52.33125 88.19063 50.925L90.90938 50.925Q90.97188 52.284374 91.9875 53.08125Q93.01875 53.878124 94.675 53.878124Q96.22188 53.878124 97.14375 53.253124Q98.08125 52.628124 98.08125 51.596874ZM106.56563 41.8625Q108.3625 39.659374 111.25313 39.659374Q116.26875 39.659374 116.31563 45.33125L116.31563 55.8L113.6125 55.8L113.6125 45.315624Q113.59688 43.596874 112.81563 42.784374Q112.05 41.95625 110.425 41.95625Q109.1125 41.95625 108.1125 42.659374Q107.1125 43.3625 106.56563 44.503124L106.56563 55.8L103.84688 55.8L103.84688 33.3L106.56563 33.3L106.56563 41.8625ZM127.425 56.096874Q124.20625 56.096874 122.175 53.9875Q120.15938 51.8625 120.15938 48.315624L120.15938 47.815624Q120.15938 45.45625 121.06563 43.6125Q121.97188 41.753124 123.58125 40.70625Q125.20625 39.659374 127.09688 39.659374Q130.175 39.659374 131.89375 41.690624Q133.6125 43.721874 133.6125 47.51875L133.6125 48.64375L122.87813 48.64375Q122.925 50.9875 124.2375 52.440624Q125.55 53.878124 127.58125 53.878124Q129.00313 53.878124 130.00313 53.3Q131.00313 52.70625 131.75313 51.7375L133.40938 53.034374Q131.40938 56.096874 127.425 56.096874ZM127.09688 41.878124Q125.45625 41.878124 124.33125 43.08125Q123.22188 44.26875 122.95625 46.425L130.89375 46.425L130.89375 46.221874Q130.78438 44.159374 129.78438 43.01875Q128.78438 41.878124 127.09688 41.878124ZM136.19063 47.7375Q136.19063 44.096874 137.90938 41.878124Q139.64375 39.659374 142.44063 39.659374Q145.2375 39.659374 146.8625 41.565624L146.8625 33.3L149.56563 33.3L149.56563 55.8L147.08125 55.8L146.94063 54.096874Q145.31563 56.096874 142.425 56.096874Q139.65938 56.096874 137.925 53.846874Q136.19063 51.58125 136.19063 47.940624L136.19063 47.7375ZM138.90938 48.05Q138.90938 50.753124 140.01875 52.284374Q141.12813 53.8 143.09688 53.8Q145.675 53.8 146.8625 51.471874L146.8625 44.190624Q145.64375 41.95625 143.12813 41.95625Q141.12813 41.95625 140.01875 43.503124Q138.90938 45.034374 138.90938 48.05ZM167.56563 46.3Q163.94063 45.253124 162.28438 43.7375Q160.64375 42.221874 160.64375 39.9875Q160.64375 37.471874 162.65938 35.83125Q164.675 34.175 167.89375 34.175Q170.09688 34.175 171.81563 35.034374Q173.53438 35.878124 174.47188 37.378124Q175.425 38.8625 175.425 40.64375L172.59688 40.64375Q172.59688 38.70625 171.3625 37.596874Q170.14375 36.4875 167.89375 36.4875Q165.81563 36.4875 164.64375 37.409374Q163.4875 38.33125 163.4875 39.95625Q163.4875 41.253124 164.59688 42.159374Q165.70625 43.05 168.3625 43.8Q171.01875 44.55 172.51875 45.45625Q174.01875 46.346874 174.7375 47.55Q175.47188 48.753124 175.47188 50.378124Q175.47188 52.971874 173.44063 54.534374Q171.425 56.096874 168.05 56.096874Q165.84688 56.096874 163.94063 55.253124Q162.03438 54.409374 161.00313 52.940624Q159.97188 51.471874 159.97188 49.6125L162.8 49.6125Q162.8 51.55 164.22188 52.675Q165.65938 53.8 168.05 53.8Q170.26875 53.8 171.45625 52.89375Q172.64375 51.971874 172.64375 50.409374Q172.64375 48.846874 171.53438 47.9875Q170.44063 47.128124 167.56563 46.3ZM182.53438 36.1125L182.53438 39.95625L185.4875 39.95625L185.4875 42.05L182.53438 42.05L182.53438 51.878124Q182.53438 52.83125 182.925 53.315624Q183.31563 53.784374 184.26875 53.784374Q184.7375 53.784374 185.56563 53.596874L185.56563 55.8Q184.4875 56.096874 183.4875 56.096874Q181.65938 56.096874 180.7375 55.003124Q179.81563 53.89375 179.81563 51.878124L179.81563 42.05L176.925 42.05L176.925 39.95625L179.81563 39.95625L179.81563 36.1125L182.53438 36.1125ZM198.64375 55.8Q198.40938 55.33125 198.25313 54.128124Q196.3625 56.096874 193.7375 56.096874Q191.39375 56.096874 189.89375 54.76875Q188.39375 53.440624 188.39375 51.409374Q188.39375 48.925 190.26875 47.565624Q192.15938 46.190624 195.58125 46.190624L198.20625 46.190624L198.20625 44.940624Q198.20625 43.51875 197.3625 42.690624Q196.51875 41.846874 194.8625 41.846874Q193.40938 41.846874 192.425 42.58125Q191.44063 43.3 191.44063 44.346874L188.72188 44.346874Q188.72188 43.159374 189.56563 42.05Q190.40938 40.940624 191.84688 40.3Q193.28438 39.659374 195.01875 39.659374Q197.75313 39.659374 199.3 41.034374Q200.8625 42.39375 200.925 44.8L200.925 52.096874Q200.925 54.26875 201.47188 55.565624L201.47188 55.8L198.64375 55.8ZM194.14375 53.7375Q195.40938 53.7375 196.55 53.08125Q197.70625 52.409374 198.20625 51.3625L198.20625 48.1125L196.08125 48.1125Q191.1125 48.1125 191.1125 51.01875Q191.1125 52.3 191.95625 53.01875Q192.8 53.7375 194.14375 53.7375ZM208.53438 36.1125L208.53438 39.95625L211.4875 39.95625L211.4875 42.05L208.53438 42.05L208.53438 51.878124Q208.53438 52.83125 208.925 53.315624Q209.31563 53.784374 210.26875 53.784374Q210.7375 53.784374 211.56563 53.596874L211.56563 55.8Q210.4875 56.096874 209.4875 56.096874Q207.65938 56.096874 206.7375 55.003124Q205.81563 53.89375 205.81563 51.878124L205.81563 42.05L202.925 42.05L202.925 39.95625L205.81563 39.95625L205.81563 36.1125L208.53438 36.1125ZM217.8 55.8L215.08125 55.8L215.08125 39.95625L217.8 39.95625L217.8 55.8ZM214.8625 35.753124Q214.8625 35.08125 215.26875 34.628124Q215.675 34.175 216.45625 34.175Q217.25313 34.175 217.65938 34.628124Q218.08125 35.08125 218.08125 35.753124Q218.08125 36.409374 217.65938 36.846874Q217.25313 37.284374 216.45625 37.284374Q215.675 37.284374 215.26875 36.846874Q214.8625 36.409374 214.8625 35.753124ZM231.08125 51.596874Q231.08125 50.503124 230.25313 49.89375Q229.425 49.284374 227.3625 48.846874Q225.31563 48.409374 224.09688 47.8Q222.89375 47.175 222.31563 46.33125Q221.7375 45.471874 221.7375 44.3Q221.7375 42.346874 223.37813 41.003124Q225.03438 39.659374 227.59688 39.659374Q230.28438 39.659374 231.95625 41.05Q233.64375 42.440624 233.64375 44.6125L230.925 44.6125Q230.925 43.4875 229.97188 42.690624Q229.03438 41.878124 227.59688 41.878124Q226.1125 41.878124 225.26875 42.534374Q224.44063 43.175 224.44063 44.20625Q224.44063 45.190624 225.22188 45.690624Q226.00313 46.190624 228.01875 46.64375Q230.05 47.096874 231.31563 47.7375Q232.58125 48.3625 233.175 49.253124Q233.78438 50.128124 233.78438 51.409374Q233.78438 53.534374 232.08125 54.815624Q230.39375 56.096874 227.675 56.096874Q225.78438 56.096874 224.31563 55.425Q222.84688 54.7375 222.01875 53.534374Q221.19063 52.33125 221.19063 50.925L223.90938 50.925Q223.97188 52.284374 224.9875 53.08125Q226.01875 53.878124 227.675 53.878124Q229.22188 53.878124 230.14375 53.253124Q231.08125 52.628124 231.08125 51.596874ZM240.53438 36.1125L240.53438 39.95625L243.4875 39.95625L243.4875 42.05L240.53438 42.05L240.53438 51.878124Q240.53438 52.83125 240.925 53.315624Q241.31563 53.784374 242.26875 53.784374Q242.7375 53.784374 243.56563 53.596874L243.56563 55.8Q242.4875 56.096874 241.4875 56.096874Q239.65938 56.096874 238.7375 55.003124Q237.81563 53.89375 237.81563 51.878124L237.81563 42.05L234.925 42.05L234.925 39.95625L237.81563 39.95625L237.81563 36.1125L240.53438 36.1125ZM249.8 55.8L247.08125 55.8L247.08125 39.95625L249.8 39.95625L249.8 55.8ZM246.8625 35.753124Q246.8625 35.08125 247.26875 34.628124Q247.675 34.175 248.45625 34.175Q249.25313 34.175 249.65938 34.628124Q250.08125 35.08125 250.08125 35.753124Q250.08125 36.409374 249.65938 36.846874Q249.25313 37.284374 248.45625 37.284374Q247.675 37.284374 247.26875 36.846874Q246.8625 36.409374 246.8625 35.753124ZM260.20624 53.878124Q261.65936 53.878124 262.7375 53.003124Q263.83124 52.128124 263.9406 50.8L266.5031 50.8Q266.4406 52.159374 265.5656 53.39375Q264.70624 54.628124 263.2531 55.3625Q261.8156 56.096874 260.20624 56.096874Q256.97186 56.096874 255.05 53.940624Q253.14375 51.76875 253.14375 48.01875L253.14375 47.565624Q253.14375 45.253124 253.9875 43.45625Q254.84688 41.64375 256.425 40.659374Q258.01874 39.659374 260.1906 39.659374Q262.8625 39.659374 264.6281 41.253124Q266.39374 42.846874 266.5031 45.39375L263.9406 45.39375Q263.83124 43.8625 262.78436 42.878124Q261.7375 41.878124 260.1906 41.878124Q258.1281 41.878124 256.9875 43.378124Q255.8625 44.8625 255.8625 47.675L255.8625 48.175Q255.8625 50.925 256.9875 52.409374Q258.1125 53.878124 260.20624 53.878124ZM279.08124 51.596874Q279.08124 50.503124 278.2531 49.89375Q277.425 49.284374 275.3625 48.846874Q273.3156 48.409374 272.09686 47.8Q270.89374 47.175 270.3156 46.33125Q269.7375 45.471874 269.7375 44.3Q269.7375 42.346874 271.3781 41.003124Q273.03436 39.659374 275.59686 39.659374Q278.28436 39.659374 279.95624 41.05Q281.64374 42.440624 281.64374 44.6125L278.925 44.6125Q278.925 43.4875 277.97186 42.690624Q277.03436 41.878124 275.59686 41.878124Q274.1125 41.878124 273.26874 42.534374Q272.4406 43.175 272.4406 44.20625Q272.4406 45.190624 273.22186 45.690624Q274.0031 46.190624 276.01874 46.64375Q278.05 47.096874 279.3156 47.7375Q280.58124 48.3625 281.175 49.253124Q281.78436 50.128124 281.78436 51.409374Q281.78436 53.534374 280.08124 54.815624Q278.39374 56.096874 275.675 56.096874Q273.78436 56.096874 272.3156 55.425Q270.84686 54.7375 270.01874 53.534374Q269.1906 52.33125 269.1906 50.925L271.90936 50.925Q271.97186 52.284374 272.9875 53.08125Q274.01874 53.878124 275.675 53.878124Q277.22186 53.878124 278.14374 53.253124Q279.08124 52.628124 279.08124 51.596874Z" fill-rule="nonzero"/></svg>