<svg version="1.1" viewBox="0.0 0.0 638.0 556.0" fill="none" stroke="none" stroke-linecap="square" stroke-miterlimit="10" width="638" height="556" xmlns:xlink="http://www.w3.org/1999/xlink" xmlns="http://www.w3.org/2000/svg"><path fill="#000000" d="M0 0L638.0 0L638.0 556.0L0 556.0L0 0Z" fill-rule="nonzero"/><path stroke="#333333" stroke-width="1.0" stroke-linecap="butt" d="M126.5 135.5L126.5 455.5" fill-rule="nonzero"/><path stroke="#333333" stroke-width="1.0" stroke-linecap="butt" d="M195.5 135.5L195.5 455.5" fill-rule="nonzero"/><path stroke="#333333" stroke-width="1.0" stroke-linecap="butt" d="M265.5 135.5L265.5 455.5" fill-rule="nonzero"/><path stroke="#333333" stroke-width="1.0" stroke-linecap="butt" d="M334.5 135.5L334.5 455.5" fill-rule="nonzero"/><path stroke="#333333" stroke-width="1.0" stroke-linecap="butt" d="M403.5 135.5L403.5 455.5" fill-rule="nonzero"/><path stroke="#333333" stroke-width="1.0" stroke-linecap="butt" d="M472.5 135.5L472.5 455.5" fill-rule="nonzero"/><path stroke="#333333" stroke-width="1.0" stroke-linecap="butt" d="M541.5 135.5L541.5 455.5" fill-rule="nonzero"/><path stroke="#cccccc" stroke-width="1.0" stroke-linecap="butt" d="M86.5 455.5L610.5 455.5" fill-rule="nonzero"/><path stroke="#333333" stroke-width="1.0" stroke-linecap="butt" d="M86.5 375.5L610.5 375.5" fill-rule="nonzero"/><path stroke="#333333" stroke-width="1.0" stroke-linecap="butt" d="M86.5 295.5L610.5 295.5" fill-rule="nonzero"/><path stroke="#333333" stroke-width="1.0" stroke-linecap="butt" d="M86.5 215.5L610.5 215.5" fill-rule="nonzero"/><path stroke="#333333" stroke-width="1.0" stroke-linecap="butt" d="M86.5 135.5L610.5 135.5" fill-rule="nonzero"/><clipPath id="id_0"><path d="M86.8 135.86667L610.2 135.86667L610.2 455.6763L86.8 455.6763L86.8 135.86667Z" clip-rule="nonzero"/></clipPath><path stroke="#a4c2f4" stroke-width="4.0" stroke-linecap="butt" clip-path="url(#id_0)" d="M91.70626 374.5086C91.70626 374.5086 103.32989 371.84354 109.1417 369.8394C114.953514 367.83527 120.765335 364.95596 126.57715 362.48376C132.38896 360.01157 149.44537 351.57956 160.87949 347.77252C172.3136 343.9655 190.12807 342.09402 201.62535 338.1143C213.12263 334.13452 226.4519 325.32062 236.1172 322.41162C245.7825 319.50262 255.4478 321.1514 265.1131 318.15814C274.7784 315.16492 287.98132 307.00568 299.41544 301.94382C310.84955 296.88196 322.8522 295.32196 334.28632 287.55237C345.72043 279.7828 357.15454 262.14294 368.58865 255.09169C380.02277 248.04045 392.02542 249.75566 403.45953 245.08165C414.89365 240.40765 426.32776 232.17195 437.76187 226.88449C449.19598 221.59703 461.00912 217.05002 472.63275 213.13268C484.2564 209.21533 503.33432 203.67998 512.99963 201.8434C522.6649 200.00682 532.3302 200.70299 541.9955 198.93312C551.6608 197.16325 574.4659 189.99022 582.17285 188.25148C589.8798 186.51274 605.29376 183.96603 605.29376 183.96603" fill-rule="nonzero"/><path stroke="#dc3912" stroke-width="4.0" stroke-linecap="butt" clip-path="url(#id_0)" d="M91.70626 447.55313C91.70626 447.55313 103.32989 447.15338 109.1417 446.9455C114.953514 446.7376 120.765335 446.52628 126.57715 446.30588C132.38896 446.08548 149.44537 445.38846 160.87949 444.96268C172.3136 444.5369 190.12807 444.03574 201.62535 443.52353C213.12263 443.01135 226.4519 442.07776 236.1172 441.66864C245.7825 441.2595 255.4478 441.06207 265.1131 440.77316C274.7784 440.48425 287.98132 440.04138 299.41544 439.78177C310.84955 439.52216 322.8522 439.60962 334.28632 439.20612C345.72043 438.80258 357.15454 437.7757 368.58865 437.3512C380.02277 436.9267 392.02542 436.95486 403.45953 436.6476C414.89365 436.3404 426.32776 435.75635 437.76187 435.4963C449.19598 435.23627 461.00912 435.18668 472.63275 435.08057C484.2564 434.97443 503.33432 434.9886 512.99963 434.8247C522.6649 434.66083 532.3302 434.2892 541.9955 434.02518C551.6608 433.76114 574.4659 433.10608 582.17285 432.93784C589.8798 432.7696 605.29376 432.55405 605.29376 432.55405" fill-rule="nonzero"/><path fill="#a4c2f4" clip-path="url(#id_0)" d="M95.20626 374.5086C95.20626 376.44162 93.63926 378.0086 91.70626 378.0086C89.77326 378.0086 88.20626 376.44162 88.20626 374.5086C88.20626 372.57562 89.77326 371.0086 91.70626 371.0086C93.63926 371.0086 95.20626 372.57562 95.20626 374.5086Z" fill-rule="nonzero"/><path fill="#a4c2f4" clip-path="url(#id_0)" d="M112.6417 369.8394C112.6417 371.7724 111.0747 373.3394 109.1417 373.3394C107.20871 373.3394 105.6417 371.7724 105.6417 369.8394C105.6417 367.9064 107.20871 366.3394 109.1417 366.3394C111.0747 366.3394 112.6417 367.9064 112.6417 369.8394Z" fill-rule="nonzero"/><path fill="#a4c2f4" clip-path="url(#id_0)" d="M130.07715 362.48376C130.07715 364.41678 128.51015 365.98376 126.57715 365.98376C124.64415 365.98376 123.07715 364.41678 123.07715 362.48376C123.07715 360.55078 124.64415 358.98376 126.57715 358.98376C128.51015 358.98376 130.07715 360.55078 130.07715 362.48376Z" fill-rule="nonzero"/><path fill="#a4c2f4" clip-path="url(#id_0)" d="M164.37949 347.77252C164.37949 349.70554 162.81248 351.27252 160.87949 351.27252C158.94649 351.27252 157.37949 349.70554 157.37949 347.77252C157.37949 345.83954 158.94649 344.27252 160.87949 344.27252C162.81248 344.27252 164.37949 345.83954 164.37949 347.77252Z" fill-rule="nonzero"/><path fill="#a4c2f4" clip-path="url(#id_0)" d="M205.12535 338.1143C205.12535 340.04727 203.55835 341.6143 201.62535 341.6143C199.69235 341.6143 198.12535 340.04727 198.12535 338.1143C198.12535 336.18127 199.69235 334.6143 201.62535 334.6143C203.55835 334.6143 205.12535 336.18127 205.12535 338.1143Z" fill-rule="nonzero"/><path fill="#a4c2f4" clip-path="url(#id_0)" d="M239.6172 322.41162C239.6172 324.34464 238.0502 325.91162 236.1172 325.91162C234.1842 325.91162 232.6172 324.34464 232.6172 322.41162C232.6172 320.47864 234.1842 318.91162 236.1172 318.91162C238.0502 318.91162 239.6172 320.47864 239.6172 322.41162Z" fill-rule="nonzero"/><path fill="#a4c2f4" clip-path="url(#id_0)" d="M268.6131 318.15814C268.6131 320.09116 267.0461 321.65814 265.1131 321.65814C263.1801 321.65814 261.6131 320.09116 261.6131 318.15814C261.6131 316.22516 263.1801 314.65814 265.1131 314.65814C267.0461 314.65814 268.6131 316.22516 268.6131 318.15814Z" fill-rule="nonzero"/><path fill="#a4c2f4" clip-path="url(#id_0)" d="M302.91544 301.94382C302.91544 303.8768 301.34845 305.44382 299.41544 305.44382C297.48245 305.44382 295.91544 303.8768 295.91544 301.94382C295.91544 300.0108 297.48245 298.44382 299.41544 298.44382C301.34845 298.44382 302.91544 300.0108 302.91544 301.94382Z" fill-rule="nonzero"/><path fill="#a4c2f4" clip-path="url(#id_0)" d="M337.78632 287.55237C337.78632 289.48538 336.21933 291.05237 334.28632 291.05237C332.35333 291.05237 330.78632 289.48538 330.78632 287.55237C330.78632 285.6194 332.35333 284.05237 334.28632 284.05237C336.21933 284.05237 337.78632 285.6194 337.78632 287.55237Z" fill-rule="nonzero"/><path fill="#a4c2f4" clip-path="url(#id_0)" d="M372.08865 255.09169C372.08865 257.0247 370.52167 258.5917 368.58865 258.5917C366.65567 258.5917 365.08865 257.0247 365.08865 255.09169C365.08865 253.1587 366.65567 251.59169 368.58865 251.59169C370.52167 251.59169 372.08865 253.1587 372.08865 255.09169Z" fill-rule="nonzero"/><path fill="#a4c2f4" clip-path="url(#id_0)" d="M406.95953 245.08165C406.95953 247.01465 405.39255 248.58165 403.45953 248.58165C401.52655 248.58165 399.95953 247.01465 399.95953 245.08165C399.95953 243.14867 401.52655 241.58165 403.45953 241.58165C405.39255 241.58165 406.95953 243.14867 406.95953 245.08165Z" fill-rule="nonzero"/><path fill="#a4c2f4" clip-path="url(#id_0)" d="M441.26187 226.88449C441.26187 228.81749 439.6949 230.38449 437.76187 230.38449C435.8289 230.38449 434.26187 228.81749 434.26187 226.88449C434.26187 224.95149 435.8289 223.38449 437.76187 223.38449C439.6949 223.38449 441.26187 224.95149 441.26187 226.88449Z" fill-rule="nonzero"/><path fill="#a4c2f4" clip-path="url(#id_0)" d="M476.13275 213.13268C476.13275 215.06567 474.56577 216.63268 472.63275 216.63268C470.69977 216.63268 469.13275 215.06567 469.13275 213.13268C469.13275 211.19968 470.69977 209.63268 472.63275 209.63268C474.56577 209.63268 476.13275 211.19968 476.13275 213.13268Z" fill-rule="nonzero"/><path fill="#a4c2f4" clip-path="url(#id_0)" d="M516.49963 201.8434C516.49963 203.7764 514.9326 205.3434 512.99963 205.3434C511.06662 205.3434 509.4996 203.7764 509.4996 201.8434C509.4996 199.9104 511.06662 198.3434 512.99963 198.3434C514.9326 198.3434 516.49963 199.9104 516.49963 201.8434Z" fill-rule="nonzero"/><path fill="#a4c2f4" clip-path="url(#id_0)" d="M545.4955 198.93312C545.4955 200.86612 543.9285 202.43312 541.9955 202.43312C540.0625 202.43312 538.4955 200.86612 538.4955 198.93312C538.4955 197.00012 540.0625 195.43312 541.9955 195.43312C543.9285 195.43312 545.4955 197.00012 545.4955 198.93312Z" fill-rule="nonzero"/><path fill="#a4c2f4" clip-path="url(#id_0)" d="M585.67285 188.25148C585.67285 190.18448 584.10583 191.75148 582.17285 191.75148C580.2398 191.75148 578.67285 190.18448 578.67285 188.25148C578.67285 186.31848 580.2398 184.75148 582.17285 184.75148C584.10583 184.75148 585.67285 186.31848 585.67285 188.25148Z" fill-rule="nonzero"/><path fill="#a4c2f4" clip-path="url(#id_0)" d="M608.79376 183.96603C608.79376 185.89903 607.22675 187.46603 605.29376 187.46603C603.3607 187.46603 601.79376 185.89903 601.79376 183.96603C601.79376 182.03304 603.3607 180.46603 605.29376 180.46603C607.22675 180.46603 608.79376 182.03304 608.79376 183.96603Z" fill-rule="nonzero"/><path fill="#dc3912" clip-path="url(#id_0)" d="M95.20626 447.55313C95.20626 449.48615 93.63926 451.05313 91.70626 451.05313C89.77326 451.05313 88.20626 449.48615 88.20626 447.55313C88.20626 445.62015 89.77326 444.05313 91.70626 444.05313C93.63926 444.05313 95.20626 445.62015 95.20626 447.55313Z" fill-rule="nonzero"/><path fill="#dc3912" clip-path="url(#id_0)" d="M112.6417 446.9455C112.6417 448.87848 111.0747 450.4455 109.1417 450.4455C107.20871 450.4455 105.6417 448.87848 105.6417 446.9455C105.6417 445.0125 107.20871 443.4455 109.1417 443.4455C111.0747 443.4455 112.6417 445.0125 112.6417 446.9455Z" fill-rule="nonzero"/><path fill="#dc3912" clip-path="url(#id_0)" d="M130.07715 446.30588C130.07715 448.23886 128.51015 449.80588 126.57715 449.80588C124.64415 449.80588 123.07715 448.23886 123.07715 446.30588C123.07715 444.3729 124.64415 442.80588 126.57715 442.80588C128.51015 442.80588 130.07715 444.3729 130.07715 446.30588Z" fill-rule="nonzero"/><path fill="#dc3912" clip-path="url(#id_0)" d="M164.37949 444.96268C164.37949 446.89566 162.81248 448.46268 160.87949 448.46268C158.94649 448.46268 157.37949 446.89566 157.37949 444.96268C157.37949 443.0297 158.94649 441.46268 160.87949 441.46268C162.81248 441.46268 164.37949 443.0297 164.37949 444.96268Z" fill-rule="nonzero"/><path fill="#dc3912" clip-path="url(#id_0)" d="M205.12535 443.52353C205.12535 445.45654 203.55835 447.02353 201.62535 447.02353C199.69235 447.02353 198.12535 445.45654 198.12535 443.52353C198.12535 441.59055 199.69235 440.02353 201.62535 440.02353C203.55835 440.02353 205.12535 441.59055 205.12535 443.52353Z" fill-rule="nonzero"/><path fill="#dc3912" clip-path="url(#id_0)" d="M239.6172 441.66864C239.6172 443.60162 238.0502 445.16864 236.1172 445.16864C234.1842 445.16864 232.6172 443.60162 232.6172 441.66864C232.6172 439.73563 234.1842 438.16864 236.1172 438.16864C238.0502 438.16864 239.6172 439.73563 239.6172 441.66864Z" fill-rule="nonzero"/><path fill="#dc3912" clip-path="url(#id_0)" d="M268.6131 440.77316C268.6131 442.70618 267.0461 444.27316 265.1131 444.27316C263.1801 444.27316 261.6131 442.70618 261.6131 440.77316C261.6131 438.84018 263.1801 437.27316 265.1131 437.27316C267.0461 437.27316 268.6131 438.84018 268.6131 440.77316Z" fill-rule="nonzero"/><path fill="#dc3912" clip-path="url(#id_0)" d="M302.91544 439.78177C302.91544 441.71475 301.34845 443.28177 299.41544 443.28177C297.48245 443.28177 295.91544 441.71475 295.91544 439.78177C295.91544 437.84875 297.48245 436.28177 299.41544 436.28177C301.34845 436.28177 302.91544 437.84875 302.91544 439.78177Z" fill-rule="nonzero"/><path fill="#dc3912" clip-path="url(#id_0)" d="M337.78632 439.20612C337.78632 441.1391 336.21933 442.70612 334.28632 442.70612C332.35333 442.70612 330.78632 441.1391 330.78632 439.20612C330.78632 437.2731 332.35333 435.70612 334.28632 435.70612C336.21933 435.70612 337.78632 437.2731 337.78632 439.20612Z" fill-rule="nonzero"/><path fill="#dc3912" clip-path="url(#id_0)" d="M372.08865 437.3512C372.08865 439.2842 370.52167 440.8512 368.58865 440.8512C366.65567 440.8512 365.08865 439.2842 365.08865 437.3512C365.08865 435.4182 366.65567 433.8512 368.58865 433.8512C370.52167 433.8512 372.08865 435.4182 372.08865 437.3512Z" fill-rule="nonzero"/><path fill="#dc3912" clip-path="url(#id_0)" d="M406.95953 436.6476C406.95953 438.58063 405.39255 440.1476 403.45953 440.1476C401.52655 440.1476 399.95953 438.58063 399.95953 436.6476C399.95953 434.71463 401.52655 433.1476 403.45953 433.1476C405.39255 433.1476 406.95953 434.71463 406.95953 436.6476Z" fill-rule="nonzero"/><path fill="#dc3912" clip-path="url(#id_0)" d="M441.26187 435.4963C441.26187 437.42932 439.6949 438.9963 437.76187 438.9963C435.8289 438.9963 434.26187 437.42932 434.26187 435.4963C434.26187 433.56332 435.8289 431.9963 437.76187 431.9963C439.6949 431.9963 441.26187 433.56332 441.26187 435.4963Z" fill-rule="nonzero"/><path fill="#dc3912" clip-path="url(#id_0)" d="M476.13275 435.08057C476.13275 437.01355 474.56577 438.58057 472.63275 438.58057C470.69977 438.58057 469.13275 437.01355 469.13275 435.08057C469.13275 433.14755 470.69977 431.58057 472.63275 431.58057C474.56577 431.58057 476.13275 433.14755 476.13275 435.08057Z" fill-rule="nonzero"/><path fill="#dc3912" clip-path="url(#id_0)" d="M516.49963 434.8247C516.49963 436.75772 514.9326 438.3247 512.99963 438.3247C511.06662 438.3247 509.4996 436.75772 509.4996 434.8247C509.4996 432.89172 511.06662 431.3247 512.99963 431.3247C514.9326 431.3247 516.49963 432.89172 516.49963 434.8247Z" fill-rule="nonzero"/><path fill="#dc3912" clip-path="url(#id_0)" d="M545.4955 434.02518C545.4955 435.9582 543.9285 437.52518 541.9955 437.52518C540.0625 437.52518 538.4955 435.9582 538.4955 434.02518C538.4955 432.0922 540.0625 430.52518 541.9955 430.52518C543.9285 430.52518 545.4955 432.0922 545.4955 434.02518Z" fill-rule="nonzero"/><path fill="#dc3912" clip-path="url(#id_0)" d="M585.67285 432.93784C585.67285 434.87082 584.10583 436.43784 582.17285 436.43784C580.2398 436.43784 578.67285 434.87082 578.67285 432.93784C578.67285 431.00482 580.2398 429.43784 582.17285 429.43784C584.10583 429.43784 585.67285 431.00482 585.67285 432.93784Z" fill-rule="nonzero"/><path fill="#dc3912" clip-path="url(#id_0)" d="M608.79376 432.55405C608.79376 434.48706 607.22675 436.05405 605.29376 436.05405C603.3607 436.05405 601.79376 434.48706 601.79376 432.55405C601.79376 430.62106 603.3607 429.05405 605.29376 429.05405C607.22675 429.05405 608.79376 430.62106 608.79376 432.55405Z" fill-rule="nonzero"/><path fill="#d9d9d9" d="M76.89375 456.22318Q76.89375 459.06693 75.90938 460.45755Q74.94063 461.84818 72.8625 461.84818Q70.81563 461.84818 69.83125 460.4888Q68.84688 459.12943 68.81563 456.44193L68.81563 454.27005Q68.81563 451.44193 69.78438 450.08255Q70.76875 448.70755 72.84688 448.70755Q74.90938 448.70755 75.87813 450.03568Q76.8625 451.34818 76.89375 454.1138L76.89375 456.22318ZM75.26875 453.9888Q75.26875 451.9263 74.675 450.9888Q74.09688 450.03568 72.84688 450.03568Q71.59688 450.03568 71.01875 450.9888Q70.45625 451.9263 70.44063 453.8638L70.44063 456.47318Q70.44063 458.5513 71.03438 459.53568Q71.64375 460.52005 72.8625 460.52005Q74.06563 460.52005 74.64375 459.59818Q75.2375 458.66068 75.26875 456.66068L75.26875 453.9888Z" fill-rule="nonzero"/><path fill="#d9d9d9" d="M47.253124 381.72388L38.8625 381.72388L38.8625 380.552L43.3 375.63013Q44.284374 374.52075 44.64375 373.81763Q45.01875 373.1145 45.01875 372.3645Q45.01875 371.3645 44.409374 370.72388Q43.815624 370.08325 42.8 370.08325Q41.58125 370.08325 40.909374 370.78638Q40.2375 371.47388 40.2375 372.69263L38.6125 372.69263Q38.6125 370.927 39.753124 369.84888Q40.89375 368.75513 42.8 368.75513Q44.58125 368.75513 45.6125 369.69263Q46.659374 370.63013 46.659374 372.177Q46.659374 374.06763 44.253124 376.677L40.83125 380.39575L47.253124 380.39575L47.253124 381.72388ZM49.6125 375.302L50.26875 368.927L56.815624 368.927L56.815624 370.427L51.64375 370.427L51.253124 373.91138Q52.190624 373.3645 53.39375 373.3645Q55.14375 373.3645 56.159374 374.52075Q57.190624 375.677 57.190624 377.64575Q57.190624 379.63013 56.128124 380.77075Q55.065624 381.89575 53.14375 381.89575Q51.440624 381.89575 50.3625 380.95825Q49.3 380.02075 49.159374 378.3645L50.690624 378.3645Q50.846874 379.45825 51.471874 380.02075Q52.1125 380.56763 53.14375 380.56763Q54.284374 380.56763 54.925 379.802Q55.565624 379.02075 55.565624 377.66138Q55.565624 376.38013 54.8625 375.59888Q54.175 374.81763 53.01875 374.81763Q51.95625 374.81763 51.346874 375.28638L50.909374 375.64575L49.6125 375.302ZM66.89375 376.27075Q66.89375 379.1145 65.90938 380.50513Q64.94063 381.89575 62.8625 381.89575Q60.815624 381.89575 59.83125 380.53638Q58.846874 379.177 58.815624 376.4895L58.815624 374.31763Q58.815624 371.4895 59.784374 370.13013Q60.76875 368.75513 62.846874 368.75513Q64.90938 368.75513 65.87813 370.08325Q66.8625 371.39575 66.89375 374.16138L66.89375 376.27075ZM65.26875 374.03638Q65.26875 371.97388 64.675 371.03638Q64.09688 370.08325 62.846874 370.08325Q61.596874 370.08325 61.01875 371.03638Q60.45625 371.97388 60.440624 373.91138L60.440624 376.52075Q60.440624 378.59888 61.034374 379.58325Q61.64375 380.56763 62.8625 380.56763Q64.06563 380.56763 64.64375 379.64575Q65.2375 378.70825 65.26875 376.70825L65.26875 374.03638ZM76.89375 376.27075Q76.89375 379.1145 75.90938 380.50513Q74.94063 381.89575 72.8625 381.89575Q70.81563 381.89575 69.83125 380.53638Q68.84688 379.177 68.81563 376.4895L68.81563 374.31763Q68.81563 371.4895 69.78438 370.13013Q70.76875 368.75513 72.84688 368.75513Q74.90938 368.75513 75.87813 370.08325Q76.8625 371.39575 76.89375 374.16138L76.89375 376.27075ZM75.26875 374.03638Q75.26875 371.97388 74.675 371.03638Q74.09688 370.08325 72.84688 370.08325Q71.59688 370.08325 71.01875 371.03638Q70.45625 371.97388 70.44063 373.91138L70.44063 376.52075Q70.44063 378.59888 71.03438 379.58325Q71.64375 380.56763 72.8625 380.56763Q74.06563 380.56763 74.64375 379.64575Q75.2375 378.70825 75.26875 376.70825L75.26875 374.03638Z" fill-rule="nonzero"/><path fill="#d9d9d9" d="M39.6125 295.3496L40.26875 288.9746L46.815624 288.9746L46.815624 290.4746L41.64375 290.4746L41.253124 293.95898Q42.190624 293.4121 43.39375 293.4121Q45.14375 293.4121 46.159374 294.56836Q47.190624 295.7246 47.190624 297.69336Q47.190624 299.67773 46.128124 300.81836Q45.065624 301.94336 43.14375 301.94336Q41.440624 301.94336 40.3625 301.00586Q39.3 300.06836 39.159374 298.4121L40.690624 298.4121Q40.846874 299.50586 41.471874 300.06836Q42.1125 300.61523 43.14375 300.61523Q44.284374 300.61523 44.925 299.8496Q45.565624 299.06836 45.565624 297.70898Q45.565624 296.42773 44.8625 295.64648Q44.175 294.86523 43.01875 294.86523Q41.95625 294.86523 41.346874 295.33398L40.909374 295.69336L39.6125 295.3496ZM56.89375 296.31836Q56.89375 299.1621 55.909374 300.55273Q54.940624 301.94336 52.8625 301.94336Q50.815624 301.94336 49.83125 300.58398Q48.846874 299.2246 48.815624 296.5371L48.815624 294.36523Q48.815624 291.5371 49.784374 290.17773Q50.76875 288.80273 52.846874 288.80273Q54.909374 288.80273 55.878124 290.13086Q56.8625 291.44336 56.89375 294.20898L56.89375 296.31836ZM55.26875 294.08398Q55.26875 292.02148 54.675 291.08398Q54.096874 290.13086 52.846874 290.13086Q51.596874 290.13086 51.01875 291.08398Q50.45625 292.02148 50.440624 293.95898L50.440624 296.56836Q50.440624 298.64648 51.034374 299.63086Q51.64375 300.61523 52.8625 300.61523Q54.065624 300.61523 54.64375 299.69336Q55.2375 298.75586 55.26875 296.75586L55.26875 294.08398ZM66.89375 296.31836Q66.89375 299.1621 65.90938 300.55273Q64.94063 301.94336 62.8625 301.94336Q60.815624 301.94336 59.83125 300.58398Q58.846874 299.2246 58.815624 296.5371L58.815624 294.36523Q58.815624 291.5371 59.784374 290.17773Q60.76875 288.80273 62.846874 288.80273Q64.90938 288.80273 65.87813 290.13086Q66.8625 291.44336 66.89375 294.20898L66.89375 296.31836ZM65.26875 294.08398Q65.26875 292.02148 64.675 291.08398Q64.09688 290.13086 62.846874 290.13086Q61.596874 290.13086 61.01875 291.08398Q60.45625 292.02148 60.440624 293.95898L60.440624 296.56836Q60.440624 298.64648 61.034374 299.63086Q61.64375 300.61523 62.8625 300.61523Q64.06563 300.61523 64.64375 299.69336Q65.2375 298.75586 65.26875 296.75586L65.26875 294.08398ZM76.89375 296.31836Q76.89375 299.1621 75.90938 300.55273Q74.94063 301.94336 72.8625 301.94336Q70.81563 301.94336 69.83125 300.58398Q68.84688 299.2246 68.81563 296.5371L68.81563 294.36523Q68.81563 291.5371 69.78438 290.17773Q70.76875 288.80273 72.84688 288.80273Q74.90938 288.80273 75.87813 290.13086Q76.8625 291.44336 76.89375 294.20898L76.89375 296.31836ZM75.26875 294.08398Q75.26875 292.02148 74.675 291.08398Q74.09688 290.13086 72.84688 290.13086Q71.59688 290.13086 71.01875 291.08398Q70.45625 292.02148 70.44063 293.95898L70.44063 296.56836Q70.44063 298.64648 71.03438 299.63086Q71.64375 300.61523 72.8625 300.61523Q74.06563 300.61523 74.64375 299.69336Q75.2375 298.75586 75.26875 296.75586L75.26875 294.08398Z" fill-rule="nonzero"/><path fill="#d9d9d9" d="M47.128124 209.92845L41.83125 221.81908L40.128124 221.81908L45.409374 210.35033L38.471874 210.35033L38.471874 209.0222L47.128124 209.0222L47.128124 209.92845ZM49.6125 215.3972L50.26875 209.0222L56.815624 209.0222L56.815624 210.5222L51.64375 210.5222L51.253124 214.00658Q52.190624 213.4597 53.39375 213.4597Q55.14375 213.4597 56.159374 214.61595Q57.190624 215.7722 57.190624 217.74095Q57.190624 219.72533 56.128124 220.86595Q55.065624 221.99095 53.14375 221.99095Q51.440624 221.99095 50.3625 221.05345Q49.3 220.11595 49.159374 218.4597L50.690624 218.4597Q50.846874 219.55345 51.471874 220.11595Q52.1125 220.66283 53.14375 220.66283Q54.284374 220.66283 54.925 219.8972Q55.565624 219.11595 55.565624 217.75658Q55.565624 216.47533 54.8625 215.69408Q54.175 214.91283 53.01875 214.91283Q51.95625 214.91283 51.346874 215.38158L50.909374 215.74095L49.6125 215.3972ZM66.89375 216.36595Q66.89375 219.2097 65.90938 220.60033Q64.94063 221.99095 62.8625 221.99095Q60.815624 221.99095 59.83125 220.63158Q58.846874 219.2722 58.815624 216.5847L58.815624 214.41283Q58.815624 211.5847 59.784374 210.22533Q60.76875 208.85033 62.846874 208.85033Q64.90938 208.85033 65.87813 210.17845Q66.8625 211.49095 66.89375 214.25658L66.89375 216.36595ZM65.26875 214.13158Q65.26875 212.06908 64.675 211.13158Q64.09688 210.17845 62.846874 210.17845Q61.596874 210.17845 61.01875 211.13158Q60.45625 212.06908 60.440624 214.00658L60.440624 216.61595Q60.440624 218.69408 61.034374 219.67845Q61.64375 220.66283 62.8625 220.66283Q64.06563 220.66283 64.64375 219.74095Q65.2375 218.80345 65.26875 216.80345L65.26875 214.13158ZM76.89375 216.36595Q76.89375 219.2097 75.90938 220.60033Q74.94063 221.99095 72.8625 221.99095Q70.81563 221.99095 69.83125 220.63158Q68.84688 219.2722 68.81563 216.5847L68.81563 214.41283Q68.81563 211.5847 69.78438 210.22533Q70.76875 208.85033 72.84688 208.85033Q74.90938 208.85033 75.87813 210.17845Q76.8625 211.49095 76.89375 214.25658L76.89375 216.36595ZM75.26875 214.13158Q75.26875 212.06908 74.675 211.13158Q74.09688 210.17845 72.84688 210.17845Q71.59688 210.17845 71.01875 211.13158Q70.45625 212.06908 70.44063 214.00658L70.44063 216.61595Q70.44063 218.69408 71.03438 219.67845Q71.64375 220.66283 72.8625 220.66283Q74.06563 220.66283 74.64375 219.74095Q75.2375 218.80345 75.26875 216.80345L75.26875 214.13158Z" fill-rule="nonzero"/><path fill="#d9d9d9" d="M34.20625 141.86667L32.565624 141.86667L32.565624 131.02292L29.3 132.22604L29.3 130.7573L33.95625 129.0073L34.20625 129.0073L34.20625 141.86667ZM46.89375 136.41354Q46.89375 139.2573 45.909374 140.64792Q44.940624 142.03854 42.8625 142.03854Q40.815624 142.03854 39.83125 140.67917Q38.846874 139.3198 38.815624 136.6323L38.815624 134.46042Q38.815624 131.6323 39.784374 130.27292Q40.76875 128.89792 42.846874 128.89792Q44.909374 128.89792 45.878124 130.22604Q46.8625 131.53854 46.89375 134.30417L46.89375 136.41354ZM45.26875 134.17917Q45.26875 132.11667 44.675 131.17917Q44.096874 130.22604 42.846874 130.22604Q41.596874 130.22604 41.01875 131.17917Q40.45625 132.11667 40.440624 134.05417L40.440624 136.66354Q40.440624 138.74167 41.034374 139.72604Q41.64375 140.71042 42.8625 140.71042Q44.065624 140.71042 44.64375 139.78854Q45.2375 138.85104 45.26875 136.85104L45.26875 134.17917ZM56.89375 136.41354Q56.89375 139.2573 55.909374 140.64792Q54.940624 142.03854 52.8625 142.03854Q50.815624 142.03854 49.83125 140.67917Q48.846874 139.3198 48.815624 136.6323L48.815624 134.46042Q48.815624 131.6323 49.784374 130.27292Q50.76875 128.89792 52.846874 128.89792Q54.909374 128.89792 55.878124 130.22604Q56.8625 131.53854 56.89375 134.30417L56.89375 136.41354ZM55.26875 134.17917Q55.26875 132.11667 54.675 131.17917Q54.096874 130.22604 52.846874 130.22604Q51.596874 130.22604 51.01875 131.17917Q50.45625 132.11667 50.440624 134.05417L50.440624 136.66354Q50.440624 138.74167 51.034374 139.72604Q51.64375 140.71042 52.8625 140.71042Q54.065624 140.71042 54.64375 139.78854Q55.2375 138.85104 55.26875 136.85104L55.26875 134.17917ZM66.89375 136.41354Q66.89375 139.2573 65.90938 140.64792Q64.94063 142.03854 62.8625 142.03854Q60.815624 142.03854 59.83125 140.67917Q58.846874 139.3198 58.815624 136.6323L58.815624 134.46042Q58.815624 131.6323 59.784374 130.27292Q60.76875 128.89792 62.846874 128.89792Q64.90938 128.89792 65.87813 130.22604Q66.8625 131.53854 66.89375 134.30417L66.89375 136.41354ZM65.26875 134.17917Q65.26875 132.11667 64.675 131.17917Q64.09688 130.22604 62.846874 130.22604Q61.596874 130.22604 61.01875 131.17917Q60.45625 132.11667 60.440624 134.05417L60.440624 136.66354Q60.440624 138.74167 61.034374 139.72604Q61.64375 140.71042 62.8625 140.71042Q64.06563 140.71042 64.64375 139.78854Q65.2375 138.85104 65.26875 136.85104L65.26875 134.17917ZM76.89375 136.41354Q76.89375 139.2573 75.90938 140.64792Q74.94063 142.03854 72.8625 142.03854Q70.81563 142.03854 69.83125 140.67917Q68.84688 139.3198 68.81563 136.6323L68.81563 134.46042Q68.81563 131.6323 69.78438 130.27292Q70.76875 128.89792 72.84688 128.89792Q74.90938 128.89792 75.87813 130.22604Q76.8625 131.53854 76.89375 134.30417L76.89375 136.41354ZM75.26875 134.17917Q75.26875 132.11667 74.675 131.17917Q74.09688 130.22604 72.84688 130.22604Q71.59688 130.22604 71.01875 131.17917Q70.45625 132.11667 70.44063 134.05417L70.44063 136.66354Q70.44063 138.74167 71.03438 139.72604Q71.64375 140.71042 72.8625 140.71042Q74.06563 140.71042 74.64375 139.78854Q75.2375 138.85104 75.26875 136.85104L75.26875 134.17917Z" fill-rule="nonzero"/><path fill="#d9d9d9" d="M108.49987 523.01337L104.30456 530.27985L103.28969 529.6939L101.245964 523.39Q100.777405 521.9828 100.34817 521.32Q99.92674 520.6437 99.27723 520.2687Q98.4112 519.7687 97.55172 519.97614Q96.70004 520.17 96.19223 521.04956Q95.582855 522.10504 95.85584 523.03845Q96.115295 523.96405 97.17077 524.5734L96.35827 525.9807Q94.82919 525.0979 94.46582 523.57104Q94.08891 522.0364 95.04204 520.3855Q95.93266 518.8429 97.26019 518.4186Q98.59553 517.9807 99.93516 518.75415Q101.57249 519.69946 102.62915 523.088L104.13874 527.9108L107.34968 522.3493L108.49987 523.01337ZM108.59763 511.93777Q111.060394 513.3597 111.77252 514.9075Q112.49247 516.4417 111.45341 518.24146Q110.42997 520.0141 108.76053 520.1869Q107.09109 520.3597 104.74802 519.043L102.86712 517.9571Q100.41789 516.543 99.72501 515.02435Q99.02641 513.4844 100.065475 511.68466Q101.096725 509.89847 102.73129 509.72357Q104.36014 509.52734 106.77086 510.8831L108.59763 511.93777ZM105.85011 512.2279Q104.063934 511.19662 102.95516 511.24207Q101.84067 511.26617 101.21567 512.3487Q100.59067 513.4313 101.12704 514.4085Q101.657684 515.3644 103.3278 516.3467L105.587585 517.65137Q107.38729 518.6904 108.53666 518.6684Q109.69384 518.6328 110.303215 517.5774Q110.90478 516.53546 110.39548 515.57385Q109.88045 514.5909 108.164024 513.56384L105.85011 512.2279ZM116.97643 508.33154L116.15612 509.75235L106.76515 504.33047L106.17428 507.76016L104.902306 507.0258L105.71488 502.11835L105.83988 501.90186L116.97643 508.33154ZM114.11805 500.43863L108.92526 496.6828L112.1987 491.01306L113.497734 491.76306L110.9118 496.24203L113.73405 498.3225Q113.72919 497.23718 114.33075 496.19522Q115.20575 494.6797 116.714905 494.37827Q118.23187 494.0633 119.93686 495.04767Q121.65537 496.03986 122.11194 497.53033Q122.55496 499.01297 121.594025 500.67737Q120.74246 502.1523 119.3915 502.61725Q118.048355 503.06866 116.543686 502.3623L117.30931 501.03622Q118.334656 501.44775 119.13429 501.18774Q119.928215 500.9064 120.44384 500.0133Q121.01415 499.02548 120.67141 498.0879Q120.31514 497.14246 119.137886 496.46277Q118.0283 495.82214 117.00015 496.04044Q115.97982 496.2452 115.401695 497.24655Q114.870445 498.16672 114.9717 498.9288L115.06418 499.4874L114.11805 500.43863ZM125.50177 495.75272L124.798645 496.97055L115.44089 485.39743L116.1362 484.1931L125.50177 495.75272ZM127.09763 479.89484Q129.5604 481.3167 130.27252 482.86453Q130.99246 484.3988 129.9534 486.19852Q128.92996 487.97116 127.26052 488.14395Q125.59108 488.31677 123.24802 487.00006L121.36712 485.91412Q118.917885 484.50006 118.225006 482.9814Q117.52641 481.44144 118.565475 479.64172Q119.596725 477.85556 121.23129 477.68063Q122.86014 477.4844 125.27086 478.84015L127.09763 479.89484ZM124.35011 480.18494Q122.563934 479.1537 121.455154 479.19916Q120.34067 479.22327 119.71567 480.3058Q119.09067 481.3883 119.62703 482.36554Q120.157684 483.32144 121.8278 484.3037L124.08758 485.6084Q125.88729 486.64746 127.03666 486.62546Q128.19383 486.5899 128.8032 485.53445Q129.40477 484.4925 128.89548 483.53088Q128.38045 482.54794 126.664024 481.52087L124.35011 480.18494ZM135.47643 476.2886L134.65611 477.7094L125.26515 472.28754L124.67428 475.71722L123.402306 474.98285L124.21488 470.0754L124.33988 469.85892L135.47643 476.2886Z" fill-rule="nonzero"/><path fill="#d9d9d9" d="M177.6731 523.01337L173.47778 530.27985L172.4629 529.6939L170.41919 523.39Q169.95062 521.9828 169.5214 521.32Q169.09998 520.6437 168.45045 520.2687Q167.58443 519.7687 166.72495 519.97614Q165.87326 520.17 165.36545 521.04956Q164.75607 522.10504 165.02907 523.03845Q165.28853 523.96405 166.344 524.5734L165.5315 525.9807Q164.00241 525.0979 163.63904 523.57104Q163.26215 522.0364 164.21527 520.3855Q165.1059 518.8429 166.43341 518.4186Q167.76875 517.9807 169.10838 518.75415Q170.74571 519.69946 171.80237 523.088L173.31197 527.9108L176.5229 522.3493L177.6731 523.01337ZM177.77086 511.93777Q180.23363 513.3596 180.94576 514.9075Q181.6657 516.4417 180.62663 518.24146Q179.6032 520.0141 177.93375 520.1869Q176.26431 520.3597 173.92125 519.043L172.04034 517.9571Q169.59111 516.543 168.89824 515.02435Q168.19965 513.4844 169.23871 511.68466Q170.26996 509.89847 171.90451 509.72357Q173.53336 509.52734 175.94409 510.8831L177.77086 511.93777ZM175.02333 512.22784Q173.23715 511.19662 172.12839 511.24207Q171.01389 511.26617 170.38889 512.3487Q169.76389 513.4313 170.30026 514.4085Q170.8309 515.3644 172.50102 516.3467L174.7608 517.65137Q176.56052 518.6904 177.70988 518.6684Q178.86707 518.6328 179.47644 517.5774Q180.078 516.53546 179.5687 515.57385Q179.05368 514.5909 177.33725 513.5638L175.02333 512.22784ZM186.14966 508.3315L185.32935 509.75235L175.93839 504.33047L175.3475 507.76013L174.07553 507.02576L174.8881 502.11835L175.0131 501.90182L186.14966 508.3315ZM180.56934 492.37192L181.77365 493.06723L181.62521 493.32434Q180.70695 494.9773 181.09167 496.49844Q181.46286 498.01178 183.09544 499.15283Q182.5941 497.70868 183.4691 496.19315Q184.30504 494.74524 185.83344 494.47296Q187.34831 494.19287 188.95859 495.12256Q190.66357 496.10693 191.15291 497.63437Q191.64226 499.1618 190.73601 500.73148Q189.82195 502.3147 188.02597 502.6129Q186.23781 502.89758 184.30278 501.7804L183.76152 501.4679Q180.70337 499.70227 179.8431 497.47354Q178.97711 495.22348 180.42871 492.6155L180.56934 492.37192ZM184.50002 497.09503Q184.07814 497.82574 184.17311 498.69247Q184.25456 499.55142 184.77127 500.15646L185.28548 500.45334Q186.65218 501.2424 187.8427 501.11783Q189.04103 500.97977 189.57228 500.0596Q190.11916 499.1124 189.74155 498.1727Q189.35822 497.21164 188.22156 496.5554Q187.07137 495.89133 186.04741 496.0399Q185.02345 496.18842 184.50002 497.09503ZM194.675 495.7527L193.97188 496.97055L184.6141 485.3974L185.30942 484.19308L194.675 495.7527ZM196.27086 479.89484Q198.73363 481.3167 199.44576 482.8645Q200.1657 484.39877 199.12663 486.1985Q198.1032 487.97113 196.43375 488.14395Q194.76431 488.31674 192.42125 487.00006L190.54034 485.91412Q188.09111 484.50006 187.39824 482.9814Q186.69965 481.4414 187.73871 479.64172Q188.76996 477.85553 190.40451 477.68063Q192.03336 477.4844 194.44409 478.84015L196.27086 479.89484ZM193.52333 480.18494Q191.73715 479.1537 190.62839 479.19913Q189.51389 479.22324 188.88889 480.3058Q188.26389 481.3883 188.80026 482.36554Q189.3309 483.32144 191.00102 484.3037L193.2608 485.6084Q195.06052 486.64746 196.20988 486.62546Q197.36707 486.5899 197.97644 485.53442Q198.578 484.4925 198.0687 483.53088Q197.55368 482.54794 195.83725 481.52087L193.52333 480.18494ZM204.64966 476.28857L203.82935 477.7094L194.43839 472.28754L193.8475 475.7172L192.57553 474.98282L193.3881 470.0754L193.5131 469.8589L204.64966 476.28857Z" fill-rule="nonzero"/><path fill="#d9d9d9" d="M247.03584 523.01337L242.84052 530.27985L241.82564 529.6939L239.78192 523.39Q239.31337 521.9828 238.88412 521.32Q238.4627 520.6437 237.81319 520.2687Q236.94717 519.7687 236.08768 519.97614Q235.23601 520.17 234.7282 521.04956Q234.11882 522.10504 234.3918 523.03845Q234.65126 523.96405 235.70673 524.5734L234.89423 525.9807Q233.36514 525.0979 233.00177 523.57104Q232.62488 522.0364 233.578 520.3855Q234.46863 518.8429 235.79616 518.4185Q237.13148 517.98065 238.47113 518.7541Q240.10846 519.6994 241.1651 523.088L242.6747 527.9108L245.88565 522.3493L247.03584 523.01337ZM247.1336 511.93774Q249.59636 513.3596 250.30849 514.9075Q251.02843 516.4417 249.98936 518.2414Q248.96593 520.0141 247.2965 520.1869Q245.62706 520.3597 243.28398 519.04297L241.40309 517.95703Q238.95386 516.54297 238.26099 515.02435Q237.56238 513.4844 238.60144 511.68463Q239.63269 509.89847 241.26726 509.72357Q242.8961 509.5273 245.30682 510.88306L247.1336 511.93774ZM244.38608 512.22784Q242.5999 511.19662 241.49112 511.24207Q240.37663 511.26617 239.75163 512.3487Q239.12663 513.4312 239.663 514.40845Q240.19365 515.3644 241.86377 516.3466L244.12355 517.6513Q245.92326 518.69037 247.07263 518.6684Q248.22981 518.6328 248.83919 517.57733Q249.44075 516.5354 248.93144 515.5738Q248.41641 514.5909 246.7 513.5638L244.38608 512.22784ZM255.5124 508.3315L254.6921 509.75232L245.30112 504.33044L244.71025 507.76013L243.43828 507.02576L244.25085 502.11832L244.37585 501.90182L255.5124 508.3315ZM251.67575 491.19553L259.3249 501.72806L258.47333 503.203L251.18173 492.89496L247.71298 498.90298L246.56279 498.23892L250.89091 490.7424L251.67575 491.19553ZM264.03775 495.7527L263.33463 496.97055L253.97685 485.3974L254.67216 484.19308L264.03775 495.7527ZM265.6336 479.8948Q268.09637 481.31668 268.8085 482.8645Q269.52844 484.39877 268.48938 486.1985Q267.46594 487.97113 265.79648 488.14392Q264.12704 488.31674 261.784 487.00006L259.90308 485.91412Q257.45386 484.50006 256.761 482.9814Q256.06238 481.4414 257.10144 479.6417Q258.1327 477.85553 259.76727 477.68063Q261.39612 477.48438 263.80682 478.84012L265.6336 479.8948ZM262.88608 480.18494Q261.0999 479.1537 259.99112 479.19913Q258.87665 479.22324 258.25165 480.30576Q257.62665 481.3883 258.163 482.36554Q258.69366 483.3214 260.36377 484.3037L262.62354 485.6084Q264.42325 486.64746 265.57263 486.62543Q266.7298 486.5899 267.33917 485.53442Q267.94073 484.4925 267.43143 483.53088Q266.9164 482.5479 265.19998 481.52087L262.88608 480.18494ZM274.0124 476.28857L273.19208 477.70938L263.80112 472.2875L263.21024 475.7172L261.93826 474.98282L262.75085 470.07538L262.87585 469.8589L274.0124 476.28857Z" fill-rule="nonzero"/><path fill="#d9d9d9" d="M316.20905 523.01337L312.01373 530.27985L310.99887 529.6939L308.95514 523.38995Q308.4866 521.9828 308.05734 521.32Q307.63593 520.6437 306.98642 520.2687Q306.1204 519.7687 305.2609 519.97614Q304.40924 520.17 303.90143 521.04956Q303.29205 522.10504 303.56503 523.03845Q303.8245 523.96405 304.87994 524.5734L304.06744 525.9807Q302.53836 525.0979 302.17502 523.57104Q301.7981 522.0364 302.75122 520.3855Q303.64185 518.8429 304.96936 518.4185Q306.30472 517.98065 307.64435 518.7541Q309.28168 519.6994 310.33835 523.088L311.84793 527.91077L315.05887 522.3493L316.20905 523.01337ZM316.30682 511.93777Q318.7696 513.3596 319.48172 514.9075Q320.20166 516.4417 319.1626 518.24146Q318.13916 520.0141 316.46973 520.1869Q314.80026 520.3597 312.4572 519.04297L310.5763 517.95703Q308.12708 516.54297 307.4342 515.02435Q306.7356 513.4844 307.77466 511.68463Q308.8059 509.89847 310.4405 509.72357Q312.06934 509.5273 314.48004 510.8831L316.30682 511.93777ZM313.5593 512.22784Q311.77313 511.19662 310.66434 511.24207Q309.54987 511.26617 308.92487 512.3487Q308.29987 513.4312 308.8362 514.40845Q309.36688 515.3644 311.037 516.3466L313.29675 517.6513Q315.09647 518.69037 316.24585 518.6684Q317.403 518.6328 318.0124 517.5774Q318.61395 516.5354 318.10464 515.5738Q317.58963 514.5909 315.8732 513.5638L313.5593 512.22784ZM324.6856 508.3315L323.8653 509.75235L314.47433 504.33047L313.88345 507.76013L312.61148 507.02576L313.42407 502.11835L313.54907 501.90182L324.6856 508.3315ZM322.7099 492.8473Q323.53534 493.32385 323.92703 494.1454Q324.32657 494.9534 324.26224 495.9086Q325.1276 495.2535 326.13382 495.1669Q327.1479 495.06674 328.0545 495.59018Q329.48886 496.4183 329.77884 497.8848Q330.06885 499.35126 329.1548 500.93445Q328.2329 502.5312 326.8257 502.99976Q325.41855 503.4683 323.9842 502.64017Q323.0911 502.12454 322.65518 501.22336Q322.21353 500.3008 322.33463 499.21603Q321.53958 499.74933 320.64008 499.80734Q319.74838 499.85184 318.93646 499.3831Q317.52917 498.5706 317.2329 497.20874Q316.9309 495.82556 317.77466 494.36414Q318.6184 492.9027 319.9673 492.47266Q321.3026 492.0348 322.7099 492.8473ZM327.21494 496.98184Q326.28125 496.44278 325.35565 496.70224Q324.42432 496.94037 323.86963 497.9011Q323.32275 498.84833 323.56866 499.7661Q323.82242 500.67038 324.76962 501.21725Q325.7033 501.75632 326.56488 501.51404Q327.43427 501.2582 328.00458 500.2704Q328.5827 499.26904 328.36176 498.40173Q328.14862 497.5209 327.21494 496.98184ZM318.92487 495.0282Q318.4483 495.85364 318.66562 496.6647Q318.88293 497.4758 319.7625 497.9836Q320.615 498.4758 321.4318 498.27982Q322.24286 498.06247 322.72723 497.2235Q323.21942 496.37103 322.9943 495.5735Q322.76343 494.75458 321.92447 494.2702Q321.072 493.778 320.23956 494.00107Q319.39362 494.2163 318.92487 495.0282ZM333.21097 495.7527L332.50784 496.97055L323.1501 485.3974L323.8454 484.19308L333.21097 495.7527ZM334.80682 479.89484Q337.2696 481.3167 337.98172 482.8645Q338.70166 484.39877 337.6626 486.1985Q336.63916 487.97113 334.96973 488.14395Q333.30026 488.31674 330.9572 487.00006L329.0763 485.91412Q326.62708 484.50006 325.9342 482.9814Q325.2356 481.4414 326.27466 479.6417Q327.3059 477.85553 328.9405 477.68063Q330.56934 477.48438 332.98004 478.84015L334.80682 479.89484ZM332.0593 480.18494Q330.27313 479.1537 329.16434 479.19913Q328.04987 479.22324 327.42487 480.30576Q326.79987 481.3883 327.3362 482.36554Q327.86688 483.3214 329.537 484.3037L331.79675 485.6084Q333.59647 486.64746 334.74585 486.62543Q335.903 486.5899 336.5124 485.53442Q337.11395 484.4925 336.60464 483.53088Q336.08963 482.5479 334.3732 481.52087L332.0593 480.18494ZM343.1856 476.28857L342.3653 477.7094L332.97433 472.28754L332.38345 475.7172L331.11148 474.98282L331.92407 470.07538L332.04907 469.8589L343.1856 476.28857Z" fill-rule="nonzero"/><path fill="#d9d9d9" d="M385.38226 523.01337L381.18695 530.27985L380.1721 529.6939L378.12836 523.39Q377.65982 521.9828 377.23056 521.32Q376.80914 520.6437 376.15964 520.2687Q375.2936 519.7687 374.4341 519.97614Q373.58246 520.17 373.07465 521.04956Q372.46527 522.10504 372.73825 523.03845Q372.9977 523.96405 374.05316 524.5734L373.24066 525.9807Q371.7116 525.0979 371.34824 523.57104Q370.9713 522.0364 371.92444 520.3855Q372.81506 518.8429 374.1426 518.4186Q375.47794 517.98065 376.81757 518.7541Q378.4549 519.6994 379.51157 523.088L381.02115 527.9108L384.2321 522.3493L385.38226 523.01337ZM385.48004 511.93777Q387.9428 513.3596 388.65494 514.9075Q389.37488 516.4417 388.33582 518.24146Q387.31238 520.0141 385.64294 520.1869Q383.97348 520.3597 381.63043 519.043L379.7495 517.9571Q377.3003 516.543 376.60742 515.02435Q375.9088 513.4844 376.94788 511.68466Q377.97913 509.89847 379.6137 509.72357Q381.24255 509.5273 383.65326 510.8831L385.48004 511.93777ZM382.7325 512.22784Q380.94635 511.19662 379.83755 511.24207Q378.72308 511.26617 378.09808 512.3487Q377.47308 513.4312 378.00943 514.40845Q378.5401 515.3644 380.2102 516.3466L382.47 517.6513Q384.26968 518.69037 385.41907 518.6684Q386.57623 518.6328 387.1856 517.5774Q387.78717 516.5354 387.2779 515.5738Q386.76285 514.5909 385.04642 513.5638L382.7325 512.22784ZM393.85883 508.3315L393.0385 509.75235L383.64755 504.33047L383.05667 507.76013L381.7847 507.02576L382.5973 502.11835L382.7223 501.90182L393.85883 508.3315ZM394.43277 496.08746Q394.70267 496.83868 394.67587 497.6351Q394.63553 498.42374 394.21365 499.15445Q393.65897 500.11517 392.7713 500.55893Q391.89145 500.98914 390.8124 500.88937Q389.73334 500.78958 388.6914 500.18802Q387.58182 499.5474 386.9309 498.6123Q386.2878 497.66367 386.27304 496.62674Q386.24475 495.582 386.8463 494.54004Q387.79163 492.9027 389.5699 492.66644Q391.34244 492.4088 393.4669 493.63538L393.88638 493.87756Q397.12042 495.74475 397.86673 497.88965Q398.62085 500.021 397.16925 502.62897L397.013 502.8996L395.8222 502.2121L395.99408 501.9144Q396.967 500.16675 396.62653 498.72525Q396.29385 497.2702 394.43277 496.08746ZM393.18277 498.25253Q393.58902 497.5489 393.49976 496.7035Q393.4105 495.8581 392.93076 495.22028L392.36243 494.89215Q390.98218 494.09528 389.7724 494.19067Q388.5491 494.27823 388.01785 495.1984Q387.4788 496.13208 387.86786 497.11447Q388.2647 498.08334 389.42844 498.75522Q390.55154 499.40366 391.6083 499.29205Q392.65152 499.17267 393.18277 498.25253ZM402.3842 495.7527L401.68106 496.97055L392.3233 485.3974L393.01862 484.19308L402.3842 495.7527ZM403.98004 479.89484Q406.4428 481.3167 407.15494 482.8645Q407.87488 484.39877 406.83582 486.1985Q405.81238 487.97113 404.14294 488.14395Q402.47348 488.31674 400.13043 487.00006L398.2495 485.91412Q395.8003 484.50006 395.10742 482.9814Q394.4088 481.4414 395.44788 479.64172Q396.47913 477.85553 398.1137 477.68063Q399.74255 477.48438 402.15326 478.84015L403.98004 479.89484ZM401.2325 480.18494Q399.44635 479.1537 398.33755 479.19913Q397.22308 479.22324 396.59808 480.3058Q395.97308 481.3883 396.50943 482.36554Q397.0401 483.3214 398.7102 484.3037L400.97 485.6084Q402.76968 486.64746 403.91907 486.62543Q405.07623 486.5899 405.6856 485.53442Q406.28717 484.4925 405.7779 483.53088Q405.26285 482.54794 403.54642 481.52087L401.2325 480.18494ZM412.35883 476.28857L411.5385 477.7094L402.14755 472.28754L401.55667 475.7172L400.2847 474.98282L401.0973 470.0754L401.2223 469.8589L412.35883 476.28857Z" fill-rule="nonzero"/><path fill="#d9d9d9" d="M454.55548 523.01337L450.36017 530.27985L449.3453 529.6939L447.30157 523.39Q446.83304 521.9828 446.40378 521.32Q445.98236 520.6437 445.33286 520.2687Q444.46683 519.7687 443.60733 519.97614Q442.75568 520.17 442.24786 521.04956Q441.6385 522.10504 441.91147 523.03845Q442.17093 523.96405 443.22638 524.5734L442.41388 525.9807Q440.88483 525.0979 440.52145 523.57104Q440.14453 522.0364 441.09766 520.3855Q441.98828 518.8429 443.31583 518.4186Q444.65115 517.9807 445.99078 518.75415Q447.6281 519.69946 448.68478 523.088L450.19437 527.9108L453.4053 522.3493L454.55548 523.01337ZM454.65326 511.93777Q457.11603 513.3596 457.82816 514.9075Q458.5481 516.4417 457.50903 518.24146Q456.4856 520.0141 454.81616 520.1869Q453.1467 520.3597 450.80365 519.043L448.92273 517.9571Q446.4735 516.543 445.78064 515.02435Q445.08203 513.4844 446.1211 511.68466Q447.15234 509.89847 448.78693 509.72357Q450.41577 509.52734 452.82648 510.8831L454.65326 511.93777ZM451.90573 512.22784Q450.11957 511.19662 449.01077 511.24207Q447.8963 511.26617 447.2713 512.3487Q446.6463 513.4313 447.18265 514.4085Q447.71332 515.3644 449.38342 516.3467L451.64322 517.65137Q453.4429 518.6904 454.5923 518.6684Q455.74945 518.6328 456.35883 517.5774Q456.9604 516.53546 456.4511 515.57385Q455.93607 514.5909 454.21964 513.5638L451.90573 512.22784ZM464.55548 505.69284L460.36017 512.95935L459.3453 512.3734L457.30157 506.0695Q456.83304 504.6623 456.40378 503.9995Q455.98236 503.32318 455.33286 502.94818Q454.46683 502.44818 453.60733 502.6556Q452.75568 502.8495 452.24786 503.72906Q451.6385 504.78452 451.91147 505.71796Q452.17093 506.64355 453.22638 507.25293L452.41388 508.66022Q450.88483 507.7774 450.52145 506.25055Q450.14453 504.71585 451.09766 503.065Q451.98828 501.5224 453.31583 501.09805Q454.65115 500.6602 455.99078 501.43362Q457.6281 502.37894 458.68478 505.7675L460.19437 510.5903L463.4053 505.02878L464.55548 505.69284ZM464.65326 494.61725Q467.11603 496.03912 467.82816 497.58694Q468.5481 499.12122 467.50903 500.92093Q466.4856 502.69357 464.81616 502.86636Q463.1467 503.03918 460.80365 501.7225L458.92273 500.63657Q456.4735 499.2225 455.78064 497.70386Q455.08203 496.16385 456.1211 494.36414Q457.15234 492.57797 458.78693 492.40308Q460.41577 492.20682 462.82648 493.56256L464.65326 494.61725ZM461.90573 494.90735Q460.11957 493.8761 459.01077 493.92157Q457.8963 493.94568 457.2713 495.0282Q456.6463 496.11075 457.18265 497.08798Q457.71332 498.04385 459.38342 499.02615L461.64322 500.33084Q463.4429 501.3699 464.5923 501.34787Q465.74945 501.31232 466.35883 500.25687Q466.9604 499.21494 466.4511 498.25333Q465.93607 497.27036 464.21964 496.2433L461.90573 494.90735ZM471.5574 495.7527L470.85428 496.97055L461.49652 485.3974L462.19183 484.19308L471.5574 495.7527ZM473.15326 479.89484Q475.61603 481.3167 476.32816 482.8645Q477.0481 484.39877 476.00903 486.1985Q474.9856 487.97113 473.31616 488.14395Q471.6467 488.31674 469.30365 487.00006L467.42273 485.91412Q464.9735 484.50006 464.28064 482.9814Q463.58203 481.4414 464.6211 479.64172Q465.65234 477.85553 467.28693 477.68063Q468.91577 477.4844 471.32648 478.84015L473.15326 479.89484ZM470.40573 480.18494Q468.61957 479.1537 467.51077 479.19913Q466.3963 479.22324 465.7713 480.3058Q465.1463 481.3883 465.68265 482.36554Q466.21332 483.32144 467.88342 484.3037L470.14322 485.6084Q471.9429 486.64746 473.0923 486.62546Q474.24945 486.5899 474.85883 485.53442Q475.4604 484.4925 474.9511 483.53088Q474.43607 482.54794 472.71964 481.52087L470.40573 480.18494ZM481.53204 476.28857L480.71173 477.7094L471.32077 472.28754L470.72992 475.7172L469.45792 474.98282L470.2705 470.0754L470.3955 469.8589L481.53204 476.28857Z" fill-rule="nonzero"/><path fill="#d9d9d9" d="M523.9182 523.01337L519.7229 530.27985L518.70807 529.6939L516.6643 523.39Q516.19574 521.9828 515.76654 521.32Q515.3451 520.6437 514.69556 520.2687Q513.8295 519.7687 512.9701 519.97614Q512.1184 520.17 511.6106 521.04956Q511.00122 522.10504 511.2742 523.03845Q511.53366 523.96405 512.5891 524.5734L511.7766 525.9807Q510.24756 525.0979 509.8842 523.57104Q509.50726 522.0364 510.4604 520.3855Q511.351 518.8429 512.6785 518.4186Q514.01385 517.9807 515.3535 518.75415Q516.99084 519.69946 518.0475 523.088L519.5571 527.9108L522.76807 522.3493L523.9182 523.01337ZM524.016 511.93777Q526.47876 513.3596 527.19086 514.9075Q527.9108 516.4417 526.87177 518.24146Q525.8483 520.0141 524.1789 520.1869Q522.50946 520.3597 520.1664 519.043L518.28546 517.9571Q515.83624 516.543 515.1434 515.02435Q514.44476 513.4844 515.4838 511.68466Q516.5151 509.89847 518.14966 509.72357Q519.7785 509.52734 522.1892 510.8831L524.016 511.93777ZM521.2685 512.2279Q519.4823 511.19662 518.37354 511.24207Q517.25903 511.26617 516.63403 512.3487Q516.00903 513.4313 516.5454 514.4085Q517.07605 515.3644 518.74615 516.3467L521.0059 517.65137Q522.80566 518.6904 523.955 518.6684Q525.1122 518.6328 525.72156 517.5774Q526.3231 516.53546 525.81384 515.57385Q525.2988 514.5909 523.5824 513.56384L521.2685 512.2279ZM533.9182 505.69284L529.7229 512.95935L528.70807 512.3734L526.6643 506.0695Q526.19574 504.6623 525.76654 503.9995Q525.3451 503.32318 524.69556 502.94818Q523.8295 502.44818 522.9701 502.6556Q522.1184 502.8495 521.6106 503.72906Q521.0012 504.78452 521.27423 505.71796Q521.5336 506.64355 522.5891 507.25293L521.7766 508.66022Q520.24756 507.7774 519.88416 506.25055Q519.50726 504.71585 520.4604 503.065Q521.351 501.5224 522.6785 501.09805Q524.01385 500.6602 525.3535 501.43362Q526.99084 502.37894 528.0475 505.7675L529.5571 510.5903L532.76807 505.02878L533.9182 505.69284ZM537.3948 499.67126L536.57446 501.0921L527.18353 495.67023L526.59265 499.09988L525.3207 498.3655L526.13324 493.4581L526.25824 493.24158L537.3948 499.67126ZM540.9201 495.75272L540.217 496.97055L530.85925 485.3974L531.55457 484.19308L540.9201 495.75272ZM542.516 479.89484Q544.97876 481.3167 545.69086 482.8645Q546.4108 484.39877 545.37177 486.1985Q544.3483 487.97113 542.6789 488.14395Q541.00946 488.31674 538.6664 487.00006L536.78546 485.91412Q534.33624 484.50006 533.6434 482.9814Q532.94476 481.44144 533.9838 479.64172Q535.0151 477.85553 536.64966 477.68063Q538.2785 477.4844 540.6892 478.84015L542.516 479.89484ZM539.7685 480.18494Q537.9823 479.1537 536.87354 479.19913Q535.75903 479.22324 535.13403 480.3058Q534.50903 481.3883 535.0454 482.36554Q535.57605 483.32144 537.24615 484.3037L539.5059 485.6084Q541.30566 486.64746 542.455 486.62546Q543.6122 486.5899 544.22156 485.53442Q544.8231 484.4925 544.31384 483.53088Q543.7988 482.54794 542.0824 481.52087L539.7685 480.18494ZM550.8948 476.28857L550.07446 477.7094L540.68353 472.28754L540.09265 475.7172L538.8207 474.98282L539.63324 470.0754L539.75824 469.8589L550.8948 476.28857Z" fill-rule="nonzero"/><path fill="#a4c2f4" d="M186.0 94.333336C186.0 97.64704 183.3137 100.333336 180.0 100.333336C176.6863 100.333336 174.0 97.64704 174.0 94.333336C174.0 91.01962 176.6863 88.333336 180.0 88.333336C183.3137 88.333336 186.0 91.01962 186.0 94.333336Z" fill-rule="nonzero"/><path fill="#d9d9d9" d="M200.35938 98.84896L204.42188 87.114586L206.46875 87.114586L201.20312 101.333336L199.53125 101.333336L194.28125 87.114586L196.3125 87.114586L200.35938 98.84896ZM214.89062 101.333336Q214.73438 101.020836 214.64062 100.22396Q213.375 101.53646 211.625 101.53646Q210.0625 101.53646 209.0625 100.645836Q208.0625 99.75521 208.0625 98.395836Q208.0625 96.75521 209.3125 95.84896Q210.57812 94.927086 212.84375 94.927086L214.60938 94.927086L214.60938 94.09896Q214.60938 93.145836 214.03125 92.583336Q213.46875 92.020836 212.375 92.020836Q211.40625 92.020836 210.75 92.520836Q210.09375 93.00521 210.09375 93.69271L208.28125 93.69271Q208.28125 92.91146 208.84375 92.177086Q209.40625 91.427086 210.35938 91.00521Q211.32812 90.56771 212.48438 90.56771Q214.3125 90.56771 215.34375 91.489586Q216.375 92.395836 216.42188 94.00521L216.42188 98.864586Q216.42188 100.31771 216.78125 101.177086L216.78125 101.333336L214.89062 101.333336ZM211.89062 99.958336Q212.75 99.958336 213.5 99.520836Q214.26562 99.083336 214.60938 98.38021L214.60938 96.208336L213.1875 96.208336Q209.875 96.208336 209.875 98.145836Q209.875 99.00521 210.4375 99.489586Q211.0 99.958336 211.89062 99.958336ZM221.32812 101.333336L219.53125 101.333336L219.53125 86.333336L221.32812 86.333336L221.32812 101.333336ZM226.32812 101.333336L224.53125 101.333336L224.53125 90.770836L226.32812 90.770836L226.32812 101.333336ZM224.375 87.958336Q224.375 87.520836 224.64062 87.22396Q224.92188 86.91146 225.4375 86.91146Q225.96875 86.91146 226.23438 87.22396Q226.51562 87.520836 226.51562 87.958336Q226.51562 88.395836 226.23438 88.69271Q225.96875 88.989586 225.4375 88.989586Q224.92188 88.989586 224.64062 88.69271Q224.375 88.395836 224.375 87.958336ZM228.92188 95.958336Q228.92188 93.53646 230.07812 92.052086Q231.23438 90.56771 233.09375 90.56771Q234.95312 90.56771 236.03125 91.833336L236.03125 86.333336L237.84375 86.333336L237.84375 101.333336L236.1875 101.333336L236.09375 100.19271Q235.01562 101.53646 233.07812 101.53646Q231.25 101.53646 230.07812 100.03646Q228.92188 98.520836 228.92188 96.09896L228.92188 95.958336ZM230.73438 96.16146Q230.73438 97.958336 231.46875 98.97396Q232.21875 99.989586 233.53125 99.989586Q235.25 99.989586 236.03125 98.458336L236.03125 93.59896Q235.23438 92.09896 233.54688 92.09896Q232.21875 92.09896 231.46875 93.13021Q230.73438 94.16146 230.73438 96.16146ZM255.46875 88.66146L250.90625 88.66146L250.90625 101.333336L249.04688 101.333336L249.04688 88.66146L244.48438 88.66146L244.48438 87.114586L255.46875 87.114586L255.46875 88.66146ZM256.89062 95.958336Q256.89062 94.395836 257.5 93.16146Q258.10938 91.91146 259.1875 91.239586Q260.28125 90.56771 261.6875 90.56771Q263.84375 90.56771 265.17188 92.06771Q266.51562 93.552086 266.51562 96.03646L266.51562 96.16146Q266.51562 97.708336 265.92188 98.94271Q265.32812 100.16146 264.21875 100.84896Q263.125 101.53646 261.70312 101.53646Q259.5625 101.53646 258.21875 100.03646Q256.89062 98.53646 256.89062 96.083336L256.89062 95.958336ZM258.70312 96.16146Q258.70312 97.927086 259.51562 98.989586Q260.34375 100.052086 261.70312 100.052086Q263.07812 100.052086 263.89062 98.97396Q264.70312 97.895836 264.70312 95.958336Q264.70312 94.208336 263.875 93.13021Q263.04688 92.052086 261.6875 92.052086Q260.34375 92.052086 259.51562 93.114586Q258.70312 94.177086 258.70312 96.16146ZM267.89062 95.958336Q267.89062 94.395836 268.5 93.16146Q269.10938 91.91146 270.1875 91.239586Q271.28125 90.56771 272.6875 90.56771Q274.84375 90.56771 276.17188 92.06771Q277.51562 93.552086 277.51562 96.03646L277.51562 96.16146Q277.51562 97.708336 276.92188 98.94271Q276.32812 100.16146 275.21875 100.84896Q274.125 101.53646 272.70312 101.53646Q270.5625 101.53646 269.21875 100.03646Q267.89062 98.53646 267.89062 96.083336L267.89062 95.958336ZM269.70312 96.16146Q269.70312 97.927086 270.51562 98.989586Q271.34375 100.052086 272.70312 100.052086Q274.07812 100.052086 274.89062 98.97396Q275.70312 97.895836 275.70312 95.958336Q275.70312 94.208336 274.875 93.13021Q274.04688 92.052086 272.6875 92.052086Q271.34375 92.052086 270.51562 93.114586Q269.70312 94.177086 269.70312 96.16146ZM281.32812 101.333336L279.53125 101.333336L279.53125 86.333336L281.32812 86.333336L281.32812 101.333336ZM290.51562 98.53646Q290.51562 97.802086 289.96875 97.395836Q289.42188 96.989586 288.04688 96.69271Q286.67188 96.395836 285.85938 95.989586Q285.0625 95.583336 284.67188 95.020836Q284.29688 94.44271 284.29688 93.66146Q284.29688 92.364586 285.39062 91.47396Q286.48438 90.56771 288.20312 90.56771Q290.0 90.56771 291.10938 91.50521Q292.23438 92.427086 292.23438 93.864586L290.40625 93.864586Q290.40625 93.13021 289.78125 92.59896Q289.15625 92.052086 288.20312 92.052086Q287.20312 92.052086 286.64062 92.489586Q286.09375 92.91146 286.09375 93.614586Q286.09375 94.25521 286.60938 94.59896Q287.125 94.927086 288.48438 95.239586Q289.84375 95.53646 290.67188 95.958336Q291.51562 96.364586 291.92188 96.958336Q292.32812 97.552086 292.32812 98.395836Q292.32812 99.81771 291.1875 100.677086Q290.0625 101.53646 288.25 101.53646Q286.98438 101.53646 286.0 101.083336Q285.03125 100.63021 284.46875 99.833336Q283.92188 99.020836 283.92188 98.083336L285.73438 98.083336Q285.78125 98.989586 286.45312 99.520836Q287.14062 100.052086 288.25 100.052086Q289.28125 100.052086 289.89062 99.645836Q290.51562 99.22396 290.51562 98.53646Z" fill-rule="nonzero"/><path fill="#dc3912" d="M321.0 94.333336C321.0 97.64704 318.31372 100.333336 315.0 100.333336C311.68628 100.333336 309.0 97.64704 309.0 94.333336C309.0 91.01962 311.68628 88.333336 315.0 88.333336C318.31372 88.333336 321.0 91.01962 321.0 94.333336Z" fill-rule="nonzero"/><path fill="#d9d9d9" d="M340.65625 87.114586L340.65625 96.78646Q340.65625 98.78646 339.39062 100.06771Q338.14062 101.34896 336.0 101.50521L335.5 101.53646Q333.15625 101.53646 331.76562 100.270836Q330.39062 99.00521 330.375 96.802086L330.375 87.114586L332.21875 87.114586L332.21875 96.739586Q332.21875 98.28646 333.0625 99.145836Q333.92188 99.989586 335.5 99.989586Q337.09375 99.989586 337.9375 99.145836Q338.78125 98.302086 338.78125 96.75521L338.78125 87.114586L340.65625 87.114586ZM345.07812 90.770836L345.14062 92.09896Q346.34375 90.56771 348.29688 90.56771Q351.65625 90.56771 351.67188 94.34896L351.67188 101.333336L349.875 101.333336L349.875 94.333336Q349.85938 93.19271 349.34375 92.645836Q348.84375 92.09896 347.75 92.09896Q346.875 92.09896 346.20312 92.56771Q345.54688 93.03646 345.17188 93.802086L345.17188 101.333336L343.375 101.333336L343.375 90.770836L345.07812 90.770836ZM356.32812 101.333336L354.53125 101.333336L354.53125 90.770836L356.32812 90.770836L356.32812 101.333336ZM354.375 87.958336Q354.375 87.520836 354.64062 87.22396Q354.92188 86.91146 355.4375 86.91146Q355.96875 86.91146 356.23438 87.22396Q356.51562 87.520836 356.51562 87.958336Q356.51562 88.395836 356.23438 88.69271Q355.96875 88.989586 355.4375 88.989586Q354.92188 88.989586 354.64062 88.69271Q354.375 88.395836 354.375 87.958336ZM358.92188 95.958336Q358.92188 93.47396 360.0625 92.020836Q361.21875 90.56771 363.14062 90.56771Q365.01562 90.56771 366.09375 91.833336L366.17188 90.770836L367.82812 90.770836L367.82812 105.395836L366.03125 105.395836L366.03125 100.34896Q364.9375 101.53646 363.125 101.53646Q361.20312 101.53646 360.0625 100.052086Q358.92188 98.552086 358.92188 96.083336L358.92188 95.958336ZM360.73438 96.16146Q360.73438 97.989586 361.5 99.020836Q362.26562 100.052086 363.5625 100.052086Q365.17188 100.052086 366.03125 98.63021L366.03125 93.458336Q365.17188 92.052086 363.59375 92.052086Q362.28125 92.052086 361.5 93.09896Q360.73438 94.13021 360.73438 96.16146ZM376.89062 100.28646Q375.84375 101.53646 373.79688 101.53646Q372.10938 101.53646 371.21875 100.552086Q370.34375 99.56771 370.32812 97.645836L370.32812 90.770836L372.14062 90.770836L372.14062 97.59896Q372.14062 99.989586 374.09375 99.989586Q376.15625 99.989586 376.84375 98.458336L376.84375 90.770836L378.65625 90.770836L378.65625 101.333336L376.9375 101.333336L376.89062 100.28646ZM385.75 101.53646Q383.60938 101.53646 382.25 100.13021Q380.90625 98.708336 380.90625 96.34896L380.90625 96.00521Q380.90625 94.44271 381.5 93.208336Q382.10938 91.97396 383.1875 91.270836Q384.26562 90.56771 385.53125 90.56771Q387.59375 90.56771 388.73438 91.927086Q389.875 93.28646 389.875 95.81771L389.875 96.56771L382.71875 96.56771Q382.75 98.13021 383.625 99.09896Q384.5 100.052086 385.84375 100.052086Q386.8125 100.052086 387.46875 99.66146Q388.14062 99.270836 388.64062 98.63021L389.73438 99.489586Q388.40625 101.53646 385.75 101.53646ZM385.53125 92.052086Q384.4375 92.052086 383.6875 92.84896Q382.95312 93.645836 382.78125 95.083336L388.0625 95.083336L388.0625 94.94271Q387.98438 93.56771 387.3125 92.81771Q386.65625 92.052086 385.53125 92.052086ZM408.59375 94.677086Q408.59375 96.770836 407.89062 98.333336Q407.1875 99.88021 405.89062 100.708336Q404.60938 101.53646 402.89062 101.53646Q401.20312 101.53646 399.90625 100.708336Q398.60938 99.88021 397.89062 98.34896Q397.17188 96.81771 397.15625 94.802086L397.15625 93.78646Q397.15625 91.739586 397.85938 90.16146Q398.57812 88.583336 399.875 87.75521Q401.1875 86.91146 402.85938 86.91146Q404.57812 86.91146 405.875 87.739586Q407.1875 88.56771 407.89062 90.145836Q408.59375 91.708336 408.59375 93.78646L408.59375 94.677086ZM406.71875 93.770836Q406.71875 91.239586 405.70312 89.895836Q404.6875 88.53646 402.85938 88.53646Q401.09375 88.53646 400.0625 89.895836Q399.04688 91.239586 399.01562 93.63021L399.01562 94.677086Q399.01562 97.13021 400.04688 98.53646Q401.07812 99.94271 402.89062 99.94271Q404.70312 99.94271 405.6875 98.614586Q406.6875 97.28646 406.71875 94.81771L406.71875 93.770836ZM420.71875 98.84896L422.75 90.770836L424.5625 90.770836L421.48438 101.333336L420.01562 101.333336L417.45312 93.31771L414.95312 101.333336L413.48438 101.333336L410.42188 90.770836L412.21875 90.770836L414.29688 98.677086L416.76562 90.770836L418.21875 90.770836L420.71875 98.84896ZM428.07812 90.770836L428.14062 92.09896Q429.34375 90.56771 431.29688 90.56771Q434.65625 90.56771 434.67188 94.34896L434.67188 101.333336L432.875 101.333336L432.875 94.333336Q432.85938 93.19271 432.34375 92.645836Q431.84375 92.09896 430.75 92.09896Q429.875 92.09896 429.20312 92.56771Q428.54688 93.03646 428.17188 93.802086L428.17188 101.333336L426.375 101.333336L426.375 90.770836L428.07812 90.770836ZM441.75 101.53646Q439.60938 101.53646 438.25 100.13021Q436.90625 98.708336 436.90625 96.34896L436.90625 96.00521Q436.90625 94.44271 437.5 93.208336Q438.10938 91.97396 439.1875 91.270836Q440.26562 90.56771 441.53125 90.56771Q443.59375 90.56771 444.73438 91.927086Q445.875 93.28646 445.875 95.81771L445.875 96.56771L438.71875 96.56771Q438.75 98.13021 439.625 99.09896Q440.5 100.052086 441.84375 100.052086Q442.8125 100.052086 443.46875 99.66146Q444.14062 99.270836 444.64062 98.63021L445.73438 99.489586Q444.40625 101.53646 441.75 101.53646ZM441.53125 92.052086Q440.4375 92.052086 439.6875 92.84896Q438.95312 93.645836 438.78125 95.083336L444.0625 95.083336L444.0625 94.94271Q443.98438 93.56771 443.3125 92.81771Q442.65625 92.052086 441.53125 92.052086ZM453.46875 92.38021Q453.0625 92.31771 452.59375 92.31771Q450.8125 92.31771 450.17188 93.833336L450.17188 101.333336L448.375 101.333336L448.375 90.770836L450.125 90.770836L450.15625 91.989586Q451.04688 90.56771 452.67188 90.56771Q453.20312 90.56771 453.46875 90.708336L453.46875 92.38021ZM461.51562 98.53646Q461.51562 97.802086 460.96875 97.395836Q460.42188 96.989586 459.04688 96.69271Q457.67188 96.395836 456.85938 95.989586Q456.0625 95.583336 455.67188 95.020836Q455.29688 94.44271 455.29688 93.66146Q455.29688 92.364586 456.39062 91.47396Q457.48438 90.56771 459.20312 90.56771Q461.0 90.56771 462.10938 91.50521Q463.23438 92.427086 463.23438 93.864586L461.40625 93.864586Q461.40625 93.13021 460.78125 92.59896Q460.15625 92.052086 459.20312 92.052086Q458.20312 92.052086 457.64062 92.489586Q457.09375 92.91146 457.09375 93.614586Q457.09375 94.25521 457.60938 94.59896Q458.125 94.927086 459.48438 95.239586Q460.84375 95.53646 461.67188 95.958336Q462.51562 96.364586 462.92188 96.958336Q463.32812 97.552086 463.32812 98.395836Q463.32812 99.81771 462.1875 100.677086Q461.0625 101.53646 459.25 101.53646Q457.98438 101.53646 457.0 101.083336Q456.03125 100.63021 455.46875 99.833336Q454.92188 99.020836 454.92188 98.083336L456.73438 98.083336Q456.78125 98.989586 457.45312 99.520836Q458.14062 100.052086 459.25 100.052086Q460.28125 100.052086 460.89062 99.645836Q461.51562 99.22396 461.51562 98.53646Z" fill-rule="nonzero"/><path fill="#d9d9d9" d="M45.01875 36.784374L38.159374 36.784374L38.159374 55.8L35.3625 55.8L35.3625 36.784374L28.51875 36.784374L28.51875 34.471874L45.01875 34.471874L45.01875 36.784374ZM47.128124 47.721874Q47.128124 45.39375 48.05 43.534374Q48.971874 41.675 50.596874 40.675Q52.2375 39.659374 54.33125 39.659374Q57.565624 39.659374 59.565624 41.909374Q61.565624 44.14375 61.565624 47.8625L61.565624 48.05Q61.565624 50.3625 60.675 52.20625Q59.784374 54.034374 58.128124 55.065624Q56.4875 56.096874 54.3625 56.096874Q51.128124 56.096874 49.128124 53.8625Q47.128124 51.6125 47.128124 47.925L47.128124 47.721874ZM49.8625 48.05Q49.8625 50.690624 51.08125 52.284374Q52.3 53.878124 54.3625 53.878124Q56.425 53.878124 57.628124 52.26875Q58.846874 50.64375 58.846874 47.721874Q58.846874 45.128124 57.6125 43.503124Q56.378124 41.878124 54.33125 41.878124Q52.315624 41.878124 51.08125 43.4875Q49.8625 45.08125 49.8625 48.05ZM64.12813 47.721874Q64.12813 45.39375 65.05 43.534374Q65.97188 41.675 67.59688 40.675Q69.2375 39.659374 71.33125 39.659374Q74.56563 39.659374 76.56563 41.909374Q78.56563 44.14375 78.56563 47.8625L78.56563 48.05Q78.56563 50.3625 77.675 52.20625Q76.78438 54.034374 75.12813 55.065624Q73.4875 56.096874 71.3625 56.096874Q68.12813 56.096874 66.12813 53.8625Q64.12813 51.6125 64.12813 47.925L64.12813 47.721874ZM66.8625 48.05Q66.8625 50.690624 68.08125 52.284374Q69.3 53.878124 71.3625 53.878124Q73.425 53.878124 74.62813 52.26875Q75.84688 50.64375 75.84688 47.721874Q75.84688 45.128124 74.6125 43.503124Q73.37813 41.878124 71.33125 41.878124Q69.31563 41.878124 68.08125 43.4875Q66.8625 45.08125 66.8625 48.05ZM84.8 55.8L82.08125 55.8L82.08125 33.3L84.8 33.3L84.8 55.8ZM98.08125 51.596874Q98.08125 50.503124 97.25313 49.89375Q96.425 49.284374 94.3625 48.846874Q92.31563 48.409374 91.09688 47.8Q89.89375 47.175 89.31563 46.33125Q88.7375 45.471874 88.7375 44.3Q88.7375 42.346874 90.37813 41.003124Q92.03438 39.659374 94.59688 39.659374Q97.28438 39.659374 98.95625 41.05Q100.64375 42.440624 100.64375 44.6125L97.925 44.6125Q97.925 43.4875 96.97188 42.690624Q96.03438 41.878124 94.59688 41.878124Q93.1125 41.878124 92.26875 42.534374Q91.44063 43.175 91.44063 44.20625Q91.44063 45.190624 92.22188 45.690624Q93.00313 46.190624 95.01875 46.64375Q97.05 47.096874 98.31563 47.7375Q99.58125 48.3625 100.175 49.253124Q100.78438 50.128124 100.78438 51.409374Q100.78438 53.534374 99.08125 54.815624Q97.39375 56.096874 94.675 56.096874Q92.78438 56.096874 91.31563 55.425Q89.84688 54.7375 89.01875 53.534374Q88.19063 52.33125 88.19063 50.925L90.90938 50.925Q90.97188 52.284374 91.9875 53.08125Q93.01875 53.878124 94.675 53.878124Q96.22188 53.878124 97.14375 53.253124Q98.08125 52.628124 98.08125 51.596874ZM106.56563 41.8625Q108.3625 39.659374 111.25313 39.659374Q116.26875 39.659374 116.31563 45.33125L116.31563 55.8L113.6125 55.8L113.6125 45.315624Q113.59688 43.596874 112.81563 42.784374Q112.05 41.95625 110.425 41.95625Q109.1125 41.95625 108.1125 42.659374Q107.1125 43.3625 106.56563 44.503124L106.56563 55.8L103.84688 55.8L103.84688 33.3L106.56563 33.3L106.56563 41.8625ZM127.425 56.096874Q124.20625 56.096874 122.175 53.9875Q120.15938 51.8625 120.15938 48.315624L120.15938 47.815624Q120.15938 45.45625 121.06563 43.6125Q121.97188 41.753124 123.58125 40.70625Q125.20625 39.659374 127.09688 39.659374Q130.175 39.659374 131.89375 41.690624Q133.6125 43.721874 133.6125 47.51875L133.6125 48.64375L122.87813 48.64375Q122.925 50.9875 124.2375 52.440624Q125.55 53.878124 127.58125 53.878124Q129.00313 53.878124 130.00313 53.3Q131.00313 52.70625 131.75313 51.7375L133.40938 53.034374Q131.40938 56.096874 127.425 56.096874ZM127.09688 41.878124Q125.45625 41.878124 124.33125 43.08125Q123.22188 44.26875 122.95625 46.425L130.89375 46.425L130.89375 46.221874Q130.78438 44.159374 129.78438 43.01875Q128.78438 41.878124 127.09688 41.878124ZM136.19063 47.7375Q136.19063 44.096874 137.90938 41.878124Q139.64375 39.659374 142.44063 39.659374Q145.2375 39.659374 146.8625 41.565624L146.8625 33.3L149.56563 33.3L149.56563 55.8L147.08125 55.8L146.94063 54.096874Q145.31563 56.096874 142.425 56.096874Q139.65938 56.096874 137.925 53.846874Q136.19063 51.58125 136.19063 47.940624L136.19063 47.7375ZM138.90938 48.05Q138.90938 50.753124 140.01875 52.284374Q141.12813 53.8 143.09688 53.8Q145.675 53.8 146.8625 51.471874L146.8625 44.190624Q145.64375 41.95625 143.12813 41.95625Q141.12813 41.95625 140.01875 43.503124Q138.90938 45.034374 138.90938 48.05ZM167.56563 46.3Q163.94063 45.253124 162.28438 43.7375Q160.64375 42.221874 160.64375 39.9875Q160.64375 37.471874 162.65938 35.83125Q164.675 34.175 167.89375 34.175Q170.09688 34.175 171.81563 35.034374Q173.53438 35.878124 174.47188 37.378124Q175.425 38.8625 175.425 40.64375L172.59688 40.64375Q172.59688 38.70625 171.3625 37.596874Q170.14375 36.4875 167.89375 36.4875Q165.81563 36.4875 164.64375 37.409374Q163.4875 38.33125 163.4875 39.95625Q163.4875 41.253124 164.59688 42.159374Q165.70625 43.05 168.3625 43.8Q171.01875 44.55 172.51875 45.45625Q174.01875 46.346874 174.7375 47.55Q175.47188 48.753124 175.47188 50.378124Q175.47188 52.971874 173.44063 54.534374Q171.425 56.096874 168.05 56.096874Q165.84688 56.096874 163.94063 55.253124Q162.03438 54.409374 161.00313 52.940624Q159.97188 51.471874 159.97188 49.6125L162.8 49.6125Q162.8 51.55 164.22188 52.675Q165.65938 53.8 168.05 53.8Q170.26875 53.8 171.45625 52.89375Q172.64375 51.971874 172.64375 50.409374Q172.64375 48.846874 171.53438 47.9875Q170.44063 47.128124 167.56563 46.3ZM182.53438 36.1125L182.53438 39.95625L185.4875 39.95625L185.4875 42.05L182.53438 42.05L182.53438 51.878124Q182.53438 52.83125 182.925 53.315624Q183.31563 53.784374 184.26875 53.784374Q184.7375 53.784374 185.56563 53.596874L185.56563 55.8Q184.4875 56.096874 183.4875 56.096874Q181.65938 56.096874 180.7375 55.003124Q179.81563 53.89375 179.81563 51.878124L179.81563 42.05L176.925 42.05L176.925 39.95625L179.81563 39.95625L179.81563 36.1125L182.53438 36.1125ZM198.64375 55.8Q198.40938 55.33125 198.25313 54.128124Q196.3625 56.096874 193.7375 56.096874Q191.39375 56.096874 189.89375 54.76875Q188.39375 53.440624 188.39375 51.409374Q188.39375 48.925 190.26875 47.565624Q192.15938 46.190624 195.58125 46.190624L198.20625 46.190624L198.20625 44.940624Q198.20625 43.51875 197.3625 42.690624Q196.51875 41.846874 194.8625 41.846874Q193.40938 41.846874 192.425 42.58125Q191.44063 43.3 191.44063 44.346874L188.72188 44.346874Q188.72188 43.159374 189.56563 42.05Q190.40938 40.940624 191.84688 40.3Q193.28438 39.659374 195.01875 39.659374Q197.75313 39.659374 199.3 41.034374Q200.8625 42.39375 200.925 44.8L200.925 52.096874Q200.925 54.26875 201.47188 55.565624L201.47188 55.8L198.64375 55.8ZM194.14375 53.7375Q195.40938 53.7375 196.55 53.08125Q197.70625 52.409374 198.20625 51.3625L198.20625 48.1125L196.08125 48.1125Q191.1125 48.1125 191.1125 51.01875Q191.1125 52.3 191.95625 53.01875Q192.8 53.7375 194.14375 53.7375ZM208.53438 36.1125L208.53438 39.95625L211.4875 39.95625L211.4875 42.05L208.53438 42.05L208.53438 51.878124Q208.53438 52.83125 208.925 53.315624Q209.31563 53.784374 210.26875 53.784374Q210.7375 53.784374 211.56563 53.596874L211.56563 55.8Q210.4875 56.096874 209.4875 56.096874Q207.65938 56.096874 206.7375 55.003124Q205.81563 53.89375 205.81563 51.878124L205.81563 42.05L202.925 42.05L202.925 39.95625L205.81563 39.95625L205.81563 36.1125L208.53438 36.1125ZM217.8 55.8L215.08125 55.8L215.08125 39.95625L217.8 39.95625L217.8 55.8ZM214.8625 35.753124Q214.8625 35.08125 215.26875 34.628124Q215.675 34.175 216.45625 34.175Q217.25313 34.175 217.65938 34.628124Q218.08125 35.08125 218.08125 35.753124Q218.08125 36.409374 217.65938 36.846874Q217.25313 37.284374 216.45625 37.284374Q215.675 37.284374 215.26875 36.846874Q214.8625 36.409374 214.8625 35.753124ZM231.08125 51.596874Q231.08125 50.503124 230.25313 49.89375Q229.425 49.284374 227.3625 48.846874Q225.31563 48.409374 224.09688 47.8Q222.89375 47.175 222.31563 46.33125Q221.7375 45.471874 221.7375 44.3Q221.7375 42.346874 223.37813 41.003124Q225.03438 39.659374 227.59688 39.659374Q230.28438 39.659374 231.95625 41.05Q233.64375 42.440624 233.64375 44.6125L230.925 44.6125Q230.925 43.4875 229.97188 42.690624Q229.03438 41.878124 227.59688 41.878124Q226.1125 41.878124 225.26875 42.534374Q224.44063 43.175 224.44063 44.20625Q224.44063 45.190624 225.22188 45.690624Q226.00313 46.190624 228.01875 46.64375Q230.05 47.096874 231.31563 47.7375Q232.58125 48.3625 233.175 49.253124Q233.78438 50.128124 233.78438 51.409374Q233.78438 53.534374 232.08125 54.815624Q230.39375 56.096874 227.675 56.096874Q225.78438 56.096874 224.31563 55.425Q222.84688 54.7375 222.01875 53.534374Q221.19063 52.33125 221.19063 50.925L223.90938 50.925Q223.97188 52.284374 224.9875 53.08125Q226.01875 53.878124 227.675 53.878124Q229.22188 53.878124 230.14375 53.253124Q231.08125 52.628124 231.08125 51.596874ZM240.53438 36.1125L240.53438 39.95625L243.4875 39.95625L243.4875 42.05L240.53438 42.05L240.53438 51.878124Q240.53438 52.83125 240.925 53.315624Q241.31563 53.784374 242.26875 53.784374Q242.7375 53.784374 243.56563 53.596874L243.56563 55.8Q242.4875 56.096874 241.4875 56.096874Q239.65938 56.096874 238.7375 55.003124Q237.81563 53.89375 237.81563 51.878124L237.81563 42.05L234.925 42.05L234.925 39.95625L237.81563 39.95625L237.81563 36.1125L240.53438 36.1125ZM249.8 55.8L247.08125 55.8L247.08125 39.95625L249.8 39.95625L249.8 55.8ZM246.8625 35.753124Q246.8625 35.08125 247.26875 34.628124Q247.675 34.175 248.45625 34.175Q249.25313 34.175 249.65938 34.628124Q250.08125 35.08125 250.08125 35.753124Q250.08125 36.409374 249.65938 36.846874Q249.25313 37.284374 248.45625 37.284374Q247.675 37.284374 247.26875 36.846874Q246.8625 36.409374 246.8625 35.753124ZM260.20624 53.878124Q261.65936 53.878124 262.7375 53.003124Q263.83124 52.128124 263.9406 50.8L266.5031 50.8Q266.4406 52.159374 265.5656 53.39375Q264.70624 54.628124 263.2531 55.3625Q261.8156 56.096874 260.20624 56.096874Q256.97186 56.096874 255.05 53.940624Q253.14375 51.76875 253.14375 48.01875L253.14375 47.565624Q253.14375 45.253124 253.9875 43.45625Q254.84688 41.64375 256.425 40.659374Q258.01874 39.659374 260.1906 39.659374Q262.8625 39.659374 264.6281 41.253124Q266.39374 42.846874 266.5031 45.39375L263.9406 45.39375Q263.83124 43.8625 262.78436 42.878124Q261.7375 41.878124 260.1906 41.878124Q258.1281 41.878124 256.9875 43.378124Q255.8625 44.8625 255.8625 47.675L255.8625 48.175Q255.8625 50.925 256.9875 52.409374Q258.1125 53.878124 260.20624 53.878124ZM279.08124 51.596874Q279.08124 50.503124 278.2531 49.89375Q277.425 49.284374 275.3625 48.846874Q273.3156 48.409374 272.09686 47.8Q270.89374 47.175 270.3156 46.33125Q269.7375 45.471874 269.7375 44.3Q269.7375 42.346874 271.3781 41.003124Q273.03436 39.659374 275.59686 39.659374Q278.28436 39.659374 279.95624 41.05Q281.64374 42.440624 281.64374 44.6125L278.925 44.6125Q278.925 43.4875 277.97186 42.690624Q277.03436 41.878124 275.59686 41.878124Q274.1125 41.878124 273.26874 42.534374Q272.4406 43.175 272.4406 44.20625Q272.4406 45.190624 273.22186 45.690624Q274.0031 46.190624 276.01874 46.64375Q278.05 47.096874 279.3156 47.7375Q280.58124 48.3625 281.175 49.253124Q281.78436 50.128124 281.78436 51.409374Q281.78436 53.534374 280.08124 54.815624Q278.39374 56.096874 275.675 56.096874Q273.78436 56.096874 272.3156 55.425Q270.84686 54.7375 270.01874 53.534374Q269.1906 52.33125 269.1906 50.925L271.90936 50.925Q271.97186 52.284374 272.9875 53.08125Q274.01874 53.878124 275.675 53.878124Q277.22186 53.878124 278.14374 53.253124Q279.08124 52.628124 279.08124 51.596874Z" fill-rule="nonzero"/></svg>