<?xml version="1.0" encoding="UTF-8" standalone="no"?>
<svg
   xmlns:dc="http://purl.org/dc/elements/1.1/"
   xmlns:cc="http://creativecommons.org/ns#"
   xmlns:rdf="http://www.w3.org/1999/02/22-rdf-syntax-ns#"
   xmlns:svg="http://www.w3.org/2000/svg"
   xmlns="http://www.w3.org/2000/svg"
   xmlns:xlink="http://www.w3.org/1999/xlink"
   xmlns:sodipodi="http://sodipodi.sourceforge.net/DTD/sodipodi-0.dtd"
   xmlns:inkscape="http://www.inkscape.org/namespaces/inkscape"
   id="tracés_techniques"
   data-name="tracés techniques"
   viewBox="0 0 164.5 162"
   version="1.1"
   sodipodi:docname="inveniordm-tail.svg"
   inkscape:version="0.92.2 5c3e80d, 2017-08-06"
   inkscape:export-filename="/Users/jbenito/cernbox-dr/Services_Projects/Invenio/Stationary/Stickers/inveniordm-logo.png"
   inkscape:export-xdpi="1050.47"
   inkscape:export-ydpi="1050.47">
  <metadata
     id="metadata8884">
    <rdf:RDF>
      <cc:Work
         rdf:about="">
        <dc:format>image/svg+xml</dc:format>
        <dc:type
           rdf:resource="http://purl.org/dc/dcmitype/StillImage" />
        <dc:title>inveni</dc:title>
      </cc:Work>
    </rdf:RDF>
  </metadata>
  <sodipodi:namedview
     pagecolor="#ffffff"
     bordercolor="#666666"
     borderopacity="1"
     objecttolerance="10"
     gridtolerance="10"
     guidetolerance="10"
     inkscape:pageopacity="0"
     inkscape:pageshadow="2"
     inkscape:window-width="1920"
     inkscape:window-height="1156"
     id="namedview8882"
     showgrid="false"
     inkscape:zoom="5.8209877"
     inkscape:cx="82.25"
     inkscape:cy="81"
     inkscape:window-x="0"
     inkscape:window-y="0"
     inkscape:window-maximized="0"
     inkscape:current-layer="g10401"
     showguides="true"
     inkscape:guide-bbox="true"
     inkscape:pagecheckerboard="true">
    <sodipodi:guide
       position="104.19363,108.0604"
       orientation="0,1"
       id="guide10153"
       inkscape:locked="false" />
    <sodipodi:guide
       position="97.87095,97.243907"
       orientation="0,1"
       id="guide10155"
       inkscape:locked="false" />
    <sodipodi:guide
       position="59.984887,98.88665"
       orientation="1,0"
       inkscape:locked="false"
       id="guide10173" />
    <sodipodi:guide
       position="0.36464977,117.63145"
       orientation="1,0"
       inkscape:locked="false"
       id="guide10175" />
    <sodipodi:guide
       position="12.735418,125.98478"
       orientation="0,1"
       inkscape:locked="false"
       id="guide5142" />
    <sodipodi:guide
       position="26.703297,95.857988"
       orientation="0,1"
       inkscape:locked="false"
       id="guide5144" />
  </sodipodi:namedview>
  <defs
     id="defs8802">
    <linearGradient
       inkscape:collect="always"
       id="linearGradient9726">
      <stop
         style="stop-color:#0377cd;stop-opacity:1;"
         offset="0"
         id="stop9722" />
      <stop
         style="stop-color:#fb8273;stop-opacity:1"
         offset="1"
         id="stop9724" />
    </linearGradient>
    <style
       id="style8800">.cls-1{fill:#2e6b8d;}.cls-2{fill:#fff;}.cls-3{fill:none;stroke:#fff;stroke-width:1.19px;}.cls-4{isolation:isolate;}.cls-5{fill:#66c5ee;}</style>
    <linearGradient
       inkscape:collect="always"
       xlink:href="#linearGradient9726"
       id="linearGradient9728"
       x1="83.806313"
       y1="123.8721"
       x2="82.227898"
       y2="14.32421"
       gradientUnits="userSpaceOnUse" />
    <clipPath
       clipPathUnits="userSpaceOnUse"
       id="clipPath10405">
      <rect
         style="fill:#0000ff;fill-rule:evenodd;stroke-width:2.32305741"
         id="rect10407"
         width="84.355652"
         height="160.25584"
         x="280.57312"
         y="-25.69305" />
    </clipPath>
  </defs>
  <title
     id="title8804">inveni</title>
  <text
     id="text8818" />
  <g
     inkscape:groupmode="layer"
     id="g10401"
     inkscape:label="Layer 8"
     style="display:inline">
    <path
       style="fill:url(#linearGradient9728);fill-opacity:1"
       id="path10323"
       class="cls-1"
       d="M 20,117 V 45 L 82.25,9 144.47,45 v 72 l -62.22,36 z"
       inkscape:connector-curvature="0" />
    <g
       transform="rotate(-60,83.460224,80.384206)"
       id="g10365"
       class="cls-4"
       style="isolation:isolate">
      <g
         class="cls-4"
         id="g10363"
         style="isolation:isolate">
        <path
           class="cls-2"
           d="m 32,114.22 0.47,0.26 -1.55,2.72 -0.47,-0.27 z m 0.58,-1 0.47,0.27 -0.29,0.52 -0.47,-0.27 z"
           id="path10325"
           inkscape:connector-curvature="0"
           style="fill:#ffffff" />
        <path
           class="cls-2"
           d="m 33.19,114.87 0.43,0.25 -0.22,0.38 a 1.55,1.55 0 0 1 0.61,-0.11 1.41,1.41 0 0 1 0.54,0.17 0.93,0.93 0 0 1 0.55,0.86 1.65,1.65 0 0 1 -0.25,0.7 l -1,1.75 -0.47,-0.27 1,-1.72 a 1,1 0 0 0 0.16,-0.44 0.5,0.5 0 0 0 -0.3,-0.51 1.07,1.07 0 0 0 -0.28,-0.12 0.73,0.73 0 0 0 -0.46,0 0.76,0.76 0 0 0 -0.31,0.2 2.27,2.27 0 0 0 -0.27,0.39 l -0.81,1.43 -0.46,-0.26 z"
           id="path10327"
           inkscape:connector-curvature="0"
           style="fill:#ffffff" />
        <path
           class="cls-2"
           d="m 36.31,116.65 -0.54,2.64 2,-1.79 0.51,0.29 -2.59,2.14 -0.48,-0.27 0.55,-3.31 z"
           id="path10329"
           inkscape:connector-curvature="0"
           style="fill:#ffffff" />
        <path
           class="cls-2"
           d="m 40.33,119.05 a 1.18,1.18 0 0 1 0.21,0.59 1.54,1.54 0 0 1 -0.09,0.59 3.86,3.86 0 0 1 -0.31,0.62 l -2,-1.13 a 1.31,1.31 0 0 0 -0.18,0.78 0.71,0.71 0 0 0 0.41,0.57 0.83,0.83 0 0 0 0.71,0.09 1,1 0 0 0 0.35,-0.22 l 0.45,0.25 a 0.93,0.93 0 0 1 -0.31,0.27 1.55,1.55 0 0 1 -0.4,0.18 1.28,1.28 0 0 1 -0.67,0 3.09,3.09 0 0 1 -0.39,-0.17 1.34,1.34 0 0 1 -0.65,-0.87 1.67,1.67 0 0 1 0.25,-1.24 1.84,1.84 0 0 1 1,-0.86 1.33,1.33 0 0 1 1.16,0.12 1.47,1.47 0 0 1 0.46,0.43 z m -0.45,1.17 a 1.27,1.27 0 0 0 0.14,-0.55 0.75,0.75 0 0 0 -0.43,-0.69 0.79,0.79 0 0 0 -0.65,-0.07 1,1 0 0 0 -0.56,0.45 z"
           id="path10331"
           inkscape:connector-curvature="0"
           style="fill:#ffffff" />
        <path
           class="cls-2"
           d="m 41.59,119.67 0.43,0.25 -0.22,0.39 a 1.39,1.39 0 0 1 0.61,-0.11 1.26,1.26 0 0 1 0.54,0.17 0.93,0.93 0 0 1 0.55,0.86 1.57,1.57 0 0 1 -0.25,0.69 l -1,1.76 -0.47,-0.27 1,-1.72 a 1.19,1.19 0 0 0 0.15,-0.45 0.52,0.52 0 0 0 -0.3,-0.51 0.77,0.77 0 0 0 -0.28,-0.11 0.73,0.73 0 0 0 -0.46,0 0.86,0.86 0 0 0 -0.31,0.19 2.26,2.26 0 0 0 -0.27,0.4 L 40.5,122.64 40,122.4 Z"
           id="path10333"
           inkscape:connector-curvature="0"
           style="fill:#ffffff" />
        <path
           class="cls-2"
           d="m 44.48,121.34 0.46,0.27 -1.55,2.72 -0.46,-0.27 z m 0.58,-1 0.47,0.26 -0.3,0.52 -0.46,-0.26 z"
           id="path10335"
           inkscape:connector-curvature="0"
           style="fill:#ffffff" />
        <path
           class="cls-2"
           d="m 47.46,123.4 a 1.58,1.58 0 0 1 -0.23,1.24 2.05,2.05 0 0 1 -0.94,0.91 1.32,1.32 0 0 1 -1.23,-0.14 1.27,1.27 0 0 1 -0.67,-0.89 1.73,1.73 0 0 1 0.25,-1.21 1.87,1.87 0 0 1 1,-0.89 1.35,1.35 0 0 1 1.17,0.12 1.42,1.42 0 0 1 0.65,0.86 z m -1.32,1.65 a 2.08,2.08 0 0 0 0.61,-0.67 1.69,1.69 0 0 0 0.23,-0.69 0.78,0.78 0 0 0 -0.44,-0.76 0.75,0.75 0 0 0 -0.79,0 1.68,1.68 0 0 0 -0.63,0.66 1.53,1.53 0 0 0 -0.23,0.84 0.78,0.78 0 0 0 0.44,0.63 0.71,0.71 0 0 0 0.81,-0.01 z"
           id="path10337"
           inkscape:connector-curvature="0"
           style="fill:#ffffff" />
        <path
           class="cls-2"
           d="m 47.74,125.68 a 0.76,0.76 0 0 0 -0.08,0.42 0.83,0.83 0 0 0 0.49,0.57 1,1 0 0 0 0.52,0.15 0.4,0.4 0 0 0 0.39,-0.23 0.32,0.32 0 0 0 0,-0.35 1.68,1.68 0 0 0 -0.32,-0.36 l -0.32,-0.3 a 2.19,2.19 0 0 1 -0.41,-0.5 0.66,0.66 0 0 1 0,-0.68 0.9,0.9 0 0 1 0.64,-0.47 1.29,1.29 0 0 1 0.9,0.2 1.18,1.18 0 0 1 0.69,0.87 0.9,0.9 0 0 1 -0.11,0.59 l -0.43,-0.24 a 0.7,0.7 0 0 0 0,-0.35 0.86,0.86 0 0 0 -0.46,-0.5 0.76,0.76 0 0 0 -0.46,-0.13 0.34,0.34 0 0 0 -0.29,0.18 0.39,0.39 0 0 0 0,0.39 1.72,1.72 0 0 0 0.24,0.29 l 0.27,0.25 a 2.69,2.69 0 0 1 0.54,0.61 0.7,0.7 0 0 1 -0.05,0.71 1,1 0 0 1 -0.64,0.47 1.37,1.37 0 0 1 -1,-0.22 1.33,1.33 0 0 1 -0.71,-0.78 1.19,1.19 0 0 1 0.11,-0.84 z"
           id="path10339"
           inkscape:connector-curvature="0"
           style="fill:#ffffff" />
        <path
           class="cls-2"
           d="m 53,126.55 a 1.61,1.61 0 0 1 -0.22,1.24 2.15,2.15 0 0 1 -0.94,0.91 1.34,1.34 0 0 1 -1.24,-0.14 1.3,1.3 0 0 1 -0.67,-0.89 1.74,1.74 0 0 1 0.26,-1.21 1.86,1.86 0 0 1 1,-0.9 1.34,1.34 0 0 1 1.16,0.13 1.36,1.36 0 0 1 0.65,0.86 z m -1.32,1.65 a 2,2 0 0 0 0.61,-0.67 1.69,1.69 0 0 0 0.23,-0.69 0.78,0.78 0 0 0 -0.44,-0.76 0.75,0.75 0 0 0 -0.79,0 1.75,1.75 0 0 0 -0.63,0.66 1.51,1.51 0 0 0 -0.22,0.84 0.76,0.76 0 0 0 0.43,0.63 0.72,0.72 0 0 0 0.77,-0.01 z"
           id="path10341"
           inkscape:connector-curvature="0"
           style="fill:#ffffff" />
        <path
           class="cls-2"
           d="m 54.73,126.09 a 0.83,0.83 0 0 1 0.75,0.12 l 0.09,0.05 0.1,0.07 -0.24,0.42 -0.1,-0.07 h -0.06 c -0.14,-0.08 -0.24,-0.09 -0.31,0 a 2.4,2.4 0 0 0 -0.36,0.53 l 0.46,0.26 -0.21,0.36 -0.46,-0.26 -1.34,2.36 -0.45,-0.26 1.34,-2.36 -0.38,-0.21 0.21,-0.37 0.38,0.22 0.24,-0.43 a 1.08,1.08 0 0 1 0.34,-0.43 z"
           id="path10343"
           inkscape:connector-curvature="0"
           style="fill:#ffffff" />
        <path
           class="cls-2"
           d="m 56,126.92 0.46,0.27 -0.46,0.81 0.44,0.25 -0.21,0.37 -0.44,-0.25 -1,1.79 a 0.23,0.23 0 0 0 0,0.24 0.52,0.52 0 0 0 0.17,0.13 h 0.07 0.09 l -0.21,0.37 -0.18,-0.06 -0.19,-0.1 c -0.21,-0.12 -0.33,-0.26 -0.34,-0.41 a 0.77,0.77 0 0 1 0.13,-0.49 l 1,-1.81 -0.37,-0.21 0.21,-0.38 0.37,0.21 z"
           id="path10345"
           inkscape:connector-curvature="0"
           style="fill:#ffffff" />
        <path
           class="cls-2"
           d="m 57.15,128.58 -0.7,2.45 1.76,-1.84 0.51,0.29 -0.72,2.44 1.78,-1.82 0.46,0.27 -2.35,2.27 -0.47,-0.27 0.65,-2.43 -1.75,1.81 -0.47,-0.28 0.77,-3.18 z"
           id="path10347"
           inkscape:connector-curvature="0"
           style="fill:#ffffff" />
        <path
           class="cls-2"
           d="m 61.55,132.53 a 0.28,0.28 0 0 0 0.28,0 0.33,0.33 0 0 0 0.13,-0.15 0.44,0.44 0 0 0 0,-0.44 1.09,1.09 0 0 0 -0.41,-0.38 0.59,0.59 0 0 0 -0.91,0.16 l -0.43,-0.24 a 0.91,0.91 0 0 1 0.73,-0.52 1.56,1.56 0 0 1 0.84,0.22 1.64,1.64 0 0 1 0.67,0.63 0.73,0.73 0 0 1 0,0.74 l -0.9,1.57 a 0.25,0.25 0 0 0 0,0.14 0.24,0.24 0 0 0 0.1,0.11 h 0.07 0.09 l -0.19,0.34 -0.19,-0.06 a 0.56,0.56 0 0 1 -0.15,-0.08 0.42,0.42 0 0 1 -0.25,-0.36 0.75,0.75 0 0 1 0.06,-0.3 1.29,1.29 0 0 1 -0.58,0.09 1.34,1.34 0 0 1 -0.66,-0.2 1,1 0 0 1 -0.48,-0.58 0.85,0.85 0 0 1 0.08,-0.71 0.87,0.87 0 0 1 0.58,-0.46 1.3,1.3 0 0 1 0.76,0.1 z m -1.67,0.69 a 0.62,0.62 0 0 0 0.27,0.31 1.21,1.21 0 0 0 0.54,0.15 0.72,0.72 0 0 0 0.72,-0.39 l 0.21,-0.37 a 0.63,0.63 0 0 1 -0.26,0 l -0.29,-0.1 -0.3,-0.12 a 1.28,1.28 0 0 0 -0.43,-0.11 0.46,0.46 0 0 0 -0.43,0.26 0.41,0.41 0 0 0 -0.03,0.37 z"
           id="path10349"
           inkscape:connector-curvature="0"
           style="fill:#ffffff" />
        <path
           class="cls-2"
           d="m 63.61,132.28 0.44,0.25 -0.27,0.47 a 1.4,1.4 0 0 1 0.45,-0.19 0.8,0.8 0 0 1 0.59,0.08 h 0.05 L 65,133 l -0.27,0.48 -0.07,-0.05 h -0.08 a 0.76,0.76 0 0 0 -0.65,-0.08 0.92,0.92 0 0 0 -0.48,0.41 l -0.9,1.57 -0.45,-0.26 z"
           id="path10351"
           inkscape:connector-curvature="0"
           style="fill:#ffffff" />
        <path
           class="cls-2"
           d="m 67,134.3 a 1.18,1.18 0 0 1 0.21,0.59 1.24,1.24 0 0 1 -0.09,0.59 3,3 0 0 1 -0.3,0.62 l -2,-1.13 a 1.4,1.4 0 0 0 -0.19,0.78 0.75,0.75 0 0 0 0.42,0.57 0.8,0.8 0 0 0 0.7,0.09 0.82,0.82 0 0 0 0.35,-0.23 l 0.46,0.26 a 1,1 0 0 1 -0.32,0.27 1.11,1.11 0 0 1 -0.39,0.17 1.27,1.27 0 0 1 -0.67,0 2,2 0 0 1 -0.4,-0.18 1.29,1.29 0 0 1 -0.64,-0.86 1.71,1.71 0 0 1 0.24,-1.24 1.8,1.8 0 0 1 1,-0.86 1.33,1.33 0 0 1 1.16,0.12 1.47,1.47 0 0 1 0.46,0.44 z m -0.44,1.17 a 1.44,1.44 0 0 0 0.14,-0.55 0.76,0.76 0 0 0 -0.44,-0.69 0.78,0.78 0 0 0 -0.65,-0.07 1,1 0 0 0 -0.56,0.45 z"
           id="path10353"
           inkscape:connector-curvature="0"
           style="fill:#ffffff" />
        <path
           class="cls-2"
           d="m 67.1,137.16 0.53,0.31 -0.31,0.55 -0.54,-0.3 z"
           id="path10355"
           inkscape:connector-curvature="0"
           style="fill:#ffffff" />
        <path
           class="cls-2"
           d="m 71.5,137.15 a 1.57,1.57 0 0 1 -0.23,1.24 2,2 0 0 1 -0.94,0.91 1.31,1.31 0 0 1 -1.23,-0.13 1.27,1.27 0 0 1 -0.67,-0.89 1.73,1.73 0 0 1 0.25,-1.21 1.9,1.9 0 0 1 1,-0.9 1.3,1.3 0 0 1 1.16,0.13 1.42,1.42 0 0 1 0.66,0.85 z m -1.32,1.66 a 2,2 0 0 0 0.6,-0.68 1.51,1.51 0 0 0 0.24,-0.69 0.78,0.78 0 0 0 -0.45,-0.75 0.74,0.74 0 0 0 -0.78,0 1.78,1.78 0 0 0 -0.63,0.67 1.52,1.52 0 0 0 -0.23,0.83 0.79,0.79 0 0 0 0.43,0.64 0.74,0.74 0 0 0 0.82,-0.02 z"
           id="path10357"
           inkscape:connector-curvature="0"
           style="fill:#ffffff" />
        <path
           class="cls-2"
           d="m 72.59,137.42 0.43,0.25 -0.26,0.47 a 1.3,1.3 0 0 1 0.45,-0.19 0.8,0.8 0 0 1 0.59,0.08 v 0 a 0.37,0.37 0 0 1 0.1,0.07 l -0.27,0.48 -0.07,-0.05 -0.08,-0.05 a 0.75,0.75 0 0 0 -0.66,-0.08 0.94,0.94 0 0 0 -0.47,0.41 l -0.9,1.57 -0.46,-0.26 z"
           id="path10359"
           inkscape:connector-curvature="0"
           style="fill:#ffffff" />
        <path
           class="cls-2"
           d="m 75.76,139.38 a 1.42,1.42 0 0 1 0.12,0.41 l 0.19,-0.34 0.43,0.24 -1.42,2.48 a 1.93,1.93 0 0 1 -0.62,0.73 1.24,1.24 0 0 1 -1.39,-0.05 1.54,1.54 0 0 1 -0.62,-0.62 0.86,0.86 0 0 1 0,-0.81 l 0.46,0.26 a 0.58,0.58 0 0 0 0,0.36 0.78,0.78 0 0 0 0.4,0.43 0.76,0.76 0 0 0 0.9,0 2.38,2.38 0 0 0 0.53,-0.73 0.94,0.94 0 0 1 -0.5,0.12 1.36,1.36 0 0 1 -1.16,-0.94 1.58,1.58 0 0 1 0.26,-1.23 1.8,1.8 0 0 1 0.94,-0.88 1.19,1.19 0 0 1 1,0.07 1.06,1.06 0 0 1 0.48,0.5 z m -0.22,0.52 a 0.78,0.78 0 0 0 -0.39,-0.54 0.75,0.75 0 0 0 -0.92,0.07 2.24,2.24 0 0 0 -0.45,0.58 1.31,1.31 0 0 0 -0.22,0.81 0.73,0.73 0 0 0 0.37,0.53 0.8,0.8 0 0 0 0.94,0 1.71,1.71 0 0 0 0.45,-0.53 1.28,1.28 0 0 0 0.22,-0.92 z"
           id="path10361"
           inkscape:connector-curvature="0"
           style="fill:#ffffff" />
      </g>
    </g>
    <text
       xml:space="preserve"
       style="font-style:normal;font-variant:normal;font-weight:bold;font-stretch:condensed;font-size:43.37393951px;line-height:1.25;font-family:'DIN Condensed';-inkscape-font-specification:'DIN Condensed, Bold Condensed';font-variant-ligatures:normal;font-variant-caps:normal;font-variant-numeric:normal;font-feature-settings:normal;text-align:start;letter-spacing:0px;word-spacing:0px;writing-mode:lr-tb;text-anchor:start;fill:#fb8273;fill-opacity:1;stroke:none;stroke-width:8.78208637;stroke-miterlimit:4;stroke-dasharray:none"
       x="55.735847"
       y="101.25121"
       id="text10369"
       transform="scale(1.0429084,0.95885698)"><tspan
         y="101.25121"
         x="55.735847"
         id="tspan10367"
         sodipodi:role="line"
         style="stroke-width:8.78208637">RDM</tspan></text>
    <g
       transform="matrix(0.43046721,0,0,0.43046721,-304.9125,-41.41547)"
       id="g10385">
      <g
         id="g10377"
         transform="translate(474.21725,226.44114)">
        <g
           id="g10375">
          <g
             id="g10373">
            <path
               inkscape:connector-curvature="0"
               d="m 328.162,4.665 c -18.767,0 -34.032,15.268 -34.032,34.034 0,7.28 2.306,14.028 6.214,19.568 l -30.078,26.432 c -1.881,1.878 0.067,6.867 1.944,8.749 1.879,1.876 6.87,3.822 8.748,1.943 l 26.265,-29.894 c 5.779,4.525 13.047,7.233 20.939,7.233 18.768,0 34.034,-15.267 34.034,-34.032 0,-18.765 -15.266,-34.033 -34.034,-34.033 z m 0,56.722 c -12.51,0 -22.689,-10.177 -22.689,-22.688 0,-12.511 10.18,-22.69 22.689,-22.69 12.513,0 22.688,10.18 22.688,22.69 0,12.51 -10.175,22.688 -22.688,22.688 z"
               id="path10371"
               style="fill:#ffffff" />
          </g>
        </g>
      </g>
      <g
         id="g10383"
         transform="matrix(0.38742049,0,0,0.38742049,670.93796,251.12579)">
        <path
           inkscape:connector-curvature="0"
           d="m 375.104,38.079 c 0.174,18.184 -8.123,32.126 -11.51,37.52 8.183,-5.347 19.898,-19.36 19.674,-37.661 0.174,-18.183 -11.431,-32.127 -19.631,-37.52 3.323,5.347 11.691,19.36 11.467,37.661 z"
           id="path10379"
           style="fill:#ffffff" />
        <path
           inkscape:connector-curvature="0"
           d="m 375.104,38.079 c 0.174,18.184 -8.123,32.126 -11.51,37.52 8.183,-5.347 19.898,-19.36 19.674,-37.661 0.174,-18.183 -11.431,-32.127 -19.631,-37.52 3.323,5.347 11.691,19.36 11.467,37.661 z"
           id="path10381"
           style="fill:none;stroke:#ffffff" />
      </g>
    </g>
    <circle
       r="4.3097267"
       cy="59.329391"
       cx="114.42316"
       id="circle10387"
       style="opacity:1;fill:none;fill-opacity:1;stroke:#ffffff;stroke-width:2.26771665;stroke-miterlimit:4;stroke-dasharray:none;stroke-opacity:1" />
    <rect
       style="fill:#ffffff;stroke-width:0.16677181"
       x="60.269562"
       id="rect10389"
       height="10.714088"
       width="2.3428104"
       y="54.011116" />
    <polygon
       transform="matrix(0.16677181,0,0,0.16677181,60.269562,52.640917)"
       style="fill:#ffffff"
       id="polygon10391"
       points="101.318,8.433 113.62,36.814 125.814,8.325 140.814,8.325 113.512,72.427 86.21,8.433 " />
    <polygon
       transform="matrix(0.16677181,0,0,0.16677181,60.269562,52.640917)"
       style="fill:#ffffff"
       id="polygon10393"
       points="218.848,43.075 254.537,74.124 254.537,7.961 239.34,7.961 239.34,36.974 203.65,8.076 203.65,72.318 218.848,72.318 " />
    <polygon
       transform="matrix(0.16677181,0,0,0.16677181,60.269562,52.640917)"
       style="fill:#ffffff"
       id="polygon10395"
       points="27.65,8.242 27.65,72.484 42.848,72.484 42.848,43.241 78.537,74.29 78.537,8.127 63.34,8.127 63.34,37.14 " />
    <rect
       style="fill:#ffffff;stroke-width:0.16677181"
       id="rect10397"
       height="10.713921"
       width="2.342977"
       y="54.042175"
       x="104.96441" />
    <polygon
       transform="matrix(0.16677181,0,0,0.16677181,60.269562,52.640917)"
       style="fill:#ffffff"
       id="polygon10399"
       points="166.976,20.927 192.991,20.927 192.991,7.974 149.193,7.974 149.193,72.079 193.649,72.079 193.649,59.346 166.976,59.346 166.976,45.624 191.783,45.624 191.783,32.672 166.976,32.672 " />
  </g>
</svg>
