<?xml version="1.0" encoding="UTF-8"?>
<!-- Generator: Adobe Illustrator 15.1.0, SVG Export Plug-In . SVG Version: 6.00 Build 0)  -->
<!DOCTYPE svg PUBLIC "-//W3C//DTD SVG 1.1//EN" "http://www.w3.org/Graphics/SVG/1.1/DTD/svg11.dtd">
<svg version="1.1" id="Layer_1" xmlns="http://www.w3.org/2000/svg" xmlns:xlink="http://www.w3.org/1999/xlink" x="0px" y="0px" width="500px" height="142px" viewBox="0 0 500 142" enable-background="new 0 0 500 142" xml:space="preserve">
<g>
	<path fill="#78A22F" d="M88.338,122.059c-2.416,0-4.379-1.961-4.379-4.379V88.436c0-18.76,0.404-19.943,10.771-31.605   c0.756-0.854,1.578-1.777,2.465-2.783l0.213-0.225l38.482-37.885c1.723-1.697,4.492-1.676,6.189,0.047   c1.697,1.725,1.676,4.496-0.047,6.191l-38.371,37.777c-0.852,0.973-1.65,1.865-2.387,2.699c-4.572,5.139-6.656,7.482-7.58,10.225   c-0.977,2.91-0.977,7.135-0.977,15.559v29.244C92.719,120.098,90.756,122.059,88.338,122.059"/>
	<path fill="#78A22F" d="M76.424,10.916c-33.172,0-60.16,26.988-60.16,60.16s26.988,60.158,60.16,60.158   c33.176,0,60.162-26.986,60.162-60.158S109.6,10.916,76.424,10.916 M76.424,139.994c-38,0-68.918-30.916-68.918-68.918   c0-38.004,30.918-68.916,68.918-68.916c38.002,0,68.914,30.912,68.914,68.916C145.338,109.078,114.426,139.994,76.424,139.994"/>
	<path fill="#78A22F" d="M67.875,122.059c-2.418,0-4.379-1.961-4.379-4.379V88.436c0-8.424,0-12.648-0.98-15.559   c-0.922-2.742-3.008-5.086-7.574-10.225c-0.74-0.834-1.533-1.727-2.391-2.699L14.182,22.176c-1.721-1.695-1.744-4.467-0.047-6.191   c1.697-1.723,4.467-1.744,6.191-0.047l38.697,38.109c0.881,1.006,1.701,1.93,2.465,2.783   c10.363,11.662,10.768,12.846,10.768,31.605v29.244C72.256,120.098,70.293,122.059,67.875,122.059"/>
	<path fill="#78A22F" d="M50.912,80.895c-1.145,0-2.291-0.447-3.15-1.338L24.824,55.822c-1.68-1.736-1.635-4.51,0.105-6.191   c1.738-1.678,4.512-1.635,6.191,0.107l22.938,23.736c1.682,1.738,1.633,4.508-0.105,6.189   C53.105,80.486,52.008,80.895,50.912,80.895"/>
	<path fill="#78A22F" d="M101.938,80.895c-1.096,0-2.193-0.408-3.045-1.23c-1.74-1.682-1.787-4.451-0.105-6.189l22.939-23.736   c1.682-1.742,4.449-1.785,6.189-0.107c1.744,1.682,1.785,4.455,0.109,6.191l-22.938,23.734   C104.227,80.447,103.082,80.895,101.938,80.895"/>
	<path fill="#404041" d="M211.613,22.74h-7.568c-13.594,33.059-26.885,66.275-40.475,99.334h8.34l12.514-31.514h46.654   c4.324,10.504,8.34,21.166,12.67,31.514h8.184L211.613,22.74z M207.754,32.01l20.545,51.289h-40.939L207.754,32.01z M288.705,45.76   c-7.416,0-14.832,1.389-21.168,3.707V18.756h-7.725v81.23c0,5.561,2.627,23.326,29.973,23.326c12.67,0,33.367-5.1,33.367-39.396   C323.152,52.557,304.77,45.76,288.705,45.76 M289.785,116.205c-16.686,0-22.248-8.033-22.248-15.914v-43.1   c6.184-2.627,13.596-4.17,21.168-4.17c16.529,0,26.725,7.725,26.725,30.895C315.43,112.65,300.445,116.205,289.785,116.205"/>
	<path fill="#404041" d="M335.029,59.881c2.846,3.648,6.367,6.301,10.555,7.957c4.184,1.66,8.738,3.295,13.658,4.904l13.631,4.527   c4.168,1.457,7.666,3.76,10.502,6.902c2.836,3.141,4.256,7.027,4.256,11.654c-0.051,10.912-8.811,16.367-26.279,16.367   c-11.631,0-21.527-2.738-29.686-8.221v12.066c9.113,4.83,19.287,7.244,30.516,7.244c11.521,0,20.51-2.438,26.949-7.318   c6.445-4.877,9.666-11.59,9.666-20.139c0-6.188-1.426-11.441-4.266-15.768c-2.846-4.324-6.346-7.516-10.498-9.578   c-4.152-2.061-8.705-3.975-13.668-5.732c-4.955-1.76-9.516-3.207-13.688-4.338c-4.162-1.129-7.668-2.879-10.504-5.242   c-2.836-2.367-4.256-5.307-4.256-8.83c0-5.68,2.184-10.029,6.555-13.049c4.365-3.016,10.664-4.521,18.9-4.521   c8.854,0,17.1,2.158,24.74,6.486V23.787c-8.451-4.076-17.047-6.109-25.795-6.109c-12.18,0-21.152,2.791-26.918,8.371   c-5.766,5.582-8.643,12.346-8.643,20.289C330.758,51.723,332.178,56.236,335.029,59.881 M411.229,100.23   c1.492,4.84,3.398,8.68,5.729,11.529c2.33,2.844,5.139,5.176,8.434,6.988c3.291,1.814,6.514,3.021,9.658,3.627   c3.143,0.604,6.521,0.908,10.146,0.908c8.043,0,15.662-1.381,22.855-4.148v-10.787c-6.691,2.969-13.908,4.449-21.654,4.449   c-9.15,0-15.809-2.307-19.986-6.914c-4.174-4.615-6.262-12.115-6.262-22.506c0-10.232,2.088-17.67,6.262-22.309   c4.178-4.637,10.836-6.959,19.986-6.959c7.443,0,14.66,1.434,21.654,4.301V47.926c-7.496-2.867-15.115-4.301-22.855-4.301   c-4.633,0-8.879,0.564-12.748,1.695c-3.875,1.129-7.666,3.051-11.369,5.758c-3.709,2.711-6.654,6.816-8.826,12.311   c-2.178,5.498-3.266,12.162-3.266,19.988C408.986,89.775,409.729,95.395,411.229,100.23 M491.74,19.031h-12.367v12.371h12.367   V19.031z M479.973,44.984h11.166v77.094h-11.166V44.984z"/>
</g>
</svg>