<svg width="163" height="26" viewBox="0 0 163 26" fill="none" xmlns="http://www.w3.org/2000/svg">
    <path d="M30.8204 19.8276V5.01104H37.6395C40.3016 5.01104 42.2219 6.65853 42.2219 9.05885C42.2219 10.0517 41.6764 11.5792 40.2362 12.1247C41.8837 12.7466 42.7238 14.1541 42.7238 15.7143C42.7238 18.1364 40.8581 19.8276 38.1195 19.8276H30.8204ZM37.1376 7.54229H33.7662V11.1646H37.2467C38.4578 11.1646 39.1779 10.4009 39.1779 9.38617C39.1779 8.21874 38.305 7.54229 37.1376 7.54229ZM37.6395 13.4885H33.7662V17.3072H37.6395C38.8178 17.3072 39.5925 16.5544 39.5925 15.4852C39.5925 14.2632 38.8287 13.4885 37.6395 13.4885ZM47.6133 19.8167H44.6566V5.01104H51.192C54.4106 5.01104 56.4945 6.93129 56.4945 9.76804C56.4945 11.6556 55.458 13.2049 53.7342 13.9468L57.0837 19.8276H53.8542L50.832 14.4378H47.6133V19.8167ZM47.6133 7.56411V11.8847H51.0065C52.6322 11.8847 53.4723 10.8918 53.4723 9.76804C53.4723 8.53515 52.6322 7.56411 51.0065 7.56411H47.6133ZM65.2464 20.0458C60.9367 20.0458 57.5654 16.7508 57.5654 12.4193C57.5654 8.08781 60.8386 4.79282 65.17 4.79282C67.8977 4.79282 70.3526 6.17847 71.8037 8.4915L69.4797 10.1499C68.4869 8.51333 67.0576 7.52046 65.17 7.52046C62.4751 7.52046 60.5876 9.54983 60.5876 12.4193C60.5876 15.2997 62.5515 17.3181 65.2464 17.3181C67.0685 17.3181 68.4978 16.4889 69.7307 14.7651L71.9019 16.3362C70.4726 18.7365 67.9304 20.0458 65.2464 20.0458ZM78.2878 19.8276H76.3893L82.5102 5.01104H84.6268L90.7585 19.8276H88.8492L87.4745 16.3907H79.6734L78.2878 19.8276ZM80.2408 14.8524H86.9071L83.5685 6.88765L80.2408 14.8524ZM93.6187 19.8276H91.8839V9.35344H93.6296V10.9246C94.2188 9.95352 95.4626 9.13523 97.1319 9.13523C99.8923 9.13523 101.551 10.7609 101.551 13.4558V19.8276H99.8159V13.8813C99.8159 11.841 98.7576 10.7718 96.8592 10.7718C95.0698 10.7718 93.6187 12.0047 93.6187 13.9141V19.8276ZM107.531 20.0458C105.109 20.0458 103.385 18.8784 103.385 16.8381C103.385 14.896 105.207 13.5431 107.957 13.5431C109.113 13.5431 110.172 13.8268 110.935 14.1541V13.3903C110.935 11.7538 109.703 10.75 108 10.75C106.735 10.75 105.6 11.3173 104.76 12.2993L103.636 11.2301C104.575 9.96443 106.298 9.13523 107.99 9.13523C110.826 9.13523 112.659 10.75 112.659 13.2485V19.8276H110.957V18.2346C110.313 19.3039 109.048 20.0458 107.531 20.0458ZM108.044 14.9069C106.364 14.9069 105.142 15.5725 105.142 16.8054C105.142 17.9837 106.222 18.6165 107.64 18.6165C109.582 18.6165 110.935 17.1218 110.935 15.5943C110.248 15.1906 109.092 14.9069 108.044 14.9069ZM115.192 19.8276V4.46551H116.927V19.8276H115.192ZM122.733 20.1222L118.205 9.35344H120.093L123.66 18.1255L127.163 9.35344H129.072L124.129 21.1587C123.257 23.2535 122.253 24.41 120.136 24.41C119.296 24.41 118.641 24.2027 118.347 24.05L118.554 22.577C118.914 22.7407 119.493 22.8607 120.038 22.8607C121.227 22.8607 121.98 22.1188 122.547 20.6131L122.733 20.1222ZM131.037 10.8482H129.106V9.35344H131.048V5.99299H132.761V9.35344H136.22V10.8482H132.772V16.5108C132.772 17.8855 133.514 18.4856 134.583 18.4856C135.151 18.4856 135.871 18.3328 136.373 18.0819L136.602 19.5766C136.155 19.8276 135.249 20.0458 134.398 20.0458C132.379 20.0458 131.037 18.9329 131.037 16.7944V10.8482ZM137.793 5.84024C137.793 5.20743 138.229 4.771 138.862 4.771C139.495 4.771 139.953 5.20743 139.953 5.84024C139.953 6.47305 139.495 6.92038 138.862 6.92038C138.229 6.92038 137.793 6.47305 137.793 5.84024ZM138 9.35344H139.735V19.8276H138V9.35344ZM147.199 20.0458C144.013 20.0458 141.635 17.6455 141.635 14.5905C141.635 11.5137 144.079 9.13523 147.188 9.13523C149.294 9.13523 151.073 10.1717 151.989 11.9283L150.603 12.7794C149.872 11.5137 148.683 10.75 147.188 10.75C145.061 10.75 143.37 12.4411 143.37 14.5905C143.37 16.7399 144.995 18.431 147.199 18.431C148.65 18.431 149.894 17.6455 150.56 16.4562L151.945 17.3072C151.094 18.9766 149.24 20.0458 147.199 20.0458ZM152.863 17.6891L154.195 16.7181C154.773 17.7655 155.809 18.4856 157.326 18.4856C158.69 18.4856 159.661 17.9073 159.661 17.0127C159.661 16.0416 158.941 15.7361 157.173 15.3433C154.936 14.8415 153.344 14.1541 153.344 12.1465C153.344 10.3136 155.078 9.13523 157.239 9.13523C159.126 9.13523 160.523 10.0517 161.145 11.0773L159.955 12.0593C159.453 11.3282 158.592 10.6954 157.239 10.6954C155.908 10.6954 155.056 11.2519 155.056 12.1138C155.056 13.1176 155.897 13.3903 157.675 13.8159C159.934 14.3614 161.406 15.0815 161.406 17.0127C161.406 18.8674 159.53 20.0458 157.326 20.0458C155.155 20.0458 153.616 19.1293 152.863 17.6891Z" fill="#28285B"/>
    <path fill-rule="evenodd" clip-rule="evenodd" d="M12.4825 23.3448C16.3201 23.3448 19.5377 20.6475 20.3386 17.0508C20.4648 16.4871 20.5309 15.9012 20.5309 15.3008L20.5309 15.2561L20.5309 15.2547C20.5258 14.3917 20.3841 13.5606 20.1261 12.7811C19.4373 10.6975 17.9185 8.98943 15.9635 8.04812C15.2479 7.70351 14.4742 7.462 13.661 7.34254V10.1514C14.2665 10.2901 14.833 10.533 15.3404 10.8606C16.3739 11.5271 17.1608 12.5439 17.5313 13.7409C17.6842 14.2341 17.7666 14.7579 17.7666 15.3008C17.7666 15.5128 17.7543 15.721 17.7293 15.9255L17.7291 15.927C17.689 16.2713 17.6148 16.605 17.51 16.926L17.5099 16.9264C16.8229 19.0455 14.8281 20.5818 12.4825 20.5818C10.1369 20.5818 8.14154 19.0455 7.45459 16.9264L7.40157 16.7629H4.56177L4.62587 17.0508C5.42682 20.6475 8.64496 23.3448 12.4825 23.3448ZM12.2017 11.4788L14.1642 13.4412C13.7116 13.9703 13.1912 14.4399 12.617 14.8367C11.3186 15.7345 9.74399 16.2611 8.04897 16.2611C7.68285 16.2611 7.32242 16.2364 6.96886 16.1886C6.11939 16.0746 5.31142 15.8271 4.56749 15.4692C3.85475 15.1257 3.20006 14.6808 2.62267 14.1527C1.0121 12.6817 0 10.5648 0 8.2165C0 3.78034 3.61072 0.172424 8.04897 0.172424C8.89626 0.172424 9.71396 0.304181 10.4817 0.547673L10.7621 0.636603L9.3432 3.09307L9.17444 3.05625C8.81196 2.97717 8.43541 2.93545 8.04897 2.93545C5.13521 2.93545 2.7643 5.30474 2.7643 8.2165C2.7643 9.58224 3.28607 10.8292 4.14122 11.7684C4.45045 12.1079 4.8036 12.4069 5.19102 12.6566L5.19122 12.6568C5.80103 13.0508 6.49672 13.3222 7.24311 13.4366L7.24345 13.4367C7.50581 13.4772 7.77484 13.4981 8.04897 13.4981C8.99231 13.4981 9.87829 13.2501 10.6451 12.8151L10.6453 12.8149C11.2473 12.4744 11.776 12.0191 12.2017 11.4788ZM9.18674 10.4624C8.98282 9.76312 8.87167 9.02528 8.86709 8.2626L8.86708 8.26118L8.86708 8.2165C8.86708 6.3513 9.50586 4.63195 10.575 3.26651C11.0781 2.62508 11.6762 2.06114 12.348 1.5963C12.9969 1.14741 13.7156 0.791744 14.4832 0.547721C15.2511 0.303595 16.0683 0.172424 16.9155 0.172424C21.3538 0.172424 24.9645 3.78034 24.9645 8.2165C24.9645 10.5648 23.9523 12.6811 22.3424 14.1526L22.1253 14.3511L20.7068 11.8956L20.8233 11.7678C21.6789 10.8287 22.2002 9.58228 22.2002 8.2165C22.2002 5.30474 19.8293 2.93545 16.9155 2.93545C16.5291 2.93545 16.1531 2.97716 15.7906 3.05625L15.7902 3.05632C15.2674 3.1696 14.7729 3.36088 14.32 3.61792L14.3197 3.6181C13.6739 3.98329 13.1121 4.48063 12.6724 5.07307L12.6722 5.07327C12.1355 5.79468 11.779 6.65564 11.6689 7.59064L11.6687 7.59172C11.6437 7.79626 11.6314 8.00448 11.6314 8.2165C11.6314 8.74854 11.7105 9.26224 11.8576 9.74676L9.18674 10.4624Z" fill="#28285B"/>
</svg>
