<svg width="371" height="67" viewBox="0 0 371 67" fill="none" xmlns="http://www.w3.org/2000/svg">
<g clip-path="url(#clip0)">
<path d="M45.9298 54.5783C45.792 54.5783 45.5058 54.7054 45.3362 55.3302C44.9567 57.073 44.7191 58.8437 44.626 60.6249C44.4564 61.4297 43.2056 62.4781 42.1668 61.8639C41.5385 61.4927 40.8788 61.1773 40.1952 60.9214C39.509 60.6387 38.7997 60.4155 38.0752 60.2543C36.8986 59.9896 36.7078 58.38 37.1424 57.6705C38.3148 56.2939 39.378 54.8281 40.3224 53.2864C40.6404 52.6934 40.492 52.4181 40.4072 52.3122C39.6748 51.9057 38.967 51.4566 38.2872 50.9673C38.16 50.9673 37.842 50.9038 37.4286 51.4333C36.4028 52.9144 35.4989 54.4762 34.7256 56.1032C34.2592 56.7809 32.701 57.2787 31.9802 56.315C31.5361 55.7308 31.0432 55.1852 30.5068 54.6842C29.993 54.1612 29.4324 53.6862 28.832 53.2652C28.6448 53.0852 28.4981 52.8676 28.4015 52.6266C28.3048 52.3857 28.2606 52.127 28.2716 51.8677C28.2826 51.6083 28.3487 51.3543 28.4654 51.1224C28.5821 50.8905 28.7468 50.6861 28.9486 50.5226C30.5533 49.699 32.0883 48.7463 33.5384 47.674C34.0578 47.2398 34.0366 46.9327 33.9836 46.8057C33.4706 46.1491 32.9963 45.4631 32.5632 44.7513C32.4678 44.6666 32.1816 44.5289 31.588 44.8678C30.094 45.85 28.6766 46.9438 27.348 48.1399C27.123 48.2706 26.8729 48.3522 26.6141 48.3795C26.3552 48.4067 26.0936 48.3788 25.8463 48.2978C25.599 48.2168 25.3717 48.0844 25.1792 47.9094C24.9868 47.7343 24.8336 47.5206 24.7298 47.2822C24.5483 46.5734 24.3035 45.8823 23.9984 45.2173C23.7184 44.5405 23.3816 43.8887 22.9914 43.2688C22.3554 42.2098 23.373 40.9815 24.1574 40.7803C25.9442 40.625 27.7162 40.3311 29.4574 39.9013C30.0934 39.7001 30.1994 39.4248 30.21 39.2872C29.9866 38.4969 29.8096 37.6942 29.68 36.8833C29.6164 36.7563 29.415 36.5339 28.7366 36.6186C26.9634 36.9389 25.2193 37.4028 23.5214 38.0058C22.7158 38.1541 21.2636 37.4022 21.4014 36.2056C21.5816 34.7515 21.5566 33.2793 21.3272 31.8322C21.1152 30.6567 22.5462 29.8625 23.3624 29.979C25.0932 30.53 26.8656 30.9408 28.6624 31.2074C29.3408 31.2074 29.5422 31.0274 29.5952 30.9003C29.6893 30.0725 29.8381 29.2518 30.0404 28.4435C30.0404 28.2953 29.9026 28.02 29.2666 27.8399C27.5193 27.4764 25.7481 27.2393 23.9666 27.1304C23.1716 26.961 22.1116 25.722 22.7158 24.6843C23.0886 24.0536 23.4044 23.3909 23.6592 22.704C23.9497 22.0213 24.1733 21.312 24.327 20.5862C24.4217 20.3437 24.567 20.1242 24.7532 19.9423C24.9394 19.7604 25.1623 19.6201 25.407 19.531C25.6517 19.4418 25.9126 19.4057 26.1723 19.4252C26.4321 19.4446 26.6847 19.5191 26.9134 19.6437C28.2956 20.8095 29.7624 21.8714 31.3018 22.8205C31.906 23.1276 32.1816 22.99 32.2876 22.8947C32.6903 22.1582 33.1437 21.4506 33.6444 20.7768C33.6444 20.6497 33.6444 20.332 33.1674 19.9296C31.6802 18.909 30.1175 18.0027 28.4928 17.2187C27.8144 16.7528 27.3162 15.2067 28.2808 14.4866C29.4359 13.5687 30.4627 12.5003 31.3336 11.3098C32.0226 10.3144 33.5914 10.7697 34.079 11.4263C34.9017 13.027 35.8554 14.5571 36.9304 16.0009C37.365 16.5304 37.6724 16.4986 37.7996 16.4563C38.4543 15.9402 39.1411 15.4663 39.856 15.0373C39.9408 14.9314 40.0786 14.6561 39.7394 14.063C38.7637 12.5486 37.6684 11.1145 36.464 9.77431C36.0188 9.09658 36.146 7.46581 37.312 7.1693C38.0397 6.99151 38.7494 6.74691 39.432 6.43863C40.1124 6.14445 40.7652 5.79005 41.3824 5.37968C42.4424 4.73372 43.6826 5.75031 43.8734 6.53393C44.0242 8.31955 44.3184 10.0902 44.7532 11.8287C44.944 12.4429 45.2302 12.5487 45.368 12.5593C46.1746 12.3438 46.9919 12.1706 47.8166 12.0405C47.9438 11.9875 48.177 11.7757 48.1028 11.098C47.7501 9.37471 47.261 7.68213 46.64 6.03623C46.4916 5.24202 47.2336 3.79126 48.4314 3.91833C49.8684 4.02433 51.313 3.96035 52.735 3.72772C53.9328 3.52652 54.7172 4.94551 54.6006 5.75031C54.045 7.47894 53.6302 9.24962 53.3604 11.045C53.3604 11.7228 53.5512 11.9134 53.6784 11.9769C54.2614 12.051 54.8338 12.1675 55.3956 12.284L57.399 0.953285H11.5116L0 66.0361H45.845L47.8166 54.9172C47.1806 54.8219 46.5446 54.6736 45.9298 54.5783Z" fill="#DB316C"/>
<path d="M81.9379 0.953285H101.76C112.413 0.953285 117.204 6.79867 115.54 16.1915L114.48 22.3334C113.134 29.746 108.724 32.2028 105.65 33.4418L105.555 33.8336C108.438 34.8925 112.074 38.1435 110.643 46.0962L109.773 51.0838C107.95 61.5356 101.527 66.0361 91.8383 66.0361H70.4263L81.9379 0.953285ZM86.0719 54.1548H90.4815C94.1279 54.1548 96.3327 52.2381 97.0959 47.727L97.7743 44.656C98.5375 40.1555 96.5235 38.5247 93.4601 38.5247H88.7537L86.0719 54.1548ZM90.5769 28.2741H95.0819C98.0605 28.2741 100.551 26.6433 101.23 22.524L101.898 18.6906C102.565 14.9526 101.039 13.1312 97.3927 13.1312H93.2799L90.5769 28.2741Z" fill="#1D1D1D"/>
<path d="M141.234 37.5717L136.242 66.0361H122.811L127.804 37.8576L119.165 0.953285H133.846L137.206 23.2865L149.004 0.953285H162.339L141.234 37.5717Z" fill="#1D1D1D"/>
<path d="M147.467 33.8336H172.027L170.204 43.703H145.739L147.467 33.8336Z" fill="#1D1D1D"/>
<path d="M214.618 42.4534L213.76 47.1551C211.364 60.6673 203.393 66.9892 192.941 66.9892C181.907 66.9892 173.861 60.6355 176.437 45.9056L181.038 19.8343C183.444 6.41744 190.927 0.000228882 201.856 0.000228882C212.456 0.000228882 220.936 6.41745 218.456 20.6073L217.692 24.6313L206.276 25.3938L206.849 21.4651C208.004 15.6197 205.789 13.2265 202.057 13.2265C198.326 13.2265 195.337 15.6197 194.277 21.4651L190.037 45.3337C188.977 51.465 191.192 53.8053 194.934 53.8053C198.676 53.8053 201.549 51.5074 202.704 45.3337L203.372 41.5957L214.618 42.4534Z" fill="#1D1D1D"/>
<path d="M263.071 20.9886L258.46 47.1551C256.159 60.6673 247.616 66.9892 236.496 66.9892C225.377 66.9892 216.441 60.6355 218.932 45.9056L223.543 19.8343C225.939 6.41744 234.472 0.000228882 245.602 0.000228882C256.52 0.000228882 265.657 6.41744 263.071 20.9886ZM236.878 21.4651L232.553 45.3337C231.493 51.465 233.709 53.8053 237.451 53.8053C241.192 53.8053 244.171 51.5074 245.22 45.3337L249.46 21.4651C250.52 15.6197 248.316 13.2265 244.669 13.2265C241.023 13.2265 237.832 15.6197 236.878 21.4651Z" fill="#1D1D1D"/>
<path d="M297.86 0.953285H310.58L286.401 66.0361H270.353L268.625 0.953285H283.401L283.115 43.3111L297.86 0.953285Z" fill="#1D1D1D"/>
<path d="M328.6 0.953285L317.088 66.0361H303.647L315.159 0.953285H328.6Z" fill="#1D1D1D"/>
<path d="M324.943 66.0361L336.454 0.953285H354.04C365.074 0.953285 373.12 6.79867 370.544 21.1792L366.039 46.7739C363.633 60.2861 356.435 66.0361 345.411 66.0361H324.943ZM344.987 53.3288C348.729 53.3288 351.708 51.0309 352.768 44.8572L356.891 21.8463C357.845 16.0009 355.736 13.6077 351.994 13.6077H347.754L340.652 53.3817L344.987 53.3288Z" fill="#1D1D1D"/>
<path d="M78.8534 0.963867L67.3418 66.0361H73.8714L85.383 0.963867H78.8534Z" fill="#DB316C"/>
<path d="M70.4264 33.4947C70.4242 33.8796 70.3487 34.2606 70.2038 34.6172C70.1346 34.7959 70.0457 34.9664 69.9387 35.1255C69.8321 35.2997 69.7038 35.4598 69.5571 35.602L58.8618 46.2974C58.5985 46.6346 58.2666 46.9121 57.8879 47.1115C57.5093 47.3108 57.0925 47.4275 56.6653 47.4538C56.238 47.4802 55.8101 47.4155 55.4098 47.2641C55.0095 47.1126 54.6459 46.878 54.3432 46.5756C54.0406 46.2732 53.8057 45.9101 53.6541 45.5101C53.5026 45.1102 53.4378 44.6827 53.4641 44.2559C53.4905 43.8291 53.6073 43.4127 53.8069 43.0344C54.0064 42.6562 54.2842 42.3245 54.6218 42.0616L60.1444 36.5445H36.5064C35.7051 36.5445 34.9367 36.2265 34.3702 35.6605C33.8036 35.0946 33.4854 34.3269 33.4854 33.5265C33.4854 32.7261 33.8036 31.9584 34.3702 31.3924C34.9367 30.8265 35.7051 30.5085 36.5064 30.5085H60.1126L54.59 24.9914C54.2524 24.7284 53.9746 24.3968 53.7751 24.0185C53.5755 23.6402 53.4587 23.2239 53.4323 22.7971C53.406 22.3703 53.4708 21.9427 53.6223 21.5428C53.7739 21.1429 54.0088 20.7797 54.3114 20.4774C54.6141 20.175 54.9777 19.9403 55.378 19.7889C55.7783 19.6375 56.2062 19.5728 56.6335 19.5991C57.0607 19.6254 57.4775 19.7421 57.8561 19.9415C58.2348 20.1409 58.5667 20.4184 58.83 20.7556L69.536 31.3768C69.6801 31.5175 69.8081 31.6738 69.9176 31.8428C70.0168 32.0009 70.1019 32.1674 70.172 32.3405C70.3308 32.7051 70.4172 33.0971 70.4264 33.4947Z" fill="#4B9BD9"/>
</g>
<defs>
<clipPath id="clip0">
<rect width="371" height="67" fill="white"/>
</clipPath>
</defs>
</svg>
