<?xml version="1.0" encoding="UTF-8" ?>
<!DOCTYPE svg PUBLIC "-//W3C//DTD SVG 1.1//EN" "http://www.w3.org/Graphics/SVG/1.1/DTD/svg11.dtd">
<svg width="1400pt" height="1022pt" viewBox="0 0 1400 1022" version="1.1" xmlns="http://www.w3.org/2000/svg">
<g id="#f57c20ff">
<path fill="#f57c20" opacity="1.00" d=" M 1055.78 15.77 C 1067.46 5.92 1082.70 0.32 1098.00 0.48 C 1112.81 0.33 1127.59 5.56 1139.11 14.84 C 1151.63 24.78 1160.31 39.46 1162.90 55.24 C 1164.96 67.72 1163.52 80.81 1158.44 92.42 C 1151.76 108.00 1138.79 120.77 1123.10 127.17 C 1107.21 133.79 1088.72 133.77 1072.84 127.15 C 1061.02 122.33 1050.86 113.85 1043.58 103.41 C 1029.21 111.58 1014.62 119.33 1000.24 127.46 C 1003.88 140.09 1002.30 154.18 995.66 165.56 C 988.82 177.54 976.72 186.43 963.16 189.13 C 946.94 192.64 929.12 187.20 917.79 175.04 C 905.84 182.17 893.98 189.43 882.15 196.76 C 884.59 206.76 882.93 217.70 877.42 226.42 C 870.97 236.91 859.22 243.92 846.90 244.49 C 837.54 245.08 828.11 242.00 820.76 236.21 C 808.23 244.48 795.83 252.95 783.53 261.57 C 785.35 271.31 781.96 281.88 774.34 288.33 C 765.61 296.17 751.91 297.40 741.82 291.51 C 694.99 326.30 649.63 363.31 608.28 404.53 C 624.74 444.17 638.83 484.81 650.48 526.12 C 658.88 556.70 666.38 587.65 670.07 619.20 C 671.17 630.37 672.30 641.86 669.40 652.87 C 665.92 666.79 658.91 680.40 647.44 689.37 C 639.23 695.87 628.21 698.64 617.93 696.56 C 614.13 695.74 609.70 695.01 607.31 691.59 C 604.90 688.10 606.99 683.40 610.14 681.17 C 612.77 679.43 615.74 678.17 618.09 676.00 C 624.77 670.33 628.37 661.69 628.95 653.06 C 629.88 640.52 628.29 627.97 626.69 615.55 C 620.80 574.63 610.46 534.48 598.91 494.83 C 592.95 474.57 586.49 454.46 579.58 434.50 C 562.74 453.00 546.26 471.83 530.43 491.21 C 539.30 491.28 548.17 491.15 557.04 491.26 C 563.27 491.45 568.65 496.86 569.20 503.00 C 570.11 510.00 564.44 517.05 557.37 517.52 C 541.39 517.92 525.24 517.15 509.35 517.90 C 497.48 533.06 486.33 548.80 475.53 564.75 C 502.37 564.73 529.21 564.76 556.05 564.73 C 563.16 564.43 569.50 570.90 569.28 577.98 C 569.41 585.04 563.05 591.32 556.00 591.11 C 523.61 591.10 491.22 591.15 458.83 591.08 C 449.05 607.11 440.06 623.64 432.07 640.64 C 473.38 640.68 514.69 640.63 556.01 640.67 C 563.14 640.44 569.52 646.84 569.28 653.97 C 569.40 660.98 563.12 667.34 556.06 667.07 C 510.96 667.06 465.87 667.07 420.78 667.06 C 412.82 688.00 406.69 709.74 404.11 732.04 C 401.94 751.68 402.57 771.84 407.88 790.96 C 414.92 816.83 431.00 840.85 454.22 854.78 C 457.04 856.45 458.57 859.85 458.16 863.09 C 457.66 868.36 453.31 872.50 448.57 874.33 C 441.53 877.00 433.63 875.76 426.79 873.06 C 401.14 862.39 377.03 845.93 361.56 822.45 C 347.91 802.09 341.98 777.35 342.02 753.03 C 342.19 717.32 352.88 682.58 367.01 650.10 C 383.98 611.67 406.21 575.76 430.91 541.85 C 470.14 488.40 515.48 439.41 565.78 396.21 C 538.01 322.89 504.77 251.39 463.24 184.80 C 440.33 148.25 414.78 113.21 385.36 81.60 C 382.91 78.82 380.23 75.77 379.78 71.95 C 379.31 70.02 381.30 68.51 383.08 68.78 C 388.07 69.56 391.83 73.32 395.25 76.76 C 455.96 136.38 506.44 205.88 548.11 279.93 C 564.97 309.92 580.37 340.72 594.44 372.10 C 636.68 336.25 682.23 304.51 728.57 274.24 C 727.10 267.96 727.45 261.17 730.24 255.30 C 734.11 246.67 742.60 240.33 751.99 239.15 C 759.81 237.92 767.95 240.50 774.03 245.50 C 786.08 238.04 798.19 230.68 810.35 223.41 C 805.73 214.41 804.92 203.59 808.09 193.99 C 811.35 183.82 819.10 175.19 828.86 170.85 C 838.92 166.25 850.97 166.34 860.98 171.02 C 867.45 174.01 872.95 178.91 876.94 184.79 C 888.19 178.42 899.45 172.05 910.82 165.89 C 904.74 155.44 902.60 142.77 905.17 130.93 C 907.99 117.25 917.03 105.03 929.25 98.28 C 942.81 90.64 960.08 90.04 974.11 96.80 C 984.10 101.48 992.25 109.74 997.18 119.58 C 1011.42 112.21 1025.66 104.82 1040.05 97.73 C 1033.37 85.03 1030.71 70.23 1033.00 56.03 C 1035.37 40.44 1043.63 25.83 1055.78 15.77 Z" />
</g>
<g id="#4d4948ff">
<path fill="#4d4948" opacity="1.00" d=" M 314.47 233.07 C 334.47 232.99 354.49 233.23 374.49 232.95 C 356.01 318.81 337.21 404.60 318.79 490.47 C 316.46 502.52 313.98 514.69 314.58 527.03 C 293.22 527.28 271.85 527.06 250.49 527.14 C 257.60 509.70 263.22 491.64 266.72 473.13 C 278.32 419.38 289.91 365.63 301.52 311.89 C 305.52 292.88 310.01 273.96 313.26 254.80 C 314.20 247.60 314.27 240.32 314.47 233.07 Z" />
<path fill="#4d4948" opacity="1.00" d=" M 423.36 240.66 C 434.67 236.82 448.09 241.32 454.75 251.25 C 461.60 260.83 461.29 274.78 453.99 284.04 C 446.27 294.59 430.71 298.01 419.21 291.87 C 408.01 286.39 401.81 272.81 404.85 260.74 C 406.98 251.43 414.23 243.51 423.36 240.66 Z" />
<path fill="#4d4948" opacity="1.00" d=" M 44.79 346.75 C 55.37 337.20 70.20 334.55 84.02 334.40 C 125.97 334.36 167.93 334.36 209.89 334.40 C 219.81 334.65 230.44 335.45 238.88 341.21 C 244.97 345.44 248.40 352.69 248.81 360.00 C 249.49 366.88 248.69 373.85 247.30 380.60 C 242.27 402.23 237.58 423.95 232.60 445.60 C 176.49 445.61 120.38 445.57 64.27 445.62 C 61.52 457.73 58.76 469.85 55.96 481.95 C 54.86 487.12 53.46 492.49 54.37 497.78 C 56.00 501.95 61.15 502.30 64.99 502.42 C 98.31 502.47 131.63 502.43 164.96 502.44 C 183.47 502.32 202.24 503.36 220.42 499.12 C 216.64 508.40 212.71 517.63 209.01 526.96 C 153.36 527.39 97.68 527.00 42.02 527.15 C 31.22 527.01 19.49 526.14 10.58 519.37 C 4.04 514.48 2.00 505.84 1.98 498.07 C 1.65 487.14 4.80 476.59 7.13 466.04 C 13.41 438.74 19.67 411.44 25.97 384.15 C 29.48 370.62 34.41 356.60 44.79 346.75 M 85.39 363.41 C 81.60 367.31 80.91 372.95 79.95 378.05 C 76.74 392.32 73.36 406.55 70.06 420.80 C 108.51 420.81 146.96 420.78 185.42 420.82 C 189.18 404.88 192.70 388.88 196.62 372.97 C 197.25 369.57 197.90 365.83 196.35 362.58 C 193.56 359.42 188.94 359.22 185.02 359.12 C 156.00 359.13 126.99 359.12 97.98 359.12 C 93.51 359.14 88.55 359.93 85.39 363.41 Z" />
<path fill="#4d4948" opacity="1.00" d=" M 393.55 334.39 C 412.45 334.37 431.35 334.37 450.25 334.38 C 439.67 381.22 429.07 428.04 418.48 474.87 C 414.89 492.12 409.55 509.33 410.14 527.13 C 390.02 527.14 369.89 527.14 349.77 527.13 C 354.52 515.64 358.88 503.95 362.00 491.90 C 371.11 452.22 380.54 412.59 389.39 372.85 C 391.79 360.16 394.27 347.36 393.55 334.39 Z" />
<path fill="#4d4948" opacity="1.00" d=" M 720.42 334.38 C 739.27 334.39 758.13 334.35 776.98 334.40 C 766.71 380.27 756.28 426.11 745.95 471.97 C 742.11 490.19 736.59 508.35 736.81 527.14 C 716.73 527.14 696.64 527.14 676.56 527.14 C 681.13 516.03 685.40 504.74 688.48 493.12 C 697.75 453.11 707.20 413.14 716.14 373.05 C 718.53 360.29 721.11 347.44 720.42 334.38 Z" />
<path fill="#4d4948" opacity="1.00" d=" M 831.06 334.37 C 847.88 334.40 864.70 334.34 881.52 334.40 C 880.87 340.76 880.18 347.13 879.54 353.50 C 882.86 347.44 887.32 341.70 893.57 338.46 C 899.82 335.18 907.01 334.46 913.97 334.39 C 930.27 334.34 946.58 334.44 962.89 334.34 C 967.01 341.41 970.88 348.62 974.89 355.76 C 971.48 358.80 968.83 362.52 965.92 366.00 C 964.59 367.33 963.13 369.22 961.02 368.84 C 954.01 368.15 947.03 367.18 940.00 366.77 C 925.36 365.72 910.67 366.34 896.01 366.15 C 890.91 366.03 885.21 366.65 881.44 370.46 C 877.27 374.77 876.01 380.88 874.78 386.53 C 867.44 419.38 860.15 452.23 852.77 485.06 C 849.33 498.75 846.65 512.78 847.16 526.96 C 827.16 527.38 807.14 527.01 787.14 527.14 C 793.73 512.07 797.52 496.02 801.38 480.10 C 809.08 446.03 816.85 411.97 824.57 377.90 C 826.89 368.98 828.73 359.95 830.29 350.88 C 831.14 345.41 830.69 339.87 831.06 334.37 Z" />
<path fill="#4d4948" opacity="1.00" d=" M 559.26 777.14 C 583.18 777.08 607.11 777.14 631.04 777.11 C 637.39 777.13 644.18 776.96 649.95 780.06 C 653.24 781.76 655.47 785.22 655.63 788.93 C 655.88 794.48 653.64 799.71 652.53 805.07 C 651.56 809.84 649.98 814.89 645.97 818.00 C 640.72 822.31 633.62 822.34 627.26 823.47 C 631.55 824.01 635.91 824.49 640.01 825.95 C 642.95 826.94 645.17 829.79 645.07 832.96 C 644.84 837.19 643.38 841.23 642.50 845.37 C 640.85 851.67 640.08 858.59 635.73 863.77 C 630.08 870.74 620.62 872.95 612.03 872.87 C 586.45 872.81 560.87 872.98 535.29 872.78 C 543.42 840.93 551.26 809.01 559.26 777.14 M 591.83 793.09 C 589.96 800.54 588.21 808.02 586.29 815.46 C 593.85 815.39 601.42 815.59 608.98 815.37 C 612.07 815.34 614.28 812.61 614.81 809.77 C 615.81 805.16 617.43 800.65 617.94 795.96 C 618.26 793.79 615.78 793.06 614.11 793.12 C 606.68 793.02 599.25 793.12 591.83 793.09 M 582.27 831.34 C 580.14 839.86 578.01 848.38 575.89 856.91 C 583.60 856.84 591.31 857.02 599.01 856.83 C 602.02 856.68 603.94 853.82 604.44 851.10 C 605.72 845.73 607.37 840.43 608.36 835.00 C 609.13 832.78 606.88 831.32 604.93 831.42 C 597.38 831.23 589.82 831.42 582.27 831.34 Z" />
<path fill="#4d4948" opacity="1.00" d=" M 681.86 777.12 C 709.51 777.09 737.16 777.15 764.81 777.09 C 763.48 782.42 762.13 787.75 760.73 793.07 C 745.28 793.11 729.84 793.05 714.39 793.10 C 712.61 800.56 710.72 807.99 708.90 815.44 C 723.04 815.48 737.18 815.46 751.32 815.45 C 750.03 820.76 748.66 826.06 747.28 831.36 C 733.11 831.39 718.93 831.25 704.76 831.44 C 702.79 839.96 700.51 848.40 698.46 856.91 C 713.89 856.92 729.33 856.87 744.76 856.93 C 743.55 862.24 742.12 867.49 740.96 872.81 C 713.29 872.94 685.62 872.84 657.96 872.85 C 665.89 840.94 673.92 809.04 681.86 777.12 Z" />
<path fill="#4d4948" opacity="1.00" d=" M 786.49 777.12 C 798.70 777.13 810.90 777.07 823.11 777.15 C 816.51 803.76 809.63 830.31 803.19 856.96 C 818.60 856.84 834.00 856.92 849.41 856.92 C 848.20 862.24 846.80 867.51 845.58 872.83 C 817.91 872.92 790.23 872.84 762.55 872.87 C 770.56 840.96 778.51 809.04 786.49 777.12 Z" />
<path fill="#4d4948" opacity="1.00" d=" M 890.04 785.97 C 895.22 780.02 903.18 777.16 910.95 777.14 C 935.73 777.07 960.51 777.14 985.29 777.11 C 983.97 782.44 982.59 787.76 981.24 793.09 C 964.49 793.07 947.74 793.11 930.99 793.07 C 926.66 792.71 920.76 793.34 919.45 798.36 C 914.86 816.19 910.43 834.08 906.05 851.96 C 905.10 854.47 907.39 856.86 909.87 856.81 C 914.92 857.03 919.99 856.88 925.05 856.89 C 928.34 857.04 931.65 854.93 932.47 851.65 C 934.28 844.91 935.90 838.12 937.59 831.36 C 931.03 831.34 924.48 831.36 917.93 831.35 C 919.16 826.06 920.61 820.84 921.83 815.56 C 940.63 815.33 959.44 815.53 978.24 815.46 C 973.57 834.60 968.63 853.67 963.99 872.82 C 954.10 872.93 944.22 872.82 934.34 872.88 C 935.02 869.91 935.74 866.97 936.56 864.04 C 934.23 868.47 930.39 872.50 925.07 872.69 C 912.73 873.11 900.37 872.73 888.03 872.88 C 882.29 873.07 875.76 871.76 872.24 866.80 C 868.57 861.46 869.16 854.51 870.33 848.47 C 873.24 836.37 876.30 824.32 879.27 812.24 C 881.55 803.07 883.36 793.14 890.04 785.97 Z" />
<path fill="#4d4948" opacity="1.00" d=" M 1011.56 777.18 C 1023.78 777.02 1036.00 777.17 1048.22 777.11 C 1040.30 809.02 1032.24 840.90 1024.35 872.83 C 1012.13 872.91 999.91 872.85 987.70 872.86 C 995.63 840.96 1003.70 809.10 1011.56 777.18 Z" />
<path fill="#4d4948" opacity="1.00" d=" M 1071.99 777.14 C 1084.20 777.07 1096.42 777.15 1108.64 777.10 C 1102.70 801.00 1096.70 824.88 1090.73 848.77 C 1090.21 850.94 1089.99 853.58 1091.66 855.34 C 1093.61 857.21 1096.50 856.86 1098.99 856.93 C 1110.23 856.77 1121.49 857.12 1132.72 856.76 C 1136.23 856.73 1138.61 853.75 1139.35 850.58 C 1145.60 826.11 1151.62 801.58 1157.85 777.11 C 1163.17 777.12 1168.49 777.09 1173.81 777.13 C 1168.12 799.75 1162.47 822.39 1156.76 845.01 C 1154.92 852.22 1152.26 859.53 1147.14 865.10 C 1141.75 870.79 1133.63 872.92 1126.00 872.87 C 1108.00 872.86 1090.01 872.87 1072.01 872.87 C 1066.11 872.93 1059.46 871.17 1056.19 865.85 C 1052.68 859.96 1053.39 852.64 1054.69 846.22 C 1060.41 823.18 1066.28 800.18 1071.99 777.14 Z" />
<path fill="#4d4948" opacity="1.00" d=" M 1197.60 777.10 C 1213.18 777.14 1228.77 777.09 1244.36 777.13 C 1245.85 795.15 1247.38 813.18 1249.01 831.20 C 1260.46 813.45 1271.08 795.11 1282.19 777.12 C 1297.48 777.10 1312.77 777.12 1328.06 777.11 C 1320.14 809.04 1312.12 840.94 1304.16 872.86 C 1291.95 872.87 1279.75 872.85 1267.55 872.87 C 1273.79 847.85 1280.04 822.83 1286.31 797.82 C 1270.84 822.60 1256.13 847.88 1240.96 872.86 C 1232.47 872.86 1223.97 872.89 1215.48 872.84 C 1213.13 847.67 1211.18 822.44 1208.38 797.33 C 1202.39 822.57 1195.86 847.68 1189.63 872.86 C 1184.29 872.87 1178.96 872.86 1173.64 872.87 C 1181.67 840.95 1189.59 809.02 1197.60 777.10 Z" />
</g>
</svg>
