<svg id="Laag_1" data-name="Laag 1" xmlns="http://www.w3.org/2000/svg" xmlns:xlink="http://www.w3.org/1999/xlink" viewBox="0 0 159.81 33.66"><defs><style>.cls-1{fill:none;}.cls-2{clip-path:url(#clip-path);}.cls-3{clip-path:url(#clip-path-2);}.cls-4{fill:#373636;}.cls-5{fill:#3b3a3c;}.cls-6{clip-path:url(#clip-path-3);}.cls-7{fill:#3b3b3c;}</style><clipPath id="clip-path" transform="translate(0.32)"><rect class="cls-1" x="-8.93" y="-7.57" width="90.61" height="49.61"/></clipPath><clipPath id="clip-path-2" transform="translate(0.32)"><rect class="cls-1" x="-0.32" y="0.23" width="70.88" height="33.43"/></clipPath><clipPath id="clip-path-3" transform="translate(0.32)"><rect class="cls-1" x="78.33" width="81.17" height="33.42"/></clipPath></defs><title>Combilogo_EWI_ENG_FlanderStateArt_ewi</title><g class="cls-2"><g class="cls-3"><path class="cls-4" d="M48,33.57H46.88V27.18H48l2.65,4.25V27.18H51.8v6.38H50.67L48,29.32Zm-7.07-3.25a2.52,2.52,0,0,0,.5,1.61,1.78,1.78,0,0,0,1.45.64A1.72,1.72,0,0,0,44.3,32a2.4,2.4,0,0,0,.48-1.54,2.36,2.36,0,0,0-.61-1.68,1.87,1.87,0,0,0-1.34-.57,1.79,1.79,0,0,0-1.29.55,2.23,2.23,0,0,0-.59,1.6m-1.13,0A3.42,3.42,0,0,1,40.67,28a3,3,0,0,1,2.22-.94,2.87,2.87,0,0,1,2.19.94,3.49,3.49,0,0,1,.82,2.34,3.42,3.42,0,0,1-.85,2.34,3,3,0,0,1-2.22,1,2.87,2.87,0,0,1-2.19-1,3.47,3.47,0,0,1-.83-2.34m-1,3.2H37.71V27.18h1.13Zm-2-6.38v1.09H34.9v5.29H33.77V28.27H31.83V27.18Zm-6.7,4-.86-2.51-.87,2.51Zm-1.53-4.07h1.33l2.23,6.48H31l-.46-1.32H28l-.46,1.32h-1.2Zm-4.08,6.58H23.21L21,27.18h1.2l1.7,4.92,1.7-4.92h1.2Zm-8.72-3.34a2.52,2.52,0,0,0,.5,1.61,1.78,1.78,0,0,0,1.45.64,1.72,1.72,0,0,0,1.4-.61,2.4,2.4,0,0,0,.48-1.54A2.36,2.36,0,0,0,19,28.74a1.87,1.87,0,0,0-1.34-.57,1.79,1.79,0,0,0-1.29.55,2.24,2.24,0,0,0-.59,1.6m-1.13,0A3.42,3.42,0,0,1,15.54,28a3,3,0,0,1,2.22-.94A2.87,2.87,0,0,1,20,28a3.49,3.49,0,0,1,.82,2.34,3.42,3.42,0,0,1-.85,2.34,3,3,0,0,1-2.22,1,2.87,2.87,0,0,1-2.19-1,3.47,3.47,0,0,1-.83-2.34m-4.76,3.2H8.79V27.18H9.92l2.65,4.25V27.18h1.13v6.38H12.58L9.92,29.32Zm-6.23,0H2.56V27.18H3.7l2.65,4.25V27.18H7.48v6.38H6.35L3.7,29.32Zm-2.44,0H.12V27.18H1.25Z" transform="translate(0.32)"/><path class="cls-4" d="M38.49,21.89a1.55,1.55,0,0,0-.44.38,1,1,0,0,0-.19.59.83.83,0,0,0,.94.85,1.31,1.31,0,0,0,1-.47Zm-.2-2.18a1.29,1.29,0,0,0,.39.83,1.77,1.77,0,0,0,.5-.27.71.71,0,0,0,.29-.56.47.47,0,0,0-.22-.43.83.83,0,0,0-.42-.11.49.49,0,0,0-.45.2.58.58,0,0,0-.09.33m3.07,5L40.62,24a2.49,2.49,0,0,1-1.81.73,2.17,2.17,0,0,1-1.45-.49,1.76,1.76,0,0,1-.58-1.37,2.1,2.1,0,0,1,1-1.79,2.15,2.15,0,0,1-.34-.56,2,2,0,0,1-.17-.81,1.48,1.48,0,0,1,1.57-1.55,2,2,0,0,1,1.13.33,1.31,1.31,0,0,1,.56,1.13,1.65,1.65,0,0,1-.36,1,2.31,2.31,0,0,1-.77.62l1.08,1.08A6.36,6.36,0,0,0,40.86,21h0l.91.41a6,6,0,0,1-.55,1.75l.87.87Zm-8-6.48v1.09H30.73v1.57h2.59V22H30.73v1.54h2.66v1.09H29.59V18.26Zm-4.76,5.21v1.08a6.41,6.41,0,0,1-1.6.2,3.33,3.33,0,0,1-2.53-.95,3.47,3.47,0,0,1-.85-2.44,3.26,3.26,0,0,1,.86-2.26A3.39,3.39,0,0,1,27,18.16a6.35,6.35,0,0,1,1.59.2v1.08l0,0a5.24,5.24,0,0,0-1.4-.2,2.4,2.4,0,0,0-1.82.68,2.2,2.2,0,0,0-.56,1.52A2.16,2.16,0,0,0,25.38,23a2.37,2.37,0,0,0,1.81.68,5.27,5.27,0,0,0,1.4-.2Zm-9.74,1.18H17.75V18.26h1.13l2.65,4.25V18.26h1.13v6.38H21.54L18.88,20.4Zm-2.2-6.38v1.09H14v1.57h2.59V22H14v1.54h2.66v1.09H12.89V18.26Zm-5.1,6.38H10.45V18.26h1.13Zm-2.1-1.18v1.08a6.4,6.4,0,0,1-1.6.2,3.33,3.33,0,0,1-2.53-.95,3.47,3.47,0,0,1-.85-2.44,3.26,3.26,0,0,1,.86-2.26,3.39,3.39,0,0,1,2.53-.93,6.34,6.34,0,0,1,1.59.2v1.08l0,0a5.23,5.23,0,0,0-1.39-.2,2.4,2.4,0,0,0-1.82.68,2.2,2.2,0,0,0-.56,1.52A2.16,2.16,0,0,0,6.23,23,2.37,2.37,0,0,0,8,23.64a5.27,5.27,0,0,0,1.4-.2ZM3.23,19.33a6.08,6.08,0,0,0-1.16-.11,2.35,2.35,0,0,0-.89.13.47.47,0,0,0-.32.46.77.77,0,0,0,.35.59,3.54,3.54,0,0,0,.78.43l.41.17a3.43,3.43,0,0,1,.82.42,1.87,1.87,0,0,1,.66.83,1.6,1.6,0,0,1,.1.56,1.68,1.68,0,0,1-.89,1.45,3.63,3.63,0,0,1-1.83.48,3.56,3.56,0,0,1-1.42-.28V23.39h0a4.13,4.13,0,0,0,.68.19,3.89,3.89,0,0,0,.82.09,2.17,2.17,0,0,0,1.06-.24.69.69,0,0,0,.4-.59.78.78,0,0,0-.35-.6,3.41,3.41,0,0,0-.77-.42l-.42-.16a3.36,3.36,0,0,1-.81-.41,1.79,1.79,0,0,1-.66-.82,1.5,1.5,0,0,1-.11-.58,1.47,1.47,0,0,1,.77-1.31,3.28,3.28,0,0,1,1.64-.39,4.51,4.51,0,0,1,1.15.15Z" transform="translate(0.32)"/><path class="cls-4" d="M36.51,9.33h1.27L39.14,12l1.37-2.69h1.27l-2.07,4.06v2.32H38.58V13.4Zm-2,6.38v-4l-1,1.94H32.44l-1-1.94v4H30.28V9.33h1.13l1.57,3,1.57-3h1.13v6.38ZM24.34,12.47a2.52,2.52,0,0,0,.5,1.61,1.78,1.78,0,0,0,1.45.64,1.72,1.72,0,0,0,1.4-.61,2.4,2.4,0,0,0,.48-1.54,2.37,2.37,0,0,0-.61-1.68,1.88,1.88,0,0,0-1.34-.57,1.79,1.79,0,0,0-1.29.55,2.23,2.23,0,0,0-.59,1.6m-1.13,0a3.42,3.42,0,0,1,.86-2.34,3,3,0,0,1,2.22-.94,2.87,2.87,0,0,1,2.19.94,3.49,3.49,0,0,1,.82,2.34,3.42,3.42,0,0,1-.85,2.34,3,3,0,0,1-2.22,1,2.87,2.87,0,0,1-2.19-1,3.47,3.47,0,0,1-.83-2.34m-4.76,3.2H17.32V9.33h1.13l2.65,4.25V9.33h1.13v6.38H21.11l-2.65-4.24Zm-7.07-3.25a2.52,2.52,0,0,0,.5,1.61,1.78,1.78,0,0,0,1.45.64,1.72,1.72,0,0,0,1.4-.61,2.4,2.4,0,0,0,.48-1.54,2.36,2.36,0,0,0-.61-1.68,1.88,1.88,0,0,0-1.34-.57,1.79,1.79,0,0,0-1.29.55,2.24,2.24,0,0,0-.59,1.6m-1.13,0a3.42,3.42,0,0,1,.86-2.34,3,3,0,0,1,2.22-.94,2.87,2.87,0,0,1,2.19.94,3.49,3.49,0,0,1,.82,2.34,3.42,3.42,0,0,1-.85,2.34,3,3,0,0,1-2.22,1,2.87,2.87,0,0,1-2.19-1,3.47,3.47,0,0,1-.83-2.34m-.63,2v1.08a6.38,6.38,0,0,1-1.6.2,3.33,3.33,0,0,1-2.53-.95,3.47,3.47,0,0,1-.85-2.44,3.26,3.26,0,0,1,.86-2.26A3.38,3.38,0,0,1,8,9.23a6.34,6.34,0,0,1,1.59.2v1.08l0,0a5.24,5.24,0,0,0-1.4-.2A2.4,2.4,0,0,0,6.37,11a2.2,2.2,0,0,0-.56,1.52A2.16,2.16,0,0,0,6.37,14a2.37,2.37,0,0,0,1.81.68,5.27,5.27,0,0,0,1.4-.2ZM3.91,9.33v1.09H1.25V12H3.84v1.09H1.25v1.54H3.91v1.09H.12V9.33Z" transform="translate(0.32)"/><path class="cls-4" d="M70.56.33V1H67.38V3.17h3.18v.75H67.38V6.77h-.76V.33ZM60.23,3.49a3,3,0,0,0,.59,1.9,2.09,2.09,0,0,0,1.68.78,2,2,0,0,0,1.63-.73A2.87,2.87,0,0,0,64.7,3.6a3.07,3.07,0,0,0-.57-1.9A2,2,0,0,0,62.48.94a2.09,2.09,0,0,0-1.65.73,2.76,2.76,0,0,0-.6,1.82m-.75.06a3.5,3.5,0,0,1,.84-2.36,2.86,2.86,0,0,1,2.18-1,2.77,2.77,0,0,1,2.15,1,3.56,3.56,0,0,1,.81,2.36,3.52,3.52,0,0,1-.84,2.36,2.84,2.84,0,0,1-2.17,1,2.77,2.77,0,0,1-2.15-1,3.58,3.58,0,0,1-.82-2.36M55.94.33V1h-2V6.77h-.75V1h-2V.33ZM46.35,6.77h-.76V.33h.79l3.11,5v-5h.76V6.77h-.76l-3.14-5ZM44.57.33V1H41.45V3.2h3.12v.7H41.45V6.07h3.12v.7H40.69V.33Zm-6.42,0h1V6.77h-.78V1.38L36.58,4.91H36.4L34.54,1.34V6.77h-.73V.33h1l1.65,3.24h0Zm-5.36,0V1h-2V6.77H30V1H28V.33ZM23.34,4H24a3.51,3.51,0,0,0,1.68-.31,1.2,1.2,0,0,0,.62-1.14,1.22,1.22,0,0,0-.59-1.17A3.31,3.31,0,0,0,24.12,1h-.77ZM22.59.33h1.58A3.66,3.66,0,0,1,26.4.84,1.86,1.86,0,0,1,27,2.44a2.22,2.22,0,0,1-.29,1.19,1.78,1.78,0,0,1-.8.69,3.77,3.77,0,0,0,.39.71,4.58,4.58,0,0,0,.6.74,2,2,0,0,0,.65.48l-.42.62a1.6,1.6,0,0,1-.77-.52,6,6,0,0,1-.7-.92,9.18,9.18,0,0,1-.49-.87,7.28,7.28,0,0,1-1.4.11h-.47V6.77h-.76ZM20.14,4.57,19,1.14,17.78,4.57Zm-2.6.7L17,6.77h-.78L18.45.33h1l2.22,6.44H20.9l-.52-1.5ZM12.14,4h.61a3.63,3.63,0,0,0,1.69-.31,1.18,1.18,0,0,0,.63-1.14,1.25,1.25,0,0,0-.67-1.19A3.52,3.52,0,0,0,12.74,1h-.61ZM11.38.33h1.27A4.58,4.58,0,0,1,15,.82a1.76,1.76,0,0,1,.8,1.6,2,2,0,0,1-.45,1.36,2.38,2.38,0,0,1-1.16.71,5.77,5.77,0,0,1-1.61.21h-.46V6.77h-.76Zm-1,0V1H7.23V3.2h3.12v.7H7.23V6.07h3.12v.7H6.48V.33ZM.89,6.07H2a2.54,2.54,0,0,0,1.84-.68,2.43,2.43,0,0,0,.67-1.76,2.56,2.56,0,0,0-.76-1.87A2.61,2.61,0,0,0,2,1H.89ZM.14.33H2a3.44,3.44,0,0,1,2.38.9,3.13,3.13,0,0,1,1,2.31,3.17,3.17,0,0,1-.93,2.31A3.3,3.3,0,0,1,2,6.77H.14Z" transform="translate(0.32)"/></g></g><polyline class="cls-5" points="108.24 15.59 106.74 15.59 106.74 7.15 111.94 7.15 111.94 8.59 108.24 8.59 108.24 10.67 111.82 10.67 111.82 12.11 108.24 12.11 108.24 15.59"/><polyline class="cls-5" points="114.36 15.59 112.86 15.59 112.86 6.45 114.17 6.32 114.36 6.32 114.36 15.59"/><path class="cls-5" d="M120.77,15.72a1.81,1.81,0,0,1-.74-.15,2.08,2.08,0,0,1-.75-.55,3.88,3.88,0,0,1-.77.49,2.36,2.36,0,0,1-1,.2,3,3,0,0,1-1-.16,1.72,1.72,0,0,1-.85-.62,2.25,2.25,0,0,1-.36-1.34,1.71,1.71,0,0,1,.5-1.36,2.73,2.73,0,0,1,1.83-.49c.36,0,.77,0,1.36.05v-.33a1.19,1.19,0,0,0-.38-1,1.43,1.43,0,0,0-.92-.27,3.55,3.55,0,0,0-.9.13,5.08,5.08,0,0,0-.88.32l-.35-1.31A5.87,5.87,0,0,1,118,8.81a2.87,2.87,0,0,1,1.73.49,2,2,0,0,1,.74,1.7v2.47a.86.86,0,0,0,.28.69,1.48,1.48,0,0,0,.7.3l-.68,1.25m-2.23-2.82a5.47,5.47,0,0,0-1.17.08.64.64,0,0,0-.58.67.83.83,0,0,0,.93.84,1.52,1.52,0,0,0,.77-.2,1.06,1.06,0,0,0,.49-1v-.4h-.44" transform="translate(0.32)"/><path class="cls-5" d="M128.26,15.59h-1.5v-4a1.28,1.28,0,0,0-.45-1.06,1.7,1.7,0,0,0-1-.31,2.8,2.8,0,0,0-1.45.41v4.92h-1.5V8.95h1.27l.15.52a3.89,3.89,0,0,1,2.12-.65,2.55,2.55,0,0,1,1.68.56,2.29,2.29,0,0,1,.73,1.8v4.41" transform="translate(0.32)"/><path class="cls-5" d="M132.26,15.72a2.61,2.61,0,0,1-2.13-1,3.55,3.55,0,0,1-.7-2.2,3.81,3.81,0,0,1,1-2.81A3.52,3.52,0,0,1,133,8.82a7.73,7.73,0,0,1,1,.06V6.45l1.27-.13h.23v9.27h-1.13l-.27-.5a2.82,2.82,0,0,1-1.79.63m.63-5.5a1.85,1.85,0,0,0-1.38.51,2.15,2.15,0,0,0-.53,1.55,2.39,2.39,0,0,0,.41,1.38,1.42,1.42,0,0,0,1.2.63,2.71,2.71,0,0,0,1.36-.41V10.35a4.5,4.5,0,0,0-1.06-.14" transform="translate(0.32)"/><path class="cls-5" d="M140.11,15.72a3.53,3.53,0,0,1-2.4-.86,3.38,3.38,0,0,1-1-2.59,3.61,3.61,0,0,1,.93-2.57,2.84,2.84,0,0,1,2.05-.88,3.11,3.11,0,0,1,1,.16,2.34,2.34,0,0,1,1.14.83,3.37,3.37,0,0,1,.54,2v1h-4a1.74,1.74,0,0,0,.76,1.13,2.2,2.2,0,0,0,1.21.33,3.61,3.61,0,0,0,1.67-.44l.06,0v1.45a3.79,3.79,0,0,1-.95.3,5.09,5.09,0,0,1-.94.1m-.39-5.46a1.32,1.32,0,0,0-.88.33,1.77,1.77,0,0,0-.56,1.06H141a1.67,1.67,0,0,0-.44-1.06,1.15,1.15,0,0,0-.81-.32" transform="translate(0.32)"/><path class="cls-5" d="M145.07,15.59h-1.5V8.95h1.27l.15.54a2.6,2.6,0,0,1,1.69-.67,3.87,3.87,0,0,1,.67.06,2.25,2.25,0,0,1,.65.2l-.47,1.52a2.12,2.12,0,0,0-1.13-.33,2.19,2.19,0,0,0-1.34.49v4.84" transform="translate(0.32)"/><path class="cls-5" d="M150.17,15.72a3.18,3.18,0,0,1-1.71-.45v-1.4l.05,0a4.56,4.56,0,0,0,.73.31,2.9,2.9,0,0,0,.92.16,1.49,1.49,0,0,0,.76-.17.66.66,0,0,0,.35-.6.71.71,0,0,0-.44-.65,2.6,2.6,0,0,0-.45-.18,7.19,7.19,0,0,1-1-.38,1.5,1.5,0,0,1-.77-.8,1.79,1.79,0,0,1-.12-.71,1.81,1.81,0,0,1,.7-1.52,2.64,2.64,0,0,1,1.6-.46,4.56,4.56,0,0,1,1.48.25v1.34l-.08.06A2.51,2.51,0,0,0,151,10.2a1.7,1.7,0,0,0-.74.14.5.5,0,0,0-.32.45c0,.24.17.38.44.51a3.78,3.78,0,0,0,.44.17,5.87,5.87,0,0,1,1,.42,1.7,1.7,0,0,1,.76.88,2.09,2.09,0,0,1,.12.74,2,2,0,0,1-.78,1.68,2.91,2.91,0,0,1-1.77.54" transform="translate(0.32)"/><path class="cls-5" d="M93.85,28.4c-2.34,0-4.55-2.49-4.83-3.25A6.07,6.07,0,0,1,88.83,24c0-.55-.1-1.16-.14-1.89-.07-1.26-1.19-2.66-1.62-3.59-.15-.32-.37-1-.49-1.37a37.37,37.37,0,0,1-.89-4C84.35,6.71,84,6,84,6h0c.1,0,.56.15,1.44,2.44a22.08,22.08,0,0,1,.75,2.45c.18.77.4,1.62.62,2.47s.36,1.69.55,2.51c.32,1.35,1.31,2.36,1.6,3.74a2.39,2.39,0,0,0,1.11,1.56,1.53,1.53,0,0,0,.87.25,2.46,2.46,0,0,0,2.26-1.53,2.43,2.43,0,0,0,0-.6A1.37,1.37,0,0,0,92.42,18a10,10,0,0,1-.93-.47c-.41-.25-1.35-1.46-.68-1.8l.11,0c.33,0,.71.59,1.12.62h.05a1.35,1.35,0,0,0,.49-.13,1.43,1.43,0,0,1,.53-.13,1.19,1.19,0,0,1,.73.29v6c-.53,0-1.13-.26-2-.26h-.36a2.2,2.2,0,0,0-1.89,1.54,5.12,5.12,0,0,0-.28,1.35,8.57,8.57,0,0,0,4.58,1.44V28.4" transform="translate(0.32)"/><path class="cls-5" d="M80.69,22.22a4.25,4.25,0,0,0-.28-2.11,6,6,0,0,1-.49-3.71,9.15,9.15,0,0,1,.85-2.26c.68-1.23,2.86-3.16,3-4.57a3.87,3.87,0,0,1-.41,3.36,10.57,10.57,0,0,0-1.88,4.24,11.66,11.66,0,0,0,0,2.24c.05.83.16,2.16-.54,2.73a.54.54,0,0,1-.18.09" transform="translate(0.32)"/><path class="cls-5" d="M87.16,27.55c-1.4-1.77-6.32-2.48-3.75-10,1-2.87.75-4,.75-4s1.32,1,.39,5.08c-.64,2.82.09,4.79.91,5.68,2.23,2.45,1.69,3.21,1.69,3.21" transform="translate(0.32)"/><g class="cls-6"><path class="cls-5" d="M79.29,8.65a3.61,3.61,0,0,1-.13-1.2,3.58,3.58,0,0,1,2.12-2.74s.72-.49.81-1a2.43,2.43,0,0,1-1,2.92,4.81,4.81,0,0,0-1.85,2" transform="translate(0.32)"/><path class="cls-5" d="M79.5,14.18s-2.9-1.61.44-4.4,2.65-3.35,2.65-3.35h0a.83.83,0,0,1,.73.5c.09.18.76,1.15-2,3.4s-1.87,3.85-1.87,3.85" transform="translate(0.32)"/></g><path class="cls-5" d="M90.77,11c-.33,0-.55-.57-.21-.75-.19-.48-1-.35-1.84-.59-1.09-.32-1.39-1.78-1.86-1.85a6.87,6.87,0,0,1,1.5-.19A2.45,2.45,0,0,1,90.85,11h-.08M89.19,8,89,8c-.21.07-.34.26-.46.38s-.18,0-.22.1c-.18.59.39,1,.91,1A.68.68,0,0,0,90,8.59h0a1.44,1.44,0,0,0-.44.12,1.43,1.43,0,0,1-.43.12c-.12,0-.2-.06-.2-.23,0-.33.43-.15.58-.26s.13-.3,0-.32A.88.88,0,0,0,89.19,8" transform="translate(0.32)"/><polyline class="cls-5" points="105.19 33.42 93.61 0.05 93.77 0 105.34 33.37 105.19 33.42"/><path class="cls-7" d="M105.89,24.64h0a2.56,2.56,0,0,0,.52.15,3.31,3.31,0,0,0,.64.07,1.7,1.7,0,0,0,.84-.19.74.74,0,0,0,.37-.68.82.82,0,0,0-.47-.75c-.21-.13-.5-.27-.78-.41a4.42,4.42,0,0,1-.7-.4,1.22,1.22,0,0,1-.42-1,1.3,1.3,0,0,1,.51-1.11,1.91,1.91,0,0,1,1.13-.31,3.36,3.36,0,0,1,.93.14v.53h0a4.82,4.82,0,0,0-.92-.11,1.45,1.45,0,0,0-.74.16.7.7,0,0,0-.33.65.68.68,0,0,0,.23.55,3.31,3.31,0,0,0,.65.38,9.25,9.25,0,0,1,.83.45,1.6,1.6,0,0,1,.47.42,1.2,1.2,0,0,1,.19.69,1.43,1.43,0,0,1-.59,1.2,2.21,2.21,0,0,1-1.3.39,2.48,2.48,0,0,1-1.08-.23v-.56Z" transform="translate(0.32)"/><path class="cls-7" d="M109.39,21.18h.46v-.75l.58-.11h0v.86h1.16v.58h-1.16v2a1.28,1.28,0,0,0,.22.81.65.65,0,0,0,.53.24,1.63,1.63,0,0,0,.78-.25l.17.57a2.53,2.53,0,0,1-1,.25,1.19,1.19,0,0,1-.92-.37,1.8,1.8,0,0,1-.38-1.25v-2h-.46v-.58Z" transform="translate(0.32)"/><path class="cls-7" d="M115,23.52a6.3,6.3,0,0,0-1.34.06.54.54,0,0,0-.48.57.64.64,0,0,0,.3.58.8.8,0,0,0,.39.12,1.36,1.36,0,0,0,.73-.17.9.9,0,0,0,.4-.83v-.34Zm.84,1.92a1.07,1.07,0,0,1-.63-.58,1.75,1.75,0,0,1-.54.41,1.69,1.69,0,0,1-.74.17,1.54,1.54,0,0,1-.88-.25,1.18,1.18,0,0,1-.47-1,1.08,1.08,0,0,1,.37-.9,1.94,1.94,0,0,1,1.22-.31c.22,0,.47,0,.84,0v-.52a.79.79,0,0,0-.23-.63.86.86,0,0,0-.56-.16,2.62,2.62,0,0,0-1.25.3l-.16-.54a5.19,5.19,0,0,1,.72-.25,3.2,3.2,0,0,1,.8-.08,1.35,1.35,0,0,1,.91.29,1.37,1.37,0,0,1,.39,1.09V23.8a1.62,1.62,0,0,0,.09.63.71.71,0,0,0,.48.42l-.35.58Z" transform="translate(0.32)"/><path class="cls-7" d="M116.51,21.18H117v-.75l.58-.11h0v.86h1.16v.58h-1.16v2a1.28,1.28,0,0,0,.22.81.65.65,0,0,0,.53.24,1.63,1.63,0,0,0,.78-.25l.17.57a2.53,2.53,0,0,1-1,.25,1.19,1.19,0,0,1-.92-.37,1.8,1.8,0,0,1-.38-1.25v-2h-.46v-.58Z" transform="translate(0.32)"/><path class="cls-7" d="M122.27,22.86a1.75,1.75,0,0,0-.17-.83.69.69,0,0,0-.66-.35,1,1,0,0,0-.76.33,1.59,1.59,0,0,0-.37.85Zm.61.56h-2.6a1.6,1.6,0,0,0,.45,1.08,1.32,1.32,0,0,0,.93.35,2.48,2.48,0,0,0,1.13-.3h0v.57a2.63,2.63,0,0,1-1.2.3,1.86,1.86,0,0,1-1.36-.53,2.32,2.32,0,0,1-.58-1.68,2.45,2.45,0,0,1,.43-1.51,1.62,1.62,0,0,1,1.36-.61,1.43,1.43,0,0,1,.94.28,1.26,1.26,0,0,1,.4.67,3.22,3.22,0,0,1,.08.81v.56Z" transform="translate(0.32)"/><path class="cls-7" d="M126.52,23.25a1.87,1.87,0,0,0,.33,1.13,1.18,1.18,0,0,0,1,.48,1.14,1.14,0,0,0,.95-.45,1.83,1.83,0,0,0,.32-1.12,2,2,0,0,0-.32-1.14,1.14,1.14,0,0,0-1-.47,1.16,1.16,0,0,0-1,.45,1.84,1.84,0,0,0-.33,1.12Zm-.62,0a2.34,2.34,0,0,1,.54-1.54,1.82,1.82,0,0,1,2.77,0,2.49,2.49,0,0,1,0,3.06,1.82,1.82,0,0,1-1.39.64,1.76,1.76,0,0,1-1.37-.64,2.33,2.33,0,0,1-.52-1.52Z" transform="translate(0.32)"/><path class="cls-7" d="M130.21,21.18h.67v0a1.91,1.91,0,0,1,.35-1.28,1.13,1.13,0,0,1,.89-.35,3.28,3.28,0,0,1,1,.18l-.17.55a2.41,2.41,0,0,0-.74-.15.59.59,0,0,0-.5.22,1.41,1.41,0,0,0-.19.83v0h.94v.57h-.94v3.6h-.62v-3.6h-.67v-.57Z" transform="translate(0.32)"/><path class="cls-7" d="M135.21,21.18h.46v-.75l.58-.11h0v.86h1.16v.58H136.3v2a1.28,1.28,0,0,0,.22.81.65.65,0,0,0,.53.24,1.63,1.63,0,0,0,.78-.25l.17.57a2.53,2.53,0,0,1-1,.25,1.19,1.19,0,0,1-.92-.37,1.8,1.8,0,0,1-.38-1.25v-2h-.46v-.58Z" transform="translate(0.32)"/><path class="cls-7" d="M138.69,19.62l.58-.08h0v2a3.4,3.4,0,0,1,.57-.28,1.76,1.76,0,0,1,.59-.13,1.5,1.5,0,0,1,1,.35,1.6,1.6,0,0,1,.44,1.23v2.67h-.62V22.72a1.12,1.12,0,0,0-.27-.82.91.91,0,0,0-.65-.22,1.56,1.56,0,0,0-.58.12,4.24,4.24,0,0,0-.52.28v3.28h-.62V19.62Z" transform="translate(0.32)"/><path class="cls-7" d="M145.49,22.86a1.75,1.75,0,0,0-.17-.83.69.69,0,0,0-.66-.35,1,1,0,0,0-.76.33,1.6,1.6,0,0,0-.37.85Zm.61.56h-2.6a1.6,1.6,0,0,0,.45,1.08,1.31,1.31,0,0,0,.93.35,2.48,2.48,0,0,0,1.13-.3h0v.57a2.63,2.63,0,0,1-1.2.3,1.86,1.86,0,0,1-1.36-.53,2.32,2.32,0,0,1-.58-1.68,2.45,2.45,0,0,1,.43-1.51,1.62,1.62,0,0,1,1.36-.61,1.43,1.43,0,0,1,.94.28,1.26,1.26,0,0,1,.4.67,3.24,3.24,0,0,1,.08.81v.56Z" transform="translate(0.32)"/><path class="cls-7" d="M150.16,23.54h1.94l-1-2.82-1,2.82Zm2.14.58H150l-.43,1.23h-.64l1.82-5.3h.83l1.82,5.3h-.64l-.43-1.23Z" transform="translate(0.32)"/><path class="cls-7" d="M154.13,21.18h.42l.14.47a1.35,1.35,0,0,1,1-.55,1.93,1.93,0,0,1,.35,0,1.55,1.55,0,0,1,.34.11l-.22.56a1.5,1.5,0,0,0-.58-.13,1.06,1.06,0,0,0-.86.56v3.12h-.62V21.18Z" transform="translate(0.32)"/><path class="cls-7" d="M156.71,21.18h.46v-.75l.58-.11h0v.86H159v.58H157.8v2a1.28,1.28,0,0,0,.22.81.65.65,0,0,0,.53.24,1.63,1.63,0,0,0,.78-.25l.17.57a2.53,2.53,0,0,1-1,.25,1.19,1.19,0,0,1-.92-.37,1.8,1.8,0,0,1-.38-1.25v-2h-.46v-.58Z" transform="translate(0.32)"/></svg>