<svg width="578" height="74" viewBox="0 0 578 74" fill="none" xmlns="http://www.w3.org/2000/svg">
<g clip-path="url(#clip0_308_91)">
<path d="M576.617 61.8447C576.379 62.0003 576.069 62.0833 575.677 62.0833C575.254 62.0833 574.913 61.9796 574.665 61.7825C574.407 61.5751 574.273 61.3054 574.252 60.9632H573.23C573.23 61.3158 573.334 61.6477 573.54 61.9588C573.746 62.27 574.036 62.5085 574.407 62.6744C574.779 62.8508 575.202 62.9337 575.677 62.9337C576.358 62.9337 576.916 62.7678 577.35 62.4463C577.783 62.1248 577.99 61.6892 577.99 61.1498C577.99 60.8283 577.917 60.5483 577.762 60.3305C577.608 60.1023 577.37 59.9156 577.06 59.7497C576.74 59.5941 576.327 59.4489 575.811 59.3348C575.295 59.2208 574.944 59.0963 574.748 58.9718C574.552 58.8474 574.459 58.6607 574.459 58.4118C574.459 58.1525 574.562 57.9347 574.779 57.7688C574.985 57.6028 575.285 57.5198 575.656 57.5198C576.028 57.5198 576.317 57.6236 576.555 57.831C576.792 58.0384 576.916 58.277 576.916 58.557H577.948C577.948 58.0073 577.732 57.5613 577.319 57.2087C576.895 56.8561 576.348 56.6798 575.667 56.6798C574.985 56.6798 574.49 56.8457 574.077 57.188C573.664 57.5302 573.457 57.9451 573.457 58.4429C573.457 58.7437 573.53 58.9926 573.674 59.2104C573.819 59.4282 574.046 59.6149 574.345 59.7704C574.655 59.926 575.068 60.0608 575.584 60.1749C576.1 60.289 576.472 60.4135 576.678 60.569C576.885 60.7246 576.988 60.9424 576.988 61.2121C576.988 61.4817 576.875 61.6892 576.637 61.8447M570.866 57.9554C571.114 58.2458 571.258 58.6503 571.289 59.1689V59.2415H568.285C568.357 58.6918 568.523 58.277 568.812 57.9658C569.09 57.665 569.441 57.5095 569.854 57.5095C570.267 57.5095 570.629 57.6547 570.876 57.9451M572.25 61.7514L571.62 61.2639C571.434 61.5128 571.207 61.7099 570.959 61.8551C570.711 62.0003 570.402 62.0729 570.04 62.0729C569.534 62.0729 569.111 61.8862 568.781 61.5232C568.45 61.1602 568.275 60.6831 568.265 60.0816H572.332V59.6564C572.332 58.6918 572.115 57.9554 571.682 57.4369C571.248 56.9183 570.639 56.659 569.865 56.659C569.39 56.659 568.946 56.7938 568.533 57.0531C568.12 57.3228 567.81 57.6858 567.583 58.1525C567.356 58.6192 567.242 59.1585 567.242 59.7497V59.9364C567.242 60.8387 567.501 61.5543 568.006 62.0936C568.512 62.633 569.183 62.9026 569.989 62.9026C570.99 62.9026 571.744 62.5189 572.25 61.741M562.741 61.5025C562.452 61.1291 562.318 60.5898 562.318 59.8949V59.6978C562.318 58.9822 562.463 58.4429 562.752 58.0592C563.041 57.6858 563.443 57.4887 563.96 57.4887C564.352 57.4887 564.672 57.6132 564.94 57.8621C565.209 58.111 565.353 58.4325 565.384 58.8266H566.355C566.324 58.1836 566.086 57.6547 565.642 57.2502C565.198 56.8457 564.641 56.6383 563.97 56.6383C563.423 56.6383 562.948 56.7627 562.545 57.0116C562.143 57.2606 561.833 57.6236 561.626 58.0799C561.41 58.5362 561.306 59.0548 561.306 59.646V59.8223C561.306 60.7765 561.544 61.5232 562.029 62.0729C562.514 62.6226 563.165 62.8922 563.98 62.8922C564.383 62.8922 564.775 62.7989 565.136 62.6122C565.498 62.4255 565.797 62.1766 566.014 61.8655C566.231 61.5543 566.355 61.2224 566.365 60.8802H565.395C565.364 61.2121 565.209 61.4921 564.94 61.7203C564.661 61.9484 564.352 62.0522 563.98 62.0522C563.454 62.0522 563.041 61.8655 562.762 61.4921M558.973 55.5804C559.076 55.6945 559.221 55.7463 559.427 55.7463C559.634 55.7463 559.778 55.6945 559.882 55.5804C559.985 55.4663 560.036 55.3315 560.036 55.1655C560.036 54.9996 559.985 54.8544 559.882 54.7403C559.778 54.6262 559.624 54.564 559.427 54.564C559.231 54.564 559.076 54.6262 558.973 54.7403C558.87 54.8544 558.818 54.9996 558.818 55.1655C558.818 55.3315 558.87 55.4767 558.973 55.5804ZM559.933 56.7627H558.911V62.7885H559.933V56.7627ZM553.77 56.7627H552.717L554.895 62.7885H555.68L557.827 56.7627H556.774L555.288 61.3884L553.76 56.7627H553.77ZM552.273 56.7316C552.17 56.6798 552.015 56.659 551.819 56.659C551.199 56.659 550.724 56.9287 550.384 57.468L550.363 56.7731H549.362V62.7989H550.384V58.5259C550.621 57.9554 551.075 57.665 551.757 57.665C551.943 57.665 552.108 57.6754 552.263 57.7065V56.7524L552.273 56.7316ZM546.739 57.9347C546.987 58.2251 547.132 58.6296 547.163 59.1482V59.2208H544.158C544.231 58.6711 544.396 58.2562 544.685 57.9451C544.964 57.6443 545.315 57.4887 545.728 57.4887C546.141 57.4887 546.492 57.6339 546.75 57.9243M548.123 61.7306L547.493 61.2432C547.307 61.4921 547.08 61.6892 546.832 61.8344C546.585 61.9796 546.275 62.0522 545.913 62.0522C545.408 62.0522 544.984 61.8655 544.654 61.5025C544.324 61.1395 544.148 60.6624 544.138 60.0608H548.205V59.6356C548.205 58.6711 547.989 57.9347 547.555 57.4161C547.121 56.8976 546.512 56.6383 545.738 56.6383C545.263 56.6383 544.819 56.7731 544.406 57.0324C543.993 57.302 543.684 57.665 543.456 58.1318C543.229 58.5985 543.116 59.1378 543.116 59.729V59.9156C543.116 60.818 543.374 61.5336 543.88 62.0729C544.386 62.6122 545.057 62.8819 545.862 62.8819C546.863 62.8819 547.617 62.4981 548.123 61.7203M540.679 59.8016C540.958 60.0194 541.092 60.3305 541.092 60.7246C541.092 61.1187 540.937 61.4402 540.648 61.6684C540.359 61.8966 539.915 62.0107 539.358 62.0107C538.759 62.0107 538.274 61.8655 537.912 61.5854C537.551 61.3054 537.376 60.9113 537.376 60.4238H536.302C536.302 60.8906 536.436 61.3158 536.694 61.6892C536.952 62.0625 537.324 62.3529 537.809 62.5707C538.294 62.7782 538.811 62.8922 539.358 62.8922C540.215 62.8922 540.896 62.6952 541.402 62.3011C541.908 61.907 542.166 61.378 542.166 60.7246C542.166 60.3098 542.073 59.9571 541.887 59.646C541.701 59.3452 541.423 59.0756 541.041 58.8474C540.659 58.6192 540.132 58.4118 539.471 58.2251C538.8 58.0384 538.325 57.831 538.047 57.5924C537.768 57.3643 537.634 57.0842 537.634 56.7524C537.634 56.3375 537.778 56.016 538.078 55.7878C538.367 55.5597 538.78 55.4352 539.306 55.4352C539.874 55.4352 540.308 55.5804 540.617 55.8604C540.927 56.1405 541.082 56.5346 541.082 57.022H542.156C542.156 56.576 542.032 56.1612 541.794 55.7774C541.557 55.4041 541.216 55.1033 540.783 54.8855C540.349 54.6677 539.853 54.564 539.296 54.564C538.48 54.564 537.82 54.7714 537.314 55.1863C536.808 55.6011 536.55 56.1301 536.55 56.7731C536.55 57.3332 536.756 57.8102 537.169 58.194C537.582 58.5777 538.253 58.8992 539.162 59.1689C539.895 59.3763 540.39 59.5941 540.669 59.8119M532.172 54.2217H531.15V62.7782H532.172V54.2217ZM526.061 61.7203C525.844 61.544 525.741 61.2847 525.741 60.9632C525.741 60.2268 526.37 59.8534 527.63 59.8534H528.435V61.0876C528.311 61.3573 528.095 61.5751 527.805 61.741C527.516 61.907 527.217 61.9899 526.887 61.9899C526.556 61.9899 526.278 61.8966 526.061 61.7203ZM529.664 62.7782V62.6848C529.519 62.3529 529.457 61.9173 529.457 61.3676V58.5985C529.447 57.9866 529.241 57.5095 528.848 57.1672C528.456 56.825 527.919 56.6486 527.227 56.6486C526.794 56.6486 526.391 56.7316 526.03 56.8976C525.668 57.0635 525.379 57.2813 525.163 57.5613C524.946 57.8414 524.843 58.1318 524.843 58.4325H525.875C525.875 58.1732 525.999 57.9451 526.247 57.7584C526.494 57.5717 526.804 57.4784 527.165 57.4784C527.578 57.4784 527.898 57.5821 528.115 57.7999C528.332 58.0177 528.435 58.2977 528.435 58.6607V59.1378H527.434C526.567 59.1378 525.906 59.3141 525.431 59.6564C524.956 60.009 524.719 60.4964 524.719 61.1187C524.719 61.6373 524.904 62.0625 525.286 62.3944C525.668 62.7263 526.154 62.9026 526.742 62.9026C527.403 62.9026 527.971 62.6537 528.446 62.1559C528.487 62.4566 528.528 62.6744 528.59 62.7885H529.664V62.7782ZM521.539 55.29V56.7524H520.445V57.551H521.539V61.2847C521.539 61.7929 521.652 62.1974 521.89 62.467C522.127 62.747 522.468 62.8819 522.922 62.8819C523.18 62.8819 523.439 62.8508 523.707 62.7678V61.9381C523.5 61.9796 523.335 62.0003 523.222 62.0003C522.984 62.0003 522.809 61.9381 522.716 61.8136C522.613 61.6892 522.561 61.5128 522.561 61.2743V57.5302H523.686V56.7316H522.561V55.2693H521.539V55.29ZM514.911 56.7524V62.7782H515.933V58.4844C516.078 58.194 516.274 57.9554 516.522 57.7791C516.769 57.6028 517.069 57.5095 517.399 57.5095C517.812 57.5095 518.111 57.6132 518.308 57.8206C518.504 58.028 518.597 58.3496 518.607 58.7852V62.7782H519.629V58.7955C519.619 57.3539 518.979 56.6383 517.709 56.6383C516.965 56.6383 516.367 56.9287 515.912 57.5095L515.881 56.7524H514.911ZM512.278 57.9243C512.526 58.2147 512.671 58.6192 512.702 59.1378V59.2104H509.697C509.77 58.6607 509.935 58.2458 510.224 57.9347C510.503 57.6339 510.854 57.4784 511.267 57.4784C511.68 57.4784 512.041 57.6236 512.289 57.914M513.662 61.7203L513.032 61.2328C512.846 61.4817 512.619 61.6788 512.371 61.824C512.124 61.9692 511.814 62.0418 511.453 62.0418C510.947 62.0418 510.523 61.8551 510.193 61.4921C509.863 61.1291 509.687 60.652 509.677 60.0505H513.744V59.6252C513.744 58.6607 513.528 57.9243 513.094 57.4058C512.66 56.8872 512.051 56.6279 511.277 56.6279C510.802 56.6279 510.358 56.7627 509.945 57.022C509.532 57.2917 509.223 57.6547 508.995 58.1214C508.768 58.5881 508.655 59.1274 508.655 59.7186V59.9053C508.655 60.8076 508.913 61.5232 509.419 62.0625C509.925 62.6018 510.585 62.8715 511.401 62.8715C512.402 62.8715 513.156 62.4878 513.662 61.7099M498.95 56.7316V62.7574H499.972V58.3599C500.22 57.7895 500.685 57.4991 501.356 57.4991C502.213 57.4991 502.636 57.9347 502.636 58.8163V62.7678H503.668V58.7644C503.71 58.3807 503.854 58.0695 504.102 57.8414C504.35 57.6132 504.67 57.4991 505.052 57.4991C505.516 57.4991 505.847 57.6028 506.043 57.8206C506.239 58.0384 506.332 58.3599 506.332 58.7852V62.7574H507.354V58.7229C507.333 57.3228 506.662 56.6279 505.351 56.6279C504.918 56.6279 504.536 56.7212 504.216 56.8976C503.895 57.0739 503.637 57.3124 503.431 57.6028C503.132 56.9598 502.553 56.6383 501.717 56.6383C500.974 56.6383 500.375 56.8976 499.941 57.4161L499.911 56.7524H498.94L498.95 56.7316ZM492.694 56.7316V62.7574H493.716V58.4636C493.861 58.1732 494.057 57.9347 494.305 57.7584C494.552 57.5821 494.852 57.4887 495.182 57.4887C495.595 57.4887 495.895 57.5924 496.091 57.7999C496.287 58.0073 496.38 58.3288 496.39 58.7644V62.7574H497.412V58.7748C497.402 57.3332 496.762 56.6175 495.492 56.6175C494.749 56.6175 494.15 56.9079 493.696 57.4887L493.665 56.7316H492.694ZM487.439 58.0695C487.749 57.665 488.162 57.4576 488.668 57.4576C489.174 57.4576 489.597 57.665 489.917 58.0695C490.227 58.4844 490.382 59.0133 490.382 59.6771C490.382 60.4135 490.227 60.9943 489.917 61.3988C489.607 61.8032 489.194 62.0107 488.678 62.0107C488.162 62.0107 487.749 61.8136 487.439 61.3988C487.13 60.9943 486.975 60.455 486.975 59.7912C486.975 59.0341 487.13 58.4533 487.439 58.0488M485.942 59.7393C485.942 60.6728 486.19 61.4299 486.696 62.0003C487.202 62.5707 487.863 62.8507 488.668 62.8507C489.205 62.8507 489.69 62.7263 490.103 62.4566C490.516 62.1974 490.836 61.8344 491.063 61.3676C491.29 60.9009 491.393 60.372 491.393 59.7912V59.7186C491.393 58.7748 491.146 58.0177 490.64 57.4472C490.134 56.8768 489.473 56.5968 488.658 56.5968C488.131 56.5968 487.656 56.7212 487.243 56.9805C486.83 57.2398 486.51 57.6028 486.283 58.0695C486.056 58.5362 485.932 59.0756 485.932 59.6667V59.7393H485.942ZM485.385 56.6798C485.282 56.6279 485.127 56.6072 484.931 56.6072C484.311 56.6072 483.836 56.8768 483.496 57.4161L483.475 56.7212H482.474V62.747H483.496V58.474C483.733 57.9036 484.187 57.6132 484.869 57.6132C485.044 57.6132 485.22 57.6236 485.375 57.6547V56.7005L485.385 56.6798ZM479.882 55.5285C479.986 55.6426 480.13 55.6945 480.337 55.6945C480.543 55.6945 480.688 55.6426 480.791 55.5285C480.894 55.4145 480.946 55.2796 480.946 55.1137C480.946 54.9477 480.894 54.8025 480.791 54.6885C480.688 54.5744 480.533 54.5121 480.337 54.5121C480.14 54.5121 479.986 54.5744 479.882 54.6885C479.779 54.8025 479.727 54.9477 479.727 55.1137C479.727 55.2796 479.779 55.4248 479.882 55.5285ZM480.842 56.7109H479.82V62.7367H480.842V56.7109ZM474.679 56.7109H473.636L475.815 62.7367H476.599L478.747 56.7109H477.704L476.217 61.3365L474.689 56.7109H474.679ZM467.958 56.7109V62.7367H468.98V58.4429C469.125 58.1525 469.321 57.914 469.569 57.7376C469.817 57.5613 470.116 57.468 470.446 57.468C470.859 57.468 471.159 57.5717 471.355 57.7791C471.551 57.9866 471.644 58.3081 471.654 58.7437V62.7367H472.676V58.754C472.676 57.3124 472.026 56.5968 470.756 56.5968C470.013 56.5968 469.414 56.8872 468.96 57.468L468.929 56.7109H467.958ZM466.224 58.111H462.724V55.4974H466.73V54.6262H461.65V62.7367H466.781V61.8655H462.714V58.9926H466.214V58.1214L466.224 58.111ZM453.36 55.6737C453.536 55.4663 453.773 55.3626 454.083 55.3626C454.362 55.3626 454.599 55.4456 454.785 55.6115C454.971 55.7774 455.064 55.9849 455.064 56.2338C455.064 56.462 455.012 56.659 454.919 56.825C454.826 56.9909 454.651 57.1568 454.403 57.3332L453.753 57.7999C453.319 57.2606 453.102 56.8146 453.102 56.462C453.102 56.1508 453.195 55.8812 453.371 55.6841M452.865 61.6269C452.586 61.3676 452.442 61.015 452.442 60.5794C452.442 60.092 452.751 59.6252 453.371 59.1689L453.557 59.0341L455.528 61.3988C455.074 61.8136 454.579 62.021 454.031 62.021C453.536 62.021 453.154 61.8862 452.875 61.6269M452.142 62.2285C452.617 62.6537 453.257 62.8611 454.042 62.8611C454.424 62.8611 454.795 62.7989 455.167 62.6744C455.539 62.55 455.859 62.3633 456.127 62.1144L456.664 62.7574H457.893L456.736 61.3676C457.191 60.7454 457.418 59.9571 457.418 59.0133H456.489C456.489 59.6045 456.365 60.1438 456.107 60.6209L454.31 58.4636L454.909 58.028C455.322 57.7273 455.611 57.4369 455.766 57.1568C455.931 56.8768 456.014 56.5761 456.014 56.2545C456.014 55.7567 455.828 55.3522 455.466 55.0203C455.105 54.6988 454.641 54.5329 454.093 54.5329C453.474 54.5329 452.978 54.7092 452.617 55.0515C452.256 55.4041 452.07 55.8812 452.07 56.5034C452.07 56.7627 452.132 57.0324 452.256 57.302C452.38 57.5717 452.617 57.9243 452.978 58.3599C452.369 58.7955 451.956 59.1793 451.74 59.5008C451.523 59.8327 451.409 60.1853 451.409 60.5794C451.409 61.2639 451.647 61.824 452.122 62.2388M446.175 57.8932C446.423 58.1836 446.567 58.5881 446.598 59.1067V59.1793H443.594C443.656 58.6296 443.831 58.2147 444.11 57.9036C444.389 57.6028 444.74 57.4472 445.153 57.4472C445.566 57.4472 445.917 57.5924 446.175 57.8828M447.548 61.6892L446.918 61.2017C446.732 61.4506 446.516 61.6477 446.258 61.7929C446.01 61.9381 445.7 62.0107 445.339 62.0107C444.833 62.0107 444.41 61.824 444.079 61.461C443.749 61.098 443.573 60.6209 443.563 60.0194H447.631V59.5941C447.631 58.6296 447.414 57.8932 446.98 57.3746C446.547 56.8561 445.938 56.5968 445.163 56.5968C444.688 56.5968 444.244 56.7316 443.831 56.9909C443.419 57.2606 443.109 57.6236 442.882 58.0903C442.655 58.557 442.541 59.0963 442.541 59.6875V59.8742C442.541 60.7765 442.799 61.4921 443.305 62.0314C443.811 62.5707 444.472 62.8404 445.287 62.8404C446.289 62.8404 447.042 62.4566 447.548 61.6788M438.04 61.4402C437.751 61.0669 437.617 60.5276 437.617 59.8327V59.6356C437.617 58.92 437.761 58.3807 438.05 57.9969C438.339 57.6236 438.742 57.4265 439.258 57.4265C439.65 57.4265 439.97 57.551 440.239 57.7999C440.507 58.0488 440.652 58.3703 440.683 58.7644H441.653C441.622 58.1214 441.385 57.5924 440.941 57.188C440.497 56.7835 439.939 56.576 439.268 56.576C438.721 56.576 438.246 56.7005 437.844 56.9494C437.441 57.1983 437.131 57.5613 436.925 58.0177C436.708 58.474 436.605 58.9926 436.605 59.5838V59.7601C436.605 60.7142 436.842 61.461 437.327 62.0107C437.813 62.5604 438.463 62.83 439.279 62.83C439.681 62.83 440.074 62.7367 440.435 62.55C440.796 62.3633 441.096 62.1144 441.312 61.8032C441.529 61.4921 441.653 61.1602 441.663 60.818H440.693C440.662 61.1498 440.518 61.4299 440.239 61.658C439.97 61.8862 439.65 61.9899 439.279 61.9899C438.752 61.9899 438.339 61.8032 438.06 61.4299M430.607 56.6901V62.7159H431.629V58.4222C431.773 58.1318 431.969 57.8932 432.217 57.7169C432.465 57.5406 432.764 57.4472 433.095 57.4472C433.508 57.4472 433.807 57.551 434.003 57.7584C434.199 57.9658 434.292 58.2873 434.303 58.7229V62.7159H435.325V58.7333C435.314 57.2917 434.674 56.576 433.404 56.576C432.661 56.576 432.062 56.8664 431.608 57.4472L431.577 56.6901H430.607ZM427.974 57.8621C428.222 58.1525 428.366 58.557 428.397 59.0756V59.1482H425.393C425.455 58.5985 425.631 58.1836 425.92 57.8725C426.209 57.5613 426.549 57.4161 426.962 57.4161C427.375 57.4161 427.726 57.5613 427.984 57.8517M429.357 61.658L428.728 61.1706C428.542 61.4195 428.325 61.6166 428.067 61.7618C427.819 61.907 427.51 61.9796 427.148 61.9796C426.642 61.9796 426.219 61.7929 425.889 61.4299C425.558 61.0669 425.383 60.5898 425.372 59.9882H429.44V59.563C429.44 58.5985 429.223 57.8621 428.79 57.3435C428.356 56.825 427.747 56.5657 426.973 56.5657C426.498 56.5657 426.054 56.7005 425.641 56.9598C425.228 57.2294 424.918 57.5924 424.691 58.0592C424.464 58.5259 424.35 59.0652 424.35 59.6564V59.843C424.35 60.7454 424.609 61.461 425.114 62.0003C425.62 62.5396 426.281 62.8093 427.097 62.8093C428.098 62.8093 428.852 62.4255 429.357 61.6477M422.007 55.4974C422.11 55.6115 422.255 55.6634 422.461 55.6634C422.668 55.6634 422.812 55.6115 422.915 55.4974C423.019 55.3833 423.07 55.2485 423.07 55.0826C423.07 54.9166 423.019 54.7714 422.915 54.6573C422.812 54.5433 422.657 54.481 422.461 54.481C422.265 54.481 422.11 54.5433 422.007 54.6573C421.904 54.7714 421.852 54.9166 421.852 55.0826C421.852 55.2485 421.904 55.3937 422.007 55.4974ZM422.967 56.6798H421.945V62.7056H422.967V56.6798ZM417.093 61.4195C416.804 61.0461 416.67 60.5068 416.67 59.8119V59.6149C416.67 58.8992 416.814 58.3599 417.103 57.9762C417.392 57.6028 417.795 57.4058 418.311 57.4058C418.703 57.4058 419.023 57.5302 419.292 57.7791C419.56 58.028 419.705 58.3496 419.736 58.7437H420.706C420.675 58.1006 420.438 57.5717 419.994 57.1672C419.55 56.7627 418.992 56.5553 418.321 56.5553C417.774 56.5553 417.299 56.6798 416.897 56.9287C416.494 57.1776 416.184 57.5406 415.978 57.9969C415.761 58.4533 415.658 58.9718 415.658 59.563V59.7393C415.658 60.6935 415.895 61.4402 416.38 61.9899C416.866 62.5396 417.516 62.8093 418.332 62.8093C418.734 62.8093 419.127 62.7159 419.488 62.5292C419.849 62.3426 420.149 62.0936 420.365 61.7825C420.582 61.4714 420.706 61.1395 420.716 60.7972H419.746C419.715 61.1291 419.56 61.4091 419.292 61.6373C419.013 61.8655 418.703 61.9692 418.332 61.9692C417.805 61.9692 417.392 61.7825 417.113 61.4091M413.232 59.729C413.51 59.9468 413.645 60.2579 413.645 60.652C413.645 61.0461 413.5 61.3676 413.201 61.5958C412.901 61.824 412.468 61.9381 411.91 61.9381C411.311 61.9381 410.826 61.7929 410.465 61.5128C410.104 61.2328 409.928 60.8387 409.928 60.3512H408.854C408.854 60.818 408.989 61.2432 409.247 61.6166C409.505 61.9899 409.876 62.2803 410.362 62.4981C410.837 62.7056 411.363 62.8196 411.91 62.8196C412.767 62.8196 413.448 62.6226 413.954 62.2285C414.471 61.8344 414.718 61.3054 414.718 60.652C414.718 60.2372 414.625 59.8845 414.44 59.5734C414.254 59.2726 413.975 59.003 413.593 58.7748C413.211 58.5466 412.685 58.3392 412.013 58.1525C411.342 57.9658 410.868 57.7584 410.589 57.5198C410.31 57.2917 410.165 57.0116 410.165 56.6798C410.165 56.2649 410.31 55.9434 410.609 55.7152C410.909 55.4871 411.311 55.3626 411.838 55.3626C412.406 55.3626 412.839 55.5078 413.149 55.7878C413.459 56.0679 413.614 56.462 413.614 56.9494H414.687C414.687 56.5034 414.563 56.0886 414.326 55.7048C414.089 55.3315 413.748 55.0307 413.314 54.8129C412.881 54.5951 412.385 54.4914 411.828 54.4914C411.012 54.4914 410.351 54.6988 409.845 55.1137C409.34 55.5285 409.081 56.0575 409.081 56.7005C409.081 57.2606 409.288 57.7376 409.701 58.1214C410.114 58.5051 410.785 58.8266 411.693 59.0963C412.426 59.3037 412.922 59.5215 413.201 59.7393M401.111 54.1491H400.089V62.7056H401.111V58.4118C401.256 58.1214 401.452 57.8828 401.7 57.7065C401.948 57.5302 402.247 57.4369 402.577 57.4369C402.99 57.4369 403.29 57.5406 403.486 57.748C403.682 57.9554 403.775 58.277 403.785 58.7126V62.7056H404.807V58.7229C404.797 57.2813 404.157 56.5657 402.887 56.5657C402.154 56.5657 401.566 56.8457 401.111 57.4058V54.1491ZM396.745 55.2174V56.6798H395.65V57.4784H396.745V61.2121C396.745 61.7203 396.858 62.1248 397.096 62.3944C397.333 62.6744 397.674 62.8093 398.138 62.8093C398.396 62.8093 398.654 62.7782 398.923 62.6952V61.8655C398.716 61.907 398.551 61.9277 398.438 61.9277C398.2 61.9277 398.025 61.8655 397.932 61.741C397.829 61.6166 397.777 61.4402 397.777 61.2017V57.4576H398.892V56.659H397.777V55.1967H396.755L396.745 55.2174ZM395.155 56.6486C395.051 56.5968 394.897 56.576 394.7 56.576C394.081 56.576 393.606 56.8457 393.265 57.385L393.245 56.6901H392.243V62.7159H393.265V58.4429C393.503 57.8725 393.967 57.5821 394.638 57.5821C394.824 57.5821 394.989 57.5924 395.144 57.6236V56.6694L395.155 56.6486ZM387.257 61.6477C387.04 61.4714 386.937 61.2121 386.937 60.8906C386.937 60.1542 387.567 59.7808 388.826 59.7808H389.631V61.015C389.508 61.2847 389.291 61.5025 389.002 61.6684C388.713 61.8344 388.413 61.9173 388.083 61.9173C387.752 61.9173 387.474 61.824 387.257 61.6477ZM390.86 62.7056V62.6122C390.715 62.2803 390.653 61.8447 390.653 61.295V58.5259C390.643 57.914 390.437 57.4369 390.044 57.0946C389.652 56.7524 389.115 56.576 388.424 56.576C387.99 56.576 387.587 56.659 387.226 56.825C386.865 56.9909 386.576 57.2087 386.359 57.4887C386.142 57.7688 386.039 58.0592 386.039 58.3599H387.071C387.071 58.1006 387.195 57.8725 387.443 57.6858C387.691 57.4991 388 57.4058 388.362 57.4058C388.775 57.4058 389.095 57.5095 389.311 57.7273C389.528 57.9451 389.631 58.2251 389.631 58.5881V59.0652H388.63C387.773 59.0652 387.102 59.2415 386.627 59.5838C386.152 59.9364 385.915 60.4238 385.915 61.0461C385.915 61.5647 386.101 61.9899 386.483 62.3218C386.865 62.6537 387.35 62.83 387.938 62.83C388.599 62.83 389.167 62.5811 389.642 62.0833C389.683 62.384 389.724 62.6018 389.786 62.7159H390.86V62.7056ZM384.346 58.0799H380.846V55.4663H384.851V54.5951H379.772V62.7056H384.903V61.8344H380.836V58.9615H384.335V58.0903L384.346 58.0799ZM374.177 57.8414C374.424 58.1318 374.569 58.5362 374.6 59.0548V59.1274H371.596C371.658 58.5777 371.833 58.1629 372.112 57.8517C372.391 57.551 372.742 57.3954 373.155 57.3954C373.568 57.3954 373.929 57.5406 374.177 57.831M375.55 61.6373L374.92 61.1498C374.734 61.3988 374.507 61.5958 374.259 61.741C374.011 61.8862 373.702 61.9588 373.34 61.9588C372.835 61.9588 372.411 61.7721 372.081 61.4091C371.751 61.0461 371.575 60.569 371.565 59.9675H375.632V59.5423C375.632 58.5777 375.416 57.8414 374.982 57.3228C374.548 56.8042 373.939 56.5449 373.165 56.5449C372.69 56.5449 372.246 56.6798 371.833 56.939C371.42 57.2087 371.11 57.5717 370.883 58.0384C370.656 58.5051 370.543 59.0444 370.543 59.6356V59.8223C370.543 60.7246 370.801 61.4402 371.307 61.9796C371.812 62.5189 372.473 62.7885 373.289 62.7885C374.29 62.7885 375.044 62.4048 375.55 61.6269M369.159 54.118H368.137V62.6744H369.159V54.118ZM365.319 61.3365C365.04 61.7203 364.658 61.907 364.173 61.907C363.512 61.907 363.017 61.5958 362.707 60.9632V58.3599C363.006 57.7273 363.491 57.4161 364.163 57.4161C364.668 57.4161 365.061 57.6132 365.329 57.9866C365.598 58.3703 365.732 58.9096 365.732 59.6149C365.732 60.3824 365.598 60.9632 365.319 61.3365ZM366.754 59.6356C366.754 58.6711 366.547 57.914 366.124 57.3643C365.711 56.8146 365.133 56.5346 364.41 56.5346C363.688 56.5346 363.11 56.7938 362.697 57.3124V54.118H361.674V62.6744H362.614L362.666 61.9796C363.079 62.5189 363.667 62.7885 364.421 62.7885C365.133 62.7885 365.69 62.5085 366.114 61.9484C366.537 61.3884 366.743 60.652 366.743 59.729V59.6356H366.754ZM356.667 61.6166C356.451 61.4402 356.347 61.181 356.347 60.8594C356.347 60.1231 356.977 59.7497 358.237 59.7497H359.042V60.9839C358.918 61.2536 358.701 61.4714 358.412 61.6373C358.123 61.8032 357.824 61.8862 357.493 61.8862C357.163 61.8862 356.884 61.7929 356.667 61.6166ZM360.27 62.6744V62.5811C360.126 62.2492 360.064 61.8136 360.064 61.2639V58.4948C360.054 57.8828 359.847 57.4058 359.455 57.0635C359.063 56.7212 358.526 56.5449 357.834 56.5449C357.4 56.5449 356.998 56.6279 356.636 56.7938C356.275 56.9598 355.986 57.1776 355.769 57.4576C355.552 57.7376 355.449 58.028 355.449 58.3288H356.482C356.482 58.0695 356.605 57.8414 356.853 57.6547C357.101 57.468 357.411 57.3746 357.772 57.3746C358.195 57.3746 358.505 57.4784 358.722 57.6962C358.939 57.914 359.042 58.194 359.042 58.557V59.0341H358.04C357.184 59.0341 356.513 59.2104 356.038 59.5526C355.563 59.9053 355.325 60.3927 355.325 61.015C355.325 61.5336 355.511 61.9588 355.893 62.2907C356.275 62.6226 356.76 62.7989 357.349 62.7989C358.01 62.7989 358.577 62.55 359.052 62.0522C359.094 62.3529 359.135 62.5707 359.197 62.6848H360.27V62.6744ZM354.768 56.6175C354.665 56.5657 354.51 56.5449 354.314 56.5449C353.694 56.5449 353.219 56.8146 352.879 57.3539L352.858 56.659H351.857V62.6848H352.879V58.4118C353.116 57.8414 353.57 57.551 354.252 57.551C354.438 57.551 354.603 57.5613 354.758 57.5924V56.6383L354.768 56.6175ZM349.234 57.8206C349.482 58.111 349.627 58.5155 349.658 59.0341V59.1067H346.653C346.715 58.557 346.891 58.1421 347.17 57.831C347.448 57.5302 347.799 57.3746 348.212 57.3746C348.625 57.3746 348.976 57.5198 349.234 57.8102M350.607 61.6166L349.978 61.1291C349.792 61.378 349.575 61.5751 349.317 61.7203C349.069 61.8655 348.759 61.9381 348.398 61.9381C347.892 61.9381 347.469 61.7514 347.139 61.3884C346.808 61.0254 346.633 60.5483 346.622 59.9468H350.69V59.5215C350.69 58.557 350.473 57.8206 350.04 57.302C349.606 56.7835 348.997 56.5242 348.223 56.5242C347.748 56.5242 347.304 56.659 346.891 56.9183C346.478 57.188 346.168 57.551 345.941 58.0177C345.714 58.4844 345.6 59.0237 345.6 59.6149V59.8016C345.6 60.7039 345.858 61.4195 346.364 61.9588C346.87 62.4981 347.531 62.7678 348.346 62.7678C349.348 62.7678 350.101 62.384 350.607 61.6062M343.092 61.3469C342.803 61.741 342.41 61.9381 341.915 61.9381C341.285 61.9381 340.81 61.658 340.5 61.1084V58.2251C340.81 57.6754 341.275 57.3954 341.894 57.3954C342.4 57.3954 342.792 57.5924 343.081 57.9866C343.37 58.3807 343.515 58.92 343.515 59.5941C343.515 60.3616 343.37 60.9528 343.081 61.3365M344.547 59.6149C344.547 58.64 344.341 57.8828 343.918 57.3332C343.494 56.7835 342.926 56.5138 342.204 56.5138C341.481 56.5138 340.882 56.7731 340.459 57.2917L340.407 56.6279H339.468V64.9769H340.49V62.0729C340.903 62.5396 341.481 62.7678 342.214 62.7678C342.947 62.7678 343.494 62.4878 343.907 61.9277C344.32 61.3676 344.537 60.6313 344.537 59.7082V59.6149H344.547ZM334.223 57.9762C334.533 57.5717 334.946 57.3643 335.452 57.3643C335.958 57.3643 336.381 57.5717 336.701 57.9762C337.011 58.391 337.166 58.92 337.166 59.5838C337.166 60.3201 337.011 60.9009 336.701 61.3054C336.391 61.7099 335.978 61.9173 335.462 61.9173C334.946 61.9173 334.533 61.7203 334.223 61.3054C333.914 60.9009 333.759 60.3616 333.759 59.6978C333.759 58.9407 333.914 58.3599 334.223 57.9554M332.726 59.646C332.726 60.5794 332.974 61.3365 333.48 61.907C333.986 62.4774 334.647 62.7574 335.462 62.7574C335.999 62.7574 336.484 62.633 336.897 62.3633C337.31 62.104 337.63 61.741 337.857 61.2743C338.085 60.8076 338.198 60.2786 338.198 59.6978V59.6252C338.198 58.6814 337.95 57.9243 337.444 57.3539C336.939 56.7835 336.278 56.5034 335.462 56.5034C334.936 56.5034 334.461 56.6279 334.048 56.8872C333.635 57.1465 333.315 57.5095 333.088 57.9762C332.861 58.4429 332.737 58.9822 332.737 59.5734V59.646H332.726ZM332.169 56.5864C332.066 56.5346 331.911 56.5138 331.715 56.5138C331.095 56.5138 330.62 56.7835 330.29 57.3228L330.269 56.6279H329.268V62.6537H330.29V58.3807C330.528 57.8102 330.992 57.5198 331.663 57.5198C331.849 57.5198 332.014 57.5302 332.169 57.5613V56.6072V56.5864ZM326.635 57.7895C326.883 58.0799 327.028 58.4844 327.059 59.003V59.0756H324.054C324.127 58.5259 324.292 58.111 324.581 57.7999C324.87 57.4887 325.211 57.3435 325.624 57.3435C326.037 57.3435 326.388 57.4887 326.646 57.7791M328.019 61.5854L327.389 61.098C327.203 61.3469 326.976 61.544 326.728 61.6892C326.481 61.8344 326.171 61.907 325.81 61.907C325.304 61.907 324.88 61.7203 324.55 61.3573C324.22 60.9943 324.044 60.5172 324.034 59.9156H328.101V59.4904C328.101 58.5259 327.885 57.7895 327.451 57.2709C327.017 56.7524 326.408 56.4931 325.634 56.4931C325.159 56.4931 324.715 56.6279 324.302 56.8872C323.889 57.1568 323.58 57.5198 323.352 57.9866C323.125 58.4533 323.012 58.9926 323.012 59.5838V59.7704C323.012 60.6728 323.27 61.3884 323.776 61.9277C324.282 62.467 324.953 62.7367 325.758 62.7367C326.759 62.7367 327.513 62.3529 328.019 61.5751M319.925 55.1448V56.6072H318.831V57.4058H319.925V61.1395C319.925 61.6477 320.039 62.0522 320.276 62.3218C320.503 62.6018 320.854 62.7367 321.308 62.7367C321.566 62.7367 321.825 62.7056 322.093 62.6226V61.7929C321.886 61.8344 321.721 61.8551 321.608 61.8551C321.37 61.8551 321.195 61.7929 321.102 61.6684C320.999 61.544 320.957 61.3676 320.957 61.1291V57.385H322.072V56.5864H320.957V55.1241H319.935L319.925 55.1448ZM313.297 56.6072V62.633H314.319V58.3392C314.464 58.0488 314.66 57.8102 314.908 57.6339C315.155 57.4576 315.455 57.3643 315.785 57.3643C316.198 57.3643 316.497 57.468 316.694 57.6754C316.89 57.8828 316.983 58.2044 316.993 58.64V62.633H318.015V58.6503C318.005 57.2087 317.365 56.4931 316.095 56.4931C315.351 56.4931 314.753 56.7835 314.298 57.3643L314.267 56.6072H313.297ZM311.511 54.5225H310.448V62.633H311.511V54.5225ZM302.23 57.9554C302.509 57.5613 302.901 57.3746 303.397 57.3746C304.026 57.3746 304.501 57.665 304.811 58.2355V60.9839C304.511 61.5751 304.037 61.8655 303.386 61.8655C302.891 61.8655 302.498 61.6684 302.22 61.2847C301.941 60.9009 301.807 60.3616 301.807 59.6875C301.807 58.92 301.951 58.3392 302.23 57.9554ZM301.425 61.8966C301.858 62.467 302.426 62.747 303.128 62.747C303.83 62.747 304.398 62.5085 304.811 62.0314V62.55C304.811 63.0686 304.666 63.4627 304.398 63.7427C304.119 64.0227 303.727 64.1679 303.231 64.1679C302.591 64.1679 302.054 63.8983 301.621 63.3486L301.084 63.9709C301.301 64.2924 301.621 64.5517 302.034 64.7383C302.447 64.925 302.87 65.0184 303.304 65.0184C304.078 65.0184 304.697 64.7902 305.162 64.3442C305.626 63.8983 305.854 63.276 305.854 62.4981V56.6175H304.914L304.862 57.2813C304.45 56.7627 303.882 56.5034 303.149 56.5034C302.416 56.5034 301.858 56.7835 301.425 57.3332C300.991 57.8828 300.774 58.64 300.774 59.5734C300.774 60.5068 300.991 61.3262 301.425 61.8966ZM294.755 56.6072V62.633H295.778V58.3392C295.922 58.0488 296.108 57.8102 296.366 57.6339C296.614 57.4576 296.913 57.3643 297.244 57.3643C297.656 57.3643 297.956 57.468 298.152 57.6754C298.348 57.8828 298.441 58.2044 298.451 58.64V62.633H299.473V58.6503C299.463 57.2087 298.823 56.4931 297.553 56.4931C296.81 56.4931 296.211 56.7835 295.757 57.3643L295.726 56.6072H294.755ZM292.154 55.4248C292.257 55.5389 292.402 55.5908 292.608 55.5908C292.815 55.5908 292.959 55.5389 293.062 55.4248C293.166 55.3107 293.217 55.1759 293.217 55.01C293.217 54.844 293.166 54.6988 293.062 54.5847C292.959 54.4707 292.804 54.4084 292.608 54.4084C292.412 54.4084 292.257 54.4707 292.154 54.5847C292.051 54.6988 291.999 54.844 291.999 55.01C291.999 55.1759 292.051 55.3211 292.154 55.4248ZM293.114 56.6072H292.092V62.633H293.114V56.6072ZM286.796 57.9554C287.075 57.5613 287.467 57.3746 287.973 57.3746C288.613 57.3746 289.077 57.6547 289.387 58.2251V60.9943C289.088 61.5854 288.613 61.8758 287.962 61.8758C287.467 61.8758 287.075 61.6788 286.796 61.295C286.517 60.9113 286.373 60.372 286.373 59.6875C286.373 58.92 286.517 58.3392 286.796 57.9554ZM285.35 59.646C285.35 60.569 285.567 61.3158 286.011 61.8862C286.445 62.4566 287.013 62.747 287.715 62.747C288.448 62.747 289.015 62.4981 289.428 61.9899L289.48 62.633H290.419V54.0765H289.397V57.2191C288.984 56.7316 288.427 56.4931 287.725 56.4931C287.023 56.4931 286.445 56.7731 286.011 57.3332C285.578 57.8932 285.361 58.64 285.361 59.563V59.6356L285.35 59.646ZM283.957 54.0765H282.935V62.633H283.957V54.0765ZM280.24 55.4248C280.343 55.5389 280.488 55.5908 280.694 55.5908C280.901 55.5908 281.045 55.5389 281.149 55.4248C281.252 55.3107 281.304 55.1759 281.304 55.01C281.304 54.844 281.252 54.6988 281.149 54.5847C281.045 54.4707 280.891 54.4084 280.694 54.4084C280.498 54.4084 280.343 54.4707 280.24 54.5847C280.137 54.6988 280.085 54.844 280.085 55.01C280.085 55.1759 280.137 55.3211 280.24 55.4248ZM281.2 56.6072H280.178V62.633H281.2V56.6072ZM277.546 62.633H278.526V56.6072H277.504V60.9943C277.246 61.5854 276.72 61.8758 275.935 61.8758C275.192 61.8758 274.83 61.4195 274.83 60.5068V56.6175H273.808V60.5379C273.808 61.2639 273.984 61.824 274.314 62.1974C274.645 62.5707 275.14 62.7574 275.78 62.7574C276.555 62.7574 277.143 62.5189 277.535 62.0522L277.556 62.6433L277.546 62.633ZM267.975 55.3937H269.555C270.082 55.3937 270.474 55.4974 270.732 55.6945C270.99 55.9019 271.124 56.2234 271.124 56.6694C271.124 57.0739 270.98 57.385 270.711 57.6236C270.433 57.8621 270.061 57.9762 269.596 57.9762H267.986V55.3937H267.975ZM269.751 58.837C270.804 58.837 271.341 59.3245 271.341 60.2994C271.341 60.7557 271.196 61.1084 270.907 61.3676C270.618 61.6269 270.226 61.7514 269.73 61.7514H267.975V58.8266H269.751V58.837ZM269.71 62.633C270.567 62.633 271.227 62.4255 271.702 62.0107C272.177 61.5958 272.404 61.0254 272.404 60.2994C272.404 59.8223 272.28 59.4178 272.022 59.0756C271.775 58.7333 271.424 58.4948 270.99 58.3807C271.362 58.2251 271.651 57.9969 271.868 57.7065C272.084 57.4161 272.188 57.0842 272.188 56.7005C272.188 55.9849 271.971 55.4456 271.527 55.0826C271.083 54.7196 270.422 54.5329 269.555 54.5329H266.912V62.6433H269.71V62.633Z" fill="#6C707C"/>
<path d="M244.922 0H244.138V74H244.922V0Z" fill="#040305"/>
<path d="M287.198 25.161H271.991V12.6842H289.666V8.75348H267.211V45.1779H271.991V29.0918H287.198V25.161Z" fill="#27D1CB"/>
<path d="M309.756 31.7158H297.429L303.582 14.6859L309.756 31.7158ZM319.543 45.1675L305.678 8.75348H301.497L287.653 45.1675H292.577L295.984 35.6362H311.171L314.629 45.1675H319.533H319.543Z" fill="#27D1CB"/>
<path d="M329.547 8.75348H324.767V45.1675H329.547V8.75348Z" fill="#27D1CB"/>
<path d="M350.411 26.5197H343.071V12.6842H350.391C352.91 12.705 354.84 13.3065 356.182 14.5096C357.514 15.7127 358.185 17.4447 358.185 19.6953C358.185 21.7696 357.483 23.4187 356.079 24.6528C354.675 25.887 352.786 26.5093 350.411 26.5093M364.576 44.8667L356.058 29.4133C358.237 28.5836 359.93 27.3183 361.148 25.6381C362.366 23.958 362.975 21.977 362.975 19.7057C362.975 16.1379 361.871 13.4206 359.672 11.5538C357.473 9.68691 354.334 8.75348 350.246 8.75348H338.25V45.1779H343.05V30.4505H351.567L359.434 45.1779H364.565V44.8771L364.576 44.8667Z" fill="#27D1CB"/>
<path d="M382.632 27.8161H370.481V31.5913H382.632V27.8161Z" fill="#6B707D"/>
<path d="M412.406 24.4143H396.693V12.6842H414.687V8.75348H391.913V45.1779H414.946V41.2471H396.693V28.3347H412.406V24.4143Z" fill="#79D361"/>
<path d="M439.485 31.7158H427.158L433.311 14.6859L439.485 31.7158ZM449.272 45.1675L435.407 8.75348H431.226L417.382 45.1675H422.306L425.713 35.6362H440.9L444.358 45.1675H449.262H449.272Z" fill="#79D361"/>
<path d="M471.613 31.8299C472.862 32.8048 473.482 34.1842 473.482 35.968C473.482 37.7519 472.811 39.1624 471.469 40.1996C470.126 41.2367 468.196 41.7449 465.667 41.7449C462.962 41.7449 460.804 41.1123 459.183 39.8366C457.562 38.5609 456.757 36.8185 456.757 34.6198H451.957C451.957 36.7355 452.545 38.6335 453.712 40.2929C454.878 41.9627 456.54 43.2799 458.698 44.2341C460.856 45.1882 463.179 45.6757 465.667 45.6757C469.497 45.6757 472.563 44.7837 474.855 43.0102C477.147 41.2367 478.293 38.872 478.293 35.9162C478.293 34.0701 477.88 32.4521 477.064 31.0935C476.238 29.7245 474.979 28.5317 473.275 27.505C471.572 26.4782 469.218 25.5448 466.203 24.684C463.189 23.8335 461.062 22.8897 459.803 21.8629C458.553 20.8362 457.924 19.5812 457.924 18.0877C457.924 16.2313 458.584 14.7896 459.906 13.7421C461.227 12.6946 463.065 12.176 465.419 12.176C467.958 12.176 469.92 12.8087 471.324 14.074C472.718 15.3393 473.409 17.0713 473.409 19.2804H478.21C478.21 17.258 477.673 15.4015 476.6 13.7006C475.526 11.9997 474.019 10.6618 472.067 9.69727C470.116 8.73273 467.897 8.24527 465.408 8.24527C461.754 8.24527 458.791 9.1787 456.509 11.0559C454.228 12.9331 453.082 15.3082 453.082 18.1707C453.082 20.7013 454.011 22.8378 455.88 24.5595C457.748 26.2812 460.732 27.7435 464.83 28.9259C468.103 29.88 470.354 30.8342 471.603 31.8091" fill="#79D361"/>
<path d="M504.897 24.4143H489.184V12.6842H507.189V8.75348H484.404V45.1779H507.437V41.2471H489.184V28.3347H504.897V24.4143Z" fill="#79D361"/>
<path d="M28.4319 21.4273C25.438 19.4879 21.9795 18.4611 18.4178 18.4611C14.8561 18.4611 11.3872 19.4879 8.39334 21.4377C7.78423 21.8318 7.39193 22.4852 7.30934 23.2112C7.22675 23.958 7.48484 24.6943 8.01136 25.2233L9.01277 26.2293C9.48766 26.7064 10.1071 26.9553 10.7368 26.9553C11.1704 26.9553 11.6144 26.8412 12.0067 26.5923C13.9269 25.3996 16.1465 24.7669 18.4074 24.7669C20.6684 24.7669 22.8777 25.3996 24.8082 26.5923C25.7683 27.1835 26.9969 27.0383 27.8021 26.2293L28.8035 25.2233C29.3301 24.6943 29.5882 23.958 29.5159 23.2112C29.4333 22.4749 29.041 21.8318 28.4319 21.4377" fill="#21ACAB"/>
<path d="M110.455 37.223C111.002 36.7459 111.27 36.134 111.27 35.408C111.229 32.7944 110.744 30.4608 109.835 28.4073C108.927 26.3434 107.719 24.5595 106.212 23.0557C104.704 21.5518 102.98 20.4006 101.019 19.6227C99.0571 18.8449 97.0337 18.4611 94.9379 18.4611C92.1092 18.4611 89.4353 19.2079 86.906 20.691C84.3767 22.1741 82.3222 24.3313 80.753 27.142C79.1838 29.9526 78.3992 33.3545 78.3992 37.3371C78.3992 40.9049 79.1528 44.0578 80.6601 46.7751C82.1674 49.4924 84.2837 51.6393 87.0092 53.195C89.745 54.7507 92.9558 55.5285 96.6414 55.5285C99.0984 55.5285 101.411 54.9996 103.579 53.9521C105.747 52.9046 107.481 51.66 108.803 50.2495C109.536 49.6065 109.897 48.9012 109.897 48.1234C109.897 47.4803 109.67 46.9306 109.216 46.4743C108.762 46.018 108.214 45.7898 107.574 45.7898C106.986 45.7898 106.387 45.9972 105.799 46.4121C105.21 47.0551 104.487 47.6774 103.651 48.2997C102.805 48.922 101.793 49.4302 100.606 49.845C99.4185 50.2599 98.0351 50.4673 96.4349 50.4673C93.8849 50.4673 91.655 49.8865 89.7347 48.7145C87.8248 47.5529 86.3279 45.9557 85.2542 43.9437C84.325 42.1909 83.7985 40.1996 83.6746 37.9697H108.514C109.247 37.9697 109.877 37.7312 110.424 37.2541M87.226 26.7168C88.2997 25.6693 89.5076 24.8914 90.8497 24.3832C92.1918 23.875 93.5442 23.6261 94.9173 23.6261C96.6001 23.6261 98.2106 23.9891 99.7385 24.7255C101.266 25.4618 102.567 26.499 103.631 27.8472C104.704 29.1955 105.303 30.8135 105.437 32.6907V33.2404H83.974C84.1392 32.3796 84.3457 31.5706 84.6348 30.8342C85.2955 29.1437 86.1627 27.7643 87.2364 26.7168" fill="#040305"/>
<path d="M153.03 36.9845C153.03 40.5522 152.246 43.7362 150.676 46.5261C149.107 49.3161 146.991 51.5148 144.327 53.112C141.664 54.7092 138.67 55.5182 135.345 55.5182C132.021 55.5182 129.017 54.7196 126.322 53.112C123.638 51.5148 121.512 49.3161 119.932 46.5261C118.363 43.7362 117.578 40.5522 117.578 36.9845C117.578 33.4167 118.363 30.2327 119.932 27.4428C121.501 24.6528 123.628 22.4541 126.322 20.8569C129.007 19.2597 132.021 18.4507 135.345 18.4507C138.67 18.4507 141.664 19.2493 144.327 20.8569C146.991 22.4541 149.107 24.6528 150.676 27.4428C152.246 30.2327 153.03 33.4167 153.03 36.9845ZM147.497 36.9845C147.497 34.3294 146.96 32.0062 145.886 30.0149C144.812 28.0236 143.357 26.4471 141.509 25.2751C139.661 24.1135 137.596 23.5224 135.325 23.5224C133.054 23.5224 130.917 24.1032 129.069 25.2751C127.221 26.4367 125.755 28.0236 124.66 30.0149C123.566 32.0062 123.019 34.3294 123.019 36.9845C123.019 39.6395 123.566 41.9005 124.66 43.9229C125.755 45.935 127.221 47.5218 129.069 48.6938C130.917 49.8554 133.002 50.4465 135.325 50.4465C137.648 50.4465 139.661 49.8657 141.509 48.6938C143.357 47.5322 144.812 45.935 145.886 43.9229C146.96 41.9109 147.497 39.598 147.497 36.9845Z" fill="#040305"/>
<path d="M159.183 49.202C158.822 48.6108 158.646 47.9781 158.667 47.3144C158.688 46.6506 159.07 46.0698 159.792 45.5616C160.298 45.2401 160.845 45.1053 161.465 45.1467C162.084 45.1882 162.631 45.489 163.137 46.0387C164.407 47.5529 165.873 48.7456 167.514 49.6376C169.156 50.5295 171.159 50.9755 173.523 50.9755C174.566 50.934 175.65 50.7473 176.765 50.4258C177.88 50.1043 178.819 49.5442 179.562 48.7456C180.316 47.947 180.688 46.8788 180.688 45.5512C180.688 44.2237 180.295 43.2488 179.531 42.502C178.757 41.7449 177.745 41.133 176.486 40.6455C175.237 40.1685 173.895 39.7432 172.491 39.3699C170.983 38.955 169.507 38.4987 168.051 38.0008C166.596 37.503 165.284 36.8392 164.118 36.0406C162.962 35.242 162.022 34.236 161.32 33.0226C160.618 31.8091 160.257 30.3156 160.257 28.5214C160.257 26.4575 160.814 24.6736 161.929 23.1697C163.044 21.6555 164.541 20.4939 166.41 19.6746C168.278 18.8552 170.353 18.4404 172.625 18.4404C173.905 18.4404 175.237 18.5856 176.62 18.8863C178.003 19.1871 179.366 19.6849 180.688 20.4006C182.009 21.1058 183.165 22.0807 184.177 23.3149C184.59 23.7713 184.817 24.3417 184.858 25.0262C184.9 25.7107 184.611 26.333 183.971 26.8827C183.465 27.2457 182.907 27.422 182.298 27.4013C181.679 27.3805 181.173 27.1627 180.76 26.7479C179.758 25.5552 178.54 24.6528 177.105 24.0306C175.67 23.4083 174.091 23.1075 172.356 23.1075C171.303 23.1075 170.261 23.2838 169.218 23.6261C168.175 23.9683 167.298 24.5076 166.585 25.244C165.883 25.9804 165.522 27.0071 165.522 28.3347C165.563 29.5689 165.976 30.5749 166.75 31.3528C167.525 32.1306 168.567 32.7633 169.889 33.2404C171.21 33.7175 172.666 34.1842 174.266 34.6509C175.722 35.0139 177.126 35.4391 178.468 35.9162C179.81 36.3933 181.028 37.0259 182.123 37.8038C183.217 38.5816 184.084 39.5773 184.724 40.7908C185.364 42.0042 185.684 43.5288 185.684 45.3542C185.684 47.4596 185.096 49.2746 183.909 50.8095C182.721 52.3445 181.163 53.5061 179.232 54.3151C177.291 55.1137 175.206 55.5182 172.976 55.5182C170.467 55.5182 167.989 55.0514 165.532 54.1076C163.075 53.1742 160.959 51.5355 159.183 49.202Z" fill="#040305"/>
<path d="M209.264 18.4507C211.628 18.4507 213.744 18.6997 215.623 19.2079C217.492 19.7161 218.968 20.4006 220.063 21.2718C221.157 22.143 221.704 23.1282 221.704 24.2276C221.704 24.8706 221.498 25.4618 221.085 26.0115C220.672 26.5612 220.104 26.8308 219.371 26.8308C218.782 26.8308 218.287 26.7064 217.905 26.4575C217.513 26.2086 217.151 25.9078 216.811 25.5655C216.47 25.2233 216.005 24.8914 215.407 24.5699C214.859 24.3002 214.064 24.0513 213.011 23.8439C211.969 23.6364 210.916 23.5327 209.873 23.5327C207.364 23.5327 205.165 24.1239 203.276 25.3166C201.387 26.5093 199.89 28.1065 198.796 30.1186C197.701 32.1306 197.154 34.4227 197.154 36.9845C197.154 39.5462 197.681 41.8383 198.723 43.8503C199.766 45.8624 201.232 47.4699 203.101 48.6523C204.969 49.845 207.127 50.4362 209.594 50.4362C211.194 50.4362 212.454 50.3013 213.383 50.0213C214.312 49.7517 215.128 49.4301 215.809 49.0568C216.583 48.6004 217.182 48.1441 217.616 47.6877C218.049 47.2314 218.648 47.0032 219.423 47.0032C220.197 47.0032 220.796 47.2521 221.229 47.7603C221.663 48.2685 221.88 48.8805 221.88 49.6168C221.88 50.488 221.312 51.38 220.166 52.2926C219.03 53.2053 217.482 53.9728 215.52 54.5951C213.559 55.2174 211.37 55.5182 208.954 55.5182C205.496 55.5182 202.461 54.7092 199.869 53.0809C197.278 51.4629 195.254 49.2331 193.819 46.4224C192.384 43.6118 191.672 40.4589 191.672 36.9845C191.672 33.51 192.415 30.3675 193.892 27.5776C195.368 24.7877 197.433 22.5682 200.076 20.9191C202.719 19.2701 205.764 18.4507 209.233 18.4507" fill="#040305"/>
<path d="M15.579 49.0982C9.99378 47.7707 6.09137 42.8132 6.09137 37.0467C6.09137 34.765 6.72113 32.5247 7.91869 30.5749C8.4865 29.6519 8.34197 28.4591 7.56768 27.6813L6.56627 26.6753C6.0604 26.1671 5.35838 25.9181 4.63571 25.9907C3.93369 26.0633 3.31426 26.4471 2.93228 27.0383C1.01205 30.0252 -0.0100098 33.4893 -0.0100098 37.0467C-0.0100098 45.6964 6.1017 53.2987 14.5156 55.124C14.6808 55.1552 14.8357 55.1759 15.0008 55.1759C15.517 55.1759 16.0332 54.9996 16.4462 54.6573C17.0037 54.201 17.334 53.5268 17.334 52.8008V51.4007C17.334 50.3117 16.5907 49.3368 15.5686 49.0982" fill="#A1D900"/>
<path d="M49.1516 18.5441C38.993 18.5441 30.7339 26.8412 30.7339 37.0467V37.1296V37.223C30.6513 43.031 26.4805 48.0611 20.8127 49.1916C20.0384 49.3472 19.481 50.0317 19.481 50.8199V53.6409C19.481 54.1387 19.6978 54.6055 20.0694 54.927C20.4411 55.2381 20.916 55.3729 21.3909 55.3003C30.3313 53.8276 36.825 46.1528 36.825 37.0467C36.825 30.2223 42.3586 24.6632 49.1516 24.6632C55.9447 24.6632 61.4783 30.2119 61.4783 37.0467C61.4783 43.8814 55.9447 49.4301 49.1516 49.4301C47.4688 49.4301 46.1061 50.7992 46.1061 52.4897C46.1061 54.1802 47.4688 55.5493 49.1516 55.5493C59.3103 55.5493 67.5693 47.2521 67.5693 37.0467C67.5693 26.8412 59.3103 18.5441 49.1516 18.5441Z" fill="#21ACAB"/>
<path d="M28.4319 21.4273C25.438 19.4879 21.9795 18.4611 18.4178 18.4611C14.8561 18.4611 11.3872 19.4879 8.39334 21.4377C7.78423 21.8318 7.39193 22.4852 7.30934 23.2112C7.22675 23.958 7.48484 24.6943 8.01136 25.2233L9.01277 26.2293C9.48766 26.7064 10.1071 26.9553 10.7368 26.9553C11.1704 26.9553 11.6144 26.8412 12.0067 26.5923C13.9269 25.3996 16.1465 24.7669 18.4074 24.7669C20.6684 24.7669 22.8777 25.3996 24.8082 26.5923C25.7683 27.1835 26.9969 27.0383 27.8021 26.2293L28.8035 25.2233C29.3301 24.6943 29.5882 23.958 29.5159 23.2112C29.4333 22.4749 29.041 21.8318 28.4319 21.4377" fill="#21ACAB"/>
<path d="M15.579 49.0982C9.99378 47.7707 6.09137 42.8132 6.09137 37.0467C6.09137 34.765 6.72113 32.5247 7.91869 30.5749C8.4865 29.6519 8.34197 28.4591 7.56768 27.6813L6.56627 26.6753C6.0604 26.1671 5.35838 25.9181 4.63571 25.9907C3.93369 26.0633 3.31426 26.4471 2.93228 27.0383C1.01205 30.0252 -0.0100098 33.4893 -0.0100098 37.0467C-0.0100098 45.6964 6.1017 53.2987 14.5156 55.124C14.6808 55.1552 14.8357 55.1759 15.0008 55.1759C15.517 55.1759 16.0332 54.9996 16.4462 54.6573C17.0037 54.201 17.334 53.5268 17.334 52.8008V51.4007C17.334 50.3117 16.5907 49.3368 15.5686 49.0982" fill="#A1D900"/>
<path d="M49.1516 18.5441C38.993 18.5441 30.7339 26.8412 30.7339 37.0467V37.1296V37.223C30.6513 43.031 26.4805 48.0611 20.8127 49.1916C20.0384 49.3472 19.481 50.0317 19.481 50.8199V53.6409C19.481 54.1387 19.6978 54.6055 20.0694 54.927C20.4411 55.2381 20.916 55.3729 21.3909 55.3003C30.3313 53.8276 36.825 46.1528 36.825 37.0467C36.825 30.2223 42.3586 24.6632 49.1516 24.6632C55.9447 24.6632 61.4783 30.2119 61.4783 37.0467C61.4783 43.8814 55.9447 49.4301 49.1516 49.4301C47.4688 49.4301 46.1061 50.7992 46.1061 52.4897C46.1061 54.1802 47.4688 55.5493 49.1516 55.5493C59.3103 55.5493 67.5693 47.2521 67.5693 37.0467C67.5693 26.8412 59.3103 18.5441 49.1516 18.5441Z" fill="#21ACAB"/>
</g>
<defs>
<clipPath id="clip0_308_91">
<rect width="578" height="74" fill="white"/>
</clipPath>
</defs>
</svg>
