<?xml version="1.0" encoding="utf-8"?>
<!-- Generator: Adobe Illustrator 24.2.0, SVG Export Plug-In . SVG Version: 6.00 Build 0)  -->
<svg version="1.1" id="Layer_1" xmlns="http://www.w3.org/2000/svg" xmlns:xlink="http://www.w3.org/1999/xlink" x="0px" y="0px"
	 viewBox="0 0 861.3 336.9" style="enable-background:new 0 0 861.3 336.9;" xml:space="preserve">
<style type="text/css">
	.st0{clip-path:url(#SVGID_2_);fill:#007482;}
	.st1{clip-path:url(#SVGID_4_);}
	.st2{clip-path:url(#SVGID_6_);fill:#2C2D84;}
	.st3{clip-path:url(#SVGID_8_);fill:#1D1D1B;}
	.st4{clip-path:url(#SVGID_10_);fill:#2C2D84;}
	.st5{clip-path:url(#SVGID_12_);fill:#00A6AA;}
	.st6{clip-path:url(#SVGID_14_);fill:#00A6AA;}
	.st7{clip-path:url(#SVGID_16_);fill:#EE7402;}
	.st8{clip-path:url(#SVGID_18_);fill:#00A6AA;}
	.st9{clip-path:url(#SVGID_20_);fill:#007482;}
	.st10{clip-path:url(#SVGID_22_);fill:#EE7402;}
	.st11{clip-path:url(#SVGID_24_);fill:#1D1D1B;}
	.st12{clip-path:url(#SVGID_26_);fill:#1D1D1B;}
	.st13{clip-path:url(#SVGID_28_);fill:#1D1D1B;}
	.st14{clip-path:url(#SVGID_30_);fill:#1D1D1B;}
	.st15{clip-path:url(#SVGID_32_);fill:#1D1D1B;}
</style>
<g>
	<g>
		<g>
			<defs>
				<rect id="SVGID_1_" x="-174.6" y="-206.2" width="1190" height="841"/>
			</defs>
			<clipPath id="SVGID_2_">
				<use xlink:href="#SVGID_1_"  style="overflow:visible;"/>
			</clipPath>
			<rect x="31.2" y="189" class="st0" width="62.9" height="147.6"/>
		</g>
	</g>
</g>
<g>
	<g>
		<g>
			<defs>
				<rect id="SVGID_3_" x="-174.6" y="-207.1" width="1190.6" height="841.9"/>
			</defs>
			<clipPath id="SVGID_4_">
				<use xlink:href="#SVGID_3_"  style="overflow:visible;"/>
			</clipPath>
			<g class="st1">
				<g>
					<g>
						<defs>
							<rect id="SVGID_5_" x="-174.6" y="-206.2" width="1190" height="841"/>
						</defs>
						<clipPath id="SVGID_6_">
							<use xlink:href="#SVGID_5_"  style="overflow:visible;"/>
						</clipPath>
						<path class="st2" d="M134.2,0c-22.4,0-58.1,4.5-81,29.1c6.2,22.4,22.4,40.7,43.5,49.6c7.7-21.7,31.2-24.8,45.9-24.8
							c7.4,0,12.9,1,12.9,1V1.5C155.4,1.5,147,0,134.2,0"/>
					</g>
				</g>
				<g>
					<g>
						<defs>
							<rect id="SVGID_7_" x="-174.6" y="-206.2" width="1190" height="841"/>
						</defs>
						<clipPath id="SVGID_8_">
							<use xlink:href="#SVGID_7_"  style="overflow:visible;"/>
						</clipPath>
						<path class="st3" d="M755.9,282.1c-4.2,0.8-8.4,1.3-12.8,1.3l0,0c-36.8,0-66.6-29.8-66.6-66.6c0-4,0.2-7.9,0.9-11.6h-52.3
							l-0.4,11.6c0,65.4,53,118.4,118.4,118.4c7.4,0,14.6-0.8,21.6-2.1C756.2,317.8,752.9,300.4,755.9,282.1"/>
					</g>
				</g>
				<g>
					<g>
						<defs>
							<rect id="SVGID_9_" x="-174.6" y="-206.2" width="1190" height="841"/>
						</defs>
						<clipPath id="SVGID_10_">
							<use xlink:href="#SVGID_9_"  style="overflow:visible;"/>
						</clipPath>
						<path class="st4" d="M861.2,216.7c0-65.4-53-118.4-118.4-118.4c-61.5,0-112,46.9-117.8,106.8h52.3c5.5-31.2,32.7-55,65.5-55
							c36.8,0,66.6,29.8,66.6,66.6L861.2,216.7L861.2,216.7z"/>
					</g>
				</g>
				<g>
					<g>
						<defs>
							<rect id="SVGID_11_" x="-174.6" y="-206.2" width="1190" height="841"/>
						</defs>
						<clipPath id="SVGID_12_">
							<use xlink:href="#SVGID_11_"  style="overflow:visible;"/>
						</clipPath>
						<path class="st5" d="M809.4,216.7v4.6c-1.8,27-19.7,49.6-44.2,58.3c-3,1-6.1,1.9-9.3,2.5c-0.7,4.2-1.2,8.5-1.2,12.9
							c0,13.9,3.6,26.8,10,38.1c53.3-9.8,94.1-55.4,96.6-111v-5.4L809.4,216.7L809.4,216.7z"/>
					</g>
				</g>
				<g>
					<g>
						<defs>
							<rect id="SVGID_13_" x="-174.6" y="-206.2" width="1190" height="841"/>
						</defs>
						<clipPath id="SVGID_14_">
							<use xlink:href="#SVGID_13_"  style="overflow:visible;"/>
						</clipPath>
						<path class="st6" d="M385.8,177.4h0.9c0,0,2.3,12.9,6,25.4l2.9,9.8c16.4-1.9,30.8-8.8,42.4-19.3l-25.9-90.8h-51.7l-25.8,91.3
							c11.6,10.1,26.2,16.9,42.3,18.8l2.9-9.8C383.5,190.3,385.8,177.4,385.8,177.4"/>
					</g>
				</g>
				<g>
					<g>
						<defs>
							<rect id="SVGID_15_" x="-174.6" y="-206.2" width="1190" height="841"/>
						</defs>
						<clipPath id="SVGID_16_">
							<use xlink:href="#SVGID_15_"  style="overflow:visible;"/>
						</clipPath>
						<path class="st7" d="M340.4,336.9l25-84.4c-10.7-11.5-24.7-19.7-40.5-23.1l-7.5,26.7c-3.7,12.5-5.6,25-5.6,25h-0.9
							c0,0-1.4-12.5-4.6-25l-7.4-27.9c-20.4,2.4-38.3,12.6-50.8,27.6l25.8,81.2L340.4,336.9L340.4,336.9z"/>
					</g>
				</g>
				<g>
					<g>
						<defs>
							<rect id="SVGID_17_" x="-174.6" y="-206.2" width="1190" height="841"/>
						</defs>
						<clipPath id="SVGID_18_">
							<use xlink:href="#SVGID_17_"  style="overflow:visible;"/>
						</clipPath>
						<path class="st8" d="M217.1,159.3l31,96.4c12.4-15,30.5-25.1,50.8-27.6l-27.7-103c-4.6-18-13.9-24-33.3-24h-40.2V151h6.5
							C211.1,151,214.8,152.4,217.1,159.3"/>
					</g>
				</g>
				<g>
					<g>
						<defs>
							<rect id="SVGID_19_" x="-174.6" y="-206.2" width="1190" height="841"/>
						</defs>
						<clipPath id="SVGID_20_">
							<use xlink:href="#SVGID_19_"  style="overflow:visible;"/>
						</clipPath>
						<path class="st9" d="M540.9,205.1h-60.5l-13.3,50.8c-2.8,10.9-4.2,21.7-4.5,24.4v56.6h36.5L540.9,205.1z"/>
					</g>
				</g>
				<g>
					<g>
						<defs>
							<rect id="SVGID_21_" x="-174.6" y="-206.2" width="1190" height="841"/>
						</defs>
						<clipPath id="SVGID_22_">
							<use xlink:href="#SVGID_21_"  style="overflow:visible;"/>
						</clipPath>
						<polygon class="st10" points="31.2,101 0,101 0,151 31.2,151 31.2,189 94.1,189 94.1,151 94.1,101 						"/>
					</g>
				</g>
				<g>
					<g>
						<defs>
							<rect id="SVGID_23_" x="-174.6" y="-206.2" width="1190" height="841"/>
						</defs>
						<clipPath id="SVGID_24_">
							<use xlink:href="#SVGID_23_"  style="overflow:visible;"/>
						</clipPath>
						<path class="st11" d="M96.7,78.8c-21.1-8.9-37.3-27.2-43.5-49.6c-13,14-22,34.5-22,64.5v7.4h62.9v-6
							C94,88.7,95,83.4,96.7,78.8"/>
					</g>
				</g>
				<g>
					<g>
						<defs>
							<rect id="SVGID_25_" x="-174.6" y="-206.2" width="1190" height="841"/>
						</defs>
						<clipPath id="SVGID_26_">
							<use xlink:href="#SVGID_25_"  style="overflow:visible;"/>
						</clipPath>
						<path class="st12" d="M462.4,280.9h-0.9c0,0-1.4-12.5-5.1-25l-18.3-62.7c-11.6,10.3-26.2,17.3-42.4,19.3l37.1,124.4h29.8
							v-56.6"/>
					</g>
				</g>
				<g>
					<g>
						<defs>
							<rect id="SVGID_27_" x="-174.6" y="-206.2" width="1190" height="841"/>
						</defs>
						<clipPath id="SVGID_28_">
							<use xlink:href="#SVGID_27_"  style="overflow:visible;"/>
						</clipPath>
						<rect x="94.1" y="101" class="st13" width="54" height="50"/>
					</g>
				</g>
				<g>
					<g>
						<defs>
							<rect id="SVGID_29_" x="-174.6" y="-206.2" width="1190" height="841"/>
						</defs>
						<clipPath id="SVGID_30_">
							<use xlink:href="#SVGID_29_"  style="overflow:visible;"/>
						</clipPath>
						<path class="st14" d="M534.6,101c-19.4,0-28.7,6-33.3,24l-20.8,80H541l14.4-45.8c2.8-6.9,6-8.3,13-8.3h6.5V101L534.6,101
							L534.6,101z"/>
					</g>
				</g>
				<g>
					<g>
						<defs>
							<rect id="SVGID_31_" x="-174.6" y="-206.2" width="1190" height="841"/>
						</defs>
						<clipPath id="SVGID_32_">
							<use xlink:href="#SVGID_31_"  style="overflow:visible;"/>
						</clipPath>
						<path class="st15" d="M376.9,212.6c-16.1-1.9-30.7-8.7-42.3-18.8l-9.8,35.5c15.8,3.4,29.9,11.7,40.5,23.1L376.9,212.6z"/>
					</g>
				</g>
			</g>
		</g>
	</g>
</g>
</svg>
