<?xml version="1.0" encoding="UTF-8" standalone="no"?>
<svg
   id="Ebene_2"
   viewBox="0 0 206.82 56.700001"
   version="1.1"
   sodipodi:docname="logo.svg"
   width="206.82001"
   height="56.700001"
   inkscape:version="1.2.2 (b0a84865, 2022-12-01)"
   xmlns:inkscape="http://www.inkscape.org/namespaces/inkscape"
   xmlns:sodipodi="http://sodipodi.sourceforge.net/DTD/sodipodi-0.dtd"
   xmlns="http://www.w3.org/2000/svg"
   xmlns:svg="http://www.w3.org/2000/svg">
  <sodipodi:namedview
     id="namedview297"
     pagecolor="#ffffff"
     bordercolor="#666666"
     borderopacity="1.0"
     inkscape:showpageshadow="2"
     inkscape:pageopacity="0.0"
     inkscape:pagecheckerboard="0"
     inkscape:deskcolor="#d1d1d1"
     showgrid="false"
     inkscape:zoom="4.7290115"
     inkscape:cx="103.51"
     inkscape:cy="28.335732"
     inkscape:window-width="1390"
     inkscape:window-height="916"
     inkscape:window-x="0"
     inkscape:window-y="38"
     inkscape:window-maximized="0"
     inkscape:current-layer="Ebene_2" />
  <defs
     id="defs276">
    <style
       id="style274">.cls-1{fill:#e84614;}</style>
  </defs>
  <path
     class="cls-1"
     d="M 63.83,23.94 V 8.21 H 63.82 C 63.68,4.03 61.05,1.33 56.88,0.66 v 15.73 h 0.01 c 0.14,4.18 2.77,6.88 6.94,7.55 z"
     id="path278" />
  <path
     class="cls-1"
     d="m 56.82,37.39 h -0.01 v 18.67 c 4.17,-0.67 6.8,-3.37 6.94,-7.54 h 0.01 V 29.85 c -4.17,0.67 -6.8,3.37 -6.94,7.54 z"
     id="path280" />
  <path
     class="cls-1"
     d="m 91.6,48.5 h 0.01 c 0.14,4.18 2.77,6.88 6.94,7.55 V 37.4 H 98.54 C 98.4,33.22 95.77,30.52 91.6,29.85 Z"
     id="path282" />
  <path
     class="cls-1"
     d="m 91.62,8.2 h -0.01 v 15.75 c -0.72,0.08 -1.44,0.16 -2.15,0.16 H 65.92 c -0.72,0 -1.51,-0.08 -2.15,-0.16 v 0 c 1.47,0.18 2.62,1.43 2.62,2.95 0,1.52 -1.14,2.77 -2.62,2.95 v 0 c 0.64,-0.07 1.44,-0.15 2.15,-0.15 h 23.54 c 0.72,0 1.43,0.08 2.15,0.16 v 0 c -1.53,-0.12 -2.73,-1.39 -2.73,-2.95 0,-1.56 1.21,-2.83 2.73,-2.94 v 0 c 4.17,-0.67 6.8,-3.37 6.94,-7.54 h 0.01 V 0.67 c -4.17,0.67 -6.8,3.37 -6.94,7.54 z"
     id="path284" />
  <path
     class="cls-1"
     d="m 187.6,6.06 -0.95,-3.02 c 0,0 -0.01,-0.03 -0.02,-0.04 v 0 c -0.19,-0.62 -0.49,-1.19 -0.9,-1.66 h -0.01 C 185.61,1.2 185.48,1.08 185.35,0.96 185.32,0.93 185.29,0.9 185.26,0.88 184.59,0.34 183.72,0 182.64,0 c -1.38,0 -2.32,0.48 -2.99,1.27 -0.11,0.12 -0.2,0.25 -0.29,0.39 -0.01,0.02 -0.03,0.04 -0.04,0.06 -0.1,0.16 -0.19,0.32 -0.28,0.5 -0.01,0.03 -0.03,0.05 -0.04,0.08 -0.06,0.12 -0.11,0.24 -0.16,0.36 -0.03,0.08 -0.07,0.15 -0.1,0.24 v 0 c 0,0 -0.04,0.1 -0.06,0.15 l -0.95,3.02 c 1.47,-0.33 3.11,-0.52 4.93,-0.52 1.82,0 3.46,0.2 4.93,0.52 z"
     id="path286" />
  <path
     class="cls-1"
     d="m 197.83,21.74 c 0,0 -1.47,-5.05 -2.24,-8.4 -0.95,-4.12 -4.72,-6.54 -7.98,-7.29 l 5.64,23.58 c 2.88,-1.28 5.45,-4.76 4.59,-7.9 z"
     id="path288" />
  <path
     class="cls-1"
     d="m 203.28,41.67 -0.04,-0.04 -0.09,-0.37 c -1.24,-4.54 -4.4,-6.73 -8.59,-6.24 h -0.15 c -1.57,0 -2.87,-1.23 -2.87,-2.8 0,-1.15 0.69,-2.14 1.67,-2.59 h 0.03 l -0.02,-0.09 c -0.4,0.1 -1.34,0.07 -1.92,0.07 0,0 -13.55,0.14 -17.81,0.02 -0.47,-0.01 -1,0.01 -1.35,-0.07 l 5.62,-23.51 c -3.26,0.74 -7.03,3.17 -7.98,7.29 -0.77,3.35 -2.24,8.4 -2.24,8.4 -0.86,3.12 1.67,6.57 4.52,7.87 0.97,0.45 1.64,1.43 1.64,2.57 0,1.57 -1.27,2.84 -2.84,2.84 -0.06,0 -0.12,0 -0.17,0 v 0 c -3.98,-0.39 -7.05,1.69 -8.1,5.87 l -0.47,1.69 v 0 l -3.69,13.41 c 4.2,0.51 7.37,-1.69 8.62,-6.24 l 0.09,-0.37 0.04,-0.04 3.5,-14.22 c 0.52,-0.08 1.16,-0.14 1.74,-0.14 h 20.3 c 0.58,0 1.28,0.06 1.86,0.14 v 0 l 3.66,13.32 v 0 l 0.47,1.69 c 1.06,4.18 4.12,6.25 8.11,5.86 l -3.53,-14.31 z"
     id="path290" />
  <path
     class="cls-1"
     d="M 38.42,8.41 C 38.17,7.84 34.51,0.03 25.01,0.03 15.42,0.03 11.71,8.23 11.62,8.44 11.26,8.62 0,14.25 0,28.47 c 0,14.55 11.44,19.77 11.63,19.85 0.26,0.57 4.02,8.38 13.38,8.38 9.33,0 13.02,-7.53 13.39,-8.34 5.94,-2.76 8.76,-7.49 8.76,-13.52 V 29.72 H 29.24 c -3.16,0 -5.71,2.27 -5.71,5.34 h 17.05 v 2.69 c 0,3.87 -0.68,7.51 -2.18,10.55 -14.82,5.05 -26.4,0.15 -26.77,0 -7.55,-22.13 -0.18,-39.41 0,-39.85 0.36,-0.16 11.96,-5.07 26.8,0 1.35,2.87 0.86,3.6 1.17,6.16 0.54,4.52 4.3,6.34 7.83,6.34 l 1.07,-0.03 c 0,0 0.18,-3.17 -1.18,-5.69 -1.79,-3.32 -5.59,-5.52 -8.89,-6.82 z"
     id="path292" />
  <path
     class="cls-1"
     d="M 145.11,8.41 C 144.86,7.84 141.2,0.03 131.7,0.03 c -9.59,0 -13.3,8.2 -13.39,8.41 -0.36,0.18 -11.62,5.81 -11.62,20.03 0,14.55 11.44,19.77 11.63,19.85 0.26,0.57 4.02,8.38 13.38,8.38 9.33,0 13.02,-7.53 13.39,-8.34 5.94,-2.76 8.76,-7.49 8.76,-13.52 v -5.12 h -17.92 c -3.16,0 -5.71,2.27 -5.71,5.34 h 17.05 v 2.69 c 0,3.87 -0.68,7.51 -2.18,10.55 -14.82,5.05 -26.4,0.15 -26.77,0 -7.55,-22.13 -0.18,-39.41 0,-39.85 0.36,-0.16 11.96,-5.07 26.8,0 1.35,2.87 0.86,3.6 1.17,6.16 0.54,4.52 4.3,6.34 7.83,6.34 l 1.07,-0.03 c 0,0 0.18,-3.17 -1.18,-5.69 -1.79,-3.32 -5.59,-5.52 -8.89,-6.82 z"
     id="path294" />
</svg>
