<svg class="global-nav__logo" version="1.1" xmlns="http://www.w3.org/2000/svg" xmlns:xlink="http://www.w3.org/1999/xlink" x="0px" y="0px" viewBox="0 0 224.4 50.8" enable-background="new 0 0 224.4 50.8" xml:space="preserve" aria-hidden="true">
    <title>Illumina</title>
    <g>
        <path fill="#FFB441" d="M1.1,18.7H7L7,50H1.1L1.1,18.7z"></path>
        <path fill="#616161" d="M16.9,0h6v50h-5.9L16.9,0z"></path>
        <path fill="#616161" d="M33.1,0h6v50h-5.9L33.1,0z"></path>
        <path fill="#616161" d="M75.3,50h-5.9l0-4.8h-0.1c-1.5,3.3-5.5,5.6-10.3,5.6c-6.1,0-11.4-3.6-11.4-12l0-20.2h6v18.5
                                c0,5.9,3.4,8.1,7.1,8.1c5,0,8.7-3.2,8.7-10.4l0-16.1h6V50z"></path>
        <path fill="#616161" d="M82.9,18.7h5.6l0,4.9h0.1c0.6-1.9,4.4-5.7,10-5.7c4.6,0,7.8,2,9.8,5.8c2.1-3.8,6.2-5.8,9.9-5.8
                                c9.6,0,11.9,6.9,11.9,13.9l0,18.2h-5.9l0-17.4c0-4.8-1-9.1-6.8-9.1c-5.8,0-8,3.9-8,9.5l0,17.1h-6l0-16.4c0-5.9-0.9-10.2-6.6-10.2
                                c-4.3,0-8.1,3.2-8.1,10.3l0,16.3H83L82.9,18.7z"></path>
        <path fill="#616161" d="M138.4,18.7h6V50h-6V18.7z"></path>
        <path fill="#616161" d="M153.1,18.7h5.9l0,4.8h0.1c1.5-3.3,5.5-5.6,10.3-5.6c6.1,0,11.4,3.6,11.4,12l0,20.2h-6l0-18.5
                                c0-5.9-3.4-8.1-7.1-8.1c-5,0-8.7,3.2-8.7,10.4l0,16.1h-6V18.7z"></path>
        <path fill="#616161" d="M208.7,34.9v2c0,4.2-2.3,9.1-8.9,9.1c-4.1,0-6.7-1.5-6.7-5.1c0-5,6.9-6,12.5-6H208.7z M192.2,26.2
                                c2.2-1.7,4.4-3.6,8.9-3.6c5.1,0,7.5,3.4,7.5,6.6v1.3h-4.4c-9.5,0-17.2,2.8-17.2,10.8c0,6.1,5,9.4,10.8,9.4c4.8,0,8.3-1.5,11-5.6
                                h0.1c0,1.6,0.1,3.2,0.2,4.8h5.3c-0.2-1.7-0.3-3.5-0.3-5.7l0-16c0-5.4-3.8-10.4-13.1-10.4c-4.4,0-9.1,1.5-12.4,4.6L192.2,26.2z"></path>
        <path fill="#FFB441" d="M4,3.7c-2.2,0-4,1.8-4,4c0,2.2,1.8,4,4,4c2.2,0,4-1.8,4-4C8,5.5,6.2,3.7,4,3.7z"></path>
        <path fill="#616161" d="M218.5,19.7h0.9v-2h0.7l1.2,2h0.9l-1.3-2.1c0.7-0.1,1.2-0.5,1.2-1.3c0-0.9-0.6-1.5-1.7-1.5h-1.9V19.7z
                                M219.4,15.5h0.7c0.6,0,1.2,0,1.2,0.7c0,0.6-0.6,0.7-1.2,0.7h-0.7V15.5z M215.9,17.3c0,2.4,1.9,4.3,4.3,4.3c2.4,0,4.3-1.9,4.3-4.3
                                c0-2.4-1.9-4.3-4.3-4.3C217.8,13,215.9,14.9,215.9,17.3z M216.6,17.3c0-1.9,1.6-3.5,3.5-3.5c1.9,0,3.5,1.6,3.5,3.5
                                c0,1.9-1.6,3.5-3.5,3.5C218.2,20.8,216.6,19.2,216.6,17.3z"></path>
    </g>
</svg>
