<?xml version="1.0" encoding="UTF-8" standalone="no"?>
<!-- Created with Inkscape (http://www.inkscape.org/) -->

<svg
   xmlns:dc="http://purl.org/dc/elements/1.1/"
   xmlns:cc="http://creativecommons.org/ns#"
   xmlns:rdf="http://www.w3.org/1999/02/22-rdf-syntax-ns#"
   xmlns:svg="http://www.w3.org/2000/svg"
   xmlns="http://www.w3.org/2000/svg"
   xmlns:sodipodi="http://sodipodi.sourceforge.net/DTD/sodipodi-0.dtd"
   xmlns:inkscape="http://www.inkscape.org/namespaces/inkscape"
   version="1.1"
   width="421.89853"
   height="462.92477"
   id="svg2"
   style="enable-background:new"
   inkscape:version="0.48.2 r9819"
   sodipodi:docname="logo_ifb_2013-01-10.svg"
   inkscape:export-filename="/home/alban/Documents/Duron-Sync/Arbeit/Kunden/HUB/Webseiten-Biologie/Pictures-IfB/Logo-IfB/1406x1543px-300dpi-mT.jpg.png"
   inkscape:export-xdpi="299.92993"
   inkscape:export-ydpi="299.92993">
  <sodipodi:namedview
     pagecolor="#ffffff"
     bordercolor="#666666"
     borderopacity="1"
     objecttolerance="10"
     gridtolerance="10"
     guidetolerance="10"
     inkscape:pageopacity="0"
     inkscape:pageshadow="2"
     inkscape:window-width="1280"
     inkscape:window-height="753"
     id="namedview86"
     showgrid="false"
     inkscape:zoom="0.9868026"
     inkscape:cx="-19.971378"
     inkscape:cy="231.46239"
     inkscape:window-x="-2"
     inkscape:window-y="-3"
     inkscape:window-maximized="1"
     inkscape:current-layer="layer5" />
  <defs
     id="defs4" />
  <metadata
     id="metadata7">
    <rdf:RDF>
      <cc:Work
         rdf:about="">
        <dc:format>image/svg+xml</dc:format>
        <dc:type
           rdf:resource="http://purl.org/dc/dcmitype/StillImage" />
        <dc:title />
      </cc:Work>
    </rdf:RDF>
  </metadata>
  <g
     transform="translate(-4.5113607e-6,4.6792369e-6)"
     id="layer2"
     style="display:none">
    <path
       d="m 367.14287,441.64789 a 167.85715,167.85715 0 1 1 -335.714296,0 167.85715,167.85715 0 1 1 335.714296,0 z"
       transform="matrix(1.0127659,0,0,1.0127659,9.2847955,-241.85286)"
       id="path3025"
       style="fill:#4e9900;fill-opacity:0;display:inline" />
  </g>
  <g
     transform="translate(-4.5113607e-6,4.6792369e-6)"
     id="g3979"
     style="display:none">
    <path
       d="m 109.21875,341.1875 0.53125,-2.84375 c -7.18438,-5.50558 -14.041437,-11.43086 -20.25,-18 l -0.59375,3.125 c 6.249506,6.46975 13.11425,12.2984 20.3125,17.71875 z"
       transform="translate(4.5113607e-6,-4.6792369e-6)"
       id="path4198"
       style="fill:#000000;fill-opacity:1;stroke:none;display:inline" />
    <path
       d="m 169.625,370.03125 0.4375,-2.4375 c -9.56526,-2.4489 -18.88625,-5.5525 -27.71875,-9.5625 l -0.46875,2.5625 c 8.84917,3.96709 18.18404,7.00401 27.75,9.4375 z"
       transform="translate(4.5113607e-6,-4.6792369e-6)"
       id="path4207"
       style="fill:#000000;fill-opacity:1;stroke:none;display:inline" />
    <path
       d="m 211.125,35.4375 c -93.8884,0 -170,76.1116 -170,170 0,27.56626 6.729091,53.50636 18.375,76.53125 l 0.75,-4.125 C 49.69899,255.90418 43.625,231.41119 43.625,205.4375 c 0,-92.50967 74.99033,-167.5 167.5,-167.5 92.50967,0 167.5,74.99033 167.5,167.5 0,70.85224 -44.06147,131.30178 -106.21875,155.78125 -1.49849,1.30478 -3.04399,2.56804 -4.65625,3.71875 -0.74901,0.53458 -1.56918,0.96706 -2.34375,1.46875 C 332.64348,343.73683 381.125,280.32107 381.125,205.4375 c 0,-93.8884 -76.1116,-170 -170,-170 z"
       transform="translate(4.5113607e-6,-4.6792369e-6)"
       id="path3981"
       style="fill:#000000;fill-opacity:1;stroke:none;display:inline" />
  </g>
  <g
     transform="translate(-119.59971,-278.84226)"
     id="layer1"
     style="display:none">
    <g
       id="g3119">
      <text
         x="158.21707"
         y="680.14478"
         id="text3000"
         xml:space="preserve"
         style="font-size:32.90462112px;font-style:normal;font-weight:normal;line-height:125%;letter-spacing:0px;word-spacing:0px;fill:#000000;fill-opacity:1;stroke:none;font-family:Sans"><tspan
           x="158.21707"
           y="680.14478"
           id="tspan3002"
           style="font-size:24.60000038px;font-style:oblique;font-variant:normal;font-weight:600;font-stretch:normal;letter-spacing:0.34999999px;word-spacing:1.57000005px;font-family:URW Gothic L;-inkscape-font-specification:URW Gothic L Semi-Bold Oblique">Institut f체r Biologie</tspan></text>
      <text
         x="153.35999"
         y="706.01416"
         id="text3000-5"
         xml:space="preserve"
         style="font-size:25.29788971px;font-style:normal;font-weight:normal;line-height:125%;letter-spacing:0px;word-spacing:0px;fill:#000000;fill-opacity:1;stroke:none;font-family:Sans"><tspan
           x="153.35999"
           y="706.01416"
           id="tspan3002-5"
           style="font-size:24.60000038px;font-style:oblique;font-variant:normal;font-weight:600;font-stretch:normal;font-family:URW Gothic L;-inkscape-font-specification:URW Gothic L Semi-Bold Oblique">Humboldt-Universit채t zu Berlin</tspan></text>
      <text
         x="149.41415"
         y="654.27539"
         id="text2996-8"
         xml:space="preserve"
         style="font-size:227.75944519px;font-style:normal;font-weight:normal;line-height:125%;letter-spacing:0px;word-spacing:0px;fill:#000000;fill-opacity:1;stroke:#ffffff;stroke-width:0;stroke-miterlimit:4;stroke-opacity:1;stroke-dasharray:none;font-family:Sans"><tspan
           x="149.41415"
           y="654.27539"
           id="tspan2998-2"
           style="font-size:226.4026947px;font-style:oblique;font-variant:normal;font-weight:600;font-stretch:normal;fill:#000000;fill-opacity:1;stroke:#ffffff;stroke-width:0;stroke-miterlimit:4;stroke-opacity:1;stroke-dasharray:none;font-family:URW Gothic L;-inkscape-font-specification:URW Gothic L Semi-Bold Oblique">IfB</tspan></text>
    </g>
  </g>
  <g
     transform="translate(-119.59971,-278.84226)"
     id="g4060"
     style="display:none">
    <g
       id="g4082">
      <text
         x="158.21707"
         y="680.14478"
         id="text4064"
         xml:space="preserve"
         style="font-size:32.90462112px;font-style:normal;font-weight:normal;line-height:125%;letter-spacing:0px;word-spacing:0px;fill:#000000;fill-opacity:1;stroke:none;font-family:Sans"><tspan
           x="158.21707"
           y="680.14478"
           id="tspan4066"
           style="font-size:24.60000038px;font-style:oblique;font-variant:normal;font-weight:600;font-stretch:normal;letter-spacing:0.34999999px;word-spacing:1.57000005px;font-family:URW Gothic L;-inkscape-font-specification:URW Gothic L Semi-Bold Oblique">Institut f체r Biologie</tspan></text>
      <text
         x="153.35999"
         y="706.01416"
         id="text4068"
         xml:space="preserve"
         style="font-size:25.29788971px;font-style:normal;font-weight:normal;line-height:125%;letter-spacing:0px;word-spacing:0px;fill:#000000;fill-opacity:1;stroke:none;font-family:Sans"><tspan
           x="153.35999"
           y="706.01416"
           id="tspan4070"
           style="font-size:24.60000038px;font-style:oblique;font-variant:normal;font-weight:600;font-stretch:normal;font-family:URW Gothic L;-inkscape-font-specification:URW Gothic L Semi-Bold Oblique">Humboldt-Universit채t zu Berlin</tspan></text>
    </g>
  </g>
  <g
     transform="translate(-119.59971,-278.84226)"
     id="g4088"
     style="display:none">
    <text
       x="149.41415"
       y="654.27539"
       id="text4100"
       xml:space="preserve"
       style="font-size:227.75944519px;font-style:normal;font-weight:normal;line-height:125%;letter-spacing:0px;word-spacing:0px;fill:#000000;fill-opacity:1;stroke:#ffffff;stroke-width:0;stroke-miterlimit:4;stroke-opacity:1;stroke-dasharray:none;font-family:Sans"><tspan
         x="149.41415"
         y="654.27539"
         id="tspan4102"
         style="font-size:226.4026947px;font-style:oblique;font-variant:normal;font-weight:600;font-stretch:normal;fill:#000000;fill-opacity:1;stroke:#ffffff;stroke-width:0;stroke-miterlimit:4;stroke-opacity:1;stroke-dasharray:none;font-family:URW Gothic L;-inkscape-font-specification:URW Gothic L Semi-Bold Oblique">IfB</tspan></text>
  </g>
  <g
     inkscape:groupmode="layer"
     id="layer5"
     inkscape:label="Institut + HU"
     style="display:inline"
     sodipodi:insensitive="true">
    <g
       transform="translate(-119.59971,-278.84226)"
       id="g4120"
       style="display:inline;enable-background:new"
       inkscape:export-filename="/home/alban/Documents/Duron-Sync/Arbeit/Kunden/HUB/Webseiten-Biologie/Pictures-IfB/Logo-IfB/1170x1307px-300dpi_mT.png"
       inkscape:export-xdpi="299.97229"
       inkscape:export-ydpi="299.97229">
      <g
         id="g4132">
        <g
           id="g4122">
          <g
             id="text4124"
             style="font-size:32.90462112px;font-style:normal;font-weight:normal;line-height:125%;letter-spacing:0px;word-spacing:0px;fill:#000000;fill-opacity:1;stroke:none;font-family:Sans">
            <path
               inkscape:connector-curvature="0"
               d="m 159.88987,680.14478 3.3702,0 3.3702,-18.1794 -3.3702,0 -3.3702,18.1794"
               id="path4140"
               style="font-size:24.60000038px;font-style:oblique;font-variant:normal;font-weight:600;font-stretch:normal;letter-spacing:0.34999999px;word-spacing:1.57000005px;font-family:URW Gothic L;-inkscape-font-specification:URW Gothic L Semi-Bold Oblique" />
            <path
               inkscape:connector-curvature="0"
               d="m 166.76617,680.14478 3.2718,0 1.1808,-6.4206 c 0.3198,-1.7712 0.63961,-2.63221 1.1562,-3.2718 0.7134,-0.8364 1.59901,-1.2546 2.6076,-1.2546 1.353,0 2.0664,0.6888 2.0664,2.0172 0,0.71339 -0.0738,1.4514 -0.2214,2.2632 l -1.23,6.6666 3.2718,0 1.353,-7.3062 c 0.1968,-1.0824 0.2952,-1.91881 0.2952,-2.6076 0,-2.6076 -1.5744,-4.0344 -4.3788,-4.0344 -1.50059,0 -2.5584,0.4182 -4.059,1.6236 l 0.246,-1.3038 -3.0258,0 -2.5338,13.6284"
               id="path4142"
               style="font-size:24.60000038px;font-style:oblique;font-variant:normal;font-weight:600;font-stretch:normal;letter-spacing:0.34999999px;word-spacing:1.57000005px;font-family:URW Gothic L;-inkscape-font-specification:URW Gothic L Semi-Bold Oblique" />
            <path
               inkscape:connector-curvature="0"
               d="m 181.79277,675.81518 c -0.0246,0.36899 -0.0492,0.6888 -0.0492,0.9594 0,2.18939 1.6974,3.69 4.1574,3.69 3.07499,0 5.8302,-2.58301 5.8302,-5.4612 0,-1.6236 -0.76261,-2.41081 -3.0996,-3.1734 -1.23,-0.3936 -1.23,-0.3936 -1.5252,-0.5658 -0.2952,-0.1722 -0.492,-0.44281 -0.492,-0.7134 0,-0.7134 0.6642,-1.353 1.4268,-1.353 0.6888,0 1.0578,0.369 1.0824,1.0824 l 3.198,0 c 0.0492,-0.369 0.0738,-0.68881 0.0738,-0.9348 0,-1.6974 -1.72201,-3.1488 -3.7392,-3.1488 -2.9274,0 -5.412,2.2386 -5.412,4.8462 0,1.72199 0.7134,2.5092 3.0996,3.3456 1.67279,0.59039 2.0172,0.861 2.0172,1.5006 0,0.86099 -0.8118,1.5744 -1.7466,1.5744 -0.9594,0 -1.5006,-0.56581 -1.5252,-1.6482 l -3.2964,0"
               id="path4144"
               style="font-size:24.60000038px;font-style:oblique;font-variant:normal;font-weight:600;font-stretch:normal;letter-spacing:0.34999999px;word-spacing:1.57000005px;font-family:URW Gothic L;-inkscape-font-specification:URW Gothic L Semi-Bold Oblique" />
            <path
               inkscape:connector-curvature="0"
               d="m 193.51911,680.14478 3.2718,0 1.968,-10.6518 1.968,0 0.5658,-2.9766 -1.968,0 0.8364,-4.551 -3.2718,0 -0.8364,4.551 -1.599,0 -0.5658,2.9766 1.599,0 -1.968,10.6518"
               id="path4146"
               style="font-size:24.60000038px;font-style:oblique;font-variant:normal;font-weight:600;font-stretch:normal;letter-spacing:0.34999999px;word-spacing:1.57000005px;font-family:URW Gothic L;-inkscape-font-specification:URW Gothic L Semi-Bold Oblique" />
            <path
               inkscape:connector-curvature="0"
               d="m 200.77633,680.14478 3.2718,0 2.5338,-13.6284 -3.2718,0 -2.5338,13.6284 m 2.8044,-15.1044 3.2718,0 0.5658,-3.075 -3.2718,0 -0.5658,3.075"
               id="path4148"
               style="font-size:24.60000038px;font-style:oblique;font-variant:normal;font-weight:600;font-stretch:normal;letter-spacing:0.34999999px;word-spacing:1.57000005px;font-family:URW Gothic L;-inkscape-font-specification:URW Gothic L Semi-Bold Oblique" />
            <path
               inkscape:connector-curvature="0"
               d="m 207.5281,680.14478 3.2718,0 1.968,-10.6518 1.968,0 0.5658,-2.9766 -1.968,0 0.8364,-4.551 -3.2718,0 -0.8364,4.551 -1.599,0 -0.5658,2.9766 1.599,0 -1.968,10.6518"
               id="path4150"
               style="font-size:24.60000038px;font-style:oblique;font-variant:normal;font-weight:600;font-stretch:normal;letter-spacing:0.34999999px;word-spacing:1.57000005px;font-family:URW Gothic L;-inkscape-font-specification:URW Gothic L Semi-Bold Oblique" />
            <path
               inkscape:connector-curvature="0"
               d="m 229.44692,666.51638 -3.2718,0 -1.1808,6.4206 c -0.3198,1.69739 -0.6396,2.6814 -1.1316,3.2718 -0.6396,0.81179 -1.6482,1.2546 -2.7798,1.2546 -1.2546,0 -2.0172,-0.71341 -2.0172,-1.9188 0,-0.6642 0.0738,-1.50061 0.246,-2.3616 l 1.23,-6.6666 -3.2718,0 -1.353,7.3062 c -0.1968,1.05779 -0.2952,1.9434 -0.2952,2.583 0,1.05779 0.492,2.2878 1.1562,2.9766 0.6888,0.68879 1.7712,1.0824 3.075,1.0824 1.6728,0 2.8782,-0.46741 4.2804,-1.6236 l -0.246,1.3038 3.0258,0 2.5338,-13.6284"
               id="path4152"
               style="font-size:24.60000038px;font-style:oblique;font-variant:normal;font-weight:600;font-stretch:normal;letter-spacing:0.34999999px;word-spacing:1.57000005px;font-family:URW Gothic L;-inkscape-font-specification:URW Gothic L Semi-Bold Oblique" />
            <path
               inkscape:connector-curvature="0"
               d="m 230.3777,680.14478 3.2718,0 1.968,-10.6518 1.968,0 0.5658,-2.9766 -1.968,0 0.8364,-4.551 -3.2718,0 -0.8364,4.551 -1.599,0 -0.5658,2.9766 1.599,0 -1.968,10.6518"
               id="path4154"
               style="font-size:24.60000038px;font-style:oblique;font-variant:normal;font-weight:600;font-stretch:normal;letter-spacing:0.34999999px;word-spacing:1.57000005px;font-family:URW Gothic L;-inkscape-font-specification:URW Gothic L Semi-Bold Oblique" />
            <path
               inkscape:connector-curvature="0"
               d="m 246.49943,680.14478 3.2718,0 1.968,-10.6518 1.9188,0 0.5166,-2.7306 -1.9188,0 c 0.1476,-1.1316 0.7626,-1.6482 1.968,-1.6482 l 0.2706,0 0.1722,0 0.5904,-3.0996 c -0.5412,-0.0492 -0.738,-0.0492 -0.9594,-0.0492 -1.3776,0 -2.6076,0.5166 -3.6408,1.5498 -0.8118,0.81179 -1.2546,1.6482 -1.6728,3.2472 l -1.1808,0 -0.5166,2.7306 1.1808,0 -1.968,10.6518"
               id="path4156"
               style="font-size:24.60000038px;font-style:oblique;font-variant:normal;font-weight:600;font-stretch:normal;letter-spacing:0.34999999px;word-spacing:1.57000005px;font-family:URW Gothic L;-inkscape-font-specification:URW Gothic L Semi-Bold Oblique" />
            <path
               inkscape:connector-curvature="0"
               d="m 268.30793,666.51638 -3.2718,0 -1.1808,6.4206 c -0.3198,1.69739 -0.6396,2.6814 -1.1316,3.2718 -0.6396,0.81179 -1.6482,1.2546 -2.7798,1.2546 -1.2546,0 -2.0172,-0.71341 -2.0172,-1.9188 0,-0.6642 0.0738,-1.50061 0.246,-2.3616 l 1.23,-6.6666 -3.2718,0 -1.353,7.3062 c -0.1968,1.05779 -0.2952,1.9434 -0.2952,2.583 0,1.05779 0.492,2.2878 1.1562,2.9766 0.6888,0.68879 1.7712,1.0824 3.075,1.0824 1.6728,0 2.8782,-0.46741 4.2804,-1.6236 l -0.246,1.3038 3.0258,0 2.5338,-13.6284 m -10.0368,-1.8696 3.2718,0 0.615,-3.2472 -3.2718,0 -0.615,3.2472 m 5.166,0 3.2718,0 0.615,-3.2472 -3.2718,0 -0.615,3.2472"
               id="path4158"
               style="font-size:24.60000038px;font-style:oblique;font-variant:normal;font-weight:600;font-stretch:normal;letter-spacing:0.34999999px;word-spacing:1.57000005px;font-family:URW Gothic L;-inkscape-font-specification:URW Gothic L Semi-Bold Oblique" />
            <path
               inkscape:connector-curvature="0"
               d="m 268.74673,680.14478 3.2718,0 1.4022,-7.5768 c 0.2706,-1.968 1.6236,-3.198 3.5424,-3.2226 l 0.5904,-3.1488 c -1.599,-0.0492 -2.46,0.369 -3.5178,1.6482 l 0.246,-1.3284 -3.0012,0 -2.5338,13.6284"
               id="path4160"
               style="font-size:24.60000038px;font-style:oblique;font-variant:normal;font-weight:600;font-stretch:normal;letter-spacing:0.34999999px;word-spacing:1.57000005px;font-family:URW Gothic L;-inkscape-font-specification:URW Gothic L Semi-Bold Oblique" />
            <path
               inkscape:connector-curvature="0"
               d="m 286.11151,680.14478 4.8462,0 c 2.6814,0 4.551,-0.59041 5.9532,-1.845 1.3284,-1.1808 2.1156,-2.92741 2.1156,-4.6494 0,-1.722 -0.6396,-2.68141 -2.3616,-3.4194 0.861,-0.3936 1.2792,-0.71341 1.722,-1.3038 0.615,-0.8364 0.984,-1.94341 0.984,-3.0504 0,-1.3038 -0.492,-2.36161 -1.4268,-3.0504 -0.9594,-0.6888 -1.9434,-0.861 -4.6986,-0.861 l -3.7638,0 -3.3702,18.1794 m 3.9606,-3.2472 0.861,-4.6248 1.599,0 c 2.1402,0 3.0504,0.5658 3.0504,1.9434 0,0.61499 -0.2214,1.2054 -0.6642,1.6974 -0.6396,0.73799 -1.4514,0.984 -3.1734,0.984 l -1.6728,0 m 1.476,-7.9212 0.6888,-3.7638 1.3776,0 c 1.5006,0 2.3124,0.492 2.3124,1.4268 0,0.51659 -0.246,1.2054 -0.5658,1.5744 -0.4428,0.49199 -1.4022,0.7626 -2.7306,0.7626 l -1.0824,0"
               id="path4162"
               style="font-size:24.60000038px;font-style:oblique;font-variant:normal;font-weight:600;font-stretch:normal;letter-spacing:0.34999999px;word-spacing:1.57000005px;font-family:URW Gothic L;-inkscape-font-specification:URW Gothic L Semi-Bold Oblique" />
            <path
               inkscape:connector-curvature="0"
               d="m 300.38704,680.14478 3.2718,0 2.5338,-13.6284 -3.2718,0 -2.5338,13.6284 m 2.8044,-15.1044 3.2718,0 0.5658,-3.075 -3.2718,0 -0.5658,3.075"
               id="path4164"
               style="font-size:24.60000038px;font-style:oblique;font-variant:normal;font-weight:600;font-stretch:normal;letter-spacing:0.34999999px;word-spacing:1.57000005px;font-family:URW Gothic L;-inkscape-font-specification:URW Gothic L Semi-Bold Oblique" />
            <path
               inkscape:connector-curvature="0"
               d="m 315.92101,666.19658 c -4.6248,0 -8.733,4.0098 -8.733,8.5116 0,3.27179 2.583,5.7564 5.9532,5.7564 4.62479,0 8.7822,-3.96061 8.7822,-8.364 0,-3.4194 -2.50921,-5.904 -6.0024,-5.904 m -0.5658,3.0012 c 1.84499,0 3.198,1.4268 3.198,3.3456 0,2.53379 -2.28781,4.92 -4.7478,4.92 -1.8696,0 -3.2472,-1.40221 -3.2472,-3.321 0,-2.583 2.2878,-4.9446 4.797,-4.9446"
               id="path4166"
               style="font-size:24.60000038px;font-style:oblique;font-variant:normal;font-weight:600;font-stretch:normal;letter-spacing:0.34999999px;word-spacing:1.57000005px;font-family:URW Gothic L;-inkscape-font-specification:URW Gothic L Semi-Bold Oblique" />
            <path
               inkscape:connector-curvature="0"
               d="m 322.75618,680.14478 3.2718,0 3.3702,-18.1794 -3.2718,0 -3.3702,18.1794"
               id="path4168"
               style="font-size:24.60000038px;font-style:oblique;font-variant:normal;font-weight:600;font-stretch:normal;letter-spacing:0.34999999px;word-spacing:1.57000005px;font-family:URW Gothic L;-inkscape-font-specification:URW Gothic L Semi-Bold Oblique" />
            <path
               inkscape:connector-curvature="0"
               d="m 338.29015,666.19658 c -4.6248,0 -8.733,4.0098 -8.733,8.5116 0,3.27179 2.583,5.7564 5.9532,5.7564 4.62479,0 8.7822,-3.96061 8.7822,-8.364 0,-3.4194 -2.50921,-5.904 -6.0024,-5.904 m -0.5658,3.0012 c 1.84499,0 3.198,1.4268 3.198,3.3456 0,2.53379 -2.28781,4.92 -4.7478,4.92 -1.8696,0 -3.2472,-1.40221 -3.2472,-3.321 0,-2.583 2.2878,-4.9446 4.797,-4.9446"
               id="path4170"
               style="font-size:24.60000038px;font-style:oblique;font-variant:normal;font-weight:600;font-stretch:normal;letter-spacing:0.34999999px;word-spacing:1.57000005px;font-family:URW Gothic L;-inkscape-font-specification:URW Gothic L Semi-Bold Oblique" />
            <path
               inkscape:connector-curvature="0"
               d="m 358.23712,666.51638 -0.3198,1.722 c -0.9348,-1.4514 -2.1156,-2.0418 -4.0098,-2.0418 -4.47719,0 -8.241,3.936 -8.241,8.61 0,3.44399 2.1648,5.658 5.535,5.658 1.9188,0 3.2718,-0.59041 4.8462,-2.1156 -0.3198,1.27919 -0.5412,1.845 -0.984,2.4846 -0.8364,1.22999 -2.091,1.8696 -3.6408,1.8696 -1.5498,0 -2.4354,-0.41821 -3.1734,-1.4514 l -3.7146,0 c 0.7872,2.87819 2.8536,4.3296 6.1992,4.3296 2.5092,0 4.551,-0.83641 6.15,-2.4846 1.23,-1.2792 1.968,-2.95201 2.4354,-5.535 l 2.0418,-11.0454 -3.1242,0 m -4.5264,2.6814 c 1.9434,0 3.2226,1.2792 3.2226,3.198 0,1.03319 -0.4182,2.3124 -1.0332,3.198 -0.8364,1.18079 -2.1894,1.8696 -3.7146,1.8696 -1.968,0 -3.1488,-1.15621 -3.1488,-3.0504 0,-3.0258 1.968,-5.2152 4.674,-5.2152"
               id="path4172"
               style="font-size:24.60000038px;font-style:oblique;font-variant:normal;font-weight:600;font-stretch:normal;letter-spacing:0.34999999px;word-spacing:1.57000005px;font-family:URW Gothic L;-inkscape-font-specification:URW Gothic L Semi-Bold Oblique" />
            <path
               inkscape:connector-curvature="0"
               d="m 361.71516,680.14478 3.2718,0 2.5338,-13.6284 -3.2718,0 -2.5338,13.6284 m 2.8044,-15.1044 3.2718,0 0.5658,-3.075 -3.2718,0 -0.5658,3.075"
               id="path4174"
               style="font-size:24.60000038px;font-style:oblique;font-variant:normal;font-weight:600;font-stretch:normal;letter-spacing:0.34999999px;word-spacing:1.57000005px;font-family:URW Gothic L;-inkscape-font-specification:URW Gothic L Semi-Bold Oblique" />
            <path
               inkscape:connector-curvature="0"
               d="m 382.51353,674.78198 c 0.3198,-0.7626 0.492,-1.86961 0.492,-3.0504 0,-3.2472 -2.4108,-5.535 -5.8302,-5.535 -4.551,0 -8.6592,4.0098 -8.6592,8.4624 0,3.41939 2.5338,5.8056 6.1746,5.8056 3.075,0 5.8794,-1.64821 7.3554,-4.3542 l -3.567,0 c -0.9348,0.93479 -1.9434,1.353 -3.321,1.353 -1.8696,0 -3.198,-1.10701 -3.198,-2.6814 l 10.5534,0 m -10.1106,-2.9028 c 0.6396,-1.599 2.3616,-2.6814 4.2558,-2.6814 2.091,0 3.198,0.9102 3.2964,2.6814 l -7.5522,0"
               id="path4176"
               style="font-size:24.60000038px;font-style:oblique;font-variant:normal;font-weight:600;font-stretch:normal;letter-spacing:0.34999999px;word-spacing:1.57000005px;font-family:URW Gothic L;-inkscape-font-specification:URW Gothic L Semi-Bold Oblique" />
          </g>
          <g
             id="text4128"
             style="font-size:25.29788971px;font-style:normal;font-weight:normal;line-height:125%;letter-spacing:0px;word-spacing:0px;fill:#000000;fill-opacity:1;stroke:none;font-family:Sans">
            <path
               inkscape:connector-curvature="0"
               d="m 155.03279,706.01416 3.3702,0 1.4022,-7.626 6.4944,0 -1.4022,7.626 3.3702,0 3.3702,-18.1794 -3.3702,0 -1.353,7.3062 -6.4944,0 1.353,-7.3062 -3.3702,0 -3.3702,18.1794"
               id="path4179"
               style="font-size:24.60000038px;font-style:oblique;font-variant:normal;font-weight:600;font-stretch:normal;font-family:URW Gothic L;-inkscape-font-specification:URW Gothic L Semi-Bold Oblique" />
            <path
               inkscape:connector-curvature="0"
               d="m 186.0703,692.38576 -3.2718,0 -1.1808,6.4206 c -0.3198,1.6974 -0.6396,2.6814 -1.1316,3.2718 -0.6396,0.8118 -1.6482,1.2546 -2.7798,1.2546 -1.2546,0 -2.0172,-0.7134 -2.0172,-1.9188 0,-0.6642 0.0738,-1.5006 0.246,-2.3616 l 1.23,-6.6666 -3.2718,0 -1.353,7.3062 c -0.1968,1.0578 -0.2952,1.9434 -0.2952,2.583 0,1.0578 0.492,2.2878 1.1562,2.9766 0.6888,0.6888 1.7712,1.0824 3.075,1.0824 1.6728,0 2.8782,-0.4674 4.2804,-1.6236 l -0.246,1.3038 3.0258,0 2.5338,-13.6284"
               id="path4181"
               style="font-size:24.60000038px;font-style:oblique;font-variant:normal;font-weight:600;font-stretch:normal;font-family:URW Gothic L;-inkscape-font-specification:URW Gothic L Semi-Bold Oblique" />
            <path
               inkscape:connector-curvature="0"
               d="m 186.15909,706.01416 3.2718,0 1.2546,-6.7158 c 0.2706,-1.5006 0.5166,-2.2386 0.861,-2.829 0.5904,-0.9102 1.5006,-1.4022 2.583,-1.4022 0.861,0 1.5744,0.3198 1.9188,0.8856 0.1722,0.2706 0.246,0.6396 0.246,1.23 0,0.246 -0.0738,0.7872 -0.1722,1.353 l -1.3776,7.4784 3.2718,0 1.2546,-6.7158 c 0.2952,-1.6236 0.5412,-2.337 0.984,-2.9274 0.615,-0.8364 1.5498,-1.3038 2.583,-1.3038 1.2054,0 2.0418,0.7626 2.0418,1.8204 0,0.4674 -0.0492,1.0332 -0.1722,1.6482 l -1.3776,7.4784 3.2718,0 1.4514,-7.872 c 0.123,-0.7134 0.1968,-1.3776 0.1968,-2.0172 0,-2.5584 -1.6728,-4.059 -4.551,-4.059 -1.968,0 -3.5178,0.6888 -4.797,2.1156 -0.3198,-0.7626 -0.5658,-1.0824 -1.0578,-1.4268 -0.6888,-0.4674 -1.5006,-0.6888 -2.5092,-0.6888 -1.6482,0 -2.7552,0.4674 -3.8868,1.599 l 0.246,-1.2792 -3.0012,0 -2.5338,13.6284"
               id="path4183"
               style="font-size:24.60000038px;font-style:oblique;font-variant:normal;font-weight:600;font-stretch:normal;font-family:URW Gothic L;-inkscape-font-specification:URW Gothic L Semi-Bold Oblique" />
            <path
               inkscape:connector-curvature="0"
               d="m 209.26964,706.01416 3.0012,0 0.3198,-1.7466 c 0.615,0.7626 0.9348,1.0824 1.4022,1.353 0.7134,0.4428 1.8942,0.7134 3.0258,0.7134 2.3616,0 4.5018,-1.1316 6.1254,-3.2226 1.1808,-1.5498 1.8942,-3.6408 1.8942,-5.535 0,-3.321 -2.3124,-5.6826 -5.535,-5.6826 -1.1808,0 -2.46,0.2952 -3.3456,0.7872 -0.369,0.1968 -0.6642,0.4182 -1.3284,0.9594 l 1.0824,-5.8056 -3.2718,0 -3.3702,18.1794 m 9.1266,-11.1192 c 1.9926,0 3.2718,1.3284 3.2718,3.3948 0,2.7552 -2.1894,5.043 -4.8216,5.043 -1.968,0 -3.321,-1.3284 -3.321,-3.2472 0,-2.8536 2.1894,-5.1906 4.8708,-5.1906"
               id="path4185"
               style="font-size:24.60000038px;font-style:oblique;font-variant:normal;font-weight:600;font-stretch:normal;font-family:URW Gothic L;-inkscape-font-specification:URW Gothic L Semi-Bold Oblique" />
            <path
               inkscape:connector-curvature="0"
               d="m 234.78368,692.06596 c -4.6248,0 -8.733,4.0098 -8.733,8.5116 0,3.2718 2.583,5.7564 5.9532,5.7564 4.62479,0 8.7822,-3.9606 8.7822,-8.364 0,-3.4194 -2.50921,-5.904 -6.0024,-5.904 m -0.5658,3.0012 c 1.84499,0 3.198,1.4268 3.198,3.3456 0,2.5338 -2.28781,4.92 -4.7478,4.92 -1.8696,0 -3.2472,-1.4022 -3.2472,-3.321 0,-2.583 2.2878,-4.9446 4.797,-4.9446"
               id="path4187"
               style="font-size:24.60000038px;font-style:oblique;font-variant:normal;font-weight:600;font-stretch:normal;font-family:URW Gothic L;-inkscape-font-specification:URW Gothic L Semi-Bold Oblique" />
            <path
               inkscape:connector-curvature="0"
               d="m 241.26885,706.01416 3.2718,0 3.3702,-18.1794 -3.2718,0 -3.3702,18.1794"
               id="path4189"
               style="font-size:24.60000038px;font-style:oblique;font-variant:normal;font-weight:600;font-stretch:normal;font-family:URW Gothic L;-inkscape-font-specification:URW Gothic L Semi-Bold Oblique" />
            <path
               inkscape:connector-curvature="0"
               d="m 264.30022,687.83476 -3.2718,0 -1.0578,5.7564 c -0.738,-1.0578 -2.214,-1.6974 -3.8868,-1.6974 -4.428,0 -8.364,4.0836 -8.364,8.7084 0,3.444 2.2632,5.7318 5.658,5.7318 1.8204,0 3.3702,-0.6642 4.8954,-2.091 l -0.3444,1.7712 3.0012,0 3.3702,-18.1794 m -8.2902,7.0602 c 1.968,0 3.2718,1.353 3.2718,3.3948 0,2.6322 -2.2878,5.043 -4.797,5.043 -2.0172,0 -3.3948,-1.4022 -3.3948,-3.4194 0,-2.706 2.2632,-5.0184 4.92,-5.0184"
               id="path4191"
               style="font-size:24.60000038px;font-style:oblique;font-variant:normal;font-weight:600;font-stretch:normal;font-family:URW Gothic L;-inkscape-font-specification:URW Gothic L Semi-Bold Oblique" />
            <path
               inkscape:connector-curvature="0"
               d="m 263.91047,706.01416 3.2718,0 1.968,-10.6518 1.968,0 0.5658,-2.9766 -1.968,0 0.8364,-4.551 -3.2718,0 -0.8364,4.551 -1.599,0 -0.5658,2.9766 1.599,0 -1.968,10.6518"
               id="path4193"
               style="font-size:24.60000038px;font-style:oblique;font-variant:normal;font-weight:600;font-stretch:normal;font-family:URW Gothic L;-inkscape-font-specification:URW Gothic L Semi-Bold Oblique" />
            <path
               inkscape:connector-curvature="0"
               d="m 272.49048,700.38076 6.8142,0 0.5412,-2.9028 -6.8142,0 -0.5412,2.9028"
               id="path4195"
               style="font-size:24.60000038px;font-style:oblique;font-variant:normal;font-weight:600;font-stretch:normal;font-family:URW Gothic L;-inkscape-font-specification:URW Gothic L Semi-Bold Oblique" />
            <path
               inkscape:connector-curvature="0"
               d="m 284.86236,687.83476 -2.1156,11.5128 c -0.1722,0.8856 -0.246,1.6728 -0.246,2.337 0,2.6814 2.1402,4.6494 5.0676,4.6494 1.9434,0 4.0098,-0.9102 5.3628,-2.337 1.0578,-1.1316 1.722,-2.6076 2.091,-4.6494 l 2.1156,-11.5128 -3.3702,0 -2.1156,11.5128 c -0.2214,1.2546 -0.492,1.9434 -0.9348,2.5092 -0.615,0.7626 -1.5744,1.23 -2.5584,1.23 -1.23,0 -2.2632,-0.9102 -2.2632,-2.0172 0,-0.3444 0.0738,-0.9348 0.2214,-1.722 l 2.1156,-11.5128 -3.3702,0"
               id="path4197"
               style="font-size:24.60000038px;font-style:oblique;font-variant:normal;font-weight:600;font-stretch:normal;font-family:URW Gothic L;-inkscape-font-specification:URW Gothic L Semi-Bold Oblique" />
            <path
               inkscape:connector-curvature="0"
               d="m 296.90714,706.01416 3.2718,0 1.1808,-6.4206 c 0.3198,-1.7712 0.6396,-2.6322 1.1562,-3.2718 0.71339,-0.8364 1.599,-1.2546 2.6076,-1.2546 1.35299,0 2.0664,0.6888 2.0664,2.0172 0,0.7134 -0.0738,1.4514 -0.2214,2.2632 l -1.23,6.6666 3.2718,0 1.353,-7.3062 c 0.1968,-1.0824 0.2952,-1.9188 0.2952,-2.6076 0,-2.6076 -1.57441,-4.0344 -4.3788,-4.0344 -1.5006,0 -2.55841,0.4182 -4.059,1.6236 l 0.246,-1.3038 -3.0258,0 -2.5338,13.6284"
               id="path4199"
               style="font-size:24.60000038px;font-style:oblique;font-variant:normal;font-weight:600;font-stretch:normal;font-family:URW Gothic L;-inkscape-font-specification:URW Gothic L Semi-Bold Oblique" />
            <path
               inkscape:connector-curvature="0"
               d="m 311.65753,706.01416 3.2718,0 2.5338,-13.6284 -3.2718,0 -2.5338,13.6284 m 2.8044,-15.1044 3.2718,0 0.5658,-3.075 -3.2718,0 -0.5658,3.075"
               id="path4201"
               style="font-size:24.60000038px;font-style:oblique;font-variant:normal;font-weight:600;font-stretch:normal;font-family:URW Gothic L;-inkscape-font-specification:URW Gothic L Semi-Bold Oblique" />
            <path
               inkscape:connector-curvature="0"
               d="m 321.74929,706.01416 2.6076,0 8.0196,-13.6284 -3.69,0 -4.7724,9.0282 -1.476,-9.0282 -3.6408,0 2.952,13.6284"
               id="path4203"
               style="font-size:24.60000038px;font-style:oblique;font-variant:normal;font-weight:600;font-stretch:normal;font-family:URW Gothic L;-inkscape-font-specification:URW Gothic L Semi-Bold Oblique" />
            <path
               inkscape:connector-curvature="0"
               d="m 345.89535,700.65136 c 0.3198,-0.7626 0.492,-1.8696 0.492,-3.0504 0,-3.2472 -2.4108,-5.535 -5.8302,-5.535 -4.55099,0 -8.6592,4.0098 -8.6592,8.4624 0,3.4194 2.5338,5.8056 6.1746,5.8056 3.075,0 5.8794,-1.6482 7.3554,-4.3542 l -3.567,0 c -0.9348,0.9348 -1.9434,1.353 -3.321,1.353 -1.8696,0 -3.198,-1.107 -3.198,-2.6814 l 10.5534,0 m -10.1106,-2.9028 c 0.6396,-1.599 2.3616,-2.6814 4.2558,-2.6814 2.091,0 3.198,0.9102 3.2964,2.6814 l -7.5522,0"
               id="path4205"
               style="font-size:24.60000038px;font-style:oblique;font-variant:normal;font-weight:600;font-stretch:normal;font-family:URW Gothic L;-inkscape-font-specification:URW Gothic L Semi-Bold Oblique" />
            <path
               inkscape:connector-curvature="0"
               d="m 347.11612,706.01416 3.2718,0 1.4022,-7.5768 c 0.2706,-1.968 1.6236,-3.198 3.5424,-3.2226 l 0.5904,-3.1488 c -1.599,-0.0492 -2.46,0.369 -3.5178,1.6482 l 0.246,-1.3284 -3.0012,0 -2.5338,13.6284"
               id="path4208"
               style="font-size:24.60000038px;font-style:oblique;font-variant:normal;font-weight:600;font-stretch:normal;font-family:URW Gothic L;-inkscape-font-specification:URW Gothic L Semi-Bold Oblique" />
            <path
               inkscape:connector-curvature="0"
               d="m 354.922,701.68456 c -0.0246,0.369 -0.0492,0.6888 -0.0492,0.9594 0,2.1894 1.69741,3.69 4.1574,3.69 3.075,0 5.8302,-2.583 5.8302,-5.4612 0,-1.6236 -0.7626,-2.4108 -3.0996,-3.1734 -1.22999,-0.3936 -1.23,-0.3936 -1.5252,-0.5658 -0.2952,-0.1722 -0.492,-0.4428 -0.492,-0.7134 0,-0.7134 0.66421,-1.353 1.4268,-1.353 0.6888,0 1.0578,0.369 1.0824,1.0824 l 3.198,0 c 0.0492,-0.369 0.0738,-0.6888 0.0738,-0.9348 0,-1.6974 -1.722,-3.1488 -3.7392,-3.1488 -2.92739,0 -5.412,2.2386 -5.412,4.8462 0,1.722 0.71341,2.5092 3.0996,3.3456 1.6728,0.5904 2.0172,0.861 2.0172,1.5006 0,0.861 -0.8118,1.5744 -1.7466,1.5744 -0.95939,0 -1.5006,-0.5658 -1.5252,-1.6482 l -3.2964,0"
               id="path4210"
               style="font-size:24.60000038px;font-style:oblique;font-variant:normal;font-weight:600;font-stretch:normal;font-family:URW Gothic L;-inkscape-font-specification:URW Gothic L Semi-Bold Oblique" />
            <path
               inkscape:connector-curvature="0"
               d="m 365.80635,706.01416 3.2718,0 2.5338,-13.6284 -3.2718,0 -2.5338,13.6284 m 2.8044,-15.1044 3.2718,0 0.5658,-3.075 -3.2718,0 -0.5658,3.075"
               id="path4212"
               style="font-size:24.60000038px;font-style:oblique;font-variant:normal;font-weight:600;font-stretch:normal;font-family:URW Gothic L;-inkscape-font-specification:URW Gothic L Semi-Bold Oblique" />
            <path
               inkscape:connector-curvature="0"
               d="m 372.20813,706.01416 3.2718,0 1.968,-10.6518 1.968,0 0.5658,-2.9766 -1.968,0 0.8364,-4.551 -3.2718,0 -0.8364,4.551 -1.599,0 -0.5658,2.9766 1.599,0 -1.968,10.6518"
               id="path4214"
               style="font-size:24.60000038px;font-style:oblique;font-variant:normal;font-weight:600;font-stretch:normal;font-family:URW Gothic L;-inkscape-font-specification:URW Gothic L Semi-Bold Oblique" />
            <path
               inkscape:connector-curvature="0"
               d="m 395.44974,692.38576 -3.0012,0 -0.3198,1.8204 c -0.7872,-1.4514 -2.091,-2.1402 -4.0098,-2.1402 -4.62479,0 -8.487,3.9606 -8.487,8.7084 0,3.3456 2.26321,5.5596 5.7072,5.5596 1.9188,0 3.3948,-0.6396 4.92,-2.091 l -0.3198,1.7712 3.0012,0 2.5092,-13.6284 m -7.5768,2.6814 c 2.0172,0 3.2964,1.2546 3.2964,3.2472 0,1.0332 -0.3444,2.1402 -0.9102,3.0012 -0.9348,1.3284 -2.2386,2.0172 -3.936,2.0172 -2.0172,0 -3.321,-1.2546 -3.321,-3.2226 0,-2.706 2.2632,-5.043 4.8708,-5.043 m -2.8536,-4.551 3.2718,0 0.615,-3.2472 -3.2718,0 -0.615,3.2472 m 5.166,0 3.2718,0 0.615,-3.2472 -3.2718,0 -0.615,3.2472"
               id="path4216"
               style="font-size:24.60000038px;font-style:oblique;font-variant:normal;font-weight:600;font-stretch:normal;font-family:URW Gothic L;-inkscape-font-specification:URW Gothic L Semi-Bold Oblique" />
            <path
               inkscape:connector-curvature="0"
               d="m 395.84718,706.01416 3.2718,0 1.968,-10.6518 1.968,0 0.5658,-2.9766 -1.968,0 0.8364,-4.551 -3.2718,0 -0.8364,4.551 -1.599,0 -0.5658,2.9766 1.599,0 -1.968,10.6518"
               id="path4218"
               style="font-size:24.60000038px;font-style:oblique;font-variant:normal;font-weight:600;font-stretch:normal;font-family:URW Gothic L;-inkscape-font-specification:URW Gothic L Semi-Bold Oblique" />
            <path
               inkscape:connector-curvature="0"
               d="m 408.78871,706.01416 10.4058,0 0.5412,-2.9028 -6.4698,0 7.4784,-7.8228 0.5412,-2.9028 -9.2496,0 -0.5412,2.9028 5.3382,0 -7.503,7.8228 -0.5412,2.9028"
               id="path4220"
               style="font-size:24.60000038px;font-style:oblique;font-variant:normal;font-weight:600;font-stretch:normal;font-family:URW Gothic L;-inkscape-font-specification:URW Gothic L Semi-Bold Oblique" />
            <path
               inkscape:connector-curvature="0"
               d="m 435.62577,692.38576 -3.2718,0 -1.1808,6.4206 c -0.3198,1.6974 -0.6396,2.6814 -1.1316,3.2718 -0.6396,0.8118 -1.6482,1.2546 -2.7798,1.2546 -1.2546,0 -2.0172,-0.7134 -2.0172,-1.9188 0,-0.6642 0.0738,-1.5006 0.246,-2.3616 l 1.23,-6.6666 -3.2718,0 -1.353,7.3062 c -0.1968,1.0578 -0.2952,1.9434 -0.2952,2.583 0,1.0578 0.492,2.2878 1.1562,2.9766 0.6888,0.6888 1.7712,1.0824 3.075,1.0824 1.6728,0 2.8782,-0.4674 4.2804,-1.6236 l -0.246,1.3038 3.0258,0 2.5338,-13.6284"
               id="path4222"
               style="font-size:24.60000038px;font-style:oblique;font-variant:normal;font-weight:600;font-stretch:normal;font-family:URW Gothic L;-inkscape-font-specification:URW Gothic L Semi-Bold Oblique" />
            <path
               inkscape:connector-curvature="0"
               d="m 442.92967,706.01416 4.8462,0 c 2.68139,0 4.551,-0.5904 5.9532,-1.845 1.3284,-1.1808 2.1156,-2.9274 2.1156,-4.6494 0,-1.722 -0.63961,-2.6814 -2.3616,-3.4194 0.861,-0.3936 1.2792,-0.7134 1.722,-1.3038 0.615,-0.8364 0.984,-1.9434 0.984,-3.0504 0,-1.3038 -0.492,-2.3616 -1.4268,-3.0504 -0.9594,-0.6888 -1.94341,-0.861 -4.6986,-0.861 l -3.7638,0 -3.3702,18.1794 m 3.9606,-3.2472 0.861,-4.6248 1.599,0 c 2.14019,0 3.0504,0.5658 3.0504,1.9434 0,0.615 -0.2214,1.2054 -0.6642,1.6974 -0.6396,0.738 -1.45141,0.984 -3.1734,0.984 l -1.6728,0 m 1.476,-7.9212 0.6888,-3.7638 1.3776,0 c 1.5006,0 2.3124,0.492 2.3124,1.4268 0,0.5166 -0.246,1.2054 -0.5658,1.5744 -0.4428,0.492 -1.4022,0.7626 -2.7306,0.7626 l -1.0824,0"
               id="path4224"
               style="font-size:24.60000038px;font-style:oblique;font-variant:normal;font-weight:600;font-stretch:normal;font-family:URW Gothic L;-inkscape-font-specification:URW Gothic L Semi-Bold Oblique" />
            <path
               inkscape:connector-curvature="0"
               d="m 471.39379,700.65136 c 0.3198,-0.7626 0.492,-1.8696 0.492,-3.0504 0,-3.2472 -2.4108,-5.535 -5.8302,-5.535 -4.55099,0 -8.6592,4.0098 -8.6592,8.4624 0,3.4194 2.53381,5.8056 6.1746,5.8056 3.075,0 5.87941,-1.6482 7.3554,-4.3542 l -3.567,0 c -0.93479,0.9348 -1.9434,1.353 -3.321,1.353 -1.86959,0 -3.198,-1.107 -3.198,-2.6814 l 10.5534,0 m -10.1106,-2.9028 c 0.6396,-1.599 2.36161,-2.6814 4.2558,-2.6814 2.091,0 3.198,0.9102 3.2964,2.6814 l -7.5522,0"
               id="path4226"
               style="font-size:24.60000038px;font-style:oblique;font-variant:normal;font-weight:600;font-stretch:normal;font-family:URW Gothic L;-inkscape-font-specification:URW Gothic L Semi-Bold Oblique" />
            <path
               inkscape:connector-curvature="0"
               d="m 472.61456,706.01416 3.2718,0 1.4022,-7.5768 c 0.2706,-1.968 1.62361,-3.198 3.5424,-3.2226 l 0.5904,-3.1488 c -1.59899,-0.0492 -2.46,0.369 -3.5178,1.6482 l 0.246,-1.3284 -3.0012,0 -2.5338,13.6284"
               id="path4229"
               style="font-size:24.60000038px;font-style:oblique;font-variant:normal;font-weight:600;font-stretch:normal;font-family:URW Gothic L;-inkscape-font-specification:URW Gothic L Semi-Bold Oblique" />
            <path
               inkscape:connector-curvature="0"
               d="m 480.49426,706.01416 3.2718,0 3.3702,-18.1794 -3.2718,0 -3.3702,18.1794"
               id="path4231"
               style="font-size:24.60000038px;font-style:oblique;font-variant:normal;font-weight:600;font-stretch:normal;font-family:URW Gothic L;-inkscape-font-specification:URW Gothic L Semi-Bold Oblique" />
            <path
               inkscape:connector-curvature="0"
               d="m 486.40402,706.01416 3.2718,0 2.5338,-13.6284 -3.2718,0 -2.5338,13.6284 m 2.8044,-15.1044 3.2718,0 0.5658,-3.075 -3.2718,0 -0.5658,3.075"
               id="path4233"
               style="font-size:24.60000038px;font-style:oblique;font-variant:normal;font-weight:600;font-stretch:normal;font-family:URW Gothic L;-inkscape-font-specification:URW Gothic L Semi-Bold Oblique" />
            <path
               inkscape:connector-curvature="0"
               d="m 492.31378,706.01416 3.2718,0 1.1808,-6.4206 c 0.3198,-1.7712 0.6396,-2.6322 1.1562,-3.2718 0.7134,-0.8364 1.599,-1.2546 2.6076,-1.2546 1.353,0 2.0664,0.6888 2.0664,2.0172 0,0.7134 -0.0738,1.4514 -0.2214,2.2632 l -1.23,6.6666 3.2718,0 1.353,-7.3062 c 0.1968,-1.0824 0.2952,-1.9188 0.2952,-2.6076 0,-2.6076 -1.5744,-4.0344 -4.3788,-4.0344 -1.5006,0 -2.5584,0.4182 -4.059,1.6236 l 0.246,-1.3038 -3.0258,0 -2.5338,13.6284"
               id="path4236"
               style="font-size:24.60000038px;font-style:oblique;font-variant:normal;font-weight:600;font-stretch:normal;font-family:URW Gothic L;-inkscape-font-specification:URW Gothic L Semi-Bold Oblique" />
          </g>
        </g>
      </g>
    </g>
  </g>
  <g
     inkscape:groupmode="layer"
     id="layer3"
     inkscape:label="Kreis"
     style="display:inline"
     sodipodi:insensitive="true">
    <g
       transform="translate(-4.5113607e-6,4.6792369e-6)"
       id="g3840"
       style="display:inline;enable-background:new"
       inkscape:export-filename="/home/alban/Documents/Duron-Sync/Arbeit/Kunden/HUB/Webseiten-Biologie/Pictures-IfB/Logo-IfB/1170x1307px-300dpi_mT.png"
       inkscape:export-xdpi="299.97229"
       inkscape:export-ydpi="299.97229">
      <path
         d="m 367.14287,441.64789 a 167.85715,167.85715 0 1 1 -335.714296,0 167.85715,167.85715 0 1 1 335.714296,0 z"
         transform="matrix(1.0127659,0,0,1.0127659,9.2847955,-241.85286)"
         id="path3842"
         style="fill:#4e9900;fill-opacity:1;display:inline"
         inkscape:connector-curvature="0" />
    </g>
    <g
       transform="translate(-119.59971,-278.84226)"
       id="g4104"
       style="display:inline;enable-background:new">
      <path
         d="m 164.80954,654.27539 31.01717,0 31.01717,-167.31159 -31.01717,0 -31.01717,167.31159"
         id="path4111"
         style="font-size:226.4026947px;font-style:oblique;font-variant:normal;font-weight:600;font-stretch:normal;line-height:125%;letter-spacing:0px;word-spacing:0px;fill:#000000;fill-opacity:1;stroke:#ffffff;stroke-width:0;stroke-miterlimit:4;stroke-opacity:1;font-family:URW Gothic L;-inkscape-font-specification:URW Gothic L Semi-Bold Oblique"
         inkscape:connector-curvature="0" />
      <path
         d="m 225.55267,654.27539 30.11156,0 18.11222,-98.03237 17.65941,0 4.75445,-25.1307 -17.65941,0 c 1.35842,-10.41451 7.0185,-15.16898 18.11222,-15.16898 l 2.49043,0 1.58482,0 5.43366,-28.52674 c -4.98085,-0.4528 -6.79208,-0.4528 -8.8297,-0.4528 -12.67854,0 -23.9987,4.75447 -33.5076,14.26337 -7.47128,7.47128 -11.54654,15.16899 -15.39538,29.88515 l -10.86733,0 -4.75446,25.1307 10.86733,0 -18.11222,98.03237"
         id="path4113"
         style="font-size:226.4026947px;font-style:oblique;font-variant:normal;font-weight:600;font-stretch:normal;line-height:125%;letter-spacing:0px;word-spacing:0px;fill:#000000;fill-opacity:1;stroke:#ffffff;stroke-width:0;stroke-miterlimit:4;stroke-opacity:1;font-family:URW Gothic L;-inkscape-font-specification:URW Gothic L Semi-Bold Oblique"
         inkscape:connector-curvature="0" />
      <path
         d="m 291.27667,654.27539 44.60133,0 c 24.67787,0 41.88451,-5.43368 54.78945,-16.9802 12.22574,-10.86732 19.47063,-26.94194 19.47063,-42.79011 0,-15.84817 -5.88648,-24.6779 -21.73465,-31.46998 7.92408,-3.62243 11.77294,-6.56568 15.84818,-11.99934 5.66007,-7.69768 9.05611,-17.88582 9.05611,-28.07393 0,-11.99933 -4.52806,-21.73467 -13.13135,-28.07394 -8.8297,-6.33927 -17.88584,-7.92409 -43.24292,-7.92409 l -34.63961,0 -31.01717,167.31159 m 36.45083,-29.88516 7.9241,-42.5637 14.71617,0 c 19.69702,0 28.07394,5.20727 28.07394,17.88581 0,5.66006 -2.03763,11.09374 -6.11288,15.62179 -5.88646,6.79207 -13.35777,9.0561 -29.20594,9.0561 l -15.39539,0 m 13.58417,-72.90166 6.33927,-34.63962 12.67855,0 c 13.81055,0 21.28186,4.52807 21.28186,13.13136 0,4.75445 -2.26403,11.09374 -5.20727,14.48977 -4.07524,4.52805 -12.90496,7.01849 -25.1307,7.01849 l -9.96171,0"
         id="path4115"
         style="font-size:226.4026947px;font-style:oblique;font-variant:normal;font-weight:600;font-stretch:normal;line-height:125%;letter-spacing:0px;word-spacing:0px;fill:#000000;fill-opacity:1;stroke:#ffffff;stroke-width:0;stroke-miterlimit:4;stroke-opacity:1;font-family:URW Gothic L;-inkscape-font-specification:URW Gothic L Semi-Bold Oblique"
         inkscape:connector-curvature="0" />
    </g>
  </g>
</svg>
