<svg width="1229" height="376" viewBox="0 0 1229 376" fill="none" xmlns="http://www.w3.org/2000/svg">
<path d="M164.529 73.2753C177.578 70.5016 184.909 52.9778 180.904 34.1346C176.899 15.2915 163.073 2.26467 150.024 5.03833C136.975 7.81199 129.644 25.3358 133.649 44.179C137.654 63.0221 151.48 76.0489 164.529 73.2753Z" fill="#4463A0"/>
<path d="M119.801 93.1845C130.594 85.3431 130.164 66.3523 118.841 50.7674C107.518 35.1824 89.5891 28.905 78.7964 36.7464C68.0036 44.5878 68.4336 63.5786 79.7568 79.1635C91.0799 94.7485 109.008 101.026 119.801 93.1845Z" fill="#4463A0"/>
<path d="M87.0411 129.591C93.7114 118.037 85.5943 100.863 68.9111 91.2312C52.228 81.5991 33.2962 83.1566 26.626 94.7099C19.9557 106.263 28.0727 123.437 44.7559 133.069C61.4391 142.701 80.3708 141.144 87.0411 129.591Z" fill="#4463A0"/>
<path d="M71.9041 176.18C73.2986 162.913 58.898 150.525 39.7394 148.511C20.5809 146.497 3.91938 155.621 2.52491 168.888C1.13044 182.155 15.5311 194.543 34.6896 196.557C53.8482 198.571 70.5097 189.448 71.9041 176.18Z" fill="#9E559D"/>
<path d="M51.3078 258.581C69.6291 252.628 81.1394 237.516 77.017 224.829C72.8945 212.141 54.7003 206.682 36.3791 212.635C18.0579 218.588 6.54748 233.699 10.6699 246.386C14.7924 259.074 32.9866 264.534 51.3078 258.581Z" fill="#9E559D"/>
<path d="M91.765 308.585C106.081 295.695 110.45 277.209 101.523 267.295C92.5968 257.381 73.755 259.793 59.439 272.683C45.123 285.574 40.754 304.06 49.6806 313.974C58.6072 323.888 77.449 321.475 91.765 308.585Z" fill="#9E559D"/>
<path d="M149.03 337.726C156.865 320.127 153.338 301.462 141.15 296.036C128.963 290.61 112.732 300.478 104.896 318.076C97.0608 335.675 100.589 354.34 112.776 359.766C124.963 365.192 141.195 355.325 149.03 337.726Z" fill="#2FA0DB"/>
<path d="M189.009 376C202.349 376 213.164 360.383 213.164 341.119C213.164 321.855 202.349 306.238 189.009 306.238C175.668 306.238 164.854 321.855 164.854 341.119C164.854 360.383 175.668 376 189.009 376Z" fill="#2FA0DB"/>
<path d="M174.969 169.071C185.762 161.229 185.332 142.238 174.009 126.653C162.686 111.068 144.757 104.791 133.964 112.632C123.172 120.474 123.602 139.465 134.925 155.05C146.248 170.634 164.176 176.912 174.969 169.071Z" fill="#4463A0"/>
<path d="M140.525 229.639C158.846 223.686 170.356 208.575 166.234 195.887C162.111 183.2 143.917 177.74 125.596 183.693C107.275 189.646 95.7643 204.757 99.8867 217.445C104.009 230.133 122.203 235.592 140.525 229.639Z" fill="#9E559D"/>
<path d="M189.009 282.175C202.349 282.175 213.164 266.558 213.164 247.294C213.164 228.03 202.349 212.413 189.009 212.413C175.668 212.413 164.854 228.03 164.854 247.294C164.854 266.558 175.668 282.175 189.009 282.175Z" fill="#2FA0DB"/>
<path d="M278.129 217.41C282.251 204.723 270.741 189.612 252.42 183.659C234.098 177.706 215.904 183.165 211.782 195.853C207.659 208.541 219.17 223.652 237.491 229.605C255.812 235.558 274.006 230.098 278.129 217.41Z" fill="#80519A"/>
<path d="M243.157 155.044C254.48 139.459 254.91 120.468 244.117 112.626C233.325 104.785 215.396 111.062 204.073 126.647C192.75 142.232 192.32 161.223 203.113 169.065C213.906 176.906 231.834 170.629 243.157 155.044Z" fill="#37277C"/>
<path d="M265.331 359.797C277.518 354.371 281.046 335.706 273.211 318.107C265.375 300.508 249.144 290.641 236.957 296.067C224.769 301.493 221.242 320.158 229.077 337.757C236.912 355.355 253.144 365.223 265.331 359.797Z" fill="#2FA0DB"/>
<path d="M328.4 313.952C337.327 304.038 332.958 285.552 318.642 272.662C304.326 259.771 285.484 257.359 276.558 267.273C267.631 277.187 272 295.673 286.316 308.563C300.632 321.453 319.474 323.866 328.4 313.952Z" fill="#80519A"/>
<path d="M367.358 246.36C371.481 233.672 359.97 218.561 341.649 212.608C323.328 206.655 305.134 212.114 301.011 224.802C296.889 237.49 308.399 252.601 326.72 258.554C345.042 264.507 363.236 259.047 367.358 246.36Z" fill="#80519A"/>
<path d="M343.355 196.524C362.514 194.51 376.914 182.122 375.52 168.855C374.125 155.587 357.464 146.464 338.305 148.478C319.147 150.492 304.746 162.879 306.141 176.147C307.535 189.414 324.197 198.537 343.355 196.524Z" fill="#80519A"/>
<path d="M333.261 133.06C349.944 123.428 358.061 106.254 351.391 94.7006C344.721 83.1473 325.789 81.5898 309.106 91.2219C292.423 100.854 284.306 118.028 290.976 129.581C297.646 141.135 316.578 142.692 333.261 133.06Z" fill="#37277C"/>
<path d="M298.268 79.1579C309.592 63.573 310.022 44.5821 299.229 36.7408C288.436 28.8994 270.508 35.1768 259.184 50.7618C247.861 66.3467 247.431 85.3375 258.224 93.1789C269.017 101.02 286.945 94.7429 298.268 79.1579Z" fill="#37277C"/>
<path d="M244.401 44.1629C248.407 25.3198 241.075 7.79593 228.026 5.02227C214.977 2.24861 201.152 15.2755 197.147 34.1186C193.141 52.9617 200.473 70.4856 213.522 73.2592C226.571 76.0329 240.396 63.006 244.401 44.1629Z" fill="#37277C"/>
<path d="M477.175 235.731C477.175 238.802 476.716 241.644 475.754 244.211C474.791 246.778 473.462 248.978 471.674 250.903C469.933 252.782 467.824 254.249 465.441 255.303C463.057 256.357 460.399 256.861 457.557 256.861C454.715 256.861 452.103 256.357 449.673 255.303C447.29 254.249 445.181 252.782 443.44 250.903C441.698 249.024 440.323 246.778 439.36 244.211C438.398 241.644 437.939 238.848 437.939 235.731C437.939 232.614 438.398 229.819 439.36 227.252C440.323 224.685 441.652 222.485 443.44 220.56C445.181 218.681 447.29 217.214 449.673 216.16C452.057 215.105 454.715 214.601 457.557 214.601C460.399 214.601 463.011 215.105 465.441 216.16C467.824 217.214 469.933 218.681 471.674 220.56C473.416 222.439 474.791 224.685 475.754 227.252C476.716 229.819 477.175 232.614 477.175 235.731ZM473.416 235.731C473.416 232.248 472.728 229.223 471.399 226.564C470.07 223.906 468.191 221.889 465.807 220.376C463.424 218.91 460.674 218.131 457.557 218.131C454.44 218.131 451.736 218.864 449.307 220.376C446.923 221.843 445.044 223.906 443.669 226.564C442.34 229.223 441.652 232.248 441.652 235.731C441.652 239.215 442.34 242.24 443.669 244.898C444.998 247.557 446.877 249.574 449.307 251.086C451.69 252.553 454.44 253.332 457.557 253.332C460.674 253.332 463.424 252.599 465.807 251.086C468.191 249.619 470.07 247.557 471.399 244.898C472.728 242.24 473.416 239.215 473.416 235.731Z" fill="#7F7F80"/>
<path d="M498.81 226.06C501.468 226.06 503.806 226.701 505.868 228.03C507.931 229.36 509.535 231.147 510.773 233.439C511.964 235.731 512.606 238.343 512.606 241.323C512.606 244.302 512.01 246.915 510.773 249.252C509.581 251.544 507.931 253.377 505.868 254.707C503.806 256.036 501.468 256.678 498.901 256.678C497.526 256.678 496.243 256.448 495.005 256.082C493.768 255.669 492.668 255.119 491.659 254.432C490.651 253.744 489.734 252.919 488.955 251.957C488.176 250.994 487.534 249.94 487.076 248.84L488.13 248.061V266.257C488.13 266.716 487.947 267.128 487.626 267.495C487.305 267.861 486.892 267.999 486.388 267.999C485.884 267.999 485.472 267.816 485.151 267.495C484.83 267.128 484.646 266.716 484.646 266.257V228.076C484.646 227.572 484.784 227.16 485.105 226.793C485.426 226.426 485.838 226.289 486.388 226.289C486.892 226.289 487.305 226.472 487.626 226.793C487.947 227.114 488.13 227.572 488.13 228.076V234.402L487.305 233.943C487.717 232.752 488.267 231.651 489.047 230.689C489.826 229.726 490.697 228.901 491.705 228.214C492.714 227.526 493.814 227.022 495.051 226.655C496.289 226.289 497.526 226.151 498.855 226.151L498.81 226.06ZM498.535 229.36C496.426 229.36 494.593 229.864 492.989 230.918C491.384 231.972 490.147 233.347 489.23 235.135C488.313 236.923 487.855 238.985 487.855 241.323C487.855 243.66 488.313 245.677 489.23 247.511C490.147 249.344 491.43 250.765 492.989 251.819C494.593 252.873 496.426 253.377 498.535 253.377C500.643 253.377 502.431 252.873 504.035 251.819C505.593 250.765 506.877 249.344 507.793 247.511C508.71 245.677 509.214 243.615 509.214 241.323C509.214 239.031 508.756 236.968 507.793 235.181C506.877 233.393 505.593 231.972 504.035 230.918C502.431 229.864 500.643 229.36 498.535 229.36Z" fill="#7F7F80"/>
<path d="M533.599 256.815C530.573 256.815 527.915 256.173 525.623 254.89C523.331 253.606 521.544 251.819 520.215 249.481C518.931 247.19 518.29 244.485 518.29 241.414C518.29 238.114 518.931 235.272 520.26 232.935C521.59 230.597 523.286 228.764 525.348 227.526C527.411 226.289 529.657 225.601 531.994 225.601C533.69 225.601 535.386 225.922 536.99 226.518C538.595 227.114 540.061 228.03 541.345 229.222C542.628 230.414 543.636 231.881 544.37 233.576C545.149 235.318 545.562 237.289 545.607 239.535C545.607 239.993 545.378 240.406 545.012 240.727C544.645 241.048 544.232 241.231 543.774 241.231H520.306L519.619 238.068H542.72L541.941 238.756V237.564C541.803 235.731 541.207 234.172 540.199 232.889C539.19 231.606 537.953 230.643 536.486 229.955C535.019 229.314 533.553 228.947 531.994 228.947C530.803 228.947 529.611 229.176 528.373 229.635C527.136 230.093 526.036 230.826 525.027 231.835C524.019 232.843 523.24 234.081 522.598 235.639C521.956 237.197 521.681 238.985 521.681 241.139C521.681 243.431 522.14 245.539 523.102 247.419C524.065 249.298 525.394 250.765 527.182 251.865C528.969 252.965 531.078 253.515 533.553 253.515C534.928 253.515 536.165 253.331 537.265 252.919C538.365 252.506 539.328 252.002 540.153 251.361C540.978 250.719 541.666 250.031 542.216 249.344C542.628 248.977 543.086 248.794 543.499 248.794C543.912 248.794 544.232 248.931 544.507 249.252C544.782 249.573 544.966 249.894 544.966 250.306C544.966 250.765 544.782 251.177 544.37 251.544C543.178 252.965 541.666 254.156 539.786 255.211C537.907 256.265 535.844 256.769 533.644 256.769L533.599 256.815Z" fill="#7F7F80"/>
<path d="M567.289 225.601C569.856 225.601 571.918 226.106 573.476 227.16C575.035 228.214 576.135 229.589 576.822 231.377C577.51 233.164 577.831 235.135 577.831 237.244V254.478C577.831 254.936 577.648 255.349 577.327 255.715C576.96 256.082 576.547 256.219 576.089 256.219C575.539 256.219 575.127 256.036 574.806 255.715C574.485 255.349 574.347 254.936 574.347 254.478V237.427C574.347 235.868 574.072 234.448 573.568 233.164C573.064 231.881 572.239 230.827 571.093 230.047C569.947 229.268 568.435 228.856 566.555 228.856C564.859 228.856 563.301 229.268 561.789 230.047C560.276 230.827 559.084 231.881 558.122 233.164C557.205 234.448 556.701 235.868 556.701 237.427V254.478C556.701 254.936 556.517 255.349 556.197 255.715C555.83 256.082 555.417 256.219 554.959 256.219C554.409 256.219 553.996 256.036 553.676 255.715C553.355 255.349 553.217 254.936 553.217 254.478V228.214C553.217 227.756 553.401 227.343 553.721 226.976C554.042 226.61 554.455 226.426 554.959 226.426C555.463 226.426 555.876 226.61 556.197 226.976C556.517 227.343 556.701 227.756 556.701 228.214V233.118L555.372 235.227C555.463 233.989 555.83 232.798 556.563 231.606C557.297 230.46 558.213 229.406 559.359 228.489C560.505 227.572 561.743 226.839 563.118 226.335C564.493 225.785 565.914 225.556 567.289 225.556V225.601Z" fill="#7F7F80"/>
<path d="M615.184 256.815C612.205 256.815 609.638 256.403 607.438 255.394C605.238 254.386 603.176 252.965 601.159 250.994C600.975 250.857 600.792 250.628 600.655 250.398C600.517 250.169 600.471 249.894 600.471 249.573C600.471 249.115 600.655 248.657 601.021 248.29C601.388 247.877 601.8 247.694 602.259 247.694C602.717 247.694 603.175 247.877 603.542 248.29C605.055 249.94 606.796 251.178 608.722 252.048C610.647 252.919 612.755 253.332 614.955 253.332C616.834 253.332 618.484 253.057 619.951 252.461C621.418 251.865 622.564 251.04 623.435 249.94C624.306 248.84 624.718 247.557 624.718 246.136C624.718 244.348 624.214 242.881 623.251 241.781C622.289 240.681 621.005 239.765 619.401 239.031C617.797 238.298 616.009 237.656 614.084 237.06C612.48 236.602 610.967 236.052 609.501 235.456C608.034 234.86 606.751 234.127 605.651 233.21C604.505 232.339 603.634 231.239 602.992 229.956C602.35 228.672 602.075 227.114 602.075 225.281C602.075 223.218 602.625 221.385 603.726 219.78C604.826 218.176 606.384 216.939 608.401 216.022C610.418 215.105 612.755 214.647 615.414 214.647C617.705 214.647 619.951 215.059 622.06 215.839C624.168 216.618 625.864 217.764 627.147 219.276C627.743 219.918 628.018 220.468 628.018 220.972C628.018 221.385 627.835 221.751 627.422 222.164C627.01 222.576 626.597 222.76 626.139 222.76C625.726 222.76 625.406 222.622 625.131 222.347C624.489 221.522 623.618 220.789 622.61 220.147C621.601 219.505 620.455 219.001 619.264 218.635C618.026 218.268 616.743 218.13 615.414 218.13C613.58 218.13 611.93 218.405 610.463 219.001C608.997 219.597 607.851 220.376 607.026 221.43C606.201 222.485 605.788 223.768 605.788 225.235C605.788 226.885 606.246 228.214 607.209 229.268C608.172 230.323 609.363 231.193 610.922 231.881C612.48 232.568 614.084 233.21 615.78 233.806C617.476 234.264 619.08 234.814 620.593 235.41C622.151 236.006 623.481 236.785 624.672 237.656C625.864 238.527 626.781 239.673 627.468 241.048C628.156 242.423 628.477 244.119 628.477 246.182C628.477 248.244 627.927 249.986 626.781 251.59C625.635 253.194 624.076 254.478 622.105 255.394C620.135 256.311 617.797 256.815 615.184 256.861V256.815Z" fill="#7F7F80"/>
<path d="M649.104 225.601C650.983 225.601 652.679 225.785 654.237 226.197C655.796 226.61 657.079 227.16 657.996 227.847C658.958 228.535 659.416 229.314 659.416 230.139C659.416 230.552 659.279 230.918 659.004 231.285C658.729 231.652 658.362 231.835 657.904 231.835C657.446 231.835 657.033 231.697 656.758 231.468C656.483 231.239 656.162 230.964 655.887 230.643C655.612 230.322 655.154 230.047 654.65 229.772C654.145 229.543 653.412 229.314 652.495 229.131C651.579 228.947 650.479 228.856 649.287 228.856C647.087 228.856 645.116 229.406 643.374 230.506C641.632 231.606 640.211 233.073 639.203 234.906C638.195 236.739 637.691 238.848 637.691 241.14C637.691 243.431 638.195 245.586 639.157 247.465C640.12 249.344 641.495 250.811 643.191 251.865C644.887 252.919 646.903 253.469 649.241 253.469C650.799 253.469 651.991 253.332 652.862 253.057C653.733 252.782 654.466 252.461 655.108 252.14C655.841 251.728 656.391 251.269 656.712 250.857C657.033 250.444 657.491 250.261 658.041 250.261C658.546 250.261 658.912 250.398 659.187 250.719C659.462 250.994 659.554 251.407 659.554 251.865C659.554 252.507 659.096 253.194 658.179 253.928C657.262 254.707 655.979 255.349 654.42 255.899C652.862 256.449 650.983 256.769 648.92 256.769C645.987 256.769 643.42 256.082 641.22 254.707C639.02 253.332 637.278 251.453 636.086 249.115C634.849 246.731 634.253 244.073 634.253 241.14C634.253 238.206 634.895 235.685 636.132 233.348C637.37 231.01 639.111 229.131 641.357 227.71C643.603 226.289 646.216 225.556 649.195 225.556L649.104 225.601Z" fill="#7F7F80"/>
<path d="M667.942 221.843C667.117 221.843 666.521 221.66 666.109 221.293C665.696 220.926 665.513 220.376 665.513 219.689V219.093C665.513 218.405 665.742 217.855 666.2 217.489C666.659 217.122 667.254 216.939 668.034 216.939C668.767 216.939 669.363 217.122 669.775 217.489C670.188 217.855 670.371 218.405 670.371 219.093V219.689C670.371 220.376 670.188 220.926 669.775 221.293C669.363 221.66 668.767 221.843 667.988 221.843H667.942ZM669.684 254.478C669.684 254.936 669.5 255.349 669.18 255.715C668.813 256.082 668.4 256.219 667.942 256.219C667.438 256.219 667.025 256.036 666.704 255.715C666.384 255.349 666.2 254.936 666.2 254.478V227.527C666.2 227.068 666.384 226.656 666.704 226.289C667.025 225.922 667.438 225.785 667.942 225.785C668.446 225.785 668.859 225.968 669.18 226.289C669.5 226.656 669.684 227.068 669.684 227.527V254.478Z" fill="#7F7F80"/>
<path d="M692.326 256.815C689.301 256.815 686.643 256.173 684.351 254.89C682.059 253.606 680.271 251.819 678.942 249.481C677.659 247.19 677.017 244.485 677.017 241.414C677.017 238.114 677.659 235.272 678.988 232.935C680.317 230.597 682.013 228.764 684.076 227.526C686.138 226.289 688.384 225.601 690.722 225.601C692.418 225.601 694.114 225.922 695.718 226.518C697.322 227.114 698.789 228.03 700.072 229.222C701.356 230.414 702.364 231.881 703.097 233.576C703.877 235.318 704.289 237.289 704.335 239.535C704.335 239.993 704.106 240.406 703.739 240.727C703.372 241.048 702.96 241.231 702.502 241.231H679.034L678.346 238.068H701.447L700.668 238.756V237.564C700.531 235.731 699.935 234.172 698.926 232.889C697.918 231.606 696.68 230.643 695.214 229.955C693.747 229.314 692.28 228.947 690.722 228.947C689.53 228.947 688.338 229.176 687.101 229.635C685.863 230.093 684.763 230.826 683.755 231.835C682.747 232.843 681.967 234.081 681.326 235.639C680.684 237.197 680.409 238.985 680.409 241.139C680.409 243.431 680.867 245.539 681.83 247.419C682.792 249.298 684.122 250.765 685.909 251.865C687.697 252.965 689.805 253.515 692.28 253.515C693.655 253.515 694.893 253.331 695.993 252.919C697.093 252.506 698.056 252.002 698.881 251.361C699.706 250.719 700.393 250.031 700.943 249.344C701.356 248.977 701.814 248.794 702.227 248.794C702.639 248.794 702.96 248.931 703.235 249.252C703.51 249.573 703.693 249.894 703.693 250.306C703.693 250.765 703.51 251.177 703.097 251.544C701.906 252.965 700.393 254.156 698.514 255.211C696.635 256.265 694.572 256.769 692.372 256.769L692.326 256.815Z" fill="#7F7F80"/>
<path d="M726.016 225.601C728.583 225.601 730.646 226.106 732.204 227.16C733.762 228.214 734.862 229.589 735.55 231.377C736.238 233.164 736.558 235.135 736.558 237.244V254.478C736.558 254.936 736.375 255.349 736.054 255.715C735.688 256.082 735.275 256.219 734.817 256.219C734.267 256.219 733.854 256.036 733.533 255.715C733.212 255.349 733.075 254.936 733.075 254.478V237.427C733.075 235.868 732.8 234.448 732.296 233.164C731.792 231.881 730.966 230.827 729.821 230.047C728.675 229.268 727.162 228.856 725.283 228.856C723.587 228.856 722.029 229.268 720.516 230.047C719.003 230.827 717.812 231.881 716.849 233.164C715.932 234.448 715.428 235.868 715.428 237.427V254.478C715.428 254.936 715.245 255.349 714.924 255.715C714.557 256.082 714.145 256.219 713.687 256.219C713.136 256.219 712.724 256.036 712.403 255.715C712.082 255.349 711.945 254.936 711.945 254.478V228.214C711.945 227.756 712.128 227.343 712.449 226.976C712.77 226.61 713.182 226.426 713.687 226.426C714.191 226.426 714.603 226.61 714.924 226.976C715.245 227.343 715.428 227.756 715.428 228.214V233.118L714.099 235.227C714.191 233.989 714.557 232.798 715.291 231.606C716.024 230.46 716.941 229.406 718.087 228.489C719.233 227.572 720.47 226.839 721.845 226.335C723.22 225.785 724.641 225.556 726.016 225.556V225.601Z" fill="#7F7F80"/>
<path d="M758.926 225.601C760.805 225.601 762.501 225.785 764.059 226.197C765.618 226.61 766.901 227.16 767.818 227.847C768.78 228.535 769.239 229.314 769.239 230.139C769.239 230.552 769.101 230.918 768.826 231.285C768.551 231.652 768.185 231.835 767.726 231.835C767.268 231.835 766.855 231.697 766.58 231.468C766.305 231.239 765.984 230.964 765.709 230.643C765.434 230.322 764.976 230.047 764.472 229.772C763.968 229.543 763.234 229.314 762.318 229.131C761.401 228.947 760.301 228.856 759.109 228.856C756.909 228.856 754.938 229.406 753.196 230.506C751.455 231.606 750.034 233.073 749.025 234.906C748.017 236.739 747.513 238.848 747.513 241.14C747.513 243.431 748.017 245.586 748.98 247.465C749.942 249.344 751.317 250.811 753.013 251.865C754.709 252.919 756.726 253.469 759.063 253.469C760.622 253.469 761.813 253.332 762.684 253.057C763.555 252.782 764.289 252.461 764.93 252.14C765.664 251.728 766.214 251.269 766.535 250.857C766.855 250.444 767.314 250.261 767.864 250.261C768.368 250.261 768.735 250.398 769.01 250.719C769.285 250.994 769.376 251.407 769.376 251.865C769.376 252.507 768.918 253.194 768.001 253.928C767.085 254.707 765.801 255.349 764.243 255.899C762.684 256.449 760.805 256.769 758.742 256.769C755.809 256.769 753.242 256.082 751.042 254.707C748.842 253.332 747.1 251.453 745.909 249.115C744.671 246.731 744.075 244.073 744.075 241.14C744.075 238.206 744.717 235.685 745.954 233.348C747.192 231.01 748.934 229.131 751.18 227.71C753.426 226.289 756.038 225.556 759.018 225.556L758.926 225.601Z" fill="#7F7F80"/>
<path d="M789.634 256.815C786.609 256.815 783.951 256.173 781.659 254.89C779.367 253.606 777.579 251.819 776.25 249.481C774.967 247.19 774.325 244.485 774.325 241.414C774.325 238.114 774.967 235.272 776.296 232.935C777.625 230.597 779.321 228.764 781.384 227.526C783.446 226.289 785.692 225.601 788.03 225.601C789.726 225.601 791.422 225.922 793.026 226.518C794.63 227.114 796.097 228.03 797.38 229.222C798.664 230.414 799.672 231.881 800.406 233.576C801.185 235.318 801.597 237.289 801.643 239.535C801.643 239.993 801.414 240.406 801.047 240.727C800.681 241.048 800.268 241.231 799.81 241.231H776.342L775.654 238.068H798.755L797.976 238.756V237.564C797.839 235.731 797.243 234.172 796.234 232.889C795.226 231.606 793.989 230.643 792.522 229.955C791.055 229.314 789.588 228.947 788.03 228.947C786.838 228.947 785.647 229.176 784.409 229.635C783.171 230.093 782.071 230.826 781.063 231.835C780.055 232.843 779.275 234.081 778.634 235.639C777.992 237.197 777.717 238.985 777.717 241.139C777.717 243.431 778.175 245.539 779.138 247.419C780.1 249.298 781.43 250.765 783.217 251.865C785.005 252.965 787.113 253.515 789.588 253.515C790.963 253.515 792.201 253.331 793.301 252.919C794.401 252.506 795.364 252.002 796.189 251.361C797.014 250.719 797.701 250.031 798.251 249.344C798.664 248.977 799.122 248.794 799.535 248.794C799.947 248.794 800.268 248.931 800.543 249.252C800.818 249.573 801.001 249.894 801.001 250.306C801.001 250.765 800.818 251.177 800.406 251.544C799.214 252.965 797.701 254.156 795.822 255.211C793.943 256.265 791.88 256.769 789.68 256.769L789.634 256.815Z" fill="#7F7F80"/>
<path d="M1082.02 219.734L1067.76 255.119C1067.63 255.532 1067.4 255.807 1067.12 255.99C1066.85 256.174 1066.53 256.265 1066.21 256.265C1065.66 256.265 1065.24 256.128 1064.97 255.807C1064.69 255.532 1064.56 255.165 1064.51 254.707C1064.51 254.523 1064.51 254.294 1064.56 254.019L1080 216.205C1080.19 215.793 1080.46 215.472 1080.74 215.288C1081.01 215.105 1081.38 215.013 1081.74 215.013C1082.11 215.013 1082.48 215.105 1082.75 215.334C1083.03 215.563 1083.26 215.838 1083.44 216.205L1098.84 253.882C1098.93 254.111 1098.98 254.34 1098.98 254.569C1098.98 255.119 1098.79 255.532 1098.43 255.807C1098.06 256.082 1097.65 256.265 1097.19 256.265C1096.78 256.265 1096.46 256.174 1096.18 255.944C1095.91 255.715 1095.68 255.44 1095.49 255.074L1080.92 219.459L1081.97 219.689L1082.02 219.734ZM1071.2 244.394L1072.67 240.956H1090.82L1091.51 244.394H1071.2Z" fill="#7F7F80"/>
<path d="M1118.5 225.601C1120.38 225.601 1122.08 225.785 1123.64 226.197C1125.19 226.61 1126.48 227.16 1127.4 227.847C1128.36 228.535 1128.82 229.314 1128.82 230.139C1128.82 230.552 1128.68 230.918 1128.4 231.285C1128.13 231.652 1127.76 231.835 1127.3 231.835C1126.85 231.835 1126.43 231.697 1126.16 231.468C1125.88 231.239 1125.56 230.964 1125.29 230.643C1125.01 230.322 1124.55 230.047 1124.05 229.772C1123.54 229.543 1122.81 229.314 1121.89 229.131C1120.98 228.947 1119.88 228.856 1118.69 228.856C1116.49 228.856 1114.52 229.406 1112.77 230.506C1111.03 231.606 1109.61 233.073 1108.6 234.906C1107.59 236.739 1107.09 238.848 1107.09 241.14C1107.09 243.431 1107.59 245.586 1108.56 247.465C1109.52 249.344 1110.89 250.811 1112.59 251.865C1114.29 252.919 1116.3 253.469 1118.64 253.469C1120.2 253.469 1121.39 253.332 1122.26 253.057C1123.13 252.782 1123.87 252.461 1124.51 252.14C1125.24 251.728 1125.79 251.269 1126.11 250.857C1126.43 250.444 1126.89 250.261 1127.44 250.261C1127.95 250.261 1128.31 250.398 1128.59 250.719C1128.86 250.994 1128.95 251.407 1128.95 251.865C1128.95 252.507 1128.5 253.194 1127.58 253.928C1126.66 254.707 1125.38 255.349 1123.82 255.899C1122.26 256.449 1120.38 256.769 1118.32 256.769C1115.39 256.769 1112.82 256.082 1110.62 254.707C1108.42 253.332 1106.68 251.453 1105.49 249.115C1104.25 246.731 1103.65 244.073 1103.65 241.14C1103.65 238.206 1104.29 235.685 1105.53 233.348C1106.77 231.01 1108.51 229.131 1110.76 227.71C1113 226.289 1115.62 225.556 1118.59 225.556L1118.5 225.601Z" fill="#7F7F80"/>
<path d="M1133.72 226.426H1147.38C1147.84 226.426 1148.25 226.61 1148.57 226.931C1148.89 227.251 1149.03 227.664 1149.03 228.122C1149.03 228.535 1148.89 228.901 1148.57 229.222C1148.25 229.543 1147.88 229.681 1147.38 229.681H1133.72C1133.26 229.681 1132.85 229.497 1132.53 229.176C1132.21 228.856 1132.02 228.443 1132.02 228.031C1132.02 227.572 1132.21 227.16 1132.53 226.839C1132.85 226.518 1133.26 226.381 1133.72 226.381V226.426ZM1139.77 218.176C1140.28 218.176 1140.69 218.359 1141.01 218.726C1141.33 219.093 1141.51 219.505 1141.51 219.964V249.344C1141.51 250.444 1141.65 251.269 1141.97 251.819C1142.25 252.369 1142.66 252.736 1143.12 252.919C1143.58 253.103 1144.03 253.194 1144.54 253.194C1144.86 253.194 1145.13 253.148 1145.41 253.057C1145.64 252.965 1145.96 252.919 1146.28 252.919C1146.65 252.919 1146.92 253.057 1147.2 253.332C1147.43 253.607 1147.56 253.973 1147.56 254.386C1147.56 254.936 1147.24 255.394 1146.65 255.761C1146 256.128 1145.27 256.311 1144.4 256.311C1144.03 256.311 1143.53 256.311 1142.84 256.219C1142.15 256.128 1141.42 255.944 1140.69 255.578C1139.95 255.211 1139.31 254.569 1138.85 253.607C1138.4 252.644 1138.12 251.315 1138.12 249.573V220.009C1138.12 219.551 1138.3 219.139 1138.63 218.772C1138.95 218.405 1139.36 218.222 1139.86 218.222L1139.77 218.176Z" fill="#7F7F80"/>
<path d="M1157.19 221.843C1156.36 221.843 1155.77 221.66 1155.36 221.293C1154.94 220.926 1154.76 220.376 1154.76 219.689V219.093C1154.76 218.405 1154.99 217.855 1155.45 217.489C1155.91 217.122 1156.5 216.939 1157.28 216.939C1158.01 216.939 1158.61 217.122 1159.02 217.489C1159.43 217.855 1159.62 218.405 1159.62 219.093V219.689C1159.62 220.376 1159.43 220.926 1159.02 221.293C1158.61 221.66 1158.01 221.843 1157.23 221.843H1157.19ZM1158.93 254.478C1158.93 254.936 1158.75 255.349 1158.43 255.715C1158.06 256.082 1157.65 256.219 1157.19 256.219C1156.68 256.219 1156.27 256.036 1155.95 255.715C1155.63 255.349 1155.45 254.936 1155.45 254.478V227.527C1155.45 227.068 1155.63 226.656 1155.95 226.289C1156.27 225.922 1156.68 225.785 1157.19 225.785C1157.69 225.785 1158.11 225.968 1158.43 226.289C1158.75 226.656 1158.93 227.068 1158.93 227.527V254.478Z" fill="#7F7F80"/>
<path d="M1195.97 241.231C1195.97 244.21 1195.32 246.869 1194.04 249.206C1192.76 251.59 1191.02 253.423 1188.77 254.752C1186.52 256.082 1184 256.769 1181.16 256.769C1178.32 256.769 1175.89 256.082 1173.64 254.752C1171.4 253.423 1169.61 251.544 1168.33 249.206C1167 246.823 1166.36 244.164 1166.36 241.231C1166.36 238.297 1167 235.547 1168.33 233.21C1169.66 230.872 1171.4 228.993 1173.64 227.664C1175.89 226.334 1178.41 225.601 1181.16 225.601C1183.91 225.601 1186.57 226.289 1188.77 227.664C1191.02 229.039 1192.76 230.872 1194.04 233.21C1195.32 235.547 1195.97 238.206 1195.97 241.231ZM1192.44 241.231C1192.44 238.847 1191.93 236.739 1190.97 234.86C1190.01 233.026 1188.68 231.56 1186.94 230.46C1185.24 229.405 1183.32 228.855 1181.12 228.855C1178.92 228.855 1177.08 229.405 1175.39 230.46C1173.64 231.514 1172.32 232.981 1171.31 234.86C1170.3 236.693 1169.79 238.847 1169.79 241.231C1169.79 243.614 1170.3 245.723 1171.31 247.556C1172.32 249.39 1173.64 250.856 1175.39 251.911C1177.08 252.965 1179.01 253.515 1181.12 253.515C1183.22 253.515 1185.24 252.965 1186.94 251.911C1188.63 250.856 1189.96 249.39 1190.97 247.556C1191.93 245.723 1192.44 243.614 1192.44 241.231Z" fill="#7F7F80"/>
<path d="M1217.55 225.601C1220.12 225.601 1222.18 226.106 1223.74 227.16C1225.3 228.214 1226.4 229.589 1227.09 231.377C1227.78 233.164 1228.1 235.135 1228.1 237.244V254.478C1228.1 254.936 1227.91 255.349 1227.59 255.715C1227.23 256.082 1226.81 256.219 1226.35 256.219C1225.8 256.219 1225.39 256.036 1225.07 255.715C1224.75 255.349 1224.61 254.936 1224.61 254.478V237.427C1224.61 235.868 1224.34 234.448 1223.83 233.164C1223.33 231.881 1222.5 230.827 1221.36 230.047C1220.21 229.268 1218.7 228.856 1216.82 228.856C1215.12 228.856 1213.57 229.268 1212.05 230.047C1210.54 230.827 1209.35 231.881 1208.39 233.164C1207.47 234.448 1206.97 235.868 1206.97 237.427V254.478C1206.97 254.936 1206.78 255.349 1206.46 255.715C1206.1 256.082 1205.68 256.219 1205.22 256.219C1204.67 256.219 1204.26 256.036 1203.94 255.715C1203.62 255.349 1203.48 254.936 1203.48 254.478V228.214C1203.48 227.756 1203.67 227.343 1203.99 226.976C1204.31 226.61 1204.72 226.426 1205.22 226.426C1205.73 226.426 1206.14 226.61 1206.46 226.976C1206.78 227.343 1206.97 227.756 1206.97 228.214V233.118L1205.64 235.227C1205.73 233.989 1206.09 232.798 1206.83 231.606C1207.56 230.46 1208.48 229.406 1209.62 228.489C1210.77 227.572 1212.01 226.839 1213.38 226.335C1214.76 225.785 1216.18 225.556 1217.55 225.556V225.601Z" fill="#7F7F80"/>
<path d="M855.959 218.268C856.417 218.588 856.692 219.001 856.784 219.459C856.875 219.963 856.784 220.422 856.417 220.88C856.142 221.247 855.775 221.43 855.363 221.476C854.95 221.476 854.538 221.476 854.125 221.247C852.658 220.284 851.054 219.505 849.358 218.955C847.662 218.405 845.829 218.13 843.904 218.13C841.52 218.13 839.32 218.543 837.258 219.368C835.195 220.193 833.408 221.43 831.895 222.989C830.382 224.547 829.191 226.426 828.366 228.581C827.541 230.735 827.128 233.072 827.128 235.685C827.128 238.298 827.541 240.773 828.412 242.927C829.282 245.081 830.474 246.96 832.033 248.519C833.591 250.077 835.378 251.269 837.395 252.094C839.412 252.919 841.612 253.332 843.95 253.332C845.875 253.332 847.662 253.057 849.358 252.507C851.054 251.957 852.658 251.223 854.125 250.261C854.538 250.031 854.95 249.94 855.363 249.986C855.821 250.031 856.188 250.261 856.463 250.673C856.829 251.086 856.921 251.544 856.829 252.048C856.738 252.552 856.463 252.919 856.05 253.194C855.088 253.836 853.942 254.386 852.613 254.936C851.283 255.486 849.862 255.944 848.396 256.265C846.929 256.586 845.416 256.769 843.95 256.769C841.154 256.769 838.495 256.265 836.02 255.257C833.545 254.248 831.391 252.827 829.466 250.948C827.541 249.115 826.074 246.869 824.974 244.302C823.92 241.735 823.37 238.848 823.37 235.685C823.37 232.522 823.874 229.818 824.928 227.297C825.982 224.73 827.449 222.53 829.328 220.651C831.207 218.772 833.408 217.305 835.883 216.251C838.358 215.197 841.062 214.692 843.904 214.692C846.15 214.692 848.258 215.013 850.367 215.609C852.475 216.205 854.308 217.122 856.004 218.268H855.959Z" fill="#7F7F80"/>
<path d="M867.279 254.478C867.279 254.936 867.096 255.349 866.729 255.715C866.363 256.082 865.95 256.22 865.492 256.22C864.988 256.22 864.575 256.036 864.254 255.715C863.933 255.349 863.75 254.936 863.75 254.478V214.647C863.75 214.189 863.933 213.776 864.254 213.409C864.575 213.043 865.033 212.905 865.492 212.905C865.996 212.905 866.408 213.089 866.775 213.409C867.096 213.776 867.279 214.189 867.279 214.647V254.478Z" fill="#7F7F80"/>
<path d="M898.953 226.473C899.457 226.473 899.869 226.656 900.19 227.023C900.511 227.389 900.694 227.802 900.694 228.26V244.761C900.694 248.611 899.594 251.59 897.394 253.607C895.194 255.624 892.261 256.632 888.548 256.632C884.835 256.632 881.948 255.624 879.793 253.607C877.639 251.59 876.539 248.611 876.539 244.761V228.26C876.539 227.802 876.722 227.389 877.043 227.023C877.364 226.656 877.777 226.473 878.327 226.473C878.877 226.473 879.243 226.656 879.564 227.023C879.885 227.389 880.068 227.802 880.068 228.26V244.761C880.068 247.557 880.802 249.711 882.314 251.178C883.827 252.645 885.889 253.378 888.548 253.378C891.206 253.378 893.361 252.645 894.873 251.178C896.386 249.711 897.165 247.557 897.165 244.761V228.26C897.165 227.802 897.302 227.389 897.623 227.023C897.944 226.656 898.357 226.473 898.907 226.473H898.953Z" fill="#7F7F80"/>
<path d="M908.211 251.498C907.89 251.04 907.752 250.581 907.752 250.123C907.752 249.665 908.027 249.298 908.486 249.023C908.807 248.748 909.173 248.656 909.586 248.656C909.998 248.656 910.365 248.885 910.732 249.252C911.786 250.627 913.069 251.727 914.582 252.552C916.094 253.377 917.882 253.79 919.945 253.79C921.045 253.79 922.099 253.606 923.199 253.24C924.253 252.873 925.17 252.323 925.857 251.544C926.545 250.765 926.912 249.802 926.912 248.656C926.912 247.51 926.545 246.456 925.857 245.723C925.17 244.989 924.253 244.394 923.153 243.981C922.053 243.569 920.861 243.202 919.624 242.881C918.295 242.514 917.011 242.148 915.774 241.689C914.536 241.231 913.436 240.681 912.473 239.993C911.511 239.306 910.732 238.481 910.182 237.518C909.586 236.556 909.311 235.364 909.311 233.943C909.311 232.293 909.769 230.872 910.64 229.589C911.511 228.305 912.748 227.343 914.307 226.655C915.865 225.968 917.607 225.601 919.532 225.601C920.495 225.601 921.549 225.739 922.695 225.968C923.841 226.243 924.941 226.655 926.041 227.251C927.141 227.847 928.103 228.626 928.974 229.635C929.341 230.001 929.478 230.368 929.478 230.826C929.478 231.285 929.295 231.697 928.883 232.018C928.562 232.247 928.195 232.385 927.782 232.385C927.37 232.385 927.049 232.247 926.774 231.926C925.857 230.872 924.712 230.093 923.428 229.543C922.145 228.993 920.77 228.718 919.257 228.718C918.111 228.718 917.057 228.901 916.049 229.268C915.04 229.635 914.215 230.185 913.573 230.918C912.886 231.651 912.565 232.614 912.565 233.851C912.657 234.997 913.023 235.914 913.757 236.602C914.49 237.289 915.453 237.885 916.645 238.343C917.836 238.802 919.165 239.26 920.678 239.627C921.916 239.948 923.107 240.314 924.299 240.727C925.491 241.139 926.453 241.689 927.324 242.331C928.195 242.973 928.928 243.798 929.433 244.76C929.937 245.723 930.212 246.96 930.212 248.427C930.212 250.123 929.753 251.636 928.791 252.873C927.828 254.111 926.545 255.073 924.941 255.761C923.336 256.448 921.549 256.769 919.624 256.769C917.515 256.769 915.453 256.357 913.482 255.532C911.511 254.707 909.769 253.331 908.257 251.452L908.211 251.498Z" fill="#7F7F80"/>
<path d="M935.437 226.426H949.096C949.554 226.426 949.967 226.61 950.288 226.931C950.609 227.251 950.746 227.664 950.746 228.122C950.746 228.535 950.609 228.901 950.288 229.222C949.967 229.543 949.6 229.681 949.096 229.681H935.437C934.979 229.681 934.566 229.497 934.245 229.176C933.925 228.856 933.741 228.443 933.741 228.031C933.741 227.572 933.925 227.16 934.245 226.839C934.566 226.518 934.979 226.381 935.437 226.381V226.426ZM941.487 218.176C941.992 218.176 942.404 218.359 942.725 218.68C943.046 219.047 943.229 219.459 943.229 219.918V249.298C943.229 250.398 943.367 251.223 943.687 251.773C943.962 252.323 944.375 252.69 944.833 252.873C945.292 253.057 945.75 253.148 946.254 253.148C946.575 253.148 946.85 253.103 947.125 253.011C947.4 252.919 947.675 252.873 947.996 252.873C948.363 252.873 948.638 253.011 948.913 253.286C949.188 253.561 949.279 253.928 949.279 254.34C949.279 254.89 948.959 255.348 948.363 255.715C947.721 256.082 946.988 256.265 946.117 256.265C945.75 256.265 945.246 256.265 944.512 256.174C943.825 256.128 943.092 255.899 942.358 255.532C941.625 255.165 940.983 254.523 940.525 253.561C940.021 252.644 939.791 251.269 939.791 249.527V219.964C939.791 219.505 939.975 219.093 940.296 218.726C940.616 218.359 941.029 218.222 941.579 218.222L941.487 218.176Z" fill="#7F7F80"/>
<path d="M970.454 256.815C967.429 256.815 964.77 256.174 962.479 254.89C960.187 253.607 958.399 251.819 957.07 249.482C955.787 247.19 955.145 244.486 955.145 241.415C955.145 238.115 955.787 235.273 957.116 232.935C958.399 230.598 960.141 228.764 962.204 227.527C964.312 226.243 966.512 225.647 968.85 225.647C970.546 225.647 972.242 225.968 973.846 226.564C975.45 227.16 976.917 228.077 978.2 229.268C979.484 230.46 980.492 231.927 981.225 233.623C982.005 235.319 982.417 237.335 982.463 239.581C982.463 240.04 982.234 240.452 981.867 240.773C981.5 241.094 981.088 241.277 980.629 241.277H957.162L956.474 238.115H979.529L978.75 238.802V237.61C978.613 235.777 978.017 234.219 977.008 232.935C976 231.652 974.763 230.689 973.296 230.002C971.829 229.36 970.362 228.993 968.804 228.993C967.612 228.993 966.421 229.223 965.183 229.681C963.945 230.139 962.845 230.873 961.837 231.881C960.829 232.889 960.049 234.127 959.408 235.685C958.766 237.244 958.491 239.031 958.491 241.14C958.491 243.431 958.949 245.54 959.912 247.419C960.829 249.298 962.204 250.765 963.991 251.865C965.779 252.965 967.887 253.515 970.362 253.515C971.737 253.515 972.975 253.332 974.029 252.919C975.083 252.507 976.092 252.003 976.917 251.361C977.742 250.719 978.429 250.032 978.979 249.344C979.392 248.978 979.85 248.794 980.263 248.794C980.675 248.794 980.996 248.932 981.271 249.253C981.546 249.573 981.73 249.94 981.73 250.307C981.73 250.765 981.546 251.178 981.134 251.544C979.942 252.965 978.429 254.157 976.55 255.211C974.671 256.265 972.608 256.77 970.408 256.77L970.454 256.815Z" fill="#7F7F80"/>
<path d="M991.768 256.22C991.218 256.22 990.806 256.036 990.485 255.715C990.164 255.349 990.026 254.936 990.026 254.478V228.26C990.026 227.802 990.21 227.389 990.531 227.022C990.851 226.656 991.264 226.472 991.814 226.472C992.364 226.472 992.731 226.656 993.052 227.022C993.372 227.389 993.556 227.802 993.556 228.26V237.06L992.685 237.244C992.822 235.869 993.143 234.539 993.693 233.164C994.243 231.835 995.022 230.598 995.985 229.452C996.948 228.306 998.139 227.389 999.468 226.702C1000.8 226.014 1002.31 225.647 1004.01 225.647C1004.69 225.647 1005.38 225.785 1006.07 226.106C1006.76 226.381 1007.08 226.885 1007.08 227.527C1007.08 228.122 1006.94 228.581 1006.62 228.856C1006.3 229.177 1005.93 229.314 1005.52 229.314C1005.15 229.314 1004.79 229.223 1004.37 229.039C1003.96 228.856 1003.41 228.764 1002.77 228.764C1001.67 228.764 1000.57 229.085 999.468 229.727C998.368 230.368 997.36 231.239 996.489 232.339C995.572 233.439 994.885 234.631 994.335 236.006C993.831 237.335 993.556 238.71 993.556 240.085V254.569C993.556 255.028 993.372 255.44 993.052 255.807C992.685 256.174 992.272 256.311 991.814 256.311L991.768 256.22Z" fill="#7F7F80"/>
<path d="M1010.88 251.498C1010.56 251.04 1010.42 250.581 1010.42 250.123C1010.42 249.665 1010.7 249.298 1011.16 249.023C1011.48 248.748 1011.84 248.656 1012.26 248.656C1012.67 248.656 1013.04 248.885 1013.4 249.252C1014.46 250.627 1015.74 251.727 1017.25 252.552C1018.77 253.377 1020.55 253.79 1022.62 253.79C1023.72 253.79 1024.77 253.606 1025.87 253.24C1026.92 252.873 1027.84 252.323 1028.53 251.544C1029.22 250.765 1029.58 249.802 1029.58 248.656C1029.58 247.51 1029.22 246.456 1028.53 245.723C1027.84 244.989 1026.92 244.394 1025.82 243.981C1024.72 243.569 1023.53 243.202 1022.29 242.881C1020.97 242.514 1019.68 242.148 1018.44 241.689C1017.21 241.231 1016.11 240.681 1015.14 239.993C1014.18 239.306 1013.4 238.481 1012.85 237.518C1012.26 236.556 1011.98 235.364 1011.98 233.943C1011.98 232.293 1012.44 230.872 1013.31 229.589C1014.18 228.305 1015.42 227.343 1016.98 226.655C1018.54 225.968 1020.28 225.601 1022.2 225.601C1023.17 225.601 1024.22 225.739 1025.37 225.968C1026.51 226.243 1027.61 226.655 1028.71 227.251C1029.81 227.847 1030.77 228.626 1031.65 229.635C1032.01 230.001 1032.15 230.368 1032.15 230.826C1032.15 231.285 1031.97 231.697 1031.55 232.018C1031.23 232.247 1030.87 232.385 1030.45 232.385C1030.04 232.385 1029.72 232.247 1029.45 231.926C1028.53 230.872 1027.38 230.093 1026.1 229.543C1024.82 228.993 1023.44 228.718 1021.93 228.718C1020.78 228.718 1019.73 228.901 1018.72 229.268C1017.71 229.635 1016.89 230.185 1016.24 230.918C1015.56 231.651 1015.24 232.614 1015.24 233.851C1015.33 234.997 1015.69 235.914 1016.43 236.602C1017.16 237.289 1018.12 237.885 1019.32 238.343C1020.51 238.802 1021.84 239.26 1023.35 239.627C1024.59 239.948 1025.78 240.314 1026.97 240.727C1028.16 241.139 1029.12 241.689 1030 242.331C1030.87 242.973 1031.6 243.798 1032.1 244.76C1032.61 245.723 1032.88 246.96 1032.88 248.427C1032.88 250.123 1032.42 251.636 1031.46 252.873C1030.5 254.111 1029.22 255.073 1027.61 255.761C1026.01 256.448 1024.22 256.769 1022.29 256.769C1020.19 256.769 1018.12 256.357 1016.15 255.532C1014.18 254.707 1012.44 253.331 1010.93 251.452L1010.88 251.498Z" fill="#7F7F80"/>
<path d="M1044.16 219.047C1044.16 220.102 1043.84 221.11 1043.24 222.118C1042.6 223.127 1041.87 223.952 1041 224.593C1040.13 225.235 1039.21 225.556 1038.34 225.556C1038.02 225.556 1037.74 225.464 1037.47 225.281C1037.19 225.098 1037.05 224.731 1037.05 224.227C1037.05 223.677 1037.24 223.356 1037.56 223.31C1037.93 223.218 1038.38 223.035 1038.98 222.806C1039.62 222.439 1040.08 222.027 1040.45 221.568C1040.81 221.11 1040.95 220.56 1040.95 219.918C1040.95 219.414 1040.81 219.001 1040.49 218.726C1040.17 218.451 1039.85 218.314 1039.48 218.314C1039.21 218.314 1038.93 218.36 1038.66 218.451C1038.38 218.543 1038.15 218.681 1037.97 218.818C1037.74 218.635 1037.56 218.406 1037.42 218.131C1037.28 217.856 1037.24 217.581 1037.24 217.214C1037.33 216.572 1037.7 215.976 1038.34 215.518C1039.03 215.06 1039.76 214.83 1040.58 214.83C1041.64 214.83 1042.51 215.243 1043.2 216.068C1043.88 216.893 1044.2 217.901 1044.2 219.047H1044.16Z" fill="#7F7F80"/>
<path d="M451.509 296.096C451.967 296.096 452.38 296.234 452.7 296.554C453.021 296.875 453.159 297.242 453.159 297.746C453.159 298.25 453.021 298.617 452.7 298.938C452.38 299.259 452.013 299.396 451.509 299.396H437.162C436.75 299.396 436.337 299.213 436.016 298.892C435.696 298.571 435.512 298.159 435.512 297.746C435.512 297.242 435.696 296.829 436.016 296.554C436.337 296.279 436.75 296.096 437.162 296.096H451.509ZM449.263 282.345C449.859 282.345 450.5 282.391 451.188 282.529C451.875 282.666 452.471 282.85 452.975 283.125C453.48 283.4 453.755 283.858 453.755 284.454C453.755 284.866 453.617 285.279 453.296 285.6C452.975 285.921 452.655 286.104 452.242 286.104C451.83 286.104 451.371 286.012 450.775 285.783C450.18 285.554 449.584 285.462 448.896 285.462C448.071 285.462 447.384 285.646 446.788 286.012C446.192 286.379 445.734 286.929 445.459 287.571C445.183 288.212 445 289.083 445 290.046V323.689C445 324.147 444.817 324.56 444.496 324.926C444.175 325.293 443.763 325.431 443.258 325.431C442.754 325.431 442.342 325.247 441.975 324.926C441.654 324.56 441.471 324.147 441.471 323.689V290.046C441.471 287.571 442.204 285.646 443.671 284.316C445.138 282.987 447.017 282.345 449.309 282.345H449.263Z" fill="#7F7F80"/>
<path d="M485.241 310.443C485.241 313.422 484.6 316.08 483.316 318.418C482.033 320.801 480.291 322.635 478.045 323.964C475.799 325.293 473.278 325.981 470.437 325.981C467.595 325.981 465.166 325.293 462.92 323.964C460.674 322.635 458.886 320.756 457.603 318.418C456.274 316.035 455.632 313.376 455.632 310.443C455.632 307.509 456.274 304.759 457.603 302.421C458.932 300.084 460.674 298.205 462.92 296.875C465.166 295.546 467.687 294.813 470.437 294.813C473.187 294.813 475.845 295.5 478.045 296.875C480.291 298.25 482.033 300.084 483.316 302.421C484.6 304.759 485.241 307.417 485.241 310.443ZM481.712 310.443C481.712 308.059 481.208 305.951 480.245 304.071C479.283 302.238 477.954 300.771 476.212 299.671C474.516 298.617 472.591 298.067 470.391 298.067C468.191 298.067 466.357 298.617 464.661 299.671C462.92 300.726 461.59 302.192 460.582 304.071C459.574 305.905 459.069 308.059 459.069 310.443C459.069 312.826 459.574 314.934 460.582 316.768C461.59 318.601 462.92 320.068 464.661 321.122C466.357 322.176 468.282 322.726 470.391 322.726C472.499 322.726 474.516 322.176 476.212 321.122C477.908 320.068 479.237 318.601 480.245 316.768C481.208 314.934 481.712 312.826 481.712 310.443Z" fill="#7F7F80"/>
<path d="M494.502 325.477C493.952 325.477 493.54 325.294 493.219 324.973C492.898 324.606 492.761 324.193 492.761 323.735V297.471C492.761 297.013 492.944 296.601 493.265 296.234C493.586 295.867 493.998 295.684 494.502 295.684C495.007 295.684 495.419 295.867 495.74 296.234C496.061 296.601 496.244 297.013 496.244 297.471V306.272L495.373 306.455C495.511 305.08 495.832 303.751 496.382 302.376C496.932 301.047 497.711 299.809 498.673 298.663C499.636 297.517 500.828 296.601 502.157 295.913C503.486 295.226 504.999 294.859 506.695 294.859C507.382 294.859 508.07 294.996 508.757 295.317C509.399 295.592 509.766 296.096 509.766 296.738C509.766 297.334 509.628 297.792 509.307 298.067C508.986 298.342 508.62 298.526 508.207 298.526C507.841 298.526 507.474 298.434 507.061 298.251C506.649 298.067 506.099 297.976 505.457 297.976C504.357 297.976 503.257 298.297 502.157 298.938C501.057 299.58 500.049 300.451 499.178 301.551C498.261 302.651 497.573 303.843 497.023 305.218C496.473 306.547 496.244 307.922 496.244 309.297V323.781C496.244 324.239 496.061 324.652 495.74 325.019C495.373 325.385 494.961 325.523 494.502 325.523V325.477Z" fill="#7F7F80"/>
<path d="M534.149 325.477C533.553 325.477 533.094 325.293 532.728 324.972C532.361 324.606 532.178 324.193 532.178 323.735V286.242C532.178 285.783 532.361 285.371 532.682 285.004C533.049 284.637 533.461 284.5 533.919 284.5H549.733C551.979 284.5 553.95 284.958 555.691 285.921C557.433 286.883 558.808 288.213 559.816 289.863C560.825 291.559 561.329 293.438 561.329 295.546C561.329 297.288 561.008 298.846 560.412 300.313C559.816 301.78 558.9 302.972 557.754 303.98C556.608 304.988 555.37 305.722 553.95 306.18L551.887 305.538C553.354 305.676 554.683 306.134 555.92 306.913C557.158 307.693 558.166 308.793 558.946 310.214C559.725 311.589 560.091 313.284 560.137 315.21C560.137 316.905 560.275 318.189 560.412 319.151C560.55 320.068 560.733 320.801 561.008 321.26C561.283 321.718 561.65 322.085 562.062 322.36C562.475 322.589 562.704 322.91 562.842 323.368C562.979 323.781 562.933 324.193 562.704 324.606C562.567 324.927 562.337 325.156 562.017 325.293C561.696 325.431 561.421 325.477 561.1 325.477C560.779 325.477 560.458 325.385 560.183 325.247C559.633 324.927 559.083 324.468 558.533 323.781C557.983 323.139 557.479 322.131 557.112 320.847C556.745 319.564 556.562 317.776 556.562 315.439C556.562 313.926 556.333 312.689 555.829 311.68C555.325 310.718 554.729 309.939 553.95 309.434C553.17 308.93 552.345 308.518 551.429 308.334C550.512 308.105 549.641 308.013 548.816 308.013H535.157L535.799 307.188V323.781C535.799 324.239 535.661 324.652 535.34 325.018C535.02 325.385 534.607 325.523 534.103 325.523L534.149 325.477ZM535.203 304.759H549.916C551.245 304.622 552.483 304.209 553.674 303.43C554.866 302.651 555.783 301.642 556.516 300.313C557.25 298.984 557.616 297.425 557.616 295.684C557.616 293.438 556.883 291.604 555.37 290.138C553.858 288.671 551.887 287.938 549.503 287.938H535.524L535.936 287.112V305.584L535.295 304.759H535.203Z" fill="#7F7F80"/>
<path d="M583.743 326.027C580.717 326.027 578.059 325.385 575.767 324.102C573.475 322.818 571.688 321.031 570.359 318.693C569.075 316.401 568.434 313.697 568.434 310.626C568.434 307.326 569.075 304.484 570.405 302.146C571.734 299.809 573.43 297.975 575.492 296.738C577.555 295.5 579.801 294.813 582.138 294.813C583.834 294.813 585.53 295.134 587.134 295.729C588.739 296.325 590.205 297.242 591.489 298.434C592.772 299.625 593.781 301.092 594.514 302.788C595.293 304.53 595.706 306.501 595.751 308.747C595.751 309.205 595.522 309.618 595.156 309.938C594.789 310.259 594.376 310.443 593.918 310.443H570.45L569.763 307.28H592.864L592.085 307.968V306.776C591.947 304.942 591.351 303.384 590.343 302.101C589.335 300.817 588.097 299.855 586.63 299.167C585.163 298.525 583.697 298.159 582.138 298.159C580.947 298.159 579.755 298.388 578.517 298.846C577.28 299.305 576.18 300.038 575.171 301.046C574.163 302.055 573.384 303.292 572.742 304.851C572.1 306.409 571.825 308.197 571.825 310.351C571.825 312.643 572.284 314.751 573.246 316.63C574.209 318.51 575.538 319.976 577.326 321.076C579.113 322.176 581.222 322.726 583.697 322.726C585.072 322.726 586.309 322.543 587.409 322.131C588.509 321.718 589.472 321.214 590.297 320.572C591.122 319.931 591.81 319.243 592.36 318.555C592.772 318.189 593.231 318.005 593.643 318.005C594.056 318.005 594.376 318.143 594.651 318.464C594.926 318.785 595.11 319.105 595.11 319.518C595.11 319.976 594.926 320.389 594.514 320.756C593.322 322.176 591.81 323.368 589.93 324.422C588.051 325.477 585.989 325.981 583.788 325.981L583.743 326.027Z" fill="#7F7F80"/>
<path d="M601.618 320.71C601.297 320.251 601.16 319.793 601.16 319.335C601.16 318.876 601.435 318.51 601.893 318.235C602.214 317.96 602.581 317.822 602.993 317.868C603.406 317.868 603.772 318.097 604.139 318.464C605.193 319.839 606.477 320.939 607.989 321.764C609.502 322.589 611.289 323.001 613.352 323.001C614.452 323.001 615.506 322.818 616.606 322.451C617.66 322.085 618.577 321.535 619.265 320.756C619.952 319.976 620.319 319.014 620.319 317.868C620.319 316.722 619.952 315.668 619.265 314.934C618.577 314.201 617.66 313.605 616.56 313.193C615.46 312.78 614.269 312.414 613.031 312.093C611.702 311.726 610.418 311.359 609.181 310.901C607.943 310.443 606.843 309.893 605.881 309.205C604.918 308.518 604.139 307.692 603.589 306.73C602.993 305.767 602.718 304.576 602.718 303.155C602.718 301.505 603.176 300.084 604.047 298.8C604.964 297.563 606.156 296.554 607.714 295.867C609.272 295.179 611.014 294.813 612.939 294.813C613.902 294.813 614.956 294.95 616.102 295.179C617.248 295.454 618.348 295.867 619.448 296.417C620.548 297.013 621.511 297.792 622.381 298.8C622.748 299.167 622.886 299.534 622.886 299.992C622.886 300.45 622.702 300.863 622.29 301.184C621.969 301.413 621.602 301.551 621.19 301.551C620.777 301.551 620.456 301.413 620.181 301.092C619.265 300.038 618.119 299.259 616.835 298.709C615.552 298.159 614.177 297.884 612.664 297.884C611.518 297.884 610.464 298.067 609.456 298.434C608.447 298.8 607.622 299.35 606.981 300.084C606.339 300.817 605.972 301.826 605.972 303.017C606.064 304.163 606.431 305.08 607.164 305.767C607.897 306.455 608.86 307.051 610.052 307.509C611.243 307.968 612.573 308.426 614.085 308.793C615.323 309.113 616.515 309.48 617.706 309.893C618.852 310.305 619.86 310.855 620.731 311.497C621.602 312.139 622.29 312.964 622.84 313.926C623.344 314.889 623.619 316.126 623.619 317.639C623.619 319.335 623.161 320.847 622.198 322.085C621.236 323.322 619.952 324.285 618.348 324.972C616.744 325.614 614.956 325.981 613.031 325.981C610.923 325.981 608.86 325.568 606.889 324.743C604.918 323.918 603.176 322.543 601.664 320.664L601.618 320.71Z" fill="#7F7F80"/>
<path d="M644.337 326.027C641.312 326.027 638.654 325.385 636.362 324.102C634.07 322.818 632.283 321.031 630.953 318.693C629.67 316.401 629.028 313.697 629.028 310.626C629.028 307.326 629.67 304.484 630.999 302.146C632.328 299.809 634.024 297.975 636.087 296.738C638.15 295.5 640.395 294.813 642.733 294.813C644.429 294.813 646.125 295.134 647.729 295.729C649.333 296.325 650.8 297.242 652.083 298.434C653.367 299.625 654.375 301.092 655.109 302.788C655.888 304.53 656.3 306.501 656.346 308.747C656.346 309.205 656.117 309.618 655.75 309.938C655.384 310.259 654.971 310.443 654.513 310.443H631.045L630.358 307.28H653.458L652.679 307.968V306.776C652.542 304.942 651.946 303.384 650.938 302.101C649.929 300.817 648.692 299.855 647.225 299.167C645.758 298.525 644.291 298.159 642.733 298.159C641.541 298.159 640.35 298.388 639.112 298.846C637.875 299.305 636.774 300.038 635.766 301.046C634.758 302.055 633.978 303.292 633.337 304.851C632.695 306.409 632.42 308.197 632.42 310.351C632.42 312.643 632.878 314.751 633.841 316.63C634.804 318.51 636.133 319.976 637.92 321.076C639.708 322.176 641.816 322.726 644.291 322.726C645.666 322.726 646.904 322.543 648.004 322.131C649.104 321.718 650.067 321.214 650.892 320.572C651.717 319.931 652.404 319.243 652.954 318.555C653.367 318.189 653.825 318.005 654.238 318.005C654.65 318.005 654.971 318.143 655.246 318.464C655.521 318.785 655.704 319.105 655.704 319.518C655.704 319.976 655.521 320.389 655.109 320.756C653.917 322.176 652.404 323.368 650.525 324.422C648.646 325.477 646.583 325.981 644.383 325.981L644.337 326.027Z" fill="#7F7F80"/>
<path d="M688.659 295.546C689.163 295.546 689.576 295.73 689.942 296.096C690.263 296.463 690.446 296.875 690.446 297.38V323.735C690.446 324.193 690.263 324.606 689.942 324.973C689.576 325.339 689.163 325.477 688.705 325.477C688.2 325.477 687.788 325.293 687.467 324.973C687.146 324.606 686.963 324.193 686.963 323.735V316.768L687.971 316.31C687.971 317.41 687.65 318.51 687.055 319.656C686.459 320.801 685.634 321.856 684.579 322.818C683.525 323.781 682.288 324.606 680.867 325.202C679.446 325.798 677.888 326.118 676.283 326.118C673.625 326.118 671.241 325.431 669.179 324.056C667.07 322.681 665.466 320.802 664.274 318.418C663.083 316.035 662.487 313.376 662.487 310.397C662.487 307.418 663.083 304.667 664.32 302.33C665.512 299.992 667.162 298.159 669.225 296.875C671.287 295.592 673.625 294.905 676.237 294.905C677.933 294.905 679.492 295.18 680.958 295.775C682.425 296.371 683.709 297.15 684.809 298.159C685.909 299.167 686.734 300.313 687.375 301.642C687.971 302.972 688.292 304.301 688.292 305.722L687.055 304.851V297.425C687.055 296.921 687.238 296.509 687.559 296.142C687.88 295.775 688.292 295.592 688.796 295.592L688.659 295.546ZM676.467 322.772C678.529 322.772 680.363 322.222 681.967 321.168C683.571 320.114 684.809 318.601 685.725 316.722C686.642 314.843 687.1 312.689 687.1 310.351C687.1 308.013 686.642 305.997 685.725 304.163C684.809 302.33 683.525 300.863 681.967 299.763C680.363 298.663 678.529 298.113 676.467 298.113C674.404 298.113 672.616 298.617 671.012 299.671C669.408 300.726 668.125 302.192 667.208 304.026C666.291 305.859 665.833 307.968 665.833 310.351C665.833 312.734 666.291 314.797 667.208 316.722C668.125 318.601 669.362 320.114 670.966 321.168C672.571 322.222 674.404 322.772 676.467 322.772Z" fill="#7F7F80"/>
<path d="M701.355 325.477C700.805 325.477 700.393 325.294 700.072 324.973C699.751 324.606 699.613 324.193 699.613 323.735V297.471C699.613 297.013 699.797 296.601 700.117 296.234C700.438 295.867 700.851 295.684 701.355 295.684C701.859 295.684 702.272 295.867 702.593 296.234C702.913 296.601 703.097 297.013 703.097 297.471V306.272L702.226 306.455C702.363 305.08 702.684 303.751 703.234 302.376C703.784 301.047 704.563 299.809 705.526 298.663C706.489 297.517 707.68 296.601 709.01 295.913C710.339 295.226 711.851 294.859 713.547 294.859C714.235 294.859 714.922 294.996 715.61 295.317C716.252 295.592 716.618 296.096 716.618 296.738C716.618 297.334 716.481 297.792 716.16 298.067C715.839 298.342 715.472 298.526 715.06 298.526C714.693 298.526 714.326 298.434 713.914 298.251C713.501 298.067 712.951 297.976 712.31 297.976C711.21 297.976 710.11 298.297 709.01 298.938C707.909 299.58 706.901 300.451 706.03 301.551C705.113 302.651 704.426 303.843 703.876 305.218C703.326 306.547 703.097 307.922 703.097 309.297V323.781C703.097 324.239 702.913 324.652 702.593 325.019C702.226 325.385 701.813 325.523 701.355 325.523V325.477Z" fill="#7F7F80"/>
<path d="M734.036 294.813C735.915 294.813 737.611 294.996 739.17 295.409C740.728 295.821 742.012 296.371 742.928 297.059C743.891 297.746 744.349 298.526 744.349 299.351C744.349 299.763 744.212 300.13 743.937 300.497C743.662 300.863 743.295 301.047 742.837 301.047C742.378 301.047 741.966 300.909 741.691 300.68C741.416 300.451 741.095 300.176 740.82 299.855C740.545 299.534 740.086 299.259 739.582 298.984C739.078 298.755 738.345 298.526 737.428 298.342C736.511 298.159 735.411 298.067 734.22 298.067C732.019 298.067 730.048 298.617 728.307 299.717C726.565 300.817 725.144 302.284 724.136 304.118C723.127 305.951 722.623 308.059 722.623 310.351C722.623 312.643 723.127 314.797 724.09 316.676C725.052 318.556 726.428 320.022 728.123 321.077C729.819 322.131 731.836 322.681 734.174 322.681C735.732 322.681 736.924 322.543 737.795 322.268C738.666 321.993 739.399 321.672 740.041 321.352C740.774 320.939 741.324 320.481 741.645 320.068C741.966 319.656 742.424 319.472 742.974 319.472C743.478 319.472 743.845 319.61 744.12 319.931C744.395 320.206 744.487 320.618 744.487 321.077C744.487 321.718 744.028 322.406 743.112 323.139C742.195 323.918 740.911 324.56 739.353 325.11C737.795 325.66 735.915 325.981 733.853 325.981C730.919 325.981 728.353 325.293 726.152 323.918C723.952 322.543 722.211 320.664 721.019 318.326C719.781 315.943 719.186 313.285 719.186 310.351C719.186 307.418 719.827 304.897 721.065 302.559C722.302 300.221 724.044 298.342 726.29 296.921C728.536 295.5 731.149 294.767 734.128 294.767L734.036 294.813Z" fill="#7F7F80"/>
<path d="M764.883 295.271C767.358 295.271 769.329 295.776 770.841 296.83C772.354 297.884 773.5 299.305 774.187 301.093C774.921 302.88 775.287 304.897 775.287 307.051V323.644C775.287 324.102 775.104 324.514 774.783 324.881C774.416 325.248 774.004 325.385 773.546 325.385C772.995 325.385 772.583 325.202 772.262 324.881C771.941 324.514 771.804 324.102 771.804 323.644V307.051C771.804 305.447 771.575 304.026 771.07 302.697C770.566 301.413 769.787 300.405 768.687 299.626C767.587 298.847 766.12 298.48 764.287 298.48C762.637 298.48 761.078 298.847 759.612 299.626C758.145 300.405 756.953 301.413 756.082 302.697C755.165 303.98 754.753 305.447 754.753 307.051V323.644C754.753 324.102 754.57 324.514 754.249 324.881C753.882 325.248 753.47 325.385 753.011 325.385C752.461 325.385 752.049 325.202 751.728 324.881C751.407 324.514 751.27 324.102 751.27 323.644V283.813C751.27 283.354 751.453 282.942 751.774 282.575C752.095 282.208 752.507 282.025 753.011 282.025C753.515 282.025 753.928 282.208 754.249 282.575C754.57 282.942 754.753 283.354 754.753 283.813V302.788L753.424 304.851C753.515 303.659 753.882 302.468 754.57 301.322C755.257 300.176 756.128 299.122 757.228 298.205C758.328 297.288 759.52 296.555 760.849 296.051C762.178 295.546 763.508 295.271 764.883 295.271Z" fill="#7F7F80"/>
<path d="M811.772 326.027C809.022 326.027 806.547 325.385 804.393 324.102C802.239 322.818 800.589 321.168 799.397 319.105C798.205 317.089 797.609 314.934 797.609 312.643C797.609 310.947 797.93 309.251 798.618 307.647C799.305 306.042 800.359 304.621 801.735 303.338C803.11 302.055 804.897 301.046 807.051 300.313L809.572 302.834C806.547 303.521 804.393 304.759 803.11 306.455C801.872 308.197 801.23 310.076 801.23 312.138C801.23 313.88 801.643 315.576 802.468 317.135C803.293 318.693 804.531 320.022 806.135 321.031C807.785 322.039 809.802 322.543 812.185 322.543C814.706 322.543 816.906 322.131 818.694 321.306C820.527 320.481 822.04 319.335 823.277 317.96C824.515 316.585 825.523 315.026 826.256 313.284C826.99 311.543 827.54 309.801 827.907 307.967C827.998 307.601 828.136 307.28 828.411 307.051C828.686 306.822 829.007 306.73 829.511 306.73C830.061 306.73 830.473 306.913 830.794 307.326C831.115 307.738 831.207 308.197 831.161 308.793C830.794 310.901 830.152 312.964 829.236 314.98C828.319 316.997 827.036 318.876 825.431 320.526C823.827 322.176 821.902 323.506 819.61 324.468C817.319 325.431 814.752 325.935 811.772 325.935V326.027ZM832.582 325.247C832.582 325.247 832.215 325.247 832.032 325.156C831.848 325.064 831.711 325.018 831.527 324.972C829.144 323.093 826.852 321.306 824.652 319.564C822.452 317.822 820.252 315.943 818.098 313.926C815.944 311.909 813.652 309.572 811.268 306.913C809.893 305.355 808.656 303.842 807.556 302.33C806.456 300.817 805.585 299.35 804.897 297.884C804.255 296.417 803.889 294.95 803.889 293.529C803.889 291.742 804.347 290.092 805.218 288.625C806.135 287.158 807.372 286.012 809.022 285.187C810.672 284.362 812.597 283.904 814.889 283.904C817.685 283.904 820.023 284.454 821.856 285.508C823.69 286.562 824.973 287.8 825.706 289.267C825.706 289.267 825.798 289.45 825.89 289.633C825.981 289.863 826.027 290.092 826.027 290.367C826.027 290.733 825.89 291.054 825.569 291.375C825.294 291.696 824.881 291.833 824.377 291.833C824.056 291.833 823.781 291.788 823.598 291.65C823.369 291.513 823.231 291.375 823.094 291.192C822.315 290 821.306 289.037 820.023 288.304C818.739 287.571 817.044 287.158 814.889 287.158C812.506 287.158 810.672 287.754 809.435 288.946C808.197 290.138 807.556 291.65 807.556 293.529C807.556 294.721 807.876 296.004 808.564 297.38C809.206 298.709 810.077 300.084 811.131 301.459C812.185 302.834 813.239 304.163 814.385 305.447C815.943 307.188 817.594 308.93 819.335 310.58C821.077 312.23 822.773 313.789 824.469 315.255C826.165 316.722 827.769 318.005 829.282 319.197C830.794 320.389 832.169 321.397 833.315 322.314C833.59 322.497 833.773 322.726 833.911 322.956C834.048 323.185 834.094 323.46 834.094 323.781C834.094 324.102 833.957 324.422 833.682 324.835C833.407 325.247 833.04 325.431 832.49 325.431L832.582 325.247Z" fill="#7F7F80"/>
<path d="M868.425 326.027C865.446 326.027 862.879 325.614 860.679 324.606C858.479 323.598 856.416 322.177 854.399 320.206C854.216 320.068 854.033 319.839 853.895 319.61C853.758 319.381 853.712 319.106 853.712 318.785C853.712 318.327 853.895 317.868 854.262 317.502C854.629 317.089 855.041 316.906 855.499 316.906C855.958 316.906 856.416 317.089 856.783 317.502C858.295 319.152 860.037 320.389 861.962 321.26C863.887 322.131 865.996 322.543 868.196 322.543C870.075 322.543 871.725 322.268 873.192 321.673C874.659 321.077 875.805 320.252 876.675 319.152C877.546 318.052 877.959 316.768 877.959 315.347C877.959 313.56 877.455 312.093 876.492 310.993C875.53 309.893 874.246 308.976 872.642 308.243C871.038 307.509 869.25 306.868 867.325 306.272C865.721 305.814 864.208 305.264 862.741 304.668C861.275 304.072 859.991 303.338 858.891 302.422C857.745 301.551 856.875 300.451 856.233 299.167C855.591 297.884 855.316 296.326 855.316 294.492C855.316 292.43 855.866 290.596 856.966 288.992C858.066 287.388 859.625 286.15 861.641 285.233C863.658 284.317 865.996 283.858 868.654 283.858C870.946 283.858 873.192 284.271 875.3 285.05C877.409 285.829 879.105 286.975 880.388 288.488C880.984 289.129 881.259 289.679 881.259 290.184C881.259 290.596 881.076 290.963 880.663 291.375C880.251 291.788 879.838 291.971 879.38 291.971C878.967 291.971 878.646 291.834 878.371 291.559C877.73 290.734 876.859 290 875.85 289.359C874.842 288.717 873.696 288.213 872.504 287.846C871.267 287.479 869.984 287.342 868.654 287.342C866.821 287.342 865.171 287.617 863.704 288.213C862.237 288.809 861.091 289.588 860.266 290.642C859.441 291.696 859.029 292.98 859.029 294.446C859.029 296.096 859.487 297.426 860.45 298.48C861.412 299.534 862.604 300.405 864.162 301.092C865.721 301.78 867.325 302.422 869.021 303.018C870.717 303.476 872.321 304.026 873.834 304.622C875.392 305.218 876.721 305.997 877.913 306.868C879.105 307.739 880.021 308.885 880.709 310.26C881.396 311.635 881.717 313.331 881.717 315.393C881.717 317.456 881.167 319.197 880.021 320.802C878.876 322.406 877.317 323.689 875.346 324.606C873.375 325.523 871.038 326.027 868.425 326.073V326.027Z" fill="#7F7F80"/>
<path d="M917.011 310.443C917.011 313.422 916.369 316.08 915.086 318.418C913.802 320.801 912.061 322.635 909.815 323.964C907.569 325.293 905.048 325.981 902.206 325.981C899.364 325.981 896.935 325.293 894.689 323.964C892.443 322.635 890.656 320.756 889.372 318.418C888.043 316.035 887.401 313.376 887.401 310.443C887.401 307.509 888.043 304.759 889.372 302.421C890.701 300.084 892.443 298.205 894.689 296.875C896.935 295.546 899.456 294.813 902.206 294.813C904.956 294.813 907.615 295.5 909.815 296.875C912.061 298.25 913.802 300.084 915.086 302.421C916.369 304.759 917.011 307.417 917.011 310.443ZM913.482 310.443C913.482 308.059 912.977 305.951 912.015 304.071C911.052 302.238 909.723 300.771 907.981 299.671C906.286 298.617 904.36 298.067 902.16 298.067C899.96 298.067 898.127 298.617 896.431 299.671C894.689 300.726 893.36 302.192 892.352 304.071C891.343 305.905 890.839 308.059 890.839 310.443C890.839 312.826 891.343 314.934 892.352 316.768C893.36 318.601 894.689 320.068 896.431 321.122C898.127 322.176 900.052 322.726 902.16 322.726C904.269 322.726 906.286 322.176 907.981 321.122C909.677 320.068 911.007 318.601 912.015 316.768C912.977 314.934 913.482 312.826 913.482 310.443Z" fill="#7F7F80"/>
<path d="M937.73 294.813C939.609 294.813 941.305 294.996 942.863 295.409C944.421 295.821 945.705 296.371 946.622 297.059C947.584 297.746 948.042 298.526 948.042 299.351C948.042 299.763 947.905 300.13 947.63 300.497C947.355 300.863 946.988 301.047 946.53 301.047C946.072 301.047 945.659 300.909 945.384 300.68C945.109 300.451 944.788 300.176 944.513 299.855C944.238 299.534 943.78 299.259 943.276 298.984C942.771 298.755 942.038 298.526 941.121 298.342C940.205 298.159 939.105 298.067 937.913 298.067C935.713 298.067 933.742 298.617 932 299.717C930.258 300.817 928.837 302.284 927.829 304.118C926.821 305.951 926.317 308.059 926.317 310.351C926.317 312.643 926.821 314.797 927.783 316.676C928.746 318.556 930.121 320.022 931.817 321.077C933.513 322.131 935.529 322.681 937.867 322.681C939.425 322.681 940.617 322.543 941.488 322.268C942.359 321.993 943.092 321.672 943.734 321.352C944.467 320.939 945.017 320.481 945.338 320.068C945.659 319.656 946.117 319.472 946.667 319.472C947.172 319.472 947.538 319.61 947.813 319.931C948.088 320.206 948.18 320.618 948.18 321.077C948.18 321.718 947.722 322.406 946.805 323.139C945.888 323.918 944.605 324.56 943.046 325.11C941.488 325.66 939.609 325.981 937.546 325.981C934.613 325.981 932.046 325.293 929.846 323.918C927.646 322.543 925.904 320.664 924.712 318.326C923.475 315.943 922.879 313.285 922.879 310.351C922.879 307.418 923.521 304.897 924.758 302.559C925.996 300.221 927.737 298.342 929.983 296.921C932.229 295.5 934.842 294.767 937.821 294.767L937.73 294.813Z" fill="#7F7F80"/>
<path d="M956.521 291.055C955.696 291.055 955.1 290.871 954.688 290.505C954.275 290.138 954.092 289.588 954.092 288.9V288.304C954.092 287.617 954.321 287.067 954.779 286.7C955.238 286.333 955.833 286.15 956.613 286.15C957.346 286.15 957.942 286.333 958.354 286.7C958.767 287.067 958.95 287.617 958.95 288.304V288.9C958.95 289.588 958.767 290.138 958.354 290.505C957.942 290.871 957.346 291.055 956.567 291.055H956.521ZM958.263 323.689C958.263 324.148 958.079 324.56 957.759 324.927C957.392 325.294 956.979 325.431 956.521 325.431C956.017 325.431 955.604 325.248 955.283 324.927C954.963 324.56 954.779 324.148 954.779 323.689V296.738C954.779 296.28 954.963 295.867 955.283 295.501C955.604 295.134 956.017 294.996 956.521 294.996C957.025 294.996 957.438 295.18 957.759 295.501C958.079 295.867 958.263 296.28 958.263 296.738V323.689Z" fill="#7F7F80"/>
<path d="M980.952 326.027C977.927 326.027 975.269 325.385 972.977 324.102C970.685 322.818 968.897 321.031 967.568 318.693C966.285 316.401 965.643 313.697 965.643 310.626C965.643 307.326 966.285 304.484 967.614 302.146C968.943 299.809 970.639 297.975 972.702 296.738C974.764 295.5 977.01 294.813 979.348 294.813C981.044 294.813 982.74 295.134 984.344 295.729C985.948 296.325 987.415 297.242 988.698 298.434C989.982 299.625 990.99 301.092 991.723 302.788C992.503 304.53 992.915 306.501 992.961 308.747C992.961 309.205 992.732 309.618 992.365 309.938C991.998 310.259 991.586 310.443 991.128 310.443H967.66L966.972 307.28H990.073L989.294 307.968V306.776C989.157 304.942 988.561 303.384 987.552 302.101C986.544 300.817 985.306 299.855 983.84 299.167C982.373 298.525 980.906 298.159 979.348 298.159C978.156 298.159 976.964 298.388 975.727 298.846C974.489 299.305 973.389 300.038 972.381 301.046C971.372 302.055 970.593 303.292 969.952 304.851C969.31 306.409 969.035 308.197 969.035 310.351C969.035 312.643 969.493 314.751 970.456 316.63C971.418 318.51 972.748 319.976 974.535 321.076C976.323 322.176 978.431 322.726 980.906 322.726C982.281 322.726 983.519 322.543 984.619 322.131C985.719 321.718 986.682 321.214 987.507 320.572C988.332 319.931 989.019 319.243 989.569 318.555C989.982 318.189 990.44 318.005 990.853 318.005C991.265 318.005 991.586 318.143 991.861 318.464C992.136 318.785 992.319 319.105 992.319 319.518C992.319 319.976 992.136 320.389 991.723 320.756C990.532 322.176 989.019 323.368 987.14 324.422C985.261 325.477 983.198 325.981 980.998 325.981L980.952 326.027Z" fill="#7F7F80"/>
<path d="M998.552 295.638H1012.21C1012.67 295.638 1013.08 295.821 1013.4 296.142C1013.72 296.463 1013.86 296.875 1013.86 297.334C1013.86 297.746 1013.72 298.113 1013.4 298.434C1013.08 298.755 1012.72 298.892 1012.21 298.892H998.552C998.094 298.892 997.681 298.709 997.361 298.388C997.04 298.067 996.856 297.655 996.856 297.242C996.856 296.784 997.04 296.371 997.361 296.05C997.681 295.73 998.094 295.592 998.552 295.592V295.638ZM1004.6 287.388C1005.11 287.388 1005.52 287.571 1005.84 287.938C1006.16 288.304 1006.34 288.717 1006.34 289.175V318.556C1006.34 319.656 1006.48 320.481 1006.8 321.031C1007.08 321.581 1007.49 321.947 1007.95 322.131C1008.41 322.314 1008.87 322.406 1009.37 322.406C1009.69 322.406 1009.97 322.36 1010.24 322.268C1010.47 322.177 1010.79 322.131 1011.11 322.131C1011.48 322.131 1011.75 322.268 1012.03 322.543C1012.26 322.818 1012.39 323.185 1012.39 323.597C1012.39 324.148 1012.07 324.606 1011.48 324.973C1010.84 325.339 1010.1 325.523 1009.23 325.523C1008.87 325.523 1008.36 325.523 1007.67 325.431C1006.99 325.339 1006.25 325.156 1005.52 324.789C1004.79 324.423 1004.14 323.781 1003.69 322.818C1003.23 321.856 1002.95 320.527 1002.95 318.785V289.221C1002.95 288.763 1003.14 288.35 1003.46 287.983C1003.78 287.617 1004.19 287.433 1004.69 287.433L1004.6 287.388Z" fill="#7F7F80"/>
<path d="M1042.65 294.996C1043.15 294.996 1043.56 295.18 1043.88 295.501C1044.21 295.867 1044.39 296.28 1044.39 296.738V322.589C1044.39 325.752 1043.75 328.41 1042.51 330.565C1041.27 332.719 1039.58 334.369 1037.47 335.469C1035.36 336.569 1032.98 337.119 1030.27 337.119C1028.58 337.119 1027.02 336.936 1025.6 336.569C1024.18 336.202 1023.03 335.698 1022.11 335.148C1021.65 334.873 1021.29 334.552 1021.06 334.14C1020.83 333.727 1020.78 333.361 1021.01 332.902C1021.2 332.352 1021.52 331.985 1021.93 331.802C1022.34 331.619 1022.75 331.619 1023.17 331.802C1023.81 332.169 1024.77 332.581 1026.05 333.085C1027.34 333.59 1028.71 333.865 1030.32 333.865C1032.47 333.865 1034.35 333.406 1035.91 332.535C1037.47 331.619 1038.71 330.335 1039.58 328.639C1040.45 326.944 1040.86 324.927 1040.86 322.589V318.372L1041.27 319.793C1040.68 320.985 1039.85 322.085 1038.8 323.002C1037.74 323.918 1036.51 324.652 1035.08 325.202C1033.71 325.706 1032.24 325.981 1030.68 325.981C1028.35 325.981 1026.42 325.523 1024.86 324.56C1023.3 323.598 1022.16 322.268 1021.43 320.618C1020.69 318.922 1020.33 316.951 1020.33 314.706V296.738C1020.33 296.28 1020.46 295.867 1020.78 295.501C1021.1 295.134 1021.52 294.996 1022.07 294.996C1022.57 294.996 1022.98 295.18 1023.3 295.501C1023.63 295.867 1023.81 296.28 1023.81 296.738V314.201C1023.81 316.951 1024.4 319.06 1025.6 320.527C1026.79 321.993 1028.71 322.773 1031.42 322.773C1033.11 322.773 1034.63 322.36 1036.05 321.581C1037.47 320.802 1038.61 319.747 1039.48 318.418C1040.4 317.089 1040.81 315.714 1040.81 314.247V296.784C1040.81 296.326 1041 295.913 1041.32 295.546C1041.64 295.18 1042.05 295.042 1042.56 295.042L1042.65 294.996Z" fill="#7F7F80"/>
<path d="M570.268 111.105C570.268 121.189 568.617 130.631 565.272 139.294C561.926 148.002 557.25 155.611 551.2 162.12C545.15 168.628 537.999 173.716 529.749 177.383C521.499 181.05 512.469 182.883 502.66 182.883C492.852 182.883 484.005 181.05 475.755 177.383C467.505 173.716 460.354 168.628 454.304 162.12C448.254 155.611 443.625 148.002 440.37 139.294C437.116 130.585 435.466 121.189 435.466 111.105C435.466 101.021 437.07 91.6249 440.37 82.9162C443.625 74.2075 448.254 66.5988 454.304 60.0902C460.354 53.5816 467.505 48.4938 475.755 44.827C484.005 41.1602 492.943 39.3268 502.66 39.3268C512.378 39.3268 521.545 41.1602 529.749 44.827C537.999 48.4938 545.15 53.5816 551.2 60.0902C557.25 66.5988 561.926 74.2075 565.272 82.9162C568.572 91.6249 570.268 101.021 570.268 111.105ZM548.725 111.105C548.725 101.25 546.754 92.4499 542.858 84.6121C538.916 76.7743 533.508 70.5865 526.632 66.0946C519.711 61.5569 511.736 59.311 502.706 59.311C493.677 59.311 485.885 61.5569 478.964 66.0946C472.042 70.6323 466.68 76.7743 462.829 84.5204C458.979 92.3124 457.054 101.159 457.054 111.151C457.054 121.143 458.979 129.806 462.829 137.644C466.68 145.481 472.042 151.669 478.964 156.161C485.885 160.699 493.768 162.945 502.706 162.945C511.644 162.945 519.711 160.699 526.632 156.161C533.553 151.623 538.962 145.481 542.858 137.644C546.754 129.806 548.725 120.96 548.725 111.151V111.105Z" fill="#1D1D1B"/>
<path d="M647.454 182.837C637.874 182.837 629.395 181.508 621.924 178.849C614.498 176.191 607.394 171.791 600.61 165.695C599.143 164.641 598.043 163.357 597.31 161.799C596.577 160.286 596.21 158.728 596.21 157.124C596.21 154.603 597.127 152.357 599.006 150.34C600.885 148.369 603.177 147.361 605.973 147.361C608.081 147.361 610.098 148.094 611.931 149.561C616.973 154.236 622.244 157.719 627.791 160.149C633.291 162.532 639.799 163.724 647.225 163.724C652.542 163.724 657.4 162.853 661.892 161.111C666.338 159.369 669.913 157.078 672.572 154.144C675.23 151.211 676.559 147.819 676.559 143.969C676.559 139.202 675.184 135.214 672.48 132.097C669.776 128.981 665.834 126.368 660.7 124.305C655.567 122.243 649.425 120.501 642.274 119.034C635.628 117.843 629.67 116.193 624.445 114.038C619.173 111.93 614.727 109.226 610.969 105.971C607.256 102.717 604.369 98.821 602.398 94.3291C600.427 89.7914 599.418 84.5662 599.418 78.5618C599.418 70.4489 601.527 63.4819 605.79 57.615C610.052 51.7481 615.827 47.2562 623.115 44.0478C630.403 40.8393 638.653 39.2809 647.821 39.2809C656.208 39.2809 664.046 40.5643 671.334 43.1769C678.622 45.7895 684.535 49.273 689.072 53.6273C692.281 56.4233 693.839 59.4026 693.839 62.6111C693.839 64.9945 692.877 67.2404 690.952 69.303C689.027 71.3656 686.781 72.374 684.26 72.374C682.38 72.374 680.822 71.824 679.493 70.7698C677.384 68.5238 674.497 66.5071 670.922 64.6737C667.346 62.8861 663.496 61.3735 659.463 60.1818C655.429 58.9901 651.533 58.3942 647.821 58.3942C641.862 58.3942 636.728 59.2193 632.466 60.8693C628.203 62.5194 624.949 64.8112 622.703 67.653C620.457 70.4947 619.311 73.8866 619.311 77.7367C619.311 82.2744 620.594 85.9871 623.207 88.9206C625.82 91.854 629.441 94.1916 634.07 95.9792C638.699 97.7668 644.016 99.4168 650.021 100.884C657.308 102.488 663.863 104.275 669.638 106.246C675.413 108.217 680.318 110.784 684.305 113.901C688.293 117.018 691.364 120.914 693.473 125.543C695.581 130.218 696.681 135.993 696.681 142.869C696.681 150.844 694.435 157.811 689.897 163.815C685.36 169.774 679.447 174.449 672.067 177.749C664.688 181.05 656.483 182.745 647.454 182.745V182.837Z" fill="#1D1D1B"/>
<path d="M826.579 49.273C829.512 50.7397 831.208 52.9856 831.666 56.0566C832.125 59.1276 831.346 61.9235 829.375 64.4445C827.908 66.4154 826.029 67.5613 823.691 67.8363C821.353 68.1113 819.062 67.6529 816.816 66.4612C812.966 64.4903 808.886 62.8861 804.669 61.6943C800.407 60.5026 795.915 59.9068 791.102 59.9068C783.539 59.9068 776.71 61.1443 770.66 63.5736C764.609 66.0487 759.384 69.5322 755.03 74.1616C750.675 78.7909 747.284 84.1537 744.946 90.3873C742.608 96.6209 741.462 103.542 741.462 111.105C741.462 119.493 742.746 126.872 745.267 133.335C747.788 139.798 751.271 145.252 755.717 149.698C760.163 154.144 765.434 157.49 771.485 159.644C777.535 161.845 784.089 162.945 791.102 162.945C795.64 162.945 800.04 162.395 804.349 161.34C808.657 160.286 812.736 158.682 816.587 156.574C818.97 155.382 821.353 154.969 823.645 155.29C825.983 155.611 827.862 156.803 829.329 158.774C831.575 161.57 832.4 164.411 831.804 167.253C831.208 170.095 829.512 172.249 826.716 173.716C823.37 175.595 819.749 177.154 815.762 178.483C811.774 179.812 807.74 180.866 803.615 181.691C799.49 182.47 795.319 182.883 791.056 182.883C781.477 182.883 772.447 181.279 763.922 178.116C755.396 174.908 747.834 170.278 741.187 164.182C734.541 158.086 729.316 150.569 725.558 141.677C721.753 132.785 719.874 122.61 719.874 111.197C719.874 100.975 721.616 91.4873 725.145 82.7786C728.674 74.0699 733.67 66.5529 740.087 60.2735C746.55 53.9482 754.067 49.0438 762.73 45.5145C771.347 41.9852 780.789 40.2434 791.056 40.2434C797.427 40.2434 803.661 41.0226 809.711 42.6268C815.762 44.2311 821.353 46.477 826.579 49.4105V49.273Z" fill="#1D1D1B"/>
<path d="M915.728 67.2405L870.855 174.908C870.076 177.016 868.838 178.712 867.28 179.904C865.676 181.096 863.888 181.691 861.917 181.691C858.984 181.691 856.784 180.866 855.317 179.216C853.85 177.566 853.071 175.458 852.934 172.937C852.934 172.02 853.117 170.92 853.529 169.728L904.178 47.348C905.094 45.1021 906.469 43.3603 908.257 42.1686C910.044 40.9769 912.015 40.4269 914.124 40.5644C916.141 40.5644 917.974 41.1602 919.716 42.352C921.457 43.5437 922.695 45.1937 923.52 47.348L973.572 167.941C974.122 169.27 974.351 170.599 974.351 171.928C974.351 174.862 973.389 177.2 971.464 178.987C969.539 180.775 967.384 181.691 965.001 181.691C962.984 181.691 961.197 181.05 959.501 179.812C957.851 178.529 956.613 176.925 955.834 174.908L910.594 67.8364L915.774 67.2405H915.728ZM878.831 146.582L887.814 127.422H944.238L947.629 146.582H878.876H878.831Z" fill="#1D1D1B"/>
<path d="M1011.66 180.866C1008.45 180.866 1005.7 179.904 1003.27 177.978C1000.89 176.053 999.697 173.624 999.697 170.691V51.4729C999.697 48.5395 1000.71 46.1102 1002.68 44.1851C1004.69 42.26 1007.08 41.2975 1009.87 41.2975H1066.07C1073.26 41.2975 1079.82 43.0392 1085.82 46.5686C1091.78 50.0979 1096.64 54.9564 1100.26 61.0984C1103.93 67.2861 1105.76 74.3448 1105.76 82.3201C1105.76 87.637 1104.71 92.7247 1102.55 97.5833C1100.44 102.442 1097.56 106.705 1093.98 110.463C1090.41 114.176 1086.33 116.972 1081.83 118.851L1079.63 115.047C1083.76 116.513 1087.33 118.622 1090.41 121.326C1093.48 124.03 1095.91 127.239 1097.69 130.906C1099.48 134.572 1100.44 138.698 1100.58 143.373C1100.99 147.498 1101.36 150.936 1101.68 153.64C1102 156.344 1102.51 158.59 1103.19 160.332C1103.84 162.074 1105.07 163.403 1106.77 164.32C1109.15 165.649 1110.66 167.666 1111.26 170.278C1111.86 172.937 1111.26 175.32 1109.56 177.474C1108.37 179.079 1106.86 180.087 1105.07 180.545C1103.29 181.004 1101.45 181.095 1099.57 180.729C1097.69 180.408 1096.13 179.904 1094.81 179.216C1092.7 177.887 1090.5 176.008 1088.34 173.532C1086.14 171.057 1084.4 167.666 1083.07 163.265C1081.74 158.865 1081.05 153.09 1081.05 145.94C1081.05 142.639 1080.5 139.752 1079.45 137.368C1078.4 134.985 1076.93 133.014 1075.05 131.501C1073.17 129.989 1070.97 128.843 1068.45 128.11C1065.93 127.376 1063.13 127.01 1060.06 127.01H1017.8L1020.6 123.022V170.645C1020.6 173.578 1019.82 176.008 1018.21 177.933C1016.61 179.858 1014.41 180.82 1011.61 180.82L1011.66 180.866ZM1018.03 109.684H1065.65C1068.73 109.546 1071.66 108.309 1074.55 106.017C1077.39 103.679 1079.73 100.517 1081.51 96.5291C1083.3 92.5414 1084.22 88.0037 1084.22 82.9618C1084.22 76.5907 1082.34 71.228 1078.53 66.9194C1074.73 62.6109 1070.28 60.4567 1065.06 60.4567H1018.4L1020.6 55.2773V113.901L1017.99 109.73L1018.03 109.684Z" fill="#1D1D1B"/>
<path d="M1178.87 182.837C1169.29 182.837 1160.81 181.508 1153.34 178.849C1145.91 176.191 1138.81 171.791 1132.03 165.695C1130.56 164.641 1129.46 163.357 1128.73 161.799C1127.99 160.286 1127.62 158.728 1127.62 157.124C1127.62 154.603 1128.54 152.357 1130.42 150.34C1132.3 148.369 1134.59 147.361 1137.39 147.361C1139.5 147.361 1141.51 148.094 1143.35 149.561C1148.39 154.236 1153.66 157.719 1159.21 160.149C1164.71 162.532 1171.21 163.724 1178.64 163.724C1183.96 163.724 1188.82 162.853 1193.31 161.111C1197.75 159.369 1201.33 157.078 1203.99 154.144C1206.65 151.211 1207.97 147.819 1207.97 143.969C1207.97 139.202 1206.6 135.214 1203.9 132.097C1201.19 128.981 1197.25 126.368 1192.12 124.305C1186.98 122.243 1180.84 120.501 1173.69 119.034C1167.04 117.843 1161.08 116.193 1155.86 114.038C1150.59 111.93 1146.14 109.226 1142.38 105.971C1138.67 102.717 1135.78 98.821 1133.81 94.3291C1131.84 89.7914 1130.83 84.5662 1130.83 78.5618C1130.83 70.4489 1132.94 63.4819 1137.2 57.615C1141.47 51.7481 1147.24 47.2562 1154.53 44.0478C1161.82 40.8393 1170.07 39.2809 1179.24 39.2809C1187.62 39.2809 1195.46 40.5643 1202.75 43.1769C1210.04 45.7895 1215.95 49.273 1220.49 53.6273C1223.7 56.4233 1225.25 59.4026 1225.25 62.6111C1225.25 64.9945 1224.29 67.2404 1222.37 69.303C1220.44 71.3656 1218.2 72.374 1215.67 72.374C1213.8 72.374 1212.24 71.824 1210.91 70.7698C1208.8 68.5238 1205.91 66.5071 1202.34 64.6737C1198.76 62.8861 1194.91 61.3735 1190.88 60.1818C1186.84 58.9901 1182.95 58.3942 1179.24 58.3942C1173.28 58.3942 1168.14 59.2193 1163.88 60.8693C1159.62 62.5194 1156.36 64.8112 1154.12 67.653C1151.87 70.4947 1150.73 73.8866 1150.73 77.7367C1150.73 82.2744 1152.01 85.9871 1154.62 88.9206C1157.23 91.854 1160.86 94.1916 1165.48 95.9792C1170.11 97.7668 1175.43 99.4168 1181.44 100.884C1188.72 102.488 1195.28 104.275 1201.05 106.246C1206.83 108.217 1211.73 110.784 1215.72 113.901C1219.71 117.018 1222.78 120.914 1224.89 125.543C1227 130.218 1228.1 135.993 1228.1 142.869C1228.1 150.844 1225.85 157.811 1221.31 163.815C1216.77 169.774 1210.86 174.449 1203.48 177.749C1196.1 181.05 1187.9 182.745 1178.87 182.745V182.837Z" fill="#1D1D1B"/>
</svg>
