<?xml version="1.0" encoding="UTF-8" standalone="no"?>
<!-- Created with Inkscape (http://www.inkscape.org/) -->
<svg xmlns:svg="http://www.w3.org/2000/svg" xmlns="http://www.w3.org/2000/svg" version="1.0" width="200" height="45" id="svg2"><div xmlns="" id="saka-gui-root"><div><div><style/></div></div></div>
  <defs id="defs4"/>
  <g transform="translate(-149.46679,-308.88511)" id="layer1">
    <g transform="matrix(1.7576858,0,0,1.7576858,-1372.6412,-893.15041)" id="g2416">
      <path d="M 877.49,687.152 L 877.49,684.745 L 866.668,684.745 L 866.668,687.152 L 870.377,687.152 L 870.377,697.618 L 873.729,697.618 L 873.729,687.152 L 877.49,687.152 z M 919.204,697.618 C 919.115,696.763 919.06,696.103 919.06,695.657 L 919.06,691.324 C 919.06,689.524 917.742,688.401 915.994,688.401 C 914.727,688.418 913.623,688.989 913.016,689.987 C 912.642,688.989 911.537,688.454 910.502,688.454 C 909.254,688.454 908.202,688.864 907.612,689.987 L 907.542,688.65 L 904.476,688.65 L 904.476,697.618 L 907.649,697.618 L 907.649,692.217 C 907.649,691.932 907.524,690.398 908.987,690.398 C 909.967,690.398 910.2,691.272 910.2,692.127 L 910.2,697.618 L 913.355,697.618 L 913.355,692.217 C 913.355,691.932 913.23,690.398 914.692,690.398 C 915.673,690.398 915.904,691.272 915.904,692.127 L 915.904,697.618 L 919.204,697.618 L 919.204,697.618 z M 903.747,691.289 L 903.747,688.561 C 902.374,688.542 901.321,688.989 900.912,690.362 L 900.841,688.65 L 897.667,688.65 C 897.738,689.381 897.738,690.362 897.738,690.95 L 897.738,697.618 L 900.912,697.618 L 900.912,693.696 C 900.912,692.217 901.34,691.306 903.088,691.271 C 903.301,691.271 903.515,691.271 903.747,691.289 M 924.672,688.401 C 921.748,688.401 919.84,690.023 919.84,693.107 C 919.84,696.281 921.766,697.868 924.672,697.868 C 927.578,697.868 929.504,696.281 929.504,693.107 C 929.504,690.023 927.596,688.401 924.672,688.401 M 924.672,690.291 C 926.009,690.291 926.259,691.663 926.259,693.072 C 926.259,694.713 925.974,695.996 924.672,695.996 C 923.37,695.996 923.085,694.713 923.085,693.072 C 923.085,691.645 923.335,690.273 924.672,690.273 L 924.672,690.291 z M 887.265,697.618 C 887.176,696.763 887.14,696.156 887.14,695.657 L 887.14,691.324 C 887.14,689.524 885.803,688.401 884.056,688.401 C 883.521,688.401 883.003,688.49 882.558,688.686 C 882.148,688.882 881.756,689.166 881.417,689.595 L 881.417,684.744 L 878.243,684.744 L 878.243,697.617 L 881.417,697.617 L 881.417,692.216 C 881.417,691.931 881.292,690.397 882.754,690.397 C 883.752,690.397 883.967,691.271 883.967,692.126 L 883.967,697.617 L 887.265,697.617 L 887.265,697.618 z M 896.965,693.749 C 896.983,690.522 896.02,688.401 892.436,688.401 C 889.601,688.401 887.909,690.148 887.909,692.876 C 887.909,696.229 889.102,697.868 892.597,697.868 C 893.684,697.868 894.647,697.618 895.378,697.119 C 896.163,696.602 896.805,695.782 896.894,694.658 L 893.898,694.658 C 893.809,695.479 893.329,696.031 892.383,696.031 C 891.17,696.031 890.921,694.872 890.939,693.749 L 896.965,693.749 z M 893.934,692.021 L 890.993,692.021 C 891.063,691.076 891.277,690.113 892.455,690.06 C 892.989,690.041 893.347,690.291 893.578,690.684 C 893.828,691.058 893.934,691.557 893.934,692.038 L 893.934,692.021 z" id="path2384" style="fill:#ef4135;fill-rule:evenodd"/>
      <path d="M 979.163,691.129 L 979.163,688.4 C 977.79,688.382 976.738,688.829 976.328,690.202 L 976.257,688.65 L 973.083,688.65 C 973.154,689.381 973.154,690.361 973.154,690.951 L 973.154,697.619 L 976.328,697.619 L 976.328,693.695 C 976.328,692.216 976.756,691.146 978.503,691.11 C 978.717,691.11 978.932,691.11 979.163,691.129 M 962.654,697.619 C 962.565,696.763 962.529,696.156 962.529,695.657 L 962.529,691.324 C 962.529,689.523 961.192,688.4 959.445,688.4 C 958.91,688.4 958.427,688.489 957.983,688.685 C 957.573,688.881 957.145,689.167 956.806,689.595 L 956.806,684.745 L 953.631,684.745 L 953.631,697.618 L 956.806,697.618 L 956.806,692.216 C 956.806,691.93 956.681,690.397 958.143,690.397 C 959.142,690.397 959.356,691.271 959.356,692.127 L 959.356,697.618 L 962.654,697.618 L 962.654,697.619 z M 952.854,694.944 C 952.854,693.553 952.122,692.876 951.106,692.502 C 949.199,691.823 947.772,691.789 947.772,691.074 C 947.772,690.541 948.075,690.237 948.591,690.237 C 949.001,690.237 949.27,690.343 949.447,690.522 C 949.608,690.701 949.678,690.985 949.678,691.378 L 952.692,691.378 C 952.621,689.024 950.767,688.399 948.734,688.399 C 947.004,688.399 944.757,689.005 944.757,691.164 C 944.757,694.302 949.838,693.481 949.838,695.158 C 949.838,695.746 949.358,696.012 948.734,696.012 C 948.377,696.012 948.091,695.834 947.914,695.584 C 947.735,695.353 947.664,695.014 947.718,694.711 L 944.688,694.711 C 944.633,697.385 946.613,697.867 948.807,697.867 C 950.857,697.869 952.854,697.12 952.854,694.944 M 972.371,693.75 C 972.39,690.522 971.426,688.4 967.842,688.4 C 965.007,688.4 963.314,690.147 963.314,692.876 C 963.314,696.228 964.508,697.869 968.003,697.869 C 969.09,697.869 970.053,697.619 970.784,697.12 C 971.568,696.602 972.21,695.782 972.299,694.659 L 969.305,694.659 C 969.215,695.478 968.734,696.031 967.789,696.031 C 966.576,696.031 966.327,694.873 966.344,693.75 L 972.371,693.75 z M 969.34,692.021 L 966.399,692.021 C 966.469,691.075 966.684,690.113 967.861,690.059 C 968.396,690.041 968.752,690.291 968.984,690.683 C 969.234,691.058 969.34,691.557 969.34,692.038 L 969.34,692.021 z M 943.878,688.65 L 940.704,688.65 L 940.704,697.619 L 943.878,697.619 L 943.878,688.65 z M 939.717,687.117 L 940.466,684.746 L 931.938,684.746 L 931.938,697.619 L 935.29,697.619 L 935.29,692.555 L 937.998,692.555 L 938.744,690.184 L 935.29,690.184 L 935.29,687.118 L 939.717,687.118 L 939.717,687.117 z M 943.876,687.11 L 944.63,684.743 L 941.494,684.743 L 940.741,687.11 L 943.876,687.11 z" id="path2386" style="fill:#ef4135;fill-rule:evenodd"/>
      <rect width="1.164" height="7.2979999" x="895.789" y="701.39001" id="rect2388" style="fill-rule:evenodd"/>
      <path d="M 974.151,708.813 C 971.72,708.813 969.901,707.465 969.901,705.095 C 969.901,702.696 971.942,701.238 974.227,701.238 C 975.044,701.238 975.943,701.506 976.517,701.878 L 975.921,702.588 C 975.405,702.304 974.849,702.115 974.241,702.11 C 973.368,702.103 972.509,702.365 971.928,703.002 C 971.454,703.522 971.19,704.194 971.19,705.137 C 971.19,706.161 971.506,706.723 972.056,707.267 C 972.613,707.818 973.466,707.969 974.303,707.969 C 974.971,707.969 975.632,707.721 976.149,707.448 L 976.716,708.131 C 976.125,708.527 975.119,708.813 974.151,708.813" id="path2390" style="fill-rule:evenodd"/>
      <rect width="1.165" height="7.2979999" x="961.91199" y="701.39001" id="rect2392" style="fill-rule:evenodd"/>
      <polygon points="935.595,702.263 932.876,702.263 932.876,708.688 931.74,708.688 931.74,702.263 929.042,702.263 929.042,701.39 935.722,701.39 935.595,702.263 " id="polygon2394" style="fill-rule:evenodd"/>
      <path d="M 874.961,708.429 C 874.405,708.705 873.709,708.84 872.904,708.84 C 871.871,708.84 870.823,708.611 869.951,708.182 L 870.434,707.356 C 871.281,707.778 872.086,707.968 872.98,707.968 C 873.563,707.968 873.949,707.867 874.307,707.672 C 874.724,707.444 874.949,707.132 874.949,706.729 C 874.949,706.12 874.481,705.739 873.353,705.476 L 872.165,705.2 C 870.984,704.924 870.241,704.186 870.241,703.322 C 870.241,702.077 871.464,701.196 873.208,701.196 C 874.225,701.196 875.312,701.451 876.008,701.891 L 875.483,702.653 C 874.77,702.259 874.027,702.069 873.269,702.069 C 872.232,702.069 871.513,702.472 871.513,703.156 C 871.513,703.683 871.951,703.997 872.972,704.242 L 874.069,704.505 C 874.692,704.655 875.324,704.918 875.684,705.245 C 876.027,705.558 876.251,706.06 876.251,706.549 C 876.252,707.294 875.775,708.021 874.961,708.429" id="path2396" style="fill-rule:evenodd"/>
      <path d="M 921.71,708.688 L 918.811,704.795 C 918.267,704.066 917.349,702.643 917.349,702.643 C 917.349,702.643 917.452,703.875 917.46,704.955 L 917.487,708.688 L 916.328,708.688 L 916.328,701.389 L 917.709,701.389 L 920.639,705.363 C 921.209,706.138 922.003,707.365 922.003,707.365 C 922.003,707.365 921.83,706.019 921.821,705.052 L 921.795,701.389 L 922.943,701.389 L 922.943,708.688 L 921.71,708.688 L 921.71,708.688 z" id="path2398" style="fill-rule:evenodd"/>
      <rect width="1.164" height="7.2979999" x="941.70502" y="701.39001" id="rect2400" style="fill-rule:evenodd"/>
      <polygon points="955.56,702.248 951.558,702.248 951.558,704.408 954.944,704.408 954.944,705.268 951.558,705.268 951.558,708.688 950.393,708.688 950.393,701.39 955.715,701.39 955.56,702.248 " id="polygon2402" style="fill-rule:evenodd"/>
      <polygon points="904.476,708.688 904.476,701.39 909.857,701.39 909.702,702.263 905.641,702.263 905.641,704.437 909.103,704.437 909.103,705.309 905.655,705.309 905.655,707.773 910.002,707.773 910.002,708.688 904.476,708.688 " id="polygon2404" style="fill-rule:evenodd"/>
      <path d="M 886.792,708.813 C 884.36,708.813 882.542,707.465 882.542,705.095 C 882.542,702.696 884.583,701.238 886.867,701.238 C 887.684,701.238 888.584,701.506 889.157,701.878 L 888.561,702.588 C 888.046,702.304 887.489,702.115 886.882,702.11 C 886.009,702.103 885.149,702.365 884.568,703.002 C 884.094,703.522 883.83,704.194 883.83,705.137 C 883.83,706.161 884.146,706.723 884.696,707.267 C 885.254,707.818 886.106,707.969 886.943,707.969 C 887.611,707.969 888.272,707.721 888.79,707.448 L 889.356,708.131 C 888.765,708.527 887.76,708.813 886.792,708.813" id="path2406" style="fill-rule:evenodd"/>
    </g>
  </g>
</svg>