<?xml version="1.0" encoding="UTF-8" standalone="no"?>
<!-- Generator: Adobe Illustrator 18.1.1, SVG Export Plug-In . SVG Version: 6.00 Build 0)  -->

<svg
   xmlns:dc="http://purl.org/dc/elements/1.1/"
   xmlns:cc="http://creativecommons.org/ns#"
   xmlns:rdf="http://www.w3.org/1999/02/22-rdf-syntax-ns#"
   xmlns:svg="http://www.w3.org/2000/svg"
   xmlns="http://www.w3.org/2000/svg"
   xmlns:sodipodi="http://sodipodi.sourceforge.net/DTD/sodipodi-0.dtd"
   xmlns:inkscape="http://www.inkscape.org/namespaces/inkscape"
   version="1.1"
   id="Layer_1"
   x="0px"
   y="0px"
   viewBox="7.7 3 527.86273 123.73236"
   enable-background="new 7.7 3 347 110.6"
   xml:space="preserve"
   inkscape:version="0.91 r13725"
   sodipodi:docname="useGalaxy.eu.svg"
   width="527.86273"
   height="123.73236"><metadata
     id="metadata4902"><rdf:RDF><cc:Work
         rdf:about=""><dc:format>image/svg+xml</dc:format><dc:type
           rdf:resource="http://purl.org/dc/dcmitype/StillImage" /><dc:title></dc:title></cc:Work></rdf:RDF></metadata><defs
     id="defs4900" /><sodipodi:namedview
     pagecolor="#ffffff"
     bordercolor="#666666"
     borderopacity="1"
     objecttolerance="10"
     gridtolerance="10"
     guidetolerance="10"
     inkscape:pageopacity="0"
     inkscape:pageshadow="2"
     inkscape:window-width="1916"
     inkscape:window-height="1076"
     id="namedview4898"
     showgrid="false"
     inkscape:zoom="2.5072046"
     inkscape:cx="240.51118"
     inkscape:cy="60.697694"
     inkscape:window-x="1920"
     inkscape:window-y="0"
     inkscape:window-maximized="1"
     inkscape:current-layer="Layer_1"
     showguides="true"
     inkscape:guide-bbox="true"
     fit-margin-top="10"
     fit-margin-left="10"
     fit-margin-right="10"
     fit-margin-bottom="10"><sodipodi:guide
       position="9.605502,44.744135"
       orientation="1,0"
       id="guide6149" /><sodipodi:guide
       position="67.139611,56.589395"
       orientation="0,1"
       id="guide6151" /><sodipodi:guide
       position="51.345934,114.1235"
       orientation="0,1"
       id="guide6170" /></sodipodi:namedview><linearGradient
     id="SVGID_1_"
     gradientUnits="userSpaceOnUse"
     x1="61.400002"
     y1="282.5"
     x2="175.7"
     y2="282.5"
     gradientTransform="matrix(0.74308096,0,0,-0.74308096,-34.967541,296.65119)"><stop
       offset="0.1656"
       style="stop-color:#D0BD2B"
       id="stop4862" /><stop
       offset="1"
       style="stop-color:#D0BD2B;stop-opacity:0"
       id="stop4864" /></linearGradient><g
     id="g6106"
     transform="translate(36.116318,3.3599437)"><path
       inkscape:connector-curvature="0"
       style="fill:#003399;fill-opacity:1"
       id="path4857"
       d="m 64.512208,34.466891 -81.032032,0 c -1.034451,0 -1.896494,-0.862043 -1.896494,-1.896494 l 0,-21.033847 c 0,-1.034452 0.862043,-1.8964937 1.896494,-1.8964937 l 81.032032,0 c 1.034451,0 1.896494,0.8620417 1.896494,1.8964937 l 0,20.861438 c 0,1.034451 -0.689635,2.068903 -1.896494,2.068903 z" /><path
       inkscape:connector-curvature="0"
       style="fill:#003399;fill-opacity:1"
       id="path4859"
       d="m 42.788726,67.052112 -59.136141,0 c -1.034451,0 -2.068903,-0.862043 -2.068903,-2.068903 l 0,-20.68903 c 0,-1.034451 0.862043,-2.068903 2.068903,-2.068903 l 59.136141,0 c 1.034452,0 2.068903,0.862044 2.068903,2.068903 l 0,20.68903 c 0,1.20686 -0.862042,2.068903 -2.068903,2.068903 z" /><path
       inkscape:connector-curvature="0"
       style="fill:url(#SVGID_1_)"
       id="path4866"
       d="m 93.649257,99.120101 -81.032032,0 c -1.034451,0 -2.068902,-0.86204 -2.068902,-2.0689 l 0,-20.689026 c 0,-1.034451 0.862043,-2.068903 2.068902,-2.068903 l 80.859623,0 c 1.034452,0 2.068903,0.862043 2.068903,2.068903 l 0,20.689026 c 0,1.20686 -0.862042,2.0689 -1.896494,2.0689 z" /></g><g
     style="font-style:normal;font-weight:normal;font-size:42.94429779px;line-height:125%;font-family:sans-serif;letter-spacing:0px;word-spacing:0px;fill:#003399;fill-opacity:1;stroke:none;stroke-width:1px;stroke-linecap:butt;stroke-linejoin:miter;stroke-opacity:1"
     id="text6058"
     transform="translate(5.6570828,-275.84971)" /><g
     id="g6182"
     transform="translate(-4.114756,-275.84971)"><g
       transform="translate(176.87748,285.20965)"
       style="fill:#003399;fill-opacity:1"
       id="g4884"><path
         inkscape:connector-curvature="0"
         style="fill:#003399;fill-opacity:1"
         id="path4886"
         d="m 139.2,58.2 c -2.5,0.9 -5.7,1.9 -9.7,2.8 -4.1,0.9 -8.1,1.4 -12.1,1.4 -9.3,0 -16.6,-2.5 -21.9,-7.6 -5.3,-5.1 -7.9,-12.1 -7.9,-21 0,-8.5 2.7,-15.4 8,-20.6 5.3,-5.2 12.8,-7.8 22.3,-7.8 3.6,0 7,0.3 10.3,1 3.3,0.6 6.9,1.9 10.9,3.9 l 0,12.8 -1.6,0 c -0.7,-0.5 -1.7,-1.2 -3,-2.2 -1.3,-1 -2.6,-1.8 -3.8,-2.4 -1.4,-0.8 -3.1,-1.5 -5,-2 -1.9,-0.6 -3.9,-0.9 -6.1,-0.9 -2.5,0 -4.8,0.4 -6.8,1.1 -2,0.7 -3.9,1.9 -5.5,3.4 -1.6,1.5 -2.8,3.4 -3.7,5.6 -0.9,2.3 -1.3,4.9 -1.3,7.8 0,6.1 1.6,10.7 4.8,13.9 3.2,3.2 8,4.8 14.3,4.8 0.6,0 1.1,0 1.8,0 0.6,0 1.2,0 1.8,-0.1 l 0,-10.7 -10.9,0 0,-10.3 25.3,0 -0.2,27.1 0,0 z" /><path
         inkscape:connector-curvature="0"
         style="fill:#003399;fill-opacity:1"
         id="path4888"
         d="m 172.7,57 c -0.7,0.6 -1.6,1.2 -2.7,1.9 -1,0.8 -2.1,1.4 -3,1.8 -1.3,0.6 -2.7,1 -4.1,1.3 -1.4,0.3 -2.9,0.4 -4.6,0.4 -3.9,0 -7.2,-1.2 -9.9,-3.7 -2.7,-2.4 -4,-5.5 -4,-9.3 0,-3 0.7,-5.5 2,-7.4 1.3,-1.9 3.3,-3.4 5.7,-4.5 2.4,-1.1 5.5,-1.9 9.1,-2.4 3.6,-0.5 7.4,-0.8 11.3,-1 l 0,-0.2 c 0,-2.3 -0.9,-3.9 -2.8,-4.7 -1.9,-0.9 -4.6,-1.3 -8.2,-1.3 -2.2,0 -4.5,0.4 -7,1.2 -2.5,0.8 -4.3,1.4 -5.3,1.8 l -1.2,0 0,-10 c 1.4,-0.4 3.7,-0.8 6.9,-1.3 3.1,-0.5 6.3,-0.8 9.5,-0.8 7.5,0 13,1.2 16.3,3.5 3.3,2.3 5,5.9 5,10.9 l 0,28.1 -13.1,0 0.1,-4.3 0,0 z m 0,-6.5 0,-8.5 c -1.8,0.1 -3.7,0.3 -5.8,0.6 -2.1,0.3 -3.7,0.6 -4.7,0.9 -1.3,0.4 -2.3,1 -3,1.8 -0.7,0.8 -1,1.9 -1,3.1 0,0.9 0.1,1.6 0.2,2.1 0.1,0.6 0.5,1 1.1,1.6 0.6,0.5 1.2,0.9 2,1.1 0.8,0.2 2,0.3 3.7,0.3 1.3,0 2.7,-0.3 4.1,-0.8 1.2,-0.6 2.4,-1.3 3.4,-2.2 z" /><path
         inkscape:connector-curvature="0"
         style="fill:#003399;fill-opacity:1"
         id="path4890"
         d="m 208,61.3 -13.3,0 0,-57.3 13.3,0 0,57.3 z" /><path
         inkscape:connector-curvature="0"
         style="fill:#003399;fill-opacity:1"
         id="path4892"
         d="m 242.1,57 c -0.7,0.6 -1.6,1.2 -2.7,1.9 -1,0.8 -2.1,1.4 -3,1.8 -1.3,0.6 -2.7,1 -4.1,1.3 -1.4,0.3 -2.9,0.4 -4.6,0.4 -3.9,0 -7.2,-1.2 -9.9,-3.7 -2.7,-2.4 -4,-5.5 -4,-9.3 0,-3 0.7,-5.5 2,-7.4 1.3,-1.9 3.3,-3.4 5.7,-4.5 2.5,-1.1 5.5,-1.9 9.1,-2.4 3.6,-0.5 7.4,-0.8 11.3,-1 l 0,-0.2 c 0,-2.3 -0.9,-3.9 -2.8,-4.7 -1.9,-0.9 -4.6,-1.3 -8.2,-1.3 -2.2,0 -4.5,0.4 -7,1.2 -2.5,0.8 -4.3,1.4 -5.3,1.8 l -1.2,0 0,-10 c 1.4,-0.4 3.7,-0.8 6.9,-1.3 3.1,-0.5 6.3,-0.8 9.5,-0.8 7.5,0 13,1.2 16.3,3.5 3.4,2.3 5,5.9 5,10.9 l 0,28.1 -13.1,0 0.1,-4.3 0,0 z m 0,-6.5 0,-8.5 c -1.8,0.1 -3.7,0.3 -5.8,0.6 -2.1,0.3 -3.7,0.6 -4.7,0.9 -1.3,0.4 -2.3,1 -3,1.8 -0.7,0.8 -1,1.9 -1,3.1 0,0.9 0.1,1.6 0.2,2.1 0.1,0.6 0.5,1 1.1,1.6 0.6,0.5 1.2,0.9 2,1.1 0.8,0.2 2,0.3 3.7,0.3 1.3,0 2.7,-0.3 4.1,-0.8 1.2,-0.6 2.4,-1.3 3.4,-2.2 z" /><path
         inkscape:connector-curvature="0"
         style="fill:#003399;fill-opacity:1"
         id="path4894"
         d="m 307.3,61.3 -15.5,0 L 283,49 273.9,61.4 258.7,61.4 275,40.7 259,20 l 15.5,0 8.7,12.2 8.7,-12.2 15.2,0 -16.1,20.4 16.3,20.9 z" /><path
         inkscape:connector-curvature="0"
         style="fill:#003399;fill-opacity:1"
         id="path4896"
         d="m 329.8,46.7 9.4,-26.7 13.6,0 -23,56.5 -14.4,0 6.6,-15.5 -16,-41 13.9,0 9.9,26.7 z" /></g><path
       inkscape:connector-curvature="0"
       id="path6173"
       style="font-style:normal;font-variant:normal;font-weight:bold;font-stretch:normal;font-size:75.15251923px;line-height:125%;font-family:Verdana;-inkscape-font-specification:Verdana;letter-spacing:0px;word-spacing:0px;fill:#003399;fill-opacity:1;stroke:none;stroke-width:1px;stroke-linecap:butt;stroke-linejoin:miter;stroke-opacity:1"
       d="m 164.7385,345.978 -13.2104,0 0,-4.55025 q -3.66956,2.78886 -6.71529,4.25668 -3.04573,1.43113 -7.26572,1.43113 -6.82537,0 -10.53163,-3.92643 -3.66955,-3.92642 -3.66955,-11.5958 l 0,-26.82445 13.28379,0 0,20.43943 q 0,3.11912 0.18348,5.21077 0.22017,2.05495 0.95408,3.41268 0.69722,1.35774 2.09165,1.98157 1.43113,0.62382 3.96312,0.62382 1.688,0 3.74295,-0.62382 2.05495,-0.62383 3.96312,-1.83478 l 0,-29.20967 13.2104,0 0,41.20912 z" /><path
       inkscape:connector-curvature="0"
       id="path6175"
       style="font-style:normal;font-variant:normal;font-weight:bold;font-stretch:normal;font-size:75.15251923px;line-height:125%;font-family:Verdana;-inkscape-font-specification:Verdana;letter-spacing:0px;word-spacing:0px;fill:#003399;fill-opacity:1;stroke:none;stroke-width:1px;stroke-linecap:butt;stroke-linejoin:miter;stroke-opacity:1"
       d="m 210.5283,332.91438 q 0,6.38502 -5.72451,10.31145 -5.72451,3.88973 -15.66901,3.88973 -5.50433,0 -9.98119,-1.02748 -4.47686,-1.02747 -7.19233,-2.27512 l 0,-10.86189 1.21095,0 q 0.99078,0.69722 2.27513,1.54121 1.32104,0.80731 3.70625,1.76139 2.05495,0.844 4.66033,1.46782 2.60539,0.58713 5.57773,0.58713 3.88973,0 5.7612,-0.84399 1.87148,-0.8807 1.87148,-2.56869 0,-1.50452 -1.10087,-2.16504 -1.10087,-0.69722 -4.18329,-1.32104 -1.46783,-0.33026 -3.99982,-0.69722 -2.4953,-0.40365 -4.55025,-0.95408 -5.61442,-1.46783 -8.32989,-4.55025 -2.71548,-3.11913 -2.71548,-7.74277 0,-5.94468 5.61443,-9.87111 5.65111,-3.96312 15.41213,-3.96312 4.62364,0 8.84363,0.95409 4.25669,0.91739 6.6419,1.98156 l 0,10.42154 -1.13756,0 q -2.93565,-2.01826 -6.71529,-3.26591 -3.74295,-1.28434 -7.59598,-1.28434 -3.19252,0 -5.39425,0.88069 -2.16504,0.8807 -2.16504,2.4953 0,1.46782 0.99078,2.23843 0.99078,0.77061 4.66034,1.54121 2.01826,0.40366 4.33008,0.80731 2.34851,0.36695 4.69703,0.95408 5.21077,1.35774 7.70607,4.29338 2.4953,2.89895 2.4953,7.26573 z" /><path
       inkscape:connector-curvature="0"
       id="path6177"
       style="font-style:normal;font-variant:normal;font-weight:bold;font-stretch:normal;font-size:75.15251923px;line-height:125%;font-family:Verdana;-inkscape-font-specification:Verdana;letter-spacing:0px;word-spacing:0px;fill:#003399;fill-opacity:1;stroke:none;stroke-width:1px;stroke-linecap:butt;stroke-linejoin:miter;stroke-opacity:1"
       d="m 258.51038,327.81369 -30.23715,0 q 0.29356,4.84382 3.66956,7.41251 3.41268,2.56869 10.01789,2.56869 4.18329,0 8.10972,-1.50452 3.92642,-1.50452 6.20155,-3.22921 l 1.46782,0 0,10.60502 q -4.47686,1.79808 -8.43998,2.60538 -3.96312,0.8073 -8.77024,0.8073 -12.4031,0 -19.0083,-5.57772 -6.60521,-5.57773 -6.60521,-15.88918 0,-10.20137 6.23825,-16.14605 6.27494,-5.98138 17.17353,-5.98138 10.05458,0 15.11857,5.10069 5.06399,5.06398 5.06399,14.60483 l 0,4.62364 z m -13.13702,-7.74276 q -0.11008,-4.1466 -2.05495,-6.23825 -1.94486,-2.09165 -6.05477,-2.09165 -3.81633,0 -6.27494,1.98156 -2.4586,1.98156 -2.75217,6.34834 l 17.13683,0 z" /><g
       style="fill:#003399;fill-opacity:1"
       transform="matrix(0.09826956,0,0,0.09826956,401.04323,353.50017)"
       id="g4729-0-27-7"
       inkscape:export-xdpi="180"
       inkscape:export-ydpi="180"><path
         inkscape:connector-curvature="0"
         d="m -110.64621,342.00434 c 0,30.5567 25.129003,55.69664 55.69664,55.69664 30.567614,0 55.69661853,-25.13994 55.69661853,-55.69664 0,-30.56762 -25.12900453,-55.69663 -55.69661853,-55.69663 -30.567637,0 -55.69664,25.12901 -55.69664,55.69663 z"
         id="path2584-4-0-4"
         style="fill:#003399;fill-opacity:1;fill-rule:nonzero;stroke:none" /><path
         inkscape:connector-curvature="0"
         d="m 172.72949,162.98881 c 10.33118,-48.68542 38.76921,-79.536973 85.94753,-79.536973 42.00182,0 74.28401,33.603623 79.47145,79.536973 l -165.41898,0 z m 213.21979,57.59686 c 31.67064,0 41.36841,-8.90053 41.36841,-43.19218 0,-82.289045 -62.03076,-163.879149 -170.5955,-163.879149 -111.77547,0 -178.338421,78.160946 -178.338421,194.730719 0,87.08331 49.766581,181.71299 181.571001,181.71299 56.85424,0 147.9783,-28.12134 147.9783,-88.45936 0,-18.51095 -16.16294,-39.08592 -38.78013,-39.08592 -38.11398,0 -38.11398,49.38433 -109.19817,49.38433 -54.92123,0 -87.22528,-38.40883 -87.22528,-91.21143 l 213.21979,0 z"
         id="path2586-2-9-0"
         style="fill:#003399;fill-opacity:1;fill-rule:evenodd;stroke:none" /><path
         inkscape:connector-curvature="0"
         d="m 825.07896,63.979845 c 0,-26.952799 -10.4513,-50.465504 -47.6916,-50.465504 -37.22937,0 -47.68068,23.512705 -47.68068,50.465504 l 0,166.587535 c 0,50.45461 -39.19512,79.49331 -72.51481,79.49331 -41.16092,0 -60.1087,-29.0387 -60.1087,-69.81737 l 0,-176.263475 c 0,-26.952799 -10.4513,-50.465504 -47.69159,-50.465504 -37.22938,0 -47.6916,23.512705 -47.6916,50.465504 l 0,196.303345 c 0,102.30706 62.7297,132.73272 120.20643,132.73272 54.23321,0 88.8525,-26.26478 115.6524,-63.60337 l 1.28866,0 0,13.13784 c 0,30.41475 13.06142,50.46553 43.12667,50.46553 30.04342,0 43.10482,-20.05078 43.10482,-50.46553 l 0,-278.570535 z"
         id="path2588-2-3-6"
         style="fill:#003399;fill-opacity:1;fill-rule:nonzero;stroke:none" /></g></g></svg>