<?xml version="1.0" encoding="UTF-8"?> <svg xmlns="http://www.w3.org/2000/svg" id="Layer_2" data-name="Layer 2" viewBox="0 0 895.49 690.56"><defs><style>.cls-1{fill:#ee7601;}.cls-2{fill:#fff;}.cls-3{isolation:isolate;}.cls-4{fill:#4d4848;}</style></defs><path class="cls-1" d="M716.9,0a43,43,0,0,0-37.8,63.55c-4.28,2.13-14.25,7.14-28.22,14.39a32,32,0,1,0-57.62,27.86c.39.79.8,1.57,1.25,2.33-7.18,4-14.64,8.12-22.29,12.45a25.14,25.14,0,0,0-43.42,25.2q-11.88,7.08-23.87,14.49A18.34,18.34,0,0,0,475.33,179c-32.16,20.9-62.93,42.8-87.85,64.07-29.06-65-71.92-136.31-131.56-194.39l-.17-.17c-7-6.88-12.76-3.84-4.74,4.72l.31.33c50.62,54.47,90.39,133.3,117.49,205.19C266,346.54,152.66,516.64,276.88,570.09c18.09,7.79,26.33-7.09,18.55-11.67-1.4-.83-56.72-30.73-21.55-122.61H362.4a8.59,8.59,0,1,0,.59-17.17H281.21a348.21,348.21,0,0,1,17.52-32.51H362.4a8.59,8.59,0,0,0,0-17.17H309.68c6.57-9.84,13.95-20.13,22.23-30.91H362.4a8.59,8.59,0,0,0,0-17.17H345.54q14.41-17.62,32-36.86l.3-.34c23.35,67.6,34.62,125.25,32.15,144.48-1.35,10.46-8.1,14.84-10.82,16.12-4.34,2.06-6.13,8.07.69,10.08,21.75,6.41,35.14-15.18,37.55-32.51,2.43-17.48-9.47-81.47-40.87-157.75C422.75,238,453,213.05,483.9,190.2a18.36,18.36,0,0,0,27.19-19.52q12.3-8.58,24.45-16.65a25.1,25.1,0,0,0,40.05-25.71c8.06-5,15.88-9.76,23.39-14.26A32,32,0,0,0,652.84,83c13.67-7.61,23.64-13,28.51-15.77A43,43,0,1,0,716.9,0Z" transform="translate(0 0)"></path><path class="cls-2" d="M227.5,344.28c1.59-3.48,2.94-7.23,4.55-11.79a115.44,115.44,0,0,0,4.55-15.8L253,246c1.33-7.23,2.39-12.59,2.68-15.8a41,41,0,0,0,.53-8.57v-3.22h37L271,316.73q-2.42,10.45-3.21,16.07a57,57,0,0,0-.81,11.52Z" transform="translate(0 0)"></path><path class="cls-2" d="M135.29,344.28H25.72c-11,0-18.48-2.41-22.51-7.5-2.13-2.94-3.21-6.95-3.21-12a56.79,56.79,0,0,1,1.87-13.67l13.67-59.47c2.94-12,7.22-20.63,13.12-25.73,6.16-5.08,14.47-7.49,25.73-7.49h80.9c11.52,0,19,2.41,22.76,7.49,2.41,3,3.5,7,3.5,12.34a51.78,51.78,0,0,1-1.89,13.39L150.82,291H40.72l-5.9,25.71a35.57,35.57,0,0,0-.8,6.17c0,1.33,0,2.4.55,2.93.78,1.62,3.2,2.42,7,2.42h80.35a97.26,97.26,0,0,0,20.91-2.13ZM126.71,246a21.24,21.24,0,0,0,1.08-6.42,8,8,0,0,0-.54-2.69c-1.08-1.6-3.74-2.4-7.5-2.4H63c-3.74,0-6.43.8-8,2.4-1.87,1.62-3.2,4.57-3.74,9.11l-6.7,28.93H120Z" transform="translate(0 0)"></path><path class="cls-2" d="M162.6,344.28c1.7-3.89,3.12-8.1,4.83-13.21a134.26,134.26,0,0,0,4.83-17.73L200.4,183c1.7-8.12,2.83-14.13,3.4-17.72.29-3.31.58-7.81.58-13.22h39.21l-35,161.27q-2.55,11.71-3.42,18a68.07,68.07,0,0,0-.84,12.91Z" transform="translate(0 0)"></path><path class="cls-2" d="M441.25,344.28c1.6-3.48,2.93-7.23,4.54-11.79a111.38,111.38,0,0,0,4.56-15.8L466.7,246c1.33-7.23,2.4-12.59,2.66-15.8a39.68,39.68,0,0,0,.55-8.57v-3.22h37l-22.23,98.32q-2.4,10.45-3.21,16.07a57,57,0,0,0-.81,11.52Z" transform="translate(0 0)"></path><path class="cls-2" d="M614.6,239.54c-4-.28-8-.54-12.6-.54H584c-3.46,0-6.41.8-8,2.14-2.15,1.61-3.49,4.29-4.56,8.3l-15,67.25c-2.68,10.45-3.75,18.49-3.75,24.65v2.94H513.61c1.6-4,3.21-7.78,4.28-11.52,1.07-3.48,2.42-8.84,4.29-16.07L538.24,246c1.88-7,2.69-12.32,3.5-16.33a78.5,78.5,0,0,0,.54-11.26h32.94l-1.34,12.86a22.79,22.79,0,0,1,8.31-9.64c3.48-2.14,8-3.22,14.19-3.22h32.16l7.75,13.92a30.24,30.24,0,0,0-4.55,5.1c-1.87,2.41-3.2,3.48-4,3.48C622.91,240.34,618.6,239.8,614.6,239.54Z" transform="translate(0 0)"></path><path class="cls-2" d="M299.33,174.34a18.14,18.14,0,1,1-18.14-18.14h0a18.13,18.13,0,0,1,18.13,18.13Z" transform="translate(0 0)"></path><g class="cls-3"><g class="cls-3"><path class="cls-4" d="M414.53,513.92l-2.59,10.18H385.73q-4.61,0-5.57,3.84l-8.35,33.4a5.59,5.59,0,0,0-.19,1.35q0,2.49,3.84,2.49h26.21l-2.5,10.18H360.1q-11.81,0-11.81-10.56a27.76,27.76,0,0,1,.86-6.43L356,530.91q4.23-17,19.49-17Z" transform="translate(0 0)"></path><path class="cls-4" d="M488.93,513.92l-44.54,51.26h27.74l-2.5,10.18H408.77l44.35-51.26H425.76l2.59-10.18Z" transform="translate(0 0)"></path><path class="cls-4" d="M553.15,513.92l-2.59,10.18H520.8l-3.55,14.4h27.26l-2.59,10.17H514.66l-4.13,16.51h29.76l-2.5,10.18H484.61L500,513.92Z" transform="translate(0 0)"></path><path class="cls-4" d="M619.49,513.92,616.9,524.1H590.69q-4.61,0-5.57,3.84l-8.35,33.4a5.59,5.59,0,0,0-.19,1.35q0,2.49,3.84,2.49h26.2l-2.49,10.18H565.06q-11.82,0-11.81-10.56a27.76,27.76,0,0,1,.86-6.43l6.82-27.46q4.22-17,19.49-17Z" transform="translate(0 0)"></path><path class="cls-4" d="M696.77,513.92l-15.36,61.44H658l6.63-26.69H647.14l-6.63,26.69H617.09l15.36-61.44h23.42l-6.14,24.58H667.2l6.14-24.58Z" transform="translate(0 0)"></path></g><g class="cls-3"><path class="cls-4" d="M421.73,642.75l-3,11.81q-2.29,9.32-11.71,9.31l6.24,26.69H387.65l-4.51-26.69h-7.2l-6.63,26.69H345.89l15.36-61.44H410q12.48,0,12.48,8.35A21.49,21.49,0,0,1,421.73,642.75Zm-23.42,0a5.85,5.85,0,0,0,.28-1.63c0-1.22-1-1.82-2.88-1.82H382.08l-3.55,14.4h13.63a4.08,4.08,0,0,0,4.32-3.46Z" transform="translate(0 0)"></path><path class="cls-4" d="M491.81,629.12l-2.59,10.18H459.46l-3.56,14.4h27.27l-2.59,10.17H453.31l-4.12,16.51H479l-2.5,10.18H423.26l15.36-61.44Z" transform="translate(0 0)"></path><path class="cls-4" d="M564.48,643.81l-2.69,10.75q-3.56,14.12-17.95,14.11H518.4l-5.47,21.89H489.5l15.37-61.44h48.19q12.18,0,12.19,9A25.44,25.44,0,0,1,564.48,643.81Zm-23.52.57a12.88,12.88,0,0,0,.38-2.68q0-2.4-3-2.4H525.7l-4.8,19.2h12.67q3.93,0,5.09-4.8Z" transform="translate(0 0)"></path><path class="cls-4" d="M646.94,629.12l-10.84,43.2q-2.51,9.88-7.16,14.06t-13.39,4.18H582.34q-12.48,0-12.48-11.33a28.77,28.77,0,0,1,1-6.91l10.84-43.2h23.43l-11.43,45.7a8.76,8.76,0,0,0-.28,2.11q0,3.45,4.32,3.45h20.73a8.27,8.27,0,0,0,4.56-1q1.39-1,2.16-4l11.62-46.27Z" transform="translate(0 0)"></path><path class="cls-4" d="M722.59,641.31l-2,8a10.61,10.61,0,0,1-5.67,7.3q-3.07,1.53-10,2v.19a41.85,41.85,0,0,1,8.35,1.73,4.56,4.56,0,0,1,3.07,4.42,11.81,11.81,0,0,1-.29,2.4l-2.68,11q-3,12.2-18.92,12.19H646l15.36-61.44h48.48q13.35,0,13.35,8.26A15.5,15.5,0,0,1,722.59,641.31Zm-29.85,25.92a9,9,0,0,0,.19-1.53q0-1.83-2.79-1.83H676l-4.13,16.51H686a4,4,0,0,0,4.22-3.36Zm6.14-24.67a6.78,6.78,0,0,0,.19-1.44c0-1.22-.93-1.82-2.78-1.82H682.18l-3.56,14.4h14.12c2.23,0,3.64-1.16,4.22-3.46Z" transform="translate(0 0)"></path><path class="cls-4" d="M779.42,680.38l-2.49,10.18H723.74l15.36-61.44h23.43l-12.87,51.26Z" transform="translate(0 0)"></path><path class="cls-4" d="M827.81,629.12l-15.36,61.44H789l15.36-61.44Z" transform="translate(0 0)"></path><path class="cls-4" d="M895.49,629.12l-2.6,10.18h-26.2c-3.08,0-4.93,1.28-5.57,3.84l-8.35,33.4a5.65,5.65,0,0,0-.2,1.35q0,2.49,3.84,2.49h26.21l-2.5,10.18H841.05q-11.81,0-11.8-10.56a27.23,27.23,0,0,1,.86-6.43l6.81-27.46q4.23-17,19.49-17Z" transform="translate(0 0)"></path></g></g></svg> 