<?xml version="1.0" encoding="UTF-8" standalone="no"?>
<svg
   xmlns:dc="http://purl.org/dc/elements/1.1/"
   xmlns:cc="http://creativecommons.org/ns#"
   xmlns:rdf="http://www.w3.org/1999/02/22-rdf-syntax-ns#"
   xmlns:svg="http://www.w3.org/2000/svg"
   xmlns="http://www.w3.org/2000/svg"
   xmlns:sodipodi="http://sodipodi.sourceforge.net/DTD/sodipodi-0.dtd"
   xmlns:inkscape="http://www.inkscape.org/namespaces/inkscape"
   id="svg4953"
   version="1.1"
   viewBox="0 0 171.86587 51.624626"
   height="195.1167"
   width="649.57178"
   sodipodi:docname="ro-crate-wide.svg"
   inkscape:version="0.92.5 (2060ec1f9f, 2020-04-08)">
  <sodipodi:namedview
     pagecolor="#ffffff"
     bordercolor="#666666"
     borderopacity="1"
     objecttolerance="10"
     gridtolerance="10"
     guidetolerance="10"
     inkscape:pageopacity="0"
     inkscape:pageshadow="2"
     inkscape:window-width="1681"
     inkscape:window-height="975"
     id="namedview27"
     showgrid="false"
     inkscape:zoom="0.48801381"
     inkscape:cx="75.769341"
     inkscape:cy="-116.48024"
     inkscape:window-x="145"
     inkscape:window-y="104"
     inkscape:window-maximized="0"
     inkscape:current-layer="svg4953" />
  <title
     id="title1233">Workflow RO-Crate logo</title>
  <defs
     id="defs4947" />
  <metadata
     id="metadata4950">
    <rdf:RDF>
      <cc:Work
         rdf:about="">
        <dc:format>image/svg+xml</dc:format>
        <dc:type
           rdf:resource="http://purl.org/dc/dcmitype/StillImage" />
        <dc:title>Workflow RO-Crate logo</dc:title>
        <cc:license
           rdf:resource="https://www.apache.org/licenses/LICENSE-2.0" />
        <dc:date>2020-03-17</dc:date>
        <dc:creator>
          <cc:Agent>
            <dc:title>Stian Soiland-Reyes</dc:title>
          </cc:Agent>
        </dc:creator>
        <dc:contributor>
          <cc:Agent>
            <dc:title />
          </cc:Agent>
        </dc:contributor>
        <dc:publisher>
          <cc:Agent>
            <dc:title />
          </cc:Agent>
        </dc:publisher>
        <dc:rights>
          <cc:Agent>
            <dc:title>The University of Manchester</dc:title>
          </cc:Agent>
        </dc:rights>
        <dc:source>https://github.com/ResearchObject/ro-crate/blob/master/docs/assets/img/ro-crate.svg</dc:source>
        <dc:description />
      </cc:Work>
    </rdf:RDF>
  </metadata>
  <g
     id="g4898">
    <g
       id="g4876">
      <g
         aria-label="RO-Crate"
         style="font-style:normal;font-variant:normal;font-weight:bold;font-stretch:normal;font-size:21.89152908px;line-height:1.25;font-family:Ubuntu;-inkscape-font-specification:'Ubuntu, Bold';font-variant-ligatures:normal;font-variant-caps:normal;font-variant-numeric:normal;font-feature-settings:normal;text-align:start;letter-spacing:0px;word-spacing:0px;writing-mode:lr-tb;text-anchor:start;fill:#39989f;fill-opacity:1;stroke:none;stroke-width:0.54728824"
         id="text881-0">
        <path
           d="m 78.482725,29.07222 q 3.415078,0 5.232075,1.225926 1.816997,1.204034 1.816997,3.765343 0,1.598082 -0.744312,2.605092 -0.72242,0.985119 -2.101587,1.554299 0.459723,0.569179 0.963228,1.313491 0.503505,0.722421 0.985119,1.532407 0.503505,0.788095 0.963227,1.663757 0.459722,0.853769 0.853769,1.685647 h -3.831017 q -0.415939,-0.744312 -0.85377,-1.510515 -0.415939,-0.766204 -0.875661,-1.488624 -0.43783,-0.722421 -0.875661,-1.357275 -0.437831,-0.656746 -0.875661,-1.182142 h -1.685648 v 5.538556 H 74.038745 V 29.466268 q 1.116467,-0.218915 2.29861,-0.306481 1.204034,-0.08757 2.14537,-0.08757 z m 0.197024,2.911574 q -0.372156,0 -0.678638,0.02189 -0.28459,0.02189 -0.547288,0.04378 v 4.115608 h 0.963227 q 1.926455,0 2.758333,-0.481614 0.831878,-0.481613 0.831878,-1.641864 0,-1.116468 -0.85377,-1.576191 -0.831878,-0.481613 -2.473742,-0.481613 z"
           style="font-style:normal;font-variant:normal;font-weight:bold;font-stretch:normal;font-size:21.89152908px;font-family:Ubuntu;-inkscape-font-specification:'Ubuntu, Bold';font-variant-ligatures:normal;font-variant-caps:normal;font-variant-numeric:normal;font-feature-settings:normal;text-align:start;writing-mode:lr-tb;text-anchor:start;fill:#39989f;fill-opacity:1;stroke-width:0.54728824"
           id="path923"
           inkscape:connector-curvature="0" />
        <path
           d="m 91.114099,36.821822 q 0,1.116468 0.262699,2.01402 0.284589,0.897553 0.788095,1.554299 0.525396,0.634854 1.269708,0.985119 0.744312,0.350264 1.70754,0.350264 0.941335,0 1.685647,-0.350264 0.766204,-0.350265 1.269709,-0.985119 0.525397,-0.656746 0.788095,-1.554299 0.28459,-0.897552 0.28459,-2.01402 0,-1.116468 -0.28459,-2.014021 -0.262698,-0.919444 -0.788095,-1.554298 -0.503505,-0.656746 -1.269709,-1.007011 -0.744312,-0.350264 -1.685647,-0.350264 -0.963228,0 -1.70754,0.372156 -0.744312,0.350264 -1.269708,1.00701 -0.503506,0.634854 -0.788095,1.554299 -0.262699,0.897552 -0.262699,1.992129 z m 11.580621,0 q 0,1.948346 -0.59107,3.43697 -0.56918,1.466732 -1.57619,2.473743 -1.007014,0.985118 -2.408072,1.488624 -1.379166,0.503505 -2.977247,0.503505 -1.554299,0 -2.933465,-0.503505 -1.379167,-0.503506 -2.408069,-1.488624 -1.028901,-1.007011 -1.619973,-2.473743 -0.591071,-1.488624 -0.591071,-3.43697 0,-1.948346 0.612963,-3.415079 0.612963,-1.488624 1.641864,-2.495634 1.050794,-1.00701 2.408069,-1.510516 1.379166,-0.503505 2.889682,-0.503505 1.554298,0 2.933464,0.503505 1.379167,0.503506 2.408065,1.510516 1.02891,1.00701 1.61998,2.495634 0.59107,1.466733 0.59107,3.415079 z"
           style="font-style:normal;font-variant:normal;font-weight:bold;font-stretch:normal;font-size:21.89152908px;font-family:Ubuntu;-inkscape-font-specification:'Ubuntu, Bold';font-variant-ligatures:normal;font-variant-caps:normal;font-variant-numeric:normal;font-feature-settings:normal;text-align:start;writing-mode:lr-tb;text-anchor:start;fill:#39989f;fill-opacity:1;stroke-width:0.54728824"
           id="path925"
           inkscape:connector-curvature="0" />
        <path
           d="m 104.77436,36.405883 h 6.34854 v 2.955356 h -6.34854 z"
           style="font-style:normal;font-variant:normal;font-weight:bold;font-stretch:normal;font-size:21.89152908px;font-family:Ubuntu;-inkscape-font-specification:'Ubuntu, Bold';font-variant-ligatures:normal;font-variant-caps:normal;font-variant-numeric:normal;font-feature-settings:normal;text-align:start;writing-mode:lr-tb;text-anchor:start;fill:#39989f;fill-opacity:1;stroke-width:0.54728824"
           id="path927"
           inkscape:connector-curvature="0" />
        <path
           d="m 120.777,44.724664 q -3.69967,0 -5.64802,-2.057804 -1.92645,-2.057804 -1.92645,-5.845038 0,-1.882672 0.59107,-3.349404 0.59107,-1.488624 1.61997,-2.495634 1.0289,-1.028902 2.45185,-1.554299 1.42295,-0.525397 3.08671,-0.525397 0.96323,0 1.75132,0.153241 0.7881,0.131349 1.37917,0.328373 0.59107,0.175132 0.98512,0.372156 0.39404,0.197024 0.56918,0.306481 l -0.98512,2.758333 q -0.70053,-0.372156 -1.64187,-0.634854 -0.91944,-0.262699 -2.10158,-0.262699 -0.7881,0 -1.5543,0.262699 -0.74431,0.262698 -1.33539,0.853769 -0.56917,0.56918 -0.91944,1.488624 -0.35026,0.919444 -0.35026,2.232936 0,1.050794 0.21891,1.970238 0.24081,0.897553 0.74431,1.554298 0.5254,0.656746 1.35728,1.050794 0.83188,0.372156 2.01402,0.372156 0.74431,0 1.33538,-0.08757 0.59107,-0.08757 1.0508,-0.197024 0.45972,-0.131349 0.80998,-0.28459 0.35027,-0.153241 0.63486,-0.28459 l 0.94133,2.736441 q -0.72242,0.437831 -2.03591,0.788095 -1.31349,0.350265 -3.04292,0.350265 z"
           style="font-style:normal;font-variant:normal;font-weight:bold;font-stretch:normal;font-size:21.89152908px;font-family:Ubuntu;-inkscape-font-specification:'Ubuntu, Bold';font-variant-ligatures:normal;font-variant-caps:normal;font-variant-numeric:normal;font-feature-settings:normal;text-align:start;writing-mode:lr-tb;text-anchor:start;fill:#39989f;fill-opacity:1;stroke-width:0.54728824"
           id="path929"
           inkscape:connector-curvature="0" />
        <path
           d="m 134.76566,35.79292 q -0.43783,-0.109458 -1.0289,-0.218915 -0.59108,-0.13135 -1.26971,-0.13135 -0.30648,0 -0.74431,0.06567 -0.41594,0.04378 -0.63486,0.109458 v 8.800394 h -3.26184 V 33.516201 q 0.87566,-0.306482 2.05781,-0.56918 1.20403,-0.28459 2.67076,-0.28459 0.2627,0 0.63486,0.04378 0.37215,0.02189 0.74431,0.08757 0.37216,0.04378 0.74431,0.13135 0.37216,0.06567 0.63486,0.175132 z"
           style="font-style:normal;font-variant:normal;font-weight:bold;font-stretch:normal;font-size:21.89152908px;font-family:Ubuntu;-inkscape-font-specification:'Ubuntu, Bold';font-variant-ligatures:normal;font-variant-caps:normal;font-variant-numeric:normal;font-feature-settings:normal;text-align:start;writing-mode:lr-tb;text-anchor:start;fill:#39989f;fill-opacity:1;stroke-width:0.54728824"
           id="path931"
           inkscape:connector-curvature="0" />
        <path
           d="m 141.24552,42.141463 q 0.48162,0 0.91945,-0.02189 0.43783,-0.02189 0.70053,-0.06567 V 39.58016 q -0.19703,-0.04378 -0.59107,-0.08757 -0.39405,-0.04378 -0.72242,-0.04378 -0.45973,0 -0.87567,0.06567 -0.39404,0.04378 -0.70052,0.197024 -0.30649,0.15324 -0.48162,0.415939 -0.17513,0.262698 -0.17513,0.656746 0,0.766203 0.5035,1.072684 0.5254,0.28459 1.42295,0.28459 z m -0.26269,-9.544706 q 1.44484,0 2.40806,0.328373 0.96323,0.328373 1.53241,0.941335 0.59107,0.612963 0.83188,1.488624 0.24081,0.875661 0.24081,1.948346 v 6.786374 q -0.70053,0.153241 -1.94835,0.350265 -1.24782,0.218915 -3.02103,0.218915 -1.11647,0 -2.03591,-0.197024 -0.89756,-0.197023 -1.5543,-0.634854 -0.65675,-0.459722 -1.00701,-1.182142 -0.35027,-0.722421 -0.35027,-1.773214 0,-1.007011 0.39405,-1.70754 0.41594,-0.700529 1.09458,-1.116468 0.67863,-0.415939 1.5543,-0.591071 0.87566,-0.197024 1.81699,-0.197024 0.63486,0 1.11647,0.06567 0.50351,0.04378 0.80999,0.131349 V 37.15019 q 0,-0.831878 -0.50351,-1.335384 -0.5035,-0.503505 -1.75132,-0.503505 -0.83188,0 -1.64187,0.131349 -0.80998,0.109458 -1.40105,0.328373 l -0.41594,-2.626983 q 0.28459,-0.08757 0.70053,-0.175132 0.43783,-0.109458 0.94133,-0.175133 0.50351,-0.08757 1.0508,-0.131349 0.56918,-0.06567 1.13836,-0.06567 z"
           style="font-style:normal;font-variant:normal;font-weight:bold;font-stretch:normal;font-size:21.89152908px;font-family:Ubuntu;-inkscape-font-specification:'Ubuntu, Bold';font-variant-ligatures:normal;font-variant-caps:normal;font-variant-numeric:normal;font-feature-settings:normal;text-align:start;writing-mode:lr-tb;text-anchor:start;fill:#39989f;fill-opacity:1;stroke-width:0.54728824"
           id="path933"
           inkscape:connector-curvature="0" />
        <path
           d="m 148.84187,30.035448 3.26184,-0.525397 v 3.393187 h 3.91858 v 2.71455 h -3.91858 v 4.049933 q 0,1.028901 0.35026,1.641864 0.37216,0.612963 1.46674,0.612963 0.52539,0 1.07268,-0.08757 0.56918,-0.109458 1.0289,-0.28459 l 0.45973,2.539417 q -0.59108,0.240807 -1.3135,0.415939 -0.72242,0.175133 -1.77321,0.175133 -1.33538,0 -2.21104,-0.350265 -0.87567,-0.372156 -1.40106,-1.00701 -0.5254,-0.656746 -0.74431,-1.57619 -0.19703,-0.919444 -0.19703,-2.035912 z"
           style="font-style:normal;font-variant:normal;font-weight:bold;font-stretch:normal;font-size:21.89152908px;font-family:Ubuntu;-inkscape-font-specification:'Ubuntu, Bold';font-variant-ligatures:normal;font-variant-caps:normal;font-variant-numeric:normal;font-feature-settings:normal;text-align:start;writing-mode:lr-tb;text-anchor:start;fill:#39989f;fill-opacity:1;stroke-width:0.54728824"
           id="path935"
           inkscape:connector-curvature="0" />
        <path
           d="m 157.686,38.748276 q 0,-1.532407 0.45972,-2.670766 0.48162,-1.160251 1.24782,-1.926455 0.7662,-0.766203 1.75132,-1.160251 1.00701,-0.394047 2.05781,-0.394047 2.45185,0 3.8748,1.510515 1.42295,1.488624 1.42295,4.400198 0,0.284589 -0.0219,0.634854 -0.0219,0.328373 -0.0438,0.591071 h -7.39934 q 0.10946,1.00701 0.94134,1.598082 0.83188,0.591071 2.23294,0.591071 0.89755,0 1.75132,-0.153241 0.87566,-0.175132 1.42295,-0.415939 l 0.43783,2.648875 q -0.2627,0.131349 -0.70053,0.262699 -0.43783,0.131349 -0.98512,0.218915 -0.5254,0.109458 -1.13836,0.175132 -0.61296,0.06567 -1.22592,0.06567 -1.5543,0 -2.71455,-0.459722 -1.13836,-0.459722 -1.90457,-1.247817 -0.74431,-0.809987 -1.11646,-1.904564 -0.35027,-1.094576 -0.35027,-2.364285 z m 7.66204,-1.247817 q -0.0219,-0.415939 -0.15324,-0.809986 -0.10946,-0.394048 -0.37216,-0.700529 -0.24081,-0.306482 -0.63486,-0.503505 -0.37215,-0.197024 -0.94133,-0.197024 -0.54729,0 -0.94134,0.197024 -0.39404,0.175132 -0.65674,0.481613 -0.2627,0.306482 -0.41594,0.722421 -0.13135,0.394047 -0.19703,0.809986 z"
           style="font-style:normal;font-variant:normal;font-weight:bold;font-stretch:normal;font-size:21.89152908px;font-family:Ubuntu;-inkscape-font-specification:'Ubuntu, Bold';font-variant-ligatures:normal;font-variant-caps:normal;font-variant-numeric:normal;font-feature-settings:normal;text-align:start;writing-mode:lr-tb;text-anchor:start;fill:#39989f;fill-opacity:1;stroke-width:0.54728824"
           id="path937"
           inkscape:connector-curvature="0" />
      </g>
      <text
         xml:space="preserve"
         style="font-style:normal;font-variant:normal;font-weight:bold;font-stretch:normal;font-size:21.89152908px;line-height:1.25;font-family:Ubuntu;-inkscape-font-specification:'Ubuntu, Bold';font-variant-ligatures:normal;font-variant-caps:normal;font-variant-numeric:normal;font-feature-settings:normal;text-align:start;letter-spacing:0px;word-spacing:0px;writing-mode:lr-tb;text-anchor:start;opacity:0;fill:#39989f;fill-opacity:0.26511627;stroke:none;stroke-width:0.54728824;"
         x="72.287422"
         y="44.418182"
         id="text881"><tspan
           id="tspan879"
           x="72.287422"
           y="44.418182"
           style="font-style:normal;font-variant:normal;font-weight:bold;font-stretch:normal;font-size:21.89152908px;font-family:Ubuntu;-inkscape-font-specification:'Ubuntu, Bold';font-variant-ligatures:normal;font-variant-caps:normal;font-variant-numeric:normal;font-feature-settings:normal;text-align:start;writing-mode:lr-tb;text-anchor:start;fill:#39989f;fill-opacity:0.26511627;stroke-width:0.54728824;">RO-Crate</tspan></text>
    </g>
    <g
       transform="matrix(0.18392081,0,0,0.18392081,164.9943,1.84859)"
       id="g984">
      <g
         id="g4934"
         transform="matrix(0.3527778,0,0,-0.3527778,-1077.9314,500.99027)">
        <path
           id="path285-1-0"
           d="m 1009.5861,758.84575 c -73.77092,5.79298 -139.82992,36.6562 -190.13312,88.83146 -45.55611,47.25155 -72.44251,103.88267 -80.89181,170.38339 -1.7947,14.1259 -1.776,50.752 0.033,65.3717 7.092,57.3001 27.9142,107.1191 63.2971,151.4442 9.7069,12.1602 31.93121,34.4529 43.53901,43.6732 16.1975,12.8659 34.5766,24.9525 48.9491,32.1904 5.7483,2.8948 5.8474,3.0431 7.6988,11.516 1.9271,8.8198 6.6938,14.0908 14.1979,15.7001 8.0454,1.7255 11.6524,-0.361 35.5594,-20.5693 15.4315,-13.0441 21.4586,-18.8889 23.2113,-22.5096 1.9091,-3.9435 1.9697,-10.5759 0.1336,-14.6038 -2.7225,-5.9723 -4.4675,-7.2448 -16.2898,-11.8791 -13.6921,-5.3672 -37.1306,-13.634 -43.1459,-15.2175 -10.38,-2.7325 -19.2983,2.6042 -22.446,13.4318 -0.617,2.1225 -1.3637,3.859 -1.6593,3.859 -0.9137,0 -13.3505,-8.7316 -22.742,-15.9667 -10.5161,-8.1015 -31.9389,-29.1893 -40.2389,-39.6097 -23.77231,-29.8452 -40.40681,-62.4117 -49.71001,-97.3205 -12.0025,-45.038 -11.4645,-94.3992 1.5125,-138.77773 17.8819,-61.15226 57.51971,-113.34859 112.36961,-147.97183 9.4688,-5.97705 30.4379,-16.56633 40.8514,-20.6297 31.2286,-12.1855 62.7872,-18.3504 94.06252,-18.37492 41.2595,-0.0323 77.6261,8.1956 114.3892,25.88056 69.0461,33.21471 119.6713,95.1925 138.7437,169.85669 4.8973,19.17153 7.0949,35.01393 7.7585,55.92903 1.4469,45.6048 -10.0539,91.7303 -33.1426,132.9223 -29.3907,52.4354 -75.838,94.5069 -129.8945,117.6572 -13.0257,5.5784 -30.6302,11.6116 -31.4249,10.7695 -0.5643,-0.5979 -1.3798,-11.8812 -3.0348,-41.9909 -1.2863,-23.4009 -1.241,-85.8381 0.068,-94.4256 3.4369,-22.5401 11.3942,-36.8386 49.113,-88.2517 20.4213,-27.8355 30.6087,-42.5001 37.9236,-54.5901 11.2422,-18.5812 19.3978,-37.31833 22.3481,-51.34383 1.552,-7.37787 1.5181,-25.36208 -0.058,-30.66873 -9.0457,-30.46041 -47.6066,-51.62537 -111.05,-60.95228 -21.7794,-3.20182 -33.7591,-3.95684 -63.1926,-3.98271 -36.25312,-0.0319 -55.79172,1.65788 -83.53042,7.2239 -56.6931,11.37602 -88.9927,33.34453 -93.3765,63.50987 -3.7154,25.56565 8.1694,56.20058 38.6746,99.68968 4.6117,6.5745 15.2004,21.2493 23.5305,32.6107 38.7405,52.8383 45.6816,66.2127 50.1136,96.5609 1.2526,8.5774 1.2487,9.7063 -0.1586,45.8406 -0.2584,6.6359 -0.2513,12.9361 0.016,14.0006 0.6687,2.6642 5.1899,7.4976 8.7524,9.3568 8.8319,4.6092 20.8611,-1.2871 22.85,-11.2002 1.5229,-7.5905 2.4938,-23.743 2.4819,-41.2917 -0.011,-15.9229 -0.21,-18.904 -1.8942,-28.3277 -5.8708,-32.8508 -14.6242,-49.4289 -55.8022,-105.6841 -39.7723,-54.335 -50.4182,-72.37653 -54.782,-92.83894 -3.6362,-17.05108 1.1516,-25.20056 20.5545,-34.98606 26.7821,-13.50706 63.7008,-20.38579 113.91392,-21.22455 31.4776,-0.52581 51.7713,0.87027 77.2828,5.31656 31.9414,5.56692 59.6229,16.55286 68.6047,27.22706 4.3513,5.17122 4.9725,7.41723 4.5882,16.58794 -0.4242,10.12391 -2.6131,17.40256 -9.1516,30.43046 -8.0366,16.01313 -18.5126,31.95563 -42.3199,64.40303 -50.4034,68.696 -57.0388,82.3895 -59.4326,122.6524 -1.4071,23.6669 -0.8126,59.8108 1.7638,107.2378 1.5726,28.9505 2.4912,41.3148 3.3544,45.1513 0.9426,4.1897 4.9394,9.0342 8.9601,10.8605 4.4383,2.0159 9.3564,1.67 21.9533,-1.5438 65.9048,-16.8144 123.3276,-54.5201 165.6397,-108.7647 30.1612,-38.6669 51.0136,-85.3945 59.3719,-133.045 2.9231,-16.6645 3.5039,-26.767 3.1047,-54.0023 -0.3861,-26.3429 -0.6585,-29.1574 -4.9534,-51.17483 -9.0122,-46.20079 -30.4013,-91.08666 -61.2476,-128.53048 -8.8289,-10.71714 -30.8544,-32.51512 -41.4632,-41.03463 -43.9908,-35.32762 -94.3309,-56.52082 -150.7179,-63.45229 -9.3601,-1.15061 -44.5476,-2.03323 -53.3868,-1.33912 z"
           style="fill:#4d4e4c;stroke-width:0.72635132"
           inkscape:connector-curvature="0" />
        <path
           style="fill:#39989f;stroke-width:0.96846849"
           d="m 1341.8223,-1190.1484 c -23.665,-0.08 -34.2157,1.2458 -52.8145,6.6328 -38.0668,11.0254 -59.5558,33.3312 -61.2207,63.5468 -0.4864,8.8277 -0.352,9.7808 2.082,14.7559 8.2931,16.9504 39.7859,30.5492 81.9297,35.3789 5.0602,0.5799 10.7275,1.2289 12.5918,1.4414 1.8643,0.213 17.7701,0.2447 35.3477,0.072 33.5646,-0.3293 45.7223,-1.4557 67.0527,-6.2168 28.4905,-6.3592 48.9575,-16.8695 55.1328,-28.3106 2.3946,-4.4364 2.1885,-14.9471 -0.4629,-23.6757 -9.2566,-30.4759 -52.4051,-55.2515 -108.6484,-62.3848 -5.0603,-0.6419 -19.0054,-1.2002 -30.9902,-1.2402 z"
           transform="matrix(0.74999998,0,0,-0.74999998,6.75977,147.06053)"
           id="path287-8-3"
           inkscape:connector-curvature="0" />
      </g>
      <g
         aria-label="{"
         style="font-style:normal;font-weight:normal;font-size:70.52535248px;line-height:1.25;font-family:sans-serif;letter-spacing:0px;word-spacing:0px;fill:#916f6f;fill-opacity:1;stroke:none;stroke-width:1.76313376"
         id="text13">
        <path
           d="m -891.33986,115.23347 v 18.95722 h 7.10895 c 5.75487,0 14.55643,-0.33853 21.32687,6.77043 6.77043,6.43191 8.80156,16.24904 8.80156,30.80547 0,10.49418 -1.01556,20.64983 -1.01556,33.85217 0,12.18678 1.01556,35.54478 18.61869,49.08565 14.89495,11.17122 32.15956,10.15565 53.14791,10.15565 h 12.18678 v -18.95721 h -12.5253 c -13.87939,0 -24.71209,0.67704 -33.85217,-5.75487 -12.18679,-8.12452 -13.87939,-23.01948 -13.87939,-34.52922 0,-9.14008 1.01556,-17.94165 1.01556,-28.43582 0,-35.54478 -15.572,-48.4086 -28.43582,-52.80938 10.49417,-4.40079 18.95721,-12.52531 24.03504,-22.68096 4.40078,-9.140084 5.41635,-19.295735 5.41635,-27.081734 0,-8.463042 -1.01557,-15.91052 -1.01557,-24.03504 0,-6.770434 0.67704,-23.357998 13.54087,-31.482518 9.14008,-5.754869 19.29574,-4.062261 34.19069,-4.062261 h 11.84826 V -4.2646895 h -10.49417 c -17.94165,0 -39.60704,-1.3540867 -55.85608,13.540868 -14.89496,13.5408675 -16.92609,32.4980825 -16.92609,45.3619075 0,8.124521 1.01557,15.91052 1.01557,24.035041 0,8.463042 -1.01557,20.311301 -8.80157,28.774343 -7.44747,7.786 -16.58756,7.786 -22.68095,7.786 z"
           style="font-style:normal;font-variant:normal;font-weight:normal;font-stretch:normal;font-size:338.521698px;font-family:Inconsolata;-inkscape-font-specification:Inconsolata;fill:#916f6f;stroke-width:1.76313376"
           id="path3720"
           inkscape:connector-curvature="0" />
      </g>
      <g
         aria-label="}"
         style="font-style:normal;font-weight:normal;font-size:70.52535248px;line-height:1.25;font-family:sans-serif;letter-spacing:0px;word-spacing:0px;fill:#916f6f;fill-opacity:1;stroke:none;stroke-width:1.76313376"
         id="text13-3">
        <path
           d="m -538.26184,115.23348 h -6.43191 c -6.0934,0 -15.572,0 -22.68096,-7.786 -8.12452,-8.463046 -8.80157,-20.311307 -8.80157,-28.77435 0,-8.124522 0.67705,-15.910521 0.67705,-24.035043 0,-12.863826 -1.69261,-31.821042 -16.58757,-45.3619115 -16.24904,-14.894956 -37.91443,-13.5408691 -56.1946,-13.5408691 h -10.15566 V 15.031045 h 11.50974 c 14.89496,0 25.38913,-1.692609 34.1907,4.062261 13.20235,8.124521 13.87939,24.712086 13.87939,31.48252 0,8.124522 -1.01557,15.572 -1.01557,24.035043 0,7.786 0.67705,17.941652 5.07783,27.081741 5.07783,10.15565 13.87939,18.28017 24.37356,22.68095 -12.86382,4.40079 -28.77434,17.26461 -28.77434,52.80939 0,10.49418 1.01556,19.29574 1.01556,28.43583 0,11.50974 -1.69261,26.40469 -13.87939,34.52921 -9.14009,6.43192 -19.63426,5.75487 -33.51365,5.75487 h -12.5253 v 18.95722 h 12.18678 c 20.98835,0 38.25295,1.01557 52.80939,-10.15565 17.94165,-13.54087 18.95721,-36.89887 18.95721,-49.08565 0,-13.20235 -1.35408,-23.358 -1.35408,-33.85217 0,-14.55644 2.36965,-24.37357 8.80156,-30.80548 7.10896,-7.10896 15.91052,-6.77044 21.66539,-6.77044 h 6.77044 z"
           style="font-style:normal;font-variant:normal;font-weight:normal;font-stretch:normal;font-size:338.52172852px;font-family:Inconsolata;-inkscape-font-specification:Inconsolata;fill:#916f6f;stroke-width:1.76313376"
           id="path3723"
           inkscape:connector-curvature="0" />
      </g>
    </g>
  </g>
</svg>
