<?xml version="1.0" encoding="UTF-8" standalone="no"?>
<!-- Generator: Adobe Illustrator 18.1.1, SVG Export Plug-In . SVG Version: 6.00 Build 0)  -->

<svg
   xmlns:dc="http://purl.org/dc/elements/1.1/"
   xmlns:cc="http://creativecommons.org/ns#"
   xmlns:rdf="http://www.w3.org/1999/02/22-rdf-syntax-ns#"
   xmlns:svg="http://www.w3.org/2000/svg"
   xmlns="http://www.w3.org/2000/svg"
   xmlns:sodipodi="http://sodipodi.sourceforge.net/DTD/sodipodi-0.dtd"
   xmlns:inkscape="http://www.inkscape.org/namespaces/inkscape"
   version="1.1"
   id="Layer_1"
   x="0px"
   y="0px"
   viewBox="7.7 3 347 110.6"
   enable-background="new 7.7 3 347 110.6"
   xml:space="preserve"
   sodipodi:docname="galaxy_logo_hub.svg"
   inkscape:version="0.92.5 (2060ec1f9f, 2020-04-08)"><metadata
   id="metadata48"><rdf:RDF><cc:Work
       rdf:about=""><dc:format>image/svg+xml</dc:format><dc:type
         rdf:resource="http://purl.org/dc/dcmitype/StillImage" /></cc:Work></rdf:RDF></metadata><defs
   id="defs46" /><sodipodi:namedview
   pagecolor="#ffffff"
   bordercolor="#666666"
   borderopacity="1"
   objecttolerance="10"
   gridtolerance="10"
   guidetolerance="10"
   inkscape:pageopacity="0"
   inkscape:pageshadow="2"
   inkscape:window-width="1287"
   inkscape:window-height="547"
   id="namedview44"
   showgrid="false"
   inkscape:zoom="1.1037464"
   inkscape:cx="107.29821"
   inkscape:cy="-17.180419"
   inkscape:window-x="1022"
   inkscape:window-y="518"
   inkscape:window-maximized="0"
   inkscape:current-layer="g27" />
<path
   fill="#58595B"
   d="M57.7,27.9h-47c-0.6,0-1.1-0.5-1.1-1.1V14.6c0-0.6,0.5-1.1,1.1-1.1h47c0.6,0,1.1,0.5,1.1,1.1v12.1  C58.8,27.3,58.4,27.9,57.7,27.9z"
   id="path2" />
<path
   fill="#58595B"
   d="M45.1,46.8H10.8c-0.6,0-1.2-0.5-1.2-1.2v-12c0-0.6,0.5-1.2,1.2-1.2h34.3c0.6,0,1.2,0.5,1.2,1.2v12  C46.3,46.3,45.8,46.8,45.1,46.8z"
   id="path4" />
<linearGradient
   id="SVGID_1_"
   gradientUnits="userSpaceOnUse"
   x1="61.4"
   y1="282.5"
   x2="175.7"
   y2="282.5"
   gradientTransform="matrix(0.431 0 0 -0.431 0 179.9715)">
	<stop
   offset="0.1656"
   style="stop-color:#D0BD2B"
   id="stop6" />
	<stop
   offset="1"
   style="stop-color:#D0BD2B;stop-opacity:0"
   id="stop8" />
</linearGradient>
<path
   fill="url(#SVGID_1_)"
   d="M74.6,65.4H27.6c-0.6,0-1.2-0.5-1.2-1.2v-12c0-0.6,0.5-1.2,1.2-1.2h46.9c0.6,0,1.2,0.5,1.2,1.2v12  C75.7,64.9,75.2,65.4,74.6,65.4z"
   id="path11" />
<g
   id="g27">
	
	
	
	
	
	
	
<g
   aria-label="COMMUNITY HUB"
   transform="matrix(0.56134783,0,0,0.56134783,49.304184,108.20571)"
   style="font-size:60px;font-family:Exo-ExtraLight;fill:#58595b;fill-opacity:1"
   id="text4258"><path
     inkscape:connector-curvature="0"
     d="m 39.550781,-3.1640625 q -1.611328,0.703125 -2.929687,1.3183594 -1.289063,0.6152344 -3.398438,1.28906248 Q 31.435547,0 29.326172,0.38085938 q -2.080078,0.41015624 -4.59961,0.41015624 -4.746093,0 -8.642578,-1.31835937 Q 12.216797,-1.875 9.3457031,-4.7167969 6.5332031,-7.5 4.9511719,-11.777344 q -1.5820313,-4.30664 -1.5820313,-9.990234 0,-5.390625 1.5234375,-9.638672 1.5234375,-4.248047 4.3945313,-7.177734 2.7832036,-2.841797 6.7089846,-4.335938 3.955078,-1.49414 8.759765,-1.49414 3.515625,0 7.001953,0.849609 3.515625,0.849609 7.792969,2.988281 v 6.884766 h -0.439453 q -3.603516,-3.017578 -7.148437,-4.394531 -3.544922,-1.376954 -7.587891,-1.376954 -3.310547,0 -5.976563,1.083985 -2.636718,1.054687 -4.716796,3.310547 -2.021485,2.197265 -3.164063,5.566406 -1.1132811,3.339844 -1.1132811,7.734375 0,4.599609 1.2304691,7.910156 1.259765,3.310547 3.222656,5.3906251 2.050781,2.1679688 4.77539,3.2226563 2.753907,1.0253906 5.800782,1.0253906 4.189453,0 7.851562,-1.4355469 3.66211,-1.4355468 6.855469,-4.3066406 h 0.410156 z"
     style="font-size:60px;font-family:Exo-ExtraLight;fill:#58595b;fill-opacity:1"
     id="path4292" /><path
     inkscape:connector-curvature="0"
     d="m 80.332031,-38.613281 q 2.666016,2.929687 4.072266,7.177734 1.435547,4.248047 1.435547,9.638672 0,5.390625 -1.464844,9.667969 -1.435547,4.2480466 -4.042969,7.0898435 -2.695312,2.9589844 -6.386719,4.453125 -3.662109,1.49414063 -8.378906,1.49414063 -4.599609,0 -8.378906,-1.5234375 -3.75,-1.52343753 -6.386719,-4.42382813 -2.636719,-2.9003906 -4.072265,-7.1191405 -1.40625,-4.21875 -1.40625,-9.638672 0,-5.332031 1.40625,-9.550781 1.40625,-4.248047 4.101562,-7.265625 2.578125,-2.871094 6.386719,-4.394531 3.83789,-1.523438 8.349609,-1.523438 4.6875,0 8.408203,1.552734 3.75,1.523438 6.357422,4.365235 z m -0.527344,16.816406 q 0,-8.496094 -3.808593,-13.095703 -3.808594,-4.628906 -10.400391,-4.628906 -6.650391,0 -10.458984,4.628906 -3.779297,4.599609 -3.779297,13.095703 0,8.583984 3.867187,13.1542969 3.867188,4.5410156 10.371094,4.5410156 6.503906,0 10.341797,-4.5410156 3.867187,-4.5703129 3.867187,-13.1542969 z"
     style="font-size:60px;font-family:Exo-ExtraLight;fill:#58595b;fill-opacity:1"
     id="path4294" /><path
     inkscape:connector-curvature="0"
     d="m 133.88672,0 h -5.80078 v -37.587891 l -12.12891,25.576172 H 112.5 L 100.45898,-37.587891 V 0 h -5.419918 v -43.623047 h 7.910158 l 11.63086,24.28711 11.25,-24.28711 h 8.05664 z"
     style="font-size:60px;font-family:Exo-ExtraLight;fill:#58595b;fill-opacity:1"
     id="path4296" /><path
     inkscape:connector-curvature="0"
     d="m 184.51172,0 h -5.80078 v -37.587891 l -12.12891,25.576172 H 163.125 L 151.08398,-37.587891 V 0 h -5.41992 v -43.623047 h 7.91016 l 11.63086,24.28711 11.25,-24.28711 h 8.05664 z"
     style="font-size:60px;font-family:Exo-ExtraLight;fill:#58595b;fill-opacity:1"
     id="path4298" /><path
     inkscape:connector-curvature="0"
     d="m 229.13086,-17.519531 q 0,4.746093 -1.05469,8.2910154 -1.02539,3.515625 -3.39844,5.859375 -2.25586,2.2265625 -5.27343,3.2519531 -3.01758,1.02539063 -7.03125,1.02539063 -4.10157,0 -7.14844,-1.08398438 -3.04688,-1.08398435 -5.12695,-3.19335935 -2.37305,-2.4023438 -3.42774,-5.8007813 -1.02539,-3.3984371 -1.02539,-8.3496091 v -26.103516 h 5.80078 v 26.396485 q 0,3.544921 0.46875,5.595703 0.49805,2.0507809 1.64063,3.7207028 1.28906,1.9042968 3.48633,2.8710937 2.22656,0.9667969 5.33203,0.9667969 3.13476,0 5.33203,-0.9375 2.19726,-0.9667969 3.51562,-2.9003906 1.14258,-1.6699219 1.61133,-3.8085938 0.49805,-2.167969 0.49805,-5.361328 v -26.542969 h 5.80078 z"
     style="font-size:60px;font-family:Exo-ExtraLight;fill:#58595b;fill-opacity:1"
     id="path4300" /><path
     inkscape:connector-curvature="0"
     d="m 273.51562,0 h -7.17773 L 245.6543,-39.023437 V 0 h -5.41993 v -43.623047 h 8.99415 L 268.0957,-7.9980469 V -43.623047 h 5.41992 z"
     style="font-size:60px;font-family:Exo-ExtraLight;fill:#58595b;fill-opacity:1"
     id="path4302" /><path
     inkscape:connector-curvature="0"
     d="m 300.49805,0 h -17.22657 v -4.453125 h 5.71289 v -34.716797 h -5.71289 v -4.453125 h 17.22657 v 4.453125 h -5.71289 v 34.716797 h 5.71289 z"
     style="font-size:60px;font-family:Exo-ExtraLight;fill:#58595b;fill-opacity:1"
     id="path4304" /><path
     inkscape:connector-curvature="0"
     d="M 341.54297,-38.466797 H 325.95703 V 0 h -5.80078 v -38.466797 h -15.58594 v -5.15625 h 36.97266 z"
     style="font-size:60px;font-family:Exo-ExtraLight;fill:#58595b;fill-opacity:1"
     id="path4306" /><path
     inkscape:connector-curvature="0"
     d="m 378.33984,-43.623047 -15.35156,24.492188 V 0 h -5.80078 v -18.515625 l -15.41016,-25.107422 h 6.41602 l 11.92383,19.511719 12.04101,-19.511719 z"
     style="font-size:60px;font-family:Exo-ExtraLight;fill:#58595b;fill-opacity:1"
     id="path4308" /><path
     inkscape:connector-curvature="0"
     d="m 438.83789,0 h -5.80078 V -21.357422 H 411.26953 V 0 h -5.80078 v -43.623047 h 5.80078 v 17.109375 h 21.76758 v -17.109375 h 5.80078 z"
     style="font-size:60px;font-family:Exo-ExtraLight;fill:#58595b;fill-opacity:1"
     id="path4310" /><path
     inkscape:connector-curvature="0"
     d="m 483.42773,-17.519531 q 0,4.746093 -1.05468,8.2910154 -1.02539,3.515625 -3.39844,5.859375 -2.25586,2.2265625 -5.27344,3.2519531 -3.01758,1.02539063 -7.03125,1.02539063 -4.10156,0 -7.14844,-1.08398438 -3.04687,-1.08398435 -5.12695,-3.19335935 -2.37305,-2.4023438 -3.42773,-5.8007813 -1.02539,-3.3984371 -1.02539,-8.3496091 v -26.103516 h 5.80078 v 26.396485 q 0,3.544921 0.46875,5.595703 0.49804,2.0507809 1.64062,3.7207028 1.28906,1.9042968 3.48633,2.8710937 2.22656,0.9667969 5.33203,0.9667969 3.13477,0 5.33203,-0.9375 2.19727,-0.9667969 3.51563,-2.9003906 1.14258,-1.6699219 1.61133,-3.8085938 0.49804,-2.167969 0.49804,-5.361328 v -26.542969 h 5.80078 z"
     style="font-size:60px;font-family:Exo-ExtraLight;fill:#58595b;fill-opacity:1"
     id="path4312" /><path
     inkscape:connector-curvature="0"
     d="m 527.43164,-13.417969 q 0,3.251953 -1.23047,5.7421878 -1.23047,2.4902343 -3.31055,4.1015624 -2.46093,1.9335938 -5.41992,2.7539063 Q 514.54102,0 510,0 h -15.46875 v -43.623047 h 12.91992 q 4.77539,0 7.14844,0.351563 2.37305,0.351562 4.54101,1.464843 2.40235,1.259766 3.48633,3.251954 1.08399,1.96289 1.08399,4.716796 0,3.105469 -1.58203,5.302735 -1.58204,2.167969 -4.21875,3.486328 v 0.234375 q 4.42382,0.908203 6.97265,3.896484 2.54883,2.958985 2.54883,7.5 z m -9.75586,-19.658203 q 0,-1.582031 -0.52734,-2.666015 -0.52735,-1.083985 -1.69922,-1.757813 -1.37695,-0.791016 -3.33985,-0.966797 -1.96289,-0.205078 -4.86328,-0.205078 h -6.91406 v 12.597656 h 7.5 q 2.72461,0 4.33594,-0.263672 1.61133,-0.292968 2.98828,-1.171875 1.37695,-0.878906 1.93359,-2.255859 0.58594,-1.40625 0.58594,-3.310547 z m 3.7207,19.892578 q 0,-2.636719 -0.79101,-4.189453 -0.79102,-1.552734 -2.8711,-2.636719 -1.40625,-0.732421 -3.42773,-0.9375 -1.99219,-0.234375 -4.86328,-0.234375 h -9.11133 v 16.2304691 h 7.67578 q 3.8086,0 6.24024,-0.3808593 2.43164,-0.4101563 3.98437,-1.4648438 1.64063,-1.1425781 2.40235,-2.6074219 0.76171,-1.4648441 0.76171,-3.7792971 z"
     style="font-size:60px;font-family:Exo-ExtraLight;fill:#58595b;fill-opacity:1"
     id="path4314" /></g></g>
<g
   id="g41">
	<path
   fill="#58595B"
   d="M139.2,58.2c-2.5,0.9-5.7,1.9-9.7,2.8c-4.1,0.9-8.1,1.4-12.1,1.4c-9.3,0-16.6-2.5-21.9-7.6   c-5.3-5.1-7.9-12.1-7.9-21c0-8.5,2.7-15.4,8-20.6c5.3-5.2,12.8-7.8,22.3-7.8c3.6,0,7,0.3,10.3,1c3.3,0.6,6.9,1.9,10.9,3.9v12.8   h-1.6c-0.7-0.5-1.7-1.2-3-2.2s-2.6-1.8-3.8-2.4c-1.4-0.8-3.1-1.5-5-2c-1.9-0.6-3.9-0.9-6.1-0.9c-2.5,0-4.8,0.4-6.8,1.1   c-2,0.7-3.9,1.9-5.5,3.4c-1.6,1.5-2.8,3.4-3.7,5.6c-0.9,2.3-1.3,4.9-1.3,7.8c0,6.1,1.6,10.7,4.8,13.9c3.2,3.2,8,4.8,14.3,4.8   c0.6,0,1.1,0,1.8,0c0.6,0,1.2,0,1.8-0.1V41.4h-10.9V31.1h25.3L139.2,58.2L139.2,58.2z"
   id="path29" />
	<path
   fill="#58595B"
   d="M172.7,57c-0.7,0.6-1.6,1.2-2.7,1.9c-1,0.8-2.1,1.4-3,1.8c-1.3,0.6-2.7,1-4.1,1.3c-1.4,0.3-2.9,0.4-4.6,0.4   c-3.9,0-7.2-1.2-9.9-3.7c-2.7-2.4-4-5.5-4-9.3c0-3,0.7-5.5,2-7.4c1.3-1.9,3.3-3.4,5.7-4.5s5.5-1.9,9.1-2.4c3.6-0.5,7.4-0.8,11.3-1   v-0.2c0-2.3-0.9-3.9-2.8-4.7c-1.9-0.9-4.6-1.3-8.2-1.3c-2.2,0-4.5,0.4-7,1.2c-2.5,0.8-4.3,1.4-5.3,1.8h-1.2v-10   c1.4-0.4,3.7-0.8,6.9-1.3c3.1-0.5,6.3-0.8,9.5-0.8c7.5,0,13,1.2,16.3,3.5s5,5.9,5,10.9v28.1h-13.1L172.7,57L172.7,57z M172.7,50.5   V42c-1.8,0.1-3.7,0.3-5.8,0.6c-2.1,0.3-3.7,0.6-4.7,0.9c-1.3,0.4-2.3,1-3,1.8c-0.7,0.8-1,1.9-1,3.1c0,0.9,0.1,1.6,0.2,2.1   c0.1,0.6,0.5,1,1.1,1.6c0.6,0.5,1.2,0.9,2,1.1c0.8,0.2,2,0.3,3.7,0.3c1.3,0,2.7-0.3,4.1-0.8C170.5,52.1,171.7,51.4,172.7,50.5z"
   id="path31" />
	<path
   fill="#58595B"
   d="M208,61.3h-13.3V4H208V61.3z"
   id="path33" />
	<path
   fill="#58595B"
   d="M242.1,57c-0.7,0.6-1.6,1.2-2.7,1.9c-1,0.8-2.1,1.4-3,1.8c-1.3,0.6-2.7,1-4.1,1.3c-1.4,0.3-2.9,0.4-4.6,0.4   c-3.9,0-7.2-1.2-9.9-3.7c-2.7-2.4-4-5.5-4-9.3c0-3,0.7-5.5,2-7.4c1.3-1.9,3.3-3.4,5.7-4.5c2.5-1.1,5.5-1.9,9.1-2.4   c3.6-0.5,7.4-0.8,11.3-1v-0.2c0-2.3-0.9-3.9-2.8-4.7c-1.9-0.9-4.6-1.3-8.2-1.3c-2.2,0-4.5,0.4-7,1.2c-2.5,0.8-4.3,1.4-5.3,1.8h-1.2   v-10c1.4-0.4,3.7-0.8,6.9-1.3c3.1-0.5,6.3-0.8,9.5-0.8c7.5,0,13,1.2,16.3,3.5c3.4,2.3,5,5.9,5,10.9v28.1h-13.1L242.1,57L242.1,57z    M242.1,50.5V42c-1.8,0.1-3.7,0.3-5.8,0.6c-2.1,0.3-3.7,0.6-4.7,0.9c-1.3,0.4-2.3,1-3,1.8c-0.7,0.8-1,1.9-1,3.1   c0,0.9,0.1,1.6,0.2,2.1c0.1,0.6,0.5,1,1.1,1.6c0.6,0.5,1.2,0.9,2,1.1c0.8,0.2,2,0.3,3.7,0.3c1.3,0,2.7-0.3,4.1-0.8   C239.9,52.1,241.1,51.4,242.1,50.5z"
   id="path35" />
	<path
   fill="#58595B"
   d="M307.3,61.3h-15.5L283,49l-9.1,12.4h-15.2L275,40.7L259,20h15.5l8.7,12.2l8.7-12.2h15.2l-16.1,20.4   L307.3,61.3z"
   id="path37" />
	<path
   fill="#58595B"
   d="M329.8,46.7l9.4-26.7h13.6l-23,56.5h-14.4l6.6-15.5L306,20h13.9L329.8,46.7z"
   id="path39" />
</g>
</svg>