<svg id="Layer_1" xmlns="http://www.w3.org/2000/svg" viewBox="0 0 609.7 95.1" width="2500" height="390"><style>.st0{fill:#0578be}.st1{fill:#247f3f}.st2{fill:#4c4b46}</style><path class="st0" d="M73.7 28.4v16.3h14.4c3.9 0 7-3.1 7-7V7c0-3.9-3.1-7-7-7H57.4c-3.9 0-7 3.1-7 7v14.4h16.3c3.9 0 7 3.1 7 7zm-52.3 0v16.3H7c-3.9 0-7-3.1-7-7V7c0-3.9 3.1-7 7-7h30.8c3.9 0 7 3.1 7 7v14.4H28.4c-3.9 0-7 3.1-7 7z"/><path class="st1" d="M21.4 66.8V50.4H7c-3.9 0-7 3.1-7 7v30.8c0 3.9 3.1 7 7 7h30.8c3.9 0 7-3.1 7-7V73.7H28.4c-3.9 0-7-3.1-7-6.9zm52.3 0V50.4h14.4c3.9 0 7 3.1 7 7v30.8c0 3.9-3.1 7-7 7H57.4c-3.9 0-7-3.1-7-7V73.7h16.3c3.9 0 7-3.1 7-6.9z"/><path class="st2" d="M261.2 71.9v-.3M157.8 57.2c-1.6 10.8-8.8 17.3-19.7 17.3-14.9 0-21.6-13.8-21.6-26.9 0-13.2 6.7-27 21.6-27 10.8 0 17.9 6.2 19.7 17.3l-10 1.3c-1-5.4-3.4-10.4-9.7-10.4-9 0-10.8 12-10.8 18.7 0 6.7 1.8 18.7 10.8 18.7 6.3 0 8.7-4.9 9.8-10.3l9.9 1.3zm6.1-35.8h10v52.3h-10V21.4zM203.1 51c0-4.2-1.7-8.4-6.4-8.4-4.5 0-6.3 4.4-6.5 8.4h12.9zm-13.3 6.2c-.3 4.6 2.3 9.9 7.4 9.9 3.2 0 5.2-2.1 6.3-5.5l9.3 1.1c-2.1 7.5-9.3 11.7-16.5 11.7-11 0-16.5-9.7-16.5-19.6 0-10 5.5-19.6 16.5-19.6 9.5 0 16.7 4.5 16.5 22h-23zm84-6.2c0-4.2-1.7-8.4-6.5-8.4-4.5 0-6.3 4.4-6.5 8.4h13zm-13.2 6.2c-.3 4.6 2.3 9.9 7.4 9.9 3.2 0 5.2-2.1 6.3-5.5l9.3 1.1c-2.1 7.5-9.3 11.7-16.5 11.7-11 0-16.5-9.7-16.5-19.6 0-10 5.5-19.6 16.5-19.6 9.5 0 16.7 4.5 16.5 22h-23zm-23.1 16.5H227l-11.7-37.6h10.4l6.6 27.8h.1l6.5-27.8h10m41.4-14.7h10v52.3h-10V21.4zm37.8 35.1c-4.1.7-12.2 1.1-12.2 6.7 0 2.2 1.1 4 3.4 4 4.1 0 6.9-2.4 8.8-4.9v-5.8zm.6 13.7c-3.7 2.6-6 4.3-10.7 4.3-6.5 0-11.8-4.4-11.8-11.1 0-10.6 14-12.8 22-13.6.7-5.2-1.1-7.1-4.8-7.1-3.2 0-5.4 1.4-6 4.7l-9.5-1.5c2.2-8 7.6-10.6 15.5-10.6 10.1 0 14.8 4.8 14.8 11.9v18.7c0 2.7.1 5.4 1.3 7.9h-9.6c-.9-1.8-1.2-3.6-1.2-3.6zM356 40c3.2-2.6 7.1-4.7 11.2-4.7s9.9 2.5 9.9 11.8v26.7h-10V51.1c0-3 .2-7.8-4.1-7.8-2.9 0-5.2 2.1-7.1 4.1v26.4h-10V36.1h10l.1 3.9zm123.8 17.2c-1.6 10.8-8.8 17.3-19.7 17.3-14.9 0-21.6-13.8-21.6-26.9 0-13.2 6.6-27 21.6-27 10.8 0 17.9 6.2 19.7 17.3l-9.9 1.3c-1-5.4-3.4-10.4-9.7-10.4-9 0-10.8 12-10.8 18.7 0 6.7 1.8 18.7 10.8 18.7 6.3 0 8.7-4.9 9.7-10.3l9.9 1.3zm6-35.8h9.9v52.3h-9.9V21.4zM514 73.7h-10V36.1h10v37.6zm0-43.1h-10v-9.1h10v9.1zm18.1 9.4c3.2-2.6 7.1-4.7 11.2-4.7s9.9 2.5 9.9 11.8v26.7h-10V51.1c0-3 .2-7.8-4.1-7.8-2.9 0-5.2 2.1-7.1 4.1v26.4h-9.9V36.1h9.9l.1 3.9zm39.3 33.7h-10V36.1h10v37.6zm0-43.1h-10v-9.1h10v9.1zm38.3 30.9c-1.6 7.9-7.3 13-15.7 13-11 0-16.5-9.7-16.5-19.6 0-10 5.5-19.6 16.5-19.6 8.4 0 14.1 5.1 15.7 13l-9 1.2c-.7-3-1.7-6.9-6.7-6.9-5.4 0-6.3 7.6-6.3 12.3 0 4.7.9 12.3 6.3 12.3 5 0 5.8-3.4 6.7-6.8l9 1.1zm-202.6.3c-1.5 2.3-3.5 4.3-6.4 4.3-6 0-6.9-7.3-6.9-11.8 0-4.2 1.1-11.2 6.7-11.2 2.9 0 4.9 2 6.6 4.1v14.6zM417 67V21.4h-10v18.3c-2.8-2.5-5.2-4.5-9.3-4.5-5.3.1-13.7 4.8-13.7 18.8 0 15.9 7 20.6 14.6 20.6 4.2 0 6.4-1.4 9.4-4.1 0 0 .3 1.8 1.1 3.3h9.2c-1-2.2-1.2-4.5-1.3-6.8z"/></svg>