<?xml version="1.0" encoding="UTF-8"?>
<!-- Generator: Adobe Illustrator 16.0.4, SVG Export Plug-In . SVG Version: 6.00 Build 0)  -->
<!DOCTYPE svg PUBLIC "-//W3C//DTD SVG 1.1//EN" "http://www.w3.org/Graphics/SVG/1.1/DTD/svg11.dtd">
<svg version="1.1" id="Ebene_1" xmlns="http://www.w3.org/2000/svg" xmlns:xlink="http://www.w3.org/1999/xlink" x="0px" y="0px" width="170.08px" height="85.04px" viewBox="0 0 170.08 85.04" enable-background="new 0 0 170.08 85.04" xml:space="preserve">
<g>
	<defs>
		<rect id="SVGID_1_" x="14" y="28.687" width="141.732" height="27.354"/>
	</defs>
	<clipPath id="SVGID_2_">
		<use xlink:href="#SVGID_1_" overflow="visible"/>
	</clipPath>
	<path clip-path="url(#SVGID_2_)" fill="#00608E" d="M149.685,55.854v-4.794l-0.211-1.442h0.07l0.718,1.442l3.454,4.857h1.308   v-9.254h-1.705v4.832l0.211,1.404h-0.063l-0.696-1.406l-3.472-4.894h-1.318v9.254H149.685z M141.133,48.202   c0.099-0.026,0.237-0.043,0.418-0.051c0.18-0.009,0.361-0.014,0.546-0.014c0.476,0,0.836,0.111,1.08,0.333   c0.244,0.223,0.366,0.53,0.366,0.924c0,0.525-0.149,0.902-0.447,1.131c-0.297,0.229-0.697,0.343-1.198,0.343h-0.765V48.202z    M141.133,55.854v-3.769l0.976,0.209l2.069,3.56h2.069l-2.083-3.47l-0.659-0.439c0.527-0.185,0.95-0.513,1.268-0.987   c0.316-0.474,0.475-1.088,0.475-1.84c0-0.504-0.093-0.924-0.279-1.262c-0.187-0.337-0.436-0.603-0.747-0.795   s-0.665-0.328-1.06-0.407s-0.795-0.118-1.199-0.118c-0.178,0-0.371,0.004-0.582,0.013s-0.428,0.021-0.65,0.038   c-0.223,0.018-0.447,0.042-0.673,0.074s-0.435,0.065-0.628,0.099v9.095H141.133z M137.563,55.854v-1.603h-3.806v-2.243h3.415   v-1.602h-3.415v-2.141h3.741v-1.603h-5.446v9.19H137.563z M125.855,48.267v7.588h1.705v-7.588h2.775v-1.603h-7.262v1.603H125.855z    M118.426,56.014c0.479,0,0.921-0.065,1.325-0.197c0.403-0.133,0.745-0.339,1.025-0.619s0.498-0.634,0.655-1.064   c0.156-0.429,0.233-0.94,0.233-1.535v-5.934h-1.704v5.806c0,0.681-0.123,1.174-0.369,1.481c-0.247,0.307-0.646,0.461-1.198,0.461   c-0.278,0-0.522-0.033-0.732-0.099c-0.21-0.066-0.385-0.178-0.525-0.33c-0.143-0.154-0.246-0.355-0.312-0.604   c-0.065-0.247-0.099-0.551-0.099-0.91v-5.806h-1.705v6.159C115.02,54.95,116.154,56.014,118.426,56.014 M109.557,50.343   l0.274-1.455h0.064l0.282,1.442l0.68,2.044h-1.974L109.557,50.343z M107.732,55.854l0.621-1.878h3.023l0.608,1.878h1.704   l-3.306-9.254h-1.287l-3.161,9.254H107.732z M104.876,55.854v-1.603h-4.108v-7.588h-1.705v9.19H104.876z M92.211,55.854   c0.485,0.124,1.047,0.187,1.683,0.187c0.481,0,0.926-0.058,1.331-0.174c0.404-0.117,0.75-0.293,1.035-0.53   c0.285-0.236,0.506-0.534,0.664-0.891c0.158-0.357,0.236-0.784,0.236-1.279c0-0.477-0.091-0.876-0.273-1.198   c-0.182-0.321-0.411-0.592-0.689-0.81c-0.277-0.217-0.595-0.409-0.955-0.573c-0.359-0.165-0.695-0.318-1.009-0.462   c-0.313-0.143-0.586-0.302-0.819-0.475c-0.232-0.174-0.35-0.39-0.35-0.648c0-0.279,0.111-0.501,0.335-0.666   c0.222-0.165,0.544-0.247,0.964-0.247c0.438,0,0.844,0.049,1.219,0.148s0.656,0.21,0.844,0.332l0.533-1.529   c-0.293-0.18-0.67-0.317-1.129-0.412c-0.461-0.094-0.949-0.141-1.467-0.141c-0.447,0-0.854,0.052-1.219,0.158   c-0.365,0.105-0.682,0.269-0.948,0.489s-0.474,0.497-0.618,0.83c-0.146,0.333-0.218,0.725-0.218,1.174   c0,0.511,0.103,0.931,0.308,1.26s0.463,0.603,0.775,0.821c0.312,0.221,0.648,0.409,1.008,0.569c0.36,0.16,0.696,0.309,1.01,0.448   c0.312,0.139,0.557,0.293,0.731,0.463s0.263,0.394,0.263,0.67c0,0.361-0.143,0.629-0.427,0.806s-0.694,0.265-1.231,0.265   c-0.219,0-0.43-0.018-0.637-0.052c-0.207-0.033-0.402-0.076-0.588-0.13c-0.186-0.052-0.353-0.108-0.501-0.17   c-0.149-0.061-0.271-0.117-0.364-0.168l-0.578,1.557C91.364,55.603,91.725,55.729,92.211,55.854 M84.737,48.202   c0.099-0.026,0.238-0.043,0.418-0.051c0.18-0.009,0.362-0.014,0.546-0.014c0.474,0,0.835,0.111,1.079,0.333   c0.245,0.223,0.367,0.53,0.367,0.924c0,0.525-0.149,0.902-0.446,1.131c-0.299,0.229-0.697,0.343-1.199,0.343h-0.765V48.202z    M84.737,55.854v-3.769l0.976,0.209l2.068,3.56h2.07l-2.082-3.47l-0.661-0.439c0.529-0.185,0.952-0.513,1.269-0.987   c0.316-0.474,0.475-1.088,0.475-1.84c0-0.504-0.094-0.924-0.279-1.262c-0.186-0.337-0.435-0.603-0.746-0.795   c-0.312-0.192-0.666-0.328-1.061-0.407s-0.794-0.118-1.199-0.118c-0.178,0-0.372,0.004-0.582,0.013   c-0.211,0.009-0.428,0.021-0.651,0.038c-0.223,0.018-0.447,0.042-0.672,0.074s-0.435,0.065-0.629,0.099v9.095H84.737z    M80.905,55.854v-1.603H77.1v-2.243h3.415v-1.602H77.1v-2.141h3.742v-1.603h-5.447v9.19H80.905z M68.279,55.854   c0.486,0.124,1.047,0.187,1.683,0.187c0.482,0,0.926-0.058,1.331-0.174c0.405-0.117,0.75-0.293,1.035-0.53   c0.284-0.236,0.506-0.534,0.664-0.891c0.158-0.357,0.237-0.784,0.237-1.279c0-0.477-0.092-0.876-0.274-1.198   c-0.182-0.321-0.412-0.592-0.689-0.81c-0.277-0.217-0.595-0.409-0.955-0.573c-0.359-0.165-0.696-0.318-1.009-0.462   c-0.313-0.143-0.586-0.302-0.819-0.475c-0.233-0.174-0.35-0.39-0.35-0.648c0-0.279,0.112-0.501,0.335-0.666   c0.222-0.165,0.544-0.247,0.963-0.247c0.438,0,0.844,0.049,1.22,0.148c0.375,0.1,0.656,0.21,0.843,0.332l0.534-1.529   c-0.294-0.18-0.671-0.317-1.13-0.412c-0.46-0.094-0.949-0.141-1.467-0.141c-0.447,0-0.853,0.052-1.218,0.158   c-0.365,0.105-0.681,0.269-0.948,0.489c-0.268,0.221-0.474,0.497-0.619,0.83s-0.217,0.725-0.217,1.174   c0,0.511,0.102,0.931,0.307,1.26c0.205,0.329,0.464,0.603,0.776,0.821c0.312,0.221,0.648,0.409,1.008,0.569   s0.696,0.309,1.009,0.448c0.313,0.139,0.557,0.293,0.732,0.463c0.175,0.17,0.263,0.394,0.263,0.67c0,0.361-0.143,0.629-0.428,0.806   c-0.284,0.177-0.695,0.265-1.23,0.265c-0.219,0-0.431-0.018-0.637-0.052c-0.207-0.033-0.403-0.076-0.588-0.13   c-0.186-0.052-0.353-0.108-0.501-0.17c-0.149-0.061-0.271-0.117-0.366-0.168l-0.576,1.557   C67.434,55.603,67.793,55.729,68.279,55.854 M65.415,46.664h-1.705v9.19h1.705V46.664z M57.759,50.343l0.276-1.455H58.1   l0.282,1.442l0.679,2.044h-1.973L57.759,50.343z M55.936,55.854l0.621-1.878h3.023l0.609,1.878h1.705l-3.307-9.254H57.3   l-3.162,9.254H55.936z M47.711,55.854v-3.886h0.511l2.687,3.886h2.217l-3.029-4.28l-0.768-0.517l0.713-0.497l2.681-3.896h-2.051   l-2.537,3.89l-0.424,0.18v-4.069h-1.705v9.19H47.711z"/>
	<path clip-path="url(#SVGID_2_)" fill="#BC261A" d="M152.488,37.688v5.494h1.234v-5.494h2.01v-1.16h-5.258v1.16H152.488z    M148.355,35.982c0.114,0.103,0.295,0.154,0.543,0.154c0.253,0,0.438-0.052,0.55-0.154c0.113-0.104,0.17-0.243,0.17-0.418   c0-0.178-0.057-0.32-0.17-0.428c-0.112-0.106-0.297-0.16-0.55-0.16c-0.248,0-0.429,0.055-0.543,0.163   c-0.115,0.108-0.172,0.25-0.172,0.425S148.24,35.878,148.355,35.982 M146.322,35.982c0.115,0.103,0.3,0.154,0.553,0.154   c0.245,0,0.424-0.052,0.539-0.154c0.113-0.104,0.171-0.243,0.171-0.418c0-0.178-0.057-0.32-0.169-0.428   c-0.113-0.106-0.293-0.16-0.541-0.16c-0.253,0-0.438,0.055-0.553,0.163c-0.113,0.108-0.172,0.25-0.172,0.425   S146.209,35.878,146.322,35.982 M147.595,39.191l0.199-1.055h0.047l0.204,1.044l0.492,1.481h-1.43L147.595,39.191z M146.273,43.182   l0.45-1.359h2.189l0.44,1.359h1.234l-2.395-6.701h-0.932l-2.289,6.701H146.273z M141.912,37.688v5.494h1.233v-5.494h2.01v-1.16   h-5.258v1.16H141.912z M139.047,36.527h-1.234v6.654h1.234V36.527z M133.049,43.181c0.352,0.091,0.758,0.136,1.219,0.136   c0.35,0,0.67-0.042,0.964-0.126c0.293-0.084,0.543-0.212,0.749-0.384s0.366-0.387,0.48-0.646c0.115-0.258,0.172-0.567,0.172-0.926   c0-0.346-0.066-0.635-0.198-0.868s-0.298-0.428-0.499-0.586c-0.2-0.157-0.431-0.296-0.69-0.415   c-0.262-0.119-0.505-0.231-0.731-0.334c-0.227-0.104-0.425-0.219-0.593-0.345c-0.169-0.125-0.253-0.281-0.253-0.469   c0-0.202,0.08-0.362,0.242-0.482c0.16-0.119,0.394-0.18,0.697-0.18c0.316,0,0.611,0.036,0.882,0.108   c0.272,0.072,0.477,0.152,0.611,0.24l0.387-1.107c-0.213-0.131-0.485-0.229-0.818-0.298c-0.333-0.069-0.688-0.103-1.062-0.103   c-0.325,0-0.619,0.037-0.883,0.114s-0.493,0.195-0.686,0.354c-0.194,0.16-0.344,0.359-0.448,0.602   c-0.105,0.241-0.158,0.524-0.158,0.85c0,0.37,0.074,0.674,0.223,0.912s0.337,0.437,0.562,0.596c0.226,0.159,0.47,0.296,0.729,0.412   c0.262,0.114,0.506,0.224,0.731,0.324c0.227,0.101,0.404,0.213,0.53,0.336c0.127,0.123,0.19,0.283,0.19,0.484   c0,0.261-0.104,0.455-0.31,0.583c-0.206,0.127-0.503,0.191-0.892,0.191c-0.157,0-0.312-0.013-0.461-0.037s-0.292-0.055-0.426-0.093   c-0.135-0.039-0.256-0.08-0.363-0.124s-0.195-0.085-0.264-0.122l-0.418,1.127C132.436,42.999,132.696,43.09,133.049,43.181    M128.064,37.641c0.071-0.019,0.172-0.03,0.304-0.037c0.13-0.007,0.262-0.01,0.395-0.01c0.344,0,0.605,0.081,0.782,0.241   c0.177,0.161,0.265,0.384,0.265,0.669c0,0.38-0.107,0.653-0.323,0.819c-0.216,0.165-0.505,0.248-0.867,0.248h-0.555V37.641z    M128.064,43.182v-2.729l0.707,0.151l1.497,2.577h1.499l-1.507-2.512l-0.479-0.319c0.384-0.133,0.689-0.37,0.92-0.715   c0.229-0.343,0.343-0.787,0.343-1.332c0-0.364-0.067-0.67-0.202-0.914c-0.135-0.243-0.315-0.436-0.541-0.574   c-0.227-0.141-0.481-0.238-0.767-0.295c-0.286-0.058-0.576-0.087-0.869-0.087c-0.128,0-0.27,0.004-0.421,0.01   c-0.153,0.007-0.311,0.016-0.472,0.027c-0.162,0.014-0.324,0.03-0.486,0.054c-0.163,0.023-0.315,0.048-0.455,0.071v6.586H128.064z    M125.812,43.182v-1.16h-2.756v-1.624h2.473v-1.16h-2.473v-1.55h2.71v-1.16h-3.945v6.654H125.812z M117.774,43.229h0.929   l2.453-6.701h-1.233l-1.272,3.897l-0.189,1.143h-0.046l-0.172-1.134l-1.336-3.906h-1.505L117.774,43.229z M114.673,36.527h-1.234   v6.654h1.234V36.527z M108.249,43.182V39.71l-0.153-1.044h0.051l0.521,1.044l2.501,3.519h0.946v-6.701h-1.234v3.499l0.152,1.016   h-0.046l-0.504-1.017l-2.514-3.545h-0.954v6.701H108.249z M103.446,43.298c0.348,0,0.667-0.048,0.96-0.144   c0.292-0.097,0.54-0.245,0.743-0.448s0.361-0.459,0.475-0.77c0.112-0.312,0.169-0.683,0.169-1.112v-4.297h-1.234v4.204   c0,0.491-0.09,0.85-0.268,1.071c-0.179,0.224-0.468,0.335-0.867,0.335c-0.201,0-0.378-0.023-0.53-0.071   c-0.151-0.049-0.279-0.128-0.381-0.239c-0.103-0.112-0.178-0.257-0.226-0.438c-0.049-0.179-0.072-0.398-0.072-0.658v-4.204h-1.234   v4.46C100.98,42.527,101.803,43.298,103.446,43.298 M97.539,43.182v-1.16h-2.756v-1.624h2.473v-1.16h-2.473v-1.55h2.709v-1.16   h-3.943v6.654H97.539z M88.549,43.182v-2.784h2.441v2.784h1.234v-6.654H90.99v2.71h-2.441v-2.71h-1.234v6.654H88.549z    M81.967,41.46c0.145,0.44,0.34,0.798,0.586,1.073c0.245,0.274,0.546,0.474,0.903,0.598c0.357,0.123,0.734,0.186,1.134,0.186   c0.327,0,0.649-0.031,0.963-0.095c0.314-0.062,0.572-0.167,0.777-0.311l-0.27-1.062c-0.146,0.091-0.317,0.164-0.513,0.222   c-0.197,0.057-0.437,0.086-0.722,0.086c-0.303,0-0.571-0.057-0.803-0.167c-0.232-0.112-0.425-0.269-0.58-0.468   c-0.154-0.2-0.27-0.441-0.345-0.724c-0.076-0.282-0.114-0.595-0.114-0.938c0-0.788,0.16-1.368,0.48-1.742   c0.32-0.373,0.743-0.561,1.269-0.561c0.285,0,0.527,0.017,0.727,0.048c0.199,0.03,0.372,0.082,0.517,0.152l0.256-1.104   c-0.171-0.071-0.387-0.131-0.65-0.182c-0.263-0.049-0.585-0.073-0.966-0.073c-0.355,0-0.71,0.059-1.065,0.177   c-0.354,0.117-0.661,0.311-0.922,0.58c-0.261,0.27-0.473,0.625-0.636,1.064s-0.245,0.986-0.245,1.641   C81.749,40.486,81.822,41.021,81.967,41.46 M77.329,43.181c0.352,0.091,0.758,0.136,1.219,0.136c0.349,0,0.67-0.042,0.963-0.126   c0.294-0.084,0.544-0.212,0.75-0.384s0.366-0.387,0.48-0.646c0.115-0.258,0.172-0.567,0.172-0.926c0-0.346-0.066-0.635-0.198-0.868   c-0.132-0.233-0.298-0.428-0.499-0.586c-0.2-0.157-0.431-0.296-0.691-0.415c-0.261-0.119-0.505-0.231-0.731-0.334   c-0.227-0.104-0.425-0.219-0.593-0.345c-0.169-0.125-0.253-0.281-0.253-0.469c0-0.202,0.08-0.362,0.242-0.482   c0.161-0.119,0.393-0.18,0.698-0.18c0.316,0,0.611,0.036,0.882,0.108c0.272,0.072,0.476,0.152,0.611,0.24l0.387-1.107   c-0.213-0.131-0.486-0.229-0.819-0.298c-0.333-0.069-0.687-0.103-1.061-0.103c-0.325,0-0.619,0.037-0.883,0.114   c-0.264,0.077-0.493,0.195-0.686,0.354c-0.194,0.16-0.343,0.359-0.448,0.602c-0.105,0.241-0.158,0.524-0.158,0.85   c0,0.37,0.074,0.674,0.223,0.912c0.148,0.238,0.336,0.437,0.561,0.596c0.226,0.159,0.469,0.296,0.73,0.412   c0.261,0.114,0.505,0.224,0.731,0.324c0.227,0.101,0.404,0.213,0.53,0.336c0.127,0.123,0.191,0.283,0.191,0.484   c0,0.261-0.104,0.455-0.31,0.583c-0.206,0.127-0.503,0.191-0.891,0.191c-0.158,0-0.312-0.013-0.462-0.037   c-0.149-0.024-0.291-0.055-0.425-0.093c-0.135-0.039-0.256-0.08-0.363-0.124c-0.108-0.044-0.196-0.085-0.265-0.122l-0.417,1.127   C76.716,42.999,76.977,43.09,77.329,43.181 M75.491,36.527h-1.234v6.654h1.234V36.527z M69.068,43.182V39.71l-0.154-1.044h0.051   l0.52,1.044l2.502,3.519h0.946v-6.701h-1.234v3.499l0.152,1.016h-0.046l-0.504-1.017l-2.514-3.545h-0.954v6.701H69.068z    M62.833,43.182v-2.784h2.441v2.784h1.234v-6.654h-1.234v2.71h-2.441v-2.71h-1.235v6.654H62.833z M56.251,41.46   c0.145,0.44,0.34,0.798,0.585,1.073c0.246,0.274,0.547,0.474,0.904,0.598c0.356,0.123,0.734,0.186,1.133,0.186   c0.328,0,0.649-0.031,0.963-0.095c0.314-0.062,0.573-0.167,0.777-0.311l-0.269-1.062c-0.145,0.091-0.316,0.164-0.513,0.222   c-0.196,0.057-0.437,0.086-0.721,0.086c-0.303,0-0.571-0.057-0.803-0.167c-0.232-0.112-0.425-0.269-0.58-0.468   c-0.155-0.2-0.27-0.441-0.346-0.724c-0.076-0.282-0.114-0.595-0.114-0.938c0-0.788,0.161-1.368,0.481-1.742   c0.32-0.373,0.743-0.561,1.269-0.561c0.285,0,0.527,0.017,0.726,0.048c0.2,0.03,0.372,0.082,0.518,0.152l0.255-1.104   c-0.17-0.071-0.387-0.131-0.65-0.182c-0.263-0.049-0.584-0.073-0.965-0.073c-0.356,0-0.711,0.059-1.065,0.177   c-0.354,0.117-0.662,0.311-0.922,0.58c-0.261,0.27-0.473,0.625-0.636,1.064s-0.245,0.986-0.245,1.641   C56.034,40.486,56.107,41.021,56.251,41.46 M55.225,43.182v-1.16h-2.756v-1.624h2.473v-1.16h-2.473v-1.55h2.71v-1.16h-3.945v6.654   H55.225z M47.27,37.688v5.494h1.234v-5.494h2.01v-1.16h-5.258v1.16H47.27z"/>
</g>
<polygon fill="#00608E" points="27.541,28.687 16.897,32.028 16.897,35.322 38.297,35.322 38.3,31.85 "/>
<polygon fill="#00608E" points="19.679,36.576 14,55.883 18.301,55.883 23.993,36.576 "/>
<rect x="31.481" y="36.567" fill="#00608E" width="4.766" height="4.589"/>
<rect x="31.482" y="43.93" fill="#BC261A" width="4.766" height="4.589"/>
<rect x="31.481" y="51.293" fill="#00608E" width="4.766" height="4.589"/>
</svg>