<svg width="299.882" height="134.946" fill="none" xmlns="http://www.w3.org/2000/svg"><path d="M11.954 37.763v-.377c0-13.843 4.33-23.166 10.918-29.099C29.367 2.448 38.215 0 47.44 0c3.577 0 8.471.377 13.272 1.036 4.706.66 9.318 1.507 12.519 2.543L69.465 23.73a52.494 52.494 0 00-9.319-2.166c-3.483-.47-7.06-.847-10.071-.847-6.59 0-10.542 1.695-12.99 4.614-2.447 2.92-3.2 7.251-3.482 12.43h19.766V58.48H33.51v74.772H11.954V58.386H0V37.669h11.954z" fill="#2b398d"/><path d="M134.412 72.89l-18.166 60.363H92.62l-32.096-95.49h23.343l20.708 62.342h.47l18.825-62.342h21.273l18.73 62.342h.565l20.708-62.342h23.343l-32.097 95.49h-23.625zM206.32 85.789c0-14.22 4.895-26.65 13.272-35.597 8.378-8.946 20.144-14.314 33.98-14.314 13.93 0 25.508 5.462 33.603 14.314 8.094 8.852 12.707 21.189 12.707 35.032 0 14.031-4.801 26.556-13.084 35.408-8.283 8.946-20.143 14.314-34.073 14.314s-25.508-5.462-33.603-14.22c-8.189-8.757-12.801-21.188-12.801-34.937zm22.026-.848c0 8.005 2.071 15.256 6.212 20.624 4.142 5.367 10.542 8.758 19.108 8.758 8.095 0 14.119-3.014 18.166-8.1 4.048-5.084 5.93-12.147 5.93-20.34 0-8.099-1.977-15.444-5.93-20.812-4.141-5.367-10.26-8.57-18.73-8.57-8.19 0-14.402 3.014-18.544 8.1-4.14 5.179-6.212 12.336-6.212 20.34z" fill="#2b398d"/></svg>
