<?xml version="1.0" encoding="UTF-8" standalone="no"?>
<svg
   xmlns:dc="http://purl.org/dc/elements/1.1/"
   xmlns:cc="http://creativecommons.org/ns#"
   xmlns:rdf="http://www.w3.org/1999/02/22-rdf-syntax-ns#"
   xmlns:svg="http://www.w3.org/2000/svg"
   xmlns="http://www.w3.org/2000/svg"
   viewBox="0 0 73.268136 63.69533"
   height="63.695332"
   width="73.268135"
   xml:space="preserve"
   id="svg2"
   version="1.1"><metadata
     id="metadata8"><rdf:RDF><cc:Work
         rdf:about=""><dc:format>image/svg+xml</dc:format><dc:type
           rdf:resource="http://purl.org/dc/dcmitype/StillImage" /><dc:title></dc:title></cc:Work></rdf:RDF></metadata><defs
     id="defs6" /><g
     transform="matrix(1.3333333,0,0,-1.3333333,-27.984933,91.824531)"
     id="g10"><g
       transform="scale(0.1)"
       id="g12"><path
         id="path14"
         style="fill:#1e64c8;fill-opacity:1;fill-rule:nonzero;stroke:none"
         d="M 325.133,605.922 H 312.66 v -80.957 h 12.473 v 80.957" /><path
         id="path16"
         style="fill:#1e64c8;fill-opacity:1;fill-rule:nonzero;stroke:none"
         d="m 300.191,605.922 h -12.472 v -80.957 h 12.472 v 80.957" /><path
         id="path18"
         style="fill:#1e64c8;fill-opacity:1;fill-rule:nonzero;stroke:none"
         d="m 275.25,605.922 h -12.473 v -80.957 h 12.473 v 80.957" /><path
         id="path20"
         style="fill:#1e64c8;fill-opacity:1;fill-rule:nonzero;stroke:none"
         d="m 250.309,605.922 h -12.473 v -80.957 h 12.473 v 80.957" /><path
         id="path22"
         style="fill:#1e64c8;fill-opacity:1;fill-rule:nonzero;stroke:none"
         d="m 350.074,605.922 h -12.472 v -80.957 h 12.472 v 80.957" /><path
         id="path24"
         style="fill:#1e64c8;fill-opacity:1;fill-rule:nonzero;stroke:none"
         d="m 375.016,605.922 h -12.473 v -80.957 h 12.473 v 80.957" /><path
         id="path26"
         style="fill:#1e64c8;fill-opacity:1;fill-rule:nonzero;stroke:none"
         d="m 399.957,605.922 h -12.473 v -80.957 h 12.473 v 80.957" /><path
         id="path28"
         style="fill:#1e64c8;fill-opacity:1;fill-rule:nonzero;stroke:none"
         d="M 412.727,500.016 H 225.066 v 12.48 h 187.661 v -12.48" /><path
         id="path30"
         style="fill:#1e64c8;fill-opacity:1;fill-rule:nonzero;stroke:none"
         d="M 399.957,618.395 H 237.836 l -12.469,12.468 h 187.059 l -12.469,-12.468" /><path
         id="path32"
         style="fill:#1e64c8;fill-opacity:1;fill-rule:nonzero;stroke:none"
         d="M 425.195,475.074 H 212.598 v 12.481 h 212.597 v -12.481" /><path
         id="path34"
         style="fill:#1e64c8;fill-opacity:1;fill-rule:nonzero;stroke:none"
         d="m 425.195,651.035 -106.3,37.649 -106.297,-37.649 v -13.242 l 106.297,37.641 106.3,-37.641 v 13.242" /><path
         id="path36"
         style="fill:#1e64c8;fill-opacity:1;fill-rule:nonzero;stroke:none"
         d="m 315.801,377.043 h -26.86 v -40.02 h -12.48 v 88.172 h 12.48 v -37.578 h 26.86 v 37.578 h 12.48 v -88.172 h -12.48 v 40.02" /><path
         id="path38"
         style="fill:#1e64c8;fill-opacity:1;fill-rule:nonzero;stroke:none"
         d="m 589.086,291.73 c 5.508,0.016 10.703,-1.789 13.086,-3.664 v 11.243 c -2.383,1.464 -8.242,3.093 -14.18,3.093 -16.551,0 -25.664,-9.414 -25.664,-23.066 0,-11.387 4.824,-16.856 12.59,-23.555 l 7.098,-6.133 c 5.859,-4.902 9.492,-8.679 9.492,-16.015 0,-8.574 -5.664,-11.973 -14.168,-11.973 -6.445,0 -11.797,1.789 -14.883,3.918 v -11.437 c 2.715,-1.563 8.367,-3.172 15.996,-3.153 16.512,0.039 25.625,9.422 25.645,23.067 0.011,11.375 -4.825,16.855 -12.59,23.543 l -7.09,6.144 c -5.879,5.028 -9.52,8.66 -9.5,15.985 0.023,8.613 5.645,11.984 14.168,12.003" /><path
         id="path40"
         style="fill:#1e64c8;fill-opacity:1;fill-rule:nonzero;stroke:none"
         d="m 512.457,290.195 v -31.074 h 6.648 c 9.766,0 16.282,2.051 16.282,15.606 0,13.437 -6.516,15.468 -16.282,15.468 z m -12.48,10.586 h 20.351 c 16.277,0 27.938,-6.113 27.938,-26.054 0,-13.965 -6.778,-20.743 -15.321,-23.868 l 18.719,-38.261 h -14.246 l -16.555,35.957 h -8.406 v -35.957 h -12.48 v 88.183" /><path
         id="path42"
         style="fill:#1e64c8;fill-opacity:1;fill-rule:nonzero;stroke:none"
         d="m 212.598,239.191 v 61.582 h 12.48 v -62.128 c 0,-13.028 4.477,-16.817 13.567,-16.817 9.089,0 13.562,3.789 13.562,16.817 v 62.128 h 12.481 v -61.582 c 0,-20.078 -8.411,-28.222 -26.043,-28.222 -17.907,0 -26.047,7.871 -26.047,28.222" /><path
         id="path44"
         style="fill:#1e64c8;fill-opacity:1;fill-rule:nonzero;stroke:none"
         d="m 280.828,300.773 h 14.383 l 27.809,-70.265 c -0.95,7.187 -1.766,15.597 -1.766,23.469 v 46.796 h 11.937 v -88.175 h -14.378 l -28.083,70.539 c 1.086,-7.188 2.04,-15.735 2.04,-23.742 v -46.797 h -11.942 v 88.175" /><path
         id="path46"
         style="fill:#1e64c8;fill-opacity:1;fill-rule:nonzero;stroke:none"
         d="m 350.859,300.773 h 12.481 v -88.175 h -12.481 v 88.175" /><path
         id="path48"
         style="fill:#1e64c8;fill-opacity:1;fill-rule:nonzero;stroke:none"
         d="m 374.938,300.773 h 13.023 l 11.121,-45.851 c 1.633,-6.926 3.66,-18.582 4.883,-27.813 1.223,9.231 3.258,20.887 5.156,27.813 l 10.984,45.851 h 12.622 L 410.344,212.598 H 397.32 l -22.382,88.175" /><path
         id="path50"
         style="fill:#1e64c8;fill-opacity:1;fill-rule:nonzero;stroke:none"
         d="m 444.32,300.773 h 41.243 V 290.188 H 456.801 V 263.195 H 480 v -10.441 h -23.199 v -29.578 h 28.762 V 212.598 H 444.32 v 88.175" /><path
         id="path52"
         style="fill:#1e64c8;fill-opacity:1;fill-rule:nonzero;stroke:none"
         d="m 618.906,300.773 h 12.481 v -88.175 h -12.481 v 88.175" /><path
         id="path54"
         style="fill:#1e64c8;fill-opacity:1;fill-rule:nonzero;stroke:none"
         d="m 209.887,381.105 c 0,34.723 9.222,45.723 32.148,45.723 6.512,0 13.43,-1.769 16.41,-3.535 V 411.77 c -3.25,1.89 -9.492,3.933 -15.461,3.933 -14.648,0 -20.211,-5.43 -20.211,-34.598 0,-28.886 3.938,-34.855 16.684,-34.855 3.938,0 7.188,0.535 9.629,1.223 v 29.433 h -13.023 v 10.574 h 25.503 v -47.609 c -2.578,-1.629 -12.882,-4.48 -21.972,-4.48 -23.875,0 -29.707,12.48 -29.707,45.714" /><path
         id="path56"
         style="fill:#1e64c8;fill-opacity:1;fill-rule:nonzero;stroke:none"
         d="m 345.945,425.195 h 41.243 V 414.609 H 358.43 v -26.992 h 23.195 V 377.18 H 358.43 v -29.582 h 28.758 v -10.575 h -41.243 v 88.172" /><path
         id="path58"
         style="fill:#1e64c8;fill-opacity:1;fill-rule:nonzero;stroke:none"
         d="m 401.602,425.195 h 14.378 l 27.809,-70.261 c -0.945,7.187 -1.762,15.593 -1.762,23.464 v 46.797 h 11.938 v -88.172 h -14.379 l -28.082,70.536 c 1.086,-7.188 2.035,-15.731 2.035,-23.739 v -46.797 h -11.937 v 88.172" /><path
         id="path60"
         style="fill:#1e64c8;fill-opacity:1;fill-rule:nonzero;stroke:none"
         d="m 465.391,425.195 h 50.593 v -10.586 h -19.125 v -77.586 h -12.48 v 77.586 h -18.988 v 10.586" /><path
         id="path62"
         style="fill:#1e64c8;fill-opacity:1;fill-rule:nonzero;stroke:none"
         d="m 722.906,249.219 -24.144,51.554 h 13.699 l 10.445,-23.742 c 2.442,-5.691 4.75,-11.797 6.239,-17.226 1.632,5.429 4.074,11.535 6.515,17.226 l 10.445,23.742 h 13.293 l -24.011,-51.554 v -36.621 h -12.481 v 36.621" /><path
         id="path64"
         style="fill:#1e64c8;fill-opacity:1;fill-rule:nonzero;stroke:none"
         d="m 643.238,300.773 h 50.594 v -10.585 h -19.125 v -77.59 h -12.48 v 77.59 h -18.989 v 10.585" /></g></g></svg>