<svg viewBox="0 0 3778.2 355.8" xmlns="http://www.w3.org/2000/svg"><path d="m195.5 243.2c-.1-.1-.1-.1-.1-.2-5-5.9-10-11.5-16.4-16l-16.4 16.1zm-1.4-52.4h-30.3c4.5 5.4 9.6 10.3 15.2 14.5 5.7-4.1 10.8-9 15.1-14.5zm2.8-30.1c-14.5.6-29 .1-43.5.1l.2-.4-.2.4c-3.5 11.5-1.7 14.1 9.8 14.1 13.8 0 27.6 0 41.4.1.4-.9.7-1.8.9-2.7 1.5-8 2.6-12-8.6-11.6zm-44.2 111.7c15.3 0 30.9-.3 46.2 0 5.1.1 6.8-2 6.8-6.6 0-2.4.4-3.2-1-6.8-15.2 0-30.4.5-45.6 0-6.5-.2-7.9 2.6-7.2 8 0 1.5.2 3 .6 4.4m25.9 32.1.1.1c5.9-4.5 11.1-9.7 15.7-15.5h-30.8" fill="#fff"/><path d="m210.9 336c.6.9 1.4 1.7 2.4 2.2 2.6-.6 5.2-1.2 7.7-1.9-2.8-5.4-6.9-9.8-11.1-14.1-7.1-7.3-6.9-7.2-.3-14.5 9.8-10.9 18.3-22.4 19.7-37.8 1.8-20.2-8.2-35.1-21.6-48.3-4.2-4.2-4.2-6.3 0-10.5 17.4-17.3 27.8-36.9 18.3-62.2-.7-1.7-1.3-3.4 1.4-3.4 12.8.1 25.8-1.5 37.8 4.9 13.5 7.2 18.5 20 21.2 33.9 4.9 25.4 9.1 51 13.7 76.4 2.2 11.9-2.9 21.4-12.9 23.2-10.8 1.9-18.5-4.1-20.7-16.4-2.9-15.7-5.7-31.3-8.5-47-.9-5.4-2.9-10.1-9.2-9.6s-7.8 5.5-7.7 10.9c0 35.9.1 71.8.1 107.7 60.3-25.5 99.8-84.8 99.8-150.5 0-89.9-72-162.7-162-162.9-89.9.1-163 73-163 163 0 66.2 40 125.7 101.3 150.8 0-36.1.1-72.1.1-108.2 0-5.5-1.4-10.4-7.7-10.9-6.4-.5-8.3 4.3-9.2 9.6-2.8 15.7-5.6 31.3-8.5 47-2.3 12.3-9.9 18.3-20.7 16.4-10-1.8-15.1-11.3-12.9-23.2 4.7-25.5 8.8-51 13.7-76.4 2.7-13.8 7.7-26.7 21.2-33.9 11.9-6.4 25-4.8 37.8-4.9 2.8 0 2.1 1.7 1.4 3.4-9.5 25.3.9 44.9 18.3 62.2 4.2 4.2 4.2 6.3 0 10.5-13.4 13.2-23.4 28.1-21.6 48.3 1.3 15.4 9.9 27 19.7 37.8 6.6 7.3 6.8 7.2-.3 14.5-4.3 4.4-8.5 8.9-11.3 14.5 2.2.6 4.4 1.2 6.6 1.7 1-.5 1.8-1.2 2.4-2.2 5.6-8.3 13-14.8 20.2-21.6l.1-.1-.1-.1c-5.9-6.2-12.2-12.1-17.8-18.5-17.3-20-16.8-43.7 1.1-63 5.3-5.7 11.4-11.5 17.2-16.8-7.6-7.9-16.1-14.9-22.1-24.2-8.6-13.2-11.3-27-4.3-41.9 1.7-3.6 2.1-4.5 7.5-4.3 0 0 7.6.2 11.4.2l51.7-.8c3.6.2 5.4 1.3 6.9 4.6 8.8 18.8 2.7 34.7-9.6 49.2-5.2 6.1-11.2 11.6-16.8 17.4l-.3.3c5.5 5.6 10.7 10.7 16 16.4 17.9 19.3 18.4 43 1.1 63-5.6 6.4-11.8 12.3-17.7 18.5 7.1 6.9 14.5 13.4 20.1 21.6zm-31.7-199.8c-29.6-.2-53.5-24.3-53.4-53.9.2-29.6 24.3-53.5 53.9-53.4 29.5.2 53.4 24.1 53.4 53.6 0 29.8-24.2 53.8-53.9 53.7z" fill="#fff"/><path d="m117.2 330.4c0-36.2.1-72.5.1-108.7 0-5.5-1.4-10.4-7.7-10.9-6.4-.5-8.3 4.3-9.2 9.6-2.8 15.7-5.6 31.3-8.5 47-2.3 12.3-9.9 18.3-20.7 16.4-10-1.8-15.1-11.3-12.9-23.2 4.7-25.5 8.8-51 13.7-76.4 2.7-13.8 7.7-26.7 21.2-33.9 11.9-6.4 25-4.8 37.8-4.9 2.8 0 2.1 1.7 1.4 3.4-9.5 25.3.9 44.9 18.3 62.2 4.2 4.2 4.2 6.3 0 10.5-13.4 13.2-23.4 28.1-21.6 48.3 1.3 15.4 9.9 27 19.7 37.8 6.6 7.3 6.8 7.2-.3 14.5-4.3 4.5-8.5 9-11.4 14.6-7.2-.4-13.5-3.6-19.9-6.3z" fill="#84c442"/><path d="m241 330.4c0-36.2-.1-72.5-.1-108.7 0-5.5 1.4-10.4 7.7-10.9 6.4-.5 8.3 4.3 9.2 9.6 2.8 15.7 5.6 31.3 8.5 47 2.3 12.3 9.9 18.3 20.7 16.4 10-1.8 15.1-11.3 12.9-23.2-4.7-25.5-8.8-51-13.7-76.4-2.7-13.8-7.7-26.7-21.2-33.9-11.9-6.4-25-4.8-37.8-4.9-2.8 0-2.1 1.7-1.4 3.4 9.5 25.3-.9 44.9-18.3 62.2-4.2 4.2-4.2 6.3 0 10.5 13.4 13.2 23.4 28.1 21.6 48.3-1.3 15.4-9.9 27-19.7 37.8-6.6 7.3-6.8 7.2.3 14.5 4.3 4.5 8.5 9 11.4 14.6 7.2-.4 13.5-3.5 19.9-6.3zm-81.7-184.4-5.9 14.8c-3.5 11.5-1.7 14.1 9.8 14.1 13.8 0 27.6 0 41.4.1-2 6.1-5.6 11.6-10.4 15.8h-30.3c4.5 5.4 9.6 10.3 15.2 14.5-4.1 3.6-8.1 7.2-12.2 10.8-7.6-7.9-16.1-14.9-22.1-24.2-8.6-13.2-11.3-27-4.3-41.9 1.7-3.6 2.1-4.5 7.5-4.3-.1.1 7.5.3 11.3.3z" fill="#377fc1"/><path d="m178.9 227c5.1-4.4.3 0 12.7-10.7 5.6-5.8 11.6-11.3 16.8-17.4 12.3-14.5 18.3-30.4 9.6-49.2-1.5-3.3-3.3-4.4-6.9-4.6l-51.7.8c-5.4 13.2 0 0-5.9 14.8 14.5 0 29 .5 43.5-.1 11.2-.4 10.1 3.5 8.6 11.5-.2.9-.5 1.8-.9 2.7-2 6.1-5.6 11.6-10.4 15.8-4.3 5.5-9.4 10.4-15.1 14.5-4.1 3.6-8.1 7.2-12.2 10.8-5.8 5.3-11.9 11-17.2 16.8-17.9 19.3-18.4 43-1.1 63 5.6 6.5 11.8 12.4 17.8 18.5 4.4 3 8.5 6.5 12.1 10.5 6.1 5 12 10.2 17 16.2 3.1 3.7 5.7 7.7 7.8 12 .9 1.9 1.9 2.6 3.4 2.6 85.1-13.6 150.2-87.5 150.2-176.6 0-98.9-79.3-178.9-178.2-178.9v16c90 0 162.2 72.8 162.2 162.9 0 76.4-53.1 142.6-127.7 159.2-1-.5-1.8-1.2-2.4-2.2-5.6-8.3-13-14.8-20.2-21.6-4.1-3.6-9-6.4-12.2-10.9l-15.2-15.4c-11.2-10.6-11-17.2-11.4-21.2-.6-5.4.7-8 7.3-7.8 15.2.5 30.3 0 45.5 0-1.2-7.1-4.9-11.4-9.3-15.9h-33" fill="#84c442"/><path d="m178.9 227s1.2 1 3.5 2.7c1.2 1 2.4 2 3.5 3.1.9.8 3.6 3.6 4.4 4.5 2.4 2.6 3.2 3.6 5 5.7 4.4 4.5 7.7 9.2 9.4 15.9.8 2.2 1.2 4.5 1 6.9.1 4.5-1.6 6.7-6.7 6.6-15.3-.3-30.9 0-46.3 0 1.3 5.6 5.3 10.5 10.6 15.7h30.9c-4.5 5.8-9.8 11.1-15.7 15.6-12.2 10.9-8.1 7.3-12.2 10.9-7.2 6.8-14.6 13.3-20.2 21.6-.6.9-1.4 1.7-2.4 2.2-74.5-16.7-127.7-82.9-127.7-159.3 0-90 73.2-163 163.3-163v-16c-98.9 0-179.3 80.1-179.3 179 0 89.1 65.1 163 150.4 176.7 1.5-.1 2.5-.7 3.4-2.6 2.1-4.3 4.7-8.4 7.8-12 5-6 10.9-11.2 17-16.2 3.7-3.9 0 0 12.1-10.5 5.9-6.2 12.2-12.1 17.8-18.5 17.3-20 16.8-43.7-1.1-63-5.3-5.7-10.6-10.8-16-16.4" fill="#377fc1"/><path d="m125.3 82.6c.1 29.7 24.2 53.7 53.9 53.6v-107.2c-29.7-.1-53.9 23.9-53.9 53.6z" fill="#377fc1"/><path d="m233.1 82.6c-.1 29.7-24.2 53.7-53.9 53.6v-107.2c29.7-.1 53.8 23.9 53.9 53.6z" fill="#84c442"/><path d="m428.5 69h60.8c31.5 0 54.2 20.5 54.2 53 0 32.8-22.8 53.8-54.2 53.8h-43.5v69h-17.2v-175.8zm58.5 91.3c23.5 0 38.8-14.2 38.8-38.2 0-23.8-15.2-37.5-38.5-37.5h-41.5v75.8h41.2zm139.2-44.3c34.8 0 52.5 26.8 52.5 58 0 3-.5 8.8-.5 8.8h-96.5c.8 32.2 22.8 49.8 48.8 49.8 23 0 38.2-15.2 38.2-15.2l7.8 13s-18.2 17.5-46.5 17.5c-37.5 0-65.8-27-65.8-65.8 0-41.3 28-66.1 62-66.1zm35.3 52.8c-1-26.2-17-38.5-35.8-38.5-21 0-39.2 13.2-43.2 38.5zm49.7-49.8h16.8v22.2c0 5.5-.5 10-.5 10h.5c6-19 20-33.5 39.8-33.5 3.5 0 6.8.8 6.8.8v16.8s-3-.5-6.2-.5c-17.8 0-31 14-36.5 32.5-2.5 8-3.5 16.5-3.5 24.5v53h-17v-125.8zm88 98.3s14 15.2 37.5 15.2c13.5 0 25.2-6.8 25.2-20 0-27.5-67.8-20.8-67.8-61.8 0-22.5 20.2-34.8 43-34.8 26.5 0 38.8 13.8 38.8 13.8l-7.8 13s-10.8-11.5-31.5-11.5c-12.8 0-25 5.5-25 19.5 0 27.8 67.8 20.2 67.8 61.8 0 20.5-17.8 35.2-43 35.2-30.5 0-46.5-18.2-46.5-18.2zm169-101.3c36.8 0 66.5 28 66.5 65.3 0 38-29.8 66.5-66.5 66.5s-66.5-28.5-66.5-66.5c0-37.3 29.8-65.3 66.5-65.3zm0 116.5c27 0 49-22 49-51.2 0-28.5-22-49.8-49-49.8s-49 21.2-49 49.8c0 29.2 22 51.2 49 51.2zm98.3-113.5h16.8v18.8c0 5.5-.5 10-.5 10h.5c4.5-11.5 20.5-31.8 50.2-31.8 31 0 42 17.8 42 48.8v80h-17v-75.5c0-19.8-3-37.2-27.2-37.2-21.5 0-40 14.8-45.8 35.5-1.5 5.2-2 11-2 17v60.2h-17zm215 48h7v-3.2c0-24.2-13.2-32.5-31.2-32.5-20.8 0-35.5 12-35.5 12l-8-13s16.5-14.2 44.8-14.2c30.2 0 47 16.8 47 48.2v80.5h-16.2v-13.8c0-6.2.5-10.5.5-10.5h-.5s-10.5 27.2-42 27.2c-21 0-42.8-12.2-42.8-37.2-.1-42.5 55.1-43.5 76.9-43.5zm-31.5 66.3c24 0 38.5-25 38.5-46.8v-5.5h-7.2c-19.8 0-59.2.8-59.2 28.5-.1 11.8 9.1 23.8 27.9 23.8zm93.5-164.3h17v142.3c0 16.5 7.5 19 14 19 2.2 0 4.2-.2 4.2-.2v15.2s-3 .5-6.2.5c-10.5 0-29-3.2-29-30.8zm212-3c40.8 0 62.5 20.5 62.5 20.5l-9.2 13s-20.5-17.5-52.5-17.5c-42.5 0-71.3 32.8-71.3 74.5 0 43.3 29.8 75.3 69.8 75.3 34.2 0 55.2-25.8 55.2-25.8v-29.8h-30v-15.5h46.5v84h-16v-13.2c0-3.8.2-7.5.2-7.5h-.5s-20.2 23.8-57.2 23.8c-48 0-86-38.8-86-91 0-50.8 38-90.8 88.5-90.8zm161 50c34.8 0 52.5 26.8 52.5 58 0 3-.5 8.8-.5 8.8h-96.5c.8 32.2 22.8 49.8 48.8 49.8 23 0 38.2-15.2 38.2-15.2l7.8 13s-18.2 17.5-46.5 17.5c-37.5 0-65.8-27-65.8-65.8 0-41.3 28-66.1 62-66.1zm35.2 52.8c-1-26.2-17-38.5-35.8-38.5-21 0-39.2 13.2-43.2 38.5zm49.8-49.8h16.8v18.8c0 5.5-.5 10-.5 10h.5c4.5-11.5 20.5-31.8 50.2-31.8 31 0 42 17.8 42 48.8v80h-17v-75.5c0-19.8-3-37.2-27.2-37.2-21.5 0-40 14.8-45.8 35.5-1.5 5.2-2 11-2 17v60.2h-17zm205.5-3c36.8 0 66.5 28 66.5 65.3 0 38-29.8 66.5-66.5 66.5s-66.5-28.5-66.5-66.5c0-37.3 29.7-65.3 66.5-65.3zm0 116.5c27 0 49-22 49-51.2 0-28.5-22-49.8-49-49.8s-49 21.2-49 49.8c0 29.2 22 51.2 49 51.2zm98.2-113.5h16.8v18.8c0 5.5-.5 10-.5 10h.5c6-17 26-31.8 45.5-31.8 23.2 0 35.2 10.8 39 31.5h.5c6.8-17 25-31.5 46.2-31.5 30.5 0 41.8 17.8 41.8 48.8v80h-17v-75.8c0-20.5-4.2-37.5-27.2-37.5-19.2 0-35 17-39.8 35.5-1.8 5.5-2.2 11.5-2.2 18.3v59.5h-17v-75.8c0-19-2.8-37.5-26.5-37.5-20.5 0-36 17.8-41.2 37-1.2 5.2-1.8 11-1.8 16.8v59.5h-17v-125.8zm282.3-3c34.8 0 52.5 26.8 52.5 58 0 3-.5 8.8-.5 8.8h-96.5c.8 32.2 22.8 49.8 48.8 49.8 23 0 38.2-15.2 38.2-15.2l7.8 13s-18.2 17.5-46.5 17.5c-37.5 0-65.8-27-65.8-65.8 0-41.3 28-66.1 62-66.1zm35.2 52.8c-1-26.2-17-38.5-35.8-38.5-21 0-39.2 13.2-43.2 38.5zm122-99.8h60.8c31.5 0 54.2 20.5 54.2 53 0 32.8-22.8 53.8-54.2 53.8h-43.5v69h-17.2v-175.8zm58.5 91.3c23.5 0 38.8-14.2 38.8-38.2 0-23.8-15.2-37.5-38.5-37.5h-41.5v75.8h41.2zm86-41.3h16.8v22.2c0 5.5-.5 10-.5 10h.5c6-19 20-33.5 39.8-33.5 3.5 0 6.8.8 6.8.8v16.8s-3-.5-6.2-.5c-17.8 0-31 14-36.5 32.5-2.5 8-3.5 16.5-3.5 24.5v53h-17v-125.8zm144.8-3c36.8 0 66.5 28 66.5 65.3 0 38-29.8 66.5-66.5 66.5s-66.5-28.5-66.5-66.5c0-37.3 29.7-65.3 66.5-65.3zm0 116.5c27 0 49-22 49-51.2 0-28.5-22-49.8-49-49.8s-49 21.2-49 49.8c0 29.2 22 51.2 49 51.2zm115.2-113.5v130.5c0 41.8-29.8 46.8-43.8 46.8-4.5 0-7.5-.8-7.5-.8v-14.8s2.2.2 5.5.2c9.8 0 28.8-3.5 28.8-32.2v-129.7zm-17.2-50h17.5v21.2h-17.5zm111.5 47c34.8 0 52.5 26.8 52.5 58 0 3-.5 8.8-.5 8.8h-96.5c.8 32.2 22.8 49.8 48.8 49.8 23 0 38.2-15.2 38.2-15.2l7.8 13s-18.2 17.5-46.5 17.5c-37.5 0-65.8-27-65.8-65.8 0-41.3 28-66.1 62-66.1zm35.2 52.8c-1-26.2-17-38.5-35.8-38.5-21 0-39.2 13.2-43.2 38.5zm107-52.8c30.8 0 46 18 46 18l-8.8 12.8s-14-15.2-36.8-15.2c-27.5 0-49 20.5-49 50.5 0 29.5 21.8 50.5 49.5 50.5 25.5 0 40.2-17.8 40.2-17.8l7.8 13.2s-17 19.8-49 19.8c-37.2 0-66-26.8-66-65.8.1-38.7 29.1-66 66.1-66zm84.8 18.8h-16.5v-14.2h16.8v-36.3h16.8v36.2h31.5v14.2h-31.5v62.5c0 29.5 18.8 33.2 28.2 33.2 3.5 0 5.8-.5 5.8-.5v15.2s-2.8.5-7.2.5c-14.5 0-43.8-4.8-43.8-46.8v-64zm149-65.8h17.5v114.3c0 30.2 19.5 48.5 49.8 48.5s50-18.2 50-49v-113.8h17.2v114.5c0 39-27.2 64.2-67 64.2-40 0-67.5-25.2-67.5-64.2zm183.2 0h17.2v76.2h29.8l47.3-76.2h19.8l-52.5 83v.5l56 92.3h-20.3l-50.2-84h-29.8v84h-17.2v-175.8z"/></svg>