<?xml version="1.0" encoding="utf-8"?>
<!-- Generator: Adobe Illustrator 19.2.1, SVG Export Plug-In . SVG Version: 6.00 Build 0)  -->
<svg version="1.1" id="Layer_1" xmlns="http://www.w3.org/2000/svg" xmlns:xlink="http://www.w3.org/1999/xlink" x="0px" y="0px"
	 viewBox="0 0 327.3 178" style="enable-background:new 0 0 327.3 178;" xml:space="preserve">
<style type="text/css">
	.st0{fill:#42B7BA;}
	.st1{fill:#5B2A82;}
	.st2{fill:#EC662A;}
	.st3{fill:#1B2944;}
</style>
<circle class="st0" cx="48.6" cy="44.9" r="29.4"/>
<path class="st1" d="M90.7,7.7v74.4c0,2.2,2.6,3.2,4.1,1.7l36.1-36.1c1.6-1.6,1.6-4.1,0-5.7l-36-36C93.3,4.5,90.7,5.6,90.7,7.7z"/>
<path class="st2" d="M90.3,169.8V91.1c0-1.8-1.4-3.2-3.2-3.2H8.4c-1.4,0-2.1,1.7-1.1,2.7l80.3,80.3
	C88.6,171.9,90.3,171.2,90.3,169.8z"/>
<path class="st3" d="M155.7,169.6c-0.5,1.1-1.6,1.8-2.8,1.8s-2.4-0.7-2.8-1.8l-36.2-79.8c-0.4-0.8,0.4-1.9,1.3-1.9H132
	c1.3,0,2.5,0.8,2.9,2l18,44.8l18-44.8c0.5-1.2,1.6-2,2.9-2h16.9c0.9,0,1.6,1.1,1.2,1.9L155.7,169.6z"/>
<path class="st3" d="M229.5,168.3c0,1.2-0.9,2.1-2.1,2.1h-14.6c-1.2,0-2.1-0.9-2.1-2.1V90.1c0-1.2,0.9-2.1,2.1-2.1h14.6
	c1.2,0,2.1,0.9,2.1,2.1V168.3z"/>
<path class="st3" d="M319.3,145.3c0,11.2-7,25.1-29.8,25.1H260c-1.2,0-2.1-0.9-2.1-2.1V90.1c0-1.2,0.9-2.1,2.1-2.1h29.5
	c22.9,0,29.8,14,29.8,25.2c0,5.7-4.4,13.3-10.6,15.9C314.8,131.4,319.3,137.9,319.3,145.3z M300.2,113.2c0-1.9-1.3-7.8-9.5-7.8h-14
	v16.4h14.3C299,121.5,300.2,115.4,300.2,113.2z M300.2,145.3c0-2.5-1.2-7.7-9.3-7.9h-14.3v15.4h14
	C298.9,152.9,300.2,147.2,300.2,145.3z"/>
</svg>
