<svg xmlns="http://www.w3.org/2000/svg" viewBox="0 0 48 48"><defs><clipPath><path transform="matrix(15.33333 0 0 11.5 415-125.5)" d="m-24 13c0 1.105-.672 2-1.5 2-.828 0-1.5-.895-1.5-2 0-1.105.672-2 1.5-2 .828 0 1.5.895 1.5 2" fill="#1890d0"/></clipPath><linearGradient gradientUnits="userSpaceOnUse" y2=".684" x2="-34.388" y1="25.708" x1="-35.553" id="2"><stop stop-color="#c52828"/><stop offset="1" stop-color="#ff5454"/></linearGradient><linearGradient gradientUnits="userSpaceOnUse" y2=".971" x2="-23.08" y1="25.13" x1="-26.11" id="1"><stop stop-color="#00a661"/><stop stop-color="#37ce97" offset="1"/></linearGradient><linearGradient gradientUnits="userSpaceOnUse" y2=".54" x2="-12.339" y1="24.845" x1="-16.38" id="0"><stop stop-color="#2b65bd"/><stop offset="1" stop-color="#64a3dc"/></linearGradient><linearGradient gradientTransform="matrix(1.77384 0 0 1.71427-5.989 28.572)" gradientUnits="userSpaceOnUse" y2="-22.851" x2="-11.233" y1="4.675" x1="-10.767" id="3"><stop stop-color="#e1e1e1"/><stop stop-color="#f4f4ff" offset="1"/></linearGradient></defs><g transform="translate(48.45 10.804)"><rect y="-10.804" x="-48.45" height="48" width="48" rx="3.085" fill="url(#3)"/><path d="m-41.45 25.663h7.921l5.181-24.933h-7.921z" fill="url(#2)"/><path d="m-31 25.663h7.921l5.181-24.933h-7.921z" fill="url(#1)"/><path d="m-20.551 25.663h7.921l5.181-24.933h-7.921z" fill="url(#0)"/></g></svg>