<?xml version="1.0" encoding="UTF-8" standalone="no"?>
<!-- Created with Inkscape (http://www.inkscape.org/) -->

<svg
   xmlns:dc="http://purl.org/dc/elements/1.1/"
   xmlns:cc="http://creativecommons.org/ns#"
   xmlns:rdf="http://www.w3.org/1999/02/22-rdf-syntax-ns#"
   xmlns:svg="http://www.w3.org/2000/svg"
   xmlns="http://www.w3.org/2000/svg"
   xmlns:xlink="http://www.w3.org/1999/xlink"
   xmlns:sodipodi="http://sodipodi.sourceforge.net/DTD/sodipodi-0.dtd"
   xmlns:inkscape="http://www.inkscape.org/namespaces/inkscape"
   width="433.79608mm"
   height="314.29651mm"
   viewBox="0 0 1537.0727 1113.649"
   id="svg5324"
   version="1.1"
   inkscape:version="0.91 r13725"
   sodipodi:docname="galaxy-africa-logo.svg">
  <defs
     id="defs5326">
    <linearGradient
       inkscape:collect="always"
       id="linearGradient5989">
      <stop
         style="stop-color:#be2523;stop-opacity:1;"
         offset="0"
         id="stop5991" />
      <stop
         style="stop-color:#be2523;stop-opacity:0;"
         offset="1"
         id="stop5993" />
    </linearGradient>
    <linearGradient
       inkscape:collect="always"
       xlink:href="#linearGradient5989"
       id="linearGradient5995"
       x1="-1610.494"
       y1="-575.23889"
       x2="-1494.9857"
       y2="-575.23889"
       gradientUnits="userSpaceOnUse"
       gradientTransform="matrix(1.3091275,0,0,1.3091275,375.73007,148.06367)" />
  </defs>
  <sodipodi:namedview
     id="base"
     pagecolor="#ffffff"
     bordercolor="#666666"
     borderopacity="1.0"
     inkscape:pageopacity="0.0"
     inkscape:pageshadow="2"
     inkscape:zoom="0.35"
     inkscape:cx="1240.6793"
     inkscape:cy="539.68163"
     inkscape:document-units="px"
     inkscape:current-layer="layer1"
     showgrid="false"
     inkscape:window-width="1920"
     inkscape:window-height="1043"
     inkscape:window-x="0"
     inkscape:window-y="0"
     inkscape:window-maximized="1"
     fit-margin-top="0"
     fit-margin-left="0"
     fit-margin-right="0"
     fit-margin-bottom="0" />
  <metadata
     id="metadata5329">
    <rdf:RDF>
      <cc:Work
         rdf:about="">
        <dc:format>image/svg+xml</dc:format>
        <dc:type
           rdf:resource="http://purl.org/dc/dcmitype/StillImage" />
        <dc:title></dc:title>
      </cc:Work>
    </rdf:RDF>
  </metadata>
  <g
     inkscape:label="Layer 1"
     inkscape:groupmode="layer"
     id="layer1"
     transform="translate(2268.5364,955.89087)">
    <path
       style="fill:#000000"
       d="m -1662.7148,157.28234 c -7.2334,-0.9376 -19.4137,-3.6907 -24.1525,-5.4593 -19.9888,-7.46 -33.2152,-31.4157 -58.1669,-105.352203 -6.2612,-18.5531 -20.1806,-67.6076 -20.1806,-71.12006 0,-1.0889 -0.4083,-2.4074 -0.9072,-2.9299 -0.499,-0.5225 -2.0507,-3.6935 -3.4482,-7.0466 -2.6848,-6.4421 -12.719,-24.3771 -27.0601,-48.3669 -10.5049,-17.572497 -13.0694,-22.767797 -15.054,-30.496597 -2.7252,-10.6126 -1.5694,-26.3295 2.149,-29.2233 0.8364,-0.6509 1.2337,-1.6479 0.8828,-2.2157 -1.017,-1.6455 2.5288,-7.6009 13.4565,-22.6008 15.3521,-21.0733 19.2858,-30.0776 19.1777,-43.8992 -0.1068,-13.649 -6.9762,-31.455 -19.6161,-50.8465 -4.1342,-6.3424 -5.3323,-8.987 -4.8709,-10.7515 0.4799,-1.8352 0.2784,-2.2122 -0.9339,-1.747 -1.9431,0.7457 -4.0664,-1.5449 -15.5327,-16.7559 -4.9752,-6.6 -12.4749,-16.5 -16.666,-22 -4.1912,-5.5 -9.5911,-13.825 -11.9999,-18.5 -9.7379,-18.8994 -9.9898,-27.5811 -1.5524,-53.5 4.2704,-13.118 6.0686,-21.8326 6.093,-29.5281 0.024,-7.6229 -1.3164,-11.0168 -6.3323,-16.0327 -5.8648,-5.8648 -11.2364,-7.6358 -37.7853,-12.4577 -11.5819,-2.1035 -20.5736,-6.719 -32,-16.4255 -5.225,-4.4386 -11.975,-9.3045 -15,-10.8131 -5.0378,-2.5124 -6.4244,-2.7362 -16.5,-2.6633 -13.5387,0.098 -14.7113,0.4878 -42,13.9595 -11.55,5.7019 -23.7,11.1542 -27,12.1163 -8.841,2.5775 -19.8114,2.2027 -33,-1.1276 -15.8934,-4.0132 -29.2749,-4.3792 -53.5834,-1.4657 -16.8412,2.0185 -20.3468,2.1618 -28.3186,1.1576 -13.0948,-1.6496 -22.4256,-6.4894 -35.8013,-18.5699 -18.3925,-16.6114 -57.3299,-59.3946 -61.4588,-67.529 -1.0109,-1.9914 -2.593,-4.1861 -3.516,-4.8771 -2.6537,-1.9868 -22.5569,-25.6803 -24.881,-29.6192 -1.1548,-1.9573 -1.8123,-4.0235 -1.4612,-4.5916 0.3511,-0.5681 -0.044,-1.0329 -0.8785,-1.0329 -2.4484,0 -6.5057,-8.098 -7.4249,-14.8195 -1.4501,-10.6034 0.071,-17.2116 7.1779,-31.1805 10.8131,-21.2541 11.2848,-23.8908 8.6572,-48.3941 -3.1096,-28.9973 -2.6093,-37.9333 3.085,-55.1059 8.7072,-26.2589 28.3405,-55.2361 44.9036,-66.2744 3.025,-2.016 10.675,-5.9837 17,-8.8172 21.7191,-9.7299 30.4199,-16.0896 35.7844,-26.1563 1.6859,-3.1636 5.3084,-12.545 8.05,-20.8475 2.7416,-8.3025 6.6593,-18.4275 8.7061,-22.5 6.3446,-12.6245 35.8868,-44.0096 46.1235,-49.0008 4.2564,-2.07533 6.2143,-2.35064 16.336,-2.29707 6.325,0.0335 16.9,0.87177 23.5,1.86287 6.9608,1.0453 17.4591,1.7924 25,1.7792 16.381,-0.029 26.3966,-2.1553 51.5,-10.93423 73.2232,-25.60695 86.6519,-28.93185 113.3078,-28.05469 16.5589,0.54491 23.2764,2.01713 30.1922,6.61706 2.2,1.4633 4.7868,4.22712 5.7485,6.14182 2.1587,4.29829 2.2872,13.29328 0.3237,22.6659 -3.596,17.16544 -2.9889,24.49334 2.5522,30.80424 3.7675,4.291 6.3677,5.0338 26.3756,7.5348 24.3258,3.0409 28.9551,4.7802 50.2064,18.8636 19.6984,13.0542 23.1391,14.9891 31.2936,17.5986 6.6058,2.1138 9.1435,4.0448 4,3.0435 -5.3855,-1.0483 -17.2639,-6.9007 -30.5987,-15.0757 -20.9571,-12.8478 -25.4855,-14.4245 -61.174,-21.2992 -29.4867,-5.68 -34.2269,-10.9257 -31.9978,-35.4102 1.7364,-19.07197 1.6165,-20.93439 -1.621,-25.18531 -4.4193,-5.80251 -10.0563,-7.83619 -23.1085,-8.33683 -22.9709,-0.8811 -56.2272,5.75395 -89,17.7566 -4.95,1.81288 -18.45,7.34037 -30,12.28334 -41.1298,17.6019 -48.6709,19.5373 -80.8546,20.7503 -22.9056,0.8633 -25.2581,1.1221 -30,3.3 -8.2232,3.7768 -22.1559,18.4413 -25.1836,26.5064 -0.9665,2.5747 -3.4892,8.1555 -5.6059,12.4018 -2.1167,4.2463 -5.6827,13.9213 -7.9244,21.5 -10.4013,35.1652 -14.8481,45.9791 -22.1765,53.9294 -5.2401,5.6848 -9.969,8.4393 -21.255,12.3807 -10.1382,3.5406 -16.0802,6.6954 -19.6023,10.4077 -1.3187,1.3899 -2.9602,2.5349 -3.6477,2.5444 -0.6875,0.01 -1.25,0.5117 -1.25,1.116 0,0.6044 -1.2714,2.2919 -2.8253,3.75 -10.7777,10.1138 -22.2941,33.8784 -25.3321,52.2741 -1.3213,8.0011 -0.3975,14.0652 4.4751,29.3771 4.2644,13.4005 4.2134,24.4596 -0.2137,46.3428 -3.4729,17.1663 -4.0434,30.8059 -1.5751,37.6572 0.7925,2.2 1.4478,4.5916 1.4561,5.3146 0.01,0.723 1.4284,2.5038 3.1558,3.9574 1.7275,1.4535 3.865,3.8249 4.75,5.2697 0.8851,1.4449 6.1092,6.2446 11.6092,10.6661 5.5,4.4216 16.75,13.9747 25,21.2293 17.7434,15.6025 24.3134,20.4903 35.5973,26.4833 17.7237,9.4132 35.9504,13.5689 59.5422,13.5756 22.0481,0.01 33.1226,-2.7331 69.2868,-17.1389 21.0374,-8.3801 30.1746,-11.3987 40.4594,-13.3665 8.9335,-1.7093 25.3913,-1.958 30.7667,-0.4649 4.3911,1.2196 14.0522,7.4442 30.7535,19.814 21.6692,16.0494 28.1853,18.0565 46.0223,14.1759 8.024,-1.7456 12.5791,-2.151 20.9511,-1.8644 9.6691,0.3309 11.337,0.6808 17.3438,3.6379 4.8053,2.3656 8.4821,5.2549 13.275,10.4318 13.0239,14.067 20.0486,34.9653 22.8672,68.0291 l -0.2587,8.9861 c 1.1577,7.99216 0.8023,17.35701 1.0034,25.7643 0.4843,20.2474 1.0407,27.5598 2.701,35.5 2.6263,12.5598 8.9794,30.7488 12.5743,36 4.0521,5.9192 21.3393,35.1174 24.7017,41.7214 1.6021,3.1469 2.913,6.7512 2.913,8.0095 0,1.2584 0.8235,2.8023 1.8299,3.4308 3.2536,2.0319 8.4058,21.6268 9.6861,36.8383 1.3456,15.9872 -1.9744,29.3885 -12.5107,50.5 -7.0477,14.1214 -10.5313,24.1201 -11.914,34.1955 -1.3748,10.019 -0.2403,18.7702 4.8319,37.268697 4.3622,15.9096 6.7668,31.4274 10.5994,68.4031 2.9804,28.75336 6.1922,46.15996 11.5001,62.32416 8.4435,25.7134 27.6251,65.539603 38.6006,80.145203 7.8755,10.4803 17.095,18.4017 27.3188,23.4723 l 7.4421,3.6909 19.1886,0.3083 c 21.532,0.3459 25.0617,-0.2273 40.061,-6.5062 13.3518,-5.5891 24.7446,-13.8154 41.0798,-29.6618 8.0171,-7.777203 14.9716,-14.590303 15.4546,-15.140303 2.4196,-2.7553 21.1917,-29.7367 29.5689,-42.5 22.1643,-33.7685 28.5091,-40.8351 51.1397,-56.9583 7.3017,-5.2021 13.6553,-10.1674 14.119,-11.0339 0.5489,-1.0256 -0.7425,-6.79876 -3.7001,-16.54156 -3.8703,-12.7493 -4.6169,-16.6144 -5.0406,-26.0935 -0.5842,-13.0691 0.661,-18.0242 6.8636,-27.3126 5.451,-8.1629 13.4307,-13.783597 32.8813,-23.160597 23.5339,-11.3454 29.5559,-14.566 37.8019,-20.217 8.7642,-6.0061 15.6534,-13.3876 18.8364,-20.1824 1.4261,-3.0445 2.346,-4.1948 2.3519,-2.9412 0.017,3.6401 -6.804,13.767 -13.4495,19.9673 -4.0482,3.777 -13.1496,10.0261 -24.3851,16.7432 -28.4128,16.9861 -38.4638,24.738697 -45.7202,35.264597 -2.7763,4.0273 -3.5889,6.3271 -4.0632,11.5 -0.8369,9.1278 1.0311,25.4012 4.5877,39.9661 1.6721,6.8474 3.0401,13.00786 3.0401,13.68996 0,2.3691 -6.3065,8.4028 -12.8846,12.3271 -18.7485,11.1851 -25.616,19.2055 -56.4979,65.9828 -9.481,14.3609 -18.0631,28.4166 -28.6974,47.000003 -5.1178,8.9435 -12.2671,16.7821 -20.2804,22.2359 -13.8973,9.4583 -44.7158,21.6562 -63.6753,25.2025 -4.6554,0.8708 -15.2144,2.0191 -23.4644,2.5518 -15.215,0.9825 -17.6376,1.0163 -23,0.3213 z m 304.3823,-116.691603 c -8.7677,-3.1331 -18.4096,-12.0893 -20.7242,-19.2503 -0.6878,-2.128 -1.7572,-10.1388 -2.3763,-17.8017 l -1.1258,-13.9326 4.8117,-4.3563 4.8118,-4.3564 -0.8959,-12.11386 -0.8959,-12.114 3.0061,-1.2541 c 1.6534,-0.6898 7.1416,-1.5769 12.196,-1.9714 6.0154,-0.4695 10.2108,-1.3382 12.1457,-2.5148 1.7699,-1.0764 5.1888,-5.5917 8.5213,-11.2542 3.0611,-5.2011 6.9931,-10.6578 8.7379,-12.1259 4.1967,-3.5313 10.272,-6.5747 13.1155,-6.5701 2.1253,0 2.0734,0.1358 -0.7227,1.8409 -3.7457,2.2843 -7.1696,6.4021 -13.8326,16.6361 -2.8578,4.3894 -6.0868,8.4449 -7.1755,9.0121 -1.0886,0.5673 -3.1285,1.8073 -4.5329,2.7556 -1.4044,0.9483 -5.0436,2.5808 -8.0872,3.628 -12.1787,4.1901 -14.8481,7.2133 -14.8703,16.8415 -0.019,8.33726 -1.1002,12.05206 -4.7473,16.31276 l -3.5075,4.0978 0.5181,9.1857 c 0.8335,14.7798 5.3253,24.5958 13.4277,29.3442 8.1734,4.7899 20.9271,2.7534 27.6482,-4.4147 3.0612,-3.2649 3.3981,-5.0283 5.6374,-29.5081 0.915,-10.0027 5.3492,-28.81476 6.5008,-27.57916 0.1761,0.189 -0.2776,3.2686 -1.0083,6.8436 -0.7307,3.57496 -2.0663,13.02496 -2.9681,20.99996 -1.7588,15.5553 -3.7026,26.8914 -5.3392,31.1389 -1.8791,4.8766 -7.0718,9.6879 -12.7486,11.8118 -6.2558,2.3406 -10.3479,2.5169 -15.5199,0.6687 z"
       id="path4233"
       inkscape:connector-curvature="0"
       sodipodi:nodetypes="csssssssccsssscsssssssssssssssscccsssssssssssssscssssssssccssssssssssssssscscsssccccssscsscsccsscccsscscsssssssscssssssssssssccssssssssssssccsscccccccscccccscsccccsscscsccss"
       inkscape:export-filename="/home/pvh/Documents/code/SANBI/galaxy_africa_2018_website/carousel/images/galaxy_africa_logo.png"
       inkscape:export-xdpi="360"
       inkscape:export-ydpi="360" />
    <path
       style="fill:#4a8739;fill-opacity:0.94117647"
       inkscape:connector-curvature="0"
       d="m -1636.6072,-697.93489 -144.1604,0 c -1.8404,0 -3.3739,-1.53362 -3.3739,-3.37397 l 0,-37.42037 c 0,-1.84035 1.5335,-3.37396 3.3739,-3.37396 l 144.1604,0 c 1.8404,0 3.374,1.53361 3.374,3.37396 l 0,37.11365 c 0,1.84034 -1.2269,3.68069 -3.374,3.68069 z"
       id="path5052" />
    <path
       style="fill:#f4dc40;fill-opacity:0.94117647"
       inkscape:connector-curvature="0"
       d="m -1675.2545,-639.96399 -105.2064,0 c -1.8404,0 -3.6806,-1.53362 -3.6806,-3.68069 l 0,-36.80692 c 0,-1.84035 1.5335,-3.68069 3.6806,-3.68069 l 105.2064,0 c 1.8404,0 3.6808,1.53362 3.6808,3.68069 l 0,36.80692 c 0,2.14707 -1.5337,3.68069 -3.6808,3.68069 z"
       id="path5054" />
    <path
       style="fill:url(#linearGradient5995);fill-opacity:1"
       inkscape:connector-curvature="0"
       d="m -1584.7707,-582.91326 -144.1605,0 c -1.8403,0 -3.6807,-1.53362 -3.6807,-3.68069 l 0,-36.80692 c 0,-1.84035 1.5336,-3.68069 3.6807,-3.68069 l 143.8538,0 c 1.8402,0 3.6806,1.53361 3.6806,3.68069 l 0,36.80692 c 0,2.14707 -1.5337,3.68069 -3.3739,3.68069 z"
       id="path5061" />
    <path
       id="path5081"
       d="m -1386.6268,-604.99742 c -7.6681,2.76051 -17.4833,5.82776 -29.7523,8.58828 -12.5757,2.76052 -24.8447,4.29414 -37.1136,4.29414 -28.5254,0 -50.9163,-7.66811 -67.1727,-23.31105 -16.2563,-15.64294 -24.2312,-37.11365 -24.2312,-64.41211 0,-26.07157 8.2816,-47.23555 24.538,-63.18522 16.2564,-15.94966 39.2607,-23.9245 68.3995,-23.9245 11.0421,0 21.4707,0.92018 31.5926,3.06725 10.1219,1.84034 21.164,5.82776 33.433,11.96225 l 0,39.26071 -4.9076,0 c -2.1471,-1.53362 -5.2143,-3.68069 -9.2018,-6.74793 -3.9874,-3.06725 -7.9748,-5.52104 -11.6555,-7.36139 -4.2941,-2.45379 -9.5084,-4.60086 -15.3362,-6.13448 -5.8278,-1.84035 -11.9623,-2.76052 -18.7102,-2.76052 -7.6681,0 -14.7228,1.22689 -20.8572,3.37396 -6.1345,2.14708 -11.9623,5.82777 -16.8699,10.42863 -4.9076,4.60087 -8.5883,10.42863 -11.3488,17.17657 -2.7605,7.05466 -3.9874,15.02949 -3.9874,23.92449 0,18.71019 4.9076,32.81951 14.7228,42.63469 9.8151,9.81518 24.5379,14.72277 43.8615,14.72277 1.8404,0 3.374,0 5.5211,0 1.8403,0 3.6807,0 5.521,-0.30673 l 0,-32.8195 -33.4329,0 0,-31.59261 77.6012,0 -0.6134,83.1223 0,0 z"
       inkscape:connector-curvature="0"
       style="fill:#58595b" />
    <path
       id="path5083"
       d="m -1283.8742,-608.67812 c -2.147,1.84035 -4.9076,3.6807 -8.2815,5.82777 -3.0673,2.45379 -6.4412,4.29414 -9.2018,5.52103 -3.9874,1.84035 -8.2815,3.06725 -12.5757,3.98742 -4.2941,0.92017 -8.895,1.2269 -14.1093,1.2269 -11.9622,0 -22.0841,-3.68069 -30.3657,-11.3488 -8.2815,-7.36139 -12.269,-16.86984 -12.269,-28.52537 0,-9.20173 2.1471,-16.86983 6.1345,-22.6976 3.9875,-5.82776 10.1219,-10.42862 17.4833,-13.80259 7.3614,-3.37397 16.8699,-5.82776 27.9119,-7.36139 11.0421,-1.53362 22.6976,-2.45379 34.6599,-3.06724 l 0,-0.61345 c 0,-7.05466 -2.7605,-11.96225 -8.5883,-14.41604 -5.8278,-2.76052 -14.1093,-3.98742 -25.1514,-3.98742 -6.7479,0 -13.8026,1.2269 -21.4707,3.68069 -7.6681,2.4538 -13.1891,4.29414 -16.2564,5.52104 l -3.6807,0 0,-30.67243 c 4.2942,-1.2269 11.3488,-2.4538 21.164,-3.98742 9.5085,-1.53362 19.3236,-2.45379 29.1388,-2.45379 23.0043,0 39.8742,3.68069 49.9961,10.73535 10.1219,7.05466 15.3362,18.09673 15.3362,33.43295 l 0,86.18954 -40.1809,0 0.3067,-13.18915 0,0 z m 0,-19.93708 0,-26.07157 c -5.521,0.30673 -11.3488,0.92018 -17.79,1.84035 -6.4412,0.92017 -11.3488,1.84034 -14.416,2.76052 -3.9874,1.2269 -7.0547,3.06724 -9.2018,5.52104 -2.147,2.45379 -3.0672,5.82776 -3.0672,9.50845 0,2.76052 0.3067,4.90759 0.6135,6.44121 0.3067,1.84035 1.5336,3.06725 3.3739,4.90759 1.8404,1.53362 3.6807,2.76052 6.1345,3.37397 2.4538,0.61345 6.1345,0.92017 11.3488,0.92017 3.9874,0 8.2816,-0.92017 12.5757,-2.45379 3.6807,-1.84035 7.3614,-3.98742 10.4286,-6.74794 z"
       inkscape:connector-curvature="0"
       style="fill:#58595b" />
    <path
       id="path5085"
       d="m -1175.6005,-595.48897 -40.7943,0 0,-175.75305 40.7943,0 0,175.75305 z"
       inkscape:connector-curvature="0"
       style="fill:#58595b" />
    <path
       id="path5087"
       d="m -1071.0075,-608.67812 c -2.147,1.84035 -4.9076,3.6807 -8.2815,5.82777 -3.0673,2.45379 -6.4412,4.29414 -9.2018,5.52103 -3.9874,1.84035 -8.2815,3.06725 -12.5757,3.98742 -4.2941,0.92017 -8.895,1.2269 -14.1093,1.2269 -11.9622,0 -22.0841,-3.68069 -30.3657,-11.3488 -8.2815,-7.36139 -12.269,-16.86984 -12.269,-28.52537 0,-9.20173 2.1471,-16.86983 6.1345,-22.6976 3.9874,-5.82776 10.1219,-10.42862 17.4833,-13.80259 7.6681,-3.37397 16.8699,-5.82776 27.9119,-7.36139 11.0421,-1.53362 22.6976,-2.45379 34.6599,-3.06724 l 0,-0.61345 c 0,-7.05466 -2.7605,-11.96225 -8.5883,-14.41604 -5.8278,-2.76052 -14.1093,-3.98742 -25.1514,-3.98742 -6.7479,0 -13.8026,1.2269 -21.4707,3.68069 -7.6681,2.4538 -13.1891,4.29414 -16.2564,5.52104 l -3.6807,0 0,-30.67243 c 4.2942,-1.2269 11.3488,-2.4538 21.164,-3.98742 9.5084,-1.53362 19.3236,-2.45379 29.1388,-2.45379 23.0043,0 39.8742,3.68069 49.9961,10.73535 10.4286,7.05466 15.3362,18.09673 15.3362,33.43295 l 0,86.18954 -40.1809,0 0.3067,-13.18915 0,0 z m 0,-19.93708 0,-26.07157 c -5.521,0.30673 -11.3488,0.92018 -17.79,1.84035 -6.4412,0.92017 -11.3488,1.84034 -14.416,2.76052 -3.9874,1.2269 -7.0547,3.06724 -9.2018,5.52104 -2.147,2.45379 -3.0672,5.82776 -3.0672,9.50845 0,2.76052 0.3067,4.90759 0.6134,6.44121 0.3068,1.84035 1.5337,3.06725 3.374,4.90759 1.8404,1.53362 3.6807,2.76052 6.1345,3.37397 2.4538,0.61345 6.1345,0.92017 11.3488,0.92017 3.9874,0 8.2816,-0.92017 12.5757,-2.45379 3.6807,-1.84035 7.3614,-3.98742 10.4286,-6.74794 z"
       inkscape:connector-curvature="0"
       style="fill:#58595b" />
    <path
       id="path5089"
       d="m -871.0232,-595.48897 -47.54228,0 -26.99174,-37.72709 -27.91191,38.03381 -46.62207,0 49.99604,-63.49193 -49.07594,-63.49194 47.54231,0 26.68502,37.42037 26.68502,-37.42037 46.6221,0 -49.38262,62.57176 49.99607,64.10539 z"
       inkscape:connector-curvature="0"
       style="fill:#58595b" />
    <path
       id="path5091"
       d="m -802.01023,-640.27072 28.83209,-81.8954 41.71451,0 -70.5466,173.29925 -44.1683,0 20.2438,-47.54227 -49.07589,-125.75698 42.63468,0 30.36571,81.8954 z"
       inkscape:connector-curvature="0"
       style="fill:#58595b" />
    <text
       xml:space="preserve"
       style="font-style:normal;font-weight:normal;font-size:91.45211029px;line-height:125%;font-family:sans-serif;letter-spacing:0px;word-spacing:0px;fill:#000000;fill-opacity:1;stroke:none;stroke-width:1px;stroke-linecap:butt;stroke-linejoin:miter;stroke-opacity:1"
       x="-1492.4493"
       y="-387.22302"
       id="text5173"
       sodipodi:linespacing="125%"><tspan
         sodipodi:role="line"
         id="tspan5175"
         x="-1492.4493"
         y="-387.22302"
         style="font-style:normal;font-variant:normal;font-weight:600;font-stretch:normal;font-size:219.48506165px;font-family:FreeSans;-inkscape-font-specification:'FreeSans Semi-Bold';fill:#59595a;fill-opacity:1">Africa</tspan></text>
  </g>
</svg>
