<?xml version="1.0" encoding="UTF-8" standalone="no"?>
<!DOCTYPE svg PUBLIC "-//W3C//DTD SVG 1.1//EN" "http://www.w3.org/Graphics/SVG/1.1/DTD/svg11.dtd">
<svg width="100%" height="100%" viewBox="0 0 576 110" version="1.1" xmlns="http://www.w3.org/2000/svg" xmlns:xlink="http://www.w3.org/1999/xlink" xml:space="preserve" xmlns:serif="http://www.serif.com/" style="fill-rule:evenodd;clip-rule:evenodd;stroke-linejoin:round;stroke-miterlimit:2;">
    <g transform="matrix(0.166667,0,0,0.166667,-413.167,-646.167)">
        <g transform="matrix(1,0,0,1,1.81899e-12,94.4882)">
            <g>
                <g transform="matrix(0.681159,0,0,0.933333,757.617,674.016)">
                    <path d="M5858.27,3428.57C5858.27,3400.63 5827.19,3377.95 5788.91,3377.95L2667.78,3377.95C2629.5,3377.95 2598.43,3400.63 2598.43,3428.57L2598.43,3681.66C2598.43,3709.6 2629.5,3732.28 2667.78,3732.28L5788.91,3732.28C5827.19,3732.28 5858.27,3709.6 5858.27,3681.66L5858.27,3428.57Z" style="fill:#d9d9d9;"/>
                </g>
                <g transform="matrix(0.92,0,0,1,2404.72,47.2441)">
                    <path d="M3779.53,3826.77C3779.53,3800.7 3756.52,3779.53 3728.18,3779.53L2649.78,3779.53C2621.43,3779.53 2598.43,3800.7 2598.43,3826.77L2598.43,4062.99C2598.43,4089.07 2621.43,4110.24 2649.78,4110.24L3728.18,4110.24C3756.52,4110.24 3779.53,4089.07 3779.53,4062.99L3779.53,3826.77Z" style="fill:#d9d9d9;"/>
                </g>
                <g transform="matrix(1,0,0,1,-81.1208,-190.787)">
                    <g transform="matrix(125,0,0,125,2899.06,4229.79)">
                        <path d="M0.475,-0.186L0.177,-0.186L0.11,-0L0.014,-0L0.285,-0.711L0.367,-0.711L0.639,-0L0.543,-0L0.475,-0.186ZM0.206,-0.263L0.447,-0.263L0.326,-0.595L0.206,-0.263Z" style="fill-rule:nonzero;"/>
                    </g>
                    <g transform="matrix(125,0,0,125,2979.93,4229.79)">
                        <path d="M0.395,-0.052C0.359,-0.011 0.308,0.01 0.24,0.01C0.183,0.01 0.141,-0.007 0.111,-0.039C0.082,-0.072 0.067,-0.12 0.066,-0.185L0.066,-0.528L0.157,-0.528L0.157,-0.187C0.157,-0.107 0.189,-0.067 0.254,-0.067C0.323,-0.067 0.369,-0.093 0.392,-0.144L0.392,-0.528L0.482,-0.528L0.482,-0L0.396,-0L0.395,-0.052Z" style="fill-rule:nonzero;"/>
                    </g>
                    <g transform="matrix(125,0,0,125,3048.84,4229.79)">
                        <path d="M0.191,-0.656L0.191,-0.528L0.29,-0.528L0.29,-0.458L0.191,-0.458L0.191,-0.13C0.191,-0.109 0.195,-0.093 0.204,-0.083C0.213,-0.072 0.228,-0.067 0.249,-0.067C0.259,-0.067 0.274,-0.069 0.292,-0.073L0.292,0C0.268,0.007 0.245,0.01 0.223,0.01C0.182,0.01 0.152,-0.002 0.131,-0.027C0.111,-0.051 0.101,-0.086 0.101,-0.131L0.101,-0.458L0.004,-0.458L0.004,-0.528L0.101,-0.528L0.101,-0.656L0.191,-0.656Z" style="fill-rule:nonzero;"/>
                    </g>
                    <g transform="matrix(125,0,0,125,3088.45,4229.79)">
                        <path d="M0.044,-0.269C0.044,-0.321 0.055,-0.367 0.075,-0.409C0.095,-0.45 0.124,-0.482 0.16,-0.504C0.196,-0.527 0.238,-0.538 0.284,-0.538C0.356,-0.538 0.414,-0.513 0.459,-0.463C0.503,-0.414 0.525,-0.347 0.525,-0.265L0.525,-0.258C0.525,-0.207 0.516,-0.161 0.496,-0.12C0.476,-0.079 0.448,-0.047 0.411,-0.024C0.375,-0.002 0.333,0.01 0.285,0.01C0.214,0.01 0.156,-0.015 0.111,-0.065C0.067,-0.115 0.044,-0.181 0.044,-0.263L0.044,-0.269ZM0.135,-0.258C0.135,-0.2 0.149,-0.153 0.176,-0.117C0.203,-0.082 0.24,-0.064 0.285,-0.064C0.331,-0.064 0.368,-0.082 0.395,-0.118C0.422,-0.154 0.435,-0.204 0.435,-0.269C0.435,-0.327 0.421,-0.374 0.394,-0.41C0.366,-0.446 0.33,-0.464 0.284,-0.464C0.24,-0.464 0.204,-0.446 0.176,-0.411C0.149,-0.375 0.135,-0.324 0.135,-0.258Z" style="fill-rule:nonzero;"/>
                    </g>
                    <g transform="matrix(125,0,0,125,3159.74,4229.79)">
                        <path d="M0.153,-0.528L0.156,-0.47C0.194,-0.515 0.247,-0.538 0.313,-0.538C0.386,-0.538 0.437,-0.51 0.463,-0.453C0.481,-0.479 0.504,-0.499 0.532,-0.515C0.56,-0.53 0.593,-0.538 0.632,-0.538C0.748,-0.538 0.807,-0.477 0.809,-0.354L0.809,-0L0.718,-0L0.718,-0.349C0.718,-0.386 0.71,-0.415 0.692,-0.433C0.675,-0.452 0.646,-0.461 0.605,-0.461C0.572,-0.461 0.544,-0.451 0.522,-0.431C0.5,-0.411 0.487,-0.384 0.483,-0.351L0.483,-0L0.393,-0L0.393,-0.346C0.393,-0.423 0.355,-0.461 0.28,-0.461C0.221,-0.461 0.18,-0.436 0.158,-0.386L0.158,-0L0.068,-0L0.068,-0.528L0.153,-0.528Z" style="fill-rule:nonzero;"/>
                    </g>
                    <g transform="matrix(125,0,0,125,3269.3,4229.79)">
                        <path d="M0.395,-0C0.389,-0.01 0.385,-0.029 0.382,-0.056C0.34,-0.012 0.29,0.01 0.231,0.01C0.179,0.01 0.137,-0.005 0.103,-0.034C0.07,-0.064 0.053,-0.101 0.053,-0.146C0.053,-0.201 0.074,-0.244 0.116,-0.275C0.158,-0.305 0.217,-0.32 0.292,-0.32L0.38,-0.32L0.38,-0.362C0.38,-0.393 0.371,-0.419 0.352,-0.437C0.333,-0.456 0.305,-0.465 0.269,-0.465C0.236,-0.465 0.209,-0.457 0.188,-0.441C0.166,-0.425 0.155,-0.405 0.155,-0.382L0.064,-0.382C0.064,-0.408 0.073,-0.434 0.092,-0.458C0.111,-0.483 0.136,-0.502 0.168,-0.517C0.2,-0.531 0.236,-0.538 0.274,-0.538C0.335,-0.538 0.382,-0.523 0.417,-0.492C0.451,-0.462 0.469,-0.42 0.471,-0.367L0.471,-0.124C0.471,-0.075 0.477,-0.036 0.489,-0.008L0.489,-0L0.395,-0ZM0.245,-0.069C0.273,-0.069 0.3,-0.076 0.325,-0.091C0.351,-0.105 0.369,-0.125 0.38,-0.148L0.38,-0.256L0.31,-0.256C0.199,-0.256 0.144,-0.224 0.144,-0.159C0.144,-0.131 0.153,-0.109 0.172,-0.093C0.191,-0.077 0.215,-0.069 0.245,-0.069Z" style="fill-rule:nonzero;"/>
                    </g>
                    <g transform="matrix(125,0,0,125,3337.29,4229.79)">
                        <path d="M0.191,-0.656L0.191,-0.528L0.29,-0.528L0.29,-0.458L0.191,-0.458L0.191,-0.13C0.191,-0.109 0.195,-0.093 0.204,-0.083C0.213,-0.072 0.228,-0.067 0.249,-0.067C0.259,-0.067 0.274,-0.069 0.292,-0.073L0.292,0C0.268,0.007 0.245,0.01 0.223,0.01C0.182,0.01 0.152,-0.002 0.131,-0.027C0.111,-0.051 0.101,-0.086 0.101,-0.131L0.101,-0.458L0.004,-0.458L0.004,-0.528L0.101,-0.528L0.101,-0.656L0.191,-0.656Z" style="fill-rule:nonzero;"/>
                    </g>
                    <g transform="matrix(125,0,0,125,3378.13,4229.79)">
                        <path d="M0.288,0.01C0.216,0.01 0.158,-0.014 0.113,-0.061C0.068,-0.108 0.045,-0.171 0.045,-0.25L0.045,-0.266C0.045,-0.319 0.055,-0.365 0.075,-0.406C0.095,-0.448 0.123,-0.48 0.159,-0.503C0.195,-0.526 0.234,-0.538 0.276,-0.538C0.345,-0.538 0.398,-0.515 0.437,-0.47C0.475,-0.425 0.494,-0.36 0.494,-0.276L0.494,-0.238L0.136,-0.238C0.137,-0.186 0.152,-0.144 0.181,-0.112C0.211,-0.08 0.248,-0.064 0.292,-0.064C0.324,-0.064 0.351,-0.07 0.374,-0.083C0.396,-0.097 0.415,-0.114 0.432,-0.135L0.487,-0.092C0.443,-0.024 0.376,0.01 0.288,0.01ZM0.276,-0.464C0.24,-0.464 0.209,-0.451 0.185,-0.424C0.16,-0.398 0.145,-0.36 0.139,-0.313L0.403,-0.313L0.403,-0.319C0.401,-0.365 0.388,-0.401 0.366,-0.426C0.344,-0.451 0.314,-0.464 0.276,-0.464Z" style="fill-rule:nonzero;"/>
                    </g>
                    <g transform="matrix(125,0,0,125,3444.35,4229.79)">
                        <path d="M0.046,-0.269C0.046,-0.35 0.066,-0.415 0.104,-0.464C0.142,-0.513 0.193,-0.538 0.255,-0.538C0.317,-0.538 0.366,-0.517 0.402,-0.475L0.402,-0.75L0.492,-0.75L0.492,-0L0.409,-0L0.405,-0.057C0.369,-0.012 0.318,0.01 0.254,0.01C0.193,0.01 0.143,-0.015 0.104,-0.065C0.066,-0.116 0.046,-0.181 0.046,-0.262L0.046,-0.269ZM0.137,-0.258C0.137,-0.198 0.149,-0.152 0.174,-0.118C0.199,-0.084 0.233,-0.067 0.276,-0.067C0.334,-0.067 0.375,-0.093 0.402,-0.144L0.402,-0.387C0.375,-0.437 0.333,-0.461 0.277,-0.461C0.233,-0.461 0.199,-0.444 0.174,-0.41C0.149,-0.376 0.137,-0.325 0.137,-0.258Z" style="fill-rule:nonzero;"/>
                    </g>
                    <g transform="matrix(125,0,0,125,3545.79,4229.79)">
                        <path d="M0.046,-0.269C0.046,-0.35 0.066,-0.415 0.104,-0.464C0.142,-0.513 0.193,-0.538 0.255,-0.538C0.317,-0.538 0.366,-0.517 0.402,-0.475L0.402,-0.75L0.492,-0.75L0.492,-0L0.409,-0L0.405,-0.057C0.369,-0.012 0.318,0.01 0.254,0.01C0.193,0.01 0.143,-0.015 0.104,-0.065C0.066,-0.116 0.046,-0.181 0.046,-0.262L0.046,-0.269ZM0.137,-0.258C0.137,-0.198 0.149,-0.152 0.174,-0.118C0.199,-0.084 0.233,-0.067 0.276,-0.067C0.334,-0.067 0.375,-0.093 0.402,-0.144L0.402,-0.387C0.375,-0.437 0.333,-0.461 0.277,-0.461C0.233,-0.461 0.199,-0.444 0.174,-0.41C0.149,-0.376 0.137,-0.325 0.137,-0.258Z" style="fill-rule:nonzero;"/>
                    </g>
                    <g transform="matrix(125,0,0,125,3616.29,4229.79)">
                        <path d="M0.288,0.01C0.216,0.01 0.158,-0.014 0.113,-0.061C0.068,-0.108 0.045,-0.171 0.045,-0.25L0.045,-0.266C0.045,-0.319 0.055,-0.365 0.075,-0.406C0.095,-0.448 0.123,-0.48 0.159,-0.503C0.195,-0.526 0.234,-0.538 0.276,-0.538C0.345,-0.538 0.398,-0.515 0.437,-0.47C0.475,-0.425 0.494,-0.36 0.494,-0.276L0.494,-0.238L0.136,-0.238C0.137,-0.186 0.152,-0.144 0.181,-0.112C0.211,-0.08 0.248,-0.064 0.292,-0.064C0.324,-0.064 0.351,-0.07 0.374,-0.083C0.396,-0.097 0.415,-0.114 0.432,-0.135L0.487,-0.092C0.443,-0.024 0.376,0.01 0.288,0.01ZM0.276,-0.464C0.24,-0.464 0.209,-0.451 0.185,-0.424C0.16,-0.398 0.145,-0.36 0.139,-0.313L0.403,-0.313L0.403,-0.319C0.401,-0.365 0.388,-0.401 0.366,-0.426C0.344,-0.451 0.314,-0.464 0.276,-0.464Z" style="fill-rule:nonzero;"/>
                    </g>
                    <g transform="matrix(125,0,0,125,3682.51,4229.79)">
                        <path d="M0.515,-0.258C0.515,-0.178 0.496,-0.113 0.459,-0.064C0.423,-0.015 0.373,0.01 0.31,0.01C0.246,0.01 0.195,-0.011 0.159,-0.051L0.159,0.203L0.068,0.203L0.068,-0.528L0.151,-0.528L0.155,-0.47C0.192,-0.515 0.243,-0.538 0.309,-0.538C0.372,-0.538 0.422,-0.514 0.459,-0.466C0.496,-0.418 0.515,-0.352 0.515,-0.267L0.515,-0.258ZM0.424,-0.269C0.424,-0.328 0.412,-0.375 0.386,-0.41C0.361,-0.444 0.326,-0.461 0.282,-0.461C0.227,-0.461 0.186,-0.437 0.159,-0.389L0.159,-0.136C0.186,-0.088 0.227,-0.064 0.283,-0.064C0.326,-0.064 0.36,-0.081 0.386,-0.115C0.412,-0.15 0.424,-0.201 0.424,-0.269Z" style="fill-rule:nonzero;"/>
                    </g>
                    <g transform="matrix(125,0,0,125,3752.64,4229.79)">
                        <rect x="0.076" y="-0.75" width="0.09" height="0.75" style="fill-rule:nonzero;"/>
                    </g>
                    <g transform="matrix(125,0,0,125,3782.97,4229.79)">
                        <path d="M0.044,-0.269C0.044,-0.321 0.055,-0.367 0.075,-0.409C0.095,-0.45 0.124,-0.482 0.16,-0.504C0.196,-0.527 0.238,-0.538 0.284,-0.538C0.356,-0.538 0.414,-0.513 0.459,-0.463C0.503,-0.414 0.525,-0.347 0.525,-0.265L0.525,-0.258C0.525,-0.207 0.516,-0.161 0.496,-0.12C0.476,-0.079 0.448,-0.047 0.411,-0.024C0.375,-0.002 0.333,0.01 0.285,0.01C0.214,0.01 0.156,-0.015 0.111,-0.065C0.067,-0.115 0.044,-0.181 0.044,-0.263L0.044,-0.269ZM0.135,-0.258C0.135,-0.2 0.149,-0.153 0.176,-0.117C0.203,-0.082 0.24,-0.064 0.285,-0.064C0.331,-0.064 0.368,-0.082 0.395,-0.118C0.422,-0.154 0.435,-0.204 0.435,-0.269C0.435,-0.327 0.421,-0.374 0.394,-0.41C0.366,-0.446 0.33,-0.464 0.284,-0.464C0.24,-0.464 0.204,-0.446 0.176,-0.411C0.149,-0.375 0.135,-0.324 0.135,-0.258Z" style="fill-rule:nonzero;"/>
                    </g>
                    <g transform="matrix(125,0,0,125,3853.35,4229.79)">
                        <path d="M0.241,-0.132L0.364,-0.528L0.461,-0.528L0.249,0.082C0.216,0.169 0.163,0.213 0.092,0.213L0.075,0.212L0.041,0.206L0.041,0.132L0.065,0.134C0.096,0.134 0.12,0.128 0.137,0.116C0.154,0.103 0.168,0.081 0.179,0.048L0.199,-0.006L0.011,-0.528L0.109,-0.528L0.241,-0.132Z" style="fill-rule:nonzero;"/>
                    </g>
                    <g transform="matrix(125,0,0,125,3912.49,4229.79)">
                        <path d="M0.153,-0.528L0.156,-0.47C0.194,-0.515 0.247,-0.538 0.313,-0.538C0.386,-0.538 0.437,-0.51 0.463,-0.453C0.481,-0.479 0.504,-0.499 0.532,-0.515C0.56,-0.53 0.593,-0.538 0.632,-0.538C0.748,-0.538 0.807,-0.477 0.809,-0.354L0.809,-0L0.718,-0L0.718,-0.349C0.718,-0.386 0.71,-0.415 0.692,-0.433C0.675,-0.452 0.646,-0.461 0.605,-0.461C0.572,-0.461 0.544,-0.451 0.522,-0.431C0.5,-0.411 0.487,-0.384 0.483,-0.351L0.483,-0L0.393,-0L0.393,-0.346C0.393,-0.423 0.355,-0.461 0.28,-0.461C0.221,-0.461 0.18,-0.436 0.158,-0.386L0.158,-0L0.068,-0L0.068,-0.528L0.153,-0.528Z" style="fill-rule:nonzero;"/>
                    </g>
                    <g transform="matrix(125,0,0,125,4022.05,4229.79)">
                        <path d="M0.288,0.01C0.216,0.01 0.158,-0.014 0.113,-0.061C0.068,-0.108 0.045,-0.171 0.045,-0.25L0.045,-0.266C0.045,-0.319 0.055,-0.365 0.075,-0.406C0.095,-0.448 0.123,-0.48 0.159,-0.503C0.195,-0.526 0.234,-0.538 0.276,-0.538C0.345,-0.538 0.398,-0.515 0.437,-0.47C0.475,-0.425 0.494,-0.36 0.494,-0.276L0.494,-0.238L0.136,-0.238C0.137,-0.186 0.152,-0.144 0.181,-0.112C0.211,-0.08 0.248,-0.064 0.292,-0.064C0.324,-0.064 0.351,-0.07 0.374,-0.083C0.396,-0.097 0.415,-0.114 0.432,-0.135L0.487,-0.092C0.443,-0.024 0.376,0.01 0.288,0.01ZM0.276,-0.464C0.24,-0.464 0.209,-0.451 0.185,-0.424C0.16,-0.398 0.145,-0.36 0.139,-0.313L0.403,-0.313L0.403,-0.319C0.401,-0.365 0.388,-0.401 0.366,-0.426C0.344,-0.451 0.314,-0.464 0.276,-0.464Z" style="fill-rule:nonzero;"/>
                    </g>
                    <g transform="matrix(125,0,0,125,4088.27,4229.79)">
                        <path d="M0.154,-0.528L0.157,-0.462C0.197,-0.513 0.25,-0.538 0.315,-0.538C0.427,-0.538 0.483,-0.475 0.484,-0.349L0.484,-0L0.394,-0L0.394,-0.35C0.393,-0.388 0.385,-0.416 0.367,-0.434C0.35,-0.452 0.324,-0.461 0.288,-0.461C0.258,-0.461 0.233,-0.454 0.21,-0.438C0.188,-0.422 0.171,-0.402 0.159,-0.376L0.159,-0L0.068,-0L0.068,-0.528L0.154,-0.528Z" style="fill-rule:nonzero;"/>
                    </g>
                    <g transform="matrix(125,0,0,125,4157.24,4229.79)">
                        <path d="M0.191,-0.656L0.191,-0.528L0.29,-0.528L0.29,-0.458L0.191,-0.458L0.191,-0.13C0.191,-0.109 0.195,-0.093 0.204,-0.083C0.213,-0.072 0.228,-0.067 0.249,-0.067C0.259,-0.067 0.274,-0.069 0.292,-0.073L0.292,0C0.268,0.007 0.245,0.01 0.223,0.01C0.182,0.01 0.152,-0.002 0.131,-0.027C0.111,-0.051 0.101,-0.086 0.101,-0.131L0.101,-0.458L0.004,-0.458L0.004,-0.528L0.101,-0.528L0.101,-0.656L0.191,-0.656Z" style="fill-rule:nonzero;"/>
                    </g>
                    <g transform="matrix(125,0,0,125,4229.02,4229.79)">
                        <path d="M0.243,-0.123L0.374,-0.528L0.466,-0.528L0.276,-0L0.208,-0L0.016,-0.528L0.108,-0.528L0.243,-0.123Z" style="fill-rule:nonzero;"/>
                    </g>
                    <g transform="matrix(125,0,0,125,4289.56,4229.79)">
                        <path d="M0.167,-0L0.076,-0L0.076,-0.528L0.167,-0.528L0.167,-0ZM0.069,-0.668C0.069,-0.683 0.073,-0.695 0.082,-0.706C0.091,-0.716 0.104,-0.721 0.122,-0.721C0.14,-0.721 0.153,-0.716 0.162,-0.706C0.171,-0.695 0.176,-0.683 0.176,-0.668C0.176,-0.654 0.171,-0.642 0.162,-0.632C0.153,-0.622 0.14,-0.617 0.122,-0.617C0.104,-0.617 0.091,-0.622 0.082,-0.632C0.073,-0.642 0.069,-0.654 0.069,-0.668Z" style="fill-rule:nonzero;"/>
                    </g>
                    <g transform="matrix(125,0,0,125,4319.9,4229.79)">
                        <path d="M0.395,-0C0.389,-0.01 0.385,-0.029 0.382,-0.056C0.34,-0.012 0.29,0.01 0.231,0.01C0.179,0.01 0.137,-0.005 0.103,-0.034C0.07,-0.064 0.053,-0.101 0.053,-0.146C0.053,-0.201 0.074,-0.244 0.116,-0.275C0.158,-0.305 0.217,-0.32 0.292,-0.32L0.38,-0.32L0.38,-0.362C0.38,-0.393 0.371,-0.419 0.352,-0.437C0.333,-0.456 0.305,-0.465 0.269,-0.465C0.236,-0.465 0.209,-0.457 0.188,-0.441C0.166,-0.425 0.155,-0.405 0.155,-0.382L0.064,-0.382C0.064,-0.408 0.073,-0.434 0.092,-0.458C0.111,-0.483 0.136,-0.502 0.168,-0.517C0.2,-0.531 0.236,-0.538 0.274,-0.538C0.335,-0.538 0.382,-0.523 0.417,-0.492C0.451,-0.462 0.469,-0.42 0.471,-0.367L0.471,-0.124C0.471,-0.075 0.477,-0.036 0.489,-0.008L0.489,-0L0.395,-0ZM0.245,-0.069C0.273,-0.069 0.3,-0.076 0.325,-0.091C0.351,-0.105 0.369,-0.125 0.38,-0.148L0.38,-0.256L0.31,-0.256C0.199,-0.256 0.144,-0.224 0.144,-0.159C0.144,-0.131 0.153,-0.109 0.172,-0.093C0.191,-0.077 0.215,-0.069 0.245,-0.069Z" style="fill-rule:nonzero;"/>
                    </g>
                    <g transform="matrix(125,0,0,125,4418.84,4229.79)">
                        <path d="M0.629,-0.333C0.629,-0.263 0.618,-0.202 0.594,-0.15C0.571,-0.098 0.538,-0.059 0.495,-0.031C0.452,-0.004 0.402,0.01 0.344,0.01C0.288,0.01 0.239,-0.004 0.195,-0.031C0.152,-0.059 0.118,-0.098 0.094,-0.149C0.071,-0.2 0.058,-0.259 0.058,-0.326L0.058,-0.377C0.058,-0.446 0.069,-0.506 0.093,-0.559C0.117,-0.611 0.151,-0.651 0.194,-0.679C0.238,-0.707 0.287,-0.721 0.343,-0.721C0.4,-0.721 0.45,-0.707 0.494,-0.679C0.537,-0.652 0.571,-0.612 0.594,-0.56C0.618,-0.508 0.629,-0.447 0.629,-0.377L0.629,-0.333ZM0.536,-0.378C0.536,-0.463 0.519,-0.527 0.485,-0.573C0.451,-0.618 0.404,-0.64 0.343,-0.64C0.284,-0.64 0.237,-0.618 0.203,-0.573C0.169,-0.527 0.152,-0.465 0.151,-0.385L0.151,-0.333C0.151,-0.251 0.168,-0.187 0.202,-0.14C0.237,-0.093 0.284,-0.07 0.344,-0.07C0.405,-0.07 0.452,-0.092 0.485,-0.136C0.518,-0.18 0.535,-0.243 0.536,-0.326L0.536,-0.378Z" style="fill-rule:nonzero;"/>
                    </g>
                    <g transform="matrix(125,0,0,125,4504.77,4229.79)">
                        <rect x="0.089" y="-0.711" width="0.094" height="0.711" style="fill-rule:nonzero;"/>
                    </g>
                </g>
                <g transform="matrix(1,0,0,1,2186.6,-190.418)">
                    <g transform="matrix(125,0,0,125,2726.14,4229.79)">
                        <path d="M0.605,-0.226C0.597,-0.15 0.569,-0.092 0.522,-0.052C0.476,-0.011 0.413,0.01 0.336,0.01C0.252,0.01 0.185,-0.02 0.134,-0.081C0.083,-0.141 0.058,-0.221 0.058,-0.322L0.058,-0.391C0.058,-0.457 0.07,-0.515 0.094,-0.565C0.117,-0.615 0.151,-0.654 0.194,-0.68C0.237,-0.707 0.287,-0.721 0.344,-0.721C0.42,-0.721 0.48,-0.7 0.526,-0.657C0.571,-0.615 0.598,-0.557 0.605,-0.482L0.511,-0.482C0.503,-0.539 0.485,-0.58 0.458,-0.606C0.431,-0.631 0.393,-0.644 0.344,-0.644C0.284,-0.644 0.237,-0.622 0.203,-0.578C0.169,-0.533 0.152,-0.47 0.152,-0.388L0.152,-0.32C0.152,-0.242 0.168,-0.181 0.201,-0.135C0.233,-0.09 0.278,-0.067 0.336,-0.067C0.388,-0.067 0.428,-0.079 0.456,-0.102C0.484,-0.126 0.502,-0.167 0.511,-0.226L0.605,-0.226Z" style="fill-rule:nonzero;"/>
                    </g>
                    <g transform="matrix(125,0,0,125,2807.5,4229.79)">
                        <path d="M0.395,-0.052C0.359,-0.011 0.308,0.01 0.24,0.01C0.183,0.01 0.141,-0.007 0.111,-0.039C0.082,-0.072 0.067,-0.12 0.066,-0.185L0.066,-0.528L0.157,-0.528L0.157,-0.187C0.157,-0.107 0.189,-0.067 0.254,-0.067C0.323,-0.067 0.369,-0.093 0.392,-0.144L0.392,-0.528L0.482,-0.528L0.482,-0L0.396,-0L0.395,-0.052Z" style="fill-rule:nonzero;"/>
                    </g>
                    <g transform="matrix(125,0,0,125,2876.41,4229.79)">
                        <path d="M0.376,-0.14C0.376,-0.165 0.367,-0.184 0.348,-0.197C0.33,-0.211 0.298,-0.222 0.252,-0.232C0.206,-0.242 0.17,-0.253 0.143,-0.267C0.116,-0.281 0.097,-0.297 0.084,-0.316C0.071,-0.335 0.064,-0.357 0.064,-0.383C0.064,-0.427 0.083,-0.463 0.119,-0.493C0.156,-0.523 0.203,-0.538 0.26,-0.538C0.32,-0.538 0.368,-0.523 0.406,-0.492C0.443,-0.461 0.461,-0.421 0.461,-0.373L0.371,-0.373C0.371,-0.398 0.36,-0.419 0.339,-0.437C0.318,-0.455 0.292,-0.464 0.26,-0.464C0.227,-0.464 0.201,-0.457 0.183,-0.442C0.164,-0.428 0.155,-0.409 0.155,-0.386C0.155,-0.364 0.163,-0.348 0.181,-0.337C0.198,-0.326 0.229,-0.315 0.274,-0.305C0.319,-0.295 0.356,-0.283 0.384,-0.269C0.412,-0.255 0.433,-0.238 0.446,-0.219C0.46,-0.199 0.466,-0.175 0.466,-0.146C0.466,-0.099 0.447,-0.061 0.41,-0.033C0.372,-0.004 0.323,0.01 0.263,0.01C0.22,0.01 0.183,0.002 0.15,-0.013C0.118,-0.028 0.092,-0.049 0.074,-0.075C0.056,-0.102 0.046,-0.131 0.046,-0.163L0.137,-0.163C0.138,-0.132 0.15,-0.108 0.173,-0.091C0.196,-0.073 0.226,-0.064 0.263,-0.064C0.297,-0.064 0.324,-0.071 0.345,-0.085C0.366,-0.099 0.376,-0.117 0.376,-0.14Z" style="fill-rule:nonzero;"/>
                    </g>
                    <g transform="matrix(125,0,0,125,2940.87,4229.79)">
                        <path d="M0.191,-0.656L0.191,-0.528L0.29,-0.528L0.29,-0.458L0.191,-0.458L0.191,-0.13C0.191,-0.109 0.195,-0.093 0.204,-0.083C0.213,-0.072 0.228,-0.067 0.249,-0.067C0.259,-0.067 0.274,-0.069 0.292,-0.073L0.292,0C0.268,0.007 0.245,0.01 0.223,0.01C0.182,0.01 0.152,-0.002 0.131,-0.027C0.111,-0.051 0.101,-0.086 0.101,-0.131L0.101,-0.458L0.004,-0.458L0.004,-0.528L0.101,-0.528L0.101,-0.656L0.191,-0.656Z" style="fill-rule:nonzero;"/>
                    </g>
                    <g transform="matrix(125,0,0,125,2980.48,4229.79)">
                        <path d="M0.044,-0.269C0.044,-0.321 0.055,-0.367 0.075,-0.409C0.095,-0.45 0.124,-0.482 0.16,-0.504C0.196,-0.527 0.238,-0.538 0.284,-0.538C0.356,-0.538 0.414,-0.513 0.459,-0.463C0.503,-0.414 0.525,-0.347 0.525,-0.265L0.525,-0.258C0.525,-0.207 0.516,-0.161 0.496,-0.12C0.476,-0.079 0.448,-0.047 0.411,-0.024C0.375,-0.002 0.333,0.01 0.285,0.01C0.214,0.01 0.156,-0.015 0.111,-0.065C0.067,-0.115 0.044,-0.181 0.044,-0.263L0.044,-0.269ZM0.135,-0.258C0.135,-0.2 0.149,-0.153 0.176,-0.117C0.203,-0.082 0.24,-0.064 0.285,-0.064C0.331,-0.064 0.368,-0.082 0.395,-0.118C0.422,-0.154 0.435,-0.204 0.435,-0.269C0.435,-0.327 0.421,-0.374 0.394,-0.41C0.366,-0.446 0.33,-0.464 0.284,-0.464C0.24,-0.464 0.204,-0.446 0.176,-0.411C0.149,-0.375 0.135,-0.324 0.135,-0.258Z" style="fill-rule:nonzero;"/>
                    </g>
                    <g transform="matrix(125,0,0,125,3051.77,4229.79)">
                        <path d="M0.153,-0.528L0.156,-0.47C0.194,-0.515 0.247,-0.538 0.313,-0.538C0.386,-0.538 0.437,-0.51 0.463,-0.453C0.481,-0.479 0.504,-0.499 0.532,-0.515C0.56,-0.53 0.593,-0.538 0.632,-0.538C0.748,-0.538 0.807,-0.477 0.809,-0.354L0.809,-0L0.718,-0L0.718,-0.349C0.718,-0.386 0.71,-0.415 0.692,-0.433C0.675,-0.452 0.646,-0.461 0.605,-0.461C0.572,-0.461 0.544,-0.451 0.522,-0.431C0.5,-0.411 0.487,-0.384 0.483,-0.351L0.483,-0L0.393,-0L0.393,-0.346C0.393,-0.423 0.355,-0.461 0.28,-0.461C0.221,-0.461 0.18,-0.436 0.158,-0.386L0.158,-0L0.068,-0L0.068,-0.528L0.153,-0.528Z" style="fill-rule:nonzero;"/>
                    </g>
                    <g transform="matrix(125,0,0,125,3192.27,4229.79)">
                        <path d="M0.607,-0.093C0.583,-0.059 0.55,-0.033 0.507,-0.016C0.463,0.001 0.413,0.01 0.356,0.01C0.298,0.01 0.247,-0.004 0.202,-0.031C0.157,-0.058 0.122,-0.097 0.097,-0.147C0.073,-0.197 0.06,-0.255 0.06,-0.321L0.06,-0.383C0.06,-0.49 0.085,-0.573 0.135,-0.632C0.184,-0.691 0.255,-0.721 0.345,-0.721C0.419,-0.721 0.479,-0.702 0.524,-0.664C0.57,-0.626 0.597,-0.572 0.607,-0.502L0.514,-0.502C0.496,-0.597 0.44,-0.644 0.346,-0.644C0.283,-0.644 0.235,-0.622 0.203,-0.578C0.17,-0.534 0.154,-0.47 0.154,-0.386L0.154,-0.328C0.154,-0.248 0.172,-0.185 0.208,-0.138C0.245,-0.09 0.294,-0.067 0.356,-0.067C0.392,-0.067 0.422,-0.071 0.449,-0.079C0.475,-0.086 0.497,-0.1 0.514,-0.118L0.514,-0.277L0.35,-0.277L0.35,-0.354L0.607,-0.354L0.607,-0.093Z" style="fill-rule:nonzero;"/>
                    </g>
                    <g transform="matrix(125,0,0,125,3277.41,4229.79)">
                        <path d="M0.395,-0.052C0.359,-0.011 0.308,0.01 0.24,0.01C0.183,0.01 0.141,-0.007 0.111,-0.039C0.082,-0.072 0.067,-0.12 0.066,-0.185L0.066,-0.528L0.157,-0.528L0.157,-0.187C0.157,-0.107 0.189,-0.067 0.254,-0.067C0.323,-0.067 0.369,-0.093 0.392,-0.144L0.392,-0.528L0.482,-0.528L0.482,-0L0.396,-0L0.395,-0.052Z" style="fill-rule:nonzero;"/>
                    </g>
                    <g transform="matrix(125,0,0,125,3346.32,4229.79)">
                        <path d="M0.167,-0L0.076,-0L0.076,-0.528L0.167,-0.528L0.167,-0ZM0.069,-0.668C0.069,-0.683 0.073,-0.695 0.082,-0.706C0.091,-0.716 0.104,-0.721 0.122,-0.721C0.14,-0.721 0.153,-0.716 0.162,-0.706C0.171,-0.695 0.176,-0.683 0.176,-0.668C0.176,-0.654 0.171,-0.642 0.162,-0.632C0.153,-0.622 0.14,-0.617 0.122,-0.617C0.104,-0.617 0.091,-0.622 0.082,-0.632C0.073,-0.642 0.069,-0.654 0.069,-0.668Z" style="fill-rule:nonzero;"/>
                    </g>
                    <g transform="matrix(125,0,0,125,3376.66,4229.79)">
                        <path d="M0.046,-0.269C0.046,-0.35 0.066,-0.415 0.104,-0.464C0.142,-0.513 0.193,-0.538 0.255,-0.538C0.317,-0.538 0.366,-0.517 0.402,-0.475L0.402,-0.75L0.492,-0.75L0.492,-0L0.409,-0L0.405,-0.057C0.369,-0.012 0.318,0.01 0.254,0.01C0.193,0.01 0.143,-0.015 0.104,-0.065C0.066,-0.116 0.046,-0.181 0.046,-0.262L0.046,-0.269ZM0.137,-0.258C0.137,-0.198 0.149,-0.152 0.174,-0.118C0.199,-0.084 0.233,-0.067 0.276,-0.067C0.334,-0.067 0.375,-0.093 0.402,-0.144L0.402,-0.387C0.375,-0.437 0.333,-0.461 0.277,-0.461C0.233,-0.461 0.199,-0.444 0.174,-0.41C0.149,-0.376 0.137,-0.325 0.137,-0.258Z" style="fill-rule:nonzero;"/>
                    </g>
                    <g transform="matrix(125,0,0,125,3447.15,4229.79)">
                        <path d="M0.288,0.01C0.216,0.01 0.158,-0.014 0.113,-0.061C0.068,-0.108 0.045,-0.171 0.045,-0.25L0.045,-0.266C0.045,-0.319 0.055,-0.365 0.075,-0.406C0.095,-0.448 0.123,-0.48 0.159,-0.503C0.195,-0.526 0.234,-0.538 0.276,-0.538C0.345,-0.538 0.398,-0.515 0.437,-0.47C0.475,-0.425 0.494,-0.36 0.494,-0.276L0.494,-0.238L0.136,-0.238C0.137,-0.186 0.152,-0.144 0.181,-0.112C0.211,-0.08 0.248,-0.064 0.292,-0.064C0.324,-0.064 0.351,-0.07 0.374,-0.083C0.396,-0.097 0.415,-0.114 0.432,-0.135L0.487,-0.092C0.443,-0.024 0.376,0.01 0.288,0.01ZM0.276,-0.464C0.24,-0.464 0.209,-0.451 0.185,-0.424C0.16,-0.398 0.145,-0.36 0.139,-0.313L0.403,-0.313L0.403,-0.319C0.401,-0.365 0.388,-0.401 0.366,-0.426C0.344,-0.451 0.314,-0.464 0.276,-0.464Z" style="fill-rule:nonzero;"/>
                    </g>
                    <g transform="matrix(125,0,0,125,3513.38,4229.79)">
                        <path d="M0.376,-0.14C0.376,-0.165 0.367,-0.184 0.348,-0.197C0.33,-0.211 0.298,-0.222 0.252,-0.232C0.206,-0.242 0.17,-0.253 0.143,-0.267C0.116,-0.281 0.097,-0.297 0.084,-0.316C0.071,-0.335 0.064,-0.357 0.064,-0.383C0.064,-0.427 0.083,-0.463 0.119,-0.493C0.156,-0.523 0.203,-0.538 0.26,-0.538C0.32,-0.538 0.368,-0.523 0.406,-0.492C0.443,-0.461 0.461,-0.421 0.461,-0.373L0.371,-0.373C0.371,-0.398 0.36,-0.419 0.339,-0.437C0.318,-0.455 0.292,-0.464 0.26,-0.464C0.227,-0.464 0.201,-0.457 0.183,-0.442C0.164,-0.428 0.155,-0.409 0.155,-0.386C0.155,-0.364 0.163,-0.348 0.181,-0.337C0.198,-0.326 0.229,-0.315 0.274,-0.305C0.319,-0.295 0.356,-0.283 0.384,-0.269C0.412,-0.255 0.433,-0.238 0.446,-0.219C0.46,-0.199 0.466,-0.175 0.466,-0.146C0.466,-0.099 0.447,-0.061 0.41,-0.033C0.372,-0.004 0.323,0.01 0.263,0.01C0.22,0.01 0.183,0.002 0.15,-0.013C0.118,-0.028 0.092,-0.049 0.074,-0.075C0.056,-0.102 0.046,-0.131 0.046,-0.163L0.137,-0.163C0.138,-0.132 0.15,-0.108 0.173,-0.091C0.196,-0.073 0.226,-0.064 0.263,-0.064C0.297,-0.064 0.324,-0.071 0.345,-0.085C0.366,-0.099 0.376,-0.117 0.376,-0.14Z" style="fill-rule:nonzero;"/>
                    </g>
                </g>
            </g>
            <g transform="matrix(1,0,0,0.571429,0,1802.02)">
                <g transform="matrix(0.92,0,0,1,137.008,425.197)">
                    <path d="M3779.53,3862.2C3779.53,3816.57 3756.52,3779.53 3728.18,3779.53L2649.78,3779.53C2621.43,3779.53 2598.43,3816.57 2598.43,3862.2L2598.43,4027.56C2598.43,4073.19 2621.43,4110.24 2649.78,4110.24L3728.18,4110.24C3756.52,4110.24 3779.53,4073.19 3779.53,4027.56L3779.53,3862.2Z" style="fill:#d9d9d9;"/>
                </g>
                <g transform="matrix(0.92,0,0,1,1270.87,425.197)">
                    <path d="M3779.53,3862.2C3779.53,3816.57 3756.52,3779.53 3728.18,3779.53L2649.78,3779.53C2621.43,3779.53 2598.43,3816.57 2598.43,3862.2L2598.43,4027.56C2598.43,4073.19 2621.43,4110.24 2649.78,4110.24L3728.18,4110.24C3756.52,4110.24 3779.53,4073.19 3779.53,4027.56L3779.53,3862.2Z" style="fill:#d9d9d9;"/>
                </g>
                <g transform="matrix(0.92,0,0,1,2404.72,425.197)">
                    <path d="M3779.53,3862.2C3779.53,3816.57 3756.52,3779.53 3728.18,3779.53L2649.78,3779.53C2621.43,3779.53 2598.43,3816.57 2598.43,3862.2L2598.43,4027.56C2598.43,4073.19 2621.43,4110.24 2649.78,4110.24L3728.18,4110.24C3756.52,4110.24 3779.53,4073.19 3779.53,4027.56L3779.53,3862.2Z" style="fill:#d9d9d9;"/>
                </g>
                <g transform="matrix(1,0,0,1.75,-81.1208,-2826)">
                    <g transform="matrix(83.3333,0,0,83.3333,2663.34,4143.3)">
                        <path d="M0.475,-0.186L0.177,-0.186L0.11,-0L0.014,-0L0.285,-0.711L0.367,-0.711L0.639,-0L0.543,-0L0.475,-0.186ZM0.206,-0.263L0.447,-0.263L0.326,-0.595L0.206,-0.263Z" style="fill-rule:nonzero;"/>
                    </g>
                    <g transform="matrix(83.3333,0,0,83.3333,2717.7,4143.3)">
                        <path d="M0.28,-0.064C0.313,-0.064 0.341,-0.074 0.365,-0.093C0.389,-0.113 0.402,-0.137 0.405,-0.167L0.49,-0.167C0.489,-0.136 0.478,-0.107 0.459,-0.08C0.44,-0.053 0.414,-0.031 0.382,-0.015C0.35,0.002 0.316,0.01 0.28,0.01C0.208,0.01 0.151,-0.014 0.109,-0.062C0.066,-0.11 0.045,-0.176 0.045,-0.259L0.045,-0.274C0.045,-0.326 0.054,-0.372 0.073,-0.412C0.092,-0.452 0.119,-0.483 0.155,-0.505C0.19,-0.527 0.232,-0.538 0.28,-0.538C0.339,-0.538 0.388,-0.52 0.427,-0.485C0.467,-0.449 0.488,-0.403 0.49,-0.347L0.405,-0.347C0.402,-0.381 0.389,-0.409 0.366,-0.431C0.343,-0.453 0.314,-0.464 0.28,-0.464C0.234,-0.464 0.198,-0.447 0.173,-0.414C0.148,-0.381 0.135,-0.333 0.135,-0.271L0.135,-0.254C0.135,-0.193 0.148,-0.146 0.173,-0.113C0.198,-0.08 0.234,-0.064 0.28,-0.064Z" style="fill-rule:nonzero;"/>
                    </g>
                    <g transform="matrix(83.3333,0,0,83.3333,2761.32,4143.3)">
                        <path d="M0.395,-0C0.389,-0.01 0.385,-0.029 0.382,-0.056C0.34,-0.012 0.29,0.01 0.231,0.01C0.179,0.01 0.137,-0.005 0.103,-0.034C0.07,-0.064 0.053,-0.101 0.053,-0.146C0.053,-0.201 0.074,-0.244 0.116,-0.275C0.158,-0.305 0.217,-0.32 0.292,-0.32L0.38,-0.32L0.38,-0.362C0.38,-0.393 0.371,-0.419 0.352,-0.437C0.333,-0.456 0.305,-0.465 0.269,-0.465C0.236,-0.465 0.209,-0.457 0.188,-0.441C0.166,-0.425 0.155,-0.405 0.155,-0.382L0.064,-0.382C0.064,-0.408 0.073,-0.434 0.092,-0.458C0.111,-0.483 0.136,-0.502 0.168,-0.517C0.2,-0.531 0.236,-0.538 0.274,-0.538C0.335,-0.538 0.382,-0.523 0.417,-0.492C0.451,-0.462 0.469,-0.42 0.471,-0.367L0.471,-0.124C0.471,-0.075 0.477,-0.036 0.489,-0.008L0.489,-0L0.395,-0ZM0.245,-0.069C0.273,-0.069 0.3,-0.076 0.325,-0.091C0.351,-0.105 0.369,-0.125 0.38,-0.148L0.38,-0.256L0.31,-0.256C0.199,-0.256 0.144,-0.224 0.144,-0.159C0.144,-0.131 0.153,-0.109 0.172,-0.093C0.191,-0.077 0.215,-0.069 0.245,-0.069Z" style="fill-rule:nonzero;"/>
                    </g>
                    <g transform="matrix(83.3333,0,0,83.3333,2806.65,4143.3)">
                        <path d="M0.046,-0.269C0.046,-0.35 0.066,-0.415 0.104,-0.464C0.142,-0.513 0.193,-0.538 0.255,-0.538C0.317,-0.538 0.366,-0.517 0.402,-0.475L0.402,-0.75L0.492,-0.75L0.492,-0L0.409,-0L0.405,-0.057C0.369,-0.012 0.318,0.01 0.254,0.01C0.193,0.01 0.143,-0.015 0.104,-0.065C0.066,-0.116 0.046,-0.181 0.046,-0.262L0.046,-0.269ZM0.137,-0.258C0.137,-0.198 0.149,-0.152 0.174,-0.118C0.199,-0.084 0.233,-0.067 0.276,-0.067C0.334,-0.067 0.375,-0.093 0.402,-0.144L0.402,-0.387C0.375,-0.437 0.333,-0.461 0.277,-0.461C0.233,-0.461 0.199,-0.444 0.174,-0.41C0.149,-0.376 0.137,-0.325 0.137,-0.258Z" style="fill-rule:nonzero;"/>
                    </g>
                    <g transform="matrix(83.3333,0,0,83.3333,2853.65,4143.3)">
                        <path d="M0.288,0.01C0.216,0.01 0.158,-0.014 0.113,-0.061C0.068,-0.108 0.045,-0.171 0.045,-0.25L0.045,-0.266C0.045,-0.319 0.055,-0.365 0.075,-0.406C0.095,-0.448 0.123,-0.48 0.159,-0.503C0.195,-0.526 0.234,-0.538 0.276,-0.538C0.345,-0.538 0.398,-0.515 0.437,-0.47C0.475,-0.425 0.494,-0.36 0.494,-0.276L0.494,-0.238L0.136,-0.238C0.137,-0.186 0.152,-0.144 0.181,-0.112C0.211,-0.08 0.248,-0.064 0.292,-0.064C0.324,-0.064 0.351,-0.07 0.374,-0.083C0.396,-0.097 0.415,-0.114 0.432,-0.135L0.487,-0.092C0.443,-0.024 0.376,0.01 0.288,0.01ZM0.276,-0.464C0.24,-0.464 0.209,-0.451 0.185,-0.424C0.16,-0.398 0.145,-0.36 0.139,-0.313L0.403,-0.313L0.403,-0.319C0.401,-0.365 0.388,-0.401 0.366,-0.426C0.344,-0.451 0.314,-0.464 0.276,-0.464Z" style="fill-rule:nonzero;"/>
                    </g>
                    <g transform="matrix(83.3333,0,0,83.3333,2897.8,4143.3)">
                        <path d="M0.153,-0.528L0.156,-0.47C0.194,-0.515 0.247,-0.538 0.313,-0.538C0.386,-0.538 0.437,-0.51 0.463,-0.453C0.481,-0.479 0.504,-0.499 0.532,-0.515C0.56,-0.53 0.593,-0.538 0.632,-0.538C0.748,-0.538 0.807,-0.477 0.809,-0.354L0.809,-0L0.718,-0L0.718,-0.349C0.718,-0.386 0.71,-0.415 0.692,-0.433C0.675,-0.452 0.646,-0.461 0.605,-0.461C0.572,-0.461 0.544,-0.451 0.522,-0.431C0.5,-0.411 0.487,-0.384 0.483,-0.351L0.483,-0L0.393,-0L0.393,-0.346C0.393,-0.423 0.355,-0.461 0.28,-0.461C0.221,-0.461 0.18,-0.436 0.158,-0.386L0.158,-0L0.068,-0L0.068,-0.528L0.153,-0.528Z" style="fill-rule:nonzero;"/>
                    </g>
                    <g transform="matrix(83.3333,0,0,83.3333,2970.83,4143.3)">
                        <path d="M0.167,-0L0.076,-0L0.076,-0.528L0.167,-0.528L0.167,-0ZM0.069,-0.668C0.069,-0.683 0.073,-0.695 0.082,-0.706C0.091,-0.716 0.104,-0.721 0.122,-0.721C0.14,-0.721 0.153,-0.716 0.162,-0.706C0.171,-0.695 0.176,-0.683 0.176,-0.668C0.176,-0.654 0.171,-0.642 0.162,-0.632C0.153,-0.622 0.14,-0.617 0.122,-0.617C0.104,-0.617 0.091,-0.622 0.082,-0.632C0.073,-0.642 0.069,-0.654 0.069,-0.668Z" style="fill-rule:nonzero;"/>
                    </g>
                    <g transform="matrix(83.3333,0,0,83.3333,2991.06,4143.3)">
                        <path d="M0.28,-0.064C0.313,-0.064 0.341,-0.074 0.365,-0.093C0.389,-0.113 0.402,-0.137 0.405,-0.167L0.49,-0.167C0.489,-0.136 0.478,-0.107 0.459,-0.08C0.44,-0.053 0.414,-0.031 0.382,-0.015C0.35,0.002 0.316,0.01 0.28,0.01C0.208,0.01 0.151,-0.014 0.109,-0.062C0.066,-0.11 0.045,-0.176 0.045,-0.259L0.045,-0.274C0.045,-0.326 0.054,-0.372 0.073,-0.412C0.092,-0.452 0.119,-0.483 0.155,-0.505C0.19,-0.527 0.232,-0.538 0.28,-0.538C0.339,-0.538 0.388,-0.52 0.427,-0.485C0.467,-0.449 0.488,-0.403 0.49,-0.347L0.405,-0.347C0.402,-0.381 0.389,-0.409 0.366,-0.431C0.343,-0.453 0.314,-0.464 0.28,-0.464C0.234,-0.464 0.198,-0.447 0.173,-0.414C0.148,-0.381 0.135,-0.333 0.135,-0.271L0.135,-0.254C0.135,-0.193 0.148,-0.146 0.173,-0.113C0.198,-0.08 0.234,-0.064 0.28,-0.064Z" style="fill-rule:nonzero;"/>
                    </g>
                    <g transform="matrix(83.3333,0,0,83.3333,3055.31,4143.3)">
                        <path d="M0.605,-0.226C0.597,-0.15 0.569,-0.092 0.522,-0.052C0.476,-0.011 0.413,0.01 0.336,0.01C0.252,0.01 0.185,-0.02 0.134,-0.081C0.083,-0.141 0.058,-0.221 0.058,-0.322L0.058,-0.391C0.058,-0.457 0.07,-0.515 0.094,-0.565C0.117,-0.615 0.151,-0.654 0.194,-0.68C0.237,-0.707 0.287,-0.721 0.344,-0.721C0.42,-0.721 0.48,-0.7 0.526,-0.657C0.571,-0.615 0.598,-0.557 0.605,-0.482L0.511,-0.482C0.503,-0.539 0.485,-0.58 0.458,-0.606C0.431,-0.631 0.393,-0.644 0.344,-0.644C0.284,-0.644 0.237,-0.622 0.203,-0.578C0.169,-0.533 0.152,-0.47 0.152,-0.388L0.152,-0.32C0.152,-0.242 0.168,-0.181 0.201,-0.135C0.233,-0.09 0.278,-0.067 0.336,-0.067C0.388,-0.067 0.428,-0.079 0.456,-0.102C0.484,-0.126 0.502,-0.167 0.511,-0.226L0.605,-0.226Z" style="fill-rule:nonzero;"/>
                    </g>
                    <g transform="matrix(83.3333,0,0,83.3333,3109.55,4143.3)">
                        <rect x="0.076" y="-0.75" width="0.09" height="0.75" style="fill-rule:nonzero;"/>
                    </g>
                    <g transform="matrix(83.3333,0,0,83.3333,3129.77,4143.3)">
                        <path d="M0.044,-0.269C0.044,-0.321 0.055,-0.367 0.075,-0.409C0.095,-0.45 0.124,-0.482 0.16,-0.504C0.196,-0.527 0.238,-0.538 0.284,-0.538C0.356,-0.538 0.414,-0.513 0.459,-0.463C0.503,-0.414 0.525,-0.347 0.525,-0.265L0.525,-0.258C0.525,-0.207 0.516,-0.161 0.496,-0.12C0.476,-0.079 0.448,-0.047 0.411,-0.024C0.375,-0.002 0.333,0.01 0.285,0.01C0.214,0.01 0.156,-0.015 0.111,-0.065C0.067,-0.115 0.044,-0.181 0.044,-0.263L0.044,-0.269ZM0.135,-0.258C0.135,-0.2 0.149,-0.153 0.176,-0.117C0.203,-0.082 0.24,-0.064 0.285,-0.064C0.331,-0.064 0.368,-0.082 0.395,-0.118C0.422,-0.154 0.435,-0.204 0.435,-0.269C0.435,-0.327 0.421,-0.374 0.394,-0.41C0.366,-0.446 0.33,-0.464 0.284,-0.464C0.24,-0.464 0.204,-0.446 0.176,-0.411C0.149,-0.375 0.135,-0.324 0.135,-0.258Z" style="fill-rule:nonzero;"/>
                    </g>
                    <g transform="matrix(83.3333,0,0,83.3333,3177.3,4143.3)">
                        <path d="M0.395,-0.052C0.359,-0.011 0.308,0.01 0.24,0.01C0.183,0.01 0.141,-0.007 0.111,-0.039C0.082,-0.072 0.067,-0.12 0.066,-0.185L0.066,-0.528L0.157,-0.528L0.157,-0.187C0.157,-0.107 0.189,-0.067 0.254,-0.067C0.323,-0.067 0.369,-0.093 0.392,-0.144L0.392,-0.528L0.482,-0.528L0.482,-0L0.396,-0L0.395,-0.052Z" style="fill-rule:nonzero;"/>
                    </g>
                    <g transform="matrix(83.3333,0,0,83.3333,3223.24,4143.3)">
                        <path d="M0.046,-0.269C0.046,-0.35 0.066,-0.415 0.104,-0.464C0.142,-0.513 0.193,-0.538 0.255,-0.538C0.317,-0.538 0.366,-0.517 0.402,-0.475L0.402,-0.75L0.492,-0.75L0.492,-0L0.409,-0L0.405,-0.057C0.369,-0.012 0.318,0.01 0.254,0.01C0.193,0.01 0.143,-0.015 0.104,-0.065C0.066,-0.116 0.046,-0.181 0.046,-0.262L0.046,-0.269ZM0.137,-0.258C0.137,-0.198 0.149,-0.152 0.174,-0.118C0.199,-0.084 0.233,-0.067 0.276,-0.067C0.334,-0.067 0.375,-0.093 0.402,-0.144L0.402,-0.387C0.375,-0.437 0.333,-0.461 0.277,-0.461C0.233,-0.461 0.199,-0.444 0.174,-0.41C0.149,-0.376 0.137,-0.325 0.137,-0.258Z" style="fill-rule:nonzero;"/>
                    </g>
                    <g transform="matrix(83.3333,0,0,83.3333,3290.86,4143.3)">
                        <path d="M0.176,-0.278L0.176,-0L0.083,-0L0.083,-0.711L0.345,-0.711C0.423,-0.711 0.483,-0.691 0.528,-0.651C0.572,-0.612 0.594,-0.559 0.594,-0.494C0.594,-0.425 0.572,-0.372 0.529,-0.334C0.486,-0.297 0.424,-0.278 0.344,-0.278L0.176,-0.278ZM0.176,-0.355L0.345,-0.355C0.395,-0.355 0.433,-0.367 0.46,-0.39C0.487,-0.414 0.5,-0.448 0.5,-0.493C0.5,-0.535 0.487,-0.569 0.46,-0.595C0.433,-0.62 0.397,-0.633 0.35,-0.634L0.176,-0.634L0.176,-0.355Z" style="fill-rule:nonzero;"/>
                    </g>
                    <g transform="matrix(83.3333,0,0,83.3333,3343.43,4143.3)">
                        <path d="M0.324,-0.447C0.31,-0.45 0.295,-0.451 0.279,-0.451C0.22,-0.451 0.18,-0.425 0.159,-0.375L0.159,-0L0.068,-0L0.068,-0.528L0.156,-0.528L0.158,-0.467C0.187,-0.514 0.229,-0.538 0.284,-0.538C0.301,-0.538 0.315,-0.536 0.324,-0.531L0.324,-0.447Z" style="fill-rule:nonzero;"/>
                    </g>
                    <g transform="matrix(83.3333,0,0,83.3333,3370.82,4143.3)">
                        <path d="M0.044,-0.269C0.044,-0.321 0.055,-0.367 0.075,-0.409C0.095,-0.45 0.124,-0.482 0.16,-0.504C0.196,-0.527 0.238,-0.538 0.284,-0.538C0.356,-0.538 0.414,-0.513 0.459,-0.463C0.503,-0.414 0.525,-0.347 0.525,-0.265L0.525,-0.258C0.525,-0.207 0.516,-0.161 0.496,-0.12C0.476,-0.079 0.448,-0.047 0.411,-0.024C0.375,-0.002 0.333,0.01 0.285,0.01C0.214,0.01 0.156,-0.015 0.111,-0.065C0.067,-0.115 0.044,-0.181 0.044,-0.263L0.044,-0.269ZM0.135,-0.258C0.135,-0.2 0.149,-0.153 0.176,-0.117C0.203,-0.082 0.24,-0.064 0.285,-0.064C0.331,-0.064 0.368,-0.082 0.395,-0.118C0.422,-0.154 0.435,-0.204 0.435,-0.269C0.435,-0.327 0.421,-0.374 0.394,-0.41C0.366,-0.446 0.33,-0.464 0.284,-0.464C0.24,-0.464 0.204,-0.446 0.176,-0.411C0.149,-0.375 0.135,-0.324 0.135,-0.258Z" style="fill-rule:nonzero;"/>
                    </g>
                    <g transform="matrix(83.3333,0,0,83.3333,3417.73,4143.3)">
                        <path d="M0.243,-0.123L0.374,-0.528L0.466,-0.528L0.276,-0L0.208,-0L0.016,-0.528L0.108,-0.528L0.243,-0.123Z" style="fill-rule:nonzero;"/>
                    </g>
                    <g transform="matrix(83.3333,0,0,83.3333,3458.1,4143.3)">
                        <path d="M0.167,-0L0.076,-0L0.076,-0.528L0.167,-0.528L0.167,-0ZM0.069,-0.668C0.069,-0.683 0.073,-0.695 0.082,-0.706C0.091,-0.716 0.104,-0.721 0.122,-0.721C0.14,-0.721 0.153,-0.716 0.162,-0.706C0.171,-0.695 0.176,-0.683 0.176,-0.668C0.176,-0.654 0.171,-0.642 0.162,-0.632C0.153,-0.622 0.14,-0.617 0.122,-0.617C0.104,-0.617 0.091,-0.622 0.082,-0.632C0.073,-0.642 0.069,-0.654 0.069,-0.668Z" style="fill-rule:nonzero;"/>
                    </g>
                    <g transform="matrix(83.3333,0,0,83.3333,3478.32,4143.3)">
                        <path d="M0.046,-0.269C0.046,-0.35 0.066,-0.415 0.104,-0.464C0.142,-0.513 0.193,-0.538 0.255,-0.538C0.317,-0.538 0.366,-0.517 0.402,-0.475L0.402,-0.75L0.492,-0.75L0.492,-0L0.409,-0L0.405,-0.057C0.369,-0.012 0.318,0.01 0.254,0.01C0.193,0.01 0.143,-0.015 0.104,-0.065C0.066,-0.116 0.046,-0.181 0.046,-0.262L0.046,-0.269ZM0.137,-0.258C0.137,-0.198 0.149,-0.152 0.174,-0.118C0.199,-0.084 0.233,-0.067 0.276,-0.067C0.334,-0.067 0.375,-0.093 0.402,-0.144L0.402,-0.387C0.375,-0.437 0.333,-0.461 0.277,-0.461C0.233,-0.461 0.199,-0.444 0.174,-0.41C0.149,-0.376 0.137,-0.325 0.137,-0.258Z" style="fill-rule:nonzero;"/>
                    </g>
                    <g transform="matrix(83.3333,0,0,83.3333,3525.32,4143.3)">
                        <path d="M0.288,0.01C0.216,0.01 0.158,-0.014 0.113,-0.061C0.068,-0.108 0.045,-0.171 0.045,-0.25L0.045,-0.266C0.045,-0.319 0.055,-0.365 0.075,-0.406C0.095,-0.448 0.123,-0.48 0.159,-0.503C0.195,-0.526 0.234,-0.538 0.276,-0.538C0.345,-0.538 0.398,-0.515 0.437,-0.47C0.475,-0.425 0.494,-0.36 0.494,-0.276L0.494,-0.238L0.136,-0.238C0.137,-0.186 0.152,-0.144 0.181,-0.112C0.211,-0.08 0.248,-0.064 0.292,-0.064C0.324,-0.064 0.351,-0.07 0.374,-0.083C0.396,-0.097 0.415,-0.114 0.432,-0.135L0.487,-0.092C0.443,-0.024 0.376,0.01 0.288,0.01ZM0.276,-0.464C0.24,-0.464 0.209,-0.451 0.185,-0.424C0.16,-0.398 0.145,-0.36 0.139,-0.313L0.403,-0.313L0.403,-0.319C0.401,-0.365 0.388,-0.401 0.366,-0.426C0.344,-0.451 0.314,-0.464 0.276,-0.464Z" style="fill-rule:nonzero;"/>
                    </g>
                    <g transform="matrix(83.3333,0,0,83.3333,3569.47,4143.3)">
                        <path d="M0.324,-0.447C0.31,-0.45 0.295,-0.451 0.279,-0.451C0.22,-0.451 0.18,-0.425 0.159,-0.375L0.159,-0L0.068,-0L0.068,-0.528L0.156,-0.528L0.158,-0.467C0.187,-0.514 0.229,-0.538 0.284,-0.538C0.301,-0.538 0.315,-0.536 0.324,-0.531L0.324,-0.447Z" style="fill-rule:nonzero;"/>
                    </g>
                    <g transform="matrix(83.3333,0,0,83.3333,3597.67,4143.3)">
                        <path d="M0.376,-0.14C0.376,-0.165 0.367,-0.184 0.348,-0.197C0.33,-0.211 0.298,-0.222 0.252,-0.232C0.206,-0.242 0.17,-0.253 0.143,-0.267C0.116,-0.281 0.097,-0.297 0.084,-0.316C0.071,-0.335 0.064,-0.357 0.064,-0.383C0.064,-0.427 0.083,-0.463 0.119,-0.493C0.156,-0.523 0.203,-0.538 0.26,-0.538C0.32,-0.538 0.368,-0.523 0.406,-0.492C0.443,-0.461 0.461,-0.421 0.461,-0.373L0.371,-0.373C0.371,-0.398 0.36,-0.419 0.339,-0.437C0.318,-0.455 0.292,-0.464 0.26,-0.464C0.227,-0.464 0.201,-0.457 0.183,-0.442C0.164,-0.428 0.155,-0.409 0.155,-0.386C0.155,-0.364 0.163,-0.348 0.181,-0.337C0.198,-0.326 0.229,-0.315 0.274,-0.305C0.319,-0.295 0.356,-0.283 0.384,-0.269C0.412,-0.255 0.433,-0.238 0.446,-0.219C0.46,-0.199 0.466,-0.175 0.466,-0.146C0.466,-0.099 0.447,-0.061 0.41,-0.033C0.372,-0.004 0.323,0.01 0.263,0.01C0.22,0.01 0.183,0.002 0.15,-0.013C0.118,-0.028 0.092,-0.049 0.074,-0.075C0.056,-0.102 0.046,-0.131 0.046,-0.163L0.137,-0.163C0.138,-0.132 0.15,-0.108 0.173,-0.091C0.196,-0.073 0.226,-0.064 0.263,-0.064C0.297,-0.064 0.324,-0.071 0.345,-0.085C0.366,-0.099 0.376,-0.117 0.376,-0.14Z" style="fill-rule:nonzero;"/>
                    </g>
                </g>
                <g transform="matrix(1,0,0,1.75,1052.74,-2826)">
                    <g transform="matrix(83.3333,0,0,83.3333,2788.32,4143.3)">
                        <path d="M0.605,-0.226C0.597,-0.15 0.569,-0.092 0.522,-0.052C0.476,-0.011 0.413,0.01 0.336,0.01C0.252,0.01 0.185,-0.02 0.134,-0.081C0.083,-0.141 0.058,-0.221 0.058,-0.322L0.058,-0.391C0.058,-0.457 0.07,-0.515 0.094,-0.565C0.117,-0.615 0.151,-0.654 0.194,-0.68C0.237,-0.707 0.287,-0.721 0.344,-0.721C0.42,-0.721 0.48,-0.7 0.526,-0.657C0.571,-0.615 0.598,-0.557 0.605,-0.482L0.511,-0.482C0.503,-0.539 0.485,-0.58 0.458,-0.606C0.431,-0.631 0.393,-0.644 0.344,-0.644C0.284,-0.644 0.237,-0.622 0.203,-0.578C0.169,-0.533 0.152,-0.47 0.152,-0.388L0.152,-0.32C0.152,-0.242 0.168,-0.181 0.201,-0.135C0.233,-0.09 0.278,-0.067 0.336,-0.067C0.388,-0.067 0.428,-0.079 0.456,-0.102C0.484,-0.126 0.502,-0.167 0.511,-0.226L0.605,-0.226Z" style="fill-rule:nonzero;"/>
                    </g>
                    <g transform="matrix(83.3333,0,0,83.3333,2842.56,4143.3)">
                        <path d="M0.044,-0.269C0.044,-0.321 0.055,-0.367 0.075,-0.409C0.095,-0.45 0.124,-0.482 0.16,-0.504C0.196,-0.527 0.238,-0.538 0.284,-0.538C0.356,-0.538 0.414,-0.513 0.459,-0.463C0.503,-0.414 0.525,-0.347 0.525,-0.265L0.525,-0.258C0.525,-0.207 0.516,-0.161 0.496,-0.12C0.476,-0.079 0.448,-0.047 0.411,-0.024C0.375,-0.002 0.333,0.01 0.285,0.01C0.214,0.01 0.156,-0.015 0.111,-0.065C0.067,-0.115 0.044,-0.181 0.044,-0.263L0.044,-0.269ZM0.135,-0.258C0.135,-0.2 0.149,-0.153 0.176,-0.117C0.203,-0.082 0.24,-0.064 0.285,-0.064C0.331,-0.064 0.368,-0.082 0.395,-0.118C0.422,-0.154 0.435,-0.204 0.435,-0.269C0.435,-0.327 0.421,-0.374 0.394,-0.41C0.366,-0.446 0.33,-0.464 0.284,-0.464C0.24,-0.464 0.204,-0.446 0.176,-0.411C0.149,-0.375 0.135,-0.324 0.135,-0.258Z" style="fill-rule:nonzero;"/>
                    </g>
                    <g transform="matrix(83.3333,0,0,83.3333,2890.09,4143.3)">
                        <path d="M0.153,-0.528L0.156,-0.47C0.194,-0.515 0.247,-0.538 0.313,-0.538C0.386,-0.538 0.437,-0.51 0.463,-0.453C0.481,-0.479 0.504,-0.499 0.532,-0.515C0.56,-0.53 0.593,-0.538 0.632,-0.538C0.748,-0.538 0.807,-0.477 0.809,-0.354L0.809,-0L0.718,-0L0.718,-0.349C0.718,-0.386 0.71,-0.415 0.692,-0.433C0.675,-0.452 0.646,-0.461 0.605,-0.461C0.572,-0.461 0.544,-0.451 0.522,-0.431C0.5,-0.411 0.487,-0.384 0.483,-0.351L0.483,-0L0.393,-0L0.393,-0.346C0.393,-0.423 0.355,-0.461 0.28,-0.461C0.221,-0.461 0.18,-0.436 0.158,-0.386L0.158,-0L0.068,-0L0.068,-0.528L0.153,-0.528Z" style="fill-rule:nonzero;"/>
                    </g>
                    <g transform="matrix(83.3333,0,0,83.3333,2963.12,4143.3)">
                        <path d="M0.153,-0.528L0.156,-0.47C0.194,-0.515 0.247,-0.538 0.313,-0.538C0.386,-0.538 0.437,-0.51 0.463,-0.453C0.481,-0.479 0.504,-0.499 0.532,-0.515C0.56,-0.53 0.593,-0.538 0.632,-0.538C0.748,-0.538 0.807,-0.477 0.809,-0.354L0.809,-0L0.718,-0L0.718,-0.349C0.718,-0.386 0.71,-0.415 0.692,-0.433C0.675,-0.452 0.646,-0.461 0.605,-0.461C0.572,-0.461 0.544,-0.451 0.522,-0.431C0.5,-0.411 0.487,-0.384 0.483,-0.351L0.483,-0L0.393,-0L0.393,-0.346C0.393,-0.423 0.355,-0.461 0.28,-0.461C0.221,-0.461 0.18,-0.436 0.158,-0.386L0.158,-0L0.068,-0L0.068,-0.528L0.153,-0.528Z" style="fill-rule:nonzero;"/>
                    </g>
                    <g transform="matrix(83.3333,0,0,83.3333,3036.16,4143.3)">
                        <path d="M0.288,0.01C0.216,0.01 0.158,-0.014 0.113,-0.061C0.068,-0.108 0.045,-0.171 0.045,-0.25L0.045,-0.266C0.045,-0.319 0.055,-0.365 0.075,-0.406C0.095,-0.448 0.123,-0.48 0.159,-0.503C0.195,-0.526 0.234,-0.538 0.276,-0.538C0.345,-0.538 0.398,-0.515 0.437,-0.47C0.475,-0.425 0.494,-0.36 0.494,-0.276L0.494,-0.238L0.136,-0.238C0.137,-0.186 0.152,-0.144 0.181,-0.112C0.211,-0.08 0.248,-0.064 0.292,-0.064C0.324,-0.064 0.351,-0.07 0.374,-0.083C0.396,-0.097 0.415,-0.114 0.432,-0.135L0.487,-0.092C0.443,-0.024 0.376,0.01 0.288,0.01ZM0.276,-0.464C0.24,-0.464 0.209,-0.451 0.185,-0.424C0.16,-0.398 0.145,-0.36 0.139,-0.313L0.403,-0.313L0.403,-0.319C0.401,-0.365 0.388,-0.401 0.366,-0.426C0.344,-0.451 0.314,-0.464 0.276,-0.464Z" style="fill-rule:nonzero;"/>
                    </g>
                    <g transform="matrix(83.3333,0,0,83.3333,3080.31,4143.3)">
                        <path d="M0.324,-0.447C0.31,-0.45 0.295,-0.451 0.279,-0.451C0.22,-0.451 0.18,-0.425 0.159,-0.375L0.159,-0L0.068,-0L0.068,-0.528L0.156,-0.528L0.158,-0.467C0.187,-0.514 0.229,-0.538 0.284,-0.538C0.301,-0.538 0.315,-0.536 0.324,-0.531L0.324,-0.447Z" style="fill-rule:nonzero;"/>
                    </g>
                    <g transform="matrix(83.3333,0,0,83.3333,3107.74,4143.3)">
                        <path d="M0.28,-0.064C0.313,-0.064 0.341,-0.074 0.365,-0.093C0.389,-0.113 0.402,-0.137 0.405,-0.167L0.49,-0.167C0.489,-0.136 0.478,-0.107 0.459,-0.08C0.44,-0.053 0.414,-0.031 0.382,-0.015C0.35,0.002 0.316,0.01 0.28,0.01C0.208,0.01 0.151,-0.014 0.109,-0.062C0.066,-0.11 0.045,-0.176 0.045,-0.259L0.045,-0.274C0.045,-0.326 0.054,-0.372 0.073,-0.412C0.092,-0.452 0.119,-0.483 0.155,-0.505C0.19,-0.527 0.232,-0.538 0.28,-0.538C0.339,-0.538 0.388,-0.52 0.427,-0.485C0.467,-0.449 0.488,-0.403 0.49,-0.347L0.405,-0.347C0.402,-0.381 0.389,-0.409 0.366,-0.431C0.343,-0.453 0.314,-0.464 0.28,-0.464C0.234,-0.464 0.198,-0.447 0.173,-0.414C0.148,-0.381 0.135,-0.333 0.135,-0.271L0.135,-0.254C0.135,-0.193 0.148,-0.146 0.173,-0.113C0.198,-0.08 0.234,-0.064 0.28,-0.064Z" style="fill-rule:nonzero;"/>
                    </g>
                    <g transform="matrix(83.3333,0,0,83.3333,3151.36,4143.3)">
                        <path d="M0.167,-0L0.076,-0L0.076,-0.528L0.167,-0.528L0.167,-0ZM0.069,-0.668C0.069,-0.683 0.073,-0.695 0.082,-0.706C0.091,-0.716 0.104,-0.721 0.122,-0.721C0.14,-0.721 0.153,-0.716 0.162,-0.706C0.171,-0.695 0.176,-0.683 0.176,-0.668C0.176,-0.654 0.171,-0.642 0.162,-0.632C0.153,-0.622 0.14,-0.617 0.122,-0.617C0.104,-0.617 0.091,-0.622 0.082,-0.632C0.073,-0.642 0.069,-0.654 0.069,-0.668Z" style="fill-rule:nonzero;"/>
                    </g>
                    <g transform="matrix(83.3333,0,0,83.3333,3171.58,4143.3)">
                        <path d="M0.395,-0C0.389,-0.01 0.385,-0.029 0.382,-0.056C0.34,-0.012 0.29,0.01 0.231,0.01C0.179,0.01 0.137,-0.005 0.103,-0.034C0.07,-0.064 0.053,-0.101 0.053,-0.146C0.053,-0.201 0.074,-0.244 0.116,-0.275C0.158,-0.305 0.217,-0.32 0.292,-0.32L0.38,-0.32L0.38,-0.362C0.38,-0.393 0.371,-0.419 0.352,-0.437C0.333,-0.456 0.305,-0.465 0.269,-0.465C0.236,-0.465 0.209,-0.457 0.188,-0.441C0.166,-0.425 0.155,-0.405 0.155,-0.382L0.064,-0.382C0.064,-0.408 0.073,-0.434 0.092,-0.458C0.111,-0.483 0.136,-0.502 0.168,-0.517C0.2,-0.531 0.236,-0.538 0.274,-0.538C0.335,-0.538 0.382,-0.523 0.417,-0.492C0.451,-0.462 0.469,-0.42 0.471,-0.367L0.471,-0.124C0.471,-0.075 0.477,-0.036 0.489,-0.008L0.489,-0L0.395,-0ZM0.245,-0.069C0.273,-0.069 0.3,-0.076 0.325,-0.091C0.351,-0.105 0.369,-0.125 0.38,-0.148L0.38,-0.256L0.31,-0.256C0.199,-0.256 0.144,-0.224 0.144,-0.159C0.144,-0.131 0.153,-0.109 0.172,-0.093C0.191,-0.077 0.215,-0.069 0.245,-0.069Z" style="fill-rule:nonzero;"/>
                    </g>
                    <g transform="matrix(83.3333,0,0,83.3333,3216.91,4143.3)">
                        <rect x="0.076" y="-0.75" width="0.09" height="0.75" style="fill-rule:nonzero;"/>
                    </g>
                    <g transform="matrix(83.3333,0,0,83.3333,3257.76,4143.3)">
                        <path d="M0.605,-0.226C0.597,-0.15 0.569,-0.092 0.522,-0.052C0.476,-0.011 0.413,0.01 0.336,0.01C0.252,0.01 0.185,-0.02 0.134,-0.081C0.083,-0.141 0.058,-0.221 0.058,-0.322L0.058,-0.391C0.058,-0.457 0.07,-0.515 0.094,-0.565C0.117,-0.615 0.151,-0.654 0.194,-0.68C0.237,-0.707 0.287,-0.721 0.344,-0.721C0.42,-0.721 0.48,-0.7 0.526,-0.657C0.571,-0.615 0.598,-0.557 0.605,-0.482L0.511,-0.482C0.503,-0.539 0.485,-0.58 0.458,-0.606C0.431,-0.631 0.393,-0.644 0.344,-0.644C0.284,-0.644 0.237,-0.622 0.203,-0.578C0.169,-0.533 0.152,-0.47 0.152,-0.388L0.152,-0.32C0.152,-0.242 0.168,-0.181 0.201,-0.135C0.233,-0.09 0.278,-0.067 0.336,-0.067C0.388,-0.067 0.428,-0.079 0.456,-0.102C0.484,-0.126 0.502,-0.167 0.511,-0.226L0.605,-0.226Z" style="fill-rule:nonzero;"/>
                    </g>
                    <g transform="matrix(83.3333,0,0,83.3333,3312,4143.3)">
                        <rect x="0.076" y="-0.75" width="0.09" height="0.75" style="fill-rule:nonzero;"/>
                    </g>
                    <g transform="matrix(83.3333,0,0,83.3333,3332.22,4143.3)">
                        <path d="M0.044,-0.269C0.044,-0.321 0.055,-0.367 0.075,-0.409C0.095,-0.45 0.124,-0.482 0.16,-0.504C0.196,-0.527 0.238,-0.538 0.284,-0.538C0.356,-0.538 0.414,-0.513 0.459,-0.463C0.503,-0.414 0.525,-0.347 0.525,-0.265L0.525,-0.258C0.525,-0.207 0.516,-0.161 0.496,-0.12C0.476,-0.079 0.448,-0.047 0.411,-0.024C0.375,-0.002 0.333,0.01 0.285,0.01C0.214,0.01 0.156,-0.015 0.111,-0.065C0.067,-0.115 0.044,-0.181 0.044,-0.263L0.044,-0.269ZM0.135,-0.258C0.135,-0.2 0.149,-0.153 0.176,-0.117C0.203,-0.082 0.24,-0.064 0.285,-0.064C0.331,-0.064 0.368,-0.082 0.395,-0.118C0.422,-0.154 0.435,-0.204 0.435,-0.269C0.435,-0.327 0.421,-0.374 0.394,-0.41C0.366,-0.446 0.33,-0.464 0.284,-0.464C0.24,-0.464 0.204,-0.446 0.176,-0.411C0.149,-0.375 0.135,-0.324 0.135,-0.258Z" style="fill-rule:nonzero;"/>
                    </g>
                    <g transform="matrix(83.3333,0,0,83.3333,3379.75,4143.3)">
                        <path d="M0.395,-0.052C0.359,-0.011 0.308,0.01 0.24,0.01C0.183,0.01 0.141,-0.007 0.111,-0.039C0.082,-0.072 0.067,-0.12 0.066,-0.185L0.066,-0.528L0.157,-0.528L0.157,-0.187C0.157,-0.107 0.189,-0.067 0.254,-0.067C0.323,-0.067 0.369,-0.093 0.392,-0.144L0.392,-0.528L0.482,-0.528L0.482,-0L0.396,-0L0.395,-0.052Z" style="fill-rule:nonzero;"/>
                    </g>
                    <g transform="matrix(83.3333,0,0,83.3333,3425.69,4143.3)">
                        <path d="M0.046,-0.269C0.046,-0.35 0.066,-0.415 0.104,-0.464C0.142,-0.513 0.193,-0.538 0.255,-0.538C0.317,-0.538 0.366,-0.517 0.402,-0.475L0.402,-0.75L0.492,-0.75L0.492,-0L0.409,-0L0.405,-0.057C0.369,-0.012 0.318,0.01 0.254,0.01C0.193,0.01 0.143,-0.015 0.104,-0.065C0.066,-0.116 0.046,-0.181 0.046,-0.262L0.046,-0.269ZM0.137,-0.258C0.137,-0.198 0.149,-0.152 0.174,-0.118C0.199,-0.084 0.233,-0.067 0.276,-0.067C0.334,-0.067 0.375,-0.093 0.402,-0.144L0.402,-0.387C0.375,-0.437 0.333,-0.461 0.277,-0.461C0.233,-0.461 0.199,-0.444 0.174,-0.41C0.149,-0.376 0.137,-0.325 0.137,-0.258Z" style="fill-rule:nonzero;"/>
                    </g>
                    <g transform="matrix(83.3333,0,0,83.3333,3472.69,4143.3)">
                        <path d="M0.376,-0.14C0.376,-0.165 0.367,-0.184 0.348,-0.197C0.33,-0.211 0.298,-0.222 0.252,-0.232C0.206,-0.242 0.17,-0.253 0.143,-0.267C0.116,-0.281 0.097,-0.297 0.084,-0.316C0.071,-0.335 0.064,-0.357 0.064,-0.383C0.064,-0.427 0.083,-0.463 0.119,-0.493C0.156,-0.523 0.203,-0.538 0.26,-0.538C0.32,-0.538 0.368,-0.523 0.406,-0.492C0.443,-0.461 0.461,-0.421 0.461,-0.373L0.371,-0.373C0.371,-0.398 0.36,-0.419 0.339,-0.437C0.318,-0.455 0.292,-0.464 0.26,-0.464C0.227,-0.464 0.201,-0.457 0.183,-0.442C0.164,-0.428 0.155,-0.409 0.155,-0.386C0.155,-0.364 0.163,-0.348 0.181,-0.337C0.198,-0.326 0.229,-0.315 0.274,-0.305C0.319,-0.295 0.356,-0.283 0.384,-0.269C0.412,-0.255 0.433,-0.238 0.446,-0.219C0.46,-0.199 0.466,-0.175 0.466,-0.146C0.466,-0.099 0.447,-0.061 0.41,-0.033C0.372,-0.004 0.323,0.01 0.263,0.01C0.22,0.01 0.183,0.002 0.15,-0.013C0.118,-0.028 0.092,-0.049 0.074,-0.075C0.056,-0.102 0.046,-0.131 0.046,-0.163L0.137,-0.163C0.138,-0.132 0.15,-0.108 0.173,-0.091C0.196,-0.073 0.226,-0.064 0.263,-0.064C0.297,-0.064 0.324,-0.071 0.345,-0.085C0.366,-0.099 0.376,-0.117 0.376,-0.14Z" style="fill-rule:nonzero;"/>
                    </g>
                </g>
                <g transform="matrix(1,0,0,1.75,2186.6,-2826)">
                    <g transform="matrix(83.3333,0,0,83.3333,3068.88,4143.3)">
                        <path d="M0.629,-0L0.535,-0L0.535,-0.329L0.176,-0.329L0.176,-0L0.083,-0L0.083,-0.711L0.176,-0.711L0.176,-0.405L0.535,-0.405L0.535,-0.711L0.629,-0.711L0.629,-0Z" style="fill-rule:nonzero;"/>
                    </g>
                    <g transform="matrix(83.3333,0,0,83.3333,3128.28,4143.3)">
                        <path d="M0.176,-0.278L0.176,-0L0.083,-0L0.083,-0.711L0.345,-0.711C0.423,-0.711 0.483,-0.691 0.528,-0.651C0.572,-0.612 0.594,-0.559 0.594,-0.494C0.594,-0.425 0.572,-0.372 0.529,-0.334C0.486,-0.297 0.424,-0.278 0.344,-0.278L0.176,-0.278ZM0.176,-0.355L0.345,-0.355C0.395,-0.355 0.433,-0.367 0.46,-0.39C0.487,-0.414 0.5,-0.448 0.5,-0.493C0.5,-0.535 0.487,-0.569 0.46,-0.595C0.433,-0.62 0.397,-0.633 0.35,-0.634L0.176,-0.634L0.176,-0.355Z" style="fill-rule:nonzero;"/>
                    </g>
                    <g transform="matrix(83.3333,0,0,83.3333,3180.86,4143.3)">
                        <path d="M0.605,-0.226C0.597,-0.15 0.569,-0.092 0.522,-0.052C0.476,-0.011 0.413,0.01 0.336,0.01C0.252,0.01 0.185,-0.02 0.134,-0.081C0.083,-0.141 0.058,-0.221 0.058,-0.322L0.058,-0.391C0.058,-0.457 0.07,-0.515 0.094,-0.565C0.117,-0.615 0.151,-0.654 0.194,-0.68C0.237,-0.707 0.287,-0.721 0.344,-0.721C0.42,-0.721 0.48,-0.7 0.526,-0.657C0.571,-0.615 0.598,-0.557 0.605,-0.482L0.511,-0.482C0.503,-0.539 0.485,-0.58 0.458,-0.606C0.431,-0.631 0.393,-0.644 0.344,-0.644C0.284,-0.644 0.237,-0.622 0.203,-0.578C0.169,-0.533 0.152,-0.47 0.152,-0.388L0.152,-0.32C0.152,-0.242 0.168,-0.181 0.201,-0.135C0.233,-0.09 0.278,-0.067 0.336,-0.067C0.388,-0.067 0.428,-0.079 0.456,-0.102C0.484,-0.126 0.502,-0.167 0.511,-0.226L0.605,-0.226Z" style="fill-rule:nonzero;"/>
                    </g>
                </g>
            </g>
        </g>
    </g>
</svg>
