<?xml version="1.0" encoding="UTF-8" standalone="no"?>
<!DOCTYPE svg PUBLIC "-//W3C//DTD SVG 1.1//EN" "http://www.w3.org/Graphics/SVG/1.1/DTD/svg11.dtd">
<svg width="100%" height="100%" viewBox="0 0 379 334" version="1.1" xmlns="http://www.w3.org/2000/svg" xmlns:xlink="http://www.w3.org/1999/xlink" xml:space="preserve" xmlns:serif="http://www.serif.com/" style="fill-rule:evenodd;clip-rule:evenodd;stroke-linejoin:round;stroke-miterlimit:2;">
    <g transform="matrix(0.166667,0,0,0.166667,-34.5,-421.833)">
        <g transform="matrix(1,0,0,1,-543.307,0)">
            <g transform="matrix(83.3333,0,0,83.3333,2192.12,2847.85)">
                <path d="M0.192,-0.418L0.267,-0.418C0.303,-0.418 0.329,-0.427 0.347,-0.445C0.364,-0.463 0.373,-0.486 0.373,-0.516C0.373,-0.545 0.364,-0.567 0.347,-0.583C0.33,-0.599 0.306,-0.607 0.276,-0.607C0.249,-0.607 0.227,-0.6 0.208,-0.585C0.19,-0.57 0.181,-0.551 0.181,-0.527L0.04,-0.527C0.04,-0.564 0.05,-0.597 0.07,-0.627C0.09,-0.656 0.118,-0.679 0.154,-0.696C0.19,-0.712 0.23,-0.721 0.273,-0.721C0.348,-0.721 0.407,-0.703 0.45,-0.667C0.492,-0.631 0.514,-0.581 0.514,-0.518C0.514,-0.486 0.504,-0.456 0.484,-0.428C0.464,-0.401 0.438,-0.38 0.406,-0.365C0.446,-0.351 0.476,-0.329 0.495,-0.301C0.515,-0.272 0.525,-0.238 0.525,-0.199C0.525,-0.136 0.502,-0.085 0.456,-0.047C0.41,-0.009 0.349,0.01 0.273,0.01C0.202,0.01 0.144,-0.009 0.099,-0.046C0.054,-0.084 0.031,-0.133 0.031,-0.195L0.172,-0.195C0.172,-0.168 0.182,-0.146 0.202,-0.129C0.222,-0.112 0.247,-0.104 0.276,-0.104C0.31,-0.104 0.336,-0.113 0.355,-0.131C0.374,-0.148 0.384,-0.172 0.384,-0.201C0.384,-0.272 0.345,-0.308 0.267,-0.308L0.192,-0.308L0.192,-0.418Z" style="fill:#1a1a18;fill-rule:nonzero;"/>
            </g>
            <g transform="matrix(83.3333,0,0,83.3333,2260.68,2847.85)">
                <path d="M0.53,-0.259C0.53,-0.178 0.511,-0.113 0.474,-0.064C0.437,-0.015 0.388,0.01 0.325,0.01C0.271,0.01 0.228,-0.009 0.195,-0.046L0.195,0.203L0.054,0.203L0.054,-0.528L0.185,-0.528L0.19,-0.477C0.224,-0.518 0.269,-0.538 0.324,-0.538C0.389,-0.538 0.439,-0.514 0.476,-0.466C0.512,-0.418 0.53,-0.351 0.53,-0.267L0.53,-0.259ZM0.389,-0.27C0.389,-0.319 0.38,-0.357 0.363,-0.383C0.345,-0.41 0.32,-0.423 0.287,-0.423C0.242,-0.423 0.212,-0.406 0.195,-0.373L0.195,-0.156C0.213,-0.121 0.243,-0.104 0.288,-0.104C0.355,-0.104 0.389,-0.159 0.389,-0.27Z" style="fill:#1a1a18;fill-rule:nonzero;"/>
            </g>
            <g transform="matrix(83.3333,0,0,83.3333,2307.6,2847.85)">
                <path d="M0.032,-0.269C0.032,-0.321 0.042,-0.368 0.063,-0.409C0.083,-0.45 0.112,-0.482 0.15,-0.504C0.188,-0.527 0.232,-0.538 0.282,-0.538C0.353,-0.538 0.411,-0.516 0.456,-0.473C0.501,-0.429 0.527,-0.37 0.532,-0.295L0.533,-0.259C0.533,-0.178 0.51,-0.113 0.465,-0.064C0.42,-0.015 0.359,0.01 0.283,0.01C0.207,0.01 0.146,-0.015 0.1,-0.063C0.055,-0.112 0.032,-0.179 0.032,-0.263L0.032,-0.269ZM0.173,-0.259C0.173,-0.209 0.183,-0.17 0.202,-0.144C0.221,-0.117 0.248,-0.104 0.283,-0.104C0.317,-0.104 0.344,-0.117 0.363,-0.143C0.382,-0.17 0.392,-0.212 0.392,-0.269C0.392,-0.319 0.382,-0.357 0.363,-0.384C0.344,-0.411 0.317,-0.424 0.282,-0.424C0.247,-0.424 0.221,-0.411 0.202,-0.384C0.183,-0.357 0.173,-0.315 0.173,-0.259Z" style="fill:#1a1a18;fill-rule:nonzero;"/>
            </g>
            <g transform="matrix(83.3333,0,0,83.3333,2354.71,2847.85)">
                <path d="M0.34,-0.146C0.34,-0.163 0.332,-0.177 0.315,-0.187C0.298,-0.197 0.27,-0.206 0.232,-0.213C0.107,-0.24 0.044,-0.293 0.044,-0.374C0.044,-0.42 0.063,-0.46 0.102,-0.491C0.141,-0.522 0.192,-0.538 0.255,-0.538C0.322,-0.538 0.376,-0.522 0.416,-0.491C0.456,-0.459 0.476,-0.418 0.476,-0.368L0.335,-0.368C0.335,-0.388 0.328,-0.405 0.315,-0.418C0.302,-0.431 0.282,-0.438 0.254,-0.438C0.231,-0.438 0.212,-0.432 0.199,-0.421C0.186,-0.411 0.18,-0.397 0.18,-0.38C0.18,-0.365 0.187,-0.352 0.202,-0.343C0.217,-0.333 0.242,-0.325 0.277,-0.318C0.312,-0.311 0.342,-0.303 0.366,-0.294C0.44,-0.267 0.478,-0.219 0.478,-0.152C0.478,-0.104 0.457,-0.065 0.416,-0.035C0.374,-0.005 0.321,0.01 0.255,0.01C0.211,0.01 0.172,0.002 0.137,-0.014C0.103,-0.03 0.076,-0.051 0.057,-0.079C0.037,-0.106 0.027,-0.136 0.027,-0.168L0.161,-0.168C0.162,-0.143 0.172,-0.124 0.189,-0.11C0.206,-0.097 0.229,-0.09 0.258,-0.09C0.285,-0.09 0.306,-0.095 0.32,-0.106C0.333,-0.116 0.34,-0.129 0.34,-0.146Z" style="fill:#1a1a18;fill-rule:nonzero;"/>
            </g>
            <g transform="matrix(83.3333,0,0,83.3333,2397.56,2847.85)">
                <path d="M0.34,-0.146C0.34,-0.163 0.332,-0.177 0.315,-0.187C0.298,-0.197 0.27,-0.206 0.232,-0.213C0.107,-0.24 0.044,-0.293 0.044,-0.374C0.044,-0.42 0.063,-0.46 0.102,-0.491C0.141,-0.522 0.192,-0.538 0.255,-0.538C0.322,-0.538 0.376,-0.522 0.416,-0.491C0.456,-0.459 0.476,-0.418 0.476,-0.368L0.335,-0.368C0.335,-0.388 0.328,-0.405 0.315,-0.418C0.302,-0.431 0.282,-0.438 0.254,-0.438C0.231,-0.438 0.212,-0.432 0.199,-0.421C0.186,-0.411 0.18,-0.397 0.18,-0.38C0.18,-0.365 0.187,-0.352 0.202,-0.343C0.217,-0.333 0.242,-0.325 0.277,-0.318C0.312,-0.311 0.342,-0.303 0.366,-0.294C0.44,-0.267 0.478,-0.219 0.478,-0.152C0.478,-0.104 0.457,-0.065 0.416,-0.035C0.374,-0.005 0.321,0.01 0.255,0.01C0.211,0.01 0.172,0.002 0.137,-0.014C0.103,-0.03 0.076,-0.051 0.057,-0.079C0.037,-0.106 0.027,-0.136 0.027,-0.168L0.161,-0.168C0.162,-0.143 0.172,-0.124 0.189,-0.11C0.206,-0.097 0.229,-0.09 0.258,-0.09C0.285,-0.09 0.306,-0.095 0.32,-0.106C0.333,-0.116 0.34,-0.129 0.34,-0.146Z" style="fill:#1a1a18;fill-rule:nonzero;"/>
            </g>
            <g transform="matrix(83.3333,0,0,83.3333,2440.41,2847.85)">
                <path d="M0.203,-0L0.062,-0L0.062,-0.528L0.203,-0.528L0.203,-0ZM0.053,-0.665C0.053,-0.686 0.06,-0.704 0.074,-0.717C0.089,-0.731 0.108,-0.738 0.132,-0.738C0.156,-0.738 0.176,-0.731 0.19,-0.717C0.204,-0.704 0.211,-0.686 0.211,-0.665C0.211,-0.644 0.204,-0.626 0.19,-0.612C0.175,-0.599 0.156,-0.592 0.132,-0.592C0.109,-0.592 0.089,-0.599 0.075,-0.612C0.06,-0.626 0.053,-0.644 0.053,-0.665Z" style="fill:#1a1a18;fill-rule:nonzero;"/>
            </g>
            <g transform="matrix(83.3333,0,0,83.3333,2462.5,2847.85)">
                <path d="M0.53,-0.259C0.53,-0.175 0.512,-0.109 0.476,-0.061C0.44,-0.014 0.389,0.01 0.325,0.01C0.267,0.01 0.222,-0.012 0.188,-0.056L0.181,-0L0.054,-0L0.054,-0.75L0.195,-0.75L0.195,-0.481C0.228,-0.519 0.271,-0.538 0.324,-0.538C0.388,-0.538 0.439,-0.514 0.475,-0.467C0.512,-0.42 0.53,-0.353 0.53,-0.267L0.53,-0.259ZM0.389,-0.27C0.389,-0.323 0.381,-0.362 0.364,-0.386C0.347,-0.411 0.322,-0.423 0.288,-0.423C0.243,-0.423 0.212,-0.405 0.195,-0.368L0.195,-0.16C0.213,-0.123 0.244,-0.104 0.289,-0.104C0.335,-0.104 0.365,-0.126 0.379,-0.171C0.386,-0.193 0.389,-0.226 0.389,-0.27Z" style="fill:#1a1a18;fill-rule:nonzero;"/>
            </g>
            <g transform="matrix(83.3333,0,0,83.3333,2509.42,2847.85)">
                <rect x="0.062" y="-0.75" width="0.142" height="0.75" style="fill:#1a1a18;fill-rule:nonzero;"/>
            </g>
            <g transform="matrix(83.3333,0,0,83.3333,2531.51,2847.85)">
                <path d="M0.297,0.01C0.22,0.01 0.157,-0.014 0.108,-0.062C0.059,-0.109 0.035,-0.172 0.035,-0.251L0.035,-0.265C0.035,-0.318 0.045,-0.366 0.066,-0.407C0.086,-0.449 0.115,-0.482 0.153,-0.504C0.191,-0.527 0.234,-0.538 0.282,-0.538C0.354,-0.538 0.411,-0.515 0.452,-0.47C0.494,-0.424 0.515,-0.36 0.515,-0.276L0.515,-0.218L0.178,-0.218C0.183,-0.184 0.197,-0.156 0.219,-0.135C0.242,-0.114 0.271,-0.104 0.307,-0.104C0.361,-0.104 0.403,-0.124 0.434,-0.163L0.503,-0.085C0.482,-0.056 0.454,-0.032 0.417,-0.015C0.381,0.001 0.341,0.01 0.297,0.01ZM0.281,-0.424C0.253,-0.424 0.231,-0.415 0.213,-0.396C0.196,-0.377 0.185,-0.35 0.18,-0.314L0.376,-0.314L0.376,-0.326C0.375,-0.357 0.367,-0.381 0.351,-0.399C0.334,-0.416 0.311,-0.424 0.281,-0.424Z" style="fill:#1a1a18;fill-rule:nonzero;"/>
            </g>
            <g transform="matrix(83.3333,0,0,83.3333,2597.31,2847.85)">
                <path d="M0.203,-0L0.062,-0L0.062,-0.528L0.203,-0.528L0.203,-0ZM0.053,-0.665C0.053,-0.686 0.06,-0.704 0.074,-0.717C0.089,-0.731 0.108,-0.738 0.132,-0.738C0.156,-0.738 0.176,-0.731 0.19,-0.717C0.204,-0.704 0.211,-0.686 0.211,-0.665C0.211,-0.644 0.204,-0.626 0.19,-0.612C0.175,-0.599 0.156,-0.592 0.132,-0.592C0.109,-0.592 0.089,-0.599 0.075,-0.612C0.06,-0.626 0.053,-0.644 0.053,-0.665Z" style="fill:#1a1a18;fill-rule:nonzero;"/>
            </g>
            <g transform="matrix(83.3333,0,0,83.3333,2619.4,2847.85)">
                <path d="M0.184,-0.528L0.188,-0.467C0.226,-0.514 0.277,-0.538 0.34,-0.538C0.396,-0.538 0.438,-0.522 0.465,-0.489C0.493,-0.456 0.507,-0.407 0.507,-0.341L0.507,-0L0.366,-0L0.366,-0.338C0.366,-0.368 0.36,-0.39 0.347,-0.403C0.334,-0.417 0.312,-0.423 0.282,-0.423C0.242,-0.423 0.212,-0.406 0.192,-0.373L0.192,-0L0.051,-0L0.051,-0.528L0.184,-0.528Z" style="fill:#1a1a18;fill-rule:nonzero;"/>
            </g>
            <g transform="matrix(83.3333,0,0,83.3333,2666.08,2847.85)">
                <path d="M0.223,-0.658L0.223,-0.528L0.313,-0.528L0.313,-0.425L0.223,-0.425L0.223,-0.161C0.223,-0.142 0.227,-0.128 0.234,-0.119C0.242,-0.111 0.256,-0.106 0.277,-0.106C0.293,-0.106 0.307,-0.108 0.319,-0.11L0.319,-0.003C0.291,0.006 0.263,0.01 0.233,0.01C0.134,0.01 0.084,-0.04 0.082,-0.14L0.082,-0.425L0.005,-0.425L0.005,-0.528L0.082,-0.528L0.082,-0.658L0.223,-0.658Z" style="fill:#1a1a18;fill-rule:nonzero;"/>
            </g>
            <g transform="matrix(83.3333,0,0,83.3333,2694.23,2847.85)">
                <path d="M0.297,0.01C0.22,0.01 0.157,-0.014 0.108,-0.062C0.059,-0.109 0.035,-0.172 0.035,-0.251L0.035,-0.265C0.035,-0.318 0.045,-0.366 0.066,-0.407C0.086,-0.449 0.115,-0.482 0.153,-0.504C0.191,-0.527 0.234,-0.538 0.282,-0.538C0.354,-0.538 0.411,-0.515 0.452,-0.47C0.494,-0.424 0.515,-0.36 0.515,-0.276L0.515,-0.218L0.178,-0.218C0.183,-0.184 0.197,-0.156 0.219,-0.135C0.242,-0.114 0.271,-0.104 0.307,-0.104C0.361,-0.104 0.403,-0.124 0.434,-0.163L0.503,-0.085C0.482,-0.056 0.454,-0.032 0.417,-0.015C0.381,0.001 0.341,0.01 0.297,0.01ZM0.281,-0.424C0.253,-0.424 0.231,-0.415 0.213,-0.396C0.196,-0.377 0.185,-0.35 0.18,-0.314L0.376,-0.314L0.376,-0.326C0.375,-0.357 0.367,-0.381 0.351,-0.399C0.334,-0.416 0.311,-0.424 0.281,-0.424Z" style="fill:#1a1a18;fill-rule:nonzero;"/>
            </g>
            <g transform="matrix(83.3333,0,0,83.3333,2739.28,2847.85)">
                <path d="M0.351,-0.396C0.332,-0.399 0.315,-0.4 0.3,-0.4C0.247,-0.4 0.212,-0.382 0.195,-0.346L0.195,-0L0.054,-0L0.054,-0.528L0.188,-0.528L0.191,-0.465C0.22,-0.514 0.259,-0.538 0.309,-0.538C0.325,-0.538 0.339,-0.536 0.353,-0.532L0.351,-0.396Z" style="fill:#1a1a18;fill-rule:nonzero;"/>
            </g>
            <g transform="matrix(83.3333,0,0,83.3333,2770.49,2847.85)">
                <path d="M0.093,-0L0.093,-0.425L0.014,-0.425L0.014,-0.528L0.093,-0.528L0.093,-0.573C0.093,-0.632 0.11,-0.678 0.144,-0.711C0.178,-0.744 0.225,-0.76 0.287,-0.76C0.306,-0.76 0.33,-0.757 0.358,-0.75L0.357,-0.641C0.345,-0.644 0.331,-0.646 0.314,-0.646C0.261,-0.646 0.234,-0.621 0.234,-0.571L0.234,-0.528L0.339,-0.528L0.339,-0.425L0.234,-0.425L0.234,-0L0.093,-0Z" style="fill:#1a1a18;fill-rule:nonzero;"/>
            </g>
            <g transform="matrix(83.3333,0,0,83.3333,2800.35,2847.85)">
                <path d="M0.36,-0C0.354,-0.013 0.349,-0.028 0.346,-0.047C0.312,-0.009 0.268,0.01 0.213,0.01C0.161,0.01 0.118,-0.005 0.084,-0.035C0.05,-0.065 0.033,-0.103 0.033,-0.148C0.033,-0.204 0.054,-0.247 0.095,-0.277C0.137,-0.307 0.197,-0.322 0.275,-0.323L0.34,-0.323L0.34,-0.353C0.34,-0.377 0.334,-0.397 0.322,-0.412C0.309,-0.426 0.289,-0.434 0.262,-0.434C0.238,-0.434 0.22,-0.428 0.206,-0.417C0.193,-0.405 0.186,-0.389 0.186,-0.37L0.045,-0.37C0.045,-0.4 0.054,-0.429 0.073,-0.455C0.092,-0.481 0.119,-0.501 0.153,-0.516C0.188,-0.531 0.227,-0.538 0.27,-0.538C0.335,-0.538 0.386,-0.522 0.425,-0.489C0.463,-0.456 0.482,-0.41 0.482,-0.351L0.482,-0.122C0.482,-0.072 0.489,-0.034 0.503,-0.008L0.503,-0L0.36,-0ZM0.244,-0.098C0.264,-0.098 0.284,-0.103 0.301,-0.112C0.319,-0.121 0.332,-0.134 0.34,-0.149L0.34,-0.24L0.288,-0.24C0.217,-0.24 0.179,-0.216 0.175,-0.167L0.174,-0.159C0.174,-0.141 0.181,-0.127 0.193,-0.115C0.205,-0.104 0.222,-0.098 0.244,-0.098Z" style="fill:#1a1a18;fill-rule:nonzero;"/>
            </g>
            <g transform="matrix(83.3333,0,0,83.3333,2845.03,2847.85)">
                <path d="M0.274,-0.104C0.3,-0.104 0.321,-0.111 0.337,-0.125C0.354,-0.14 0.362,-0.159 0.363,-0.183L0.495,-0.183C0.495,-0.147 0.485,-0.114 0.466,-0.084C0.447,-0.054 0.42,-0.031 0.387,-0.015C0.354,0.002 0.317,0.01 0.276,0.01C0.201,0.01 0.141,-0.014 0.098,-0.062C0.054,-0.11 0.032,-0.177 0.032,-0.261L0.032,-0.271C0.032,-0.352 0.054,-0.417 0.097,-0.465C0.14,-0.514 0.2,-0.538 0.275,-0.538C0.341,-0.538 0.394,-0.519 0.434,-0.482C0.474,-0.444 0.494,-0.394 0.495,-0.332L0.363,-0.332C0.362,-0.359 0.354,-0.381 0.337,-0.399C0.321,-0.416 0.3,-0.424 0.273,-0.424C0.24,-0.424 0.215,-0.412 0.198,-0.388C0.182,-0.364 0.173,-0.326 0.173,-0.272L0.173,-0.257C0.173,-0.203 0.182,-0.164 0.198,-0.14C0.215,-0.116 0.24,-0.104 0.274,-0.104Z" style="fill:#1a1a18;fill-rule:nonzero;"/>
            </g>
            <g transform="matrix(83.3333,0,0,83.3333,2888.49,2847.85)">
                <path d="M0.297,0.01C0.22,0.01 0.157,-0.014 0.108,-0.062C0.059,-0.109 0.035,-0.172 0.035,-0.251L0.035,-0.265C0.035,-0.318 0.045,-0.366 0.066,-0.407C0.086,-0.449 0.115,-0.482 0.153,-0.504C0.191,-0.527 0.234,-0.538 0.282,-0.538C0.354,-0.538 0.411,-0.515 0.452,-0.47C0.494,-0.424 0.515,-0.36 0.515,-0.276L0.515,-0.218L0.178,-0.218C0.183,-0.184 0.197,-0.156 0.219,-0.135C0.242,-0.114 0.271,-0.104 0.307,-0.104C0.361,-0.104 0.403,-0.124 0.434,-0.163L0.503,-0.085C0.482,-0.056 0.454,-0.032 0.417,-0.015C0.381,0.001 0.341,0.01 0.297,0.01ZM0.281,-0.424C0.253,-0.424 0.231,-0.415 0.213,-0.396C0.196,-0.377 0.185,-0.35 0.18,-0.314L0.376,-0.314L0.376,-0.326C0.375,-0.357 0.367,-0.381 0.351,-0.399C0.334,-0.416 0.311,-0.424 0.281,-0.424Z" style="fill:#1a1a18;fill-rule:nonzero;"/>
            </g>
            <g transform="matrix(83.3333,0,0,83.3333,2933.53,2847.85)">
                <path d="M0.34,-0.146C0.34,-0.163 0.332,-0.177 0.315,-0.187C0.298,-0.197 0.27,-0.206 0.232,-0.213C0.107,-0.24 0.044,-0.293 0.044,-0.374C0.044,-0.42 0.063,-0.46 0.102,-0.491C0.141,-0.522 0.192,-0.538 0.255,-0.538C0.322,-0.538 0.376,-0.522 0.416,-0.491C0.456,-0.459 0.476,-0.418 0.476,-0.368L0.335,-0.368C0.335,-0.388 0.328,-0.405 0.315,-0.418C0.302,-0.431 0.282,-0.438 0.254,-0.438C0.231,-0.438 0.212,-0.432 0.199,-0.421C0.186,-0.411 0.18,-0.397 0.18,-0.38C0.18,-0.365 0.187,-0.352 0.202,-0.343C0.217,-0.333 0.242,-0.325 0.277,-0.318C0.312,-0.311 0.342,-0.303 0.366,-0.294C0.44,-0.267 0.478,-0.219 0.478,-0.152C0.478,-0.104 0.457,-0.065 0.416,-0.035C0.374,-0.005 0.321,0.01 0.255,0.01C0.211,0.01 0.172,0.002 0.137,-0.014C0.103,-0.03 0.076,-0.051 0.057,-0.079C0.037,-0.106 0.027,-0.136 0.027,-0.168L0.161,-0.168C0.162,-0.143 0.172,-0.124 0.189,-0.11C0.206,-0.097 0.229,-0.09 0.258,-0.09C0.285,-0.09 0.306,-0.095 0.32,-0.106C0.333,-0.116 0.34,-0.129 0.34,-0.146Z" style="fill:#1a1a18;fill-rule:nonzero;"/>
            </g>
            <g transform="matrix(83.3333,0,0,83.3333,2169.17,2931.18)">
                <path d="M0.223,-0.658L0.223,-0.528L0.313,-0.528L0.313,-0.425L0.223,-0.425L0.223,-0.161C0.223,-0.142 0.227,-0.128 0.234,-0.119C0.242,-0.111 0.256,-0.106 0.277,-0.106C0.293,-0.106 0.307,-0.108 0.319,-0.11L0.319,-0.003C0.291,0.006 0.263,0.01 0.233,0.01C0.134,0.01 0.084,-0.04 0.082,-0.14L0.082,-0.425L0.005,-0.425L0.005,-0.528L0.082,-0.528L0.082,-0.658L0.223,-0.658Z" style="fill:#1a1a18;fill-rule:nonzero;"/>
            </g>
            <g transform="matrix(83.3333,0,0,83.3333,2196.1,2931.18)">
                <path d="M0.032,-0.269C0.032,-0.321 0.042,-0.368 0.063,-0.409C0.083,-0.45 0.112,-0.482 0.15,-0.504C0.188,-0.527 0.232,-0.538 0.282,-0.538C0.353,-0.538 0.411,-0.516 0.456,-0.473C0.501,-0.429 0.527,-0.37 0.532,-0.295L0.533,-0.259C0.533,-0.178 0.51,-0.113 0.465,-0.064C0.42,-0.015 0.359,0.01 0.283,0.01C0.207,0.01 0.146,-0.015 0.1,-0.063C0.055,-0.112 0.032,-0.179 0.032,-0.263L0.032,-0.269ZM0.173,-0.259C0.173,-0.209 0.183,-0.17 0.202,-0.144C0.221,-0.117 0.248,-0.104 0.283,-0.104C0.317,-0.104 0.344,-0.117 0.363,-0.143C0.382,-0.17 0.392,-0.212 0.392,-0.269C0.392,-0.319 0.382,-0.357 0.363,-0.384C0.344,-0.411 0.317,-0.424 0.282,-0.424C0.247,-0.424 0.221,-0.411 0.202,-0.384C0.183,-0.357 0.173,-0.315 0.173,-0.259Z" style="fill:#1a1a18;fill-rule:nonzero;"/>
            </g>
            <g transform="matrix(83.3333,0,0,83.3333,2263.98,2931.18)">
                <path d="M0.36,-0C0.354,-0.013 0.349,-0.028 0.346,-0.047C0.312,-0.009 0.268,0.01 0.213,0.01C0.161,0.01 0.118,-0.005 0.084,-0.035C0.05,-0.065 0.033,-0.103 0.033,-0.148C0.033,-0.204 0.054,-0.247 0.095,-0.277C0.137,-0.307 0.197,-0.322 0.275,-0.323L0.34,-0.323L0.34,-0.353C0.34,-0.377 0.334,-0.397 0.322,-0.412C0.309,-0.426 0.289,-0.434 0.262,-0.434C0.238,-0.434 0.22,-0.428 0.206,-0.417C0.193,-0.405 0.186,-0.389 0.186,-0.37L0.045,-0.37C0.045,-0.4 0.054,-0.429 0.073,-0.455C0.092,-0.481 0.119,-0.501 0.153,-0.516C0.188,-0.531 0.227,-0.538 0.27,-0.538C0.335,-0.538 0.386,-0.522 0.425,-0.489C0.463,-0.456 0.482,-0.41 0.482,-0.351L0.482,-0.122C0.482,-0.072 0.489,-0.034 0.503,-0.008L0.503,-0L0.36,-0ZM0.244,-0.098C0.264,-0.098 0.284,-0.103 0.301,-0.112C0.319,-0.121 0.332,-0.134 0.34,-0.149L0.34,-0.24L0.288,-0.24C0.217,-0.24 0.179,-0.216 0.175,-0.167L0.174,-0.159C0.174,-0.141 0.181,-0.127 0.193,-0.115C0.205,-0.104 0.222,-0.098 0.244,-0.098Z" style="fill:#1a1a18;fill-rule:nonzero;"/>
            </g>
            <g transform="matrix(83.3333,0,0,83.3333,2308.65,2931.18)">
                <path d="M0.223,-0.658L0.223,-0.528L0.313,-0.528L0.313,-0.425L0.223,-0.425L0.223,-0.161C0.223,-0.142 0.227,-0.128 0.234,-0.119C0.242,-0.111 0.256,-0.106 0.277,-0.106C0.293,-0.106 0.307,-0.108 0.319,-0.11L0.319,-0.003C0.291,0.006 0.263,0.01 0.233,0.01C0.134,0.01 0.084,-0.04 0.082,-0.14L0.082,-0.425L0.005,-0.425L0.005,-0.528L0.082,-0.528L0.082,-0.658L0.223,-0.658Z" style="fill:#1a1a18;fill-rule:nonzero;"/>
            </g>
            <g transform="matrix(83.3333,0,0,83.3333,2336.81,2931.18)">
                <path d="M0.223,-0.658L0.223,-0.528L0.313,-0.528L0.313,-0.425L0.223,-0.425L0.223,-0.161C0.223,-0.142 0.227,-0.128 0.234,-0.119C0.242,-0.111 0.256,-0.106 0.277,-0.106C0.293,-0.106 0.307,-0.108 0.319,-0.11L0.319,-0.003C0.291,0.006 0.263,0.01 0.233,0.01C0.134,0.01 0.084,-0.04 0.082,-0.14L0.082,-0.425L0.005,-0.425L0.005,-0.528L0.082,-0.528L0.082,-0.658L0.223,-0.658Z" style="fill:#1a1a18;fill-rule:nonzero;"/>
            </g>
            <g transform="matrix(83.3333,0,0,83.3333,2364.97,2931.18)">
                <path d="M0.36,-0C0.354,-0.013 0.349,-0.028 0.346,-0.047C0.312,-0.009 0.268,0.01 0.213,0.01C0.161,0.01 0.118,-0.005 0.084,-0.035C0.05,-0.065 0.033,-0.103 0.033,-0.148C0.033,-0.204 0.054,-0.247 0.095,-0.277C0.137,-0.307 0.197,-0.322 0.275,-0.323L0.34,-0.323L0.34,-0.353C0.34,-0.377 0.334,-0.397 0.322,-0.412C0.309,-0.426 0.289,-0.434 0.262,-0.434C0.238,-0.434 0.22,-0.428 0.206,-0.417C0.193,-0.405 0.186,-0.389 0.186,-0.37L0.045,-0.37C0.045,-0.4 0.054,-0.429 0.073,-0.455C0.092,-0.481 0.119,-0.501 0.153,-0.516C0.188,-0.531 0.227,-0.538 0.27,-0.538C0.335,-0.538 0.386,-0.522 0.425,-0.489C0.463,-0.456 0.482,-0.41 0.482,-0.351L0.482,-0.122C0.482,-0.072 0.489,-0.034 0.503,-0.008L0.503,-0L0.36,-0ZM0.244,-0.098C0.264,-0.098 0.284,-0.103 0.301,-0.112C0.319,-0.121 0.332,-0.134 0.34,-0.149L0.34,-0.24L0.288,-0.24C0.217,-0.24 0.179,-0.216 0.175,-0.167L0.174,-0.159C0.174,-0.141 0.181,-0.127 0.193,-0.115C0.205,-0.104 0.222,-0.098 0.244,-0.098Z" style="fill:#1a1a18;fill-rule:nonzero;"/>
            </g>
            <g transform="matrix(83.3333,0,0,83.3333,2409.65,2931.18)">
                <path d="M0.274,-0.104C0.3,-0.104 0.321,-0.111 0.337,-0.125C0.354,-0.14 0.362,-0.159 0.363,-0.183L0.495,-0.183C0.495,-0.147 0.485,-0.114 0.466,-0.084C0.447,-0.054 0.42,-0.031 0.387,-0.015C0.354,0.002 0.317,0.01 0.276,0.01C0.201,0.01 0.141,-0.014 0.098,-0.062C0.054,-0.11 0.032,-0.177 0.032,-0.261L0.032,-0.271C0.032,-0.352 0.054,-0.417 0.097,-0.465C0.14,-0.514 0.2,-0.538 0.275,-0.538C0.341,-0.538 0.394,-0.519 0.434,-0.482C0.474,-0.444 0.494,-0.394 0.495,-0.332L0.363,-0.332C0.362,-0.359 0.354,-0.381 0.337,-0.399C0.321,-0.416 0.3,-0.424 0.273,-0.424C0.24,-0.424 0.215,-0.412 0.198,-0.388C0.182,-0.364 0.173,-0.326 0.173,-0.272L0.173,-0.257C0.173,-0.203 0.182,-0.164 0.198,-0.14C0.215,-0.116 0.24,-0.104 0.274,-0.104Z" style="fill:#1a1a18;fill-rule:nonzero;"/>
            </g>
            <g transform="matrix(83.3333,0,0,83.3333,2453.1,2931.18)">
                <path d="M0.192,-0.471C0.229,-0.516 0.276,-0.538 0.333,-0.538C0.448,-0.538 0.506,-0.472 0.507,-0.338L0.507,-0L0.366,-0L0.366,-0.334C0.366,-0.365 0.36,-0.387 0.347,-0.402C0.334,-0.416 0.312,-0.423 0.282,-0.423C0.24,-0.423 0.21,-0.407 0.192,-0.375L0.192,-0L0.051,-0L0.051,-0.75L0.192,-0.75L0.192,-0.471Z" style="fill:#1a1a18;fill-rule:nonzero;"/>
            </g>
            <g transform="matrix(83.3333,0,0,83.3333,2520.49,2931.18)">
                <path d="M0.223,-0.658L0.223,-0.528L0.313,-0.528L0.313,-0.425L0.223,-0.425L0.223,-0.161C0.223,-0.142 0.227,-0.128 0.234,-0.119C0.242,-0.111 0.256,-0.106 0.277,-0.106C0.293,-0.106 0.307,-0.108 0.319,-0.11L0.319,-0.003C0.291,0.006 0.263,0.01 0.233,0.01C0.134,0.01 0.084,-0.04 0.082,-0.14L0.082,-0.425L0.005,-0.425L0.005,-0.528L0.082,-0.528L0.082,-0.658L0.223,-0.658Z" style="fill:#1a1a18;fill-rule:nonzero;"/>
            </g>
            <g transform="matrix(83.3333,0,0,83.3333,2548.64,2931.18)">
                <path d="M0.192,-0.471C0.229,-0.516 0.276,-0.538 0.333,-0.538C0.448,-0.538 0.506,-0.472 0.507,-0.338L0.507,-0L0.366,-0L0.366,-0.334C0.366,-0.365 0.36,-0.387 0.347,-0.402C0.334,-0.416 0.312,-0.423 0.282,-0.423C0.24,-0.423 0.21,-0.407 0.192,-0.375L0.192,-0L0.051,-0L0.051,-0.75L0.192,-0.75L0.192,-0.471Z" style="fill:#1a1a18;fill-rule:nonzero;"/>
            </g>
            <g transform="matrix(83.3333,0,0,83.3333,2595.27,2931.18)">
                <path d="M0.297,0.01C0.22,0.01 0.157,-0.014 0.108,-0.062C0.059,-0.109 0.035,-0.172 0.035,-0.251L0.035,-0.265C0.035,-0.318 0.045,-0.366 0.066,-0.407C0.086,-0.449 0.115,-0.482 0.153,-0.504C0.191,-0.527 0.234,-0.538 0.282,-0.538C0.354,-0.538 0.411,-0.515 0.452,-0.47C0.494,-0.424 0.515,-0.36 0.515,-0.276L0.515,-0.218L0.178,-0.218C0.183,-0.184 0.197,-0.156 0.219,-0.135C0.242,-0.114 0.271,-0.104 0.307,-0.104C0.361,-0.104 0.403,-0.124 0.434,-0.163L0.503,-0.085C0.482,-0.056 0.454,-0.032 0.417,-0.015C0.381,0.001 0.341,0.01 0.297,0.01ZM0.281,-0.424C0.253,-0.424 0.231,-0.415 0.213,-0.396C0.196,-0.377 0.185,-0.35 0.18,-0.314L0.376,-0.314L0.376,-0.326C0.375,-0.357 0.367,-0.381 0.351,-0.399C0.334,-0.416 0.311,-0.424 0.281,-0.424Z" style="fill:#1a1a18;fill-rule:nonzero;"/>
            </g>
            <g transform="matrix(83.3333,0,0,83.3333,2661.07,2931.18)">
                <path d="M0.642,-0L0.495,-0L0.21,-0.468L0.21,-0L0.063,-0L0.063,-0.711L0.21,-0.711L0.496,-0.242L0.496,-0.711L0.642,-0.711L0.642,-0Z" style="fill:#1a1a18;fill-rule:nonzero;"/>
            </g>
            <g transform="matrix(83.3333,0,0,83.3333,2719.91,2931.18)">
                <path d="M0.297,0.01C0.22,0.01 0.157,-0.014 0.108,-0.062C0.059,-0.109 0.035,-0.172 0.035,-0.251L0.035,-0.265C0.035,-0.318 0.045,-0.366 0.066,-0.407C0.086,-0.449 0.115,-0.482 0.153,-0.504C0.191,-0.527 0.234,-0.538 0.282,-0.538C0.354,-0.538 0.411,-0.515 0.452,-0.47C0.494,-0.424 0.515,-0.36 0.515,-0.276L0.515,-0.218L0.178,-0.218C0.183,-0.184 0.197,-0.156 0.219,-0.135C0.242,-0.114 0.271,-0.104 0.307,-0.104C0.361,-0.104 0.403,-0.124 0.434,-0.163L0.503,-0.085C0.482,-0.056 0.454,-0.032 0.417,-0.015C0.381,0.001 0.341,0.01 0.297,0.01ZM0.281,-0.424C0.253,-0.424 0.231,-0.415 0.213,-0.396C0.196,-0.377 0.185,-0.35 0.18,-0.314L0.376,-0.314L0.376,-0.326C0.375,-0.357 0.367,-0.381 0.351,-0.399C0.334,-0.416 0.311,-0.424 0.281,-0.424Z" style="fill:#1a1a18;fill-rule:nonzero;"/>
            </g>
            <g transform="matrix(83.3333,0,0,83.3333,2764.95,2931.18)">
                <path d="M0.223,-0.658L0.223,-0.528L0.313,-0.528L0.313,-0.425L0.223,-0.425L0.223,-0.161C0.223,-0.142 0.227,-0.128 0.234,-0.119C0.242,-0.111 0.256,-0.106 0.277,-0.106C0.293,-0.106 0.307,-0.108 0.319,-0.11L0.319,-0.003C0.291,0.006 0.263,0.01 0.233,0.01C0.134,0.01 0.084,-0.04 0.082,-0.14L0.082,-0.425L0.005,-0.425L0.005,-0.528L0.082,-0.528L0.082,-0.658L0.223,-0.658Z" style="fill:#1a1a18;fill-rule:nonzero;"/>
            </g>
            <g transform="matrix(83.3333,0,0,83.3333,2793.11,2931.18)">
                <path d="M0.514,-0.192L0.583,-0.528L0.719,-0.528L0.584,-0L0.466,-0L0.366,-0.333L0.266,-0L0.148,-0L0.014,-0.528L0.15,-0.528L0.219,-0.192L0.315,-0.528L0.417,-0.528L0.514,-0.192Z" style="fill:#1a1a18;fill-rule:nonzero;"/>
            </g>
            <g transform="matrix(83.3333,0,0,83.3333,2854.35,2931.18)">
                <path d="M0.032,-0.269C0.032,-0.321 0.042,-0.368 0.063,-0.409C0.083,-0.45 0.112,-0.482 0.15,-0.504C0.188,-0.527 0.232,-0.538 0.282,-0.538C0.353,-0.538 0.411,-0.516 0.456,-0.473C0.501,-0.429 0.527,-0.37 0.532,-0.295L0.533,-0.259C0.533,-0.178 0.51,-0.113 0.465,-0.064C0.42,-0.015 0.359,0.01 0.283,0.01C0.207,0.01 0.146,-0.015 0.1,-0.063C0.055,-0.112 0.032,-0.179 0.032,-0.263L0.032,-0.269ZM0.173,-0.259C0.173,-0.209 0.183,-0.17 0.202,-0.144C0.221,-0.117 0.248,-0.104 0.283,-0.104C0.317,-0.104 0.344,-0.117 0.363,-0.143C0.382,-0.17 0.392,-0.212 0.392,-0.269C0.392,-0.319 0.382,-0.357 0.363,-0.384C0.344,-0.411 0.317,-0.424 0.282,-0.424C0.247,-0.424 0.221,-0.411 0.202,-0.384C0.183,-0.357 0.173,-0.315 0.173,-0.259Z" style="fill:#1a1a18;fill-rule:nonzero;"/>
            </g>
            <g transform="matrix(83.3333,0,0,83.3333,2901.47,2931.18)">
                <path d="M0.351,-0.396C0.332,-0.399 0.315,-0.4 0.3,-0.4C0.247,-0.4 0.212,-0.382 0.195,-0.346L0.195,-0L0.054,-0L0.054,-0.528L0.188,-0.528L0.191,-0.465C0.22,-0.514 0.259,-0.538 0.309,-0.538C0.325,-0.538 0.339,-0.536 0.353,-0.532L0.351,-0.396Z" style="fill:#1a1a18;fill-rule:nonzero;"/>
            </g>
            <g transform="matrix(83.3333,0,0,83.3333,2931.86,2931.18)">
                <path d="M0.246,-0.212L0.195,-0.161L0.195,-0L0.054,-0L0.054,-0.75L0.195,-0.75L0.195,-0.334L0.223,-0.37L0.358,-0.528L0.527,-0.528L0.336,-0.308L0.544,-0L0.382,-0L0.246,-0.212Z" style="fill:#1a1a18;fill-rule:nonzero;"/>
            </g>
        </g>
        <g transform="matrix(1,0,0,1,-543.307,648.212)">
            <g transform="matrix(83.3333,0,0,83.3333,1782.49,2889.52)">
                <path d="M0.063,-0L0.063,-0.711L0.282,-0.711C0.345,-0.711 0.401,-0.697 0.45,-0.669C0.499,-0.641 0.538,-0.601 0.565,-0.549C0.593,-0.497 0.607,-0.438 0.607,-0.372L0.607,-0.339C0.607,-0.273 0.593,-0.214 0.566,-0.163C0.539,-0.111 0.501,-0.071 0.451,-0.043C0.402,-0.015 0.346,-0 0.284,-0L0.063,-0ZM0.21,-0.592L0.21,-0.118L0.281,-0.118C0.338,-0.118 0.382,-0.136 0.412,-0.174C0.442,-0.211 0.458,-0.265 0.458,-0.334L0.458,-0.372C0.458,-0.444 0.444,-0.499 0.414,-0.536C0.384,-0.574 0.34,-0.592 0.282,-0.592L0.21,-0.592Z" style="fill:#1a1a18;fill-rule:nonzero;"/>
            </g>
            <g transform="matrix(83.3333,0,0,83.3333,1836.65,2889.52)">
                <path d="M0.032,-0.269C0.032,-0.321 0.042,-0.368 0.063,-0.409C0.083,-0.45 0.112,-0.482 0.15,-0.504C0.188,-0.527 0.232,-0.538 0.282,-0.538C0.353,-0.538 0.411,-0.516 0.456,-0.473C0.501,-0.429 0.527,-0.37 0.532,-0.295L0.533,-0.259C0.533,-0.178 0.51,-0.113 0.465,-0.064C0.42,-0.015 0.359,0.01 0.283,0.01C0.207,0.01 0.146,-0.015 0.1,-0.063C0.055,-0.112 0.032,-0.179 0.032,-0.263L0.032,-0.269ZM0.173,-0.259C0.173,-0.209 0.183,-0.17 0.202,-0.144C0.221,-0.117 0.248,-0.104 0.283,-0.104C0.317,-0.104 0.344,-0.117 0.363,-0.143C0.382,-0.17 0.392,-0.212 0.392,-0.269C0.392,-0.319 0.382,-0.357 0.363,-0.384C0.344,-0.411 0.317,-0.424 0.282,-0.424C0.247,-0.424 0.221,-0.411 0.202,-0.384C0.183,-0.357 0.173,-0.315 0.173,-0.259Z" style="fill:#1a1a18;fill-rule:nonzero;"/>
            </g>
            <g transform="matrix(83.3333,0,0,83.3333,1883.77,2889.52)">
                <path d="M0.187,-0.528L0.191,-0.469C0.228,-0.515 0.279,-0.538 0.343,-0.538C0.411,-0.538 0.458,-0.511 0.483,-0.458C0.52,-0.511 0.573,-0.538 0.642,-0.538C0.699,-0.538 0.742,-0.521 0.77,-0.488C0.798,-0.455 0.812,-0.404 0.812,-0.337L0.812,-0L0.67,-0L0.67,-0.337C0.67,-0.367 0.664,-0.389 0.652,-0.403C0.641,-0.416 0.62,-0.423 0.59,-0.423C0.548,-0.423 0.519,-0.403 0.502,-0.363L0.503,-0L0.362,-0L0.362,-0.336C0.362,-0.367 0.356,-0.389 0.344,-0.403C0.332,-0.417 0.311,-0.423 0.282,-0.423C0.242,-0.423 0.213,-0.407 0.195,-0.374L0.195,-0L0.054,-0L0.054,-0.528L0.187,-0.528Z" style="fill:#1a1a18;fill-rule:nonzero;"/>
            </g>
            <g transform="matrix(83.3333,0,0,83.3333,1955.91,2889.52)">
                <path d="M0.36,-0C0.354,-0.013 0.349,-0.028 0.346,-0.047C0.312,-0.009 0.268,0.01 0.213,0.01C0.161,0.01 0.118,-0.005 0.084,-0.035C0.05,-0.065 0.033,-0.103 0.033,-0.148C0.033,-0.204 0.054,-0.247 0.095,-0.277C0.137,-0.307 0.197,-0.322 0.275,-0.323L0.34,-0.323L0.34,-0.353C0.34,-0.377 0.334,-0.397 0.322,-0.412C0.309,-0.426 0.289,-0.434 0.262,-0.434C0.238,-0.434 0.22,-0.428 0.206,-0.417C0.193,-0.405 0.186,-0.389 0.186,-0.37L0.045,-0.37C0.045,-0.4 0.054,-0.429 0.073,-0.455C0.092,-0.481 0.119,-0.501 0.153,-0.516C0.188,-0.531 0.227,-0.538 0.27,-0.538C0.335,-0.538 0.386,-0.522 0.425,-0.489C0.463,-0.456 0.482,-0.41 0.482,-0.351L0.482,-0.122C0.482,-0.072 0.489,-0.034 0.503,-0.008L0.503,-0L0.36,-0ZM0.244,-0.098C0.264,-0.098 0.284,-0.103 0.301,-0.112C0.319,-0.121 0.332,-0.134 0.34,-0.149L0.34,-0.24L0.288,-0.24C0.217,-0.24 0.179,-0.216 0.175,-0.167L0.174,-0.159C0.174,-0.141 0.181,-0.127 0.193,-0.115C0.205,-0.104 0.222,-0.098 0.244,-0.098Z" style="fill:#1a1a18;fill-rule:nonzero;"/>
            </g>
            <g transform="matrix(83.3333,0,0,83.3333,2000.59,2889.52)">
                <path d="M0.203,-0L0.062,-0L0.062,-0.528L0.203,-0.528L0.203,-0ZM0.053,-0.665C0.053,-0.686 0.06,-0.704 0.074,-0.717C0.089,-0.731 0.108,-0.738 0.132,-0.738C0.156,-0.738 0.176,-0.731 0.19,-0.717C0.204,-0.704 0.211,-0.686 0.211,-0.665C0.211,-0.644 0.204,-0.626 0.19,-0.612C0.175,-0.599 0.156,-0.592 0.132,-0.592C0.109,-0.592 0.089,-0.599 0.075,-0.612C0.06,-0.626 0.053,-0.644 0.053,-0.665Z" style="fill:#1a1a18;fill-rule:nonzero;"/>
            </g>
            <g transform="matrix(83.3333,0,0,83.3333,2022.68,2889.52)">
                <path d="M0.184,-0.528L0.188,-0.467C0.226,-0.514 0.277,-0.538 0.34,-0.538C0.396,-0.538 0.438,-0.522 0.465,-0.489C0.493,-0.456 0.507,-0.407 0.507,-0.341L0.507,-0L0.366,-0L0.366,-0.338C0.366,-0.368 0.36,-0.39 0.347,-0.403C0.334,-0.417 0.312,-0.423 0.282,-0.423C0.242,-0.423 0.212,-0.406 0.192,-0.373L0.192,-0L0.051,-0L0.051,-0.528L0.184,-0.528Z" style="fill:#1a1a18;fill-rule:nonzero;"/>
            </g>
            <g transform="matrix(83.3333,0,0,83.3333,2069.35,2889.52)">
                <rect x="0.054" y="-0.361" width="0.275" height="0.114" style="fill:#1a1a18;fill-rule:nonzero;"/>
            </g>
            <g transform="matrix(83.3333,0,0,83.3333,2101.66,2889.52)">
                <path d="M0.432,-0.187C0.432,-0.214 0.422,-0.235 0.403,-0.25C0.383,-0.265 0.348,-0.281 0.297,-0.297C0.247,-0.314 0.206,-0.33 0.177,-0.346C0.096,-0.389 0.056,-0.448 0.056,-0.522C0.056,-0.56 0.066,-0.595 0.088,-0.625C0.11,-0.655 0.141,-0.678 0.181,-0.695C0.222,-0.712 0.267,-0.721 0.318,-0.721C0.369,-0.721 0.414,-0.712 0.454,-0.693C0.493,-0.675 0.524,-0.649 0.546,-0.615C0.568,-0.582 0.579,-0.544 0.579,-0.501L0.433,-0.501C0.433,-0.534 0.422,-0.559 0.402,-0.577C0.381,-0.595 0.353,-0.604 0.315,-0.604C0.28,-0.604 0.252,-0.596 0.232,-0.581C0.212,-0.566 0.202,-0.546 0.202,-0.521C0.202,-0.498 0.214,-0.479 0.237,-0.463C0.26,-0.448 0.295,-0.433 0.34,-0.419C0.423,-0.394 0.484,-0.363 0.522,-0.326C0.56,-0.289 0.579,-0.243 0.579,-0.188C0.579,-0.126 0.556,-0.078 0.509,-0.043C0.463,-0.008 0.4,0.01 0.321,0.01C0.267,0.01 0.217,-0 0.172,-0.02C0.127,-0.04 0.093,-0.068 0.069,-0.103C0.045,-0.137 0.034,-0.178 0.034,-0.224L0.181,-0.224C0.181,-0.145 0.228,-0.106 0.321,-0.106C0.356,-0.106 0.383,-0.113 0.403,-0.127C0.422,-0.141 0.432,-0.161 0.432,-0.187Z" style="fill:#1a1a18;fill-rule:nonzero;"/>
            </g>
            <g transform="matrix(83.3333,0,0,83.3333,2152.89,2889.52)">
                <path d="M0.53,-0.259C0.53,-0.178 0.511,-0.113 0.474,-0.064C0.437,-0.015 0.388,0.01 0.325,0.01C0.271,0.01 0.228,-0.009 0.195,-0.046L0.195,0.203L0.054,0.203L0.054,-0.528L0.185,-0.528L0.19,-0.477C0.224,-0.518 0.269,-0.538 0.324,-0.538C0.389,-0.538 0.439,-0.514 0.476,-0.466C0.512,-0.418 0.53,-0.351 0.53,-0.267L0.53,-0.259ZM0.389,-0.27C0.389,-0.319 0.38,-0.357 0.363,-0.383C0.345,-0.41 0.32,-0.423 0.287,-0.423C0.242,-0.423 0.212,-0.406 0.195,-0.373L0.195,-0.156C0.213,-0.121 0.243,-0.104 0.288,-0.104C0.355,-0.104 0.389,-0.159 0.389,-0.27Z" style="fill:#1a1a18;fill-rule:nonzero;"/>
            </g>
            <g transform="matrix(83.3333,0,0,83.3333,2199.81,2889.52)">
                <path d="M0.297,0.01C0.22,0.01 0.157,-0.014 0.108,-0.062C0.059,-0.109 0.035,-0.172 0.035,-0.251L0.035,-0.265C0.035,-0.318 0.045,-0.366 0.066,-0.407C0.086,-0.449 0.115,-0.482 0.153,-0.504C0.191,-0.527 0.234,-0.538 0.282,-0.538C0.354,-0.538 0.411,-0.515 0.452,-0.47C0.494,-0.424 0.515,-0.36 0.515,-0.276L0.515,-0.218L0.178,-0.218C0.183,-0.184 0.197,-0.156 0.219,-0.135C0.242,-0.114 0.271,-0.104 0.307,-0.104C0.361,-0.104 0.403,-0.124 0.434,-0.163L0.503,-0.085C0.482,-0.056 0.454,-0.032 0.417,-0.015C0.381,0.001 0.341,0.01 0.297,0.01ZM0.281,-0.424C0.253,-0.424 0.231,-0.415 0.213,-0.396C0.196,-0.377 0.185,-0.35 0.18,-0.314L0.376,-0.314L0.376,-0.326C0.375,-0.357 0.367,-0.381 0.351,-0.399C0.334,-0.416 0.311,-0.424 0.281,-0.424Z" style="fill:#1a1a18;fill-rule:nonzero;"/>
            </g>
            <g transform="matrix(83.3333,0,0,83.3333,2244.85,2889.52)">
                <path d="M0.274,-0.104C0.3,-0.104 0.321,-0.111 0.337,-0.125C0.354,-0.14 0.362,-0.159 0.363,-0.183L0.495,-0.183C0.495,-0.147 0.485,-0.114 0.466,-0.084C0.447,-0.054 0.42,-0.031 0.387,-0.015C0.354,0.002 0.317,0.01 0.276,0.01C0.201,0.01 0.141,-0.014 0.098,-0.062C0.054,-0.11 0.032,-0.177 0.032,-0.261L0.032,-0.271C0.032,-0.352 0.054,-0.417 0.097,-0.465C0.14,-0.514 0.2,-0.538 0.275,-0.538C0.341,-0.538 0.394,-0.519 0.434,-0.482C0.474,-0.444 0.494,-0.394 0.495,-0.332L0.363,-0.332C0.362,-0.359 0.354,-0.381 0.337,-0.399C0.321,-0.416 0.3,-0.424 0.273,-0.424C0.24,-0.424 0.215,-0.412 0.198,-0.388C0.182,-0.364 0.173,-0.326 0.173,-0.272L0.173,-0.257C0.173,-0.203 0.182,-0.164 0.198,-0.14C0.215,-0.116 0.24,-0.104 0.274,-0.104Z" style="fill:#1a1a18;fill-rule:nonzero;"/>
            </g>
            <g transform="matrix(83.3333,0,0,83.3333,2288.31,2889.52)">
                <path d="M0.203,-0L0.062,-0L0.062,-0.528L0.203,-0.528L0.203,-0ZM0.053,-0.665C0.053,-0.686 0.06,-0.704 0.074,-0.717C0.089,-0.731 0.108,-0.738 0.132,-0.738C0.156,-0.738 0.176,-0.731 0.19,-0.717C0.204,-0.704 0.211,-0.686 0.211,-0.665C0.211,-0.644 0.204,-0.626 0.19,-0.612C0.175,-0.599 0.156,-0.592 0.132,-0.592C0.109,-0.592 0.089,-0.599 0.075,-0.612C0.06,-0.626 0.053,-0.644 0.053,-0.665Z" style="fill:#1a1a18;fill-rule:nonzero;"/>
            </g>
            <g transform="matrix(83.3333,0,0,83.3333,2310.4,2889.52)">
                <path d="M0.088,-0L0.088,-0.425L0.01,-0.425L0.01,-0.528L0.088,-0.528L0.088,-0.553C0.089,-0.619 0.109,-0.67 0.15,-0.706C0.19,-0.742 0.247,-0.76 0.32,-0.76C0.364,-0.76 0.417,-0.751 0.48,-0.731L0.459,-0.615C0.428,-0.624 0.403,-0.63 0.385,-0.633C0.368,-0.636 0.349,-0.637 0.329,-0.637C0.263,-0.637 0.23,-0.608 0.23,-0.55L0.23,-0.528L0.334,-0.528L0.334,-0.425L0.23,-0.425L0.23,-0L0.088,-0ZM0.546,-0L0.404,-0L0.404,-0.528L0.546,-0.528L0.546,-0Z" style="fill:#1a1a18;fill-rule:nonzero;"/>
            </g>
            <g transform="matrix(83.3333,0,0,83.3333,2361.1,2889.52)">
                <path d="M0.274,-0.104C0.3,-0.104 0.321,-0.111 0.337,-0.125C0.354,-0.14 0.362,-0.159 0.363,-0.183L0.495,-0.183C0.495,-0.147 0.485,-0.114 0.466,-0.084C0.447,-0.054 0.42,-0.031 0.387,-0.015C0.354,0.002 0.317,0.01 0.276,0.01C0.201,0.01 0.141,-0.014 0.098,-0.062C0.054,-0.11 0.032,-0.177 0.032,-0.261L0.032,-0.271C0.032,-0.352 0.054,-0.417 0.097,-0.465C0.14,-0.514 0.2,-0.538 0.275,-0.538C0.341,-0.538 0.394,-0.519 0.434,-0.482C0.474,-0.444 0.494,-0.394 0.495,-0.332L0.363,-0.332C0.362,-0.359 0.354,-0.381 0.337,-0.399C0.321,-0.416 0.3,-0.424 0.273,-0.424C0.24,-0.424 0.215,-0.412 0.198,-0.388C0.182,-0.364 0.173,-0.326 0.173,-0.272L0.173,-0.257C0.173,-0.203 0.182,-0.164 0.198,-0.14C0.215,-0.116 0.24,-0.104 0.274,-0.104Z" style="fill:#1a1a18;fill-rule:nonzero;"/>
            </g>
            <g transform="matrix(83.3333,0,0,83.3333,2425.31,2889.52)">
                <path d="M0.063,-0L0.063,-0.711L0.282,-0.711C0.345,-0.711 0.401,-0.697 0.45,-0.669C0.499,-0.641 0.538,-0.601 0.565,-0.549C0.593,-0.497 0.607,-0.438 0.607,-0.372L0.607,-0.339C0.607,-0.273 0.593,-0.214 0.566,-0.163C0.539,-0.111 0.501,-0.071 0.451,-0.043C0.402,-0.015 0.346,-0 0.284,-0L0.063,-0ZM0.21,-0.592L0.21,-0.118L0.281,-0.118C0.338,-0.118 0.382,-0.136 0.412,-0.174C0.442,-0.211 0.458,-0.265 0.458,-0.334L0.458,-0.372C0.458,-0.444 0.444,-0.499 0.414,-0.536C0.384,-0.574 0.34,-0.592 0.282,-0.592L0.21,-0.592Z" style="fill:#1a1a18;fill-rule:nonzero;"/>
            </g>
            <g transform="matrix(83.3333,0,0,83.3333,2479.47,2889.52)">
                <path d="M0.36,-0C0.354,-0.013 0.349,-0.028 0.346,-0.047C0.312,-0.009 0.268,0.01 0.213,0.01C0.161,0.01 0.118,-0.005 0.084,-0.035C0.05,-0.065 0.033,-0.103 0.033,-0.148C0.033,-0.204 0.054,-0.247 0.095,-0.277C0.137,-0.307 0.197,-0.322 0.275,-0.323L0.34,-0.323L0.34,-0.353C0.34,-0.377 0.334,-0.397 0.322,-0.412C0.309,-0.426 0.289,-0.434 0.262,-0.434C0.238,-0.434 0.22,-0.428 0.206,-0.417C0.193,-0.405 0.186,-0.389 0.186,-0.37L0.045,-0.37C0.045,-0.4 0.054,-0.429 0.073,-0.455C0.092,-0.481 0.119,-0.501 0.153,-0.516C0.188,-0.531 0.227,-0.538 0.27,-0.538C0.335,-0.538 0.386,-0.522 0.425,-0.489C0.463,-0.456 0.482,-0.41 0.482,-0.351L0.482,-0.122C0.482,-0.072 0.489,-0.034 0.503,-0.008L0.503,-0L0.36,-0ZM0.244,-0.098C0.264,-0.098 0.284,-0.103 0.301,-0.112C0.319,-0.121 0.332,-0.134 0.34,-0.149L0.34,-0.24L0.288,-0.24C0.217,-0.24 0.179,-0.216 0.175,-0.167L0.174,-0.159C0.174,-0.141 0.181,-0.127 0.193,-0.115C0.205,-0.104 0.222,-0.098 0.244,-0.098Z" style="fill:#1a1a18;fill-rule:nonzero;"/>
            </g>
            <g transform="matrix(83.3333,0,0,83.3333,2524.15,2889.52)">
                <path d="M0.223,-0.658L0.223,-0.528L0.313,-0.528L0.313,-0.425L0.223,-0.425L0.223,-0.161C0.223,-0.142 0.227,-0.128 0.234,-0.119C0.242,-0.111 0.256,-0.106 0.277,-0.106C0.293,-0.106 0.307,-0.108 0.319,-0.11L0.319,-0.003C0.291,0.006 0.263,0.01 0.233,0.01C0.134,0.01 0.084,-0.04 0.082,-0.14L0.082,-0.425L0.005,-0.425L0.005,-0.528L0.082,-0.528L0.082,-0.658L0.223,-0.658Z" style="fill:#1a1a18;fill-rule:nonzero;"/>
            </g>
            <g transform="matrix(83.3333,0,0,83.3333,2552.31,2889.52)">
                <path d="M0.36,-0C0.354,-0.013 0.349,-0.028 0.346,-0.047C0.312,-0.009 0.268,0.01 0.213,0.01C0.161,0.01 0.118,-0.005 0.084,-0.035C0.05,-0.065 0.033,-0.103 0.033,-0.148C0.033,-0.204 0.054,-0.247 0.095,-0.277C0.137,-0.307 0.197,-0.322 0.275,-0.323L0.34,-0.323L0.34,-0.353C0.34,-0.377 0.334,-0.397 0.322,-0.412C0.309,-0.426 0.289,-0.434 0.262,-0.434C0.238,-0.434 0.22,-0.428 0.206,-0.417C0.193,-0.405 0.186,-0.389 0.186,-0.37L0.045,-0.37C0.045,-0.4 0.054,-0.429 0.073,-0.455C0.092,-0.481 0.119,-0.501 0.153,-0.516C0.188,-0.531 0.227,-0.538 0.27,-0.538C0.335,-0.538 0.386,-0.522 0.425,-0.489C0.463,-0.456 0.482,-0.41 0.482,-0.351L0.482,-0.122C0.482,-0.072 0.489,-0.034 0.503,-0.008L0.503,-0L0.36,-0ZM0.244,-0.098C0.264,-0.098 0.284,-0.103 0.301,-0.112C0.319,-0.121 0.332,-0.134 0.34,-0.149L0.34,-0.24L0.288,-0.24C0.217,-0.24 0.179,-0.216 0.175,-0.167L0.174,-0.159C0.174,-0.141 0.181,-0.127 0.193,-0.115C0.205,-0.104 0.222,-0.098 0.244,-0.098Z" style="fill:#1a1a18;fill-rule:nonzero;"/>
            </g>
            <g transform="matrix(83.3333,0,0,83.3333,2617.74,2889.52)">
                <path d="M0.21,-0.25L0.21,-0L0.063,-0L0.063,-0.711L0.341,-0.711C0.394,-0.711 0.441,-0.701 0.482,-0.682C0.522,-0.662 0.553,-0.634 0.575,-0.598C0.597,-0.562 0.608,-0.521 0.608,-0.476C0.608,-0.406 0.584,-0.351 0.536,-0.311C0.489,-0.271 0.423,-0.25 0.338,-0.25L0.21,-0.25ZM0.21,-0.369L0.341,-0.369C0.38,-0.369 0.409,-0.378 0.429,-0.396C0.45,-0.415 0.46,-0.441 0.46,-0.475C0.46,-0.509 0.45,-0.538 0.429,-0.559C0.409,-0.581 0.38,-0.592 0.344,-0.592L0.21,-0.592L0.21,-0.369Z" style="fill:#1a1a18;fill-rule:nonzero;"/>
            </g>
            <g transform="matrix(83.3333,0,0,83.3333,2671.49,2889.52)">
                <path d="M0.351,-0.396C0.332,-0.399 0.315,-0.4 0.3,-0.4C0.247,-0.4 0.212,-0.382 0.195,-0.346L0.195,-0L0.054,-0L0.054,-0.528L0.188,-0.528L0.191,-0.465C0.22,-0.514 0.259,-0.538 0.309,-0.538C0.325,-0.538 0.339,-0.536 0.353,-0.532L0.351,-0.396Z" style="fill:#1a1a18;fill-rule:nonzero;"/>
            </g>
            <g transform="matrix(83.3333,0,0,83.3333,2700.42,2889.52)">
                <path d="M0.032,-0.269C0.032,-0.321 0.042,-0.368 0.063,-0.409C0.083,-0.45 0.112,-0.482 0.15,-0.504C0.188,-0.527 0.232,-0.538 0.282,-0.538C0.353,-0.538 0.411,-0.516 0.456,-0.473C0.501,-0.429 0.527,-0.37 0.532,-0.295L0.533,-0.259C0.533,-0.178 0.51,-0.113 0.465,-0.064C0.42,-0.015 0.359,0.01 0.283,0.01C0.207,0.01 0.146,-0.015 0.1,-0.063C0.055,-0.112 0.032,-0.179 0.032,-0.263L0.032,-0.269ZM0.173,-0.259C0.173,-0.209 0.183,-0.17 0.202,-0.144C0.221,-0.117 0.248,-0.104 0.283,-0.104C0.317,-0.104 0.344,-0.117 0.363,-0.143C0.382,-0.17 0.392,-0.212 0.392,-0.269C0.392,-0.319 0.382,-0.357 0.363,-0.384C0.344,-0.411 0.317,-0.424 0.282,-0.424C0.247,-0.424 0.221,-0.411 0.202,-0.384C0.183,-0.357 0.173,-0.315 0.173,-0.259Z" style="fill:#1a1a18;fill-rule:nonzero;"/>
            </g>
            <g transform="matrix(83.3333,0,0,83.3333,2746.93,2889.52)">
                <path d="M0.252,-0.172L0.35,-0.528L0.498,-0.528L0.319,-0L0.185,-0L0.006,-0.528L0.154,-0.528L0.252,-0.172Z" style="fill:#1a1a18;fill-rule:nonzero;"/>
            </g>
            <g transform="matrix(83.3333,0,0,83.3333,2789.04,2889.52)">
                <path d="M0.203,-0L0.062,-0L0.062,-0.528L0.203,-0.528L0.203,-0ZM0.053,-0.665C0.053,-0.686 0.06,-0.704 0.074,-0.717C0.089,-0.731 0.108,-0.738 0.132,-0.738C0.156,-0.738 0.176,-0.731 0.19,-0.717C0.204,-0.704 0.211,-0.686 0.211,-0.665C0.211,-0.644 0.204,-0.626 0.19,-0.612C0.175,-0.599 0.156,-0.592 0.132,-0.592C0.109,-0.592 0.089,-0.599 0.075,-0.612C0.06,-0.626 0.053,-0.644 0.053,-0.665Z" style="fill:#1a1a18;fill-rule:nonzero;"/>
            </g>
            <g transform="matrix(83.3333,0,0,83.3333,2811.14,2889.52)">
                <path d="M0.032,-0.268C0.032,-0.35 0.051,-0.416 0.088,-0.465C0.125,-0.514 0.175,-0.538 0.239,-0.538C0.291,-0.538 0.333,-0.519 0.367,-0.48L0.367,-0.75L0.508,-0.75L0.508,-0L0.381,-0L0.374,-0.056C0.339,-0.012 0.294,0.01 0.238,0.01C0.176,0.01 0.126,-0.015 0.089,-0.064C0.051,-0.113 0.032,-0.181 0.032,-0.268ZM0.173,-0.258C0.173,-0.208 0.182,-0.17 0.199,-0.144C0.216,-0.117 0.242,-0.104 0.274,-0.104C0.318,-0.104 0.349,-0.122 0.367,-0.159L0.367,-0.368C0.349,-0.405 0.319,-0.423 0.275,-0.423C0.207,-0.423 0.173,-0.368 0.173,-0.258Z" style="fill:#1a1a18;fill-rule:nonzero;"/>
            </g>
            <g transform="matrix(83.3333,0,0,83.3333,2858.09,2889.52)">
                <path d="M0.297,0.01C0.22,0.01 0.157,-0.014 0.108,-0.062C0.059,-0.109 0.035,-0.172 0.035,-0.251L0.035,-0.265C0.035,-0.318 0.045,-0.366 0.066,-0.407C0.086,-0.449 0.115,-0.482 0.153,-0.504C0.191,-0.527 0.234,-0.538 0.282,-0.538C0.354,-0.538 0.411,-0.515 0.452,-0.47C0.494,-0.424 0.515,-0.36 0.515,-0.276L0.515,-0.218L0.178,-0.218C0.183,-0.184 0.197,-0.156 0.219,-0.135C0.242,-0.114 0.271,-0.104 0.307,-0.104C0.361,-0.104 0.403,-0.124 0.434,-0.163L0.503,-0.085C0.482,-0.056 0.454,-0.032 0.417,-0.015C0.381,0.001 0.341,0.01 0.297,0.01ZM0.281,-0.424C0.253,-0.424 0.231,-0.415 0.213,-0.396C0.196,-0.377 0.185,-0.35 0.18,-0.314L0.376,-0.314L0.376,-0.326C0.375,-0.357 0.367,-0.381 0.351,-0.399C0.334,-0.416 0.311,-0.424 0.281,-0.424Z" style="fill:#1a1a18;fill-rule:nonzero;"/>
            </g>
            <g transform="matrix(83.3333,0,0,83.3333,2903.14,2889.52)">
                <path d="M0.351,-0.396C0.332,-0.399 0.315,-0.4 0.3,-0.4C0.247,-0.4 0.212,-0.382 0.195,-0.346L0.195,-0L0.054,-0L0.054,-0.528L0.188,-0.528L0.191,-0.465C0.22,-0.514 0.259,-0.538 0.309,-0.538C0.325,-0.538 0.339,-0.536 0.353,-0.532L0.351,-0.396Z" style="fill:#1a1a18;fill-rule:nonzero;"/>
            </g>
            <g transform="matrix(83.3333,0,0,83.3333,2933.53,2889.52)">
                <path d="M0.34,-0.146C0.34,-0.163 0.332,-0.177 0.315,-0.187C0.298,-0.197 0.27,-0.206 0.232,-0.213C0.107,-0.24 0.044,-0.293 0.044,-0.374C0.044,-0.42 0.063,-0.46 0.102,-0.491C0.141,-0.522 0.192,-0.538 0.255,-0.538C0.322,-0.538 0.376,-0.522 0.416,-0.491C0.456,-0.459 0.476,-0.418 0.476,-0.368L0.335,-0.368C0.335,-0.388 0.328,-0.405 0.315,-0.418C0.302,-0.431 0.282,-0.438 0.254,-0.438C0.231,-0.438 0.212,-0.432 0.199,-0.421C0.186,-0.411 0.18,-0.397 0.18,-0.38C0.18,-0.365 0.187,-0.352 0.202,-0.343C0.217,-0.333 0.242,-0.325 0.277,-0.318C0.312,-0.311 0.342,-0.303 0.366,-0.294C0.44,-0.267 0.478,-0.219 0.478,-0.152C0.478,-0.104 0.457,-0.065 0.416,-0.035C0.374,-0.005 0.321,0.01 0.255,0.01C0.211,0.01 0.172,0.002 0.137,-0.014C0.103,-0.03 0.076,-0.051 0.057,-0.079C0.037,-0.106 0.027,-0.136 0.027,-0.168L0.161,-0.168C0.162,-0.143 0.172,-0.124 0.189,-0.11C0.206,-0.097 0.229,-0.09 0.258,-0.09C0.285,-0.09 0.306,-0.095 0.32,-0.106C0.333,-0.116 0.34,-0.129 0.34,-0.146Z" style="fill:#1a1a18;fill-rule:nonzero;"/>
            </g>
        </g>
        <g transform="matrix(1,0,0,1,-543.307,1346.46)">
            <g transform="matrix(83.3333,0,0,83.3333,2030.01,2847.85)">
                <path d="M0.465,-0.146L0.208,-0.146L0.159,-0L0.003,-0L0.268,-0.711L0.404,-0.711L0.67,-0L0.514,-0L0.465,-0.146ZM0.248,-0.265L0.425,-0.265L0.336,-0.531L0.248,-0.265Z" style="fill:#1a1a18;fill-rule:nonzero;"/>
            </g>
            <g transform="matrix(83.3333,0,0,83.3333,2086.08,2847.85)">
                <path d="M0.34,-0.146C0.34,-0.163 0.332,-0.177 0.315,-0.187C0.298,-0.197 0.27,-0.206 0.232,-0.213C0.107,-0.24 0.044,-0.293 0.044,-0.374C0.044,-0.42 0.063,-0.46 0.102,-0.491C0.141,-0.522 0.192,-0.538 0.255,-0.538C0.322,-0.538 0.376,-0.522 0.416,-0.491C0.456,-0.459 0.476,-0.418 0.476,-0.368L0.335,-0.368C0.335,-0.388 0.328,-0.405 0.315,-0.418C0.302,-0.431 0.282,-0.438 0.254,-0.438C0.231,-0.438 0.212,-0.432 0.199,-0.421C0.186,-0.411 0.18,-0.397 0.18,-0.38C0.18,-0.365 0.187,-0.352 0.202,-0.343C0.217,-0.333 0.242,-0.325 0.277,-0.318C0.312,-0.311 0.342,-0.303 0.366,-0.294C0.44,-0.267 0.478,-0.219 0.478,-0.152C0.478,-0.104 0.457,-0.065 0.416,-0.035C0.374,-0.005 0.321,0.01 0.255,0.01C0.211,0.01 0.172,0.002 0.137,-0.014C0.103,-0.03 0.076,-0.051 0.057,-0.079C0.037,-0.106 0.027,-0.136 0.027,-0.168L0.161,-0.168C0.162,-0.143 0.172,-0.124 0.189,-0.11C0.206,-0.097 0.229,-0.09 0.258,-0.09C0.285,-0.09 0.306,-0.095 0.32,-0.106C0.333,-0.116 0.34,-0.129 0.34,-0.146Z" style="fill:#1a1a18;fill-rule:nonzero;"/>
            </g>
            <g transform="matrix(83.3333,0,0,83.3333,2128.93,2847.85)">
                <path d="M0.34,-0.146C0.34,-0.163 0.332,-0.177 0.315,-0.187C0.298,-0.197 0.27,-0.206 0.232,-0.213C0.107,-0.24 0.044,-0.293 0.044,-0.374C0.044,-0.42 0.063,-0.46 0.102,-0.491C0.141,-0.522 0.192,-0.538 0.255,-0.538C0.322,-0.538 0.376,-0.522 0.416,-0.491C0.456,-0.459 0.476,-0.418 0.476,-0.368L0.335,-0.368C0.335,-0.388 0.328,-0.405 0.315,-0.418C0.302,-0.431 0.282,-0.438 0.254,-0.438C0.231,-0.438 0.212,-0.432 0.199,-0.421C0.186,-0.411 0.18,-0.397 0.18,-0.38C0.18,-0.365 0.187,-0.352 0.202,-0.343C0.217,-0.333 0.242,-0.325 0.277,-0.318C0.312,-0.311 0.342,-0.303 0.366,-0.294C0.44,-0.267 0.478,-0.219 0.478,-0.152C0.478,-0.104 0.457,-0.065 0.416,-0.035C0.374,-0.005 0.321,0.01 0.255,0.01C0.211,0.01 0.172,0.002 0.137,-0.014C0.103,-0.03 0.076,-0.051 0.057,-0.079C0.037,-0.106 0.027,-0.136 0.027,-0.168L0.161,-0.168C0.162,-0.143 0.172,-0.124 0.189,-0.11C0.206,-0.097 0.229,-0.09 0.258,-0.09C0.285,-0.09 0.306,-0.095 0.32,-0.106C0.333,-0.116 0.34,-0.129 0.34,-0.146Z" style="fill:#1a1a18;fill-rule:nonzero;"/>
            </g>
            <g transform="matrix(83.3333,0,0,83.3333,2171.77,2847.85)">
                <path d="M0.203,-0L0.062,-0L0.062,-0.528L0.203,-0.528L0.203,-0ZM0.053,-0.665C0.053,-0.686 0.06,-0.704 0.074,-0.717C0.089,-0.731 0.108,-0.738 0.132,-0.738C0.156,-0.738 0.176,-0.731 0.19,-0.717C0.204,-0.704 0.211,-0.686 0.211,-0.665C0.211,-0.644 0.204,-0.626 0.19,-0.612C0.175,-0.599 0.156,-0.592 0.132,-0.592C0.109,-0.592 0.089,-0.599 0.075,-0.612C0.06,-0.626 0.053,-0.644 0.053,-0.665Z" style="fill:#1a1a18;fill-rule:nonzero;"/>
            </g>
            <g transform="matrix(83.3333,0,0,83.3333,2193.87,2847.85)">
                <path d="M0.34,-0.146C0.34,-0.163 0.332,-0.177 0.315,-0.187C0.298,-0.197 0.27,-0.206 0.232,-0.213C0.107,-0.24 0.044,-0.293 0.044,-0.374C0.044,-0.42 0.063,-0.46 0.102,-0.491C0.141,-0.522 0.192,-0.538 0.255,-0.538C0.322,-0.538 0.376,-0.522 0.416,-0.491C0.456,-0.459 0.476,-0.418 0.476,-0.368L0.335,-0.368C0.335,-0.388 0.328,-0.405 0.315,-0.418C0.302,-0.431 0.282,-0.438 0.254,-0.438C0.231,-0.438 0.212,-0.432 0.199,-0.421C0.186,-0.411 0.18,-0.397 0.18,-0.38C0.18,-0.365 0.187,-0.352 0.202,-0.343C0.217,-0.333 0.242,-0.325 0.277,-0.318C0.312,-0.311 0.342,-0.303 0.366,-0.294C0.44,-0.267 0.478,-0.219 0.478,-0.152C0.478,-0.104 0.457,-0.065 0.416,-0.035C0.374,-0.005 0.321,0.01 0.255,0.01C0.211,0.01 0.172,0.002 0.137,-0.014C0.103,-0.03 0.076,-0.051 0.057,-0.079C0.037,-0.106 0.027,-0.136 0.027,-0.168L0.161,-0.168C0.162,-0.143 0.172,-0.124 0.189,-0.11C0.206,-0.097 0.229,-0.09 0.258,-0.09C0.285,-0.09 0.306,-0.095 0.32,-0.106C0.333,-0.116 0.34,-0.129 0.34,-0.146Z" style="fill:#1a1a18;fill-rule:nonzero;"/>
            </g>
            <g transform="matrix(83.3333,0,0,83.3333,2236.71,2847.85)">
                <path d="M0.223,-0.658L0.223,-0.528L0.313,-0.528L0.313,-0.425L0.223,-0.425L0.223,-0.161C0.223,-0.142 0.227,-0.128 0.234,-0.119C0.242,-0.111 0.256,-0.106 0.277,-0.106C0.293,-0.106 0.307,-0.108 0.319,-0.11L0.319,-0.003C0.291,0.006 0.263,0.01 0.233,0.01C0.134,0.01 0.084,-0.04 0.082,-0.14L0.082,-0.425L0.005,-0.425L0.005,-0.528L0.082,-0.528L0.082,-0.658L0.223,-0.658Z" style="fill:#1a1a18;fill-rule:nonzero;"/>
            </g>
            <g transform="matrix(83.3333,0,0,83.3333,2264.87,2847.85)">
                <path d="M0.297,0.01C0.22,0.01 0.157,-0.014 0.108,-0.062C0.059,-0.109 0.035,-0.172 0.035,-0.251L0.035,-0.265C0.035,-0.318 0.045,-0.366 0.066,-0.407C0.086,-0.449 0.115,-0.482 0.153,-0.504C0.191,-0.527 0.234,-0.538 0.282,-0.538C0.354,-0.538 0.411,-0.515 0.452,-0.47C0.494,-0.424 0.515,-0.36 0.515,-0.276L0.515,-0.218L0.178,-0.218C0.183,-0.184 0.197,-0.156 0.219,-0.135C0.242,-0.114 0.271,-0.104 0.307,-0.104C0.361,-0.104 0.403,-0.124 0.434,-0.163L0.503,-0.085C0.482,-0.056 0.454,-0.032 0.417,-0.015C0.381,0.001 0.341,0.01 0.297,0.01ZM0.281,-0.424C0.253,-0.424 0.231,-0.415 0.213,-0.396C0.196,-0.377 0.185,-0.35 0.18,-0.314L0.376,-0.314L0.376,-0.326C0.375,-0.357 0.367,-0.381 0.351,-0.399C0.334,-0.416 0.311,-0.424 0.281,-0.424Z" style="fill:#1a1a18;fill-rule:nonzero;"/>
            </g>
            <g transform="matrix(83.3333,0,0,83.3333,2309.91,2847.85)">
                <path d="M0.032,-0.268C0.032,-0.35 0.051,-0.416 0.088,-0.465C0.125,-0.514 0.175,-0.538 0.239,-0.538C0.291,-0.538 0.333,-0.519 0.367,-0.48L0.367,-0.75L0.508,-0.75L0.508,-0L0.381,-0L0.374,-0.056C0.339,-0.012 0.294,0.01 0.238,0.01C0.176,0.01 0.126,-0.015 0.089,-0.064C0.051,-0.113 0.032,-0.181 0.032,-0.268ZM0.173,-0.258C0.173,-0.208 0.182,-0.17 0.199,-0.144C0.216,-0.117 0.242,-0.104 0.274,-0.104C0.318,-0.104 0.349,-0.122 0.367,-0.159L0.367,-0.368C0.349,-0.405 0.319,-0.423 0.275,-0.423C0.207,-0.423 0.173,-0.368 0.173,-0.258Z" style="fill:#1a1a18;fill-rule:nonzero;"/>
            </g>
            <g transform="matrix(83.3333,0,0,83.3333,2377.62,2847.85)">
                <path d="M0.032,-0.268C0.032,-0.35 0.051,-0.416 0.088,-0.465C0.125,-0.514 0.175,-0.538 0.239,-0.538C0.291,-0.538 0.333,-0.519 0.367,-0.48L0.367,-0.75L0.508,-0.75L0.508,-0L0.381,-0L0.374,-0.056C0.339,-0.012 0.294,0.01 0.238,0.01C0.176,0.01 0.126,-0.015 0.089,-0.064C0.051,-0.113 0.032,-0.181 0.032,-0.268ZM0.173,-0.258C0.173,-0.208 0.182,-0.17 0.199,-0.144C0.216,-0.117 0.242,-0.104 0.274,-0.104C0.318,-0.104 0.349,-0.122 0.367,-0.159L0.367,-0.368C0.349,-0.405 0.319,-0.423 0.275,-0.423C0.207,-0.423 0.173,-0.368 0.173,-0.258Z" style="fill:#1a1a18;fill-rule:nonzero;"/>
            </g>
            <g transform="matrix(83.3333,0,0,83.3333,2424.58,2847.85)">
                <path d="M0.297,0.01C0.22,0.01 0.157,-0.014 0.108,-0.062C0.059,-0.109 0.035,-0.172 0.035,-0.251L0.035,-0.265C0.035,-0.318 0.045,-0.366 0.066,-0.407C0.086,-0.449 0.115,-0.482 0.153,-0.504C0.191,-0.527 0.234,-0.538 0.282,-0.538C0.354,-0.538 0.411,-0.515 0.452,-0.47C0.494,-0.424 0.515,-0.36 0.515,-0.276L0.515,-0.218L0.178,-0.218C0.183,-0.184 0.197,-0.156 0.219,-0.135C0.242,-0.114 0.271,-0.104 0.307,-0.104C0.361,-0.104 0.403,-0.124 0.434,-0.163L0.503,-0.085C0.482,-0.056 0.454,-0.032 0.417,-0.015C0.381,0.001 0.341,0.01 0.297,0.01ZM0.281,-0.424C0.253,-0.424 0.231,-0.415 0.213,-0.396C0.196,-0.377 0.185,-0.35 0.18,-0.314L0.376,-0.314L0.376,-0.326C0.375,-0.357 0.367,-0.381 0.351,-0.399C0.334,-0.416 0.311,-0.424 0.281,-0.424Z" style="fill:#1a1a18;fill-rule:nonzero;"/>
            </g>
            <g transform="matrix(83.3333,0,0,83.3333,2469.62,2847.85)">
                <path d="M0.53,-0.259C0.53,-0.178 0.511,-0.113 0.474,-0.064C0.437,-0.015 0.388,0.01 0.325,0.01C0.271,0.01 0.228,-0.009 0.195,-0.046L0.195,0.203L0.054,0.203L0.054,-0.528L0.185,-0.528L0.19,-0.477C0.224,-0.518 0.269,-0.538 0.324,-0.538C0.389,-0.538 0.439,-0.514 0.476,-0.466C0.512,-0.418 0.53,-0.351 0.53,-0.267L0.53,-0.259ZM0.389,-0.27C0.389,-0.319 0.38,-0.357 0.363,-0.383C0.345,-0.41 0.32,-0.423 0.287,-0.423C0.242,-0.423 0.212,-0.406 0.195,-0.373L0.195,-0.156C0.213,-0.121 0.243,-0.104 0.288,-0.104C0.355,-0.104 0.389,-0.159 0.389,-0.27Z" style="fill:#1a1a18;fill-rule:nonzero;"/>
            </g>
            <g transform="matrix(83.3333,0,0,83.3333,2516.54,2847.85)">
                <rect x="0.062" y="-0.75" width="0.142" height="0.75" style="fill:#1a1a18;fill-rule:nonzero;"/>
            </g>
            <g transform="matrix(83.3333,0,0,83.3333,2538.63,2847.85)">
                <path d="M0.032,-0.269C0.032,-0.321 0.042,-0.368 0.063,-0.409C0.083,-0.45 0.112,-0.482 0.15,-0.504C0.188,-0.527 0.232,-0.538 0.282,-0.538C0.353,-0.538 0.411,-0.516 0.456,-0.473C0.501,-0.429 0.527,-0.37 0.532,-0.295L0.533,-0.259C0.533,-0.178 0.51,-0.113 0.465,-0.064C0.42,-0.015 0.359,0.01 0.283,0.01C0.207,0.01 0.146,-0.015 0.1,-0.063C0.055,-0.112 0.032,-0.179 0.032,-0.263L0.032,-0.269ZM0.173,-0.259C0.173,-0.209 0.183,-0.17 0.202,-0.144C0.221,-0.117 0.248,-0.104 0.283,-0.104C0.317,-0.104 0.344,-0.117 0.363,-0.143C0.382,-0.17 0.392,-0.212 0.392,-0.269C0.392,-0.319 0.382,-0.357 0.363,-0.384C0.344,-0.411 0.317,-0.424 0.282,-0.424C0.247,-0.424 0.221,-0.411 0.202,-0.384C0.183,-0.357 0.173,-0.315 0.173,-0.259Z" style="fill:#1a1a18;fill-rule:nonzero;"/>
            </g>
            <g transform="matrix(83.3333,0,0,83.3333,2585.14,2847.85)">
                <path d="M0.251,-0.2L0.349,-0.528L0.5,-0.528L0.288,0.082L0.276,0.11C0.245,0.179 0.193,0.213 0.12,0.213C0.1,0.213 0.079,0.21 0.058,0.204L0.058,0.097L0.079,0.098C0.106,0.098 0.126,0.094 0.139,0.085C0.152,0.077 0.162,0.064 0.17,0.045L0.187,0.001L0.001,-0.528L0.153,-0.528L0.251,-0.2Z" style="fill:#1a1a18;fill-rule:nonzero;"/>
            </g>
            <g transform="matrix(83.3333,0,0,83.3333,2626.97,2847.85)">
                <path d="M0.187,-0.528L0.191,-0.469C0.228,-0.515 0.279,-0.538 0.343,-0.538C0.411,-0.538 0.458,-0.511 0.483,-0.458C0.52,-0.511 0.573,-0.538 0.642,-0.538C0.699,-0.538 0.742,-0.521 0.77,-0.488C0.798,-0.455 0.812,-0.404 0.812,-0.337L0.812,-0L0.67,-0L0.67,-0.337C0.67,-0.367 0.664,-0.389 0.652,-0.403C0.641,-0.416 0.62,-0.423 0.59,-0.423C0.548,-0.423 0.519,-0.403 0.502,-0.363L0.503,-0L0.362,-0L0.362,-0.336C0.362,-0.367 0.356,-0.389 0.344,-0.403C0.332,-0.417 0.311,-0.423 0.282,-0.423C0.242,-0.423 0.213,-0.407 0.195,-0.374L0.195,-0L0.054,-0L0.054,-0.528L0.187,-0.528Z" style="fill:#1a1a18;fill-rule:nonzero;"/>
            </g>
            <g transform="matrix(83.3333,0,0,83.3333,2699.12,2847.85)">
                <path d="M0.297,0.01C0.22,0.01 0.157,-0.014 0.108,-0.062C0.059,-0.109 0.035,-0.172 0.035,-0.251L0.035,-0.265C0.035,-0.318 0.045,-0.366 0.066,-0.407C0.086,-0.449 0.115,-0.482 0.153,-0.504C0.191,-0.527 0.234,-0.538 0.282,-0.538C0.354,-0.538 0.411,-0.515 0.452,-0.47C0.494,-0.424 0.515,-0.36 0.515,-0.276L0.515,-0.218L0.178,-0.218C0.183,-0.184 0.197,-0.156 0.219,-0.135C0.242,-0.114 0.271,-0.104 0.307,-0.104C0.361,-0.104 0.403,-0.124 0.434,-0.163L0.503,-0.085C0.482,-0.056 0.454,-0.032 0.417,-0.015C0.381,0.001 0.341,0.01 0.297,0.01ZM0.281,-0.424C0.253,-0.424 0.231,-0.415 0.213,-0.396C0.196,-0.377 0.185,-0.35 0.18,-0.314L0.376,-0.314L0.376,-0.326C0.375,-0.357 0.367,-0.381 0.351,-0.399C0.334,-0.416 0.311,-0.424 0.281,-0.424Z" style="fill:#1a1a18;fill-rule:nonzero;"/>
            </g>
            <g transform="matrix(83.3333,0,0,83.3333,2744.16,2847.85)">
                <path d="M0.184,-0.528L0.188,-0.467C0.226,-0.514 0.277,-0.538 0.34,-0.538C0.396,-0.538 0.438,-0.522 0.465,-0.489C0.493,-0.456 0.507,-0.407 0.507,-0.341L0.507,-0L0.366,-0L0.366,-0.338C0.366,-0.368 0.36,-0.39 0.347,-0.403C0.334,-0.417 0.312,-0.423 0.282,-0.423C0.242,-0.423 0.212,-0.406 0.192,-0.373L0.192,-0L0.051,-0L0.051,-0.528L0.184,-0.528Z" style="fill:#1a1a18;fill-rule:nonzero;"/>
            </g>
            <g transform="matrix(83.3333,0,0,83.3333,2790.83,2847.85)">
                <path d="M0.223,-0.658L0.223,-0.528L0.313,-0.528L0.313,-0.425L0.223,-0.425L0.223,-0.161C0.223,-0.142 0.227,-0.128 0.234,-0.119C0.242,-0.111 0.256,-0.106 0.277,-0.106C0.293,-0.106 0.307,-0.108 0.319,-0.11L0.319,-0.003C0.291,0.006 0.263,0.01 0.233,0.01C0.134,0.01 0.084,-0.04 0.082,-0.14L0.082,-0.425L0.005,-0.425L0.005,-0.528L0.082,-0.528L0.082,-0.658L0.223,-0.658Z" style="fill:#1a1a18;fill-rule:nonzero;"/>
            </g>
            <g transform="matrix(83.3333,0,0,83.3333,2818.99,2847.85)">
                <path d="M0.34,-0.146C0.34,-0.163 0.332,-0.177 0.315,-0.187C0.298,-0.197 0.27,-0.206 0.232,-0.213C0.107,-0.24 0.044,-0.293 0.044,-0.374C0.044,-0.42 0.063,-0.46 0.102,-0.491C0.141,-0.522 0.192,-0.538 0.255,-0.538C0.322,-0.538 0.376,-0.522 0.416,-0.491C0.456,-0.459 0.476,-0.418 0.476,-0.368L0.335,-0.368C0.335,-0.388 0.328,-0.405 0.315,-0.418C0.302,-0.431 0.282,-0.438 0.254,-0.438C0.231,-0.438 0.212,-0.432 0.199,-0.421C0.186,-0.411 0.18,-0.397 0.18,-0.38C0.18,-0.365 0.187,-0.352 0.202,-0.343C0.217,-0.333 0.242,-0.325 0.277,-0.318C0.312,-0.311 0.342,-0.303 0.366,-0.294C0.44,-0.267 0.478,-0.219 0.478,-0.152C0.478,-0.104 0.457,-0.065 0.416,-0.035C0.374,-0.005 0.321,0.01 0.255,0.01C0.211,0.01 0.172,0.002 0.137,-0.014C0.103,-0.03 0.076,-0.051 0.057,-0.079C0.037,-0.106 0.027,-0.136 0.027,-0.168L0.161,-0.168C0.162,-0.143 0.172,-0.124 0.189,-0.11C0.206,-0.097 0.229,-0.09 0.258,-0.09C0.285,-0.09 0.306,-0.095 0.32,-0.106C0.333,-0.116 0.34,-0.129 0.34,-0.146Z" style="fill:#1a1a18;fill-rule:nonzero;"/>
            </g>
            <g transform="matrix(83.3333,0,0,83.3333,2882.59,2847.85)">
                <path d="M0.032,-0.269C0.032,-0.321 0.042,-0.368 0.063,-0.409C0.083,-0.45 0.112,-0.482 0.15,-0.504C0.188,-0.527 0.232,-0.538 0.282,-0.538C0.353,-0.538 0.411,-0.516 0.456,-0.473C0.501,-0.429 0.527,-0.37 0.532,-0.295L0.533,-0.259C0.533,-0.178 0.51,-0.113 0.465,-0.064C0.42,-0.015 0.359,0.01 0.283,0.01C0.207,0.01 0.146,-0.015 0.1,-0.063C0.055,-0.112 0.032,-0.179 0.032,-0.263L0.032,-0.269ZM0.173,-0.259C0.173,-0.209 0.183,-0.17 0.202,-0.144C0.221,-0.117 0.248,-0.104 0.283,-0.104C0.317,-0.104 0.344,-0.117 0.363,-0.143C0.382,-0.17 0.392,-0.212 0.392,-0.269C0.392,-0.319 0.382,-0.357 0.363,-0.384C0.344,-0.411 0.317,-0.424 0.282,-0.424C0.247,-0.424 0.221,-0.411 0.202,-0.384C0.183,-0.357 0.173,-0.315 0.173,-0.259Z" style="fill:#1a1a18;fill-rule:nonzero;"/>
            </g>
            <g transform="matrix(83.3333,0,0,83.3333,2929.71,2847.85)">
                <path d="M0.184,-0.528L0.188,-0.467C0.226,-0.514 0.277,-0.538 0.34,-0.538C0.396,-0.538 0.438,-0.522 0.465,-0.489C0.493,-0.456 0.507,-0.407 0.507,-0.341L0.507,-0L0.366,-0L0.366,-0.338C0.366,-0.368 0.36,-0.39 0.347,-0.403C0.334,-0.417 0.312,-0.423 0.282,-0.423C0.242,-0.423 0.212,-0.406 0.192,-0.373L0.192,-0L0.051,-0L0.051,-0.528L0.184,-0.528Z" style="fill:#1a1a18;fill-rule:nonzero;"/>
            </g>
            <g transform="matrix(83.3333,0,0,83.3333,2124.08,2931.18)">
                <path d="M0.252,-0.172L0.35,-0.528L0.498,-0.528L0.319,-0L0.185,-0L0.006,-0.528L0.154,-0.528L0.252,-0.172Z" style="fill:#1a1a18;fill-rule:nonzero;"/>
            </g>
            <g transform="matrix(83.3333,0,0,83.3333,2165.59,2931.18)">
                <path d="M0.36,-0C0.354,-0.013 0.349,-0.028 0.346,-0.047C0.312,-0.009 0.268,0.01 0.213,0.01C0.161,0.01 0.118,-0.005 0.084,-0.035C0.05,-0.065 0.033,-0.103 0.033,-0.148C0.033,-0.204 0.054,-0.247 0.095,-0.277C0.137,-0.307 0.197,-0.322 0.275,-0.323L0.34,-0.323L0.34,-0.353C0.34,-0.377 0.334,-0.397 0.322,-0.412C0.309,-0.426 0.289,-0.434 0.262,-0.434C0.238,-0.434 0.22,-0.428 0.206,-0.417C0.193,-0.405 0.186,-0.389 0.186,-0.37L0.045,-0.37C0.045,-0.4 0.054,-0.429 0.073,-0.455C0.092,-0.481 0.119,-0.501 0.153,-0.516C0.188,-0.531 0.227,-0.538 0.27,-0.538C0.335,-0.538 0.386,-0.522 0.425,-0.489C0.463,-0.456 0.482,-0.41 0.482,-0.351L0.482,-0.122C0.482,-0.072 0.489,-0.034 0.503,-0.008L0.503,-0L0.36,-0ZM0.244,-0.098C0.264,-0.098 0.284,-0.103 0.301,-0.112C0.319,-0.121 0.332,-0.134 0.34,-0.149L0.34,-0.24L0.288,-0.24C0.217,-0.24 0.179,-0.216 0.175,-0.167L0.174,-0.159C0.174,-0.141 0.181,-0.127 0.193,-0.115C0.205,-0.104 0.222,-0.098 0.244,-0.098Z" style="fill:#1a1a18;fill-rule:nonzero;"/>
            </g>
            <g transform="matrix(83.3333,0,0,83.3333,2210.26,2931.18)">
                <path d="M0.351,-0.396C0.332,-0.399 0.315,-0.4 0.3,-0.4C0.247,-0.4 0.212,-0.382 0.195,-0.346L0.195,-0L0.054,-0L0.054,-0.528L0.188,-0.528L0.191,-0.465C0.22,-0.514 0.259,-0.538 0.309,-0.538C0.325,-0.538 0.339,-0.536 0.353,-0.532L0.351,-0.396Z" style="fill:#1a1a18;fill-rule:nonzero;"/>
            </g>
            <g transform="matrix(83.3333,0,0,83.3333,2240.66,2931.18)">
                <path d="M0.203,-0L0.062,-0L0.062,-0.528L0.203,-0.528L0.203,-0ZM0.053,-0.665C0.053,-0.686 0.06,-0.704 0.074,-0.717C0.089,-0.731 0.108,-0.738 0.132,-0.738C0.156,-0.738 0.176,-0.731 0.19,-0.717C0.204,-0.704 0.211,-0.686 0.211,-0.665C0.211,-0.644 0.204,-0.626 0.19,-0.612C0.175,-0.599 0.156,-0.592 0.132,-0.592C0.109,-0.592 0.089,-0.599 0.075,-0.612C0.06,-0.626 0.053,-0.644 0.053,-0.665Z" style="fill:#1a1a18;fill-rule:nonzero;"/>
            </g>
            <g transform="matrix(83.3333,0,0,83.3333,2262.75,2931.18)">
                <path d="M0.032,-0.269C0.032,-0.321 0.042,-0.368 0.063,-0.409C0.083,-0.45 0.112,-0.482 0.15,-0.504C0.188,-0.527 0.232,-0.538 0.282,-0.538C0.353,-0.538 0.411,-0.516 0.456,-0.473C0.501,-0.429 0.527,-0.37 0.532,-0.295L0.533,-0.259C0.533,-0.178 0.51,-0.113 0.465,-0.064C0.42,-0.015 0.359,0.01 0.283,0.01C0.207,0.01 0.146,-0.015 0.1,-0.063C0.055,-0.112 0.032,-0.179 0.032,-0.263L0.032,-0.269ZM0.173,-0.259C0.173,-0.209 0.183,-0.17 0.202,-0.144C0.221,-0.117 0.248,-0.104 0.283,-0.104C0.317,-0.104 0.344,-0.117 0.363,-0.143C0.382,-0.17 0.392,-0.212 0.392,-0.269C0.392,-0.319 0.382,-0.357 0.363,-0.384C0.344,-0.411 0.317,-0.424 0.282,-0.424C0.247,-0.424 0.221,-0.411 0.202,-0.384C0.183,-0.357 0.173,-0.315 0.173,-0.259Z" style="fill:#1a1a18;fill-rule:nonzero;"/>
            </g>
            <g transform="matrix(83.3333,0,0,83.3333,2309.87,2931.18)">
                <path d="M0.371,-0.054C0.336,-0.011 0.288,0.01 0.226,0.01C0.169,0.01 0.126,-0.007 0.096,-0.039C0.067,-0.072 0.051,-0.119 0.051,-0.182L0.051,-0.528L0.192,-0.528L0.192,-0.187C0.192,-0.132 0.217,-0.104 0.267,-0.104C0.315,-0.104 0.348,-0.121 0.366,-0.154L0.366,-0.528L0.507,-0.528L0.507,-0L0.375,-0L0.371,-0.054Z" style="fill:#1a1a18;fill-rule:nonzero;"/>
            </g>
            <g transform="matrix(83.3333,0,0,83.3333,2356.5,2931.18)">
                <path d="M0.34,-0.146C0.34,-0.163 0.332,-0.177 0.315,-0.187C0.298,-0.197 0.27,-0.206 0.232,-0.213C0.107,-0.24 0.044,-0.293 0.044,-0.374C0.044,-0.42 0.063,-0.46 0.102,-0.491C0.141,-0.522 0.192,-0.538 0.255,-0.538C0.322,-0.538 0.376,-0.522 0.416,-0.491C0.456,-0.459 0.476,-0.418 0.476,-0.368L0.335,-0.368C0.335,-0.388 0.328,-0.405 0.315,-0.418C0.302,-0.431 0.282,-0.438 0.254,-0.438C0.231,-0.438 0.212,-0.432 0.199,-0.421C0.186,-0.411 0.18,-0.397 0.18,-0.38C0.18,-0.365 0.187,-0.352 0.202,-0.343C0.217,-0.333 0.242,-0.325 0.277,-0.318C0.312,-0.311 0.342,-0.303 0.366,-0.294C0.44,-0.267 0.478,-0.219 0.478,-0.152C0.478,-0.104 0.457,-0.065 0.416,-0.035C0.374,-0.005 0.321,0.01 0.255,0.01C0.211,0.01 0.172,0.002 0.137,-0.014C0.103,-0.03 0.076,-0.051 0.057,-0.079C0.037,-0.106 0.027,-0.136 0.027,-0.168L0.161,-0.168C0.162,-0.143 0.172,-0.124 0.189,-0.11C0.206,-0.097 0.229,-0.09 0.258,-0.09C0.285,-0.09 0.306,-0.095 0.32,-0.106C0.333,-0.116 0.34,-0.129 0.34,-0.146Z" style="fill:#1a1a18;fill-rule:nonzero;"/>
            </g>
            <g transform="matrix(83.3333,0,0,83.3333,2420.1,2931.18)">
                <path d="M0.203,-0L0.062,-0L0.062,-0.528L0.203,-0.528L0.203,-0ZM0.053,-0.665C0.053,-0.686 0.06,-0.704 0.074,-0.717C0.089,-0.731 0.108,-0.738 0.132,-0.738C0.156,-0.738 0.176,-0.731 0.19,-0.717C0.204,-0.704 0.211,-0.686 0.211,-0.665C0.211,-0.644 0.204,-0.626 0.19,-0.612C0.175,-0.599 0.156,-0.592 0.132,-0.592C0.109,-0.592 0.089,-0.599 0.075,-0.612C0.06,-0.626 0.053,-0.644 0.053,-0.665Z" style="fill:#1a1a18;fill-rule:nonzero;"/>
            </g>
            <g transform="matrix(83.3333,0,0,83.3333,2442.2,2931.18)">
                <path d="M0.184,-0.528L0.188,-0.467C0.226,-0.514 0.277,-0.538 0.34,-0.538C0.396,-0.538 0.438,-0.522 0.465,-0.489C0.493,-0.456 0.507,-0.407 0.507,-0.341L0.507,-0L0.366,-0L0.366,-0.338C0.366,-0.368 0.36,-0.39 0.347,-0.403C0.334,-0.417 0.312,-0.423 0.282,-0.423C0.242,-0.423 0.212,-0.406 0.192,-0.373L0.192,-0L0.051,-0L0.051,-0.528L0.184,-0.528Z" style="fill:#1a1a18;fill-rule:nonzero;"/>
            </g>
            <g transform="matrix(83.3333,0,0,83.3333,2488.87,2931.18)">
                <path d="M0.093,-0L0.093,-0.425L0.014,-0.425L0.014,-0.528L0.093,-0.528L0.093,-0.573C0.093,-0.632 0.11,-0.678 0.144,-0.711C0.178,-0.744 0.225,-0.76 0.287,-0.76C0.306,-0.76 0.33,-0.757 0.358,-0.75L0.357,-0.641C0.345,-0.644 0.331,-0.646 0.314,-0.646C0.261,-0.646 0.234,-0.621 0.234,-0.571L0.234,-0.528L0.339,-0.528L0.339,-0.425L0.234,-0.425L0.234,-0L0.093,-0Z" style="fill:#1a1a18;fill-rule:nonzero;"/>
            </g>
            <g transform="matrix(83.3333,0,0,83.3333,2518.74,2931.18)">
                <path d="M0.351,-0.396C0.332,-0.399 0.315,-0.4 0.3,-0.4C0.247,-0.4 0.212,-0.382 0.195,-0.346L0.195,-0L0.054,-0L0.054,-0.528L0.188,-0.528L0.191,-0.465C0.22,-0.514 0.259,-0.538 0.309,-0.538C0.325,-0.538 0.339,-0.536 0.353,-0.532L0.351,-0.396Z" style="fill:#1a1a18;fill-rule:nonzero;"/>
            </g>
            <g transform="matrix(83.3333,0,0,83.3333,2547.91,2931.18)">
                <path d="M0.36,-0C0.354,-0.013 0.349,-0.028 0.346,-0.047C0.312,-0.009 0.268,0.01 0.213,0.01C0.161,0.01 0.118,-0.005 0.084,-0.035C0.05,-0.065 0.033,-0.103 0.033,-0.148C0.033,-0.204 0.054,-0.247 0.095,-0.277C0.137,-0.307 0.197,-0.322 0.275,-0.323L0.34,-0.323L0.34,-0.353C0.34,-0.377 0.334,-0.397 0.322,-0.412C0.309,-0.426 0.289,-0.434 0.262,-0.434C0.238,-0.434 0.22,-0.428 0.206,-0.417C0.193,-0.405 0.186,-0.389 0.186,-0.37L0.045,-0.37C0.045,-0.4 0.054,-0.429 0.073,-0.455C0.092,-0.481 0.119,-0.501 0.153,-0.516C0.188,-0.531 0.227,-0.538 0.27,-0.538C0.335,-0.538 0.386,-0.522 0.425,-0.489C0.463,-0.456 0.482,-0.41 0.482,-0.351L0.482,-0.122C0.482,-0.072 0.489,-0.034 0.503,-0.008L0.503,-0L0.36,-0ZM0.244,-0.098C0.264,-0.098 0.284,-0.103 0.301,-0.112C0.319,-0.121 0.332,-0.134 0.34,-0.149L0.34,-0.24L0.288,-0.24C0.217,-0.24 0.179,-0.216 0.175,-0.167L0.174,-0.159C0.174,-0.141 0.181,-0.127 0.193,-0.115C0.205,-0.104 0.222,-0.098 0.244,-0.098Z" style="fill:#1a1a18;fill-rule:nonzero;"/>
            </g>
            <g transform="matrix(83.3333,0,0,83.3333,2592.59,2931.18)">
                <path d="M0.34,-0.146C0.34,-0.163 0.332,-0.177 0.315,-0.187C0.298,-0.197 0.27,-0.206 0.232,-0.213C0.107,-0.24 0.044,-0.293 0.044,-0.374C0.044,-0.42 0.063,-0.46 0.102,-0.491C0.141,-0.522 0.192,-0.538 0.255,-0.538C0.322,-0.538 0.376,-0.522 0.416,-0.491C0.456,-0.459 0.476,-0.418 0.476,-0.368L0.335,-0.368C0.335,-0.388 0.328,-0.405 0.315,-0.418C0.302,-0.431 0.282,-0.438 0.254,-0.438C0.231,-0.438 0.212,-0.432 0.199,-0.421C0.186,-0.411 0.18,-0.397 0.18,-0.38C0.18,-0.365 0.187,-0.352 0.202,-0.343C0.217,-0.333 0.242,-0.325 0.277,-0.318C0.312,-0.311 0.342,-0.303 0.366,-0.294C0.44,-0.267 0.478,-0.219 0.478,-0.152C0.478,-0.104 0.457,-0.065 0.416,-0.035C0.374,-0.005 0.321,0.01 0.255,0.01C0.211,0.01 0.172,0.002 0.137,-0.014C0.103,-0.03 0.076,-0.051 0.057,-0.079C0.037,-0.106 0.027,-0.136 0.027,-0.168L0.161,-0.168C0.162,-0.143 0.172,-0.124 0.189,-0.11C0.206,-0.097 0.229,-0.09 0.258,-0.09C0.285,-0.09 0.306,-0.095 0.32,-0.106C0.333,-0.116 0.34,-0.129 0.34,-0.146Z" style="fill:#1a1a18;fill-rule:nonzero;"/>
            </g>
            <g transform="matrix(83.3333,0,0,83.3333,2635.44,2931.18)">
                <path d="M0.223,-0.658L0.223,-0.528L0.313,-0.528L0.313,-0.425L0.223,-0.425L0.223,-0.161C0.223,-0.142 0.227,-0.128 0.234,-0.119C0.242,-0.111 0.256,-0.106 0.277,-0.106C0.293,-0.106 0.307,-0.108 0.319,-0.11L0.319,-0.003C0.291,0.006 0.263,0.01 0.233,0.01C0.134,0.01 0.084,-0.04 0.082,-0.14L0.082,-0.425L0.005,-0.425L0.005,-0.528L0.082,-0.528L0.082,-0.658L0.223,-0.658Z" style="fill:#1a1a18;fill-rule:nonzero;"/>
            </g>
            <g transform="matrix(83.3333,0,0,83.3333,2663.59,2931.18)">
                <path d="M0.351,-0.396C0.332,-0.399 0.315,-0.4 0.3,-0.4C0.247,-0.4 0.212,-0.382 0.195,-0.346L0.195,-0L0.054,-0L0.054,-0.528L0.188,-0.528L0.191,-0.465C0.22,-0.514 0.259,-0.538 0.309,-0.538C0.325,-0.538 0.339,-0.536 0.353,-0.532L0.351,-0.396Z" style="fill:#1a1a18;fill-rule:nonzero;"/>
            </g>
            <g transform="matrix(83.3333,0,0,83.3333,2693.99,2931.18)">
                <path d="M0.371,-0.054C0.336,-0.011 0.288,0.01 0.226,0.01C0.169,0.01 0.126,-0.007 0.096,-0.039C0.067,-0.072 0.051,-0.119 0.051,-0.182L0.051,-0.528L0.192,-0.528L0.192,-0.187C0.192,-0.132 0.217,-0.104 0.267,-0.104C0.315,-0.104 0.348,-0.121 0.366,-0.154L0.366,-0.528L0.507,-0.528L0.507,-0L0.375,-0L0.371,-0.054Z" style="fill:#1a1a18;fill-rule:nonzero;"/>
            </g>
            <g transform="matrix(83.3333,0,0,83.3333,2740.62,2931.18)">
                <path d="M0.274,-0.104C0.3,-0.104 0.321,-0.111 0.337,-0.125C0.354,-0.14 0.362,-0.159 0.363,-0.183L0.495,-0.183C0.495,-0.147 0.485,-0.114 0.466,-0.084C0.447,-0.054 0.42,-0.031 0.387,-0.015C0.354,0.002 0.317,0.01 0.276,0.01C0.201,0.01 0.141,-0.014 0.098,-0.062C0.054,-0.11 0.032,-0.177 0.032,-0.261L0.032,-0.271C0.032,-0.352 0.054,-0.417 0.097,-0.465C0.14,-0.514 0.2,-0.538 0.275,-0.538C0.341,-0.538 0.394,-0.519 0.434,-0.482C0.474,-0.444 0.494,-0.394 0.495,-0.332L0.363,-0.332C0.362,-0.359 0.354,-0.381 0.337,-0.399C0.321,-0.416 0.3,-0.424 0.273,-0.424C0.24,-0.424 0.215,-0.412 0.198,-0.388C0.182,-0.364 0.173,-0.326 0.173,-0.272L0.173,-0.257C0.173,-0.203 0.182,-0.164 0.198,-0.14C0.215,-0.116 0.24,-0.104 0.274,-0.104Z" style="fill:#1a1a18;fill-rule:nonzero;"/>
            </g>
            <g transform="matrix(83.3333,0,0,83.3333,2784.08,2931.18)">
                <path d="M0.223,-0.658L0.223,-0.528L0.313,-0.528L0.313,-0.425L0.223,-0.425L0.223,-0.161C0.223,-0.142 0.227,-0.128 0.234,-0.119C0.242,-0.111 0.256,-0.106 0.277,-0.106C0.293,-0.106 0.307,-0.108 0.319,-0.11L0.319,-0.003C0.291,0.006 0.263,0.01 0.233,0.01C0.134,0.01 0.084,-0.04 0.082,-0.14L0.082,-0.425L0.005,-0.425L0.005,-0.528L0.082,-0.528L0.082,-0.658L0.223,-0.658Z" style="fill:#1a1a18;fill-rule:nonzero;"/>
            </g>
            <g transform="matrix(83.3333,0,0,83.3333,2812.23,2931.18)">
                <path d="M0.371,-0.054C0.336,-0.011 0.288,0.01 0.226,0.01C0.169,0.01 0.126,-0.007 0.096,-0.039C0.067,-0.072 0.051,-0.119 0.051,-0.182L0.051,-0.528L0.192,-0.528L0.192,-0.187C0.192,-0.132 0.217,-0.104 0.267,-0.104C0.315,-0.104 0.348,-0.121 0.366,-0.154L0.366,-0.528L0.507,-0.528L0.507,-0L0.375,-0L0.371,-0.054Z" style="fill:#1a1a18;fill-rule:nonzero;"/>
            </g>
            <g transform="matrix(83.3333,0,0,83.3333,2858.86,2931.18)">
                <path d="M0.351,-0.396C0.332,-0.399 0.315,-0.4 0.3,-0.4C0.247,-0.4 0.212,-0.382 0.195,-0.346L0.195,-0L0.054,-0L0.054,-0.528L0.188,-0.528L0.191,-0.465C0.22,-0.514 0.259,-0.538 0.309,-0.538C0.325,-0.538 0.339,-0.536 0.353,-0.532L0.351,-0.396Z" style="fill:#1a1a18;fill-rule:nonzero;"/>
            </g>
            <g transform="matrix(83.3333,0,0,83.3333,2888.49,2931.18)">
                <path d="M0.297,0.01C0.22,0.01 0.157,-0.014 0.108,-0.062C0.059,-0.109 0.035,-0.172 0.035,-0.251L0.035,-0.265C0.035,-0.318 0.045,-0.366 0.066,-0.407C0.086,-0.449 0.115,-0.482 0.153,-0.504C0.191,-0.527 0.234,-0.538 0.282,-0.538C0.354,-0.538 0.411,-0.515 0.452,-0.47C0.494,-0.424 0.515,-0.36 0.515,-0.276L0.515,-0.218L0.178,-0.218C0.183,-0.184 0.197,-0.156 0.219,-0.135C0.242,-0.114 0.271,-0.104 0.307,-0.104C0.361,-0.104 0.403,-0.124 0.434,-0.163L0.503,-0.085C0.482,-0.056 0.454,-0.032 0.417,-0.015C0.381,0.001 0.341,0.01 0.297,0.01ZM0.281,-0.424C0.253,-0.424 0.231,-0.415 0.213,-0.396C0.196,-0.377 0.185,-0.35 0.18,-0.314L0.376,-0.314L0.376,-0.326C0.375,-0.357 0.367,-0.381 0.351,-0.399C0.334,-0.416 0.311,-0.424 0.281,-0.424Z" style="fill:#1a1a18;fill-rule:nonzero;"/>
            </g>
            <g transform="matrix(83.3333,0,0,83.3333,2933.53,2931.18)">
                <path d="M0.34,-0.146C0.34,-0.163 0.332,-0.177 0.315,-0.187C0.298,-0.197 0.27,-0.206 0.232,-0.213C0.107,-0.24 0.044,-0.293 0.044,-0.374C0.044,-0.42 0.063,-0.46 0.102,-0.491C0.141,-0.522 0.192,-0.538 0.255,-0.538C0.322,-0.538 0.376,-0.522 0.416,-0.491C0.456,-0.459 0.476,-0.418 0.476,-0.368L0.335,-0.368C0.335,-0.388 0.328,-0.405 0.315,-0.418C0.302,-0.431 0.282,-0.438 0.254,-0.438C0.231,-0.438 0.212,-0.432 0.199,-0.421C0.186,-0.411 0.18,-0.397 0.18,-0.38C0.18,-0.365 0.187,-0.352 0.202,-0.343C0.217,-0.333 0.242,-0.325 0.277,-0.318C0.312,-0.311 0.342,-0.303 0.366,-0.294C0.44,-0.267 0.478,-0.219 0.478,-0.152C0.478,-0.104 0.457,-0.065 0.416,-0.035C0.374,-0.005 0.321,0.01 0.255,0.01C0.211,0.01 0.172,0.002 0.137,-0.014C0.103,-0.03 0.076,-0.051 0.057,-0.079C0.037,-0.106 0.027,-0.136 0.027,-0.168L0.161,-0.168C0.162,-0.143 0.172,-0.124 0.189,-0.11C0.206,-0.097 0.229,-0.09 0.258,-0.09C0.285,-0.09 0.306,-0.095 0.32,-0.106C0.333,-0.116 0.34,-0.129 0.34,-0.146Z" style="fill:#1a1a18;fill-rule:nonzero;"/>
            </g>
        </g>
    </g>
</svg>
