<?xml version="1.0" encoding="UTF-8" standalone="no"?>
<!DOCTYPE svg PUBLIC "-//W3C//DTD SVG 1.1//EN" "http://www.w3.org/Graphics/SVG/1.1/DTD/svg11.dtd">
<svg width="100%" height="100%" viewBox="0 0 73 493" version="1.1" xmlns="http://www.w3.org/2000/svg" xmlns:xlink="http://www.w3.org/1999/xlink" xml:space="preserve" xmlns:serif="http://www.serif.com/" style="fill-rule:evenodd;clip-rule:evenodd;stroke-linejoin:round;stroke-miterlimit:2;">
    <g transform="matrix(0.166667,0,0,0.166667,-1063,-153.833)">
        <g transform="matrix(1,0,0,1,0,94.4882)">
            <g>
                <g transform="matrix(0.8,0,0,1.00412,1412.6,553.903)">
                    <path d="M6708.66,342.326C6708.66,316.358 6682.2,295.276 6649.61,295.276L6295.28,295.276C6262.68,295.276 6236.22,316.358 6236.22,342.326L6236.22,3118.3C6236.22,3144.27 6262.68,3165.35 6295.28,3165.35L6649.61,3165.35C6682.2,3165.35 6708.66,3144.27 6708.66,3118.3L6708.66,342.326Z" style="fill:#0b5394;"/>
                </g>
                <g>
                    <path d="M6732.28,944.882C6732.28,918.807 6711.11,897.638 6685.04,897.638L6496.06,897.638C6469.99,897.638 6448.82,918.807 6448.82,944.882L6448.82,1370.08C6448.82,1396.15 6469.99,1417.32 6496.06,1417.32L6685.04,1417.32C6711.11,1417.32 6732.28,1396.15 6732.28,1370.08L6732.28,944.882Z" style="fill:#f1c232;"/>
                    <g transform="matrix(2.45292e-16,4.00593,-4.00593,2.45292e-16,10621.7,-24995.3)">
                        <g transform="matrix(31.2037,0,0,31.2037,6497.03,1017.41)">
                            <path d="M0.617,-0.205L0.713,-0.711L0.859,-0.711L0.701,-0L0.554,-0L0.438,-0.476L0.322,-0L0.175,-0L0.017,-0.711L0.163,-0.711L0.259,-0.206L0.376,-0.711L0.5,-0.711L0.617,-0.205Z" style="fill-rule:nonzero;"/>
                        </g>
                        <g transform="matrix(31.2037,0,0,31.2037,6524.31,1017.41)">
                            <path d="M0.21,-0.25L0.21,-0L0.063,-0L0.063,-0.711L0.341,-0.711C0.394,-0.711 0.441,-0.701 0.482,-0.682C0.522,-0.662 0.553,-0.634 0.575,-0.598C0.597,-0.562 0.608,-0.521 0.608,-0.476C0.608,-0.406 0.584,-0.351 0.536,-0.311C0.489,-0.271 0.423,-0.25 0.338,-0.25L0.21,-0.25ZM0.21,-0.369L0.341,-0.369C0.38,-0.369 0.409,-0.378 0.429,-0.396C0.45,-0.415 0.46,-0.441 0.46,-0.475C0.46,-0.509 0.45,-0.538 0.429,-0.559C0.409,-0.581 0.38,-0.592 0.344,-0.592L0.21,-0.592L0.21,-0.369Z" style="fill-rule:nonzero;"/>
                        </g>
                        <g transform="matrix(31.2037,0,0,31.2037,6544.44,1017.41)">
                            <path d="M0.391,-0L0.25,-0L0.25,-0.544L0.082,-0.492L0.082,-0.606L0.376,-0.712L0.391,-0.712L0.391,-0Z" style="fill-rule:nonzero;"/>
                        </g>
                    </g>
                </g>
            </g>
        </g>
        <g id="eosc_euro_science_gateway_white.svg">
        </g>
        <g transform="matrix(1.50521e-16,2.45819,-2.45819,1.50521e-16,11522.2,-14335.8)">
            <g transform="matrix(83.3333,0,0,83.3333,6506.02,2029.29)">
                <path d="M0.491,-0.308L0.21,-0.308L0.21,-0.118L0.54,-0.118L0.54,-0L0.063,-0L0.063,-0.711L0.539,-0.711L0.539,-0.592L0.21,-0.592L0.21,-0.423L0.491,-0.423L0.491,-0.308Z" style="fill:#fff;fill-rule:nonzero;"/>
            </g>
            <g transform="matrix(83.3333,0,0,83.3333,6552.2,2029.29)">
                <path d="M0.371,-0.054C0.336,-0.011 0.288,0.01 0.226,0.01C0.169,0.01 0.126,-0.007 0.096,-0.039C0.067,-0.072 0.051,-0.119 0.051,-0.182L0.051,-0.528L0.192,-0.528L0.192,-0.187C0.192,-0.132 0.217,-0.104 0.267,-0.104C0.315,-0.104 0.348,-0.121 0.366,-0.154L0.366,-0.528L0.507,-0.528L0.507,-0L0.375,-0L0.371,-0.054Z" style="fill:#fff;fill-rule:nonzero;"/>
            </g>
            <g transform="matrix(83.3333,0,0,83.3333,6598.83,2029.29)">
                <path d="M0.351,-0.396C0.332,-0.399 0.315,-0.4 0.3,-0.4C0.247,-0.4 0.212,-0.382 0.195,-0.346L0.195,-0L0.054,-0L0.054,-0.528L0.188,-0.528L0.191,-0.465C0.22,-0.514 0.259,-0.538 0.309,-0.538C0.325,-0.538 0.339,-0.536 0.353,-0.532L0.351,-0.396Z" style="fill:#fff;fill-rule:nonzero;"/>
            </g>
            <g transform="matrix(83.3333,0,0,83.3333,6627.76,2029.29)">
                <path d="M0.032,-0.269C0.032,-0.321 0.042,-0.368 0.063,-0.409C0.083,-0.45 0.112,-0.482 0.15,-0.504C0.188,-0.527 0.232,-0.538 0.282,-0.538C0.353,-0.538 0.411,-0.516 0.456,-0.473C0.501,-0.429 0.527,-0.37 0.532,-0.295L0.533,-0.259C0.533,-0.178 0.51,-0.113 0.465,-0.064C0.42,-0.015 0.359,0.01 0.283,0.01C0.207,0.01 0.146,-0.015 0.1,-0.063C0.055,-0.112 0.032,-0.179 0.032,-0.263L0.032,-0.269ZM0.173,-0.259C0.173,-0.209 0.183,-0.17 0.202,-0.144C0.221,-0.117 0.248,-0.104 0.283,-0.104C0.317,-0.104 0.344,-0.117 0.363,-0.143C0.382,-0.17 0.392,-0.212 0.392,-0.269C0.392,-0.319 0.382,-0.357 0.363,-0.384C0.344,-0.411 0.317,-0.424 0.282,-0.424C0.247,-0.424 0.221,-0.411 0.202,-0.384C0.183,-0.357 0.173,-0.315 0.173,-0.259Z" style="fill:#fff;fill-rule:nonzero;"/>
            </g>
            <g transform="matrix(83.3333,0,0,83.3333,6674.88,2029.29)">
                <path d="M0.432,-0.187C0.432,-0.214 0.422,-0.235 0.403,-0.25C0.383,-0.265 0.348,-0.281 0.297,-0.297C0.247,-0.314 0.206,-0.33 0.177,-0.346C0.096,-0.389 0.056,-0.448 0.056,-0.522C0.056,-0.56 0.066,-0.595 0.088,-0.625C0.11,-0.655 0.141,-0.678 0.181,-0.695C0.222,-0.712 0.267,-0.721 0.318,-0.721C0.369,-0.721 0.414,-0.712 0.454,-0.693C0.493,-0.675 0.524,-0.649 0.546,-0.615C0.568,-0.582 0.579,-0.544 0.579,-0.501L0.433,-0.501C0.433,-0.534 0.422,-0.559 0.402,-0.577C0.381,-0.595 0.353,-0.604 0.315,-0.604C0.28,-0.604 0.252,-0.596 0.232,-0.581C0.212,-0.566 0.202,-0.546 0.202,-0.521C0.202,-0.498 0.214,-0.479 0.237,-0.463C0.26,-0.448 0.295,-0.433 0.34,-0.419C0.423,-0.394 0.484,-0.363 0.522,-0.326C0.56,-0.289 0.579,-0.243 0.579,-0.188C0.579,-0.126 0.556,-0.078 0.509,-0.043C0.463,-0.008 0.4,0.01 0.321,0.01C0.267,0.01 0.217,-0 0.172,-0.02C0.127,-0.04 0.093,-0.068 0.069,-0.103C0.045,-0.137 0.034,-0.178 0.034,-0.224L0.181,-0.224C0.181,-0.145 0.228,-0.106 0.321,-0.106C0.356,-0.106 0.383,-0.113 0.403,-0.127C0.422,-0.141 0.432,-0.161 0.432,-0.187Z" style="fill:#fff;fill-rule:nonzero;"/>
            </g>
            <g transform="matrix(83.3333,0,0,83.3333,6726.11,2029.29)">
                <path d="M0.274,-0.104C0.3,-0.104 0.321,-0.111 0.337,-0.125C0.354,-0.14 0.362,-0.159 0.363,-0.183L0.495,-0.183C0.495,-0.147 0.485,-0.114 0.466,-0.084C0.447,-0.054 0.42,-0.031 0.387,-0.015C0.354,0.002 0.317,0.01 0.276,0.01C0.201,0.01 0.141,-0.014 0.098,-0.062C0.054,-0.11 0.032,-0.177 0.032,-0.261L0.032,-0.271C0.032,-0.352 0.054,-0.417 0.097,-0.465C0.14,-0.514 0.2,-0.538 0.275,-0.538C0.341,-0.538 0.394,-0.519 0.434,-0.482C0.474,-0.444 0.494,-0.394 0.495,-0.332L0.363,-0.332C0.362,-0.359 0.354,-0.381 0.337,-0.399C0.321,-0.416 0.3,-0.424 0.273,-0.424C0.24,-0.424 0.215,-0.412 0.198,-0.388C0.182,-0.364 0.173,-0.326 0.173,-0.272L0.173,-0.257C0.173,-0.203 0.182,-0.164 0.198,-0.14C0.215,-0.116 0.24,-0.104 0.274,-0.104Z" style="fill:#fff;fill-rule:nonzero;"/>
            </g>
            <g transform="matrix(83.3333,0,0,83.3333,6769.57,2029.29)">
                <path d="M0.203,-0L0.062,-0L0.062,-0.528L0.203,-0.528L0.203,-0ZM0.053,-0.665C0.053,-0.686 0.06,-0.704 0.074,-0.717C0.089,-0.731 0.108,-0.738 0.132,-0.738C0.156,-0.738 0.176,-0.731 0.19,-0.717C0.204,-0.704 0.211,-0.686 0.211,-0.665C0.211,-0.644 0.204,-0.626 0.19,-0.612C0.175,-0.599 0.156,-0.592 0.132,-0.592C0.109,-0.592 0.089,-0.599 0.075,-0.612C0.06,-0.626 0.053,-0.644 0.053,-0.665Z" style="fill:#fff;fill-rule:nonzero;"/>
            </g>
            <g transform="matrix(83.3333,0,0,83.3333,6791.66,2029.29)">
                <path d="M0.297,0.01C0.22,0.01 0.157,-0.014 0.108,-0.062C0.059,-0.109 0.035,-0.172 0.035,-0.251L0.035,-0.265C0.035,-0.318 0.045,-0.366 0.066,-0.407C0.086,-0.449 0.115,-0.482 0.153,-0.504C0.191,-0.527 0.234,-0.538 0.282,-0.538C0.354,-0.538 0.411,-0.515 0.452,-0.47C0.494,-0.424 0.515,-0.36 0.515,-0.276L0.515,-0.218L0.178,-0.218C0.183,-0.184 0.197,-0.156 0.219,-0.135C0.242,-0.114 0.271,-0.104 0.307,-0.104C0.361,-0.104 0.403,-0.124 0.434,-0.163L0.503,-0.085C0.482,-0.056 0.454,-0.032 0.417,-0.015C0.381,0.001 0.341,0.01 0.297,0.01ZM0.281,-0.424C0.253,-0.424 0.231,-0.415 0.213,-0.396C0.196,-0.377 0.185,-0.35 0.18,-0.314L0.376,-0.314L0.376,-0.326C0.375,-0.357 0.367,-0.381 0.351,-0.399C0.334,-0.416 0.311,-0.424 0.281,-0.424Z" style="fill:#fff;fill-rule:nonzero;"/>
            </g>
            <g transform="matrix(83.3333,0,0,83.3333,6836.71,2029.29)">
                <path d="M0.184,-0.528L0.188,-0.467C0.226,-0.514 0.277,-0.538 0.34,-0.538C0.396,-0.538 0.438,-0.522 0.465,-0.489C0.493,-0.456 0.507,-0.407 0.507,-0.341L0.507,-0L0.366,-0L0.366,-0.338C0.366,-0.368 0.36,-0.39 0.347,-0.403C0.334,-0.417 0.312,-0.423 0.282,-0.423C0.242,-0.423 0.212,-0.406 0.192,-0.373L0.192,-0L0.051,-0L0.051,-0.528L0.184,-0.528Z" style="fill:#fff;fill-rule:nonzero;"/>
            </g>
            <g transform="matrix(83.3333,0,0,83.3333,6883.38,2029.29)">
                <path d="M0.274,-0.104C0.3,-0.104 0.321,-0.111 0.337,-0.125C0.354,-0.14 0.362,-0.159 0.363,-0.183L0.495,-0.183C0.495,-0.147 0.485,-0.114 0.466,-0.084C0.447,-0.054 0.42,-0.031 0.387,-0.015C0.354,0.002 0.317,0.01 0.276,0.01C0.201,0.01 0.141,-0.014 0.098,-0.062C0.054,-0.11 0.032,-0.177 0.032,-0.261L0.032,-0.271C0.032,-0.352 0.054,-0.417 0.097,-0.465C0.14,-0.514 0.2,-0.538 0.275,-0.538C0.341,-0.538 0.394,-0.519 0.434,-0.482C0.474,-0.444 0.494,-0.394 0.495,-0.332L0.363,-0.332C0.362,-0.359 0.354,-0.381 0.337,-0.399C0.321,-0.416 0.3,-0.424 0.273,-0.424C0.24,-0.424 0.215,-0.412 0.198,-0.388C0.182,-0.364 0.173,-0.326 0.173,-0.272L0.173,-0.257C0.173,-0.203 0.182,-0.164 0.198,-0.14C0.215,-0.116 0.24,-0.104 0.274,-0.104Z" style="fill:#fff;fill-rule:nonzero;"/>
            </g>
            <g transform="matrix(83.3333,0,0,83.3333,6926.83,2029.29)">
                <path d="M0.297,0.01C0.22,0.01 0.157,-0.014 0.108,-0.062C0.059,-0.109 0.035,-0.172 0.035,-0.251L0.035,-0.265C0.035,-0.318 0.045,-0.366 0.066,-0.407C0.086,-0.449 0.115,-0.482 0.153,-0.504C0.191,-0.527 0.234,-0.538 0.282,-0.538C0.354,-0.538 0.411,-0.515 0.452,-0.47C0.494,-0.424 0.515,-0.36 0.515,-0.276L0.515,-0.218L0.178,-0.218C0.183,-0.184 0.197,-0.156 0.219,-0.135C0.242,-0.114 0.271,-0.104 0.307,-0.104C0.361,-0.104 0.403,-0.124 0.434,-0.163L0.503,-0.085C0.482,-0.056 0.454,-0.032 0.417,-0.015C0.381,0.001 0.341,0.01 0.297,0.01ZM0.281,-0.424C0.253,-0.424 0.231,-0.415 0.213,-0.396C0.196,-0.377 0.185,-0.35 0.18,-0.314L0.376,-0.314L0.376,-0.326C0.375,-0.357 0.367,-0.381 0.351,-0.399C0.334,-0.416 0.311,-0.424 0.281,-0.424Z" style="fill:#fff;fill-rule:nonzero;"/>
            </g>
            <g transform="matrix(83.3333,0,0,83.3333,6971.88,2029.29)">
                <path d="M0.626,-0.09C0.6,-0.058 0.562,-0.034 0.514,-0.016C0.466,0.001 0.413,0.01 0.354,0.01C0.292,0.01 0.239,-0.004 0.192,-0.031C0.146,-0.057 0.11,-0.096 0.085,-0.147C0.059,-0.199 0.047,-0.259 0.046,-0.328L0.046,-0.376C0.046,-0.447 0.058,-0.508 0.082,-0.56C0.106,-0.612 0.14,-0.652 0.185,-0.679C0.23,-0.707 0.283,-0.721 0.344,-0.721C0.428,-0.721 0.494,-0.701 0.542,-0.66C0.589,-0.62 0.617,-0.562 0.626,-0.485L0.483,-0.485C0.477,-0.526 0.462,-0.555 0.44,-0.574C0.418,-0.593 0.387,-0.603 0.348,-0.603C0.298,-0.603 0.26,-0.584 0.234,-0.546C0.208,-0.509 0.195,-0.453 0.195,-0.379L0.195,-0.334C0.195,-0.259 0.209,-0.203 0.237,-0.165C0.266,-0.127 0.307,-0.108 0.362,-0.108C0.417,-0.108 0.456,-0.12 0.479,-0.143L0.479,-0.266L0.346,-0.266L0.346,-0.374L0.626,-0.374L0.626,-0.09Z" style="fill:#fff;fill-rule:nonzero;"/>
            </g>
            <g transform="matrix(83.3333,0,0,83.3333,7028.64,2029.29)">
                <path d="M0.36,-0C0.354,-0.013 0.349,-0.028 0.346,-0.047C0.312,-0.009 0.268,0.01 0.213,0.01C0.161,0.01 0.118,-0.005 0.084,-0.035C0.05,-0.065 0.033,-0.103 0.033,-0.148C0.033,-0.204 0.054,-0.247 0.095,-0.277C0.137,-0.307 0.197,-0.322 0.275,-0.323L0.34,-0.323L0.34,-0.353C0.34,-0.377 0.334,-0.397 0.322,-0.412C0.309,-0.426 0.289,-0.434 0.262,-0.434C0.238,-0.434 0.22,-0.428 0.206,-0.417C0.193,-0.405 0.186,-0.389 0.186,-0.37L0.045,-0.37C0.045,-0.4 0.054,-0.429 0.073,-0.455C0.092,-0.481 0.119,-0.501 0.153,-0.516C0.188,-0.531 0.227,-0.538 0.27,-0.538C0.335,-0.538 0.386,-0.522 0.425,-0.489C0.463,-0.456 0.482,-0.41 0.482,-0.351L0.482,-0.122C0.482,-0.072 0.489,-0.034 0.503,-0.008L0.503,-0L0.36,-0ZM0.244,-0.098C0.264,-0.098 0.284,-0.103 0.301,-0.112C0.319,-0.121 0.332,-0.134 0.34,-0.149L0.34,-0.24L0.288,-0.24C0.217,-0.24 0.179,-0.216 0.175,-0.167L0.174,-0.159C0.174,-0.141 0.181,-0.127 0.193,-0.115C0.205,-0.104 0.222,-0.098 0.244,-0.098Z" style="fill:#fff;fill-rule:nonzero;"/>
            </g>
            <g transform="matrix(83.3333,0,0,83.3333,7073.32,2029.29)">
                <path d="M0.223,-0.658L0.223,-0.528L0.313,-0.528L0.313,-0.425L0.223,-0.425L0.223,-0.161C0.223,-0.142 0.227,-0.128 0.234,-0.119C0.242,-0.111 0.256,-0.106 0.277,-0.106C0.293,-0.106 0.307,-0.108 0.319,-0.11L0.319,-0.003C0.291,0.006 0.263,0.01 0.233,0.01C0.134,0.01 0.084,-0.04 0.082,-0.14L0.082,-0.425L0.005,-0.425L0.005,-0.528L0.082,-0.528L0.082,-0.658L0.223,-0.658Z" style="fill:#fff;fill-rule:nonzero;"/>
            </g>
            <g transform="matrix(83.3333,0,0,83.3333,7101.48,2029.29)">
                <path d="M0.297,0.01C0.22,0.01 0.157,-0.014 0.108,-0.062C0.059,-0.109 0.035,-0.172 0.035,-0.251L0.035,-0.265C0.035,-0.318 0.045,-0.366 0.066,-0.407C0.086,-0.449 0.115,-0.482 0.153,-0.504C0.191,-0.527 0.234,-0.538 0.282,-0.538C0.354,-0.538 0.411,-0.515 0.452,-0.47C0.494,-0.424 0.515,-0.36 0.515,-0.276L0.515,-0.218L0.178,-0.218C0.183,-0.184 0.197,-0.156 0.219,-0.135C0.242,-0.114 0.271,-0.104 0.307,-0.104C0.361,-0.104 0.403,-0.124 0.434,-0.163L0.503,-0.085C0.482,-0.056 0.454,-0.032 0.417,-0.015C0.381,0.001 0.341,0.01 0.297,0.01ZM0.281,-0.424C0.253,-0.424 0.231,-0.415 0.213,-0.396C0.196,-0.377 0.185,-0.35 0.18,-0.314L0.376,-0.314L0.376,-0.326C0.375,-0.357 0.367,-0.381 0.351,-0.399C0.334,-0.416 0.311,-0.424 0.281,-0.424Z" style="fill:#fff;fill-rule:nonzero;"/>
            </g>
            <g transform="matrix(83.3333,0,0,83.3333,7146.52,2029.29)">
                <path d="M0.514,-0.192L0.583,-0.528L0.719,-0.528L0.584,-0L0.466,-0L0.366,-0.333L0.266,-0L0.148,-0L0.014,-0.528L0.15,-0.528L0.219,-0.192L0.315,-0.528L0.417,-0.528L0.514,-0.192Z" style="fill:#fff;fill-rule:nonzero;"/>
            </g>
            <g transform="matrix(83.3333,0,0,83.3333,7207.76,2029.29)">
                <path d="M0.36,-0C0.354,-0.013 0.349,-0.028 0.346,-0.047C0.312,-0.009 0.268,0.01 0.213,0.01C0.161,0.01 0.118,-0.005 0.084,-0.035C0.05,-0.065 0.033,-0.103 0.033,-0.148C0.033,-0.204 0.054,-0.247 0.095,-0.277C0.137,-0.307 0.197,-0.322 0.275,-0.323L0.34,-0.323L0.34,-0.353C0.34,-0.377 0.334,-0.397 0.322,-0.412C0.309,-0.426 0.289,-0.434 0.262,-0.434C0.238,-0.434 0.22,-0.428 0.206,-0.417C0.193,-0.405 0.186,-0.389 0.186,-0.37L0.045,-0.37C0.045,-0.4 0.054,-0.429 0.073,-0.455C0.092,-0.481 0.119,-0.501 0.153,-0.516C0.188,-0.531 0.227,-0.538 0.27,-0.538C0.335,-0.538 0.386,-0.522 0.425,-0.489C0.463,-0.456 0.482,-0.41 0.482,-0.351L0.482,-0.122C0.482,-0.072 0.489,-0.034 0.503,-0.008L0.503,-0L0.36,-0ZM0.244,-0.098C0.264,-0.098 0.284,-0.103 0.301,-0.112C0.319,-0.121 0.332,-0.134 0.34,-0.149L0.34,-0.24L0.288,-0.24C0.217,-0.24 0.179,-0.216 0.175,-0.167L0.174,-0.159C0.174,-0.141 0.181,-0.127 0.193,-0.115C0.205,-0.104 0.222,-0.098 0.244,-0.098Z" style="fill:#fff;fill-rule:nonzero;"/>
            </g>
            <g transform="matrix(83.3333,0,0,83.3333,7251.83,2029.29)">
                <path d="M0.251,-0.2L0.349,-0.528L0.5,-0.528L0.288,0.082L0.276,0.11C0.245,0.179 0.193,0.213 0.12,0.213C0.1,0.213 0.079,0.21 0.058,0.204L0.058,0.097L0.079,0.098C0.106,0.098 0.126,0.094 0.139,0.085C0.152,0.077 0.162,0.064 0.17,0.045L0.187,0.001L0.001,-0.528L0.153,-0.528L0.251,-0.2Z" style="fill:#fff;fill-rule:nonzero;"/>
            </g>
        </g>
    </g>
</svg>
