<?xml version="1.0" encoding="UTF-8" standalone="no"?>
<!-- Generator: Adobe Illustrator 18.1.1, SVG Export Plug-In . SVG Version: 6.00 Build 0)  -->

<svg
   xmlns:dc="http://purl.org/dc/elements/1.1/"
   xmlns:cc="http://creativecommons.org/ns#"
   xmlns:rdf="http://www.w3.org/1999/02/22-rdf-syntax-ns#"
   xmlns:svg="http://www.w3.org/2000/svg"
   xmlns="http://www.w3.org/2000/svg"
   xmlns:sodipodi="http://sodipodi.sourceforge.net/DTD/sodipodi-0.dtd"
   xmlns:inkscape="http://www.inkscape.org/namespaces/inkscape"
   version="1.1"
   id="Layer_1"
   x="0px"
   y="0px"
   viewBox="7.7 3 347 110.6"
   enable-background="new 7.7 3 347 110.6"
   xml:space="preserve"
   inkscape:version="0.91 r13725"
   sodipodi:docname="galaxy_logo.svg"><metadata
     id="metadata4902"><rdf:RDF><cc:Work
         rdf:about=""><dc:format>image/svg+xml</dc:format><dc:type
           rdf:resource="http://purl.org/dc/dcmitype/StillImage" /><dc:title></dc:title></cc:Work></rdf:RDF></metadata><defs
     id="defs4900" /><sodipodi:namedview
     pagecolor="#ffffff"
     bordercolor="#666666"
     borderopacity="1"
     objecttolerance="10"
     gridtolerance="10"
     guidetolerance="10"
     inkscape:pageopacity="0"
     inkscape:pageshadow="2"
     inkscape:window-width="1920"
     inkscape:window-height="1080"
     id="namedview4898"
     showgrid="false"
     inkscape:zoom="1.2536023"
     inkscape:cx="-0.25420418"
     inkscape:cy="149.11651"
     inkscape:window-x="-2"
     inkscape:window-y="-2"
     inkscape:window-maximized="1"
     inkscape:current-layer="Layer_1" /><path
     fill="#58595B"
     d="M57.7,27.9h-47c-0.6,0-1.1-0.5-1.1-1.1V14.6c0-0.6,0.5-1.1,1.1-1.1h47c0.6,0,1.1,0.5,1.1,1.1v12.1  C58.8,27.3,58.4,27.9,57.7,27.9z"
     id="path4857"
     style="fill:#003399;fill-opacity:1" /><path
     fill="#58595B"
     d="M45.1,46.8H10.8c-0.6,0-1.2-0.5-1.2-1.2v-12c0-0.6,0.5-1.2,1.2-1.2h34.3c0.6,0,1.2,0.5,1.2,1.2v12  C46.3,46.3,45.8,46.8,45.1,46.8z"
     id="path4859"
     style="fill:#003399;fill-opacity:1" /><linearGradient
     id="SVGID_1_"
     gradientUnits="userSpaceOnUse"
     x1="61.4"
     y1="282.5"
     x2="175.7"
     y2="282.5"
     gradientTransform="matrix(0.431 0 0 -0.431 0 179.9715)"><stop
       offset="0.1656"
       style="stop-color:#D0BD2B"
       id="stop4862" /><stop
       offset="1"
       style="stop-color:#D0BD2B;stop-opacity:0"
       id="stop4864" /></linearGradient><path
     fill="url(#SVGID_1_)"
     d="M74.6,65.4H27.6c-0.6,0-1.2-0.5-1.2-1.2v-12c0-0.6,0.5-1.2,1.2-1.2h46.9c0.6,0,1.2,0.5,1.2,1.2v12  C75.7,64.9,75.2,65.4,74.6,65.4z"
     id="path4866" /><g
     id="g4884"
     style="fill:#003399;fill-opacity:1"><path
       fill="#58595B"
       d="M139.2,58.2c-2.5,0.9-5.7,1.9-9.7,2.8c-4.1,0.9-8.1,1.4-12.1,1.4c-9.3,0-16.6-2.5-21.9-7.6   c-5.3-5.1-7.9-12.1-7.9-21c0-8.5,2.7-15.4,8-20.6c5.3-5.2,12.8-7.8,22.3-7.8c3.6,0,7,0.3,10.3,1c3.3,0.6,6.9,1.9,10.9,3.9v12.8   h-1.6c-0.7-0.5-1.7-1.2-3-2.2s-2.6-1.8-3.8-2.4c-1.4-0.8-3.1-1.5-5-2c-1.9-0.6-3.9-0.9-6.1-0.9c-2.5,0-4.8,0.4-6.8,1.1   c-2,0.7-3.9,1.9-5.5,3.4c-1.6,1.5-2.8,3.4-3.7,5.6c-0.9,2.3-1.3,4.9-1.3,7.8c0,6.1,1.6,10.7,4.8,13.9c3.2,3.2,8,4.8,14.3,4.8   c0.6,0,1.1,0,1.8,0c0.6,0,1.2,0,1.8-0.1V41.4h-10.9V31.1h25.3L139.2,58.2L139.2,58.2z"
       id="path4886"
       style="fill:#003399;fill-opacity:1" /><path
       fill="#58595B"
       d="M172.7,57c-0.7,0.6-1.6,1.2-2.7,1.9c-1,0.8-2.1,1.4-3,1.8c-1.3,0.6-2.7,1-4.1,1.3c-1.4,0.3-2.9,0.4-4.6,0.4   c-3.9,0-7.2-1.2-9.9-3.7c-2.7-2.4-4-5.5-4-9.3c0-3,0.7-5.5,2-7.4c1.3-1.9,3.3-3.4,5.7-4.5s5.5-1.9,9.1-2.4c3.6-0.5,7.4-0.8,11.3-1   v-0.2c0-2.3-0.9-3.9-2.8-4.7c-1.9-0.9-4.6-1.3-8.2-1.3c-2.2,0-4.5,0.4-7,1.2c-2.5,0.8-4.3,1.4-5.3,1.8h-1.2v-10   c1.4-0.4,3.7-0.8,6.9-1.3c3.1-0.5,6.3-0.8,9.5-0.8c7.5,0,13,1.2,16.3,3.5s5,5.9,5,10.9v28.1h-13.1L172.7,57L172.7,57z M172.7,50.5   V42c-1.8,0.1-3.7,0.3-5.8,0.6c-2.1,0.3-3.7,0.6-4.7,0.9c-1.3,0.4-2.3,1-3,1.8c-0.7,0.8-1,1.9-1,3.1c0,0.9,0.1,1.6,0.2,2.1   c0.1,0.6,0.5,1,1.1,1.6c0.6,0.5,1.2,0.9,2,1.1c0.8,0.2,2,0.3,3.7,0.3c1.3,0,2.7-0.3,4.1-0.8C170.5,52.1,171.7,51.4,172.7,50.5z"
       id="path4888"
       style="fill:#003399;fill-opacity:1" /><path
       fill="#58595B"
       d="M208,61.3h-13.3V4H208V61.3z"
       id="path4890"
       style="fill:#003399;fill-opacity:1" /><path
       fill="#58595B"
       d="M242.1,57c-0.7,0.6-1.6,1.2-2.7,1.9c-1,0.8-2.1,1.4-3,1.8c-1.3,0.6-2.7,1-4.1,1.3c-1.4,0.3-2.9,0.4-4.6,0.4   c-3.9,0-7.2-1.2-9.9-3.7c-2.7-2.4-4-5.5-4-9.3c0-3,0.7-5.5,2-7.4c1.3-1.9,3.3-3.4,5.7-4.5c2.5-1.1,5.5-1.9,9.1-2.4   c3.6-0.5,7.4-0.8,11.3-1v-0.2c0-2.3-0.9-3.9-2.8-4.7c-1.9-0.9-4.6-1.3-8.2-1.3c-2.2,0-4.5,0.4-7,1.2c-2.5,0.8-4.3,1.4-5.3,1.8h-1.2   v-10c1.4-0.4,3.7-0.8,6.9-1.3c3.1-0.5,6.3-0.8,9.5-0.8c7.5,0,13,1.2,16.3,3.5c3.4,2.3,5,5.9,5,10.9v28.1h-13.1L242.1,57L242.1,57z    M242.1,50.5V42c-1.8,0.1-3.7,0.3-5.8,0.6c-2.1,0.3-3.7,0.6-4.7,0.9c-1.3,0.4-2.3,1-3,1.8c-0.7,0.8-1,1.9-1,3.1   c0,0.9,0.1,1.6,0.2,2.1c0.1,0.6,0.5,1,1.1,1.6c0.6,0.5,1.2,0.9,2,1.1c0.8,0.2,2,0.3,3.7,0.3c1.3,0,2.7-0.3,4.1-0.8   C239.9,52.1,241.1,51.4,242.1,50.5z"
       id="path4892"
       style="fill:#003399;fill-opacity:1" /><path
       fill="#58595B"
       d="M307.3,61.3h-15.5L283,49l-9.1,12.4h-15.2L275,40.7L259,20h15.5l8.7,12.2l8.7-12.2h15.2l-16.1,20.4   L307.3,61.3z"
       id="path4894"
       style="fill:#003399;fill-opacity:1" /><path
       fill="#58595B"
       d="M329.8,46.7l9.4-26.7h13.6l-23,56.5h-14.4l6.6-15.5L306,20h13.9L329.8,46.7z"
       id="path4896"
       style="fill:#003399;fill-opacity:1" /></g><g
     id="g4208"
     transform="translate(18.331947,-33.279534)"><path
       d="m 107.1222,139.37476 c 0,4.34631 2.6924,4.96171 5.23095,4.84633 l 11.30809,-0.46156 0,-1.11542 -11.30809,0 c -1.76929,0 -3.65397,-0.23078 -3.65397,-3.26935 l 0,-8.3849 13.42354,-0.26924 0,-1.11542 -13.42354,-0.26925 0,-8.3849 c 0,-2.26931 1.00003,-3.4232 3.26934,-3.4232 l 11.69272,0 0,-1.11542 -11.69272,-0.46155 c -2.50008,-0.0769 -4.84632,1.23081 -4.84632,5.00017 l 0,18.42371 z"
       style="font-style:normal;font-variant:normal;font-weight:200;font-stretch:normal;font-size:medium;line-height:125%;font-family:Exo;-inkscape-font-specification:'Exo Ultra-Light';letter-spacing:6.45537519px;word-spacing:0px;fill:#003399;fill-opacity:1;stroke:none;stroke-width:1px;stroke-linecap:butt;stroke-linejoin:miter;stroke-opacity:1"
       id="path4190"
       inkscape:connector-curvature="0" /><path
       d="m 136.33707,131.79758 c 0,12.69275 4.84632,12.50043 10.07727,12.50043 4.65401,0 9.8465,-0.0769 9.8465,-12.50043 l 0,-15.8467 -1.61544,0 0,15.8467 c 0,10.50036 -3.76936,10.92345 -8.23106,10.92345 -5.00017,0 -8.50029,0.0385 -8.50029,-10.92345 l 0,-15.8467 -1.57698,0 0,15.8467 z"
       style="font-style:normal;font-variant:normal;font-weight:200;font-stretch:normal;font-size:medium;line-height:125%;font-family:Exo;-inkscape-font-specification:'Exo Ultra-Light';letter-spacing:6.45537519px;word-spacing:0px;fill:#003399;fill-opacity:1;stroke:none;stroke-width:1px;stroke-linecap:butt;stroke-linejoin:miter;stroke-opacity:1"
       id="path4192"
       inkscape:connector-curvature="0" /><path
       d="m 171.18445,130.33599 0,-12.76967 9.50033,0 c 2.50008,0 5.07709,0.73079 5.07709,6.34637 0,5.84636 -2.46162,6.4233 -5.07709,6.4233 l -9.50033,0 z m -1.57698,13.76971 1.57698,0 0,-12.5389 c 0.11538,0.0769 7.42333,0.38463 8.76953,0.42309 l 6.15406,12.11581 1.6539,0 -6.07713,-12.15427 c 2.19238,-0.11539 5.69251,-0.76926 5.69251,-8.03874 0,-6.731 -3.46166,-7.96181 -6.69254,-7.96181 l -11.07731,0 0,28.15482 z"
       style="font-style:normal;font-variant:normal;font-weight:200;font-stretch:normal;font-size:medium;line-height:125%;font-family:Exo;-inkscape-font-specification:'Exo Ultra-Light';letter-spacing:6.45537519px;word-spacing:0px;fill:#003399;fill-opacity:1;stroke:none;stroke-width:1px;stroke-linecap:butt;stroke-linejoin:miter;stroke-opacity:1"
       id="path4194"
       inkscape:connector-curvature="0" /><path
       d="m 198.83256,130.2206 c 0,-12.46197 3.46166,-12.88506 8.96185,-12.88506 5.84636,0 8.88492,0.73079 8.88492,12.88506 0,10.76961 -2.50008,12.46197 -8.88492,12.46197 -6.61561,0 -8.96185,-1.53851 -8.96185,-12.46197 z m -1.57698,0 c 0,12.80814 3.61551,14.03895 10.53883,14.03895 6.92332,0 10.4619,-1.61544 10.4619,-14.03895 0,-13.19276 -3.80782,-14.46204 -10.4619,-14.46204 -6.57715,0 -10.53883,1.26928 -10.53883,14.46204 z"
       style="font-style:normal;font-variant:normal;font-weight:200;font-stretch:normal;font-size:medium;line-height:125%;font-family:Exo;-inkscape-font-specification:'Exo Ultra-Light';letter-spacing:6.45537519px;word-spacing:0px;fill:#003399;fill-opacity:1;stroke:none;stroke-width:1px;stroke-linecap:butt;stroke-linejoin:miter;stroke-opacity:1"
       id="path4196"
       inkscape:connector-curvature="0" /><path
       d="m 229.05539,130.41292 0,-12.8466 9.34648,0 c 2.3847,0 5.11556,0.6154 5.15403,6.23098 0.0385,5.76943 -2.46163,6.61562 -5.15403,6.61562 l -9.34648,0 z m -1.57697,13.69278 1.57697,0 0,-12.61582 c 0.19232,0.11538 7.80797,0.53848 9.34648,0.53848 2.84625,0 6.76947,-0.30771 6.76947,-8.23106 0,-6.88485 -3.7309,-7.84642 -6.76947,-7.84642 l -10.92345,0 0,28.15482 z"
       style="font-style:normal;font-variant:normal;font-weight:200;font-stretch:normal;font-size:medium;line-height:125%;font-family:Exo;-inkscape-font-specification:'Exo Ultra-Light';letter-spacing:6.45537519px;word-spacing:0px;fill:#003399;fill-opacity:1;stroke:none;stroke-width:1px;stroke-linecap:butt;stroke-linejoin:miter;stroke-opacity:1"
       id="path4198"
       inkscape:connector-curvature="0" /><path
       d="m 254.65097,139.37476 c 0,4.34631 2.6924,4.96171 5.23095,4.84633 l 11.30808,-0.46156 0,-1.11542 -11.30808,0 c -1.76929,0 -3.65397,-0.23078 -3.65397,-3.26935 l 0,-8.3849 13.42354,-0.26924 0,-1.11542 -13.42354,-0.26925 0,-8.3849 c 0,-2.26931 1.00003,-3.4232 3.26934,-3.4232 l 11.69271,0 0,-1.11542 -11.69271,-0.46155 c -2.50009,-0.0769 -4.84632,1.23081 -4.84632,5.00017 l 0,18.42371 z"
       style="font-style:normal;font-variant:normal;font-weight:200;font-stretch:normal;font-size:medium;line-height:125%;font-family:Exo;-inkscape-font-specification:'Exo Ultra-Light';letter-spacing:6.45537519px;word-spacing:0px;fill:#003399;fill-opacity:1;stroke:none;stroke-width:1px;stroke-linecap:butt;stroke-linejoin:miter;stroke-opacity:1"
       id="path4200"
       inkscape:connector-curvature="0" /></g></svg>