<?xml version="1.0" encoding="UTF-8" standalone="no"?>
<!-- Created with Inkscape (http://www.inkscape.org/) -->
<svg xmlns:dc="http://purl.org/dc/elements/1.1/" xmlns:cc="http://creativecommons.org/ns#" xmlns:rdf="http://www.w3.org/1999/02/22-rdf-syntax-ns#" xmlns:svg="http://www.w3.org/2000/svg" xmlns="http://www.w3.org/2000/svg" version="1.1" width="538.58264" height="326.33856" id="svg6169">
  <defs id="defs6171"/>
  <metadata id="metadata6174">
    <rdf:RDF>
      <cc:Work rdf:about="">
        <dc:format>image/svg+xml</dc:format>
        <dc:type rdf:resource="http://purl.org/dc/dcmitype/StillImage"/>
        <dc:title/>
      </cc:Work>
    </rdf:RDF>
  </metadata>
  <g transform="translate(-114.27632,-158.09282)" id="layer1">
    <g transform="matrix(3.4444625,0,0,3.4444625,-29.767859,-410.21148)" id="g6346">
      <g transform="matrix(1.25,0,0,-1.25,42.85675,232.39208)" id="g3005" style="fill:#001e5a;fill-opacity:1">
        <path d="m 0,0 c 0.306,2.457 0.409,4.699 0.409,8.064 l 0,16.445 c 0,4.059 -0.103,5.981 -0.409,8.062 l 10.143,0 0,-2.241 c 0,-0.215 0,-0.215 -0.052,-0.749 l 0,-0.266 0,-0.267 c 2.613,2.99 5.737,4.379 9.784,4.379 2.665,0 4.868,-0.641 6.557,-1.923 0.922,-0.695 1.436,-1.336 2.101,-2.671 3.175,3.257 6.301,4.646 10.758,4.646 7.325,0 11.065,-4.164 11.065,-12.228 l 0,-13.241 c 0,-3.311 0.103,-5.5 0.41,-8.01 L 40.111,0 c 0.307,2.51 0.41,4.433 0.41,8.064 l 0,10.999 c 0,4.004 -1.126,5.553 -4.047,5.553 -2.614,0 -4.969,-2.135 -6.249,-5.714 l 0,-10.892 c 0,-3.203 0.101,-5.445 0.408,-8.01 L 19.978,0 c 0.307,2.404 0.41,4.646 0.41,8.064 l 0,10.999 c 0,2.243 -0.205,3.258 -0.871,4.165 -0.564,0.854 -1.589,1.334 -2.818,1.334 -2.766,0 -5.122,-2.081 -6.556,-5.712 l 0,-10.786 C 10.143,4.699 10.245,2.617 10.552,0 L 0,0 z" id="path3007" style="fill:#001e5a;fill-opacity:1;fill-rule:nonzero;stroke:none"/>
      </g>
      <g transform="matrix(1.25,0,0,-1.25,173.46425,220.31058)" id="g3009" style="fill:#001e5a;fill-opacity:1">
        <path d="m 0,0 c 1.436,1.44 2.255,3.898 2.255,6.941 0,5.447 -2.765,8.596 -7.581,8.596 -4.253,0 -7.736,-3.897 -7.736,-8.756 0,-5.02 3.433,-8.81 8.044,-8.81 1.946,0 3.687,0.693 5.018,2.029 m -23.256,-19.597 c 0.256,2.296 0.409,4.966 0.409,7.798 l 0,26.055 c 0,3.471 -0.103,5.661 -0.409,8.383 l 10.091,0 0,-1.816 c 0,-0.32 -0.051,-0.748 -0.051,-1.014 3.073,2.668 6.25,3.791 10.503,3.791 4.507,0 8.196,-1.388 10.859,-4.111 2.716,-2.83 4.098,-7.049 4.098,-12.441 0,-5.446 -1.537,-9.878 -4.455,-12.921 -2.614,-2.724 -6.353,-4.218 -10.553,-4.218 -2.41,0 -5.022,0.534 -6.917,1.387 -1.332,0.588 -2.1,1.174 -3.535,2.457 0,-0.48 0,-1.175 0.051,-1.924 l 0,-3.683 c 0,-2.991 0.103,-5.447 0.41,-7.743 l -10.501,0 z" id="path3011" style="fill:#001e5a;fill-opacity:1;fill-rule:nonzero;stroke:none"/>
      </g>
      <g transform="matrix(1.25,0,0,-1.25,118.4105,220.00607)" id="g3013" style="fill:#001e5a;fill-opacity:1">
        <path d="m 0,0 c 0.541,-2.9 2.382,-4.182 6.013,-4.182 3.25,0 5.093,0.948 5.093,2.677 0,0.836 -0.434,1.561 -1.192,2.008 C 9.155,0.948 8.451,1.171 5.471,1.785 1.354,2.62 -0.76,3.178 -2.548,3.793 c -2.6,1.003 -4.387,2.285 -5.416,3.959 -0.868,1.505 -1.355,3.401 -1.355,5.297 0,6.691 5.472,10.762 14.52,10.762 5.148,0 8.992,-1.17 11.538,-3.568 1.789,-1.617 2.655,-3.234 3.523,-6.357 L 9.805,12.714 c -0.271,2.287 -1.626,3.291 -4.551,3.291 -2.817,0 -4.551,-0.948 -4.551,-2.398 0,-1.505 1.138,-2.064 6.501,-3.29 5.31,-1.172 6.989,-1.672 8.886,-2.677 3.521,-1.785 5.202,-4.517 5.202,-8.532 0,-2.955 -0.977,-5.631 -2.764,-7.416 -2.601,-2.678 -7.043,-4.072 -12.84,-4.072 -6.827,0 -11.649,1.896 -14.249,5.577 -1.083,1.561 -1.625,2.899 -2.167,5.575 L 0,0 z" id="path3015" style="fill:#001e5a;fill-opacity:1;fill-rule:nonzero;stroke:none"/>
      </g>
      <g transform="matrix(1.25,0,0,-1.25,46.47263,166.2367)" id="g3017" style="fill:#001e5a;fill-opacity:1">
        <path d="m 0,0 1.311,-6.477 0.026,0 1.324,6.477 2.737,0 0,-9.175 -1.697,0 0,7.324 -0.026,0 -1.631,-7.324 -1.44,0 -1.632,7.324 -0.025,0 0,-7.324 -1.697,0 L -2.75,0 0,0 z" id="path3019" style="fill:#001e5a;fill-opacity:1;fill-rule:nonzero;stroke:none"/>
      </g>
      <path d="m 56.5765,177.7057 -2.2175,0 0,-8.6425 2.2175,0 0,8.6425 z m 0,-9.70125 -2.2175,0 0,-1.89625 2.2175,0 0,1.89625 z" id="path3021" style="fill:#001e5a;fill-opacity:1;fill-rule:nonzero;stroke:none"/>
      <g transform="matrix(1.25,0,0,-1.25,59.72412,169.06382)" id="g3023" style="fill:#001e5a;fill-opacity:1">
        <path d="m 0,0 0,-0.81 0.026,0 c 0.188,0.342 0.433,0.594 0.733,0.753 0.299,0.158 0.642,0.237 1.027,0.237 0.566,0 1.001,-0.155 1.305,-0.463 0.304,-0.308 0.456,-0.81 0.456,-1.503 l 0,-5.128 -1.773,0 0,4.768 c 0,0.36 -0.06,0.61 -0.18,0.752 -0.12,0.141 -0.313,0.212 -0.578,0.212 -0.626,0 -0.939,-0.382 -0.939,-1.144 l 0,-4.588 -1.773,0 0,6.914 L 0,0 z" id="path3025" style="fill:#001e5a;fill-opacity:1;fill-rule:nonzero;stroke:none"/>
      </g>
      <g transform="matrix(1.25,0,0,-1.25,67.22588,169.06382)" id="g3027" style="fill:#001e5a;fill-opacity:1">
        <path d="m 0,0 0,-0.81 0.026,0 c 0.188,0.342 0.432,0.594 0.733,0.753 0.299,0.158 0.642,0.237 1.027,0.237 0.566,0 1,-0.155 1.305,-0.463 0.303,-0.308 0.456,-0.81 0.456,-1.503 l 0,-5.128 -1.774,0 0,4.768 c 0,0.36 -0.059,0.61 -0.18,0.752 -0.119,0.141 -0.312,0.212 -0.578,0.212 -0.625,0 -0.938,-0.382 -0.938,-1.144 l 0,-4.588 -1.773,0 0,6.914 L 0,0 z" id="path3029" style="fill:#001e5a;fill-opacity:1;fill-rule:nonzero;stroke:none"/>
      </g>
      <g transform="matrix(1.25,0,0,-1.25,76.70312,171.5297)" id="g3031" style="fill:#001e5a;fill-opacity:1">
        <path d="m 0,0 c -0.026,0.201 -0.071,0.373 -0.135,0.514 -0.064,0.141 -0.154,0.248 -0.27,0.321 -0.115,0.073 -0.263,0.11 -0.443,0.11 -0.18,0 -0.328,-0.041 -0.443,-0.122 C -1.407,0.741 -1.499,0.634 -1.568,0.501 -1.637,0.368 -1.686,0.221 -1.715,0.058 -1.746,-0.105 -1.76,-0.268 -1.76,-0.43 l 0,-0.271 1.811,0 C 0.043,-0.435 0.026,-0.202 0,0 m -1.76,-2.307 c 0,-0.205 0.014,-0.405 0.045,-0.598 0.029,-0.191 0.078,-0.363 0.147,-0.513 0.069,-0.15 0.159,-0.27 0.27,-0.36 0.111,-0.09 0.248,-0.135 0.411,-0.135 0.3,0 0.518,0.107 0.656,0.321 0.136,0.215 0.231,0.54 0.282,0.977 l 1.594,0 C 1.61,-3.42 1.396,-4.032 1.002,-4.453 0.608,-4.872 -0.013,-5.082 -0.861,-5.082 c -0.643,0 -1.144,0.107 -1.504,0.321 -0.359,0.214 -0.625,0.496 -0.796,0.848 -0.172,0.351 -0.277,0.745 -0.315,1.182 -0.039,0.437 -0.058,0.874 -0.058,1.311 0,0.463 0.032,0.908 0.096,1.336 0.065,0.429 0.193,0.81 0.386,1.144 0.193,0.334 0.469,0.6 0.829,0.797 0.359,0.197 0.839,0.296 1.439,0.296 0.514,0 0.936,-0.084 1.266,-0.251 C 0.811,1.735 1.071,1.499 1.259,1.195 1.448,0.891 1.576,0.523 1.645,0.09 1.713,-0.343 1.748,-0.825 1.748,-1.356 l 0,-0.398 -3.508,0 0,-0.553 z" id="path3033" style="fill:#001e5a;fill-opacity:1;fill-rule:nonzero;stroke:none"/>
      </g>
      <g transform="matrix(1.25,0,0,-1.25,83.06412,173.66595)" id="g3035" style="fill:#001e5a;fill-opacity:1">
        <path d="m 0,0 c -0.137,-0.056 -0.261,-0.096 -0.373,-0.122 -0.359,-0.077 -0.617,-0.205 -0.771,-0.386 -0.154,-0.18 -0.231,-0.424 -0.231,-0.732 0,-0.266 0.051,-0.493 0.154,-0.681 0.103,-0.189 0.274,-0.283 0.514,-0.283 0.12,0 0.244,0.019 0.373,0.059 0.128,0.037 0.246,0.1 0.353,0.185 0.107,0.086 0.195,0.197 0.264,0.334 0.068,0.137 0.102,0.3 0.102,0.489 l 0,1.362 C 0.265,0.131 0.137,0.056 0,0 m -2.853,1.728 c 0,0.403 0.064,0.739 0.193,1.009 0.128,0.27 0.302,0.489 0.521,0.655 0.218,0.168 0.475,0.287 0.771,0.361 0.295,0.072 0.61,0.109 0.944,0.109 0.531,0 0.959,-0.052 1.285,-0.155 C 1.186,3.604 1.439,3.459 1.619,3.271 1.799,3.082 1.921,2.857 1.985,2.596 2.049,2.335 2.082,2.049 2.082,1.741 l 0,-3.636 c 0,-0.326 0.014,-0.579 0.045,-0.758 0.03,-0.18 0.088,-0.373 0.173,-0.579 l -1.696,0 c -0.06,0.111 -0.105,0.229 -0.135,0.354 -0.03,0.124 -0.058,0.246 -0.084,0.365 l -0.025,0 c -0.206,-0.359 -0.444,-0.592 -0.713,-0.7 -0.27,-0.107 -0.62,-0.16 -1.048,-0.16 -0.308,0 -0.57,0.053 -0.784,0.16 -0.214,0.108 -0.385,0.255 -0.514,0.443 -0.128,0.189 -0.222,0.401 -0.282,0.637 -0.061,0.235 -0.09,0.469 -0.09,0.7 0,0.326 0.034,0.606 0.102,0.841 0.069,0.236 0.174,0.438 0.315,0.605 0.142,0.167 0.322,0.306 0.54,0.417 0.218,0.112 0.482,0.21 0.79,0.296 l 1.003,0.27 c 0.265,0.068 0.449,0.163 0.552,0.283 0.103,0.119 0.154,0.295 0.154,0.526 0,0.266 -0.062,0.474 -0.186,0.624 -0.124,0.15 -0.336,0.225 -0.636,0.225 -0.274,0 -0.48,-0.082 -0.617,-0.244 C -1.191,2.246 -1.259,2.028 -1.259,1.754 l 0,-0.192 -1.594,0 0,0.166 z" id="path3037" style="fill:#001e5a;fill-opacity:1;fill-rule:nonzero;stroke:none"/>
      </g>
      <g transform="matrix(1.25,0,0,-1.25,89.14325,175.51332)" id="g3039" style="fill:#001e5a;fill-opacity:1">
        <path d="M 0,0 C 0.116,-0.381 0.371,-0.572 0.765,-0.572 1.15,-0.572 1.401,-0.381 1.516,0 1.632,0.381 1.69,0.949 1.69,1.703 1.69,2.457 1.632,3.024 1.516,3.405 1.401,3.786 1.15,3.977 0.765,3.977 0.371,3.977 0.116,3.786 0,3.405 -0.115,3.024 -0.173,2.457 -0.173,1.703 -0.173,0.949 -0.115,0.381 0,0 m -0.251,5.16 0,-0.733 0.026,0 c 0.198,0.325 0.418,0.559 0.662,0.701 0.244,0.141 0.546,0.211 0.906,0.211 0.728,0 1.264,-0.285 1.606,-0.854 C 3.292,3.915 3.463,2.988 3.463,1.703 3.463,0.418 3.292,-0.503 2.949,-1.06 2.607,-1.617 2.071,-1.895 1.343,-1.895 c -0.334,0 -0.619,0.062 -0.855,0.187 -0.235,0.123 -0.447,0.323 -0.636,0.596 l -0.025,0 0,-2.865 -1.774,0 0,9.137 1.696,0 z" id="path3041" style="fill:#001e5a;fill-opacity:1;fill-rule:nonzero;stroke:none"/>
      </g>
      <g transform="matrix(1.25,0,0,-1.25,96.17088,174.60582)" id="g3043" style="fill:#001e5a;fill-opacity:1">
        <path d="m 0,0 c 0.017,-0.3 0.058,-0.557 0.122,-0.771 0.065,-0.213 0.161,-0.381 0.289,-0.502 0.129,-0.119 0.3,-0.179 0.515,-0.179 0.359,0 0.607,0.189 0.745,0.565 0.137,0.377 0.205,0.999 0.205,1.864 0,0.865 -0.068,1.486 -0.205,1.863 C 1.533,3.216 1.285,3.406 0.926,3.406 0.711,3.406 0.54,3.346 0.411,3.225 0.283,3.105 0.187,2.938 0.122,2.725 0.058,2.51 0.017,2.253 0,1.953 -0.017,1.653 -0.025,1.328 -0.025,0.977 -0.025,0.626 -0.017,0.3 0,0 m -1.658,2.545 c 0.094,0.453 0.249,0.832 0.463,1.137 0.214,0.303 0.495,0.535 0.842,0.694 C -0.006,4.534 0.42,4.613 0.926,4.613 1.457,4.622 1.898,4.551 2.249,4.401 2.6,4.251 2.879,4.022 3.084,3.714 3.29,3.406 3.436,3.024 3.521,2.57 3.607,2.116 3.65,1.585 3.65,0.977 3.65,0.385 3.602,-0.137 3.508,-0.591 3.414,-1.045 3.26,-1.424 3.045,-1.728 2.831,-2.033 2.551,-2.257 2.204,-2.403 1.857,-2.549 1.431,-2.621 0.926,-2.621 c -0.532,-0.009 -0.973,0.057 -1.324,0.199 -0.351,0.141 -0.63,0.364 -0.836,0.668 -0.205,0.304 -0.351,0.686 -0.437,1.144 -0.085,0.458 -0.128,0.987 -0.128,1.587 0,0.591 0.047,1.113 0.141,1.568" id="path3045" style="fill:#001e5a;fill-opacity:1;fill-rule:nonzero;stroke:none"/>
      </g>
      <path d="m 103.68775,177.7057 -2.21625,0 0,-11.46875 2.21625,0 0,11.46875 z" id="path3047" style="fill:#001e5a;fill-opacity:1;fill-rule:nonzero;stroke:none"/>
      <path d="m 107.014,177.7057 -2.2175,0 0,-8.6425 2.2175,0 0,8.6425 z m 0,-9.70125 -2.2175,0 0,-1.89625 2.2175,0 0,1.89625 z" id="path3049" style="fill:#001e5a;fill-opacity:1;fill-rule:nonzero;stroke:none"/>
      <g transform="matrix(1.25,0,0,-1.25,109.66363,175.1682)" id="g3051" style="fill:#001e5a;fill-opacity:1">
        <path d="m 0,0 c 0,-0.3 0.079,-0.542 0.238,-0.725 0.158,-0.185 0.387,-0.277 0.687,-0.277 0.274,0 0.493,0.069 0.655,0.206 0.163,0.137 0.244,0.342 0.244,0.617 0,0.222 -0.063,0.391 -0.192,0.506 -0.128,0.117 -0.278,0.208 -0.45,0.277 l -1.246,0.449 c -0.488,0.172 -0.857,0.414 -1.105,0.727 -0.249,0.312 -0.373,0.713 -0.373,1.202 0,0.282 0.047,0.55 0.141,0.802 0.094,0.253 0.244,0.474 0.45,0.662 0.206,0.189 0.469,0.339 0.791,0.45 0.321,0.111 0.708,0.167 1.163,0.167 0.804,0 1.4,-0.171 1.785,-0.514 C 3.174,4.206 3.367,3.722 3.367,3.097 l 0,-0.282 -1.594,0 C 1.773,3.174 1.716,3.437 1.6,3.605 1.484,3.772 1.281,3.855 0.989,3.855 0.766,3.855 0.572,3.793 0.405,3.669 0.238,3.544 0.154,3.358 0.154,3.11 0.154,2.938 0.208,2.784 0.315,2.648 0.422,2.51 0.625,2.394 0.925,2.3 L 1.992,1.941 C 2.548,1.752 2.943,1.506 3.174,1.202 3.405,0.897 3.521,0.484 3.521,-0.038 3.521,-0.407 3.456,-0.725 3.328,-0.995 3.2,-1.266 3.022,-1.491 2.795,-1.671 2.568,-1.85 2.298,-1.978 1.986,-2.056 1.673,-2.133 1.328,-2.171 0.951,-2.171 c -0.497,0 -0.91,0.047 -1.24,0.141 -0.33,0.094 -0.591,0.235 -0.784,0.424 -0.193,0.188 -0.328,0.417 -0.405,0.688 -0.077,0.269 -0.115,0.571 -0.115,0.905 l 0,0.245 L 0,0.232 0,0 z" id="path3053" style="fill:#001e5a;fill-opacity:1;fill-rule:nonzero;stroke:none"/>
      </g>
      <g transform="matrix(1.25,0,0,-1.25,127.11837,174.45982)" id="g3055" style="fill:#001e5a;fill-opacity:1">
        <path d="m 0,0 c 0,-0.214 0.018,-0.409 0.052,-0.584 0.035,-0.176 0.099,-0.324 0.193,-0.443 0.094,-0.121 0.221,-0.215 0.378,-0.284 0.16,-0.068 0.359,-0.103 0.599,-0.103 0.283,0 0.537,0.093 0.765,0.277 0.227,0.185 0.341,0.469 0.341,0.855 0,0.204 -0.029,0.384 -0.083,0.533 C 2.188,0.402 2.096,0.536 1.969,0.656 1.84,0.775 1.67,0.885 1.46,0.984 1.251,1.082 0.991,1.183 0.684,1.286 0.272,1.424 -0.084,1.573 -0.383,1.737 c -0.301,0.162 -0.55,0.353 -0.752,0.571 -0.202,0.218 -0.349,0.471 -0.442,0.758 -0.095,0.287 -0.142,0.62 -0.142,0.996 0,0.909 0.252,1.587 0.758,2.032 0.504,0.446 1.199,0.668 2.079,0.668 0.411,0 0.789,-0.045 1.136,-0.135 C 2.6,6.537 2.9,6.392 3.152,6.192 3.404,5.99 3.602,5.734 3.743,5.421 3.884,5.109 3.954,4.736 3.954,4.298 l 0,-0.258 -1.77,0 C 2.184,4.478 2.106,4.815 1.953,5.049 1.799,5.286 1.543,5.403 1.184,5.403 0.98,5.403 0.809,5.373 0.673,5.314 0.536,5.253 0.428,5.173 0.345,5.075 0.264,4.976 0.209,4.862 0.179,4.733 0.148,4.605 0.134,4.472 0.134,4.335 0.134,4.052 0.194,3.815 0.314,3.621 0.433,3.427 0.691,3.25 1.085,3.087 L 2.508,2.469 C 2.859,2.314 3.145,2.155 3.368,1.987 3.59,1.82 3.769,1.64 3.9,1.445 4.033,1.254 4.125,1.042 4.175,0.809 4.227,0.578 4.253,0.32 4.253,0.037 4.253,-0.933 3.972,-1.637 3.41,-2.079 2.85,-2.522 2.068,-2.742 1.066,-2.742 c -1.047,0 -1.794,0.229 -2.244,0.684 -0.45,0.456 -0.674,1.107 -0.674,1.955 l 0,0.373 L 0,0.27 0,0 z" id="path3057" style="fill:#001e5a;fill-opacity:1;fill-rule:nonzero;stroke:none"/>
      </g>
      <g transform="matrix(1.25,0,0,-1.25,136.55513,173.66782)" id="g3059" style="fill:#001e5a;fill-opacity:1">
        <path d="m 0,0 c -0.138,-0.055 -0.261,-0.097 -0.372,-0.122 -0.36,-0.077 -0.618,-0.206 -0.772,-0.386 -0.155,-0.178 -0.232,-0.423 -0.232,-0.732 0,-0.264 0.052,-0.492 0.155,-0.679 0.103,-0.189 0.274,-0.283 0.514,-0.283 0.119,0 0.243,0.02 0.373,0.059 0.128,0.038 0.246,0.1 0.353,0.185 0.107,0.085 0.196,0.197 0.263,0.333 0.069,0.137 0.102,0.301 0.102,0.489 l 0,1.36 C 0.265,0.13 0.137,0.056 0,0 m -2.859,1.733 c 0,0.402 0.065,0.738 0.194,1.007 0.127,0.269 0.301,0.488 0.521,0.656 0.219,0.166 0.476,0.286 0.772,0.358 0.296,0.072 0.611,0.109 0.946,0.109 0.531,0 0.961,-0.051 1.287,-0.154 C 1.187,3.606 1.44,3.46 1.621,3.272 1.801,3.083 1.923,2.858 1.988,2.597 2.052,2.336 2.083,2.05 2.083,1.742 l 0,-3.64 c 0,-0.324 0.015,-0.577 0.046,-0.758 0.029,-0.179 0.087,-0.371 0.173,-0.577 L 0.604,-3.23 C 0.544,-3.12 0.5,-3.002 0.469,-2.878 0.44,-2.754 0.412,-2.631 0.385,-2.511 l -0.026,0 c -0.206,-0.361 -0.443,-0.596 -0.713,-0.703 -0.27,-0.109 -0.62,-0.162 -1.049,-0.162 -0.307,0 -0.57,0.053 -0.784,0.162 -0.215,0.106 -0.387,0.254 -0.515,0.443 -0.128,0.189 -0.223,0.402 -0.283,0.638 -0.059,0.235 -0.089,0.469 -0.089,0.7 0,0.326 0.034,0.607 0.102,0.843 0.068,0.237 0.174,0.438 0.316,0.605 0.141,0.167 0.321,0.306 0.539,0.418 0.22,0.112 0.482,0.209 0.791,0.295 l 1.004,0.27 c 0.265,0.07 0.45,0.164 0.552,0.285 0.104,0.119 0.154,0.295 0.154,0.526 0,0.266 -0.061,0.474 -0.186,0.625 -0.123,0.149 -0.337,0.225 -0.637,0.225 -0.274,0 -0.48,-0.082 -0.618,-0.244 C -1.193,2.252 -1.262,2.034 -1.262,1.759 l 0,-0.192 -1.597,0 0,0.166 z" id="path3061" style="fill:#001e5a;fill-opacity:1;fill-rule:nonzero;stroke:none"/>
      </g>
      <path d="m 142.4965,177.7057 -2.215,0 0,-8.635 2.215,0 0,8.635 z m 0,-9.70375 -2.215,0 0,-1.89125 2.215,0 0,1.89125 z" id="path3063" style="fill:#001e5a;fill-opacity:1;fill-rule:nonzero;stroke:none"/>
      <g transform="matrix(1.25,0,0,-1.25,145.64713,169.07107)" id="g3065" style="fill:#001e5a;fill-opacity:1">
        <path d="m 0,0 0,-0.802 0.025,0 c 0.187,0.343 0.43,0.592 0.728,0.751 0.298,0.157 0.639,0.237 1.022,0.237 0.566,0 1,-0.155 1.305,-0.462 0.304,-0.309 0.456,-0.811 0.456,-1.504 l 0,-5.128 -1.771,0 0,4.77 c 0,0.36 -0.06,0.61 -0.18,0.753 -0.117,0.141 -0.311,0.212 -0.574,0.212 -0.623,0 -0.935,-0.381 -0.935,-1.145 l 0,-4.59 -1.772,0 0,6.908 L 0,0 z" id="path3067" style="fill:#001e5a;fill-opacity:1;fill-rule:nonzero;stroke:none"/>
      </g>
      <g transform="matrix(1.25,0,0,-1.25,153.72025,166.58545)" id="g3069" style="fill:#001e5a;fill-opacity:1">
        <path d="m 0,0 0,-1.988 1.028,0 0,-1.205 -1.028,0 0,-3.739 c 0,-0.273 0.041,-0.468 0.122,-0.585 0.081,-0.114 0.25,-0.172 0.508,-0.172 0.068,0 0.136,0.002 0.205,0.006 0.069,0.004 0.133,0.011 0.193,0.019 l 0,-1.232 c -0.197,0 -0.388,-0.008 -0.571,-0.021 -0.185,-0.015 -0.38,-0.021 -0.586,-0.021 -0.342,0 -0.622,0.024 -0.84,0.071 -0.218,0.046 -0.385,0.141 -0.501,0.282 -0.115,0.141 -0.194,0.328 -0.237,0.559 -0.043,0.231 -0.065,0.523 -0.065,0.874 l 0,3.959 -0.899,0 0,1.205 0.899,0 0,1.988 L 0,0 z" id="path3071" style="fill:#001e5a;fill-opacity:1;fill-rule:nonzero;stroke:none"/>
      </g>
      <g transform="matrix(1.25,0,0,-1.25,161.62562,171.42682)" id="g3073" style="fill:#001e5a;fill-opacity:1">
        <path d="m 0,0 c 0.369,0 0.668,0.113 0.895,0.335 0.227,0.224 0.341,0.57 0.341,1.041 0,0.464 -0.099,0.815 -0.296,1.055 -0.197,0.24 -0.528,0.361 -0.991,0.361 l -0.772,0 L -0.823,0 0,0 z m 0.566,4.151 c 0.472,0 0.869,-0.08 1.191,-0.239 C 2.079,3.754 2.338,3.548 2.536,3.291 2.734,3.034 2.873,2.74 2.96,2.41 3.047,2.081 3.09,1.745 3.09,1.403 3.09,0.931 3.018,0.522 2.877,0.169 2.736,-0.181 2.538,-0.469 2.285,-0.691 2.032,-0.914 1.725,-1.08 1.365,-1.191 1.005,-1.303 0.605,-1.358 0.168,-1.358 l -0.991,0 0,-3.665 -1.854,0 0,9.174 3.243,0 z" id="path3075" style="fill:#001e5a;fill-opacity:1;fill-rule:nonzero;stroke:none"/>
      </g>
      <g transform="matrix(1.25,0,0,-1.25,169.29262,173.66782)" id="g3077" style="fill:#001e5a;fill-opacity:1">
        <path d="m 0,0 c -0.138,-0.055 -0.262,-0.097 -0.373,-0.122 -0.36,-0.077 -0.616,-0.206 -0.771,-0.386 -0.154,-0.178 -0.231,-0.423 -0.231,-0.732 0,-0.264 0.051,-0.492 0.154,-0.679 0.103,-0.189 0.274,-0.283 0.513,-0.283 0.12,0 0.245,0.02 0.374,0.059 0.128,0.038 0.246,0.1 0.354,0.185 0.107,0.085 0.194,0.197 0.263,0.333 0.068,0.137 0.103,0.301 0.103,0.489 l 0,1.36 C 0.265,0.13 0.137,0.056 0,0 m -2.858,1.733 c 0,0.402 0.065,0.738 0.192,1.007 0.13,0.269 0.303,0.488 0.523,0.656 0.218,0.166 0.475,0.286 0.771,0.358 0.296,0.072 0.612,0.109 0.947,0.109 0.532,0 0.962,-0.051 1.287,-0.154 C 1.186,3.606 1.441,3.46 1.621,3.272 1.801,3.083 1.923,2.858 1.988,2.597 2.052,2.336 2.084,2.05 2.084,1.742 l 0,-3.64 c 0,-0.324 0.017,-0.577 0.045,-0.758 0.03,-0.179 0.088,-0.371 0.174,-0.577 L 0.605,-3.23 C 0.544,-3.12 0.5,-3.002 0.47,-2.878 0.44,-2.754 0.412,-2.631 0.387,-2.511 l -0.025,0 c -0.208,-0.361 -0.445,-0.596 -0.715,-0.703 -0.27,-0.109 -0.621,-0.162 -1.05,-0.162 -0.308,0 -0.569,0.053 -0.783,0.162 -0.216,0.106 -0.388,0.254 -0.514,0.443 -0.129,0.189 -0.225,0.402 -0.284,0.638 -0.06,0.235 -0.091,0.469 -0.091,0.7 0,0.326 0.036,0.607 0.104,0.843 0.069,0.237 0.173,0.438 0.315,0.605 0.142,0.167 0.321,0.306 0.539,0.418 0.219,0.112 0.483,0.209 0.793,0.295 l 1.002,0.27 c 0.265,0.07 0.45,0.164 0.552,0.285 0.104,0.119 0.156,0.295 0.156,0.526 0,0.266 -0.062,0.474 -0.188,0.625 -0.124,0.149 -0.336,0.225 -0.636,0.225 -0.275,0 -0.48,-0.082 -0.617,-0.244 C -1.194,2.252 -1.262,2.034 -1.262,1.759 l 0,-0.192 -1.596,0 0,0.166 z" id="path3079" style="fill:#001e5a;fill-opacity:1;fill-rule:nonzero;stroke:none"/>
      </g>
      <g transform="matrix(1.25,0,0,-1.25,176.85612,176.69532)" id="g3081" style="fill:#001e5a;fill-opacity:1">
        <path d="m 0,0 c -0.186,-0.342 -0.429,-0.587 -0.725,-0.735 -0.298,-0.145 -0.638,-0.219 -1.021,-0.219 -0.564,0 -0.999,0.149 -1.304,0.445 -0.304,0.295 -0.455,0.79 -0.455,1.483 l 0,5.125 1.77,0 0,-4.761 c 0,-0.36 0.06,-0.61 0.18,-0.751 0.119,-0.141 0.31,-0.212 0.575,-0.212 0.623,0 0.934,0.38 0.934,1.142 l 0,4.582 1.771,0 0,-6.907 -1.699,0 L 0.026,0 0,0 z" id="path3083" style="fill:#001e5a;fill-opacity:1;fill-rule:nonzero;stroke:none"/>
      </g>
      <path d="m 182.0315,177.7057 -2.2125,0 0,-11.4675 2.2125,0 0,11.4675 z" id="path3085" style="fill:#001e5a;fill-opacity:1;fill-rule:nonzero;stroke:none"/>
      <path d="m 43.8565,186.83695 -1.00875,0 0,-4.27125 1.00875,0 0,4.27125 z" id="path3087" style="fill:#001e5a;fill-opacity:1;fill-rule:nonzero;stroke:none"/>
      <g transform="matrix(1.25,0,0,-1.25,48.60625,182.56457)" id="g3089" style="fill:#001e5a;fill-opacity:1">
        <path d="m 0,0 1.532,-2.292 0.01,0 0,2.292 0.756,0 0,-3.417 -0.807,0 -1.527,2.288 -0.011,0 0,-2.288 -0.755,0 0,3.417 L 0,0 z" id="path3091" style="fill:#001e5a;fill-opacity:1;fill-rule:nonzero;stroke:none"/>
      </g>
      <g transform="matrix(1.25,0,0,-1.25,54.8655,183.3547)" id="g3093" style="fill:#001e5a;fill-opacity:1">
        <path d="m 0,0 0,0.632 3.008,0 0,-0.632 -1.1,0 0,-2.785 -0.808,0 L 1.1,0 0,0 z" id="path3095" style="fill:#001e5a;fill-opacity:1;fill-rule:nonzero;stroke:none"/>
      </g>
      <g transform="matrix(1.25,0,0,-1.25,65.44375,182.56457)" id="g3097" style="fill:#001e5a;fill-opacity:1">
        <path d="m 0,0 0,-0.632 -1.938,0 0,-0.732 1.779,0 0,-0.584 -1.779,0 0,-0.838 1.979,0 0,-0.631 -2.786,0 0,3.417 L 0,0 z" id="path3099" style="fill:#001e5a;fill-opacity:1;fill-rule:nonzero;stroke:none"/>
      </g>
      <g transform="matrix(1.25,0,0,-1.25,71.15075,184.49732)" id="g3101" style="fill:#001e5a;fill-opacity:1">
        <path d="m 0,0 c 0.185,0 0.324,0.039 0.416,0.115 0.093,0.077 0.139,0.201 0.139,0.374 0,0.165 -0.046,0.286 -0.139,0.36 C 0.324,0.925 0.185,0.962 0,0.962 l -0.884,0 L -0.884,0 0,0 z M 0.288,1.546 C 0.452,1.546 0.6,1.521 0.733,1.472 0.865,1.422 0.978,1.355 1.072,1.269 1.166,1.183 1.238,1.083 1.288,0.969 1.337,0.856 1.362,0.734 1.362,0.604 1.362,0.402 1.317,0.228 1.226,0.081 1.135,-0.066 0.987,-0.177 0.782,-0.253 l 0,-0.01 C 0.881,-0.289 0.963,-0.328 1.029,-0.38 1.093,-0.433 1.146,-0.495 1.188,-0.567 1.229,-0.638 1.259,-0.718 1.278,-0.804 1.296,-0.89 1.309,-0.976 1.316,-1.062 1.319,-1.117 1.323,-1.18 1.326,-1.254 1.33,-1.327 1.336,-1.402 1.344,-1.479 1.353,-1.555 1.367,-1.628 1.386,-1.697 1.404,-1.766 1.433,-1.823 1.47,-1.871 l -0.807,0 c -0.045,0.108 -0.072,0.238 -0.082,0.388 -0.01,0.15 -0.026,0.293 -0.046,0.431 -0.028,0.178 -0.086,0.308 -0.175,0.392 -0.089,0.082 -0.235,0.124 -0.437,0.124 l -0.807,0 0,-1.335 -0.807,0 0,3.417 1.979,0 z" id="path3103" style="fill:#001e5a;fill-opacity:1;fill-rule:nonzero;stroke:none"/>
      </g>
      <g transform="matrix(1.25,0,0,-1.25,77.53887,182.56457)" id="g3105" style="fill:#001e5a;fill-opacity:1">
        <path d="m 0,0 1.532,-2.292 0.01,0 0,2.292 0.756,0 0,-3.417 -0.807,0 -1.527,2.288 -0.01,0 0,-2.288 -0.756,0 0,3.417 L 0,0 z" id="path3107" style="fill:#001e5a;fill-opacity:1;fill-rule:nonzero;stroke:none"/>
      </g>
      <g transform="matrix(1.25,0,0,-1.25,86.50387,185.18532)" id="g3109" style="fill:#001e5a;fill-opacity:1">
        <path d="m 0,0 -0.463,1.254 -0.01,0 L -0.951,0 0,0 z m -0.046,2.097 1.373,-3.418 -0.839,0 -0.277,0.761 -1.373,0 -0.288,-0.761 -0.812,0 1.388,3.418 0.828,0 z" id="path3111" style="fill:#001e5a;fill-opacity:1;fill-rule:nonzero;stroke:none"/>
      </g>
      <g transform="matrix(1.25,0,0,-1.25,90.46937,183.3547)" id="g3113" style="fill:#001e5a;fill-opacity:1">
        <path d="m 0,0 0,0.632 3.008,0 0,-0.632 -1.1,0 0,-2.785 -0.808,0 L 1.1,0 0,0 z" id="path3115" style="fill:#001e5a;fill-opacity:1;fill-rule:nonzero;stroke:none"/>
      </g>
      <path d="m 98.62525,186.83695 -1.00875,0 0,-4.27125 1.00875,0 0,4.27125 z" id="path3117" style="fill:#001e5a;fill-opacity:1;fill-rule:nonzero;stroke:none"/>
      <g transform="matrix(1.25,0,0,-1.25,103.249,185.24157)" id="g3119" style="fill:#001e5a;fill-opacity:1">
        <path d="m 0,0 c 0.036,-0.136 0.093,-0.258 0.172,-0.367 0.079,-0.108 0.182,-0.195 0.309,-0.26 0.127,-0.066 0.281,-0.099 0.463,-0.099 0.181,0 0.335,0.033 0.462,0.099 0.127,0.065 0.23,0.152 0.308,0.26 0.079,0.109 0.137,0.231 0.173,0.367 0.036,0.135 0.054,0.275 0.054,0.418 0,0.15 -0.018,0.296 -0.054,0.436 C 1.851,0.994 1.793,1.119 1.714,1.23 1.636,1.34 1.533,1.428 1.406,1.493 1.279,1.558 1.125,1.591 0.944,1.591 0.762,1.591 0.608,1.558 0.481,1.493 0.354,1.428 0.251,1.34 0.172,1.23 0.093,1.119 0.036,0.994 0,0.854 -0.036,0.714 -0.054,0.568 -0.054,0.418 -0.054,0.275 -0.036,0.135 0,0 m -0.738,1.129 c 0.082,0.219 0.201,0.41 0.355,0.572 0.154,0.163 0.343,0.291 0.568,0.383 0.224,0.093 0.477,0.139 0.759,0.139 0.284,0 0.538,-0.046 0.76,-0.139 C 1.927,1.992 2.115,1.864 2.27,1.701 2.424,1.539 2.543,1.348 2.624,1.129 2.707,0.911 2.747,0.674 2.747,0.418 2.747,0.17 2.707,-0.063 2.624,-0.278 2.543,-0.493 2.424,-0.681 2.27,-0.84 2.115,-1 1.927,-1.125 1.704,-1.216 1.482,-1.307 1.228,-1.352 0.944,-1.352 c -0.282,0 -0.535,0.045 -0.759,0.136 -0.225,0.091 -0.414,0.216 -0.568,0.376 -0.154,0.159 -0.273,0.347 -0.355,0.562 -0.082,0.215 -0.123,0.448 -0.123,0.696 0,0.256 0.041,0.493 0.123,0.711" id="path3121" style="fill:#001e5a;fill-opacity:1;fill-rule:nonzero;stroke:none"/>
      </g>
      <g transform="matrix(1.25,0,0,-1.25,111.23425,182.56457)" id="g3123" style="fill:#001e5a;fill-opacity:1">
        <path d="m 0,0 1.532,-2.292 0.01,0 0,2.292 0.756,0 0,-3.417 -0.807,0 -1.527,2.288 -0.011,0 0,-2.288 -0.755,0 0,3.417 L 0,0 z" id="path3125" style="fill:#001e5a;fill-opacity:1;fill-rule:nonzero;stroke:none"/>
      </g>
      <g transform="matrix(1.25,0,0,-1.25,120.19875,185.18532)" id="g3127" style="fill:#001e5a;fill-opacity:1">
        <path d="m 0,0 -0.462,1.254 -0.01,0 L -0.951,0 0,0 z m -0.046,2.097 1.373,-3.418 -0.838,0 -0.277,0.761 -1.373,0 -0.289,-0.761 -0.812,0 1.389,3.418 0.827,0 z" id="path3129" style="fill:#001e5a;fill-opacity:1;fill-rule:nonzero;stroke:none"/>
      </g>
      <g transform="matrix(1.25,0,0,-1.25,126.12475,182.56457)" id="g3131" style="fill:#001e5a;fill-opacity:1">
        <path d="m 0,0 0,-2.786 1.789,0 0,-0.631 -2.596,0 0,3.417 L 0,0 z" id="path3133" style="fill:#001e5a;fill-opacity:1;fill-rule:nonzero;stroke:none"/>
      </g>
      <g transform="matrix(1.25,0,0,-1.25,138.77825,185.18532)" id="g3135" style="fill:#001e5a;fill-opacity:1">
        <path d="m 0,0 -0.463,1.254 -0.009,0 L -0.95,0 0,0 z m -0.046,2.097 1.373,-3.418 -0.838,0 -0.278,0.761 -1.372,0 -0.288,-0.761 -0.813,0 1.388,3.418 0.828,0 z" id="path3137" style="fill:#001e5a;fill-opacity:1;fill-rule:nonzero;stroke:none"/>
      </g>
      <path d="m 144.704,186.83695 -1.00875,0 0,-4.27125 1.00875,0 0,4.27125 z" id="path3139" style="fill:#001e5a;fill-opacity:1;fill-rule:nonzero;stroke:none"/>
      <g transform="matrix(1.25,0,0,-1.25,150.56487,184.49732)" id="g3141" style="fill:#001e5a;fill-opacity:1">
        <path d="M 0,0 C 0.185,0 0.324,0.039 0.418,0.115 0.51,0.192 0.555,0.316 0.555,0.489 0.555,0.654 0.51,0.775 0.418,0.849 0.324,0.925 0.185,0.962 0,0.962 l -0.884,0 L -0.884,0 0,0 z M 0.288,1.546 C 0.453,1.546 0.601,1.521 0.733,1.472 0.865,1.422 0.978,1.355 1.073,1.269 1.166,1.183 1.238,1.083 1.289,0.969 1.338,0.856 1.363,0.734 1.363,0.604 1.363,0.402 1.318,0.228 1.227,0.081 1.135,-0.066 0.987,-0.177 0.782,-0.253 l 0,-0.01 C 0.882,-0.289 0.963,-0.328 1.029,-0.38 1.094,-0.433 1.147,-0.495 1.188,-0.567 1.23,-0.638 1.259,-0.718 1.279,-0.804 1.297,-0.89 1.31,-0.976 1.316,-1.062 1.32,-1.117 1.324,-1.18 1.327,-1.254 1.33,-1.327 1.336,-1.402 1.345,-1.479 c 0.009,-0.076 0.022,-0.149 0.04,-0.218 0.02,-0.069 0.048,-0.126 0.086,-0.174 l -0.807,0 C 0.619,-1.763 0.592,-1.633 0.582,-1.483 0.571,-1.333 0.555,-1.19 0.535,-1.052 0.507,-0.874 0.449,-0.744 0.36,-0.66 0.272,-0.578 0.125,-0.536 -0.077,-0.536 l -0.807,0 0,-1.335 -0.807,0 0,3.417 1.979,0 z" id="path3143" style="fill:#001e5a;fill-opacity:1;fill-rule:nonzero;stroke:none"/>
      </g>
      <g transform="matrix(1.25,0,0,-1.25,157.743,184.57457)" id="g3145" style="fill:#001e5a;fill-opacity:1">
        <path d="M 0,0 C 0.093,0 0.183,0.006 0.268,0.019 0.354,0.032 0.429,0.056 0.494,0.094 0.56,0.13 0.612,0.181 0.65,0.248 0.691,0.315 0.71,0.403 0.71,0.512 0.71,0.62 0.691,0.708 0.65,0.775 0.612,0.842 0.56,0.894 0.494,0.93 0.429,0.967 0.354,0.992 0.268,1.005 0.183,1.018 0.093,1.024 0,1.024 l -0.627,0 L -0.627,0 0,0 z m 0.221,1.608 c 0.23,0 0.425,-0.032 0.587,-0.093 C 0.969,1.452 1.1,1.37 1.2,1.268 1.302,1.166 1.376,1.049 1.422,0.919 1.468,0.788 1.492,0.652 1.492,0.512 1.492,0.374 1.468,0.24 1.422,0.108 1.376,-0.025 1.302,-0.142 1.2,-0.244 1.1,-0.347 0.969,-0.428 0.808,-0.491 0.646,-0.553 0.451,-0.585 0.221,-0.585 l -0.848,0 0,-1.225 -0.807,0 0,3.418 1.655,0 z" id="path3147" style="fill:#001e5a;fill-opacity:1;fill-rule:nonzero;stroke:none"/>
      </g>
      <g transform="matrix(1.25,0,0,-1.25,163.97537,185.24157)" id="g3149" style="fill:#001e5a;fill-opacity:1">
        <path d="m 0,0 c 0.035,-0.136 0.093,-0.258 0.171,-0.367 0.079,-0.108 0.182,-0.195 0.308,-0.26 0.127,-0.066 0.282,-0.099 0.464,-0.099 0.182,0 0.336,0.033 0.463,0.099 0.126,0.065 0.229,0.152 0.307,0.26 C 1.793,-0.258 1.85,-0.136 1.886,0 1.922,0.135 1.94,0.275 1.94,0.418 1.94,0.568 1.922,0.714 1.886,0.854 1.85,0.994 1.793,1.119 1.713,1.23 1.635,1.34 1.532,1.428 1.406,1.493 1.279,1.558 1.125,1.591 0.943,1.591 0.761,1.591 0.606,1.558 0.479,1.493 0.353,1.428 0.25,1.34 0.171,1.23 0.093,1.119 0.035,0.994 0,0.854 -0.036,0.714 -0.054,0.568 -0.054,0.418 -0.054,0.275 -0.036,0.135 0,0 m -0.739,1.129 c 0.083,0.219 0.201,0.41 0.355,0.572 0.154,0.163 0.344,0.291 0.569,0.383 0.224,0.093 0.477,0.139 0.758,0.139 0.285,0 0.537,-0.046 0.76,-0.139 C 1.927,1.992 2.115,1.864 2.269,1.701 2.424,1.539 2.541,1.348 2.624,1.129 2.706,0.911 2.747,0.674 2.747,0.418 2.747,0.17 2.706,-0.063 2.624,-0.278 2.541,-0.493 2.424,-0.681 2.269,-0.84 2.115,-1 1.927,-1.125 1.703,-1.216 1.48,-1.307 1.228,-1.352 0.943,-1.352 c -0.281,0 -0.534,0.045 -0.758,0.136 -0.225,0.091 -0.415,0.216 -0.569,0.376 -0.154,0.159 -0.272,0.347 -0.355,0.562 -0.082,0.215 -0.123,0.448 -0.123,0.696 0,0.256 0.041,0.493 0.123,0.711" id="path3151" style="fill:#001e5a;fill-opacity:1;fill-rule:nonzero;stroke:none"/>
      </g>
      <g transform="matrix(1.25,0,0,-1.25,173.07162,184.49732)" id="g3153" style="fill:#001e5a;fill-opacity:1">
        <path d="m 0,0 c 0.184,0 0.324,0.039 0.417,0.115 0.092,0.077 0.138,0.201 0.138,0.374 0,0.165 -0.046,0.286 -0.138,0.36 C 0.324,0.925 0.184,0.962 0,0.962 l -0.884,0 L -0.884,0 0,0 z M 0.287,1.546 C 0.452,1.546 0.601,1.521 0.733,1.472 0.864,1.422 0.978,1.355 1.072,1.269 1.166,1.183 1.238,1.083 1.287,0.969 1.337,0.856 1.362,0.734 1.362,0.604 1.362,0.402 1.316,0.228 1.226,0.081 1.135,-0.066 0.986,-0.177 0.781,-0.253 l 0,-0.01 C 0.881,-0.289 0.962,-0.328 1.028,-0.38 1.093,-0.433 1.147,-0.495 1.187,-0.567 1.228,-0.638 1.259,-0.718 1.278,-0.804 1.295,-0.89 1.309,-0.976 1.316,-1.062 1.32,-1.117 1.323,-1.18 1.327,-1.254 1.33,-1.327 1.335,-1.402 1.344,-1.479 1.353,-1.555 1.366,-1.628 1.385,-1.697 1.405,-1.766 1.433,-1.823 1.47,-1.871 l -0.807,0 C 0.619,-1.763 0.591,-1.633 0.58,-1.483 0.57,-1.333 0.555,-1.19 0.534,-1.052 0.508,-0.874 0.449,-0.744 0.359,-0.66 0.271,-0.578 0.124,-0.536 -0.077,-0.536 l -0.807,0 0,-1.335 -0.808,0 0,3.417 1.979,0 z" id="path3155" style="fill:#001e5a;fill-opacity:1;fill-rule:nonzero;stroke:none"/>
      </g>
      <g transform="matrix(1.25,0,0,-1.25,177.98088,183.3547)" id="g3157" style="fill:#001e5a;fill-opacity:1">
        <path d="m 0,0 0,0.632 3.008,0 0,-0.632 -1.099,0 0,-2.785 -0.808,0 L 1.101,0 0,0 z" id="path3159" style="fill:#001e5a;fill-opacity:1;fill-rule:nonzero;stroke:none"/>
      </g>
      <g transform="matrix(1.25,0,0,-1.25,116.45212,174.50282)" id="g3169" style="fill:#001e5a;fill-opacity:1">
        <path d="m 0,0 c 0,0 2.683,1.943 2.579,5.384 0,0 0.51,-3.913 2.272,-5.144 C 4.851,0.24 2.119,1.516 0,0" id="path3171" style="fill:#001e5a;fill-opacity:1;fill-rule:nonzero;stroke:none"/>
      </g>
      <g transform="matrix(1.25,0,0,-1.25,92.19475,244.48932)" id="g3173" style="fill:#001e5a;fill-opacity:1">
        <path d="M 0,0 C 0,0 46.273,-34.327 83.966,16.245 83.966,16.245 51.953,-22.544 0,0" id="path3175" style="fill:#001e5a;fill-opacity:1;fill-rule:nonzero;stroke:none"/>
      </g>
    </g>
  </g>
</svg>