<svg fill="none" height="665" stroke-linecap="square" stroke-miterlimit="10" viewBox="0 0 1076 665" width="1076" xmlns="http://www.w3.org/2000/svg" xmlns:xlink="http://www.w3.org/1999/xlink"><clipPath id="a"><path d="m141.25 156.58333h901.5v417.77434h-901.5z"/></clipPath><path d="m0 0h1076v665h-1076z" fill="#000"/><path d="m154.5 156.5v418" stroke="#999" stroke-linecap="butt"/><path d="m252.5 156.5v418" stroke="#999" stroke-linecap="butt"/><path d="m350.5 156.5v418" stroke="#999" stroke-linecap="butt"/><path d="m448.5 156.5v418" stroke="#999" stroke-linecap="butt"/><path d="m547.5 156.5v418" stroke="#999" stroke-linecap="butt"/><path d="m645.5 156.5v418" stroke="#999" stroke-linecap="butt"/><path d="m743.5 156.5v418" stroke="#999" stroke-linecap="butt"/><path d="m841.5 156.5v418" stroke="#999" stroke-linecap="butt"/><path d="m939.5 156.5v418" stroke="#999" stroke-linecap="butt"/><path d="m1037.5 156.5v418" stroke="#999" stroke-linecap="butt"/><path d="m141.5 574.5h901" stroke="#ccc" stroke-linecap="butt"/><path d="m141.5 435.5h901" stroke="#999" stroke-linecap="butt"/><path d="m141.5 295.5h901" stroke="#999" stroke-linecap="butt"/><path d="m141.5 156.5h901" stroke="#999" stroke-linecap="butt"/><path clip-path="url(#a)" d="m154.82826 504.72864s5.54968-3.87448 8.32453-5.57031c2.77484-1.69587 26.8533-11.37781 40.27995-22.28133 13.42665-10.9035 33.20859-41.45702 49.41008-52.91808 16.20148-11.46102 32.40298-9.35955 48.60448-16.71096 16.20147-7.35141 33.20858-21.8928 49.41006-27.85163s32.40299-1.94003 48.60446-8.3555c16.20151-6.41546 32.94008-25.12967 49.4101-30.63678 16.47-5.50711 43.50235-.13075 57.19751-2.78515 13.69522-2.65442 31.59737-9.99686 41.08554-13.92582 9.48813-3.92895 21.75123-12.28363 28.46453-13.92581 6.7133-1.64221 13.42664.75683 20.13996 0 6.71334-.75683 33.20854-6.99319 49.4101-11.14065 16.20147-4.14746 32.40294-9.77835 48.60444-13.92582 16.2015-4.14746 33.2086-3.27963 49.4101-11.14065 16.20146-7.86102 32.40294-30.17259 48.6045-36.20711 16.20145-6.03451 32.94-.40098 49.41 0 16.47004.401 43.5024 7.09366 57.1976 2.78516s27.3903-22.53966 41.0855-27.85162 46.00866-2.71509 56.929-5.57032c10.92035-2.85524 32.7611-13.92581 32.7611-13.92581" stroke="#6d9eeb" stroke-linecap="butt" stroke-width="4"/><path clip-path="url(#a)" d="m743.1841 524.2248s32.40294-25.07404 48.6045-30.63682c16.20145-5.56274 32.94-3.12295 49.41-2.78515 16.47004.33779 43.5024 5.36764 57.1976 5.57031 13.6952.2027 27.3903-3.66098 41.0855-2.78516 13.6952.87586 46.00866 11.46472 56.929 11.14066 10.92035-.32407 32.7611-8.3555 32.7611-8.3555" stroke="#ff0" stroke-linecap="butt" stroke-width="4"/><path clip-path="url(#a)" d="m743.1841 538.1506s32.40294-.4566 48.6045 0c16.20145.45664 32.94 2.32096 49.41 2.7851 16.47004.46426 43.5024-.46414 57.1976 0 13.6952.46426 27.3903 2.321 41.0855 2.7852s46.00866.4642 56.929 0c10.92035-.4642 32.7611-2.7852 32.7611-2.7852" stroke="#f90" stroke-linecap="butt" stroke-width="4"/><path clip-path="url(#a)" d="m743.1841 563.21704s32.40294-2.32098 48.6045-2.78514c16.20145-.4642 32.94-.802 49.41 0 16.47004.802 43.5024 5.83183 57.1976 5.5703 13.6952-.26154 27.3903-4.6419 41.0855-5.5703s46.00866.46416 56.929 0c10.92035-.4642 32.7611-2.7852 32.7611-2.7852" stroke="#109618" stroke-linecap="butt" stroke-width="4"/><path clip-path="url(#a)" d="m743.1841 563.21704s32.40294-4.64191 48.6045-5.57034c16.20145-.9284 32.94-.802 49.41 0 16.47004.802 43.5024 4.9035 57.1976 5.57034 13.6952.66686 27.3903 0 41.0855 0s46.00866.92841 56.929 0c10.92035-.9284 32.7611-5.57034 32.7611-5.57034" stroke="#909" stroke-linecap="butt" stroke-width="4"/><g fill="#6d9eeb"><path clip-path="url(#a)" d="m162.82826 504.72864c0 4.41826-3.58171 8-8 8-4.41827 0-8-3.58174-8-8 0-4.41828 3.58173-8 8-8 4.41829 0 8 3.58172 8 8z"/><path clip-path="url(#a)" d="m171.15279 499.15833c0 4.41827-3.58171 8-8 8-4.41828 0-8-3.58173-8-8 0-4.41831 3.58172-8 8-8 4.41829 0 8 3.58169 8 8z"/><path clip-path="url(#a)" d="m211.43274 476.877c0 4.4183-3.58173 8-8 8s-8-3.5817-8-8c0-4.41826 3.58173-8 8-8s8 3.58174 8 8z"/><path clip-path="url(#a)" d="m260.8428 423.95892c0 4.41828-3.58172 8-7.99998 8-4.41829 0-8-3.58172-8-8 0-4.41827 3.58171-8 8-8 4.41826 0 7.99998 3.58173 7.99998 8z"/><path clip-path="url(#a)" d="m309.4473 407.24796c0 4.41827-3.58173 8-8 8-4.41828 0-8-3.58173-8-8 0-4.41828 3.58172-8 8-8 4.41827 0 8 3.58172 8 8z"/><path clip-path="url(#a)" d="m358.85736 379.39633c0 4.41827-3.58173 8-8 8-4.41826 0-8-3.58173-8-8s3.58174-8 8-8c4.41827 0 8 3.58173 8 8z"/><path clip-path="url(#a)" d="m407.46182 371.04083c0 4.41827-3.58169 8-8 8-4.41827 0-8-3.58173-8-8s3.58173-8 8-8c4.41831 0 8 3.58173 8 8z"/><path clip-path="url(#a)" d="m456.87192 340.40405c0 4.41828-3.58172 8-8 8s-8-3.58172-8-8c0-4.41827 3.58172-8 8-8s8 3.58173 8 8z"/><path clip-path="url(#a)" d="m514.06946 337.6189c0 4.41827-3.58176 8-8.00003 8-4.41828 0-8-3.58173-8-8 0-4.41828 3.58172-8 8-8 4.41827 0 8.00003 3.58172 8.00003 8z"/><path clip-path="url(#a)" d="m555.15497 323.69308c0 4.41828-3.58173 8-8 8s-8-3.58172-8-8 3.58173-8 8-8 8 3.58172 8 8z"/><path clip-path="url(#a)" d="m583.6195 309.76727c0 4.41828-3.5817 8-8 8-4.41827 0-8-3.58172-8-8 0-4.41827 3.58173-8 8-8 4.4183 0 8 3.58173 8 8z"/><path clip-path="url(#a)" d="m603.75946 309.76727c0 4.41828-3.58173 8-8 8-4.41826 0-8-3.58172-8-8 0-4.41827 3.58174-8 8-8 4.41827 0 8 3.58173 8 8z"/><path clip-path="url(#a)" d="m653.16956 298.62662c0 4.41828-3.58176 8-8 8-4.41826 0-8-3.58172-8-8s3.58174-8 8-8c4.41824 0 8 3.58172 8 8z"/><path clip-path="url(#a)" d="m701.774 284.7008c0 4.41828-3.58174 8-8 8-4.4183 0-8-3.58172-8-8 0-4.41827 3.5817-8 8-8 4.41826 0 8 3.58173 8 8z"/><path clip-path="url(#a)" d="m751.1841 273.56015c0 4.41827-3.58174 8-8 8-4.4183 0-8-3.58173-8-8s3.5817-8 8-8c4.41826 0 8 3.58173 8 8z"/><path clip-path="url(#a)" d="m799.7886 237.35304c0 4.41828-3.58175 8-8 8-4.4183 0-8-3.58172-8-8 0-4.41827 3.5817-8 8-8 4.41825 0 8 3.58173 8 8z"/><path clip-path="url(#a)" d="m849.1986 237.35304c0 4.41828-3.5817 8-8 8-4.41827 0-8-3.58172-8-8 0-4.41827 3.58173-8 8-8 4.4183 0 8 3.58173 8 8z"/><path clip-path="url(#a)" d="m906.3962 240.1382c0 4.41829-3.58175 8-8 8-4.4183 0-8-3.58171-8-8 0-4.41828 3.5817-8 8-8 4.41825 0 8 3.58172 8 8z"/><path clip-path="url(#a)" d="m947.4817 212.28658c0 4.41828-3.58174 8-8 8-4.4183 0-8-3.58172-8-8s3.5817-8 8-8c4.41826 0 8 3.58172 8 8z"/><path clip-path="url(#a)" d="m1004.4107 206.71626c0 4.41828-3.5817 8-8 8-4.41827 0-8-3.58172-8-8 0-4.41829 3.58173-8 8-8 4.4183 0 8 3.58171 8 8z"/><path clip-path="url(#a)" d="m1037.1718 192.79045c0 4.41827-3.5818 8-8 8-4.4184 0-8.00005-3.58173-8.00005-8 0-4.41829 3.58165-8 8.00005-8 4.4182 0 8 3.58171 8 8z"/></g><path clip-path="url(#a)" d="m747.6841 524.2248c0 2.4853-2.0147 4.5-4.5 4.5s-4.5-2.0147-4.5-4.5 2.0147-4.5 4.5-4.5 4.5 2.0147 4.5 4.5z" fill="#ff0"/><path clip-path="url(#a)" d="m796.2886 493.58798c0 2.48529-2.01474 4.5-4.5 4.5-2.4853 0-4.5-2.01471-4.5-4.5 0-2.48528 2.0147-4.5 4.5-4.5 2.48526 0 4.5 2.01472 4.5 4.5z" fill="#ff0"/><path clip-path="url(#a)" d="m845.6986 490.80283c0 2.48529-2.0147 4.5-4.5 4.5s-4.5-2.01471-4.5-4.5 2.0147-4.5 4.5-4.5 4.5 2.01471 4.5 4.5z" fill="#ff0"/><path clip-path="url(#a)" d="m902.8962 496.37314c0 2.48529-2.0147 4.5-4.5 4.5s-4.5-2.01471-4.5-4.5c0-2.48526 2.0147-4.5 4.5-4.5s4.5 2.01474 4.5 4.5z" fill="#ff0"/><path clip-path="url(#a)" d="m943.9817 493.58798c0 2.48529-2.0147 4.5-4.5 4.5s-4.5-2.01471-4.5-4.5c0-2.48528 2.0147-4.5 4.5-4.5s4.5 2.01472 4.5 4.5z" fill="#ff0"/><path clip-path="url(#a)" d="m1000.9107 504.72864c0 2.48529-2.0147 4.5-4.5 4.5s-4.5-2.01471-4.5-4.5 2.0147-4.5 4.5-4.5 4.5 2.01471 4.5 4.5z" fill="#ff0"/><path clip-path="url(#a)" d="m1033.6718 496.37314c0 2.48529-2.0148 4.5-4.5 4.5-2.4854 0-4.5-2.01471-4.5-4.5 0-2.48526 2.0146-4.5 4.5-4.5 2.4852 0 4.5 2.01474 4.5 4.5z" fill="#ff0"/><path clip-path="url(#a)" d="m747.6841 538.1506c0 2.48526-2.0147 4.5-4.5 4.5s-4.5-2.01474-4.5-4.5c0-2.4853 2.0147-4.5 4.5-4.5s4.5 2.0147 4.5 4.5z" fill="#f90"/><path clip-path="url(#a)" d="m796.2886 538.1506c0 2.48526-2.01474 4.5-4.5 4.5-2.4853 0-4.5-2.01474-4.5-4.5 0-2.4853 2.0147-4.5 4.5-4.5 2.48526 0 4.5 2.0147 4.5 4.5z" fill="#f90"/><path clip-path="url(#a)" d="m845.6986 540.9357c0 2.4853-2.0147 4.5-4.5 4.5s-4.5-2.0147-4.5-4.5c0-2.48526 2.0147-4.5 4.5-4.5s4.5 2.01474 4.5 4.5z" fill="#f90"/><path clip-path="url(#a)" d="m902.8962 540.9357c0 2.4853-2.0147 4.5-4.5 4.5s-4.5-2.0147-4.5-4.5c0-2.48526 2.0147-4.5 4.5-4.5s4.5 2.01474 4.5 4.5z" fill="#f90"/><path clip-path="url(#a)" d="m943.9817 543.7209c0 2.4853-2.0147 4.5-4.5 4.5s-4.5-2.0147-4.5-4.5c0-2.48524 2.0147-4.5 4.5-4.5s4.5 2.01476 4.5 4.5z" fill="#f90"/><path clip-path="url(#a)" d="m1000.9107 543.7209c0 2.4853-2.0147 4.5-4.5 4.5s-4.5-2.0147-4.5-4.5c0-2.48524 2.0147-4.5 4.5-4.5s4.5 2.01476 4.5 4.5z" fill="#f90"/><path clip-path="url(#a)" d="m1033.6718 540.9357c0 2.4853-2.0148 4.5-4.5 4.5-2.4854 0-4.5-2.0147-4.5-4.5 0-2.48526 2.0146-4.5 4.5-4.5 2.4852 0 4.5 2.01474 4.5 4.5z" fill="#f90"/><path clip-path="url(#a)" d="m750.1841 563.21704c0 3.86603-3.13405 7-7 7-3.866 0-7-3.13397-7-7 0-3.86594 3.134-7 7-7 3.86595 0 7 3.13406 7 7z" fill="#109618"/><path clip-path="url(#a)" d="m798.7886 560.4319c0 3.86595-3.13406 7-7 7-3.86605 0-7-3.13405-7-7 0-3.866 3.13395-7 7-7 3.86594 0 7 3.134 7 7z" fill="#109618"/><path clip-path="url(#a)" d="m848.1986 560.4319c0 3.86595-3.13396 7-7 7-3.86596 0-7-3.13405-7-7 0-3.866 3.13404-7 7-7 3.86604 0 7 3.134 7 7z" fill="#109618"/><path clip-path="url(#a)" d="m905.3962 566.0022c0 3.866-3.13405 7-7 7-3.86605 0-7-3.134-7-7s3.13395-7 7-7c3.86595 0 7 3.134 7 7z" fill="#109618"/><path clip-path="url(#a)" d="m946.4817 560.4319c0 3.86595-3.134 7-7 7s-7-3.13405-7-7c0-3.866 3.134-7 7-7s7 3.134 7 7z" fill="#109618"/><path clip-path="url(#a)" d="m1003.4107 560.4319c0 3.86595-3.134 7-7 7-3.86596 0-7-3.13405-7-7 0-3.866 3.13404-7 7-7 3.866 0 7 3.134 7 7z" fill="#109618"/><path clip-path="url(#a)" d="m1036.1718 557.6467c0 3.866-3.1341 7-7 7-3.866 0-7.00005-3.134-7.00005-7s3.13405-7 7.00005-7c3.8659 0 7 3.134 7 7z" fill="#109618"/><path clip-path="url(#a)" d="m747.6841 563.21704c0 2.48529-2.0147 4.5-4.5 4.5s-4.5-2.01471-4.5-4.5 2.0147-4.5 4.5-4.5 4.5 2.01471 4.5 4.5z" fill="#909"/><path clip-path="url(#a)" d="m796.2886 557.6467c0 2.4853-2.01474 4.5-4.5 4.5-2.4853 0-4.5-2.0147-4.5-4.5 0-2.48526 2.0147-4.5 4.5-4.5 2.48526 0 4.5 2.01474 4.5 4.5z" fill="#909"/><path clip-path="url(#a)" d="m845.6986 557.6467c0 2.4853-2.0147 4.5-4.5 4.5s-4.5-2.0147-4.5-4.5c0-2.48526 2.0147-4.5 4.5-4.5s4.5 2.01474 4.5 4.5z" fill="#909"/><path clip-path="url(#a)" d="m902.8962 563.21704c0 2.48529-2.0147 4.5-4.5 4.5s-4.5-2.01471-4.5-4.5 2.0147-4.5 4.5-4.5 4.5 2.01471 4.5 4.5z" fill="#909"/><path clip-path="url(#a)" d="m943.9817 563.21704c0 2.48529-2.0147 4.5-4.5 4.5s-4.5-2.01471-4.5-4.5 2.0147-4.5 4.5-4.5 4.5 2.01471 4.5 4.5z" fill="#909"/><path clip-path="url(#a)" d="m1000.9107 563.21704c0 2.48529-2.0147 4.5-4.5 4.5s-4.5-2.01471-4.5-4.5 2.0147-4.5 4.5-4.5 4.5 2.01471 4.5 4.5z" fill="#909"/><path clip-path="url(#a)" d="m1033.6718 557.6467c0 2.4853-2.0148 4.5-4.5 4.5-2.4854 0-4.5-2.0147-4.5-4.5 0-2.48526 2.0146-4.5 4.5-4.5 2.4852 0 4.5 2.01474 4.5 4.5z" fill="#909"/><path d="m51.4375 442.19794v3.09376l4.8125.9375v1.67186l-4.8125-.9375v2.8125h-1.59375v-3.10936l-4.15625-.8125v3.03124h-1.625v-3.34374l-4.875-.96876v-1.67188l4.875.96874v-3.09374l-4.875-.96876v-1.6875l4.875.96876v-2.39062h1.625v2.70312l4.15625.8125v-2.64062h1.59375v2.9375l4.8125.9375v1.6875zm-1.59375 2.79686v-3.09374l-4.15625-.8125v3.09374zm-.28125-19.0625h6.6875v2.25h-17.0625v-6.29686q0-2.79688 1.4375-4.375 1.421875-1.59374 3.78125-1.59374 2.484375 0 3.828125 1.5625 1.328125 1.54686 1.328125 4.4375zm-1.828125 0v-4.04686q0-1.79688-.84375-2.75-.859375-.96874-2.46875-.96874-1.515625 0-2.421875.96874-.921875.95312-.96875 2.625v4.17186zm8.515625-14.7656v2.17186h-18v-2.17186zm0-11.46876q-.375.1875-1.34375.29686 1.578125 1.51564 1.578125 3.6094 0 1.875-1.0625 3.0781-1.0625 1.20314-2.6875 1.20314-1.984375 0-3.078125-1.5-1.09375-1.51564-1.09375-4.23438v-2.10936h-1q-1.140625 0-1.8125.6875-.671875.67186-.671875 1.98436 0 1.17188.59375 1.95314.578125.78124 1.40625.78124v2.1875q-.9375 0-1.828125-.67188-.890625-.6875-1.40625-1.82812-.515625-1.15624-.515625-2.54688 0-2.1875 1.109375-3.42186 1.09375-1.25 3.015625-1.2969h5.828125q1.75 0 2.78125-.4531h.1875zm-1.65625 3.59376q0-1.01564-.515625-1.9219-.53125-.92186-1.375-1.3281h-2.609375v1.6875q0 3.98436 2.328125 3.98436 1.03125 0 1.609375-.67186.5625-.6875.5625-1.75zm-14.09375-11.70314h3.0625v-2.375h1.6875v2.375h7.859375q.765625 0 1.140625-.3125.375-.32812.375-1.09376 0-.375-.140625-1.03124h1.765625q.234375.85938.234375 1.67188 0 1.45312-.875 2.1875-.890625.73436-2.5.73436h-7.859375v2.3125h-1.6875v-2.3125h-3.0625zm15.75-6.125h-11v2h-1.6875v-2h-1.296875q-2.03125 0-3.140625-1.09376-1.125-1.09374-1.125-3.0781 0-.75.203125-1.5l1.75.125q-.09375.54686-.09375 1.17186 0 1.04688.609375 1.625.609375.57814 1.765625.57814h1.328125v-2.70314h1.6875v2.70314h11zm-6.453125-6.35936q-1.875 0-3.359375-.7344-1.484375-.73436-2.296875-2.03124-.8125-1.3125-.8125-3 0-2.57812 1.796875-4.17186 1.796875-1.6094 4.765625-1.6094h.15625q1.859375 0 3.328125.71876 1.46875.70314 2.296875 2.01564.8125 1.3125.8125 3.03124 0 2.57812-1.796875 4.1875-1.796875 1.59376-4.75 1.59376zm.25-2.1875q2.109375 0 3.390625-.96876 1.28125-.98438 1.28125-2.625 0-1.65624-1.296875-2.625-1.296875-.96874-3.625-.96874-2.09375 0-3.390625.98436-1.296875.98438-1.296875 2.625 0 1.60938 1.28125 2.59374 1.28125.9844 3.65625.9844zm-4.53125-18.51564q-.078125.48438-.078125 1.0625 0 2.125 1.8125 2.89064h9v2.17186h-12.6875v-2.10936l1.46875-.03126q-1.703125-1.07814-1.703125-3.03124 0-.625.171875-.95314zm-1.953125-3.92186 1.40625-.0469q-1.640625-1.40624-1.640625-3.7656 0-2.65626 2.046875-3.625-.921875-.625-1.484375-1.64064-.5625-1.01562-.5625-2.40626 0-4.17186 4.421875-4.23436h8.5v2.17186h-8.375q-1.359375 0-2.03125.625-.671875.6094-.671875 2.07814 0 1.20312.71875 2 .71875.79686 1.9375.92186h8.421875v2.1875h-8.3125q-2.765625 0-2.765625 2.70314 0 2.14062 1.8125 2.92186h9.265625v2.1719h-12.6875zm9.328125-26.34376q-.890625 0-1.375.67186-.484375.65626-.828125 2.3125-.359375 1.64064-.84375 2.6094-.5.96874-1.171875 1.4375-.6875.4531-1.625.4531-1.5625 0-2.640625-1.3125-1.078125-1.3281-1.078125-3.375 0-2.15624 1.125-3.5 1.109375-1.34374 2.84375-1.34374v2.1875q-.890625 0-1.53125.75-.65625.75-.65625 1.90624 0 1.1875.515625 1.8594.515625.65624 1.359375.65624.78125 0 1.1875-.60938.390625-.625.75-2.25.359375-1.625.875-2.625.5-1.01562 1.21875-1.5.703125-.48436 1.71875-.48436 1.703125 0 2.734375 1.35936 1.015625 1.35938 1.015625 3.51564 0 1.53124-.53125 2.7031-.546875 1.1719-1.515625 1.84376-.96875.65624-2.09375.65624v-2.17186q1.09375-.0625 1.734375-.875.640625-.8125.640625-2.15624 0-1.21876-.5-1.96876-.5-.75-1.328125-.75z" fill="#d9d9d9"/><path d="m130.34375 575.29517q0 3.17187-1.07813 4.71873-1.07812 1.5469-3.39062 1.5469-2.28125 0-3.375-1.51563-1.09375-1.51563-1.125-4.51563v-2.40624q0-3.14063 1.078125-4.65626 1.09375-1.53124 3.40625-1.53124 2.296875 0 3.375005 1.48437 1.07812 1.46873 1.10937 4.53123zm-1.79687-2.46877q0-2.29686-.656255-3.34373-.640625-1.0625-2.03125-1.0625-1.390625 0-2.03125 1.04687-.625 1.04686-.640625 3.21876v2.8906q0 2.2969.65625 3.40627.671875 1.09373 2.03125 1.09373 1.34375 0 1.984375-1.03123.656245-1.03127.687505-3.26563z" fill="#d9d9d9"/><path d="m111.265625 434.97458.71875-7.09375h7.28125v1.67187h-5.75l-.421875 3.875q1.046875-.60937 2.375-.60937 1.9375 0 3.078125 1.28125 1.140625 1.28125 1.140625 3.46875 0 2.20312-1.1875 3.46875-1.1875 1.26562-3.3125 1.26562-1.890625 0-3.078125-1.04687-1.1875-1.04688-1.359375-2.89063h1.71875q.15625 1.21875.859375 1.84375.703125.60938 1.859375.60938 1.265625 0 1.984375-.85938.71875-.85937.71875-2.375 0-1.42187-.78125-2.28125-.78125-.875-2.0625-.875-1.1875 0-1.859375.51563l-.484375.39062zm19.078125 1.0625q0 3.17187-1.07813 4.71875-1.07812 1.54687-3.39062 1.54687-2.28125 0-3.375-1.51562-1.09375-1.51563-1.125-4.51563v-2.40625q0-3.14062 1.078125-4.65625 1.09375-1.53125 3.40625-1.53125 2.296875 0 3.375005 1.48438 1.07812 1.46875 1.10937 4.53125zm-1.79687-2.46875q0-2.29688-.656255-3.34375-.640625-1.0625-2.03125-1.0625-1.390625 0-2.03125 1.04687-.625 1.04688-.640625 3.21875v2.89063q0 2.29687.65625 3.40625.671875 1.09375 2.03125 1.09375 1.34375 0 1.984375-1.03125.656245-1.03125.687505-3.26563z" fill="#d9d9d9"/><path d="m105.375 302.84146h-1.828125v-12.04686l-3.640625 1.34374v-1.64064l5.1875-1.9375h.28125zm13.96875-6.0625q0 3.17188-1.078125 4.71874-1.078125 1.5469-3.390625 1.5469-2.28125 0-3.375-1.51564-1.09375-1.51562-1.125-4.51562v-2.40624q0-3.14064 1.078125-4.65626 1.09375-1.53124 3.40625-1.53124 2.296875 0 3.375 1.48436 1.078125 1.46874 1.109375 4.53124zm-1.796875-2.46876q0-2.29686-.65625-3.34374-.640625-1.0625-2.03125-1.0625-1.390625 0-2.03125 1.04688-.625 1.04686-.640625 3.21876v2.8906q0 2.2969.65625 3.40626.671875 1.09374 2.03125 1.09374 1.34375 0 1.984375-1.03124.65625-1.03126.6875-3.26562zm12.796875 2.46876q0 3.17188-1.07813 4.71874-1.07812 1.5469-3.39062 1.5469-2.28125 0-3.375-1.51564-1.09375-1.51562-1.125-4.51562v-2.40624q0-3.14064 1.078125-4.65626 1.09375-1.53124 3.40625-1.53124 2.296875 0 3.375005 1.48436 1.07812 1.46874 1.10937 4.53124zm-1.79687-2.46876q0-2.29686-.656255-3.34374-.640625-1.0625-2.03125-1.0625-1.390625 0-2.03125 1.04688-.625 1.04686-.640625 3.21876v2.8906q0 2.2969.65625 3.40626.671875 1.09374 2.03125 1.09374 1.34375 0 1.984375-1.03124.656245-1.03126.687505-3.26562z" fill="#d9d9d9"/><path d="m105.375 163.58333h-1.828125v-12.04688l-3.640625 1.34375v-1.64062l5.1875-1.9375h.28125zm5.890625-7.125.71875-7.09375h7.28125v1.67187h-5.75l-.421875 3.875q1.046875-.60937 2.375-.60937 1.9375 0 3.078125 1.28125 1.140625 1.28125 1.140625 3.46875 0 2.20312-1.1875 3.46875-1.1875 1.26562-3.3125 1.26562-1.890625 0-3.078125-1.04687-1.1875-1.04688-1.359375-2.89063h1.71875q.15625 1.21875.859375 1.84375.703125.60938 1.859375.60938 1.265625 0 1.984375-.85938.71875-.85937.71875-2.375 0-1.42187-.78125-2.28125-.78125-.875-2.0625-.875-1.1875 0-1.859375.51563l-.484375.39062zm19.078125 1.0625q0 3.17187-1.07813 4.71875-1.07812 1.54687-3.39062 1.54687-2.28125 0-3.375-1.51562-1.09375-1.51563-1.125-4.51563v-2.40625q0-3.14062 1.078125-4.65625 1.09375-1.53125 3.40625-1.53125 2.296875 0 3.375005 1.48438 1.07812 1.46875 1.10937 4.53125zm-1.79687-2.46875q0-2.29688-.656255-3.34375-.640625-1.0625-2.03125-1.0625-1.390625 0-2.03125 1.04687-.625 1.04688-.640625 3.21875v2.89063q0 2.29687.65625 3.40625.671875 1.09375 2.03125 1.09375 1.34375 0 1.984375-1.03125.656245-1.03125.687505-3.26563z" fill="#d9d9d9"/><path d="m113.72797 632.5622-8.06486 4.65624-.64844-1.1231 1.52809-7.19704q.322215-1.6294.29123-2.4956-.025274-.8875-.43934-1.60467-.554684-.96073-1.495915-1.24723-.941235-.2866-1.91552.2759-1.177255.6797-1.436145 1.73134-.25317 1.03022.42652 2.20746l-1.569675.90625q-.984375-1.70495-.489875-3.37975.48669-1.68824 2.32699-2.75074 1.71852-.99216 3.229765-.65586 1.52478.32847 2.384155 1.81693 1.05469 1.82677.18609 5.66607l-1.23141 5.49213 6.18396-3.57033zm6.143215-10.5472q1.585935 2.74696 1.42569 4.6257-.160245 1.87865-2.162935 3.0349-1.975615 1.1406-3.68065.37494-1.70503-.76569-3.23209-3.34814l-1.203126-2.0839q-1.570314-2.7198-1.39444-4.5715.181596-1.8729 2.184281-3.0292 1.989151-1.1484 3.665025-.402 1.66805.7329 3.22637 3.3695zm-2.790519-1.23955q-1.148436-1.98915-2.240206-2.56765-1.08604-.5998-2.29036.0955-1.20432.6953-1.23568 1.9222-.01783 1.21914 1.05458 3.1079l1.445316 2.50333q1.148434 1.98914 2.271454 2.62177 1.12873.61126 2.305984-.0684 1.163726-.6719 1.202896-1.8853.052704-1.2212-1.03742-3.17185zm12.777034 2.47425-1.58321.91406-6.02343-10.43293-2.481 2.98407-.820315-1.42083 3.523755-4.27167.24357-.1406zm2.66539-10.7584 1.17724-.6797q1.09398-.6677 1.39612-1.58186.30786-.93554-.25464-1.90979-1.25-2.1651-3.40153-.92292-1.01488.58597-1.28786 1.51941-.25946.9256.29523 1.88636l-1.56967.90625q-.84375-1.46145-.33725-3.05295.5065-1.5914 2.15736-2.5445 1.74559-1.00784 3.27246-.6445 1.51906.34986 2.46437 1.9872.46094.7983.3707 1.8608-.07671 1.05465-.75885 1.93563 1.20238-.26117 2.18686.16272.98448.42395 1.60167 1.49298.96093 1.66437.4409 3.26367-.52002 1.59925-2.26561 2.60706-1.73206 1-3.35364.69134-1.62941-.32226-2.52003-1.86486l1.56967-.90624q.5625.9743 1.53442 1.18895.97193.21465 2.04093-.40255 1.12312-.6484 1.38258-1.574.26517-.947-.37546-2.0565-.625-1.0826-1.61616-1.2681-.98546-.20684-2.23819.49836l-1.17725.67968zm12.32812 3.5092-1.35316.78124-2.57672-16.33804 1.33963-.7734zm10.52701-14.4855q1.58594 2.74696 1.42569 4.6257-.16025 1.87865-2.16292 3.0349-1.97563 1.1406-3.68065.37494-1.70503-.76569-3.2321-3.34814l-1.20312-2.0839q-1.57032-2.7198-1.39444-4.5715.18159-1.8729 2.18428-3.0292 1.98915-1.1484 3.66502-.402 1.66806.7329 3.22636 3.3695zm-2.79052-1.23955q-1.14843-1.98915-2.2402-2.56765-1.08604-.5998-2.29036.0955-1.20431.6953-1.23568 1.9222-.01783 1.21914 1.05458 3.1079l1.44531 2.50333q1.14844 1.98914 2.27145 2.62177 1.12874.61126 2.306-.0684 1.16372-.6719 1.20288-1.8853.05271-1.2212-1.03741-3.17185zm12.77705 2.47425-1.58321.91406-6.02344-10.43293-2.481 2.98407-.82031-1.42083 3.52376-4.27167.24357-.1406z" fill="#d9d9d9"/><path d="m211.74252 632.5622-8.06486 4.65624-.64844-1.1231 1.52809-7.19704q.32222-1.6294.29123-2.4956-.02527-.8875-.43933-1.60467-.55469-.96073-1.49593-1.24723-.94123-.2866-1.91551.2759-1.17726.6797-1.43616 1.73134-.25317 1.03022.42652 2.20746l-1.56967.90625q-.98438-1.70495-.48987-3.37975.48668-1.68824 2.32699-2.75074 1.71852-.99216 3.22977-.65586 1.52478.32847 2.38415 1.81693 1.0547 1.82677.18609 5.66607l-1.23142 5.49213 6.18398-3.57033zm6.14321-10.5472q1.58593 2.74696 1.42569 4.6257-.16025 1.87865-2.16294 3.0349-1.97561 1.1406-3.68065.37494-1.70503-.76569-3.23208-3.34814l-1.20313-2.0839q-1.57031-2.7198-1.39444-4.5715.18158-1.8729 2.18427-3.0292 1.98915-1.1484 3.66502-.402 1.66806.7329 3.22638 3.3695zm-2.79052-1.23955q-1.14843-1.98915-2.2402-2.56765-1.08606-.5998-2.29037.0955-1.20432.6953-1.23568 1.9222-.01782 1.2192 1.05458 3.1079l1.44532 2.50333q1.14844 1.98914 2.27145 2.62177 1.12874.61126 2.30599-.0684 1.16372-.6719 1.20289-1.8853.05271-1.2212-1.03741-3.17185zm12.77703 2.47425-1.58321.91406-6.02343-10.43293-2.481 2.98407-.8203-1.42083 3.52375-4.27167.24356-.1406zm8.59707-10.48444 1.70498-.98436.74218 1.2855-1.70497.9844 1.64844 2.85514-1.56967.90626-1.64844-2.85517-5.61563 3.24217-.53125-.92015.59122-11.72595 1.66439-.96094zm-5.41265 3.125 3.84298-2.21876-3.48437-6.0351.00587.44765zm11.80908.11024-1.35317.78124-2.57672-16.33804 1.33963-.7734zm10.52701-14.4854q1.58593 2.74686 1.4257 4.6256-.16025 1.87865-2.16293 3.0349-1.97563 1.1406-3.68065.37494-1.70503-.76569-3.2321-3.34814l-1.20313-2.0839q-1.57031-2.7198-1.39444-4.57144.1816-1.87296 2.18428-3.02926 1.98915-1.1484 3.66502-.40196 1.66807.73291 3.22637 3.36946zm-2.79052-1.2396q-1.14843-1.9892-2.2402-2.5677-1.08604-.59977-2.29036.09554-1.20431.69532-1.23567 1.92226-.01784 1.2191 1.05456 3.1078l1.44532 2.50333q1.14843 1.98917 2.27145 2.62177 1.12874.6113 2.306-.06836 1.16371-.67188 1.2029-1.88534.0527-1.2212-1.03743-3.17185zm12.77704 2.4742-1.58322.91406-6.02342-10.43286-2.481 2.984-.82032-1.42083 3.52376-4.27167.24358-.1406z" fill="#d9d9d9"/><path d="m309.75705 632.5622-8.06485 4.65624-.64844-1.1231 1.52811-7.19704q.3222-1.6294.2912-2.4956-.02527-.8875-.43933-1.60467-.55469-.96073-1.49591-1.24723-.94123-.2866-1.91553.2759-1.17725.6797-1.43613 1.73134-.25317 1.03022.42653 2.20746l-1.5697.90625q-.98436-1.70495-.4899-3.37975.4867-1.68824 2.327-2.75074 1.71855-.99216 3.22978-.65586 1.52478.32847 2.38415 1.81693 1.05469 1.82677.1861 5.66607l-1.23143 5.49213 6.18397-3.57033zm6.14322-10.5471q1.58593 2.74686 1.42569 4.6256-.16026 1.87865-2.16294 3.0349-1.97562 1.1406-3.68062.37494-1.70506-.76569-3.23213-3.34814l-1.20312-2.0839q-1.57031-2.7198-1.39445-4.57144.18162-1.87296 2.1843-3.02926 1.98914-1.1484 3.665-.402 1.66807.7329 3.2264 3.3695zm-2.79053-1.2396q-1.14844-1.9892-2.2402-2.5677-1.08604-.5998-2.29034.0955-1.20432.6953-1.2357 1.9222-.01782 1.2192 1.05457 3.1079l1.44531 2.50333q1.14844 1.98914 2.27146 2.62177 1.12876.61126 2.306-.0684 1.16372-.6719 1.20291-1.8853.0527-1.2212-1.03745-3.17185zm12.77704 2.4742-1.58318.91406-6.02345-10.43293-2.48102 2.98407-.82031-1.42083 3.52378-4.27167.24355-.1406zm1.53894-9.1157-2.92444-6.5028 6.30576-3.6406.83593 1.4479-4.97964 2.875 1.57214 3.56675q.60193-1.05115 1.75213-1.71521 1.67793-.96874 3.30638-.42951 1.62842.53931 2.72216 2.43372 1.10156 1.90795.70596 3.59775-.39556 1.68985-2.2359 2.75235-1.63732.94531-3.18914.63245-1.55186-.3129-2.62259-1.8237l1.48849-.85935q.74469.97735 1.66611 1.16705.91361.17615 1.91495-.402 1.09608-.6328 1.28885-1.73636.19278-1.10364-.56504-2.4162-.71093-1.23139-1.81723-1.58494-1.11407-.3672-2.22366.2734-1.02841.59376-1.35244 1.37624l-.2242.5805zm13.45458 1.8665-1.35317.78124-2.57673-16.33804 1.33964-.7734zm10.52702-14.4854q1.58594 2.74686 1.42568 4.6256-.16024 1.87865-2.16293 3.0349-1.97561 1.1406-3.68067.37494-1.705-.76569-3.23208-3.34814l-1.20312-2.0839q-1.5703-2.7198-1.39444-4.57144.18158-1.87296 2.18426-3.02926 1.98918-1.1484 3.66504-.402 1.66806.7329 3.22638 3.3695zm-2.79052-1.2396q-1.14845-1.9892-2.2402-2.5677-1.08607-.5998-2.2904.0955-1.2043.6953-1.23564 1.9222-.01783 1.2192 1.05456 3.1079l1.44531 2.50333q1.14844 1.98914 2.27147 2.62177 1.12874.61126 2.306-.0684 1.1637-.6719 1.20287-1.8853.0527-1.2212-1.03742-3.17185zm12.77703 2.4742-1.58323.91406-6.02343-10.43293-2.48099 2.98407-.82031-1.42083 3.52377-4.27167.24356-.1406z" fill="#d9d9d9"/><path d="m407.7716 632.5622-8.06484 4.65624-.64844-1.1231 1.52808-7.19704q.32223-1.6294.29122-2.4956-.02526-.8875-.43932-1.60467-.5547-.96073-1.49592-1.24723-.94125-.2866-1.91552.2759-1.17726.6797-1.43613 1.7313-.25318 1.03026.42651 2.2075l-1.56967.90625q-.98437-1.70501-.4899-3.37975.4867-1.68824 2.327-2.75074 1.71853-.99216 3.22976-.65586 1.52477.32847 2.38417 1.81693 1.05468 1.82677.1861 5.66607l-1.23143 5.49213 6.18396-3.57033zm6.14323-10.5472q1.58593 2.74696 1.42567 4.6257-.16023 1.87865-2.16292 3.0349-1.97561 1.1406-3.68063.37494-1.70505-.76569-3.23212-3.34814l-1.20313-2.0839q-1.5703-2.7198-1.39443-4.5715.18161-1.8729 2.18429-3.0292 1.98914-1.1484 3.66501-.402 1.66806.7329 3.22638 3.3695zm-2.79053-1.23955q-1.14844-1.98915-2.2402-2.56765-1.08603-.5998-2.29035.0955-1.20432.6953-1.23569 1.9222-.01782 1.21914 1.05457 3.1079l1.44531 2.50333q1.14844 1.98914 2.27146 2.62177 1.12875.61126 2.306-.0684 1.16372-.6719 1.20288-1.8853.0527-1.2212-1.03742-3.17185zm12.77704 2.47425-1.58319.91406-6.02345-10.43293-2.481 2.98407-.82032-1.42083 3.52377-4.27167.24355-.1406zm3.39691-18.39765.76562 1.32611-.28417.16404q-1.80332 1.0953-2.2765 2.7758-.48095 1.6669.45823 3.6686.32583-1.6856 2.00375-2.65434 1.61026-.92966 3.22726-.34771 1.61701.58195 2.64826 2.3681 1.10156 1.90795.7237 3.65975-.3857 1.7382-2.11774 2.7382-1.77266 1.02344-3.64996.3031-1.88514-.7339-3.1195-2.8719l-.35158-.60894q-1.96092-3.39642-1.55212-6.03206.40884-2.63566 3.25412-4.3325zm1.15985 6.72765q-.81192.46876-1.20725 1.3465-.39532.8778-.23837 1.7434l.33594.58186q.875 1.51554 2.09064 2.0586 1.22918.53528 2.2576-.05846 1.05544-.6094 1.20554-1.72444.15578-1.13641-.57078-2.39486-.73437-1.27195-1.79642-1.70524-1.06204-.43326-2.0769.15264zm10.43677 4.4208-1.35317.78124-2.57673-16.33804 1.33963-.7734zm10.52701-14.4855q1.58592 2.74696 1.42568 4.6257-.16024 1.87865-2.16293 3.0349-1.97563 1.1406-3.68066.37494-1.70502-.76569-3.23209-3.34814l-1.20312-2.0839q-1.57032-2.7198-1.39444-4.5715.18158-1.8729 2.18426-3.0292 1.98917-1.1484 3.66504-.402 1.66806.7329 3.22638 3.3695zm-2.79053-1.23955q-1.14845-1.98915-2.24021-2.56765-1.08606-.5998-2.29037.0955-1.20432.6953-1.23567 1.9222-.0178 1.21914 1.05458 3.1079l1.44532 2.50333q1.14843 1.98914 2.27144 2.62177 1.12876.61126 2.306-.0684 1.16373-.6719 1.20288-1.8853.05271-1.2212-1.03742-3.17185zm12.77705 2.47425-1.58324.91406-6.02343-10.43293-2.48099 2.98407-.82031-1.42083 3.52377-4.27167.24356-.1406z" fill="#d9d9d9"/><path d="m506.0547 632.5622-8.06486 4.65624-.64844-1.1231 1.52808-7.19704q.32222-1.6294.29122-2.4956-.02526-.8875-.43933-1.60467-.55467-.96073-1.49591-1.24723-.94126-.2866-1.91552.2759-1.17724.6797-1.43614 1.7313-.25316 1.03026.42652 2.2075l-1.56967.90625q-.98437-1.70501-.4899-3.37975.4867-1.68824 2.327-2.75074 1.71855-.99216 3.22977-.65586 1.52478.32847 2.38415 1.81693 1.05469 1.82677.1861 5.66607l-1.23142 5.49213 6.18395-3.57033zm6.1432-10.5472q1.5859 2.74696 1.4257 4.6257-.1603 1.87865-2.16294 3.0349-1.97561 1.1406-3.68063.37494-1.70505-.76569-3.23213-3.34814l-1.2031-2.0839q-1.57032-2.7198-1.39445-4.5715.18161-1.8729 2.18429-3.0292 1.98914-1.1484 3.66501-.402 1.66805.7329 3.22638 3.3695zm-2.79052-1.23955q-1.14844-1.98915-2.2402-2.56765-1.08603-.5998-2.29035.0955-1.20431.6953-1.23569 1.9222-.01782 1.21914 1.05456 3.1079l1.44532 2.50333q1.14844 1.98914 2.27146 2.62177 1.12875.61126 2.306-.0684 1.16372-.6719 1.20288-1.8853.0527-1.2212-1.03742-3.17185zm12.77707 2.47425-1.58325.91406-6.02344-10.43293-2.48096 2.98407-.82034-1.42083 3.52377-4.27167.24357-.1406zm5.72575-18.55146 1.50014 14.37956-1.63734.94533-1.2793-13.96583-6.6711 3.8516-.7422-1.2855 8.322-4.8047zm9.2677 11.30226-1.35313.78124-2.57672-16.33804 1.33965-.7734zm10.52706-14.4855q1.58594 2.74696 1.42564 4.6257-.1602 1.87865-2.1629 3.0349-1.97563 1.1406-3.68065.37494-1.70502-.76569-3.23205-3.34814l-1.20313-2.0839q-1.57031-2.7198-1.39447-4.5715.1816-1.8729 2.18426-3.0292 1.98914-1.1484 3.66504-.402 1.66803.7329 3.2264 3.3695zm-2.79056-1.23955q-1.1484-1.98915-2.24014-2.56765-1.08606-.5998-2.29041.0955-1.20428.6953-1.23565 1.9222-.0178 1.21914 1.05456 3.1079l1.44534 2.50333q1.1484 1.98914 2.27146 2.62177 1.12874.61126 2.30594-.0684 1.1637-.6719 1.2029-1.8853.05274-1.2212-1.0374-3.17185zm12.77707 2.47425-1.58317.91406-6.02346-10.43293-2.48104 2.98407-.8203-1.42083 3.52375-4.27167.24359-.1406z" fill="#d9d9d9"/><path d="m604.0692 632.5622-8.06487 4.65624-.64843-1.1231 1.52813-7.19704q.32221-1.6294.2912-2.4956-.02527-.8875-.43933-1.60467-.5547-.96073-1.4959-1.24723-.94123-.2866-1.91554.2759-1.17726.6797-1.43616 1.73134-.25317 1.03022.4265 2.20746l-1.5696.90625q-.9844-1.70495-.4899-3.3797.4867-1.68829 2.327-2.75079 1.7185-.99216 3.2298-.65586 1.52475.32847 2.3841 1.81693 1.0547 1.82677.1861 5.66607l-1.2314 5.49213 6.18394-3.57033zm6.1432-10.5471q1.58594 2.74686 1.4257 4.6256-.1602 1.87865-2.1629 3.0349-1.9756 1.1406-3.68064.37494-1.70502-.76569-3.23212-3.34814l-1.20314-2.0839q-1.5703-2.7198-1.3944-4.57144.1816-1.87296 2.1843-3.02926 1.9891-1.1484 3.665-.402 1.66804.73295 3.2263 3.3695zm-2.79046-1.2396q-1.14844-1.9892-2.24024-2.5677-1.08606-.5998-2.29034.0955-1.20436.6953-1.23566 1.9223-.0179 1.2191 1.05457 3.1078l1.44533 2.50333q1.1484 1.98917 2.2714 2.62177 1.1287.6113 2.30603-.06836 1.16367-.67188 1.20287-1.88534.0527-1.2212-1.0374-3.17185zm12.77706 2.4742-1.5833.91406-6.0234-10.43286-2.481 2.984-.8203-1.42083 3.52376-4.27167.24359-.1406zm6.59586-15.95057q.53904.93372.466 1.93213-.07312.99844-.67766 1.88874 1.2086-.15656 2.22436.3215 1.02929.47024 1.60744 1.4716.92185 1.5967.394 3.1825-.5357 1.5722-2.2948 2.5878-1.7726 1.02345-3.3885.69343-1.6237-.34357-2.54556-1.94033-.57034-.9878-.48999-2.0986.08605-1.1323.80465-2.1064-1.05984.0706-1.94753-.37316-.88764-.44374-1.41887-1.36389-.89846-1.5561-.42055-3.04085.47009-1.4983 2.09385-2.4358 1.6238-.9375 3.1564-.59544 1.5383.32068 2.43676 1.87677zm2.03479 6.49317q-.59375-1.0284-1.63175-1.2951-1.0324-.2881-2.08785.3213-1.05548.60936-1.31645 1.6261-.2688 1.00315.34056 2.05863.60154 1.04194 1.57564 1.29151.96616.23602 2.06223-.39679 1.10962-.64065 1.38831-1.5954.27086-.96835-.33069-2.01025zm-6.88575-6.489q-.92016.53123-1.1525 1.44127-.24025.89643.32225 1.87073.54685.9472 1.43765 1.20874.89645.24026 1.8301-.29884.9472-.54687 1.1739-1.43554.23236-.90996-.3067-1.84366-.5469-.94723-1.4725-1.2067-.9256-.25945-1.8322.264zm13.24854 8.6972-1.35314.78124-2.5767-16.33804 1.33963-.7734zm10.52706-14.4854q1.5859 2.74686 1.42564 4.6256-.16024 1.87865-2.1629 3.0349-1.97564 1.1406-3.68064.37494-1.70504-.76569-3.2321-3.34814l-1.2031-2.0839q-1.5703-2.7198-1.3945-4.57144.1816-1.87296 2.1843-3.02926 1.9892-1.1484 3.665-.402 1.66806.73295 3.2264 3.3695zm-2.79054-1.2396q-1.14846-1.9892-2.24016-2.5677-1.0861-.5998-2.2904.0955-1.2043.6953-1.2357 1.9223-.0178 1.2191 1.0546 3.1078l1.4453 2.50333q1.14844 1.98917 2.2715 2.62177 1.1287.6113 2.30595-.06836 1.1637-.67188 1.20288-1.88534.05274-1.2212-1.03743-3.17185zm12.77704 2.4742-1.5832.91406-6.02343-10.43286-2.48102 2.984-.82032-1.42083 3.52377-4.27167.24357-.1406z" fill="#d9d9d9"/><path d="m702.0838 632.5622-8.0649 4.65624-.6484-1.1231 1.5281-7.19704q.3222-1.62944.2912-2.4956-.02525-.8875-.4393-1.60467-.5547-.96073-1.4959-1.24733-.94125-.2865-1.91555.276-1.17725.6797-1.43615 1.7313-.2532 1.03026.4265 2.2075l-1.56963.90625q-.98437-1.70501-.48987-3.37975.4867-1.6883 2.32696-2.7508 1.71851-.9922 3.2298-.6559 1.52478.32857 2.38414 1.81703 1.0547 1.82677.18605 5.66607l-1.23138 5.49213 6.18393-3.57033zm6.1432-10.5472q1.5859 2.74696 1.4257 4.6256-.16027 1.87875-2.16295 3.035-1.97559 1.1406-3.68061.37494-1.70504-.76569-3.23214-3.34814l-1.2031-2.0839q-1.5703-2.7199-1.3944-4.5715.1816-1.873 2.18426-3.02924 1.98914-1.14846 3.66504-.40196 1.668.7329 3.2263 3.3695zm-2.7905-1.23955q-1.1484-1.98915-2.2402-2.56765-1.0861-.5998-2.29036.0955-1.20434.6953-1.23574 1.9222-.0178 1.21914 1.05465 3.1079l1.44532 2.50333q1.14843 1.98914 2.27143 2.62177 1.1287.61126 2.30596-.0684 1.16374-.6719 1.20294-1.8853.0527-1.2212-1.0374-3.17185zm12.777 2.47425-1.5832.91406-6.0234-10.43293-2.481 2.98407-.8203-1.42083 3.52375-4.27167.24355-.1406zm7.2538-11.40485q-.1512.8631-.6304 1.62689-.47344.74246-1.2853 1.21116-1.06906.6172-2.1721.55044-1.0895-.07464-2.0694-.77184-.97416-.7186-1.6382-1.8687-.71096-1.2314-.8212-2.4848-.09673-1.2613.4511-2.2812.56136-1.0278 1.7115-1.69185 1.8268-1.05469 3.67133-.29735 1.84457.7573 3.21173 3.12535l.25784.44655q2.0781 3.5994 1.6104 6.0706-.4677 2.4712-3.3052 4.1816l-.29766.17186-.76564-1.32611.3248-.1875q1.91936-1.14429 2.3988-2.7201.4716-1.58941-.6524-3.755zm-2.40865 1.39065q.78485-.45315 1.17445-1.3096.3818-.86993.26544-1.75897l-.35938-.6225q-.89062-1.5426-2.10836-2.12053-1.21775-.5779-2.24613.01586-1.02837.59374-1.20343 1.75928-.16937 1.14422.57281 2.42976.72655 1.2584 1.81205 1.7323 1.0777.4603 2.09255-.1256zm10.14838 2.765-1.35313.78124-2.57674-16.33804 1.3396-.7734zm10.52707-14.4855q1.5859 2.74696 1.4256 4.6256-.1602 1.87875-2.1629 3.035-1.9756 1.1406-3.68064.37494-1.70501-.76569-3.23206-3.34814l-1.2031-2.0839q-1.57033-2.7199-1.3945-4.5715.1816-1.873 2.1843-3.02924 1.9891-1.14846 3.665-.40196 1.66805.7329 3.2264 3.3695zm-2.79056-1.23955q-1.14844-1.98915-2.24024-2.56765-1.086-.5998-2.29034.0955-1.20426.6953-1.23566 1.9222-.0178 1.21914 1.0546 3.1079l1.4453 2.50333q1.1484 1.98914 2.27147 2.62177 1.12873.61126 2.30597-.0684 1.16369-.6719 1.20286-1.8853.05275-1.2212-1.0374-3.17185zm12.77706 2.47425-1.5832.91406-6.02345-10.43293-2.48102 2.98407-.82033-1.42083 3.52376-4.27167.2436-.1406z" fill="#d9d9d9"/><path d="m800.0983 632.5622-8.06485 4.65624-.64845-1.1231 1.52815-7.19704q.3222-1.6294.2912-2.4956-.02525-.8875-.43935-1.60467-.5547-.96073-1.4959-1.24723-.9412-.2866-1.9155.2759-1.17727.6797-1.4362 1.7313-.25315 1.03026.42653 2.2075l-1.56963.90625q-.9844-1.70501-.4899-3.37975.4867-1.68824 2.327-2.75074 1.7185-.99216 3.2298-.65586 1.52477.32847 2.38414 1.81693 1.05466 1.82677.1861 5.66607l-1.23144 5.49213 6.18395-3.57033zm6.1432-10.5472q1.58595 2.74696 1.42574 4.6257-.16028 1.87865-2.16291 3.0349-1.97563 1.1406-3.68066.37494-1.70502-.76569-3.23212-3.34814l-1.20315-2.0839q-1.5703-2.7198-1.3944-4.5715.1816-1.8729 2.1843-3.0292 1.9891-1.1484 3.665-.402 1.66805.7329 3.22634 3.3695zm-2.79045-1.23955q-1.14845-1.98915-2.24025-2.56765-1.08604-.5998-2.2903.0955-1.2044.6953-1.23575 1.9222-.01782 1.21914 1.05465 3.1079l1.4453 2.50333q1.1484 1.98914 2.2714 2.62177 1.12874.61126 2.30605-.0684 1.16369-.6719 1.20285-1.8853.0527-1.2212-1.0374-3.17185zm15.69985.78675-8.06484 4.65624-.64846-1.1231 1.5281-7.19704q.3222-1.6294.2912-2.4956-.0253-.8875-.43933-1.60467-.55467-.96073-1.49591-1.24723-.94123-.2866-1.91556.2759-1.1772.6797-1.4361 1.7313-.2532 1.03026.4265 2.2075l-1.56966.90625q-.98437-1.70501-.48984-3.37975.48667-1.68824 2.32694-2.75074 1.71851-.99216 3.2298-.65586 1.52476.32847 2.38416 1.81693 1.0547 1.82677.1861 5.66607l-1.23146 5.49213 6.18396-3.57033zm6.1432-10.5472q1.58597 2.74696 1.4257 4.6257-.1602 1.87865-2.1629 3.0349-1.97566 1.1406-3.6807.37494-1.705-.76569-3.2321-3.34814l-1.2031-2.0839q-1.57033-2.7198-1.3944-4.5715.18155-1.8729 2.18423-3.0292 1.98917-1.1484 3.66507-.402 1.668.7329 3.22635 3.3695zm-2.7905-1.23955q-1.14844-1.98915-2.24023-2.56765-1.08607-.5998-2.29037.0955-1.2043.6953-1.23563 1.9222-.01783 1.21914 1.05456 3.1079l1.44531 2.50333q1.14846 1.98914 2.27143 2.62177 1.12878.61126 2.30603-.0684 1.1637-.6719 1.2029-1.8853.05265-1.2212-1.03744-3.17185zm8.71796 6.22505-1.35316.78124-2.5767-16.33804 1.33965-.7734zm10.52704-14.4855q1.58593 2.74696 1.42566 4.6257-.16022 1.87865-2.16291 3.0349-1.97565 1.1406-3.68065.37494-1.705-.76569-3.23207-3.34814l-1.20313-2.0839q-1.5703-2.7198-1.39446-4.5715.18156-1.8729 2.18426-3.0292 1.98914-1.1484 3.66504-.402 1.66806.7329 3.22636 3.3695zm-2.79053-1.23955q-1.14844-1.98915-2.24017-2.56765-1.08606-.5998-2.2904.0955-1.2043.6953-1.23567 1.9222-.01783 1.21914 1.05457 3.1079l1.4453 2.50333q1.14845 1.98914 2.2715 2.62177 1.1287.61126 2.30597-.0684 1.16369-.6719 1.20288-1.8853.05275-1.2212-1.03742-3.17185zm12.77703 2.47425-1.5832.91406-6.0234-10.43293-2.48104 2.98407-.82031-1.42083 3.52375-4.27167.2436-.1406z" fill="#d9d9d9"/><path d="m898.3814 632.5622-8.0649 4.65624-.6484-1.1231 1.5281-7.19704q.32223-1.6294.2912-2.4956-.02524-.8875-.4393-1.60467-.5547-.96073-1.4959-1.24723-.94124-.2866-1.91554.2759-1.17726.6797-1.43616 1.7313-.2532 1.03026.4265 2.2075l-1.5696.90625q-.9844-1.70501-.4899-3.37975.4867-1.68824 2.327-2.75074 1.7185-.99216 3.22977-.65586 1.52478.32847 2.38413 1.81693 1.0547 1.82677.1861 5.66607l-1.2314 5.49213 6.18393-3.57033zm6.1432-10.5472q1.58593 2.74696 1.4257 4.6257-.16026 1.87865-2.1629 3.0349-1.97563 1.1406-3.68065.37494-1.70502-.76569-3.23212-3.34814l-1.20313-2.0839q-1.5703-2.7198-1.3944-4.5715.1816-1.8729 2.18426-3.0292 1.98914-1.1484 3.66504-.402 1.66803.7329 3.2263 3.3695zm-2.79047-1.23955q-1.14843-1.98915-2.24023-2.56765-1.08606-.5998-2.29035.0955-1.20435.6953-1.23572 1.9222-.01783 1.21914 1.05463 3.1079l1.44534 2.50333q1.1484 1.98914 2.2714 2.62177 1.1287.61126 2.306-.0684 1.1637-.6719 1.2029-1.8853.0527-1.2212-1.0374-3.17185zm15.69983.78675-8.06482 4.65624-.64844-1.1231 1.5281-7.19704q.3222-1.6294.2912-2.4956-.0253-.8875-.43935-1.60467-.55469-.96073-1.49591-1.24723-.94124-.2866-1.91554.2759-1.17724.6797-1.43615 1.7313-.25315 1.03026.42652 2.2075l-1.56967.90625q-.98435-1.70501-.48984-3.37975.48669-1.68824 2.32694-2.75074 1.7185-.99216 3.2298-.65586 1.5248.32847 2.3842 1.81693 1.05466 1.82677.1861 5.66607l-1.2315 5.49213 6.184-3.57033zm6.60344-3.8125-1.5832.91406-6.0234-10.43293-2.48103 2.98407-.82031-1.42083 3.52374-4.27167.2436-.1406zm5.46724-1.7492-1.35314.78124-2.57673-16.33804 1.33963-.7734zm10.52706-14.4855q1.5859 2.74696 1.42564 4.6257-.16024 1.87865-2.16291 3.0349-1.97563 1.1406-3.68063.37494-1.70505-.76569-3.2321-3.34814l-1.2031-2.0839q-1.5703-2.7198-1.3945-4.5715.1816-1.8729 2.1843-3.0292 1.9891-1.1484 3.665-.402 1.66805.7329 3.2264 3.3695zm-2.79055-1.23955q-1.14845-1.98915-2.24015-2.56765-1.0861-.5998-2.2904.0955-1.2043.6953-1.2357 1.9222-.0178 1.21914 1.0546 3.1079l1.4453 2.50333q1.1484 1.98914 2.2715 2.62177 1.1287.61126 2.30595-.0684 1.16369-.6719 1.20285-1.8853.05276-1.2212-1.0374-3.17185zm12.77705 2.47425-1.5832.91406-6.02344-10.43293-2.48102 2.98407-.82034-1.42083 3.5238-4.27167.24356-.1406z" fill="#d9d9d9"/><path d="m996.39594 632.5622-8.06489 4.65624-.64845-1.1231 1.52815-7.19704q.32221-1.6294.2912-2.4956-.02525-.8875-.43935-1.60467-.55467-.96073-1.4959-1.24723-.9412-.2866-1.9155.2759-1.17726.6797-1.4362 1.73134-.25315 1.03022.42654 2.20746l-1.56964.90625q-.9844-1.70495-.48987-3.3797.48667-1.68829 2.32697-2.75079 1.7185-.99216 3.2298-.65586 1.5248.32847 2.38415 1.81693 1.05469 1.82677.1861 5.66607l-1.23145 5.49213 6.18396-3.57033zm6.14316-10.5471q1.58596 2.74686 1.42574 4.6256-.16024 1.87865-2.1629 3.0349-1.97564 1.1406-3.68064.37494-1.70504-.76569-3.23214-3.34814l-1.20312-2.0839q-1.57034-2.7198-1.39444-4.57144.1816-1.87296 2.1843-3.02926 1.9891-1.1484 3.665-.402 1.66806.73295 3.22635 3.3695zm-2.79044-1.2396q-1.14846-1.9892-2.24026-2.5677-1.08604-.5998-2.2903.0955-1.20437.6953-1.2357 1.9223-.01786 1.2191 1.0546 3.1078l1.4453 2.50333q1.14844 1.98917 2.2714 2.62177 1.12875.6113 2.30605-.06836 1.1637-.67188 1.20288-1.88534.05267-1.2212-1.03743-3.17185zm15.69984.7867-8.06483 4.65624-.64847-1.1231 1.5281-7.19704q.3222-1.6294.2912-2.4956-.02526-.8875-.4393-1.60467-.5547-.96073-1.49594-1.24723-.94122-.2866-1.91552.2759-1.17724.6797-1.43614 1.73134-.2532 1.03022.4265 2.20746l-1.56965.90625q-.98435-1.70495-.48985-3.3797.4867-1.68829 2.32695-2.75079 1.71855-.99216 3.2298-.65586 1.52475.32847 2.38415 1.81693 1.0547 1.82677.1861 5.66607l-1.23145 5.49213 6.18395-3.57033zm9.5262-5.5-8.0648 4.65624-.6484-1.1231 1.52805-7.19704q.32225-1.6294.29125-2.4956-.02526-.8875-.4393-1.60467-.5547-.96073-1.49593-1.24723-.94127-.2866-1.91553.2759-1.17724.6797-1.43614 1.73134-.2532 1.03022.4265 2.20746l-1.56964.90625q-.98436-1.70495-.48996-3.3797.4867-1.68829 2.32705-2.75079 1.71851-.99216 3.22975-.65586 1.5248.32847 2.38415 1.81693 1.05468 1.82677.18609 5.66607l-1.23138 5.49213 6.18394-3.57033zm2.5445-.0617-1.3532.78124-2.5767-16.33804 1.3397-.7734zm10.5269-14.4854q1.586 2.74686 1.4258 4.6256-.1603 1.87865-2.1629 3.0349-1.9756 1.1406-3.6807.37494-1.705-.76569-3.2321-3.34814l-1.2031-2.0839q-1.5703-2.7198-1.3944-4.57144.1815-1.87296 2.1842-3.02926 1.9891-1.1484 3.6651-.402 1.668.73295 3.2263 3.3695zm-2.7904-1.2396q-1.1484-1.9892-2.2402-2.5677-1.0861-.5998-2.2904.0955-1.2043.6953-1.2357 1.9223-.0178 1.2191 1.0547 3.1078l1.4453 2.50333q1.1484 1.98917 2.2713 2.62177 1.1288.6113 2.3061-.06836 1.1637-.67188 1.2029-1.88534.0527-1.2212-1.0374-3.17185zm12.777 2.4742-1.5832.91406-6.0235-10.43286-2.4809 2.984-.8203-1.42083 3.5238-4.27167.2435-.1406z" fill="#d9d9d9"/><path d="m170.5 110.416664c0 3.313716-2.6863 6-6 6s-6-2.686284-6-6c0-3.313704 2.6863-6 6-6s6 2.686296 6 6z" fill="#6d9eeb"/><path d="m182.03125 111.854164v5.5625h-1.875v-14.21875h5.23437q2.34376 0 3.65626 1.1875 1.32812 1.1875 1.32812 3.15625 0 2.078126-1.29688 3.203126-1.29687 1.109374-3.70312 1.109374zm0-1.53125h3.35937q1.51563 0 2.3125-.703124.79688-.71875.79688-2.0625 0-1.265626-.79688-2.015626-.79687-.765624-2.20312-.796874h-3.46875zm17.35937 6.046876q-1.04687 1.25-3.09374 1.25-1.6875 0-2.57813-.984376-.875-.984374-.89063-2.90625v-6.875h1.8125v6.828126q0 2.390624 1.95313 2.390624 2.0625 0 2.75-1.53125v-7.6875h1.8125v10.5625h-1.71875zm13.42188-4.125q0 2.421874-1.10938 3.90625-1.10937 1.46875-2.98437 1.46875-2.01563 0-3.10937-1.421876l-.07813 1.21875h-1.65625v-15h1.79688v5.59375q1.09374-1.359374 3.01562-1.359374 1.92188 0 3.01562 1.453124 1.10938 1.453126 1.10938 3.984376zm-1.8125-.203126q0-1.84375-.71875-2.84375-.70313-1.015624-2.03125-1.015624-1.79688 0-2.57812 1.671874v4.5625q.82812 1.65625 2.59374 1.65625 1.29688 0 2.01563-1 .71875-1 .71875-3.03125zm5.82812 5.375h-1.79687v-15h1.79687zm5 0h-1.79687v-10.5625h1.79687zm-1.95312-13.375q0-.4375.26562-.734374.28126-.3125.79688-.3125.53125 0 .79688.3125.28124.296874.28124.734374 0 .4375-.28124.734376-.26563.296874-.79688.296874-.51562 0-.79688-.296874-.26562-.296876-.26562-.734376zm9.23438 12.09375q.96874 0 1.6875-.578124.71874-.59375.79687-1.46875h1.71875q-.0625.90625-.64062 1.734374-.5625.8125-1.53126 1.3125-.95312.484376-2.03124.484376-2.15626 0-3.4375-1.4375-1.26563-1.453126-1.26563-3.953126v-.296874q0-1.546876.5625-2.75.5625-1.203126 1.625-1.859376 1.0625-.671874 2.5-.671874 1.78125 0 2.95313 1.0625 1.1875 1.0625 1.26562 2.765624h-1.71875q-.07813-1.015624-.78125-1.671874-.6875-.671876-1.71875-.671876-1.375 0-2.14063 1-.75.984376-.75 2.859376v.34375q0 1.828124.75 2.8125.75.984374 2.15626.984374zm15.23437-5.0625q-2.42187-.6875-3.51563-1.6875-1.09374-1.015624-1.09374-2.5 0-1.6875 1.34374-2.78125 1.34376-1.109374 3.48438-1.109374 1.46875 0 2.60938.578124 1.15624.5625 1.78124 1.5625.625.984376.625 2.171876h-1.875q0-1.28125-.82812-2.015626-.8125-.75-2.3125-.75-1.39062 0-2.17188.609376-.76562.609374-.76562 1.703124 0 .859376.73438 1.46875.73437.59375 2.5 1.09375 1.78124.5 2.78124 1.109376 1 .59375 1.48438 1.390624.48438.796876.48438 1.890626 0 1.71875-1.34376 2.765624-1.34374 1.046876-3.60937 1.046876-1.45313 0-2.73437-.5625-1.26563-.5625-1.95313-1.53125-.6875-.984376-.6875-2.234376h1.89063q0 1.296876.95312 2.046876.95312.734374 2.53125.734374 1.48437 0 2.28125-.59375.79688-.609374.79688-1.65625 0-1.046874-.73438-1.609374-.73438-.578126-2.65625-1.140626zm11.90625 6.546876q-2.14062 0-3.5-1.40625-1.34375-1.421876-1.34375-3.78125v-.34375q0-1.5625.59375-2.796876.60938-1.234374 1.6875-1.9375 1.07812-.703124 2.34375-.703124 2.0625 0 3.20313 1.359374 1.14062 1.359376 1.14062 3.890626v.75h-7.15625q.03125 1.5625.90625 2.53125.875.953124 2.21875.953124.96875 0 1.625-.390624.67187-.390626 1.17187-1.03125l1.09376.859374q-1.32813 2.046876-3.98438 2.046876zm-.21875-9.484376q-1.09375 0-1.84375.796876-.73438.796874-.90625 2.234374h5.28125v-.140624q-.07812-1.375-.75-2.125-.65625-.765626-1.78125-.765626zm11.9375.328126q-.40625-.0625-.875-.0625-1.78125 0-2.42187 1.515624v7.5h-1.79688v-10.5625h1.75l.03125 1.21875q.89063-1.421874 2.51563-1.421874.53124 0 .79687.140624zm5.39063 6.5 2.60937-8.109376h1.84375l-3.78125 10.5625h-1.375l-3.82813-10.5625h1.84376zm10.89062 2.65625q-2.14062 0-3.5-1.40625-1.34375-1.421876-1.34375-3.78125v-.34375q0-1.5625.59375-2.796876.60938-1.234374 1.6875-1.9375 1.07812-.703124 2.34375-.703124 2.0625 0 3.20313 1.359374 1.14062 1.359376 1.14062 3.890626v.75h-7.15625q.03125 1.5625.90625 2.53125.875.953124 2.21875.953124.96875 0 1.625-.390624.67187-.390626 1.17187-1.03125l1.09376.859374q-1.32813 2.046876-3.98438 2.046876zm-.21875-9.484376q-1.09375 0-1.84375.796876-.73438.796874-.90625 2.234374h5.28125v-.140624q-.07812-1.375-.75-2.125-.65625-.765626-1.78125-.765626zm11.9375.328126q-.40625-.0625-.875-.0625-1.78125 0-2.42187 1.515624v7.5h-1.79688v-10.5625h1.75l.03125 1.21875q.89063-1.421874 2.51563-1.421874.53124 0 .79687.140624zm8.04687 6.15625q0-.734376-.54687-1.140626-.54687-.40625-1.92187-.703124-1.375-.296876-2.1875-.703126-.79688-.40625-1.1875-.96875-.375-.578124-.375-1.359374 0-1.296876 1.09374-2.1875 1.09376-.90625 2.8125-.90625 1.79688 0 2.90626.9375 1.125.921874 1.125 2.359374h-1.82813q0-.734374-.625-1.265624-.625-.546876-1.57813-.546876-1 0-1.5625.4375-.54687.421876-.54687 1.125 0 .640626.51563.984376.51562.328124 1.875.640624 1.35937.296876 2.1875.71875.84374.40625 1.25 1 .40624.59375.40624 1.4375 0 1.421876-1.14062 2.28125-1.125.859376-2.9375.859376-1.26562 0-2.25-.453126-.96875-.453124-1.53125-1.25-.54687-.8125-.54687-1.75h1.8125q.04687.90625.71874 1.4375.6875.53125 1.79688.53125 1.03125 0 1.64062-.40625.625-.421874.625-1.109374z" fill="#d9d9d9"/><path d="m334.5 110.416664c0 3.313716-2.68628 6-6 6s-6-2.686284-6-6c0-3.313704 2.68628-6 6-6s6 2.686296 6 6z" fill="#ff0"/><path d="m354.60938 112.90104q-.26563 2.265624-1.67188 3.5-1.39062 1.21875-3.71875 1.21875-2.51563 0-4.04687-1.8125-1.51563-1.8125-1.51563-4.84375v-1.359376q0-1.984374.70313-3.484374.71874-1.5 2.01562-2.3125 1.29688-.8125 3.01562-.8125 2.26563 0 3.625 1.265624 1.375 1.265626 1.59376 3.5h-1.89063q-.23437-1.6875-1.0625-2.453124-.8125-.765626-2.26563-.765626-1.79687 0-2.82812 1.328126-1.01562 1.328124-1.01562 3.78125v1.375q0 2.3125.96874 3.6875.96876 1.359374 2.70313 1.359374 1.5625 0 2.39063-.703124.84374-.703126 1.10937-2.46875zm1.78124-.859376q0-1.5625.60938-2.796874.60938-1.25 1.6875-1.921876 1.09375-.671874 2.5-.671874 2.15625 0 3.48438 1.5 1.34374 1.484374 1.34374 3.96875v.125q0 1.546874-.59374 2.78125-.59376 1.21875-1.70313 1.90625-1.09375.6875-2.51563.6875-2.14062 0-3.48437-1.5-1.32813-1.5-1.32813-3.953126zm1.8125.203126q0 1.765624.8125 2.828124.82813 1.0625 2.1875 1.0625 1.375 0 2.1875-1.078124.8125-1.078126.8125-3.015626 0-1.75-.82812-2.828124-.82812-1.078126-2.1875-1.078126-1.34375 0-2.17188 1.0625-.8125 1.0625-.8125 3.046876zm11.375-5.390626.0625 1.328126q1.20313-1.53125 3.15626-1.53125 3.35937 0 3.375 3.78125v6.984374h-1.79688v-7q-.01562-1.140624-.53125-1.6875-.5-.546874-1.59375-.546874-.875 0-1.54688.46875-.65624.46875-1.03124 1.234374v7.53125h-1.79688v-10.5625zm11.73438-2.5625v2.5625h1.98438v1.390626h-1.98438v6.546874q0 .640626.26562.96875.26563.3125.90626.3125.3125 0 .85937-.125v1.46875q-.71875.203126-1.39063.203126-1.20312 0-1.82812-.734376-.60938-.734374-.60938-2.09375v-6.546874h-1.92187v-1.390626h1.92187v-2.5625zm11.07812 13.125q-.15624-.3125-.25-1.109374-1.26562 1.3125-3.01562 1.3125-1.5625 0-2.5625-.890626-1-.890624-1-2.25 0-1.640624 1.25-2.546874 1.26562-.921876 3.53125-.921876h1.76563v-.828124q0-.953126-.57813-1.515626-.5625-.5625-1.65625-.5625-.96875 0-1.625.5-.65625.484376-.65625 1.171876h-1.8125q0-.78125.5625-1.515626.5625-.75 1.51563-1.171874.96874-.4375 2.125-.4375 1.82812 0 2.85937.921874 1.03125.90625 1.07813 2.515626v4.859374q0 1.453126.35937 2.3125v.15625zm-3-1.375q.85938 0 1.60938-.4375.76562-.4375 1.10938-1.140624v-2.171876h-1.42188q-3.3125 0-3.3125 1.9375 0 .859376.5625 1.34375.5625.46875 1.45312.46875zm9.4375 1.375h-1.79687v-10.5625h1.79687zm-1.95312-13.375q0-.4375.26562-.734374.28126-.3125.79688-.3125.53125 0 .79688.3125.28124.296874.28124.734374 0 .4375-.28124.734376-.26563.296874-.79688.296874-.51562 0-.79688-.296874-.26562-.296876-.26562-.734376zm6.70312 2.8125.0625 1.328126q1.20313-1.53125 3.15626-1.53125 3.35937 0 3.375 3.78125v6.984374h-1.79688v-7q-.01562-1.140624-.53125-1.6875-.5-.546874-1.59375-.546874-.875 0-1.54688.46875-.65624.46875-1.03124 1.234374v7.53125h-1.79688v-10.5625zm13.67188 10.765626q-2.14062 0-3.5-1.40625-1.34375-1.421876-1.34375-3.78125v-.34375q0-1.5625.59375-2.796876.60938-1.234374 1.6875-1.9375 1.07812-.703124 2.34375-.703124 2.0625 0 3.20313 1.359374 1.14062 1.359376 1.14062 3.890626v.75h-7.15625q.03125 1.5625.90625 2.53125.875.953124 2.21875.953124.96875 0 1.625-.390624.67187-.390626 1.17187-1.03125l1.09376.859374q-1.32813 2.046876-3.98438 2.046876zm-.21875-9.484376q-1.09375 0-1.84375.796876-.73438.796874-.90625 2.234374h5.28125v-.140624q-.07812-1.375-.75-2.125-.65625-.765626-1.78125-.765626zm11.9375.328126q-.40625-.0625-.875-.0625-1.78125 0-2.42187 1.515624v7.5h-1.79688v-10.5625h1.75l.03125 1.21875q.89063-1.421874 2.51563-1.421874.53124 0 .79687.140624zm8.04687 6.15625q0-.734376-.54687-1.140626-.54687-.40625-1.92187-.703124-1.375-.296876-2.1875-.703126-.79688-.40625-1.1875-.96875-.375-.578124-.375-1.359374 0-1.296876 1.09374-2.1875 1.09376-.90625 2.8125-.90625 1.79688 0 2.90626.9375 1.125.921874 1.125 2.359374h-1.82813q0-.734374-.625-1.265624-.625-.546876-1.57813-.546876-1 0-1.5625.4375-.54687.421876-.54687 1.125 0 .640626.51563.984376.51562.328124 1.875.640624 1.35937.296876 2.1875.71875.84374.40625 1.25 1 .40624.59375.40624 1.4375 0 1.421876-1.14062 2.28125-1.125.859376-2.9375.859376-1.26562 0-2.25-.453126-.96875-.453124-1.53125-1.25-.54687-.8125-.54687-1.75h1.8125q.04687.90625.71874 1.4375.6875.53125 1.79688.53125 1.03125 0 1.64062-.40625.625-.421874.625-1.109374z" fill="#d9d9d9"/><path d="m467.5 110.416664c0 3.313716-2.68628 6-6 6s-6-2.686284-6-6c0-3.313704 2.68628-6 6-6s6 2.686296 6 6z" fill="#f90"/><path d="m485 113.697914h-5.95312l-1.34376 3.71875h-1.92187l5.42187-14.21875h1.64063l5.4375 14.21875h-1.92187zm-5.39062-1.53125h4.84374l-2.42187-6.65625zm14.5 3.96875q.96874 0 1.6875-.578124.71874-.59375.79687-1.46875h1.71875q-.0625.90625-.64062 1.734374-.5625.8125-1.53126 1.3125-.95312.484376-2.03124.484376-2.15626 0-3.4375-1.4375-1.26563-1.453126-1.26563-3.953126v-.296874q0-1.546876.5625-2.75.5625-1.203126 1.625-1.859376 1.0625-.671874 2.5-.671874 1.78125 0 2.95313 1.0625 1.1875 1.0625 1.26562 2.765624h-1.71875q-.07813-1.015624-.78125-1.671874-.6875-.671876-1.71875-.671876-1.375 0-2.14063 1-.75.984376-.75 2.859376v.34375q0 1.828124.75 2.8125.75.984374 2.15626.984374zm12.28124 1.28125q-.15624-.3125-.25-1.109374-1.26562 1.3125-3.01562 1.3125-1.5625 0-2.5625-.890626-1-.890624-1-2.25 0-1.640624 1.25-2.546874 1.26562-.921876 3.53125-.921876h1.76563v-.828124q0-.953126-.57813-1.515626-.5625-.5625-1.65625-.5625-.96875 0-1.625.5-.65625.484376-.65625 1.171876h-1.8125q0-.78125.5625-1.515626.5625-.75 1.51563-1.171874.96874-.4375 2.125-.4375 1.82812 0 2.85937.921874 1.03125.90625 1.07813 2.515626v4.859374q0 1.453126.35937 2.3125v.15625zm-3-1.375q.85938 0 1.60938-.4375.76562-.4375 1.10938-1.140624v-2.171876h-1.42188q-3.3125 0-3.3125 1.9375 0 .859376.5625 1.34375.5625.46875 1.45312.46875zm7.03126-4q0-2.421874 1.15624-3.90625 1.15628-1.484374 3.01563-1.484374 1.85935 0 2.9375 1.265624v-5.5h1.8125v15h-1.65625l-.09375-1.140624q-1.07815 1.34375-3.01565 1.34375-1.8281 0-2.99998-1.5-1.15624-1.515626-1.15624-3.9375zm1.81252.203126q0 1.796874.73435 2.8125.75 1.015624 2.0625 1.015624 1.71875 0 2.5-1.53125v-4.859374q-.79685-1.5-2.48435-1.5-1.32815 0-2.07815 1.03125-.73435 1.03125-.73435 3.03125zm14.0156 5.375q-2.1406 0-3.5-1.40625-1.34375-1.421876-1.34375-3.78125v-.34375q0-1.5625.59375-2.796876.6094-1.234374 1.6875-1.9375 1.0781-.703124 2.34375-.703124 2.0625 0 3.20315 1.359374 1.1406 1.359376 1.1406 3.890626v.75h-7.15625q.03125 1.5625.90625 2.53125.875.953124 2.21875.953124.96875 0 1.625-.390624.67185-.390626 1.17185-1.03125l1.0938.859374q-1.32815 2.046876-3.9844 2.046876zm-.21875-9.484376q-1.09375 0-1.84375.796876-.7344.796874-.90625 2.234374h5.28125v-.140624q-.0781-1.375-.75-2.125-.65625-.765626-1.78125-.765626zm8.53125-1.28125.0469 1.171876q1.17185-1.375 3.1406-1.375 2.21875 0 3.0156 1.703124.5313-.765624 1.375-1.234374.8438-.46875 2-.46875 3.4688 0 3.5313 3.6875v7.078124h-1.8125v-6.96875q0-1.140624-.51565-1.703124-.51565-.5625-1.73435-.5625-1 0-1.6719.609374-.65625.59375-.7656 1.609376v7.015624h-1.8125v-6.921874q0-2.3125-2.26565-2.3125-1.78125 0-2.42185 1.515624v7.71875h-1.8125v-10.5625zm18.2656 10.5625h-1.79685v-10.5625h1.79685zm-1.9531-13.375q0-.4375.2656-.734374.2813-.3125.7969-.3125.53125 0 .7969.3125.2812.296874.2812.734374 0 .4375-.2812.734376-.26565.296874-.7969.296874-.5156 0-.7969-.296874-.2656-.296876-.2656-.734376zm9.2344 12.09375q.9687 0 1.6875-.578124.7187-.59375.79685-1.46875h1.71875q-.0625.90625-.6406 1.734374-.5625.8125-1.5313 1.3125-.9531.484376-2.0312.484376-2.1563 0-3.4375-1.4375-1.26565-1.453126-1.26565-3.953126v-.296874q0-1.546876.5625-2.75.5625-1.203126 1.625-1.859376 1.0625-.671874 2.5-.671874 1.78125 0 2.95315 1.0625 1.1875 1.0625 1.2656 2.765624h-1.71875q-.07815-1.015624-.78125-1.671874-.6875-.671876-1.71875-.671876-1.375 0-2.14065 1-.75.984376-.75 2.859376v.34375q0 1.828124.75 2.8125.75.984374 2.1563.984374zm21.5-3.234374q-.26565 2.265624-1.6719 3.5-1.3906 1.21875-3.71875 1.21875-2.51565 0-4.04685-1.8125-1.51565-1.8125-1.51565-4.84375v-1.359376q0-1.984374.70315-3.484374.7187-1.5 2.0156-2.3125 1.2969-.8125 3.0156-.8125 2.26565 0 3.625 1.265624 1.375 1.265626 1.5938 3.5h-1.89065q-.23435-1.6875-1.0625-2.453124-.8125-.765626-2.26565-.765626-1.79685 0-2.8281 1.328126-1.0156 1.328124-1.0156 3.78125v1.375q0 2.3125.9687 3.6875.9688 1.359374 2.70315 1.359374 1.5625 0 2.39065-.703124.8437-.703126 1.10935-2.46875zm4.2187 4.515624h-1.79685v-15h1.79685zm2.5625-5.375q0-1.5625.6094-2.796874.6094-1.25 1.6875-1.921876 1.09375-.671874 2.5-.671874 2.15625 0 3.4844 1.5 1.3437 1.484374 1.3437 3.96875v.125q0 1.546874-.5937 2.78125-.5938 1.21875-1.70315 1.90625-1.09375.6875-2.51565.6875-2.1406 0-3.48435-1.5-1.32815-1.5-1.32815-3.953126zm1.8125.203126q0 1.765624.8125 2.828124.82815 1.0625 2.1875 1.0625 1.375 0 2.1875-1.078124.8125-1.078126.8125-3.015626 0-1.75-.8281-2.828124-.8281-1.078126-2.1875-1.078126-1.34375 0-2.1719 1.0625-.8125 1.0625-.8125 3.046876zm16.1875 4.125q-1.04685 1.25-3.0937 1.25-1.6875 0-2.57815-.984376-.875-.984374-.89065-2.90625v-6.875h1.8125v6.828126q0 2.390624 1.95315 2.390624 2.0625 0 2.75-1.53125v-7.6875h1.8125v10.5625h-1.71875zm4.0313-4.328126q0-2.421874 1.1562-3.90625 1.1563-1.484374 3.01565-1.484374 1.85935 0 2.9375 1.265624v-5.5h1.8125v15h-1.65625l-.09375-1.140624q-1.07815 1.34375-3.01565 1.34375-1.8281 0-3-1.5-1.1562-1.515626-1.1562-3.9375zm1.8125.203126q0 1.796874.73435 2.8125.75 1.015624 2.0625 1.015624 1.71875 0 2.5-1.53125v-4.859374q-.79685-1.5-2.48435-1.5-1.32815 0-2.07815 1.03125-.73435 1.03125-.73435 3.03125zm15.7812 2.375q0-.734376-.54685-1.140626-.54685-.40625-1.92185-.703124-1.375-.296876-2.1875-.703126-.7969-.40625-1.1875-.96875-.375-.578124-.375-1.359374 0-1.296876 1.0937-2.1875 1.0938-.90625 2.8125-.90625 1.7969 0 2.9063.9375 1.125.921874 1.125 2.359374h-1.82815q0-.734374-.625-1.265624-.625-.546876-1.57815-.546876-1 0-1.5625.4375-.54685.421876-.54685 1.125 0 .640626.51565.984376.5156.328124 1.875.640624 1.35935.296876 2.1875.71875.8437.40625 1.25 1 .4062.59375.4062 1.4375 0 1.421876-1.1406 2.28125-1.125.859376-2.9375.859376-1.2656 0-2.25-.453126-.96875-.453124-1.53125-1.25-.54685-.8125-.54685-1.75h1.8125q.04685.90625.7187 1.4375.6875.53125 1.7969.53125 1.03125 0 1.6406-.40625.625-.421874.625-1.109374z" fill="#d9d9d9"/><path d="m658.5 110.416664c0 3.313716-2.6863 6-6 6s-6-2.686284-6-6c0-3.313704 2.6863-6 6-6s6 2.686296 6 6z" fill="#109618"/><path d="m678.6094 112.90104q-.26565 2.265624-1.6719 3.5-1.3906 1.21875-3.71875 1.21875-2.51565 0-4.04685-1.8125-1.51565-1.8125-1.51565-4.84375v-1.359376q0-1.984374.70315-3.484374.7187-1.5 2.0156-2.3125 1.2969-.8125 3.0156-.8125 2.26565 0 3.625 1.265624 1.375 1.265626 1.5938 3.5h-1.89065q-.23435-1.6875-1.0625-2.453124-.8125-.765626-2.26565-.765626-1.79685 0-2.8281 1.328126-1.0156 1.328124-1.0156 3.78125v1.375q0 2.3125.9687 3.6875.9688 1.359374 2.70315 1.359374 1.5625 0 2.39065-.703124.8437-.703126 1.10935-2.46875zm1.7812-.859376q0-1.5625.6094-2.796874.6094-1.25 1.6875-1.921876 1.09375-.671874 2.5-.671874 2.15625 0 3.4844 1.5 1.3437 1.484374 1.3437 3.96875v.125q0 1.546874-.5937 2.78125-.5938 1.21875-1.70315 1.90625-1.09375.6875-2.51565.6875-2.1406 0-3.48435-1.5-1.32815-1.5-1.32815-3.953126zm1.8125.203126q0 1.765624.8125 2.828124.82815 1.0625 2.1875 1.0625 1.375 0 2.1875-1.078124.8125-1.078126.8125-3.015626 0-1.75-.8281-2.828124-.8281-1.078126-2.1875-1.078126-1.34375 0-2.1719 1.0625-.8125 1.0625-.8125 3.046876zm11.3594-5.390626.0469 1.171876q1.17185-1.375 3.1406-1.375 2.21875 0 3.0156 1.703124.5313-.765624 1.375-1.234374.8438-.46875 2-.46875 3.4688 0 3.5313 3.6875v7.078124h-1.8125v-6.96875q0-1.140624-.51565-1.703124-.51565-.5625-1.73435-.5625-1 0-1.6719.609374-.65625.59375-.7656 1.609376v7.015624h-1.8125v-6.921874q0-2.3125-2.26565-2.3125-1.78125 0-2.42185 1.515624v7.71875h-1.8125v-10.5625zm18 0 .0469 1.171876q1.17185-1.375 3.1406-1.375 2.21875 0 3.0156 1.703124.5313-.765624 1.375-1.234374.8438-.46875 2-.46875 3.4688 0 3.5313 3.6875v7.078124h-1.8125v-6.96875q0-1.140624-.51565-1.703124-.51565-.5625-1.73435-.5625-1 0-1.6719.609374-.65625.59375-.7656 1.609376v7.015624h-1.8125v-6.921874q0-2.3125-2.26565-2.3125-1.78125 0-2.42185 1.515624v7.71875h-1.8125v-10.5625zm20.6875 10.765626q-2.1406 0-3.5-1.40625-1.34375-1.421876-1.34375-3.78125v-.34375q0-1.5625.59375-2.796876.6094-1.234374 1.6875-1.9375 1.0781-.703124 2.34375-.703124 2.0625 0 3.20315 1.359374 1.1406 1.359376 1.1406 3.890626v.75h-7.15625q.03125 1.5625.90625 2.53125.875.953124 2.21875.953124.96875 0 1.625-.390624.67185-.390626 1.17185-1.03125l1.0938.859374q-1.32815 2.046876-3.9844 2.046876zm-.21875-9.484376q-1.09375 0-1.84375.796876-.7344.796874-.90625 2.234374h5.28125v-.140624q-.0781-1.375-.75-2.125-.65625-.765626-1.78125-.765626zm11.9375.328126q-.40625-.0625-.875-.0625-1.78125 0-2.42185 1.515624v7.5h-1.7969v-10.5625h1.75l.03125 1.21875q.89065-1.421874 2.51565-1.421874.5312 0 .79685.140624zm6.14065 7.671874q.9687 0 1.6875-.578124.7187-.59375.79685-1.46875h1.71875q-.0625.90625-.6406 1.734374-.5625.8125-1.5313 1.3125-.9531.484376-2.0312.484376-2.1563 0-3.4375-1.4375-1.26565-1.453126-1.26565-3.953126v-.296874q0-1.546876.5625-2.75.5625-1.203126 1.625-1.859376 1.0625-.671874 2.5-.671874 1.78125 0 2.95315 1.0625 1.1875 1.0625 1.2656 2.765624h-1.71875q-.07815-1.015624-.78125-1.671874-.6875-.671876-1.71875-.671876-1.375 0-2.14065 1-.75.984376-.75 2.859376v.34375q0 1.828124.75 2.8125.75.984374 2.1563.984374zm7.7187 1.28125h-1.79685v-10.5625h1.79685zm-1.9531-13.375q0-.4375.2656-.734374.2813-.3125.7969-.3125.53125 0 .7969.3125.2812.296874.2812.734374 0 .4375-.2812.734376-.26565.296874-.7969.296874-.5156 0-.7969-.296874-.2656-.296876-.2656-.734376zm11.5156 13.375q-.1562-.3125-.25-1.109374-1.2656 1.3125-3.0156 1.3125-1.5625 0-2.5625-.890626-1-.890624-1-2.25 0-1.640624 1.25-2.546874 1.2656-.921876 3.53125-.921876h1.76565v-.828124q0-.953126-.57815-1.515626-.5625-.5625-1.65625-.5625-.96875 0-1.625.5-.65625.484376-.65625 1.171876h-1.8125q0-.78125.5625-1.515626.5625-.75 1.51565-1.171874.9687-.4375 2.125-.4375 1.8281 0 2.85935.921874 1.03125.90625 1.07815 2.515626v4.859374q0 1.453126.35935 2.3125v.15625zm-3-1.375q.8594 0 1.6094-.4375.7656-.4375 1.1094-1.140624v-2.171876h-1.4219q-3.3125 0-3.3125 1.9375 0 .859376.5625 1.34375.5625.46875 1.4531.46875zm9.4375 1.375h-1.79685v-15h1.79685zm18.7813-4.515624q-.26565 2.265624-1.6719 3.5-1.3906 1.21875-3.71875 1.21875-2.51565 0-4.04685-1.8125-1.51565-1.8125-1.51565-4.84375v-1.359376q0-1.984374.70315-3.484374.7187-1.5 2.0156-2.3125 1.2969-.8125 3.0156-.8125 2.26565 0 3.625 1.265624 1.375 1.265626 1.5938 3.5h-1.89065q-.23435-1.6875-1.0625-2.453124-.8125-.765626-2.26565-.765626-1.79685 0-2.8281 1.328126-1.0156 1.328124-1.0156 3.78125v1.375q0 2.3125.9687 3.6875.9688 1.359374 2.70315 1.359374 1.5625 0 2.39065-.703124.8437-.703126 1.10935-2.46875zm4.2187 4.515624h-1.79685v-15h1.79685zm2.5625-5.375q0-1.5625.6094-2.796874.6094-1.25 1.6875-1.921876 1.09375-.671874 2.5-.671874 2.15625 0 3.4844 1.5 1.3437 1.484374 1.3437 3.96875v.125q0 1.546874-.5937 2.78125-.5938 1.21875-1.70315 1.90625-1.09375.6875-2.51565.6875-2.1406 0-3.48435-1.5-1.32815-1.5-1.32815-3.953126zm1.8125.203126q0 1.765624.8125 2.828124.82815 1.0625 2.1875 1.0625 1.375 0 2.1875-1.078124.8125-1.078126.8125-3.015626 0-1.75-.8281-2.828124-.8281-1.078126-2.1875-1.078126-1.34375 0-2.1719 1.0625-.8125 1.0625-.8125 3.046876zm16.1875 4.125q-1.04685 1.25-3.0937 1.25-1.6875 0-2.57815-.984376-.875-.984374-.89065-2.90625v-6.875h1.8125v6.828126q0 2.390624 1.95315 2.390624 2.0625 0 2.75-1.53125v-7.6875h1.8125v10.5625h-1.71875zm4.0313-4.328126q0-2.421874 1.1562-3.90625 1.1563-1.484374 3.01565-1.484374 1.85935 0 2.9375 1.265624v-5.5h1.8125v15h-1.65625l-.09375-1.140624q-1.07815 1.34375-3.01565 1.34375-1.8281 0-3-1.5-1.1562-1.515626-1.1562-3.9375zm1.8125.203126q0 1.796874.73435 2.8125.75 1.015624 2.0625 1.015624 1.71875 0 2.5-1.53125v-4.859374q-.79685-1.5-2.48435-1.5-1.32815 0-2.07815 1.03125-.73435 1.03125-.73435 3.03125zm15.7812 2.375q0-.734376-.54685-1.140626-.54685-.40625-1.92185-.703124-1.375-.296876-2.1875-.703126-.7969-.40625-1.1875-.96875-.375-.578124-.375-1.359374 0-1.296876 1.0937-2.1875 1.0938-.90625 2.8125-.90625 1.7969 0 2.9063.9375 1.125.921874 1.125 2.359374h-1.82815q0-.734374-.625-1.265624-.625-.546876-1.57815-.546876-1 0-1.5625.4375-.54685.421876-.54685 1.125 0 .640626.51565.984376.5156.328124 1.875.640624 1.35935.296876 2.1875.71875.8437.40625 1.25 1 .4062.59375.4062 1.4375 0 1.421876-1.1406 2.28125-1.125.859376-2.9375.859376-1.2656 0-2.25-.453126-.96875-.453124-1.53125-1.25-.54685-.8125-.54685-1.75h1.8125q.04685.90625.7187 1.4375.6875.53125 1.7969.53125 1.03125 0 1.6406-.40625.625-.421874.625-1.109374z" fill="#d9d9d9"/><path d="m869.5 110.416664c0 3.313716-2.6863 6-6 6s-6-2.686284-6-6c0-3.313704 2.6863-6 6-6s6 2.686296 6 6z" fill="#909"/><path d="m883.8594 114.93229 4.0625-11.734376h2.04685l-5.26565 14.21875h-1.67185l-5.25-14.21875h2.03125zm10.7187-11.734376 4.64065 11.59375 4.65625-11.59375h2.4219v14.21875h-1.875v-5.53125l.1875-5.984374-4.6719 11.515624h-1.4375l-4.65625-11.484374.1875 5.953124v5.53125h-1.875v-14.21875zm20.4375 11.421876q0-.734376-.54685-1.140626-.54685-.40625-1.92185-.703124-1.375-.296876-2.1875-.703126-.7969-.40625-1.1875-.96875-.375-.578124-.375-1.359374 0-1.296876 1.0937-2.1875 1.0938-.90625 2.8125-.90625 1.7969 0 2.9063.9375 1.125.921874 1.125 2.359374h-1.82815q0-.734374-.625-1.265624-.625-.546876-1.57815-.546876-1 0-1.5625.4375-.54685.421876-.54685 1.125 0 .640626.51565.984376.5156.328124 1.875.640624 1.35935.296876 2.1875.71875.8437.40625 1.25 1 .4062.59375.4062 1.4375 0 1.421876-1.1406 2.28125-1.125.859376-2.9375.859376-1.2656 0-2.25-.453126-.96875-.453124-1.53125-1.25-.54685-.8125-.54685-1.75h1.8125q.04685.90625.7187 1.4375.6875.53125 1.7969.53125 1.03125 0 1.6406-.40625.625-.421874.625-1.109374z" fill="#d9d9d9"/><path d="m55.125 63.890625q-1.3125 1.859375-3.640625 2.796875-2.328125.921875-5.421875.921875-3.125 0-5.5625-1.46875-2.421875-1.46875-3.75-4.171875-1.3125-2.71875-1.359375-6.28125v-2.234375q0-5.78125 2.703125-8.96875 2.703125-3.1875 7.578125-3.1875 4.015625 0 6.453125 2.0625 2.453125 2.046875 3 5.796875h-3.375q-.953125-5.078125-6.046875-5.078125-3.40625 0-5.15625 2.390625-1.734375 2.375-1.765625 6.890625v2.09375q0 4.3125 1.96875 6.859375 1.96875 2.53125 5.328125 2.53125 1.90625 0 3.328125-.421875 1.421875-.421875 2.359375-1.421875v-5.75h-5.921875v-2.75h9.28125zm17.328125 3.359375q-.28125-.5625-.453125-2-2.265625 2.359375-5.421875 2.359375-2.8125 0-4.609375-1.59375-1.796875-1.59375-1.796875-4.046875 0-2.96875 2.25-4.609375 2.265625-1.640625 6.359375-1.640625h3.15625v-1.5q0-1.703125-1.015625-2.703125-1.015625-1.015625-3-1.015625-1.75 0-2.921875.875-1.171875.875-1.171875 2.125h-3.28125q0-1.421875 1.015625-2.75 1.015625-1.328125 2.734375-2.09375 1.734375-.78125 3.8125-.78125 3.296875 0 5.15625 1.65625 1.859375 1.640625 1.9375 4.515625v8.75q0 2.625.65625 4.171875v.28125zm-5.390625-2.484375q1.53125 0 2.890625-.78125 1.375-.796875 1.984375-2.0625v-3.90625h-2.546875q-5.96875 0-5.96875 3.5 0 1.53125 1.015625 2.390625 1.015625.859375 2.625.859375zm17.1875 2.484375h-3.25v-27h3.25zm17.203125 0q-.28125-.5625-.453125-2-2.265625 2.359375-5.421875 2.359375-2.8125 0-4.609375-1.59375-1.796875-1.59375-1.796875-4.046875 0-2.96875 2.25-4.609375 2.265625-1.640625 6.359375-1.640625h3.15625v-1.5q0-1.703125-1.015625-2.703125-1.015625-1.015625-3-1.015625-1.75 0-2.921875.875-1.171875.875-1.171875 2.125h-3.28125q0-1.421875 1.015625-2.75 1.015625-1.328125 2.734375-2.09375 1.734375-.78125 3.8125-.78125 3.296875 0 5.15625 1.65625 1.859375 1.640625 1.9375 4.515625v8.75q0 2.625.65625 4.171875v.28125zm-5.390625-2.484375q1.53125 0 2.890625-.78125 1.375-.796875 1.984375-2.0625v-3.90625h-2.546875q-5.96875 0-5.96875 3.5 0 1.53125 1.015625 2.390625 1.015625.859375 2.625.859375zm20.03125-9.59375 4.21875-6.9375h3.796875l-6.21875 9.40625 6.40625 9.609375h-3.75l-4.40625-7.125-4.390625 7.125h-3.78125l6.421875-9.609375-6.21875-9.40625h3.75zm17.84375 7.3125 4.42188-14.25h3.48437l-7.64063 21.953125q-1.78124 4.75-5.64062 4.75l-.625-.0625-1.203125-.21875v-2.640625l.875.0625q1.656245 0 2.578125-.671875.92188-.65625 1.51562-2.4375l.71876-1.9375-6.781255-18.796875h3.546875zm23.65625-5.25v10.015625h-3.375v-25.59375h9.4375q4.20313 0 6.57813 2.140625 2.39062 2.140625 2.39062 5.6875 0 3.71875-2.32812 5.734375-2.32813 2.015625-6.67188 2.015625zm0-2.765625h6.0625q2.71875 0 4.15625-1.265625 1.4375-1.28125 1.4375-3.6875 0-2.28125-1.4375-3.65625-1.4375-1.375-3.95312-1.421875h-6.26563zm22.65625 12.78125h-3.25v-27h3.25zm17.20312 0q-.28124-.5625-.45312-2-2.26562 2.359375-5.42188 2.359375-2.8125 0-4.60937-1.59375-1.79687-1.59375-1.79687-4.046875 0-2.96875 2.25-4.609375 2.26562-1.640625 6.35937-1.640625h3.15625v-1.5q0-1.703125-1.01562-2.703125-1.01563-1.015625-3-1.015625-1.75 0-2.92188.875-1.17188.875-1.17188 2.125h-3.28124q0-1.421875 1.01562-2.75 1.01562-1.328125 2.73438-2.09375 1.73437-.78125 3.8125-.78125 3.29687 0 5.15624 1.65625 1.85938 1.640625 1.9375 4.515625v8.75q0 2.625.65626 4.171875v.28125zm-5.39062-2.484375q1.53125 0 2.89062-.78125 1.375-.796875 1.98438-2.0625v-3.90625h-2.54688q-5.96874 0-5.96874 3.5 0 1.53125 1.01562 2.390625 1.01562.859375 2.625.859375zm18.0625-21.140625v4.609375h3.54688v2.515625h-3.54688v11.78125q0 1.15625.46875 1.734375.48437.5625 1.625.5625.5625 0 1.54687-.21875v2.640625q-1.28124.359375-2.5.359375-2.17187 0-3.28124-1.3125-1.10938-1.328125-1.10938-3.765625v-11.78125h-3.46875v-2.515625h3.46875v-4.609375zm9.1875 23.625v-16.5h-3v-2.515625h3v-1.953125q0-3.0625 1.625-4.734375 1.64062-1.671875 4.625-1.671875 1.125 0 2.23438.296875l-.17188 2.640625q-.82812-.15625-1.75-.15625-1.59375 0-2.45312.921875-.85938.921875-.85938 2.640625v2.015625h4.0625v2.515625h-4.0625v16.5zm10.53125-9.6875q0-2.796875 1.09375-5.03125 1.10938-2.234375 3.0625-3.4375 1.96875-1.21875 4.48438-1.21875 3.875 0 6.28124 2.6875 2.40626 2.6875 2.40626 7.15625v.234375q0 2.78125-1.07813 4.984375-1.0625 2.203125-3.04687 3.4375-1.96876 1.234375-4.53126 1.234375-3.85937 0-6.26562-2.6875-2.40625-2.703125-2.40625-7.125zm3.28125.390625q0 3.15625 1.46875 5.078125 1.46875 1.921875 3.92187 1.921875 2.48438 0 3.9375-1.9375 1.45313-1.953125 1.45313-5.453125 0-3.125-1.48437-5.0625-1.48438-1.953125-3.9375-1.953125-2.40626 0-3.89063 1.921875-1.46875 1.90625-1.46875 5.484375zm27.78125-6.8125q-.73437-.109375-1.59375-.109375-3.20312 0-4.34375 2.71875v13.5h-3.25v-19.015625h3.15625l.04688 2.1875q1.60937-2.546875 4.54687-2.546875.9375 0 1.4375.25zm5.85937-2.90625.09376 2.109375q2.09374-2.46875 5.64062-2.46875 3.98438 0 5.4375 3.0625.9375-1.375 2.45312-2.21875 1.53126-.84375 3.60938-.84375 6.25 0 6.35938 6.625v12.75h-3.25v-12.546875q0-2.046875-.9375-3.046875-.92188-1.015625-3.125-1.015625-1.8125 0-3.01563 1.078125-1.1875 1.078125-1.375 2.90625v12.625h-3.26563v-12.46875q0-4.140625-4.0625-4.140625-3.20312 0-4.375 2.71875v13.890625h-3.26562v-19.015625zm40.01563 13.96875q0-1.3125-1-2.046875-.98437-.734375-3.45313-1.25-2.46874-.53125-3.92187-1.265625-1.45313-.75-2.14063-1.765625-.6875-1.015625-.6875-2.421875 0-2.34375 1.96876-3.953125 1.98437-1.625 5.0625-1.625 3.23437 0 5.23437 1.671875 2.01563 1.671875 2.01563 4.265625h-3.26563q0-1.328125-1.14063-2.296875-1.125-.96875-2.84374-.96875-1.78126 0-2.78126.78125-1 .765625-1 2.015625 0 1.171875.92188 1.78125.9375.59375 3.375 1.140625 2.4375.546875 3.9375 1.296875 1.51562.75 2.23438 1.828125.73437 1.0625.73437 2.578125 0 2.5625-2.04687 4.109375-2.03126 1.53125-5.28126 1.53125-2.28124 0-4.04687-.8125-1.75-.8125-2.75-2.265625-.98437-1.453125-.98437-3.140625h3.25q.09374 1.640625 1.3125 2.609375 1.21874.953125 3.21874.953125 1.84376 0 2.95313-.75 1.125-.75 1.125-2z" fill="#efefef"/></svg>