<svg version="1.1" viewBox="0.0 0.0 819.0 510.0" fill="none" stroke="none" stroke-linecap="square" stroke-miterlimit="10" width="819" height="510" xmlns:xlink="http://www.w3.org/1999/xlink" xmlns="http://www.w3.org/2000/svg"><path fill="#000000" d="M0 0L819.0 0L819.0 510.0L0 510.0L0 0Z" fill-rule="nonzero"/><path stroke="#333333" stroke-width="1.0" stroke-linecap="butt" d="M157.5 116.5L157.5 407.5" fill-rule="nonzero"/><path stroke="#333333" stroke-width="1.0" stroke-linecap="butt" d="M263.5 116.5L263.5 407.5" fill-rule="nonzero"/><path stroke="#333333" stroke-width="1.0" stroke-linecap="butt" d="M370.5 116.5L370.5 407.5" fill-rule="nonzero"/><path stroke="#333333" stroke-width="1.0" stroke-linecap="butt" d="M476.5 116.5L476.5 407.5" fill-rule="nonzero"/><path stroke="#333333" stroke-width="1.0" stroke-linecap="butt" d="M584.5 116.5L584.5 407.5" fill-rule="nonzero"/><path stroke="#333333" stroke-width="1.0" stroke-linecap="butt" d="M690.5 116.5L690.5 407.5" fill-rule="nonzero"/><path stroke="#cccccc" stroke-width="1.0" stroke-linecap="butt" d="M64.5 407.5L793.5 407.5" fill-rule="nonzero"/><path stroke="#333333" stroke-width="1.0" stroke-linecap="butt" d="M64.5 349.5L793.5 349.5" fill-rule="nonzero"/><path stroke="#333333" stroke-width="1.0" stroke-linecap="butt" d="M64.5 290.5L793.5 290.5" fill-rule="nonzero"/><path stroke="#333333" stroke-width="1.0" stroke-linecap="butt" d="M64.5 232.5L793.5 232.5" fill-rule="nonzero"/><path stroke="#333333" stroke-width="1.0" stroke-linecap="butt" d="M64.5 174.5L793.5 174.5" fill-rule="nonzero"/><path stroke="#333333" stroke-width="1.0" stroke-linecap="butt" d="M64.5 116.5L793.5 116.5" fill-rule="nonzero"/><clipPath id="id_0"><path d="M64.5 116.0L793.5 116.0L793.5 407.43207L64.5 407.43207L64.5 116.0Z" clip-rule="nonzero"/></clipPath><path stroke="#4285f4" stroke-width="4.0" stroke-linecap="butt" clip-path="url(#id_0)" d="M163.11354 389.59644C163.11354 389.59644 464.8411 249.20503 498.53955 234.08827C532.238 218.97151 566.7156 205.24245 599.6348 190.2569C632.5541 175.27133 668.97955 154.33246 698.39264 143.16147C727.8057 131.99048 786.6319 118.21488 786.6319 118.21488" fill-rule="nonzero"/><path stroke="#db4437" stroke-width="4.0" stroke-linecap="butt" clip-path="url(#id_0)" d="M71.3681 343.89987C71.3681 343.89987 132.53172 337.2964 163.11354 332.82547C193.69536 328.35452 464.8411 281.04553 498.53955 275.2385C532.238 269.43143 566.7156 263.80524 599.6348 257.75256C632.5541 251.69987 668.97955 243.42238 698.39264 238.51804C727.8057 233.61371 786.6319 226.2779 786.6319 226.2779" fill-rule="nonzero"/><path fill="#4285f4" clip-path="url(#id_0)" d="M167.61354 389.59644C167.61354 392.0817 165.59882 394.09644 163.11354 394.09644C160.62827 394.09644 158.61354 392.0817 158.61354 389.59644C158.61354 387.11115 160.62827 385.09644 163.11354 385.09644C165.59882 385.09644 167.61354 387.11115 167.61354 389.59644Z" fill-rule="nonzero"/><path fill="#4285f4" clip-path="url(#id_0)" d="M503.03955 234.08827C503.03955 236.57356 501.0248 238.58827 498.53955 238.58827C496.05426 238.58827 494.03955 236.57356 494.03955 234.08827C494.03955 231.603 496.05426 229.58827 498.53955 229.58827C501.0248 229.58827 503.03955 231.603 503.03955 234.08827Z" fill-rule="nonzero"/><path fill="#4285f4" clip-path="url(#id_0)" d="M604.1348 190.2569C604.1348 192.74217 602.1201 194.7569 599.6348 194.7569C597.14954 194.7569 595.1348 192.74217 595.1348 190.2569C595.1348 187.7716 597.14954 185.7569 599.6348 185.7569C602.1201 185.7569 604.1348 187.7716 604.1348 190.2569Z" fill-rule="nonzero"/><path fill="#4285f4" clip-path="url(#id_0)" d="M702.89264 143.16147C702.89264 145.64674 700.8779 147.66147 698.39264 147.66147C695.90735 147.66147 693.89264 145.64674 693.89264 143.16147C693.89264 140.6762 695.90735 138.66147 698.39264 138.66147C700.8779 138.66147 702.89264 140.6762 702.89264 143.16147Z" fill-rule="nonzero"/><path fill="#4285f4" clip-path="url(#id_0)" d="M791.1319 118.21488C791.1319 120.700165 789.1172 122.71488 786.6319 122.71488C784.1466 122.71488 782.1319 120.700165 782.1319 118.21488C782.1319 115.7296 784.1466 113.71488 786.6319 113.71488C789.1172 113.71488 791.1319 115.7296 791.1319 118.21488Z" fill-rule="nonzero"/><path fill="#db4437" clip-path="url(#id_0)" d="M75.8681 343.89987C75.8681 346.38516 73.853386 348.39987 71.3681 348.39987C68.88282 348.39987 66.8681 346.38516 66.8681 343.89987C66.8681 341.4146 68.88282 339.39987 71.3681 339.39987C73.853386 339.39987 75.8681 341.4146 75.8681 343.89987Z" fill-rule="nonzero"/><path fill="#db4437" clip-path="url(#id_0)" d="M167.61354 332.82547C167.61354 335.31073 165.59882 337.32547 163.11354 337.32547C160.62827 337.32547 158.61354 335.31073 158.61354 332.82547C158.61354 330.34018 160.62827 328.32547 163.11354 328.32547C165.59882 328.32547 167.61354 330.34018 167.61354 332.82547Z" fill-rule="nonzero"/><path fill="#db4437" clip-path="url(#id_0)" d="M503.03955 275.2385C503.03955 277.72375 501.0248 279.7385 498.53955 279.7385C496.05426 279.7385 494.03955 277.72375 494.03955 275.2385C494.03955 272.7532 496.05426 270.7385 498.53955 270.7385C501.0248 270.7385 503.03955 272.7532 503.03955 275.2385Z" fill-rule="nonzero"/><path fill="#db4437" clip-path="url(#id_0)" d="M604.1348 257.75256C604.1348 260.23785 602.1201 262.25256 599.6348 262.25256C597.14954 262.25256 595.1348 260.23785 595.1348 257.75256C595.1348 255.26727 597.14954 253.25256 599.6348 253.25256C602.1201 253.25256 604.1348 255.26727 604.1348 257.75256Z" fill-rule="nonzero"/><path fill="#db4437" clip-path="url(#id_0)" d="M702.89264 238.51804C702.89264 241.00333 700.8779 243.01804 698.39264 243.01804C695.90735 243.01804 693.89264 241.00333 693.89264 238.51804C693.89264 236.03276 695.90735 234.01804 698.39264 234.01804C700.8779 234.01804 702.89264 236.03276 702.89264 238.51804Z" fill-rule="nonzero"/><path fill="#db4437" clip-path="url(#id_0)" d="M791.1319 226.2779C791.1319 228.76318 789.1172 230.7779 786.6319 230.7779C784.1466 230.7779 782.1319 228.76318 782.1319 226.2779C782.1319 223.79262 784.1466 221.7779 786.6319 221.7779C789.1172 221.7779 791.1319 223.79262 791.1319 226.2779Z" fill-rule="nonzero"/><path fill="#efefef" d="M56.5625 407.68207Q56.5625 409.90082 55.796875 410.99457Q55.046875 412.0727 53.4375 412.0727Q51.84375 412.0727 51.078125 411.02582Q50.3125 409.96332 50.28125 407.85394L50.28125 406.16644Q50.28125 403.97894 51.03125 402.91644Q51.796875 401.83832 53.421875 401.83832Q55.03125 401.83832 55.78125 402.86957Q56.546875 403.90082 56.5625 406.04144L56.5625 407.68207ZM55.296875 405.96332Q55.296875 404.35394 54.84375 403.61957Q54.40625 402.8852 53.421875 402.8852Q52.453125 402.8852 52.0 403.61957Q51.5625 404.33832 51.546875 405.85394L51.546875 407.8852Q51.546875 409.49457 52.015625 410.27582Q52.484375 411.04144 53.4375 411.04144Q54.375 411.04144 54.828125 410.3227Q55.28125 409.58832 55.296875 408.02582L55.296875 405.96332Z" fill-rule="nonzero"/><path fill="#efefef" d="M34.90625 348.6613L35.421875 343.69254L40.515625 343.69254L40.515625 344.8644L36.484375 344.8644L36.1875 347.56754Q36.921875 347.14566 37.84375 347.14566Q39.203125 347.14566 40.0 348.0519Q40.8125 348.94254 40.8125 350.4738Q40.8125 352.00504 39.96875 352.89566Q39.140625 353.7863 37.65625 353.7863Q36.34375 353.7863 35.5 353.0519Q34.671875 352.31754 34.546875 351.02066L35.75 351.02066Q35.859375 351.88004 36.34375 352.31754Q36.84375 352.75504 37.65625 352.75504Q38.53125 352.75504 39.03125 352.1613Q39.546875 351.5519 39.546875 350.4894Q39.546875 349.4894 39.0 348.89566Q38.453125 348.2863 37.546875 348.2863Q36.734375 348.2863 36.25 348.64566L35.921875 348.9113L34.90625 348.6613ZM48.5625 349.39566Q48.5625 351.6144 47.796875 352.70816Q47.046875 353.7863 45.4375 353.7863Q43.84375 353.7863 43.078125 352.7394Q42.3125 351.6769 42.28125 349.56754L42.28125 347.88004Q42.28125 345.69254 43.03125 344.63004Q43.796875 343.5519 45.421875 343.5519Q47.03125 343.5519 47.78125 344.58316Q48.546875 345.6144 48.5625 347.75504L48.5625 349.39566ZM47.296875 347.6769Q47.296875 346.06754 46.84375 345.33316Q46.40625 344.5988 45.421875 344.5988Q44.453125 344.5988 44.0 345.33316Q43.5625 346.0519 43.546875 347.56754L43.546875 349.5988Q43.546875 351.20816 44.015625 351.9894Q44.484375 352.75504 45.4375 352.75504Q46.375 352.75504 46.828125 352.0363Q47.28125 351.3019 47.296875 349.7394L47.296875 347.6769ZM56.5625 349.39566Q56.5625 351.6144 55.796875 352.70816Q55.046875 353.7863 53.4375 353.7863Q51.84375 353.7863 51.078125 352.7394Q50.3125 351.6769 50.28125 349.56754L50.28125 347.88004Q50.28125 345.69254 51.03125 344.63004Q51.796875 343.5519 53.421875 343.5519Q55.03125 343.5519 55.78125 344.58316Q56.546875 345.6144 56.5625 347.75504L56.5625 349.39566ZM55.296875 347.6769Q55.296875 346.06754 54.84375 345.33316Q54.40625 344.5988 53.421875 344.5988Q52.453125 344.5988 52.0 345.33316Q51.5625 346.0519 51.546875 347.56754L51.546875 349.5988Q51.546875 351.20816 52.015625 351.9894Q52.484375 352.75504 53.4375 352.75504Q54.375 352.75504 54.828125 352.0363Q55.28125 351.3019 55.296875 349.7394L55.296875 347.6769Z" fill-rule="nonzero"/><path fill="#efefef" d="M30.484375 295.35925L29.21875 295.35925L29.21875 286.93738L26.65625 287.85925L26.65625 286.71863L30.28125 285.35925L30.484375 285.35925L30.484375 295.35925ZM40.5625 291.10925Q40.5625 293.328 39.796875 294.42175Q39.046875 295.49988 37.4375 295.49988Q35.84375 295.49988 35.078125 294.453Q34.3125 293.3905 34.28125 291.28113L34.28125 289.59363Q34.28125 287.40613 35.03125 286.34363Q35.796875 285.2655 37.421875 285.2655Q39.03125 285.2655 39.78125 286.29675Q40.546875 287.328 40.5625 289.46863L40.5625 291.10925ZM39.296875 289.3905Q39.296875 287.78113 38.84375 287.04675Q38.40625 286.31238 37.421875 286.31238Q36.453125 286.31238 36.0 287.04675Q35.5625 287.7655 35.546875 289.28113L35.546875 291.31238Q35.546875 292.92175 36.015625 293.703Q36.484375 294.46863 37.4375 294.46863Q38.375 294.46863 38.828125 293.74988Q39.28125 293.0155 39.296875 291.453L39.296875 289.3905ZM48.5625 291.10925Q48.5625 293.328 47.796875 294.42175Q47.046875 295.49988 45.4375 295.49988Q43.84375 295.49988 43.078125 294.453Q42.3125 293.3905 42.28125 291.28113L42.28125 289.59363Q42.28125 287.40613 43.03125 286.34363Q43.796875 285.2655 45.421875 285.2655Q47.03125 285.2655 47.78125 286.29675Q48.546875 287.328 48.5625 289.46863L48.5625 291.10925ZM47.296875 289.3905Q47.296875 287.78113 46.84375 287.04675Q46.40625 286.31238 45.421875 286.31238Q44.453125 286.31238 44.0 287.04675Q43.5625 287.7655 43.546875 289.28113L43.546875 291.31238Q43.546875 292.92175 44.015625 293.703Q44.484375 294.46863 45.4375 294.46863Q46.375 294.46863 46.828125 293.74988Q47.28125 293.0155 47.296875 291.453L47.296875 289.3905ZM56.5625 291.10925Q56.5625 293.328 55.796875 294.42175Q55.046875 295.49988 53.4375 295.49988Q51.84375 295.49988 51.078125 294.453Q50.3125 293.3905 50.28125 291.28113L50.28125 289.59363Q50.28125 287.40613 51.03125 286.34363Q51.796875 285.2655 53.421875 285.2655Q55.03125 285.2655 55.78125 286.29675Q56.546875 287.328 56.5625 289.46863L56.5625 291.10925ZM55.296875 289.3905Q55.296875 287.78113 54.84375 287.04675Q54.40625 286.31238 53.421875 286.31238Q52.453125 286.31238 52.0 287.04675Q51.5625 287.7655 51.546875 289.28113L51.546875 291.31238Q51.546875 292.92175 52.015625 293.703Q52.484375 294.46863 53.4375 294.46863Q54.375 294.46863 54.828125 293.74988Q55.28125 293.0155 55.296875 291.453L55.296875 289.3905Z" fill-rule="nonzero"/><path fill="#efefef" d="M30.484375 237.07283L29.21875 237.07283L29.21875 228.65096L26.65625 229.57283L26.65625 228.4322L30.28125 227.07283L30.484375 227.07283L30.484375 237.07283ZM34.90625 232.08846L35.421875 227.1197L40.515625 227.1197L40.515625 228.29158L36.484375 228.29158L36.1875 230.9947Q36.921875 230.57283 37.84375 230.57283Q39.203125 230.57283 40.0 231.47908Q40.8125 232.3697 40.8125 233.90096Q40.8125 235.4322 39.96875 236.32283Q39.140625 237.21346 37.65625 237.21346Q36.34375 237.21346 35.5 236.47908Q34.671875 235.7447 34.546875 234.44783L35.75 234.44783Q35.859375 235.3072 36.34375 235.7447Q36.84375 236.1822 37.65625 236.1822Q38.53125 236.1822 39.03125 235.58846Q39.546875 234.97908 39.546875 233.91658Q39.546875 232.91658 39.0 232.32283Q38.453125 231.71346 37.546875 231.71346Q36.734375 231.71346 36.25 232.07283L35.921875 232.33846L34.90625 232.08846ZM48.5625 232.82283Q48.5625 235.04158 47.796875 236.13533Q47.046875 237.21346 45.4375 237.21346Q43.84375 237.21346 43.078125 236.16658Q42.3125 235.10408 42.28125 232.9947L42.28125 231.3072Q42.28125 229.1197 43.03125 228.0572Q43.796875 226.97908 45.421875 226.97908Q47.03125 226.97908 47.78125 228.01033Q48.546875 229.04158 48.5625 231.1822L48.5625 232.82283ZM47.296875 231.10408Q47.296875 229.4947 46.84375 228.76033Q46.40625 228.02596 45.421875 228.02596Q44.453125 228.02596 44.0 228.76033Q43.5625 229.47908 43.546875 230.9947L43.546875 233.02596Q43.546875 234.63533 44.015625 235.41658Q44.484375 236.1822 45.4375 236.1822Q46.375 236.1822 46.828125 235.46346Q47.28125 234.72908 47.296875 233.16658L47.296875 231.10408ZM56.5625 232.82283Q56.5625 235.04158 55.796875 236.13533Q55.046875 237.21346 53.4375 237.21346Q51.84375 237.21346 51.078125 236.16658Q50.3125 235.10408 50.28125 232.9947L50.28125 231.3072Q50.28125 229.1197 51.03125 228.0572Q51.796875 226.97908 53.421875 226.97908Q55.03125 226.97908 55.78125 228.01033Q56.546875 229.04158 56.5625 231.1822L56.5625 232.82283ZM55.296875 231.10408Q55.296875 229.4947 54.84375 228.76033Q54.40625 228.02596 53.421875 228.02596Q52.453125 228.02596 52.0 228.76033Q51.5625 229.47908 51.546875 230.9947L51.546875 233.02596Q51.546875 234.63533 52.015625 235.41658Q52.484375 236.1822 53.4375 236.1822Q54.375 236.1822 54.828125 235.46346Q55.28125 234.72908 55.296875 233.16658L55.296875 231.10408Z" fill-rule="nonzero"/><path fill="#efefef" d="M32.84375 178.7864L26.328125 178.7864L26.328125 177.88016L29.765625 174.05203Q30.53125 173.17703 30.828125 172.64578Q31.125 172.0989 31.125 171.50516Q31.125 170.73953 30.640625 170.23953Q30.171875 169.73953 29.390625 169.73953Q28.453125 169.73953 27.921875 170.27078Q27.40625 170.80203 27.40625 171.77078L26.140625 171.77078Q26.140625 170.39578 27.015625 169.55203Q27.90625 168.69266 29.390625 168.69266Q30.78125 168.69266 31.578125 169.42703Q32.390625 170.14578 32.390625 171.36453Q32.390625 172.83328 30.515625 174.86453L27.859375 177.75516L32.84375 177.75516L32.84375 178.7864ZM40.5625 174.5364Q40.5625 176.75516 39.796875 177.8489Q39.046875 178.92703 37.4375 178.92703Q35.84375 178.92703 35.078125 177.88016Q34.3125 176.81766 34.28125 174.70828L34.28125 173.02078Q34.28125 170.83328 35.03125 169.77078Q35.796875 168.69266 37.421875 168.69266Q39.03125 168.69266 39.78125 169.7239Q40.546875 170.75516 40.5625 172.89578L40.5625 174.5364ZM39.296875 172.81766Q39.296875 171.20828 38.84375 170.4739Q38.40625 169.73953 37.421875 169.73953Q36.453125 169.73953 36.0 170.4739Q35.5625 171.19266 35.546875 172.70828L35.546875 174.73953Q35.546875 176.3489 36.015625 177.13016Q36.484375 177.89578 37.4375 177.89578Q38.375 177.89578 38.828125 177.17703Q39.28125 176.44266 39.296875 174.88016L39.296875 172.81766ZM48.5625 174.5364Q48.5625 176.75516 47.796875 177.8489Q47.046875 178.92703 45.4375 178.92703Q43.84375 178.92703 43.078125 177.88016Q42.3125 176.81766 42.28125 174.70828L42.28125 173.02078Q42.28125 170.83328 43.03125 169.77078Q43.796875 168.69266 45.421875 168.69266Q47.03125 168.69266 47.78125 169.7239Q48.546875 170.75516 48.5625 172.89578L48.5625 174.5364ZM47.296875 172.81766Q47.296875 171.20828 46.84375 170.4739Q46.40625 169.73953 45.421875 169.73953Q44.453125 169.73953 44.0 170.4739Q43.5625 171.19266 43.546875 172.70828L43.546875 174.73953Q43.546875 176.3489 44.015625 177.13016Q44.484375 177.89578 45.4375 177.89578Q46.375 177.89578 46.828125 177.17703Q47.28125 176.44266 47.296875 174.88016L47.296875 172.81766ZM56.5625 174.5364Q56.5625 176.75516 55.796875 177.8489Q55.046875 178.92703 53.4375 178.92703Q51.84375 178.92703 51.078125 177.88016Q50.3125 176.81766 50.28125 174.70828L50.28125 173.02078Q50.28125 170.83328 51.03125 169.77078Q51.796875 168.69266 53.421875 168.69266Q55.03125 168.69266 55.78125 169.7239Q56.546875 170.75516 56.5625 172.89578L56.5625 174.5364ZM55.296875 172.81766Q55.296875 171.20828 54.84375 170.4739Q54.40625 169.73953 53.421875 169.73953Q52.453125 169.73953 52.0 170.4739Q51.5625 171.19266 51.546875 172.70828L51.546875 174.73953Q51.546875 176.3489 52.015625 177.13016Q52.484375 177.89578 53.4375 177.89578Q54.375 177.89578 54.828125 177.17703Q55.28125 176.44266 55.296875 174.88016L55.296875 172.81766Z" fill-rule="nonzero"/><path fill="#efefef" d="M32.84375 120.5L26.328125 120.5L26.328125 119.59375L29.765625 115.765625Q30.53125 114.890625 30.828125 114.359375Q31.125 113.8125 31.125 113.21875Q31.125 112.453125 30.640625 111.953125Q30.171875 111.453125 29.390625 111.453125Q28.453125 111.453125 27.921875 111.984375Q27.40625 112.515625 27.40625 113.484375L26.140625 113.484375Q26.140625 112.109375 27.015625 111.265625Q27.90625 110.40625 29.390625 110.40625Q30.78125 110.40625 31.578125 111.140625Q32.390625 111.859375 32.390625 113.078125Q32.390625 114.546875 30.515625 116.578125L27.859375 119.46875L32.84375 119.46875L32.84375 120.5ZM34.90625 115.515625L35.421875 110.546875L40.515625 110.546875L40.515625 111.71875L36.484375 111.71875L36.1875 114.421875Q36.921875 114.0 37.84375 114.0Q39.203125 114.0 40.0 114.90625Q40.8125 115.796875 40.8125 117.328125Q40.8125 118.859375 39.96875 119.75Q39.140625 120.640625 37.65625 120.640625Q36.34375 120.640625 35.5 119.90625Q34.671875 119.171875 34.546875 117.875L35.75 117.875Q35.859375 118.734375 36.34375 119.171875Q36.84375 119.609375 37.65625 119.609375Q38.53125 119.609375 39.03125 119.015625Q39.546875 118.40625 39.546875 117.34375Q39.546875 116.34375 39.0 115.75Q38.453125 115.140625 37.546875 115.140625Q36.734375 115.140625 36.25 115.5L35.921875 115.765625L34.90625 115.515625ZM48.5625 116.25Q48.5625 118.46875 47.796875 119.5625Q47.046875 120.640625 45.4375 120.640625Q43.84375 120.640625 43.078125 119.59375Q42.3125 118.53125 42.28125 116.421875L42.28125 114.734375Q42.28125 112.546875 43.03125 111.484375Q43.796875 110.40625 45.421875 110.40625Q47.03125 110.40625 47.78125 111.4375Q48.546875 112.46875 48.5625 114.609375L48.5625 116.25ZM47.296875 114.53125Q47.296875 112.921875 46.84375 112.1875Q46.40625 111.453125 45.421875 111.453125Q44.453125 111.453125 44.0 112.1875Q43.5625 112.90625 43.546875 114.421875L43.546875 116.453125Q43.546875 118.0625 44.015625 118.84375Q44.484375 119.609375 45.4375 119.609375Q46.375 119.609375 46.828125 118.890625Q47.28125 118.15625 47.296875 116.59375L47.296875 114.53125ZM56.5625 116.25Q56.5625 118.46875 55.796875 119.5625Q55.046875 120.640625 53.4375 120.640625Q51.84375 120.640625 51.078125 119.59375Q50.3125 118.53125 50.28125 116.421875L50.28125 114.734375Q50.28125 112.546875 51.03125 111.484375Q51.796875 110.40625 53.421875 110.40625Q55.03125 110.40625 55.78125 111.4375Q56.546875 112.46875 56.5625 114.609375L56.5625 116.25ZM55.296875 114.53125Q55.296875 112.921875 54.84375 112.1875Q54.40625 111.453125 53.421875 111.453125Q52.453125 111.453125 52.0 112.1875Q51.5625 112.90625 51.546875 114.421875L51.546875 116.453125Q51.546875 118.0625 52.015625 118.84375Q52.484375 119.609375 53.4375 119.609375Q54.375 119.609375 54.828125 118.890625Q55.28125 118.15625 55.296875 116.59375L55.296875 114.53125Z" fill-rule="nonzero"/><path fill="#efefef" d="M131.08887 480.39014L127.83106 486.0328L127.04623 485.57968L125.44972 480.68866Q125.07476 479.5881 124.76312 479.0654Q124.43795 478.53485 123.92375 478.23798Q123.2607 477.85516 122.585495 478.02466Q121.91811 478.1806 121.52749 478.85718Q121.05874 479.66907 121.25319 480.39478Q121.45545 481.10693 122.29441 481.5913L121.6616 482.68738Q120.47082 481.99988 120.177605 480.82025Q119.87868 479.61926 120.620865 478.33374Q121.31618 477.12943 122.3506 476.8065Q123.37931 476.46222 124.43478 477.0716Q125.70675 477.80597 126.528366 480.4454L127.7036 484.1911L130.19579 479.8745L131.08887 480.39014ZM131.26764 471.58047Q133.18913 472.68985 133.75354 473.89978Q134.31223 475.08838 133.50754 476.48212Q132.71066 477.86237 131.42122 478.00198Q130.11826 478.13376 128.27586 477.10614L126.814445 476.2624Q124.92001 475.16864 124.37486 473.98788Q123.82399 472.78577 124.63649 471.37848Q125.44118 469.9847 126.70927 469.85083Q127.98517 469.7034 129.84682 470.76016L131.26764 471.58047ZM129.14635 471.81717Q127.75259 471.01248 126.89004 471.03772Q126.0353 471.0494 125.54311 471.90192Q125.05874 472.74088 125.46816 473.5005Q125.871864 474.23874 127.17662 475.01007L128.93573 476.0257Q130.3295 476.83038 131.24045 476.81506Q132.13788 476.79193 132.61444 475.9665Q133.08319 475.1546 132.6873 474.4028Q132.27788 473.64322 130.93253 472.84842L129.14635 471.81717ZM137.90918 468.577L137.27637 469.67307L129.98282 465.46213L129.49992 468.14224L128.51212 467.57193L129.14737 463.7529L129.24893 463.577L137.90918 468.577ZM138.46407 458.8659Q138.67471 459.43857 138.65056 460.07413Q138.6207 460.6884 138.29257 461.2567Q137.86288 462.00095 137.17722 462.34482Q136.49155 462.68866 135.65662 462.60355Q134.80817 462.51062 134.0098 462.04968Q133.14377 461.54968 132.64116 460.82648Q132.12502 460.0955 132.11122 459.2756Q132.09743 458.45575 132.55836 457.65738Q133.30055 456.3719 134.68318 456.19586Q136.07361 456.00632 137.72447 456.95944L138.03569 457.13913Q140.55258 458.59225 141.13818 460.26547Q141.71806 461.91733 140.58105 463.94916L140.45605 464.16568L139.5359 463.63443L139.67653 463.39087Q140.43073 462.02206 140.1682 460.91428Q139.89996 459.78513 138.46407 458.8659ZM137.4875 460.55734Q137.80782 460.00256 137.73515 459.34717Q137.6703 458.67825 137.29463 458.17267L136.86162 457.92267Q135.77908 457.29767 134.8426 457.3885Q133.89258 457.47147 133.48633 458.1751Q133.06445 458.90582 133.36143 459.67267Q133.65271 460.41818 134.55933 460.94162Q135.45241 461.45724 136.26292 461.36588Q137.08125 461.261 137.4875 460.55734ZM144.7628 458.42493L144.22374 459.3586L136.93796 450.35294L137.47702 449.41928L144.7628 458.42493ZM146.26764 445.59973Q148.18913 446.7091 148.75354 447.91904Q149.31223 449.1076 148.50754 450.50137Q147.71066 451.8816 146.42122 452.0212Q145.11826 452.153 143.27586 451.1254L141.81444 450.28165Q139.92001 449.1879 139.37486 448.0071Q138.82399 446.805 139.63649 445.3977Q140.44118 444.00397 141.70926 443.87006Q142.98517 443.72263 144.84682 444.77942L146.26764 445.59973ZM144.14635 445.83643Q142.75258 445.03174 141.89003 445.05695Q141.0353 445.06866 140.5431 445.92114Q140.05873 446.7601 140.46815 447.5197Q140.87187 448.25797 142.17662 449.02933L143.93573 450.04495Q145.3295 450.84964 146.24045 450.83432Q147.13788 450.8112 147.61444 449.98575Q148.08319 449.17386 147.6873 448.42206Q147.27788 447.66245 145.93253 446.86768L144.14635 445.83643ZM152.90918 442.59622L152.27637 443.6923L144.98282 439.48135L144.49992 442.1615L143.51212 441.5912L144.14737 437.77216L144.24893 437.59622L152.90918 442.59622ZM155.7628 439.37238L155.22374 440.30606L147.93796 431.30038L148.47702 430.3667L155.7628 439.37238ZM157.26764 426.54718Q159.18913 427.65656 159.75354 428.86646Q160.31223 430.05505 159.50754 431.44882Q158.71066 432.82904 157.42122 432.96866Q156.11826 433.10046 154.27586 432.0728L152.81444 431.22906Q150.92001 430.1353 150.37486 428.95456Q149.82399 427.75244 150.63649 426.34515Q151.44118 424.9514 152.70926 424.8175Q153.98517 424.67007 155.84682 425.72687L157.26764 426.54718ZM155.14635 426.78384Q153.75258 425.97916 152.89003 426.0044Q152.0353 426.01608 151.5431 426.8686Q151.05873 427.70755 151.46815 428.46716Q151.87187 429.2054 153.17662 429.97678L154.93573 430.9924Q156.3295 431.7971 157.24045 431.78174Q158.13788 431.7586 158.61444 430.9332Q159.08319 430.12128 158.6873 429.3695Q158.27788 428.6099 156.93253 427.8151L155.14635 426.78384ZM163.90918 423.54367L163.27637 424.63974L155.98282 420.4288L155.49992 423.10892L154.51212 422.5386L155.14737 418.71957L155.24893 418.54367L163.90918 423.54367Z" fill-rule="nonzero"/><path fill="#efefef" d="M236.85909 480.39014L233.60127 486.0328L232.81644 485.57968L231.21994 480.68866Q230.84497 479.5881 230.53334 479.0654Q230.20818 478.53485 229.69397 478.23798Q229.03091 477.85516 228.35571 478.02466Q227.68832 478.1806 227.2977 478.85718Q226.82895 479.66907 227.0234 480.39478Q227.22566 481.10693 228.06464 481.5913L227.43182 482.68738Q226.24103 481.99988 225.94783 480.82025Q225.6489 479.61926 226.39108 478.33374Q227.0864 477.12943 228.12082 476.8065Q229.14952 476.46222 230.205 477.0716Q231.47697 477.80597 232.29858 480.4454L233.47382 484.1911L235.966 479.8745L236.85909 480.39014ZM237.03786 471.58047Q238.95935 472.68985 239.52376 473.89978Q240.08244 475.08838 239.27776 476.48212Q238.48088 477.86237 237.19144 478.00198Q235.88847 478.13376 234.04608 477.10614L232.58466 476.2624Q230.69023 475.16864 230.14508 473.98788Q229.59421 472.78577 230.40671 471.37848Q231.2114 469.9847 232.47948 469.85083Q233.75539 469.7034 235.61703 470.76016L237.03786 471.58047ZM234.91656 471.81717Q233.5228 471.01248 232.66025 471.03772Q231.80551 471.0494 231.31332 471.90192Q230.82895 472.74088 231.23837 473.5005Q231.64209 474.23874 232.94684 475.01007L234.70595 476.0257Q236.09972 476.83038 237.01067 476.81506Q237.9081 476.79193 238.38466 475.9665Q238.85341 475.1546 238.45752 474.4028Q238.0481 473.64322 236.70274 472.84842L234.91656 471.81717ZM243.6794 468.577L243.04659 469.67307L235.75304 465.46213L235.27014 468.14224L234.28233 467.57193L234.91759 463.7529L235.01915 463.577L243.6794 468.577ZM244.23428 458.8659Q244.44493 459.43857 244.42078 460.07413Q244.39091 460.6884 244.06279 461.2567Q243.6331 462.00095 242.94743 462.34482Q242.26176 462.68866 241.42683 462.60355Q240.57838 462.51062 239.78001 462.04968Q238.91399 461.54968 238.41138 460.82648Q237.89523 460.0955 237.88144 459.2756Q237.86765 458.45575 238.32858 457.65738Q239.07077 456.3719 240.4534 456.19586Q241.84383 456.00632 243.49469 456.95944L243.80591 457.13913Q246.3228 458.59225 246.9084 460.26547Q247.48828 461.91733 246.35127 463.94916L246.22627 464.16568L245.30612 463.63443L245.44675 463.39087Q246.20094 462.02206 245.93842 460.91428Q245.67018 459.78513 244.23428 458.8659ZM243.25772 460.55734Q243.57803 460.00256 243.50537 459.34717Q243.44052 458.67825 243.06485 458.17267L242.63184 457.92267Q241.5493 457.29767 240.61282 457.3885Q239.6628 457.47147 239.25655 458.1751Q238.83467 458.90582 239.13165 459.67267Q239.42293 460.41818 240.32954 460.94162Q241.22263 461.45724 242.03314 461.36588Q242.85147 461.261 243.25772 460.55734ZM250.53302 458.42493L249.99396 459.3586L242.70818 450.35294L243.24724 449.41928L250.53302 458.42493ZM252.03786 445.59973Q253.95935 446.7091 254.52376 447.91904Q255.08244 449.1076 254.27776 450.50137Q253.48088 451.8816 252.19144 452.0212Q250.88847 452.153 249.04608 451.1254L247.58466 450.28165Q245.69023 449.1879 245.14508 448.0071Q244.59421 446.805 245.40671 445.3977Q246.2114 444.00397 247.47948 443.87006Q248.75539 443.72263 250.61703 444.77942L252.03786 445.59973ZM249.91656 445.83643Q248.5228 445.03174 247.66025 445.05695Q246.80551 445.06866 246.31332 445.92114Q245.82895 446.7601 246.23837 447.5197Q246.64209 448.25797 247.94684 449.02933L249.70595 450.04495Q251.09972 450.84964 252.01067 450.83432Q252.9081 450.8112 253.38466 449.98575Q253.85341 449.17386 253.45752 448.42206Q253.0481 447.66245 251.70274 446.86768L249.91656 445.83643ZM251.80148 436.00916L257.74973 444.2065L257.09348 445.34317L251.41377 437.3369L248.72627 441.99182L247.83318 441.4762L251.19255 435.6576L251.80148 436.00916ZM261.53302 439.37238L260.99396 440.30606L253.70818 431.30038L254.24724 430.3667L261.53302 439.37238ZM263.03784 426.54718Q264.95935 427.65656 265.52374 428.86646Q266.08243 430.05505 265.27774 431.44882Q264.48087 432.82904 263.19144 432.96866Q261.8885 433.10046 260.04608 432.0728L258.58466 431.22906Q256.69022 430.1353 256.14508 428.95456Q255.59421 427.75244 256.4067 426.34515Q257.2114 424.9514 258.4795 424.8175Q259.75537 424.67007 261.61703 425.72687L263.03784 426.54718ZM260.91656 426.78384Q259.5228 425.97916 258.66025 426.0044Q257.8055 426.01608 257.31332 426.8686Q256.82895 427.70755 257.23837 428.46716Q257.6421 429.2054 258.94684 429.97678L260.70596 430.9924Q262.0997 431.7971 263.01068 431.78174Q263.9081 431.7586 264.38467 430.9332Q264.85342 430.12128 264.45752 429.3695Q264.0481 428.6099 262.70273 427.8151L260.91656 426.78384ZM269.6794 423.54367L269.0466 424.63974L261.75302 420.4288L261.27014 423.10892L260.28235 422.5386L260.91757 418.71957L261.01913 418.54367L269.6794 423.54367Z" fill-rule="nonzero"/><path fill="#efefef" d="M344.38242 480.39014L341.1246 486.0328L340.33975 485.57968L338.74326 480.68866Q338.3683 479.5881 338.05664 479.0654Q337.73148 478.53485 337.2173 478.23798Q336.55423 477.85516 335.87903 478.02466Q335.21164 478.1806 334.821 478.85718Q334.35226 479.66907 334.54672 480.39478Q334.749 481.10693 335.58795 481.5913L334.95514 482.68738Q333.76434 481.99988 333.47113 480.82025Q333.1722 479.61926 333.9144 478.33374Q334.6097 477.12943 335.64413 476.8065Q336.67285 476.46222 337.7283 477.0716Q339.00027 477.80597 339.8219 480.4454L340.99713 484.1911L343.48932 479.8745L344.38242 480.39014ZM344.56116 471.58047Q346.48267 472.68985 347.04706 473.89978Q347.60574 475.08838 346.80106 476.48212Q346.00418 477.86237 344.71475 478.00198Q343.4118 478.13376 341.5694 477.10614L340.10797 476.2624Q338.21353 475.16864 337.6684 473.98788Q337.11752 472.78577 337.93002 471.37848Q338.7347 469.9847 340.0028 469.85083Q341.2787 469.7034 343.14035 470.76016L344.56116 471.58047ZM342.43988 471.81717Q341.0461 471.01248 340.18356 471.03772Q339.32883 471.0494 338.83664 471.90192Q338.35226 472.74088 338.7617 473.5005Q339.1654 474.23874 340.47015 475.01007L342.22928 476.0257Q343.62302 476.83038 344.534 476.81506Q345.43143 476.79193 345.908 475.9665Q346.37674 475.1546 345.98083 474.4028Q345.5714 473.64322 344.22604 472.84842L342.43988 471.81717ZM352.38242 466.53372L349.1246 472.17642L348.33975 471.7233L346.74326 466.83228Q346.3683 465.73172 346.05664 465.20898Q345.73148 464.67844 345.2173 464.38156Q344.55423 463.99875 343.87903 464.16824Q343.21164 464.3242 342.821 465.00076Q342.35226 465.81268 342.54672 466.53836Q342.749 467.25055 343.58795 467.73492L342.95514 468.831Q341.76434 468.1435 341.47113 466.96384Q341.1722 465.76285 341.9144 464.47733Q342.6097 463.273 343.64413 462.9501Q344.67285 462.60583 345.7283 463.2152Q347.00027 463.9496 347.8219 466.589L348.99713 470.3347L351.48932 466.0181L352.38242 466.53372ZM352.56116 457.7241Q354.48267 458.83347 355.04706 460.0434Q355.60574 461.23196 354.80106 462.62573Q354.00418 464.00595 352.71475 464.14557Q351.4118 464.27737 349.5694 463.24976L348.10797 462.406Q346.21353 461.31226 345.6684 460.13147Q345.11752 458.92935 345.93002 457.52206Q346.7347 456.1283 348.0028 455.99442Q349.2787 455.847 351.14035 456.90378L352.56116 457.7241ZM350.43988 457.9608Q349.0461 457.1561 348.18356 457.1813Q347.32883 457.19302 346.83664 458.0455Q346.35226 458.88446 346.7617 459.64407Q347.1654 460.38232 348.47015 461.1537L350.22928 462.1693Q351.62302 462.974 352.534 462.95868Q353.43143 462.93552 353.908 462.1101Q354.37674 461.2982 353.98083 460.54642Q353.5714 459.7868 352.22604 458.99203L350.43988 457.9608ZM358.05634 458.42493L357.51727 459.3586L350.2315 450.35294L350.77057 449.41928L358.05634 458.42493ZM359.56116 445.59973Q361.48267 446.7091 362.04706 447.91904Q362.60574 449.1076 361.80106 450.50137Q361.00418 451.8816 359.71475 452.0212Q358.4118 452.153 356.5694 451.1254L355.10797 450.28165Q353.21353 449.1879 352.6684 448.0071Q352.11752 446.805 352.93002 445.3977Q353.7347 444.00397 355.0028 443.87006Q356.2787 443.72263 358.14035 444.77942L359.56116 445.59973ZM357.43988 445.83643Q356.0461 445.03174 355.18356 445.05695Q354.32883 445.06866 353.83664 445.92114Q353.35226 446.7601 353.7617 447.5197Q354.1654 448.25797 355.47015 449.02933L357.22928 450.04495Q358.62302 450.84964 359.534 450.83432Q360.43143 450.8112 360.908 449.98575Q361.37674 449.17386 360.98083 448.42206Q360.5714 447.66245 359.22604 446.86768L357.43988 445.83643ZM366.20273 442.59622L365.56992 443.6923L358.27634 439.48135L357.79346 442.1615L356.80566 441.5912L357.4409 437.77216L357.54245 437.59622L366.20273 442.59622ZM369.05634 439.37238L368.51727 440.30606L361.2315 431.30038L361.77057 430.3667L369.05634 439.37238ZM370.56116 426.54718Q372.48267 427.65656 373.04706 428.86646Q373.60574 430.05505 372.80106 431.44882Q372.00418 432.82904 370.71475 432.96866Q369.4118 433.10046 367.5694 432.0728L366.10797 431.22906Q364.21353 430.1353 363.6684 428.95456Q363.11752 427.75244 363.93002 426.34515Q364.7347 424.9514 366.0028 424.8175Q367.2787 424.67007 369.14035 425.72687L370.56116 426.54718ZM368.43988 426.78384Q367.0461 425.97916 366.18356 426.0044Q365.32883 426.01608 364.83664 426.8686Q364.35226 427.70755 364.7617 428.46716Q365.1654 429.2054 366.47015 429.97678L368.22928 430.9924Q369.62302 431.7971 370.534 431.78174Q371.43143 431.7586 371.908 430.9332Q372.37674 430.12128 371.98083 429.3695Q371.5714 428.6099 370.22604 427.8151L368.43988 426.78384ZM377.20273 423.54367L376.56992 424.63974L369.27634 420.4288L368.79346 423.10892L367.80566 422.5386L368.4409 418.71957L368.54245 418.54367L377.20273 423.54367Z" fill-rule="nonzero"/><path fill="#efefef" d="M450.737 480.39014L447.4792 486.0328L446.69434 485.57968L445.09784 480.68866Q444.72287 479.5881 444.41122 479.0654Q444.08606 478.53485 443.57187 478.23798Q442.9088 477.85516 442.2336 478.02466Q441.56622 478.1806 441.1756 478.85718Q440.70685 479.66907 440.9013 480.39478Q441.10358 481.10693 441.94254 481.5913L441.30972 482.68738Q440.11893 481.99988 439.8257 480.82025Q439.5268 479.61926 440.26898 478.33374Q440.9643 477.12943 441.99872 476.8065Q443.02744 476.46222 444.0829 477.0716Q445.35486 477.80597 446.17648 480.4454L447.3517 484.1911L449.8439 479.8745L450.737 480.39014ZM450.91574 471.58047Q452.83725 472.68985 453.40164 473.89978Q453.96033 475.08838 453.15564 476.48212Q452.35876 477.86237 451.06934 478.00198Q449.7664 478.13376 447.92398 477.10614L446.46255 476.2624Q444.56815 475.16864 444.02298 473.98788Q443.4721 472.78577 444.2846 471.37848Q445.0893 469.9847 446.3574 469.85083Q447.63327 469.7034 449.49493 470.76016L450.91574 471.58047ZM448.79446 471.81717Q447.4007 471.01248 446.53815 471.03772Q445.6834 471.0494 445.19122 471.90192Q444.70685 472.74088 445.11627 473.5005Q445.52 474.23874 446.82474 475.01007L448.58386 476.0257Q449.9776 476.83038 450.88858 476.81506Q451.786 476.79193 452.26257 475.9665Q452.73132 475.1546 452.33542 474.4028Q451.926 473.64322 450.58063 472.84842L448.79446 471.81717ZM458.737 466.53372L455.4792 472.17642L454.69434 471.7233L453.09784 466.83228Q452.72287 465.73172 452.41122 465.20898Q452.08606 464.67844 451.57187 464.38156Q450.9088 463.99875 450.2336 464.16824Q449.56622 464.3242 449.1756 465.00076Q448.70685 465.81268 448.9013 466.53836Q449.10358 467.25055 449.94254 467.73492L449.30972 468.831Q448.11893 468.1435 447.8257 466.96384Q447.5268 465.76285 448.26898 464.47733Q448.9643 463.273 449.99872 462.9501Q451.02744 462.60583 452.0829 463.2152Q453.35486 463.9496 454.17648 466.589L455.3517 470.3347L457.8439 466.0181L458.737 466.53372ZM458.91574 457.7241Q460.83725 458.83347 461.40164 460.0434Q461.96033 461.23196 461.15564 462.62573Q460.35876 464.00595 459.06934 464.14557Q457.7664 464.27737 455.92398 463.24976L454.46255 462.406Q452.56815 461.31226 452.02298 460.13147Q451.4721 458.92935 452.2846 457.52206Q453.0893 456.1283 454.3574 455.99442Q455.63327 455.847 457.49493 456.90378L458.91574 457.7241ZM456.79446 457.9608Q455.4007 457.1561 454.53815 457.1813Q453.6834 457.19302 453.19122 458.0455Q452.70685 458.88446 453.11627 459.64407Q453.52 460.38232 454.82474 461.1537L456.58386 462.1693Q457.9776 462.974 458.88858 462.95868Q459.786 462.93552 460.26257 462.1101Q460.73132 461.2982 460.33542 460.54642Q459.926 459.7868 458.58063 458.99203L456.79446 457.9608ZM464.41092 458.42493L463.87186 459.3586L456.5861 450.35294L457.12515 449.41928L464.41092 458.42493ZM465.91574 445.59973Q467.83725 446.7091 468.40164 447.91904Q468.96033 449.1076 468.15564 450.50137Q467.35876 451.8816 466.06934 452.0212Q464.7664 452.153 462.92398 451.1254L461.46255 450.28165Q459.56815 449.1879 459.02298 448.0071Q458.4721 446.805 459.2846 445.3977Q460.0893 444.00397 461.3574 443.87006Q462.63327 443.72263 464.49493 444.77942L465.91574 445.59973ZM463.79446 445.83643Q462.4007 445.03174 461.53815 445.05695Q460.6834 445.06866 460.19122 445.92114Q459.70685 446.7601 460.11627 447.5197Q460.52 448.25797 461.82474 449.02933L463.58386 450.04495Q464.9776 450.84964 465.88858 450.83432Q466.786 450.8112 467.26257 449.98575Q467.73132 449.17386 467.33542 448.42206Q466.926 447.66245 465.58063 446.86768L463.79446 445.83643ZM465.67938 436.00916L471.62762 444.2065L470.97137 445.34317L465.29166 437.3369L462.60416 441.99182L461.7111 441.4762L465.07047 435.6576L465.67938 436.00916ZM475.41092 439.37238L474.87186 440.30606L467.5861 431.30038L468.12515 430.3667L475.41092 439.37238ZM476.91574 426.54718Q478.83725 427.65656 479.40164 428.86646Q479.96033 430.05505 479.15564 431.44882Q478.35876 432.82904 477.06934 432.96866Q475.7664 433.10046 473.92398 432.0728L472.46255 431.22906Q470.56815 430.1353 470.02298 428.95456Q469.4721 427.75244 470.2846 426.34515Q471.0893 424.9514 472.3574 424.8175Q473.63327 424.67007 475.49493 425.72687L476.91574 426.54718ZM474.79446 426.78384Q473.4007 425.97916 472.53815 426.0044Q471.6834 426.01608 471.19122 426.8686Q470.70685 427.70755 471.11627 428.46716Q471.52 429.2054 472.82474 429.97678L474.58386 430.9924Q475.9776 431.7971 476.88858 431.78174Q477.786 431.7586 478.26257 430.9332Q478.73132 430.12128 478.33542 429.3695Q477.926 428.6099 476.58063 427.8151L474.79446 426.78384ZM483.5573 423.54367L482.9245 424.63974L475.63092 420.4288L475.14804 423.10892L474.16025 422.5386L474.79547 418.71957L474.89703 418.54367L483.5573 423.54367Z" fill-rule="nonzero"/><path fill="#efefef" d="M558.2603 480.39014L555.0025 486.0328L554.21765 485.57968L552.62115 480.68866Q552.2462 479.5881 551.9346 479.0654Q551.6094 478.53485 551.09515 478.23798Q550.4321 477.85516 549.75696 478.02466Q549.08954 478.1806 548.6989 478.85718Q548.23016 479.66907 548.4246 480.39478Q548.6269 481.10693 549.4658 481.5913L548.833 482.68738Q547.6423 481.99988 547.34906 480.82025Q547.0501 479.61926 547.7923 478.33374Q548.4876 477.12943 549.52203 476.8065Q550.5507 476.46222 551.6062 477.0716Q552.8782 477.80597 553.69977 480.4454L554.875 484.1911L557.3672 479.8745L558.2603 480.39014ZM558.4391 471.58047Q560.3606 472.68985 560.925 473.89978Q561.48364 475.08838 560.67896 476.48212Q559.8821 477.86237 558.59265 478.00198Q557.2897 478.13376 555.44727 477.10614L553.9859 476.2624Q552.09143 475.16864 551.54626 473.98788Q550.9954 472.78577 551.8079 471.37848Q552.6126 469.9847 553.8807 469.85083Q555.1566 469.7034 557.01825 470.76016L558.4391 471.58047ZM556.31775 471.81717Q554.924 471.01248 554.06146 471.03772Q553.2067 471.0494 552.71454 471.90192Q552.23016 472.74088 552.6396 473.5005Q553.0433 474.23874 554.3481 475.01007L556.1072 476.0257Q557.5009 476.83038 558.41187 476.81506Q559.3093 476.79193 559.7859 475.9665Q560.25464 475.1546 559.8587 474.4028Q559.4493 473.64322 558.10394 472.84842L556.31775 471.81717ZM566.2603 466.53372L563.0025 472.17642L562.21765 471.7233L560.62115 466.83228Q560.2462 465.73172 559.9346 465.20898Q559.6094 464.67844 559.09515 464.38156Q558.4321 463.99875 557.75696 464.16824Q557.08954 464.3242 556.6989 465.00076Q556.23016 465.81268 556.4246 466.53836Q556.6269 467.25055 557.4658 467.73492L556.833 468.831Q555.6423 468.1435 555.34906 466.96384Q555.0501 465.76285 555.7923 464.47733Q556.4876 463.273 557.52203 462.9501Q558.5507 462.60583 559.6062 463.2152Q560.8782 463.9496 561.69977 466.589L562.875 470.3347L565.3672 466.0181L566.2603 466.53372ZM569.0806 461.6488L568.4478 462.74484L561.15424 458.5339L560.6714 461.21405L559.68353 460.64374L560.3188 456.8247L560.42035 456.6488L569.0806 461.6488ZM571.9342 458.42493L571.39514 459.3586L564.1094 450.35294L564.64844 449.41928L571.9342 458.42493ZM573.4391 445.59973Q575.3606 446.7091 575.925 447.91904Q576.48364 449.1076 575.67896 450.50137Q574.8821 451.8816 573.59265 452.0212Q572.2897 452.153 570.44727 451.1254L568.9859 450.28165Q567.09143 449.1879 566.54626 448.0071Q565.9954 446.805 566.8079 445.3977Q567.6126 444.00397 568.8807 443.87006Q570.1566 443.72263 572.01825 444.77942L573.4391 445.59973ZM571.31775 445.83643Q569.924 445.03174 569.06146 445.05695Q568.2067 445.06866 567.71454 445.92114Q567.23016 446.7601 567.6396 447.5197Q568.0433 448.25797 569.3481 449.02933L571.1072 450.04495Q572.5009 450.84964 573.41187 450.83432Q574.3093 450.8112 574.7859 449.98575Q575.25464 449.17386 574.8587 448.42206Q574.4493 447.66245 573.10394 446.86768L571.31775 445.83643ZM580.0806 442.59622L579.4478 443.6923L572.15424 439.48135L571.6714 442.1615L570.68353 441.5912L571.3188 437.77216L571.42035 437.59622L580.0806 442.59622ZM582.9342 439.37238L582.39514 440.30606L575.1094 431.30038L575.64844 430.3667L582.9342 439.37238ZM584.4391 426.54718Q586.3606 427.65656 586.925 428.86646Q587.48364 430.05505 586.67896 431.44882Q585.8821 432.82904 584.59265 432.96866Q583.2897 433.10046 581.44727 432.0728L579.9859 431.22906Q578.09143 430.1353 577.54626 428.95456Q576.9954 427.75244 577.8079 426.34515Q578.6126 424.9514 579.8807 424.8175Q581.1566 424.67007 583.01825 425.72687L584.4391 426.54718ZM582.31775 426.78384Q580.924 425.97916 580.06146 426.0044Q579.2067 426.0161 578.71454 426.8686Q578.23016 427.70755 578.6396 428.46716Q579.0433 429.2054 580.3481 429.97678L582.1072 430.9924Q583.5009 431.7971 584.41187 431.78174Q585.3093 431.7586 585.7859 430.9332Q586.25464 430.12128 585.8587 429.3695Q585.4493 428.6099 584.10394 427.8151L582.31775 426.78384ZM591.0806 423.54367L590.4478 424.63974L583.15424 420.4288L582.6714 423.10892L581.68353 422.5386L582.3188 418.71957L582.42035 418.54367L591.0806 423.54367Z" fill-rule="nonzero"/><path fill="#efefef" d="M664.0305 480.39014L660.7727 486.03284L659.98785 485.5797L658.39136 480.6887Q658.0164 479.58813 657.7048 479.0654Q657.3796 478.53488 656.8654 478.238Q656.20233 477.8552 655.52716 478.02466Q654.85974 478.1806 654.4691 478.85718Q654.00037 479.6691 654.1948 480.3948Q654.3971 481.10696 655.2361 481.59134L654.6033 482.6874Q653.4125 481.9999 653.11926 480.82025Q652.8203 479.61926 653.5625 478.33374Q654.2578 477.12943 655.29224 476.80652Q656.3209 476.46225 657.3764 477.07162Q658.6484 477.806 659.47003 480.4454L660.64526 484.1911L663.13745 479.8745L664.0305 480.39014ZM664.2093 471.5805Q666.1308 472.68988 666.6952 473.8998Q667.25385 475.08838 666.44916 476.48215Q665.6523 477.86237 664.36285 478.00198Q663.0599 478.1338 661.2175 477.10617L659.7561 476.26242Q657.86163 475.16867 657.3165 473.98788Q656.7656 472.78577 657.5781 471.37848Q658.3828 469.98474 659.65094 469.85083Q660.9268 469.7034 662.78845 470.7602L664.2093 471.5805ZM662.088 471.8172Q660.6942 471.0125 659.83167 471.03772Q658.9769 471.04944 658.48474 471.90192Q658.00037 472.74088 658.4098 473.5005Q658.81354 474.23877 660.1183 475.0101L661.8774 476.02573Q663.2711 476.8304 664.18207 476.8151Q665.0795 476.79196 665.5561 475.96652Q666.02484 475.15463 665.62897 474.40283Q665.21954 473.64322 663.87415 472.84845L662.088 471.8172ZM672.0305 466.53372L668.7727 472.17642L667.98785 471.7233L666.39136 466.83228Q666.0164 465.73172 665.7048 465.209Q665.3796 464.67847 664.8654 464.3816Q664.20233 463.99878 663.52716 464.16824Q662.85974 464.32422 662.4691 465.0008Q662.00037 465.81268 662.1948 466.5384Q662.3971 467.25055 663.2361 467.73492L662.6033 468.831Q661.4125 468.1435 661.11926 466.96384Q660.8203 465.76285 661.5625 464.47736Q662.2578 463.27304 663.29224 462.9501Q664.3209 462.60583 665.3764 463.2152Q666.6484 463.9496 667.47003 466.58902L668.64526 470.3347L671.13745 466.0181L672.0305 466.53372ZM674.8508 461.6488L674.218 462.74487L666.92444 458.53394L666.4416 461.21405L665.45374 460.64374L666.089 456.8247L666.19055 456.6488L674.8508 461.6488ZM677.70447 458.42496L677.1654 459.35864L669.8796 450.35297L670.41864 449.41928L677.70447 458.42496ZM679.2093 445.59973Q681.1308 446.7091 681.6952 447.91904Q682.25385 449.10764 681.44916 450.50137Q680.6523 451.88162 679.36285 452.0212Q678.0599 452.153 676.2175 451.1254L674.7561 450.28165Q672.86163 449.1879 672.3165 448.00714Q671.7656 446.80502 672.5781 445.39774Q673.3828 444.00397 674.65094 443.8701Q675.9268 443.72266 677.78845 444.77942L679.2093 445.59973ZM677.088 445.83643Q675.6942 445.03174 674.83167 445.05698Q673.9769 445.06866 673.48474 445.92117Q673.00037 446.76013 673.4098 447.51974Q673.81354 448.258 675.1183 449.02933L676.8774 450.04495Q678.2711 450.84964 679.18207 450.83432Q680.0795 450.8112 680.5561 449.98575Q681.02484 449.17386 680.62897 448.42206Q680.21954 447.66248 678.87415 446.86768L677.088 445.83643ZM678.9729 436.00916L684.92114 444.2065L684.2649 445.34317L678.5852 437.33694L675.8977 441.99182L675.0046 441.4762L678.36395 435.6576L678.9729 436.00916ZM688.70447 439.37238L688.1654 440.30606L680.8796 431.3004L681.41864 430.36673L688.70447 439.37238ZM690.2093 426.54718Q692.1308 427.65656 692.6952 428.8665Q693.25385 430.05505 692.44916 431.44882Q691.6523 432.82904 690.36285 432.96866Q689.0599 433.10046 687.2175 432.07285L685.7561 431.2291Q683.86163 430.13535 683.3165 428.95456Q682.7656 427.75247 683.5781 426.34515Q684.3828 424.95142 685.65094 424.8175Q686.9268 424.67007 688.78845 425.72687L690.2093 426.54718ZM688.088 426.78387Q686.6942 425.9792 685.83167 426.00443Q684.9769 426.0161 684.48474 426.8686Q684.00037 427.70758 684.4098 428.46716Q684.81354 429.20544 686.1183 429.97678L687.8774 430.9924Q689.2711 431.7971 690.18207 431.78177Q691.0795 431.75864 691.5561 430.9332Q692.02484 430.1213 691.62897 429.3695Q691.21954 428.6099 689.87415 427.81512L688.088 426.78387ZM696.8508 423.5437L696.218 424.63974L688.92444 420.4288L688.4416 423.10895L687.45374 422.53864L688.089 418.7196L688.19055 418.5437L696.8508 423.5437Z" fill-rule="nonzero"/><path fill="#4285f4" d="M282.5 81.0C282.5 84.313705 279.81372 87.0 276.5 87.0C273.18628 87.0 270.5 84.313705 270.5 81.0C270.5 77.686295 273.18628 75.0 276.5 75.0C279.81372 75.0 282.5 77.686295 282.5 81.0Z" fill-rule="nonzero"/><path fill="#efefef" d="M300.5625 86.5L299.0625 86.5L299.0625 81.234375L293.32812 81.234375L293.32812 86.5L291.82812 86.5L291.82812 75.125L293.32812 75.125L293.32812 80.015625L299.0625 80.015625L299.0625 75.125L300.5625 75.125L300.5625 86.5ZM306.10938 86.65625Q304.39062 86.65625 303.3125 85.53125Q302.23438 84.390625 302.23438 82.5L302.23438 82.234375Q302.23438 80.984375 302.70312 80.0Q303.1875 79.0 304.04688 78.453125Q304.92188 77.890625 305.92188 77.890625Q307.57812 77.890625 308.48438 78.984375Q309.40625 80.0625 309.40625 82.078125L309.40625 82.6875L303.67188 82.6875Q303.70312 83.9375 304.40625 84.703125Q305.10938 85.46875 306.1875 85.46875Q306.95312 85.46875 307.48438 85.15625Q308.01562 84.84375 308.40625 84.328125L309.29688 85.015625Q308.23438 86.65625 306.10938 86.65625ZM305.92188 79.078125Q305.04688 79.078125 304.45312 79.71875Q303.85938 80.34375 303.71875 81.5L307.95312 81.5L307.95312 81.390625Q307.89062 80.28125 307.35938 79.6875Q306.82812 79.078125 305.92188 79.078125ZM312.17188 86.5L310.71875 86.5L310.71875 74.5L312.17188 74.5L312.17188 86.5ZM321.73438 82.359375Q321.73438 84.296875 320.84375 85.484375Q319.96875 86.65625 318.46875 86.65625Q316.92188 86.65625 316.04688 85.671875L316.04688 89.75L314.59375 89.75L314.59375 78.046875L315.92188 78.046875L315.98438 78.984375Q316.875 77.890625 318.4375 77.890625Q319.96875 77.890625 320.84375 79.046875Q321.73438 80.1875 321.73438 82.234375L321.73438 82.359375ZM320.29688 82.203125Q320.29688 80.765625 319.6875 79.9375Q319.07812 79.109375 318.01562 79.109375Q316.70312 79.109375 316.04688 80.28125L316.04688 84.3125Q316.6875 85.46875 318.03125 85.46875Q319.0625 85.46875 319.67188 84.65625Q320.29688 83.828125 320.29688 82.203125ZM334.09375 81.46875L329.32812 81.46875L329.32812 86.5L327.82812 86.5L327.82812 75.125L334.875 75.125L334.875 76.359375L329.32812 76.359375L329.32812 80.25L334.09375 80.25L334.09375 81.46875ZM336.21875 82.1875Q336.21875 80.953125 336.70312 79.96875Q337.1875 78.96875 338.0625 78.4375Q338.9375 77.890625 340.04688 77.890625Q341.78125 77.890625 342.84375 79.09375Q343.90625 80.28125 343.90625 82.265625L343.90625 82.359375Q343.90625 83.59375 343.4375 84.578125Q342.96875 85.5625 342.07812 86.109375Q341.20312 86.65625 340.0625 86.65625Q338.34375 86.65625 337.28125 85.46875Q336.21875 84.265625 336.21875 82.296875L336.21875 82.1875ZM337.67188 82.359375Q337.67188 83.765625 338.3125 84.625Q338.96875 85.46875 340.0625 85.46875Q341.17188 85.46875 341.8125 84.609375Q342.46875 83.75 342.46875 82.1875Q342.46875 80.796875 341.79688 79.9375Q341.14062 79.078125 340.04688 79.078125Q338.98438 79.078125 338.32812 79.9375Q337.67188 80.78125 337.67188 82.359375ZM349.6875 79.34375Q349.35938 79.28125 348.96875 79.28125Q347.54688 79.28125 347.04688 80.5L347.04688 86.5L345.59375 86.5L345.59375 78.046875L347.0 78.046875L347.03125 79.015625Q347.73438 77.890625 349.04688 77.890625Q349.46875 77.890625 349.6875 78.0L349.6875 79.34375ZM355.8125 85.65625Q354.96875 86.65625 353.34375 86.65625Q351.98438 86.65625 351.28125 85.875Q350.57812 85.078125 350.5625 83.546875L350.5625 78.046875L352.01562 78.046875L352.01562 83.5Q352.01562 85.421875 353.57812 85.421875Q355.23438 85.421875 355.78125 84.1875L355.78125 78.046875L357.21875 78.046875L357.21875 86.5L355.84375 86.5L355.8125 85.65625ZM360.95312 78.046875L361.0 78.984375Q361.92188 77.890625 363.5 77.890625Q365.28125 77.890625 365.92188 79.25Q366.34375 78.640625 367.01562 78.265625Q367.6875 77.890625 368.60938 77.890625Q371.39062 77.890625 371.4375 80.828125L371.4375 86.5L370.0 86.5L370.0 80.921875Q370.0 80.015625 369.57812 79.5625Q369.17188 79.109375 368.1875 79.109375Q367.39062 79.109375 366.85938 79.59375Q366.32812 80.078125 366.23438 80.890625L366.23438 86.5L364.78125 86.5L364.78125 80.953125Q364.78125 79.109375 362.98438 79.109375Q361.5625 79.109375 361.03125 80.328125L361.03125 86.5L359.59375 86.5L359.59375 78.046875L360.95312 78.046875Z" fill-rule="nonzero"/><path fill="#db4437" d="M400.5 81.0C400.5 84.313705 397.81372 87.0 394.5 87.0C391.18628 87.0 388.5 84.313705 388.5 81.0C388.5 77.686295 391.18628 75.0 394.5 75.0C397.81372 75.0 400.5 77.686295 400.5 81.0Z" fill-rule="nonzero"/><path fill="#efefef" d="M418.21875 85.0Q417.64062 85.828125 416.60938 86.25Q415.57812 86.65625 414.20312 86.65625Q412.8125 86.65625 411.73438 86.0Q410.65625 85.34375 410.0625 84.140625Q409.46875 82.9375 409.45312 81.359375L409.45312 80.359375Q409.45312 77.796875 410.65625 76.390625Q411.85938 74.96875 414.03125 74.96875Q415.8125 74.96875 416.89062 75.875Q417.98438 76.78125 418.21875 78.453125L416.71875 78.453125Q416.29688 76.203125 414.03125 76.203125Q412.53125 76.203125 411.75 77.265625Q410.96875 78.3125 410.96875 80.328125L410.96875 81.25Q410.96875 83.171875 411.84375 84.296875Q412.71875 85.421875 414.20312 85.421875Q415.04688 85.421875 415.67188 85.234375Q416.3125 85.046875 416.73438 84.609375L416.73438 82.046875L414.09375 82.046875L414.09375 80.828125L418.21875 80.828125L418.21875 85.0ZM425.8125 86.5Q425.6875 86.25 425.60938 85.609375Q424.60938 86.65625 423.20312 86.65625Q421.95312 86.65625 421.15625 85.953125Q420.35938 85.234375 420.35938 84.15625Q420.35938 82.828125 421.35938 82.109375Q422.35938 81.375 424.1875 81.375L425.59375 81.375L425.59375 80.703125Q425.59375 79.953125 425.14062 79.5Q424.6875 79.046875 423.79688 79.046875Q423.03125 79.046875 422.5 79.4375Q421.98438 79.828125 421.98438 80.390625L420.53125 80.390625Q420.53125 79.75 420.96875 79.171875Q421.42188 78.578125 422.1875 78.234375Q422.96875 77.890625 423.89062 77.890625Q425.34375 77.890625 426.17188 78.625Q427.0 79.34375 427.03125 80.625L427.03125 84.515625Q427.03125 85.6875 427.32812 86.375L427.32812 86.5L425.8125 86.5ZM423.42188 85.390625Q424.09375 85.390625 424.70312 85.046875Q425.3125 84.6875 425.59375 84.125L425.59375 82.390625L424.45312 82.390625Q421.79688 82.390625 421.79688 83.953125Q421.79688 84.625 422.25 85.015625Q422.70312 85.390625 423.42188 85.390625ZM431.17188 86.5L429.71875 86.5L429.71875 74.5L431.17188 74.5L431.17188 86.5ZM438.8125 86.5Q438.6875 86.25 438.60938 85.609375Q437.60938 86.65625 436.20312 86.65625Q434.95312 86.65625 434.15625 85.953125Q433.35938 85.234375 433.35938 84.15625Q433.35938 82.828125 434.35938 82.109375Q435.35938 81.375 437.1875 81.375L438.59375 81.375L438.59375 80.703125Q438.59375 79.953125 438.14062 79.5Q437.6875 79.046875 436.79688 79.046875Q436.03125 79.046875 435.5 79.4375Q434.98438 79.828125 434.98438 80.390625L433.53125 80.390625Q433.53125 79.75 433.96875 79.171875Q434.42188 78.578125 435.1875 78.234375Q435.96875 77.890625 436.89062 77.890625Q438.34375 77.890625 439.17188 78.625Q440.0 79.34375 440.03125 80.625L440.03125 84.515625Q440.03125 85.6875 440.32812 86.375L440.32812 86.5L438.8125 86.5ZM436.42188 85.390625Q437.09375 85.390625 437.70312 85.046875Q438.3125 84.6875 438.59375 84.125L438.59375 82.390625L437.45312 82.390625Q434.79688 82.390625 434.79688 83.953125Q434.79688 84.625 435.25 85.015625Q435.70312 85.390625 436.42188 85.390625ZM445.4375 81.125L447.3125 78.046875L449.0 78.046875L446.23438 82.21875L449.07812 86.5L447.40625 86.5L445.45312 83.328125L443.5 86.5L441.82812 86.5L444.67188 82.21875L441.90625 78.046875L443.57812 78.046875L445.4375 81.125ZM453.35938 84.375L455.32812 78.046875L456.875 78.046875L453.48438 87.8125Q452.6875 89.921875 450.96875 89.921875L450.70312 89.890625L450.15625 89.796875L450.15625 88.625L450.54688 88.65625Q451.28125 88.65625 451.6875 88.359375Q452.10938 88.0625 452.375 87.265625L452.6875 86.40625L449.67188 78.046875L451.25 78.046875L453.35938 84.375ZM460.32812 82.046875L460.32812 86.5L458.82812 86.5L458.82812 75.125L463.01562 75.125Q464.89062 75.125 465.9375 76.078125Q467.0 77.03125 467.0 78.59375Q467.0 80.25 465.96875 81.15625Q464.9375 82.046875 463.0 82.046875L460.32812 82.046875ZM460.32812 80.8125L463.01562 80.8125Q464.21875 80.8125 464.85938 80.25Q465.5 79.6875 465.5 78.609375Q465.5 77.59375 464.85938 76.984375Q464.21875 76.375 463.10938 76.359375L460.32812 76.359375L460.32812 80.8125ZM472.6875 79.34375Q472.35938 79.28125 471.96875 79.28125Q470.54688 79.28125 470.04688 80.5L470.04688 86.5L468.59375 86.5L468.59375 78.046875L470.0 78.046875L470.03125 79.015625Q470.73438 77.890625 472.04688 77.890625Q472.46875 77.890625 472.6875 78.0L472.6875 79.34375ZM473.21875 82.1875Q473.21875 80.953125 473.70312 79.96875Q474.1875 78.96875 475.0625 78.4375Q475.9375 77.890625 477.04688 77.890625Q478.78125 77.890625 479.84375 79.09375Q480.90625 80.28125 480.90625 82.265625L480.90625 82.359375Q480.90625 83.59375 480.4375 84.578125Q479.96875 85.5625 479.07812 86.109375Q478.20312 86.65625 477.0625 86.65625Q475.34375 86.65625 474.28125 85.46875Q473.21875 84.265625 473.21875 82.296875L473.21875 82.1875ZM474.67188 82.359375Q474.67188 83.765625 475.3125 84.625Q475.96875 85.46875 477.0625 85.46875Q478.17188 85.46875 478.8125 84.609375Q479.46875 83.75 479.46875 82.1875Q479.46875 80.796875 478.79688 79.9375Q478.14062 79.078125 477.04688 79.078125Q475.98438 79.078125 475.32812 79.9375Q474.67188 80.78125 474.67188 82.359375ZM484.09375 78.046875L484.09375 87.484375Q484.09375 89.921875 481.875 89.921875Q481.39062 89.921875 480.98438 89.78125L480.98438 88.625Q481.23438 88.6875 481.65625 88.6875Q482.14062 88.6875 482.39062 88.421875Q482.64062 88.15625 482.64062 87.515625L482.64062 78.046875L484.09375 78.046875ZM482.5 75.796875Q482.5 75.453125 482.70312 75.21875Q482.92188 74.96875 483.34375 74.96875Q483.76562 74.96875 483.98438 75.21875Q484.20312 75.453125 484.20312 75.8125Q484.20312 76.15625 483.98438 76.390625Q483.76562 76.625 483.34375 76.625Q482.92188 76.625 482.70312 76.390625Q482.5 76.15625 482.5 75.796875ZM490.10938 86.65625Q488.39062 86.65625 487.3125 85.53125Q486.23438 84.390625 486.23438 82.5L486.23438 82.234375Q486.23438 80.984375 486.70312 80.0Q487.1875 79.0 488.04688 78.453125Q488.92188 77.890625 489.92188 77.890625Q491.57812 77.890625 492.48438 78.984375Q493.40625 80.0625 493.40625 82.078125L493.40625 82.6875L487.67188 82.6875Q487.70312 83.9375 488.40625 84.703125Q489.10938 85.46875 490.1875 85.46875Q490.95312 85.46875 491.48438 85.15625Q492.01562 84.84375 492.40625 84.328125L493.29688 85.015625Q492.23438 86.65625 490.10938 86.65625ZM489.92188 79.078125Q489.04688 79.078125 488.45312 79.71875Q487.85938 80.34375 487.71875 81.5L491.95312 81.5L491.95312 81.390625Q491.89062 80.28125 491.35938 79.6875Q490.82812 79.078125 489.92188 79.078125ZM497.98438 85.46875Q498.76562 85.46875 499.34375 85.0Q499.92188 84.53125 499.98438 83.828125L501.34375 83.828125Q501.3125 84.5625 500.84375 85.21875Q500.39062 85.875 499.60938 86.265625Q498.84375 86.65625 497.98438 86.65625Q496.26562 86.65625 495.23438 85.5Q494.21875 84.34375 494.21875 82.34375L494.21875 82.109375Q494.21875 80.875 494.67188 79.921875Q495.125 78.953125 495.96875 78.421875Q496.82812 77.890625 497.98438 77.890625Q499.40625 77.890625 500.34375 78.75Q501.28125 79.59375 501.34375 80.953125L499.98438 80.953125Q499.92188 80.125 499.35938 79.609375Q498.79688 79.078125 497.98438 79.078125Q496.875 79.078125 496.26562 79.875Q495.67188 80.65625 495.67188 82.15625L495.67188 82.4375Q495.67188 83.890625 496.26562 84.6875Q496.875 85.46875 497.98438 85.46875ZM504.5625 76.0L504.5625 78.046875L506.14062 78.046875L506.14062 79.15625L504.5625 79.15625L504.5625 84.40625Q504.5625 84.90625 504.76562 85.171875Q504.98438 85.421875 505.48438 85.421875Q505.73438 85.421875 506.17188 85.328125L506.17188 86.5Q505.60938 86.65625 505.0625 86.65625Q504.09375 86.65625 503.59375 86.078125Q503.10938 85.484375 503.10938 84.40625L503.10938 79.15625L501.57812 79.15625L501.57812 78.046875L503.10938 78.046875L503.10938 76.0L504.5625 76.0ZM520.21875 85.0Q519.6406 85.828125 518.6094 86.25Q517.5781 86.65625 516.2031 86.65625Q514.8125 86.65625 513.7344 86.0Q512.65625 85.34375 512.0625 84.140625Q511.46875 82.9375 511.45312 81.359375L511.45312 80.359375Q511.45312 77.796875 512.65625 76.390625Q513.8594 74.96875 516.03125 74.96875Q517.8125 74.96875 518.8906 75.875Q519.9844 76.78125 520.21875 78.453125L518.71875 78.453125Q518.2969 76.203125 516.03125 76.203125Q514.53125 76.203125 513.75 77.265625Q512.96875 78.3125 512.96875 80.328125L512.96875 81.25Q512.96875 83.171875 513.84375 84.296875Q514.71875 85.421875 516.2031 85.421875Q517.0469 85.421875 517.6719 85.234375Q518.3125 85.046875 518.7344 84.609375L518.7344 82.046875L516.09375 82.046875L516.09375 80.828125L520.21875 80.828125L520.21875 85.0ZM524.1719 86.5L522.71875 86.5L522.71875 78.046875L524.1719 78.046875L524.1719 86.5ZM522.6094 75.796875Q522.6094 75.453125 522.8125 75.21875Q523.03125 74.96875 523.4531 74.96875Q523.875 74.96875 524.09375 75.21875Q524.3125 75.453125 524.3125 75.8125Q524.3125 76.15625 524.09375 76.390625Q523.875 76.625 523.4531 76.625Q523.03125 76.625 522.8125 76.390625Q522.6094 76.15625 522.6094 75.796875ZM528.5625 76.0L528.5625 78.046875L530.1406 78.046875L530.1406 79.15625L528.5625 79.15625L528.5625 84.40625Q528.5625 84.90625 528.7656 85.171875Q528.9844 85.421875 529.4844 85.421875Q529.7344 85.421875 530.1719 85.328125L530.1719 86.5Q529.6094 86.65625 529.0625 86.65625Q528.09375 86.65625 527.59375 86.078125Q527.1094 85.484375 527.1094 84.40625L527.1094 79.15625L525.5781 79.15625L525.5781 78.046875L527.1094 78.046875L527.1094 76.0L528.5625 76.0ZM533.5625 76.0L533.5625 78.046875L535.1406 78.046875L535.1406 79.15625L533.5625 79.15625L533.5625 84.40625Q533.5625 84.90625 533.7656 85.171875Q533.9844 85.421875 534.4844 85.421875Q534.7344 85.421875 535.1719 85.328125L535.1719 86.5Q534.6094 86.65625 534.0625 86.65625Q533.09375 86.65625 532.59375 86.078125Q532.1094 85.484375 532.1094 84.40625L532.1094 79.15625L530.5781 79.15625L530.5781 78.046875L532.1094 78.046875L532.1094 76.0L533.5625 76.0ZM540.1094 86.65625Q538.3906 86.65625 537.3125 85.53125Q536.2344 84.390625 536.2344 82.5L536.2344 82.234375Q536.2344 80.984375 536.7031 80.0Q537.1875 79.0 538.0469 78.453125Q538.9219 77.890625 539.9219 77.890625Q541.5781 77.890625 542.4844 78.984375Q543.40625 80.0625 543.40625 82.078125L543.40625 82.6875L537.6719 82.6875Q537.7031 83.9375 538.40625 84.703125Q539.1094 85.46875 540.1875 85.46875Q540.9531 85.46875 541.4844 85.15625Q542.0156 84.84375 542.40625 84.328125L543.2969 85.015625Q542.2344 86.65625 540.1094 86.65625ZM539.9219 79.078125Q539.0469 79.078125 538.4531 79.71875Q537.8594 80.34375 537.71875 81.5L541.9531 81.5L541.9531 81.390625Q541.8906 80.28125 541.3594 79.6875Q540.8281 79.078125 539.9219 79.078125ZM548.6875 79.34375Q548.3594 79.28125 547.96875 79.28125Q546.5469 79.28125 546.0469 80.5L546.0469 86.5L544.59375 86.5L544.59375 78.046875L546.0 78.046875L546.03125 79.015625Q546.7344 77.890625 548.0469 77.890625Q548.46875 77.890625 548.6875 78.0L548.6875 79.34375Z" fill-rule="nonzero"/><path fill="#efefef" d="M55.89267 47.265625Q55.033295 48.5 53.470795 49.125Q51.92392 49.734375 49.86142 49.734375Q47.76767 49.734375 46.14267 48.765625Q44.533295 47.78125 43.64267 45.984375Q42.76767 44.171875 42.752045 41.78125L42.752045 40.296875Q42.752045 36.4375 44.54892 34.328125Q46.345795 32.203125 49.595795 32.203125Q52.26767 32.203125 53.89267 33.578125Q55.533295 34.9375 55.89267 37.4375L53.64267 37.4375Q53.01767 34.046875 49.61142 34.046875Q47.345795 34.046875 46.17392 35.640625Q45.01767 37.234375 45.002045 40.234375L45.002045 41.640625Q45.002045 44.5 46.314545 46.203125Q47.627045 47.890625 49.877045 47.890625Q51.14267 47.890625 52.08017 47.609375Q53.033295 47.328125 53.658295 46.65625L53.658295 42.828125L49.70517 42.828125L49.70517 41.0L55.89267 41.0L55.89267 47.265625ZM66.783295 49.5Q66.595795 49.125 66.48642 48.15625Q64.970795 49.734375 62.877045 49.734375Q61.002045 49.734375 59.79892 48.671875Q58.595795 47.609375 58.595795 45.984375Q58.595795 44.0 60.095795 42.90625Q61.61142 41.8125 64.33017 41.8125L66.439545 41.8125L66.439545 40.8125Q66.439545 39.671875 65.752045 39.0Q65.08017 38.328125 63.76767 38.328125Q62.595795 38.328125 61.814545 38.921875Q61.033295 39.5 61.033295 40.328125L58.845795 40.328125Q58.845795 39.390625 59.51767 38.5Q60.20517 37.609375 61.345795 37.09375Q62.502045 36.578125 63.89267 36.578125Q66.08017 36.578125 67.314545 37.6875Q68.564545 38.78125 68.61142 40.703125L68.61142 46.53125Q68.61142 48.28125 69.064545 49.3125L69.064545 49.5L66.783295 49.5ZM63.189545 47.84375Q64.20517 47.84375 65.11142 47.328125Q66.033295 46.796875 66.439545 45.953125L66.439545 43.34375L64.752045 43.34375Q60.76767 43.34375 60.76767 45.671875Q60.76767 46.703125 61.439545 47.28125Q62.127045 47.84375 63.189545 47.84375ZM74.314545 49.5L72.14267 49.5L72.14267 31.5L74.314545 31.5L74.314545 49.5ZM85.783295 49.5Q85.595795 49.125 85.48642 48.15625Q83.970795 49.734375 81.877045 49.734375Q80.002045 49.734375 78.79892 48.671875Q77.595795 47.609375 77.595795 45.984375Q77.595795 44.0 79.095795 42.90625Q80.61142 41.8125 83.33017 41.8125L85.439545 41.8125L85.439545 40.8125Q85.439545 39.671875 84.752045 39.0Q84.08017 38.328125 82.76767 38.328125Q81.595795 38.328125 80.814545 38.921875Q80.033295 39.5 80.033295 40.328125L77.845795 40.328125Q77.845795 39.390625 78.51767 38.5Q79.20517 37.609375 80.345795 37.09375Q81.502045 36.578125 82.89267 36.578125Q85.08017 36.578125 86.314545 37.6875Q87.564545 38.78125 87.61142 40.703125L87.61142 46.53125Q87.61142 48.28125 88.064545 49.3125L88.064545 49.5L85.783295 49.5ZM82.189545 47.84375Q83.20517 47.84375 84.11142 47.328125Q85.033295 46.796875 85.439545 45.953125L85.439545 43.34375L83.752045 43.34375Q79.76767 43.34375 79.76767 45.671875Q79.76767 46.703125 80.439545 47.28125Q81.127045 47.84375 82.189545 47.84375ZM95.20517 41.453125L98.01767 36.8125L100.54892 36.8125L96.408295 43.09375L100.689545 49.5L98.17392 49.5L95.252045 44.75L92.314545 49.5L89.79892 49.5L94.08017 43.09375L89.92392 36.8125L92.439545 36.8125L95.20517 41.453125ZM107.11142 46.328125L110.064545 36.8125L112.377045 36.8125L107.283295 51.453125Q106.095795 54.625 103.51767 54.625L103.11142 54.59375L102.29892 54.4375L102.29892 52.671875L102.89267 52.71875Q103.98642 52.71875 104.595795 52.265625Q105.220795 51.828125 105.61142 50.65625L106.095795 49.359375L101.58017 36.8125L103.939545 36.8125L107.11142 46.328125ZM125.33017 41.890625Q122.42392 41.0625 121.11142 39.859375Q119.79892 38.640625 119.79892 36.859375Q119.79892 34.84375 121.408295 33.53125Q123.01767 32.203125 125.595795 32.203125Q127.345795 32.203125 128.7208 32.890625Q130.11142 33.5625 130.86142 34.765625Q131.61142 35.953125 131.61142 37.375L129.36142 37.375Q129.36142 35.828125 128.37704 34.9375Q127.39267 34.046875 125.595795 34.046875Q123.92392 34.046875 122.98642 34.78125Q122.064545 35.515625 122.064545 36.8125Q122.064545 37.859375 122.939545 38.578125Q123.83017 39.296875 125.95517 39.90625Q128.0958 40.5 129.2833 41.21875Q130.48642 41.9375 131.06454 42.90625Q131.6583 43.859375 131.6583 45.15625Q131.6583 47.234375 130.0333 48.484375Q128.42392 49.734375 125.70517 49.734375Q123.95517 49.734375 122.42392 49.0625Q120.908295 48.390625 120.08017 47.21875Q119.252045 46.046875 119.252045 44.546875L121.51767 44.546875Q121.51767 46.09375 122.658295 47.0Q123.79892 47.890625 125.70517 47.890625Q127.48642 47.890625 128.43954 47.171875Q129.39267 46.4375 129.39267 45.1875Q129.39267 43.9375 128.50204 43.25Q127.627045 42.5625 125.33017 41.890625ZM141.7833 48.25Q140.51767 49.734375 138.06454 49.734375Q136.04892 49.734375 134.98642 48.5625Q133.92392 47.375 133.9083 45.0625L133.9083 36.8125L136.08017 36.8125L136.08017 45.015625Q136.08017 47.890625 138.42392 47.890625Q140.9083 47.890625 141.7208 46.046875L141.7208 36.8125L143.89267 36.8125L143.89267 49.5L141.83017 49.5L141.7833 48.25ZM157.67392 43.296875Q157.67392 46.1875 156.3458 47.96875Q155.01767 49.734375 152.75204 49.734375Q150.45517 49.734375 149.12704 48.265625L149.12704 54.375L146.95517 54.375L146.95517 36.8125L148.93954 36.8125L149.04892 38.21875Q150.36142 36.578125 152.7208 36.578125Q155.00204 36.578125 156.33017 38.3125Q157.67392 40.03125 157.67392 43.09375L157.67392 43.296875ZM155.50204 43.046875Q155.50204 40.90625 154.58017 39.671875Q153.67392 38.421875 152.08017 38.421875Q150.11142 38.421875 149.12704 40.171875L149.12704 46.234375Q150.0958 47.96875 152.0958 47.96875Q153.6583 47.96875 154.58017 46.734375Q155.50204 45.484375 155.50204 43.046875ZM170.67392 43.296875Q170.67392 46.1875 169.3458 47.96875Q168.01767 49.734375 165.75204 49.734375Q163.45517 49.734375 162.12704 48.265625L162.12704 54.375L159.95517 54.375L159.95517 36.8125L161.93954 36.8125L162.04892 38.21875Q163.36142 36.578125 165.7208 36.578125Q168.00204 36.578125 169.33017 38.3125Q170.67392 40.03125 170.67392 43.09375L170.67392 43.296875ZM168.50204 43.046875Q168.50204 40.90625 167.58017 39.671875Q166.67392 38.421875 165.08017 38.421875Q163.11142 38.421875 162.12704 40.171875L162.12704 46.234375Q163.0958 47.96875 165.0958 47.96875Q166.6583 47.96875 167.58017 46.734375Q168.50204 45.484375 168.50204 43.046875ZM172.37704 43.046875Q172.37704 41.171875 173.11142 39.6875Q173.8458 38.203125 175.14267 37.390625Q176.45517 36.578125 178.14267 36.578125Q180.7208 36.578125 182.31454 38.375Q183.92392 40.171875 183.92392 43.140625L183.92392 43.296875Q183.92392 45.15625 183.20517 46.625Q182.50204 48.09375 181.18954 48.921875Q179.87704 49.734375 178.1583 49.734375Q175.58017 49.734375 173.9708 47.9375Q172.37704 46.140625 172.37704 43.1875L172.37704 43.046875ZM174.56454 43.296875Q174.56454 45.40625 175.5333 46.6875Q176.51767 47.96875 178.1583 47.96875Q179.81454 47.96875 180.7833 46.671875Q181.75204 45.375 181.75204 43.046875Q181.75204 40.953125 180.76767 39.65625Q179.7833 38.359375 178.14267 38.359375Q176.5333 38.359375 175.54892 39.640625Q174.56454 40.921875 174.56454 43.296875ZM193.08017 38.765625Q192.5958 38.6875 192.01767 38.6875Q189.89267 38.6875 189.12704 40.5L189.12704 49.5L186.95517 49.5L186.95517 36.8125L189.06454 36.8125L189.0958 38.28125Q190.17392 36.578125 192.12704 36.578125Q192.75204 36.578125 193.08017 36.75L193.08017 38.765625ZM197.89267 33.75L197.89267 36.8125L200.26767 36.8125L200.26767 38.5L197.89267 38.5L197.89267 46.359375Q197.89267 47.125 198.20517 47.5Q198.5333 47.875 199.29892 47.875Q199.67392 47.875 200.33017 47.734375L200.33017 49.5Q199.4708 49.734375 198.6583 49.734375Q197.20517 49.734375 196.4708 48.859375Q195.73642 47.96875 195.73642 46.359375L195.73642 38.5L193.42392 38.5L193.42392 36.8125L195.73642 36.8125L195.73642 33.75L197.89267 33.75ZM209.39267 50.96875L207.5333 50.96875L214.6583 32.4375L216.50204 32.4375L209.39267 50.96875ZM225.29892 49.5L225.29892 32.4375L230.11142 32.4375Q232.3458 32.4375 234.04892 33.421875Q235.76767 34.40625 236.68954 36.21875Q237.62704 38.03125 237.64267 40.390625L237.64267 41.484375Q237.64267 43.890625 236.70517 45.71875Q235.76767 47.53125 234.0333 48.5Q232.31454 49.46875 230.01767 49.5L225.29892 49.5ZM227.54892 34.28125L227.54892 47.65625L229.9083 47.65625Q232.51767 47.65625 233.95517 46.046875Q235.4083 44.421875 235.4083 41.4375L235.4083 40.4375Q235.4083 37.53125 234.0333 35.921875Q232.67392 34.3125 230.17392 34.28125L227.54892 34.28125ZM243.31454 49.5L241.14267 49.5L241.14267 36.8125L243.31454 36.8125L243.31454 49.5ZM240.9708 33.453125Q240.9708 32.921875 241.2833 32.5625Q241.61142 32.203125 242.23642 32.203125Q242.87704 32.203125 243.20517 32.5625Q243.5333 32.921875 243.5333 33.453125Q243.5333 33.984375 243.20517 34.34375Q242.87704 34.6875 242.23642 34.6875Q241.61142 34.6875 241.2833 34.34375Q240.9708 33.984375 240.9708 33.453125ZM254.3458 46.140625Q254.3458 45.25 253.67392 44.765625Q253.01767 44.28125 251.36142 43.9375Q249.7208 43.578125 248.75204 43.09375Q247.7833 42.59375 247.31454 41.921875Q246.86142 41.234375 246.86142 40.296875Q246.86142 38.734375 248.17392 37.65625Q249.50204 36.578125 251.54892 36.578125Q253.70517 36.578125 255.04892 37.703125Q256.39267 38.8125 256.39267 40.546875L254.20517 40.546875Q254.20517 39.65625 253.45517 39.015625Q252.70517 38.359375 251.54892 38.359375Q250.36142 38.359375 249.68954 38.875Q249.0333 39.390625 249.0333 40.234375Q249.0333 41.015625 249.64267 41.421875Q250.26767 41.8125 251.89267 42.171875Q253.51767 42.53125 254.51767 43.046875Q255.5333 43.546875 256.01767 44.265625Q256.50204 44.96875 256.50204 45.984375Q256.50204 47.6875 255.14267 48.71875Q253.7833 49.734375 251.62704 49.734375Q250.0958 49.734375 248.92392 49.203125Q247.75204 48.65625 247.08017 47.6875Q246.42392 46.71875 246.42392 45.59375L248.5958 45.59375Q248.6583 46.6875 249.4708 47.328125Q250.2833 47.96875 251.62704 47.96875Q252.8458 47.96875 253.5958 47.46875Q254.3458 46.96875 254.3458 46.140625ZM264.04892 47.96875Q265.20517 47.96875 266.06454 47.265625Q266.93954 46.5625 267.0333 45.5L269.08017 45.5Q269.01767 46.59375 268.33017 47.578125Q267.64267 48.5625 266.48642 49.15625Q265.33017 49.734375 264.04892 49.734375Q261.45517 49.734375 259.92392 48.015625Q258.39267 46.28125 258.39267 43.28125L258.39267 42.90625Q258.39267 41.0625 259.06454 39.625Q259.75204 38.171875 261.01767 37.375Q262.29892 36.578125 264.0333 36.578125Q266.1583 36.578125 267.56454 37.859375Q268.98642 39.140625 269.08017 41.171875L267.0333 41.171875Q266.93954 39.953125 266.0958 39.15625Q265.26767 38.359375 264.0333 38.359375Q262.37704 38.359375 261.4708 39.5625Q260.56454 40.75 260.56454 43.0L260.56454 43.40625Q260.56454 45.59375 261.45517 46.78125Q262.36142 47.96875 264.04892 47.96875ZM279.7833 48.25Q278.51767 49.734375 276.06454 49.734375Q274.04892 49.734375 272.98642 48.5625Q271.92392 47.375 271.9083 45.0625L271.9083 36.8125L274.08017 36.8125L274.08017 45.015625Q274.08017 47.890625 276.42392 47.890625Q278.9083 47.890625 279.7208 46.046875L279.7208 36.8125L281.89267 36.8125L281.89267 49.5L279.83017 49.5L279.7833 48.25ZM292.3458 46.140625Q292.3458 45.25 291.67392 44.765625Q291.01767 44.28125 289.36142 43.9375Q287.7208 43.578125 286.75204 43.09375Q285.7833 42.59375 285.31454 41.921875Q284.86142 41.234375 284.86142 40.296875Q284.86142 38.734375 286.17392 37.65625Q287.50204 36.578125 289.54892 36.578125Q291.70517 36.578125 293.04892 37.703125Q294.39267 38.8125 294.39267 40.546875L292.20517 40.546875Q292.20517 39.65625 291.45517 39.015625Q290.70517 38.359375 289.54892 38.359375Q288.36142 38.359375 287.68954 38.875Q287.0333 39.390625 287.0333 40.234375Q287.0333 41.015625 287.64267 41.421875Q288.26767 41.8125 289.89267 42.171875Q291.51767 42.53125 292.51767 43.046875Q293.5333 43.546875 294.01767 44.265625Q294.50204 44.96875 294.50204 45.984375Q294.50204 47.6875 293.14267 48.71875Q291.7833 49.734375 289.62704 49.734375Q288.0958 49.734375 286.92392 49.203125Q285.75204 48.65625 285.08017 47.6875Q284.42392 46.71875 284.42392 45.59375L286.5958 45.59375Q286.6583 46.6875 287.4708 47.328125Q288.2833 47.96875 289.62704 47.96875Q290.8458 47.96875 291.5958 47.46875Q292.3458 46.96875 292.3458 46.140625ZM304.3458 46.140625Q304.3458 45.25 303.67392 44.765625Q303.01767 44.28125 301.36142 43.9375Q299.7208 43.578125 298.75204 43.09375Q297.7833 42.59375 297.31454 41.921875Q296.86142 41.234375 296.86142 40.296875Q296.86142 38.734375 298.17392 37.65625Q299.50204 36.578125 301.54892 36.578125Q303.70517 36.578125 305.04892 37.703125Q306.39267 38.8125 306.39267 40.546875L304.20517 40.546875Q304.20517 39.65625 303.45517 39.015625Q302.70517 38.359375 301.54892 38.359375Q300.36142 38.359375 299.68954 38.875Q299.0333 39.390625 299.0333 40.234375Q299.0333 41.015625 299.64267 41.421875Q300.26767 41.8125 301.89267 42.171875Q303.51767 42.53125 304.51767 43.046875Q305.5333 43.546875 306.01767 44.265625Q306.50204 44.96875 306.50204 45.984375Q306.50204 47.6875 305.14267 48.71875Q303.7833 49.734375 301.62704 49.734375Q300.0958 49.734375 298.92392 49.203125Q297.75204 48.65625 297.08017 47.6875Q296.42392 46.71875 296.42392 45.59375L298.5958 45.59375Q298.6583 46.6875 299.4708 47.328125Q300.2833 47.96875 301.62704 47.96875Q302.8458 47.96875 303.5958 47.46875Q304.3458 46.96875 304.3458 46.140625ZM311.31454 49.5L309.14267 49.5L309.14267 36.8125L311.31454 36.8125L311.31454 49.5ZM308.9708 33.453125Q308.9708 32.921875 309.2833 32.5625Q309.61142 32.203125 310.23642 32.203125Q310.87704 32.203125 311.20517 32.5625Q311.5333 32.921875 311.5333 33.453125Q311.5333 33.984375 311.20517 34.34375Q310.87704 34.6875 310.23642 34.6875Q309.61142 34.6875 309.2833 34.34375Q308.9708 33.984375 308.9708 33.453125ZM314.37704 43.046875Q314.37704 41.171875 315.11142 39.6875Q315.8458 38.203125 317.14267 37.390625Q318.45517 36.578125 320.14267 36.578125Q322.7208 36.578125 324.31454 38.375Q325.92392 40.171875 325.92392 43.140625L325.92392 43.296875Q325.92392 45.15625 325.20517 46.625Q324.50204 48.09375 323.18954 48.921875Q321.87704 49.734375 320.1583 49.734375Q317.58017 49.734375 315.9708 47.9375Q314.37704 46.140625 314.37704 43.1875L314.37704 43.046875ZM316.56454 43.296875Q316.56454 45.40625 317.5333 46.6875Q318.51767 47.96875 320.1583 47.96875Q321.81454 47.96875 322.7833 46.671875Q323.75204 45.375 323.75204 43.046875Q323.75204 40.953125 322.76767 39.65625Q321.7833 38.359375 320.14267 38.359375Q318.5333 38.359375 317.54892 39.640625Q316.56454 40.921875 316.56454 43.296875ZM331.00204 36.8125L331.08017 38.40625Q332.5333 36.578125 334.87704 36.578125Q338.89267 36.578125 338.92392 41.125L338.92392 49.5L336.76767 49.5L336.76767 41.109375Q336.75204 39.734375 336.12704 39.078125Q335.51767 38.421875 334.2208 38.421875Q333.1583 38.421875 332.36142 38.984375Q331.56454 39.546875 331.12704 40.46875L331.12704 49.5L328.95517 49.5L328.95517 36.8125L331.00204 36.8125ZM360.8458 44.078125Q360.5333 46.796875 358.8458 48.265625Q357.17392 49.734375 354.37704 49.734375Q351.36142 49.734375 349.5333 47.5625Q347.70517 45.390625 347.70517 41.765625L347.70517 40.125Q347.70517 37.75 348.54892 35.953125Q349.4083 34.140625 350.9708 33.171875Q352.5333 32.203125 354.58017 32.203125Q357.29892 32.203125 358.93954 33.71875Q360.58017 35.234375 360.8458 37.921875L358.58017 37.921875Q358.29892 35.875 357.31454 34.96875Q356.33017 34.046875 354.58017 34.046875Q352.42392 34.046875 351.18954 35.640625Q349.9708 37.234375 349.9708 40.1875L349.9708 41.828125Q349.9708 44.609375 351.12704 46.25Q352.29892 47.890625 354.37704 47.890625Q356.25204 47.890625 357.25204 47.046875Q358.25204 46.1875 358.58017 44.078125L360.8458 44.078125ZM366.12704 38.359375Q367.56454 36.578125 369.87704 36.578125Q373.89267 36.578125 373.92392 41.125L373.92392 49.5L371.76767 49.5L371.76767 41.109375Q371.75204 39.734375 371.12704 39.078125Q370.51767 38.421875 369.2208 38.421875Q368.1583 38.421875 367.36142 38.984375Q366.56454 39.546875 366.12704 40.46875L366.12704 49.5L363.95517 49.5L363.95517 31.5L366.12704 31.5L366.12704 38.359375ZM384.7833 49.5Q384.5958 49.125 384.48642 48.15625Q382.9708 49.734375 380.87704 49.734375Q379.00204 49.734375 377.79892 48.671875Q376.5958 47.609375 376.5958 45.984375Q376.5958 44.0 378.0958 42.90625Q379.61142 41.8125 382.33017 41.8125L384.43954 41.8125L384.43954 40.8125Q384.43954 39.671875 383.75204 39.0Q383.08017 38.328125 381.76767 38.328125Q380.5958 38.328125 379.81454 38.921875Q379.0333 39.5 379.0333 40.328125L376.8458 40.328125Q376.8458 39.390625 377.51767 38.5Q378.20517 37.609375 379.3458 37.09375Q380.50204 36.578125 381.89267 36.578125Q384.08017 36.578125 385.31454 37.6875Q386.56454 38.78125 386.61142 40.703125L386.61142 46.53125Q386.61142 48.28125 387.06454 49.3125L387.06454 49.5L384.7833 49.5ZM381.18954 47.84375Q382.20517 47.84375 383.11142 47.328125Q384.0333 46.796875 384.43954 45.953125L384.43954 43.34375L382.75204 43.34375Q378.76767 43.34375 378.76767 45.671875Q378.76767 46.703125 379.43954 47.28125Q380.12704 47.84375 381.18954 47.84375ZM392.00204 36.8125L392.08017 38.40625Q393.5333 36.578125 395.87704 36.578125Q399.89267 36.578125 399.92392 41.125L399.92392 49.5L397.76767 49.5L397.76767 41.109375Q397.75204 39.734375 397.12704 39.078125Q396.51767 38.421875 395.2208 38.421875Q394.1583 38.421875 393.36142 38.984375Q392.56454 39.546875 392.12704 40.46875L392.12704 49.5L389.95517 49.5L389.95517 36.8125L392.00204 36.8125ZM405.00204 36.8125L405.08017 38.40625Q406.5333 36.578125 408.87704 36.578125Q412.89267 36.578125 412.92392 41.125L412.92392 49.5L410.76767 49.5L410.76767 41.109375Q410.75204 39.734375 410.12704 39.078125Q409.51767 38.421875 408.2208 38.421875Q407.1583 38.421875 406.36142 38.984375Q405.56454 39.546875 405.12704 40.46875L405.12704 49.5L402.95517 49.5L402.95517 36.8125L405.00204 36.8125ZM421.2208 49.734375Q418.64267 49.734375 417.01767 48.046875Q415.4083 46.34375 415.4083 43.515625L415.4083 43.109375Q415.4083 41.21875 416.12704 39.75Q416.8458 38.265625 418.14267 37.421875Q419.43954 36.578125 420.95517 36.578125Q423.42392 36.578125 424.7833 38.21875Q426.1583 39.84375 426.1583 42.875L426.1583 43.78125L417.58017 43.78125Q417.62704 45.65625 418.67392 46.8125Q419.7208 47.96875 421.33017 47.96875Q422.48642 47.96875 423.2833 47.5Q424.08017 47.03125 424.67392 46.25L426.00204 47.28125Q424.4083 49.734375 421.2208 49.734375ZM420.95517 38.359375Q419.64267 38.359375 418.75204 39.328125Q417.86142 40.28125 417.64267 42.0L424.00204 42.0L424.00204 41.828125Q423.9083 40.1875 423.11142 39.28125Q422.31454 38.359375 420.95517 38.359375ZM431.31454 49.5L429.14267 49.5L429.14267 31.5L431.31454 31.5L431.31454 49.5ZM444.20517 32.4375L449.7833 46.359375L455.36142 32.4375L458.2833 32.4375L458.2833 49.5L456.0333 49.5L456.0333 42.859375L456.23642 35.6875L450.64267 49.5L448.9083 49.5L443.33017 35.71875L443.54892 42.859375L443.54892 49.5L441.29892 49.5L441.29892 32.4375L444.20517 32.4375ZM467.2208 49.734375Q464.64267 49.734375 463.01767 48.046875Q461.4083 46.34375 461.4083 43.515625L461.4083 43.109375Q461.4083 41.21875 462.12704 39.75Q462.8458 38.265625 464.14267 37.421875Q465.43954 36.578125 466.95517 36.578125Q469.42392 36.578125 470.7833 38.21875Q472.1583 39.84375 472.1583 42.875L472.1583 43.78125L463.58017 43.78125Q463.62704 45.65625 464.67392 46.8125Q465.7208 47.96875 467.33017 47.96875Q468.48642 47.96875 469.2833 47.5Q470.08017 47.03125 470.67392 46.25L472.00204 47.28125Q470.4083 49.734375 467.2208 49.734375ZM466.95517 38.359375Q465.64267 38.359375 464.75204 39.328125Q463.86142 40.28125 463.64267 42.0L470.00204 42.0L470.00204 41.828125Q469.9083 40.1875 469.11142 39.28125Q468.31454 38.359375 466.95517 38.359375ZM477.00204 36.8125L477.04892 38.21875Q478.45517 36.578125 480.81454 36.578125Q483.4708 36.578125 484.43954 38.625Q485.06454 37.703125 486.08017 37.140625Q487.0958 36.578125 488.48642 36.578125Q492.6583 36.578125 492.7208 41.0L492.7208 49.5L490.54892 49.5L490.54892 41.125Q490.54892 39.765625 489.92392 39.09375Q489.31454 38.421875 487.8458 38.421875Q486.64267 38.421875 485.8458 39.140625Q485.04892 39.859375 484.92392 41.078125L484.92392 49.5L482.73642 49.5L482.73642 41.1875Q482.73642 38.421875 480.0333 38.421875Q477.89267 38.421875 477.11142 40.234375L477.11142 49.5L474.93954 49.5L474.93954 36.8125L477.00204 36.8125ZM506.68954 43.296875Q506.68954 46.203125 505.3458 47.96875Q504.01767 49.734375 501.76767 49.734375Q499.36142 49.734375 498.04892 48.03125L497.95517 49.5L495.95517 49.5L495.95517 31.5L498.12704 31.5L498.12704 38.21875Q499.43954 36.578125 501.73642 36.578125Q504.04892 36.578125 505.36142 38.328125Q506.68954 40.078125 506.68954 43.109375L506.68954 43.296875ZM504.51767 43.046875Q504.51767 40.84375 503.6583 39.640625Q502.81454 38.421875 501.20517 38.421875Q499.06454 38.421875 498.12704 40.421875L498.12704 45.90625Q499.12704 47.890625 501.23642 47.890625Q502.7833 47.890625 503.64267 46.6875Q504.51767 45.484375 504.51767 43.046875ZM514.2208 49.734375Q511.64267 49.734375 510.01767 48.046875Q508.4083 46.34375 508.4083 43.515625L508.4083 43.109375Q508.4083 41.21875 509.12704 39.75Q509.8458 38.265625 511.14267 37.421875Q512.4396 36.578125 513.9552 36.578125Q516.42395 36.578125 517.7833 38.21875Q519.1583 39.84375 519.1583 42.875L519.1583 43.78125L510.58017 43.78125Q510.62704 45.65625 511.67392 46.8125Q512.7208 47.96875 514.3302 47.96875Q515.48645 47.96875 516.2833 47.5Q517.0802 47.03125 517.67395 46.25L519.0021 47.28125Q517.4083 49.734375 514.2208 49.734375ZM513.9552 38.359375Q512.6427 38.359375 511.75204 39.328125Q510.86142 40.28125 510.64267 42.0L517.0021 42.0L517.0021 41.828125Q516.9083 40.1875 516.11145 39.28125Q515.3146 38.359375 513.9552 38.359375ZM528.0802 38.765625Q527.5958 38.6875 527.0177 38.6875Q524.8927 38.6875 524.1271 40.5L524.1271 49.5L521.9552 49.5L521.9552 36.8125L524.0646 36.8125L524.0958 38.28125Q525.17395 36.578125 527.1271 36.578125Q527.7521 36.578125 528.0802 36.75L528.0802 38.765625ZM537.3458 46.140625Q537.3458 45.25 536.67395 44.765625Q536.0177 44.28125 534.36145 43.9375Q532.7208 43.578125 531.7521 43.09375Q530.7833 42.59375 530.3146 41.921875Q529.86145 41.234375 529.86145 40.296875Q529.86145 38.734375 531.17395 37.65625Q532.5021 36.578125 534.54895 36.578125Q536.7052 36.578125 538.04895 37.703125Q539.3927 38.8125 539.3927 40.546875L537.2052 40.546875Q537.2052 39.65625 536.4552 39.015625Q535.7052 38.359375 534.54895 38.359375Q533.36145 38.359375 532.6896 38.875Q532.0333 39.390625 532.0333 40.234375Q532.0333 41.015625 532.6427 41.421875Q533.2677 41.8125 534.8927 42.171875Q536.5177 42.53125 537.5177 43.046875Q538.5333 43.546875 539.0177 44.265625Q539.5021 44.96875 539.5021 45.984375Q539.5021 47.6875 538.1427 48.71875Q536.7833 49.734375 534.6271 49.734375Q533.0958 49.734375 531.92395 49.203125Q530.7521 48.65625 530.0802 47.6875Q529.42395 46.71875 529.42395 45.59375L531.5958 45.59375Q531.6583 46.6875 532.4708 47.328125Q533.2833 47.96875 534.6271 47.96875Q535.8458 47.96875 536.5958 47.46875Q537.3458 46.96875 537.3458 46.140625ZM544.1271 38.359375Q545.5646 36.578125 547.8771 36.578125Q551.8927 36.578125 551.92395 41.125L551.92395 49.5L549.7677 49.5L549.7677 41.109375Q549.7521 39.734375 549.1271 39.078125Q548.5177 38.421875 547.2208 38.421875Q546.1583 38.421875 545.36145 38.984375Q544.5646 39.546875 544.1271 40.46875L544.1271 49.5L541.9552 49.5L541.9552 31.5L544.1271 31.5L544.1271 38.359375ZM557.3146 49.5L555.1427 49.5L555.1427 36.8125L557.3146 36.8125L557.3146 49.5ZM554.9708 33.453125Q554.9708 32.921875 555.2833 32.5625Q555.61145 32.203125 556.23645 32.203125Q556.8771 32.203125 557.2052 32.5625Q557.5333 32.921875 557.5333 33.453125Q557.5333 33.984375 557.2052 34.34375Q556.8771 34.6875 556.23645 34.6875Q555.61145 34.6875 555.2833 34.34375Q554.9708 33.984375 554.9708 33.453125ZM571.67395 43.296875Q571.67395 46.1875 570.3458 47.96875Q569.0177 49.734375 566.7521 49.734375Q564.4552 49.734375 563.1271 48.265625L563.1271 54.375L560.9552 54.375L560.9552 36.8125L562.9396 36.8125L563.04895 38.21875Q564.36145 36.578125 566.7208 36.578125Q569.0021 36.578125 570.3302 38.3125Q571.67395 40.03125 571.67395 43.09375L571.67395 43.296875ZM569.5021 43.046875Q569.5021 40.90625 568.5802 39.671875Q567.67395 38.421875 566.0802 38.421875Q564.11145 38.421875 563.1271 40.171875L563.1271 46.234375Q564.0958 47.96875 566.0958 47.96875Q567.6583 47.96875 568.5802 46.734375Q569.5021 45.484375 569.5021 43.046875ZM573.8771 48.359375Q573.8771 47.796875 574.2052 47.421875Q574.54895 47.046875 575.2052 47.046875Q575.8771 47.046875 576.2208 47.421875Q576.5802 47.796875 576.5802 48.359375Q576.5802 48.90625 576.2208 49.265625Q575.8771 49.625 575.2052 49.625Q574.54895 49.625 574.2052 49.265625Q573.8771 48.90625 573.8771 48.359375ZM573.8927 38.015625Q573.8927 37.453125 574.2208 37.078125Q574.5646 36.703125 575.2208 36.703125Q575.8927 36.703125 576.23645 37.078125Q576.5958 37.453125 576.5958 38.015625Q576.5958 38.5625 576.23645 38.921875Q575.8927 39.28125 575.2208 39.28125Q574.5646 39.28125 574.2208 38.921875Q573.8927 38.5625 573.8927 38.015625ZM599.4083 49.5L597.1427 49.5L597.1427 41.609375L588.54895 41.609375L588.54895 49.5L586.29895 49.5L586.29895 32.4375L588.54895 32.4375L588.54895 39.765625L597.1427 39.765625L597.1427 32.4375L599.4083 32.4375L599.4083 49.5ZM608.2208 49.734375Q605.6427 49.734375 604.0177 48.046875Q602.4083 46.34375 602.4083 43.515625L602.4083 43.109375Q602.4083 41.21875 603.1271 39.75Q603.8458 38.265625 605.1427 37.421875Q606.4396 36.578125 607.9552 36.578125Q610.42395 36.578125 611.7833 38.21875Q613.1583 39.84375 613.1583 42.875L613.1583 43.78125L604.5802 43.78125Q604.6271 45.65625 605.67395 46.8125Q606.7208 47.96875 608.3302 47.96875Q609.48645 47.96875 610.2833 47.5Q611.0802 47.03125 611.67395 46.25L613.0021 47.28125Q611.4083 49.734375 608.2208 49.734375ZM607.9552 38.359375Q606.6427 38.359375 605.7521 39.328125Q604.86145 40.28125 604.6427 42.0L611.0021 42.0L611.0021 41.828125Q610.9083 40.1875 610.11145 39.28125Q609.3146 38.359375 607.9552 38.359375ZM618.3146 49.5L616.1427 49.5L616.1427 31.5L618.3146 31.5L618.3146 49.5ZM632.67395 43.296875Q632.67395 46.1875 631.3458 47.96875Q630.0177 49.734375 627.7521 49.734375Q625.4552 49.734375 624.1271 48.265625L624.1271 54.375L621.9552 54.375L621.9552 36.8125L623.9396 36.8125L624.04895 38.21875Q625.36145 36.578125 627.7208 36.578125Q630.0021 36.578125 631.3302 38.3125Q632.67395 40.03125 632.67395 43.09375L632.67395 43.296875ZM630.5021 43.046875Q630.5021 40.90625 629.5802 39.671875Q628.67395 38.421875 627.0802 38.421875Q625.11145 38.421875 624.1271 40.171875L624.1271 46.234375Q625.0958 47.96875 627.0958 47.96875Q628.6583 47.96875 629.5802 46.734375Q630.5021 45.484375 630.5021 43.046875ZM647.17395 40.34375L651.92395 40.34375L651.92395 42.390625L647.17395 42.390625L647.17395 47.78125L644.98645 47.78125L644.98645 42.390625L640.23645 42.390625L640.23645 40.34375L644.98645 40.34375L644.98645 35.359375L647.17395 35.359375L647.17395 40.34375ZM664.2052 32.4375L669.7833 46.359375L675.36145 32.4375L678.2833 32.4375L678.2833 49.5L676.0333 49.5L676.0333 42.859375L676.23645 35.6875L670.6427 49.5L668.9083 49.5L663.3302 35.71875L663.54895 42.859375L663.54895 49.5L661.29895 49.5L661.29895 32.4375L664.2052 32.4375ZM689.7833 49.5Q689.5958 49.125 689.48645 48.15625Q687.9708 49.734375 685.8771 49.734375Q684.0021 49.734375 682.79895 48.671875Q681.5958 47.609375 681.5958 45.984375Q681.5958 44.0 683.0958 42.90625Q684.61145 41.8125 687.3302 41.8125L689.4396 41.8125L689.4396 40.8125Q689.4396 39.671875 688.7521 39.0Q688.0802 38.328125 686.7677 38.328125Q685.5958 38.328125 684.8146 38.921875Q684.0333 39.5 684.0333 40.328125L681.8458 40.328125Q681.8458 39.390625 682.5177 38.5Q683.2052 37.609375 684.3458 37.09375Q685.5021 36.578125 686.8927 36.578125Q689.0802 36.578125 690.3146 37.6875Q691.5646 38.78125 691.61145 40.703125L691.61145 46.53125Q691.61145 48.28125 692.0646 49.3125L692.0646 49.5L689.7833 49.5ZM686.1896 47.84375Q687.2052 47.84375 688.11145 47.328125Q689.0333 46.796875 689.4396 45.953125L689.4396 43.34375L687.7521 43.34375Q683.7677 43.34375 683.7677 45.671875Q683.7677 46.703125 684.4396 47.28125Q685.1271 47.84375 686.1896 47.84375ZM697.3146 49.5L695.1427 49.5L695.1427 36.8125L697.3146 36.8125L697.3146 49.5ZM694.9708 33.453125Q694.9708 32.921875 695.2833 32.5625Q695.61145 32.203125 696.23645 32.203125Q696.8771 32.203125 697.2052 32.5625Q697.5333 32.921875 697.5333 33.453125Q697.5333 33.984375 697.2052 34.34375Q696.8771 34.6875 696.23645 34.6875Q695.61145 34.6875 695.2833 34.34375Q694.9708 33.984375 694.9708 33.453125ZM703.0021 36.8125L703.0802 38.40625Q704.5333 36.578125 706.8771 36.578125Q710.8927 36.578125 710.92395 41.125L710.92395 49.5L708.7677 49.5L708.7677 41.109375Q708.7521 39.734375 708.1271 39.078125Q707.5177 38.421875 706.2208 38.421875Q705.1583 38.421875 704.36145 38.984375Q703.5646 39.546875 703.1271 40.46875L703.1271 49.5L700.9552 49.5L700.9552 36.8125L703.0021 36.8125ZM732.8927 47.265625Q732.0333 48.5 730.4708 49.125Q728.92395 49.734375 726.86145 49.734375Q724.7677 49.734375 723.1427 48.765625Q721.5333 47.78125 720.6427 45.984375Q719.7677 44.171875 719.7521 41.78125L719.7521 40.296875Q719.7521 36.4375 721.54895 34.328125Q723.3458 32.203125 726.5958 32.203125Q729.2677 32.203125 730.8927 33.578125Q732.5333 34.9375 732.8927 37.4375L730.6427 37.4375Q730.0177 34.046875 726.61145 34.046875Q724.3458 34.046875 723.17395 35.640625Q722.0177 37.234375 722.0021 40.234375L722.0021 41.640625Q722.0021 44.5 723.3146 46.203125Q724.6271 47.890625 726.8771 47.890625Q728.1427 47.890625 729.0802 47.609375Q730.0333 47.328125 730.6583 46.65625L730.6583 42.828125L726.7052 42.828125L726.7052 41.0L732.8927 41.0L732.8927 47.265625ZM738.3146 49.5L736.1427 49.5L736.1427 36.8125L738.3146 36.8125L738.3146 49.5ZM735.9708 33.453125Q735.9708 32.921875 736.2833 32.5625Q736.61145 32.203125 737.23645 32.203125Q737.8771 32.203125 738.2052 32.5625Q738.5333 32.921875 738.5333 33.453125Q738.5333 33.984375 738.2052 34.34375Q737.8771 34.6875 737.23645 34.6875Q736.61145 34.6875 736.2833 34.34375Q735.9708 33.984375 735.9708 33.453125ZM744.8927 33.75L744.8927 36.8125L747.2677 36.8125L747.2677 38.5L744.8927 38.5L744.8927 46.359375Q744.8927 47.125 745.2052 47.5Q745.5333 47.875 746.29895 47.875Q746.67395 47.875 747.3302 47.734375L747.3302 49.5Q746.4708 49.734375 745.6583 49.734375Q744.2052 49.734375 743.4708 48.859375Q742.73645 47.96875 742.73645 46.359375L742.73645 38.5L740.42395 38.5L740.42395 36.8125L742.73645 36.8125L742.73645 33.75L744.8927 33.75ZM752.8927 33.75L752.8927 36.8125L755.2677 36.8125L755.2677 38.5L752.8927 38.5L752.8927 46.359375Q752.8927 47.125 753.2052 47.5Q753.5333 47.875 754.29895 47.875Q754.67395 47.875 755.3302 47.734375L755.3302 49.5Q754.4708 49.734375 753.6583 49.734375Q752.2052 49.734375 751.4708 48.859375Q750.73645 47.96875 750.73645 46.359375L750.73645 38.5L748.42395 38.5L748.42395 36.8125L750.73645 36.8125L750.73645 33.75L752.8927 33.75ZM763.2208 49.734375Q760.6427 49.734375 759.0177 48.046875Q757.4083 46.34375 757.4083 43.515625L757.4083 43.109375Q757.4083 41.21875 758.1271 39.75Q758.8458 38.265625 760.1427 37.421875Q761.4396 36.578125 762.9552 36.578125Q765.42395 36.578125 766.7833 38.21875Q768.1583 39.84375 768.1583 42.875L768.1583 43.78125L759.5802 43.78125Q759.6271 45.65625 760.67395 46.8125Q761.7208 47.96875 763.3302 47.96875Q764.48645 47.96875 765.2833 47.5Q766.0802 47.03125 766.67395 46.25L768.0021 47.28125Q766.4083 49.734375 763.2208 49.734375ZM762.9552 38.359375Q761.6427 38.359375 760.7521 39.328125Q759.86145 40.28125 759.6427 42.0L766.0021 42.0L766.0021 41.828125Q765.9083 40.1875 765.11145 39.28125Q764.3146 38.359375 762.9552 38.359375ZM777.0802 38.765625Q776.5958 38.6875 776.0177 38.6875Q773.8927 38.6875 773.1271 40.5L773.1271 49.5L770.9552 49.5L770.9552 36.8125L773.0646 36.8125L773.0958 38.28125Q774.17395 36.578125 776.1271 36.578125Q776.7521 36.578125 777.0802 36.75L777.0802 38.765625Z" fill-rule="nonzero"/></svg>