<?xml version="1.0" encoding="UTF-8" standalone="no"?>
<!DOCTYPE svg PUBLIC "-//W3C//DTD SVG 1.1//EN" "http://www.w3.org/Graphics/SVG/1.1/DTD/svg11.dtd">
<svg width="100%" height="100%" viewBox="0 0 1565 213" version="1.1" xmlns="http://www.w3.org/2000/svg" xmlns:xlink="http://www.w3.org/1999/xlink" xml:space="preserve" xmlns:serif="http://www.serif.com/" style="fill-rule:evenodd;clip-rule:evenodd;stroke-linejoin:round;stroke-miterlimit:2;">
    <path d="M238.919,86.787C240.98,84.768 243.3,83.29 245.881,82.31C248.462,81.351 251.082,80.872 253.703,80.872C256.944,80.872 260.024,81.571 262.965,82.97C265.906,84.369 268.406,86.367 270.467,88.945C272.527,91.523 273.687,94.62 273.948,98.197L273.948,99.256L232.638,99.256C232.958,97.618 233.358,96.059 233.898,94.66C235.198,91.423 236.859,88.805 238.919,86.787M283.57,106.95C284.63,106.03 285.15,104.871 285.15,103.473C285.07,98.477 284.15,94.021 282.39,90.084C280.629,86.147 278.309,82.73 275.428,79.833C272.527,76.935 269.206,74.757 265.426,73.258C261.645,71.779 257.744,71.02 253.723,71.02C248.282,71.02 243.14,72.439 238.279,75.296C233.418,78.134 229.477,82.25 226.436,87.646C223.416,93.021 221.895,99.536 221.895,107.149C221.895,113.984 223.336,119.999 226.236,125.214C229.137,130.43 233.198,134.526 238.459,137.504C243.72,140.481 249.902,141.96 257.004,141.96C261.745,141.96 266.186,140.961 270.347,138.943C274.508,136.924 277.868,134.566 280.409,131.849C281.809,130.63 282.51,129.271 282.51,127.772C282.51,126.553 282.069,125.494 281.189,124.615C280.309,123.735 279.269,123.296 278.028,123.296C276.888,123.296 275.748,123.695 274.608,124.475C273.467,125.694 272.087,126.913 270.467,128.092C268.846,129.271 266.886,130.25 264.625,131.049C262.345,131.829 259.664,132.228 256.603,132.228C251.682,132.228 247.401,131.109 243.72,128.871C240.04,126.633 237.159,123.596 235.098,119.739C233.298,116.402 232.298,112.585 232.058,108.308L279.869,108.308C281.289,108.328 282.51,107.869 283.57,106.95" style="fill:#030204;"/>
    <path d="M354.826,106.49C354.826,101.414 353.786,96.958 351.746,93.161C349.685,89.344 346.885,86.327 343.324,84.089C339.783,81.851 335.802,80.732 331.421,80.732C326.96,80.732 322.939,81.851 319.398,84.089C315.857,86.327 313.017,89.344 310.916,93.161C308.816,96.978 307.755,101.414 307.755,106.49C307.755,111.486 308.816,115.902 310.916,119.759C313.017,123.616 315.857,126.653 319.398,128.891C322.959,131.129 326.96,132.248 331.421,132.248C335.802,132.248 339.763,131.129 343.324,128.891C346.885,126.653 349.685,123.616 351.746,119.759C353.806,115.902 354.826,111.486 354.826,106.49M365.489,106.49C365.489,113.324 363.969,119.399 360.948,124.755C357.927,130.09 353.846,134.307 348.725,137.364C343.604,140.421 337.822,141.96 331.441,141.96C325.039,141.96 319.258,140.421 314.077,137.364C308.896,134.307 304.815,130.09 301.774,124.755C298.753,119.419 297.233,113.324 297.233,106.49C297.233,99.656 298.753,93.581 301.774,88.225C304.795,82.89 308.896,78.674 314.077,75.616C319.258,72.559 325.039,71.02 331.441,71.02C337.842,71.02 343.604,72.559 348.725,75.616C353.846,78.674 357.927,82.89 360.948,88.225C363.969,93.561 365.489,99.656 365.489,106.49" style="fill:#030204;"/>
    <path d="M377.312,129.87C376.612,128.731 376.271,127.532 376.332,126.253C376.372,124.994 377.092,123.875 378.512,122.896C379.472,122.277 380.552,122.017 381.733,122.117C382.913,122.197 383.993,122.776 384.954,123.815C387.414,126.713 390.215,129.011 393.375,130.71C396.536,132.408 400.397,133.267 404.958,133.267C406.979,133.187 409.059,132.828 411.2,132.208C413.34,131.589 415.141,130.53 416.601,128.991C418.041,127.452 418.761,125.434 418.761,122.876C418.761,120.418 418.021,118.48 416.521,117.021C415.021,115.582 413.08,114.403 410.66,113.484C408.239,112.565 405.678,111.766 402.958,111.046C400.077,110.267 397.216,109.388 394.416,108.428C391.615,107.469 389.094,106.21 386.854,104.692C384.613,103.153 382.813,101.234 381.453,98.916C380.092,96.598 379.412,93.721 379.412,90.304C379.412,86.367 380.492,82.95 382.633,80.052C384.773,77.155 387.654,74.937 391.255,73.358C394.836,71.779 398.837,71 403.218,71C405.678,71 408.239,71.28 410.92,71.859C413.58,72.439 416.201,73.398 418.741,74.757C421.282,76.116 423.523,77.974 425.443,80.332C426.223,81.211 426.663,82.31 426.763,83.609C426.843,84.928 426.283,86.107 425.063,87.166C424.103,87.866 423.022,88.205 421.842,88.146C420.662,88.106 419.682,87.686 418.881,86.907C416.961,84.628 414.6,82.89 411.84,81.711C409.079,80.532 406.038,79.932 402.698,79.932C400.677,79.932 398.657,80.252 396.656,80.912C394.636,81.571 392.955,82.59 391.595,84.009C390.235,85.408 389.555,87.386 389.555,89.924C389.635,92.282 390.435,94.22 391.915,95.699C393.396,97.198 395.416,98.397 397.957,99.316C400.497,100.235 403.298,101.135 406.379,102.014C409.179,102.713 411.88,103.533 414.46,104.452C417.041,105.371 419.382,106.57 421.502,108.069C423.603,109.567 425.263,111.466 426.503,113.784C427.724,116.102 428.344,119.019 428.344,122.516C428.344,126.553 427.203,130.03 424.923,132.968C422.642,135.905 419.642,138.143 415.921,139.662C412.2,141.201 408.179,141.96 403.898,141.96C399.077,141.96 394.296,141.061 389.555,139.262C384.813,137.464 380.733,134.326 377.312,129.87" style="fill:#030204;"/>
    <path d="M473.694,71.02C478.255,71.02 482.336,71.5 485.917,72.459C489.518,73.418 492.359,74.737 494.459,76.395C496.56,78.054 497.62,79.932 497.62,82.051C497.62,83.27 497.22,84.409 496.44,85.468C495.639,86.527 494.559,87.046 493.159,87.046C492.019,87.046 491.078,86.807 490.338,86.327C489.598,85.847 488.898,85.268 488.238,84.628C487.578,83.969 486.677,83.33 485.537,82.73C484.477,82.211 482.956,81.751 480.936,81.351C478.916,80.952 476.895,80.752 474.895,80.752C470.073,80.752 465.832,81.891 462.212,84.169C458.571,86.447 455.71,89.504 453.59,93.361C451.489,97.218 450.429,101.594 450.429,106.49C450.429,111.386 451.429,115.782 453.45,119.619C455.47,123.476 458.271,126.533 461.872,128.811C465.472,131.089 469.633,132.228 474.354,132.228C477.415,132.228 479.856,131.968 481.656,131.449C483.457,130.929 485.017,130.31 486.317,129.61C487.798,128.731 488.958,127.852 489.798,126.993C490.638,126.113 491.799,125.674 493.279,125.674C494.759,125.674 495.94,126.153 496.76,127.113C497.6,128.072 498,129.251 498,130.67C498,132.328 496.9,134.047 494.719,135.785C492.519,137.544 489.538,139.003 485.777,140.182C481.996,141.361 477.795,141.96 473.154,141.96C466.493,141.96 460.671,140.401 455.67,137.304C450.669,134.207 446.788,129.95 444.027,124.555C441.267,119.159 439.886,113.144 439.886,106.49C439.886,99.836 441.307,93.841 444.167,88.485C447.008,83.15 450.989,78.893 456.07,75.736C461.171,72.599 467.033,71.02 473.694,71.02" style="fill:#030204;"/>
    <path d="M125.713,76.695C119.951,72.978 113.29,71.02 106.428,71.02C99.567,71.02 92.905,72.978 87.144,76.715C85.964,77.475 85.203,78.713 85.063,80.112C84.903,81.551 85.403,82.95 86.424,83.969L88.344,85.887C89.264,86.807 90.465,87.266 91.665,87.266C92.505,87.266 93.345,87.046 94.105,86.567C97.806,84.289 102.067,83.07 106.428,83.07C110.769,83.07 115.03,84.269 118.731,86.567C120.572,87.706 122.952,87.426 124.493,85.867L126.413,83.949C127.433,82.93 127.933,81.531 127.773,80.092C127.653,78.693 126.893,77.455 125.713,76.695" style="fill:#3f6cb3;"/>
    <path d="M100.967,129.65C90.225,127.113 82.703,117.621 82.703,106.59C82.703,102.214 83.923,97.937 86.224,94.2C87.324,92.422 87.044,90.144 85.563,88.665L83.643,86.747C82.663,85.768 81.322,85.288 79.942,85.448C78.602,85.588 77.401,86.327 76.661,87.446C72.96,93.161 71,99.796 71,106.59C71,123.136 82.763,137.684 98.947,141.181C99.247,141.241 99.567,141.281 99.867,141.281C100.867,141.281 101.847,140.941 102.647,140.281C103.728,139.402 104.348,138.123 104.348,136.724L104.348,134.027C104.368,131.968 102.947,130.11 100.967,129.65" style="fill:#ccab31;"/>
    <path d="M165.602,71.2C146.058,71.2 130.174,87.086 130.174,106.59L130.194,106.75L130.174,106.93C130.014,118.04 121.992,127.672 111.089,129.83C109.609,130.13 108.529,131.429 108.529,132.948L108.529,138.343C108.529,139.282 108.949,140.182 109.669,140.801C110.369,141.401 111.309,141.66 112.21,141.52C129.414,138.703 141.897,124.015 141.897,106.59C141.897,93.521 152.539,82.89 165.622,82.89C178.705,82.89 189.348,93.521 189.348,106.59C189.348,119.659 178.705,130.29 165.622,130.29C162.401,130.29 159.761,132.908 159.761,136.145C159.761,139.362 162.381,142 165.622,142C185.167,142 201.05,126.113 201.05,106.61C201.03,87.086 185.127,71.2 165.602,71.2" style="fill:#3f6cb3;"/>
    <path d="M542.269,177.5L542.269,35.5C542.269,34.672 541.597,34 540.769,34C539.941,34 539.269,34.672 539.269,35.5L539.269,177.5C539.269,178.328 539.941,179 540.769,179C541.597,179 542.269,178.328 542.269,177.5Z" style="fill:#030204;"/>
    <path d="M623.062,109.584L592.758,109.584L592.758,134.364L627.96,134.364L627.96,141.904L583.537,141.904L583.537,71.98L627.48,71.98L627.48,79.52L592.758,79.52L592.758,102.044L623.062,102.044L623.062,109.584Z" style="fill:#3f6cb3;"/>
    <path d="M669.309,136.766C665.851,140.832 660.777,142.865 654.085,142.865C648.547,142.865 644.328,141.256 641.431,138.038C638.534,134.821 637.069,130.058 637.037,123.751L637.037,89.942L645.921,89.942L645.921,123.511C645.921,131.387 649.123,135.325 655.526,135.325C662.314,135.325 666.828,132.796 669.069,127.737L669.069,89.942L677.954,89.942L677.954,141.904L669.501,141.904L669.309,136.766Z" style="fill:#3f6cb3;"/>
    <path d="M716.565,97.914C715.221,97.69 713.764,97.578 712.195,97.578C706.368,97.578 702.414,100.059 700.333,105.021L700.333,141.904L691.449,141.904L691.449,89.942L700.093,89.942L700.237,95.945C703.151,91.302 707.281,88.981 712.627,88.981C714.356,88.981 715.669,89.205 716.565,89.654L716.565,97.914Z" style="fill:#3f6cb3;"/>
    <path d="M721.416,115.443C721.416,110.352 722.416,105.774 724.417,101.708C726.418,97.642 729.204,94.504 732.774,92.295C736.343,90.086 740.418,88.981 744.996,88.981C752.072,88.981 757.794,91.43 762.165,96.329C766.535,101.227 768.72,107.743 768.72,115.875L768.72,116.499C768.72,121.558 767.752,126.096 765.815,130.114C763.878,134.132 761.108,137.262 757.506,139.503C753.904,141.744 749.766,142.865 745.092,142.865C738.048,142.865 732.341,140.415 727.971,135.517C723.601,130.618 721.416,124.135 721.416,116.067L721.416,115.443ZM730.348,116.499C730.348,122.262 731.685,126.889 734.358,130.378C737.032,133.868 740.61,135.613 745.092,135.613C749.606,135.613 753.192,133.844 755.849,130.306C758.507,126.768 759.835,121.814 759.835,115.443C759.835,109.744 758.483,105.125 755.777,101.588C753.072,98.05 749.478,96.281 744.996,96.281C740.61,96.281 737.072,98.026 734.382,101.516C731.693,105.005 730.348,110 730.348,116.499Z" style="fill:#3f6cb3;"/>
    <path d="M801.857,110.736C793.949,108.463 788.194,105.67 784.592,102.356C780.99,99.042 779.189,94.952 779.189,90.086C779.189,84.579 781.391,80.025 785.793,76.423C790.195,72.821 795.918,71.02 802.962,71.02C807.764,71.02 812.046,71.948 815.808,73.805C819.57,75.662 822.484,78.224 824.549,81.489C826.614,84.755 827.646,88.325 827.646,92.199L818.377,92.199C818.377,87.958 817.033,84.624 814.343,82.198C811.654,79.773 807.86,78.56 802.962,78.56C798.415,78.56 794.869,79.562 792.324,81.567C789.779,83.572 788.506,86.354 788.506,89.914C788.506,92.769 789.715,95.183 792.132,97.155C794.549,99.128 798.663,100.932 804.474,102.568C810.285,104.203 814.832,106.006 818.113,107.975C821.395,109.944 823.828,112.241 825.413,114.866C826.998,117.492 827.79,120.581 827.79,124.135C827.79,129.802 825.581,134.34 821.163,137.75C816.745,141.16 810.838,142.865 803.442,142.865C798.639,142.865 794.157,141.944 789.995,140.103C785.833,138.262 782.623,135.741 780.366,132.539C778.109,129.338 776.98,125.704 776.98,121.638L786.249,121.638C786.249,125.864 787.81,129.202 790.931,131.651C794.053,134.1 798.223,135.325 803.442,135.325C808.308,135.325 812.038,134.332 814.631,132.347C817.225,130.362 818.521,127.657 818.521,124.231C818.521,120.805 817.321,118.156 814.92,116.283C812.518,114.41 808.164,112.561 801.857,110.736Z" style="fill:#ccab31;"/>
    <path d="M859.054,135.613C862.224,135.613 864.993,134.652 867.362,132.732C869.732,130.811 871.044,128.409 871.3,125.528L879.705,125.528C879.545,128.505 878.52,131.339 876.631,134.028C874.742,136.718 872.221,138.863 869.067,140.463C865.914,142.064 862.576,142.865 859.054,142.865C851.979,142.865 846.352,140.503 842.174,135.781C837.995,131.059 835.906,124.599 835.906,116.403L835.906,114.914C835.906,109.856 836.835,105.358 838.692,101.42C840.549,97.482 843.214,94.424 846.688,92.247C850.162,90.07 854.268,88.981 859.006,88.981C864.833,88.981 869.676,90.726 873.534,94.216C877.392,97.706 879.449,102.236 879.705,107.807L871.3,107.807C871.044,104.445 869.772,101.684 867.482,99.523C865.193,97.361 862.368,96.281 859.006,96.281C854.492,96.281 850.994,97.906 848.513,101.155C846.032,104.405 844.791,109.103 844.791,115.251L844.791,116.931C844.791,122.919 846.024,127.529 848.489,130.763C850.954,133.996 854.476,135.613 859.054,135.613Z" style="fill:#ccab31;"/>
    <path d="M899.347,141.904L890.462,141.904L890.462,89.942L899.347,89.942L899.347,141.904ZM889.742,76.159C889.742,74.718 890.182,73.501 891.063,72.509C891.943,71.516 893.248,71.02 894.977,71.02C896.705,71.02 898.018,71.516 898.915,72.509C899.811,73.501 900.259,74.718 900.259,76.159C900.259,77.599 899.811,78.8 898.915,79.76C898.018,80.721 896.705,81.201 894.977,81.201C893.248,81.201 891.943,80.721 891.063,79.76C890.182,78.8 889.742,77.599 889.742,76.159Z" style="fill:#ccab31;"/>
    <path d="M935.125,142.865C928.081,142.865 922.351,140.552 917.932,135.925C913.514,131.299 911.305,125.112 911.305,117.364L911.305,115.731C911.305,110.576 912.289,105.974 914.258,101.924C916.227,97.874 918.981,94.704 922.519,92.415C926.056,90.126 929.89,88.981 934.02,88.981C940.776,88.981 946.027,91.206 949.773,95.657C953.518,100.107 955.391,106.478 955.391,114.77L955.391,118.468L920.189,118.468C920.317,123.591 921.814,127.729 924.68,130.883C927.545,134.036 931.187,135.613 935.605,135.613C938.743,135.613 941.4,134.973 943.577,133.692C945.754,132.411 947.659,130.714 949.292,128.601L954.719,132.828C950.365,139.519 943.834,142.865 935.125,142.865ZM934.02,96.281C930.435,96.281 927.425,97.586 924.992,100.195C922.559,102.804 921.054,106.462 920.478,111.168L946.507,111.168L946.507,110.496C946.251,105.982 945.034,102.484 942.857,100.003C940.68,97.522 937.734,96.281 934.02,96.281Z" style="fill:#ccab31;"/>
    <path d="M974.073,89.942L974.361,96.473C978.331,91.478 983.518,88.981 989.921,88.981C1000.9,88.981 1006.44,95.176 1006.54,107.567L1006.54,141.904L997.653,141.904L997.653,107.519C997.621,103.773 996.765,101.003 995.084,99.21C993.403,97.417 990.786,96.521 987.232,96.521C984.35,96.521 981.821,97.289 979.644,98.826C977.467,100.363 975.77,102.38 974.553,104.877L974.553,141.904L965.669,141.904L965.669,89.942L974.073,89.942Z" style="fill:#ccab31;"/>
    <path d="M1040.78,135.613C1043.95,135.613 1046.72,134.652 1049.09,132.732C1051.46,130.811 1052.77,128.409 1053.03,125.528L1061.43,125.528C1061.27,128.505 1060.25,131.339 1058.36,134.028C1056.47,136.718 1053.95,138.863 1050.79,140.463C1047.64,142.064 1044.3,142.865 1040.78,142.865C1033.7,142.865 1028.08,140.503 1023.9,135.781C1019.72,131.059 1017.63,124.599 1017.63,116.403L1017.63,114.914C1017.63,109.856 1018.56,105.358 1020.42,101.42C1022.27,97.482 1024.94,94.424 1028.41,92.247C1031.89,90.07 1035.99,88.981 1040.73,88.981C1046.56,88.981 1051.4,90.726 1055.26,94.216C1059.12,97.706 1061.17,102.236 1061.43,107.807L1053.03,107.807C1052.77,104.445 1051.5,101.684 1049.21,99.523C1046.92,97.361 1044.09,96.281 1040.73,96.281C1036.22,96.281 1032.72,97.906 1030.24,101.155C1027.76,104.405 1026.52,109.103 1026.52,115.251L1026.52,116.931C1026.52,122.919 1027.75,127.529 1030.21,130.763C1032.68,133.996 1036.2,135.613 1040.78,135.613Z" style="fill:#ccab31;"/>
    <path d="M1092.98,142.865C1085.94,142.865 1080.21,140.552 1075.79,135.925C1071.37,131.299 1069.16,125.112 1069.16,117.364L1069.16,115.731C1069.16,110.576 1070.15,105.974 1072.12,101.924C1074.08,97.874 1076.84,94.704 1080.38,92.415C1083.91,90.126 1087.75,88.981 1091.88,88.981C1098.63,88.981 1103.88,91.206 1107.63,95.657C1111.38,100.107 1113.25,106.478 1113.25,114.77L1113.25,118.468L1078.05,118.468C1078.17,123.591 1079.67,127.729 1082.54,130.883C1085.4,134.036 1089.04,135.613 1093.46,135.613C1096.6,135.613 1099.26,134.973 1101.43,133.692C1103.61,132.411 1105.52,130.714 1107.15,128.601L1112.58,132.828C1108.22,139.519 1101.69,142.865 1092.98,142.865ZM1091.88,96.281C1088.29,96.281 1085.28,97.586 1082.85,100.195C1080.41,102.804 1078.91,106.462 1078.33,111.168L1104.36,111.168L1104.36,110.496C1104.11,105.982 1102.89,102.484 1100.71,100.003C1098.54,97.522 1095.59,96.281 1091.88,96.281Z" style="fill:#ccab31;"/>
    <path d="M1176.54,132.732C1174.17,136.125 1170.87,138.663 1166.63,140.343C1162.38,142.024 1157.45,142.865 1151.81,142.865C1146.11,142.865 1141.05,141.528 1136.64,138.855C1132.22,136.181 1128.8,132.379 1126.38,127.449C1123.97,122.518 1122.73,116.803 1122.66,110.304L1122.66,104.205C1122.66,93.672 1125.12,85.507 1130.03,79.712C1134.95,73.917 1141.86,71.02 1150.76,71.02C1158.06,71.02 1163.93,72.885 1168.38,76.615C1172.83,80.345 1175.55,85.635 1176.54,92.487L1167.32,92.487C1165.6,83.202 1160.09,78.56 1150.8,78.56C1144.62,78.56 1139.94,80.731 1136.76,85.073C1133.57,89.415 1131.96,95.703 1131.93,103.939L1131.93,109.658C1131.93,117.508 1133.72,123.749 1137.31,128.379C1140.89,133.01 1145.75,135.325 1151.86,135.325C1155.32,135.325 1158.34,134.942 1160.94,134.175C1163.53,133.408 1165.67,132.115 1167.37,130.294L1167.37,114.626L1151.19,114.626L1151.19,107.086L1176.54,107.086L1176.54,132.732Z" style="fill:#3f6cb3;"/>
    <path d="M1222.6,141.904C1222.09,140.88 1221.67,139.055 1221.35,136.429C1217.22,140.72 1212.29,142.865 1206.56,142.865C1201.44,142.865 1197.24,141.416 1193.95,138.518C1190.67,135.621 1189.03,131.947 1189.03,127.497C1189.03,122.086 1191.09,117.884 1195.2,114.89C1199.32,111.897 1205.1,110.4 1212.56,110.4L1221.21,110.4L1221.21,106.318C1221.21,103.212 1220.28,100.739 1218.42,98.898C1216.57,97.057 1213.83,96.137 1210.21,96.137C1207.04,96.137 1204.38,96.937 1202.24,98.538C1200.09,100.139 1199.02,102.076 1199.02,104.349L1190.09,104.349C1190.09,101.756 1191.01,99.25 1192.85,96.833C1194.69,94.416 1197.19,92.503 1200.34,91.094C1203.49,89.686 1206.96,88.981 1210.74,88.981C1216.73,88.981 1221.41,90.478 1224.81,93.471C1228.2,96.465 1229.96,100.587 1230.09,105.838L1230.09,129.754C1230.09,134.524 1230.7,138.318 1231.92,141.136L1231.92,141.904L1222.6,141.904ZM1207.86,135.133C1210.64,135.133 1213.28,134.412 1215.78,132.972C1218.28,131.531 1220.09,129.658 1221.21,127.353L1221.21,116.691L1214.24,116.691C1203.36,116.691 1197.91,119.877 1197.91,126.248C1197.91,129.034 1198.84,131.211 1200.7,132.78C1202.56,134.348 1204.94,135.133 1207.86,135.133Z" style="fill:#3f6cb3;"/>
    <path d="M1256.07,77.359L1256.07,89.942L1265.77,89.942L1265.77,96.809L1256.07,96.809L1256.07,129.074C1256.07,131.158 1256.51,132.72 1257.37,133.762C1258.23,134.804 1259.71,135.325 1261.79,135.325C1262.81,135.325 1264.22,135.133 1266.01,134.749L1266.01,141.91C1263.68,142.547 1261.4,142.865 1259.19,142.865C1255.23,142.865 1252.23,141.664 1250.21,139.263C1248.2,136.862 1247.19,133.452 1247.19,129.034L1247.19,96.809L1237.73,96.809L1237.73,89.942L1247.19,89.942L1247.19,77.359L1256.07,77.359Z" style="fill:#3f6cb3;"/>
    <path d="M1297.71,142.865C1290.67,142.865 1284.94,140.552 1280.52,135.925C1276.1,131.299 1273.89,125.112 1273.89,117.364L1273.89,115.731C1273.89,110.576 1274.88,105.974 1276.84,101.924C1278.81,97.874 1281.57,94.704 1285.1,92.415C1288.64,90.126 1292.48,88.981 1296.61,88.981C1303.36,88.981 1308.61,91.206 1312.36,95.657C1316.1,100.107 1317.98,106.478 1317.98,114.77L1317.98,118.468L1282.78,118.468C1282.9,123.591 1284.4,127.729 1287.27,130.883C1290.13,134.036 1293.77,135.613 1298.19,135.613C1301.33,135.613 1303.99,134.973 1306.16,133.692C1308.34,132.411 1310.25,130.714 1311.88,128.601L1317.3,132.828C1312.95,139.519 1306.42,142.865 1297.71,142.865ZM1296.61,96.281C1293.02,96.281 1290.01,97.586 1287.58,100.195C1285.14,102.804 1283.64,106.462 1283.06,111.168L1309.09,111.168L1309.09,110.496C1308.84,105.982 1307.62,102.484 1305.44,100.003C1303.27,97.522 1300.32,96.281 1296.61,96.281Z" style="fill:#3f6cb3;"/>
    <path d="M1374.26,129.658L1384.25,89.942L1393.13,89.942L1378.01,141.904L1370.8,141.904L1358.17,102.524L1345.88,141.904L1338.67,141.904L1323.6,89.942L1332.43,89.942L1342.66,128.842L1354.76,89.942L1361.92,89.942L1374.26,129.658Z" style="fill:#3f6cb3;"/>
    <path d="M1434.24,141.904C1433.73,140.88 1433.32,139.055 1433,136.429C1428.87,140.72 1423.93,142.865 1418.2,142.865C1413.08,142.865 1408.88,141.416 1405.6,138.518C1402.32,135.621 1400.67,131.947 1400.67,127.497C1400.67,122.086 1402.73,117.884 1406.85,114.89C1410.96,111.897 1416.75,110.4 1424.21,110.4L1432.85,110.4L1432.85,106.318C1432.85,103.212 1431.92,100.739 1430.07,98.898C1428.21,97.057 1425.47,96.137 1421.85,96.137C1418.68,96.137 1416.03,96.937 1413.88,98.538C1411.74,100.139 1410.66,102.076 1410.66,104.349L1401.73,104.349C1401.73,101.756 1402.65,99.25 1404.49,96.833C1406.33,94.416 1408.83,92.503 1411.99,91.094C1415.14,89.686 1418.6,88.981 1422.38,88.981C1428.37,88.981 1433.06,90.478 1436.45,93.471C1439.85,96.465 1441.61,100.587 1441.74,105.838L1441.74,129.754C1441.74,134.524 1442.34,138.318 1443.56,141.136L1443.56,141.904L1434.24,141.904ZM1419.5,135.133C1422.29,135.133 1424.93,134.412 1427.42,132.972C1429.92,131.531 1431.73,129.658 1432.85,127.353L1432.85,116.691L1425.89,116.691C1415,116.691 1409.56,119.877 1409.56,126.248C1409.56,129.034 1410.49,131.211 1412.35,132.78C1414.2,134.348 1416.59,135.133 1419.5,135.133Z" style="fill:#3f6cb3;"/>
    <path d="M1471.94,128.89L1484.05,89.942L1493.55,89.942L1472.66,149.924C1469.43,158.569 1464.29,162.891 1457.25,162.891L1455.57,162.747L1452.25,162.123L1452.25,154.919L1454.65,155.111C1457.66,155.111 1460.01,154.503 1461.69,153.286C1463.37,152.069 1464.76,149.844 1465.84,146.611L1467.81,141.328L1449.28,89.942L1458.98,89.942L1471.94,128.89Z" style="fill:#3f6cb3;"/>
</svg>
